<?xml version="1.0" encoding="UTF-8" standalone="no"?>
<!DOCTYPE svg PUBLIC "-//W3C//DTD SVG 1.1//EN"
 "http://www.w3.org/Graphics/SVG/1.1/DTD/svg11.dtd">
<!-- Generated by graphviz version 2.43.0 (0)
 -->
<!-- Title: EphemeralStorage Pages: 1 -->
<svg width="365pt" height="364pt"
 viewBox="0.00 0.00 364.50 364.00" xmlns="http://www.w3.org/2000/svg" xmlns:xlink="http://www.w3.org/1999/xlink">
<g id="graph0" class="graph" transform="scale(1 1) rotate(0) translate(4 360)">
<title>EphemeralStorage</title>
<polygon fill="white" stroke="transparent" points="-4,4 -4,-360 360.5,-360 360.5,4 -4,4"/>
<!-- Node4 -->
<g id="node1" class="node">
<title>Node4</title>
<polygon fill="#bfbfbf" stroke="black" points="121,-0.5 121,-19.5 228,-19.5 228,-0.5 121,-0.5"/>
<text text-anchor="middle" x="174.5" y="-7.5" font-family="Helvetica,sans-Serif" font-size="10.00">EphemeralStorage</text>
</g>
<!-- Node5 -->
<g id="node2" class="node">
<title>Node5</title>
<g id="a_node2"><a xlink:href="class_s_q_l_storage.html" target="_top" xlink:title="SQLStorage">
<polygon fill="white" stroke="black" points="138,-57.5 138,-76.5 211,-76.5 211,-57.5 138,-57.5"/>
<text text-anchor="middle" x="174.5" y="-64.5" font-family="Helvetica,sans-Serif" font-size="10.00">SQLStorage</text>
</a>
</g>
</g>
<!-- Node5&#45;&gt;Node4 -->
<g id="edge1" class="edge">
<title>Node5&#45;&gt;Node4</title>
<path fill="none" stroke="midnightblue" d="M174.5,-47.12C174.5,-37.82 174.5,-27.06 174.5,-19.71"/>
<polygon fill="midnightblue" stroke="midnightblue" points="171,-47.41 174.5,-57.41 178,-47.41 171,-47.41"/>
</g>
<!-- Node6 -->
<g id="node3" class="node">
<title>Node6</title>
<g id="a_node3"><a xlink:href="class_s_q_l_storage_base.html" target="_top" xlink:title="SQLStorageBase">
<polygon fill="white" stroke="black" points="76,-114.5 76,-133.5 173,-133.5 173,-114.5 76,-114.5"/>
<text text-anchor="middle" x="124.5" y="-121.5" font-family="Helvetica,sans-Serif" font-size="10.00">SQLStorageBase</text>
</a>
</g>
</g>
<!-- Node6&#45;&gt;Node5 -->
<g id="edge2" class="edge">
<title>Node6&#45;&gt;Node5</title>
<path fill="none" stroke="midnightblue" d="M139.2,-106.83C148.16,-96.98 159.24,-84.78 166.58,-76.71"/>
<polygon fill="midnightblue" stroke="midnightblue" points="136.45,-104.65 132.31,-114.41 141.63,-109.36 136.45,-104.65"/>
</g>
<!-- Node7 -->
<g id="node4" class="node">
<title>Node7</title>
<g id="a_node4"><a xlink:href="class_storage_lock.html" target="_top" xlink:title="StorageLock">
<polygon fill="white" stroke="black" points="0,-181.5 0,-200.5 77,-200.5 77,-181.5 0,-181.5"/>
<text text-anchor="middle" x="38.5" y="-188.5" font-family="Helvetica,sans-Serif" font-size="10.00">StorageLock</text>
</a>
</g>
</g>
<!-- Node7&#45;&gt;Node6 -->
<g id="edge3" class="edge">
<title>Node7&#45;&gt;Node6</title>
<path fill="none" stroke="#9a32cd" stroke-dasharray="5,2" d="M58.26,-175.07C75.23,-162.24 99.12,-144.19 113.09,-133.63"/>
<polygon fill="#9a32cd" stroke="#9a32cd" points="55.97,-172.41 50.1,-181.23 60.19,-178 55.97,-172.41"/>
<text text-anchor="middle" x="99.5" y="-155" font-family="Helvetica,sans-Serif" font-size="10.00"> lock</text>
</g>
<!-- Node8 -->
<g id="node5" class="node">
<title>Node8</title>
<g id="a_node5"><a xlink:title="STL class. ">
<polygon fill="white" stroke="#bfbfbf" points="95,-181.5 95,-200.5 160,-200.5 160,-181.5 95,-181.5"/>
<text text-anchor="middle" x="127.5" y="-188.5" font-family="Helvetica,sans-Serif" font-size="10.00">std::string</text>
</a>
</g>
</g>
<!-- Node8&#45;&gt;Node6 -->
<g id="edge4" class="edge">
<title>Node8&#45;&gt;Node6</title>
<path fill="none" stroke="#9a32cd" stroke-dasharray="5,2" d="M126,-171.38C125.81,-168.57 125.64,-165.71 125.5,-163 125,-152.98 124.74,-141.46 124.61,-133.76"/>
<polygon fill="#9a32cd" stroke="#9a32cd" points="122.52,-171.79 126.77,-181.49 129.5,-171.26 122.52,-171.79"/>
<text text-anchor="middle" x="169" y="-155" font-family="Helvetica,sans-Serif" font-size="10.00"> current_schema_</text>
</g>
<!-- Node9 -->
<g id="node6" class="node">
<title>Node9</title>
<g id="a_node6"><a xlink:title="STL class. ">
<polygon fill="white" stroke="#bfbfbf" points="75.5,-325.5 75.5,-355.5 179.5,-355.5 179.5,-325.5 75.5,-325.5"/>
<text text-anchor="start" x="83.5" y="-343.5" font-family="Helvetica,sans-Serif" font-size="10.00">std::basic_string&lt;</text>
<text text-anchor="middle" x="127.5" y="-332.5" font-family="Helvetica,sans-Serif" font-size="10.00"> char &gt;</text>
</a>
</g>
</g>
<!-- Node9&#45;&gt;Node8 -->
<g id="edge5" class="edge">
<title>Node9&#45;&gt;Node8</title>
<path fill="none" stroke="midnightblue" d="M127.5,-315.04C127.5,-281.5 127.5,-222.9 127.5,-200.79"/>
<polygon fill="midnightblue" stroke="midnightblue" points="124,-315.36 127.5,-325.36 131,-315.36 124,-315.36"/>
</g>
<!-- Node10 -->
<g id="node7" class="node">
<title>Node10</title>
<g id="a_node7"><a xlink:href="class_i_nv_storage.html" target="_top" xlink:title="INvStorage">
<polygon fill="white" stroke="black" points="195,-114.5 195,-133.5 266,-133.5 266,-114.5 195,-114.5"/>
<text text-anchor="middle" x="230.5" y="-121.5" font-family="Helvetica,sans-Serif" font-size="10.00">INvStorage</text>
</a>
</g>
</g>
<!-- Node10&#45;&gt;Node5 -->
<g id="edge6" class="edge">
<title>Node10&#45;&gt;Node5</title>
<path fill="none" stroke="midnightblue" d="M214.33,-107.12C204.26,-97.22 191.67,-84.86 183.37,-76.71"/>
<polygon fill="midnightblue" stroke="midnightblue" points="212.16,-109.9 221.75,-114.41 217.07,-104.9 212.16,-109.9"/>
</g>
<!-- Node11 -->
<g id="node8" class="node">
<title>Node11</title>
<g id="a_node8"><a xlink:href="struct_storage_config.html" target="_top" xlink:title="StorageConfig">
<polygon fill="white" stroke="black" points="192,-181.5 192,-200.5 277,-200.5 277,-181.5 192,-181.5"/>
<text text-anchor="middle" x="234.5" y="-188.5" font-family="Helvetica,sans-Serif" font-size="10.00">StorageConfig</text>
</a>
</g>
</g>
<!-- Node11&#45;&gt;Node10 -->
<g id="edge7" class="edge">
<title>Node11&#45;&gt;Node10</title>
<path fill="none" stroke="#9a32cd" stroke-dasharray="5,2" d="M233.33,-171.04C232.57,-158.67 231.62,-143.12 231.03,-133.63"/>
<polygon fill="#9a32cd" stroke="#9a32cd" points="229.85,-171.47 233.96,-181.23 236.84,-171.04 229.85,-171.47"/>
<text text-anchor="middle" x="251.5" y="-155" font-family="Helvetica,sans-Serif" font-size="10.00"> config_</text>
</g>
<!-- Node12 -->
<g id="node9" class="node">
<title>Node12</title>
<g id="a_node9"><a xlink:href="class_based_path.html" target="_top" xlink:title="BasedPath">
<polygon fill="white" stroke="black" points="200.5,-331 200.5,-350 268.5,-350 268.5,-331 200.5,-331"/>
<text text-anchor="middle" x="234.5" y="-338" font-family="Helvetica,sans-Serif" font-size="10.00">BasedPath</text>
</a>
</g>
</g>
<!-- Node12&#45;&gt;Node11 -->
<g id="edge8" class="edge">
<title>Node12&#45;&gt;Node11</title>
<path fill="none" stroke="#9a32cd" stroke-dasharray="5,2" d="M234.5,-320.37C234.5,-288 234.5,-223.7 234.5,-200.55"/>
<polygon fill="#9a32cd" stroke="#9a32cd" points="231,-320.71 234.5,-330.71 238,-320.71 231,-320.71"/>
<text text-anchor="middle" x="295.5" y="-299" font-family="Helvetica,sans-Serif" font-size="10.00"> uptane_public_key_path</text>
<text text-anchor="middle" x="295.5" y="-288" font-family="Helvetica,sans-Serif" font-size="10.00">tls_pkey_path</text>
<text text-anchor="middle" x="295.5" y="-277" font-family="Helvetica,sans-Serif" font-size="10.00">uptane_metadata_path</text>
<text text-anchor="middle" x="295.5" y="-266" font-family="Helvetica,sans-Serif" font-size="10.00">sqldb_path</text>
<text text-anchor="start" x="234.5" y="-255" font-family="Helvetica,sans-Serif" font-size="10.00">uptane_private_key</text>
<text text-anchor="middle" x="295.5" y="-244" font-family="Helvetica,sans-Serif" font-size="10.00">_path</text>
<text text-anchor="middle" x="295.5" y="-233" font-family="Helvetica,sans-Serif" font-size="10.00">tls_cacert_path</text>
<text text-anchor="middle" x="295.5" y="-222" font-family="Helvetica,sans-Serif" font-size="10.00">tls_clientcert_path</text>
</g>
</g>
</svg>
