<?xml version="1.0" encoding="UTF-8" standalone="no"?>
<!DOCTYPE svg PUBLIC "-//W3C//DTD SVG 1.1//EN"
 "http://www.w3.org/Graphics/SVG/1.1/DTD/svg11.dtd">
<!-- Generated by graphviz version 2.43.0 (0)
 -->
<!-- Title: Primary::IPSecondariesConfig Pages: 1 -->
<svg width="307pt" height="308pt"
 viewBox="0.00 0.00 306.50 308.00" xmlns="http://www.w3.org/2000/svg" xmlns:xlink="http://www.w3.org/1999/xlink">
<g id="graph0" class="graph" transform="scale(1 1) rotate(0) translate(4 304)">
<title>Primary::IPSecondariesConfig</title>
<polygon fill="white" stroke="transparent" points="-4,4 -4,-304 302.5,-304 302.5,4 -4,4"/>
<!-- Node2 -->
<g id="node1" class="node">
<title>Node2</title>
<polygon fill="#bfbfbf" stroke="black" points="7.5,-0.5 7.5,-19.5 166.5,-19.5 166.5,-0.5 7.5,-0.5"/>
<text text-anchor="middle" x="87" y="-7.5" font-family="Helvetica,sans-Serif" font-size="10.00">Primary::IPSecondariesConfig</text>
</g>
<!-- Node3 -->
<g id="node2" class="node">
<title>Node3</title>
<g id="a_node2"><a xlink:href="class_primary_1_1_secondary_config.html" target="_top" xlink:title="Primary::SecondaryConfig">
<polygon fill="white" stroke="black" points="0,-73 0,-92 142,-92 142,-73 0,-73"/>
<text text-anchor="middle" x="71" y="-80" font-family="Helvetica,sans-Serif" font-size="10.00">Primary::SecondaryConfig</text>
</a>
</g>
</g>
<!-- Node3&#45;&gt;Node2 -->
<g id="edge1" class="edge">
<title>Node3&#45;&gt;Node2</title>
<path fill="none" stroke="midnightblue" d="M75.23,-62.86C78.4,-48.9 82.59,-30.43 85.02,-19.72"/>
<polygon fill="midnightblue" stroke="midnightblue" points="71.76,-62.33 72.96,-72.86 78.59,-63.88 71.76,-62.33"/>
</g>
<!-- Node4 -->
<g id="node3" class="node">
<title>Node4</title>
<polygon fill="white" stroke="#bfbfbf" points="160.5,-67.5 160.5,-97.5 285.5,-97.5 285.5,-67.5 160.5,-67.5"/>
<text text-anchor="start" x="168.5" y="-85.5" font-family="Helvetica,sans-Serif" font-size="10.00">std::vector&lt; Primary</text>
<text text-anchor="middle" x="223" y="-74.5" font-family="Helvetica,sans-Serif" font-size="10.00">::IPSecondaryConfig &gt;</text>
</g>
<!-- Node4&#45;&gt;Node2 -->
<g id="edge2" class="edge">
<title>Node4&#45;&gt;Node2</title>
<path fill="none" stroke="#9a32cd" stroke-dasharray="5,2" d="M186.64,-62.65C159.6,-48.63 123.97,-30.16 103.46,-19.53"/>
<polygon fill="#9a32cd" stroke="#9a32cd" points="185.32,-65.91 195.81,-67.4 188.54,-59.69 185.32,-65.91"/>
<text text-anchor="middle" x="200" y="-41" font-family="Helvetica,sans-Serif" font-size="10.00"> secondaries_cfg</text>
</g>
<!-- Node5 -->
<g id="node4" class="node">
<title>Node5</title>
<g id="a_node4"><a xlink:href="class_primary_1_1_i_p_secondary_config.html" target="_top" xlink:title="Primary::IPSecondaryConfig">
<polygon fill="white" stroke="black" points="147.5,-145.5 147.5,-164.5 298.5,-164.5 298.5,-145.5 147.5,-145.5"/>
<text text-anchor="middle" x="223" y="-152.5" font-family="Helvetica,sans-Serif" font-size="10.00">Primary::IPSecondaryConfig</text>
</a>
</g>
</g>
<!-- Node5&#45;&gt;Node4 -->
<g id="edge3" class="edge">
<title>Node5&#45;&gt;Node4</title>
<path fill="none" stroke="#9a32cd" stroke-dasharray="5,2" d="M223,-135.24C223,-123.41 223,-108.38 223,-97.58"/>
<polygon fill="#9a32cd" stroke="#9a32cd" points="219.5,-135.36 223,-145.36 226.5,-135.36 219.5,-135.36"/>
<text text-anchor="middle" x="247.5" y="-119" font-family="Helvetica,sans-Serif" font-size="10.00"> elements</text>
</g>
<!-- Node6 -->
<g id="node5" class="node">
<title>Node6</title>
<g id="a_node5"><a xlink:title="STL class. ">
<polygon fill="white" stroke="#bfbfbf" points="190.5,-212.5 190.5,-231.5 255.5,-231.5 255.5,-212.5 190.5,-212.5"/>
<text text-anchor="middle" x="223" y="-219.5" font-family="Helvetica,sans-Serif" font-size="10.00">std::string</text>
</a>
</g>
</g>
<!-- Node6&#45;&gt;Node5 -->
<g id="edge4" class="edge">
<title>Node6&#45;&gt;Node5</title>
<path fill="none" stroke="#9a32cd" stroke-dasharray="5,2" d="M223,-202.04C223,-189.67 223,-174.12 223,-164.63"/>
<polygon fill="#9a32cd" stroke="#9a32cd" points="219.5,-202.23 223,-212.23 226.5,-202.23 219.5,-202.23"/>
<text text-anchor="middle" x="229.5" y="-186" font-family="Helvetica,sans-Serif" font-size="10.00"> ip</text>
</g>
<!-- Node7 -->
<g id="node6" class="node">
<title>Node7</title>
<g id="a_node6"><a xlink:title="STL class. ">
<polygon fill="white" stroke="#bfbfbf" points="171,-269.5 171,-299.5 275,-299.5 275,-269.5 171,-269.5"/>
<text text-anchor="start" x="179" y="-287.5" font-family="Helvetica,sans-Serif" font-size="10.00">std::basic_string&lt;</text>
<text text-anchor="middle" x="223" y="-276.5" font-family="Helvetica,sans-Serif" font-size="10.00"> char &gt;</text>
</a>
</g>
</g>
<!-- Node7&#45;&gt;Node6 -->
<g id="edge5" class="edge">
<title>Node7&#45;&gt;Node6</title>
<path fill="none" stroke="midnightblue" d="M223,-259.35C223,-249.51 223,-238.78 223,-231.54"/>
<polygon fill="midnightblue" stroke="midnightblue" points="219.5,-259.47 223,-269.47 226.5,-259.47 219.5,-259.47"/>
</g>
</g>
</svg>
