<?xml version="1.0" encoding="UTF-8" standalone="no"?>
<!DOCTYPE svg PUBLIC "-//W3C//DTD SVG 1.1//EN"
 "http://www.w3.org/Graphics/SVG/1.1/DTD/svg11.dtd">
<!-- Generated by graphviz version 2.43.0 (0)
 -->
<!-- Title: Primary::ManagedSecondaryConfig Pages: 1 -->
<svg width="316pt" height="162pt"
 viewBox="0.00 0.00 315.50 162.00" xmlns="http://www.w3.org/2000/svg" xmlns:xlink="http://www.w3.org/1999/xlink">
<g id="graph0" class="graph" transform="scale(1 1) rotate(0) translate(4 158)">
<title>Primary::ManagedSecondaryConfig</title>
<polygon fill="white" stroke="transparent" points="-4,4 -4,-158 311.5,-158 311.5,4 -4,4"/>
<!-- Node0 -->
<g id="node1" class="node">
<title>Node0</title>
<polygon fill="#bfbfbf" stroke="black" points="76.5,-67.5 76.5,-97.5 231.5,-97.5 231.5,-67.5 76.5,-67.5"/>
<text text-anchor="start" x="84.5" y="-85.5" font-family="Helvetica,sans-Serif" font-size="10.00">Primary::ManagedSecondary</text>
<text text-anchor="middle" x="154" y="-74.5" font-family="Helvetica,sans-Serif" font-size="10.00">Config</text>
</g>
<!-- Node2 -->
<g id="node3" class="node">
<title>Node2</title>
<g id="a_node3"><a xlink:href="class_primary_1_1_partial_verification_secondary_config.html" target="_top" xlink:title="Primary::PartialVerification\lSecondaryConfig">
<polygon fill="white" stroke="black" points="0,-0.5 0,-30.5 146,-30.5 146,-0.5 0,-0.5"/>
<text text-anchor="start" x="8" y="-18.5" font-family="Helvetica,sans-Serif" font-size="10.00">Primary::PartialVerification</text>
<text text-anchor="middle" x="73" y="-7.5" font-family="Helvetica,sans-Serif" font-size="10.00">SecondaryConfig</text>
</a>
</g>
</g>
<!-- Node0&#45;&gt;Node2 -->
<g id="edge2" class="edge">
<title>Node0&#45;&gt;Node2</title>
<path fill="none" stroke="midnightblue" d="M128.31,-60.88C116,-51.01 101.57,-39.43 90.54,-30.58"/>
<polygon fill="midnightblue" stroke="midnightblue" points="126.43,-63.87 136.42,-67.4 130.82,-58.41 126.43,-63.87"/>
</g>
<!-- Node3 -->
<g id="node4" class="node">
<title>Node3</title>
<g id="a_node4"><a xlink:href="class_primary_1_1_virtual_secondary_config.html" target="_top" xlink:title="Primary::VirtualSecondary\lConfig">
<polygon fill="white" stroke="black" points="164.5,-0.5 164.5,-30.5 307.5,-30.5 307.5,-0.5 164.5,-0.5"/>
<text text-anchor="start" x="172.5" y="-18.5" font-family="Helvetica,sans-Serif" font-size="10.00">Primary::VirtualSecondary</text>
<text text-anchor="middle" x="236" y="-7.5" font-family="Helvetica,sans-Serif" font-size="10.00">Config</text>
</a>
</g>
</g>
<!-- Node0&#45;&gt;Node3 -->
<g id="edge3" class="edge">
<title>Node0&#45;&gt;Node3</title>
<path fill="none" stroke="midnightblue" d="M179.65,-61.17C192.19,-51.23 206.97,-39.51 218.24,-30.58"/>
<polygon fill="midnightblue" stroke="midnightblue" points="177.46,-58.44 171.79,-67.4 181.8,-63.93 177.46,-58.44"/>
</g>
<!-- Node1 -->
<g id="node2" class="node">
<title>Node1</title>
<g id="a_node2"><a xlink:href="class_primary_1_1_secondary_config.html" target="_top" xlink:title="Primary::SecondaryConfig">
<polygon fill="white" stroke="black" points="83,-134.5 83,-153.5 225,-153.5 225,-134.5 83,-134.5"/>
<text text-anchor="middle" x="154" y="-141.5" font-family="Helvetica,sans-Serif" font-size="10.00">Primary::SecondaryConfig</text>
</a>
</g>
</g>
<!-- Node1&#45;&gt;Node0 -->
<g id="edge1" class="edge">
<title>Node1&#45;&gt;Node0</title>
<path fill="none" stroke="midnightblue" d="M154,-124.23C154,-115.59 154,-105.5 154,-97.52"/>
<polygon fill="midnightblue" stroke="midnightblue" points="150.5,-124.48 154,-134.48 157.5,-124.48 150.5,-124.48"/>
</g>
</g>
</svg>
