<?xml version="1.0" encoding="UTF-8" standalone="no"?>
<!DOCTYPE svg PUBLIC "-//W3C//DTD SVG 1.1//EN"
 "http://www.w3.org/Graphics/SVG/1.1/DTD/svg11.dtd">
<!-- Generated by graphviz version 2.43.0 (0)
 -->
<!-- Title: result::Download Pages: 1 -->
<svg width="230pt" height="184pt"
 viewBox="0.00 0.00 229.50 184.00" xmlns="http://www.w3.org/2000/svg" xmlns:xlink="http://www.w3.org/1999/xlink">
<g id="graph0" class="graph" transform="scale(1 1) rotate(0) translate(4 180)">
<title>result::Download</title>
<polygon fill="white" stroke="transparent" points="-4,4 -4,-180 225.5,-180 225.5,4 -4,4"/>
<!-- Node1 -->
<g id="node1" class="node">
<title>Node1</title>
<polygon fill="#bfbfbf" stroke="black" points="62,-0.5 62,-19.5 161,-19.5 161,-0.5 62,-0.5"/>
<text text-anchor="middle" x="111.5" y="-7.5" font-family="Helvetica,sans-Serif" font-size="10.00">result::Download</text>
</g>
<!-- Node2 -->
<g id="node2" class="node">
<title>Node2</title>
<polygon fill="white" stroke="#bfbfbf" points="0,-67.5 0,-97.5 115,-97.5 115,-67.5 0,-67.5"/>
<text text-anchor="start" x="8" y="-85.5" font-family="Helvetica,sans-Serif" font-size="10.00">std::vector&lt; Uptane</text>
<text text-anchor="middle" x="57.5" y="-74.5" font-family="Helvetica,sans-Serif" font-size="10.00">::Target &gt;</text>
</g>
<!-- Node2&#45;&gt;Node1 -->
<g id="edge1" class="edge">
<title>Node2&#45;&gt;Node1</title>
<path fill="none" stroke="#9a32cd" stroke-dasharray="5,2" d="M73.67,-59.08C78.67,-52.26 84.25,-44.78 89.5,-38 94.24,-31.88 99.74,-25.13 104.05,-19.91"/>
<polygon fill="#9a32cd" stroke="#9a32cd" points="70.76,-57.12 67.7,-67.26 76.42,-61.24 70.76,-57.12"/>
<text text-anchor="middle" x="111" y="-41" font-family="Helvetica,sans-Serif" font-size="10.00"> updates</text>
</g>
<!-- Node3 -->
<g id="node3" class="node">
<title>Node3</title>
<g id="a_node3"><a xlink:href="class_uptane_1_1_target.html" target="_top" xlink:title="Uptane::Target">
<polygon fill="white" stroke="black" points="11.5,-151 11.5,-170 99.5,-170 99.5,-151 11.5,-151"/>
<text text-anchor="middle" x="55.5" y="-158" font-family="Helvetica,sans-Serif" font-size="10.00">Uptane::Target</text>
</a>
</g>
</g>
<!-- Node3&#45;&gt;Node2 -->
<g id="edge2" class="edge">
<title>Node3&#45;&gt;Node2</title>
<path fill="none" stroke="#9a32cd" stroke-dasharray="5,2" d="M55.99,-140.78C56.34,-127.4 56.81,-109.69 57.13,-97.52"/>
<polygon fill="#9a32cd" stroke="#9a32cd" points="52.49,-140.69 55.73,-150.78 59.49,-140.88 52.49,-140.69"/>
<text text-anchor="middle" x="82" y="-119" font-family="Helvetica,sans-Serif" font-size="10.00"> elements</text>
</g>
<!-- Node4 -->
<g id="node4" class="node">
<title>Node4</title>
<g id="a_node4"><a xlink:title="STL class. ">
<polygon fill="white" stroke="#bfbfbf" points="136,-73 136,-92 201,-92 201,-73 136,-73"/>
<text text-anchor="middle" x="168.5" y="-80" font-family="Helvetica,sans-Serif" font-size="10.00">std::string</text>
</a>
</g>
</g>
<!-- Node4&#45;&gt;Node1 -->
<g id="edge3" class="edge">
<title>Node4&#45;&gt;Node1</title>
<path fill="none" stroke="#9a32cd" stroke-dasharray="5,2" d="M155.08,-64.9C143.63,-50.74 127.64,-30.96 118.55,-19.72"/>
<polygon fill="#9a32cd" stroke="#9a32cd" points="152.5,-67.28 161.51,-72.86 157.95,-62.88 152.5,-67.28"/>
<text text-anchor="middle" x="165.5" y="-41" font-family="Helvetica,sans-Serif" font-size="10.00"> message</text>
</g>
<!-- Node5 -->
<g id="node5" class="node">
<title>Node5</title>
<g id="a_node5"><a xlink:title="STL class. ">
<polygon fill="white" stroke="#bfbfbf" points="117.5,-145.5 117.5,-175.5 221.5,-175.5 221.5,-145.5 117.5,-145.5"/>
<text text-anchor="start" x="125.5" y="-163.5" font-family="Helvetica,sans-Serif" font-size="10.00">std::basic_string&lt;</text>
<text text-anchor="middle" x="169.5" y="-152.5" font-family="Helvetica,sans-Serif" font-size="10.00"> char &gt;</text>
</a>
</g>
</g>
<!-- Node5&#45;&gt;Node4 -->
<g id="edge4" class="edge">
<title>Node5&#45;&gt;Node4</title>
<path fill="none" stroke="midnightblue" d="M169.18,-135.17C168.99,-120.4 168.75,-102.45 168.61,-92.06"/>
<polygon fill="midnightblue" stroke="midnightblue" points="165.68,-135.25 169.31,-145.2 172.68,-135.16 165.68,-135.25"/>
</g>
</g>
</svg>
