<?xml version="1.0" encoding="UTF-8" standalone="no"?>
<!DOCTYPE svg PUBLIC "-//W3C//DTD SVG 1.1//EN"
 "http://www.w3.org/Graphics/SVG/1.1/DTD/svg11.dtd">
<!-- Generated by graphviz version 2.43.0 (0)
 -->
<!-- Title: Uptane::Role Pages: 1 -->
<svg width="116pt" height="196pt"
 viewBox="0.00 0.00 116.00 196.00" xmlns="http://www.w3.org/2000/svg" xmlns:xlink="http://www.w3.org/1999/xlink">
<g id="graph0" class="graph" transform="scale(1 1) rotate(0) translate(4 192)">
<title>Uptane::Role</title>
<polygon fill="white" stroke="transparent" points="-4,4 -4,-192 112,-192 112,4 -4,4"/>
<!-- Node1 -->
<g id="node1" class="node">
<title>Node1</title>
<polygon fill="#bfbfbf" stroke="black" points="12.5,-0.5 12.5,-19.5 91.5,-19.5 91.5,-0.5 12.5,-0.5"/>
<text text-anchor="middle" x="52" y="-7.5" font-family="Helvetica,sans-Serif" font-size="10.00">Uptane::Role</text>
</g>
<!-- Node2 -->
<g id="node2" class="node">
<title>Node2</title>
<g id="a_node2"><a xlink:title="STL class. ">
<polygon fill="white" stroke="#bfbfbf" points="19.5,-100.5 19.5,-119.5 84.5,-119.5 84.5,-100.5 19.5,-100.5"/>
<text text-anchor="middle" x="52" y="-107.5" font-family="Helvetica,sans-Serif" font-size="10.00">std::string</text>
</a>
</g>
</g>
<!-- Node2&#45;&gt;Node1 -->
<g id="edge1" class="edge">
<title>Node2&#45;&gt;Node1</title>
<path fill="none" stroke="#9a32cd" stroke-dasharray="5,2" d="M52,-90.22C52,-68.95 52,-35.22 52,-19.54"/>
<polygon fill="#9a32cd" stroke="#9a32cd" points="48.5,-90.3 52,-100.3 55.5,-90.3 48.5,-90.3"/>
<text text-anchor="middle" x="80" y="-74" font-family="Helvetica,sans-Serif" font-size="10.00"> ROOT</text>
<text text-anchor="middle" x="80" y="-63" font-family="Helvetica,sans-Serif" font-size="10.00">TIMESTAMP</text>
<text text-anchor="middle" x="80" y="-52" font-family="Helvetica,sans-Serif" font-size="10.00">SNAPSHOT</text>
<text text-anchor="middle" x="80" y="-41" font-family="Helvetica,sans-Serif" font-size="10.00">TARGETS</text>
</g>
<!-- Node3 -->
<g id="node3" class="node">
<title>Node3</title>
<g id="a_node3"><a xlink:title="STL class. ">
<polygon fill="white" stroke="#bfbfbf" points="0,-157.5 0,-187.5 104,-187.5 104,-157.5 0,-157.5"/>
<text text-anchor="start" x="8" y="-175.5" font-family="Helvetica,sans-Serif" font-size="10.00">std::basic_string&lt;</text>
<text text-anchor="middle" x="52" y="-164.5" font-family="Helvetica,sans-Serif" font-size="10.00"> char &gt;</text>
</a>
</g>
</g>
<!-- Node3&#45;&gt;Node2 -->
<g id="edge2" class="edge">
<title>Node3&#45;&gt;Node2</title>
<path fill="none" stroke="midnightblue" d="M52,-147.35C52,-137.51 52,-126.78 52,-119.54"/>
<polygon fill="midnightblue" stroke="midnightblue" points="48.5,-147.47 52,-157.47 55.5,-147.47 48.5,-147.47"/>
</g>
</g>
</svg>
