<?xml version="1.0" encoding="UTF-8" standalone="no"?>
<!DOCTYPE svg PUBLIC "-//W3C//DTD SVG 1.1//EN"
 "http://www.w3.org/Graphics/SVG/1.1/DTD/svg11.dtd">
<!-- Generated by graphviz version 2.43.0 (0)
 -->
<!-- Title: HttpDefaultUri Pages: 1 -->
<svg width="96pt" height="140pt"
 viewBox="0.00 0.00 96.00 140.00" xmlns="http://www.w3.org/2000/svg" xmlns:xlink="http://www.w3.org/1999/xlink">
<g id="graph0" class="graph" transform="scale(1 1) rotate(0) translate(4 136)">
<title>HttpDefaultUri</title>
<polygon fill="white" stroke="transparent" points="-4,4 -4,-136 92,-136 92,4 -4,4"/>
<!-- Node0 -->
<g id="node1" class="node">
<title>Node0</title>
<polygon fill="#bfbfbf" stroke="black" points="0,-0.5 0,-19.5 88,-19.5 88,-0.5 0,-0.5"/>
<text text-anchor="middle" x="44" y="-7.5" font-family="Helvetica,sans-Serif" font-size="10.00">HttpDefaultUri</text>
</g>
<!-- Node1 -->
<g id="node2" class="node">
<title>Node1</title>
<g id="a_node2"><a xlink:href="class_http_fake.html" target="_top" xlink:title="HttpFake">
<polygon fill="white" stroke="black" points="14,-56.5 14,-75.5 74,-75.5 74,-56.5 14,-56.5"/>
<text text-anchor="middle" x="44" y="-63.5" font-family="Helvetica,sans-Serif" font-size="10.00">HttpFake</text>
</a>
</g>
</g>
<!-- Node1&#45;&gt;Node0 -->
<g id="edge1" class="edge">
<title>Node1&#45;&gt;Node0</title>
<path fill="none" stroke="midnightblue" d="M44,-45.8C44,-36.91 44,-26.78 44,-19.75"/>
<polygon fill="midnightblue" stroke="midnightblue" points="40.5,-46.08 44,-56.08 47.5,-46.08 40.5,-46.08"/>
</g>
<!-- Node2 -->
<g id="node3" class="node">
<title>Node2</title>
<g id="a_node3"><a xlink:href="class_http_interface.html" target="_top" xlink:title="HttpInterface">
<polygon fill="white" stroke="black" points="3.5,-112.5 3.5,-131.5 84.5,-131.5 84.5,-112.5 3.5,-112.5"/>
<text text-anchor="middle" x="44" y="-119.5" font-family="Helvetica,sans-Serif" font-size="10.00">HttpInterface</text>
</a>
</g>
</g>
<!-- Node2&#45;&gt;Node1 -->
<g id="edge2" class="edge">
<title>Node2&#45;&gt;Node1</title>
<path fill="none" stroke="midnightblue" d="M44,-101.8C44,-92.91 44,-82.78 44,-75.75"/>
<polygon fill="midnightblue" stroke="midnightblue" points="40.5,-102.08 44,-112.08 47.5,-102.08 40.5,-102.08"/>
</g>
</g>
</svg>
