<?xml version="1.0" encoding="UTF-8" standalone="no"?>
<!DOCTYPE svg PUBLIC "-//W3C//DTD SVG 1.1//EN"
 "http://www.w3.org/Graphics/SVG/1.1/DTD/svg11.dtd">
<!-- Generated by graphviz version 2.43.0 (0)
 -->
<!-- Title: Uptane::Targets Pages: 1 -->
<svg width="1174pt" height="365pt"
 viewBox="0.00 0.00 1174.00 364.50" xmlns="http://www.w3.org/2000/svg" xmlns:xlink="http://www.w3.org/1999/xlink">
<g id="graph0" class="graph" transform="scale(1 1) rotate(0) translate(4 360.5)">
<title>Uptane::Targets</title>
<polygon fill="white" stroke="transparent" points="-4,4 -4,-360.5 1170,-360.5 1170,4 -4,4"/>
<!-- Node3 -->
<g id="node1" class="node">
<title>Node3</title>
<polygon fill="#bfbfbf" stroke="black" points="1073,-97 1073,-116 1166,-116 1166,-97 1073,-97"/>
<text text-anchor="middle" x="1119.5" y="-104" font-family="Helvetica,sans-Serif" font-size="10.00">Uptane::Targets</text>
</g>
<!-- Node4 -->
<g id="node2" class="node">
<title>Node4</title>
<g id="a_node2"><a xlink:href="class_uptane_1_1_meta_with_keys.html" target="_top" xlink:title="Uptane::MetaWithKeys">
<polygon fill="white" stroke="black" points="871,-247 871,-266 999,-266 999,-247 871,-247"/>
<text text-anchor="middle" x="935" y="-254" font-family="Helvetica,sans-Serif" font-size="10.00">Uptane::MetaWithKeys</text>
</a>
</g>
</g>
<!-- Node4&#45;&gt;Node3 -->
<g id="edge1" class="edge">
<title>Node4&#45;&gt;Node3</title>
<path fill="none" stroke="midnightblue" d="M959.68,-241.39C984.37,-225.23 1023.75,-198.28 1055,-171.5 1076.08,-153.43 1098.19,-129.48 1109.95,-116.28"/>
<polygon fill="midnightblue" stroke="midnightblue" points="957.77,-238.46 951.29,-246.84 961.58,-244.33 957.77,-238.46"/>
</g>
<!-- Node5 -->
<g id="node3" class="node">
<title>Node5</title>
<g id="a_node3"><a xlink:href="class_uptane_1_1_base_meta.html" target="_top" xlink:title="Uptane::BaseMeta">
<polygon fill="white" stroke="black" points="569,-336 569,-355 675,-355 675,-336 569,-336"/>
<text text-anchor="middle" x="622" y="-343" font-family="Helvetica,sans-Serif" font-size="10.00">Uptane::BaseMeta</text>
</a>
</g>
</g>
<!-- Node5&#45;&gt;Node4 -->
<g id="edge2" class="edge">
<title>Node5&#45;&gt;Node4</title>
<path fill="none" stroke="midnightblue" d="M685.12,-340.02C732.3,-334.47 798.18,-323.71 853,-303.5 878.48,-294.11 905.18,-276.97 920.67,-266.19"/>
<polygon fill="midnightblue" stroke="midnightblue" points="684.59,-336.56 675.05,-341.16 685.38,-343.51 684.59,-336.56"/>
</g>
<!-- Node6 -->
<g id="node4" class="node">
<title>Node6</title>
<g id="a_node4"><a xlink:href="class_time_stamp.html" target="_top" xlink:title="TimeStamp">
<polygon fill="white" stroke="black" points="342.5,-336 342.5,-355 415.5,-355 415.5,-336 342.5,-336"/>
<text text-anchor="middle" x="379" y="-343" font-family="Helvetica,sans-Serif" font-size="10.00">TimeStamp</text>
</a>
</g>
</g>
<!-- Node6&#45;&gt;Node5 -->
<g id="edge3" class="edge">
<title>Node6&#45;&gt;Node5</title>
<path fill="none" stroke="#9a32cd" stroke-dasharray="5,2" d="M425.76,-345.5C466.53,-345.5 526.18,-345.5 568.8,-345.5"/>
<polygon fill="#9a32cd" stroke="#9a32cd" points="425.56,-342 415.56,-345.5 425.56,-349 425.56,-342"/>
<text text-anchor="middle" x="502.5" y="-348.5" font-family="Helvetica,sans-Serif" font-size="10.00"> expiry_</text>
</g>
<!-- Node7 -->
<g id="node5" class="node">
<title>Node7</title>
<polygon fill="white" stroke="#bfbfbf" points="549,-286.5 549,-316.5 695,-316.5 695,-286.5 549,-286.5"/>
<text text-anchor="start" x="557" y="-304.5" font-family="Helvetica,sans-Serif" font-size="10.00">std::set&lt; std::pair</text>
<text text-anchor="middle" x="622" y="-293.5" font-family="Helvetica,sans-Serif" font-size="10.00">&lt; Uptane::Role, KeyId &gt; &gt;</text>
</g>
<!-- Node7&#45;&gt;Node4 -->
<g id="edge4" class="edge">
<title>Node7&#45;&gt;Node4</title>
<path fill="none" stroke="#9a32cd" stroke-dasharray="5,2" d="M705.15,-291.18C749.08,-285.47 804.05,-278.03 853,-270.5 861.89,-269.13 871.3,-267.59 880.45,-266.04"/>
<polygon fill="#9a32cd" stroke="#9a32cd" points="704.57,-287.73 695.1,-292.48 705.46,-294.67 704.57,-287.73"/>
<text text-anchor="middle" x="785" y="-291.5" font-family="Helvetica,sans-Serif" font-size="10.00"> keys_for_role_</text>
</g>
<!-- Node8 -->
<g id="node6" class="node">
<title>Node8</title>
<polygon fill="white" stroke="#bfbfbf" points="298,-247 298,-266 460,-266 460,-247 298,-247"/>
<text text-anchor="middle" x="379" y="-254" font-family="Helvetica,sans-Serif" font-size="10.00">std::map&lt; KeyId, PublicKey &gt;</text>
</g>
<!-- Node8&#45;&gt;Node4 -->
<g id="edge5" class="edge">
<title>Node8&#45;&gt;Node4</title>
<path fill="none" stroke="#9a32cd" stroke-dasharray="5,2" d="M470.59,-256.5C583.29,-256.5 772.8,-256.5 870.91,-256.5"/>
<polygon fill="#9a32cd" stroke="#9a32cd" points="470.26,-253 460.26,-256.5 470.26,-260 470.26,-253"/>
<text text-anchor="middle" x="622" y="-259.5" font-family="Helvetica,sans-Serif" font-size="10.00"> keys_</text>
</g>
<!-- Node9 -->
<g id="node7" class="node">
<title>Node9</title>
<g id="a_node7"><a xlink:href="class_public_key.html" target="_top" xlink:title="PublicKey">
<polygon fill="white" stroke="black" points="141.5,-249 141.5,-268 205.5,-268 205.5,-249 141.5,-249"/>
<text text-anchor="middle" x="173.5" y="-256" font-family="Helvetica,sans-Serif" font-size="10.00">PublicKey</text>
</a>
</g>
</g>
<!-- Node9&#45;&gt;Node8 -->
<g id="edge6" class="edge">
<title>Node9&#45;&gt;Node8</title>
<path fill="none" stroke="#9a32cd" stroke-dasharray="5,2" d="M216.16,-258.09C239.68,-257.86 269.89,-257.56 297.82,-257.29"/>
<polygon fill="#9a32cd" stroke="#9a32cd" points="215.82,-254.59 205.85,-258.19 215.88,-261.59 215.82,-254.59"/>
<text text-anchor="middle" x="252" y="-260.5" font-family="Helvetica,sans-Serif" font-size="10.00"> elements</text>
</g>
<!-- Node10 -->
<g id="node8" class="node">
<title>Node10</title>
<g id="a_node8"><a xlink:title="STL class. ">
<polygon fill="white" stroke="#bfbfbf" points="141,-148 141,-167 206,-167 206,-148 141,-148"/>
<text text-anchor="middle" x="173.5" y="-155" font-family="Helvetica,sans-Serif" font-size="10.00">std::string</text>
</a>
</g>
</g>
<!-- Node10&#45;&gt;Node8 -->
<g id="edge7" class="edge">
<title>Node10&#45;&gt;Node8</title>
<path fill="none" stroke="#9a32cd" stroke-dasharray="5,2" d="M189.98,-174.61C199.13,-183.89 211.37,-194.97 224,-202.5 259.65,-223.75 304.93,-238.36 337.15,-246.98"/>
<polygon fill="#9a32cd" stroke="#9a32cd" points="192.51,-172.19 183.08,-167.35 187.44,-177.01 192.51,-172.19"/>
<text text-anchor="middle" x="252" y="-229.5" font-family="Helvetica,sans-Serif" font-size="10.00"> keys</text>
</g>
<!-- Node13 -->
<g id="node11" class="node">
<title>Node13</title>
<g id="a_node11"><a xlink:href="class_uptane_1_1_role.html" target="_top" xlink:title="TUF Roles. ">
<polygon fill="white" stroke="black" points="339.5,-150 339.5,-169 418.5,-169 418.5,-150 339.5,-150"/>
<text text-anchor="middle" x="379" y="-157" font-family="Helvetica,sans-Serif" font-size="10.00">Uptane::Role</text>
</a>
</g>
</g>
<!-- Node10&#45;&gt;Node13 -->
<g id="edge11" class="edge">
<title>Node10&#45;&gt;Node13</title>
<path fill="none" stroke="#9a32cd" stroke-dasharray="5,2" d="M216.38,-157.89C235.74,-158.07 259.04,-158.29 280,-158.5 299.57,-158.69 321.33,-158.91 339.37,-159.1"/>
<polygon fill="#9a32cd" stroke="#9a32cd" points="216.39,-154.39 206.36,-157.8 216.32,-161.39 216.39,-154.39"/>
<text text-anchor="middle" x="252" y="-194.5" font-family="Helvetica,sans-Serif" font-size="10.00"> ROOT</text>
<text text-anchor="middle" x="252" y="-183.5" font-family="Helvetica,sans-Serif" font-size="10.00">TIMESTAMP</text>
<text text-anchor="middle" x="252" y="-172.5" font-family="Helvetica,sans-Serif" font-size="10.00">SNAPSHOT</text>
<text text-anchor="middle" x="252" y="-161.5" font-family="Helvetica,sans-Serif" font-size="10.00">TARGETS</text>
</g>
<!-- Node18 -->
<g id="node16" class="node">
<title>Node18</title>
<polygon fill="white" stroke="#bfbfbf" points="309,-83 309,-102 449,-102 449,-83 309,-83"/>
<text text-anchor="middle" x="379" y="-90" font-family="Helvetica,sans-Serif" font-size="10.00">std::vector&lt; std::string &gt;</text>
</g>
<!-- Node10&#45;&gt;Node18 -->
<g id="edge19" class="edge">
<title>Node10&#45;&gt;Node18</title>
<path fill="none" stroke="#9a32cd" stroke-dasharray="5,2" d="M214.06,-144.87C253.34,-132.32 312.7,-113.36 348.18,-102.02"/>
<polygon fill="#9a32cd" stroke="#9a32cd" points="212.99,-141.53 204.53,-147.91 215.12,-148.2 212.99,-141.53"/>
<text text-anchor="middle" x="252" y="-142.5" font-family="Helvetica,sans-Serif" font-size="10.00"> elements</text>
</g>
<!-- Node11 -->
<g id="node9" class="node">
<title>Node11</title>
<g id="a_node9"><a xlink:title="STL class. ">
<polygon fill="white" stroke="#bfbfbf" points="0,-142.5 0,-172.5 104,-172.5 104,-142.5 0,-142.5"/>
<text text-anchor="start" x="8" y="-160.5" font-family="Helvetica,sans-Serif" font-size="10.00">std::basic_string&lt;</text>
<text text-anchor="middle" x="52" y="-149.5" font-family="Helvetica,sans-Serif" font-size="10.00"> char &gt;</text>
</a>
</g>
</g>
<!-- Node11&#45;&gt;Node10 -->
<g id="edge8" class="edge">
<title>Node11&#45;&gt;Node10</title>
<path fill="none" stroke="midnightblue" d="M114.1,-157.5C123.41,-157.5 132.68,-157.5 141,-157.5"/>
<polygon fill="midnightblue" stroke="midnightblue" points="114.03,-154 104.03,-157.5 114.03,-161 114.03,-154"/>
</g>
<!-- Node12 -->
<g id="node10" class="node">
<title>Node12</title>
<polygon fill="white" stroke="#bfbfbf" points="554,-189.5 554,-219.5 690,-219.5 690,-189.5 554,-189.5"/>
<text text-anchor="start" x="562" y="-207.5" font-family="Helvetica,sans-Serif" font-size="10.00">std::map&lt; Uptane::Role,</text>
<text text-anchor="middle" x="622" y="-196.5" font-family="Helvetica,sans-Serif" font-size="10.00"> int64_t &gt;</text>
</g>
<!-- Node12&#45;&gt;Node4 -->
<g id="edge9" class="edge">
<title>Node12&#45;&gt;Node4</title>
<path fill="none" stroke="#9a32cd" stroke-dasharray="5,2" d="M700.17,-210.02C745.09,-214.11 802.62,-220.86 853,-231.5 871.43,-235.39 891.68,-241.64 907.32,-246.92"/>
<polygon fill="#9a32cd" stroke="#9a32cd" points="700.47,-206.53 690.2,-209.14 699.85,-213.51 700.47,-206.53"/>
<text text-anchor="middle" x="785" y="-234.5" font-family="Helvetica,sans-Serif" font-size="10.00"> thresholds_for_role_</text>
</g>
<!-- Node13&#45;&gt;Node12 -->
<g id="edge10" class="edge">
<title>Node13&#45;&gt;Node12</title>
<path fill="none" stroke="#9a32cd" stroke-dasharray="5,2" d="M428.94,-168.64C464.85,-175.34 514.05,-184.53 553.67,-191.93"/>
<polygon fill="#9a32cd" stroke="#9a32cd" points="429.19,-165.13 418.72,-166.73 427.91,-172.01 429.19,-165.13"/>
<text text-anchor="middle" x="502.5" y="-188.5" font-family="Helvetica,sans-Serif" font-size="10.00"> keys</text>
</g>
<!-- Node16 -->
<g id="node14" class="node">
<title>Node16</title>
<polygon fill="white" stroke="#bfbfbf" points="717,-143.5 717,-173.5 853,-173.5 853,-143.5 717,-143.5"/>
<text text-anchor="start" x="725" y="-161.5" font-family="Helvetica,sans-Serif" font-size="10.00">std::map&lt; Uptane::Role,</text>
<text text-anchor="middle" x="785" y="-150.5" font-family="Helvetica,sans-Serif" font-size="10.00"> bool &gt;</text>
</g>
<!-- Node13&#45;&gt;Node16 -->
<g id="edge15" class="edge">
<title>Node13&#45;&gt;Node16</title>
<path fill="none" stroke="#9a32cd" stroke-dasharray="5,2" d="M428.88,-159.38C500.84,-159.2 635.5,-158.87 716.73,-158.67"/>
<polygon fill="#9a32cd" stroke="#9a32cd" points="428.73,-155.88 418.74,-159.4 428.75,-162.88 428.73,-155.88"/>
<text text-anchor="middle" x="502.5" y="-161.5" font-family="Helvetica,sans-Serif" font-size="10.00"> keys</text>
</g>
<!-- Node17 -->
<g id="node15" class="node">
<title>Node17</title>
<polygon fill="white" stroke="#bfbfbf" points="545,-91.5 545,-121.5 699,-121.5 699,-91.5 545,-91.5"/>
<text text-anchor="start" x="553" y="-109.5" font-family="Helvetica,sans-Serif" font-size="10.00">std::map&lt; Uptane::Role,</text>
<text text-anchor="middle" x="622" y="-98.5" font-family="Helvetica,sans-Serif" font-size="10.00"> std::vector&lt; std::string &gt; &gt;</text>
</g>
<!-- Node13&#45;&gt;Node17 -->
<g id="edge17" class="edge">
<title>Node13&#45;&gt;Node17</title>
<path fill="none" stroke="#9a32cd" stroke-dasharray="5,2" d="M414.94,-146.49C433.47,-140 456.73,-132.5 478,-127.5 499.5,-122.45 523.11,-118.39 544.85,-115.24"/>
<polygon fill="#9a32cd" stroke="#9a32cd" points="413.7,-143.22 405.45,-149.87 416.05,-149.81 413.7,-143.22"/>
<text text-anchor="middle" x="502.5" y="-130.5" font-family="Helvetica,sans-Serif" font-size="10.00"> keys</text>
</g>
<!-- Node14 -->
<g id="node12" class="node">
<title>Node14</title>
<polygon fill="white" stroke="#bfbfbf" points="877.5,-0.5 877.5,-30.5 992.5,-30.5 992.5,-0.5 877.5,-0.5"/>
<text text-anchor="start" x="885.5" y="-18.5" font-family="Helvetica,sans-Serif" font-size="10.00">std::vector&lt; Uptane</text>
<text text-anchor="middle" x="935" y="-7.5" font-family="Helvetica,sans-Serif" font-size="10.00">::Target &gt;</text>
</g>
<!-- Node14&#45;&gt;Node3 -->
<g id="edge12" class="edge">
<title>Node14&#45;&gt;Node3</title>
<path fill="none" stroke="#9a32cd" stroke-dasharray="5,2" d="M1003.08,-18.06C1020.77,-20.87 1039.3,-25.86 1055,-34.5 1082.3,-49.53 1103.6,-81.02 1113.1,-96.9"/>
<polygon fill="#9a32cd" stroke="#9a32cd" points="1003.17,-14.54 992.78,-16.65 1002.21,-21.48 1003.17,-14.54"/>
<text text-anchor="middle" x="1036" y="-37.5" font-family="Helvetica,sans-Serif" font-size="10.00"> targets</text>
</g>
<!-- Node15 -->
<g id="node13" class="node">
<title>Node15</title>
<g id="a_node13"><a xlink:href="class_uptane_1_1_target.html" target="_top" xlink:title="Uptane::Target">
<polygon fill="white" stroke="black" points="578,-6 578,-25 666,-25 666,-6 578,-6"/>
<text text-anchor="middle" x="622" y="-13" font-family="Helvetica,sans-Serif" font-size="10.00">Uptane::Target</text>
</a>
</g>
</g>
<!-- Node15&#45;&gt;Node14 -->
<g id="edge13" class="edge">
<title>Node15&#45;&gt;Node14</title>
<path fill="none" stroke="#9a32cd" stroke-dasharray="5,2" d="M676.32,-15.5C732.37,-15.5 820.19,-15.5 877.43,-15.5"/>
<polygon fill="#9a32cd" stroke="#9a32cd" points="676.24,-12 666.24,-15.5 676.24,-19 676.24,-12"/>
<text text-anchor="middle" x="785" y="-18.5" font-family="Helvetica,sans-Serif" font-size="10.00"> elements</text>
</g>
<!-- Node16&#45;&gt;Node3 -->
<g id="edge14" class="edge">
<title>Node16&#45;&gt;Node3</title>
<path fill="none" stroke="#9a32cd" stroke-dasharray="5,2" d="M863.28,-149.18C917.18,-142.29 990.68,-132.12 1055,-120.5 1062.22,-119.2 1069.87,-117.65 1077.26,-116.07"/>
<polygon fill="#9a32cd" stroke="#9a32cd" points="862.59,-145.74 853.11,-150.47 863.47,-152.68 862.59,-145.74"/>
<text text-anchor="middle" x="935" y="-150.5" font-family="Helvetica,sans-Serif" font-size="10.00"> terminating_role_</text>
</g>
<!-- Node17&#45;&gt;Node3 -->
<g id="edge16" class="edge">
<title>Node17&#45;&gt;Node3</title>
<path fill="none" stroke="#9a32cd" stroke-dasharray="5,2" d="M709.07,-106.5C814.79,-106.5 990.23,-106.5 1072.83,-106.5"/>
<polygon fill="#9a32cd" stroke="#9a32cd" points="709.07,-103 699.07,-106.5 709.07,-110 709.07,-103"/>
<text text-anchor="middle" x="935" y="-109.5" font-family="Helvetica,sans-Serif" font-size="10.00"> paths_for_role_</text>
</g>
<!-- Node18&#45;&gt;Node3 -->
<g id="edge20" class="edge">
<title>Node18&#45;&gt;Node3</title>
<path fill="none" stroke="#9a32cd" stroke-dasharray="5,2" d="M459.6,-86.68C486.69,-84.97 517.15,-83.33 545,-82.5 741.48,-76.64 975.66,-94.06 1072.79,-102.36"/>
<polygon fill="#9a32cd" stroke="#9a32cd" points="459.15,-83.21 449.4,-87.34 459.61,-90.19 459.15,-83.21"/>
<text text-anchor="middle" x="785" y="-89.5" font-family="Helvetica,sans-Serif" font-size="10.00"> delegated_role_names_</text>
</g>
<!-- Node18&#45;&gt;Node17 -->
<g id="edge18" class="edge">
<title>Node18&#45;&gt;Node17</title>
<path fill="none" stroke="#9a32cd" stroke-dasharray="5,2" d="M459.5,-91.15C481.39,-91.29 505.13,-91.92 527,-93.5 532.83,-93.92 538.86,-94.48 544.9,-95.12"/>
<polygon fill="#9a32cd" stroke="#9a32cd" points="459.26,-87.64 449.25,-91.11 459.23,-94.64 459.26,-87.64"/>
<text text-anchor="middle" x="502.5" y="-96.5" font-family="Helvetica,sans-Serif" font-size="10.00"> elements</text>
</g>
</g>
</svg>
