<?xml version="1.0" encoding="UTF-8" standalone="no"?>
<!DOCTYPE svg PUBLIC "-//W3C//DTD SVG 1.1//EN"
 "http://www.w3.org/Graphics/SVG/1.1/DTD/svg11.dtd">
<!-- Generated by graphviz version 2.43.0 (0)
 -->
<!-- Title: Uptane::Exception Pages: 1 -->
<!--zoomable 636 -->
<svg id="main" version="1.1" xmlns="http://www.w3.org/2000/svg" xmlns:xlink="http://www.w3.org/1999/xlink" xml:space="preserve" onload="init(evt)">
<style type="text/css"><![CDATA[
.edge:hover path { stroke: red; }
.edge:hover polygon { stroke: red; fill: red; }
]]></style>
<script type="text/javascript"><![CDATA[
var edges = document.getElementsByTagName('g');
if (edges && edges.length) {
  for (var i=0;i<edges.length;i++) {
    if (edges[i].id.substr(0,4)=='edge') {
      edges[i].setAttribute('class','edge');
    }
  }
}
]]></script>
        <defs>
                <circle id="rim" cx="0" cy="0" r="7"/>
                <circle id="rim2" cx="0" cy="0" r="3.5"/>
                <g id="zoomPlus">
                        <use xlink:href="#rim" fill="#404040">
                                <set attributeName="fill" to="#808080" begin="zoomplus.mouseover" end="zoomplus.mouseout"/>
                        </use>
                        <path d="M-4,0h8M0,-4v8" fill="none" stroke="white" stroke-width="1.5" pointer-events="none"/>
                </g>
                <g id="zoomMin">
                        <use xlink:href="#rim" fill="#404040">
                                <set attributeName="fill" to="#808080" begin="zoomminus.mouseover" end="zoomminus.mouseout"/>
                        </use>
                        <path d="M-4,0h8" fill="none" stroke="white" stroke-width="1.5" pointer-events="none"/>
                </g>
                <g id="dirArrow">
                        <path fill="none" stroke="white" stroke-width="1.5" d="M0,-3.0v7 M-2.5,-0.5L0,-3.0L2.5,-0.5"/>
                </g>
               <g id="resetDef">
                       <use xlink:href="#rim2" fill="#404040">
                               <set attributeName="fill" to="#808080" begin="reset.mouseover" end="reset.mouseout"/>
                       </use>
               </g>
        </defs>

<script type="text/javascript">
var viewWidth = 580;
var viewHeight = 636;
var sectionId = 'dynsection-0';
</script>
<script xlink:href="svgpan.js"/>
<svg id="graph" class="graph">
<g id="viewport">
<title>Uptane::Exception</title>
<polygon fill="white" stroke="transparent" points="-4,4 -4,-632 576,-632 576,4 -4,4"/>
<!-- Node0 -->
<g id="node1" class="node">
<title>Node0</title>
<polygon fill="#bfbfbf" stroke="black" points="247,-304.5 247,-323.5 353,-323.5 353,-304.5 247,-304.5"/>
<text text-anchor="middle" x="300" y="-311.5" font-family="Helvetica,sans-Serif" font-size="10.00">Uptane::Exception</text>
</g>
<!-- Node3 -->
<g id="node4" class="node">
<title>Node3</title>
<g id="a_node4"><a xlink:href="class_uptane_1_1_bad_ecu_id.html" target="_top" xlink:title="Uptane::BadEcuId">
<polygon fill="white" stroke="black" points="429,-608.5 429,-627.5 532,-627.5 532,-608.5 429,-608.5"/>
<text text-anchor="middle" x="480.5" y="-615.5" font-family="Helvetica,sans-Serif" font-size="10.00">Uptane::BadEcuId</text>
</a>
</g>
</g>
<!-- Node0&#45;&gt;Node3 -->
<g id="edge3" class="edge">
<title>Node0&#45;&gt;Node3</title>
<path fill="none" stroke="midnightblue" d="M300.73,-333.85C301.19,-385.85 310.01,-527 389,-599 399.8,-608.84 414.35,-614.09 428.63,-616.76"/>
<polygon fill="midnightblue" stroke="midnightblue" points="304.23,-333.65 300.75,-323.65 297.23,-333.64 304.23,-333.65"/>
</g>
<!-- Node4 -->
<g id="node5" class="node">
<title>Node4</title>
<g id="a_node5"><a xlink:href="class_uptane_1_1_bad_hardware_id.html" target="_top" xlink:title="Uptane::BadHardwareId">
<polygon fill="white" stroke="black" points="414,-570.5 414,-589.5 547,-589.5 547,-570.5 414,-570.5"/>
<text text-anchor="middle" x="480.5" y="-577.5" font-family="Helvetica,sans-Serif" font-size="10.00">Uptane::BadHardwareId</text>
</a>
</g>
</g>
<!-- Node0&#45;&gt;Node4 -->
<g id="edge4" class="edge">
<title>Node0&#45;&gt;Node4</title>
<path fill="none" stroke="midnightblue" d="M301.81,-333.71C304.87,-380.78 319.46,-500.29 389,-561 396.14,-567.23 404.79,-571.6 413.88,-574.63"/>
<polygon fill="midnightblue" stroke="midnightblue" points="305.3,-333.42 301.27,-323.62 298.31,-333.8 305.3,-333.42"/>
</g>
<!-- Node5 -->
<g id="node6" class="node">
<title>Node5</title>
<g id="a_node6"><a xlink:href="class_uptane_1_1_bad_key_id.html" target="_top" xlink:title="Uptane::BadKeyId">
<polygon fill="white" stroke="black" points="428.5,-532.5 428.5,-551.5 532.5,-551.5 532.5,-532.5 428.5,-532.5"/>
<text text-anchor="middle" x="480.5" y="-539.5" font-family="Helvetica,sans-Serif" font-size="10.00">Uptane::BadKeyId</text>
</a>
</g>
</g>
<!-- Node0&#45;&gt;Node5 -->
<g id="edge5" class="edge">
<title>Node0&#45;&gt;Node5</title>
<path fill="none" stroke="midnightblue" d="M303.26,-333.77C309.14,-375.64 328.9,-473.44 389,-523 400.02,-532.09 414.32,-537.16 428.28,-539.9"/>
<polygon fill="midnightblue" stroke="midnightblue" points="306.71,-333.22 301.97,-323.75 299.77,-334.11 306.71,-333.22"/>
</g>
<!-- Node6 -->
<g id="node7" class="node">
<title>Node6</title>
<g id="a_node7"><a xlink:href="class_uptane_1_1_delegation_hash_mismatch.html" target="_top" xlink:title="Uptane::DelegationHashMismatch">
<polygon fill="white" stroke="black" points="389,-494.5 389,-513.5 572,-513.5 572,-494.5 389,-494.5"/>
<text text-anchor="middle" x="480.5" y="-501.5" font-family="Helvetica,sans-Serif" font-size="10.00">Uptane::DelegationHashMismatch</text>
</a>
</g>
</g>
<!-- Node0&#45;&gt;Node6 -->
<g id="edge6" class="edge">
<title>Node0&#45;&gt;Node6</title>
<path fill="none" stroke="midnightblue" d="M305.17,-333.36C313.98,-369.28 337.98,-446.12 389,-485 393.98,-488.8 399.54,-491.88 405.4,-494.37"/>
<polygon fill="midnightblue" stroke="midnightblue" points="308.58,-332.57 302.92,-323.62 301.76,-334.15 308.58,-332.57"/>
</g>
<!-- Node7 -->
<g id="node8" class="node">
<title>Node7</title>
<g id="a_node8"><a xlink:href="class_uptane_1_1_delegation_missing.html" target="_top" xlink:title="Uptane::DelegationMissing">
<polygon fill="white" stroke="black" points="406.5,-456.5 406.5,-475.5 554.5,-475.5 554.5,-456.5 406.5,-456.5"/>
<text text-anchor="middle" x="480.5" y="-463.5" font-family="Helvetica,sans-Serif" font-size="10.00">Uptane::DelegationMissing</text>
</a>
</g>
</g>
<!-- Node0&#45;&gt;Node7 -->
<g id="edge7" class="edge">
<title>Node0&#45;&gt;Node7</title>
<path fill="none" stroke="midnightblue" d="M308.07,-333.11C319.99,-362.52 346.98,-418.46 389,-447 394.71,-450.88 401.06,-453.99 407.66,-456.48"/>
<polygon fill="midnightblue" stroke="midnightblue" points="311.25,-331.62 304.36,-323.57 304.72,-334.16 311.25,-331.62"/>
</g>
<!-- Node8 -->
<g id="node9" class="node">
<title>Node8</title>
<g id="a_node9"><a xlink:href="class_uptane_1_1_expired_metadata.html" target="_top" xlink:title="Uptane::ExpiredMetadata">
<polygon fill="white" stroke="black" points="410.5,-418.5 410.5,-437.5 550.5,-437.5 550.5,-418.5 410.5,-418.5"/>
<text text-anchor="middle" x="480.5" y="-425.5" font-family="Helvetica,sans-Serif" font-size="10.00">Uptane::ExpiredMetadata</text>
</a>
</g>
</g>
<!-- Node0&#45;&gt;Node8 -->
<g id="edge8" class="edge">
<title>Node0&#45;&gt;Node8</title>
<path fill="none" stroke="midnightblue" d="M312.47,-332.01C327.36,-353.82 355.45,-390 389,-409 395.85,-412.88 403.39,-415.97 411.1,-418.43"/>
<polygon fill="midnightblue" stroke="midnightblue" points="315.36,-330.03 306.92,-323.63 309.52,-333.9 315.36,-330.03"/>
</g>
<!-- Node9 -->
<g id="node10" class="node">
<title>Node9</title>
<g id="a_node10"><a xlink:href="class_uptane_1_1_illegal_threshold.html" target="_top" xlink:title="Uptane::IllegalThreshold">
<polygon fill="white" stroke="black" points="412.5,-380.5 412.5,-399.5 548.5,-399.5 548.5,-380.5 412.5,-380.5"/>
<text text-anchor="middle" x="480.5" y="-387.5" font-family="Helvetica,sans-Serif" font-size="10.00">Uptane::IllegalThreshold</text>
</a>
</g>
</g>
<!-- Node0&#45;&gt;Node9 -->
<g id="edge9" class="edge">
<title>Node0&#45;&gt;Node9</title>
<path fill="none" stroke="midnightblue" d="M320.83,-329.91C337.92,-342.85 363.78,-360.61 389,-371 398.35,-374.85 408.58,-377.96 418.69,-380.46"/>
<polygon fill="midnightblue" stroke="midnightblue" points="322.78,-327 312.73,-323.64 318.5,-332.53 322.78,-327"/>
</g>
<!-- Node10 -->
<g id="node11" class="node">
<title>Node10</title>
<g id="a_node11"><a xlink:href="class_uptane_1_1_invalid_metadata.html" target="_top" xlink:title="Uptane::InvalidMetadata">
<polygon fill="white" stroke="black" points="412,-342.5 412,-361.5 549,-361.5 549,-342.5 412,-342.5"/>
<text text-anchor="middle" x="480.5" y="-349.5" font-family="Helvetica,sans-Serif" font-size="10.00">Uptane::InvalidMetadata</text>
</a>
</g>
</g>
<!-- Node0&#45;&gt;Node10 -->
<g id="edge10" class="edge">
<title>Node0&#45;&gt;Node10</title>
<path fill="none" stroke="midnightblue" d="M354.65,-325.63C365.99,-328.08 377.89,-330.63 389,-333 403.6,-336.11 419.54,-339.47 433.91,-342.48"/>
<polygon fill="midnightblue" stroke="midnightblue" points="355.37,-322.21 344.86,-323.52 353.89,-329.05 355.37,-322.21"/>
</g>
<!-- Node11 -->
<g id="node12" class="node">
<title>Node11</title>
<g id="a_node12"><a xlink:href="class_uptane_1_1_invalid_target.html" target="_top" xlink:title="Uptane::InvalidTarget">
<polygon fill="white" stroke="black" points="420,-304.5 420,-323.5 541,-323.5 541,-304.5 420,-304.5"/>
<text text-anchor="middle" x="480.5" y="-311.5" font-family="Helvetica,sans-Serif" font-size="10.00">Uptane::InvalidTarget</text>
</a>
</g>
</g>
<!-- Node0&#45;&gt;Node11 -->
<g id="edge11" class="edge">
<title>Node0&#45;&gt;Node11</title>
<path fill="none" stroke="midnightblue" d="M363.12,-314C381.5,-314 401.57,-314 419.79,-314"/>
<polygon fill="midnightblue" stroke="midnightblue" points="363.11,-310.5 353.11,-314 363.11,-317.5 363.11,-310.5"/>
</g>
<!-- Node12 -->
<g id="node13" class="node">
<title>Node12</title>
<g id="a_node13"><a xlink:href="class_uptane_1_1_missing_repo.html" target="_top" xlink:title="Uptane::MissingRepo">
<polygon fill="white" stroke="black" points="421,-266.5 421,-285.5 540,-285.5 540,-266.5 421,-266.5"/>
<text text-anchor="middle" x="480.5" y="-273.5" font-family="Helvetica,sans-Serif" font-size="10.00">Uptane::MissingRepo</text>
</a>
</g>
</g>
<!-- Node0&#45;&gt;Node12 -->
<g id="edge12" class="edge">
<title>Node0&#45;&gt;Node12</title>
<path fill="none" stroke="midnightblue" d="M354.65,-302.37C365.99,-299.92 377.89,-297.37 389,-295 403.6,-291.89 419.54,-288.53 433.91,-285.52"/>
<polygon fill="midnightblue" stroke="midnightblue" points="353.89,-298.95 344.86,-304.48 355.37,-305.79 353.89,-298.95"/>
</g>
<!-- Node13 -->
<g id="node14" class="node">
<title>Node13</title>
<g id="a_node14"><a xlink:href="class_uptane_1_1_non_unique_signatures.html" target="_top" xlink:title="Uptane::NonUniqueSignatures">
<polygon fill="white" stroke="black" points="398.5,-228.5 398.5,-247.5 562.5,-247.5 562.5,-228.5 398.5,-228.5"/>
<text text-anchor="middle" x="480.5" y="-235.5" font-family="Helvetica,sans-Serif" font-size="10.00">Uptane::NonUniqueSignatures</text>
</a>
</g>
</g>
<!-- Node0&#45;&gt;Node13 -->
<g id="edge13" class="edge">
<title>Node0&#45;&gt;Node13</title>
<path fill="none" stroke="midnightblue" d="M320.83,-298.09C337.92,-285.15 363.78,-267.39 389,-257 398.35,-253.15 408.58,-250.04 418.69,-247.54"/>
<polygon fill="midnightblue" stroke="midnightblue" points="318.5,-295.47 312.73,-304.36 322.78,-301 318.5,-295.47"/>
</g>
<!-- Node14 -->
<g id="node15" class="node">
<title>Node14</title>
<g id="a_node15"><a xlink:href="class_uptane_1_1_oversized_target.html" target="_top" xlink:title="Uptane::OversizedTarget">
<polygon fill="white" stroke="black" points="412,-190.5 412,-209.5 549,-209.5 549,-190.5 412,-190.5"/>
<text text-anchor="middle" x="480.5" y="-197.5" font-family="Helvetica,sans-Serif" font-size="10.00">Uptane::OversizedTarget</text>
</a>
</g>
</g>
<!-- Node0&#45;&gt;Node14 -->
<g id="edge14" class="edge">
<title>Node0&#45;&gt;Node14</title>
<path fill="none" stroke="midnightblue" d="M312.47,-295.99C327.36,-274.18 355.45,-238 389,-219 395.98,-215.04 403.69,-211.91 411.58,-209.42"/>
<polygon fill="midnightblue" stroke="midnightblue" points="309.52,-294.1 306.92,-304.37 315.36,-297.97 309.52,-294.1"/>
</g>
<!-- Node15 -->
<g id="node16" class="node">
<title>Node15</title>
<g id="a_node16"><a xlink:href="class_uptane_1_1_security_exception.html" target="_top" xlink:title="Uptane::SecurityException">
<polygon fill="white" stroke="black" points="407.5,-152.5 407.5,-171.5 553.5,-171.5 553.5,-152.5 407.5,-152.5"/>
<text text-anchor="middle" x="480.5" y="-159.5" font-family="Helvetica,sans-Serif" font-size="10.00">Uptane::SecurityException</text>
</a>
</g>
</g>
<!-- Node0&#45;&gt;Node15 -->
<g id="edge15" class="edge">
<title>Node0&#45;&gt;Node15</title>
<path fill="none" stroke="midnightblue" d="M308.07,-294.89C319.99,-265.48 346.98,-209.54 389,-181 394.71,-177.12 401.06,-174.01 407.66,-171.52"/>
<polygon fill="midnightblue" stroke="midnightblue" points="304.72,-293.84 304.36,-304.43 311.25,-296.38 304.72,-293.84"/>
</g>
<!-- Node16 -->
<g id="node17" class="node">
<title>Node16</title>
<g id="a_node17"><a xlink:href="class_uptane_1_1_target_hash_mismatch.html" target="_top" xlink:title="Uptane::TargetHashMismatch">
<polygon fill="white" stroke="black" points="400.5,-114.5 400.5,-133.5 560.5,-133.5 560.5,-114.5 400.5,-114.5"/>
<text text-anchor="middle" x="480.5" y="-121.5" font-family="Helvetica,sans-Serif" font-size="10.00">Uptane::TargetHashMismatch</text>
</a>
</g>
</g>
<!-- Node0&#45;&gt;Node16 -->
<g id="edge16" class="edge">
<title>Node0&#45;&gt;Node16</title>
<path fill="none" stroke="midnightblue" d="M305.17,-294.64C313.98,-258.72 337.98,-181.88 389,-143 393.98,-139.2 399.54,-136.12 405.4,-133.63"/>
<polygon fill="midnightblue" stroke="midnightblue" points="301.76,-293.85 302.92,-304.38 308.58,-295.43 301.76,-293.85"/>
</g>
<!-- Node17 -->
<g id="node18" class="node">
<title>Node17</title>
<g id="a_node18"><a xlink:href="class_uptane_1_1_target_mismatch.html" target="_top" xlink:title="Uptane::TargetMismatch">
<polygon fill="white" stroke="black" points="413,-76.5 413,-95.5 548,-95.5 548,-76.5 413,-76.5"/>
<text text-anchor="middle" x="480.5" y="-83.5" font-family="Helvetica,sans-Serif" font-size="10.00">Uptane::TargetMismatch</text>
</a>
</g>
</g>
<!-- Node0&#45;&gt;Node17 -->
<g id="edge17" class="edge">
<title>Node0&#45;&gt;Node17</title>
<path fill="none" stroke="midnightblue" d="M303.26,-294.23C309.14,-252.36 328.9,-154.56 389,-105 395.94,-99.28 404.17,-95.15 412.8,-92.2"/>
<polygon fill="midnightblue" stroke="midnightblue" points="299.77,-293.89 301.97,-304.25 306.71,-294.78 299.77,-293.89"/>
</g>
<!-- Node18 -->
<g id="node19" class="node">
<title>Node18</title>
<g id="a_node19"><a xlink:href="class_uptane_1_1_unmet_threshold.html" target="_top" xlink:title="Uptane::UnmetThreshold">
<polygon fill="white" stroke="black" points="411,-38.5 411,-57.5 550,-57.5 550,-38.5 411,-38.5"/>
<text text-anchor="middle" x="480.5" y="-45.5" font-family="Helvetica,sans-Serif" font-size="10.00">Uptane::UnmetThreshold</text>
</a>
</g>
</g>
<!-- Node0&#45;&gt;Node18 -->
<g id="edge18" class="edge">
<title>Node0&#45;&gt;Node18</title>
<path fill="none" stroke="midnightblue" d="M301.81,-294.29C304.87,-247.22 319.46,-127.71 389,-67 395.29,-61.51 402.76,-57.47 410.67,-54.51"/>
<polygon fill="midnightblue" stroke="midnightblue" points="298.31,-294.2 301.27,-304.38 305.3,-294.58 298.31,-294.2"/>
</g>
<!-- Node19 -->
<g id="node20" class="node">
<title>Node19</title>
<g id="a_node20"><a xlink:href="class_uptane_1_1_version_mismatch.html" target="_top" xlink:title="Uptane::VersionMismatch">
<polygon fill="white" stroke="black" points="410,-0.5 410,-19.5 551,-19.5 551,-0.5 410,-0.5"/>
<text text-anchor="middle" x="480.5" y="-7.5" font-family="Helvetica,sans-Serif" font-size="10.00">Uptane::VersionMismatch</text>
</a>
</g>
</g>
<!-- Node0&#45;&gt;Node19 -->
<g id="edge19" class="edge">
<title>Node0&#45;&gt;Node19</title>
<path fill="none" stroke="midnightblue" d="M300.73,-294.15C301.19,-242.15 310.01,-101 389,-29 395.05,-23.48 402.28,-19.41 409.99,-16.43"/>
<polygon fill="midnightblue" stroke="midnightblue" points="297.23,-294.36 300.75,-304.35 304.23,-294.35 297.23,-294.36"/>
</g>
<!-- Node1 -->
<g id="node2" class="node">
<title>Node1</title>
<g id="a_node2"><a xlink:title="STL class. ">
<polygon fill="white" stroke="#bfbfbf" points="122,-304.5 122,-323.5 211,-323.5 211,-304.5 122,-304.5"/>
<text text-anchor="middle" x="166.5" y="-311.5" font-family="Helvetica,sans-Serif" font-size="10.00">std::logic_error</text>
</a>
</g>
</g>
<!-- Node1&#45;&gt;Node0 -->
<g id="edge1" class="edge">
<title>Node1&#45;&gt;Node0</title>
<path fill="none" stroke="midnightblue" d="M221.35,-314C229.73,-314 238.38,-314 246.73,-314"/>
<polygon fill="midnightblue" stroke="midnightblue" points="221.29,-310.5 211.29,-314 221.29,-317.5 221.29,-310.5"/>
</g>
<!-- Node2 -->
<g id="node3" class="node">
<title>Node2</title>
<g id="a_node3"><a xlink:title="STL class. ">
<polygon fill="white" stroke="#bfbfbf" points="0,-304.5 0,-323.5 86,-323.5 86,-304.5 0,-304.5"/>
<text text-anchor="middle" x="43" y="-311.5" font-family="Helvetica,sans-Serif" font-size="10.00">std::exception</text>
</a>
</g>
</g>
<!-- Node2&#45;&gt;Node1 -->
<g id="edge2" class="edge">
<title>Node2&#45;&gt;Node1</title>
<path fill="none" stroke="midnightblue" d="M96.34,-314C104.82,-314 113.52,-314 121.77,-314"/>
<polygon fill="midnightblue" stroke="midnightblue" points="96.15,-310.5 86.15,-314 96.15,-317.5 96.15,-310.5"/>
</g>
</g>
</svg>
        <g id="navigator" transform="translate(0 0)" fill="#404254">
                <rect fill="#f2f5e9" fill-opacity="0.5" stroke="#606060" stroke-width=".5" x="0" y="0" width="60" height="60"/>
                <use id="zoomplus" xlink:href="#zoomPlus" x="17" y="9" onmousedown="handleZoom(evt,'in')"/>
                <use id="zoomminus" xlink:href="#zoomMin" x="42" y="9" onmousedown="handleZoom(evt,'out')"/>
                <use id="reset" xlink:href="#resetDef" x="30" y="36" onmousedown="handleReset()"/>
                <g id="arrowUp" xlink:href="#dirArrow" transform="translate(30 24)" onmousedown="handlePan(0,-1)">
                  <use xlink:href="#rim" fill="#404040">
                        <set attributeName="fill" to="#808080" begin="arrowUp.mouseover" end="arrowUp.mouseout"/>
                  </use>
                  <path fill="none" stroke="white" stroke-width="1.5" d="M0,-3.0v7 M-2.5,-0.5L0,-3.0L2.5,-0.5"/>
                </g>
                <g id="arrowRight" xlink:href="#dirArrow" transform="rotate(90) translate(36 -43)" onmousedown="handlePan(1,0)">
                  <use xlink:href="#rim" fill="#404040">
                        <set attributeName="fill" to="#808080" begin="arrowRight.mouseover" end="arrowRight.mouseout"/>
                  </use>
                  <path fill="none" stroke="white" stroke-width="1.5" d="M0,-3.0v7 M-2.5,-0.5L0,-3.0L2.5,-0.5"/>
                </g>
                <g id="arrowDown" xlink:href="#dirArrow" transform="rotate(180) translate(-30 -48)" onmousedown="handlePan(0,1)">
                  <use xlink:href="#rim" fill="#404040">
                        <set attributeName="fill" to="#808080" begin="arrowDown.mouseover" end="arrowDown.mouseout"/>
                  </use>
                  <path fill="none" stroke="white" stroke-width="1.5" d="M0,-3.0v7 M-2.5,-0.5L0,-3.0L2.5,-0.5"/>
                </g>
                <g id="arrowLeft" xlink:href="#dirArrow" transform="rotate(270) translate(-36 17)" onmousedown="handlePan(-1,0)">
                  <use xlink:href="#rim" fill="#404040">
                        <set attributeName="fill" to="#808080" begin="arrowLeft.mouseover" end="arrowLeft.mouseout"/>
                  </use>
                  <path fill="none" stroke="white" stroke-width="1.5" d="M0,-3.0v7 M-2.5,-0.5L0,-3.0L2.5,-0.5"/>
                </g>
        </g>
        <svg viewBox="0 0 15 15" width="100%" height="30px" preserveAspectRatio="xMaxYMin meet">
         <g id="arrow_out" transform="scale(0.3 0.3)">
          <a xlink:href="class_uptane_1_1_exception__inherit__graph_org.svg" target="_base">
           <rect id="button" ry="5" rx="5" y="6" x="6" height="38" width="38"
                fill="#f2f5e9" fill-opacity="0.5" stroke="#606060" stroke-width="1.0"/>
           <path id="arrow"
             d="M 11.500037,31.436501 C 11.940474,20.09759 22.043105,11.32322 32.158766,21.979434 L 37.068811,17.246167 C 37.068811,17.246167 37.088388,32 37.088388,32 L 22.160133,31.978069 C 22.160133,31.978069 26.997745,27.140456 26.997745,27.140456 C 18.528582,18.264221 13.291696,25.230495 11.500037,31.436501 z"
             style="fill:#404040;"/>
          </a>
         </g>
        </svg>
</svg>
