<?xml version="1.0" encoding="UTF-8" standalone="no"?>
<!DOCTYPE svg PUBLIC "-//W3C//DTD SVG 1.1//EN"
 "http://www.w3.org/Graphics/SVG/1.1/DTD/svg11.dtd">
<!-- Generated by graphviz version 2.43.0 (0)
 -->
<!-- Title: SecondaryInterfaceMock Pages: 1 -->
<svg width="411pt" height="342pt"
 viewBox="0.00 0.00 411.00 342.00" xmlns="http://www.w3.org/2000/svg" xmlns:xlink="http://www.w3.org/1999/xlink">
<g id="graph0" class="graph" transform="scale(1 1) rotate(0) translate(4 338)">
<title>SecondaryInterfaceMock</title>
<polygon fill="white" stroke="transparent" points="-4,4 -4,-338 407,-338 407,4 -4,4"/>
<!-- Node2 -->
<g id="node1" class="node">
<title>Node2</title>
<polygon fill="#bfbfbf" stroke="black" points="173.5,-0.5 173.5,-19.5 310.5,-19.5 310.5,-0.5 173.5,-0.5"/>
<text text-anchor="middle" x="242" y="-7.5" font-family="Helvetica,sans-Serif" font-size="10.00">SecondaryInterfaceMock</text>
</g>
<!-- Node3 -->
<g id="node2" class="node">
<title>Node3</title>
<g id="a_node2"><a xlink:href="class_uptane_1_1_secondary_interface.html" target="_top" xlink:title="Uptane::SecondaryInterface">
<polygon fill="white" stroke="black" points="0,-73 0,-92 152,-92 152,-73 0,-73"/>
<text text-anchor="middle" x="76" y="-80" font-family="Helvetica,sans-Serif" font-size="10.00">Uptane::SecondaryInterface</text>
</a>
</g>
</g>
<!-- Node3&#45;&gt;Node2 -->
<g id="edge1" class="edge">
<title>Node3&#45;&gt;Node2</title>
<path fill="none" stroke="midnightblue" d="M105.31,-69.05C138.83,-54.82 192.83,-31.88 221.91,-19.53"/>
<polygon fill="midnightblue" stroke="midnightblue" points="103.86,-65.87 96.02,-73 106.6,-72.31 103.86,-65.87"/>
</g>
<!-- Node4 -->
<g id="node3" class="node">
<title>Node4</title>
<g id="a_node3"><a xlink:href="class_primary_1_1_virtual_secondary_config.html" target="_top" xlink:title="Primary::VirtualSecondary\lConfig">
<polygon fill="white" stroke="black" points="170.5,-67.5 170.5,-97.5 313.5,-97.5 313.5,-67.5 170.5,-67.5"/>
<text text-anchor="start" x="178.5" y="-85.5" font-family="Helvetica,sans-Serif" font-size="10.00">Primary::VirtualSecondary</text>
<text text-anchor="middle" x="242" y="-74.5" font-family="Helvetica,sans-Serif" font-size="10.00">Config</text>
</a>
</g>
</g>
<!-- Node4&#45;&gt;Node2 -->
<g id="edge2" class="edge">
<title>Node4&#45;&gt;Node2</title>
<path fill="none" stroke="#9a32cd" stroke-dasharray="5,2" d="M242,-57.09C242,-44.21 242,-29.2 242,-19.89"/>
<polygon fill="#9a32cd" stroke="#9a32cd" points="238.5,-57.23 242,-67.23 245.5,-57.23 238.5,-57.23"/>
<text text-anchor="middle" x="261" y="-41" font-family="Helvetica,sans-Serif" font-size="10.00"> sconfig</text>
</g>
<!-- Node5 -->
<g id="node4" class="node">
<title>Node5</title>
<g id="a_node4"><a xlink:href="class_primary_1_1_managed_secondary_config.html" target="_top" xlink:title="Primary::ManagedSecondary\lConfig">
<polygon fill="white" stroke="black" points="164.5,-135.5 164.5,-165.5 319.5,-165.5 319.5,-135.5 164.5,-135.5"/>
<text text-anchor="start" x="172.5" y="-153.5" font-family="Helvetica,sans-Serif" font-size="10.00">Primary::ManagedSecondary</text>
<text text-anchor="middle" x="242" y="-142.5" font-family="Helvetica,sans-Serif" font-size="10.00">Config</text>
</a>
</g>
</g>
<!-- Node5&#45;&gt;Node4 -->
<g id="edge3" class="edge">
<title>Node5&#45;&gt;Node4</title>
<path fill="none" stroke="midnightblue" d="M242,-125.03C242,-115.86 242,-105.74 242,-97.79"/>
<polygon fill="midnightblue" stroke="midnightblue" points="238.5,-125.18 242,-135.18 245.5,-125.18 238.5,-125.18"/>
</g>
<!-- Node6 -->
<g id="node5" class="node">
<title>Node6</title>
<g id="a_node5"><a xlink:href="class_primary_1_1_secondary_config.html" target="_top" xlink:title="Primary::SecondaryConfig">
<polygon fill="white" stroke="black" points="155,-246.5 155,-265.5 297,-265.5 297,-246.5 155,-246.5"/>
<text text-anchor="middle" x="226" y="-253.5" font-family="Helvetica,sans-Serif" font-size="10.00">Primary::SecondaryConfig</text>
</a>
</g>
</g>
<!-- Node6&#45;&gt;Node5 -->
<g id="edge4" class="edge">
<title>Node6&#45;&gt;Node5</title>
<path fill="none" stroke="midnightblue" d="M228.89,-236.28C232.02,-216.03 236.95,-184.19 239.78,-165.84"/>
<polygon fill="midnightblue" stroke="midnightblue" points="225.43,-235.76 227.36,-246.18 232.35,-236.83 225.43,-235.76"/>
</g>
<!-- Node7 -->
<g id="node6" class="node">
<title>Node7</title>
<g id="a_node6"><a xlink:title="STL class. ">
<polygon fill="white" stroke="#bfbfbf" points="315.5,-246.5 315.5,-265.5 380.5,-265.5 380.5,-246.5 315.5,-246.5"/>
<text text-anchor="middle" x="348" y="-253.5" font-family="Helvetica,sans-Serif" font-size="10.00">std::string</text>
</a>
</g>
</g>
<!-- Node7&#45;&gt;Node5 -->
<g id="edge5" class="edge">
<title>Node7&#45;&gt;Node5</title>
<path fill="none" stroke="#9a32cd" stroke-dasharray="5,2" d="M331.63,-239.01C311.14,-219.01 276.35,-185.04 256.69,-165.84"/>
<polygon fill="#9a32cd" stroke="#9a32cd" points="329.36,-241.69 338.96,-246.18 334.25,-236.69 329.36,-241.69"/>
<text text-anchor="middle" x="361" y="-220" font-family="Helvetica,sans-Serif" font-size="10.00"> ecu_private_key</text>
<text text-anchor="middle" x="361" y="-209" font-family="Helvetica,sans-Serif" font-size="10.00">ecu_hardware_id</text>
<text text-anchor="middle" x="361" y="-198" font-family="Helvetica,sans-Serif" font-size="10.00">ecu_serial</text>
<text text-anchor="middle" x="361" y="-187" font-family="Helvetica,sans-Serif" font-size="10.00">ecu_public_key</text>
</g>
<!-- Node8 -->
<g id="node7" class="node">
<title>Node8</title>
<g id="a_node7"><a xlink:title="STL class. ">
<polygon fill="white" stroke="#bfbfbf" points="296,-303.5 296,-333.5 400,-333.5 400,-303.5 296,-303.5"/>
<text text-anchor="start" x="304" y="-321.5" font-family="Helvetica,sans-Serif" font-size="10.00">std::basic_string&lt;</text>
<text text-anchor="middle" x="348" y="-310.5" font-family="Helvetica,sans-Serif" font-size="10.00"> char &gt;</text>
</a>
</g>
</g>
<!-- Node8&#45;&gt;Node7 -->
<g id="edge6" class="edge">
<title>Node8&#45;&gt;Node7</title>
<path fill="none" stroke="midnightblue" d="M348,-293.35C348,-283.51 348,-272.78 348,-265.54"/>
<polygon fill="midnightblue" stroke="midnightblue" points="344.5,-293.47 348,-303.47 351.5,-293.47 344.5,-293.47"/>
</g>
<!-- Node9 -->
<g id="node8" class="node">
<title>Node9</title>
<g id="a_node8"><a xlink:href="class_public_key.html" target="_top" xlink:title="PublicKey">
<polygon fill="white" stroke="black" points="332,-73 332,-92 396,-92 396,-73 332,-73"/>
<text text-anchor="middle" x="364" y="-80" font-family="Helvetica,sans-Serif" font-size="10.00">PublicKey</text>
</a>
</g>
</g>
<!-- Node9&#45;&gt;Node2 -->
<g id="edge7" class="edge">
<title>Node9&#45;&gt;Node2</title>
<path fill="none" stroke="#9a32cd" stroke-dasharray="5,2" d="M340.31,-67.81C315.69,-53.59 277.91,-31.75 257.08,-19.72"/>
<polygon fill="#9a32cd" stroke="#9a32cd" points="338.63,-70.88 349.04,-72.86 342.13,-64.82 338.63,-70.88"/>
<text text-anchor="middle" x="336.5" y="-41" font-family="Helvetica,sans-Serif" font-size="10.00"> public_key_</text>
</g>
</g>
</svg>
