<?xml version="1.0" encoding="UTF-8" standalone="no"?>
<!DOCTYPE svg PUBLIC "-//W3C//DTD SVG 1.1//EN"
 "http://www.w3.org/Graphics/SVG/1.1/DTD/svg11.dtd">
<!-- Generated by graphviz version 2.43.0 (0)
 -->
<!-- Title: Process Pages: 1 -->
<svg width="264pt" height="95pt"
 viewBox="0.00 0.00 264.00 95.00" xmlns="http://www.w3.org/2000/svg" xmlns:xlink="http://www.w3.org/1999/xlink">
<g id="graph0" class="graph" transform="scale(1 1) rotate(0) translate(4 91)">
<title>Process</title>
<polygon fill="white" stroke="transparent" points="-4,4 -4,-91 260,-91 260,4 -4,4"/>
<!-- Node0 -->
<g id="node1" class="node">
<title>Node0</title>
<polygon fill="#bfbfbf" stroke="black" points="99,-67.5 99,-86.5 153,-86.5 153,-67.5 99,-67.5"/>
<text text-anchor="middle" x="126" y="-74.5" font-family="Helvetica,sans-Serif" font-size="10.00">Process</text>
</g>
<!-- Node1 -->
<g id="node2" class="node">
<title>Node1</title>
<g id="a_node2"><a xlink:href="class_aktualizr_info_test_1_1_aktualizr_info_process.html" target="_top" xlink:title="AktualizrInfoTest::\lAktualizrInfoProcess">
<polygon fill="white" stroke="black" points="0,-0.5 0,-30.5 116,-30.5 116,-0.5 0,-0.5"/>
<text text-anchor="start" x="8" y="-18.5" font-family="Helvetica,sans-Serif" font-size="10.00">AktualizrInfoTest::</text>
<text text-anchor="middle" x="58" y="-7.5" font-family="Helvetica,sans-Serif" font-size="10.00">AktualizrInfoProcess</text>
</a>
</g>
</g>
<!-- Node0&#45;&gt;Node1 -->
<g id="edge1" class="edge">
<title>Node0&#45;&gt;Node1</title>
<path fill="none" stroke="midnightblue" d="M108.45,-60.65C97.82,-51.35 84.37,-39.57 74.03,-30.52"/>
<polygon fill="midnightblue" stroke="midnightblue" points="106.43,-63.52 116.26,-67.48 111.04,-58.26 106.43,-63.52"/>
</g>
<!-- Node2 -->
<g id="node3" class="node">
<title>Node2</title>
<g id="a_node3"><a xlink:href="class_device_cred_generator.html" target="_top" xlink:title="DeviceCredGenerator">
<polygon fill="white" stroke="black" points="134,-6 134,-25 256,-25 256,-6 134,-6"/>
<text text-anchor="middle" x="195" y="-13" font-family="Helvetica,sans-Serif" font-size="10.00">DeviceCredGenerator</text>
</a>
</g>
</g>
<!-- Node0&#45;&gt;Node2 -->
<g id="edge2" class="edge">
<title>Node0&#45;&gt;Node2</title>
<path fill="none" stroke="midnightblue" d="M143.8,-60.65C156.96,-49.31 174.38,-34.28 185.13,-25.01"/>
<polygon fill="midnightblue" stroke="midnightblue" points="141.17,-58.29 135.89,-67.48 145.74,-63.6 141.17,-58.29"/>
</g>
</g>
</svg>
