<?xml version="1.0" encoding="UTF-8" standalone="no"?>
<!DOCTYPE svg PUBLIC "-//W3C//DTD SVG 1.1//EN"
 "http://www.w3.org/Graphics/SVG/1.1/DTD/svg11.dtd">
<!-- Generated by graphviz version 2.43.0 (0)
 -->
<!-- Title: StorageLock::locked_exception Pages: 1 -->
<svg width="123pt" height="151pt"
 viewBox="0.00 0.00 123.00 151.00" xmlns="http://www.w3.org/2000/svg" xmlns:xlink="http://www.w3.org/1999/xlink">
<g id="graph0" class="graph" transform="scale(1 1) rotate(0) translate(4 147)">
<title>StorageLock::locked_exception</title>
<polygon fill="white" stroke="transparent" points="-4,4 -4,-147 119,-147 119,4 -4,4"/>
<!-- Node0 -->
<g id="node1" class="node">
<title>Node0</title>
<polygon fill="#bfbfbf" stroke="black" points="0,-0.5 0,-30.5 115,-30.5 115,-0.5 0,-0.5"/>
<text text-anchor="start" x="8" y="-18.5" font-family="Helvetica,sans-Serif" font-size="10.00">StorageLock::locked</text>
<text text-anchor="middle" x="57.5" y="-7.5" font-family="Helvetica,sans-Serif" font-size="10.00">_exception</text>
</g>
<!-- Node1 -->
<g id="node2" class="node">
<title>Node1</title>
<g id="a_node2"><a xlink:title="STL class. ">
<polygon fill="white" stroke="#bfbfbf" points="5.5,-67.5 5.5,-86.5 109.5,-86.5 109.5,-67.5 5.5,-67.5"/>
<text text-anchor="middle" x="57.5" y="-74.5" font-family="Helvetica,sans-Serif" font-size="10.00">std::runtime_error</text>
</a>
</g>
</g>
<!-- Node1&#45;&gt;Node0 -->
<g id="edge1" class="edge">
<title>Node1&#45;&gt;Node0</title>
<path fill="none" stroke="#8b1a1a" d="M57.5,-57.23C57.5,-48.59 57.5,-38.5 57.5,-30.52"/>
<polygon fill="#8b1a1a" stroke="#8b1a1a" points="54,-57.48 57.5,-67.48 61,-57.48 54,-57.48"/>
</g>
<!-- Node2 -->
<g id="node3" class="node">
<title>Node2</title>
<g id="a_node3"><a xlink:title="STL class. ">
<polygon fill="white" stroke="#bfbfbf" points="14.5,-123.5 14.5,-142.5 100.5,-142.5 100.5,-123.5 14.5,-123.5"/>
<text text-anchor="middle" x="57.5" y="-130.5" font-family="Helvetica,sans-Serif" font-size="10.00">std::exception</text>
</a>
</g>
</g>
<!-- Node2&#45;&gt;Node1 -->
<g id="edge2" class="edge">
<title>Node2&#45;&gt;Node1</title>
<path fill="none" stroke="midnightblue" d="M57.5,-112.8C57.5,-103.91 57.5,-93.78 57.5,-86.75"/>
<polygon fill="midnightblue" stroke="midnightblue" points="54,-113.08 57.5,-123.08 61,-113.08 54,-113.08"/>
</g>
</g>
</svg>
