<?xml version="1.0" encoding="UTF-8" standalone="no"?>
<!DOCTYPE svg PUBLIC "-//W3C//DTD SVG 1.1//EN"
 "http://www.w3.org/Graphics/SVG/1.1/DTD/svg11.dtd">
<!-- Generated by graphviz version 2.43.0 (0)
 -->
<!-- Title: AktualizrSecondaryConfig Pages: 1 -->
<svg width="813pt" height="474pt"
 viewBox="0.00 0.00 813.00 473.50" xmlns="http://www.w3.org/2000/svg" xmlns:xlink="http://www.w3.org/1999/xlink">
<g id="graph0" class="graph" transform="scale(1 1) rotate(0) translate(4 469.5)">
<title>AktualizrSecondaryConfig</title>
<polygon fill="white" stroke="transparent" points="-4,4 -4,-469.5 809,-469.5 809,4 -4,4"/>
<!-- Node2 -->
<g id="node1" class="node">
<title>Node2</title>
<polygon fill="#bfbfbf" stroke="black" points="663,-152.5 663,-171.5 805,-171.5 805,-152.5 663,-152.5"/>
<text text-anchor="middle" x="734" y="-159.5" font-family="Helvetica,sans-Serif" font-size="10.00">AktualizrSecondaryConfig</text>
</g>
<!-- Node3 -->
<g id="node2" class="node">
<title>Node3</title>
<g id="a_node2"><a xlink:href="class_base_config.html" target="_top" xlink:title="BaseConfig">
<polygon fill="white" stroke="black" points="456,-390.5 456,-409.5 527,-409.5 527,-390.5 456,-390.5"/>
<text text-anchor="middle" x="491.5" y="-397.5" font-family="Helvetica,sans-Serif" font-size="10.00">BaseConfig</text>
</a>
</g>
</g>
<!-- Node3&#45;&gt;Node2 -->
<g id="edge1" class="edge">
<title>Node3&#45;&gt;Node2</title>
<path fill="none" stroke="midnightblue" d="M516.57,-384.94C548.18,-364.47 604.42,-325.62 645,-284 681.46,-246.6 714.66,-193.17 727.44,-171.59"/>
<polygon fill="midnightblue" stroke="midnightblue" points="514.5,-382.11 507.97,-390.45 518.28,-388 514.5,-382.11"/>
</g>
<!-- Node4 -->
<g id="node3" class="node">
<title>Node4</title>
<polygon fill="white" stroke="#bfbfbf" points="141,-435 141,-465 254,-465 254,-435 141,-435"/>
<text text-anchor="start" x="149" y="-453" font-family="Helvetica,sans-Serif" font-size="10.00">std::vector&lt; boost</text>
<text text-anchor="middle" x="197.5" y="-442" font-family="Helvetica,sans-Serif" font-size="10.00">::filesystem::path &gt;</text>
</g>
<!-- Node4&#45;&gt;Node3 -->
<g id="edge2" class="edge">
<title>Node4&#45;&gt;Node3</title>
<path fill="none" stroke="#9a32cd" stroke-dasharray="5,2" d="M264.14,-438.76C323.48,-428.6 408.56,-414.03 455.7,-405.96"/>
<polygon fill="#9a32cd" stroke="#9a32cd" points="263.38,-435.34 254.11,-440.48 264.56,-442.24 263.38,-435.34"/>
<text text-anchor="middle" x="333" y="-439" font-family="Helvetica,sans-Serif" font-size="10.00"> config_dirs_</text>
</g>
<!-- Node5 -->
<g id="node4" class="node">
<title>Node5</title>
<g id="a_node4"><a xlink:href="struct_storage_config.html" target="_top" xlink:title="StorageConfig">
<polygon fill="white" stroke="black" points="449,-303.5 449,-322.5 534,-322.5 534,-303.5 449,-303.5"/>
<text text-anchor="middle" x="491.5" y="-310.5" font-family="Helvetica,sans-Serif" font-size="10.00">StorageConfig</text>
</a>
</g>
</g>
<!-- Node5&#45;&gt;Node2 -->
<g id="edge3" class="edge">
<title>Node5&#45;&gt;Node2</title>
<path fill="none" stroke="#9a32cd" stroke-dasharray="5,2" d="M526.41,-299.64C558.27,-286.39 606.65,-264.42 645,-239 676.14,-218.36 707.97,-187.61 723.42,-171.95"/>
<polygon fill="#9a32cd" stroke="#9a32cd" points="525.01,-296.43 517.08,-303.47 527.66,-302.91 525.01,-296.43"/>
<text text-anchor="middle" x="617" y="-272" font-family="Helvetica,sans-Serif" font-size="10.00"> storage</text>
</g>
<!-- Node6 -->
<g id="node5" class="node">
<title>Node6</title>
<g id="a_node5"><a xlink:href="class_based_path.html" target="_top" xlink:title="BasedPath">
<polygon fill="white" stroke="black" points="163.5,-284.5 163.5,-303.5 231.5,-303.5 231.5,-284.5 163.5,-284.5"/>
<text text-anchor="middle" x="197.5" y="-291.5" font-family="Helvetica,sans-Serif" font-size="10.00">BasedPath</text>
</a>
</g>
</g>
<!-- Node6&#45;&gt;Node5 -->
<g id="edge4" class="edge">
<title>Node6&#45;&gt;Node5</title>
<path fill="none" stroke="#9a32cd" stroke-dasharray="5,2" d="M232.02,-306.84C244.39,-310.95 258.65,-314.96 272,-317 332.95,-326.31 404.56,-322.19 448.74,-317.94"/>
<polygon fill="#9a32cd" stroke="#9a32cd" points="233.16,-303.53 222.56,-303.56 230.86,-310.14 233.16,-303.53"/>
<text text-anchor="middle" x="333" y="-402" font-family="Helvetica,sans-Serif" font-size="10.00"> uptane_public_key_path</text>
<text text-anchor="middle" x="333" y="-391" font-family="Helvetica,sans-Serif" font-size="10.00">tls_pkey_path</text>
<text text-anchor="middle" x="333" y="-380" font-family="Helvetica,sans-Serif" font-size="10.00">uptane_metadata_path</text>
<text text-anchor="middle" x="333" y="-369" font-family="Helvetica,sans-Serif" font-size="10.00">sqldb_path</text>
<text text-anchor="start" x="272" y="-358" font-family="Helvetica,sans-Serif" font-size="10.00">uptane_private_key</text>
<text text-anchor="middle" x="333" y="-347" font-family="Helvetica,sans-Serif" font-size="10.00">_path</text>
<text text-anchor="middle" x="333" y="-336" font-family="Helvetica,sans-Serif" font-size="10.00">tls_cacert_path</text>
<text text-anchor="middle" x="333" y="-325" font-family="Helvetica,sans-Serif" font-size="10.00">tls_clientcert_path</text>
</g>
<!-- Node14 -->
<g id="node13" class="node">
<title>Node14</title>
<g id="a_node13"><a xlink:href="struct_import_config.html" target="_top" xlink:title="ImportConfig">
<polygon fill="white" stroke="black" points="451.5,-240.5 451.5,-259.5 531.5,-259.5 531.5,-240.5 451.5,-240.5"/>
<text text-anchor="middle" x="491.5" y="-247.5" font-family="Helvetica,sans-Serif" font-size="10.00">ImportConfig</text>
</a>
</g>
</g>
<!-- Node6&#45;&gt;Node14 -->
<g id="edge16" class="edge">
<title>Node6&#45;&gt;Node14</title>
<path fill="none" stroke="#9a32cd" stroke-dasharray="5,2" d="M217.33,-277.64C231.35,-266.6 251.53,-252.98 272,-247 332.63,-229.27 406.82,-235.87 451.29,-242.66"/>
<polygon fill="#9a32cd" stroke="#9a32cd" points="214.96,-275.05 209.44,-284.1 219.4,-280.47 214.96,-275.05"/>
<text text-anchor="middle" x="333" y="-305" font-family="Helvetica,sans-Serif" font-size="10.00"> uptane_public_key_path</text>
<text text-anchor="middle" x="333" y="-294" font-family="Helvetica,sans-Serif" font-size="10.00">tls_pkey_path</text>
<text text-anchor="start" x="272" y="-283" font-family="Helvetica,sans-Serif" font-size="10.00">uptane_private_key</text>
<text text-anchor="middle" x="333" y="-272" font-family="Helvetica,sans-Serif" font-size="10.00">_path</text>
<text text-anchor="middle" x="333" y="-261" font-family="Helvetica,sans-Serif" font-size="10.00">tls_cacert_path</text>
<text text-anchor="middle" x="333" y="-250" font-family="Helvetica,sans-Serif" font-size="10.00">tls_clientcert_path</text>
</g>
<!-- Node7 -->
<g id="node6" class="node">
<title>Node7</title>
<g id="a_node6"><a xlink:href="struct_aktualizr_secondary_uptane_config.html" target="_top" xlink:title="AktualizrSecondaryUptane\lConfig">
<polygon fill="white" stroke="black" points="418.5,-191 418.5,-221 564.5,-221 564.5,-191 418.5,-191"/>
<text text-anchor="start" x="426.5" y="-209" font-family="Helvetica,sans-Serif" font-size="10.00">AktualizrSecondaryUptane</text>
<text text-anchor="middle" x="491.5" y="-198" font-family="Helvetica,sans-Serif" font-size="10.00">Config</text>
</a>
</g>
</g>
<!-- Node7&#45;&gt;Node2 -->
<g id="edge5" class="edge">
<title>Node7&#45;&gt;Node2</title>
<path fill="none" stroke="#9a32cd" stroke-dasharray="5,2" d="M574.89,-190.93C609.97,-184.51 649.84,-177.21 680.76,-171.56"/>
<polygon fill="#9a32cd" stroke="#9a32cd" points="573.86,-187.56 564.66,-192.8 575.12,-194.44 573.86,-187.56"/>
<text text-anchor="middle" x="617" y="-190" font-family="Helvetica,sans-Serif" font-size="10.00"> uptane</text>
</g>
<!-- Node8 -->
<g id="node7" class="node">
<title>Node8</title>
<g id="a_node7"><a xlink:title="STL class. ">
<polygon fill="white" stroke="#bfbfbf" points="165,-116.5 165,-135.5 230,-135.5 230,-116.5 165,-116.5"/>
<text text-anchor="middle" x="197.5" y="-123.5" font-family="Helvetica,sans-Serif" font-size="10.00">std::string</text>
</a>
</g>
</g>
<!-- Node8&#45;&gt;Node7 -->
<g id="edge6" class="edge">
<title>Node8&#45;&gt;Node7</title>
<path fill="none" stroke="#9a32cd" stroke-dasharray="5,2" d="M216.33,-142.43C230.37,-154.38 251.01,-169.82 272,-178 318.68,-196.19 374.8,-203.1 418.48,-205.5"/>
<polygon fill="#9a32cd" stroke="#9a32cd" points="218.31,-139.52 208.49,-135.55 213.69,-144.78 218.31,-139.52"/>
<text text-anchor="middle" x="333" y="-217" font-family="Helvetica,sans-Serif" font-size="10.00"> ecu_hardware_id</text>
<text text-anchor="middle" x="333" y="-206" font-family="Helvetica,sans-Serif" font-size="10.00">ecu_serial</text>
</g>
<!-- Node11 -->
<g id="node10" class="node">
<title>Node11</title>
<g id="a_node10"><a xlink:href="struct_package_config.html" target="_top" xlink:title="PackageConfig">
<polygon fill="white" stroke="black" points="447.5,-152.5 447.5,-171.5 535.5,-171.5 535.5,-152.5 447.5,-152.5"/>
<text text-anchor="middle" x="491.5" y="-159.5" font-family="Helvetica,sans-Serif" font-size="10.00">PackageConfig</text>
</a>
</g>
</g>
<!-- Node8&#45;&gt;Node11 -->
<g id="edge10" class="edge">
<title>Node8&#45;&gt;Node11</title>
<path fill="none" stroke="#9a32cd" stroke-dasharray="5,2" d="M240.32,-133.22C250.66,-134.89 261.72,-136.6 272,-138 332.69,-146.28 403.16,-153.61 447.3,-157.93"/>
<polygon fill="#9a32cd" stroke="#9a32cd" points="240.72,-129.74 230.28,-131.56 239.58,-136.64 240.72,-129.74"/>
<text text-anchor="middle" x="333" y="-166" font-family="Helvetica,sans-Serif" font-size="10.00"> os</text>
<text text-anchor="middle" x="333" y="-155" font-family="Helvetica,sans-Serif" font-size="10.00">ostree_server</text>
</g>
<!-- Node12 -->
<g id="node11" class="node">
<title>Node12</title>
<g id="a_node11"><a xlink:href="struct_aktualizr_secondary_net_config.html" target="_top" xlink:title="AktualizrSecondaryNetConfig">
<polygon fill="white" stroke="black" points="412,-114.5 412,-133.5 571,-133.5 571,-114.5 412,-114.5"/>
<text text-anchor="middle" x="491.5" y="-121.5" font-family="Helvetica,sans-Serif" font-size="10.00">AktualizrSecondaryNetConfig</text>
</a>
</g>
</g>
<!-- Node8&#45;&gt;Node12 -->
<g id="edge12" class="edge">
<title>Node8&#45;&gt;Node12</title>
<path fill="none" stroke="#9a32cd" stroke-dasharray="5,2" d="M240.2,-125.71C284.76,-125.41 356.45,-124.92 411.71,-124.54"/>
<polygon fill="#9a32cd" stroke="#9a32cd" points="240,-122.22 230.03,-125.78 240.05,-129.22 240,-122.22"/>
<text text-anchor="middle" x="333" y="-128" font-family="Helvetica,sans-Serif" font-size="10.00"> primary_ip</text>
</g>
<!-- Node13 -->
<g id="node12" class="node">
<title>Node13</title>
<g id="a_node12"><a xlink:href="struct_p11_config.html" target="_top" xlink:title="P11Config">
<polygon fill="white" stroke="black" points="459,-76.5 459,-95.5 524,-95.5 524,-76.5 459,-76.5"/>
<text text-anchor="middle" x="491.5" y="-83.5" font-family="Helvetica,sans-Serif" font-size="10.00">P11Config</text>
</a>
</g>
</g>
<!-- Node8&#45;&gt;Node13 -->
<g id="edge14" class="edge">
<title>Node8&#45;&gt;Node13</title>
<path fill="none" stroke="#9a32cd" stroke-dasharray="5,2" d="M212.88,-108.67C226.38,-93.87 248.05,-73.64 272,-65 323,-46.59 340.09,-59.2 394,-65 415.82,-67.35 439.95,-72.6 458.62,-77.26"/>
<polygon fill="#9a32cd" stroke="#9a32cd" points="210.22,-106.4 206.26,-116.22 215.48,-111.01 210.22,-106.4"/>
<text text-anchor="middle" x="333" y="-112" font-family="Helvetica,sans-Serif" font-size="10.00"> tls_pkey_id</text>
<text text-anchor="middle" x="333" y="-101" font-family="Helvetica,sans-Serif" font-size="10.00">tls_clientcert_id</text>
<text text-anchor="middle" x="333" y="-90" font-family="Helvetica,sans-Serif" font-size="10.00">pass</text>
<text text-anchor="middle" x="333" y="-79" font-family="Helvetica,sans-Serif" font-size="10.00">uptane_key_id</text>
<text text-anchor="middle" x="333" y="-68" font-family="Helvetica,sans-Serif" font-size="10.00">tls_cacert_id</text>
</g>
<!-- Node15 -->
<g id="node14" class="node">
<title>Node15</title>
<g id="a_node14"><a xlink:href="struct_bootloader_config.html" target="_top" xlink:title="BootloaderConfig">
<polygon fill="white" stroke="black" points="441,-38.5 441,-57.5 542,-57.5 542,-38.5 441,-38.5"/>
<text text-anchor="middle" x="491.5" y="-45.5" font-family="Helvetica,sans-Serif" font-size="10.00">BootloaderConfig</text>
</a>
</g>
</g>
<!-- Node8&#45;&gt;Node15 -->
<g id="edge18" class="edge">
<title>Node8&#45;&gt;Node15</title>
<path fill="none" stroke="#9a32cd" stroke-dasharray="5,2" d="M207.89,-107.52C219.65,-86.66 241.97,-53.84 272,-40 300.87,-26.7 385.5,-34.23 440.57,-41.02"/>
<polygon fill="#9a32cd" stroke="#9a32cd" points="204.76,-105.94 203.11,-116.41 210.93,-109.26 204.76,-105.94"/>
<text text-anchor="middle" x="333" y="-43" font-family="Helvetica,sans-Serif" font-size="10.00"> reboot_command</text>
</g>
<!-- Node9 -->
<g id="node8" class="node">
<title>Node9</title>
<g id="a_node8"><a xlink:title="STL class. ">
<polygon fill="white" stroke="#bfbfbf" points="0,-111 0,-141 104,-141 104,-111 0,-111"/>
<text text-anchor="start" x="8" y="-129" font-family="Helvetica,sans-Serif" font-size="10.00">std::basic_string&lt;</text>
<text text-anchor="middle" x="52" y="-118" font-family="Helvetica,sans-Serif" font-size="10.00"> char &gt;</text>
</a>
</g>
</g>
<!-- Node9&#45;&gt;Node8 -->
<g id="edge7" class="edge">
<title>Node9&#45;&gt;Node8</title>
<path fill="none" stroke="midnightblue" d="M114.45,-126C131.74,-126 149.84,-126 164.63,-126"/>
<polygon fill="midnightblue" stroke="midnightblue" points="114.4,-122.5 104.4,-126 114.4,-129.5 114.4,-122.5"/>
</g>
<!-- Node10 -->
<g id="node9" class="node">
<title>Node10</title>
<g id="a_node9"><a xlink:href="struct_logger_config.html" target="_top" xlink:title="LoggerConfig">
<polygon fill="white" stroke="black" points="451.5,-0.5 451.5,-19.5 531.5,-19.5 531.5,-0.5 451.5,-0.5"/>
<text text-anchor="middle" x="491.5" y="-7.5" font-family="Helvetica,sans-Serif" font-size="10.00">LoggerConfig</text>
</a>
</g>
</g>
<!-- Node10&#45;&gt;Node2 -->
<g id="edge8" class="edge">
<title>Node10&#45;&gt;Node2</title>
<path fill="none" stroke="#9a32cd" stroke-dasharray="5,2" d="M541.5,-16.95C573.28,-23.32 614.32,-35.22 645,-57 683.4,-84.27 715.04,-132.17 727.41,-152.47"/>
<polygon fill="#9a32cd" stroke="#9a32cd" points="542.01,-13.48 531.53,-15.07 540.71,-20.36 542.01,-13.48"/>
<text text-anchor="middle" x="617" y="-60" font-family="Helvetica,sans-Serif" font-size="10.00"> logger</text>
</g>
<!-- Node11&#45;&gt;Node2 -->
<g id="edge9" class="edge">
<title>Node11&#45;&gt;Node2</title>
<path fill="none" stroke="#9a32cd" stroke-dasharray="5,2" d="M546.08,-162C580.47,-162 625.49,-162 662.72,-162"/>
<polygon fill="#9a32cd" stroke="#9a32cd" points="545.77,-158.5 535.77,-162 545.77,-165.5 545.77,-158.5"/>
<text text-anchor="middle" x="617" y="-165" font-family="Helvetica,sans-Serif" font-size="10.00"> pacman</text>
</g>
<!-- Node12&#45;&gt;Node2 -->
<g id="edge11" class="edge">
<title>Node12&#45;&gt;Node2</title>
<path fill="none" stroke="#9a32cd" stroke-dasharray="5,2" d="M567.5,-135.02C592.2,-138.73 619.79,-142.95 645,-147 655.71,-148.72 667.14,-150.62 678.1,-152.48"/>
<polygon fill="#9a32cd" stroke="#9a32cd" points="567.88,-131.54 557.47,-133.52 566.85,-138.46 567.88,-131.54"/>
<text text-anchor="middle" x="617" y="-150" font-family="Helvetica,sans-Serif" font-size="10.00"> network</text>
</g>
<!-- Node13&#45;&gt;Node2 -->
<g id="edge13" class="edge">
<title>Node13&#45;&gt;Node2</title>
<path fill="none" stroke="#9a32cd" stroke-dasharray="5,2" d="M533.94,-96.02C545.9,-98.92 558.97,-102.08 571,-105 603.89,-112.98 612.96,-112.1 645,-123 669.52,-131.34 696.61,-143.88 714.17,-152.47"/>
<polygon fill="#9a32cd" stroke="#9a32cd" points="534.75,-92.61 524.2,-93.66 533.1,-99.42 534.75,-92.61"/>
<text text-anchor="middle" x="617" y="-126" font-family="Helvetica,sans-Serif" font-size="10.00"> p11</text>
</g>
<!-- Node14&#45;&gt;Node2 -->
<g id="edge15" class="edge">
<title>Node14&#45;&gt;Node2</title>
<path fill="none" stroke="#9a32cd" stroke-dasharray="5,2" d="M541.26,-239.29C551.17,-236.81 561.47,-234 571,-231 624.35,-214.17 684.21,-186.15 714.01,-171.53"/>
<polygon fill="#9a32cd" stroke="#9a32cd" points="540.41,-235.9 531.52,-241.66 542.06,-242.7 540.41,-235.9"/>
<text text-anchor="middle" x="617" y="-227" font-family="Helvetica,sans-Serif" font-size="10.00"> import</text>
</g>
<!-- Node15&#45;&gt;Node2 -->
<g id="edge17" class="edge">
<title>Node15&#45;&gt;Node2</title>
<path fill="none" stroke="#9a32cd" stroke-dasharray="5,2" d="M545.77,-60.04C554.25,-62.2 562.9,-64.55 571,-67 604.51,-77.13 614.34,-77.1 645,-94 675.77,-110.97 707.27,-138.18 722.91,-152.49"/>
<polygon fill="#9a32cd" stroke="#9a32cd" points="546.47,-56.6 535.92,-57.59 544.78,-63.4 546.47,-56.6"/>
<text text-anchor="middle" x="617" y="-97" font-family="Helvetica,sans-Serif" font-size="10.00"> bootloader</text>
</g>
</g>
</svg>
