<?xml version="1.0" encoding="UTF-8" standalone="no"?>
<!DOCTYPE svg PUBLIC "-//W3C//DTD SVG 1.1//EN"
 "http://www.w3.org/Graphics/SVG/1.1/DTD/svg11.dtd">
<!-- Generated by graphviz version 2.43.0 (0)
 -->
<!-- Title: test_fixtures.DirectorRepo.Handler Pages: 1 -->
<svg width="161pt" height="162pt"
 viewBox="0.00 0.00 161.00 162.00" xmlns="http://www.w3.org/2000/svg" xmlns:xlink="http://www.w3.org/1999/xlink">
<g id="graph0" class="graph" transform="scale(1 1) rotate(0) translate(4 158)">
<title>test_fixtures.DirectorRepo.Handler</title>
<polygon fill="white" stroke="transparent" points="-4,4 -4,-158 157,-158 157,4 -4,4"/>
<!-- Node3 -->
<g id="node1" class="node">
<title>Node3</title>
<polygon fill="#bfbfbf" stroke="black" points="3.5,-0.5 3.5,-30.5 149.5,-30.5 149.5,-0.5 3.5,-0.5"/>
<text text-anchor="start" x="11.5" y="-18.5" font-family="Helvetica,sans-Serif" font-size="10.00">test_fixtures.DirectorRepo.</text>
<text text-anchor="middle" x="76.5" y="-7.5" font-family="Helvetica,sans-Serif" font-size="10.00">Handler</text>
</g>
<!-- Node4 -->
<g id="node2" class="node">
<title>Node4</title>
<g id="a_node2"><a xlink:href="classtest__fixtures_1_1_uptane_repo_1_1_handler.html" target="_top" xlink:title="test_fixtures.UptaneRepo.\lHandler">
<polygon fill="white" stroke="black" points="5,-67.5 5,-97.5 148,-97.5 148,-67.5 5,-67.5"/>
<text text-anchor="start" x="13" y="-85.5" font-family="Helvetica,sans-Serif" font-size="10.00">test_fixtures.UptaneRepo.</text>
<text text-anchor="middle" x="76.5" y="-74.5" font-family="Helvetica,sans-Serif" font-size="10.00">Handler</text>
</a>
</g>
</g>
<!-- Node4&#45;&gt;Node3 -->
<g id="edge1" class="edge">
<title>Node4&#45;&gt;Node3</title>
<path fill="none" stroke="midnightblue" d="M76.5,-57.11C76.5,-48.15 76.5,-38.32 76.5,-30.58"/>
<polygon fill="midnightblue" stroke="midnightblue" points="73,-57.4 76.5,-67.4 80,-57.4 73,-57.4"/>
</g>
<!-- Node5 -->
<g id="node3" class="node">
<title>Node5</title>
<polygon fill="white" stroke="#bfbfbf" points="0,-134.5 0,-153.5 153,-153.5 153,-134.5 0,-134.5"/>
<text text-anchor="middle" x="76.5" y="-141.5" font-family="Helvetica,sans-Serif" font-size="10.00">SimpleHTTPRequestHandler</text>
</g>
<!-- Node5&#45;&gt;Node4 -->
<g id="edge2" class="edge">
<title>Node5&#45;&gt;Node4</title>
<path fill="none" stroke="midnightblue" d="M76.5,-124.23C76.5,-115.59 76.5,-105.5 76.5,-97.52"/>
<polygon fill="midnightblue" stroke="midnightblue" points="73,-124.48 76.5,-134.48 80,-124.48 73,-124.48"/>
</g>
</g>
</svg>
