<?xml version="1.0" encoding="UTF-8" standalone="no"?>
<!DOCTYPE svg PUBLIC "-//W3C//DTD SVG 1.1//EN"
 "http://www.w3.org/Graphics/SVG/1.1/DTD/svg11.dtd">
<!-- Generated by graphviz version 2.43.0 (0)
 -->
<!-- Title: HttpFake Pages: 1 -->
<!--zoomable 712 -->
<svg id="main" version="1.1" xmlns="http://www.w3.org/2000/svg" xmlns:xlink="http://www.w3.org/1999/xlink" xml:space="preserve" onload="init(evt)">
<style type="text/css"><![CDATA[
.edge:hover path { stroke: red; }
.edge:hover polygon { stroke: red; fill: red; }
]]></style>
<script type="text/javascript"><![CDATA[
var edges = document.getElementsByTagName('g');
if (edges && edges.length) {
  for (var i=0;i<edges.length;i++) {
    if (edges[i].id.substr(0,4)=='edge') {
      edges[i].setAttribute('class','edge');
    }
  }
}
]]></script>
        <defs>
                <circle id="rim" cx="0" cy="0" r="7"/>
                <circle id="rim2" cx="0" cy="0" r="3.5"/>
                <g id="zoomPlus">
                        <use xlink:href="#rim" fill="#404040">
                                <set attributeName="fill" to="#808080" begin="zoomplus.mouseover" end="zoomplus.mouseout"/>
                        </use>
                        <path d="M-4,0h8M0,-4v8" fill="none" stroke="white" stroke-width="1.5" pointer-events="none"/>
                </g>
                <g id="zoomMin">
                        <use xlink:href="#rim" fill="#404040">
                                <set attributeName="fill" to="#808080" begin="zoomminus.mouseover" end="zoomminus.mouseout"/>
                        </use>
                        <path d="M-4,0h8" fill="none" stroke="white" stroke-width="1.5" pointer-events="none"/>
                </g>
                <g id="dirArrow">
                        <path fill="none" stroke="white" stroke-width="1.5" d="M0,-3.0v7 M-2.5,-0.5L0,-3.0L2.5,-0.5"/>
                </g>
               <g id="resetDef">
                       <use xlink:href="#rim2" fill="#404040">
                               <set attributeName="fill" to="#808080" begin="reset.mouseover" end="reset.mouseout"/>
                       </use>
               </g>
        </defs>

<script type="text/javascript">
var viewWidth = 358;
var viewHeight = 712;
var sectionId = 'dynsection-0';
</script>
<script xlink:href="svgpan.js"/>
<svg id="graph" class="graph">
<g id="viewport">
<title>HttpFake</title>
<polygon fill="white" stroke="transparent" points="-4,4 -4,-708 354,-708 354,4 -4,4"/>
<!-- Node0 -->
<g id="node1" class="node">
<title>Node0</title>
<polygon fill="#bfbfbf" stroke="black" points="117,-323.5 117,-342.5 177,-342.5 177,-323.5 117,-323.5"/>
<text text-anchor="middle" x="147" y="-330.5" font-family="Helvetica,sans-Serif" font-size="10.00">HttpFake</text>
</g>
<!-- Node2 -->
<g id="node3" class="node">
<title>Node2</title>
<g id="a_node3"><a xlink:href="class_http_check_url.html" target="_top" xlink:title="HttpCheckUrl">
<polygon fill="white" stroke="black" points="240.5,-684.5 240.5,-703.5 322.5,-703.5 322.5,-684.5 240.5,-684.5"/>
<text text-anchor="middle" x="281.5" y="-691.5" font-family="Helvetica,sans-Serif" font-size="10.00">HttpCheckUrl</text>
</a>
</g>
</g>
<!-- Node0&#45;&gt;Node2 -->
<g id="edge2" class="edge">
<title>Node0&#45;&gt;Node2</title>
<path fill="none" stroke="midnightblue" d="M149.08,-352.74C153.08,-418.27 169.07,-627.09 213,-675 220.16,-682.81 230.25,-687.5 240.45,-690.3"/>
<polygon fill="midnightblue" stroke="midnightblue" points="152.57,-352.34 148.49,-342.56 145.58,-352.74 152.57,-352.34"/>
</g>
<!-- Node3 -->
<g id="node4" class="node">
<title>Node3</title>
<g id="a_node4"><a xlink:href="class_http_custom_uri.html" target="_top" xlink:title="HttpCustomUri">
<polygon fill="white" stroke="black" points="237,-646.5 237,-665.5 326,-665.5 326,-646.5 237,-646.5"/>
<text text-anchor="middle" x="281.5" y="-653.5" font-family="Helvetica,sans-Serif" font-size="10.00">HttpCustomUri</text>
</a>
</g>
</g>
<!-- Node0&#45;&gt;Node3 -->
<g id="edge3" class="edge">
<title>Node0&#45;&gt;Node3</title>
<path fill="none" stroke="midnightblue" d="M149.61,-352.88C154.91,-413.64 173.8,-595.22 213,-637 219.33,-643.75 227.85,-648.16 236.7,-651.04"/>
<polygon fill="midnightblue" stroke="midnightblue" points="153.08,-352.38 148.75,-342.71 146.1,-352.97 153.08,-352.38"/>
</g>
<!-- Node4 -->
<g id="node5" class="node">
<title>Node4</title>
<g id="a_node5"><a xlink:href="class_http_default_uri.html" target="_top" xlink:title="HttpDefaultUri">
<polygon fill="white" stroke="black" points="237.5,-608.5 237.5,-627.5 325.5,-627.5 325.5,-608.5 237.5,-608.5"/>
<text text-anchor="middle" x="281.5" y="-615.5" font-family="Helvetica,sans-Serif" font-size="10.00">HttpDefaultUri</text>
</a>
</g>
</g>
<!-- Node0&#45;&gt;Node4 -->
<g id="edge4" class="edge">
<title>Node0&#45;&gt;Node4</title>
<path fill="none" stroke="midnightblue" d="M150.27,-352.89C156.98,-408.4 178.47,-563.25 213,-599 219.51,-605.74 228.21,-610.15 237.2,-613.01"/>
<polygon fill="midnightblue" stroke="midnightblue" points="153.7,-352.16 149.06,-342.63 146.75,-352.98 153.7,-352.16"/>
</g>
<!-- Node5 -->
<g id="node6" class="node">
<title>Node5</title>
<g id="a_node6"><a xlink:href="class_http_download_failure.html" target="_top" xlink:title="HttpDownloadFailure">
<polygon fill="white" stroke="black" points="222,-570.5 222,-589.5 341,-589.5 341,-570.5 222,-570.5"/>
<text text-anchor="middle" x="281.5" y="-577.5" font-family="Helvetica,sans-Serif" font-size="10.00">HttpDownloadFailure</text>
</a>
</g>
</g>
<!-- Node0&#45;&gt;Node5 -->
<g id="edge5" class="edge">
<title>Node0&#45;&gt;Node5</title>
<path fill="none" stroke="midnightblue" d="M147.6,-353.14C147.87,-397.27 154.93,-503.12 213,-561 216.88,-564.87 221.48,-567.96 226.43,-570.44"/>
<polygon fill="midnightblue" stroke="midnightblue" points="151.1,-352.89 147.66,-342.87 144.1,-352.85 151.1,-352.89"/>
</g>
<!-- Node6 -->
<g id="node7" class="node">
<title>Node6</title>
<g id="a_node7"><a xlink:href="class_http_fake_campaign.html" target="_top" xlink:title="HttpFakeCampaign">
<polygon fill="white" stroke="black" points="226.5,-532.5 226.5,-551.5 336.5,-551.5 336.5,-532.5 226.5,-532.5"/>
<text text-anchor="middle" x="281.5" y="-539.5" font-family="Helvetica,sans-Serif" font-size="10.00">HttpFakeCampaign</text>
</a>
</g>
</g>
<!-- Node0&#45;&gt;Node6 -->
<g id="edge6" class="edge">
<title>Node0&#45;&gt;Node6</title>
<path fill="none" stroke="midnightblue" d="M148.95,-352.89C151.88,-391.43 163.89,-476.53 213,-523 217.07,-526.85 221.85,-529.93 226.97,-532.39"/>
<polygon fill="midnightblue" stroke="midnightblue" points="152.42,-352.28 148.3,-342.52 145.43,-352.72 152.42,-352.28"/>
</g>
<!-- Node7 -->
<g id="node8" class="node">
<title>Node7</title>
<g id="a_node8"><a xlink:href="class_http_fake_delegation.html" target="_top" xlink:title="HttpFakeDelegation">
<polygon fill="white" stroke="black" points="225,-494.5 225,-513.5 338,-513.5 338,-494.5 225,-494.5"/>
<text text-anchor="middle" x="281.5" y="-501.5" font-family="Helvetica,sans-Serif" font-size="10.00">HttpFakeDelegation</text>
</a>
</g>
</g>
<!-- Node0&#45;&gt;Node7 -->
<g id="edge7" class="edge">
<title>Node0&#45;&gt;Node7</title>
<path fill="none" stroke="midnightblue" d="M150.92,-352.95C156.74,-385.46 172.87,-449.77 213,-485 217.39,-488.86 222.51,-491.93 227.93,-494.39"/>
<polygon fill="midnightblue" stroke="midnightblue" points="154.34,-352.18 149.27,-342.87 147.43,-353.31 154.34,-352.18"/>
</g>
<!-- Node8 -->
<g id="node9" class="node">
<title>Node8</title>
<g id="a_node9"><a xlink:href="class_http_fake_event_counter.html" target="_top" xlink:title="HttpFakeEventCounter">
<polygon fill="white" stroke="black" points="218.5,-456.5 218.5,-475.5 344.5,-475.5 344.5,-456.5 218.5,-456.5"/>
<text text-anchor="middle" x="281.5" y="-463.5" font-family="Helvetica,sans-Serif" font-size="10.00">HttpFakeEventCounter</text>
</a>
</g>
</g>
<!-- Node0&#45;&gt;Node8 -->
<g id="edge8" class="edge">
<title>Node0&#45;&gt;Node8</title>
<path fill="none" stroke="midnightblue" d="M153.84,-352.26C162.56,-377.75 181.43,-422.32 213,-447 217.99,-450.9 223.73,-454 229.73,-456.46"/>
<polygon fill="midnightblue" stroke="midnightblue" points="157.13,-351.05 150.72,-342.62 150.47,-353.21 157.13,-351.05"/>
</g>
<!-- Node9 -->
<g id="node10" class="node">
<title>Node9</title>
<g id="a_node10"><a xlink:href="class_http_fake_events.html" target="_top" xlink:title="HttpFakeEvents">
<polygon fill="white" stroke="black" points="235,-418.5 235,-437.5 328,-437.5 328,-418.5 235,-418.5"/>
<text text-anchor="middle" x="281.5" y="-425.5" font-family="Helvetica,sans-Serif" font-size="10.00">HttpFakeEvents</text>
</a>
</g>
</g>
<!-- Node0&#45;&gt;Node9 -->
<g id="edge9" class="edge">
<title>Node0&#45;&gt;Node9</title>
<path fill="none" stroke="midnightblue" d="M158.99,-351.18C170.39,-368.54 189.8,-394.17 213,-409 219.67,-413.26 227.3,-416.59 234.98,-419.17"/>
<polygon fill="midnightblue" stroke="midnightblue" points="161.81,-349.09 153.5,-342.52 155.89,-352.84 161.81,-349.09"/>
</g>
<!-- Node10 -->
<g id="node11" class="node">
<title>Node10</title>
<g id="a_node11"><a xlink:href="class_http_fake_no_correlation_id.html" target="_top" xlink:title="HttpFakeNoCorrelationId">
<polygon fill="white" stroke="black" points="213,-380.5 213,-399.5 350,-399.5 350,-380.5 213,-380.5"/>
<text text-anchor="middle" x="281.5" y="-387.5" font-family="Helvetica,sans-Serif" font-size="10.00">HttpFakeNoCorrelationId</text>
</a>
</g>
</g>
<!-- Node0&#45;&gt;Node10 -->
<g id="edge10" class="edge">
<title>Node0&#45;&gt;Node10</title>
<path fill="none" stroke="midnightblue" d="M170.5,-348.08C182.69,-355.74 198.24,-364.73 213,-371 221.63,-374.67 231.17,-377.84 240.3,-380.5"/>
<polygon fill="midnightblue" stroke="midnightblue" points="172.21,-345.01 161.91,-342.54 168.42,-350.9 172.21,-345.01"/>
</g>
<!-- Node11 -->
<g id="node12" class="node">
<title>Node11</title>
<g id="a_node12"><a xlink:href="class_http_fake_pause_counter.html" target="_top" xlink:title="HttpFakePauseCounter">
<polygon fill="white" stroke="black" points="218,-342.5 218,-361.5 345,-361.5 345,-342.5 218,-342.5"/>
<text text-anchor="middle" x="281.5" y="-349.5" font-family="Helvetica,sans-Serif" font-size="10.00">HttpFakePauseCounter</text>
</a>
</g>
</g>
<!-- Node0&#45;&gt;Node11 -->
<g id="edge11" class="edge">
<title>Node0&#45;&gt;Node11</title>
<path fill="none" stroke="midnightblue" d="M187.13,-338.61C196.78,-339.99 207.35,-341.51 217.81,-343.01"/>
<polygon fill="midnightblue" stroke="midnightblue" points="187.47,-335.12 177.08,-337.17 186.48,-342.05 187.47,-335.12"/>
</g>
<!-- Node12 -->
<g id="node13" class="node">
<title>Node12</title>
<g id="a_node13"><a xlink:href="class_http_fake_prov.html" target="_top" xlink:title="Check that basic device info sent by aktualizr during provisioning matches our expectations. ">
<polygon fill="white" stroke="black" points="240.5,-304.5 240.5,-323.5 322.5,-323.5 322.5,-304.5 240.5,-304.5"/>
<text text-anchor="middle" x="281.5" y="-311.5" font-family="Helvetica,sans-Serif" font-size="10.00">HttpFakeProv</text>
</a>
</g>
</g>
<!-- Node0&#45;&gt;Node12 -->
<g id="edge12" class="edge">
<title>Node0&#45;&gt;Node12</title>
<path fill="none" stroke="midnightblue" d="M187.12,-327.39C203.92,-324.98 223.53,-322.17 240.43,-319.75"/>
<polygon fill="midnightblue" stroke="midnightblue" points="186.48,-323.95 177.08,-328.83 187.47,-330.88 186.48,-323.95"/>
</g>
<!-- Node13 -->
<g id="node14" class="node">
<title>Node13</title>
<g id="a_node14"><a xlink:href="class_http_fake_put_counter.html" target="_top" xlink:title="HttpFakePutCounter">
<polygon fill="white" stroke="black" points="224.5,-266.5 224.5,-285.5 338.5,-285.5 338.5,-266.5 224.5,-266.5"/>
<text text-anchor="middle" x="281.5" y="-273.5" font-family="Helvetica,sans-Serif" font-size="10.00">HttpFakePutCounter</text>
</a>
</g>
</g>
<!-- Node0&#45;&gt;Node13 -->
<g id="edge13" class="edge">
<title>Node0&#45;&gt;Node13</title>
<path fill="none" stroke="midnightblue" d="M170.5,-317.92C182.69,-310.26 198.24,-301.27 213,-295 221.63,-291.33 231.17,-288.16 240.3,-285.5"/>
<polygon fill="midnightblue" stroke="midnightblue" points="168.42,-315.1 161.91,-323.46 172.21,-320.99 168.42,-315.1"/>
</g>
<!-- Node14 -->
<g id="node15" class="node">
<title>Node14</title>
<g id="a_node15"><a xlink:href="class_http_fake_rq.html" target="_top" xlink:title="HttpFakeRq">
<polygon fill="white" stroke="black" points="245,-228.5 245,-247.5 318,-247.5 318,-228.5 245,-228.5"/>
<text text-anchor="middle" x="281.5" y="-235.5" font-family="Helvetica,sans-Serif" font-size="10.00">HttpFakeRq</text>
</a>
</g>
</g>
<!-- Node0&#45;&gt;Node14 -->
<g id="edge14" class="edge">
<title>Node0&#45;&gt;Node14</title>
<path fill="none" stroke="midnightblue" d="M158.99,-314.82C170.39,-297.46 189.8,-271.83 213,-257 222.54,-250.9 234.06,-246.73 244.85,-243.88"/>
<polygon fill="midnightblue" stroke="midnightblue" points="155.89,-313.16 153.5,-323.48 161.81,-316.91 155.89,-313.16"/>
</g>
<!-- Node15 -->
<g id="node16" class="node">
<title>Node15</title>
<g id="a_node16"><a xlink:href="class_http_fake_split.html" target="_top" xlink:title="HttpFakeSplit">
<polygon fill="white" stroke="black" points="240.5,-190.5 240.5,-209.5 322.5,-209.5 322.5,-190.5 240.5,-190.5"/>
<text text-anchor="middle" x="281.5" y="-197.5" font-family="Helvetica,sans-Serif" font-size="10.00">HttpFakeSplit</text>
</a>
</g>
</g>
<!-- Node0&#45;&gt;Node15 -->
<g id="edge15" class="edge">
<title>Node0&#45;&gt;Node15</title>
<path fill="none" stroke="midnightblue" d="M153.84,-313.74C162.56,-288.25 181.43,-243.68 213,-219 220.86,-212.85 230.62,-208.69 240.24,-205.88"/>
<polygon fill="midnightblue" stroke="midnightblue" points="150.47,-312.79 150.72,-323.38 157.13,-314.95 150.47,-312.79"/>
</g>
<!-- Node16 -->
<g id="node17" class="node">
<title>Node16</title>
<g id="a_node17"><a xlink:href="class_http_fake_unstable.html" target="_top" xlink:title="HttpFakeUnstable">
<polygon fill="white" stroke="black" points="229.5,-152.5 229.5,-171.5 333.5,-171.5 333.5,-152.5 229.5,-152.5"/>
<text text-anchor="middle" x="281.5" y="-159.5" font-family="Helvetica,sans-Serif" font-size="10.00">HttpFakeUnstable</text>
</a>
</g>
</g>
<!-- Node0&#45;&gt;Node16 -->
<g id="edge16" class="edge">
<title>Node0&#45;&gt;Node16</title>
<path fill="none" stroke="midnightblue" d="M150.92,-313.05C156.74,-280.54 172.87,-216.23 213,-181 217.76,-176.82 223.37,-173.56 229.29,-171.01"/>
<polygon fill="midnightblue" stroke="midnightblue" points="147.43,-312.69 149.27,-323.13 154.34,-313.82 147.43,-312.69"/>
</g>
<!-- Node17 -->
<g id="node18" class="node">
<title>Node17</title>
<g id="a_node18"><a xlink:href="class_http_put_manifest_fail.html" target="_top" xlink:title="HttpPutManifestFail">
<polygon fill="white" stroke="black" points="225.5,-114.5 225.5,-133.5 337.5,-133.5 337.5,-114.5 225.5,-114.5"/>
<text text-anchor="middle" x="281.5" y="-121.5" font-family="Helvetica,sans-Serif" font-size="10.00">HttpPutManifestFail</text>
</a>
</g>
</g>
<!-- Node0&#45;&gt;Node17 -->
<g id="edge17" class="edge">
<title>Node0&#45;&gt;Node17</title>
<path fill="none" stroke="midnightblue" d="M148.64,-312.83C151,-272.34 161.95,-182.3 213,-134 216.63,-130.57 220.82,-127.75 225.31,-125.47"/>
<polygon fill="midnightblue" stroke="midnightblue" points="145.14,-312.93 148.17,-323.08 152.13,-313.25 145.14,-312.93"/>
</g>
<!-- Node0&#45;&gt;Node17 -->
<g id="edge18" class="edge">
<title>Node0&#45;&gt;Node17</title>
<path fill="none" stroke="midnightblue" d="M149.42,-313.02C153.09,-275.71 166.18,-196.3 213,-152 224.05,-141.54 240.41,-136.77 254.25,-133.57"/>
<polygon fill="midnightblue" stroke="midnightblue" points="145.92,-312.9 148.56,-323.16 152.9,-313.49 145.92,-312.9"/>
</g>
<!-- Node18 -->
<g id="node19" class="node">
<title>Node18</title>
<g id="a_node19"><a xlink:href="class_http_reject_empty_corr_id.html" target="_top" xlink:title="HttpRejectEmptyCorrId">
<polygon fill="white" stroke="black" points="217.5,-76.5 217.5,-95.5 345.5,-95.5 345.5,-76.5 217.5,-76.5"/>
<text text-anchor="middle" x="281.5" y="-83.5" font-family="Helvetica,sans-Serif" font-size="10.00">HttpRejectEmptyCorrId</text>
</a>
</g>
</g>
<!-- Node0&#45;&gt;Node18 -->
<g id="edge19" class="edge">
<title>Node0&#45;&gt;Node18</title>
<path fill="none" stroke="midnightblue" d="M147.6,-312.86C147.87,-268.73 154.93,-162.88 213,-105 216.88,-101.13 221.48,-98.04 226.43,-95.56"/>
<polygon fill="midnightblue" stroke="midnightblue" points="144.1,-313.15 147.66,-323.13 151.1,-313.11 144.1,-313.15"/>
</g>
<!-- Node19 -->
<g id="node20" class="node">
<title>Node19</title>
<g id="a_node20"><a xlink:href="class_http_unstable.html" target="_top" xlink:title="HttpUnstable">
<polygon fill="white" stroke="black" points="241,-38.5 241,-57.5 322,-57.5 322,-38.5 241,-38.5"/>
<text text-anchor="middle" x="281.5" y="-45.5" font-family="Helvetica,sans-Serif" font-size="10.00">HttpUnstable</text>
</a>
</g>
</g>
<!-- Node0&#45;&gt;Node19 -->
<g id="edge20" class="edge">
<title>Node0&#45;&gt;Node19</title>
<path fill="none" stroke="midnightblue" d="M150.27,-313.11C156.98,-257.6 178.47,-102.75 213,-67 220.36,-59.38 230.51,-54.75 240.71,-51.95"/>
<polygon fill="midnightblue" stroke="midnightblue" points="146.75,-313.02 149.06,-323.37 153.7,-313.84 146.75,-313.02"/>
</g>
<!-- Node20 -->
<g id="node21" class="node">
<title>Node20</title>
<g id="a_node21"><a xlink:href="class_http_zero_length.html" target="_top" xlink:title="HttpZeroLength">
<polygon fill="white" stroke="black" points="235,-0.5 235,-19.5 328,-19.5 328,-0.5 235,-0.5"/>
<text text-anchor="middle" x="281.5" y="-7.5" font-family="Helvetica,sans-Serif" font-size="10.00">HttpZeroLength</text>
</a>
</g>
</g>
<!-- Node0&#45;&gt;Node20 -->
<g id="edge21" class="edge">
<title>Node0&#45;&gt;Node20</title>
<path fill="none" stroke="midnightblue" d="M149.61,-313.12C154.91,-252.36 173.8,-70.78 213,-29 218.91,-22.7 226.74,-18.43 234.96,-15.55"/>
<polygon fill="midnightblue" stroke="midnightblue" points="146.1,-313.03 148.75,-323.29 153.08,-313.62 146.1,-313.03"/>
</g>
<!-- Node1 -->
<g id="node2" class="node">
<title>Node1</title>
<g id="a_node2"><a xlink:href="class_http_interface.html" target="_top" xlink:title="HttpInterface">
<polygon fill="white" stroke="black" points="0,-323.5 0,-342.5 81,-342.5 81,-323.5 0,-323.5"/>
<text text-anchor="middle" x="40.5" y="-330.5" font-family="Helvetica,sans-Serif" font-size="10.00">HttpInterface</text>
</a>
</g>
</g>
<!-- Node1&#45;&gt;Node0 -->
<g id="edge1" class="edge">
<title>Node1&#45;&gt;Node0</title>
<path fill="none" stroke="midnightblue" d="M91.22,-333C100,-333 108.88,-333 116.86,-333"/>
<polygon fill="midnightblue" stroke="midnightblue" points="91.01,-329.5 81.01,-333 91.01,-336.5 91.01,-329.5"/>
</g>
</g>
</svg>
        <g id="navigator" transform="translate(0 0)" fill="#404254">
                <rect fill="#f2f5e9" fill-opacity="0.5" stroke="#606060" stroke-width=".5" x="0" y="0" width="60" height="60"/>
                <use id="zoomplus" xlink:href="#zoomPlus" x="17" y="9" onmousedown="handleZoom(evt,'in')"/>
                <use id="zoomminus" xlink:href="#zoomMin" x="42" y="9" onmousedown="handleZoom(evt,'out')"/>
                <use id="reset" xlink:href="#resetDef" x="30" y="36" onmousedown="handleReset()"/>
                <g id="arrowUp" xlink:href="#dirArrow" transform="translate(30 24)" onmousedown="handlePan(0,-1)">
                  <use xlink:href="#rim" fill="#404040">
                        <set attributeName="fill" to="#808080" begin="arrowUp.mouseover" end="arrowUp.mouseout"/>
                  </use>
                  <path fill="none" stroke="white" stroke-width="1.5" d="M0,-3.0v7 M-2.5,-0.5L0,-3.0L2.5,-0.5"/>
                </g>
                <g id="arrowRight" xlink:href="#dirArrow" transform="rotate(90) translate(36 -43)" onmousedown="handlePan(1,0)">
                  <use xlink:href="#rim" fill="#404040">
                        <set attributeName="fill" to="#808080" begin="arrowRight.mouseover" end="arrowRight.mouseout"/>
                  </use>
                  <path fill="none" stroke="white" stroke-width="1.5" d="M0,-3.0v7 M-2.5,-0.5L0,-3.0L2.5,-0.5"/>
                </g>
                <g id="arrowDown" xlink:href="#dirArrow" transform="rotate(180) translate(-30 -48)" onmousedown="handlePan(0,1)">
                  <use xlink:href="#rim" fill="#404040">
                        <set attributeName="fill" to="#808080" begin="arrowDown.mouseover" end="arrowDown.mouseout"/>
                  </use>
                  <path fill="none" stroke="white" stroke-width="1.5" d="M0,-3.0v7 M-2.5,-0.5L0,-3.0L2.5,-0.5"/>
                </g>
                <g id="arrowLeft" xlink:href="#dirArrow" transform="rotate(270) translate(-36 17)" onmousedown="handlePan(-1,0)">
                  <use xlink:href="#rim" fill="#404040">
                        <set attributeName="fill" to="#808080" begin="arrowLeft.mouseover" end="arrowLeft.mouseout"/>
                  </use>
                  <path fill="none" stroke="white" stroke-width="1.5" d="M0,-3.0v7 M-2.5,-0.5L0,-3.0L2.5,-0.5"/>
                </g>
        </g>
        <svg viewBox="0 0 15 15" width="100%" height="30px" preserveAspectRatio="xMaxYMin meet">
         <g id="arrow_out" transform="scale(0.3 0.3)">
          <a xlink:href="class_http_fake__inherit__graph_org.svg" target="_base">
           <rect id="button" ry="5" rx="5" y="6" x="6" height="38" width="38"
                fill="#f2f5e9" fill-opacity="0.5" stroke="#606060" stroke-width="1.0"/>
           <path id="arrow"
             d="M 11.500037,31.436501 C 11.940474,20.09759 22.043105,11.32322 32.158766,21.979434 L 37.068811,17.246167 C 37.068811,17.246167 37.088388,32 37.088388,32 L 22.160133,31.978069 C 22.160133,31.978069 26.997745,27.140456 26.997745,27.140456 C 18.528582,18.264221 13.291696,25.230495 11.500037,31.436501 z"
             style="fill:#404040;"/>
          </a>
         </g>
        </svg>
</svg>
