<?xml version="1.0" encoding="UTF-8" standalone="no"?>
<!DOCTYPE svg PUBLIC "-//W3C//DTD SVG 1.1//EN"
 "http://www.w3.org/Graphics/SVG/1.1/DTD/svg11.dtd">
<!-- Generated by graphviz version 2.43.0 (0)
 -->
<!-- Title: Uptane::TimestampMeta Pages: 1 -->
<svg width="145pt" height="152pt"
 viewBox="0.00 0.00 145.00 152.00" xmlns="http://www.w3.org/2000/svg" xmlns:xlink="http://www.w3.org/1999/xlink">
<g id="graph0" class="graph" transform="scale(1 1) rotate(0) translate(4 148)">
<title>Uptane::TimestampMeta</title>
<polygon fill="white" stroke="transparent" points="-4,4 -4,-148 141,-148 141,4 -4,4"/>
<!-- Node2 -->
<g id="node1" class="node">
<title>Node2</title>
<polygon fill="#bfbfbf" stroke="black" points="0,-0.5 0,-19.5 137,-19.5 137,-0.5 0,-0.5"/>
<text text-anchor="middle" x="68.5" y="-7.5" font-family="Helvetica,sans-Serif" font-size="10.00">Uptane::TimestampMeta</text>
</g>
<!-- Node3 -->
<g id="node2" class="node">
<title>Node3</title>
<g id="a_node2"><a xlink:href="class_uptane_1_1_base_meta.html" target="_top" xlink:title="Uptane::BaseMeta">
<polygon fill="white" stroke="black" points="15.5,-57.5 15.5,-76.5 121.5,-76.5 121.5,-57.5 15.5,-57.5"/>
<text text-anchor="middle" x="68.5" y="-64.5" font-family="Helvetica,sans-Serif" font-size="10.00">Uptane::BaseMeta</text>
</a>
</g>
</g>
<!-- Node3&#45;&gt;Node2 -->
<g id="edge1" class="edge">
<title>Node3&#45;&gt;Node2</title>
<path fill="none" stroke="midnightblue" d="M68.5,-47.12C68.5,-37.82 68.5,-27.06 68.5,-19.71"/>
<polygon fill="midnightblue" stroke="midnightblue" points="65,-47.41 68.5,-57.41 72,-47.41 65,-47.41"/>
</g>
<!-- Node4 -->
<g id="node3" class="node">
<title>Node4</title>
<g id="a_node3"><a xlink:href="class_time_stamp.html" target="_top" xlink:title="TimeStamp">
<polygon fill="white" stroke="black" points="32,-124.5 32,-143.5 105,-143.5 105,-124.5 32,-124.5"/>
<text text-anchor="middle" x="68.5" y="-131.5" font-family="Helvetica,sans-Serif" font-size="10.00">TimeStamp</text>
</a>
</g>
</g>
<!-- Node4&#45;&gt;Node3 -->
<g id="edge2" class="edge">
<title>Node4&#45;&gt;Node3</title>
<path fill="none" stroke="#9a32cd" stroke-dasharray="5,2" d="M68.5,-114.04C68.5,-101.67 68.5,-86.12 68.5,-76.63"/>
<polygon fill="#9a32cd" stroke="#9a32cd" points="65,-114.23 68.5,-124.23 72,-114.23 65,-114.23"/>
<text text-anchor="middle" x="88.5" y="-98" font-family="Helvetica,sans-Serif" font-size="10.00"> expiry_</text>
</g>
</g>
</svg>
