<?xml version="1.0" encoding="UTF-8" standalone="no"?>
<!DOCTYPE svg PUBLIC "-//W3C//DTD SVG 1.1//EN"
 "http://www.w3.org/Graphics/SVG/1.1/DTD/svg11.dtd">
<!-- Generated by graphviz version 2.43.0 (0)
 -->
<!-- Title: test_fixtures.CustomRepo Pages: 1 -->
<svg width="150pt" height="140pt"
 viewBox="0.00 0.00 150.00 140.00" xmlns="http://www.w3.org/2000/svg" xmlns:xlink="http://www.w3.org/1999/xlink">
<g id="graph0" class="graph" transform="scale(1 1) rotate(0) translate(4 136)">
<title>test_fixtures.CustomRepo</title>
<polygon fill="white" stroke="transparent" points="-4,4 -4,-136 146,-136 146,4 -4,4"/>
<!-- Node0 -->
<g id="node1" class="node">
<title>Node0</title>
<polygon fill="#bfbfbf" stroke="black" points="0,-0.5 0,-19.5 142,-19.5 142,-0.5 0,-0.5"/>
<text text-anchor="middle" x="71" y="-7.5" font-family="Helvetica,sans-Serif" font-size="10.00">test_fixtures.CustomRepo</text>
</g>
<!-- Node1 -->
<g id="node2" class="node">
<title>Node1</title>
<g id="a_node2"><a xlink:href="classtest__fixtures_1_1_uptane_repo.html" target="_top" xlink:title="test_fixtures.UptaneRepo">
<polygon fill="white" stroke="black" points="1,-56.5 1,-75.5 141,-75.5 141,-56.5 1,-56.5"/>
<text text-anchor="middle" x="71" y="-63.5" font-family="Helvetica,sans-Serif" font-size="10.00">test_fixtures.UptaneRepo</text>
</a>
</g>
</g>
<!-- Node1&#45;&gt;Node0 -->
<g id="edge1" class="edge">
<title>Node1&#45;&gt;Node0</title>
<path fill="none" stroke="midnightblue" d="M71,-45.8C71,-36.91 71,-26.78 71,-19.75"/>
<polygon fill="midnightblue" stroke="midnightblue" points="67.5,-46.08 71,-56.08 74.5,-46.08 67.5,-46.08"/>
</g>
<!-- Node2 -->
<g id="node3" class="node">
<title>Node2</title>
<polygon fill="white" stroke="#bfbfbf" points="34,-112.5 34,-131.5 108,-131.5 108,-112.5 34,-112.5"/>
<text text-anchor="middle" x="71" y="-119.5" font-family="Helvetica,sans-Serif" font-size="10.00">HTTPServer</text>
</g>
<!-- Node2&#45;&gt;Node1 -->
<g id="edge2" class="edge">
<title>Node2&#45;&gt;Node1</title>
<path fill="none" stroke="midnightblue" d="M71,-101.8C71,-92.91 71,-82.78 71,-75.75"/>
<polygon fill="midnightblue" stroke="midnightblue" points="67.5,-102.08 71,-112.08 74.5,-102.08 67.5,-102.08"/>
</g>
</g>
</svg>
