<?xml version="1.0" encoding="UTF-8" standalone="no"?>
<!DOCTYPE svg PUBLIC "-//W3C//DTD SVG 1.1//EN"
 "http://www.w3.org/Graphics/SVG/1.1/DTD/svg11.dtd">
<!-- Generated by graphviz version 2.43.0 (0)
 -->
<!-- Title: OSTreeRepo Pages: 1 -->
<svg width="140pt" height="173pt"
 viewBox="0.00 0.00 140.00 173.00" xmlns="http://www.w3.org/2000/svg" xmlns:xlink="http://www.w3.org/1999/xlink">
<g id="graph0" class="graph" transform="scale(1 1) rotate(0) translate(4 169)">
<title>OSTreeRepo</title>
<polygon fill="white" stroke="transparent" points="-4,4 -4,-169 136,-169 136,4 -4,4"/>
<!-- Node3 -->
<g id="node1" class="node">
<title>Node3</title>
<polygon fill="#bfbfbf" stroke="black" points="29,-0.5 29,-19.5 103,-19.5 103,-0.5 29,-0.5"/>
<text text-anchor="middle" x="66" y="-7.5" font-family="Helvetica,sans-Serif" font-size="10.00">OSTreeRepo</text>
</g>
<!-- Node4 -->
<g id="node2" class="node">
<title>Node4</title>
<polygon fill="white" stroke="#bfbfbf" points="0,-67.5 0,-97.5 132,-97.5 132,-67.5 0,-67.5"/>
<text text-anchor="start" x="8" y="-85.5" font-family="Helvetica,sans-Serif" font-size="10.00">std::map&lt; OSTreeHash,</text>
<text text-anchor="middle" x="66" y="-74.5" font-family="Helvetica,sans-Serif" font-size="10.00"> OSTreeObject::ptr &gt;</text>
</g>
<!-- Node4&#45;&gt;Node3 -->
<g id="edge1" class="edge">
<title>Node4&#45;&gt;Node3</title>
<path fill="none" stroke="#9a32cd" stroke-dasharray="5,2" d="M66,-57.09C66,-44.21 66,-29.2 66,-19.89"/>
<polygon fill="#9a32cd" stroke="#9a32cd" points="62.5,-57.23 66,-67.23 69.5,-57.23 62.5,-57.23"/>
<text text-anchor="middle" x="96.5" y="-41" font-family="Helvetica,sans-Serif" font-size="10.00"> ObjectTable</text>
</g>
<!-- Node5 -->
<g id="node3" class="node">
<title>Node5</title>
<g id="a_node3"><a xlink:href="class_o_s_tree_hash.html" target="_top" xlink:title="OSTreeHash">
<polygon fill="white" stroke="black" points="28.5,-145.5 28.5,-164.5 103.5,-164.5 103.5,-145.5 28.5,-145.5"/>
<text text-anchor="middle" x="66" y="-152.5" font-family="Helvetica,sans-Serif" font-size="10.00">OSTreeHash</text>
</a>
</g>
</g>
<!-- Node5&#45;&gt;Node4 -->
<g id="edge2" class="edge">
<title>Node5&#45;&gt;Node4</title>
<path fill="none" stroke="#9a32cd" stroke-dasharray="5,2" d="M66,-135.24C66,-123.41 66,-108.38 66,-97.58"/>
<polygon fill="#9a32cd" stroke="#9a32cd" points="62.5,-135.36 66,-145.36 69.5,-135.36 62.5,-135.36"/>
<text text-anchor="middle" x="79.5" y="-119" font-family="Helvetica,sans-Serif" font-size="10.00"> keys</text>
</g>
</g>
</svg>
