<?xml version="1.0" encoding="UTF-8" standalone="no"?>
<!DOCTYPE svg PUBLIC "-//W3C//DTD SVG 1.1//EN"
 "http://www.w3.org/Graphics/SVG/1.1/DTD/svg11.dtd">
<!-- Generated by graphviz version 2.43.0 (0)
 -->
<!-- Title: test_fixtures.UptaneRepo.Handler Pages: 1 -->
<svg width="332pt" height="162pt"
 viewBox="0.00 0.00 332.00 162.00" xmlns="http://www.w3.org/2000/svg" xmlns:xlink="http://www.w3.org/1999/xlink">
<g id="graph0" class="graph" transform="scale(1 1) rotate(0) translate(4 158)">
<title>test_fixtures.UptaneRepo.Handler</title>
<polygon fill="white" stroke="transparent" points="-4,4 -4,-158 328,-158 328,4 -4,4"/>
<!-- Node0 -->
<g id="node1" class="node">
<title>Node0</title>
<polygon fill="#bfbfbf" stroke="black" points="86.5,-67.5 86.5,-97.5 229.5,-97.5 229.5,-67.5 86.5,-67.5"/>
<text text-anchor="start" x="94.5" y="-85.5" font-family="Helvetica,sans-Serif" font-size="10.00">test_fixtures.UptaneRepo.</text>
<text text-anchor="middle" x="158" y="-74.5" font-family="Helvetica,sans-Serif" font-size="10.00">Handler</text>
</g>
<!-- Node2 -->
<g id="node3" class="node">
<title>Node2</title>
<g id="a_node3"><a xlink:href="classtest__fixtures_1_1_director_repo_1_1_handler.html" target="_top" xlink:title="test_fixtures.DirectorRepo.\lHandler">
<polygon fill="white" stroke="black" points="0,-0.5 0,-30.5 146,-30.5 146,-0.5 0,-0.5"/>
<text text-anchor="start" x="8" y="-18.5" font-family="Helvetica,sans-Serif" font-size="10.00">test_fixtures.DirectorRepo.</text>
<text text-anchor="middle" x="73" y="-7.5" font-family="Helvetica,sans-Serif" font-size="10.00">Handler</text>
</a>
</g>
</g>
<!-- Node0&#45;&gt;Node2 -->
<g id="edge2" class="edge">
<title>Node0&#45;&gt;Node2</title>
<path fill="none" stroke="midnightblue" d="M131.41,-61.17C118.41,-51.23 103.1,-39.51 91.41,-30.58"/>
<polygon fill="midnightblue" stroke="midnightblue" points="129.49,-64.1 139.56,-67.4 133.74,-58.54 129.49,-64.1"/>
</g>
<!-- Node3 -->
<g id="node4" class="node">
<title>Node3</title>
<g id="a_node4"><a xlink:href="classtest__fixtures_1_1_treehub_1_1_handler.html" target="_top" xlink:title="test_fixtures.Treehub.Handler">
<polygon fill="white" stroke="black" points="164,-6 164,-25 324,-25 324,-6 164,-6"/>
<text text-anchor="middle" x="244" y="-13" font-family="Helvetica,sans-Serif" font-size="10.00">test_fixtures.Treehub.Handler</text>
</a>
</g>
</g>
<!-- Node0&#45;&gt;Node3 -->
<g id="edge3" class="edge">
<title>Node0&#45;&gt;Node3</title>
<path fill="none" stroke="midnightblue" d="M184.67,-61.34C200.72,-49.21 220.33,-34.39 232.5,-25.19"/>
<polygon fill="midnightblue" stroke="midnightblue" points="182.53,-58.57 176.66,-67.4 186.75,-64.16 182.53,-58.57"/>
</g>
<!-- Node1 -->
<g id="node2" class="node">
<title>Node1</title>
<polygon fill="white" stroke="#bfbfbf" points="81.5,-134.5 81.5,-153.5 234.5,-153.5 234.5,-134.5 81.5,-134.5"/>
<text text-anchor="middle" x="158" y="-141.5" font-family="Helvetica,sans-Serif" font-size="10.00">SimpleHTTPRequestHandler</text>
</g>
<!-- Node1&#45;&gt;Node0 -->
<g id="edge1" class="edge">
<title>Node1&#45;&gt;Node0</title>
<path fill="none" stroke="midnightblue" d="M158,-124.23C158,-115.59 158,-105.5 158,-97.52"/>
<polygon fill="midnightblue" stroke="midnightblue" points="154.5,-124.48 158,-134.48 161.5,-124.48 154.5,-124.48"/>
</g>
</g>
</svg>
