<?xml version="1.0" encoding="UTF-8" standalone="no"?>
<!DOCTYPE svg PUBLIC "-//W3C//DTD SVG 1.1//EN"
 "http://www.w3.org/Graphics/SVG/1.1/DTD/svg11.dtd">
<!-- Generated by graphviz version 2.43.0 (0)
 -->
<!-- Title: HttpInterface Pages: 1 -->
<svg width="364pt" height="712pt"
 viewBox="0.00 0.00 364.00 712.00" xmlns="http://www.w3.org/2000/svg" xmlns:xlink="http://www.w3.org/1999/xlink">
<g id="graph0" class="graph" transform="scale(1 1) rotate(0) translate(4 708)">
<title>HttpInterface</title>
<polygon fill="white" stroke="transparent" points="-4,4 -4,-708 360,-708 360,4 -4,4"/>
<!-- Node0 -->
<g id="node1" class="node">
<title>Node0</title>
<polygon fill="#bfbfbf" stroke="black" points="0,-342.5 0,-361.5 81,-361.5 81,-342.5 0,-342.5"/>
<text text-anchor="middle" x="40.5" y="-349.5" font-family="Helvetica,sans-Serif" font-size="10.00">HttpInterface</text>
</g>
<!-- Node1 -->
<g id="node2" class="node">
<title>Node1</title>
<g id="a_node2"><a xlink:href="class_http_client.html" target="_top" xlink:title="HttpClient">
<polygon fill="white" stroke="black" points="117,-361.5 117,-380.5 183,-380.5 183,-361.5 117,-361.5"/>
<text text-anchor="middle" x="150" y="-368.5" font-family="Helvetica,sans-Serif" font-size="10.00">HttpClient</text>
</a>
</g>
</g>
<!-- Node0&#45;&gt;Node1 -->
<g id="edge1" class="edge">
<title>Node0&#45;&gt;Node1</title>
<path fill="none" stroke="midnightblue" d="M91.29,-360.8C99.96,-362.33 108.77,-363.89 116.81,-365.31"/>
<polygon fill="midnightblue" stroke="midnightblue" points="91.68,-357.31 81.22,-359.02 90.46,-364.21 91.68,-357.31"/>
</g>
<!-- Node2 -->
<g id="node3" class="node">
<title>Node2</title>
<g id="a_node3"><a xlink:href="class_http_fake.html" target="_top" xlink:title="HttpFake">
<polygon fill="white" stroke="black" points="120,-323.5 120,-342.5 180,-342.5 180,-323.5 120,-323.5"/>
<text text-anchor="middle" x="150" y="-330.5" font-family="Helvetica,sans-Serif" font-size="10.00">HttpFake</text>
</a>
</g>
</g>
<!-- Node0&#45;&gt;Node2 -->
<g id="edge2" class="edge">
<title>Node0&#45;&gt;Node2</title>
<path fill="none" stroke="midnightblue" d="M91.3,-343.2C101.07,-341.47 111.03,-339.71 119.85,-338.15"/>
<polygon fill="midnightblue" stroke="midnightblue" points="90.46,-339.79 81.22,-344.98 91.68,-346.69 90.46,-339.79"/>
</g>
<!-- Node3 -->
<g id="node4" class="node">
<title>Node3</title>
<g id="a_node4"><a xlink:href="class_http_check_url.html" target="_top" xlink:title="HttpCheckUrl">
<polygon fill="white" stroke="black" points="246.5,-684.5 246.5,-703.5 328.5,-703.5 328.5,-684.5 246.5,-684.5"/>
<text text-anchor="middle" x="287.5" y="-691.5" font-family="Helvetica,sans-Serif" font-size="10.00">HttpCheckUrl</text>
</a>
</g>
</g>
<!-- Node2&#45;&gt;Node3 -->
<g id="edge3" class="edge">
<title>Node2&#45;&gt;Node3</title>
<path fill="none" stroke="midnightblue" d="M181.3,-349.67C181.91,-350.41 182.48,-351.19 183,-352 261.31,-473.37 125.54,-564.87 219,-675 225.93,-683.17 236.07,-687.97 246.4,-690.75"/>
<polygon fill="midnightblue" stroke="midnightblue" points="183.35,-346.8 173.57,-342.72 178.67,-352.01 183.35,-346.8"/>
</g>
<!-- Node4 -->
<g id="node5" class="node">
<title>Node4</title>
<g id="a_node5"><a xlink:href="class_http_custom_uri.html" target="_top" xlink:title="HttpCustomUri">
<polygon fill="white" stroke="black" points="243,-646.5 243,-665.5 332,-665.5 332,-646.5 243,-646.5"/>
<text text-anchor="middle" x="287.5" y="-653.5" font-family="Helvetica,sans-Serif" font-size="10.00">HttpCustomUri</text>
</a>
</g>
</g>
<!-- Node2&#45;&gt;Node4 -->
<g id="edge4" class="edge">
<title>Node2&#45;&gt;Node4</title>
<path fill="none" stroke="midnightblue" d="M180.96,-349.28C181.7,-350.15 182.38,-351.05 183,-352 253,-458.77 135.68,-540.26 219,-637 225.2,-644.19 233.88,-648.77 242.97,-651.65"/>
<polygon fill="midnightblue" stroke="midnightblue" points="183.04,-346.46 173.2,-342.53 178.44,-351.73 183.04,-346.46"/>
</g>
<!-- Node5 -->
<g id="node6" class="node">
<title>Node5</title>
<g id="a_node6"><a xlink:href="class_http_default_uri.html" target="_top" xlink:title="HttpDefaultUri">
<polygon fill="white" stroke="black" points="243.5,-608.5 243.5,-627.5 331.5,-627.5 331.5,-608.5 243.5,-608.5"/>
<text text-anchor="middle" x="287.5" y="-615.5" font-family="Helvetica,sans-Serif" font-size="10.00">HttpDefaultUri</text>
</a>
</g>
</g>
<!-- Node2&#45;&gt;Node5 -->
<g id="edge5" class="edge">
<title>Node2&#45;&gt;Node5</title>
<path fill="none" stroke="midnightblue" d="M180.93,-349.3C181.68,-350.16 182.37,-351.06 183,-352 244.71,-444.19 145.8,-515.64 219,-599 225.35,-606.23 234.2,-610.8 243.42,-613.68"/>
<polygon fill="midnightblue" stroke="midnightblue" points="183,-346.46 173.15,-342.56 178.42,-351.75 183,-346.46"/>
</g>
<!-- Node6 -->
<g id="node7" class="node">
<title>Node6</title>
<g id="a_node7"><a xlink:href="class_http_download_failure.html" target="_top" xlink:title="HttpDownloadFailure">
<polygon fill="white" stroke="black" points="228,-570.5 228,-589.5 347,-589.5 347,-570.5 228,-570.5"/>
<text text-anchor="middle" x="287.5" y="-577.5" font-family="Helvetica,sans-Serif" font-size="10.00">HttpDownloadFailure</text>
</a>
</g>
</g>
<!-- Node2&#45;&gt;Node6 -->
<g id="edge6" class="edge">
<title>Node2&#45;&gt;Node6</title>
<path fill="none" stroke="midnightblue" d="M180.9,-349.32C181.66,-350.18 182.36,-351.07 183,-352 236.44,-429.65 155.9,-490.98 219,-561 222.42,-564.8 226.54,-567.86 231.03,-570.33"/>
<polygon fill="midnightblue" stroke="midnightblue" points="182.94,-346.46 173.07,-342.61 178.39,-351.78 182.94,-346.46"/>
</g>
<!-- Node7 -->
<g id="node8" class="node">
<title>Node7</title>
<g id="a_node8"><a xlink:href="class_http_fake_campaign.html" target="_top" xlink:title="HttpFakeCampaign">
<polygon fill="white" stroke="black" points="232.5,-532.5 232.5,-551.5 342.5,-551.5 342.5,-532.5 232.5,-532.5"/>
<text text-anchor="middle" x="287.5" y="-539.5" font-family="Helvetica,sans-Serif" font-size="10.00">HttpFakeCampaign</text>
</a>
</g>
</g>
<!-- Node2&#45;&gt;Node7 -->
<g id="edge7" class="edge">
<title>Node2&#45;&gt;Node7</title>
<path fill="none" stroke="midnightblue" d="M180.86,-349.35C181.62,-350.2 182.34,-351.08 183,-352 228.21,-415.15 165.95,-466.28 219,-523 222.83,-527.09 227.46,-530.32 232.48,-532.88"/>
<polygon fill="midnightblue" stroke="midnightblue" points="182.86,-346.46 172.96,-342.69 178.35,-351.81 182.86,-346.46"/>
</g>
<!-- Node8 -->
<g id="node9" class="node">
<title>Node8</title>
<g id="a_node9"><a xlink:href="class_http_fake_delegation.html" target="_top" xlink:title="HttpFakeDelegation">
<polygon fill="white" stroke="black" points="231,-494.5 231,-513.5 344,-513.5 344,-494.5 231,-494.5"/>
<text text-anchor="middle" x="287.5" y="-501.5" font-family="Helvetica,sans-Serif" font-size="10.00">HttpFakeDelegation</text>
</a>
</g>
</g>
<!-- Node2&#45;&gt;Node8 -->
<g id="edge8" class="edge">
<title>Node2&#45;&gt;Node8</title>
<path fill="none" stroke="midnightblue" d="M180.42,-349.01C181.34,-349.96 182.21,-350.96 183,-352 220.04,-400.76 175.92,-441.48 219,-485 222.85,-488.89 227.44,-492 232.38,-494.49"/>
<polygon fill="midnightblue" stroke="midnightblue" points="182.45,-346.15 172.47,-342.6 178.05,-351.6 182.45,-346.15"/>
</g>
<!-- Node9 -->
<g id="node10" class="node">
<title>Node9</title>
<g id="a_node10"><a xlink:href="class_http_fake_event_counter.html" target="_top" xlink:title="HttpFakeEventCounter">
<polygon fill="white" stroke="black" points="224.5,-456.5 224.5,-475.5 350.5,-475.5 350.5,-456.5 224.5,-456.5"/>
<text text-anchor="middle" x="287.5" y="-463.5" font-family="Helvetica,sans-Serif" font-size="10.00">HttpFakeEventCounter</text>
</a>
</g>
</g>
<!-- Node2&#45;&gt;Node9 -->
<g id="edge9" class="edge">
<title>Node2&#45;&gt;Node9</title>
<path fill="none" stroke="midnightblue" d="M179.88,-348.72C180.99,-349.76 182.04,-350.86 183,-352 212.04,-386.57 185.7,-416.51 219,-447 223.22,-450.86 228.17,-453.95 233.43,-456.41"/>
<polygon fill="midnightblue" stroke="midnightblue" points="181.93,-345.89 171.86,-342.6 177.69,-351.45 181.93,-345.89"/>
</g>
<!-- Node10 -->
<g id="node11" class="node">
<title>Node10</title>
<g id="a_node11"><a xlink:href="class_http_fake_events.html" target="_top" xlink:title="HttpFakeEvents">
<polygon fill="white" stroke="black" points="241,-418.5 241,-437.5 334,-437.5 334,-418.5 241,-418.5"/>
<text text-anchor="middle" x="287.5" y="-425.5" font-family="Helvetica,sans-Serif" font-size="10.00">HttpFakeEvents</text>
</a>
</g>
</g>
<!-- Node2&#45;&gt;Node10 -->
<g id="edge10" class="edge">
<title>Node2&#45;&gt;Node10</title>
<path fill="none" stroke="midnightblue" d="M179.03,-348.51C180.43,-349.63 181.76,-350.79 183,-352 204.48,-372.89 194.98,-391.08 219,-409 225.44,-413.8 233.05,-417.39 240.79,-420.08"/>
<polygon fill="midnightblue" stroke="midnightblue" points="180.87,-345.52 170.66,-342.69 176.87,-351.27 180.87,-345.52"/>
</g>
<!-- Node11 -->
<g id="node12" class="node">
<title>Node11</title>
<g id="a_node12"><a xlink:href="class_http_fake_no_correlation_id.html" target="_top" xlink:title="HttpFakeNoCorrelationId">
<polygon fill="white" stroke="black" points="219,-380.5 219,-399.5 356,-399.5 356,-380.5 219,-380.5"/>
<text text-anchor="middle" x="287.5" y="-387.5" font-family="Helvetica,sans-Serif" font-size="10.00">HttpFakeNoCorrelationId</text>
</a>
</g>
</g>
<!-- Node2&#45;&gt;Node11 -->
<g id="edge11" class="edge">
<title>Node2&#45;&gt;Node11</title>
<path fill="none" stroke="midnightblue" d="M175.84,-347.69C191.54,-356.81 210.43,-367.46 219,-371 227.78,-374.63 237.47,-377.81 246.71,-380.48"/>
<polygon fill="midnightblue" stroke="midnightblue" points="177.46,-344.58 167.06,-342.55 173.93,-350.62 177.46,-344.58"/>
</g>
<!-- Node12 -->
<g id="node13" class="node">
<title>Node12</title>
<g id="a_node13"><a xlink:href="class_http_fake_pause_counter.html" target="_top" xlink:title="HttpFakePauseCounter">
<polygon fill="white" stroke="black" points="224,-342.5 224,-361.5 351,-361.5 351,-342.5 224,-342.5"/>
<text text-anchor="middle" x="287.5" y="-349.5" font-family="Helvetica,sans-Serif" font-size="10.00">HttpFakePauseCounter</text>
</a>
</g>
</g>
<!-- Node2&#45;&gt;Node12 -->
<g id="edge12" class="edge">
<title>Node2&#45;&gt;Node12</title>
<path fill="none" stroke="midnightblue" d="M190.16,-338.49C200.68,-339.97 212.33,-341.6 223.78,-343.21"/>
<polygon fill="midnightblue" stroke="midnightblue" points="190.46,-335 180.07,-337.08 189.49,-341.93 190.46,-335"/>
</g>
<!-- Node13 -->
<g id="node14" class="node">
<title>Node13</title>
<g id="a_node14"><a xlink:href="class_http_fake_prov.html" target="_top" xlink:title="Check that basic device info sent by aktualizr during provisioning matches our expectations. ">
<polygon fill="white" stroke="black" points="246.5,-304.5 246.5,-323.5 328.5,-323.5 328.5,-304.5 246.5,-304.5"/>
<text text-anchor="middle" x="287.5" y="-311.5" font-family="Helvetica,sans-Serif" font-size="10.00">HttpFakeProv</text>
</a>
</g>
</g>
<!-- Node2&#45;&gt;Node13 -->
<g id="edge13" class="edge">
<title>Node2&#45;&gt;Node13</title>
<path fill="none" stroke="midnightblue" d="M190.06,-327.52C207.75,-325.04 228.63,-322.12 246.43,-319.62"/>
<polygon fill="midnightblue" stroke="midnightblue" points="189.49,-324.07 180.07,-328.92 190.46,-331 189.49,-324.07"/>
</g>
<!-- Node14 -->
<g id="node15" class="node">
<title>Node14</title>
<g id="a_node15"><a xlink:href="class_http_fake_put_counter.html" target="_top" xlink:title="HttpFakePutCounter">
<polygon fill="white" stroke="black" points="230.5,-266.5 230.5,-285.5 344.5,-285.5 344.5,-266.5 230.5,-266.5"/>
<text text-anchor="middle" x="287.5" y="-273.5" font-family="Helvetica,sans-Serif" font-size="10.00">HttpFakePutCounter</text>
</a>
</g>
</g>
<!-- Node2&#45;&gt;Node14 -->
<g id="edge14" class="edge">
<title>Node2&#45;&gt;Node14</title>
<path fill="none" stroke="midnightblue" d="M174.26,-318.2C187.08,-310.51 203.51,-301.4 219,-295 227.78,-291.37 237.47,-288.19 246.71,-285.52"/>
<polygon fill="midnightblue" stroke="midnightblue" points="172.31,-315.29 165.62,-323.5 175.97,-321.26 172.31,-315.29"/>
</g>
<!-- Node15 -->
<g id="node16" class="node">
<title>Node15</title>
<g id="a_node16"><a xlink:href="class_http_fake_rq.html" target="_top" xlink:title="HttpFakeRq">
<polygon fill="white" stroke="black" points="251,-228.5 251,-247.5 324,-247.5 324,-228.5 251,-228.5"/>
<text text-anchor="middle" x="287.5" y="-235.5" font-family="Helvetica,sans-Serif" font-size="10.00">HttpFakeRq</text>
</a>
</g>
</g>
<!-- Node2&#45;&gt;Node15 -->
<g id="edge15" class="edge">
<title>Node2&#45;&gt;Node15</title>
<path fill="none" stroke="midnightblue" d="M162.69,-314.83C174.76,-297.49 195.17,-271.86 219,-257 228.61,-251.01 240.14,-246.86 250.94,-244.01"/>
<polygon fill="midnightblue" stroke="midnightblue" points="159.54,-313.24 156.87,-323.49 165.35,-317.14 159.54,-313.24"/>
</g>
<!-- Node16 -->
<g id="node17" class="node">
<title>Node16</title>
<g id="a_node17"><a xlink:href="class_http_fake_split.html" target="_top" xlink:title="HttpFakeSplit">
<polygon fill="white" stroke="black" points="246.5,-190.5 246.5,-209.5 328.5,-209.5 328.5,-190.5 246.5,-190.5"/>
<text text-anchor="middle" x="287.5" y="-197.5" font-family="Helvetica,sans-Serif" font-size="10.00">HttpFakeSplit</text>
</a>
</g>
</g>
<!-- Node2&#45;&gt;Node16 -->
<g id="edge16" class="edge">
<title>Node2&#45;&gt;Node16</title>
<path fill="none" stroke="midnightblue" d="M157.36,-313.73C166.76,-288.23 186.82,-243.65 219,-219 226.92,-212.93 236.7,-208.8 246.32,-205.99"/>
<polygon fill="midnightblue" stroke="midnightblue" points="153.98,-312.78 153.98,-323.38 160.59,-315.1 153.98,-312.78"/>
</g>
<!-- Node17 -->
<g id="node18" class="node">
<title>Node17</title>
<g id="a_node18"><a xlink:href="class_http_fake_unstable.html" target="_top" xlink:title="HttpFakeUnstable">
<polygon fill="white" stroke="black" points="235.5,-152.5 235.5,-171.5 339.5,-171.5 339.5,-152.5 235.5,-152.5"/>
<text text-anchor="middle" x="287.5" y="-159.5" font-family="Helvetica,sans-Serif" font-size="10.00">HttpFakeUnstable</text>
</a>
</g>
</g>
<!-- Node2&#45;&gt;Node17 -->
<g id="edge17" class="edge">
<title>Node2&#45;&gt;Node17</title>
<path fill="none" stroke="midnightblue" d="M154.34,-313.04C160.83,-280.5 178.29,-216.15 219,-181 223.79,-176.86 229.42,-173.62 235.35,-171.08"/>
<polygon fill="midnightblue" stroke="midnightblue" points="150.85,-312.65 152.48,-323.12 157.73,-313.92 150.85,-312.65"/>
</g>
<!-- Node18 -->
<g id="node19" class="node">
<title>Node18</title>
<g id="a_node19"><a xlink:href="class_http_put_manifest_fail.html" target="_top" xlink:title="HttpPutManifestFail">
<polygon fill="white" stroke="black" points="231.5,-114.5 231.5,-133.5 343.5,-133.5 343.5,-114.5 231.5,-114.5"/>
<text text-anchor="middle" x="287.5" y="-121.5" font-family="Helvetica,sans-Serif" font-size="10.00">HttpPutManifestFail</text>
</a>
</g>
</g>
<!-- Node2&#45;&gt;Node18 -->
<g id="edge18" class="edge">
<title>Node2&#45;&gt;Node18</title>
<path fill="none" stroke="midnightblue" d="M151.89,-313.08C154.83,-272.67 167.25,-182.28 219,-134 222.65,-130.59 226.86,-127.79 231.36,-125.53"/>
<polygon fill="midnightblue" stroke="midnightblue" points="148.4,-312.88 151.29,-323.07 155.39,-313.3 148.4,-312.88"/>
</g>
<!-- Node2&#45;&gt;Node18 -->
<g id="edge19" class="edge">
<title>Node2&#45;&gt;Node18</title>
<path fill="none" stroke="midnightblue" d="M152.86,-312.99C157.22,-275.64 171.64,-196.19 219,-152 230.22,-141.54 246.74,-136.77 260.64,-133.55"/>
<polygon fill="midnightblue" stroke="midnightblue" points="149.36,-312.84 151.81,-323.15 156.32,-313.56 149.36,-312.84"/>
</g>
<!-- Node19 -->
<g id="node20" class="node">
<title>Node19</title>
<g id="a_node20"><a xlink:href="class_http_reject_empty_corr_id.html" target="_top" xlink:title="HttpRejectEmptyCorrId">
<polygon fill="white" stroke="black" points="223.5,-76.5 223.5,-95.5 351.5,-95.5 351.5,-76.5 223.5,-76.5"/>
<text text-anchor="middle" x="287.5" y="-83.5" font-family="Helvetica,sans-Serif" font-size="10.00">HttpRejectEmptyCorrId</text>
</a>
</g>
</g>
<!-- Node2&#45;&gt;Node19 -->
<g id="edge20" class="edge">
<title>Node2&#45;&gt;Node19</title>
<path fill="none" stroke="midnightblue" d="M150.89,-313.11C151.77,-269.12 160.25,-162.85 219,-105 222.9,-101.16 227.52,-98.08 232.48,-95.61"/>
<polygon fill="midnightblue" stroke="midnightblue" points="147.39,-313.09 150.81,-323.12 154.39,-313.15 147.39,-313.09"/>
</g>
<!-- Node20 -->
<g id="node21" class="node">
<title>Node20</title>
<g id="a_node21"><a xlink:href="class_http_unstable.html" target="_top" xlink:title="HttpUnstable">
<polygon fill="white" stroke="black" points="247,-38.5 247,-57.5 328,-57.5 328,-38.5 247,-38.5"/>
<text text-anchor="middle" x="287.5" y="-45.5" font-family="Helvetica,sans-Serif" font-size="10.00">HttpUnstable</text>
</a>
</g>
</g>
<!-- Node2&#45;&gt;Node20 -->
<g id="edge21" class="edge">
<title>Node2&#45;&gt;Node20</title>
<path fill="none" stroke="midnightblue" d="M153.5,-313.1C160.87,-257.57 184.18,-102.66 219,-67 226.4,-59.42 236.56,-54.8 246.76,-52"/>
<polygon fill="midnightblue" stroke="midnightblue" points="149.99,-312.99 152.17,-323.36 156.93,-313.89 149.99,-312.99"/>
</g>
<!-- Node21 -->
<g id="node22" class="node">
<title>Node21</title>
<g id="a_node22"><a xlink:href="class_http_zero_length.html" target="_top" xlink:title="HttpZeroLength">
<polygon fill="white" stroke="black" points="241,-0.5 241,-19.5 334,-19.5 334,-0.5 241,-0.5"/>
<text text-anchor="middle" x="287.5" y="-7.5" font-family="Helvetica,sans-Serif" font-size="10.00">HttpZeroLength</text>
</a>
</g>
</g>
<!-- Node2&#45;&gt;Node21 -->
<g id="edge22" class="edge">
<title>Node2&#45;&gt;Node21</title>
<path fill="none" stroke="midnightblue" d="M152.82,-313.11C158.75,-252.33 179.52,-70.68 219,-29 224.86,-22.81 232.56,-18.59 240.66,-15.72"/>
<polygon fill="midnightblue" stroke="midnightblue" points="149.31,-313 151.85,-323.28 156.28,-313.66 149.31,-313"/>
</g>
</g>
</svg>
