<?xml version="1.0" encoding="UTF-8" standalone="no"?>
<!DOCTYPE svg PUBLIC "-//W3C//DTD SVG 1.1//EN"
 "http://www.w3.org/Graphics/SVG/1.1/DTD/svg11.dtd">
<!-- Generated by graphviz version 2.43.0 (0)
 -->
<!-- Title: Uptane::DelegationHashMismatch Pages: 1 -->
<svg width="191pt" height="196pt"
 viewBox="0.00 0.00 191.00 196.00" xmlns="http://www.w3.org/2000/svg" xmlns:xlink="http://www.w3.org/1999/xlink">
<g id="graph0" class="graph" transform="scale(1 1) rotate(0) translate(4 192)">
<title>Uptane::DelegationHashMismatch</title>
<polygon fill="white" stroke="transparent" points="-4,4 -4,-192 187,-192 187,4 -4,4"/>
<!-- Node0 -->
<g id="node1" class="node">
<title>Node0</title>
<polygon fill="#bfbfbf" stroke="black" points="0,-0.5 0,-19.5 183,-19.5 183,-0.5 0,-0.5"/>
<text text-anchor="middle" x="91.5" y="-7.5" font-family="Helvetica,sans-Serif" font-size="10.00">Uptane::DelegationHashMismatch</text>
</g>
<!-- Node1 -->
<g id="node2" class="node">
<title>Node1</title>
<g id="a_node2"><a xlink:href="class_uptane_1_1_exception.html" target="_top" xlink:title="Uptane::Exception">
<polygon fill="white" stroke="black" points="38.5,-56.5 38.5,-75.5 144.5,-75.5 144.5,-56.5 38.5,-56.5"/>
<text text-anchor="middle" x="91.5" y="-63.5" font-family="Helvetica,sans-Serif" font-size="10.00">Uptane::Exception</text>
</a>
</g>
</g>
<!-- Node1&#45;&gt;Node0 -->
<g id="edge1" class="edge">
<title>Node1&#45;&gt;Node0</title>
<path fill="none" stroke="midnightblue" d="M91.5,-45.8C91.5,-36.91 91.5,-26.78 91.5,-19.75"/>
<polygon fill="midnightblue" stroke="midnightblue" points="88,-46.08 91.5,-56.08 95,-46.08 88,-46.08"/>
</g>
<!-- Node2 -->
<g id="node3" class="node">
<title>Node2</title>
<g id="a_node3"><a xlink:title="STL class. ">
<polygon fill="white" stroke="#bfbfbf" points="47,-112.5 47,-131.5 136,-131.5 136,-112.5 47,-112.5"/>
<text text-anchor="middle" x="91.5" y="-119.5" font-family="Helvetica,sans-Serif" font-size="10.00">std::logic_error</text>
</a>
</g>
</g>
<!-- Node2&#45;&gt;Node1 -->
<g id="edge2" class="edge">
<title>Node2&#45;&gt;Node1</title>
<path fill="none" stroke="midnightblue" d="M91.5,-101.8C91.5,-92.91 91.5,-82.78 91.5,-75.75"/>
<polygon fill="midnightblue" stroke="midnightblue" points="88,-102.08 91.5,-112.08 95,-102.08 88,-102.08"/>
</g>
<!-- Node3 -->
<g id="node4" class="node">
<title>Node3</title>
<g id="a_node4"><a xlink:title="STL class. ">
<polygon fill="white" stroke="#bfbfbf" points="48.5,-168.5 48.5,-187.5 134.5,-187.5 134.5,-168.5 48.5,-168.5"/>
<text text-anchor="middle" x="91.5" y="-175.5" font-family="Helvetica,sans-Serif" font-size="10.00">std::exception</text>
</a>
</g>
</g>
<!-- Node3&#45;&gt;Node2 -->
<g id="edge3" class="edge">
<title>Node3&#45;&gt;Node2</title>
<path fill="none" stroke="midnightblue" d="M91.5,-157.8C91.5,-148.91 91.5,-138.78 91.5,-131.75"/>
<polygon fill="midnightblue" stroke="midnightblue" points="88,-158.08 91.5,-168.08 95,-158.08 88,-158.08"/>
</g>
</g>
</svg>
