<?xml version="1.0" encoding="UTF-8" standalone="no"?>
<!DOCTYPE svg PUBLIC "-//W3C//DTD SVG 1.1//EN"
 "http://www.w3.org/Graphics/SVG/1.1/DTD/svg11.dtd">
<!-- Generated by graphviz version 2.43.0 (0)
 -->
<!-- Title: src/libaktualizr/package_manager Pages: 1 -->
<svg width="146pt" height="151pt"
 viewBox="0.00 0.00 146.00 151.00" xmlns="http://www.w3.org/2000/svg" xmlns:xlink="http://www.w3.org/1999/xlink">
<g id="graph0" class="graph" transform="scale(1 1) rotate(0) translate(4 147)">
<title>src/libaktualizr/package_manager</title>
<polygon fill="white" stroke="transparent" points="-4,4 -4,-147 142,-147 142,4 -4,4"/>
<g id="clust1" class="cluster">
<title>clusterdir_25fe10002fe19a6f872ae0406361d164</title>
<g id="a_clust1"><a xlink:href="dir_25fe10002fe19a6f872ae0406361d164.html" target="_top" xlink:title="libaktualizr">
<polygon fill="#ddddee" stroke="black" points="8,-64 8,-135 130,-135 130,-64 8,-64"/>
<text text-anchor="middle" x="69" y="-123" font-family="Helvetica,sans-Serif" font-size="10.00">libaktualizr</text>
</a>
</g>
</g>
<!-- dir_188ad9b20b5803d1e0842e8b7679686b -->
<g id="node1" class="node">
<title>dir_188ad9b20b5803d1e0842e8b7679686b</title>
<g id="a_node1"><a xlink:href="dir_188ad9b20b5803d1e0842e8b7679686b.html" target="_top" xlink:title="package_manager">
<polygon fill="#eeeeff" stroke="black" points="122.5,-108 15.5,-108 15.5,-72 122.5,-72 122.5,-108"/>
<text text-anchor="middle" x="69" y="-87.5" font-family="Helvetica,sans-Serif" font-size="10.00">package_manager</text>
</a>
</g>
</g>
<!-- dir_21695240ac6697d59c3c2f5e3a3e7e03 -->
<g id="node2" class="node">
<title>dir_21695240ac6697d59c3c2f5e3a3e7e03</title>
<g id="a_node2"><a xlink:href="dir_21695240ac6697d59c3c2f5e3a3e7e03.html" target="_top" xlink:title="utilities">
<polygon fill="none" stroke="black" points="96,-36 42,-36 42,0 96,0 96,-36"/>
<text text-anchor="middle" x="69" y="-15.5" font-family="Helvetica,sans-Serif" font-size="10.00">utilities</text>
</a>
</g>
</g>
<!-- dir_188ad9b20b5803d1e0842e8b7679686b&#45;&gt;dir_21695240ac6697d59c3c2f5e3a3e7e03 -->
<g id="edge1" class="edge">
<title>dir_188ad9b20b5803d1e0842e8b7679686b&#45;&gt;dir_21695240ac6697d59c3c2f5e3a3e7e03</title>
<path fill="none" stroke="black" d="M69,-71.7C69,-63.98 69,-54.71 69,-46.11"/>
<polygon fill="black" stroke="black" points="72.5,-46.1 69,-36.1 65.5,-46.1 72.5,-46.1"/>
<g id="a_edge1&#45;headlabel"><a xlink:href="dir_000022_000025.html" target="_top" xlink:title="3">
<text text-anchor="middle" x="75.34" y="-47.2" font-family="Helvetica,sans-Serif" font-size="10.00">3</text>
</a>
</g>
</g>
</g>
</svg>
