<?xml version="1.0" encoding="UTF-8" standalone="no"?>
<!DOCTYPE svg PUBLIC "-//W3C//DTD SVG 1.1//EN"
 "http://www.w3.org/Graphics/SVG/1.1/DTD/svg11.dtd">
<!-- Generated by graphviz version 2.43.0 (0)
 -->
<!-- Title: src/load_tests Pages: 1 -->
<svg width="108pt" height="151pt"
 viewBox="0.00 0.00 108.00 151.00" xmlns="http://www.w3.org/2000/svg" xmlns:xlink="http://www.w3.org/1999/xlink">
<g id="graph0" class="graph" transform="scale(1 1) rotate(0) translate(4 147)">
<title>src/load_tests</title>
<polygon fill="white" stroke="transparent" points="-4,4 -4,-147 104,-147 104,4 -4,4"/>
<g id="clust1" class="cluster">
<title>clusterdir_68267d1309a1af8e8297ef4c3efbcdba</title>
<g id="a_clust1"><a xlink:href="dir_68267d1309a1af8e8297ef4c3efbcdba.html" target="_top" xlink:title="src">
<polygon fill="#ddddee" stroke="black" points="8,-64 8,-135 92,-135 92,-64 8,-64"/>
<text text-anchor="middle" x="50" y="-123" font-family="Helvetica,sans-Serif" font-size="10.00">src</text>
</a>
</g>
</g>
<!-- dir_32bfa720d5faedcc76f8e32c775d43dc -->
<g id="node1" class="node">
<title>dir_32bfa720d5faedcc76f8e32c775d43dc</title>
<g id="a_node1"><a xlink:href="dir_32bfa720d5faedcc76f8e32c775d43dc.html" target="_top" xlink:title="load_tests">
<polygon fill="#eeeeff" stroke="black" points="83.5,-108 16.5,-108 16.5,-72 83.5,-72 83.5,-108"/>
<text text-anchor="middle" x="50" y="-87.5" font-family="Helvetica,sans-Serif" font-size="10.00">load_tests</text>
</a>
</g>
</g>
<!-- dir_25fe10002fe19a6f872ae0406361d164 -->
<g id="node2" class="node">
<title>dir_25fe10002fe19a6f872ae0406361d164</title>
<g id="a_node2"><a xlink:href="dir_25fe10002fe19a6f872ae0406361d164.html" target="_top" xlink:title="libaktualizr">
<polygon fill="white" stroke="red" points="85.5,-36 14.5,-36 14.5,0 85.5,0 85.5,-36"/>
<text text-anchor="middle" x="50" y="-15.5" font-family="Helvetica,sans-Serif" font-size="10.00">libaktualizr</text>
</a>
</g>
</g>
<!-- dir_32bfa720d5faedcc76f8e32c775d43dc&#45;&gt;dir_25fe10002fe19a6f872ae0406361d164 -->
<g id="edge1" class="edge">
<title>dir_32bfa720d5faedcc76f8e32c775d43dc&#45;&gt;dir_25fe10002fe19a6f872ae0406361d164</title>
<path fill="none" stroke="black" d="M50,-71.7C50,-63.98 50,-54.71 50,-46.11"/>
<polygon fill="black" stroke="black" points="53.5,-46.1 50,-36.1 46.5,-46.1 53.5,-46.1"/>
<g id="a_edge1&#45;headlabel"><a xlink:href="dir_000007_000009.html" target="_top" xlink:title="2">
<text text-anchor="middle" x="56.34" y="-47.2" font-family="Helvetica,sans-Serif" font-size="10.00">2</text>
</a>
</g>
</g>
</g>
</svg>
