<?xml version="1.0" encoding="UTF-8" standalone="no"?>
<!DOCTYPE svg PUBLIC "-//W3C//DTD SVG 1.1//EN"
 "http://www.w3.org/Graphics/SVG/1.1/DTD/svg11.dtd">
<!-- Generated by graphviz version 2.43.0 (0)
 -->
<!-- Title: Graphical Class Hierarchy Pages: 1 -->
<svg width="530pt" height="268pt"
 viewBox="0.00 0.00 530.00 267.50" xmlns="http://www.w3.org/2000/svg" xmlns:xlink="http://www.w3.org/1999/xlink">
<g id="graph0" class="graph" transform="scale(1 1) rotate(0) translate(4 263.5)">
<title>Graphical Class Hierarchy</title>
<polygon fill="white" stroke="transparent" points="-4,4 -4,-263.5 526,-263.5 526,4 -4,4"/>
<!-- Node0 -->
<g id="node1" class="node">
<title>Node0</title>
<g id="a_node1"><a xlink:href="class_uptane_1_1_secondary_interface.html" target="_top" xlink:title="Uptane::SecondaryInterface">
<polygon fill="white" stroke="black" points="0,-126 0,-145 152,-145 152,-126 0,-126"/>
<text text-anchor="middle" x="76" y="-133" font-family="Helvetica,sans-Serif" font-size="10.00">Uptane::SecondaryInterface</text>
</a>
</g>
</g>
<!-- Node1 -->
<g id="node2" class="node">
<title>Node1</title>
<g id="a_node2"><a xlink:href="class_primary_1_1_managed_secondary.html" target="_top" xlink:title="Primary::ManagedSecondary">
<polygon fill="white" stroke="black" points="188,-240 188,-259 343,-259 343,-240 188,-240"/>
<text text-anchor="middle" x="265.5" y="-247" font-family="Helvetica,sans-Serif" font-size="10.00">Primary::ManagedSecondary</text>
</a>
</g>
</g>
<!-- Node0&#45;&gt;Node1 -->
<g id="edge1" class="edge">
<title>Node0&#45;&gt;Node1</title>
<path fill="none" stroke="midnightblue" d="M92.17,-152.68C112.05,-174.12 149.01,-210.42 188,-230.5 195.54,-234.39 203.92,-237.5 212.28,-240"/>
<polygon fill="midnightblue" stroke="midnightblue" points="94.73,-150.3 85.41,-145.25 89.55,-155.01 94.73,-150.3"/>
</g>
<!-- Node3 -->
<g id="node4" class="node">
<title>Node3</title>
<g id="a_node4"><a xlink:href="class_secondary_adapter.html" target="_top" xlink:title="SecondaryAdapter">
<polygon fill="white" stroke="black" points="212.5,-202 212.5,-221 318.5,-221 318.5,-202 212.5,-202"/>
<text text-anchor="middle" x="265.5" y="-209" font-family="Helvetica,sans-Serif" font-size="10.00">SecondaryAdapter</text>
</a>
</g>
</g>
<!-- Node0&#45;&gt;Node3 -->
<g id="edge3" class="edge">
<title>Node0&#45;&gt;Node3</title>
<path fill="none" stroke="midnightblue" d="M101.32,-150.07C123.33,-162.74 156.94,-180.85 188,-192.5 197.74,-196.15 208.44,-199.31 218.67,-201.95"/>
<polygon fill="midnightblue" stroke="midnightblue" points="103.05,-147.03 92.65,-145.01 99.52,-153.07 103.05,-147.03"/>
</g>
<!-- Node4 -->
<g id="node5" class="node">
<title>Node4</title>
<g id="a_node5"><a xlink:href="class_secondary_interface_mock.html" target="_top" xlink:title="SecondaryInterfaceMock">
<polygon fill="white" stroke="black" points="197,-164 197,-183 334,-183 334,-164 197,-164"/>
<text text-anchor="middle" x="265.5" y="-171" font-family="Helvetica,sans-Serif" font-size="10.00">SecondaryInterfaceMock</text>
</a>
</g>
</g>
<!-- Node0&#45;&gt;Node4 -->
<g id="edge4" class="edge">
<title>Node0&#45;&gt;Node4</title>
<path fill="none" stroke="midnightblue" d="M134.28,-147.11C160.95,-152.51 192.28,-158.86 217.53,-163.98"/>
<polygon fill="midnightblue" stroke="midnightblue" points="134.81,-143.65 124.31,-145.09 133.42,-150.51 134.81,-143.65"/>
</g>
<!-- Node5 -->
<g id="node6" class="node">
<title>Node5</title>
<g id="a_node6"><a xlink:href="class_short_circuit_secondary.html" target="_top" xlink:title="ShortCircuitSecondary">
<polygon fill="white" stroke="black" points="203,-126 203,-145 328,-145 328,-126 203,-126"/>
<text text-anchor="middle" x="265.5" y="-133" font-family="Helvetica,sans-Serif" font-size="10.00">ShortCircuitSecondary</text>
</a>
</g>
</g>
<!-- Node0&#45;&gt;Node5 -->
<g id="edge5" class="edge">
<title>Node0&#45;&gt;Node5</title>
<path fill="none" stroke="midnightblue" d="M162.51,-135.5C176.1,-135.5 189.92,-135.5 202.82,-135.5"/>
<polygon fill="midnightblue" stroke="midnightblue" points="162.18,-132 152.18,-135.5 162.18,-139 162.18,-132"/>
</g>
<!-- Node6 -->
<g id="node7" class="node">
<title>Node6</title>
<g id="a_node7"><a xlink:href="class_uptane_1_1_ip_uptane_secondary.html" target="_top" xlink:title="Uptane::IpUptaneSecondary">
<polygon fill="white" stroke="black" points="189,-88 189,-107 342,-107 342,-88 189,-88"/>
<text text-anchor="middle" x="265.5" y="-95" font-family="Helvetica,sans-Serif" font-size="10.00">Uptane::IpUptaneSecondary</text>
</a>
</g>
</g>
<!-- Node0&#45;&gt;Node6 -->
<g id="edge6" class="edge">
<title>Node0&#45;&gt;Node6</title>
<path fill="none" stroke="midnightblue" d="M134.28,-123.89C160.95,-118.49 192.28,-112.14 217.53,-107.02"/>
<polygon fill="midnightblue" stroke="midnightblue" points="133.42,-120.49 124.31,-125.91 134.81,-127.35 133.42,-120.49"/>
</g>
<!-- Node7 -->
<g id="node8" class="node">
<title>Node7</title>
<g id="a_node8"><a xlink:href="class_uptane_1_1_iso_tp_secondary.html" target="_top" xlink:title="Uptane::IsoTpSecondary">
<polygon fill="white" stroke="black" points="198,-50 198,-69 333,-69 333,-50 198,-50"/>
<text text-anchor="middle" x="265.5" y="-57" font-family="Helvetica,sans-Serif" font-size="10.00">Uptane::IsoTpSecondary</text>
</a>
</g>
</g>
<!-- Node0&#45;&gt;Node7 -->
<g id="edge7" class="edge">
<title>Node0&#45;&gt;Node7</title>
<path fill="none" stroke="midnightblue" d="M101.32,-120.93C123.33,-108.26 156.94,-90.15 188,-78.5 197.74,-74.85 208.44,-71.69 218.67,-69.05"/>
<polygon fill="midnightblue" stroke="midnightblue" points="99.52,-117.93 92.65,-125.99 103.05,-123.97 99.52,-117.93"/>
</g>
<!-- Node8 -->
<g id="node9" class="node">
<title>Node8</title>
<g id="a_node9"><a xlink:href="class_uptane_1_1_partial_verification_secondary.html" target="_top" xlink:title="Uptane::PartialVerification\lSecondary">
<polygon fill="white" stroke="black" points="194,-0.5 194,-30.5 337,-30.5 337,-0.5 194,-0.5"/>
<text text-anchor="start" x="202" y="-18.5" font-family="Helvetica,sans-Serif" font-size="10.00">Uptane::PartialVerification</text>
<text text-anchor="middle" x="265.5" y="-7.5" font-family="Helvetica,sans-Serif" font-size="10.00">Secondary</text>
</a>
</g>
</g>
<!-- Node0&#45;&gt;Node8 -->
<g id="edge8" class="edge">
<title>Node0&#45;&gt;Node8</title>
<path fill="none" stroke="midnightblue" d="M92.72,-118.44C112.92,-97.42 149.96,-61.87 188,-40.5 194.7,-36.74 202.05,-33.44 209.47,-30.57"/>
<polygon fill="midnightblue" stroke="midnightblue" points="90.16,-116.05 85.83,-125.72 95.24,-120.86 90.16,-116.05"/>
</g>
<!-- Node2 -->
<g id="node3" class="node">
<title>Node2</title>
<g id="a_node3"><a xlink:href="class_primary_1_1_virtual_secondary.html" target="_top" xlink:title="Primary::VirtualSecondary">
<polygon fill="white" stroke="black" points="379,-240 379,-259 522,-259 522,-240 379,-240"/>
<text text-anchor="middle" x="450.5" y="-247" font-family="Helvetica,sans-Serif" font-size="10.00">Primary::VirtualSecondary</text>
</a>
</g>
</g>
<!-- Node1&#45;&gt;Node2 -->
<g id="edge2" class="edge">
<title>Node1&#45;&gt;Node2</title>
<path fill="none" stroke="midnightblue" d="M353.11,-249.5C361.72,-249.5 370.39,-249.5 378.81,-249.5"/>
<polygon fill="midnightblue" stroke="midnightblue" points="353.05,-246 343.05,-249.5 353.05,-253 353.05,-246"/>
</g>
</g>
</svg>
