<?xml version="1.0" encoding="UTF-8" standalone="no"?>
<!DOCTYPE svg PUBLIC "-//W3C//DTD SVG 1.1//EN"
 "http://www.w3.org/Graphics/SVG/1.1/DTD/svg11.dtd">
<!-- Generated by graphviz version 2.43.0 (0)
 -->
<!-- Title: Graphical Class Hierarchy Pages: 1 -->
<svg width="270pt" height="66pt"
 viewBox="0.00 0.00 270.00 66.00" xmlns="http://www.w3.org/2000/svg" xmlns:xlink="http://www.w3.org/1999/xlink">
<g id="graph0" class="graph" transform="scale(1 1) rotate(0) translate(4 62)">
<title>Graphical Class Hierarchy</title>
<polygon fill="white" stroke="transparent" points="-4,4 -4,-62 266,-62 266,4 -4,4"/>
<!-- Node0 -->
<g id="node1" class="node">
<title>Node0</title>
<g id="a_node1"><a xlink:href="class_multi_part_hasher.html" target="_top" xlink:title="MultiPartHasher">
<polygon fill="white" stroke="black" points="0,-19.5 0,-38.5 94,-38.5 94,-19.5 0,-19.5"/>
<text text-anchor="middle" x="47" y="-26.5" font-family="Helvetica,sans-Serif" font-size="10.00">MultiPartHasher</text>
</a>
</g>
</g>
<!-- Node1 -->
<g id="node2" class="node">
<title>Node1</title>
<g id="a_node2"><a xlink:href="class_multi_part_s_h_a256_hasher.html" target="_top" xlink:title="MultiPartSHA256Hasher">
<polygon fill="white" stroke="black" points="130,-38.5 130,-57.5 262,-57.5 262,-38.5 130,-38.5"/>
<text text-anchor="middle" x="196" y="-45.5" font-family="Helvetica,sans-Serif" font-size="10.00">MultiPartSHA256Hasher</text>
</a>
</g>
</g>
<!-- Node0&#45;&gt;Node1 -->
<g id="edge1" class="edge">
<title>Node0&#45;&gt;Node1</title>
<path fill="none" stroke="midnightblue" d="M104.19,-36.26C112.61,-37.35 121.35,-38.48 129.94,-39.59"/>
<polygon fill="midnightblue" stroke="midnightblue" points="104.47,-32.77 94.11,-34.96 103.58,-39.71 104.47,-32.77"/>
</g>
<!-- Node2 -->
<g id="node3" class="node">
<title>Node2</title>
<g id="a_node3"><a xlink:href="class_multi_part_s_h_a512_hasher.html" target="_top" xlink:title="MultiPartSHA512Hasher">
<polygon fill="white" stroke="black" points="130,-0.5 130,-19.5 262,-19.5 262,-0.5 130,-0.5"/>
<text text-anchor="middle" x="196" y="-7.5" font-family="Helvetica,sans-Serif" font-size="10.00">MultiPartSHA512Hasher</text>
</a>
</g>
</g>
<!-- Node0&#45;&gt;Node2 -->
<g id="edge2" class="edge">
<title>Node0&#45;&gt;Node2</title>
<path fill="none" stroke="midnightblue" d="M104.19,-21.74C112.61,-20.65 121.35,-19.52 129.94,-18.41"/>
<polygon fill="midnightblue" stroke="midnightblue" points="103.58,-18.29 94.11,-23.04 104.47,-25.23 103.58,-18.29"/>
</g>
</g>
</svg>
