<?xml version="1.0" encoding="UTF-8" standalone="no"?>
<!DOCTYPE svg PUBLIC "-//W3C//DTD SVG 1.1//EN"
 "http://www.w3.org/Graphics/SVG/1.1/DTD/svg11.dtd">
<!-- Generated by graphviz version 2.43.0 (0)
 -->
<!-- Title: Graphical Class Hierarchy Pages: 1 -->
<svg width="416pt" height="123pt"
 viewBox="0.00 0.00 416.00 123.00" xmlns="http://www.w3.org/2000/svg" xmlns:xlink="http://www.w3.org/1999/xlink">
<g id="graph0" class="graph" transform="scale(1 1) rotate(0) translate(4 119)">
<title>Graphical Class Hierarchy</title>
<polygon fill="white" stroke="transparent" points="-4,4 -4,-119 412,-119 412,4 -4,4"/>
<!-- Node0 -->
<g id="node1" class="node">
<title>Node0</title>
<g id="a_node1"><a xlink:href="class_uptane_1_1_base_meta.html" target="_top" xlink:title="Uptane::BaseMeta">
<polygon fill="white" stroke="black" points="0,-38.5 0,-57.5 106,-57.5 106,-38.5 0,-38.5"/>
<text text-anchor="middle" x="53" y="-45.5" font-family="Helvetica,sans-Serif" font-size="10.00">Uptane::BaseMeta</text>
</a>
</g>
</g>
<!-- Node1 -->
<g id="node2" class="node">
<title>Node1</title>
<g id="a_node2"><a xlink:href="class_uptane_1_1_meta_with_keys.html" target="_top" xlink:title="Uptane::MetaWithKeys">
<polygon fill="white" stroke="black" points="146.5,-76.5 146.5,-95.5 274.5,-95.5 274.5,-76.5 146.5,-76.5"/>
<text text-anchor="middle" x="210.5" y="-83.5" font-family="Helvetica,sans-Serif" font-size="10.00">Uptane::MetaWithKeys</text>
</a>
</g>
</g>
<!-- Node0&#45;&gt;Node1 -->
<g id="edge1" class="edge">
<title>Node0&#45;&gt;Node1</title>
<path fill="none" stroke="midnightblue" d="M102.97,-59.97C124.77,-65.29 150.07,-71.48 170.54,-76.48"/>
<polygon fill="midnightblue" stroke="midnightblue" points="103.78,-56.56 93.24,-57.59 102.12,-63.36 103.78,-56.56"/>
</g>
<!-- Node4 -->
<g id="node5" class="node">
<title>Node4</title>
<g id="a_node5"><a xlink:href="class_uptane_1_1_snapshot.html" target="_top" xlink:title="Uptane::Snapshot">
<polygon fill="white" stroke="black" points="159,-38.5 159,-57.5 262,-57.5 262,-38.5 159,-38.5"/>
<text text-anchor="middle" x="210.5" y="-45.5" font-family="Helvetica,sans-Serif" font-size="10.00">Uptane::Snapshot</text>
</a>
</g>
</g>
<!-- Node0&#45;&gt;Node4 -->
<g id="edge4" class="edge">
<title>Node0&#45;&gt;Node4</title>
<path fill="none" stroke="midnightblue" d="M116.32,-48C130.41,-48 145.2,-48 158.74,-48"/>
<polygon fill="midnightblue" stroke="midnightblue" points="116.21,-44.5 106.21,-48 116.21,-51.5 116.21,-44.5"/>
</g>
<!-- Node5 -->
<g id="node6" class="node">
<title>Node5</title>
<g id="a_node6"><a xlink:href="class_uptane_1_1_timestamp_meta.html" target="_top" xlink:title="Uptane::TimestampMeta">
<polygon fill="white" stroke="black" points="142,-0.5 142,-19.5 279,-19.5 279,-0.5 142,-0.5"/>
<text text-anchor="middle" x="210.5" y="-7.5" font-family="Helvetica,sans-Serif" font-size="10.00">Uptane::TimestampMeta</text>
</a>
</g>
</g>
<!-- Node0&#45;&gt;Node5 -->
<g id="edge5" class="edge">
<title>Node0&#45;&gt;Node5</title>
<path fill="none" stroke="midnightblue" d="M102.97,-36.03C124.77,-30.71 150.07,-24.52 170.54,-19.52"/>
<polygon fill="midnightblue" stroke="midnightblue" points="102.12,-32.64 93.24,-38.41 103.78,-39.44 102.12,-32.64"/>
</g>
<!-- Node2 -->
<g id="node3" class="node">
<title>Node2</title>
<g id="a_node3"><a xlink:href="class_uptane_1_1_root.html" target="_top" xlink:title="Uptane::Root">
<polygon fill="white" stroke="black" points="321.5,-95.5 321.5,-114.5 401.5,-114.5 401.5,-95.5 321.5,-95.5"/>
<text text-anchor="middle" x="361.5" y="-102.5" font-family="Helvetica,sans-Serif" font-size="10.00">Uptane::Root</text>
</a>
</g>
</g>
<!-- Node1&#45;&gt;Node2 -->
<g id="edge2" class="edge">
<title>Node1&#45;&gt;Node2</title>
<path fill="none" stroke="midnightblue" d="M284.79,-95.35C297.44,-96.96 310.13,-98.58 321.41,-100.02"/>
<polygon fill="midnightblue" stroke="midnightblue" points="285.05,-91.85 274.69,-94.06 284.17,-98.79 285.05,-91.85"/>
</g>
<!-- Node3 -->
<g id="node4" class="node">
<title>Node3</title>
<g id="a_node4"><a xlink:href="class_uptane_1_1_targets.html" target="_top" xlink:title="Uptane::Targets">
<polygon fill="white" stroke="black" points="315,-57.5 315,-76.5 408,-76.5 408,-57.5 315,-57.5"/>
<text text-anchor="middle" x="361.5" y="-64.5" font-family="Helvetica,sans-Serif" font-size="10.00">Uptane::Targets</text>
</a>
</g>
</g>
<!-- Node1&#45;&gt;Node3 -->
<g id="edge3" class="edge">
<title>Node1&#45;&gt;Node3</title>
<path fill="none" stroke="midnightblue" d="M284.87,-76.64C295.09,-75.34 305.33,-74.03 314.84,-72.82"/>
<polygon fill="midnightblue" stroke="midnightblue" points="284.17,-73.21 274.69,-77.94 285.05,-80.15 284.17,-73.21"/>
</g>
</g>
</svg>
