<?xml version="1.0" encoding="UTF-8" standalone="no"?>
<!DOCTYPE svg PUBLIC "-//W3C//DTD SVG 1.1//EN"
 "http://www.w3.org/Graphics/SVG/1.1/DTD/svg11.dtd">
<!-- Generated by graphviz version 2.43.0 (0)
 -->
<!-- Title: Graphical Class Hierarchy Pages: 1 -->
<svg width="347pt" height="66pt"
 viewBox="0.00 0.00 347.00 66.00" xmlns="http://www.w3.org/2000/svg" xmlns:xlink="http://www.w3.org/1999/xlink">
<g id="graph0" class="graph" transform="scale(1 1) rotate(0) translate(4 62)">
<title>Graphical Class Hierarchy</title>
<polygon fill="white" stroke="transparent" points="-4,4 -4,-62 343,-62 343,4 -4,4"/>
<!-- Node0 -->
<g id="node1" class="node">
<title>Node0</title>
<g id="a_node1"><a xlink:href="class_uptane_1_1_repository_common.html" target="_top" xlink:title="Uptane::RepositoryCommon">
<polygon fill="white" stroke="black" points="0,-19.5 0,-38.5 154,-38.5 154,-19.5 0,-19.5"/>
<text text-anchor="middle" x="77" y="-26.5" font-family="Helvetica,sans-Serif" font-size="10.00">Uptane::RepositoryCommon</text>
</a>
</g>
</g>
<!-- Node1 -->
<g id="node2" class="node">
<title>Node1</title>
<g id="a_node2"><a xlink:href="class_uptane_1_1_director_repository.html" target="_top" xlink:title="Uptane::DirectorRepository">
<polygon fill="white" stroke="black" points="190,-38.5 190,-57.5 339,-57.5 339,-38.5 190,-38.5"/>
<text text-anchor="middle" x="264.5" y="-45.5" font-family="Helvetica,sans-Serif" font-size="10.00">Uptane::DirectorRepository</text>
</a>
</g>
</g>
<!-- Node0&#45;&gt;Node1 -->
<g id="edge1" class="edge">
<title>Node0&#45;&gt;Node1</title>
<path fill="none" stroke="midnightblue" d="M164.27,-37.84C172.85,-38.72 181.5,-39.6 189.93,-40.47"/>
<polygon fill="midnightblue" stroke="midnightblue" points="164.56,-34.35 154.25,-36.81 163.84,-41.31 164.56,-34.35"/>
</g>
<!-- Node2 -->
<g id="node3" class="node">
<title>Node2</title>
<g id="a_node3"><a xlink:href="class_uptane_1_1_images_repository.html" target="_top" xlink:title="Uptane::ImagesRepository">
<polygon fill="white" stroke="black" points="191.5,-0.5 191.5,-19.5 337.5,-19.5 337.5,-0.5 191.5,-0.5"/>
<text text-anchor="middle" x="264.5" y="-7.5" font-family="Helvetica,sans-Serif" font-size="10.00">Uptane::ImagesRepository</text>
</a>
</g>
</g>
<!-- Node0&#45;&gt;Node2 -->
<g id="edge2" class="edge">
<title>Node0&#45;&gt;Node2</title>
<path fill="none" stroke="midnightblue" d="M164.41,-20.15C173.45,-19.22 182.57,-18.29 191.42,-17.38"/>
<polygon fill="midnightblue" stroke="midnightblue" points="163.84,-16.69 154.25,-21.19 164.56,-23.65 163.84,-16.69"/>
</g>
</g>
</svg>
