<?xml version="1.0" encoding="UTF-8" standalone="no"?>
<!DOCTYPE svg PUBLIC "-//W3C//DTD SVG 1.1//EN"
 "http://www.w3.org/Graphics/SVG/1.1/DTD/svg11.dtd">
<!-- Generated by graphviz version 2.43.0 (0)
 -->
<!-- Title: Graphical Class Hierarchy Pages: 1 -->
<svg width="333pt" height="104pt"
 viewBox="0.00 0.00 333.00 104.00" xmlns="http://www.w3.org/2000/svg" xmlns:xlink="http://www.w3.org/1999/xlink">
<g id="graph0" class="graph" transform="scale(1 1) rotate(0) translate(4 100)">
<title>Graphical Class Hierarchy</title>
<polygon fill="white" stroke="transparent" points="-4,4 -4,-100 329,-100 329,4 -4,4"/>
<!-- Node0 -->
<g id="node1" class="node">
<title>Node0</title>
<g id="a_node1"><a xlink:href="class_execution_controller.html" target="_top" xlink:title="ExecutionController">
<polygon fill="white" stroke="black" points="0,-38.5 0,-57.5 113,-57.5 113,-38.5 0,-38.5"/>
<text text-anchor="middle" x="56.5" y="-45.5" font-family="Helvetica,sans-Serif" font-size="10.00">ExecutionController</text>
</a>
</g>
</g>
<!-- Node1 -->
<g id="node2" class="node">
<title>Node1</title>
<g id="a_node2"><a xlink:href="class_fixed_execution_controller.html" target="_top" xlink:title="FixedExecutionController">
<polygon fill="white" stroke="black" points="168,-76.5 168,-95.5 306,-95.5 306,-76.5 168,-76.5"/>
<text text-anchor="middle" x="237" y="-83.5" font-family="Helvetica,sans-Serif" font-size="10.00">FixedExecutionController</text>
</a>
</g>
</g>
<!-- Node0&#45;&gt;Node1 -->
<g id="edge1" class="edge">
<title>Node0&#45;&gt;Node1</title>
<path fill="none" stroke="midnightblue" d="M112.37,-59.68C137.68,-65.07 167.35,-71.39 191.28,-76.48"/>
<polygon fill="midnightblue" stroke="midnightblue" points="113.05,-56.25 102.54,-57.59 111.6,-63.09 113.05,-56.25"/>
</g>
<!-- Node2 -->
<g id="node3" class="node">
<title>Node2</title>
<g id="a_node3"><a xlink:href="class_interruptable_execution_controller.html" target="_top" xlink:title="InterruptableExecutionController">
<polygon fill="white" stroke="black" points="149,-38.5 149,-57.5 325,-57.5 325,-38.5 149,-38.5"/>
<text text-anchor="middle" x="237" y="-45.5" font-family="Helvetica,sans-Serif" font-size="10.00">InterruptableExecutionController</text>
</a>
</g>
</g>
<!-- Node0&#45;&gt;Node2 -->
<g id="edge2" class="edge">
<title>Node0&#45;&gt;Node2</title>
<path fill="none" stroke="midnightblue" d="M123.04,-48C131.42,-48 140.09,-48 148.74,-48"/>
<polygon fill="midnightblue" stroke="midnightblue" points="123,-44.5 113,-48 123,-51.5 123,-44.5"/>
</g>
<!-- Node3 -->
<g id="node4" class="node">
<title>Node3</title>
<g id="a_node4"><a xlink:href="class_unbounded_execution_controller.html" target="_top" xlink:title="UnboundedExecutionController">
<polygon fill="white" stroke="black" points="153,-0.5 153,-19.5 321,-19.5 321,-0.5 153,-0.5"/>
<text text-anchor="middle" x="237" y="-7.5" font-family="Helvetica,sans-Serif" font-size="10.00">UnboundedExecutionController</text>
</a>
</g>
</g>
<!-- Node0&#45;&gt;Node3 -->
<g id="edge3" class="edge">
<title>Node0&#45;&gt;Node3</title>
<path fill="none" stroke="#8b1a1a" d="M112.37,-36.32C137.68,-30.93 167.35,-24.61 191.28,-19.52"/>
<polygon fill="#8b1a1a" stroke="#8b1a1a" points="111.6,-32.91 102.54,-38.41 113.05,-39.75 111.6,-32.91"/>
</g>
</g>
</svg>
