<?xml version="1.0" encoding="UTF-8" standalone="no"?>
<!DOCTYPE svg PUBLIC "-//W3C//DTD SVG 1.1//EN"
 "http://www.w3.org/Graphics/SVG/1.1/DTD/svg11.dtd">
<!-- Generated by graphviz version 2.43.0 (0)
 -->
<!-- Title: archive_state Pages: 1 -->
<svg width="269pt" height="277pt"
 viewBox="0.00 0.00 268.50 277.00" xmlns="http://www.w3.org/2000/svg" xmlns:xlink="http://www.w3.org/1999/xlink">
<g id="graph0" class="graph" transform="scale(1 1) rotate(0) translate(4 273)">
<title>archive_state</title>
<polygon fill="white" stroke="transparent" points="-4,4 -4,-273 264.5,-273 264.5,4 -4,4"/>
<!-- Node1 -->
<g id="node1" class="node">
<title>Node1</title>
<polygon fill="#bfbfbf" stroke="black" points="71,-0.5 71,-19.5 154,-19.5 154,-0.5 71,-0.5"/>
<text text-anchor="middle" x="112.5" y="-7.5" font-family="Helvetica,sans-Serif" font-size="10.00">archive_state</text>
</g>
<!-- Node2 -->
<g id="node2" class="node">
<title>Node2</title>
<polygon fill="white" stroke="#bfbfbf" points="0,-67.5 0,-86.5 141,-86.5 141,-67.5 0,-67.5"/>
<text text-anchor="middle" x="70.5" y="-74.5" font-family="Helvetica,sans-Serif" font-size="10.00">std::array&lt; char, BSIZE &gt;</text>
</g>
<!-- Node2&#45;&gt;Node1 -->
<g id="edge1" class="edge">
<title>Node2&#45;&gt;Node1</title>
<path fill="none" stroke="#9a32cd" stroke-dasharray="5,2" d="M81.79,-58.53C89.92,-45.95 100.54,-29.51 106.93,-19.63"/>
<polygon fill="#9a32cd" stroke="#9a32cd" points="78.65,-56.94 76.16,-67.23 84.53,-60.73 78.65,-56.94"/>
<text text-anchor="middle" x="103" y="-41" font-family="Helvetica,sans-Serif" font-size="10.00"> buf</text>
</g>
<!-- Node3 -->
<g id="node3" class="node">
<title>Node3</title>
<g id="a_node3"><a xlink:title="STL class. ">
<polygon fill="white" stroke="#bfbfbf" points="159,-67.5 159,-86.5 234,-86.5 234,-67.5 159,-67.5"/>
<text text-anchor="middle" x="196.5" y="-74.5" font-family="Helvetica,sans-Serif" font-size="10.00">std::istream</text>
</a>
</g>
</g>
<!-- Node3&#45;&gt;Node1 -->
<g id="edge2" class="edge">
<title>Node3&#45;&gt;Node1</title>
<path fill="none" stroke="#9a32cd" stroke-dasharray="5,2" d="M177.2,-61.07C160.62,-48.24 137.29,-30.19 123.65,-19.63"/>
<polygon fill="#9a32cd" stroke="#9a32cd" points="175.12,-63.88 185.17,-67.23 179.4,-58.35 175.12,-63.88"/>
<text text-anchor="middle" x="165.5" y="-41" font-family="Helvetica,sans-Serif" font-size="10.00"> is</text>
</g>
<!-- Node4 -->
<g id="node4" class="node">
<title>Node4</title>
<g id="a_node4"><a xlink:title="STL class. ">
<polygon fill="white" stroke="#bfbfbf" points="143.5,-124.5 143.5,-154.5 249.5,-154.5 249.5,-124.5 143.5,-124.5"/>
<text text-anchor="start" x="151.5" y="-142.5" font-family="Helvetica,sans-Serif" font-size="10.00">std::basic_istream</text>
<text text-anchor="middle" x="196.5" y="-131.5" font-family="Helvetica,sans-Serif" font-size="10.00">&lt; char &gt;</text>
</a>
</g>
</g>
<!-- Node4&#45;&gt;Node3 -->
<g id="edge3" class="edge">
<title>Node4&#45;&gt;Node3</title>
<path fill="none" stroke="midnightblue" d="M196.5,-114.35C196.5,-104.51 196.5,-93.78 196.5,-86.54"/>
<polygon fill="midnightblue" stroke="midnightblue" points="193,-114.47 196.5,-124.47 200,-114.47 193,-114.47"/>
</g>
<!-- Node5 -->
<g id="node5" class="node">
<title>Node5</title>
<g id="a_node5"><a xlink:title="STL class. ">
<polygon fill="white" stroke="#bfbfbf" points="132.5,-192.5 132.5,-211.5 260.5,-211.5 260.5,-192.5 132.5,-192.5"/>
<text text-anchor="middle" x="196.5" y="-199.5" font-family="Helvetica,sans-Serif" font-size="10.00">std::basic_ios&lt; Char &gt;</text>
</a>
</g>
</g>
<!-- Node5&#45;&gt;Node4 -->
<g id="edge4" class="edge">
<title>Node5&#45;&gt;Node4</title>
<path fill="none" stroke="midnightblue" d="M196.5,-182.22C196.5,-173.36 196.5,-162.96 196.5,-154.76"/>
<polygon fill="midnightblue" stroke="midnightblue" points="193,-182.33 196.5,-192.33 200,-182.33 193,-182.33"/>
</g>
<!-- Node6 -->
<g id="node6" class="node">
<title>Node6</title>
<g id="a_node6"><a xlink:title="STL class. ">
<polygon fill="white" stroke="#bfbfbf" points="156.5,-249.5 156.5,-268.5 236.5,-268.5 236.5,-249.5 156.5,-249.5"/>
<text text-anchor="middle" x="196.5" y="-256.5" font-family="Helvetica,sans-Serif" font-size="10.00">std::ios_base</text>
</a>
</g>
</g>
<!-- Node6&#45;&gt;Node5 -->
<g id="edge5" class="edge">
<title>Node6&#45;&gt;Node5</title>
<path fill="none" stroke="midnightblue" d="M196.5,-239.12C196.5,-229.82 196.5,-219.06 196.5,-211.71"/>
<polygon fill="midnightblue" stroke="midnightblue" points="193,-239.41 196.5,-249.41 200,-239.41 193,-239.41"/>
</g>
</g>
</svg>
