<?xml version="1.0" encoding="UTF-8" standalone="no"?>
<!DOCTYPE svg PUBLIC "-//W3C//DTD SVG 1.1//EN"
 "http://www.w3.org/Graphics/SVG/1.1/DTD/svg11.dtd">
<!-- Generated by graphviz version 2.43.0 (0)
 -->
<!-- Title: Aktualizr::InstallationLogEntry Pages: 1 -->
<svg width="244pt" height="184pt"
 viewBox="0.00 0.00 244.00 184.00" xmlns="http://www.w3.org/2000/svg" xmlns:xlink="http://www.w3.org/1999/xlink">
<g id="graph0" class="graph" transform="scale(1 1) rotate(0) translate(4 180)">
<title>Aktualizr::InstallationLogEntry</title>
<polygon fill="white" stroke="transparent" points="-4,4 -4,-180 240,-180 240,4 -4,4"/>
<!-- Node1 -->
<g id="node1" class="node">
<title>Node1</title>
<polygon fill="#bfbfbf" stroke="black" points="83.5,-0.5 83.5,-30.5 221.5,-30.5 221.5,-0.5 83.5,-0.5"/>
<text text-anchor="start" x="91.5" y="-18.5" font-family="Helvetica,sans-Serif" font-size="10.00">Aktualizr::InstallationLog</text>
<text text-anchor="middle" x="152.5" y="-7.5" font-family="Helvetica,sans-Serif" font-size="10.00">Entry</text>
</g>
<!-- Node2 -->
<g id="node2" class="node">
<title>Node2</title>
<polygon fill="white" stroke="#bfbfbf" points="0,-78.5 0,-108.5 115,-108.5 115,-78.5 0,-78.5"/>
<text text-anchor="start" x="8" y="-96.5" font-family="Helvetica,sans-Serif" font-size="10.00">std::vector&lt; Uptane</text>
<text text-anchor="middle" x="57.5" y="-85.5" font-family="Helvetica,sans-Serif" font-size="10.00">::Target &gt;</text>
</g>
<!-- Node2&#45;&gt;Node1 -->
<g id="edge1" class="edge">
<title>Node2&#45;&gt;Node1</title>
<path fill="none" stroke="#9a32cd" stroke-dasharray="5,2" d="M83.43,-71.75C99.71,-58.73 120.27,-42.28 134.71,-30.73"/>
<polygon fill="#9a32cd" stroke="#9a32cd" points="80.99,-69.22 75.37,-78.2 85.36,-74.69 80.99,-69.22"/>
<text text-anchor="middle" x="131" y="-52" font-family="Helvetica,sans-Serif" font-size="10.00"> installs</text>
</g>
<!-- Node3 -->
<g id="node3" class="node">
<title>Node3</title>
<g id="a_node3"><a xlink:href="class_uptane_1_1_target.html" target="_top" xlink:title="Uptane::Target">
<polygon fill="white" stroke="black" points="13.5,-156.5 13.5,-175.5 101.5,-175.5 101.5,-156.5 13.5,-156.5"/>
<text text-anchor="middle" x="57.5" y="-163.5" font-family="Helvetica,sans-Serif" font-size="10.00">Uptane::Target</text>
</a>
</g>
</g>
<!-- Node3&#45;&gt;Node2 -->
<g id="edge2" class="edge">
<title>Node3&#45;&gt;Node2</title>
<path fill="none" stroke="#9a32cd" stroke-dasharray="5,2" d="M57.5,-146.24C57.5,-134.41 57.5,-119.38 57.5,-108.58"/>
<polygon fill="#9a32cd" stroke="#9a32cd" points="54,-146.36 57.5,-156.36 61,-146.36 54,-146.36"/>
<text text-anchor="middle" x="82" y="-130" font-family="Helvetica,sans-Serif" font-size="10.00"> elements</text>
</g>
<!-- Node4 -->
<g id="node4" class="node">
<title>Node4</title>
<g id="a_node4"><a xlink:href="class_uptane_1_1_ecu_serial.html" target="_top" xlink:title="Uptane::EcuSerial">
<polygon fill="white" stroke="black" points="133,-84 133,-103 236,-103 236,-84 133,-84"/>
<text text-anchor="middle" x="184.5" y="-91" font-family="Helvetica,sans-Serif" font-size="10.00">Uptane::EcuSerial</text>
</a>
</g>
</g>
<!-- Node4&#45;&gt;Node1 -->
<g id="edge3" class="edge">
<title>Node4&#45;&gt;Node1</title>
<path fill="none" stroke="#9a32cd" stroke-dasharray="5,2" d="M176.79,-74.18C171.14,-60.76 163.58,-42.81 158.4,-30.52"/>
<polygon fill="#9a32cd" stroke="#9a32cd" points="173.72,-75.92 180.83,-83.78 180.17,-73.21 173.72,-75.92"/>
<text text-anchor="middle" x="180" y="-52" font-family="Helvetica,sans-Serif" font-size="10.00"> ecu</text>
</g>
</g>
</svg>
