<?xml version="1.0" encoding="UTF-8" standalone="no"?>
<!DOCTYPE svg PUBLIC "-//W3C//DTD SVG 1.1//EN"
 "http://www.w3.org/Graphics/SVG/1.1/DTD/svg11.dtd">
<!-- Generated by graphviz version 2.43.0 (0)
 -->
<!-- Title: Uptane::MetaPack Pages: 1 -->
<svg width="1494pt" height="391pt"
 viewBox="0.00 0.00 1494.00 390.84" xmlns="http://www.w3.org/2000/svg" xmlns:xlink="http://www.w3.org/1999/xlink">
<g id="graph0" class="graph" transform="scale(1 1) rotate(0) translate(4 386.84)">
<title>Uptane::MetaPack</title>
<polygon fill="white" stroke="transparent" points="-4,4 -4,-386.84 1490,-386.84 1490,4 -4,4"/>
<!-- Node1 -->
<g id="node1" class="node">
<title>Node1</title>
<polygon fill="#bfbfbf" stroke="black" points="1382,-280.34 1382,-299.34 1486,-299.34 1486,-280.34 1382,-280.34"/>
<text text-anchor="middle" x="1434" y="-287.34" font-family="Helvetica,sans-Serif" font-size="10.00">Uptane::MetaPack</text>
</g>
<!-- Node2 -->
<g id="node2" class="node">
<title>Node2</title>
<g id="a_node2"><a xlink:href="class_uptane_1_1_targets.html" target="_top" xlink:title="Uptane::Targets">
<polygon fill="white" stroke="black" points="1172,-123.34 1172,-142.34 1265,-142.34 1265,-123.34 1172,-123.34"/>
<text text-anchor="middle" x="1218.5" y="-130.34" font-family="Helvetica,sans-Serif" font-size="10.00">Uptane::Targets</text>
</a>
</g>
</g>
<!-- Node2&#45;&gt;Node1 -->
<g id="edge1" class="edge">
<title>Node2&#45;&gt;Node1</title>
<path fill="none" stroke="#9a32cd" stroke-dasharray="5,2" d="M1240.99,-148.57C1269.23,-169.24 1320.37,-206.71 1364,-238.84 1383.55,-253.24 1406.18,-269.98 1420.04,-280.24"/>
<polygon fill="#9a32cd" stroke="#9a32cd" points="1242.8,-145.55 1232.66,-142.47 1238.66,-151.2 1242.8,-145.55"/>
<text text-anchor="middle" x="1323.5" y="-252.84" font-family="Helvetica,sans-Serif" font-size="10.00"> director_targets</text>
<text text-anchor="middle" x="1323.5" y="-241.84" font-family="Helvetica,sans-Serif" font-size="10.00">image_targets</text>
</g>
<!-- Node3 -->
<g id="node3" class="node">
<title>Node3</title>
<g id="a_node3"><a xlink:href="class_uptane_1_1_meta_with_keys.html" target="_top" xlink:title="Uptane::MetaWithKeys">
<polygon fill="white" stroke="black" points="871,-243.34 871,-262.34 999,-262.34 999,-243.34 871,-243.34"/>
<text text-anchor="middle" x="935" y="-250.34" font-family="Helvetica,sans-Serif" font-size="10.00">Uptane::MetaWithKeys</text>
</a>
</g>
</g>
<!-- Node3&#45;&gt;Node2 -->
<g id="edge2" class="edge">
<title>Node3&#45;&gt;Node2</title>
<path fill="none" stroke="midnightblue" d="M972.13,-239.69C1015.75,-223.51 1091.1,-194.65 1154,-165.84 1169.93,-158.55 1187.57,-149.28 1200.21,-142.42"/>
<polygon fill="midnightblue" stroke="midnightblue" points="970.7,-236.48 962.53,-243.23 973.12,-243.05 970.7,-236.48"/>
</g>
<!-- Node20 -->
<g id="node20" class="node">
<title>Node20</title>
<g id="a_node20"><a xlink:href="class_uptane_1_1_root.html" target="_top" xlink:title="Uptane::Root">
<polygon fill="white" stroke="black" points="1178.5,-247.34 1178.5,-266.34 1258.5,-266.34 1258.5,-247.34 1178.5,-247.34"/>
<text text-anchor="middle" x="1218.5" y="-254.34" font-family="Helvetica,sans-Serif" font-size="10.00">Uptane::Root</text>
</a>
</g>
</g>
<!-- Node3&#45;&gt;Node20 -->
<g id="edge27" class="edge">
<title>Node3&#45;&gt;Node20</title>
<path fill="none" stroke="midnightblue" d="M1009.4,-253.88C1063.44,-254.65 1134.83,-255.67 1178.39,-256.29"/>
<polygon fill="midnightblue" stroke="midnightblue" points="1009.22,-250.38 999.17,-253.74 1009.12,-257.38 1009.22,-250.38"/>
</g>
<!-- Node4 -->
<g id="node4" class="node">
<title>Node4</title>
<g id="a_node4"><a xlink:href="class_uptane_1_1_base_meta.html" target="_top" xlink:title="Uptane::BaseMeta">
<polygon fill="white" stroke="black" points="569,-331.34 569,-350.34 675,-350.34 675,-331.34 569,-331.34"/>
<text text-anchor="middle" x="622" y="-338.34" font-family="Helvetica,sans-Serif" font-size="10.00">Uptane::BaseMeta</text>
</a>
</g>
</g>
<!-- Node4&#45;&gt;Node3 -->
<g id="edge3" class="edge">
<title>Node4&#45;&gt;Node3</title>
<path fill="none" stroke="midnightblue" d="M685.37,-329.93C747.98,-318.81 837.36,-302.43 853,-296.84 877.71,-288.01 904.01,-272.43 919.71,-262.38"/>
<polygon fill="midnightblue" stroke="midnightblue" points="684.41,-326.54 675.18,-331.74 685.63,-333.44 684.41,-326.54"/>
</g>
<!-- Node18 -->
<g id="node18" class="node">
<title>Node18</title>
<g id="a_node18"><a xlink:href="class_uptane_1_1_snapshot.html" target="_top" xlink:title="Uptane::Snapshot">
<polygon fill="white" stroke="black" points="1034,-323.34 1034,-342.34 1137,-342.34 1137,-323.34 1034,-323.34"/>
<text text-anchor="middle" x="1085.5" y="-330.34" font-family="Helvetica,sans-Serif" font-size="10.00">Uptane::Snapshot</text>
</a>
</g>
</g>
<!-- Node4&#45;&gt;Node18 -->
<g id="edge23" class="edge">
<title>Node4&#45;&gt;Node18</title>
<path fill="none" stroke="midnightblue" d="M685.07,-339.77C777.23,-338.17 948.53,-335.2 1033.7,-333.72"/>
<polygon fill="midnightblue" stroke="midnightblue" points="684.98,-336.27 675.04,-339.94 685.1,-343.27 684.98,-336.27"/>
</g>
<!-- Node19 -->
<g id="node19" class="node">
<title>Node19</title>
<g id="a_node19"><a xlink:href="class_uptane_1_1_timestamp_meta.html" target="_top" xlink:title="Uptane::TimestampMeta">
<polygon fill="white" stroke="black" points="1017,-363.34 1017,-382.34 1154,-382.34 1154,-363.34 1017,-363.34"/>
<text text-anchor="middle" x="1085.5" y="-370.34" font-family="Helvetica,sans-Serif" font-size="10.00">Uptane::TimestampMeta</text>
</a>
</g>
</g>
<!-- Node4&#45;&gt;Node19 -->
<g id="edge25" class="edge">
<title>Node4&#45;&gt;Node19</title>
<path fill="none" stroke="midnightblue" d="M685.19,-348.65C695.79,-349.83 706.7,-350.95 717,-351.84 821.41,-360.93 942.87,-366.99 1016.68,-370.17"/>
<polygon fill="midnightblue" stroke="midnightblue" points="685.48,-345.16 675.15,-347.5 684.69,-352.11 685.48,-345.16"/>
</g>
<!-- Node5 -->
<g id="node5" class="node">
<title>Node5</title>
<g id="a_node5"><a xlink:href="class_time_stamp.html" target="_top" xlink:title="TimeStamp">
<polygon fill="white" stroke="black" points="342.5,-331.34 342.5,-350.34 415.5,-350.34 415.5,-331.34 342.5,-331.34"/>
<text text-anchor="middle" x="379" y="-338.34" font-family="Helvetica,sans-Serif" font-size="10.00">TimeStamp</text>
</a>
</g>
</g>
<!-- Node5&#45;&gt;Node4 -->
<g id="edge4" class="edge">
<title>Node5&#45;&gt;Node4</title>
<path fill="none" stroke="#9a32cd" stroke-dasharray="5,2" d="M425.76,-340.84C466.53,-340.84 526.18,-340.84 568.8,-340.84"/>
<polygon fill="#9a32cd" stroke="#9a32cd" points="425.56,-337.34 415.56,-340.84 425.56,-344.34 425.56,-337.34"/>
<text text-anchor="middle" x="502.5" y="-343.84" font-family="Helvetica,sans-Serif" font-size="10.00"> expiry_</text>
</g>
<!-- Node6 -->
<g id="node6" class="node">
<title>Node6</title>
<polygon fill="white" stroke="#bfbfbf" points="549,-281.84 549,-311.84 695,-311.84 695,-281.84 549,-281.84"/>
<text text-anchor="start" x="557" y="-299.84" font-family="Helvetica,sans-Serif" font-size="10.00">std::set&lt; std::pair</text>
<text text-anchor="middle" x="622" y="-288.84" font-family="Helvetica,sans-Serif" font-size="10.00">&lt; Uptane::Role, KeyId &gt; &gt;</text>
</g>
<!-- Node6&#45;&gt;Node3 -->
<g id="edge5" class="edge">
<title>Node6&#45;&gt;Node3</title>
<path fill="none" stroke="#9a32cd" stroke-dasharray="5,2" d="M705.31,-285.2C757.21,-277.85 823.21,-268.52 870.95,-261.76"/>
<polygon fill="#9a32cd" stroke="#9a32cd" points="704.54,-281.77 695.13,-286.64 705.52,-288.7 704.54,-281.77"/>
<text text-anchor="middle" x="785" y="-284.84" font-family="Helvetica,sans-Serif" font-size="10.00"> keys_for_role_</text>
</g>
<!-- Node7 -->
<g id="node7" class="node">
<title>Node7</title>
<polygon fill="white" stroke="#bfbfbf" points="298,-232.34 298,-251.34 460,-251.34 460,-232.34 298,-232.34"/>
<text text-anchor="middle" x="379" y="-239.34" font-family="Helvetica,sans-Serif" font-size="10.00">std::map&lt; KeyId, PublicKey &gt;</text>
</g>
<!-- Node7&#45;&gt;Node3 -->
<g id="edge6" class="edge">
<title>Node7&#45;&gt;Node3</title>
<path fill="none" stroke="#9a32cd" stroke-dasharray="5,2" d="M470.59,-243.64C583.29,-245.88 772.8,-249.64 870.91,-251.59"/>
<polygon fill="#9a32cd" stroke="#9a32cd" points="470.33,-240.13 460.26,-243.44 470.19,-247.13 470.33,-240.13"/>
<text text-anchor="middle" x="622" y="-250.84" font-family="Helvetica,sans-Serif" font-size="10.00"> keys_</text>
</g>
<!-- Node8 -->
<g id="node8" class="node">
<title>Node8</title>
<g id="a_node8"><a xlink:href="class_public_key.html" target="_top" xlink:title="PublicKey">
<polygon fill="white" stroke="black" points="141.5,-232.34 141.5,-251.34 205.5,-251.34 205.5,-232.34 141.5,-232.34"/>
<text text-anchor="middle" x="173.5" y="-239.34" font-family="Helvetica,sans-Serif" font-size="10.00">PublicKey</text>
</a>
</g>
</g>
<!-- Node8&#45;&gt;Node7 -->
<g id="edge7" class="edge">
<title>Node8&#45;&gt;Node7</title>
<path fill="none" stroke="#9a32cd" stroke-dasharray="5,2" d="M216.16,-241.84C239.68,-241.84 269.89,-241.84 297.82,-241.84"/>
<polygon fill="#9a32cd" stroke="#9a32cd" points="215.85,-238.34 205.85,-241.84 215.85,-245.34 215.85,-238.34"/>
<text text-anchor="middle" x="252" y="-244.84" font-family="Helvetica,sans-Serif" font-size="10.00"> elements</text>
</g>
<!-- Node9 -->
<g id="node9" class="node">
<title>Node9</title>
<g id="a_node9"><a xlink:title="STL class. ">
<polygon fill="white" stroke="#bfbfbf" points="141,-102.34 141,-121.34 206,-121.34 206,-102.34 141,-102.34"/>
<text text-anchor="middle" x="173.5" y="-109.34" font-family="Helvetica,sans-Serif" font-size="10.00">std::string</text>
</a>
</g>
</g>
<!-- Node9&#45;&gt;Node7 -->
<g id="edge8" class="edge">
<title>Node9&#45;&gt;Node7</title>
<path fill="none" stroke="#9a32cd" stroke-dasharray="5,2" d="M189.93,-129.05C199.22,-138.8 211.6,-150.81 224,-159.84 267.33,-191.41 324.36,-218.53 355.43,-232.25"/>
<polygon fill="#9a32cd" stroke="#9a32cd" points="192.3,-126.45 182.94,-121.5 187.17,-131.22 192.3,-126.45"/>
<text text-anchor="middle" x="252" y="-195.84" font-family="Helvetica,sans-Serif" font-size="10.00"> keys</text>
</g>
<!-- Node12 -->
<g id="node12" class="node">
<title>Node12</title>
<g id="a_node12"><a xlink:href="class_uptane_1_1_role.html" target="_top" xlink:title="TUF Roles. ">
<polygon fill="white" stroke="black" points="339.5,-102.34 339.5,-121.34 418.5,-121.34 418.5,-102.34 339.5,-102.34"/>
<text text-anchor="middle" x="379" y="-109.34" font-family="Helvetica,sans-Serif" font-size="10.00">Uptane::Role</text>
</a>
</g>
</g>
<!-- Node9&#45;&gt;Node12 -->
<g id="edge12" class="edge">
<title>Node9&#45;&gt;Node12</title>
<path fill="none" stroke="#9a32cd" stroke-dasharray="5,2" d="M216.52,-111.84C252.67,-111.84 304.39,-111.84 339.48,-111.84"/>
<polygon fill="#9a32cd" stroke="#9a32cd" points="216.3,-108.34 206.3,-111.84 216.3,-115.34 216.3,-108.34"/>
<text text-anchor="middle" x="252" y="-147.84" font-family="Helvetica,sans-Serif" font-size="10.00"> ROOT</text>
<text text-anchor="middle" x="252" y="-136.84" font-family="Helvetica,sans-Serif" font-size="10.00">TIMESTAMP</text>
<text text-anchor="middle" x="252" y="-125.84" font-family="Helvetica,sans-Serif" font-size="10.00">SNAPSHOT</text>
<text text-anchor="middle" x="252" y="-114.84" font-family="Helvetica,sans-Serif" font-size="10.00">TARGETS</text>
</g>
<!-- Node17 -->
<g id="node17" class="node">
<title>Node17</title>
<polygon fill="white" stroke="#bfbfbf" points="309,-29.34 309,-48.34 449,-48.34 449,-29.34 309,-29.34"/>
<text text-anchor="middle" x="379" y="-36.34" font-family="Helvetica,sans-Serif" font-size="10.00">std::vector&lt; std::string &gt;</text>
</g>
<!-- Node9&#45;&gt;Node17 -->
<g id="edge20" class="edge">
<title>Node9&#45;&gt;Node17</title>
<path fill="none" stroke="#9a32cd" stroke-dasharray="5,2" d="M210.57,-98.9C250.92,-84.43 315.36,-61.31 351.39,-48.39"/>
<polygon fill="#9a32cd" stroke="#9a32cd" points="209.33,-95.63 201.1,-102.3 211.7,-102.22 209.33,-95.63"/>
<text text-anchor="middle" x="252" y="-95.84" font-family="Helvetica,sans-Serif" font-size="10.00"> elements</text>
</g>
<!-- Node10 -->
<g id="node10" class="node">
<title>Node10</title>
<g id="a_node10"><a xlink:title="STL class. ">
<polygon fill="white" stroke="#bfbfbf" points="0,-96.84 0,-126.84 104,-126.84 104,-96.84 0,-96.84"/>
<text text-anchor="start" x="8" y="-114.84" font-family="Helvetica,sans-Serif" font-size="10.00">std::basic_string&lt;</text>
<text text-anchor="middle" x="52" y="-103.84" font-family="Helvetica,sans-Serif" font-size="10.00"> char &gt;</text>
</a>
</g>
</g>
<!-- Node10&#45;&gt;Node9 -->
<g id="edge9" class="edge">
<title>Node10&#45;&gt;Node9</title>
<path fill="none" stroke="midnightblue" d="M114.1,-111.84C123.41,-111.84 132.68,-111.84 141,-111.84"/>
<polygon fill="midnightblue" stroke="midnightblue" points="114.03,-108.34 104.03,-111.84 114.03,-115.34 114.03,-108.34"/>
</g>
<!-- Node11 -->
<g id="node11" class="node">
<title>Node11</title>
<polygon fill="white" stroke="#bfbfbf" points="554,-184.84 554,-214.84 690,-214.84 690,-184.84 554,-184.84"/>
<text text-anchor="start" x="562" y="-202.84" font-family="Helvetica,sans-Serif" font-size="10.00">std::map&lt; Uptane::Role,</text>
<text text-anchor="middle" x="622" y="-191.84" font-family="Helvetica,sans-Serif" font-size="10.00"> int64_t &gt;</text>
</g>
<!-- Node11&#45;&gt;Node3 -->
<g id="edge10" class="edge">
<title>Node11&#45;&gt;Node3</title>
<path fill="none" stroke="#9a32cd" stroke-dasharray="5,2" d="M700.21,-205.15C745.15,-209.17 802.68,-215.92 853,-226.84 871.91,-230.95 892.67,-237.66 908.45,-243.23"/>
<polygon fill="#9a32cd" stroke="#9a32cd" points="700.51,-201.66 690.24,-204.28 699.9,-208.64 700.51,-201.66"/>
<text text-anchor="middle" x="785" y="-229.84" font-family="Helvetica,sans-Serif" font-size="10.00"> thresholds_for_role_</text>
</g>
<!-- Node12&#45;&gt;Node11 -->
<g id="edge11" class="edge">
<title>Node12&#45;&gt;Node11</title>
<path fill="none" stroke="#9a32cd" stroke-dasharray="5,2" d="M413.58,-125.19C446.8,-138.28 499.17,-158.57 545,-174.84 554.29,-178.14 564.28,-181.53 573.85,-184.71"/>
<polygon fill="#9a32cd" stroke="#9a32cd" points="414.5,-121.79 403.92,-121.38 411.93,-128.31 414.5,-121.79"/>
<text text-anchor="middle" x="502.5" y="-170.84" font-family="Helvetica,sans-Serif" font-size="10.00"> keys</text>
</g>
<!-- Node15 -->
<g id="node15" class="node">
<title>Node15</title>
<polygon fill="white" stroke="#bfbfbf" points="717,-51.84 717,-81.84 853,-81.84 853,-51.84 717,-51.84"/>
<text text-anchor="start" x="725" y="-69.84" font-family="Helvetica,sans-Serif" font-size="10.00">std::map&lt; Uptane::Role,</text>
<text text-anchor="middle" x="785" y="-58.84" font-family="Helvetica,sans-Serif" font-size="10.00"> bool &gt;</text>
</g>
<!-- Node12&#45;&gt;Node15 -->
<g id="edge16" class="edge">
<title>Node12&#45;&gt;Node15</title>
<path fill="none" stroke="#9a32cd" stroke-dasharray="5,2" d="M428.68,-104.35C444.42,-101.94 461.95,-99.27 478,-96.84 507.77,-92.34 515.09,-90.32 545,-86.84 602.9,-80.1 668.95,-74.75 716.92,-71.29"/>
<polygon fill="#9a32cd" stroke="#9a32cd" points="427.98,-100.92 418.63,-105.9 429.04,-107.84 427.98,-100.92"/>
<text text-anchor="middle" x="502.5" y="-99.84" font-family="Helvetica,sans-Serif" font-size="10.00"> keys</text>
</g>
<!-- Node16 -->
<g id="node16" class="node">
<title>Node16</title>
<polygon fill="white" stroke="#bfbfbf" points="545,-96.84 545,-126.84 699,-126.84 699,-96.84 545,-96.84"/>
<text text-anchor="start" x="553" y="-114.84" font-family="Helvetica,sans-Serif" font-size="10.00">std::map&lt; Uptane::Role,</text>
<text text-anchor="middle" x="622" y="-103.84" font-family="Helvetica,sans-Serif" font-size="10.00"> std::vector&lt; std::string &gt; &gt;</text>
</g>
<!-- Node12&#45;&gt;Node16 -->
<g id="edge18" class="edge">
<title>Node12&#45;&gt;Node16</title>
<path fill="none" stroke="#9a32cd" stroke-dasharray="5,2" d="M429.11,-111.84C462.4,-111.84 507.06,-111.84 544.91,-111.84"/>
<polygon fill="#9a32cd" stroke="#9a32cd" points="428.72,-108.34 418.72,-111.84 428.72,-115.34 428.72,-108.34"/>
<text text-anchor="middle" x="502.5" y="-114.84" font-family="Helvetica,sans-Serif" font-size="10.00"> keys</text>
</g>
<!-- Node13 -->
<g id="node13" class="node">
<title>Node13</title>
<polygon fill="white" stroke="#bfbfbf" points="877.5,-142.84 877.5,-172.84 992.5,-172.84 992.5,-142.84 877.5,-142.84"/>
<text text-anchor="start" x="885.5" y="-160.84" font-family="Helvetica,sans-Serif" font-size="10.00">std::vector&lt; Uptane</text>
<text text-anchor="middle" x="935" y="-149.84" font-family="Helvetica,sans-Serif" font-size="10.00">::Target &gt;</text>
</g>
<!-- Node13&#45;&gt;Node2 -->
<g id="edge13" class="edge">
<title>Node13&#45;&gt;Node2</title>
<path fill="none" stroke="#9a32cd" stroke-dasharray="5,2" d="M1002.78,-151.91C1054.86,-147.29 1125.82,-140.98 1171.65,-136.91"/>
<polygon fill="#9a32cd" stroke="#9a32cd" points="1002.28,-148.44 992.63,-152.81 1002.9,-155.41 1002.28,-148.44"/>
<text text-anchor="middle" x="1085.5" y="-153.84" font-family="Helvetica,sans-Serif" font-size="10.00"> targets</text>
</g>
<!-- Node14 -->
<g id="node14" class="node">
<title>Node14</title>
<g id="a_node14"><a xlink:href="class_uptane_1_1_target.html" target="_top" xlink:title="Uptane::Target">
<polygon fill="white" stroke="black" points="578,-146.34 578,-165.34 666,-165.34 666,-146.34 578,-146.34"/>
<text text-anchor="middle" x="622" y="-153.34" font-family="Helvetica,sans-Serif" font-size="10.00">Uptane::Target</text>
</a>
</g>
</g>
<!-- Node14&#45;&gt;Node13 -->
<g id="edge14" class="edge">
<title>Node14&#45;&gt;Node13</title>
<path fill="none" stroke="#9a32cd" stroke-dasharray="5,2" d="M676.32,-156.18C732.37,-156.54 820.19,-157.11 877.43,-157.48"/>
<polygon fill="#9a32cd" stroke="#9a32cd" points="676.27,-152.68 666.24,-156.12 676.22,-159.68 676.27,-152.68"/>
<text text-anchor="middle" x="785" y="-159.84" font-family="Helvetica,sans-Serif" font-size="10.00"> elements</text>
</g>
<!-- Node15&#45;&gt;Node2 -->
<g id="edge15" class="edge">
<title>Node15&#45;&gt;Node2</title>
<path fill="none" stroke="#9a32cd" stroke-dasharray="5,2" d="M863.59,-63.87C939.41,-63.21 1057.22,-68.18 1154,-98.84 1172,-104.54 1190.86,-115.35 1203.3,-123.25"/>
<polygon fill="#9a32cd" stroke="#9a32cd" points="863.14,-60.38 853.18,-64 863.22,-67.38 863.14,-60.38"/>
<text text-anchor="middle" x="935" y="-72.84" font-family="Helvetica,sans-Serif" font-size="10.00"> terminating_role_</text>
</g>
<!-- Node16&#45;&gt;Node2 -->
<g id="edge17" class="edge">
<title>Node16&#45;&gt;Node2</title>
<path fill="none" stroke="#9a32cd" stroke-dasharray="5,2" d="M709.38,-113.56C785.61,-115.21 899.71,-118.02 999,-121.84 1058.78,-124.14 1127.71,-127.77 1171.9,-130.23"/>
<polygon fill="#9a32cd" stroke="#9a32cd" points="709.42,-110.06 699.35,-113.34 709.27,-117.06 709.42,-110.06"/>
<text text-anchor="middle" x="935" y="-124.84" font-family="Helvetica,sans-Serif" font-size="10.00"> paths_for_role_</text>
</g>
<!-- Node17&#45;&gt;Node2 -->
<g id="edge21" class="edge">
<title>Node17&#45;&gt;Node2</title>
<path fill="none" stroke="#9a32cd" stroke-dasharray="5,2" d="M459.22,-29.19C465.57,-28.64 471.89,-28.18 478,-27.84 499.74,-26.62 505.22,-27.74 527,-27.84 806.23,-29.13 903.75,56.05 1154,-67.84 1179.73,-80.58 1200.97,-108.06 1211.1,-122.88"/>
<polygon fill="#9a32cd" stroke="#9a32cd" points="458.89,-25.7 449.25,-30.09 459.53,-32.67 458.89,-25.7"/>
<text text-anchor="middle" x="785" y="-19.84" font-family="Helvetica,sans-Serif" font-size="10.00"> delegated_role_names_</text>
</g>
<!-- Node17&#45;&gt;Node16 -->
<g id="edge19" class="edge">
<title>Node17&#45;&gt;Node16</title>
<path fill="none" stroke="#9a32cd" stroke-dasharray="5,2" d="M459.37,-30.16C481.73,-30.16 505.75,-32.56 527,-39.84 560.06,-51.17 590.66,-79.21 607.49,-96.76"/>
<polygon fill="#9a32cd" stroke="#9a32cd" points="459.17,-26.66 449.22,-30.32 459.28,-33.66 459.17,-26.66"/>
<text text-anchor="middle" x="502.5" y="-42.84" font-family="Helvetica,sans-Serif" font-size="10.00"> elements</text>
</g>
<!-- Node18&#45;&gt;Node1 -->
<g id="edge22" class="edge">
<title>Node18&#45;&gt;Node1</title>
<path fill="none" stroke="#9a32cd" stroke-dasharray="5,2" d="M1147.3,-325.53C1203.53,-318.74 1289.43,-308.27 1364,-298.84 1369.75,-298.11 1375.77,-297.34 1381.76,-296.57"/>
<polygon fill="#9a32cd" stroke="#9a32cd" points="1146.66,-322.08 1137.15,-326.76 1147.5,-329.03 1146.66,-322.08"/>
<text text-anchor="middle" x="1218.5" y="-324.84" font-family="Helvetica,sans-Serif" font-size="10.00"> image_snapshot</text>
</g>
<!-- Node19&#45;&gt;Node1 -->
<g id="edge24" class="edge">
<title>Node19&#45;&gt;Node1</title>
<path fill="none" stroke="#9a32cd" stroke-dasharray="5,2" d="M1159.44,-361.69C1215.9,-352.21 1295.72,-336.93 1364,-316.84 1380.17,-312.08 1397.86,-305.13 1411.28,-299.46"/>
<polygon fill="#9a32cd" stroke="#9a32cd" points="1158.82,-358.25 1149.53,-363.34 1159.97,-365.15 1158.82,-358.25"/>
<text text-anchor="middle" x="1218.5" y="-361.84" font-family="Helvetica,sans-Serif" font-size="10.00"> image_timestamp</text>
</g>
<!-- Node20&#45;&gt;Node1 -->
<g id="edge26" class="edge">
<title>Node20&#45;&gt;Node1</title>
<path fill="none" stroke="#9a32cd" stroke-dasharray="5,2" d="M1268.47,-263.02C1296.49,-266.7 1332.28,-271.66 1364,-276.84 1370.5,-277.9 1377.32,-279.09 1384.05,-280.31"/>
<polygon fill="#9a32cd" stroke="#9a32cd" points="1268.89,-259.54 1258.52,-261.72 1267.99,-266.48 1268.89,-259.54"/>
<text text-anchor="middle" x="1323.5" y="-290.84" font-family="Helvetica,sans-Serif" font-size="10.00"> image_root</text>
<text text-anchor="middle" x="1323.5" y="-279.84" font-family="Helvetica,sans-Serif" font-size="10.00">director_root</text>
</g>
</g>
</svg>
