<?xml version="1.0" encoding="UTF-8" standalone="no"?>
<!DOCTYPE svg PUBLIC "-//W3C//DTD SVG 1.1//EN"
 "http://www.w3.org/Graphics/SVG/1.1/DTD/svg11.dtd">
<!-- Generated by graphviz version 2.43.0 (0)
 -->
<!-- Title: Uptane::LazyTargetsList::DelegatedTargetTreeNode Pages: 1 -->
<svg width="717pt" height="94pt"
 viewBox="0.00 0.00 717.00 93.50" xmlns="http://www.w3.org/2000/svg" xmlns:xlink="http://www.w3.org/1999/xlink">
<g id="graph0" class="graph" transform="scale(1 1) rotate(0) translate(4 89.5)">
<title>Uptane::LazyTargetsList::DelegatedTargetTreeNode</title>
<polygon fill="white" stroke="transparent" points="-4,4 -4,-89.5 713,-89.5 713,4 -4,4"/>
<!-- Node1 -->
<g id="node1" class="node">
<title>Node1</title>
<polygon fill="#bfbfbf" stroke="black" points="560,-25.5 560,-55.5 709,-55.5 709,-25.5 560,-25.5"/>
<text text-anchor="start" x="568" y="-43.5" font-family="Helvetica,sans-Serif" font-size="10.00">Uptane::LazyTargetsList</text>
<text text-anchor="middle" x="634.5" y="-32.5" font-family="Helvetica,sans-Serif" font-size="10.00">::DelegatedTargetTreeNode</text>
</g>
<!-- Node1&#45;&gt;Node1 -->
<g id="edge5" class="edge">
<title>Node1&#45;&gt;Node1</title>
<path fill="none" stroke="#9a32cd" stroke-dasharray="5,2" d="M613.53,-65.96C616.14,-70.68 623.12,-74 634.5,-74 653.17,-74 660.02,-65.06 655.06,-55.66"/>
<polygon fill="#9a32cd" stroke="#9a32cd" points="617.04,-65.79 613.94,-55.66 610.05,-65.51 617.04,-65.79"/>
<text text-anchor="middle" x="634.5" y="-77" font-family="Helvetica,sans-Serif" font-size="10.00"> parent</text>
</g>
<!-- Node2 -->
<g id="node2" class="node">
<title>Node2</title>
<polygon fill="white" stroke="#bfbfbf" points="298,-44 298,-85 469,-85 469,-44 298,-44"/>
<text text-anchor="start" x="306" y="-73" font-family="Helvetica,sans-Serif" font-size="10.00">std::vector&lt; std::shared</text>
<text text-anchor="start" x="306" y="-62" font-family="Helvetica,sans-Serif" font-size="10.00">_ptr&lt; Uptane::LazyTargetsList</text>
<text text-anchor="middle" x="383.5" y="-51" font-family="Helvetica,sans-Serif" font-size="10.00">::DelegatedTargetTreeNode &gt; &gt;</text>
</g>
<!-- Node2&#45;&gt;Node1 -->
<g id="edge1" class="edge">
<title>Node2&#45;&gt;Node1</title>
<path fill="none" stroke="#9a32cd" stroke-dasharray="5,2" d="M479.28,-55.36C505.99,-52.79 534.64,-50.03 559.91,-47.59"/>
<polygon fill="#9a32cd" stroke="#9a32cd" points="478.77,-51.9 469.15,-56.34 479.44,-58.87 478.77,-51.9"/>
<text text-anchor="middle" x="514.5" y="-67.5" font-family="Helvetica,sans-Serif" font-size="10.00"> parent_idx</text>
<text text-anchor="middle" x="514.5" y="-56.5" font-family="Helvetica,sans-Serif" font-size="10.00">children</text>
</g>
<!-- Node3 -->
<g id="node3" class="node">
<title>Node3</title>
<g id="a_node3"><a xlink:href="class_uptane_1_1_role.html" target="_top" xlink:title="TUF Roles. ">
<polygon fill="white" stroke="black" points="344,-6 344,-25 423,-25 423,-6 344,-6"/>
<text text-anchor="middle" x="383.5" y="-13" font-family="Helvetica,sans-Serif" font-size="10.00">Uptane::Role</text>
</a>
</g>
</g>
<!-- Node3&#45;&gt;Node1 -->
<g id="edge2" class="edge">
<title>Node3&#45;&gt;Node1</title>
<path fill="none" stroke="#9a32cd" stroke-dasharray="5,2" d="M433.39,-20.41C469.42,-24.03 519.07,-29.01 559.89,-33.11"/>
<polygon fill="#9a32cd" stroke="#9a32cd" points="433.43,-16.9 423.13,-19.38 432.73,-23.86 433.43,-16.9"/>
<text text-anchor="middle" x="514.5" y="-33.5" font-family="Helvetica,sans-Serif" font-size="10.00"> role</text>
</g>
<!-- Node4 -->
<g id="node4" class="node">
<title>Node4</title>
<g id="a_node4"><a xlink:title="STL class. ">
<polygon fill="white" stroke="#bfbfbf" points="141,-6 141,-25 206,-25 206,-6 141,-6"/>
<text text-anchor="middle" x="173.5" y="-13" font-family="Helvetica,sans-Serif" font-size="10.00">std::string</text>
</a>
</g>
</g>
<!-- Node4&#45;&gt;Node3 -->
<g id="edge3" class="edge">
<title>Node4&#45;&gt;Node3</title>
<path fill="none" stroke="#9a32cd" stroke-dasharray="5,2" d="M216.12,-15.5C253.37,-15.5 307.56,-15.5 343.87,-15.5"/>
<polygon fill="#9a32cd" stroke="#9a32cd" points="216.09,-12 206.09,-15.5 216.09,-19 216.09,-12"/>
<text text-anchor="middle" x="252" y="-51.5" font-family="Helvetica,sans-Serif" font-size="10.00"> ROOT</text>
<text text-anchor="middle" x="252" y="-40.5" font-family="Helvetica,sans-Serif" font-size="10.00">TIMESTAMP</text>
<text text-anchor="middle" x="252" y="-29.5" font-family="Helvetica,sans-Serif" font-size="10.00">SNAPSHOT</text>
<text text-anchor="middle" x="252" y="-18.5" font-family="Helvetica,sans-Serif" font-size="10.00">TARGETS</text>
</g>
<!-- Node5 -->
<g id="node5" class="node">
<title>Node5</title>
<g id="a_node5"><a xlink:title="STL class. ">
<polygon fill="white" stroke="#bfbfbf" points="0,-0.5 0,-30.5 104,-30.5 104,-0.5 0,-0.5"/>
<text text-anchor="start" x="8" y="-18.5" font-family="Helvetica,sans-Serif" font-size="10.00">std::basic_string&lt;</text>
<text text-anchor="middle" x="52" y="-7.5" font-family="Helvetica,sans-Serif" font-size="10.00"> char &gt;</text>
</a>
</g>
</g>
<!-- Node5&#45;&gt;Node4 -->
<g id="edge4" class="edge">
<title>Node5&#45;&gt;Node4</title>
<path fill="none" stroke="midnightblue" d="M114.1,-15.5C123.41,-15.5 132.68,-15.5 141,-15.5"/>
<polygon fill="midnightblue" stroke="midnightblue" points="114.03,-12 104.03,-15.5 114.03,-19 114.03,-12"/>
</g>
</g>
</svg>
