<?xml version="1.0" encoding="UTF-8" standalone="no"?>
<!DOCTYPE svg PUBLIC "-//W3C//DTD SVG 1.1//EN"
 "http://www.w3.org/Graphics/SVG/1.1/DTD/svg11.dtd">
<!-- Generated by graphviz version 2.43.0 (0)
 -->
<!-- Title: KeyPair Pages: 1 -->
<svg width="184pt" height="163pt"
 viewBox="0.00 0.00 184.00 163.00" xmlns="http://www.w3.org/2000/svg" xmlns:xlink="http://www.w3.org/1999/xlink">
<g id="graph0" class="graph" transform="scale(1 1) rotate(0) translate(4 159)">
<title>KeyPair</title>
<polygon fill="white" stroke="transparent" points="-4,4 -4,-159 180,-159 180,4 -4,4"/>
<!-- Node1 -->
<g id="node1" class="node">
<title>Node1</title>
<polygon fill="#bfbfbf" stroke="black" points="67.5,-0.5 67.5,-19.5 120.5,-19.5 120.5,-0.5 67.5,-0.5"/>
<text text-anchor="middle" x="94" y="-7.5" font-family="Helvetica,sans-Serif" font-size="10.00">KeyPair</text>
</g>
<!-- Node2 -->
<g id="node2" class="node">
<title>Node2</title>
<g id="a_node2"><a xlink:title="STL class. ">
<polygon fill="white" stroke="#bfbfbf" points="19.5,-67.5 19.5,-86.5 84.5,-86.5 84.5,-67.5 19.5,-67.5"/>
<text text-anchor="middle" x="52" y="-74.5" font-family="Helvetica,sans-Serif" font-size="10.00">std::string</text>
</a>
</g>
</g>
<!-- Node2&#45;&gt;Node1 -->
<g id="edge1" class="edge">
<title>Node2&#45;&gt;Node1</title>
<path fill="none" stroke="#9a32cd" stroke-dasharray="5,2" d="M49.09,-57.28C48.94,-50.82 49.8,-43.76 53,-38 57.47,-29.95 65.47,-23.89 73.22,-19.57"/>
<polygon fill="#9a32cd" stroke="#9a32cd" points="45.61,-57.64 50.05,-67.25 52.57,-56.96 45.61,-57.64"/>
<text text-anchor="middle" x="83.5" y="-41" font-family="Helvetica,sans-Serif" font-size="10.00"> private_key</text>
</g>
<!-- Node3 -->
<g id="node3" class="node">
<title>Node3</title>
<g id="a_node3"><a xlink:title="STL class. ">
<polygon fill="white" stroke="#bfbfbf" points="0,-124.5 0,-154.5 104,-154.5 104,-124.5 0,-124.5"/>
<text text-anchor="start" x="8" y="-142.5" font-family="Helvetica,sans-Serif" font-size="10.00">std::basic_string&lt;</text>
<text text-anchor="middle" x="52" y="-131.5" font-family="Helvetica,sans-Serif" font-size="10.00"> char &gt;</text>
</a>
</g>
</g>
<!-- Node3&#45;&gt;Node2 -->
<g id="edge2" class="edge">
<title>Node3&#45;&gt;Node2</title>
<path fill="none" stroke="midnightblue" d="M52,-114.35C52,-104.51 52,-93.78 52,-86.54"/>
<polygon fill="midnightblue" stroke="midnightblue" points="48.5,-114.47 52,-124.47 55.5,-114.47 48.5,-114.47"/>
</g>
<!-- Node4 -->
<g id="node4" class="node">
<title>Node4</title>
<g id="a_node4"><a xlink:href="class_public_key.html" target="_top" xlink:title="PublicKey">
<polygon fill="white" stroke="black" points="104,-67.5 104,-86.5 168,-86.5 168,-67.5 104,-67.5"/>
<text text-anchor="middle" x="136" y="-74.5" font-family="Helvetica,sans-Serif" font-size="10.00">PublicKey</text>
</a>
</g>
</g>
<!-- Node4&#45;&gt;Node1 -->
<g id="edge3" class="edge">
<title>Node4&#45;&gt;Node1</title>
<path fill="none" stroke="#9a32cd" stroke-dasharray="5,2" d="M126.49,-58.63C122.75,-52.06 118.33,-44.59 114,-38 109.9,-31.76 104.9,-25.01 100.93,-19.82"/>
<polygon fill="#9a32cd" stroke="#9a32cd" points="123.45,-60.36 131.37,-67.38 129.56,-56.94 123.45,-60.36"/>
<text text-anchor="middle" x="148" y="-41" font-family="Helvetica,sans-Serif" font-size="10.00"> public_key</text>
</g>
</g>
</svg>
