<?xml version="1.0" encoding="UTF-8" standalone="no"?>
<!DOCTYPE svg PUBLIC "-//W3C//DTD SVG 1.1//EN"
 "http://www.w3.org/Graphics/SVG/1.1/DTD/svg11.dtd">
<!-- Generated by graphviz version 2.43.0 (0)
 -->
<!-- Title: OstreeDeploymentInfo Pages: 1 -->
<svg width="153pt" height="106pt"
 viewBox="0.00 0.00 153.00 106.00" xmlns="http://www.w3.org/2000/svg" xmlns:xlink="http://www.w3.org/1999/xlink">
<g id="graph0" class="graph" transform="scale(1 1) rotate(0) translate(4 102)">
<title>OstreeDeploymentInfo</title>
<polygon fill="white" stroke="transparent" points="-4,4 -4,-102 149,-102 149,4 -4,4"/>
<!-- Node1 -->
<g id="node1" class="node">
<title>Node1</title>
<polygon fill="#bfbfbf" stroke="black" points="8.5,-0.5 8.5,-19.5 136.5,-19.5 136.5,-0.5 8.5,-0.5"/>
<text text-anchor="middle" x="72.5" y="-7.5" font-family="Helvetica,sans-Serif" font-size="10.00">OstreeDeploymentInfo</text>
</g>
<!-- Node2 -->
<g id="node2" class="node">
<title>Node2</title>
<g id="a_node2"><a xlink:href="struct_ostree_deployment_version.html" target="_top" xlink:title="OstreeDeploymentVersion">
<polygon fill="white" stroke="black" points="0,-78.5 0,-97.5 145,-97.5 145,-78.5 0,-78.5"/>
<text text-anchor="middle" x="72.5" y="-85.5" font-family="Helvetica,sans-Serif" font-size="10.00">OstreeDeploymentVersion</text>
</a>
</g>
</g>
<!-- Node2&#45;&gt;Node1 -->
<g id="edge1" class="edge">
<title>Node2&#45;&gt;Node1</title>
<path fill="none" stroke="#9a32cd" stroke-dasharray="5,2" d="M72.5,-68.22C72.5,-52.7 72.5,-31.36 72.5,-19.62"/>
<polygon fill="#9a32cd" stroke="#9a32cd" points="69,-68.28 72.5,-78.28 76,-68.28 69,-68.28"/>
<text text-anchor="middle" x="95.5" y="-52" font-family="Helvetica,sans-Serif" font-size="10.00"> booted</text>
<text text-anchor="middle" x="95.5" y="-41" font-family="Helvetica,sans-Serif" font-size="10.00">deployed</text>
</g>
</g>
</svg>
