<?xml version="1.0" encoding="UTF-8" standalone="no"?>
<!DOCTYPE svg PUBLIC "-//W3C//DTD SVG 1.1//EN"
 "http://www.w3.org/Graphics/SVG/1.1/DTD/svg11.dtd">
<!-- Generated by graphviz version 2.43.0 (0)
 -->
<!-- Title: LiteClient Pages: 1 -->
<!--zoomable 604 -->
<svg id="main" version="1.1" xmlns="http://www.w3.org/2000/svg" xmlns:xlink="http://www.w3.org/1999/xlink" xml:space="preserve" onload="init(evt)">
<style type="text/css"><![CDATA[
.edge:hover path { stroke: red; }
.edge:hover polygon { stroke: red; fill: red; }
]]></style>
<script type="text/javascript"><![CDATA[
var edges = document.getElementsByTagName('g');
if (edges && edges.length) {
  for (var i=0;i<edges.length;i++) {
    if (edges[i].id.substr(0,4)=='edge') {
      edges[i].setAttribute('class','edge');
    }
  }
}
]]></script>
        <defs>
                <circle id="rim" cx="0" cy="0" r="7"/>
                <circle id="rim2" cx="0" cy="0" r="3.5"/>
                <g id="zoomPlus">
                        <use xlink:href="#rim" fill="#404040">
                                <set attributeName="fill" to="#808080" begin="zoomplus.mouseover" end="zoomplus.mouseout"/>
                        </use>
                        <path d="M-4,0h8M0,-4v8" fill="none" stroke="white" stroke-width="1.5" pointer-events="none"/>
                </g>
                <g id="zoomMin">
                        <use xlink:href="#rim" fill="#404040">
                                <set attributeName="fill" to="#808080" begin="zoomminus.mouseover" end="zoomminus.mouseout"/>
                        </use>
                        <path d="M-4,0h8" fill="none" stroke="white" stroke-width="1.5" pointer-events="none"/>
                </g>
                <g id="dirArrow">
                        <path fill="none" stroke="white" stroke-width="1.5" d="M0,-3.0v7 M-2.5,-0.5L0,-3.0L2.5,-0.5"/>
                </g>
               <g id="resetDef">
                       <use xlink:href="#rim2" fill="#404040">
                               <set attributeName="fill" to="#808080" begin="reset.mouseover" end="reset.mouseout"/>
                       </use>
               </g>
        </defs>

<script type="text/javascript">
var viewWidth = 792;
var viewHeight = 604;
var sectionId = 'dynsection-0';
</script>
<script xlink:href="svgpan.js"/>
<svg id="graph" class="graph">
<g id="viewport">
<title>LiteClient</title>
<polygon fill="white" stroke="transparent" points="-4,4 -4,-599.74 788,-599.74 788,4 -4,4"/>
<!-- Node1 -->
<g id="node1" class="node">
<title>Node1</title>
<polygon fill="#bfbfbf" stroke="black" points="721,-253.74 721,-272.74 784,-272.74 784,-253.74 721,-253.74"/>
<text text-anchor="middle" x="752.5" y="-260.74" font-family="Helvetica,sans-Serif" font-size="10.00">LiteClient</text>
</g>
<!-- Node2 -->
<g id="node2" class="node">
<title>Node2</title>
<g id="a_node2"><a xlink:href="class_config.html" target="_top" xlink:title="Configuration object for an aktualizr instance running on a primary ECU. ">
<polygon fill="white" stroke="black" points="605,-253.74 605,-272.74 652,-272.74 652,-253.74 605,-253.74"/>
<text text-anchor="middle" x="628.5" y="-260.74" font-family="Helvetica,sans-Serif" font-size="10.00">Config</text>
</a>
</g>
</g>
<!-- Node2&#45;&gt;Node1 -->
<g id="edge1" class="edge">
<title>Node2&#45;&gt;Node1</title>
<path fill="none" stroke="#9a32cd" stroke-dasharray="5,2" d="M662.29,-263.24C680.43,-263.24 702.85,-263.24 720.68,-263.24"/>
<polygon fill="#9a32cd" stroke="#9a32cd" points="662.16,-259.74 652.16,-263.24 662.16,-266.74 662.16,-259.74"/>
<text text-anchor="middle" x="686.5" y="-266.24" font-family="Helvetica,sans-Serif" font-size="10.00"> config</text>
</g>
<!-- Node3 -->
<g id="node3" class="node">
<title>Node3</title>
<g id="a_node3"><a xlink:href="class_base_config.html" target="_top" xlink:title="BaseConfig">
<polygon fill="white" stroke="black" points="427,-520.74 427,-539.74 498,-539.74 498,-520.74 427,-520.74"/>
<text text-anchor="middle" x="462.5" y="-527.74" font-family="Helvetica,sans-Serif" font-size="10.00">BaseConfig</text>
</a>
</g>
</g>
<!-- Node3&#45;&gt;Node2 -->
<g id="edge2" class="edge">
<title>Node3&#45;&gt;Node2</title>
<path fill="none" stroke="midnightblue" d="M492.24,-515.77C520.72,-499.91 563.41,-471.79 587,-435.24 621.77,-381.37 626.76,-300.82 627.42,-273.06"/>
<polygon fill="midnightblue" stroke="midnightblue" points="490.3,-512.84 483.17,-520.67 493.63,-518.99 490.3,-512.84"/>
</g>
<!-- Node4 -->
<g id="node4" class="node">
<title>Node4</title>
<polygon fill="white" stroke="#bfbfbf" points="141,-565.24 141,-595.24 254,-595.24 254,-565.24 141,-565.24"/>
<text text-anchor="start" x="149" y="-583.24" font-family="Helvetica,sans-Serif" font-size="10.00">std::vector&lt; boost</text>
<text text-anchor="middle" x="197.5" y="-572.24" font-family="Helvetica,sans-Serif" font-size="10.00">::filesystem::path &gt;</text>
</g>
<!-- Node4&#45;&gt;Node3 -->
<g id="edge3" class="edge">
<title>Node4&#45;&gt;Node3</title>
<path fill="none" stroke="#9a32cd" stroke-dasharray="5,2" d="M264.04,-567.89C302,-560.73 350.71,-551.51 394,-543.24 404.67,-541.21 416.28,-538.97 426.82,-536.94"/>
<polygon fill="#9a32cd" stroke="#9a32cd" points="263.3,-564.47 254.13,-569.76 264.6,-571.35 263.3,-564.47"/>
<text text-anchor="middle" x="333" y="-568.24" font-family="Helvetica,sans-Serif" font-size="10.00"> config_dirs_</text>
</g>
<!-- Node5 -->
<g id="node5" class="node">
<title>Node5</title>
<g id="a_node5"><a xlink:href="struct_storage_config.html" target="_top" xlink:title="StorageConfig">
<polygon fill="white" stroke="black" points="420,-433.74 420,-452.74 505,-452.74 505,-433.74 420,-433.74"/>
<text text-anchor="middle" x="462.5" y="-440.74" font-family="Helvetica,sans-Serif" font-size="10.00">StorageConfig</text>
</a>
</g>
</g>
<!-- Node5&#45;&gt;Node2 -->
<g id="edge4" class="edge">
<title>Node5&#45;&gt;Node2</title>
<path fill="none" stroke="#9a32cd" stroke-dasharray="5,2" d="M509.23,-430.32C535.23,-420.85 566.59,-405.52 587,-382.24 615.92,-349.27 624.4,-294.71 626.7,-272.79"/>
<polygon fill="#9a32cd" stroke="#9a32cd" points="507.86,-427.09 499.56,-433.67 510.15,-433.71 507.86,-427.09"/>
<text text-anchor="middle" x="559" y="-423.24" font-family="Helvetica,sans-Serif" font-size="10.00"> storage</text>
</g>
<!-- Node6 -->
<g id="node6" class="node">
<title>Node6</title>
<g id="a_node6"><a xlink:href="class_based_path.html" target="_top" xlink:title="BasedPath">
<polygon fill="white" stroke="black" points="163.5,-414.74 163.5,-433.74 231.5,-433.74 231.5,-414.74 163.5,-414.74"/>
<text text-anchor="middle" x="197.5" y="-421.74" font-family="Helvetica,sans-Serif" font-size="10.00">BasedPath</text>
</a>
</g>
</g>
<!-- Node6&#45;&gt;Node5 -->
<g id="edge5" class="edge">
<title>Node6&#45;&gt;Node5</title>
<path fill="none" stroke="#9a32cd" stroke-dasharray="5,2" d="M232.02,-437.08C244.39,-441.19 258.65,-445.2 272,-447.24 322.42,-454.95 381.25,-451.86 419.83,-448.22"/>
<polygon fill="#9a32cd" stroke="#9a32cd" points="233.16,-433.77 222.56,-433.8 230.86,-440.39 233.16,-433.77"/>
<text text-anchor="middle" x="333" y="-531.24" font-family="Helvetica,sans-Serif" font-size="10.00"> uptane_public_key_path</text>
<text text-anchor="middle" x="333" y="-520.24" font-family="Helvetica,sans-Serif" font-size="10.00">tls_pkey_path</text>
<text text-anchor="middle" x="333" y="-509.24" font-family="Helvetica,sans-Serif" font-size="10.00">uptane_metadata_path</text>
<text text-anchor="middle" x="333" y="-498.24" font-family="Helvetica,sans-Serif" font-size="10.00">sqldb_path</text>
<text text-anchor="start" x="272" y="-487.24" font-family="Helvetica,sans-Serif" font-size="10.00">uptane_private_key</text>
<text text-anchor="middle" x="333" y="-476.24" font-family="Helvetica,sans-Serif" font-size="10.00">_path</text>
<text text-anchor="middle" x="333" y="-465.24" font-family="Helvetica,sans-Serif" font-size="10.00">tls_cacert_path</text>
<text text-anchor="middle" x="333" y="-454.24" font-family="Helvetica,sans-Serif" font-size="10.00">tls_clientcert_path</text>
</g>
<!-- Node16 -->
<g id="node16" class="node">
<title>Node16</title>
<g id="a_node16"><a xlink:href="struct_import_config.html" target="_top" xlink:title="ImportConfig">
<polygon fill="white" stroke="black" points="422.5,-369.74 422.5,-388.74 502.5,-388.74 502.5,-369.74 422.5,-369.74"/>
<text text-anchor="middle" x="462.5" y="-376.74" font-family="Helvetica,sans-Serif" font-size="10.00">ImportConfig</text>
</a>
</g>
</g>
<!-- Node6&#45;&gt;Node16 -->
<g id="edge20" class="edge">
<title>Node6&#45;&gt;Node16</title>
<path fill="none" stroke="#9a32cd" stroke-dasharray="5,2" d="M217.33,-407.89C231.35,-396.84 251.53,-383.23 272,-377.24 322.37,-362.51 383.53,-366.92 422.49,-372.33"/>
<polygon fill="#9a32cd" stroke="#9a32cd" points="214.96,-405.3 209.44,-414.34 219.4,-410.71 214.96,-405.3"/>
<text text-anchor="middle" x="333" y="-435.24" font-family="Helvetica,sans-Serif" font-size="10.00"> uptane_public_key_path</text>
<text text-anchor="middle" x="333" y="-424.24" font-family="Helvetica,sans-Serif" font-size="10.00">tls_pkey_path</text>
<text text-anchor="start" x="272" y="-413.24" font-family="Helvetica,sans-Serif" font-size="10.00">uptane_private_key</text>
<text text-anchor="middle" x="333" y="-402.24" font-family="Helvetica,sans-Serif" font-size="10.00">_path</text>
<text text-anchor="middle" x="333" y="-391.24" font-family="Helvetica,sans-Serif" font-size="10.00">tls_cacert_path</text>
<text text-anchor="middle" x="333" y="-380.24" font-family="Helvetica,sans-Serif" font-size="10.00">tls_clientcert_path</text>
</g>
<!-- Node7 -->
<g id="node7" class="node">
<title>Node7</title>
<g id="a_node7"><a xlink:href="struct_tls_config.html" target="_top" xlink:title="TlsConfig">
<polygon fill="white" stroke="black" points="431.5,-330.74 431.5,-349.74 493.5,-349.74 493.5,-330.74 431.5,-330.74"/>
<text text-anchor="middle" x="462.5" y="-337.74" font-family="Helvetica,sans-Serif" font-size="10.00">TlsConfig</text>
</a>
</g>
</g>
<!-- Node7&#45;&gt;Node2 -->
<g id="edge6" class="edge">
<title>Node7&#45;&gt;Node2</title>
<path fill="none" stroke="#9a32cd" stroke-dasharray="5,2" d="M503.63,-333.9C528.86,-328.66 561.37,-319.52 587,-304.24 600.75,-296.04 613.13,-282.08 620.49,-272.76"/>
<polygon fill="#9a32cd" stroke="#9a32cd" points="502.79,-330.5 493.65,-335.85 504.14,-337.37 502.79,-330.5"/>
<text text-anchor="middle" x="559" y="-329.24" font-family="Helvetica,sans-Serif" font-size="10.00"> tls</text>
</g>
<!-- Node8 -->
<g id="node8" class="node">
<title>Node8</title>
<g id="a_node8"><a xlink:title="STL class. ">
<polygon fill="white" stroke="#bfbfbf" points="165,-130.74 165,-149.74 230,-149.74 230,-130.74 165,-130.74"/>
<text text-anchor="middle" x="197.5" y="-137.74" font-family="Helvetica,sans-Serif" font-size="10.00">std::string</text>
</a>
</g>
</g>
<!-- Node8&#45;&gt;Node7 -->
<g id="edge7" class="edge">
<title>Node8&#45;&gt;Node7</title>
<path fill="none" stroke="#9a32cd" stroke-dasharray="5,2" d="M199.86,-159.94C203.7,-198.66 218.16,-284.37 272,-324.24 296.48,-342.37 384.1,-342.68 431.14,-341.44"/>
<polygon fill="#9a32cd" stroke="#9a32cd" points="203.35,-159.6 199.01,-149.94 196.37,-160.2 203.35,-159.6"/>
<text text-anchor="middle" x="333" y="-344.24" font-family="Helvetica,sans-Serif" font-size="10.00"> server</text>
</g>
<!-- Node11 -->
<g id="node11" class="node">
<title>Node11</title>
<g id="a_node11"><a xlink:href="struct_package_config.html" target="_top" xlink:title="PackageConfig">
<polygon fill="white" stroke="black" points="418.5,-291.74 418.5,-310.74 506.5,-310.74 506.5,-291.74 418.5,-291.74"/>
<text text-anchor="middle" x="462.5" y="-298.74" font-family="Helvetica,sans-Serif" font-size="10.00">PackageConfig</text>
</a>
</g>
</g>
<!-- Node8&#45;&gt;Node11 -->
<g id="edge11" class="edge">
<title>Node8&#45;&gt;Node11</title>
<path fill="none" stroke="#9a32cd" stroke-dasharray="5,2" d="M202.79,-160.13C210.63,-191.25 230.46,-250.83 272,-279.24 295.03,-295 369.84,-299.54 418.29,-300.81"/>
<polygon fill="#9a32cd" stroke="#9a32cd" points="206.12,-159 200.42,-150.06 199.3,-160.6 206.12,-159"/>
<text text-anchor="middle" x="333" y="-313.24" font-family="Helvetica,sans-Serif" font-size="10.00"> os</text>
<text text-anchor="middle" x="333" y="-302.24" font-family="Helvetica,sans-Serif" font-size="10.00">ostree_server</text>
</g>
<!-- Node12 -->
<g id="node12" class="node">
<title>Node12</title>
<g id="a_node12"><a xlink:href="struct_provision_config.html" target="_top" xlink:title="ProvisionConfig">
<polygon fill="white" stroke="black" points="416.5,-253.74 416.5,-272.74 508.5,-272.74 508.5,-253.74 416.5,-253.74"/>
<text text-anchor="middle" x="462.5" y="-260.74" font-family="Helvetica,sans-Serif" font-size="10.00">ProvisionConfig</text>
</a>
</g>
</g>
<!-- Node8&#45;&gt;Node12 -->
<g id="edge13" class="edge">
<title>Node8&#45;&gt;Node12</title>
<path fill="none" stroke="#9a32cd" stroke-dasharray="5,2" d="M240.32,-150.23C250.65,-152.61 261.71,-155.08 272,-157.24 326,-168.57 353.31,-142.98 394,-180.24 415.79,-200.2 392.09,-222.41 412,-244.24 415.47,-248.05 419.8,-251.1 424.43,-253.55"/>
<polygon fill="#9a32cd" stroke="#9a32cd" points="240.81,-146.75 230.27,-147.89 239.22,-153.57 240.81,-146.75"/>
<text text-anchor="middle" x="333" y="-271.24" font-family="Helvetica,sans-Serif" font-size="10.00"> server</text>
<text text-anchor="middle" x="333" y="-260.24" font-family="Helvetica,sans-Serif" font-size="10.00">p12_password</text>
<text text-anchor="start" x="277" y="-249.24" font-family="Helvetica,sans-Serif" font-size="10.00">primary_ecu_hardware</text>
<text text-anchor="middle" x="333" y="-238.24" font-family="Helvetica,sans-Serif" font-size="10.00">_id</text>
<text text-anchor="middle" x="333" y="-227.24" font-family="Helvetica,sans-Serif" font-size="10.00">expiry_days</text>
<text text-anchor="middle" x="333" y="-216.24" font-family="Helvetica,sans-Serif" font-size="10.00">device_id</text>
<text text-anchor="start" x="277" y="-205.24" font-family="Helvetica,sans-Serif" font-size="10.00">ecu_registration</text>
<text text-anchor="middle" x="333" y="-194.24" font-family="Helvetica,sans-Serif" font-size="10.00">_endpoint</text>
<text text-anchor="middle" x="333" y="-183.24" font-family="Helvetica,sans-Serif" font-size="10.00">primary_ecu_serial</text>
</g>
<!-- Node13 -->
<g id="node13" class="node">
<title>Node13</title>
<g id="a_node13"><a xlink:href="struct_p11_config.html" target="_top" xlink:title="P11Config">
<polygon fill="white" stroke="black" points="430,-215.74 430,-234.74 495,-234.74 495,-215.74 430,-215.74"/>
<text text-anchor="middle" x="462.5" y="-222.74" font-family="Helvetica,sans-Serif" font-size="10.00">P11Config</text>
</a>
</g>
</g>
<!-- Node8&#45;&gt;Node13 -->
<g id="edge15" class="edge">
<title>Node8&#45;&gt;Node13</title>
<path fill="none" stroke="#9a32cd" stroke-dasharray="5,2" d="M221.19,-125.27C260.99,-101.07 343.92,-60.09 394,-102.24 429.89,-132.45 382.22,-170 412,-206.24 416.62,-211.86 423.1,-215.82 429.85,-218.61"/>
<polygon fill="#9a32cd" stroke="#9a32cd" points="219.1,-122.45 212.48,-130.72 222.82,-128.38 219.1,-122.45"/>
<text text-anchor="middle" x="333" y="-149.24" font-family="Helvetica,sans-Serif" font-size="10.00"> tls_pkey_id</text>
<text text-anchor="middle" x="333" y="-138.24" font-family="Helvetica,sans-Serif" font-size="10.00">tls_clientcert_id</text>
<text text-anchor="middle" x="333" y="-127.24" font-family="Helvetica,sans-Serif" font-size="10.00">pass</text>
<text text-anchor="middle" x="333" y="-116.24" font-family="Helvetica,sans-Serif" font-size="10.00">uptane_key_id</text>
<text text-anchor="middle" x="333" y="-105.24" font-family="Helvetica,sans-Serif" font-size="10.00">tls_cacert_id</text>
</g>
<!-- Node14 -->
<g id="node14" class="node">
<title>Node14</title>
<g id="a_node14"><a xlink:href="struct_uptane_config.html" target="_top" xlink:title="UptaneConfig">
<polygon fill="white" stroke="black" points="421,-177.74 421,-196.74 504,-196.74 504,-177.74 421,-177.74"/>
<text text-anchor="middle" x="462.5" y="-184.74" font-family="Helvetica,sans-Serif" font-size="10.00">UptaneConfig</text>
</a>
</g>
</g>
<!-- Node8&#45;&gt;Node14 -->
<g id="edge17" class="edge">
<title>Node8&#45;&gt;Node14</title>
<path fill="none" stroke="#9a32cd" stroke-dasharray="5,2" d="M208.41,-121.8C220.42,-101.63 242.74,-70.42 272,-57.24 321.44,-34.98 352.7,-22.1 394,-57.24 432.06,-89.63 380.48,-129.46 412,-168.24 415.14,-172.1 419.15,-175.17 423.53,-177.63"/>
<polygon fill="#9a32cd" stroke="#9a32cd" points="205.25,-120.27 203.35,-130.69 211.34,-123.73 205.25,-120.27"/>
<text text-anchor="middle" x="333" y="-71.24" font-family="Helvetica,sans-Serif" font-size="10.00"> repo_server</text>
<text text-anchor="middle" x="333" y="-60.24" font-family="Helvetica,sans-Serif" font-size="10.00">director_server</text>
</g>
<!-- Node17 -->
<g id="node17" class="node">
<title>Node17</title>
<g id="a_node17"><a xlink:href="struct_bootloader_config.html" target="_top" xlink:title="BootloaderConfig">
<polygon fill="white" stroke="black" points="412,-139.74 412,-158.74 513,-158.74 513,-139.74 412,-139.74"/>
<text text-anchor="middle" x="462.5" y="-146.74" font-family="Helvetica,sans-Serif" font-size="10.00">BootloaderConfig</text>
</a>
</g>
</g>
<!-- Node8&#45;&gt;Node17 -->
<g id="edge22" class="edge">
<title>Node8&#45;&gt;Node17</title>
<path fill="none" stroke="#9a32cd" stroke-dasharray="5,2" d="M204.08,-121C213.2,-93.54 234.19,-44.14 272,-23.24 319.46,2.99 352.6,11.77 394,-23.24 430.82,-54.38 381.47,-92.91 412,-130.24 415.15,-134.09 419.17,-137.16 423.56,-139.61"/>
<polygon fill="#9a32cd" stroke="#9a32cd" points="200.71,-120.06 201.06,-130.65 207.39,-122.15 200.71,-120.06"/>
<text text-anchor="middle" x="333" y="-26.24" font-family="Helvetica,sans-Serif" font-size="10.00"> reboot_command</text>
</g>
<!-- Node9 -->
<g id="node9" class="node">
<title>Node9</title>
<g id="a_node9"><a xlink:title="STL class. ">
<polygon fill="white" stroke="#bfbfbf" points="0,-125.24 0,-155.24 104,-155.24 104,-125.24 0,-125.24"/>
<text text-anchor="start" x="8" y="-143.24" font-family="Helvetica,sans-Serif" font-size="10.00">std::basic_string&lt;</text>
<text text-anchor="middle" x="52" y="-132.24" font-family="Helvetica,sans-Serif" font-size="10.00"> char &gt;</text>
</a>
</g>
</g>
<!-- Node9&#45;&gt;Node8 -->
<g id="edge8" class="edge">
<title>Node9&#45;&gt;Node8</title>
<path fill="none" stroke="midnightblue" d="M114.45,-140.24C131.74,-140.24 149.84,-140.24 164.63,-140.24"/>
<polygon fill="midnightblue" stroke="midnightblue" points="114.4,-136.74 104.4,-140.24 114.4,-143.74 114.4,-136.74"/>
</g>
<!-- Node10 -->
<g id="node10" class="node">
<title>Node10</title>
<g id="a_node10"><a xlink:href="struct_logger_config.html" target="_top" xlink:title="LoggerConfig">
<polygon fill="white" stroke="black" points="422.5,-101.74 422.5,-120.74 502.5,-120.74 502.5,-101.74 422.5,-101.74"/>
<text text-anchor="middle" x="462.5" y="-108.74" font-family="Helvetica,sans-Serif" font-size="10.00">LoggerConfig</text>
</a>
</g>
</g>
<!-- Node10&#45;&gt;Node2 -->
<g id="edge9" class="edge">
<title>Node10&#45;&gt;Node2</title>
<path fill="none" stroke="#9a32cd" stroke-dasharray="5,2" d="M512.68,-112.69C537.74,-115.89 567.04,-123.76 587,-142.24 619.84,-172.64 626.07,-230.4 627.24,-253.42"/>
<polygon fill="#9a32cd" stroke="#9a32cd" points="512.92,-109.19 502.6,-111.62 512.18,-116.16 512.92,-109.19"/>
<text text-anchor="middle" x="559" y="-145.24" font-family="Helvetica,sans-Serif" font-size="10.00"> logger</text>
</g>
<!-- Node11&#45;&gt;Node2 -->
<g id="edge10" class="edge">
<title>Node11&#45;&gt;Node2</title>
<path fill="none" stroke="#9a32cd" stroke-dasharray="5,2" d="M516.82,-292.58C538.72,-288.58 564.24,-283.36 587,-277.24 592.89,-275.66 599.16,-273.65 604.97,-271.66"/>
<polygon fill="#9a32cd" stroke="#9a32cd" points="515.94,-289.18 506.71,-294.38 517.17,-296.07 515.94,-289.18"/>
<text text-anchor="middle" x="559" y="-292.24" font-family="Helvetica,sans-Serif" font-size="10.00"> pacman</text>
</g>
<!-- Node12&#45;&gt;Node2 -->
<g id="edge12" class="edge">
<title>Node12&#45;&gt;Node2</title>
<path fill="none" stroke="#9a32cd" stroke-dasharray="5,2" d="M518.86,-263.24C548.11,-263.24 582.44,-263.24 604.56,-263.24"/>
<polygon fill="#9a32cd" stroke="#9a32cd" points="518.75,-259.74 508.75,-263.24 518.75,-266.74 518.75,-259.74"/>
<text text-anchor="middle" x="559" y="-266.24" font-family="Helvetica,sans-Serif" font-size="10.00"> provision</text>
</g>
<!-- Node13&#45;&gt;Node2 -->
<g id="edge14" class="edge">
<title>Node13&#45;&gt;Node2</title>
<path fill="none" stroke="#9a32cd" stroke-dasharray="5,2" d="M504.96,-231.15C529.13,-235.04 560.05,-240.8 587,-248.24 592.78,-249.84 598.91,-251.9 604.59,-253.99"/>
<polygon fill="#9a32cd" stroke="#9a32cd" points="505.47,-227.69 495.05,-229.6 504.39,-234.61 505.47,-227.69"/>
<text text-anchor="middle" x="559" y="-251.24" font-family="Helvetica,sans-Serif" font-size="10.00"> p11</text>
</g>
<!-- Node14&#45;&gt;Node2 -->
<g id="edge16" class="edge">
<title>Node14&#45;&gt;Node2</title>
<path fill="none" stroke="#9a32cd" stroke-dasharray="5,2" d="M514.16,-194.23C537.53,-199.05 564.92,-207.06 587,-220.24 601.26,-228.76 613.69,-243.72 620.9,-253.55"/>
<polygon fill="#9a32cd" stroke="#9a32cd" points="514.56,-190.75 504.08,-192.3 513.24,-197.62 514.56,-190.75"/>
<text text-anchor="middle" x="559" y="-223.24" font-family="Helvetica,sans-Serif" font-size="10.00"> uptane</text>
</g>
<!-- Node15 -->
<g id="node15" class="node">
<title>Node15</title>
<g id="a_node15"><a xlink:href="struct_telemetry_config.html" target="_top" xlink:title="TelemetryConfig">
<polygon fill="white" stroke="black" points="414.5,-63.74 414.5,-82.74 510.5,-82.74 510.5,-63.74 414.5,-63.74"/>
<text text-anchor="middle" x="462.5" y="-70.74" font-family="Helvetica,sans-Serif" font-size="10.00">TelemetryConfig</text>
</a>
</g>
</g>
<!-- Node15&#45;&gt;Node2 -->
<g id="edge18" class="edge">
<title>Node15&#45;&gt;Node2</title>
<path fill="none" stroke="#9a32cd" stroke-dasharray="5,2" d="M520.9,-73.1C544.16,-75.98 569.59,-83.32 587,-100.24 609.48,-122.09 622.77,-222.21 626.45,-253.72"/>
<polygon fill="#9a32cd" stroke="#9a32cd" points="521.04,-69.6 510.75,-72.1 520.36,-76.56 521.04,-69.6"/>
<text text-anchor="middle" x="559" y="-103.24" font-family="Helvetica,sans-Serif" font-size="10.00"> telemetry</text>
</g>
<!-- Node16&#45;&gt;Node2 -->
<g id="edge19" class="edge">
<title>Node16&#45;&gt;Node2</title>
<path fill="none" stroke="#9a32cd" stroke-dasharray="5,2" d="M512.48,-373.28C537.08,-368.18 566.03,-358.73 587,-341.24 609.03,-322.87 620.54,-289.42 625.11,-272.94"/>
<polygon fill="#9a32cd" stroke="#9a32cd" points="511.77,-369.86 502.59,-375.15 513.07,-376.73 511.77,-369.86"/>
<text text-anchor="middle" x="559" y="-370.24" font-family="Helvetica,sans-Serif" font-size="10.00"> import</text>
</g>
<!-- Node17&#45;&gt;Node2 -->
<g id="edge21" class="edge">
<title>Node17&#45;&gt;Node2</title>
<path fill="none" stroke="#9a32cd" stroke-dasharray="5,2" d="M523.16,-155.42C545.13,-160.17 569.01,-168.53 587,-183.24 609.78,-201.87 621,-236.6 625.31,-253.5"/>
<polygon fill="#9a32cd" stroke="#9a32cd" points="523.72,-151.96 513.23,-153.48 522.38,-158.83 523.72,-151.96"/>
<text text-anchor="middle" x="559" y="-186.24" font-family="Helvetica,sans-Serif" font-size="10.00"> bootloader</text>
</g>
</g>
</svg>
        <g id="navigator" transform="translate(0 0)" fill="#404254">
                <rect fill="#f2f5e9" fill-opacity="0.5" stroke="#606060" stroke-width=".5" x="0" y="0" width="60" height="60"/>
                <use id="zoomplus" xlink:href="#zoomPlus" x="17" y="9" onmousedown="handleZoom(evt,'in')"/>
                <use id="zoomminus" xlink:href="#zoomMin" x="42" y="9" onmousedown="handleZoom(evt,'out')"/>
                <use id="reset" xlink:href="#resetDef" x="30" y="36" onmousedown="handleReset()"/>
                <g id="arrowUp" xlink:href="#dirArrow" transform="translate(30 24)" onmousedown="handlePan(0,-1)">
                  <use xlink:href="#rim" fill="#404040">
                        <set attributeName="fill" to="#808080" begin="arrowUp.mouseover" end="arrowUp.mouseout"/>
                  </use>
                  <path fill="none" stroke="white" stroke-width="1.5" d="M0,-3.0v7 M-2.5,-0.5L0,-3.0L2.5,-0.5"/>
                </g>
                <g id="arrowRight" xlink:href="#dirArrow" transform="rotate(90) translate(36 -43)" onmousedown="handlePan(1,0)">
                  <use xlink:href="#rim" fill="#404040">
                        <set attributeName="fill" to="#808080" begin="arrowRight.mouseover" end="arrowRight.mouseout"/>
                  </use>
                  <path fill="none" stroke="white" stroke-width="1.5" d="M0,-3.0v7 M-2.5,-0.5L0,-3.0L2.5,-0.5"/>
                </g>
                <g id="arrowDown" xlink:href="#dirArrow" transform="rotate(180) translate(-30 -48)" onmousedown="handlePan(0,1)">
                  <use xlink:href="#rim" fill="#404040">
                        <set attributeName="fill" to="#808080" begin="arrowDown.mouseover" end="arrowDown.mouseout"/>
                  </use>
                  <path fill="none" stroke="white" stroke-width="1.5" d="M0,-3.0v7 M-2.5,-0.5L0,-3.0L2.5,-0.5"/>
                </g>
                <g id="arrowLeft" xlink:href="#dirArrow" transform="rotate(270) translate(-36 17)" onmousedown="handlePan(-1,0)">
                  <use xlink:href="#rim" fill="#404040">
                        <set attributeName="fill" to="#808080" begin="arrowLeft.mouseover" end="arrowLeft.mouseout"/>
                  </use>
                  <path fill="none" stroke="white" stroke-width="1.5" d="M0,-3.0v7 M-2.5,-0.5L0,-3.0L2.5,-0.5"/>
                </g>
        </g>
        <svg viewBox="0 0 15 15" width="100%" height="30px" preserveAspectRatio="xMaxYMin meet">
         <g id="arrow_out" transform="scale(0.3 0.3)">
          <a xlink:href="struct_lite_client__coll__graph_org.svg" target="_base">
           <rect id="button" ry="5" rx="5" y="6" x="6" height="38" width="38"
                fill="#f2f5e9" fill-opacity="0.5" stroke="#606060" stroke-width="1.0"/>
           <path id="arrow"
             d="M 11.500037,31.436501 C 11.940474,20.09759 22.043105,11.32322 32.158766,21.979434 L 37.068811,17.246167 C 37.068811,17.246167 37.088388,32 37.088388,32 L 22.160133,31.978069 C 22.160133,31.978069 26.997745,27.140456 26.997745,27.140456 C 18.528582,18.264221 13.291696,25.230495 11.500037,31.436501 z"
             style="fill:#404040;"/>
          </a>
         </g>
        </svg>
</svg>
