<?xml version="1.0" encoding="UTF-8" standalone="no"?>
<!DOCTYPE svg PUBLIC "-//W3C//DTD SVG 1.1//EN"
 "http://www.w3.org/Graphics/SVG/1.1/DTD/svg11.dtd">
<!-- Generated by graphviz version 2.43.0 (0)
 -->
<!-- Title: TempSQLDb Pages: 1 -->
<svg width="160pt" height="173pt"
 viewBox="0.00 0.00 160.00 173.00" xmlns="http://www.w3.org/2000/svg" xmlns:xlink="http://www.w3.org/1999/xlink">
<g id="graph0" class="graph" transform="scale(1 1) rotate(0) translate(4 169)">
<title>TempSQLDb</title>
<polygon fill="white" stroke="transparent" points="-4,4 -4,-169 156,-169 156,4 -4,4"/>
<!-- Node1 -->
<g id="node1" class="node">
<title>Node1</title>
<polygon fill="#bfbfbf" stroke="black" points="38.5,-0.5 38.5,-19.5 113.5,-19.5 113.5,-0.5 38.5,-0.5"/>
<text text-anchor="middle" x="76" y="-7.5" font-family="Helvetica,sans-Serif" font-size="10.00">TempSQLDb</text>
</g>
<!-- Node2 -->
<g id="node2" class="node">
<title>Node2</title>
<polygon fill="white" stroke="#bfbfbf" points="0,-67.5 0,-97.5 152,-97.5 152,-67.5 0,-67.5"/>
<text text-anchor="start" x="8" y="-85.5" font-family="Helvetica,sans-Serif" font-size="10.00">std::unique_ptr&lt; Temporary</text>
<text text-anchor="middle" x="76" y="-74.5" font-family="Helvetica,sans-Serif" font-size="10.00">Directory &gt;</text>
</g>
<!-- Node2&#45;&gt;Node1 -->
<g id="edge1" class="edge">
<title>Node2&#45;&gt;Node1</title>
<path fill="none" stroke="#9a32cd" stroke-dasharray="5,2" d="M76,-57.09C76,-44.21 76,-29.2 76,-19.89"/>
<polygon fill="#9a32cd" stroke="#9a32cd" points="72.5,-57.23 76,-67.23 79.5,-57.23 72.5,-57.23"/>
<text text-anchor="middle" x="84" y="-41" font-family="Helvetica,sans-Serif" font-size="10.00"> dir</text>
</g>
<!-- Node3 -->
<g id="node3" class="node">
<title>Node3</title>
<g id="a_node3"><a xlink:href="class_temporary_directory.html" target="_top" xlink:title="TemporaryDirectory">
<polygon fill="white" stroke="black" points="19.5,-145.5 19.5,-164.5 132.5,-164.5 132.5,-145.5 19.5,-145.5"/>
<text text-anchor="middle" x="76" y="-152.5" font-family="Helvetica,sans-Serif" font-size="10.00">TemporaryDirectory</text>
</a>
</g>
</g>
<!-- Node3&#45;&gt;Node2 -->
<g id="edge2" class="edge">
<title>Node3&#45;&gt;Node2</title>
<path fill="none" stroke="#9a32cd" stroke-dasharray="5,2" d="M76,-135.24C76,-123.41 76,-108.38 76,-97.58"/>
<polygon fill="#9a32cd" stroke="#9a32cd" points="72.5,-135.36 76,-145.36 79.5,-135.36 72.5,-135.36"/>
<text text-anchor="middle" x="84.5" y="-119" font-family="Helvetica,sans-Serif" font-size="10.00"> ptr</text>
</g>
</g>
</svg>
