<?xml version="1.0" encoding="UTF-8" standalone="no"?>
<!DOCTYPE svg PUBLIC "-//W3C//DTD SVG 1.1//EN"
 "http://www.w3.org/Graphics/SVG/1.1/DTD/svg11.dtd">
<!-- Generated by graphviz version 2.43.0 (0)
 -->
<!-- Title: Graphical Class Hierarchy Pages: 1 -->
<svg width="420pt" height="256pt"
 viewBox="0.00 0.00 420.00 256.00" xmlns="http://www.w3.org/2000/svg" xmlns:xlink="http://www.w3.org/1999/xlink">
<g id="graph0" class="graph" transform="scale(1 1) rotate(0) translate(4 252)">
<title>Graphical Class Hierarchy</title>
<polygon fill="white" stroke="transparent" points="-4,4 -4,-252 416,-252 416,4 -4,4"/>
<!-- Node36 -->
<g id="node1" class="node">
<title>Node36</title>
<g id="a_node1"><a xlink:title=" ">
<polygon fill="white" stroke="#bfbfbf" points="0,-133.5 0,-152.5 36,-152.5 36,-133.5 0,-133.5"/>
<text text-anchor="middle" x="18" y="-140.5" font-family="Helvetica,sans-Serif" font-size="10.00">Test</text>
</a>
</g>
</g>
<!-- Node37 -->
<g id="node2" class="node">
<title>Node37</title>
<g id="a_node2"><a xlink:href="class_aktualizr_cert_provider_test.html" target="_top" xlink:title=" ">
<polygon fill="white" stroke="black" points="88.5,-228.5 88.5,-247.5 228.5,-247.5 228.5,-228.5 88.5,-228.5"/>
<text text-anchor="middle" x="158.5" y="-235.5" font-family="Helvetica,sans-Serif" font-size="10.00">AktualizrCertProviderTest</text>
</a>
</g>
</g>
<!-- Node36&#45;&gt;Node37 -->
<g id="edge1" class="edge">
<title>Node36&#45;&gt;Node37</title>
<path fill="none" stroke="midnightblue" d="M27.21,-161.95C35.81,-179.49 51,-204.93 72,-219 77.81,-222.89 84.29,-226 91.02,-228.48"/>
<polygon fill="midnightblue" stroke="midnightblue" points="30.29,-160.28 22.91,-152.68 23.94,-163.22 30.29,-160.28"/>
</g>
<!-- Node38 -->
<g id="node3" class="node">
<title>Node38</title>
<g id="a_node3"><a xlink:href="class_aktualizr_info_test.html" target="_top" xlink:title=" ">
<polygon fill="white" stroke="black" points="109.5,-190.5 109.5,-209.5 207.5,-209.5 207.5,-190.5 109.5,-190.5"/>
<text text-anchor="middle" x="158.5" y="-197.5" font-family="Helvetica,sans-Serif" font-size="10.00">AktualizrInfoTest</text>
</a>
</g>
</g>
<!-- Node36&#45;&gt;Node38 -->
<g id="edge2" class="edge">
<title>Node36&#45;&gt;Node38</title>
<path fill="none" stroke="midnightblue" d="M37.32,-158.96C47.04,-166.66 59.53,-175.43 72,-181 83.66,-186.21 96.87,-190.05 109.37,-192.85"/>
<polygon fill="midnightblue" stroke="midnightblue" points="39.51,-156.22 29.56,-152.57 35.05,-161.63 39.51,-156.22"/>
</g>
<!-- Node39 -->
<g id="node4" class="node">
<title>Node39</title>
<g id="a_node4"><a xlink:href="class_partial_verification_secondary_test.html" target="_top" xlink:title=" ">
<polygon fill="white" stroke="black" points="72,-152.5 72,-171.5 245,-171.5 245,-152.5 72,-152.5"/>
<text text-anchor="middle" x="158.5" y="-159.5" font-family="Helvetica,sans-Serif" font-size="10.00">PartialVerificationSecondaryTest</text>
</a>
</g>
</g>
<!-- Node36&#45;&gt;Node39 -->
<g id="edge3" class="edge">
<title>Node36&#45;&gt;Node39</title>
<path fill="none" stroke="midnightblue" d="M46.5,-146.77C58.57,-148.43 73.32,-150.45 88.09,-152.48"/>
<polygon fill="midnightblue" stroke="midnightblue" points="46.64,-143.26 36.26,-145.37 45.69,-150.19 46.64,-143.26"/>
</g>
<!-- Node40 -->
<g id="node5" class="node">
<title>Node40</title>
<g id="a_node5"><a xlink:href="class_secondary_ostree_test.html" target="_top" xlink:title=" ">
<polygon fill="white" stroke="black" points="99,-114.5 99,-133.5 218,-133.5 218,-114.5 99,-114.5"/>
<text text-anchor="middle" x="158.5" y="-121.5" font-family="Helvetica,sans-Serif" font-size="10.00">SecondaryOstreeTest</text>
</a>
</g>
</g>
<!-- Node36&#45;&gt;Node40 -->
<g id="edge4" class="edge">
<title>Node36&#45;&gt;Node40</title>
<path fill="none" stroke="midnightblue" d="M46.37,-139.24C61.38,-137.19 80.59,-134.55 98.81,-132.05"/>
<polygon fill="midnightblue" stroke="midnightblue" points="45.69,-135.81 36.26,-140.63 46.64,-142.74 45.69,-135.81"/>
</g>
<!-- Node41 -->
<g id="node6" class="node">
<title>Node41</title>
<g id="a_node6"><a xlink:href="class_secondary_test.html" target="_top" xlink:title=" ">
<polygon fill="white" stroke="black" points="115,-76.5 115,-95.5 202,-95.5 202,-76.5 115,-76.5"/>
<text text-anchor="middle" x="158.5" y="-83.5" font-family="Helvetica,sans-Serif" font-size="10.00">SecondaryTest</text>
</a>
</g>
</g>
<!-- Node36&#45;&gt;Node41 -->
<g id="edge5" class="edge">
<title>Node36&#45;&gt;Node41</title>
<path fill="none" stroke="midnightblue" d="M37.32,-127.04C47.04,-119.34 59.53,-110.57 72,-105 85.33,-99.04 100.68,-94.88 114.67,-92.01"/>
<polygon fill="midnightblue" stroke="midnightblue" points="35.05,-124.37 29.56,-133.43 39.51,-129.78 35.05,-124.37"/>
</g>
<!-- Node42 -->
<g id="node8" class="node">
<title>Node42</title>
<g id="a_node8"><a xlink:href="class_virtual_secondary_test.html" target="_top" xlink:title=" ">
<polygon fill="white" stroke="black" points="99,-38.5 99,-57.5 218,-57.5 218,-38.5 99,-38.5"/>
<text text-anchor="middle" x="158.5" y="-45.5" font-family="Helvetica,sans-Serif" font-size="10.00">VirtualSecondaryTest</text>
</a>
</g>
</g>
<!-- Node36&#45;&gt;Node42 -->
<g id="edge7" class="edge">
<title>Node36&#45;&gt;Node42</title>
<path fill="none" stroke="midnightblue" d="M27.21,-124.05C35.81,-106.51 51,-81.07 72,-67 79.96,-61.67 89.18,-57.81 98.56,-55.02"/>
<polygon fill="midnightblue" stroke="midnightblue" points="23.94,-122.78 22.91,-133.32 30.29,-125.72 23.94,-122.78"/>
</g>
<!-- Node0 -->
<g id="node7" class="node">
<title>Node0</title>
<g id="a_node7"><a xlink:href="class_secondary_test_negative.html" target="_top" xlink:title=" ">
<polygon fill="white" stroke="black" points="281,-38.5 281,-57.5 412,-57.5 412,-38.5 281,-38.5"/>
<text text-anchor="middle" x="346.5" y="-45.5" font-family="Helvetica,sans-Serif" font-size="10.00">SecondaryTestNegative</text>
</a>
</g>
</g>
<!-- Node41&#45;&gt;Node0 -->
<g id="edge6" class="edge">
<title>Node41&#45;&gt;Node0</title>
<path fill="none" stroke="midnightblue" d="M212.31,-75.21C239.55,-69.65 272.48,-62.92 298.79,-57.54"/>
<polygon fill="midnightblue" stroke="midnightblue" points="211.27,-71.85 202.17,-77.28 212.67,-78.71 211.27,-71.85"/>
</g>
<!-- Node2 -->
<g id="node9" class="node">
<title>Node2</title>
<g id="a_node9"><a xlink:title=" ">
<polygon fill="white" stroke="#bfbfbf" points="102,-0.5 102,-19.5 215,-19.5 215,-0.5 102,-0.5"/>
<text text-anchor="middle" x="158.5" y="-7.5" font-family="Helvetica,sans-Serif" font-size="10.00">WithParamInterface</text>
</a>
</g>
</g>
<!-- Node2&#45;&gt;Node0 -->
<g id="edge8" class="edge">
<title>Node2&#45;&gt;Node0</title>
<path fill="none" stroke="midnightblue" d="M216.33,-21.61C242.78,-27.01 273.86,-33.36 298.9,-38.48"/>
<polygon fill="midnightblue" stroke="midnightblue" points="216.93,-18.16 206.44,-19.59 215.53,-25.02 216.93,-18.16"/>
</g>
</g>
</svg>
