<?xml version="1.0" encoding="UTF-8" standalone="no"?>
<!DOCTYPE svg PUBLIC "-//W3C//DTD SVG 1.1//EN"
 "http://www.w3.org/Graphics/SVG/1.1/DTD/svg11.dtd">
<!-- Generated by graphviz version 2.40.1 (20161225.0304)
 -->
<!-- Title: Uptane::IpUptaneSecondary Pages: 1 -->
<svg width="156pt" height="319pt"
 viewBox="0.00 0.00 155.82 319.00" xmlns="http://www.w3.org/2000/svg" xmlns:xlink="http://www.w3.org/1999/xlink">
<g id="graph0" class="graph" transform="scale(1 1) rotate(0) translate(4 315)">
<title>Uptane::IpUptaneSecondary</title>
<polygon fill="#ffffff" stroke="transparent" points="-4,4 -4,-315 151.8169,-315 151.8169,4 -4,4"/>
<!-- Node2 -->
<g id="node1" class="node">
<title>Node2</title>
<polygon fill="#bfbfbf" stroke="#000000" points="0,-.5 0,-18.5 142.1963,-18.5 142.1963,-.5 0,-.5"/>
<text text-anchor="middle" x="71.0981" y="-6.5" font-family="Helvetica,sans-Serif" font-size="10.00" fill="#000000">Uptane::IpUptaneSecondary</text>
</g>
<!-- Node3 -->
<g id="node2" class="node">
<title>Node3</title>
<g id="a_node2"><a xlink:href="class_uptane_1_1_secondary_interface.html" target="_top" xlink:title="Uptane::SecondaryInterface">
<polygon fill="#ffffff" stroke="#000000" points=".8374,-56.5 .8374,-74.5 141.3589,-74.5 141.3589,-56.5 .8374,-56.5"/>
<text text-anchor="middle" x="71.0981" y="-62.5" font-family="Helvetica,sans-Serif" font-size="10.00" fill="#000000">Uptane::SecondaryInterface</text>
</a>
</g>
</g>
<!-- Node3&#45;&gt;Node2 -->
<g id="edge1" class="edge">
<title>Node3&#45;&gt;Node2</title>
<path fill="none" stroke="#191970" d="M71.0981,-46.2065C71.0981,-36.8384 71.0981,-26.0262 71.0981,-18.5752"/>
<polygon fill="#191970" stroke="#191970" points="67.5982,-46.2527 71.0981,-56.2527 74.5982,-46.2528 67.5982,-46.2527"/>
</g>
<!-- Node4 -->
<g id="node3" class="node">
<title>Node4</title>
<g id="a_node3"><a xlink:href="class_uptane_1_1_secondary_config.html" target="_top" xlink:title="Uptane::SecondaryConfig">
<polygon fill="#ffffff" stroke="#000000" points="5.8398,-121.5 5.8398,-139.5 136.3564,-139.5 136.3564,-121.5 5.8398,-121.5"/>
<text text-anchor="middle" x="71.0981" y="-127.5" font-family="Helvetica,sans-Serif" font-size="10.00" fill="#000000">Uptane::SecondaryConfig</text>
</a>
</g>
</g>
<!-- Node4&#45;&gt;Node3 -->
<g id="edge2" class="edge">
<title>Node4&#45;&gt;Node3</title>
<path fill="none" stroke="#9a32cd" stroke-dasharray="5,2" d="M71.0981,-111.1265C71.0981,-99.1522 71.0981,-84.3205 71.0981,-74.8821"/>
<polygon fill="#9a32cd" stroke="#9a32cd" points="67.5982,-111.462 71.0981,-121.462 74.5982,-111.4621 67.5982,-111.462"/>
<text text-anchor="middle" x="88.3296" y="-95" font-family="Helvetica,sans-Serif" font-size="10.00" fill="#000000"> sconfig</text>
</g>
<!-- Node5 -->
<g id="node4" class="node">
<title>Node5</title>
<g id="a_node4"><a xlink:title="STL class. ">
<polygon fill="#ffffff" stroke="#bfbfbf" points="41.4233,-226.5 41.4233,-244.5 100.7729,-244.5 100.7729,-226.5 41.4233,-226.5"/>
<text text-anchor="middle" x="71.0981" y="-232.5" font-family="Helvetica,sans-Serif" font-size="10.00" fill="#000000">std::string</text>
</a>
</g>
</g>
<!-- Node5&#45;&gt;Node4 -->
<g id="edge3" class="edge">
<title>Node5&#45;&gt;Node4</title>
<path fill="none" stroke="#9a32cd" stroke-dasharray="5,2" d="M71.0981,-216.0056C71.0981,-193.2586 71.0981,-156.6045 71.0981,-139.6472"/>
<polygon fill="#9a32cd" stroke="#9a32cd" points="67.5982,-216.1819 71.0981,-226.182 74.5982,-216.182 67.5982,-216.1819"/>
<text text-anchor="middle" x="109.4575" y="-200" font-family="Helvetica,sans-Serif" font-size="10.00" fill="#000000"> ecu_private_key</text>
<text text-anchor="middle" x="109.4575" y="-190" font-family="Helvetica,sans-Serif" font-size="10.00" fill="#000000">ecu_hardware_id</text>
<text text-anchor="middle" x="109.4575" y="-180" font-family="Helvetica,sans-Serif" font-size="10.00" fill="#000000">ecu_serial</text>
<text text-anchor="middle" x="109.4575" y="-170" font-family="Helvetica,sans-Serif" font-size="10.00" fill="#000000">opcua_lds_url</text>
<text text-anchor="middle" x="109.4575" y="-160" font-family="Helvetica,sans-Serif" font-size="10.00" fill="#000000">ecu_public_key</text>
</g>
<!-- Node6 -->
<g id="node5" class="node">
<title>Node6</title>
<g id="a_node5"><a xlink:title="STL class. ">
<polygon fill="#ffffff" stroke="#bfbfbf" points="24.0503,-282.5 24.0503,-310.5 118.146,-310.5 118.146,-282.5 24.0503,-282.5"/>
<text text-anchor="start" x="32.0503" y="-298.5" font-family="Helvetica,sans-Serif" font-size="10.00" fill="#000000">std::basic_string&lt;</text>
<text text-anchor="middle" x="71.0981" y="-288.5" font-family="Helvetica,sans-Serif" font-size="10.00" fill="#000000"> char &gt;</text>
</a>
</g>
</g>
<!-- Node6&#45;&gt;Node5 -->
<g id="edge4" class="edge">
<title>Node6&#45;&gt;Node5</title>
<path fill="none" stroke="#191970" d="M71.0981,-272.1001C71.0981,-262.5157 71.0981,-252.0935 71.0981,-244.831"/>
<polygon fill="#191970" stroke="#191970" points="67.5982,-272.352 71.0981,-282.3521 74.5982,-272.3521 67.5982,-272.352"/>
</g>
</g>
</svg>
