<?xml version="1.0" encoding="UTF-8" standalone="no"?>
<!DOCTYPE svg PUBLIC "-//W3C//DTD SVG 1.1//EN"
 "http://www.w3.org/Graphics/SVG/1.1/DTD/svg11.dtd">
<!-- Generated by graphviz version 2.40.1 (20161225.0304)
 -->
<!-- Title: Uptane::LegacySecondary Pages: 1 -->
<svg width="156pt" height="375pt"
 viewBox="0.00 0.00 156.37 375.00" xmlns="http://www.w3.org/2000/svg" xmlns:xlink="http://www.w3.org/1999/xlink">
<g id="graph0" class="graph" transform="scale(1 1) rotate(0) translate(4 371)">
<title>Uptane::LegacySecondary</title>
<polygon fill="#ffffff" stroke="transparent" points="-4,4 -4,-371 152.3735,-371 152.3735,4 -4,4"/>
<!-- Node3 -->
<g id="node1" class="node">
<title>Node3</title>
<polygon fill="#bfbfbf" stroke="#000000" points="4.7266,-.5 4.7266,-18.5 138.583,-18.5 138.583,-.5 4.7266,-.5"/>
<text text-anchor="middle" x="71.6548" y="-6.5" font-family="Helvetica,sans-Serif" font-size="10.00" fill="#000000">Uptane::LegacySecondary</text>
</g>
<!-- Node4 -->
<g id="node2" class="node">
<title>Node4</title>
<g id="a_node2"><a xlink:href="class_uptane_1_1_managed_secondary.html" target="_top" xlink:title="Uptane::ManagedSecondary">
<polygon fill="#ffffff" stroke="#000000" points="0,-56.5 0,-74.5 143.3096,-74.5 143.3096,-56.5 0,-56.5"/>
<text text-anchor="middle" x="71.6548" y="-62.5" font-family="Helvetica,sans-Serif" font-size="10.00" fill="#000000">Uptane::ManagedSecondary</text>
</a>
</g>
</g>
<!-- Node4&#45;&gt;Node3 -->
<g id="edge1" class="edge">
<title>Node4&#45;&gt;Node3</title>
<path fill="none" stroke="#191970" d="M71.6548,-46.2065C71.6548,-36.8384 71.6548,-26.0262 71.6548,-18.5752"/>
<polygon fill="#191970" stroke="#191970" points="68.1549,-46.2527 71.6548,-56.2527 75.1549,-46.2528 68.1549,-46.2527"/>
</g>
<!-- Node5 -->
<g id="node3" class="node">
<title>Node5</title>
<g id="a_node3"><a xlink:href="class_uptane_1_1_secondary_interface.html" target="_top" xlink:title="Uptane::SecondaryInterface">
<polygon fill="#ffffff" stroke="#000000" points="1.394,-112.5 1.394,-130.5 141.9155,-130.5 141.9155,-112.5 1.394,-112.5"/>
<text text-anchor="middle" x="71.6548" y="-118.5" font-family="Helvetica,sans-Serif" font-size="10.00" fill="#000000">Uptane::SecondaryInterface</text>
</a>
</g>
</g>
<!-- Node5&#45;&gt;Node4 -->
<g id="edge2" class="edge">
<title>Node5&#45;&gt;Node4</title>
<path fill="none" stroke="#191970" d="M71.6548,-102.2065C71.6548,-92.8384 71.6548,-82.0262 71.6548,-74.5752"/>
<polygon fill="#191970" stroke="#191970" points="68.1549,-102.2527 71.6548,-112.2527 75.1549,-102.2528 68.1549,-102.2527"/>
</g>
<!-- Node6 -->
<g id="node4" class="node">
<title>Node6</title>
<g id="a_node4"><a xlink:href="class_uptane_1_1_secondary_config.html" target="_top" xlink:title="Uptane::SecondaryConfig">
<polygon fill="#ffffff" stroke="#000000" points="6.3965,-177.5 6.3965,-195.5 136.9131,-195.5 136.9131,-177.5 6.3965,-177.5"/>
<text text-anchor="middle" x="71.6548" y="-183.5" font-family="Helvetica,sans-Serif" font-size="10.00" fill="#000000">Uptane::SecondaryConfig</text>
</a>
</g>
</g>
<!-- Node6&#45;&gt;Node5 -->
<g id="edge3" class="edge">
<title>Node6&#45;&gt;Node5</title>
<path fill="none" stroke="#9a32cd" stroke-dasharray="5,2" d="M71.6548,-167.1265C71.6548,-155.1522 71.6548,-140.3205 71.6548,-130.8821"/>
<polygon fill="#9a32cd" stroke="#9a32cd" points="68.1549,-167.462 71.6548,-177.462 75.1549,-167.4621 68.1549,-167.462"/>
<text text-anchor="middle" x="88.8862" y="-151" font-family="Helvetica,sans-Serif" font-size="10.00" fill="#000000"> sconfig</text>
</g>
<!-- Node7 -->
<g id="node5" class="node">
<title>Node7</title>
<g id="a_node5"><a xlink:title="STL class. ">
<polygon fill="#ffffff" stroke="#bfbfbf" points="41.98,-282.5 41.98,-300.5 101.3296,-300.5 101.3296,-282.5 41.98,-282.5"/>
<text text-anchor="middle" x="71.6548" y="-288.5" font-family="Helvetica,sans-Serif" font-size="10.00" fill="#000000">std::string</text>
</a>
</g>
</g>
<!-- Node7&#45;&gt;Node6 -->
<g id="edge4" class="edge">
<title>Node7&#45;&gt;Node6</title>
<path fill="none" stroke="#9a32cd" stroke-dasharray="5,2" d="M71.6548,-272.0056C71.6548,-249.2586 71.6548,-212.6045 71.6548,-195.6472"/>
<polygon fill="#9a32cd" stroke="#9a32cd" points="68.1549,-272.1819 71.6548,-282.182 75.1549,-272.182 68.1549,-272.1819"/>
<text text-anchor="middle" x="110.0142" y="-256" font-family="Helvetica,sans-Serif" font-size="10.00" fill="#000000"> ecu_private_key</text>
<text text-anchor="middle" x="110.0142" y="-246" font-family="Helvetica,sans-Serif" font-size="10.00" fill="#000000">ecu_hardware_id</text>
<text text-anchor="middle" x="110.0142" y="-236" font-family="Helvetica,sans-Serif" font-size="10.00" fill="#000000">ecu_serial</text>
<text text-anchor="middle" x="110.0142" y="-226" font-family="Helvetica,sans-Serif" font-size="10.00" fill="#000000">opcua_lds_url</text>
<text text-anchor="middle" x="110.0142" y="-216" font-family="Helvetica,sans-Serif" font-size="10.00" fill="#000000">ecu_public_key</text>
</g>
<!-- Node8 -->
<g id="node6" class="node">
<title>Node8</title>
<g id="a_node6"><a xlink:title="STL class. ">
<polygon fill="#ffffff" stroke="#bfbfbf" points="24.6069,-338.5 24.6069,-366.5 118.7026,-366.5 118.7026,-338.5 24.6069,-338.5"/>
<text text-anchor="start" x="32.6069" y="-354.5" font-family="Helvetica,sans-Serif" font-size="10.00" fill="#000000">std::basic_string&lt;</text>
<text text-anchor="middle" x="71.6548" y="-344.5" font-family="Helvetica,sans-Serif" font-size="10.00" fill="#000000"> char &gt;</text>
</a>
</g>
</g>
<!-- Node8&#45;&gt;Node7 -->
<g id="edge5" class="edge">
<title>Node8&#45;&gt;Node7</title>
<path fill="none" stroke="#191970" d="M71.6548,-328.1001C71.6548,-318.5157 71.6548,-308.0935 71.6548,-300.831"/>
<polygon fill="#191970" stroke="#191970" points="68.1549,-328.352 71.6548,-338.3521 75.1549,-328.3521 68.1549,-328.352"/>
</g>
</g>
</svg>
