<?xml version="1.0" encoding="UTF-8" standalone="no"?>
<!DOCTYPE svg PUBLIC "-//W3C//DTD SVG 1.1//EN"
 "http://www.w3.org/Graphics/SVG/1.1/DTD/svg11.dtd">
<!-- Generated by graphviz version 2.40.1 (20161225.0304)
 -->
<!-- Title: Uptane::Exception Pages: 1 -->
<!--zoomable 471 -->
<svg id="main" version="1.1" xmlns="http://www.w3.org/2000/svg" xmlns:xlink="http://www.w3.org/1999/xlink" xml:space="preserve" onload="init(evt)">
<style type="text/css"><![CDATA[
.edge:hover path { stroke: red; }
.edge:hover polygon { stroke: red; fill: red; }
]]></style>
<script type="text/javascript"><![CDATA[
var edges = document.getElementsByTagName('g');
if (edges && edges.length) {
  for (var i=0;i<edges.length;i++) {
    if (edges[i].id.substr(0,4)=='edge') {
      edges[i].setAttribute('class','edge');
    }
  }
}
]]></script>
        <defs>
                <circle id="rim" cx="0" cy="0" r="7"/>
                <circle id="rim2" cx="0" cy="0" r="3.5"/>
                <g id="zoomPlus">
                        <use xlink:href="#rim" fill="#404040">
                                <set attributeName="fill" to="#808080" begin="zoomplus.mouseover" end="zoomplus.mouseout"/>
                        </use>
                        <path d="M-4,0h8M0,-4v8" fill="none" stroke="white" stroke-width="1.5" pointer-events="none"/>
                </g>
                <g id="zoomMin">
                        <use xlink:href="#rim" fill="#404040">
                                <set attributeName="fill" to="#808080" begin="zoomminus.mouseover" end="zoomminus.mouseout"/>
                        </use>
                        <path d="M-4,0h8" fill="none" stroke="white" stroke-width="1.5" pointer-events="none"/>
                </g>
                <g id="dirArrow">
                        <path fill="none" stroke="white" stroke-width="1.5" d="M0,-3.0v7 M-2.5,-0.5L0,-3.0L2.5,-0.5"/>
                </g>
               <g id="resetDef">
                       <use xlink:href="#rim2" fill="#404040">
                               <set attributeName="fill" to="#808080" begin="reset.mouseover" end="reset.mouseout"/>
                       </use>
               </g>
        </defs>

<script type="text/javascript">
var viewWidth = 525;
var viewHeight = 471;
var sectionId = 'dynsection-0';
</script>
<script xlink:href="svgpan.js"/>
<svg id="graph" class="graph">
<g id="viewport">
<title>Uptane::Exception</title>
<polygon fill="#ffffff" stroke="transparent" points="-4,4 -4,-467 521.2051,-467 521.2051,4 -4,4"/>
<!-- Node0 -->
<g id="node1" class="node">
<title>Node0</title>
<polygon fill="#bfbfbf" stroke="#000000" points="231.8418,-222.5 231.8418,-240.5 329.5605,-240.5 329.5605,-222.5 231.8418,-222.5"/>
<text text-anchor="middle" x="280.7012" y="-228.5" font-family="Helvetica,sans-Serif" font-size="10.00" fill="#000000">Uptane::Exception</text>
</g>
<!-- Node3 -->
<g id="node4" class="node">
<title>Node3</title>
<g id="a_node4"><a xlink:href="class_uptane_1_1_bad_ecu_id.html" target="_top" xlink:title="Uptane::BadEcuId">
<polygon fill="#ffffff" stroke="#000000" points="392.7993,-444.5 392.7993,-462.5 489.9663,-462.5 489.9663,-444.5 392.7993,-444.5"/>
<text text-anchor="middle" x="441.3828" y="-450.5" font-family="Helvetica,sans-Serif" font-size="10.00" fill="#000000">Uptane::BadEcuId</text>
</a>
</g>
</g>
<!-- Node0&#45;&gt;Node3 -->
<g id="edge3" class="edge">
<title>Node0&#45;&gt;Node3</title>
<path fill="none" stroke="#191970" d="M282.8925,-250.6361C288.5967,-291.2377 307.7291,-386.3091 365.5605,-435.5 373.1867,-441.9867 382.7395,-446.2274 392.4678,-448.9784"/>
<polygon fill="#191970" stroke="#191970" points="286.3372,-249.9804 281.5949,-240.5061 279.3939,-250.8698 286.3372,-249.9804"/>
</g>
<!-- Node4 -->
<g id="node5" class="node">
<title>Node4</title>
<g id="a_node5"><a xlink:href="class_uptane_1_1_bad_key_id.html" target="_top" xlink:title="Uptane::BadKeyId">
<polygon fill="#ffffff" stroke="#000000" points="392.7993,-407.5 392.7993,-425.5 489.9663,-425.5 489.9663,-407.5 392.7993,-407.5"/>
<text text-anchor="middle" x="441.3828" y="-413.5" font-family="Helvetica,sans-Serif" font-size="10.00" fill="#000000">Uptane::BadKeyId</text>
</a>
</g>
</g>
<!-- Node0&#45;&gt;Node4 -->
<g id="edge4" class="edge">
<title>Node0&#45;&gt;Node4</title>
<path fill="none" stroke="#191970" d="M284.8553,-250.7372C293.4655,-285.7977 316.6764,-360.0197 365.5605,-398.5 373.3211,-404.6089 382.8211,-408.6975 392.4376,-411.4212"/>
<polygon fill="#191970" stroke="#191970" points="288.2256,-249.7769 282.5588,-240.8249 281.4063,-251.3568 288.2256,-249.7769"/>
</g>
<!-- Node5 -->
<g id="node6" class="node">
<title>Node5</title>
<g id="a_node6"><a xlink:href="class_uptane_1_1_expired_metadata.html" target="_top" xlink:title="Uptane::ExpiredMetadata">
<polygon fill="#ffffff" stroke="#000000" points="376.6812,-370.5 376.6812,-388.5 506.0845,-388.5 506.0845,-370.5 376.6812,-370.5"/>
<text text-anchor="middle" x="441.3828" y="-376.5" font-family="Helvetica,sans-Serif" font-size="10.00" fill="#000000">Uptane::ExpiredMetadata</text>
</a>
</g>
</g>
<!-- Node0&#45;&gt;Node5 -->
<g id="edge5" class="edge">
<title>Node0&#45;&gt;Node5</title>
<path fill="none" stroke="#191970" d="M287.6878,-250.4216C299.2816,-279.0904 325.2861,-333.1844 365.5605,-361.5 370.7624,-365.1573 376.6099,-368.0783 382.6907,-370.4103"/>
<polygon fill="#191970" stroke="#191970" points="290.8297,-248.8432 283.9502,-240.7857 284.3034,-251.3747 290.8297,-248.8432"/>
</g>
<!-- Node6 -->
<g id="node7" class="node">
<title>Node6</title>
<g id="a_node7"><a xlink:href="class_uptane_1_1_illegal_rsa_key_size.html" target="_top" xlink:title="Uptane::IllegalRsaKeySize">
<polygon fill="#ffffff" stroke="#000000" points="374.1836,-333.5 374.1836,-351.5 508.582,-351.5 508.582,-333.5 374.1836,-333.5"/>
<text text-anchor="middle" x="441.3828" y="-339.5" font-family="Helvetica,sans-Serif" font-size="10.00" fill="#000000">Uptane::IllegalRsaKeySize</text>
</a>
</g>
</g>
<!-- Node0&#45;&gt;Node6 -->
<g id="edge6" class="edge">
<title>Node0&#45;&gt;Node6</title>
<path fill="none" stroke="#191970" d="M291.7497,-248.9532C306.1182,-270.1637 333.2384,-305.4702 365.5605,-324.5 371.8563,-328.2067 378.8697,-331.1505 386.0179,-333.4884"/>
<polygon fill="#191970" stroke="#191970" points="294.6509,-246.9949 286.2331,-240.5613 288.8016,-250.8401 294.6509,-246.9949"/>
</g>
<!-- Node7 -->
<g id="node8" class="node">
<title>Node7</title>
<g id="a_node8"><a xlink:href="class_uptane_1_1_illegal_threshold.html" target="_top" xlink:title="Uptane::IllegalThreshold">
<polygon fill="#ffffff" stroke="#000000" points="379.1836,-296.5 379.1836,-314.5 503.582,-314.5 503.582,-296.5 379.1836,-296.5"/>
<text text-anchor="middle" x="441.3828" y="-302.5" font-family="Helvetica,sans-Serif" font-size="10.00" fill="#000000">Uptane::IllegalThreshold</text>
</a>
</g>
</g>
<!-- Node0&#45;&gt;Node7 -->
<g id="edge7" class="edge">
<title>Node0&#45;&gt;Node7</title>
<path fill="none" stroke="#191970" d="M300.0174,-247.1124C316.52,-259.7225 341.3653,-277.0358 365.5605,-287.5 373.8805,-291.0983 383.039,-294.0461 392.0273,-296.4373"/>
<polygon fill="#191970" stroke="#191970" points="301.7995,-244.0632 291.7647,-240.6641 297.4896,-249.5791 301.7995,-244.0632"/>
</g>
<!-- Node8 -->
<g id="node9" class="node">
<title>Node8</title>
<g id="a_node9"><a xlink:href="class_uptane_1_1_invalid_metadata.html" target="_top" xlink:title="Uptane::InvalidMetadata">
<polygon fill="#ffffff" stroke="#000000" points="379.1812,-259.5 379.1812,-277.5 503.5845,-277.5 503.5845,-259.5 379.1812,-259.5"/>
<text text-anchor="middle" x="441.3828" y="-265.5" font-family="Helvetica,sans-Serif" font-size="10.00" fill="#000000">Uptane::InvalidMetadata</text>
</a>
</g>
</g>
<!-- Node0&#45;&gt;Node8 -->
<g id="edge8" class="edge">
<title>Node0&#45;&gt;Node8</title>
<path fill="none" stroke="#191970" d="M330.0034,-242.8528C353.1906,-248.1921 380.4539,-254.47 402.2033,-259.4782"/>
<polygon fill="#191970" stroke="#191970" points="330.5387,-239.3845 320.0083,-240.5512 328.9679,-246.206 330.5387,-239.3845"/>
</g>
<!-- Node9 -->
<g id="node10" class="node">
<title>Node9</title>
<g id="a_node10"><a xlink:href="class_uptane_1_1_missing_repo.html" target="_top" xlink:title="Uptane::MissingRepo">
<polygon fill="#ffffff" stroke="#000000" points="385.5801,-222.5 385.5801,-240.5 497.1855,-240.5 497.1855,-222.5 385.5801,-222.5"/>
<text text-anchor="middle" x="441.3828" y="-228.5" font-family="Helvetica,sans-Serif" font-size="10.00" fill="#000000">Uptane::MissingRepo</text>
</a>
</g>
</g>
<!-- Node0&#45;&gt;Node9 -->
<g id="edge9" class="edge">
<title>Node0&#45;&gt;Node9</title>
<path fill="none" stroke="#191970" d="M339.9227,-231.5C354.8492,-231.5 370.8226,-231.5 385.5753,-231.5"/>
<polygon fill="#191970" stroke="#191970" points="339.7841,-228.0001 329.7841,-231.5 339.784,-235.0001 339.7841,-228.0001"/>
</g>
<!-- Node10 -->
<g id="node11" class="node">
<title>Node10</title>
<g id="a_node11"><a xlink:href="class_uptane_1_1_miss_match_target.html" target="_top" xlink:title="Uptane::MissMatchTarget">
<polygon fill="#ffffff" stroke="#000000" points="376.6934,-185.5 376.6934,-203.5 506.0723,-203.5 506.0723,-185.5 376.6934,-185.5"/>
<text text-anchor="middle" x="441.3828" y="-191.5" font-family="Helvetica,sans-Serif" font-size="10.00" fill="#000000">Uptane::MissMatchTarget</text>
</a>
</g>
</g>
<!-- Node0&#45;&gt;Node10 -->
<g id="edge10" class="edge">
<title>Node0&#45;&gt;Node10</title>
<path fill="none" stroke="#191970" d="M330.0034,-220.1472C353.1906,-214.8079 380.4539,-208.53 402.2033,-203.5218"/>
<polygon fill="#191970" stroke="#191970" points="328.9679,-216.794 320.0083,-222.4488 330.5387,-223.6155 328.9679,-216.794"/>
</g>
<!-- Node11 -->
<g id="node12" class="node">
<title>Node11</title>
<g id="a_node12"><a xlink:href="class_uptane_1_1_non_unique_signatures.html" target="_top" xlink:title="Uptane::NonUniqueSignatures">
<polygon fill="#ffffff" stroke="#000000" points="365.5605,-148.5 365.5605,-166.5 517.2051,-166.5 517.2051,-148.5 365.5605,-148.5"/>
<text text-anchor="middle" x="441.3828" y="-154.5" font-family="Helvetica,sans-Serif" font-size="10.00" fill="#000000">Uptane::NonUniqueSignatures</text>
</a>
</g>
</g>
<!-- Node0&#45;&gt;Node11 -->
<g id="edge11" class="edge">
<title>Node0&#45;&gt;Node11</title>
<path fill="none" stroke="#191970" d="M300.0174,-215.8876C316.52,-203.2775 341.3653,-185.9642 365.5605,-175.5 373.8805,-171.9017 383.039,-168.9539 392.0273,-166.5627"/>
<polygon fill="#191970" stroke="#191970" points="297.4896,-213.4209 291.7647,-222.3359 301.7995,-218.9368 297.4896,-213.4209"/>
</g>
<!-- Node12 -->
<g id="node13" class="node">
<title>Node12</title>
<g id="a_node13"><a xlink:href="class_uptane_1_1_oversized_target.html" target="_top" xlink:title="Uptane::OversizedTarget">
<polygon fill="#ffffff" stroke="#000000" points="378.0776,-111.5 378.0776,-129.5 504.688,-129.5 504.688,-111.5 378.0776,-111.5"/>
<text text-anchor="middle" x="441.3828" y="-117.5" font-family="Helvetica,sans-Serif" font-size="10.00" fill="#000000">Uptane::OversizedTarget</text>
</a>
</g>
</g>
<!-- Node0&#45;&gt;Node12 -->
<g id="edge12" class="edge">
<title>Node0&#45;&gt;Node12</title>
<path fill="none" stroke="#191970" d="M291.7497,-214.0468C306.1182,-192.8363 333.2384,-157.5298 365.5605,-138.5 371.8563,-134.7933 378.8697,-131.8495 386.0179,-129.5116"/>
<polygon fill="#191970" stroke="#191970" points="288.8016,-212.1599 286.2331,-222.4387 294.6509,-216.0051 288.8016,-212.1599"/>
</g>
<!-- Node13 -->
<g id="node14" class="node">
<title>Node13</title>
<g id="a_node14"><a xlink:href="class_uptane_1_1_security_exception.html" target="_top" xlink:title="Uptane::SecurityException">
<polygon fill="#ffffff" stroke="#000000" points="374.4619,-74.5 374.4619,-92.5 508.3037,-92.5 508.3037,-74.5 374.4619,-74.5"/>
<text text-anchor="middle" x="441.3828" y="-80.5" font-family="Helvetica,sans-Serif" font-size="10.00" fill="#000000">Uptane::SecurityException</text>
</a>
</g>
</g>
<!-- Node0&#45;&gt;Node13 -->
<g id="edge13" class="edge">
<title>Node0&#45;&gt;Node13</title>
<path fill="none" stroke="#191970" d="M287.6878,-212.5784C299.2816,-183.9096 325.2861,-129.8156 365.5605,-101.5 370.7624,-97.8427 376.6099,-94.9217 382.6907,-92.5897"/>
<polygon fill="#191970" stroke="#191970" points="284.3034,-211.6253 283.9502,-222.2143 290.8297,-214.1568 284.3034,-211.6253"/>
</g>
<!-- Node14 -->
<g id="node15" class="node">
<title>Node14</title>
<g id="a_node15"><a xlink:href="class_uptane_1_1_target_hash_mismatch.html" target="_top" xlink:title="Uptane::TargetHashMismatch">
<polygon fill="#ffffff" stroke="#000000" points="367.521,-37.5 367.521,-55.5 515.2446,-55.5 515.2446,-37.5 367.521,-37.5"/>
<text text-anchor="middle" x="441.3828" y="-43.5" font-family="Helvetica,sans-Serif" font-size="10.00" fill="#000000">Uptane::TargetHashMismatch</text>
</a>
</g>
</g>
<!-- Node0&#45;&gt;Node14 -->
<g id="edge14" class="edge">
<title>Node0&#45;&gt;Node14</title>
<path fill="none" stroke="#191970" d="M284.8553,-212.2628C293.4655,-177.2023 316.6764,-102.9803 365.5605,-64.5 370.2381,-60.8179 375.5477,-57.8698 381.1338,-55.5122"/>
<polygon fill="#191970" stroke="#191970" points="281.4063,-211.6432 282.5588,-222.1751 288.2256,-213.2231 281.4063,-211.6432"/>
</g>
<!-- Node15 -->
<g id="node16" class="node">
<title>Node15</title>
<g id="a_node16"><a xlink:href="class_uptane_1_1_unmet_threshold.html" target="_top" xlink:title="Uptane::UnmetThreshold">
<polygon fill="#ffffff" stroke="#000000" points="377.521,-.5 377.521,-18.5 505.2446,-18.5 505.2446,-.5 377.521,-.5"/>
<text text-anchor="middle" x="441.3828" y="-6.5" font-family="Helvetica,sans-Serif" font-size="10.00" fill="#000000">Uptane::UnmetThreshold</text>
</a>
</g>
</g>
<!-- Node0&#45;&gt;Node15 -->
<g id="edge15" class="edge">
<title>Node0&#45;&gt;Node15</title>
<path fill="none" stroke="#191970" d="M282.8925,-212.3639C288.5967,-171.7623 307.7291,-76.6909 365.5605,-27.5 369.7858,-23.906 374.6026,-21.0015 379.7129,-18.6578"/>
<polygon fill="#191970" stroke="#191970" points="279.3939,-212.1302 281.5949,-222.4939 286.3372,-213.0196 279.3939,-212.1302"/>
</g>
<!-- Node1 -->
<g id="node2" class="node">
<title>Node1</title>
<g id="a_node2"><a xlink:title="STL class. ">
<polygon fill="#ffffff" stroke="#bfbfbf" points="113.7041,-222.5 113.7041,-240.5 195.8418,-240.5 195.8418,-222.5 113.7041,-222.5"/>
<text text-anchor="middle" x="154.7729" y="-228.5" font-family="Helvetica,sans-Serif" font-size="10.00" fill="#000000">std::logic_error</text>
</a>
</g>
</g>
<!-- Node1&#45;&gt;Node0 -->
<g id="edge1" class="edge">
<title>Node1&#45;&gt;Node0</title>
<path fill="none" stroke="#191970" d="M206.0611,-231.5C214.4551,-231.5 223.1361,-231.5 231.4786,-231.5"/>
<polygon fill="#191970" stroke="#191970" points="206.0066,-228.0001 196.0066,-231.5 206.0065,-235.0001 206.0066,-228.0001"/>
</g>
<!-- Node2 -->
<g id="node3" class="node">
<title>Node2</title>
<g id="a_node3"><a xlink:title="STL class. ">
<polygon fill="#ffffff" stroke="#bfbfbf" points="0,-222.5 0,-240.5 77.7041,-240.5 77.7041,-222.5 0,-222.5"/>
<text text-anchor="middle" x="38.8521" y="-228.5" font-family="Helvetica,sans-Serif" font-size="10.00" fill="#000000">std::exception</text>
</a>
</g>
</g>
<!-- Node2&#45;&gt;Node1 -->
<g id="edge2" class="edge">
<title>Node2&#45;&gt;Node1</title>
<path fill="none" stroke="#191970" d="M87.9282,-231.5C96.399,-231.5 105.1292,-231.5 113.3716,-231.5"/>
<polygon fill="#191970" stroke="#191970" points="87.7745,-228.0001 77.7745,-231.5 87.7745,-235.0001 87.7745,-228.0001"/>
</g>
</g>
</svg>
        <g id="navigator" transform="translate(0 0)" fill="#404254">
                <rect fill="#f2f5e9" fill-opacity="0.5" stroke="#606060" stroke-width=".5" x="0" y="0" width="60" height="60"/>
                <use id="zoomplus" xlink:href="#zoomPlus" x="17" y="9" onmousedown="handleZoom(evt,'in')"/>
                <use id="zoomminus" xlink:href="#zoomMin" x="42" y="9" onmousedown="handleZoom(evt,'out')"/>
                <use id="reset" xlink:href="#resetDef" x="30" y="36" onmousedown="handleReset()"/>
                <g id="arrowUp" xlink:href="#dirArrow" transform="translate(30 24)" onmousedown="handlePan(0,-1)">
                  <use xlink:href="#rim" fill="#404040">
                        <set attributeName="fill" to="#808080" begin="arrowUp.mouseover" end="arrowUp.mouseout"/>
                  </use>
                  <path fill="none" stroke="white" stroke-width="1.5" d="M0,-3.0v7 M-2.5,-0.5L0,-3.0L2.5,-0.5"/>
                </g>
                <g id="arrowRight" xlink:href="#dirArrow" transform="rotate(90) translate(36 -43)" onmousedown="handlePan(1,0)">
                  <use xlink:href="#rim" fill="#404040">
                        <set attributeName="fill" to="#808080" begin="arrowRight.mouseover" end="arrowRight.mouseout"/>
                  </use>
                  <path fill="none" stroke="white" stroke-width="1.5" d="M0,-3.0v7 M-2.5,-0.5L0,-3.0L2.5,-0.5"/>
                </g>
                <g id="arrowDown" xlink:href="#dirArrow" transform="rotate(180) translate(-30 -48)" onmousedown="handlePan(0,1)">
                  <use xlink:href="#rim" fill="#404040">
                        <set attributeName="fill" to="#808080" begin="arrowDown.mouseover" end="arrowDown.mouseout"/>
                  </use>
                  <path fill="none" stroke="white" stroke-width="1.5" d="M0,-3.0v7 M-2.5,-0.5L0,-3.0L2.5,-0.5"/>
                </g>
                <g id="arrowLeft" xlink:href="#dirArrow" transform="rotate(270) translate(-36 17)" onmousedown="handlePan(-1,0)">
                  <use xlink:href="#rim" fill="#404040">
                        <set attributeName="fill" to="#808080" begin="arrowLeft.mouseover" end="arrowLeft.mouseout"/>
                  </use>
                  <path fill="none" stroke="white" stroke-width="1.5" d="M0,-3.0v7 M-2.5,-0.5L0,-3.0L2.5,-0.5"/>
                </g>
        </g>
        <svg viewBox="0 0 15 15" width="100%" height="30px" preserveAspectRatio="xMaxYMin meet">
         <g id="arrow_out" transform="scale(0.3 0.3)">
          <a xlink:href="class_uptane_1_1_exception__inherit__graph_org.svg" target="_base">
           <rect id="button" ry="5" rx="5" y="6" x="6" height="38" width="38"
                fill="#f2f5e9" fill-opacity="0.5" stroke="#606060" stroke-width="1.0"/>
           <path id="arrow"
             d="M 11.500037,31.436501 C 11.940474,20.09759 22.043105,11.32322 32.158766,21.979434 L 37.068811,17.246167 C 37.068811,17.246167 37.088388,32 37.088388,32 L 22.160133,31.978069 C 22.160133,31.978069 26.997745,27.140456 26.997745,27.140456 C 18.528582,18.264221 13.291696,25.230495 11.500037,31.436501 z"
             style="fill:#404040;"/>
          </a>
         </g>
        </svg>
</svg>
