<?xml version="1.0" encoding="UTF-8" standalone="no"?>
<!DOCTYPE svg PUBLIC "-//W3C//DTD SVG 1.1//EN"
 "http://www.w3.org/Graphics/SVG/1.1/DTD/svg11.dtd">
<!-- Generated by graphviz version 2.40.1 (20161225.0304)
 -->
<!-- Title: AktualizrInfoConfig Pages: 1 -->
<svg width="290pt" height="237pt"
 viewBox="0.00 0.00 289.85 237.00" xmlns="http://www.w3.org/2000/svg" xmlns:xlink="http://www.w3.org/1999/xlink">
<g id="graph0" class="graph" transform="scale(1 1) rotate(0) translate(4 233)">
<title>AktualizrInfoConfig</title>
<polygon fill="#ffffff" stroke="transparent" points="-4,4 -4,-233 285.8457,-233 285.8457,4 -4,4"/>
<!-- Node2 -->
<g id="node1" class="node">
<title>Node2</title>
<polygon fill="#bfbfbf" stroke="#000000" points="97.8584,-.5 97.8584,-18.5 197.7891,-18.5 197.7891,-.5 97.8584,-.5"/>
<text text-anchor="middle" x="147.8237" y="-6.5" font-family="Helvetica,sans-Serif" font-size="10.00" fill="#000000">AktualizrInfoConfig</text>
</g>
<!-- Node3 -->
<g id="node2" class="node">
<title>Node3</title>
<g id="a_node2"><a xlink:href="class_base_config.html" target="_top" xlink:title="BaseConfig">
<polygon fill="#ffffff" stroke="#000000" points="17.9741,-65.5 17.9741,-83.5 85.6733,-83.5 85.6733,-65.5 17.9741,-65.5"/>
<text text-anchor="middle" x="51.8237" y="-71.5" font-family="Helvetica,sans-Serif" font-size="10.00" fill="#000000">BaseConfig</text>
</a>
</g>
</g>
<!-- Node3&#45;&gt;Node2 -->
<g id="edge1" class="edge">
<title>Node3&#45;&gt;Node2</title>
<path fill="none" stroke="#191970" d="M73.6349,-59.732C92.2784,-47.1088 118.5184,-29.3421 134.2792,-18.6708"/>
<polygon fill="#191970" stroke="#191970" points="71.4903,-56.9572 65.1721,-65.462 75.4149,-62.7536 71.4903,-56.9572"/>
</g>
<!-- Node4 -->
<g id="node3" class="node">
<title>Node4</title>
<polygon fill="#ffffff" stroke="#bfbfbf" points="0,-200.5 0,-228.5 99.6475,-228.5 99.6475,-200.5 0,-200.5"/>
<text text-anchor="start" x="8" y="-216.5" font-family="Helvetica,sans-Serif" font-size="10.00" fill="#000000">std::vector&lt; boost</text>
<text text-anchor="middle" x="49.8237" y="-206.5" font-family="Helvetica,sans-Serif" font-size="10.00" fill="#000000">::filesystem::path &gt;</text>
</g>
<!-- Node4&#45;&gt;Node3 -->
<g id="edge2" class="edge">
<title>Node4&#45;&gt;Node3</title>
<path fill="none" stroke="#9a32cd" stroke-dasharray="5,2" d="M50.1716,-190.1518C50.6222,-158.6092 51.3861,-105.1342 51.6917,-83.745"/>
<polygon fill="#9a32cd" stroke="#9a32cd" points="46.6698,-190.2566 50.0265,-200.3056 53.6691,-190.3567 46.6698,-190.2566"/>
<text text-anchor="middle" x="80.1733" y="-139" font-family="Helvetica,sans-Serif" font-size="10.00" fill="#000000"> config_dirs_</text>
</g>
<!-- Node5 -->
<g id="node4" class="node">
<title>Node5</title>
<g id="a_node4"><a xlink:href="struct_storage_config.html" target="_top" xlink:title="StorageConfig">
<polygon fill="#ffffff" stroke="#000000" points="107.8584,-65.5 107.8584,-83.5 187.7891,-83.5 187.7891,-65.5 107.8584,-65.5"/>
<text text-anchor="middle" x="147.8237" y="-71.5" font-family="Helvetica,sans-Serif" font-size="10.00" fill="#000000">StorageConfig</text>
</a>
</g>
</g>
<!-- Node5&#45;&gt;Node2 -->
<g id="edge3" class="edge">
<title>Node5&#45;&gt;Node2</title>
<path fill="none" stroke="#9a32cd" stroke-dasharray="5,2" d="M147.8237,-55.1265C147.8237,-43.1522 147.8237,-28.3205 147.8237,-18.8821"/>
<polygon fill="#9a32cd" stroke="#9a32cd" points="144.3238,-55.462 147.8237,-65.462 151.3238,-55.4621 144.3238,-55.462"/>
<text text-anchor="middle" x="165.8901" y="-39" font-family="Helvetica,sans-Serif" font-size="10.00" fill="#000000"> storage</text>
</g>
<!-- Node6 -->
<g id="node5" class="node">
<title>Node6</title>
<g id="a_node5"><a xlink:href="class_based_path.html" target="_top" xlink:title="BasedPath">
<polygon fill="#ffffff" stroke="#000000" points="117.3608,-205.5 117.3608,-223.5 182.2866,-223.5 182.2866,-205.5 117.3608,-205.5"/>
<text text-anchor="middle" x="149.8237" y="-211.5" font-family="Helvetica,sans-Serif" font-size="10.00" fill="#000000">BasedPath</text>
</a>
</g>
</g>
<!-- Node6&#45;&gt;Node5 -->
<g id="edge4" class="edge">
<title>Node6&#45;&gt;Node5</title>
<path fill="none" stroke="#9a32cd" stroke-dasharray="5,2" d="M149.5458,-195.0475C149.1075,-164.3662 148.2727,-105.9269 147.9528,-83.5376"/>
<polygon fill="#9a32cd" stroke="#9a32cd" points="146.0499,-195.3653 149.6925,-205.3142 153.0492,-195.2652 146.0499,-195.3653"/>
<text text-anchor="middle" x="205.4243" y="-174" font-family="Helvetica,sans-Serif" font-size="10.00" fill="#000000"> uptane_public_key_path</text>
<text text-anchor="middle" x="205.4243" y="-164" font-family="Helvetica,sans-Serif" font-size="10.00" fill="#000000">tls_pkey_path</text>
<text text-anchor="middle" x="205.4243" y="-154" font-family="Helvetica,sans-Serif" font-size="10.00" fill="#000000">uptane_metadata_path</text>
<text text-anchor="middle" x="205.4243" y="-144" font-family="Helvetica,sans-Serif" font-size="10.00" fill="#000000">sqldb_path</text>
<text text-anchor="start" x="149.8237" y="-134" font-family="Helvetica,sans-Serif" font-size="10.00" fill="#000000">uptane_private_key</text>
<text text-anchor="middle" x="205.4243" y="-124" font-family="Helvetica,sans-Serif" font-size="10.00" fill="#000000">_path</text>
<text text-anchor="middle" x="205.4243" y="-114" font-family="Helvetica,sans-Serif" font-size="10.00" fill="#000000">tls_cacert_path</text>
<text text-anchor="middle" x="205.4243" y="-104" font-family="Helvetica,sans-Serif" font-size="10.00" fill="#000000">tls_clientcert_path</text>
</g>
<!-- Node7 -->
<g id="node6" class="node">
<title>Node7</title>
<g id="a_node6"><a xlink:href="struct_logger_config.html" target="_top" xlink:title="LoggerConfig">
<polygon fill="#ffffff" stroke="#000000" points="205.8018,-65.5 205.8018,-83.5 281.8457,-83.5 281.8457,-65.5 205.8018,-65.5"/>
<text text-anchor="middle" x="243.8237" y="-71.5" font-family="Helvetica,sans-Serif" font-size="10.00" fill="#000000">LoggerConfig</text>
</a>
</g>
</g>
<!-- Node7&#45;&gt;Node2 -->
<g id="edge5" class="edge">
<title>Node7&#45;&gt;Node2</title>
<path fill="none" stroke="#9a32cd" stroke-dasharray="5,2" d="M222.0125,-59.732C203.3691,-47.1088 177.129,-29.3421 161.3682,-18.6708"/>
<polygon fill="#9a32cd" stroke="#9a32cd" points="220.2325,-62.7536 230.4753,-65.462 224.1572,-56.9572 220.2325,-62.7536"/>
<text text-anchor="middle" x="216.1118" y="-39" font-family="Helvetica,sans-Serif" font-size="10.00" fill="#000000"> logger</text>
</g>
</g>
</svg>
