<?xml version="1.0" encoding="UTF-8" standalone="no"?>
<!DOCTYPE svg PUBLIC "-//W3C//DTD SVG 1.1//EN"
 "http://www.w3.org/Graphics/SVG/1.1/DTD/svg11.dtd">
<!-- Generated by graphviz version 2.40.1 (20161225.0304)
 -->
<!-- Title: opcuabridge::FileList Pages: 1 -->
<svg width="516pt" height="141pt"
 viewBox="0.00 0.00 515.69 141.00" xmlns="http://www.w3.org/2000/svg" xmlns:xlink="http://www.w3.org/1999/xlink">
<g id="graph0" class="graph" transform="scale(1 1) rotate(0) translate(4 137)">
<title>opcuabridge::FileList</title>
<polygon fill="#ffffff" stroke="transparent" points="-4,4 -4,-137 511.6875,-137 511.6875,4 -4,4"/>
<!-- Node1 -->
<g id="node1" class="node">
<title>Node1</title>
<polygon fill="#bfbfbf" stroke="#000000" points="399.4121,-47.5 399.4121,-65.5 507.6875,-65.5 507.6875,-47.5 399.4121,-47.5"/>
<text text-anchor="middle" x="453.5498" y="-53.5" font-family="Helvetica,sans-Serif" font-size="10.00" fill="#000000">opcuabridge::FileList</text>
</g>
<!-- Node2 -->
<g id="node2" class="node">
<title>Node2</title>
<g id="a_node2"><a xlink:href="structopcuabridge_1_1_message_on_before_read_callback.html" target="_top" xlink:title="opcuabridge::MessageOnBefore\lReadCallback\&lt; opcuabridge\l::FileList \&gt;">
<polygon fill="#ffffff" stroke="#000000" points="108.3545,-94.5 108.3545,-132.5 268.334,-132.5 268.334,-94.5 108.3545,-94.5"/>
<text text-anchor="start" x="116.3545" y="-120.5" font-family="Helvetica,sans-Serif" font-size="10.00" fill="#000000">opcuabridge::MessageOnBefore</text>
<text text-anchor="start" x="116.3545" y="-110.5" font-family="Helvetica,sans-Serif" font-size="10.00" fill="#000000">ReadCallback&lt; opcuabridge</text>
<text text-anchor="middle" x="188.3442" y="-100.5" font-family="Helvetica,sans-Serif" font-size="10.00" fill="#000000">::FileList &gt;</text>
</a>
</g>
</g>
<!-- Node2&#45;&gt;Node1 -->
<g id="edge1" class="edge">
<title>Node2&#45;&gt;Node1</title>
<path fill="none" stroke="#9a32cd" stroke-dasharray="5,2" d="M278.4328,-94.1375C323.5274,-84.4454 375.9579,-73.1766 411.6107,-65.5139"/>
<polygon fill="#9a32cd" stroke="#9a32cd" points="277.6756,-90.7202 268.6344,-96.2434 279.1466,-97.5639 277.6756,-90.7202"/>
<text text-anchor="middle" x="333.873" y="-93.5" font-family="Helvetica,sans-Serif" font-size="10.00" fill="#000000"> on_before_read_cb_</text>
</g>
<!-- Node3 -->
<g id="node3" class="node">
<title>Node3</title>
<g id="a_node3"><a xlink:href="structopcuabridge_1_1_message_on_after_write_callback.html" target="_top" xlink:title="opcuabridge::MessageOnAfter\lWriteCallback\&lt; opcuabridge\l::FileList \&gt;">
<polygon fill="#ffffff" stroke="#000000" points="112.5269,-37.5 112.5269,-75.5 264.1616,-75.5 264.1616,-37.5 112.5269,-37.5"/>
<text text-anchor="start" x="120.5269" y="-63.5" font-family="Helvetica,sans-Serif" font-size="10.00" fill="#000000">opcuabridge::MessageOnAfter</text>
<text text-anchor="start" x="120.5269" y="-53.5" font-family="Helvetica,sans-Serif" font-size="10.00" fill="#000000">WriteCallback&lt; opcuabridge</text>
<text text-anchor="middle" x="188.3442" y="-43.5" font-family="Helvetica,sans-Serif" font-size="10.00" fill="#000000">::FileList &gt;</text>
</a>
</g>
</g>
<!-- Node3&#45;&gt;Node1 -->
<g id="edge2" class="edge">
<title>Node3&#45;&gt;Node1</title>
<path fill="none" stroke="#9a32cd" stroke-dasharray="5,2" d="M274.5899,-56.5C315.5157,-56.5 363.1812,-56.5 399.0247,-56.5"/>
<polygon fill="#9a32cd" stroke="#9a32cd" points="274.3415,-53.0001 264.3415,-56.5 274.3415,-60.0001 274.3415,-53.0001"/>
<text text-anchor="middle" x="333.873" y="-58.5" font-family="Helvetica,sans-Serif" font-size="10.00" fill="#000000"> on_after_write_cb_</text>
</g>
<!-- Node4 -->
<g id="node4" class="node">
<title>Node4</title>
<g id="a_node4"><a xlink:title="STL class. ">
<polygon fill="#ffffff" stroke="#bfbfbf" points="145.7837,-.5 145.7837,-18.5 230.9048,-18.5 230.9048,-.5 145.7837,-.5"/>
<text text-anchor="middle" x="188.3442" y="-6.5" font-family="Helvetica,sans-Serif" font-size="10.00" fill="#000000">std::vector&lt; T &gt;</text>
</a>
</g>
</g>
<!-- Node4&#45;&gt;Node1 -->
<g id="edge3" class="edge">
<title>Node4&#45;&gt;Node1</title>
<path fill="none" stroke="#9a32cd" stroke-dasharray="5,2" d="M240.9868,-18.1709C279.8351,-24.6492 333.9678,-33.8426 381.4121,-42.5 389.9463,-44.0573 399.0366,-45.7751 407.7852,-47.4582"/>
<polygon fill="#9a32cd" stroke="#9a32cd" points="241.3929,-14.6904 230.954,-16.5015 240.2439,-21.5955 241.3929,-14.6904"/>
<text text-anchor="middle" x="333.873" y="-44.5" font-family="Helvetica,sans-Serif" font-size="10.00" fill="#000000"> block_</text>
</g>
<!-- Node5 -->
<g id="node5" class="node">
<title>Node5</title>
<polygon fill="#ffffff" stroke="#bfbfbf" points="0,-.5 0,-18.5 29,-18.5 29,-.5 0,-.5"/>
<text text-anchor="middle" x="14.5" y="-6.5" font-family="Helvetica,sans-Serif" font-size="10.00" fill="#000000">T</text>
</g>
<!-- Node5&#45;&gt;Node4 -->
<g id="edge4" class="edge">
<title>Node5&#45;&gt;Node4</title>
<path fill="none" stroke="#9a32cd" stroke-dasharray="5,2" d="M39.0271,-9.5C66.6903,-9.5 112.1815,-9.5 145.6946,-9.5"/>
<polygon fill="#9a32cd" stroke="#9a32cd" points="39.0229,-6.0001 29.0229,-9.5 39.0228,-13.0001 39.0229,-6.0001"/>
<text text-anchor="middle" x="68.6772" y="-11.5" font-family="Helvetica,sans-Serif" font-size="10.00" fill="#000000"> elements</text>
</g>
</g>
</svg>
