<?xml version="1.0" encoding="UTF-8" standalone="no"?>
<!DOCTYPE svg PUBLIC "-//W3C//DTD SVG 1.1//EN"
 "http://www.w3.org/Graphics/SVG/1.1/DTD/svg11.dtd">
<!-- Generated by graphviz version 2.40.1 (20161225.0304)
 -->
<!-- Title: Uptane::DownloadMetaStruct Pages: 1 -->
<svg width="228pt" height="92pt"
 viewBox="0.00 0.00 227.77 92.00" xmlns="http://www.w3.org/2000/svg" xmlns:xlink="http://www.w3.org/1999/xlink">
<g id="graph0" class="graph" transform="scale(1 1) rotate(0) translate(4 88)">
<title>Uptane::DownloadMetaStruct</title>
<polygon fill="#ffffff" stroke="transparent" points="-4,4 -4,-88 223.7705,-88 223.7705,4 -4,4"/>
<!-- Node1 -->
<g id="node1" class="node">
<title>Node1</title>
<polygon fill="#bfbfbf" stroke="#000000" points="26.4854,-.5 26.4854,-18.5 173.1104,-18.5 173.1104,-.5 26.4854,-.5"/>
<text text-anchor="middle" x="99.7979" y="-6.5" font-family="Helvetica,sans-Serif" font-size="10.00" fill="#000000">Uptane::DownloadMetaStruct</text>
</g>
<!-- Node2 -->
<g id="node2" class="node">
<title>Node2</title>
<g id="a_node2"><a xlink:href="class_uptane_1_1_target.html" target="_top" xlink:title="Uptane::Target">
<polygon fill="#ffffff" stroke="#000000" points="0,-65.5 0,-83.5 81.5957,-83.5 81.5957,-65.5 0,-65.5"/>
<text text-anchor="middle" x="40.7979" y="-71.5" font-family="Helvetica,sans-Serif" font-size="10.00" fill="#000000">Uptane::Target</text>
</a>
</g>
</g>
<!-- Node2&#45;&gt;Node1 -->
<g id="edge1" class="edge">
<title>Node2&#45;&gt;Node1</title>
<path fill="none" stroke="#9a32cd" stroke-dasharray="5,2" d="M55.751,-58.0262C66.9981,-45.6354 82.008,-29.0989 91.2818,-18.8821"/>
<polygon fill="#9a32cd" stroke="#9a32cd" points="53.131,-55.7051 49.0015,-65.462 58.3142,-60.4098 53.131,-55.7051"/>
<text text-anchor="middle" x="88.9727" y="-39" font-family="Helvetica,sans-Serif" font-size="10.00" fill="#000000"> target</text>
</g>
<!-- Node3 -->
<g id="node3" class="node">
<title>Node3</title>
<g id="a_node3"><a xlink:href="class_storage_target_w_handle.html" target="_top" xlink:title="StorageTargetWHandle">
<polygon fill="#ffffff" stroke="#000000" points="99.8252,-65.5 99.8252,-83.5 219.7705,-83.5 219.7705,-65.5 99.8252,-65.5"/>
<text text-anchor="middle" x="159.7979" y="-71.5" font-family="Helvetica,sans-Serif" font-size="10.00" fill="#000000">StorageTargetWHandle</text>
</a>
</g>
</g>
<!-- Node3&#45;&gt;Node1 -->
<g id="edge2" class="edge">
<title>Node3&#45;&gt;Node1</title>
<path fill="none" stroke="#9a32cd" stroke-dasharray="5,2" d="M144.5913,-58.0262C133.1536,-45.6354 117.8892,-29.0989 108.4583,-18.8821"/>
<polygon fill="#9a32cd" stroke="#9a32cd" points="142.1005,-60.488 151.4551,-65.462 147.2441,-55.74 142.1005,-60.488"/>
<text text-anchor="middle" x="150.5908" y="-39" font-family="Helvetica,sans-Serif" font-size="10.00" fill="#000000"> fhandle</text>
</g>
</g>
</svg>
