<?xml version="1.0" encoding="UTF-8" standalone="no"?>
<!DOCTYPE svg PUBLIC "-//W3C//DTD SVG 1.1//EN"
 "http://www.w3.org/Graphics/SVG/1.1/DTD/svg11.dtd">
<!-- Generated by graphviz version 2.40.1 (20161225.0304)
 -->
<!-- Title: data::OperationResult Pages: 1 -->
<svg width="121pt" height="168pt"
 viewBox="0.00 0.00 121.28 168.00" xmlns="http://www.w3.org/2000/svg" xmlns:xlink="http://www.w3.org/1999/xlink">
<g id="graph0" class="graph" transform="scale(1 1) rotate(0) translate(4 164)">
<title>data::OperationResult</title>
<polygon fill="#ffffff" stroke="transparent" points="-4,4 -4,-164 117.2803,-164 117.2803,4 -4,4"/>
<!-- Node1 -->
<g id="node1" class="node">
<title>Node1</title>
<polygon fill="#bfbfbf" stroke="#000000" points="0,-.5 0,-18.5 113.2803,-18.5 113.2803,-.5 0,-.5"/>
<text text-anchor="middle" x="56.6401" y="-6.5" font-family="Helvetica,sans-Serif" font-size="10.00" fill="#000000">data::OperationResult</text>
</g>
<!-- Node2 -->
<g id="node2" class="node">
<title>Node2</title>
<g id="a_node2"><a xlink:title="STL class. ">
<polygon fill="#ffffff" stroke="#bfbfbf" points="26.9653,-75.5 26.9653,-93.5 86.3149,-93.5 86.3149,-75.5 26.9653,-75.5"/>
<text text-anchor="middle" x="56.6401" y="-81.5" font-family="Helvetica,sans-Serif" font-size="10.00" fill="#000000">std::string</text>
</a>
</g>
</g>
<!-- Node2&#45;&gt;Node1 -->
<g id="edge1" class="edge">
<title>Node2&#45;&gt;Node1</title>
<path fill="none" stroke="#9a32cd" stroke-dasharray="5,2" d="M56.6401,-65.1079C56.6401,-50.2042 56.6401,-30.2791 56.6401,-18.7717"/>
<polygon fill="#9a32cd" stroke="#9a32cd" points="53.1402,-65.3035 56.6401,-75.3035 60.1402,-65.3036 53.1402,-65.3035"/>
<text text-anchor="middle" x="81.0957" y="-49" font-family="Helvetica,sans-Serif" font-size="10.00" fill="#000000"> result_text</text>
<text text-anchor="middle" x="81.0957" y="-39" font-family="Helvetica,sans-Serif" font-size="10.00" fill="#000000">id</text>
</g>
<!-- Node3 -->
<g id="node3" class="node">
<title>Node3</title>
<g id="a_node3"><a xlink:title="STL class. ">
<polygon fill="#ffffff" stroke="#bfbfbf" points="9.5923,-131.5 9.5923,-159.5 103.688,-159.5 103.688,-131.5 9.5923,-131.5"/>
<text text-anchor="start" x="17.5923" y="-147.5" font-family="Helvetica,sans-Serif" font-size="10.00" fill="#000000">std::basic_string&lt;</text>
<text text-anchor="middle" x="56.6401" y="-137.5" font-family="Helvetica,sans-Serif" font-size="10.00" fill="#000000"> char &gt;</text>
</a>
</g>
</g>
<!-- Node3&#45;&gt;Node2 -->
<g id="edge2" class="edge">
<title>Node3&#45;&gt;Node2</title>
<path fill="none" stroke="#191970" d="M56.6401,-121.1001C56.6401,-111.5157 56.6401,-101.0935 56.6401,-93.831"/>
<polygon fill="#191970" stroke="#191970" points="53.1402,-121.352 56.6401,-131.3521 60.1402,-121.3521 53.1402,-121.352"/>
</g>
</g>
</svg>
