<?xml version="1.0" encoding="UTF-8" standalone="no"?>
<!DOCTYPE svg PUBLIC "-//W3C//DTD SVG 1.1//EN"
 "http://www.w3.org/Graphics/SVG/1.1/DTD/svg11.dtd">
<!-- Generated by graphviz version 2.40.1 (20161225.0304)
 -->
<!-- Title: Process Pages: 1 -->
<svg width="264pt" height="95pt"
 viewBox="0.00 0.00 264.00 95.00" xmlns="http://www.w3.org/2000/svg" xmlns:xlink="http://www.w3.org/1999/xlink">
<g id="graph0" class="graph" transform="scale(1 1) rotate(0) translate(4 91)">
<title>Process</title>
<polygon fill="#ffffff" stroke="transparent" points="-4,4 -4,-91 260,-91 260,4 -4,4"/>
<!-- Node0 -->
<g id="node1" class="node">
<title>Node0</title>
<polygon fill="#bfbfbf" stroke="#000000" points="99,-67.5 99,-86.5 153,-86.5 153,-67.5 99,-67.5"/>
<text text-anchor="middle" x="126" y="-74.5" font-family="Helvetica,sans-Serif" font-size="10.00" fill="#000000">Process</text>
</g>
<!-- Node1 -->
<g id="node2" class="node">
<title>Node1</title>
<g id="a_node2"><a xlink:href="class_aktualizr_info_test_1_1_aktualizr_info_process.html" target="_top" xlink:title="AktualizrInfoTest::\lAktualizrInfoProcess">
<polygon fill="#ffffff" stroke="#000000" points="0,-.5 0,-30.5 116,-30.5 116,-.5 0,-.5"/>
<text text-anchor="start" x="8" y="-18.5" font-family="Helvetica,sans-Serif" font-size="10.00" fill="#000000">AktualizrInfoTest::</text>
<text text-anchor="middle" x="58" y="-7.5" font-family="Helvetica,sans-Serif" font-size="10.00" fill="#000000">AktualizrInfoProcess</text>
</a>
</g>
</g>
<!-- Node0&#45;&gt;Node1 -->
<g id="edge1" class="edge">
<title>Node0&#45;&gt;Node1</title>
<path fill="none" stroke="#191970" d="M107.7423,-60.4875C97.4388,-51.1689 84.66,-39.6116 74.6347,-30.5446"/>
<polygon fill="#191970" stroke="#191970" points="105.6106,-63.2787 115.375,-67.3906 110.306,-58.0871 105.6106,-63.2787"/>
</g>
<!-- Node2 -->
<g id="node3" class="node">
<title>Node2</title>
<g id="a_node3"><a xlink:href="class_device_cred_generator.html" target="_top" xlink:title="DeviceCredGenerator">
<polygon fill="#ffffff" stroke="#000000" points="134,-6 134,-25 256,-25 256,-6 134,-6"/>
<text text-anchor="middle" x="195" y="-13" font-family="Helvetica,sans-Serif" font-size="10.00" fill="#000000">DeviceCredGenerator</text>
</a>
</g>
</g>
<!-- Node0&#45;&gt;Node2 -->
<g id="edge2" class="edge">
<title>Node0&#45;&gt;Node2</title>
<path fill="none" stroke="#191970" d="M144.4581,-60.5482C157.1008,-49.2798 173.4406,-34.716 184.0667,-25.2449"/>
<polygon fill="#191970" stroke="#191970" points="141.9176,-58.1241 136.7813,-67.3906 146.5752,-63.3497 141.9176,-58.1241"/>
</g>
</g>
</svg>
