<?xml version="1.0" encoding="UTF-8" standalone="no"?>
<!DOCTYPE svg PUBLIC "-//W3C//DTD SVG 1.1//EN"
 "http://www.w3.org/Graphics/SVG/1.1/DTD/svg11.dtd">
<!-- Generated by graphviz version 2.40.1 (20161225.0304)
 -->
<!-- Title: HttpFake Pages: 1 -->
<svg width="373pt" height="902pt"
 viewBox="0.00 0.00 373.00 902.00" xmlns="http://www.w3.org/2000/svg" xmlns:xlink="http://www.w3.org/1999/xlink">
<g id="graph0" class="graph" transform="scale(1 1) rotate(0) translate(4 898)">
<title>HttpFake</title>
<polygon fill="#ffffff" stroke="transparent" points="-4,4 -4,-898 369,-898 369,4 -4,4"/>
<!-- Node0 -->
<g id="node1" class="node">
<title>Node0</title>
<polygon fill="#bfbfbf" stroke="#000000" points="117,-418.5 117,-437.5 177,-437.5 177,-418.5 117,-418.5"/>
<text text-anchor="middle" x="147" y="-425.5" font-family="Helvetica,sans-Serif" font-size="10.00" fill="#000000">HttpFake</text>
</g>
<!-- Node2 -->
<g id="node3" class="node">
<title>Node2</title>
<g id="a_node3"><a xlink:href="class_http_check_url.html" target="_top" xlink:title="HttpCheckUrl">
<polygon fill="#ffffff" stroke="#000000" points="248,-874.5 248,-893.5 330,-893.5 330,-874.5 248,-874.5"/>
<text text-anchor="middle" x="289" y="-881.5" font-family="Helvetica,sans-Serif" font-size="10.00" fill="#000000">HttpCheckUrl</text>
</a>
</g>
</g>
<!-- Node0&#45;&gt;Node2 -->
<g id="edge2" class="edge">
<title>Node0&#45;&gt;Node2</title>
<path fill="none" stroke="#191970" d="M148.7058,-447.8462C155.8605,-529.096 184.4048,-833.5479 213,-865 221.8747,-874.7613 234.9353,-879.8532 247.7356,-882.4128"/>
<polygon fill="#191970" stroke="#191970" points="152.1625,-447.1956 147.8079,-437.5371 145.1889,-447.8031 152.1625,-447.1956"/>
</g>
<!-- Node3 -->
<g id="node4" class="node">
<title>Node3</title>
<g id="a_node4"><a xlink:href="class_http_custom_uri.html" target="_top" xlink:title="HttpCustomUri">
<polygon fill="#ffffff" stroke="#000000" points="244.5,-836.5 244.5,-855.5 333.5,-855.5 333.5,-836.5 244.5,-836.5"/>
<text text-anchor="middle" x="289" y="-843.5" font-family="Helvetica,sans-Serif" font-size="10.00" fill="#000000">HttpCustomUri</text>
</a>
</g>
</g>
<!-- Node0&#45;&gt;Node3 -->
<g id="edge3" class="edge">
<title>Node0&#45;&gt;Node3</title>
<path fill="none" stroke="#191970" d="M147.4919,-447.725C149.7046,-520.224 161.0449,-770.6536 213,-827 221.1132,-835.7989 232.629,-840.7937 244.2495,-843.5599"/>
<polygon fill="#191970" stroke="#191970" points="150.9891,-447.5721 147.2103,-437.6741 143.9918,-447.7682 150.9891,-447.5721"/>
</g>
<!-- Node4 -->
<g id="node5" class="node">
<title>Node4</title>
<g id="a_node5"><a xlink:href="class_http_default_uri.html" target="_top" xlink:title="HttpDefaultUri">
<polygon fill="#ffffff" stroke="#000000" points="245,-798.5 245,-817.5 333,-817.5 333,-798.5 245,-798.5"/>
<text text-anchor="middle" x="289" y="-805.5" font-family="Helvetica,sans-Serif" font-size="10.00" fill="#000000">HttpDefaultUri</text>
</a>
</g>
</g>
<!-- Node0&#45;&gt;Node4 -->
<g id="edge4" class="edge">
<title>Node0&#45;&gt;Node4</title>
<path fill="none" stroke="#191970" d="M147.8827,-448.0064C151.3037,-516.3063 165.9289,-738.8081 213,-789 221.2803,-797.8292 232.9889,-802.8158 244.7413,-805.5645"/>
<polygon fill="#191970" stroke="#191970" points="151.3669,-447.5873 147.3974,-437.7642 144.3747,-447.9187 151.3669,-447.5873"/>
</g>
<!-- Node5 -->
<g id="node6" class="node">
<title>Node5</title>
<g id="a_node6"><a xlink:href="class_http_download_failure.html" target="_top" xlink:title="HttpDownloadFailure">
<polygon fill="#ffffff" stroke="#000000" points="229.5,-760.5 229.5,-779.5 348.5,-779.5 348.5,-760.5 229.5,-760.5"/>
<text text-anchor="middle" x="289" y="-767.5" font-family="Helvetica,sans-Serif" font-size="10.00" fill="#000000">HttpDownloadFailure</text>
</a>
</g>
</g>
<!-- Node0&#45;&gt;Node5 -->
<g id="edge5" class="edge">
<title>Node0&#45;&gt;Node5</title>
<path fill="none" stroke="#191970" d="M148.3462,-447.9244C153.032,-511.3267 170.7055,-706.828 213,-751 217.6089,-755.8135 223.2379,-759.4805 229.3275,-762.2634"/>
<polygon fill="#191970" stroke="#191970" points="151.819,-447.4163 147.6194,-437.6894 144.8366,-447.9122 151.819,-447.4163"/>
</g>
<!-- Node6 -->
<g id="node7" class="node">
<title>Node6</title>
<g id="a_node7"><a xlink:href="class_http_fake_campaign.html" target="_top" xlink:title="HttpFakeCampaign">
<polygon fill="#ffffff" stroke="#000000" points="234,-722.5 234,-741.5 344,-741.5 344,-722.5 234,-722.5"/>
<text text-anchor="middle" x="289" y="-729.5" font-family="Helvetica,sans-Serif" font-size="10.00" fill="#000000">HttpFakeCampaign</text>
</a>
</g>
</g>
<!-- Node0&#45;&gt;Node6 -->
<g id="edge6" class="edge">
<title>Node0&#45;&gt;Node6</title>
<path fill="none" stroke="#191970" d="M148.925,-447.8319C154.9723,-506.0536 175.4542,-674.7947 213,-713 218.7198,-718.8202 225.9332,-722.9559 233.6259,-725.877"/>
<polygon fill="#191970" stroke="#191970" points="152.3924,-447.3312 147.9072,-437.7326 145.4277,-448.0332 152.3924,-447.3312"/>
</g>
<!-- Node7 -->
<g id="node8" class="node">
<title>Node7</title>
<g id="a_node8"><a xlink:href="class_http_fake_delegation.html" target="_top" xlink:title="HttpFakeDelegation">
<polygon fill="#ffffff" stroke="#000000" points="232.5,-684.5 232.5,-703.5 345.5,-703.5 345.5,-684.5 232.5,-684.5"/>
<text text-anchor="middle" x="289" y="-691.5" font-family="Helvetica,sans-Serif" font-size="10.00" fill="#000000">HttpFakeDelegation</text>
</a>
</g>
</g>
<!-- Node0&#45;&gt;Node7 -->
<g id="edge7" class="edge">
<title>Node0&#45;&gt;Node7</title>
<path fill="none" stroke="#191970" d="M149.6469,-447.5646C157.1449,-500.1351 180.1351,-642.6609 213,-675 218.4288,-680.3419 225.1192,-684.2559 232.2595,-687.1111"/>
<polygon fill="#191970" stroke="#191970" points="153.0946,-446.9462 148.2488,-437.5245 146.1615,-447.9117 153.0946,-446.9462"/>
</g>
<!-- Node8 -->
<g id="node9" class="node">
<title>Node8</title>
<g id="a_node9"><a xlink:href="class_http_fake_device_registration.html" target="_top" xlink:title="HttpFakeDeviceRegistration">
<polygon fill="#ffffff" stroke="#000000" points="213,-646.5 213,-665.5 365,-665.5 365,-646.5 213,-646.5"/>
<text text-anchor="middle" x="289" y="-653.5" font-family="Helvetica,sans-Serif" font-size="10.00" fill="#000000">HttpFakeDeviceRegistration</text>
</a>
</g>
</g>
<!-- Node0&#45;&gt;Node8 -->
<g id="edge8" class="edge">
<title>Node0&#45;&gt;Node8</title>
<path fill="none" stroke="#191970" d="M150.6657,-447.5947C159.7926,-494.3458 184.838,-610.5029 213,-637 217.0612,-640.8211 221.7709,-643.9056 226.8173,-646.3915"/>
<polygon fill="#191970" stroke="#191970" points="154.0578,-446.6987 148.7399,-437.5352 147.1827,-448.0149 154.0578,-446.6987"/>
</g>
<!-- Node9 -->
<g id="node10" class="node">
<title>Node9</title>
<g id="a_node10"><a xlink:href="class_http_fake_ecu_registration.html" target="_top" xlink:title="HttpFakeEcuRegistration">
<polygon fill="#ffffff" stroke="#000000" points="221,-608.5 221,-627.5 357,-627.5 357,-608.5 221,-608.5"/>
<text text-anchor="middle" x="289" y="-615.5" font-family="Helvetica,sans-Serif" font-size="10.00" fill="#000000">HttpFakeEcuRegistration</text>
</a>
</g>
</g>
<!-- Node0&#45;&gt;Node9 -->
<g id="edge9" class="edge">
<title>Node0&#45;&gt;Node9</title>
<path fill="none" stroke="#191970" d="M148.8368,-448.0307C153.2232,-483.8516 167.5987,-558.8808 213,-599 217.3824,-602.8725 222.4368,-605.9802 227.8138,-608.4707"/>
<polygon fill="#191970" stroke="#191970" points="152.2931,-447.4374 147.737,-437.8722 145.3338,-448.1909 152.2931,-447.4374"/>
</g>
<!-- Node10 -->
<g id="node11" class="node">
<title>Node10</title>
<g id="a_node11"><a xlink:href="class_http_fake_event_counter.html" target="_top" xlink:title="HttpFakeEventCounter">
<polygon fill="#ffffff" stroke="#000000" points="226,-570.5 226,-589.5 352,-589.5 352,-570.5 226,-570.5"/>
<text text-anchor="middle" x="289" y="-577.5" font-family="Helvetica,sans-Serif" font-size="10.00" fill="#000000">HttpFakeEventCounter</text>
</a>
</g>
</g>
<!-- Node0&#45;&gt;Node10 -->
<g id="edge10" class="edge">
<title>Node0&#45;&gt;Node10</title>
<path fill="none" stroke="#191970" d="M151.2208,-447.6496C158.5545,-476.9086 176.494,-531.6254 213,-561 217.7683,-564.8368 223.2085,-567.9118 228.9372,-570.3743"/>
<polygon fill="#191970" stroke="#191970" points="154.5996,-446.7274 148.9127,-437.7881 147.7838,-448.3226 154.5996,-446.7274"/>
</g>
<!-- Node11 -->
<g id="node12" class="node">
<title>Node11</title>
<g id="a_node12"><a xlink:href="class_http_fake_events.html" target="_top" xlink:title="HttpFakeEvents">
<polygon fill="#ffffff" stroke="#000000" points="242.5,-532.5 242.5,-551.5 335.5,-551.5 335.5,-532.5 242.5,-532.5"/>
<text text-anchor="middle" x="289" y="-539.5" font-family="Helvetica,sans-Serif" font-size="10.00" fill="#000000">HttpFakeEvents</text>
</a>
</g>
</g>
<!-- Node0&#45;&gt;Node11 -->
<g id="edge11" class="edge">
<title>Node0&#45;&gt;Node11</title>
<path fill="none" stroke="#191970" d="M154.973,-446.6985C165.2061,-468.4066 185.0373,-503.6929 213,-523 221.6178,-528.9502 231.9271,-533.0399 242.1307,-535.85"/>
<polygon fill="#191970" stroke="#191970" points="158.1382,-445.2032 150.8391,-437.5237 151.7561,-448.0788 158.1382,-445.2032"/>
</g>
<!-- Node12 -->
<g id="node13" class="node">
<title>Node12</title>
<g id="a_node13"><a xlink:href="class_http_fake_meta_counter.html" target="_top" xlink:title="HttpFakeMetaCounter">
<polygon fill="#ffffff" stroke="#000000" points="228,-494.5 228,-513.5 350,-513.5 350,-494.5 228,-494.5"/>
<text text-anchor="middle" x="289" y="-501.5" font-family="Helvetica,sans-Serif" font-size="10.00" fill="#000000">HttpFakeMetaCounter</text>
</a>
</g>
</g>
<!-- Node0&#45;&gt;Node12 -->
<g id="edge12" class="edge">
<title>Node0&#45;&gt;Node12</title>
<path fill="none" stroke="#191970" d="M162.2815,-444.9545C174.7361,-457.7694 193.4135,-474.8362 213,-485 220.4846,-488.8839 228.8016,-492.001 237.1088,-494.4949"/>
<polygon fill="#191970" stroke="#191970" points="164.7823,-442.5048 155.3784,-437.6245 159.6864,-447.304 164.7823,-442.5048"/>
</g>
<!-- Node13 -->
<g id="node14" class="node">
<title>Node13</title>
<g id="a_node14"><a xlink:href="class_http_fake_no_correlation_id.html" target="_top" xlink:title="HttpFakeNoCorrelationId">
<polygon fill="#ffffff" stroke="#000000" points="220.5,-456.5 220.5,-475.5 357.5,-475.5 357.5,-456.5 220.5,-456.5"/>
<text text-anchor="middle" x="289" y="-463.5" font-family="Helvetica,sans-Serif" font-size="10.00" fill="#000000">HttpFakeNoCorrelationId</text>
</a>
</g>
</g>
<!-- Node0&#45;&gt;Node13 -->
<g id="edge13" class="edge">
<title>Node0&#45;&gt;Node13</title>
<path fill="none" stroke="#191970" d="M186.9647,-439.7504C195.5387,-442.2025 204.5582,-444.7304 213,-447 224.8207,-450.178 237.7233,-453.4698 249.4861,-456.4026"/>
<polygon fill="#191970" stroke="#191970" points="187.7437,-436.3325 177.1655,-436.9267 185.8054,-443.0588 187.7437,-436.3325"/>
</g>
<!-- Node14 -->
<g id="node15" class="node">
<title>Node14</title>
<g id="a_node15"><a xlink:href="class_http_fake_pause_counter.html" target="_top" xlink:title="HttpFakePauseCounter">
<polygon fill="#ffffff" stroke="#000000" points="225.5,-418.5 225.5,-437.5 352.5,-437.5 352.5,-418.5 225.5,-418.5"/>
<text text-anchor="middle" x="289" y="-425.5" font-family="Helvetica,sans-Serif" font-size="10.00" fill="#000000">HttpFakePauseCounter</text>
</a>
</g>
</g>
<!-- Node0&#45;&gt;Node14 -->
<g id="edge14" class="edge">
<title>Node0&#45;&gt;Node14</title>
<path fill="none" stroke="#191970" d="M187.1445,-428C199.0278,-428 212.3427,-428 225.3272,-428"/>
<polygon fill="#191970" stroke="#191970" points="187.1146,-424.5001 177.1145,-428 187.1145,-431.5001 187.1146,-424.5001"/>
</g>
<!-- Node15 -->
<g id="node16" class="node">
<title>Node15</title>
<g id="a_node16"><a xlink:href="class_http_fake_prov.html" target="_top" xlink:title="Check that basic device info sent by aktualizr during provisioning matches our expectations. ">
<polygon fill="#ffffff" stroke="#000000" points="248,-380.5 248,-399.5 330,-399.5 330,-380.5 248,-380.5"/>
<text text-anchor="middle" x="289" y="-387.5" font-family="Helvetica,sans-Serif" font-size="10.00" fill="#000000">HttpFakeProv</text>
</a>
</g>
</g>
<!-- Node0&#45;&gt;Node15 -->
<g id="edge15" class="edge">
<title>Node0&#45;&gt;Node15</title>
<path fill="none" stroke="#191970" d="M186.9647,-416.2496C195.5387,-413.7975 204.5582,-411.2696 213,-409 224.8207,-405.822 237.7233,-402.5302 249.4861,-399.5974"/>
<polygon fill="#191970" stroke="#191970" points="185.8054,-412.9412 177.1655,-419.0733 187.7437,-419.6675 185.8054,-412.9412"/>
</g>
<!-- Node16 -->
<g id="node17" class="node">
<title>Node16</title>
<g id="a_node17"><a xlink:href="class_http_fake_put_counter.html" target="_top" xlink:title="HttpFakePutCounter">
<polygon fill="#ffffff" stroke="#000000" points="232,-342.5 232,-361.5 346,-361.5 346,-342.5 232,-342.5"/>
<text text-anchor="middle" x="289" y="-349.5" font-family="Helvetica,sans-Serif" font-size="10.00" fill="#000000">HttpFakePutCounter</text>
</a>
</g>
</g>
<!-- Node0&#45;&gt;Node16 -->
<g id="edge16" class="edge">
<title>Node0&#45;&gt;Node16</title>
<path fill="none" stroke="#191970" d="M162.2815,-411.0455C174.7361,-398.2306 193.4135,-381.1638 213,-371 220.4846,-367.1161 228.8016,-363.999 237.1088,-361.5051"/>
<polygon fill="#191970" stroke="#191970" points="159.6864,-408.696 155.3784,-418.3755 164.7823,-413.4952 159.6864,-408.696"/>
</g>
<!-- Node17 -->
<g id="node18" class="node">
<title>Node17</title>
<g id="a_node18"><a xlink:href="class_http_fake_registration.html" target="_top" xlink:title="HttpFakeRegistration">
<polygon fill="#ffffff" stroke="#000000" points="229.5,-304.5 229.5,-323.5 348.5,-323.5 348.5,-304.5 229.5,-304.5"/>
<text text-anchor="middle" x="289" y="-311.5" font-family="Helvetica,sans-Serif" font-size="10.00" fill="#000000">HttpFakeRegistration</text>
</a>
</g>
</g>
<!-- Node0&#45;&gt;Node17 -->
<g id="edge17" class="edge">
<title>Node0&#45;&gt;Node17</title>
<path fill="none" stroke="#191970" d="M154.973,-409.3015C165.2061,-387.5934 185.0373,-352.3071 213,-333 218.596,-329.1362 224.9052,-326.0569 231.4355,-323.6031"/>
<polygon fill="#191970" stroke="#191970" points="151.7561,-407.9212 150.8391,-418.4763 158.1382,-410.7968 151.7561,-407.9212"/>
</g>
<!-- Node18 -->
<g id="node19" class="node">
<title>Node18</title>
<g id="a_node19"><a xlink:href="class_http_fake_rq.html" target="_top" xlink:title="HttpFakeRq">
<polygon fill="#ffffff" stroke="#000000" points="252.5,-266.5 252.5,-285.5 325.5,-285.5 325.5,-266.5 252.5,-266.5"/>
<text text-anchor="middle" x="289" y="-273.5" font-family="Helvetica,sans-Serif" font-size="10.00" fill="#000000">HttpFakeRq</text>
</a>
</g>
</g>
<!-- Node0&#45;&gt;Node18 -->
<g id="edge18" class="edge">
<title>Node0&#45;&gt;Node18</title>
<path fill="none" stroke="#191970" d="M151.2208,-408.3504C158.5545,-379.0914 176.494,-324.3746 213,-295 224.126,-286.0475 238.9105,-281.2425 252.4807,-278.6888"/>
<polygon fill="#191970" stroke="#191970" points="147.7838,-407.6774 148.9127,-418.2119 154.5996,-409.2726 147.7838,-407.6774"/>
</g>
<!-- Node19 -->
<g id="node20" class="node">
<title>Node19</title>
<g id="a_node20"><a xlink:href="class_http_fake_split.html" target="_top" xlink:title="HttpFakeSplit">
<polygon fill="#ffffff" stroke="#000000" points="248,-228.5 248,-247.5 330,-247.5 330,-228.5 248,-228.5"/>
<text text-anchor="middle" x="289" y="-235.5" font-family="Helvetica,sans-Serif" font-size="10.00" fill="#000000">HttpFakeSplit</text>
</a>
</g>
</g>
<!-- Node0&#45;&gt;Node19 -->
<g id="edge19" class="edge">
<title>Node0&#45;&gt;Node19</title>
<path fill="none" stroke="#191970" d="M148.8368,-407.9693C153.2232,-372.1484 167.5987,-297.1192 213,-257 222.5801,-248.5345 235.3716,-243.7241 247.7246,-241.026"/>
<polygon fill="#191970" stroke="#191970" points="145.3338,-407.8091 147.737,-418.1278 152.2931,-408.5626 145.3338,-407.8091"/>
</g>
<!-- Node20 -->
<g id="node21" class="node">
<title>Node20</title>
<g id="a_node21"><a xlink:href="class_http_fake_unstable.html" target="_top" xlink:title="HttpFakeUnstable">
<polygon fill="#ffffff" stroke="#000000" points="237,-190.5 237,-209.5 341,-209.5 341,-190.5 237,-190.5"/>
<text text-anchor="middle" x="289" y="-197.5" font-family="Helvetica,sans-Serif" font-size="10.00" fill="#000000">HttpFakeUnstable</text>
</a>
</g>
</g>
<!-- Node0&#45;&gt;Node20 -->
<g id="edge20" class="edge">
<title>Node0&#45;&gt;Node20</title>
<path fill="none" stroke="#191970" d="M150.6657,-408.4053C159.7926,-361.6542 184.838,-245.4971 213,-219 219.6366,-212.7558 228.0051,-208.4785 236.7444,-205.5665"/>
<polygon fill="#191970" stroke="#191970" points="147.1827,-407.9851 148.7399,-418.4648 154.0578,-409.3013 147.1827,-407.9851"/>
</g>
<!-- Node21 -->
<g id="node22" class="node">
<title>Node21</title>
<g id="a_node22"><a xlink:href="class_http_put_manifest_fail.html" target="_top" xlink:title="HttpPutManifestFail">
<polygon fill="#ffffff" stroke="#000000" points="233,-152.5 233,-171.5 345,-171.5 345,-152.5 233,-152.5"/>
<text text-anchor="middle" x="289" y="-159.5" font-family="Helvetica,sans-Serif" font-size="10.00" fill="#000000">HttpPutManifestFail</text>
</a>
</g>
</g>
<!-- Node0&#45;&gt;Node21 -->
<g id="edge21" class="edge">
<title>Node0&#45;&gt;Node21</title>
<path fill="none" stroke="#191970" d="M149.1225,-408.3174C156.0213,-353.9337 179.3278,-205.1335 213,-172 218.5257,-166.5627 225.3585,-162.6047 232.6424,-159.8363"/>
<polygon fill="#191970" stroke="#191970" points="145.6275,-408.0658 147.9015,-418.4137 152.5769,-408.9062 145.6275,-408.0658"/>
</g>
<!-- Node0&#45;&gt;Node21 -->
<g id="edge22" class="edge">
<title>Node0&#45;&gt;Node21</title>
<path fill="none" stroke="#191970" d="M150.3368,-408.2444C158.4841,-356.7061 181.0864,-221.403 213,-190 223.6637,-179.5069 239.1952,-174.5233 253.4425,-171.5379"/>
<polygon fill="#191970" stroke="#191970" points="146.8328,-407.9973 148.7385,-418.4193 153.748,-409.0836 146.8328,-407.9973"/>
</g>
<!-- Node22 -->
<g id="node23" class="node">
<title>Node22</title>
<g id="a_node23"><a xlink:href="class_http_reject_empty_corr_id.html" target="_top" xlink:title="HttpRejectEmptyCorrId">
<polygon fill="#ffffff" stroke="#000000" points="225,-114.5 225,-133.5 353,-133.5 353,-114.5 225,-114.5"/>
<text text-anchor="middle" x="289" y="-121.5" font-family="Helvetica,sans-Serif" font-size="10.00" fill="#000000">HttpRejectEmptyCorrId</text>
</a>
</g>
</g>
<!-- Node0&#45;&gt;Node22 -->
<g id="edge23" class="edge">
<title>Node0&#45;&gt;Node22</title>
<path fill="none" stroke="#191970" d="M148.925,-408.1681C154.9723,-349.9464 175.4542,-181.2053 213,-143 216.7178,-139.2169 221.0668,-136.1454 225.7682,-133.6567"/>
<polygon fill="#191970" stroke="#191970" points="145.4277,-407.9668 147.9072,-418.2674 152.3924,-408.6688 145.4277,-407.9668"/>
</g>
<!-- Node23 -->
<g id="node24" class="node">
<title>Node23</title>
<g id="a_node24"><a xlink:href="class_http_system_info.html" target="_top" xlink:title="HttpSystemInfo">
<polygon fill="#ffffff" stroke="#000000" points="242.5,-76.5 242.5,-95.5 335.5,-95.5 335.5,-76.5 242.5,-76.5"/>
<text text-anchor="middle" x="289" y="-83.5" font-family="Helvetica,sans-Serif" font-size="10.00" fill="#000000">HttpSystemInfo</text>
</a>
</g>
</g>
<!-- Node0&#45;&gt;Node23 -->
<g id="edge24" class="edge">
<title>Node0&#45;&gt;Node23</title>
<path fill="none" stroke="#191970" d="M148.3462,-408.0756C153.032,-344.6733 170.7055,-149.172 213,-105 220.807,-96.8465 231.5406,-91.9828 242.4824,-89.1327"/>
<polygon fill="#191970" stroke="#191970" points="144.8366,-408.0878 147.6194,-418.3106 151.819,-408.5837 144.8366,-408.0878"/>
</g>
<!-- Node24 -->
<g id="node25" class="node">
<title>Node24</title>
<g id="a_node25"><a xlink:href="class_http_unstable.html" target="_top" xlink:title="HttpUnstable">
<polygon fill="#ffffff" stroke="#000000" points="248.5,-38.5 248.5,-57.5 329.5,-57.5 329.5,-38.5 248.5,-38.5"/>
<text text-anchor="middle" x="289" y="-45.5" font-family="Helvetica,sans-Serif" font-size="10.00" fill="#000000">HttpUnstable</text>
</a>
</g>
</g>
<!-- Node0&#45;&gt;Node24 -->
<g id="edge25" class="edge">
<title>Node0&#45;&gt;Node24</title>
<path fill="none" stroke="#191970" d="M147.8827,-407.9936C151.3037,-339.6937 165.9289,-117.1919 213,-67 222.1176,-57.2779 235.392,-52.2149 248.3045,-49.6687"/>
<polygon fill="#191970" stroke="#191970" points="144.3747,-408.0813 147.3974,-418.2358 151.3669,-408.4127 144.3747,-408.0813"/>
</g>
<!-- Node25 -->
<g id="node26" class="node">
<title>Node25</title>
<g id="a_node26"><a xlink:href="class_http_zero_length.html" target="_top" xlink:title="HttpZeroLength">
<polygon fill="#ffffff" stroke="#000000" points="242.5,-.5 242.5,-19.5 335.5,-19.5 335.5,-.5 242.5,-.5"/>
<text text-anchor="middle" x="289" y="-7.5" font-family="Helvetica,sans-Serif" font-size="10.00" fill="#000000">HttpZeroLength</text>
</a>
</g>
</g>
<!-- Node0&#45;&gt;Node25 -->
<g id="edge26" class="edge">
<title>Node0&#45;&gt;Node25</title>
<path fill="none" stroke="#191970" d="M147.4919,-408.275C149.7046,-335.776 161.0449,-85.3464 213,-29 220.6522,-20.701 231.3314,-15.7862 242.2703,-12.9335"/>
<polygon fill="#191970" stroke="#191970" points="143.9918,-408.2318 147.2103,-418.3259 150.9891,-408.4279 143.9918,-408.2318"/>
</g>
<!-- Node1 -->
<g id="node2" class="node">
<title>Node1</title>
<g id="a_node2"><a xlink:href="class_http_interface.html" target="_top" xlink:title="HttpInterface">
<polygon fill="#ffffff" stroke="#000000" points="0,-418.5 0,-437.5 81,-437.5 81,-418.5 0,-418.5"/>
<text text-anchor="middle" x="40.5" y="-425.5" font-family="Helvetica,sans-Serif" font-size="10.00" fill="#000000">HttpInterface</text>
</a>
</g>
</g>
<!-- Node1&#45;&gt;Node0 -->
<g id="edge1" class="edge">
<title>Node1&#45;&gt;Node0</title>
<path fill="none" stroke="#191970" d="M91.2409,-428C99.9915,-428 108.8326,-428 116.8162,-428"/>
<polygon fill="#191970" stroke="#191970" points="91.0669,-424.5001 81.0669,-428 91.0669,-431.5001 91.0669,-424.5001"/>
</g>
</g>
</svg>
