<?xml version="1.0" encoding="UTF-8" standalone="no"?>
<!DOCTYPE svg PUBLIC "-//W3C//DTD SVG 1.1//EN"
 "http://www.w3.org/Graphics/SVG/1.1/DTD/svg11.dtd">
<!-- Generated by graphviz version 2.40.1 (20161225.0304)
 -->
<!-- Title: AktualizrSecondary Pages: 1 -->
<svg width="298pt" height="196pt"
 viewBox="0.00 0.00 297.50 196.00" xmlns="http://www.w3.org/2000/svg" xmlns:xlink="http://www.w3.org/1999/xlink">
<g id="graph0" class="graph" transform="scale(1 1) rotate(0) translate(4 192)">
<title>AktualizrSecondary</title>
<polygon fill="#ffffff" stroke="transparent" points="-4,4 -4,-192 293.5,-192 293.5,4 -4,4"/>
<!-- Node0 -->
<g id="node1" class="node">
<title>Node0</title>
<polygon fill="#bfbfbf" stroke="#000000" points="85.5,-56.5 85.5,-75.5 196.5,-75.5 196.5,-56.5 85.5,-56.5"/>
<text text-anchor="middle" x="141" y="-63.5" font-family="Helvetica,sans-Serif" font-size="10.00" fill="#000000">AktualizrSecondary</text>
</g>
<!-- Node3 -->
<g id="node4" class="node">
<title>Node3</title>
<g id="a_node4"><a xlink:href="class_aktualizr_secondary_file.html" target="_top" xlink:title="AktualizrSecondaryFile">
<polygon fill="#ffffff" stroke="#000000" points="0,-.5 0,-19.5 128,-19.5 128,-.5 0,-.5"/>
<text text-anchor="middle" x="64" y="-7.5" font-family="Helvetica,sans-Serif" font-size="10.00" fill="#000000">AktualizrSecondaryFile</text>
</a>
</g>
</g>
<!-- Node0&#45;&gt;Node3 -->
<g id="edge3" class="edge">
<title>Node0&#45;&gt;Node3</title>
<path fill="none" stroke="#191970" d="M119.2884,-50.2097C105.7647,-40.3743 88.8042,-28.0394 77.2587,-19.6427"/>
<polygon fill="#191970" stroke="#191970" points="117.4416,-53.1944 127.5876,-56.2455 121.5589,-47.5332 117.4416,-53.1944"/>
</g>
<!-- Node4 -->
<g id="node5" class="node">
<title>Node4</title>
<g id="a_node5"><a xlink:href="class_aktualizr_secondary_ostree.html" target="_top" xlink:title="AktualizrSecondaryOstree">
<polygon fill="#ffffff" stroke="#000000" points="146.5,-.5 146.5,-19.5 289.5,-19.5 289.5,-.5 146.5,-.5"/>
<text text-anchor="middle" x="218" y="-7.5" font-family="Helvetica,sans-Serif" font-size="10.00" fill="#000000">AktualizrSecondaryOstree</text>
</a>
</g>
</g>
<!-- Node0&#45;&gt;Node4 -->
<g id="edge4" class="edge">
<title>Node0&#45;&gt;Node4</title>
<path fill="none" stroke="#191970" d="M162.7116,-50.2097C176.2353,-40.3743 193.1958,-28.0394 204.7413,-19.6427"/>
<polygon fill="#191970" stroke="#191970" points="160.4411,-47.5332 154.4124,-56.2455 164.5584,-53.1944 160.4411,-47.5332"/>
</g>
<!-- Node1 -->
<g id="node2" class="node">
<title>Node1</title>
<g id="a_node2"><a xlink:href="class_msg_dispatcher.html" target="_top" xlink:title="MsgDispatcher">
<polygon fill="#ffffff" stroke="#000000" points="96.5,-112.5 96.5,-131.5 185.5,-131.5 185.5,-112.5 96.5,-112.5"/>
<text text-anchor="middle" x="141" y="-119.5" font-family="Helvetica,sans-Serif" font-size="10.00" fill="#000000">MsgDispatcher</text>
</a>
</g>
</g>
<!-- Node1&#45;&gt;Node0 -->
<g id="edge1" class="edge">
<title>Node1&#45;&gt;Node0</title>
<path fill="none" stroke="#191970" d="M141,-102.1575C141,-93.155 141,-82.9199 141,-75.6427"/>
<polygon fill="#191970" stroke="#191970" points="137.5001,-102.2455 141,-112.2455 144.5001,-102.2456 137.5001,-102.2455"/>
</g>
<!-- Node2 -->
<g id="node3" class="node">
<title>Node2</title>
<g id="a_node3"><a xlink:href="class_msg_handler.html" target="_top" xlink:title="MsgHandler">
<polygon fill="#ffffff" stroke="#000000" points="104,-168.5 104,-187.5 178,-187.5 178,-168.5 104,-168.5"/>
<text text-anchor="middle" x="141" y="-175.5" font-family="Helvetica,sans-Serif" font-size="10.00" fill="#000000">MsgHandler</text>
</a>
</g>
</g>
<!-- Node2&#45;&gt;Node1 -->
<g id="edge2" class="edge">
<title>Node2&#45;&gt;Node1</title>
<path fill="none" stroke="#191970" d="M141,-158.1575C141,-149.155 141,-138.9199 141,-131.6427"/>
<polygon fill="#191970" stroke="#191970" points="137.5001,-158.2455 141,-168.2455 144.5001,-158.2456 137.5001,-158.2455"/>
</g>
</g>
</svg>
