<?xml version="1.0" encoding="UTF-8" standalone="no"?>
<!DOCTYPE svg PUBLIC "-//W3C//DTD SVG 1.1//EN"
 "http://www.w3.org/Graphics/SVG/1.1/DTD/svg11.dtd">
<!-- Generated by graphviz version 2.40.1 (20161225.0304)
 -->
<!-- Title: SecondaryRpcCommon Pages: 1 -->
<svg width="258pt" height="140pt"
 viewBox="0.00 0.00 258.00 140.00" xmlns="http://www.w3.org/2000/svg" xmlns:xlink="http://www.w3.org/1999/xlink">
<g id="graph0" class="graph" transform="scale(1 1) rotate(0) translate(4 136)">
<title>SecondaryRpcCommon</title>
<polygon fill="#ffffff" stroke="transparent" points="-4,4 -4,-136 254,-136 254,4 -4,4"/>
<!-- Node0 -->
<g id="node1" class="node">
<title>Node0</title>
<polygon fill="#bfbfbf" stroke="#000000" points="54.5,-56.5 54.5,-75.5 184.5,-75.5 184.5,-56.5 54.5,-56.5"/>
<text text-anchor="middle" x="119.5" y="-63.5" font-family="Helvetica,sans-Serif" font-size="10.00" fill="#000000">SecondaryRpcCommon</text>
</g>
<!-- Node2 -->
<g id="node3" class="node">
<title>Node2</title>
<g id="a_node3"><a xlink:href="class_secondary_rpc_test.html" target="_top" xlink:title="SecondaryRpcTest">
<polygon fill="#ffffff" stroke="#000000" points="0,-.5 0,-19.5 105,-19.5 105,-.5 0,-.5"/>
<text text-anchor="middle" x="52.5" y="-7.5" font-family="Helvetica,sans-Serif" font-size="10.00" fill="#000000">SecondaryRpcTest</text>
</a>
</g>
</g>
<!-- Node0&#45;&gt;Node2 -->
<g id="edge2" class="edge">
<title>Node0&#45;&gt;Node2</title>
<path fill="none" stroke="#191970" d="M99.9324,-49.645C88.2802,-39.9058 73.8916,-27.8795 64.0368,-19.6427"/>
<polygon fill="#191970" stroke="#191970" points="97.9121,-52.5179 107.8295,-56.2455 102.4012,-47.1469 97.9121,-52.5179"/>
</g>
<!-- Node3 -->
<g id="node4" class="node">
<title>Node3</title>
<g id="a_node4"><a xlink:href="class_secondary_rpc_upgrade.html" target="_top" xlink:title="SecondaryRpcUpgrade">
<polygon fill="#ffffff" stroke="#000000" points="123,-.5 123,-19.5 250,-19.5 250,-.5 123,-.5"/>
<text text-anchor="middle" x="186.5" y="-7.5" font-family="Helvetica,sans-Serif" font-size="10.00" fill="#000000">SecondaryRpcUpgrade</text>
</a>
</g>
</g>
<!-- Node0&#45;&gt;Node3 -->
<g id="edge3" class="edge">
<title>Node0&#45;&gt;Node3</title>
<path fill="none" stroke="#191970" d="M139.0676,-49.645C150.7198,-39.9058 165.1084,-27.8795 174.9632,-19.6427"/>
<polygon fill="#191970" stroke="#191970" points="136.5988,-47.1469 131.1705,-56.2455 141.0879,-52.5179 136.5988,-47.1469"/>
</g>
<!-- Node1 -->
<g id="node2" class="node">
<title>Node1</title>
<polygon fill="#ffffff" stroke="#bfbfbf" points="81.5,-112.5 81.5,-131.5 157.5,-131.5 157.5,-112.5 81.5,-112.5"/>
<text text-anchor="middle" x="119.5" y="-119.5" font-family="Helvetica,sans-Serif" font-size="10.00" fill="#000000">testing::Test</text>
</g>
<!-- Node1&#45;&gt;Node0 -->
<g id="edge1" class="edge">
<title>Node1&#45;&gt;Node0</title>
<path fill="none" stroke="#191970" d="M119.5,-102.1575C119.5,-93.155 119.5,-82.9199 119.5,-75.6427"/>
<polygon fill="#191970" stroke="#191970" points="116.0001,-102.2455 119.5,-112.2455 123.0001,-102.2456 116.0001,-102.2455"/>
</g>
</g>
</svg>
