<?xml version="1.0" encoding="UTF-8" standalone="no"?>
<!DOCTYPE svg PUBLIC "-//W3C//DTD SVG 1.1//EN"
 "http://www.w3.org/Graphics/SVG/1.1/DTD/svg11.dtd">
<!-- Generated by graphviz version 2.40.1 (20161225.0304)
 -->
<!-- Title: event::CampaignCheckComplete Pages: 1 -->
<svg width="239pt" height="406pt"
 viewBox="0.00 0.00 238.50 406.00" xmlns="http://www.w3.org/2000/svg" xmlns:xlink="http://www.w3.org/1999/xlink">
<g id="graph0" class="graph" transform="scale(1 1) rotate(0) translate(4 402)">
<title>event::CampaignCheckComplete</title>
<polygon fill="#ffffff" stroke="transparent" points="-4,4 -4,-402 234.5,-402 234.5,4 -4,4"/>
<!-- Node2 -->
<g id="node1" class="node">
<title>Node2</title>
<polygon fill="#bfbfbf" stroke="#000000" points="0,-.5 0,-19.5 177,-19.5 177,-.5 0,-.5"/>
<text text-anchor="middle" x="88.5" y="-7.5" font-family="Helvetica,sans-Serif" font-size="10.00" fill="#000000">event::CampaignCheckComplete</text>
</g>
<!-- Node3 -->
<g id="node2" class="node">
<title>Node3</title>
<g id="a_node2"><a xlink:href="classevent_1_1_base_event.html" target="_top" xlink:title="Base class for all event objects. ">
<polygon fill="#ffffff" stroke="#000000" points="22.5,-183.5 22.5,-202.5 124.5,-202.5 124.5,-183.5 22.5,-183.5"/>
<text text-anchor="middle" x="73.5" y="-190.5" font-family="Helvetica,sans-Serif" font-size="10.00" fill="#000000">event::BaseEvent</text>
</a>
</g>
</g>
<!-- Node3&#45;&gt;Node2 -->
<g id="edge1" class="edge">
<title>Node3&#45;&gt;Node2</title>
<path fill="none" stroke="#191970" d="M75.1087,-173.3739C78.2937,-134.5169 85.3005,-49.0342 87.6861,-19.9302"/>
<polygon fill="#191970" stroke="#191970" points="71.6141,-173.1662 74.2853,-183.4188 78.5907,-173.7382 71.6141,-173.1662"/>
</g>
<!-- Node4 -->
<g id="node3" class="node">
<title>Node4</title>
<g id="a_node3"><a xlink:title="STL class. ">
<polygon fill="#ffffff" stroke="#bfbfbf" points="73,-310.5 73,-329.5 138,-329.5 138,-310.5 73,-310.5"/>
<text text-anchor="middle" x="105.5" y="-317.5" font-family="Helvetica,sans-Serif" font-size="10.00" fill="#000000">std::string</text>
</a>
</g>
</g>
<!-- Node4&#45;&gt;Node3 -->
<g id="edge2" class="edge">
<title>Node4&#45;&gt;Node3</title>
<path fill="none" stroke="#9a32cd" stroke-dasharray="5,2" d="M87.9719,-302.8412C85.4011,-299.4844 83.0885,-295.814 81.5,-292 68.7713,-261.4371 70.6356,-221.0311 72.3634,-202.7382"/>
<polygon fill="#9a32cd" stroke="#9a32cd" points="85.4075,-305.2254 94.6287,-310.4426 90.6736,-300.6137 85.4075,-305.2254"/>
<text text-anchor="middle" x="100.5" y="-273" font-family="Helvetica,sans-Serif" font-size="10.00" fill="#000000"> variant</text>
</g>
<!-- Node8 -->
<g id="node7" class="node">
<title>Node8</title>
<g id="a_node7"><a xlink:href="classcampaign_1_1_campaign.html" target="_top" xlink:title="campaign::Campaign">
<polygon fill="#ffffff" stroke="#000000" points="103.5,-221.5 103.5,-240.5 223.5,-240.5 223.5,-221.5 103.5,-221.5"/>
<text text-anchor="middle" x="163.5" y="-228.5" font-family="Helvetica,sans-Serif" font-size="10.00" fill="#000000">campaign::Campaign</text>
</a>
</g>
</g>
<!-- Node4&#45;&gt;Node8 -->
<g id="edge7" class="edge">
<title>Node4&#45;&gt;Node8</title>
<path fill="none" stroke="#9a32cd" stroke-dasharray="5,2" d="M117.2045,-302.0397C129.2543,-283.5494 147.5814,-255.4269 157.1618,-240.7259"/>
<polygon fill="#9a32cd" stroke="#9a32cd" points="114.2346,-300.1865 111.707,-310.4754 120.0992,-304.0084 114.2346,-300.1865"/>
<text text-anchor="middle" x="172" y="-284" font-family="Helvetica,sans-Serif" font-size="10.00" fill="#000000"> id</text>
<text text-anchor="middle" x="172" y="-273" font-family="Helvetica,sans-Serif" font-size="10.00" fill="#000000">name</text>
<text text-anchor="middle" x="172" y="-262" font-family="Helvetica,sans-Serif" font-size="10.00" fill="#000000">description</text>
</g>
<!-- Node5 -->
<g id="node4" class="node">
<title>Node5</title>
<g id="a_node4"><a xlink:title="STL class. ">
<polygon fill="#ffffff" stroke="#bfbfbf" points="53.5,-367.5 53.5,-397.5 157.5,-397.5 157.5,-367.5 53.5,-367.5"/>
<text text-anchor="start" x="61.5" y="-385.5" font-family="Helvetica,sans-Serif" font-size="10.00" fill="#000000">std::basic_string&lt;</text>
<text text-anchor="middle" x="105.5" y="-374.5" font-family="Helvetica,sans-Serif" font-size="10.00" fill="#000000"> char &gt;</text>
</a>
</g>
</g>
<!-- Node5&#45;&gt;Node4 -->
<g id="edge3" class="edge">
<title>Node5&#45;&gt;Node4</title>
<path fill="none" stroke="#191970" d="M105.5,-357.3498C105.5,-347.6481 105.5,-337.1303 105.5,-329.7356"/>
<polygon fill="#191970" stroke="#191970" points="102.0001,-357.3705 105.5,-367.3705 109.0001,-357.3705 102.0001,-357.3705"/>
</g>
<!-- Node6 -->
<g id="node5" class="node">
<title>Node6</title>
<g id="a_node5"><a xlink:href="classresult_1_1_campaign_check.html" target="_top" xlink:title="Container for information about available campaigns. ">
<polygon fill="#ffffff" stroke="#000000" points="100.5,-67.5 100.5,-86.5 230.5,-86.5 230.5,-67.5 100.5,-67.5"/>
<text text-anchor="middle" x="165.5" y="-74.5" font-family="Helvetica,sans-Serif" font-size="10.00" fill="#000000">result::CampaignCheck</text>
</a>
</g>
</g>
<!-- Node6&#45;&gt;Node2 -->
<g id="edge4" class="edge">
<title>Node6&#45;&gt;Node2</title>
<path fill="none" stroke="#9a32cd" stroke-dasharray="5,2" d="M146.8812,-60.7992C132.0718,-47.9131 111.8536,-30.3207 99.5118,-19.5817"/>
<polygon fill="#9a32cd" stroke="#9a32cd" points="144.6263,-63.4767 154.4678,-67.4005 149.2213,-58.1959 144.6263,-63.4767"/>
<text text-anchor="middle" x="147" y="-41" font-family="Helvetica,sans-Serif" font-size="10.00" fill="#000000"> result</text>
</g>
<!-- Node7 -->
<g id="node6" class="node">
<title>Node7</title>
<polygon fill="#ffffff" stroke="#bfbfbf" points="100.5,-134.5 100.5,-164.5 228.5,-164.5 228.5,-134.5 100.5,-134.5"/>
<text text-anchor="start" x="108.5" y="-152.5" font-family="Helvetica,sans-Serif" font-size="10.00" fill="#000000">std::vector&lt; campaign</text>
<text text-anchor="middle" x="164.5" y="-141.5" font-family="Helvetica,sans-Serif" font-size="10.00" fill="#000000">::Campaign &gt;</text>
</g>
<!-- Node7&#45;&gt;Node6 -->
<g id="edge5" class="edge">
<title>Node7&#45;&gt;Node6</title>
<path fill="none" stroke="#9a32cd" stroke-dasharray="5,2" d="M164.8475,-124.305C165.0252,-111.424 165.2313,-96.4836 165.3635,-86.8957"/>
<polygon fill="#9a32cd" stroke="#9a32cd" points="161.3455,-124.4306 164.7072,-134.478 168.3449,-124.5272 161.3455,-124.4306"/>
<text text-anchor="middle" x="193" y="-108" font-family="Helvetica,sans-Serif" font-size="10.00" fill="#000000"> campaigns</text>
</g>
<!-- Node8&#45;&gt;Node7 -->
<g id="edge6" class="edge">
<title>Node8&#45;&gt;Node7</title>
<path fill="none" stroke="#9a32cd" stroke-dasharray="5,2" d="M163.7446,-211.0659C163.9201,-196.7645 164.1529,-177.7869 164.3135,-164.7011"/>
<polygon fill="#9a32cd" stroke="#9a32cd" points="160.2417,-211.2886 163.6186,-221.3308 167.2412,-211.3746 160.2417,-211.2886"/>
<text text-anchor="middle" x="188" y="-190.5" font-family="Helvetica,sans-Serif" font-size="10.00" fill="#000000"> elements</text>
</g>
</g>
</svg>
