<?xml version="1.0" encoding="UTF-8" standalone="no"?>
<!DOCTYPE svg PUBLIC "-//W3C//DTD SVG 1.1//EN"
 "http://www.w3.org/Graphics/SVG/1.1/DTD/svg11.dtd">
<!-- Generated by graphviz version 2.40.1 (20161225.0304)
 -->
<!-- Title: MultiPartHasher Pages: 1 -->
<svg width="290pt" height="84pt"
 viewBox="0.00 0.00 290.00 84.00" xmlns="http://www.w3.org/2000/svg" xmlns:xlink="http://www.w3.org/1999/xlink">
<g id="graph0" class="graph" transform="scale(1 1) rotate(0) translate(4 80)">
<title>MultiPartHasher</title>
<polygon fill="#ffffff" stroke="transparent" points="-4,4 -4,-80 286,-80 286,4 -4,4"/>
<!-- Node0 -->
<g id="node1" class="node">
<title>Node0</title>
<polygon fill="#bfbfbf" stroke="#000000" points="94,-56.5 94,-75.5 188,-75.5 188,-56.5 94,-56.5"/>
<text text-anchor="middle" x="141" y="-63.5" font-family="Helvetica,sans-Serif" font-size="10.00" fill="#000000">MultiPartHasher</text>
</g>
<!-- Node1 -->
<g id="node2" class="node">
<title>Node1</title>
<g id="a_node2"><a xlink:href="class_multi_part_s_h_a256_hasher.html" target="_top" xlink:title="MultiPartSHA256Hasher">
<polygon fill="#ffffff" stroke="#000000" points="0,-.5 0,-19.5 132,-19.5 132,-.5 0,-.5"/>
<text text-anchor="middle" x="66" y="-7.5" font-family="Helvetica,sans-Serif" font-size="10.00" fill="#000000">MultiPartSHA256Hasher</text>
</a>
</g>
</g>
<!-- Node0&#45;&gt;Node1 -->
<g id="edge1" class="edge">
<title>Node0&#45;&gt;Node1</title>
<path fill="none" stroke="#191970" d="M119.8523,-50.2097C106.6799,-40.3743 90.16,-28.0394 78.9143,-19.6427"/>
<polygon fill="#191970" stroke="#191970" points="117.8291,-53.0671 127.936,-56.2455 122.0172,-47.4581 117.8291,-53.0671"/>
</g>
<!-- Node2 -->
<g id="node3" class="node">
<title>Node2</title>
<g id="a_node3"><a xlink:href="class_multi_part_s_h_a512_hasher.html" target="_top" xlink:title="MultiPartSHA512Hasher">
<polygon fill="#ffffff" stroke="#000000" points="150,-.5 150,-19.5 282,-19.5 282,-.5 150,-.5"/>
<text text-anchor="middle" x="216" y="-7.5" font-family="Helvetica,sans-Serif" font-size="10.00" fill="#000000">MultiPartSHA512Hasher</text>
</a>
</g>
</g>
<!-- Node0&#45;&gt;Node2 -->
<g id="edge2" class="edge">
<title>Node0&#45;&gt;Node2</title>
<path fill="none" stroke="#191970" d="M162.1477,-50.2097C175.3201,-40.3743 191.84,-28.0394 203.0857,-19.6427"/>
<polygon fill="#191970" stroke="#191970" points="159.9828,-47.4581 154.064,-56.2455 164.1709,-53.0671 159.9828,-47.4581"/>
</g>
</g>
</svg>
