<?xml version="1.0" encoding="UTF-8" standalone="no"?>
<!DOCTYPE svg PUBLIC "-//W3C//DTD SVG 1.1//EN"
 "http://www.w3.org/Graphics/SVG/1.1/DTD/svg11.dtd">
<!-- Generated by graphviz version 2.40.1 (20161225.0304)
 -->
<!-- Title: SecondaryRpcCommon Pages: 1 -->
<svg width="1272pt" height="803pt"
 viewBox="0.00 0.00 1272.00 802.96" xmlns="http://www.w3.org/2000/svg" xmlns:xlink="http://www.w3.org/1999/xlink">
<g id="graph0" class="graph" transform="scale(1 1) rotate(0) translate(4 798.9606)">
<title>SecondaryRpcCommon</title>
<polygon fill="#ffffff" stroke="transparent" points="-4,4 -4,-798.9606 1268,-798.9606 1268,4 -4,4"/>
<!-- Node4 -->
<g id="node1" class="node">
<title>Node4</title>
<polygon fill="#bfbfbf" stroke="#000000" points="1134,-349.4985 1134,-368.4985 1264,-368.4985 1264,-349.4985 1134,-349.4985"/>
<text text-anchor="middle" x="1199" y="-356.4985" font-family="Helvetica,sans-Serif" font-size="10.00" fill="#000000">SecondaryRpcCommon</text>
</g>
<!-- Node5 -->
<g id="node2" class="node">
<title>Node5</title>
<polygon fill="#ffffff" stroke="#bfbfbf" points="870.5,-773.4985 870.5,-792.4985 946.5,-792.4985 946.5,-773.4985 870.5,-773.4985"/>
<text text-anchor="middle" x="908.5" y="-780.4985" font-family="Helvetica,sans-Serif" font-size="10.00" fill="#000000">testing::Test</text>
</g>
<!-- Node5&#45;&gt;Node4 -->
<g id="edge1" class="edge">
<title>Node5&#45;&gt;Node4</title>
<path fill="none" stroke="#191970" d="M956.9886,-792.0334C1003.7278,-797.7421 1073.4521,-797.9013 1116,-758.9985 1176.194,-703.9614 1195.2237,-424.9431 1198.4682,-368.8352"/>
<polygon fill="#191970" stroke="#191970" points="957.1786,-788.5274 946.8001,-790.6575 956.2417,-795.4644 957.1786,-788.5274"/>
</g>
<!-- Node6 -->
<g id="node3" class="node">
<title>Node6</title>
<g id="a_node3"><a xlink:href="class_config.html" target="_top" xlink:title="Configuration object for an aktualizr instance running on a Primary ECU. ">
<polygon fill="#ffffff" stroke="#000000" points="885,-368.4985 885,-387.4985 932,-387.4985 932,-368.4985 885,-368.4985"/>
<text text-anchor="middle" x="908.5" y="-375.4985" font-family="Helvetica,sans-Serif" font-size="10.00" fill="#000000">Config</text>
</a>
</g>
</g>
<!-- Node6&#45;&gt;Node4 -->
<g id="edge2" class="edge">
<title>Node6&#45;&gt;Node4</title>
<path fill="none" stroke="#9a32cd" stroke-dasharray="5,2" d="M942.4779,-375.7762C989.2706,-372.7157 1074.4815,-367.1425 1133.7962,-363.2631"/>
<polygon fill="#9a32cd" stroke="#9a32cd" points="942.0231,-372.2983 932.2728,-376.4436 942.48,-379.2834 942.0231,-372.2983"/>
<text text-anchor="middle" x="1050" y="-374.9985" font-family="Helvetica,sans-Serif" font-size="10.00" fill="#000000"> config_</text>
</g>
<!-- Node7 -->
<g id="node4" class="node">
<title>Node7</title>
<g id="a_node4"><a xlink:href="class_base_config.html" target="_top" xlink:title="The BaseConfig class. ">
<polygon fill="#ffffff" stroke="#000000" points="671.5,-521.4985 671.5,-540.4985 742.5,-540.4985 742.5,-521.4985 671.5,-521.4985"/>
<text text-anchor="middle" x="707" y="-528.4985" font-family="Helvetica,sans-Serif" font-size="10.00" fill="#000000">BaseConfig</text>
</a>
</g>
</g>
<!-- Node7&#45;&gt;Node6 -->
<g id="edge3" class="edge">
<title>Node7&#45;&gt;Node6</title>
<path fill="none" stroke="#191970" d="M752.3499,-519.2898C777.8336,-511.1608 809.2012,-498.4346 833,-479.9985 867.3115,-453.4185 893.5249,-407.3446 903.7852,-387.5192"/>
<polygon fill="#191970" stroke="#191970" points="751.0844,-516.0167 742.544,-522.2866 753.1303,-522.7111 751.0844,-516.0167"/>
</g>
<!-- Node8 -->
<g id="node5" class="node">
<title>Node8</title>
<polygon fill="#ffffff" stroke="#bfbfbf" points="382.5,-533.9985 382.5,-563.9985 495.5,-563.9985 495.5,-533.9985 382.5,-533.9985"/>
<text text-anchor="start" x="390.5" y="-551.9985" font-family="Helvetica,sans-Serif" font-size="10.00" fill="#000000">std::vector&lt; boost</text>
<text text-anchor="middle" x="439" y="-540.9985" font-family="Helvetica,sans-Serif" font-size="10.00" fill="#000000">::filesystem::path &gt;</text>
</g>
<!-- Node8&#45;&gt;Node7 -->
<g id="edge4" class="edge">
<title>Node8&#45;&gt;Node7</title>
<path fill="none" stroke="#9a32cd" stroke-dasharray="5,2" d="M505.7342,-550.7716C544.9542,-551.0416 595.4303,-550.0539 640,-544.9985 650.2725,-543.8333 661.301,-541.8432 671.3852,-539.7233"/>
<polygon fill="#9a32cd" stroke="#9a32cd" points="505.5358,-547.2696 495.5019,-550.6711 505.467,-554.2693 505.5358,-547.2696"/>
<text text-anchor="middle" x="579" y="-552.9985" font-family="Helvetica,sans-Serif" font-size="10.00" fill="#000000"> config_dirs_</text>
</g>
<!-- Node9 -->
<g id="node6" class="node">
<title>Node9</title>
<g id="a_node6"><a xlink:href="struct_storage_config.html" target="_top" xlink:title="StorageConfig">
<polygon fill="#ffffff" stroke="#000000" points="664.5,-468.4985 664.5,-487.4985 749.5,-487.4985 749.5,-468.4985 664.5,-468.4985"/>
<text text-anchor="middle" x="707" y="-475.4985" font-family="Helvetica,sans-Serif" font-size="10.00" fill="#000000">StorageConfig</text>
</a>
</g>
</g>
<!-- Node9&#45;&gt;Node6 -->
<g id="edge5" class="edge">
<title>Node9&#45;&gt;Node6</title>
<path fill="none" stroke="#9a32cd" stroke-dasharray="5,2" d="M759.7381,-469.3569C783.109,-464.1431 810.373,-456.0955 833,-443.9985 860.9432,-429.0593 887.3148,-402.0033 900.226,-387.6097"/>
<polygon fill="#9a32cd" stroke="#9a32cd" points="758.7064,-465.9975 749.646,-471.4893 760.1536,-472.8463 758.7064,-465.9975"/>
<text text-anchor="middle" x="803.5" y="-467.9985" font-family="Helvetica,sans-Serif" font-size="10.00" fill="#000000"> storage</text>
</g>
<!-- Node10 -->
<g id="node7" class="node">
<title>Node10</title>
<g id="a_node7"><a xlink:href="classutils_1_1_based_path.html" target="_top" xlink:title="The BasedPath class Can represent an absolute or relative path, only readable through the BasePath::g...">
<polygon fill="#ffffff" stroke="#000000" points="391.5,-429.4985 391.5,-448.4985 486.5,-448.4985 486.5,-429.4985 391.5,-429.4985"/>
<text text-anchor="middle" x="439" y="-436.4985" font-family="Helvetica,sans-Serif" font-size="10.00" fill="#000000">utils::BasedPath</text>
</a>
</g>
</g>
<!-- Node10&#45;&gt;Node9 -->
<g id="edge6" class="edge">
<title>Node10&#45;&gt;Node9</title>
<path fill="none" stroke="#9a32cd" stroke-dasharray="5,2" d="M496.8792,-438.6491C537.3784,-439.4655 592.5109,-442.7108 640,-452.9985 644.3682,-453.9448 665.0214,-461.7366 682.2568,-468.3734"/>
<polygon fill="#9a32cd" stroke="#9a32cd" points="496.7042,-435.146 486.6504,-438.488 496.594,-442.1451 496.7042,-435.146"/>
<text text-anchor="middle" x="579" y="-532.9985" font-family="Helvetica,sans-Serif" font-size="10.00" fill="#000000"> uptane_public_key_path</text>
<text text-anchor="middle" x="579" y="-521.9985" font-family="Helvetica,sans-Serif" font-size="10.00" fill="#000000">tls_pkey_path</text>
<text text-anchor="middle" x="579" y="-510.9985" font-family="Helvetica,sans-Serif" font-size="10.00" fill="#000000">uptane_metadata_path</text>
<text text-anchor="middle" x="579" y="-499.9985" font-family="Helvetica,sans-Serif" font-size="10.00" fill="#000000">sqldb_path</text>
<text text-anchor="start" x="518" y="-488.9985" font-family="Helvetica,sans-Serif" font-size="10.00" fill="#000000">uptane_private_key</text>
<text text-anchor="middle" x="579" y="-477.9985" font-family="Helvetica,sans-Serif" font-size="10.00" fill="#000000">_path</text>
<text text-anchor="middle" x="579" y="-466.9985" font-family="Helvetica,sans-Serif" font-size="10.00" fill="#000000">tls_cacert_path</text>
<text text-anchor="middle" x="579" y="-455.9985" font-family="Helvetica,sans-Serif" font-size="10.00" fill="#000000">tls_clientcert_path</text>
</g>
<!-- Node21 -->
<g id="node18" class="node">
<title>Node21</title>
<g id="a_node18"><a xlink:href="struct_import_config.html" target="_top" xlink:title="ImportConfig">
<polygon fill="#ffffff" stroke="#000000" points="667,-430.4985 667,-449.4985 747,-449.4985 747,-430.4985 667,-430.4985"/>
<text text-anchor="middle" x="707" y="-437.4985" font-family="Helvetica,sans-Serif" font-size="10.00" fill="#000000">ImportConfig</text>
</a>
</g>
</g>
<!-- Node10&#45;&gt;Node21 -->
<g id="edge23" class="edge">
<title>Node10&#45;&gt;Node21</title>
<path fill="none" stroke="#9a32cd" stroke-dasharray="5,2" d="M465.5007,-424.1351C476.9507,-416.9014 489.9876,-407.498 500,-396.9985 510.469,-386.0201 504.7433,-375.3729 518,-367.9985 565.3842,-341.6396 595.4334,-337.1138 640,-367.9985 658.7268,-380.9761 642.6866,-399.1281 658,-415.9985 663.539,-422.1006 670.9724,-426.827 678.3728,-430.4081"/>
<polygon fill="#9a32cd" stroke="#9a32cd" points="463.4774,-421.2689 456.7463,-429.4508 467.1105,-427.2523 463.4774,-421.2689"/>
<text text-anchor="middle" x="579" y="-425.9985" font-family="Helvetica,sans-Serif" font-size="10.00" fill="#000000"> uptane_public_key_path</text>
<text text-anchor="middle" x="579" y="-414.9985" font-family="Helvetica,sans-Serif" font-size="10.00" fill="#000000">tls_pkey_path</text>
<text text-anchor="start" x="518" y="-403.9985" font-family="Helvetica,sans-Serif" font-size="10.00" fill="#000000">uptane_private_key</text>
<text text-anchor="middle" x="579" y="-392.9985" font-family="Helvetica,sans-Serif" font-size="10.00" fill="#000000">_path</text>
<text text-anchor="middle" x="579" y="-381.9985" font-family="Helvetica,sans-Serif" font-size="10.00" fill="#000000">tls_cacert_path</text>
<text text-anchor="middle" x="579" y="-370.9985" font-family="Helvetica,sans-Serif" font-size="10.00" fill="#000000">tls_clientcert_path</text>
</g>
<!-- Node11 -->
<g id="node8" class="node">
<title>Node11</title>
<g id="a_node8"><a xlink:href="struct_tls_config.html" target="_top" xlink:title="TlsConfig">
<polygon fill="#ffffff" stroke="#000000" points="548,-299.4985 548,-318.4985 610,-318.4985 610,-299.4985 548,-299.4985"/>
<text text-anchor="middle" x="579" y="-306.4985" font-family="Helvetica,sans-Serif" font-size="10.00" fill="#000000">TlsConfig</text>
</a>
</g>
</g>
<!-- Node11&#45;&gt;Node6 -->
<g id="edge7" class="edge">
<title>Node11&#45;&gt;Node6</title>
<path fill="none" stroke="#9a32cd" stroke-dasharray="5,2" d="M619.8311,-300.7757C626.6288,-299.08 633.5594,-297.1465 640,-294.9985 648.3048,-292.2287 649.4362,-288.8158 658,-286.9985 700.6067,-277.9567 713.5837,-277.1019 756,-286.9985 793.1646,-295.6697 805.6336,-298.4 833,-324.9985 845.261,-336.9154 837.9394,-347.9637 851,-358.9985 860.5568,-367.0728 873.6533,-371.7461 884.9337,-374.4355"/>
<polygon fill="#9a32cd" stroke="#9a32cd" points="618.9676,-297.3833 610.0393,-303.0873 620.5759,-304.196 618.9676,-297.3833"/>
<text text-anchor="middle" x="707" y="-289.9985" font-family="Helvetica,sans-Serif" font-size="10.00" fill="#000000"> tls</text>
</g>
<!-- Node12 -->
<g id="node9" class="node">
<title>Node12</title>
<g id="a_node9"><a xlink:title="STL class. ">
<polygon fill="#ffffff" stroke="#bfbfbf" points="153,-302.4985 153,-321.4985 218,-321.4985 218,-302.4985 153,-302.4985"/>
<text text-anchor="middle" x="185.5" y="-309.4985" font-family="Helvetica,sans-Serif" font-size="10.00" fill="#000000">std::string</text>
</a>
</g>
</g>
<!-- Node12&#45;&gt;Node4 -->
<g id="edge32" class="edge">
<title>Node12&#45;&gt;Node4</title>
<path fill="none" stroke="#9a32cd" stroke-dasharray="5,2" d="M192.4267,-331.1299C212.0794,-382.1516 273.6251,-521.1673 378,-573.9985 426.3779,-598.4858 445.8057,-575.7386 500,-573.9985 562.3185,-571.9974 577.9388,-570.9996 640,-564.9985 691.7435,-559.995 705.8686,-563.7558 756,-549.9985 929.2464,-502.4551 1123.1826,-400.4904 1181.5076,-368.681"/>
<polygon fill="#9a32cd" stroke="#9a32cd" points="195.6568,-329.7753 188.8685,-321.6407 189.1024,-332.233 195.6568,-329.7753"/>
<text text-anchor="middle" x="707" y="-686.9985" font-family="Helvetica,sans-Serif" font-size="10.00" fill="#000000"> image_timestamp_</text>
<text text-anchor="middle" x="707" y="-675.9985" font-family="Helvetica,sans-Serif" font-size="10.00" fill="#000000">image_snapshot_</text>
<text text-anchor="middle" x="707" y="-664.9985" font-family="Helvetica,sans-Serif" font-size="10.00" fill="#000000">director_targets_</text>
<text text-anchor="middle" x="707" y="-653.9985" font-family="Helvetica,sans-Serif" font-size="10.00" fill="#000000">director_root_</text>
<text text-anchor="middle" x="707" y="-642.9985" font-family="Helvetica,sans-Serif" font-size="10.00" fill="#000000">server_</text>
<text text-anchor="middle" x="707" y="-631.9985" font-family="Helvetica,sans-Serif" font-size="10.00" fill="#000000">cert_</text>
<text text-anchor="middle" x="707" y="-620.9985" font-family="Helvetica,sans-Serif" font-size="10.00" fill="#000000">image_root_</text>
<text text-anchor="start" x="658" y="-609.9985" font-family="Helvetica,sans-Serif" font-size="10.00" fill="#000000">image_targets</text>
<text text-anchor="middle" x="707" y="-598.9985" font-family="Helvetica,sans-Serif" font-size="10.00" fill="#000000">_</text>
<text text-anchor="middle" x="707" y="-587.9985" font-family="Helvetica,sans-Serif" font-size="10.00" fill="#000000">pkey_</text>
<text text-anchor="middle" x="707" y="-576.9985" font-family="Helvetica,sans-Serif" font-size="10.00" fill="#000000">ca_</text>
<text text-anchor="middle" x="707" y="-565.9985" font-family="Helvetica,sans-Serif" font-size="10.00" fill="#000000">...</text>
</g>
<!-- Node12&#45;&gt;Node11 -->
<g id="edge8" class="edge">
<title>Node12&#45;&gt;Node11</title>
<path fill="none" stroke="#9a32cd" stroke-dasharray="5,2" d="M228.2675,-320.5415C234.8509,-321.5617 241.5895,-322.4386 248,-322.9985 359.5789,-332.7425 388.3776,-330.23 500,-320.9985 515.8992,-319.6835 533.456,-317.1284 547.9727,-314.7127"/>
<polygon fill="#9a32cd" stroke="#9a32cd" points="228.5596,-317.0418 218.1194,-318.8453 227.4056,-323.946 228.5596,-317.0418"/>
<text text-anchor="middle" x="304" y="-331.9985" font-family="Helvetica,sans-Serif" font-size="10.00" fill="#000000"> server</text>
</g>
<!-- Node15 -->
<g id="node12" class="node">
<title>Node15</title>
<g id="a_node12"><a xlink:href="struct_package_config.html" target="_top" xlink:title="PackageConfig">
<polygon fill="#ffffff" stroke="#000000" points="663,-222.4985 663,-241.4985 751,-241.4985 751,-222.4985 663,-222.4985"/>
<text text-anchor="middle" x="707" y="-229.4985" font-family="Helvetica,sans-Serif" font-size="10.00" fill="#000000">PackageConfig</text>
</a>
</g>
</g>
<!-- Node12&#45;&gt;Node15 -->
<g id="edge14" class="edge">
<title>Node12&#45;&gt;Node15</title>
<path fill="none" stroke="#9a32cd" stroke-dasharray="5,2" d="M228.4931,-315.2724C264.7761,-316.4811 317.4557,-314.5268 360,-297.9985 369.447,-294.3283 368.6678,-287.9514 378,-283.9985 486.286,-238.1305 524.3058,-268.0837 640,-246.9985 648.6778,-245.4169 657.937,-243.4964 666.7165,-241.5649"/>
<polygon fill="#9a32cd" stroke="#9a32cd" points="228.3941,-311.7651 218.2532,-314.833 228.0939,-318.7586 228.3941,-311.7651"/>
<text text-anchor="middle" x="439" y="-308.9985" font-family="Helvetica,sans-Serif" font-size="10.00" fill="#000000"> os</text>
<text text-anchor="middle" x="439" y="-297.9985" font-family="Helvetica,sans-Serif" font-size="10.00" fill="#000000">ostree_server</text>
<text text-anchor="middle" x="439" y="-286.9985" font-family="Helvetica,sans-Serif" font-size="10.00" fill="#000000">type</text>
</g>
<!-- Node16 -->
<g id="node13" class="node">
<title>Node16</title>
<polygon fill="#ffffff" stroke="#bfbfbf" points="378,-216.9985 378,-246.9985 500,-246.9985 500,-216.9985 378,-216.9985"/>
<text text-anchor="start" x="386" y="-234.9985" font-family="Helvetica,sans-Serif" font-size="10.00" fill="#000000">std::map&lt; std::string,</text>
<text text-anchor="middle" x="439" y="-223.9985" font-family="Helvetica,sans-Serif" font-size="10.00" fill="#000000"> std::string &gt;</text>
</g>
<!-- Node12&#45;&gt;Node16 -->
<g id="edge13" class="edge">
<title>Node12&#45;&gt;Node16</title>
<path fill="none" stroke="#9a32cd" stroke-dasharray="5,2" d="M207.7985,-296.8142C219.3547,-289.5626 233.9578,-281.3251 248,-275.9985 295.513,-257.9753 310.5353,-264.6418 360,-252.9985 367.7359,-251.1776 375.8676,-249.1484 383.8517,-247.0893"/>
<polygon fill="#9a32cd" stroke="#9a32cd" points="205.7469,-293.9728 199.2528,-302.344 209.5499,-299.8497 205.7469,-293.9728"/>
<text text-anchor="middle" x="304" y="-289.9985" font-family="Helvetica,sans-Serif" font-size="10.00" fill="#000000"> keys</text>
<text text-anchor="middle" x="304" y="-278.9985" font-family="Helvetica,sans-Serif" font-size="10.00" fill="#000000">elements</text>
</g>
<!-- Node17 -->
<g id="node14" class="node">
<title>Node17</title>
<g id="a_node14"><a xlink:href="struct_provision_config.html" target="_top" xlink:title="ProvisionConfig">
<polygon fill="#ffffff" stroke="#000000" points="533,-161.4985 533,-180.4985 625,-180.4985 625,-161.4985 533,-161.4985"/>
<text text-anchor="middle" x="579" y="-168.4985" font-family="Helvetica,sans-Serif" font-size="10.00" fill="#000000">ProvisionConfig</text>
</a>
</g>
</g>
<!-- Node12&#45;&gt;Node17 -->
<g id="edge16" class="edge">
<title>Node12&#45;&gt;Node17</title>
<path fill="none" stroke="#9a32cd" stroke-dasharray="5,2" d="M190.0978,-292.5421C199.8179,-253.2542 223.574,-166.7557 248,-149.9985 293.226,-118.9717 454.4327,-145.7501 533.9645,-161.4843"/>
<polygon fill="#9a32cd" stroke="#9a32cd" points="186.6931,-291.7312 187.7396,-302.2742 193.4962,-293.3798 186.6931,-291.7312"/>
<text text-anchor="middle" x="304" y="-240.9985" font-family="Helvetica,sans-Serif" font-size="10.00" fill="#000000"> server</text>
<text text-anchor="middle" x="304" y="-229.9985" font-family="Helvetica,sans-Serif" font-size="10.00" fill="#000000">p12_password</text>
<text text-anchor="start" x="248" y="-218.9985" font-family="Helvetica,sans-Serif" font-size="10.00" fill="#000000">primary_ecu_hardware</text>
<text text-anchor="middle" x="304" y="-207.9985" font-family="Helvetica,sans-Serif" font-size="10.00" fill="#000000">_id</text>
<text text-anchor="middle" x="304" y="-196.9985" font-family="Helvetica,sans-Serif" font-size="10.00" fill="#000000">expiry_days</text>
<text text-anchor="middle" x="304" y="-185.9985" font-family="Helvetica,sans-Serif" font-size="10.00" fill="#000000">device_id</text>
<text text-anchor="start" x="248" y="-174.9985" font-family="Helvetica,sans-Serif" font-size="10.00" fill="#000000">ecu_registration</text>
<text text-anchor="middle" x="304" y="-163.9985" font-family="Helvetica,sans-Serif" font-size="10.00" fill="#000000">_endpoint</text>
<text text-anchor="middle" x="304" y="-152.9985" font-family="Helvetica,sans-Serif" font-size="10.00" fill="#000000">primary_ecu_serial</text>
</g>
<!-- Node18 -->
<g id="node15" class="node">
<title>Node18</title>
<g id="a_node15"><a xlink:href="struct_p11_config.html" target="_top" xlink:title="P11Config">
<polygon fill="#ffffff" stroke="#000000" points="546.5,-93.4985 546.5,-112.4985 611.5,-112.4985 611.5,-93.4985 546.5,-93.4985"/>
<text text-anchor="middle" x="579" y="-100.4985" font-family="Helvetica,sans-Serif" font-size="10.00" fill="#000000">P11Config</text>
</a>
</g>
</g>
<!-- Node12&#45;&gt;Node18 -->
<g id="edge18" class="edge">
<title>Node12&#45;&gt;Node18</title>
<path fill="none" stroke="#9a32cd" stroke-dasharray="5,2" d="M187.6985,-292.2846C193.9024,-240.6505 213.3838,-103.6116 248,-76.9985 293.9837,-41.646 472.2284,-77.9451 546.3665,-95.0885"/>
<polygon fill="#9a32cd" stroke="#9a32cd" points="184.195,-292.1127 186.5179,-302.4497 191.1482,-292.9203 184.195,-292.1127"/>
<text text-anchor="middle" x="304" y="-123.9985" font-family="Helvetica,sans-Serif" font-size="10.00" fill="#000000"> tls_pkey_id</text>
<text text-anchor="middle" x="304" y="-112.9985" font-family="Helvetica,sans-Serif" font-size="10.00" fill="#000000">tls_clientcert_id</text>
<text text-anchor="middle" x="304" y="-101.9985" font-family="Helvetica,sans-Serif" font-size="10.00" fill="#000000">pass</text>
<text text-anchor="middle" x="304" y="-90.9985" font-family="Helvetica,sans-Serif" font-size="10.00" fill="#000000">uptane_key_id</text>
<text text-anchor="middle" x="304" y="-79.9985" font-family="Helvetica,sans-Serif" font-size="10.00" fill="#000000">tls_cacert_id</text>
</g>
<!-- Node19 -->
<g id="node16" class="node">
<title>Node19</title>
<g id="a_node16"><a xlink:href="struct_uptane_config.html" target="_top" xlink:title="UptaneConfig">
<polygon fill="#ffffff" stroke="#000000" points="537.5,-44.4985 537.5,-63.4985 620.5,-63.4985 620.5,-44.4985 537.5,-44.4985"/>
<text text-anchor="middle" x="579" y="-51.4985" font-family="Helvetica,sans-Serif" font-size="10.00" fill="#000000">UptaneConfig</text>
</a>
</g>
</g>
<!-- Node12&#45;&gt;Node19 -->
<g id="edge20" class="edge">
<title>Node12&#45;&gt;Node19</title>
<path fill="none" stroke="#9a32cd" stroke-dasharray="5,2" d="M186.9047,-292.0701C191.4267,-234.3561 207.7266,-69.1458 248,-36.9985 341.3145,37.4878 500.8199,-19.9439 557.9082,-44.3787"/>
<polygon fill="#9a32cd" stroke="#9a32cd" points="183.3886,-292.1562 186.1338,-302.3892 190.3691,-292.6777 183.3886,-292.1562"/>
<text text-anchor="middle" x="304" y="-50.9985" font-family="Helvetica,sans-Serif" font-size="10.00" fill="#000000"> repo_server</text>
<text text-anchor="middle" x="304" y="-39.9985" font-family="Helvetica,sans-Serif" font-size="10.00" fill="#000000">director_server</text>
</g>
<!-- Node22 -->
<g id="node19" class="node">
<title>Node22</title>
<g id="a_node19"><a xlink:href="struct_bootloader_config.html" target="_top" xlink:title="BootloaderConfig">
<polygon fill="#ffffff" stroke="#000000" points="528.5,-324.4985 528.5,-343.4985 629.5,-343.4985 629.5,-324.4985 528.5,-324.4985"/>
<text text-anchor="middle" x="579" y="-331.4985" font-family="Helvetica,sans-Serif" font-size="10.00" fill="#000000">BootloaderConfig</text>
</a>
</g>
</g>
<!-- Node12&#45;&gt;Node22 -->
<g id="edge25" class="edge">
<title>Node12&#45;&gt;Node22</title>
<path fill="none" stroke="#9a32cd" stroke-dasharray="5,2" d="M208.4507,-327.0674C219.8427,-333.6616 234.1126,-340.65 248,-343.9985 345.5277,-367.514 463.8916,-354.3249 529.3713,-343.5438"/>
<polygon fill="#9a32cd" stroke="#9a32cd" points="209.9937,-323.9096 199.6298,-321.7096 206.3597,-329.8924 209.9937,-323.9096"/>
<text text-anchor="middle" x="304" y="-358.9985" font-family="Helvetica,sans-Serif" font-size="10.00" fill="#000000"> reboot_command</text>
</g>
<!-- Node24 -->
<g id="node21" class="node">
<title>Node24</title>
<g id="a_node21"><a xlink:href="class_secondary_mock.html" target="_top" xlink:title="SecondaryMock">
<polygon fill="#ffffff" stroke="#000000" points="392.5,-720.4985 392.5,-739.4985 485.5,-739.4985 485.5,-720.4985 392.5,-720.4985"/>
<text text-anchor="middle" x="439" y="-727.4985" font-family="Helvetica,sans-Serif" font-size="10.00" fill="#000000">SecondaryMock</text>
</a>
</g>
</g>
<!-- Node12&#45;&gt;Node24 -->
<g id="edge30" class="edge">
<title>Node12&#45;&gt;Node24</title>
<path fill="none" stroke="#9a32cd" stroke-dasharray="5,2" d="M187.7141,-331.977C194.5312,-390.7105 216.6538,-561.5438 248,-606.9985 253.8776,-615.5215 378.6386,-692.8297 423.2848,-720.3371"/>
<polygon fill="#9a32cd" stroke="#9a32cd" points="191.1639,-331.3359 186.5566,-321.7953 184.2087,-332.1267 191.1639,-331.3359"/>
<text text-anchor="middle" x="304" y="-714.9985" font-family="Helvetica,sans-Serif" font-size="10.00" fill="#000000"> upload_data_failure</text>
<text text-anchor="middle" x="304" y="-703.9985" font-family="Helvetica,sans-Serif" font-size="10.00" fill="#000000">verification_failure</text>
<text text-anchor="middle" x="304" y="-692.9985" font-family="Helvetica,sans-Serif" font-size="10.00" fill="#000000">ostree_failure</text>
<text text-anchor="middle" x="304" y="-681.9985" font-family="Helvetica,sans-Serif" font-size="10.00" fill="#000000">installation_failure</text>
</g>
<!-- Node13 -->
<g id="node10" class="node">
<title>Node13</title>
<g id="a_node10"><a xlink:title="STL class. ">
<polygon fill="#ffffff" stroke="#bfbfbf" points="0,-296.9985 0,-326.9985 104,-326.9985 104,-296.9985 0,-296.9985"/>
<text text-anchor="start" x="8" y="-314.9985" font-family="Helvetica,sans-Serif" font-size="10.00" fill="#000000">std::basic_string&lt;</text>
<text text-anchor="middle" x="52" y="-303.9985" font-family="Helvetica,sans-Serif" font-size="10.00" fill="#000000"> char &gt;</text>
</a>
</g>
</g>
<!-- Node13&#45;&gt;Node12 -->
<g id="edge9" class="edge">
<title>Node13&#45;&gt;Node12</title>
<path fill="none" stroke="#191970" d="M114.4653,-311.9985C127.7582,-311.9985 141.2786,-311.9985 152.9063,-311.9985"/>
<polygon fill="#191970" stroke="#191970" points="114.3796,-308.4986 104.3796,-311.9985 114.3795,-315.4986 114.3796,-308.4986"/>
</g>
<!-- Node14 -->
<g id="node11" class="node">
<title>Node14</title>
<g id="a_node11"><a xlink:href="struct_logger_config.html" target="_top" xlink:title="LoggerConfig">
<polygon fill="#ffffff" stroke="#000000" points="667,-345.4985 667,-364.4985 747,-364.4985 747,-345.4985 667,-345.4985"/>
<text text-anchor="middle" x="707" y="-352.4985" font-family="Helvetica,sans-Serif" font-size="10.00" fill="#000000">LoggerConfig</text>
</a>
</g>
</g>
<!-- Node14&#45;&gt;Node6 -->
<g id="edge10" class="edge">
<title>Node14&#45;&gt;Node6</title>
<path fill="none" stroke="#9a32cd" stroke-dasharray="5,2" d="M757.3242,-360.7427C798.1386,-365.4014 853.8291,-371.7581 884.9624,-375.3118"/>
<polygon fill="#9a32cd" stroke="#9a32cd" points="757.6247,-357.2543 747.2922,-359.5976 756.8308,-364.2092 757.6247,-357.2543"/>
<text text-anchor="middle" x="803.5" y="-371.9985" font-family="Helvetica,sans-Serif" font-size="10.00" fill="#000000"> logger</text>
</g>
<!-- Node15&#45;&gt;Node6 -->
<g id="edge11" class="edge">
<title>Node15&#45;&gt;Node6</title>
<path fill="none" stroke="#9a32cd" stroke-dasharray="5,2" d="M761.3563,-227.6258C786.3579,-228.6404 814.5034,-234.5583 833,-252.9985 866.8411,-286.7362 819.8543,-322.7576 851,-358.9985 859.4286,-368.8059 873.0317,-373.5751 884.8912,-375.8836"/>
<polygon fill="#9a32cd" stroke="#9a32cd" points="761.2889,-224.1244 751.2348,-227.4658 761.1782,-231.1235 761.2889,-224.1244"/>
<text text-anchor="middle" x="803.5" y="-255.9985" font-family="Helvetica,sans-Serif" font-size="10.00" fill="#000000"> pacman</text>
</g>
<!-- Node16&#45;&gt;Node15 -->
<g id="edge12" class="edge">
<title>Node16&#45;&gt;Node15</title>
<path fill="none" stroke="#9a32cd" stroke-dasharray="5,2" d="M510.2683,-231.9985C558.7581,-231.9985 621.4012,-231.9985 662.8221,-231.9985"/>
<polygon fill="#9a32cd" stroke="#9a32cd" points="510.1487,-228.4986 500.1487,-231.9985 510.1487,-235.4986 510.1487,-228.4986"/>
<text text-anchor="middle" x="579" y="-234.9985" font-family="Helvetica,sans-Serif" font-size="10.00" fill="#000000"> extra</text>
</g>
<!-- Node17&#45;&gt;Node6 -->
<g id="edge15" class="edge">
<title>Node17&#45;&gt;Node6</title>
<path fill="none" stroke="#9a32cd" stroke-dasharray="5,2" d="M635.325,-165.1239C694.3399,-162.4409 784.9997,-168.8168 833,-224.9985 872.0335,-270.6849 812.6301,-312.7533 851,-358.9985 859.2573,-368.9505 872.8537,-373.7255 884.7525,-376.0007"/>
<polygon fill="#9a32cd" stroke="#9a32cd" points="634.8431,-161.6453 625.0533,-165.6964 635.2326,-168.6344 634.8431,-161.6453"/>
<text text-anchor="middle" x="707" y="-180.9985" font-family="Helvetica,sans-Serif" font-size="10.00" fill="#000000"> provision</text>
</g>
<!-- Node18&#45;&gt;Node6 -->
<g id="edge17" class="edge">
<title>Node18&#45;&gt;Node6</title>
<path fill="none" stroke="#9a32cd" stroke-dasharray="5,2" d="M621.8895,-102.1609C680.5272,-103.6257 784.015,-116.0878 833,-181.9985 880.1669,-245.4628 801.4952,-297.3404 851,-358.9985 859.1619,-369.1641 872.9076,-373.9395 884.9128,-376.1615"/>
<polygon fill="#9a32cd" stroke="#9a32cd" points="621.8865,-98.6605 611.834,-102.0068 621.7792,-105.6597 621.8865,-98.6605"/>
<text text-anchor="middle" x="707" y="-127.9985" font-family="Helvetica,sans-Serif" font-size="10.00" fill="#000000"> p11</text>
</g>
<!-- Node19&#45;&gt;Node6 -->
<g id="edge19" class="edge">
<title>Node19&#45;&gt;Node6</title>
<path fill="none" stroke="#9a32cd" stroke-dasharray="5,2" d="M631.122,-52.2123C692.1444,-53.371 790.294,-66.1406 833,-131.9985 860.5319,-174.456 819.7594,-319.1906 851,-358.9985 859.0485,-369.2541 872.7906,-374.0324 884.8223,-376.2333"/>
<polygon fill="#9a32cd" stroke="#9a32cd" points="630.9534,-48.7107 620.922,-52.1198 630.8898,-55.7105 630.9534,-48.7107"/>
<text text-anchor="middle" x="707" y="-76.9985" font-family="Helvetica,sans-Serif" font-size="10.00" fill="#000000"> uptane</text>
</g>
<!-- Node20 -->
<g id="node17" class="node">
<title>Node20</title>
<g id="a_node17"><a xlink:href="struct_telemetry_config.html" target="_top" xlink:title="The TelemetryConfig struct Report device network information: IP address, hostname, MAC address. ">
<polygon fill="#ffffff" stroke="#000000" points="659,-307.4985 659,-326.4985 755,-326.4985 755,-307.4985 659,-307.4985"/>
<text text-anchor="middle" x="707" y="-314.4985" font-family="Helvetica,sans-Serif" font-size="10.00" fill="#000000">TelemetryConfig</text>
</a>
</g>
</g>
<!-- Node20&#45;&gt;Node6 -->
<g id="edge21" class="edge">
<title>Node20&#45;&gt;Node6</title>
<path fill="none" stroke="#9a32cd" stroke-dasharray="5,2" d="M764.8742,-327.3268C786.7023,-332.2277 811.4519,-339.0174 833,-347.9985 841.654,-351.6054 842.493,-355.0573 851,-358.9985 861.7796,-363.9925 874.2461,-368.2797 884.81,-371.511"/>
<polygon fill="#9a32cd" stroke="#9a32cd" points="765.5865,-323.9001 755.0726,-325.2069 764.1067,-330.7419 765.5865,-323.9001"/>
<text text-anchor="middle" x="803.5" y="-350.9985" font-family="Helvetica,sans-Serif" font-size="10.00" fill="#000000"> telemetry</text>
</g>
<!-- Node21&#45;&gt;Node6 -->
<g id="edge22" class="edge">
<title>Node21&#45;&gt;Node6</title>
<path fill="none" stroke="#9a32cd" stroke-dasharray="5,2" d="M757.1961,-433.1141C780.6043,-429.1278 808.6135,-423.2363 833,-414.9985 854.2971,-407.8042 877.2929,-395.8761 892.2367,-387.513"/>
<polygon fill="#9a32cd" stroke="#9a32cd" points="756.4369,-429.6917 747.133,-434.7601 757.5669,-436.5999 756.4369,-429.6917"/>
<text text-anchor="middle" x="803.5" y="-431.9985" font-family="Helvetica,sans-Serif" font-size="10.00" fill="#000000"> import</text>
</g>
<!-- Node22&#45;&gt;Node6 -->
<g id="edge24" class="edge">
<title>Node22&#45;&gt;Node6</title>
<path fill="none" stroke="#9a32cd" stroke-dasharray="5,2" d="M638.4609,-346.9948C638.9808,-347.3212 639.494,-347.6557 640,-347.9985 651.6359,-355.8811 645.8426,-366.9466 658,-373.9985 731.1783,-416.4457 837.7594,-396.702 884.7451,-384.766"/>
<polygon fill="#9a32cd" stroke="#9a32cd" points="640.0357,-343.8689 629.5453,-342.3851 636.8207,-350.087 640.0357,-343.8689"/>
<text text-anchor="middle" x="707" y="-401.9985" font-family="Helvetica,sans-Serif" font-size="10.00" fill="#000000"> bootloader</text>
</g>
<!-- Node23 -->
<g id="node20" class="node">
<title>Node23</title>
<g id="a_node20"><a xlink:href="class_secondary_tcp_server.html" target="_top" xlink:title="Listens on a socket, decodes calls (ASN.1) and forwards them to an Uptane Secondary implementation...">
<polygon fill="#ffffff" stroke="#000000" points="851,-330.4985 851,-349.4985 966,-349.4985 966,-330.4985 851,-330.4985"/>
<text text-anchor="middle" x="908.5" y="-337.4985" font-family="Helvetica,sans-Serif" font-size="10.00" fill="#000000">SecondaryTcpServer</text>
</a>
</g>
</g>
<!-- Node23&#45;&gt;Node4 -->
<g id="edge26" class="edge">
<title>Node23&#45;&gt;Node4</title>
<path fill="none" stroke="#9a32cd" stroke-dasharray="5,2" d="M976.3127,-341.6297C1016.8886,-342.9319 1069.4517,-345.1905 1116,-348.9985 1121.7862,-349.4718 1127.7907,-350.0414 1133.8038,-350.6656"/>
<polygon fill="#9a32cd" stroke="#9a32cd" points="976.3695,-338.1299 966.2661,-341.3189 976.153,-345.1266 976.3695,-338.1299"/>
<text text-anchor="middle" x="1050" y="-351.9985" font-family="Helvetica,sans-Serif" font-size="10.00" fill="#000000"> secondary_server_</text>
</g>
<!-- Node24&#45;&gt;Node4 -->
<g id="edge27" class="edge">
<title>Node24&#45;&gt;Node4</title>
<path fill="none" stroke="#9a32cd" stroke-dasharray="5,2" d="M496.0498,-737.9857C625.9111,-752.6691 945.4829,-768.4589 1116,-598.9985 1184.1722,-531.2487 1196.4268,-404.8472 1198.5628,-368.8145"/>
<polygon fill="#9a32cd" stroke="#9a32cd" points="496.2629,-734.4868 485.9235,-736.7989 495.4481,-741.4392 496.2629,-734.4868"/>
<text text-anchor="middle" x="803.5" y="-741.9985" font-family="Helvetica,sans-Serif" font-size="10.00" fill="#000000"> secondary_</text>
</g>
<!-- Node25 -->
<g id="node22" class="node">
<title>Node25</title>
<g id="a_node22"><a xlink:href="class_msg_dispatcher.html" target="_top" xlink:title="MsgDispatcher">
<polygon fill="#ffffff" stroke="#000000" points="141,-720.4985 141,-739.4985 230,-739.4985 230,-720.4985 141,-720.4985"/>
<text text-anchor="middle" x="185.5" y="-727.4985" font-family="Helvetica,sans-Serif" font-size="10.00" fill="#000000">MsgDispatcher</text>
</a>
</g>
</g>
<!-- Node25&#45;&gt;Node24 -->
<g id="edge28" class="edge">
<title>Node25&#45;&gt;Node24</title>
<path fill="none" stroke="#191970" d="M240.4665,-729.9985C285.7392,-729.9985 349.2397,-729.9985 392.1348,-729.9985"/>
<polygon fill="#191970" stroke="#191970" points="240.2372,-726.4986 230.2372,-729.9985 240.2371,-733.4986 240.2372,-726.4986"/>
</g>
<!-- Node26 -->
<g id="node23" class="node">
<title>Node26</title>
<g id="a_node23"><a xlink:href="class_msg_handler.html" target="_top" xlink:title="MsgHandler">
<polygon fill="#ffffff" stroke="#000000" points="15,-720.4985 15,-739.4985 89,-739.4985 89,-720.4985 15,-720.4985"/>
<text text-anchor="middle" x="52" y="-727.4985" font-family="Helvetica,sans-Serif" font-size="10.00" fill="#000000">MsgHandler</text>
</a>
</g>
</g>
<!-- Node26&#45;&gt;Node25 -->
<g id="edge29" class="edge">
<title>Node26&#45;&gt;Node25</title>
<path fill="none" stroke="#191970" d="M99.2781,-729.9985C112.8274,-729.9985 127.5498,-729.9985 140.9305,-729.9985"/>
<polygon fill="#191970" stroke="#191970" points="99.1872,-726.4986 89.1872,-729.9985 99.1872,-733.4986 99.1872,-726.4986"/>
</g>
<!-- Node27 -->
<g id="node24" class="node">
<title>Node27</title>
<g id="a_node24"><a xlink:href="class_temporary_directory.html" target="_top" xlink:title="TemporaryDirectory">
<polygon fill="#ffffff" stroke="#000000" points="852,-292.4985 852,-311.4985 965,-311.4985 965,-292.4985 852,-292.4985"/>
<text text-anchor="middle" x="908.5" y="-299.4985" font-family="Helvetica,sans-Serif" font-size="10.00" fill="#000000">TemporaryDirectory</text>
</a>
</g>
</g>
<!-- Node27&#45;&gt;Node4 -->
<g id="edge31" class="edge">
<title>Node27&#45;&gt;Node4</title>
<path fill="none" stroke="#9a32cd" stroke-dasharray="5,2" d="M975.2669,-305.819C1016.3215,-309.2053 1069.7449,-315.4856 1116,-326.9985 1137.8801,-332.4444 1161.7995,-342.0868 1178.3154,-349.3677"/>
<polygon fill="#9a32cd" stroke="#9a32cd" points="975.3516,-302.3149 965.1077,-305.019 974.802,-309.2933 975.3516,-302.3149"/>
<text text-anchor="middle" x="1050" y="-329.9985" font-family="Helvetica,sans-Serif" font-size="10.00" fill="#000000"> temp_dir_</text>
</g>
<!-- Node28 -->
<g id="node25" class="node">
<title>Node28</title>
<g id="a_node25"><a xlink:href="class_target_file.html" target="_top" xlink:title="TargetFile">
<polygon fill="#ffffff" stroke="#000000" points="877,-254.4985 877,-273.4985 940,-273.4985 940,-254.4985 877,-254.4985"/>
<text text-anchor="middle" x="908.5" y="-261.4985" font-family="Helvetica,sans-Serif" font-size="10.00" fill="#000000">TargetFile</text>
</a>
</g>
</g>
<!-- Node28&#45;&gt;Node4 -->
<g id="edge33" class="edge">
<title>Node28&#45;&gt;Node4</title>
<path fill="none" stroke="#9a32cd" stroke-dasharray="5,2" d="M950.2974,-262.8051C993.5131,-263.0614 1062.0869,-267.7013 1116,-290.9985 1147.464,-304.5948 1176.5764,-333.7753 1190.4633,-349.1139"/>
<polygon fill="#9a32cd" stroke="#9a32cd" points="950.1411,-259.3053 940.1473,-262.8231 950.1536,-266.3053 950.1411,-259.3053"/>
<text text-anchor="middle" x="1050" y="-293.9985" font-family="Helvetica,sans-Serif" font-size="10.00" fill="#000000"> image_file_</text>
</g>
<!-- Node29 -->
<g id="node26" class="node">
<title>Node29</title>
<g id="a_node26"><a xlink:title="STL class. ">
<polygon fill="#ffffff" stroke="#bfbfbf" points="874,-216.4985 874,-235.4985 943,-235.4985 943,-216.4985 874,-216.4985"/>
<text text-anchor="middle" x="908.5" y="-223.4985" font-family="Helvetica,sans-Serif" font-size="10.00" fill="#000000">std::thread</text>
</a>
</g>
</g>
<!-- Node29&#45;&gt;Node4 -->
<g id="edge34" class="edge">
<title>Node29&#45;&gt;Node4</title>
<path fill="none" stroke="#9a32cd" stroke-dasharray="5,2" d="M953.5367,-220.827C997.814,-217.9252 1065.8597,-219.4772 1116,-247.9985 1158.2493,-272.0311 1185.5014,-327.248 1195.1184,-349.4733"/>
<polygon fill="#9a32cd" stroke="#9a32cd" points="953.0737,-217.352 943.3674,-221.5992 953.6038,-224.3319 953.0737,-217.352"/>
<text text-anchor="middle" x="1050" y="-250.9985" font-family="Helvetica,sans-Serif" font-size="10.00" fill="#000000"> secondary_server_thread_</text>
</g>
</g>
</svg>
