<?xml version="1.0" encoding="UTF-8" standalone="no"?>
<!DOCTYPE svg PUBLIC "-//W3C//DTD SVG 1.1//EN"
 "http://www.w3.org/Graphics/SVG/1.1/DTD/svg11.dtd">
<!-- Generated by graphviz version 2.40.1 (20161225.0304)
 -->
<!-- Title: src Pages: 1 -->
<svg width="1497pt" height="132pt"
 viewBox="0.00 0.00 1497.00 132.00" xmlns="http://www.w3.org/2000/svg" xmlns:xlink="http://www.w3.org/1999/xlink">
<g id="graph0" class="graph" transform="scale(1 1) rotate(0) translate(4 128)">
<title>src</title>
<polygon fill="#ffffff" stroke="transparent" points="-4,4 -4,-128 1493,-128 1493,4 -4,4"/>
<g id="clust1" class="cluster">
<title>clusterdir_68267d1309a1af8e8297ef4c3efbcdba</title>
<g id="a_clust1"><a xlink:href="dir_68267d1309a1af8e8297ef4c3efbcdba.html" target="_top">
<polygon fill="#eeeeff" stroke="#000000" points="8,-64 8,-116 1481,-116 1481,-64 8,-64"/>
</a>
</g>
</g>
<!-- dir_68267d1309a1af8e8297ef4c3efbcdba -->
<g id="node1" class="node">
<title>dir_68267d1309a1af8e8297ef4c3efbcdba</title>
<text text-anchor="middle" x="1446" y="-87.5" font-family="Helvetica,sans-Serif" font-size="10.00" fill="#000000">src</text>
</g>
<!-- dir_8a55f271c8f111a5e45629b7e60480a4 -->
<g id="node2" class="node">
<title>dir_8a55f271c8f111a5e45629b7e60480a4</title>
<g id="a_node2"><a xlink:href="dir_8a55f271c8f111a5e45629b7e60480a4.html" target="_top" xlink:title="aktualizr_get">
<polygon fill="#ffffff" stroke="#000000" points="1401,-108 1321,-108 1321,-72 1401,-72 1401,-108"/>
<text text-anchor="middle" x="1361" y="-87.5" font-family="Helvetica,sans-Serif" font-size="10.00" fill="#000000">aktualizr_get</text>
</a>
</g>
</g>
<!-- dir_b4ab7baa9a72fa869f9ae99b22d05745 -->
<g id="node3" class="node">
<title>dir_b4ab7baa9a72fa869f9ae99b22d05745</title>
<g id="a_node3"><a xlink:href="dir_b4ab7baa9a72fa869f9ae99b22d05745.html" target="_top" xlink:title="aktualizr_info">
<polygon fill="#ffffff" stroke="#000000" points="1302.5,-108 1219.5,-108 1219.5,-72 1302.5,-72 1302.5,-108"/>
<text text-anchor="middle" x="1261" y="-87.5" font-family="Helvetica,sans-Serif" font-size="10.00" fill="#000000">aktualizr_info</text>
</a>
</g>
</g>
<!-- dir_c16c808c13fd858226485f631e64bc99 -->
<g id="node4" class="node">
<title>dir_c16c808c13fd858226485f631e64bc99</title>
<g id="a_node4"><a xlink:href="dir_c16c808c13fd858226485f631e64bc99.html" target="_top" xlink:title="aktualizr_lite">
<polygon fill="#ffffff" stroke="#000000" points="1201,-108 1121,-108 1121,-72 1201,-72 1201,-108"/>
<text text-anchor="middle" x="1161" y="-87.5" font-family="Helvetica,sans-Serif" font-size="10.00" fill="#000000">aktualizr_lite</text>
</a>
</g>
</g>
<!-- dir_a1c365666047c910e07f82ea3785a0e3 -->
<g id="node5" class="node">
<title>dir_a1c365666047c910e07f82ea3785a0e3</title>
<g id="a_node5"><a xlink:href="dir_a1c365666047c910e07f82ea3785a0e3.html" target="_top" xlink:title="aktualizr_primary">
<polygon fill="#ffffff" stroke="#000000" points="1102.5,-108 999.5,-108 999.5,-72 1102.5,-72 1102.5,-108"/>
<text text-anchor="middle" x="1051" y="-87.5" font-family="Helvetica,sans-Serif" font-size="10.00" fill="#000000">aktualizr_primary</text>
</a>
</g>
</g>
<!-- dir_a0345981ec4afd73d92f143a325145ef -->
<g id="node6" class="node">
<title>dir_a0345981ec4afd73d92f143a325145ef</title>
<g id="a_node6"><a xlink:href="dir_a0345981ec4afd73d92f143a325145ef.html" target="_top" xlink:title="aktualizr_secondary">
<polygon fill="#ffffff" stroke="#000000" points="981.5,-108 866.5,-108 866.5,-72 981.5,-72 981.5,-108"/>
<text text-anchor="middle" x="924" y="-87.5" font-family="Helvetica,sans-Serif" font-size="10.00" fill="#000000">aktualizr_secondary</text>
</a>
</g>
</g>
<!-- dir_1f4a50f8f1fe2f3e2e3e79b978626114 -->
<g id="node7" class="node">
<title>dir_1f4a50f8f1fe2f3e2e3e79b978626114</title>
<g id="a_node7"><a xlink:href="dir_1f4a50f8f1fe2f3e2e3e79b978626114.html" target="_top" xlink:title="cert_provider">
<polygon fill="#ffffff" stroke="#000000" points="848.5,-108 767.5,-108 767.5,-72 848.5,-72 848.5,-108"/>
<text text-anchor="middle" x="808" y="-87.5" font-family="Helvetica,sans-Serif" font-size="10.00" fill="#000000">cert_provider</text>
</a>
</g>
</g>
<!-- dir_25fe10002fe19a6f872ae0406361d164 -->
<g id="node8" class="node">
<title>dir_25fe10002fe19a6f872ae0406361d164</title>
<g id="a_node8"><a xlink:href="dir_25fe10002fe19a6f872ae0406361d164.html" target="_top" xlink:title="libaktualizr">
<polygon fill="#ffffff" stroke="#ff0000" points="749.5,-108 678.5,-108 678.5,-72 749.5,-72 749.5,-108"/>
<text text-anchor="middle" x="714" y="-87.5" font-family="Helvetica,sans-Serif" font-size="10.00" fill="#000000">libaktualizr</text>
</a>
</g>
</g>
<!-- dir_d44c64559bbebec7f509842c48db8b23 -->
<g id="node15" class="node">
<title>dir_d44c64559bbebec7f509842c48db8b23</title>
<g id="a_node15"><a xlink:href="dir_d44c64559bbebec7f509842c48db8b23.html" target="_top" xlink:title="include">
<polygon fill="#ffffff" stroke="#ff0000" points="483,-36 429,-36 429,0 483,0 483,-36"/>
<text text-anchor="middle" x="456" y="-15.5" font-family="Helvetica,sans-Serif" font-size="10.00" fill="#000000">include</text>
</a>
</g>
</g>
<!-- dir_25fe10002fe19a6f872ae0406361d164&#45;&gt;dir_d44c64559bbebec7f509842c48db8b23 -->
<g id="edge1" class="edge">
<title>dir_25fe10002fe19a6f872ae0406361d164&#45;&gt;dir_d44c64559bbebec7f509842c48db8b23</title>
<path fill="none" stroke="#000000" d="M685.6117,-71.8364C680.2377,-68.9107 674.5557,-66.144 669,-64 609.6568,-41.0984 536.3841,-28.4368 493.0779,-22.4432"/>
<polygon fill="#000000" stroke="#000000" points="493.3775,-18.9522 483.0015,-21.0947 492.4489,-25.8903 493.3775,-18.9522"/>
<g id="a_edge1&#45;headlabel"><a xlink:href="dir_000010_000000.html" target="_top" xlink:title="19">
<text text-anchor="middle" x="497.3169" y="-14.1148" font-family="Helvetica,sans-Serif" font-size="10.00" fill="#000000">19</text>
</a>
</g>
</g>
<!-- dir_69b27e618995272ead2721cf398d1c1a -->
<g id="node9" class="node">
<title>dir_69b27e618995272ead2721cf398d1c1a</title>
<g id="a_node9"><a xlink:href="dir_69b27e618995272ead2721cf398d1c1a.html" target="_top" xlink:title="libaktualizr&#45;c">
<polygon fill="#ffffff" stroke="#000000" points="660,-108 580,-108 580,-72 660,-72 660,-108"/>
<text text-anchor="middle" x="620" y="-87.5" font-family="Helvetica,sans-Serif" font-size="10.00" fill="#000000">libaktualizr&#45;c</text>
</a>
</g>
</g>
<!-- dir_69b27e618995272ead2721cf398d1c1a&#45;&gt;dir_d44c64559bbebec7f509842c48db8b23 -->
<g id="edge3" class="edge">
<title>dir_69b27e618995272ead2721cf398d1c1a&#45;&gt;dir_d44c64559bbebec7f509842c48db8b23</title>
<path fill="none" stroke="#000000" d="M587.0317,-71.8896C581.7186,-69.1502 576.2421,-66.4307 571,-64 545.3399,-52.1019 515.6886,-40.2865 492.9218,-31.61"/>
<polygon fill="#000000" stroke="#000000" points="493.8937,-28.2357 483.3021,-27.9741 491.4188,-34.7836 493.8937,-28.2357"/>
<g id="a_edge3&#45;headlabel"><a xlink:href="dir_000012_000000.html" target="_top" xlink:title="1">
<text text-anchor="middle" x="498.26" y="-24.3506" font-family="Helvetica,sans-Serif" font-size="10.00" fill="#000000">1</text>
</a>
</g>
</g>
<!-- dir_40cd5f72ba432c457eeee2591603d2c8 -->
<g id="node10" class="node">
<title>dir_40cd5f72ba432c457eeee2591603d2c8</title>
<g id="a_node10"><a xlink:href="dir_40cd5f72ba432c457eeee2591603d2c8.html" target="_top" xlink:title="libaktualizr&#45;isotp">
<polygon fill="#ffffff" stroke="#000000" points="562,-108 464,-108 464,-72 562,-72 562,-108"/>
<text text-anchor="middle" x="513" y="-87.5" font-family="Helvetica,sans-Serif" font-size="10.00" fill="#000000">libaktualizr&#45;isotp</text>
</a>
</g>
</g>
<!-- dir_4d83f6f3df02246e3e673d37b1fa988b -->
<g id="node11" class="node">
<title>dir_4d83f6f3df02246e3e673d37b1fa988b</title>
<g id="a_node11"><a xlink:href="dir_4d83f6f3df02246e3e673d37b1fa988b.html" target="_top" xlink:title="libaktualizr&#45;posix">
<polygon fill="#ffffff" stroke="#ff0000" points="445.5,-108 344.5,-108 344.5,-72 445.5,-72 445.5,-108"/>
<text text-anchor="middle" x="395" y="-87.5" font-family="Helvetica,sans-Serif" font-size="10.00" fill="#000000">libaktualizr&#45;posix</text>
</a>
</g>
</g>
<!-- dir_b7cd886a5e99df99c476fe0c3ded0563 -->
<g id="node12" class="node">
<title>dir_b7cd886a5e99df99c476fe0c3ded0563</title>
<g id="a_node12"><a xlink:href="dir_b7cd886a5e99df99c476fe0c3ded0563.html" target="_top" xlink:title="sota_tools">
<polygon fill="#ffffff" stroke="#000000" points="326.5,-108 259.5,-108 259.5,-72 326.5,-72 326.5,-108"/>
<text text-anchor="middle" x="293" y="-87.5" font-family="Helvetica,sans-Serif" font-size="10.00" fill="#000000">sota_tools</text>
</a>
</g>
</g>
<!-- dir_b7cd886a5e99df99c476fe0c3ded0563&#45;&gt;dir_d44c64559bbebec7f509842c48db8b23 -->
<g id="edge4" class="edge">
<title>dir_b7cd886a5e99df99c476fe0c3ded0563&#45;&gt;dir_d44c64559bbebec7f509842c48db8b23</title>
<path fill="none" stroke="#000000" d="M321.2846,-71.931C326.114,-69.1272 331.1414,-66.3767 336,-64 363.1274,-50.7302 395.1143,-38.6334 419.239,-30.1787"/>
<polygon fill="#000000" stroke="#000000" points="420.4218,-33.4731 428.7295,-26.898 418.1347,-26.8573 420.4218,-33.4731"/>
<g id="a_edge4&#45;headlabel"><a xlink:href="dir_000028_000000.html" target="_top" xlink:title="2">
<text text-anchor="middle" x="417.952" y="-34.8309" font-family="Helvetica,sans-Serif" font-size="10.00" fill="#000000">2</text>
</a>
</g>
</g>
<!-- dir_a276f8890176b14b77a786ef6e2c59bb -->
<g id="node13" class="node">
<title>dir_a276f8890176b14b77a786ef6e2c59bb</title>
<g id="a_node13"><a xlink:href="dir_a276f8890176b14b77a786ef6e2c59bb.html" target="_top" xlink:title="uptane_generator">
<polygon fill="#ffffff" stroke="#000000" points="241.5,-108 138.5,-108 138.5,-72 241.5,-72 241.5,-108"/>
<text text-anchor="middle" x="190" y="-87.5" font-family="Helvetica,sans-Serif" font-size="10.00" fill="#000000">uptane_generator</text>
</a>
</g>
</g>
<!-- dir_e1d95de2daaa60f98711a754eb3af91a -->
<g id="node14" class="node">
<title>dir_e1d95de2daaa60f98711a754eb3af91a</title>
<g id="a_node14"><a xlink:href="dir_e1d95de2daaa60f98711a754eb3af91a.html" target="_top" xlink:title="virtual_secondary">
<polygon fill="#ffffff" stroke="#000000" points="120,-108 16,-108 16,-72 120,-72 120,-108"/>
<text text-anchor="middle" x="68" y="-87.5" font-family="Helvetica,sans-Serif" font-size="10.00" fill="#000000">virtual_secondary</text>
</a>
</g>
</g>
<!-- dir_e1d95de2daaa60f98711a754eb3af91a&#45;&gt;dir_d44c64559bbebec7f509842c48db8b23 -->
<g id="edge2" class="edge">
<title>dir_e1d95de2daaa60f98711a754eb3af91a&#45;&gt;dir_d44c64559bbebec7f509842c48db8b23</title>
<path fill="none" stroke="#000000" d="M106.8196,-71.9371C114.3861,-68.9285 122.3477,-66.1066 130,-64 232.1537,-35.8788 357.2975,-24.364 418.5755,-20.1507"/>
<polygon fill="#000000" stroke="#000000" points="419.156,-23.6201 428.9036,-19.4687 418.6947,-16.6353 419.156,-23.6201"/>
<g id="a_edge2&#45;headlabel"><a xlink:href="dir_000029_000000.html" target="_top" xlink:title="4">
<text text-anchor="middle" x="415.7562" y="-24.1899" font-family="Helvetica,sans-Serif" font-size="10.00" fill="#000000">4</text>
</a>
</g>
</g>
</g>
</svg>
