<?xml version="1.0" encoding="UTF-8" standalone="no"?>
<!DOCTYPE svg PUBLIC "-//W3C//DTD SVG 1.1//EN"
 "http://www.w3.org/Graphics/SVG/1.1/DTD/svg11.dtd">
<!-- Generated by graphviz version 2.40.1 (20161225.0304)
 -->
<!-- Title: src/libaktualizr Pages: 1 -->
<!--zoomable 159 -->
<svg id="main" version="1.1" xmlns="http://www.w3.org/2000/svg" xmlns:xlink="http://www.w3.org/1999/xlink" xml:space="preserve" onload="init(evt)">
<style type="text/css"><![CDATA[
.edge:hover path { stroke: red; }
.edge:hover polygon { stroke: red; fill: red; }
]]></style>
<script type="text/javascript"><![CDATA[
var edges = document.getElementsByTagName('g');
if (edges && edges.length) {
  for (var i=0;i<edges.length;i++) {
    if (edges[i].id.substr(0,4)=='edge') {
      edges[i].setAttribute('class','edge');
    }
  }
}
]]></script>
        <defs>
                <circle id="rim" cx="0" cy="0" r="7"/>
                <circle id="rim2" cx="0" cy="0" r="3.5"/>
                <g id="zoomPlus">
                        <use xlink:href="#rim" fill="#404040">
                                <set attributeName="fill" to="#808080" begin="zoomplus.mouseover" end="zoomplus.mouseout"/>
                        </use>
                        <path d="M-4,0h8M0,-4v8" fill="none" stroke="white" stroke-width="1.5" pointer-events="none"/>
                </g>
                <g id="zoomMin">
                        <use xlink:href="#rim" fill="#404040">
                                <set attributeName="fill" to="#808080" begin="zoomminus.mouseover" end="zoomminus.mouseout"/>
                        </use>
                        <path d="M-4,0h8" fill="none" stroke="white" stroke-width="1.5" pointer-events="none"/>
                </g>
                <g id="dirArrow">
                        <path fill="none" stroke="white" stroke-width="1.5" d="M0,-3.0v7 M-2.5,-0.5L0,-3.0L2.5,-0.5"/>
                </g>
               <g id="resetDef">
                       <use xlink:href="#rim2" fill="#404040">
                               <set attributeName="fill" to="#808080" begin="reset.mouseover" end="reset.mouseout"/>
                       </use>
               </g>
        </defs>

<script type="text/javascript">
var viewWidth = 1166;
var viewHeight = 159;
var sectionId = 'dynsection-0';
</script>
<script xlink:href="svgpan.js"/>
<svg id="graph" class="graph">
<g id="viewport">
<title>src/libaktualizr</title>
<polygon fill="#ffffff" stroke="transparent" points="-4,4 -4,-155 1162,-155 1162,4 -4,4"/>
<g id="clust1" class="cluster">
<title>clusterdir_68267d1309a1af8e8297ef4c3efbcdba</title>
<g id="a_clust1"><a xlink:href="dir_68267d1309a1af8e8297ef4c3efbcdba.html" target="_top" xlink:title="src">
<polygon fill="#ddddee" stroke="#000000" points="8,-56 8,-143 1150,-143 1150,-56 8,-56"/>
<text text-anchor="middle" x="579" y="-131" font-family="Helvetica,sans-Serif" font-size="10.00" fill="#000000">src</text>
</a>
</g>
</g>
<g id="clust2" class="cluster">
<title>clusterdir_25fe10002fe19a6f872ae0406361d164</title>
<g id="a_clust2"><a xlink:href="dir_25fe10002fe19a6f872ae0406361d164.html" target="_top">
<polygon fill="#eeeeff" stroke="#000000" points="16,-64 16,-116 1142,-116 1142,-64 16,-64"/>
</a>
</g>
</g>
<!-- dir_25fe10002fe19a6f872ae0406361d164 -->
<g id="node1" class="node">
<title>dir_25fe10002fe19a6f872ae0406361d164</title>
<text text-anchor="middle" x="1098" y="-87.5" font-family="Helvetica,sans-Serif" font-size="10.00" fill="#000000">libaktualizr</text>
</g>
<!-- dir_3bbf2a60e3198d81ff0b6cec96712616 -->
<g id="node2" class="node">
<title>dir_3bbf2a60e3198d81ff0b6cec96712616</title>
<g id="a_node2"><a xlink:href="dir_3bbf2a60e3198d81ff0b6cec96712616.html" target="_top" xlink:title="bootloader">
<polygon fill="#ffffff" stroke="#000000" points="1044.5,-108 975.5,-108 975.5,-72 1044.5,-72 1044.5,-108"/>
<text text-anchor="middle" x="1010" y="-87.5" font-family="Helvetica,sans-Serif" font-size="10.00" fill="#000000">bootloader</text>
</a>
</g>
</g>
<!-- dir_fdb732a55413cc8dc0ae0a60dab491c8 -->
<g id="node3" class="node">
<title>dir_fdb732a55413cc8dc0ae0a60dab491c8</title>
<g id="a_node3"><a xlink:href="dir_fdb732a55413cc8dc0ae0a60dab491c8.html" target="_top" xlink:title="bootstrap">
<polygon fill="#ffffff" stroke="#000000" points="957.5,-108 894.5,-108 894.5,-72 957.5,-72 957.5,-108"/>
<text text-anchor="middle" x="926" y="-87.5" font-family="Helvetica,sans-Serif" font-size="10.00" fill="#000000">bootstrap</text>
</a>
</g>
</g>
<!-- dir_75341968ef19bf2dc3be3feeebd59037 -->
<g id="node4" class="node">
<title>dir_75341968ef19bf2dc3be3feeebd59037</title>
<g id="a_node4"><a xlink:href="dir_75341968ef19bf2dc3be3feeebd59037.html" target="_top" xlink:title="campaign">
<polygon fill="#ffffff" stroke="#000000" points="876.5,-108 811.5,-108 811.5,-72 876.5,-72 876.5,-108"/>
<text text-anchor="middle" x="844" y="-87.5" font-family="Helvetica,sans-Serif" font-size="10.00" fill="#000000">campaign</text>
</a>
</g>
</g>
<!-- dir_f0ba1877fd64ced1506d18266e138852 -->
<g id="node5" class="node">
<title>dir_f0ba1877fd64ced1506d18266e138852</title>
<g id="a_node5"><a xlink:href="dir_f0ba1877fd64ced1506d18266e138852.html" target="_top" xlink:title="config">
<polygon fill="#ffffff" stroke="#000000" points="793,-108 739,-108 739,-72 793,-72 793,-108"/>
<text text-anchor="middle" x="766" y="-87.5" font-family="Helvetica,sans-Serif" font-size="10.00" fill="#000000">config</text>
</a>
</g>
</g>
<!-- dir_ed4129733881d178d939d6d6430e282d -->
<g id="node6" class="node">
<title>dir_ed4129733881d178d939d6d6430e282d</title>
<g id="a_node6"><a xlink:href="dir_ed4129733881d178d939d6d6430e282d.html" target="_top" xlink:title="crypto">
<polygon fill="#ffffff" stroke="#000000" points="721,-108 667,-108 667,-72 721,-72 721,-108"/>
<text text-anchor="middle" x="694" y="-87.5" font-family="Helvetica,sans-Serif" font-size="10.00" fill="#000000">crypto</text>
</a>
</g>
</g>
<!-- dir_d44c64559bbebec7f509842c48db8b23 -->
<g id="node15" class="node">
<title>dir_d44c64559bbebec7f509842c48db8b23</title>
<g id="a_node15"><a xlink:href="dir_d44c64559bbebec7f509842c48db8b23.html" target="_top" xlink:title="include">
<polygon fill="#ffffff" stroke="#ff0000" points="379,-36 325,-36 325,0 379,0 379,-36"/>
<text text-anchor="middle" x="352" y="-15.5" font-family="Helvetica,sans-Serif" font-size="10.00" fill="#000000">include</text>
</a>
</g>
</g>
<!-- dir_ed4129733881d178d939d6d6430e282d&#45;&gt;dir_d44c64559bbebec7f509842c48db8b23 -->
<g id="edge6" class="edge">
<title>dir_ed4129733881d178d939d6d6430e282d&#45;&gt;dir_d44c64559bbebec7f509842c48db8b23</title>
<path fill="none" stroke="#000000" d="M679.2032,-71.948C673.2593,-65.893 665.9328,-59.7365 658,-56 611.1289,-33.923 460.1973,-23.5066 389.3631,-19.7389"/>
<polygon fill="#000000" stroke="#000000" points="389.2794,-16.23 379.1125,-19.2105 388.9191,-23.2207 389.2794,-16.23"/>
<g id="a_edge6&#45;headlabel"><a xlink:href="dir_000020_000000.html" target="_top" xlink:title="3">
<text text-anchor="middle" x="393.0154" y="-11.0795" font-family="Helvetica,sans-Serif" font-size="10.00" fill="#000000">3</text>
</a>
</g>
</g>
<!-- dir_8c99f36ebfebd11057eb6fd485d463fb -->
<g id="node7" class="node">
<title>dir_8c99f36ebfebd11057eb6fd485d463fb</title>
<g id="a_node7"><a xlink:href="dir_8c99f36ebfebd11057eb6fd485d463fb.html" target="_top" xlink:title="http">
<polygon fill="#ffffff" stroke="#000000" points="649,-108 595,-108 595,-72 649,-72 649,-108"/>
<text text-anchor="middle" x="622" y="-87.5" font-family="Helvetica,sans-Serif" font-size="10.00" fill="#000000">http</text>
</a>
</g>
</g>
<!-- dir_8c99f36ebfebd11057eb6fd485d463fb&#45;&gt;dir_d44c64559bbebec7f509842c48db8b23 -->
<g id="edge5" class="edge">
<title>dir_8c99f36ebfebd11057eb6fd485d463fb&#45;&gt;dir_d44c64559bbebec7f509842c48db8b23</title>
<path fill="none" stroke="#000000" d="M606.7741,-71.7532C600.8865,-65.8292 593.7074,-59.8082 586,-56 552.1316,-39.2658 446.5104,-26.9913 389.458,-21.3854"/>
<polygon fill="#000000" stroke="#000000" points="389.688,-17.8914 379.3985,-20.4167 389.0169,-24.8592 389.688,-17.8914"/>
<g id="a_edge5&#45;headlabel"><a xlink:href="dir_000021_000000.html" target="_top" xlink:title="2">
<text text-anchor="middle" x="393.5382" y="-12.9097" font-family="Helvetica,sans-Serif" font-size="10.00" fill="#000000">2</text>
</a>
</g>
</g>
<!-- dir_5cb196101d78eeefc53a27ffd5907672 -->
<g id="node8" class="node">
<title>dir_5cb196101d78eeefc53a27ffd5907672</title>
<g id="a_node8"><a xlink:href="dir_5cb196101d78eeefc53a27ffd5907672.html" target="_top" xlink:title="logging">
<polygon fill="#ffffff" stroke="#000000" points="577,-108 523,-108 523,-72 577,-72 577,-108"/>
<text text-anchor="middle" x="550" y="-87.5" font-family="Helvetica,sans-Serif" font-size="10.00" fill="#000000">logging</text>
</a>
</g>
</g>
<!-- dir_188ad9b20b5803d1e0842e8b7679686b -->
<g id="node9" class="node">
<title>dir_188ad9b20b5803d1e0842e8b7679686b</title>
<g id="a_node9"><a xlink:href="dir_188ad9b20b5803d1e0842e8b7679686b.html" target="_top" xlink:title="package_manager">
<polygon fill="#ffffff" stroke="#000000" points="504.5,-108 397.5,-108 397.5,-72 504.5,-72 504.5,-108"/>
<text text-anchor="middle" x="451" y="-87.5" font-family="Helvetica,sans-Serif" font-size="10.00" fill="#000000">package_manager</text>
</a>
</g>
</g>
<!-- dir_188ad9b20b5803d1e0842e8b7679686b&#45;&gt;dir_d44c64559bbebec7f509842c48db8b23 -->
<g id="edge3" class="edge">
<title>dir_188ad9b20b5803d1e0842e8b7679686b&#45;&gt;dir_d44c64559bbebec7f509842c48db8b23</title>
<path fill="none" stroke="#000000" d="M426.0181,-71.8314C413.7072,-62.8779 398.6893,-51.9558 385.4063,-42.2955"/>
<polygon fill="#000000" stroke="#000000" points="387.1199,-39.214 376.9739,-36.1628 383.0027,-44.8752 387.1199,-39.214"/>
<g id="a_edge3&#45;headlabel"><a xlink:href="dir_000023_000000.html" target="_top" xlink:title="1">
<text text-anchor="middle" x="391.6969" y="-36.532" font-family="Helvetica,sans-Serif" font-size="10.00" fill="#000000">1</text>
</a>
</g>
</g>
<!-- dir_8bc6f38a0dcbed3d98be2fc5c9211590 -->
<g id="node10" class="node">
<title>dir_8bc6f38a0dcbed3d98be2fc5c9211590</title>
<g id="a_node10"><a xlink:href="dir_8bc6f38a0dcbed3d98be2fc5c9211590.html" target="_top" xlink:title="primary">
<polygon fill="#ffffff" stroke="#000000" points="379.5,-108 324.5,-108 324.5,-72 379.5,-72 379.5,-108"/>
<text text-anchor="middle" x="352" y="-87.5" font-family="Helvetica,sans-Serif" font-size="10.00" fill="#000000">primary</text>
</a>
</g>
</g>
<!-- dir_8bc6f38a0dcbed3d98be2fc5c9211590&#45;&gt;dir_d44c64559bbebec7f509842c48db8b23 -->
<g id="edge1" class="edge">
<title>dir_8bc6f38a0dcbed3d98be2fc5c9211590&#45;&gt;dir_d44c64559bbebec7f509842c48db8b23</title>
<path fill="none" stroke="#000000" d="M352,-71.8314C352,-64.131 352,-54.9743 352,-46.4166"/>
<polygon fill="#000000" stroke="#000000" points="355.5001,-46.4132 352,-36.4133 348.5001,-46.4133 355.5001,-46.4132"/>
<g id="a_edge1&#45;headlabel"><a xlink:href="dir_000011_000000.html" target="_top" xlink:title="5">
<text text-anchor="middle" x="358.3393" y="-47.5079" font-family="Helvetica,sans-Serif" font-size="10.00" fill="#000000">5</text>
</a>
</g>
</g>
<!-- dir_6222101bbb5850141d4035d76d1fca79 -->
<g id="node11" class="node">
<title>dir_6222101bbb5850141d4035d76d1fca79</title>
<g id="a_node11"><a xlink:href="dir_6222101bbb5850141d4035d76d1fca79.html" target="_top" xlink:title="storage">
<polygon fill="#ffffff" stroke="#000000" points="306,-108 252,-108 252,-72 306,-72 306,-108"/>
<text text-anchor="middle" x="279" y="-87.5" font-family="Helvetica,sans-Serif" font-size="10.00" fill="#000000">storage</text>
</a>
</g>
</g>
<!-- dir_6222101bbb5850141d4035d76d1fca79&#45;&gt;dir_d44c64559bbebec7f509842c48db8b23 -->
<g id="edge4" class="edge">
<title>dir_6222101bbb5850141d4035d76d1fca79&#45;&gt;dir_d44c64559bbebec7f509842c48db8b23</title>
<path fill="none" stroke="#000000" d="M297.421,-71.8314C306.1529,-63.219 316.7317,-52.7851 326.2423,-43.4048"/>
<polygon fill="#000000" stroke="#000000" points="328.923,-45.6769 333.5849,-36.1628 324.0075,-40.6931 328.923,-45.6769"/>
<g id="a_edge4&#45;headlabel"><a xlink:href="dir_000024_000000.html" target="_top" xlink:title="1">
<text text-anchor="middle" x="328.3575" y="-47.7225" font-family="Helvetica,sans-Serif" font-size="10.00" fill="#000000">1</text>
</a>
</g>
</g>
<!-- dir_99d301fce191cbab027d1141c58ff40d -->
<g id="node12" class="node">
<title>dir_99d301fce191cbab027d1141c58ff40d</title>
<g id="a_node12"><a xlink:href="dir_99d301fce191cbab027d1141c58ff40d.html" target="_top" xlink:title="telemetry">
<polygon fill="#ffffff" stroke="#000000" points="233.5,-108 168.5,-108 168.5,-72 233.5,-72 233.5,-108"/>
<text text-anchor="middle" x="201" y="-87.5" font-family="Helvetica,sans-Serif" font-size="10.00" fill="#000000">telemetry</text>
</a>
</g>
</g>
<!-- dir_01ad008a1a3fdffc18398ed2b9cdb1e4 -->
<g id="node13" class="node">
<title>dir_01ad008a1a3fdffc18398ed2b9cdb1e4</title>
<g id="a_node13"><a xlink:href="dir_01ad008a1a3fdffc18398ed2b9cdb1e4.html" target="_top" xlink:title="uptane">
<polygon fill="#ffffff" stroke="#000000" points="150,-108 96,-108 96,-72 150,-72 150,-108"/>
<text text-anchor="middle" x="123" y="-87.5" font-family="Helvetica,sans-Serif" font-size="10.00" fill="#000000">uptane</text>
</a>
</g>
</g>
<!-- dir_01ad008a1a3fdffc18398ed2b9cdb1e4&#45;&gt;dir_d44c64559bbebec7f509842c48db8b23 -->
<g id="edge2" class="edge">
<title>dir_01ad008a1a3fdffc18398ed2b9cdb1e4&#45;&gt;dir_d44c64559bbebec7f509842c48db8b23</title>
<path fill="none" stroke="#000000" d="M138.8056,-71.906C144.8715,-65.9963 152.2193,-59.9453 160,-56 186.6112,-42.5065 267.0649,-29.6436 314.967,-22.896"/>
<polygon fill="#000000" stroke="#000000" points="315.527,-26.3519 324.9515,-21.5116 314.5656,-19.4182 315.527,-26.3519"/>
<g id="a_edge2&#45;headlabel"><a xlink:href="dir_000026_000000.html" target="_top" xlink:title="3">
<text text-anchor="middle" x="312.3564" y="-27.1579" font-family="Helvetica,sans-Serif" font-size="10.00" fill="#000000">3</text>
</a>
</g>
</g>
<!-- dir_21695240ac6697d59c3c2f5e3a3e7e03 -->
<g id="node14" class="node">
<title>dir_21695240ac6697d59c3c2f5e3a3e7e03</title>
<g id="a_node14"><a xlink:href="dir_21695240ac6697d59c3c2f5e3a3e7e03.html" target="_top" xlink:title="utilities">
<polygon fill="#ffffff" stroke="#000000" points="78,-108 24,-108 24,-72 78,-72 78,-108"/>
<text text-anchor="middle" x="51" y="-87.5" font-family="Helvetica,sans-Serif" font-size="10.00" fill="#000000">utilities</text>
</a>
</g>
</g>
<!-- dir_21695240ac6697d59c3c2f5e3a3e7e03&#45;&gt;dir_d44c64559bbebec7f509842c48db8b23 -->
<g id="edge7" class="edge">
<title>dir_21695240ac6697d59c3c2f5e3a3e7e03&#45;&gt;dir_d44c64559bbebec7f509842c48db8b23</title>
<path fill="none" stroke="#000000" d="M66.1869,-71.6733C72.0708,-65.7418 79.2576,-59.7365 87,-56 126.3711,-36.9996 250.9743,-25.4042 314.2874,-20.5908"/>
<polygon fill="#000000" stroke="#000000" points="314.9183,-24.0537 324.6319,-19.8234 314.4003,-17.0729 314.9183,-24.0537"/>
<g id="a_edge7&#45;headlabel"><a xlink:href="dir_000027_000000.html" target="_top" xlink:title="4">
<text text-anchor="middle" x="311.5435" y="-24.651" font-family="Helvetica,sans-Serif" font-size="10.00" fill="#000000">4</text>
</a>
</g>
</g>
</g>
</svg>
        <g id="navigator" transform="translate(0 0)" fill="#404254">
                <rect fill="#f2f5e9" fill-opacity="0.5" stroke="#606060" stroke-width=".5" x="0" y="0" width="60" height="60"/>
                <use id="zoomplus" xlink:href="#zoomPlus" x="17" y="9" onmousedown="handleZoom(evt,'in')"/>
                <use id="zoomminus" xlink:href="#zoomMin" x="42" y="9" onmousedown="handleZoom(evt,'out')"/>
                <use id="reset" xlink:href="#resetDef" x="30" y="36" onmousedown="handleReset()"/>
                <g id="arrowUp" xlink:href="#dirArrow" transform="translate(30 24)" onmousedown="handlePan(0,-1)">
                  <use xlink:href="#rim" fill="#404040">
                        <set attributeName="fill" to="#808080" begin="arrowUp.mouseover" end="arrowUp.mouseout"/>
                  </use>
                  <path fill="none" stroke="white" stroke-width="1.5" d="M0,-3.0v7 M-2.5,-0.5L0,-3.0L2.5,-0.5"/>
                </g>
                <g id="arrowRight" xlink:href="#dirArrow" transform="rotate(90) translate(36 -43)" onmousedown="handlePan(1,0)">
                  <use xlink:href="#rim" fill="#404040">
                        <set attributeName="fill" to="#808080" begin="arrowRight.mouseover" end="arrowRight.mouseout"/>
                  </use>
                  <path fill="none" stroke="white" stroke-width="1.5" d="M0,-3.0v7 M-2.5,-0.5L0,-3.0L2.5,-0.5"/>
                </g>
                <g id="arrowDown" xlink:href="#dirArrow" transform="rotate(180) translate(-30 -48)" onmousedown="handlePan(0,1)">
                  <use xlink:href="#rim" fill="#404040">
                        <set attributeName="fill" to="#808080" begin="arrowDown.mouseover" end="arrowDown.mouseout"/>
                  </use>
                  <path fill="none" stroke="white" stroke-width="1.5" d="M0,-3.0v7 M-2.5,-0.5L0,-3.0L2.5,-0.5"/>
                </g>
                <g id="arrowLeft" xlink:href="#dirArrow" transform="rotate(270) translate(-36 17)" onmousedown="handlePan(-1,0)">
                  <use xlink:href="#rim" fill="#404040">
                        <set attributeName="fill" to="#808080" begin="arrowLeft.mouseover" end="arrowLeft.mouseout"/>
                  </use>
                  <path fill="none" stroke="white" stroke-width="1.5" d="M0,-3.0v7 M-2.5,-0.5L0,-3.0L2.5,-0.5"/>
                </g>
        </g>
        <svg viewBox="0 0 15 15" width="100%" height="30px" preserveAspectRatio="xMaxYMin meet">
         <g id="arrow_out" transform="scale(0.3 0.3)">
          <a xlink:href="dir_25fe10002fe19a6f872ae0406361d164_dep_org.svg" target="_base">
           <rect id="button" ry="5" rx="5" y="6" x="6" height="38" width="38"
                fill="#f2f5e9" fill-opacity="0.5" stroke="#606060" stroke-width="1.0"/>
           <path id="arrow"
             d="M 11.500037,31.436501 C 11.940474,20.09759 22.043105,11.32322 32.158766,21.979434 L 37.068811,17.246167 C 37.068811,17.246167 37.088388,32 37.088388,32 L 22.160133,31.978069 C 22.160133,31.978069 26.997745,27.140456 26.997745,27.140456 C 18.528582,18.264221 13.291696,25.230495 11.500037,31.436501 z"
             style="fill:#404040;"/>
          </a>
         </g>
        </svg>
</svg>
