<?xml version="1.0" encoding="UTF-8" standalone="no"?>
<!DOCTYPE svg PUBLIC "-//W3C//DTD SVG 1.1//EN"
 "http://www.w3.org/Graphics/SVG/1.1/DTD/svg11.dtd">
<!-- Generated by graphviz version 2.40.1 (20161225.0304)
 -->
<!-- Title: include/libaktualizr/events.h Pages: 1 -->
<!--zoomable 375 -->
<svg id="main" version="1.1" xmlns="http://www.w3.org/2000/svg" xmlns:xlink="http://www.w3.org/1999/xlink" xml:space="preserve" onload="init(evt)">
<style type="text/css"><![CDATA[
.edge:hover path { stroke: red; }
.edge:hover polygon { stroke: red; fill: red; }
]]></style>
<script type="text/javascript"><![CDATA[
var edges = document.getElementsByTagName('g');
if (edges && edges.length) {
  for (var i=0;i<edges.length;i++) {
    if (edges[i].id.substr(0,4)=='edge') {
      edges[i].setAttribute('class','edge');
    }
  }
}
]]></script>
        <defs>
                <circle id="rim" cx="0" cy="0" r="7"/>
                <circle id="rim2" cx="0" cy="0" r="3.5"/>
                <g id="zoomPlus">
                        <use xlink:href="#rim" fill="#404040">
                                <set attributeName="fill" to="#808080" begin="zoomplus.mouseover" end="zoomplus.mouseout"/>
                        </use>
                        <path d="M-4,0h8M0,-4v8" fill="none" stroke="white" stroke-width="1.5" pointer-events="none"/>
                </g>
                <g id="zoomMin">
                        <use xlink:href="#rim" fill="#404040">
                                <set attributeName="fill" to="#808080" begin="zoomminus.mouseover" end="zoomminus.mouseout"/>
                        </use>
                        <path d="M-4,0h8" fill="none" stroke="white" stroke-width="1.5" pointer-events="none"/>
                </g>
                <g id="dirArrow">
                        <path fill="none" stroke="white" stroke-width="1.5" d="M0,-3.0v7 M-2.5,-0.5L0,-3.0L2.5,-0.5"/>
                </g>
               <g id="resetDef">
                       <use xlink:href="#rim2" fill="#404040">
                               <set attributeName="fill" to="#808080" begin="reset.mouseover" end="reset.mouseout"/>
                       </use>
               </g>
        </defs>

<script type="text/javascript">
var viewWidth = 1113;
var viewHeight = 375;
var sectionId = 'dynsection-0';
</script>
<script xlink:href="svgpan.js"/>
<svg id="graph" class="graph">
<g id="viewport">
<title>include/libaktualizr/events.h</title>
<polygon fill="#ffffff" stroke="transparent" points="-4,4 -4,-371 1109,-371 1109,4 -4,4"/>
<!-- Node0 -->
<g id="node1" class="node">
<title>Node0</title>
<polygon fill="#bfbfbf" stroke="#000000" points="791,-336.5 791,-366.5 901,-366.5 901,-336.5 791,-336.5"/>
<text text-anchor="start" x="799" y="-354.5" font-family="Helvetica,sans-Serif" font-size="10.00" fill="#000000">include/libaktualizr</text>
<text text-anchor="middle" x="846" y="-343.5" font-family="Helvetica,sans-Serif" font-size="10.00" fill="#000000">/events.h</text>
</g>
<!-- Node1 -->
<g id="node2" class="node">
<title>Node1</title>
<polygon fill="#ffffff" stroke="#bfbfbf" points="1047,-.5 1047,-19.5 1105,-19.5 1105,-.5 1047,-.5"/>
<text text-anchor="middle" x="1076" y="-7.5" font-family="Helvetica,sans-Serif" font-size="10.00" fill="#000000">memory</text>
</g>
<!-- Node0&#45;&gt;Node1 -->
<g id="edge1" class="edge">
<title>Node0&#45;&gt;Node1</title>
<path fill="none" stroke="#191970" d="M870.9831,-336.4359C900.0181,-316.8075 944,-279.5559 944,-234 944,-234 944,-234 944,-122 944,-72.2672 999.1527,-40.032 1038.1575,-23.4533"/>
<polygon fill="#191970" stroke="#191970" points="1039.7411,-26.5876 1047.6827,-19.5746 1037.1011,-20.1045 1039.7411,-26.5876"/>
</g>
<!-- Node2 -->
<g id="node3" class="node">
<title>Node2</title>
<polygon fill="#ffffff" stroke="#bfbfbf" points="0,-.5 0,-19.5 44,-19.5 44,-.5 0,-.5"/>
<text text-anchor="middle" x="22" y="-7.5" font-family="Helvetica,sans-Serif" font-size="10.00" fill="#000000">string</text>
</g>
<!-- Node0&#45;&gt;Node2 -->
<g id="edge2" class="edge">
<title>Node0&#45;&gt;Node2</title>
<path fill="none" stroke="#191970" d="M790.857,-349.4326C606.7786,-341.8077 25,-311.573 25,-234 25,-234 25,-234 25,-122 25,-89.7 23.7378,-52.1791 22.8508,-29.8005"/>
<polygon fill="#191970" stroke="#191970" points="26.3387,-29.4334 22.4298,-19.5861 19.3447,-29.7217 26.3387,-29.4334"/>
</g>
<!-- Node3 -->
<g id="node4" class="node">
<title>Node3</title>
<polygon fill="#ffffff" stroke="#bfbfbf" points="972,-280.5 972,-299.5 1080,-299.5 1080,-280.5 972,-280.5"/>
<text text-anchor="middle" x="1026" y="-287.5" font-family="Helvetica,sans-Serif" font-size="10.00" fill="#000000">boost/signals2.hpp</text>
</g>
<!-- Node0&#45;&gt;Node3 -->
<g id="edge3" class="edge">
<title>Node0&#45;&gt;Node3</title>
<path fill="none" stroke="#191970" d="M890.033,-336.4554C920.1981,-326.149 959.7808,-312.6249 988.453,-302.8286"/>
<polygon fill="#191970" stroke="#191970" points="989.7751,-306.0756 998.1064,-299.5303 987.5118,-299.4515 989.7751,-306.0756"/>
</g>
<!-- Node4 -->
<g id="node5" class="node">
<title>Node4</title>
<g id="a_node5"><a xlink:href="results_8h.html" target="_top" xlink:title="libaktualizr/results.h">
<polygon fill="#ffffff" stroke="#000000" points="719,-280.5 719,-299.5 835,-299.5 835,-280.5 719,-280.5"/>
<text text-anchor="middle" x="777" y="-287.5" font-family="Helvetica,sans-Serif" font-size="10.00" fill="#000000">libaktualizr/results.h</text>
</a>
</g>
</g>
<!-- Node0&#45;&gt;Node4 -->
<g id="edge4" class="edge">
<title>Node0&#45;&gt;Node4</title>
<path fill="none" stroke="#191970" d="M828.9438,-336.2977C818.8671,-327.3163 806.096,-315.9334 795.7389,-306.702"/>
<polygon fill="#191970" stroke="#191970" points="797.8417,-303.8879 788.0478,-299.8469 793.1841,-309.1135 797.8417,-303.8879"/>
</g>
<!-- Node4&#45;&gt;Node2 -->
<g id="edge5" class="edge">
<title>Node4&#45;&gt;Node2</title>
<path fill="none" stroke="#191970" d="M718.8725,-286.8425C550.4426,-276.9248 74,-243.1153 74,-178 74,-178 74,-178 74,-122 74,-85.9842 51.6055,-49.0048 36.2092,-27.8372"/>
<polygon fill="#191970" stroke="#191970" points="38.9451,-25.6522 30.125,-19.7823 33.3595,-29.8714 38.9451,-25.6522"/>
</g>
<!-- Node5 -->
<g id="node6" class="node">
<title>Node5</title>
<polygon fill="#ffffff" stroke="#bfbfbf" points="732.5,-168.5 732.5,-187.5 779.5,-187.5 779.5,-168.5 732.5,-168.5"/>
<text text-anchor="middle" x="756" y="-175.5" font-family="Helvetica,sans-Serif" font-size="10.00" fill="#000000">vector</text>
</g>
<!-- Node4&#45;&gt;Node5 -->
<g id="edge6" class="edge">
<title>Node4&#45;&gt;Node5</title>
<path fill="none" stroke="#191970" d="M775.2096,-280.4509C771.769,-262.1013 764.1733,-221.5908 759.6317,-197.3693"/>
<polygon fill="#191970" stroke="#191970" points="763.0689,-196.7086 757.7859,-187.5249 756.1888,-197.9986 763.0689,-196.7086"/>
</g>
<!-- Node6 -->
<g id="node7" class="node">
<title>Node6</title>
<g id="a_node7"><a xlink:href="campaign_8h_source.html" target="_top" xlink:title="libaktualizr/campaign.h">
<polygon fill="#ffffff" stroke="#000000" points="617.5,-224.5 617.5,-243.5 748.5,-243.5 748.5,-224.5 617.5,-224.5"/>
<text text-anchor="middle" x="683" y="-231.5" font-family="Helvetica,sans-Serif" font-size="10.00" fill="#000000">libaktualizr/campaign.h</text>
</a>
</g>
</g>
<!-- Node4&#45;&gt;Node6 -->
<g id="edge7" class="edge">
<title>Node4&#45;&gt;Node6</title>
<path fill="none" stroke="#191970" d="M760.6264,-280.2455C746.0692,-271.5731 724.569,-258.7645 707.8848,-248.825"/>
<polygon fill="#191970" stroke="#191970" points="709.5683,-245.7539 699.1859,-243.6427 705.9856,-251.7676 709.5683,-245.7539"/>
</g>
<!-- Node14 -->
<g id="node15" class="node">
<title>Node14</title>
<g id="a_node15"><a xlink:href="types_8h.html" target="_top" xlink:title="libaktualizr/types.h">
<polygon fill="#ffffff" stroke="#000000" points="749,-56.5 749,-75.5 859,-75.5 859,-56.5 749,-56.5"/>
<text text-anchor="middle" x="804" y="-63.5" font-family="Helvetica,sans-Serif" font-size="10.00" fill="#000000">libaktualizr/types.h</text>
</a>
</g>
</g>
<!-- Node4&#45;&gt;Node14 -->
<g id="edge41" class="edge">
<title>Node4&#45;&gt;Node14</title>
<path fill="none" stroke="#191970" d="M778.1602,-280.375C782.2538,-246.4133 796.0751,-131.7472 801.6448,-85.5392"/>
<polygon fill="#191970" stroke="#191970" points="805.1222,-85.9362 802.8442,-75.5891 798.1725,-85.0984 805.1222,-85.9362"/>
</g>
<!-- Node6&#45;&gt;Node2 -->
<g id="edge8" class="edge">
<title>Node6&#45;&gt;Node2</title>
<path fill="none" stroke="#191970" d="M617.406,-225.9661C528.1029,-213.5078 364.4506,-185.222 234,-132 160.7817,-102.128 81.9071,-51.1603 44.3477,-25.5939"/>
<polygon fill="#191970" stroke="#191970" points="45.9426,-22.4435 35.7174,-19.6696 41.981,-28.2147 45.9426,-22.4435"/>
</g>
<!-- Node6&#45;&gt;Node5 -->
<g id="edge9" class="edge">
<title>Node6&#45;&gt;Node5</title>
<path fill="none" stroke="#191970" d="M695.7156,-224.2455C706.602,-215.8943 722.4883,-203.7076 735.22,-193.9408"/>
<polygon fill="#191970" stroke="#191970" points="737.6261,-196.5063 743.4301,-187.6427 733.3654,-190.9523 737.6261,-196.5063"/>
</g>
<!-- Node7 -->
<g id="node8" class="node">
<title>Node7</title>
<g id="a_node8"><a xlink:href="httpclient_8h_source.html" target="_top" xlink:title="http/httpclient.h">
<polygon fill="#ffffff" stroke="#000000" points="459.5,-168.5 459.5,-187.5 554.5,-187.5 554.5,-168.5 459.5,-168.5"/>
<text text-anchor="middle" x="507" y="-175.5" font-family="Helvetica,sans-Serif" font-size="10.00" fill="#000000">http/httpclient.h</text>
</a>
</g>
</g>
<!-- Node6&#45;&gt;Node7 -->
<g id="edge10" class="edge">
<title>Node6&#45;&gt;Node7</title>
<path fill="none" stroke="#191970" d="M652.7445,-224.3733C623.3517,-215.021 578.5708,-200.7725 546.4066,-190.5385"/>
<polygon fill="#191970" stroke="#191970" points="547.4512,-187.198 536.8607,-187.5011 545.3287,-193.8685 547.4512,-187.198"/>
</g>
<!-- Node22 -->
<g id="node23" class="node">
<title>Node22</title>
<g id="a_node23"><a xlink:href="utils_8h_source.html" target="_top" xlink:title="utilities/utils.h">
<polygon fill="#ffffff" stroke="#000000" points="645,-56.5 645,-75.5 731,-75.5 731,-56.5 645,-56.5"/>
<text text-anchor="middle" x="688" y="-63.5" font-family="Helvetica,sans-Serif" font-size="10.00" fill="#000000">utilities/utils.h</text>
</a>
</g>
</g>
<!-- Node6&#45;&gt;Node22 -->
<g id="edge40" class="edge">
<title>Node6&#45;&gt;Node22</title>
<path fill="none" stroke="#191970" d="M683.2831,-224.4862C684.0735,-197.9293 686.3165,-122.5651 687.3998,-86.1655"/>
<polygon fill="#191970" stroke="#191970" points="690.9084,-85.9276 687.7075,-75.8279 683.9115,-85.7193 690.9084,-85.9276"/>
</g>
<!-- Node7&#45;&gt;Node1 -->
<g id="edge12" class="edge">
<title>Node7&#45;&gt;Node1</title>
<path fill="none" stroke="#191970" d="M542.4819,-168.4389C607.329,-150.8618 749.2454,-111.9178 868,-76 895.7139,-67.6178 902.4143,-64.7949 930,-56 966.239,-44.4463 1007.5925,-31.4331 1037.0143,-22.2039"/>
<polygon fill="#191970" stroke="#191970" points="1038.4007,-25.4373 1046.8956,-19.1058 1036.3065,-18.7579 1038.4007,-25.4373"/>
</g>
<!-- Node8 -->
<g id="node9" class="node">
<title>Node8</title>
<polygon fill="#ffffff" stroke="#bfbfbf" points="403,-56.5 403,-75.5 449,-75.5 449,-56.5 403,-56.5"/>
<text text-anchor="middle" x="426" y="-63.5" font-family="Helvetica,sans-Serif" font-size="10.00" fill="#000000">future</text>
</g>
<!-- Node7&#45;&gt;Node8 -->
<g id="edge11" class="edge">
<title>Node7&#45;&gt;Node8</title>
<path fill="none" stroke="#191970" d="M492.7921,-168.4744C481.0955,-160.0343 464.7464,-146.7822 454,-132 443.7203,-117.8598 436.2921,-99.3687 431.6807,-85.5573"/>
<polygon fill="#191970" stroke="#191970" points="434.9101,-84.1569 428.5858,-75.6567 428.2289,-86.2455 434.9101,-84.1569"/>
</g>
<!-- Node9 -->
<g id="node10" class="node">
<title>Node9</title>
<polygon fill="#ffffff" stroke="#bfbfbf" points="482.5,-.5 482.5,-19.5 547.5,-19.5 547.5,-.5 482.5,-.5"/>
<text text-anchor="middle" x="515" y="-7.5" font-family="Helvetica,sans-Serif" font-size="10.00" fill="#000000">curl/curl.h</text>
</g>
<!-- Node7&#45;&gt;Node9 -->
<g id="edge13" class="edge">
<title>Node7&#45;&gt;Node9</title>
<path fill="none" stroke="#191970" d="M485.3657,-168.4143C444.3326,-148.8721 362.0383,-102.3441 394,-56 403.3256,-42.4779 441.4541,-29.3998 472.451,-20.6676"/>
<polygon fill="#191970" stroke="#191970" points="473.4998,-24.0093 482.2188,-17.9901 471.6493,-17.2583 473.4998,-24.0093"/>
</g>
<!-- Node10 -->
<g id="node11" class="node">
<title>Node10</title>
<polygon fill="#ffffff" stroke="#bfbfbf" points="252.5,-112.5 252.5,-131.5 357.5,-131.5 357.5,-112.5 252.5,-112.5"/>
<text text-anchor="middle" x="305" y="-119.5" font-family="Helvetica,sans-Serif" font-size="10.00" fill="#000000">gtest/gtest_prod.h</text>
</g>
<!-- Node7&#45;&gt;Node10 -->
<g id="edge14" class="edge">
<title>Node7&#45;&gt;Node10</title>
<path fill="none" stroke="#191970" d="M472.275,-168.3733C438.2492,-158.9404 386.2563,-144.5265 349.2766,-134.2747"/>
<polygon fill="#191970" stroke="#191970" points="349.8435,-130.7999 339.2719,-131.5011 347.9734,-137.5455 349.8435,-130.7999"/>
</g>
<!-- Node11 -->
<g id="node12" class="node">
<title>Node11</title>
<polygon fill="#ffffff" stroke="#bfbfbf" points="565.5,-.5 565.5,-19.5 634.5,-19.5 634.5,-.5 565.5,-.5"/>
<text text-anchor="middle" x="600" y="-7.5" font-family="Helvetica,sans-Serif" font-size="10.00" fill="#000000">json/json.h</text>
</g>
<!-- Node7&#45;&gt;Node11 -->
<g id="edge15" class="edge">
<title>Node7&#45;&gt;Node11</title>
<path fill="none" stroke="#191970" d="M521.054,-168.4717C543.1156,-152.481 584.729,-117.8494 598,-76 602.7646,-60.9749 602.988,-43.05 602.1739,-29.6748"/>
<polygon fill="#191970" stroke="#191970" points="605.6582,-29.3405 601.3229,-19.6732 598.6834,-29.934 605.6582,-29.3405"/>
</g>
<!-- Node12 -->
<g id="node13" class="node">
<title>Node12</title>
<g id="a_node13"><a xlink:href="httpinterface_8h_source.html" target="_top" xlink:title="httpinterface.h">
<polygon fill="#ffffff" stroke="#000000" points="462.5,-112.5 462.5,-131.5 551.5,-131.5 551.5,-112.5 462.5,-112.5"/>
<text text-anchor="middle" x="507" y="-119.5" font-family="Helvetica,sans-Serif" font-size="10.00" fill="#000000">httpinterface.h</text>
</a>
</g>
</g>
<!-- Node7&#45;&gt;Node12 -->
<g id="edge16" class="edge">
<title>Node7&#45;&gt;Node12</title>
<path fill="none" stroke="#191970" d="M507,-168.2455C507,-160.9382 507,-150.6944 507,-141.7046"/>
<polygon fill="#191970" stroke="#191970" points="510.5001,-141.6426 507,-131.6427 503.5001,-141.6427 510.5001,-141.6426"/>
</g>
<!-- Node18 -->
<g id="node19" class="node">
<title>Node18</title>
<g id="a_node19"><a xlink:href="logging_8h_source.html" target="_top" xlink:title="logging/logging.h">
<polygon fill="#ffffff" stroke="#000000" points="209.5,-56.5 209.5,-75.5 310.5,-75.5 310.5,-56.5 209.5,-56.5"/>
<text text-anchor="middle" x="260" y="-63.5" font-family="Helvetica,sans-Serif" font-size="10.00" fill="#000000">logging/logging.h</text>
</a>
</g>
</g>
<!-- Node7&#45;&gt;Node18 -->
<g id="edge38" class="edge">
<title>Node7&#45;&gt;Node18</title>
<path fill="none" stroke="#191970" d="M459.2762,-176.7668C390.8487,-173.8777 270.0966,-164.2262 243,-132 231.7562,-118.6277 239.1384,-98.7244 247.4008,-84.2728"/>
<polygon fill="#191970" stroke="#191970" points="250.4356,-86.021 252.7706,-75.6867 244.5007,-82.3093 250.4356,-86.021"/>
</g>
<!-- Node7&#45;&gt;Node22 -->
<g id="edge39" class="edge">
<title>Node7&#45;&gt;Node22</title>
<path fill="none" stroke="#191970" d="M547.7091,-168.4896C573.1802,-161.2391 605.8196,-149.4807 631,-132 649.5387,-119.1301 665.8137,-98.8709 676.1757,-84.1911"/>
<polygon fill="#191970" stroke="#191970" points="679.0945,-86.1232 681.8308,-75.8878 673.3089,-82.1828 679.0945,-86.1232"/>
</g>
<!-- Node12&#45;&gt;Node2 -->
<g id="edge18" class="edge">
<title>Node12&#45;&gt;Node2</title>
<path fill="none" stroke="#191970" d="M462.4089,-118.3963C402.1125,-112.8293 291.5842,-100.1627 200,-76 176.0577,-69.6833 171.1864,-64.6906 148,-56 116.0443,-44.0225 79.3847,-30.6839 53.8785,-21.4675"/>
<polygon fill="#191970" stroke="#191970" points="54.9422,-18.1305 44.3478,-18.0281 52.5659,-24.7149 54.9422,-18.1305"/>
</g>
<!-- Node12&#45;&gt;Node8 -->
<g id="edge17" class="edge">
<title>Node12&#45;&gt;Node8</title>
<path fill="none" stroke="#191970" d="M492.8909,-112.2455C480.5791,-103.7337 462.5042,-91.2375 448.2462,-81.3801"/>
<polygon fill="#191970" stroke="#191970" points="450.1634,-78.4506 439.9474,-75.6427 446.1826,-84.2085 450.1634,-78.4506"/>
</g>
<!-- Node12&#45;&gt;Node9 -->
<g id="edge20" class="edge">
<title>Node12&#45;&gt;Node9</title>
<path fill="none" stroke="#191970" d="M504.6406,-112.1182C501.8842,-99.1758 498.0534,-75.8017 501,-56 502.3327,-47.0439 505.0494,-37.419 507.7381,-29.3"/>
<polygon fill="#191970" stroke="#191970" points="511.1067,-30.272 511.1376,-19.6772 504.5064,-27.9402 511.1067,-30.272"/>
</g>
<!-- Node12&#45;&gt;Node11 -->
<g id="edge21" class="edge">
<title>Node12&#45;&gt;Node11</title>
<path fill="none" stroke="#191970" d="M509.3435,-112.1578C512.994,-98.4226 521.102,-73.2542 535,-56 545.1187,-43.4378 559.5164,-32.7709 572.1905,-24.8814"/>
<polygon fill="#191970" stroke="#191970" points="574.2128,-27.7513 581.0288,-19.64 570.6422,-21.7304 574.2128,-27.7513"/>
</g>
<!-- Node13 -->
<g id="node14" class="node">
<title>Node13</title>
<polygon fill="#ffffff" stroke="#bfbfbf" points="543.5,-56.5 543.5,-75.5 588.5,-75.5 588.5,-56.5 543.5,-56.5"/>
<text text-anchor="middle" x="566" y="-63.5" font-family="Helvetica,sans-Serif" font-size="10.00" fill="#000000">utility</text>
</g>
<!-- Node12&#45;&gt;Node13 -->
<g id="edge19" class="edge">
<title>Node12&#45;&gt;Node13</title>
<path fill="none" stroke="#191970" d="M517.277,-112.2455C525.8218,-104.1352 538.1778,-92.4075 548.3085,-82.7919"/>
<polygon fill="#191970" stroke="#191970" points="550.9972,-85.0655 555.8408,-75.6427 546.1782,-79.9884 550.9972,-85.0655"/>
</g>
<!-- Node12&#45;&gt;Node14 -->
<g id="edge22" class="edge">
<title>Node12&#45;&gt;Node14</title>
<path fill="none" stroke="#191970" d="M551.7855,-113.5556C602.8445,-103.9283 686.577,-88.1404 743.4321,-77.4202"/>
<polygon fill="#191970" stroke="#191970" points="744.1912,-80.8388 753.3695,-75.5465 742.8942,-73.96 744.1912,-80.8388"/>
</g>
<!-- Node12&#45;&gt;Node18 -->
<g id="edge27" class="edge">
<title>Node12&#45;&gt;Node18</title>
<path fill="none" stroke="#191970" d="M464.8198,-112.4369C422.5477,-102.8529 357.3938,-88.0812 311.9583,-77.78"/>
<polygon fill="#191970" stroke="#191970" points="312.5326,-74.3215 302.0062,-75.5237 310.9848,-81.1482 312.5326,-74.3215"/>
</g>
<!-- Node12&#45;&gt;Node22 -->
<g id="edge31" class="edge">
<title>Node12&#45;&gt;Node22</title>
<path fill="none" stroke="#191970" d="M538.115,-112.3733C568.3429,-103.021 614.396,-88.7725 647.4739,-78.5385"/>
<polygon fill="#191970" stroke="#191970" points="648.7723,-81.8005 657.291,-75.5011 646.7033,-75.1133 648.7723,-81.8005"/>
</g>
<!-- Node14&#45;&gt;Node11 -->
<g id="edge25" class="edge">
<title>Node14&#45;&gt;Node11</title>
<path fill="none" stroke="#191970" d="M768.9311,-56.3733C734.5685,-46.9404 682.0608,-32.5265 644.7149,-22.2747"/>
<polygon fill="#191970" stroke="#191970" points="645.181,-18.7732 634.6112,-19.5011 643.328,-25.5235 645.181,-18.7732"/>
</g>
<!-- Node15 -->
<g id="node16" class="node">
<title>Node15</title>
<polygon fill="#ffffff" stroke="#bfbfbf" points="881,-.5 881,-19.5 945,-19.5 945,-.5 881,-.5"/>
<text text-anchor="middle" x="913" y="-7.5" font-family="Helvetica,sans-Serif" font-size="10.00" fill="#000000">algorithm</text>
</g>
<!-- Node14&#45;&gt;Node15 -->
<g id="edge23" class="edge">
<title>Node14&#45;&gt;Node15</title>
<path fill="none" stroke="#191970" d="M822.9864,-56.2455C840.1792,-47.4125 865.7238,-34.2887 885.2132,-24.2758"/>
<polygon fill="#191970" stroke="#191970" points="886.9359,-27.3257 894.2312,-19.6427 883.737,-21.0993 886.9359,-27.3257"/>
</g>
<!-- Node16 -->
<g id="node17" class="node">
<title>Node16</title>
<polygon fill="#ffffff" stroke="#bfbfbf" points="963.5,-.5 963.5,-19.5 1028.5,-19.5 1028.5,-.5 963.5,-.5"/>
<text text-anchor="middle" x="996" y="-7.5" font-family="Helvetica,sans-Serif" font-size="10.00" fill="#000000">stdexcept</text>
</g>
<!-- Node14&#45;&gt;Node16 -->
<g id="edge24" class="edge">
<title>Node14&#45;&gt;Node16</title>
<path fill="none" stroke="#191970" d="M837.006,-56.3733C869.2091,-46.9807 918.3442,-32.6496 953.4639,-22.4064"/>
<polygon fill="#191970" stroke="#191970" points="954.8047,-25.6612 963.4247,-19.5011 952.8447,-18.9412 954.8047,-25.6612"/>
</g>
<!-- Node17 -->
<g id="node18" class="node">
<title>Node17</title>
<polygon fill="#ffffff" stroke="#bfbfbf" points="743.5,-.5 743.5,-19.5 862.5,-19.5 862.5,-.5 743.5,-.5"/>
<text text-anchor="middle" x="803" y="-7.5" font-family="Helvetica,sans-Serif" font-size="10.00" fill="#000000">boost/filesystem.hpp</text>
</g>
<!-- Node14&#45;&gt;Node17 -->
<g id="edge26" class="edge">
<title>Node14&#45;&gt;Node17</title>
<path fill="none" stroke="#191970" d="M803.8258,-56.2455C803.6953,-48.9382 803.5124,-38.6944 803.3519,-29.7046"/>
<polygon fill="#191970" stroke="#191970" points="806.8503,-29.5786 803.1722,-19.6427 799.8514,-29.7036 806.8503,-29.5786"/>
</g>
<!-- Node19 -->
<g id="node20" class="node">
<title>Node19</title>
<polygon fill="#ffffff" stroke="#bfbfbf" points="62.5,-.5 62.5,-19.5 169.5,-19.5 169.5,-.5 62.5,-.5"/>
<text text-anchor="middle" x="116" y="-7.5" font-family="Helvetica,sans-Serif" font-size="10.00" fill="#000000">boost/log/core.hpp</text>
</g>
<!-- Node18&#45;&gt;Node19 -->
<g id="edge28" class="edge">
<title>Node18&#45;&gt;Node19</title>
<path fill="none" stroke="#191970" d="M235.2455,-56.3733C211.7151,-47.2226 176.1313,-33.3844 149.9574,-23.2057"/>
<polygon fill="#191970" stroke="#191970" points="151.0201,-19.8636 140.4315,-19.5011 148.4829,-26.3877 151.0201,-19.8636"/>
</g>
<!-- Node20 -->
<g id="node21" class="node">
<title>Node20</title>
<polygon fill="#ffffff" stroke="#bfbfbf" points="188,-.5 188,-19.5 332,-19.5 332,-.5 188,-.5"/>
<text text-anchor="middle" x="260" y="-7.5" font-family="Helvetica,sans-Serif" font-size="10.00" fill="#000000">boost/log/expressions.hpp</text>
</g>
<!-- Node18&#45;&gt;Node20 -->
<g id="edge29" class="edge">
<title>Node18&#45;&gt;Node20</title>
<path fill="none" stroke="#191970" d="M260,-56.2455C260,-48.9382 260,-38.6944 260,-29.7046"/>
<polygon fill="#191970" stroke="#191970" points="263.5001,-29.6426 260,-19.6427 256.5001,-29.6427 263.5001,-29.6426"/>
</g>
<!-- Node21 -->
<g id="node22" class="node">
<title>Node21</title>
<polygon fill="#ffffff" stroke="#bfbfbf" points="350,-.5 350,-19.5 464,-19.5 464,-.5 350,-.5"/>
<text text-anchor="middle" x="407" y="-7.5" font-family="Helvetica,sans-Serif" font-size="10.00" fill="#000000">boost/log/trivial.hpp</text>
</g>
<!-- Node18&#45;&gt;Node21 -->
<g id="edge30" class="edge">
<title>Node18&#45;&gt;Node21</title>
<path fill="none" stroke="#191970" d="M285.2702,-56.3733C309.3966,-47.1822 345.9362,-33.2624 372.6877,-23.0713"/>
<polygon fill="#191970" stroke="#191970" points="373.9607,-26.3318 382.0596,-19.5011 371.4687,-19.7904 373.9607,-26.3318"/>
</g>
<!-- Node22&#45;&gt;Node1 -->
<g id="edge33" class="edge">
<title>Node22&#45;&gt;Node1</title>
<path fill="none" stroke="#191970" d="M731.0897,-57.4735C734.1011,-56.9516 737.0935,-56.4545 740,-56 868.5879,-35.8938 905.1883,-44.5816 1036.5868,-20.0582"/>
<polygon fill="#191970" stroke="#191970" points="1037.4596,-23.4551 1046.6326,-18.1537 1036.1557,-16.5776 1037.4596,-23.4551"/>
</g>
<!-- Node22&#45;&gt;Node2 -->
<g id="edge34" class="edge">
<title>Node22&#45;&gt;Node2</title>
<path fill="none" stroke="#191970" d="M644.551,-60.7755C629.7902,-59.1063 613.1901,-57.3449 598,-56 359.5017,-34.8837 293.2314,-64.769 54.2198,-19.7912"/>
<polygon fill="#191970" stroke="#191970" points="54.6588,-16.3119 44.1803,-17.8773 53.3479,-23.1881 54.6588,-16.3119"/>
</g>
<!-- Node22&#45;&gt;Node9 -->
<g id="edge35" class="edge">
<title>Node22&#45;&gt;Node9</title>
<path fill="none" stroke="#191970" d="M658.2602,-56.3733C629.493,-47.0613 585.73,-32.8953 554.1444,-22.671"/>
<polygon fill="#191970" stroke="#191970" points="554.9436,-19.251 544.3517,-19.5011 552.7878,-25.9107 554.9436,-19.251"/>
</g>
<!-- Node22&#45;&gt;Node11 -->
<g id="edge37" class="edge">
<title>Node22&#45;&gt;Node11</title>
<path fill="none" stroke="#191970" d="M672.6716,-56.2455C659.1697,-47.6534 639.2878,-35.0014 623.7314,-25.1018"/>
<polygon fill="#191970" stroke="#191970" points="625.4685,-22.0587 615.1528,-19.6427 621.7103,-27.9643 625.4685,-22.0587"/>
</g>
<!-- Node22&#45;&gt;Node17 -->
<g id="edge32" class="edge">
<title>Node22&#45;&gt;Node17</title>
<path fill="none" stroke="#191970" d="M707.7692,-56.3733C726.1469,-47.4241 753.7312,-33.9917 774.4893,-23.8835"/>
<polygon fill="#191970" stroke="#191970" points="776.0304,-27.026 783.4888,-19.5011 772.9657,-20.7325 776.0304,-27.026"/>
</g>
<!-- Node23 -->
<g id="node24" class="node">
<title>Node23</title>
<polygon fill="#ffffff" stroke="#bfbfbf" points="653,-.5 653,-19.5 725,-19.5 725,-.5 653,-.5"/>
<text text-anchor="middle" x="689" y="-7.5" font-family="Helvetica,sans-Serif" font-size="10.00" fill="#000000">netinet/in.h</text>
</g>
<!-- Node22&#45;&gt;Node23 -->
<g id="edge36" class="edge">
<title>Node22&#45;&gt;Node23</title>
<path fill="none" stroke="#191970" d="M688.1742,-56.2455C688.3047,-48.9382 688.4876,-38.6944 688.6481,-29.7046"/>
<polygon fill="#191970" stroke="#191970" points="692.1486,-29.7036 688.8278,-19.6427 685.1497,-29.5786 692.1486,-29.7036"/>
</g>
</g>
</svg>
        <g id="navigator" transform="translate(0 0)" fill="#404254">
                <rect fill="#f2f5e9" fill-opacity="0.5" stroke="#606060" stroke-width=".5" x="0" y="0" width="60" height="60"/>
                <use id="zoomplus" xlink:href="#zoomPlus" x="17" y="9" onmousedown="handleZoom(evt,'in')"/>
                <use id="zoomminus" xlink:href="#zoomMin" x="42" y="9" onmousedown="handleZoom(evt,'out')"/>
                <use id="reset" xlink:href="#resetDef" x="30" y="36" onmousedown="handleReset()"/>
                <g id="arrowUp" xlink:href="#dirArrow" transform="translate(30 24)" onmousedown="handlePan(0,-1)">
                  <use xlink:href="#rim" fill="#404040">
                        <set attributeName="fill" to="#808080" begin="arrowUp.mouseover" end="arrowUp.mouseout"/>
                  </use>
                  <path fill="none" stroke="white" stroke-width="1.5" d="M0,-3.0v7 M-2.5,-0.5L0,-3.0L2.5,-0.5"/>
                </g>
                <g id="arrowRight" xlink:href="#dirArrow" transform="rotate(90) translate(36 -43)" onmousedown="handlePan(1,0)">
                  <use xlink:href="#rim" fill="#404040">
                        <set attributeName="fill" to="#808080" begin="arrowRight.mouseover" end="arrowRight.mouseout"/>
                  </use>
                  <path fill="none" stroke="white" stroke-width="1.5" d="M0,-3.0v7 M-2.5,-0.5L0,-3.0L2.5,-0.5"/>
                </g>
                <g id="arrowDown" xlink:href="#dirArrow" transform="rotate(180) translate(-30 -48)" onmousedown="handlePan(0,1)">
                  <use xlink:href="#rim" fill="#404040">
                        <set attributeName="fill" to="#808080" begin="arrowDown.mouseover" end="arrowDown.mouseout"/>
                  </use>
                  <path fill="none" stroke="white" stroke-width="1.5" d="M0,-3.0v7 M-2.5,-0.5L0,-3.0L2.5,-0.5"/>
                </g>
                <g id="arrowLeft" xlink:href="#dirArrow" transform="rotate(270) translate(-36 17)" onmousedown="handlePan(-1,0)">
                  <use xlink:href="#rim" fill="#404040">
                        <set attributeName="fill" to="#808080" begin="arrowLeft.mouseover" end="arrowLeft.mouseout"/>
                  </use>
                  <path fill="none" stroke="white" stroke-width="1.5" d="M0,-3.0v7 M-2.5,-0.5L0,-3.0L2.5,-0.5"/>
                </g>
        </g>
        <svg viewBox="0 0 15 15" width="100%" height="30px" preserveAspectRatio="xMaxYMin meet">
         <g id="arrow_out" transform="scale(0.3 0.3)">
          <a xlink:href="events_8h__incl_org.svg" target="_base">
           <rect id="button" ry="5" rx="5" y="6" x="6" height="38" width="38"
                fill="#f2f5e9" fill-opacity="0.5" stroke="#606060" stroke-width="1.0"/>
           <path id="arrow"
             d="M 11.500037,31.436501 C 11.940474,20.09759 22.043105,11.32322 32.158766,21.979434 L 37.068811,17.246167 C 37.068811,17.246167 37.088388,32 37.088388,32 L 22.160133,31.978069 C 22.160133,31.978069 26.997745,27.140456 26.997745,27.140456 C 18.528582,18.264221 13.291696,25.230495 11.500037,31.436501 z"
             style="fill:#404040;"/>
          </a>
         </g>
        </svg>
</svg>
