<?xml version="1.0" encoding="UTF-8" standalone="no"?>
<!DOCTYPE svg PUBLIC "-//W3C//DTD SVG 1.1//EN"
 "http://www.w3.org/Graphics/SVG/1.1/DTD/svg11.dtd">
<!-- Generated by graphviz version 2.40.1 (20161225.0304)
 -->
<!-- Title: Graphical Class Hierarchy Pages: 1 -->
<svg width="489pt" height="192pt"
 viewBox="0.00 0.00 489.00 191.50" xmlns="http://www.w3.org/2000/svg" xmlns:xlink="http://www.w3.org/1999/xlink">
<g id="graph0" class="graph" transform="scale(1 1) rotate(0) translate(4 187.5)">
<title>Graphical Class Hierarchy</title>
<polygon fill="#ffffff" stroke="transparent" points="-4,4 -4,-187.5 485,-187.5 485,4 -4,4"/>
<!-- Node0 -->
<g id="node1" class="node">
<title>Node0</title>
<g id="a_node1"><a xlink:href="class_secondary_interface.html" target="_top" xlink:title="SecondaryInterface">
<polygon fill="#ffffff" stroke="#000000" points="0,-88 0,-107 111,-107 111,-88 0,-88"/>
<text text-anchor="middle" x="55.5" y="-95" font-family="Helvetica,sans-Serif" font-size="10.00" fill="#000000">SecondaryInterface</text>
</a>
</g>
</g>
<!-- Node1 -->
<g id="node2" class="node">
<title>Node1</title>
<g id="a_node2"><a xlink:href="class_primary_1_1_managed_secondary.html" target="_top" xlink:title="Primary::ManagedSecondary">
<polygon fill="#ffffff" stroke="#000000" points="147,-164 147,-183 302,-183 302,-164 147,-164"/>
<text text-anchor="middle" x="224.5" y="-171" font-family="Helvetica,sans-Serif" font-size="10.00" fill="#000000">Primary::ManagedSecondary</text>
</a>
</g>
</g>
<!-- Node0&#45;&gt;Node1 -->
<g id="edge1" class="edge">
<title>Node0&#45;&gt;Node1</title>
<path fill="none" stroke="#191970" d="M76.6155,-113.3684C94.5129,-126.1337 121.2977,-143.6704 147,-154.5 155.9364,-158.2653 165.7803,-161.3921 175.3672,-163.948"/>
<polygon fill="#191970" stroke="#191970" points="78.2651,-110.2404 68.1192,-107.1887 74.1476,-115.9013 78.2651,-110.2404"/>
</g>
<!-- Node3 -->
<g id="node4" class="node">
<title>Node3</title>
<g id="a_node4"><a xlink:href="class_secondary_interface_mock.html" target="_top" xlink:title="SecondaryInterfaceMock">
<polygon fill="#ffffff" stroke="#000000" points="156,-126 156,-145 293,-145 293,-126 156,-126"/>
<text text-anchor="middle" x="224.5" y="-133" font-family="Helvetica,sans-Serif" font-size="10.00" fill="#000000">SecondaryInterfaceMock</text>
</a>
</g>
</g>
<!-- Node0&#45;&gt;Node3 -->
<g id="edge3" class="edge">
<title>Node0&#45;&gt;Node3</title>
<path fill="none" stroke="#191970" d="M108.0869,-109.3243C131.9129,-114.6816 159.7069,-120.9311 182.1608,-125.9799"/>
<polygon fill="#191970" stroke="#191970" points="108.6701,-105.8681 98.1458,-107.089 107.1344,-112.6976 108.6701,-105.8681"/>
</g>
<!-- Node4 -->
<g id="node5" class="node">
<title>Node4</title>
<g id="a_node5"><a xlink:href="class_uptane_1_1_ip_uptane_secondary.html" target="_top" xlink:title="Uptane::IpUptaneSecondary">
<polygon fill="#ffffff" stroke="#000000" points="148,-88 148,-107 301,-107 301,-88 148,-88"/>
<text text-anchor="middle" x="224.5" y="-95" font-family="Helvetica,sans-Serif" font-size="10.00" fill="#000000">Uptane::IpUptaneSecondary</text>
</a>
</g>
</g>
<!-- Node0&#45;&gt;Node4 -->
<g id="edge4" class="edge">
<title>Node0&#45;&gt;Node4</title>
<path fill="none" stroke="#191970" d="M121.3771,-97.5C130.0857,-97.5 139.0719,-97.5 147.9405,-97.5"/>
<polygon fill="#191970" stroke="#191970" points="121.3053,-94.0001 111.3053,-97.5 121.3053,-101.0001 121.3053,-94.0001"/>
</g>
<!-- Node5 -->
<g id="node6" class="node">
<title>Node5</title>
<g id="a_node6"><a xlink:href="class_uptane_1_1_iso_tp_secondary.html" target="_top" xlink:title="Uptane::IsoTpSecondary">
<polygon fill="#ffffff" stroke="#000000" points="157,-50 157,-69 292,-69 292,-50 157,-50"/>
<text text-anchor="middle" x="224.5" y="-57" font-family="Helvetica,sans-Serif" font-size="10.00" fill="#000000">Uptane::IsoTpSecondary</text>
</a>
</g>
</g>
<!-- Node0&#45;&gt;Node5 -->
<g id="edge5" class="edge">
<title>Node0&#45;&gt;Node5</title>
<path fill="none" stroke="#191970" d="M108.0869,-85.6757C131.9129,-80.3184 159.7069,-74.0689 182.1608,-69.0201"/>
<polygon fill="#191970" stroke="#191970" points="107.1344,-82.3024 98.1458,-87.911 108.6701,-89.1319 107.1344,-82.3024"/>
</g>
<!-- Node6 -->
<g id="node7" class="node">
<title>Node6</title>
<g id="a_node7"><a xlink:href="class_uptane_1_1_partial_verification_secondary.html" target="_top" xlink:title="Uptane::PartialVerification\lSecondary">
<polygon fill="#ffffff" stroke="#000000" points="153,-.5 153,-30.5 296,-30.5 296,-.5 153,-.5"/>
<text text-anchor="start" x="161" y="-18.5" font-family="Helvetica,sans-Serif" font-size="10.00" fill="#000000">Uptane::PartialVerification</text>
<text text-anchor="middle" x="224.5" y="-7.5" font-family="Helvetica,sans-Serif" font-size="10.00" fill="#000000">Secondary</text>
</a>
</g>
</g>
<!-- Node0&#45;&gt;Node6 -->
<g id="edge6" class="edge">
<title>Node0&#45;&gt;Node6</title>
<path fill="none" stroke="#191970" d="M77.1371,-81.8956C95.1575,-69.431 121.8465,-52.1758 147,-40.5 154.8223,-36.869 163.3171,-33.549 171.7197,-30.5979"/>
<polygon fill="#191970" stroke="#191970" points="74.7288,-79.31 68.5578,-87.9221 78.7525,-85.038 74.7288,-79.31"/>
</g>
<!-- Node2 -->
<g id="node3" class="node">
<title>Node2</title>
<g id="a_node3"><a xlink:href="class_primary_1_1_virtual_secondary.html" target="_top" xlink:title="Primary::VirtualSecondary">
<polygon fill="#ffffff" stroke="#000000" points="338,-164 338,-183 481,-183 481,-164 338,-164"/>
<text text-anchor="middle" x="409.5" y="-171" font-family="Helvetica,sans-Serif" font-size="10.00" fill="#000000">Primary::VirtualSecondary</text>
</a>
</g>
</g>
<!-- Node1&#45;&gt;Node2 -->
<g id="edge2" class="edge">
<title>Node1&#45;&gt;Node2</title>
<path fill="none" stroke="#191970" d="M312.2257,-173.5C320.8436,-173.5 329.5168,-173.5 337.9452,-173.5"/>
<polygon fill="#191970" stroke="#191970" points="312.1526,-170.0001 302.1525,-173.5 312.1525,-177.0001 312.1526,-170.0001"/>
</g>
</g>
</svg>
