<?xml version="1.0" encoding="UTF-8" standalone="no"?>
<!DOCTYPE svg PUBLIC "-//W3C//DTD SVG 1.1//EN"
 "http://www.w3.org/Graphics/SVG/1.1/DTD/svg11.dtd">
<!-- Generated by graphviz version 2.40.1 (20161225.0304)
 -->
<!-- Title: include/libaktualizr/results.h Pages: 1 -->
<!--zoomable 319 -->
<svg id="main" version="1.1" xmlns="http://www.w3.org/2000/svg" xmlns:xlink="http://www.w3.org/1999/xlink" xml:space="preserve" onload="init(evt)">
<style type="text/css"><![CDATA[
.edge:hover path { stroke: red; }
.edge:hover polygon { stroke: red; fill: red; }
]]></style>
<script type="text/javascript"><![CDATA[
var edges = document.getElementsByTagName('g');
if (edges && edges.length) {
  for (var i=0;i<edges.length;i++) {
    if (edges[i].id.substr(0,4)=='edge') {
      edges[i].setAttribute('class','edge');
    }
  }
}
]]></script>
        <defs>
                <circle id="rim" cx="0" cy="0" r="7"/>
                <circle id="rim2" cx="0" cy="0" r="3.5"/>
                <g id="zoomPlus">
                        <use xlink:href="#rim" fill="#404040">
                                <set attributeName="fill" to="#808080" begin="zoomplus.mouseover" end="zoomplus.mouseout"/>
                        </use>
                        <path d="M-4,0h8M0,-4v8" fill="none" stroke="white" stroke-width="1.5" pointer-events="none"/>
                </g>
                <g id="zoomMin">
                        <use xlink:href="#rim" fill="#404040">
                                <set attributeName="fill" to="#808080" begin="zoomminus.mouseover" end="zoomminus.mouseout"/>
                        </use>
                        <path d="M-4,0h8" fill="none" stroke="white" stroke-width="1.5" pointer-events="none"/>
                </g>
                <g id="dirArrow">
                        <path fill="none" stroke="white" stroke-width="1.5" d="M0,-3.0v7 M-2.5,-0.5L0,-3.0L2.5,-0.5"/>
                </g>
               <g id="resetDef">
                       <use xlink:href="#rim2" fill="#404040">
                               <set attributeName="fill" to="#808080" begin="reset.mouseover" end="reset.mouseout"/>
                       </use>
               </g>
        </defs>

<script type="text/javascript">
var viewWidth = 1153;
var viewHeight = 319;
var sectionId = 'dynsection-0';
</script>
<script xlink:href="svgpan.js"/>
<svg id="graph" class="graph">
<g id="viewport">
<title>include/libaktualizr/results.h</title>
<polygon fill="#ffffff" stroke="transparent" points="-4,4 -4,-315 1149,-315 1149,4 -4,4"/>
<!-- Node0 -->
<g id="node1" class="node">
<title>Node0</title>
<polygon fill="#bfbfbf" stroke="#000000" points="282,-280.5 282,-310.5 392,-310.5 392,-280.5 282,-280.5"/>
<text text-anchor="start" x="290" y="-298.5" font-family="Helvetica,sans-Serif" font-size="10.00" fill="#000000">include/libaktualizr</text>
<text text-anchor="middle" x="337" y="-287.5" font-family="Helvetica,sans-Serif" font-size="10.00" fill="#000000">/results.h</text>
</g>
<!-- Node1 -->
<g id="node2" class="node">
<title>Node1</title>
<polygon fill="#ffffff" stroke="#bfbfbf" points="32,-.5 32,-19.5 76,-19.5 76,-.5 32,-.5"/>
<text text-anchor="middle" x="54" y="-7.5" font-family="Helvetica,sans-Serif" font-size="10.00" fill="#000000">string</text>
</g>
<!-- Node0&#45;&gt;Node1 -->
<g id="edge1" class="edge">
<title>Node0&#45;&gt;Node1</title>
<path fill="none" stroke="#191970" d="M281.7287,-287.8928C186.1227,-273.1705 0,-236.9406 0,-178 0,-178 0,-178 0,-122 0,-85.7347 23.2559,-48.8332 39.2443,-27.7487"/>
<polygon fill="#191970" stroke="#191970" points="42.1233,-29.75 45.5625,-19.7289 36.6247,-25.418 42.1233,-29.75"/>
</g>
<!-- Node2 -->
<g id="node3" class="node">
<title>Node2</title>
<polygon fill="#ffffff" stroke="#bfbfbf" points="360.5,-168.5 360.5,-187.5 407.5,-187.5 407.5,-168.5 360.5,-168.5"/>
<text text-anchor="middle" x="384" y="-175.5" font-family="Helvetica,sans-Serif" font-size="10.00" fill="#000000">vector</text>
</g>
<!-- Node0&#45;&gt;Node2 -->
<g id="edge2" class="edge">
<title>Node0&#45;&gt;Node2</title>
<path fill="none" stroke="#191970" d="M346.0597,-280.089C351.7176,-270.0427 358.875,-256.5192 364,-244 370.2369,-228.7645 375.5438,-210.8551 379.1204,-197.5395"/>
<polygon fill="#191970" stroke="#191970" points="382.577,-198.1528 381.7002,-187.5943 375.8013,-196.3951 382.577,-198.1528"/>
</g>
<!-- Node3 -->
<g id="node4" class="node">
<title>Node3</title>
<g id="a_node4"><a xlink:href="campaign_8h_source.html" target="_top" xlink:title="libaktualizr/campaign.h">
<polygon fill="#ffffff" stroke="#000000" points="224.5,-224.5 224.5,-243.5 355.5,-243.5 355.5,-224.5 224.5,-224.5"/>
<text text-anchor="middle" x="290" y="-231.5" font-family="Helvetica,sans-Serif" font-size="10.00" fill="#000000">libaktualizr/campaign.h</text>
</a>
</g>
</g>
<!-- Node0&#45;&gt;Node3 -->
<g id="edge3" class="edge">
<title>Node0&#45;&gt;Node3</title>
<path fill="none" stroke="#191970" d="M325.382,-280.2977C318.79,-271.672 310.5052,-260.8312 303.6099,-251.8087"/>
<polygon fill="#191970" stroke="#191970" points="306.3783,-249.6671 297.5253,-243.8469 300.8165,-253.9176 306.3783,-249.6671"/>
</g>
<!-- Node12 -->
<g id="node13" class="node">
<title>Node12</title>
<g id="a_node13"><a xlink:href="types_8h.html" target="_top" xlink:title="libaktualizr/types.h">
<polygon fill="#ffffff" stroke="#000000" points="546,-56.5 546,-75.5 656,-75.5 656,-56.5 546,-56.5"/>
<text text-anchor="middle" x="601" y="-63.5" font-family="Helvetica,sans-Serif" font-size="10.00" fill="#000000">libaktualizr/types.h</text>
</a>
</g>
</g>
<!-- Node0&#45;&gt;Node12 -->
<g id="edge37" class="edge">
<title>Node0&#45;&gt;Node12</title>
<path fill="none" stroke="#191970" d="M354.3218,-280.4419C401.7098,-239.2466 533.2137,-124.9279 582.2484,-82.3011"/>
<polygon fill="#191970" stroke="#191970" points="584.6476,-84.8531 589.8983,-75.6509 580.055,-79.5702 584.6476,-84.8531"/>
</g>
<!-- Node3&#45;&gt;Node1 -->
<g id="edge4" class="edge">
<title>Node3&#45;&gt;Node1</title>
<path fill="none" stroke="#191970" d="M239.6236,-224.4596C213.3256,-217.6039 181.7695,-206.2564 158,-188 103.2308,-145.9339 71.941,-66.1586 59.8509,-29.4164"/>
<polygon fill="#191970" stroke="#191970" points="63.1839,-28.3478 56.8278,-19.8713 56.5106,-30.4614 63.1839,-28.3478"/>
</g>
<!-- Node3&#45;&gt;Node2 -->
<g id="edge5" class="edge">
<title>Node3&#45;&gt;Node2</title>
<path fill="none" stroke="#191970" d="M306.3736,-224.2455C320.9308,-215.5731 342.431,-202.7645 359.1152,-192.825"/>
<polygon fill="#191970" stroke="#191970" points="361.0144,-195.7676 367.8141,-187.6427 357.4317,-189.7539 361.0144,-195.7676"/>
</g>
<!-- Node4 -->
<g id="node5" class="node">
<title>Node4</title>
<g id="a_node5"><a xlink:href="httpclient_8h_source.html" target="_top" xlink:title="http/httpclient.h">
<polygon fill="#ffffff" stroke="#000000" points="247.5,-168.5 247.5,-187.5 342.5,-187.5 342.5,-168.5 247.5,-168.5"/>
<text text-anchor="middle" x="295" y="-175.5" font-family="Helvetica,sans-Serif" font-size="10.00" fill="#000000">http/httpclient.h</text>
</a>
</g>
</g>
<!-- Node3&#45;&gt;Node4 -->
<g id="edge6" class="edge">
<title>Node3&#45;&gt;Node4</title>
<path fill="none" stroke="#191970" d="M290.8709,-224.2455C291.5234,-216.9382 292.438,-206.6944 293.2407,-197.7046"/>
<polygon fill="#191970" stroke="#191970" points="296.7358,-197.9143 294.139,-187.6427 289.7635,-197.2918 296.7358,-197.9143"/>
</g>
<!-- Node20 -->
<g id="node21" class="node">
<title>Node20</title>
<g id="a_node21"><a xlink:href="utils_8h_source.html" target="_top" xlink:title="utilities/utils.h">
<polygon fill="#ffffff" stroke="#000000" points="200,-56.5 200,-75.5 286,-75.5 286,-56.5 200,-56.5"/>
<text text-anchor="middle" x="243" y="-63.5" font-family="Helvetica,sans-Serif" font-size="10.00" fill="#000000">utilities/utils.h</text>
</a>
</g>
</g>
<!-- Node3&#45;&gt;Node20 -->
<g id="edge36" class="edge">
<title>Node3&#45;&gt;Node20</title>
<path fill="none" stroke="#191970" d="M259.976,-224.4902C222.4547,-210.7962 159.9045,-181.5634 133,-132 117.6067,-103.6426 154.8674,-86.2435 190.115,-76.4817"/>
<polygon fill="#191970" stroke="#191970" points="191.1572,-79.8272 199.9578,-73.9281 189.3993,-73.0515 191.1572,-79.8272"/>
</g>
<!-- Node5 -->
<g id="node6" class="node">
<title>Node5</title>
<polygon fill="#ffffff" stroke="#bfbfbf" points="482,-56.5 482,-75.5 528,-75.5 528,-56.5 482,-56.5"/>
<text text-anchor="middle" x="505" y="-63.5" font-family="Helvetica,sans-Serif" font-size="10.00" fill="#000000">future</text>
</g>
<!-- Node4&#45;&gt;Node5 -->
<g id="edge7" class="edge">
<title>Node4&#45;&gt;Node5</title>
<path fill="none" stroke="#191970" d="M340.233,-168.4771C389.7752,-157.7195 463.6204,-140.5948 474,-132 488.2799,-120.1756 496.3668,-100.2799 500.6731,-85.4176"/>
<polygon fill="#191970" stroke="#191970" points="504.0783,-86.2289 503.1751,-75.6726 497.2982,-84.4881 504.0783,-86.2289"/>
</g>
<!-- Node6 -->
<g id="node7" class="node">
<title>Node6</title>
<polygon fill="#ffffff" stroke="#bfbfbf" points="276,-.5 276,-19.5 334,-19.5 334,-.5 276,-.5"/>
<text text-anchor="middle" x="305" y="-7.5" font-family="Helvetica,sans-Serif" font-size="10.00" fill="#000000">memory</text>
</g>
<!-- Node4&#45;&gt;Node6 -->
<g id="edge8" class="edge">
<title>Node4&#45;&gt;Node6</title>
<path fill="none" stroke="#191970" d="M295.5663,-168.4862C297.1471,-141.9293 301.633,-66.5651 303.7997,-30.1655"/>
<polygon fill="#191970" stroke="#191970" points="307.3145,-30.0182 304.415,-19.8279 300.3269,-29.6022 307.3145,-30.0182"/>
</g>
<!-- Node7 -->
<g id="node8" class="node">
<title>Node7</title>
<polygon fill="#ffffff" stroke="#bfbfbf" points="102.5,-.5 102.5,-19.5 167.5,-19.5 167.5,-.5 102.5,-.5"/>
<text text-anchor="middle" x="135" y="-7.5" font-family="Helvetica,sans-Serif" font-size="10.00" fill="#000000">curl/curl.h</text>
</g>
<!-- Node4&#45;&gt;Node7 -->
<g id="edge9" class="edge">
<title>Node4&#45;&gt;Node7</title>
<path fill="none" stroke="#191970" d="M247.2639,-170.8982C204.6316,-163.4641 146.8359,-150.3116 133,-132 110.4399,-102.1421 119.9687,-55.3953 128.042,-29.2876"/>
<polygon fill="#191970" stroke="#191970" points="131.3726,-30.3635 131.2083,-19.7699 124.7305,-28.1537 131.3726,-30.3635"/>
</g>
<!-- Node8 -->
<g id="node9" class="node">
<title>Node8</title>
<polygon fill="#ffffff" stroke="#bfbfbf" points="142.5,-112.5 142.5,-131.5 247.5,-131.5 247.5,-112.5 142.5,-112.5"/>
<text text-anchor="middle" x="195" y="-119.5" font-family="Helvetica,sans-Serif" font-size="10.00" fill="#000000">gtest/gtest_prod.h</text>
</g>
<!-- Node4&#45;&gt;Node8 -->
<g id="edge10" class="edge">
<title>Node4&#45;&gt;Node8</title>
<path fill="none" stroke="#191970" d="M277.5813,-168.2455C261.9515,-159.4928 238.7981,-146.527 220.9815,-136.5496"/>
<polygon fill="#191970" stroke="#191970" points="222.6543,-133.475 212.2191,-131.6427 219.234,-139.5825 222.6543,-133.475"/>
</g>
<!-- Node9 -->
<g id="node10" class="node">
<title>Node9</title>
<polygon fill="#ffffff" stroke="#bfbfbf" points="352.5,-.5 352.5,-19.5 421.5,-19.5 421.5,-.5 352.5,-.5"/>
<text text-anchor="middle" x="387" y="-7.5" font-family="Helvetica,sans-Serif" font-size="10.00" fill="#000000">json/json.h</text>
</g>
<!-- Node4&#45;&gt;Node9 -->
<g id="edge11" class="edge">
<title>Node4&#45;&gt;Node9</title>
<path fill="none" stroke="#191970" d="M342.6005,-169.173C380.2117,-161.1165 428.2627,-148.0373 440,-132 464.6134,-98.3693 428.185,-51.5254 404.5465,-26.811"/>
<polygon fill="#191970" stroke="#191970" points="406.9381,-24.252 397.4146,-19.6093 401.9642,-29.1775 406.9381,-24.252"/>
</g>
<!-- Node10 -->
<g id="node11" class="node">
<title>Node10</title>
<g id="a_node11"><a xlink:href="httpinterface_8h_source.html" target="_top" xlink:title="httpinterface.h">
<polygon fill="#ffffff" stroke="#000000" points="342.5,-112.5 342.5,-131.5 431.5,-131.5 431.5,-112.5 342.5,-112.5"/>
<text text-anchor="middle" x="387" y="-119.5" font-family="Helvetica,sans-Serif" font-size="10.00" fill="#000000">httpinterface.h</text>
</a>
</g>
</g>
<!-- Node4&#45;&gt;Node10 -->
<g id="edge12" class="edge">
<title>Node4&#45;&gt;Node10</title>
<path fill="none" stroke="#191970" d="M311.0252,-168.2455C325.1408,-159.6534 345.9263,-147.0014 362.1899,-137.1018"/>
<polygon fill="#191970" stroke="#191970" points="364.4363,-139.8319 371.1585,-131.6427 360.7966,-133.8525 364.4363,-139.8319"/>
</g>
<!-- Node16 -->
<g id="node17" class="node">
<title>Node16</title>
<g id="a_node17"><a xlink:href="logging_8h_source.html" target="_top" xlink:title="logging/logging.h">
<polygon fill="#ffffff" stroke="#000000" points="749.5,-56.5 749.5,-75.5 850.5,-75.5 850.5,-56.5 749.5,-56.5"/>
<text text-anchor="middle" x="800" y="-63.5" font-family="Helvetica,sans-Serif" font-size="10.00" fill="#000000">logging/logging.h</text>
</a>
</g>
</g>
<!-- Node4&#45;&gt;Node16 -->
<g id="edge34" class="edge">
<title>Node4&#45;&gt;Node16</title>
<path fill="none" stroke="#191970" d="M338.056,-168.4509C430.2968,-147.9936 646.7328,-99.9919 747.1294,-77.7258"/>
<polygon fill="#191970" stroke="#191970" points="748.048,-81.1071 757.053,-75.5249 746.5323,-74.2732 748.048,-81.1071"/>
</g>
<!-- Node4&#45;&gt;Node20 -->
<g id="edge35" class="edge">
<title>Node4&#45;&gt;Node20</title>
<path fill="none" stroke="#191970" d="M290.5665,-168.4509C281.9703,-149.936 262.8989,-108.8591 251.6908,-84.7187"/>
<polygon fill="#191970" stroke="#191970" points="254.808,-83.1211 247.4223,-75.5249 248.4589,-86.0689 254.808,-83.1211"/>
</g>
<!-- Node10&#45;&gt;Node1 -->
<g id="edge14" class="edge">
<title>Node10&#45;&gt;Node1</title>
<path fill="none" stroke="#191970" d="M342.1595,-117.2526C296.2079,-111.3598 223.2926,-99.1286 164,-76 130.9583,-63.1112 96.4582,-40.7178 75.1004,-25.6324"/>
<polygon fill="#191970" stroke="#191970" points="76.9575,-22.657 66.7943,-19.6637 72.8726,-28.3415 76.9575,-22.657"/>
</g>
<!-- Node10&#45;&gt;Node5 -->
<g id="edge13" class="edge">
<title>Node10&#45;&gt;Node5</title>
<path fill="none" stroke="#191970" d="M407.2849,-112.3733C426.1421,-103.4241 454.446,-89.9917 475.7455,-79.8835"/>
<polygon fill="#191970" stroke="#191970" points="477.4461,-82.9506 484.9798,-75.5011 474.4449,-76.6266 477.4461,-82.9506"/>
</g>
<!-- Node10&#45;&gt;Node7 -->
<g id="edge16" class="edge">
<title>Node10&#45;&gt;Node7</title>
<path fill="none" stroke="#191970" d="M342.3214,-114.8602C292.6305,-106.3412 216.0477,-91.3173 191,-76 171.6778,-64.184 155.6966,-43.4042 145.8198,-28.3111"/>
<polygon fill="#191970" stroke="#191970" points="148.7538,-26.4018 140.4837,-19.7794 142.819,-30.1137 148.7538,-26.4018"/>
</g>
<!-- Node10&#45;&gt;Node9 -->
<g id="edge17" class="edge">
<title>Node10&#45;&gt;Node9</title>
<path fill="none" stroke="#191970" d="M389.7761,-112.1879C393.0856,-99.3209 397.9409,-76.0282 396,-56 395.1582,-47.3132 393.4421,-37.8313 391.732,-29.7451"/>
<polygon fill="#191970" stroke="#191970" points="395.101,-28.7743 389.4865,-19.7895 388.2726,-30.3146 395.101,-28.7743"/>
</g>
<!-- Node11 -->
<g id="node12" class="node">
<title>Node11</title>
<polygon fill="#ffffff" stroke="#bfbfbf" points="342.5,-56.5 342.5,-75.5 387.5,-75.5 387.5,-56.5 342.5,-56.5"/>
<text text-anchor="middle" x="365" y="-63.5" font-family="Helvetica,sans-Serif" font-size="10.00" fill="#000000">utility</text>
</g>
<!-- Node10&#45;&gt;Node11 -->
<g id="edge15" class="edge">
<title>Node10&#45;&gt;Node11</title>
<path fill="none" stroke="#191970" d="M383.1679,-112.2455C380.2341,-104.7776 376.0953,-94.2427 372.509,-85.1137"/>
<polygon fill="#191970" stroke="#191970" points="375.7024,-83.6704 368.7882,-75.6427 369.1871,-86.23 375.7024,-83.6704"/>
</g>
<!-- Node10&#45;&gt;Node12 -->
<g id="edge18" class="edge">
<title>Node10&#45;&gt;Node12</title>
<path fill="none" stroke="#191970" d="M423.7879,-112.3733C460.0661,-102.8799 515.6236,-88.3415 554.8446,-78.0781"/>
<polygon fill="#191970" stroke="#191970" points="555.904,-81.4188 564.6921,-75.5011 554.1318,-74.6468 555.904,-81.4188"/>
</g>
<!-- Node10&#45;&gt;Node16 -->
<g id="edge23" class="edge">
<title>Node10&#45;&gt;Node16</title>
<path fill="none" stroke="#191970" d="M431.5906,-115.9538C505.8753,-105.8813 655.0723,-85.6512 739.021,-74.2683"/>
<polygon fill="#191970" stroke="#191970" points="739.7356,-77.7036 749.1746,-72.8916 738.795,-70.767 739.7356,-77.7036"/>
</g>
<!-- Node10&#45;&gt;Node20 -->
<g id="edge27" class="edge">
<title>Node10&#45;&gt;Node20</title>
<path fill="none" stroke="#191970" d="M362.2455,-112.3733C338.7151,-103.2226 303.1313,-89.3844 276.9574,-79.2057"/>
<polygon fill="#191970" stroke="#191970" points="278.0201,-75.8636 267.4315,-75.5011 275.4829,-82.3877 278.0201,-75.8636"/>
</g>
<!-- Node12&#45;&gt;Node9 -->
<g id="edge21" class="edge">
<title>Node12&#45;&gt;Node9</title>
<path fill="none" stroke="#191970" d="M564.2121,-56.3733C527.3843,-46.7361 470.6885,-31.8998 431.384,-21.6145"/>
<polygon fill="#191970" stroke="#191970" points="432.1001,-18.1841 421.5397,-19.0384 430.3279,-24.9561 432.1001,-18.1841"/>
</g>
<!-- Node13 -->
<g id="node14" class="node">
<title>Node13</title>
<polygon fill="#ffffff" stroke="#bfbfbf" points="577,-.5 577,-19.5 641,-19.5 641,-.5 577,-.5"/>
<text text-anchor="middle" x="609" y="-7.5" font-family="Helvetica,sans-Serif" font-size="10.00" fill="#000000">algorithm</text>
</g>
<!-- Node12&#45;&gt;Node13 -->
<g id="edge19" class="edge">
<title>Node12&#45;&gt;Node13</title>
<path fill="none" stroke="#191970" d="M602.3935,-56.2455C603.4374,-48.9382 604.9008,-38.6944 606.1851,-29.7046"/>
<polygon fill="#191970" stroke="#191970" points="609.673,-30.0372 607.6225,-19.6427 602.7434,-29.0472 609.673,-30.0372"/>
</g>
<!-- Node14 -->
<g id="node15" class="node">
<title>Node14</title>
<polygon fill="#ffffff" stroke="#bfbfbf" points="659.5,-.5 659.5,-19.5 724.5,-19.5 724.5,-.5 659.5,-.5"/>
<text text-anchor="middle" x="692" y="-7.5" font-family="Helvetica,sans-Serif" font-size="10.00" fill="#000000">stdexcept</text>
</g>
<!-- Node12&#45;&gt;Node14 -->
<g id="edge20" class="edge">
<title>Node12&#45;&gt;Node14</title>
<path fill="none" stroke="#191970" d="M616.851,-56.2455C630.8132,-47.6534 651.3728,-35.0014 667.4596,-25.1018"/>
<polygon fill="#191970" stroke="#191970" points="669.6484,-27.8645 676.3307,-19.6427 665.9797,-21.9029 669.6484,-27.8645"/>
</g>
<!-- Node15 -->
<g id="node16" class="node">
<title>Node15</title>
<polygon fill="#ffffff" stroke="#bfbfbf" points="439.5,-.5 439.5,-19.5 558.5,-19.5 558.5,-.5 439.5,-.5"/>
<text text-anchor="middle" x="499" y="-7.5" font-family="Helvetica,sans-Serif" font-size="10.00" fill="#000000">boost/filesystem.hpp</text>
</g>
<!-- Node12&#45;&gt;Node15 -->
<g id="edge22" class="edge">
<title>Node12&#45;&gt;Node15</title>
<path fill="none" stroke="#191970" d="M583.233,-56.2455C567.2905,-47.4928 543.6741,-34.527 525.5011,-24.5496"/>
<polygon fill="#191970" stroke="#191970" points="527.0137,-21.3873 516.5634,-19.6427 523.6448,-27.5233 527.0137,-21.3873"/>
</g>
<!-- Node17 -->
<g id="node18" class="node">
<title>Node17</title>
<polygon fill="#ffffff" stroke="#bfbfbf" points="875.5,-.5 875.5,-19.5 982.5,-19.5 982.5,-.5 875.5,-.5"/>
<text text-anchor="middle" x="929" y="-7.5" font-family="Helvetica,sans-Serif" font-size="10.00" fill="#000000">boost/log/core.hpp</text>
</g>
<!-- Node16&#45;&gt;Node17 -->
<g id="edge24" class="edge">
<title>Node16&#45;&gt;Node17</title>
<path fill="none" stroke="#191970" d="M822.1759,-56.3733C842.9766,-47.3435 874.2917,-33.7494 897.6458,-23.6111"/>
<polygon fill="#191970" stroke="#191970" points="899.3343,-26.6938 907.1135,-19.5011 896.5468,-20.2727 899.3343,-26.6938"/>
</g>
<!-- Node18 -->
<g id="node19" class="node">
<title>Node18</title>
<polygon fill="#ffffff" stroke="#bfbfbf" points="1001,-.5 1001,-19.5 1145,-19.5 1145,-.5 1001,-.5"/>
<text text-anchor="middle" x="1073" y="-7.5" font-family="Helvetica,sans-Serif" font-size="10.00" fill="#000000">boost/log/expressions.hpp</text>
</g>
<!-- Node16&#45;&gt;Node18 -->
<g id="edge25" class="edge">
<title>Node16&#45;&gt;Node18</title>
<path fill="none" stroke="#191970" d="M846.6202,-56.4369C893.6365,-46.7925 966.2629,-31.8948 1016.5193,-21.5858"/>
<polygon fill="#191970" stroke="#191970" points="1017.4794,-24.9618 1026.5721,-19.5237 1016.0727,-18.1046 1017.4794,-24.9618"/>
</g>
<!-- Node19 -->
<g id="node20" class="node">
<title>Node19</title>
<polygon fill="#ffffff" stroke="#bfbfbf" points="743,-.5 743,-19.5 857,-19.5 857,-.5 743,-.5"/>
<text text-anchor="middle" x="800" y="-7.5" font-family="Helvetica,sans-Serif" font-size="10.00" fill="#000000">boost/log/trivial.hpp</text>
</g>
<!-- Node16&#45;&gt;Node19 -->
<g id="edge26" class="edge">
<title>Node16&#45;&gt;Node19</title>
<path fill="none" stroke="#191970" d="M800,-56.2455C800,-48.9382 800,-38.6944 800,-29.7046"/>
<polygon fill="#191970" stroke="#191970" points="803.5001,-29.6426 800,-19.6427 796.5001,-29.6427 803.5001,-29.6426"/>
</g>
<!-- Node20&#45;&gt;Node1 -->
<g id="edge30" class="edge">
<title>Node20&#45;&gt;Node1</title>
<path fill="none" stroke="#191970" d="M210.5097,-56.3733C175.5438,-46.013 120.2989,-29.6441 85.6585,-19.3803"/>
<polygon fill="#191970" stroke="#191970" points="86.6242,-16.0161 76.0419,-16.5309 84.6355,-22.7277 86.6242,-16.0161"/>
</g>
<!-- Node20&#45;&gt;Node6 -->
<g id="edge29" class="edge">
<title>Node20&#45;&gt;Node6</title>
<path fill="none" stroke="#191970" d="M253.7996,-56.2455C262.8678,-48.0549 276.0206,-36.1749 286.7245,-26.5069"/>
<polygon fill="#191970" stroke="#191970" points="289.2491,-28.9429 294.3242,-19.6427 284.5571,-23.7482 289.2491,-28.9429"/>
</g>
<!-- Node20&#45;&gt;Node7 -->
<g id="edge31" class="edge">
<title>Node20&#45;&gt;Node7</title>
<path fill="none" stroke="#191970" d="M224.1878,-56.2455C207.1527,-47.4125 181.8425,-34.2887 162.5319,-24.2758"/>
<polygon fill="#191970" stroke="#191970" points="164.0853,-21.1388 153.5966,-19.6427 160.863,-27.353 164.0853,-21.1388"/>
</g>
<!-- Node20&#45;&gt;Node9 -->
<g id="edge33" class="edge">
<title>Node20&#45;&gt;Node9</title>
<path fill="none" stroke="#191970" d="M267.7545,-56.3733C291.2849,-47.2226 326.8687,-33.3844 353.0426,-23.2057"/>
<polygon fill="#191970" stroke="#191970" points="354.5171,-26.3877 362.5685,-19.5011 351.9799,-19.8636 354.5171,-26.3877"/>
</g>
<!-- Node20&#45;&gt;Node15 -->
<g id="edge28" class="edge">
<title>Node20&#45;&gt;Node15</title>
<path fill="none" stroke="#191970" d="M286.1374,-56.5637C329.9466,-46.9804 397.8945,-32.1168 445.1958,-21.7697"/>
<polygon fill="#191970" stroke="#191970" points="446.2358,-25.125 455.2568,-19.5688 444.7398,-18.2867 446.2358,-25.125"/>
</g>
<!-- Node21 -->
<g id="node22" class="node">
<title>Node21</title>
<polygon fill="#ffffff" stroke="#bfbfbf" points="186,-.5 186,-19.5 258,-19.5 258,-.5 186,-.5"/>
<text text-anchor="middle" x="222" y="-7.5" font-family="Helvetica,sans-Serif" font-size="10.00" fill="#000000">netinet/in.h</text>
</g>
<!-- Node20&#45;&gt;Node21 -->
<g id="edge32" class="edge">
<title>Node20&#45;&gt;Node21</title>
<path fill="none" stroke="#191970" d="M239.3421,-56.2455C236.5416,-48.7776 232.591,-38.2427 229.1676,-29.1137"/>
<polygon fill="#191970" stroke="#191970" points="232.4045,-27.777 225.616,-19.6427 225.8501,-30.2349 232.4045,-27.777"/>
</g>
</g>
</svg>
        <g id="navigator" transform="translate(0 0)" fill="#404254">
                <rect fill="#f2f5e9" fill-opacity="0.5" stroke="#606060" stroke-width=".5" x="0" y="0" width="60" height="60"/>
                <use id="zoomplus" xlink:href="#zoomPlus" x="17" y="9" onmousedown="handleZoom(evt,'in')"/>
                <use id="zoomminus" xlink:href="#zoomMin" x="42" y="9" onmousedown="handleZoom(evt,'out')"/>
                <use id="reset" xlink:href="#resetDef" x="30" y="36" onmousedown="handleReset()"/>
                <g id="arrowUp" xlink:href="#dirArrow" transform="translate(30 24)" onmousedown="handlePan(0,-1)">
                  <use xlink:href="#rim" fill="#404040">
                        <set attributeName="fill" to="#808080" begin="arrowUp.mouseover" end="arrowUp.mouseout"/>
                  </use>
                  <path fill="none" stroke="white" stroke-width="1.5" d="M0,-3.0v7 M-2.5,-0.5L0,-3.0L2.5,-0.5"/>
                </g>
                <g id="arrowRight" xlink:href="#dirArrow" transform="rotate(90) translate(36 -43)" onmousedown="handlePan(1,0)">
                  <use xlink:href="#rim" fill="#404040">
                        <set attributeName="fill" to="#808080" begin="arrowRight.mouseover" end="arrowRight.mouseout"/>
                  </use>
                  <path fill="none" stroke="white" stroke-width="1.5" d="M0,-3.0v7 M-2.5,-0.5L0,-3.0L2.5,-0.5"/>
                </g>
                <g id="arrowDown" xlink:href="#dirArrow" transform="rotate(180) translate(-30 -48)" onmousedown="handlePan(0,1)">
                  <use xlink:href="#rim" fill="#404040">
                        <set attributeName="fill" to="#808080" begin="arrowDown.mouseover" end="arrowDown.mouseout"/>
                  </use>
                  <path fill="none" stroke="white" stroke-width="1.5" d="M0,-3.0v7 M-2.5,-0.5L0,-3.0L2.5,-0.5"/>
                </g>
                <g id="arrowLeft" xlink:href="#dirArrow" transform="rotate(270) translate(-36 17)" onmousedown="handlePan(-1,0)">
                  <use xlink:href="#rim" fill="#404040">
                        <set attributeName="fill" to="#808080" begin="arrowLeft.mouseover" end="arrowLeft.mouseout"/>
                  </use>
                  <path fill="none" stroke="white" stroke-width="1.5" d="M0,-3.0v7 M-2.5,-0.5L0,-3.0L2.5,-0.5"/>
                </g>
        </g>
        <svg viewBox="0 0 15 15" width="100%" height="30px" preserveAspectRatio="xMaxYMin meet">
         <g id="arrow_out" transform="scale(0.3 0.3)">
          <a xlink:href="results_8h__incl_org.svg" target="_base">
           <rect id="button" ry="5" rx="5" y="6" x="6" height="38" width="38"
                fill="#f2f5e9" fill-opacity="0.5" stroke="#606060" stroke-width="1.0"/>
           <path id="arrow"
             d="M 11.500037,31.436501 C 11.940474,20.09759 22.043105,11.32322 32.158766,21.979434 L 37.068811,17.246167 C 37.068811,17.246167 37.088388,32 37.088388,32 L 22.160133,31.978069 C 22.160133,31.978069 26.997745,27.140456 26.997745,27.140456 C 18.528582,18.264221 13.291696,25.230495 11.500037,31.436501 z"
             style="fill:#404040;"/>
          </a>
         </g>
        </svg>
</svg>
