<?xml version="1.0" encoding="UTF-8" standalone="no"?>
<!DOCTYPE svg PUBLIC "-//W3C//DTD SVG 1.1//EN"
 "http://www.w3.org/Graphics/SVG/1.1/DTD/svg11.dtd">
<!-- Generated by graphviz version 2.40.1 (20161225.0304)
 -->
<!-- Title: include/libaktualizr/results.h Pages: 1 -->
<svg width="2933pt" height="396pt"
 viewBox="0.00 0.00 2933.00 396.00" xmlns="http://www.w3.org/2000/svg" xmlns:xlink="http://www.w3.org/1999/xlink">
<g id="graph0" class="graph" transform="scale(1 1) rotate(0) translate(4 392)">
<title>include/libaktualizr/results.h</title>
<polygon fill="#ffffff" stroke="transparent" points="-4,4 -4,-392 2929,-392 2929,4 -4,4"/>
<!-- Node22 -->
<g id="node1" class="node">
<title>Node22</title>
<polygon fill="#bfbfbf" stroke="#000000" points="1484,-357.5 1484,-387.5 1594,-387.5 1594,-357.5 1484,-357.5"/>
<text text-anchor="start" x="1492" y="-375.5" font-family="Helvetica,sans-Serif" font-size="10.00" fill="#000000">include/libaktualizr</text>
<text text-anchor="middle" x="1539" y="-364.5" font-family="Helvetica,sans-Serif" font-size="10.00" fill="#000000">/results.h</text>
</g>
<!-- Node23 -->
<g id="node2" class="node">
<title>Node23</title>
<g id="a_node2"><a xlink:href="events_8h.html" target="_top" xlink:title="include/libaktualizr\l/events.h">
<polygon fill="#ffffff" stroke="#000000" points="1813,-290.5 1813,-320.5 1923,-320.5 1923,-290.5 1813,-290.5"/>
<text text-anchor="start" x="1821" y="-308.5" font-family="Helvetica,sans-Serif" font-size="10.00" fill="#000000">include/libaktualizr</text>
<text text-anchor="middle" x="1868" y="-297.5" font-family="Helvetica,sans-Serif" font-size="10.00" fill="#000000">/events.h</text>
</a>
</g>
</g>
<!-- Node22&#45;&gt;Node23 -->
<g id="edge1" class="edge">
<title>Node22&#45;&gt;Node23</title>
<path fill="none" stroke="#191970" d="M1603.9683,-359.2694C1664.9441,-346.8518 1755.1563,-328.4803 1812.7531,-316.7509"/>
<polygon fill="#191970" stroke="#191970" points="1603.1676,-355.8605 1594.0672,-361.2857 1604.5645,-362.7197 1603.1676,-355.8605"/>
</g>
<!-- Node50 -->
<g id="node29" class="node">
<title>Node50</title>
<g id="a_node29"><a xlink:href="sotauptaneclient_8h_source.html" target="_top" xlink:title="src/libaktualizr/primary\l/sotauptaneclient.h">
<polygon fill="#ffffff" stroke="#000000" points="1052,-223.5 1052,-253.5 1182,-253.5 1182,-223.5 1052,-223.5"/>
<text text-anchor="start" x="1060" y="-241.5" font-family="Helvetica,sans-Serif" font-size="10.00" fill="#000000">src/libaktualizr/primary</text>
<text text-anchor="middle" x="1117" y="-230.5" font-family="Helvetica,sans-Serif" font-size="10.00" fill="#000000">/sotauptaneclient.h</text>
</a>
</g>
</g>
<!-- Node22&#45;&gt;Node50 -->
<g id="edge64" class="edge">
<title>Node22&#45;&gt;Node50</title>
<path fill="none" stroke="#191970" d="M1481.7731,-354.3284C1397.7317,-327.6423 1242.4689,-278.3408 1164.4145,-253.5558"/>
<polygon fill="#191970" stroke="#191970" points="1480.8212,-357.6983 1491.4115,-357.389 1482.9398,-351.0266 1480.8212,-357.6983"/>
</g>
<!-- Node24 -->
<g id="node3" class="node">
<title>Node24</title>
<g id="a_node3"><a xlink:href="libaktualizr-c_8cc_source.html" target="_top" xlink:title="src/libaktualizr&#45;c\l/libaktualizr&#45;c.cc">
<polygon fill="#ffffff" stroke="#000000" points="2495.5,-223.5 2495.5,-253.5 2592.5,-253.5 2592.5,-223.5 2495.5,-223.5"/>
<text text-anchor="start" x="2503.5" y="-241.5" font-family="Helvetica,sans-Serif" font-size="10.00" fill="#000000">src/libaktualizr&#45;c</text>
<text text-anchor="middle" x="2544" y="-230.5" font-family="Helvetica,sans-Serif" font-size="10.00" fill="#000000">/libaktualizr&#45;c.cc</text>
</a>
</g>
</g>
<!-- Node23&#45;&gt;Node24 -->
<g id="edge2" class="edge">
<title>Node23&#45;&gt;Node24</title>
<path fill="none" stroke="#191970" d="M1933.48,-303.3813C2046.0507,-298.9863 2283.242,-286.4273 2481,-254 2485.6684,-253.2345 2490.5007,-252.303 2495.3175,-251.2805"/>
<polygon fill="#191970" stroke="#191970" points="1933.1657,-299.8906 1923.3065,-303.7694 1933.4326,-306.8856 1933.1657,-299.8906"/>
</g>
<!-- Node25 -->
<g id="node4" class="node">
<title>Node25</title>
<g id="a_node4"><a xlink:href="aktualizr_8h_source.html" target="_top" xlink:title="src/libaktualizr/primary\l/aktualizr.h">
<polygon fill="#ffffff" stroke="#000000" points="1803,-151 1803,-181 1933,-181 1933,-151 1803,-151"/>
<text text-anchor="start" x="1811" y="-169" font-family="Helvetica,sans-Serif" font-size="10.00" fill="#000000">src/libaktualizr/primary</text>
<text text-anchor="middle" x="1868" y="-158" font-family="Helvetica,sans-Serif" font-size="10.00" fill="#000000">/aktualizr.h</text>
</a>
</g>
</g>
<!-- Node23&#45;&gt;Node25 -->
<g id="edge3" class="edge">
<title>Node23&#45;&gt;Node25</title>
<path fill="none" stroke="#191970" d="M1868,-280.1668C1868,-251.2706 1868,-204.9582 1868,-181.1758"/>
<polygon fill="#191970" stroke="#191970" points="1864.5001,-280.3055 1868,-290.3055 1871.5001,-280.3055 1864.5001,-280.3055"/>
</g>
<!-- Node30 -->
<g id="node9" class="node">
<title>Node30</title>
<g id="a_node9"><a xlink:href="aktualizr_8cc_source.html" target="_top" xlink:title="src/libaktualizr/primary\l/aktualizr.cc">
<polygon fill="#ffffff" stroke="#000000" points="2669,-78.5 2669,-108.5 2799,-108.5 2799,-78.5 2669,-78.5"/>
<text text-anchor="start" x="2677" y="-96.5" font-family="Helvetica,sans-Serif" font-size="10.00" fill="#000000">src/libaktualizr/primary</text>
<text text-anchor="middle" x="2734" y="-85.5" font-family="Helvetica,sans-Serif" font-size="10.00" fill="#000000">/aktualizr.cc</text>
</a>
</g>
</g>
<!-- Node23&#45;&gt;Node30 -->
<g id="edge61" class="edge">
<title>Node23&#45;&gt;Node30</title>
<path fill="none" stroke="#191970" d="M1933.3831,-303.9783C2063.688,-300.2407 2351.1116,-288.2707 2443,-254 2465.0744,-245.7671 2465.9509,-235.3732 2486,-223 2560.6083,-176.9556 2653.2968,-131.462 2701.4791,-108.6328"/>
<polygon fill="#191970" stroke="#191970" points="1933.0477,-300.4862 1923.1493,-304.2641 1933.2432,-307.4835 1933.0477,-300.4862"/>
</g>
<!-- Node34 -->
<g id="node13" class="node">
<title>Node34</title>
<g id="a_node13"><a xlink:href="aktualizr__test_8cc_source.html" target="_top" xlink:title="src/libaktualizr/primary\l/aktualizr_test.cc">
<polygon fill="#ffffff" stroke="#000000" points="2509,-6 2509,-36 2639,-36 2639,-6 2509,-6"/>
<text text-anchor="start" x="2517" y="-24" font-family="Helvetica,sans-Serif" font-size="10.00" fill="#000000">src/libaktualizr/primary</text>
<text text-anchor="middle" x="2574" y="-13" font-family="Helvetica,sans-Serif" font-size="10.00" fill="#000000">/aktualizr_test.cc</text>
</a>
</g>
</g>
<!-- Node23&#45;&gt;Node34 -->
<g id="edge62" class="edge">
<title>Node23&#45;&gt;Node34</title>
<path fill="none" stroke="#191970" d="M1925.6683,-287.3304C2025.3953,-255.2817 2235.8264,-184.8838 2407,-109 2458.2317,-86.2882 2515.5335,-54.6539 2547.9374,-36.1506"/>
<polygon fill="#191970" stroke="#191970" points="1924.5343,-284.0184 1916.0795,-290.4032 1926.6706,-290.6844 1924.5343,-284.0184"/>
</g>
<!-- Node42 -->
<g id="node21" class="node">
<title>Node42</title>
<g id="a_node21"><a xlink:href="uptane__delegation__test_8cc_source.html" target="_top" xlink:title="src/libaktualizr/uptane\l/uptane_delegation_test.cc">
<polygon fill="#ffffff" stroke="#000000" points="1209,-6 1209,-36 1357,-36 1357,-6 1209,-6"/>
<text text-anchor="start" x="1217" y="-24" font-family="Helvetica,sans-Serif" font-size="10.00" fill="#000000">src/libaktualizr/uptane</text>
<text text-anchor="middle" x="1283" y="-13" font-family="Helvetica,sans-Serif" font-size="10.00" fill="#000000">/uptane_delegation_test.cc</text>
</a>
</g>
</g>
<!-- Node23&#45;&gt;Node42 -->
<g id="edge63" class="edge">
<title>Node23&#45;&gt;Node42</title>
<path fill="none" stroke="#191970" d="M1844.2829,-283.6703C1793.1956,-237.914 1667.2122,-131.7559 1542,-78 1468.6337,-46.5025 1443.8331,-59.7966 1366,-42 1357.8857,-40.1447 1349.3497,-38.0961 1340.9648,-36.0277"/>
<polygon fill="#191970" stroke="#191970" points="1842.0584,-286.3773 1851.8275,-290.478 1846.7479,-281.1802 1842.0584,-286.3773"/>
</g>
<!-- Node23&#45;&gt;Node50 -->
<g id="edge43" class="edge">
<title>Node23&#45;&gt;Node50</title>
<path fill="none" stroke="#191970" d="M1802.4584,-299.6528C1660.0836,-286.9509 1323.9701,-256.9647 1182.046,-244.303"/>
<polygon fill="#191970" stroke="#191970" points="1802.5057,-303.1708 1812.7772,-300.5733 1803.1278,-296.1985 1802.5057,-303.1708"/>
</g>
<!-- Node26 -->
<g id="node5" class="node">
<title>Node26</title>
<g id="a_node5"><a xlink:href="aktualizr__primary_2main_8cc_source.html" target="_top" xlink:title="src/aktualizr_primary\l/main.cc">
<polygon fill="#ffffff" stroke="#000000" points="2657,-6 2657,-36 2777,-36 2777,-6 2657,-6"/>
<text text-anchor="start" x="2665" y="-24" font-family="Helvetica,sans-Serif" font-size="10.00" fill="#000000">src/aktualizr_primary</text>
<text text-anchor="middle" x="2717" y="-13" font-family="Helvetica,sans-Serif" font-size="10.00" fill="#000000">/main.cc</text>
</a>
</g>
</g>
<!-- Node25&#45;&gt;Node26 -->
<g id="edge4" class="edge">
<title>Node25&#45;&gt;Node26</title>
<path fill="none" stroke="#191970" d="M1943.2427,-163.1266C2121.8192,-155.9067 2560.8794,-135.6601 2622,-109 2631.5822,-104.8204 2677.3901,-60.2597 2701.7249,-36.203"/>
<polygon fill="#191970" stroke="#191970" points="1942.9934,-159.6337 1933.1419,-163.5323 1943.2744,-166.628 1942.9934,-159.6337"/>
</g>
<!-- Node27 -->
<g id="node6" class="node">
<title>Node27</title>
<g id="a_node6"><a xlink:href="secondary_8h_source.html" target="_top" xlink:title="src/aktualizr_primary\l/secondary.h">
<polygon fill="#ffffff" stroke="#000000" points="2205,-78.5 2205,-108.5 2325,-108.5 2325,-78.5 2205,-78.5"/>
<text text-anchor="start" x="2213" y="-96.5" font-family="Helvetica,sans-Serif" font-size="10.00" fill="#000000">src/aktualizr_primary</text>
<text text-anchor="middle" x="2265" y="-85.5" font-family="Helvetica,sans-Serif" font-size="10.00" fill="#000000">/secondary.h</text>
</a>
</g>
</g>
<!-- Node25&#45;&gt;Node27 -->
<g id="edge5" class="edge">
<title>Node25&#45;&gt;Node27</title>
<path fill="none" stroke="#191970" d="M1943.0805,-152.2888C2018.9371,-138.4359 2134.6586,-117.3029 2204.7333,-104.5059"/>
<polygon fill="#191970" stroke="#191970" points="1942.3204,-148.8697 1933.1119,-154.1093 1943.578,-155.7558 1942.3204,-148.8697"/>
</g>
<!-- Node28 -->
<g id="node7" class="node">
<title>Node28</title>
<g id="a_node7"><a xlink:href="primary__secondary__registration__test_8cc_source.html" target="_top" xlink:title="src/aktualizr_primary\l/primary_secondary_registration\l_test.cc">
<polygon fill="#ffffff" stroke="#000000" points="2177.5,-.5 2177.5,-41.5 2352.5,-41.5 2352.5,-.5 2177.5,-.5"/>
<text text-anchor="start" x="2185.5" y="-29.5" font-family="Helvetica,sans-Serif" font-size="10.00" fill="#000000">src/aktualizr_primary</text>
<text text-anchor="start" x="2185.5" y="-18.5" font-family="Helvetica,sans-Serif" font-size="10.00" fill="#000000">/primary_secondary_registration</text>
<text text-anchor="middle" x="2265" y="-7.5" font-family="Helvetica,sans-Serif" font-size="10.00" fill="#000000">_test.cc</text>
</a>
</g>
</g>
<!-- Node25&#45;&gt;Node28 -->
<g id="edge9" class="edge">
<title>Node25&#45;&gt;Node28</title>
<path fill="none" stroke="#191970" d="M1918.9983,-147.3734C1993.4744,-120.1718 2131.513,-69.7547 2208.8185,-41.5197"/>
<polygon fill="#191970" stroke="#191970" points="1917.5548,-144.1744 1909.3625,-150.8928 1919.9563,-150.7496 1917.5548,-144.1744"/>
</g>
<!-- Node25&#45;&gt;Node30 -->
<g id="edge10" class="edge">
<title>Node25&#45;&gt;Node30</title>
<path fill="none" stroke="#191970" d="M1943.2751,-163.5909C2083.7246,-158.422 2395.038,-143.7858 2655,-109 2659.4331,-108.4068 2663.9922,-107.7197 2668.5767,-106.9715"/>
<polygon fill="#191970" stroke="#191970" points="1942.922,-160.1013 1933.0554,-163.9614 1943.1756,-167.0967 1942.922,-160.1013"/>
</g>
<!-- Node31 -->
<g id="node10" class="node">
<title>Node31</title>
<g id="a_node10"><a xlink:href="aktualizr__fullostree__test_8cc_source.html" target="_top" xlink:title="src/libaktualizr/primary\l/aktualizr_fullostree_test.cc">
<polygon fill="#ffffff" stroke="#000000" points="891,-6 891,-36 1043,-36 1043,-6 891,-6"/>
<text text-anchor="start" x="899" y="-24" font-family="Helvetica,sans-Serif" font-size="10.00" fill="#000000">src/libaktualizr/primary</text>
<text text-anchor="middle" x="967" y="-13" font-family="Helvetica,sans-Serif" font-size="10.00" fill="#000000">/aktualizr_fullostree_test.cc</text>
</a>
</g>
</g>
<!-- Node25&#45;&gt;Node31 -->
<g id="edge11" class="edge">
<title>Node25&#45;&gt;Node31</title>
<path fill="none" stroke="#191970" d="M1792.6689,-162.1235C1672.2002,-155.1438 1442.0185,-138.3841 1366,-109 1344.0248,-100.5057 1344.8935,-86.7027 1323,-78 1210.0908,-33.1183 1171.3812,-64.6053 1052,-42 1043.0389,-40.3032 1033.6091,-38.2482 1024.4225,-36.0961"/>
<polygon fill="#191970" stroke="#191970" points="1792.7329,-165.6328 1802.9162,-162.7089 1793.1322,-158.6442 1792.7329,-165.6328"/>
</g>
<!-- Node32 -->
<g id="node11" class="node">
<title>Node32</title>
<g id="a_node11"><a xlink:href="aktualizr__helpers_8h_source.html" target="_top" xlink:title="src/libaktualizr/primary\l/aktualizr_helpers.h">
<polygon fill="#ffffff" stroke="#000000" points="2483,-78.5 2483,-108.5 2613,-108.5 2613,-78.5 2483,-78.5"/>
<text text-anchor="start" x="2491" y="-96.5" font-family="Helvetica,sans-Serif" font-size="10.00" fill="#000000">src/libaktualizr/primary</text>
<text text-anchor="middle" x="2548" y="-85.5" font-family="Helvetica,sans-Serif" font-size="10.00" fill="#000000">/aktualizr_helpers.h</text>
</a>
</g>
</g>
<!-- Node25&#45;&gt;Node32 -->
<g id="edge12" class="edge">
<title>Node25&#45;&gt;Node32</title>
<path fill="none" stroke="#191970" d="M1943.406,-157.9604C2077.8006,-143.6315 2356.4786,-113.9196 2482.9961,-100.4306"/>
<polygon fill="#191970" stroke="#191970" points="1942.7738,-154.5079 1933.2013,-159.0484 1943.516,-161.4684 1942.7738,-154.5079"/>
</g>
<!-- Node25&#45;&gt;Node34 -->
<g id="edge16" class="edge">
<title>Node25&#45;&gt;Node34</title>
<path fill="none" stroke="#191970" d="M1943.1677,-161.3683C2056.3191,-153.6291 2264.5636,-136.1857 2334,-109 2355.9382,-100.4108 2355.818,-88.3143 2377,-78 2380.3561,-76.3658 2463.9024,-52.3984 2521.1048,-36.0683"/>
<polygon fill="#191970" stroke="#191970" points="1942.9302,-157.8763 1933.1889,-162.0426 1943.4021,-164.8604 1942.9302,-157.8763"/>
</g>
<!-- Node35 -->
<g id="node14" class="node">
<title>Node35</title>
<g id="a_node14"><a xlink:href="custom__url__test_8cc_source.html" target="_top" xlink:title="src/libaktualizr/primary\l/custom_url_test.cc">
<polygon fill="#ffffff" stroke="#000000" points="1061,-6 1061,-36 1191,-36 1191,-6 1061,-6"/>
<text text-anchor="start" x="1069" y="-24" font-family="Helvetica,sans-Serif" font-size="10.00" fill="#000000">src/libaktualizr/primary</text>
<text text-anchor="middle" x="1126" y="-13" font-family="Helvetica,sans-Serif" font-size="10.00" fill="#000000">/custom_url_test.cc</text>
</a>
</g>
</g>
<!-- Node25&#45;&gt;Node35 -->
<g id="edge17" class="edge">
<title>Node25&#45;&gt;Node35</title>
<path fill="none" stroke="#191970" d="M1792.9345,-153.9294C1740.5922,-144.4403 1669.562,-129.4055 1609,-109 1577.9068,-98.5236 1573.6297,-86.7237 1542,-78 1394.6615,-37.3631 1350.0692,-70.9695 1200,-42 1191.7392,-40.4053 1183.0626,-38.3237 1174.6752,-36.0914"/>
<polygon fill="#191970" stroke="#191970" points="1792.3543,-157.3811 1802.8141,-155.695 1793.5858,-150.4903 1792.3543,-157.3811"/>
</g>
<!-- Node36 -->
<g id="node15" class="node">
<title>Node36</title>
<g id="a_node15"><a xlink:href="download__nonostree__test_8cc_source.html" target="_top" xlink:title="src/libaktualizr/primary\l/download_nonostree_test.cc">
<polygon fill="#ffffff" stroke="#000000" points="1375,-6 1375,-36 1533,-36 1533,-6 1375,-6"/>
<text text-anchor="start" x="1383" y="-24" font-family="Helvetica,sans-Serif" font-size="10.00" fill="#000000">src/libaktualizr/primary</text>
<text text-anchor="middle" x="1454" y="-13" font-family="Helvetica,sans-Serif" font-size="10.00" fill="#000000">/download_nonostree_test.cc</text>
</a>
</g>
</g>
<!-- Node25&#45;&gt;Node36 -->
<g id="edge18" class="edge">
<title>Node25&#45;&gt;Node36</title>
<path fill="none" stroke="#191970" d="M1850.6479,-142.7181C1832.7736,-119.4094 1805.5358,-85.899 1791,-78 1692.752,-24.6104 1651.8278,-62.999 1542,-42 1532.8979,-40.2597 1523.3171,-38.2061 1513.9617,-36.0761"/>
<polygon fill="#191970" stroke="#191970" points="1847.9333,-144.9306 1856.7686,-150.7776 1853.5079,-140.697 1847.9333,-144.9306"/>
</g>
<!-- Node37 -->
<g id="node16" class="node">
<title>Node37</title>
<g id="a_node16"><a xlink:href="empty__targets__test_8cc_source.html" target="_top" xlink:title="src/libaktualizr/primary\l/empty_targets_test.cc">
<polygon fill="#ffffff" stroke="#000000" points="1551,-6 1551,-36 1681,-36 1681,-6 1551,-6"/>
<text text-anchor="start" x="1559" y="-24" font-family="Helvetica,sans-Serif" font-size="10.00" fill="#000000">src/libaktualizr/primary</text>
<text text-anchor="middle" x="1616" y="-13" font-family="Helvetica,sans-Serif" font-size="10.00" fill="#000000">/empty_targets_test.cc</text>
</a>
</g>
</g>
<!-- Node25&#45;&gt;Node37 -->
<g id="edge19" class="edge">
<title>Node25&#45;&gt;Node37</title>
<path fill="none" stroke="#191970" d="M1862.0006,-141.1767C1855.9258,-121.2755 1844.5686,-94.0995 1825,-78 1777.0466,-38.5478 1749.8708,-58.4768 1690,-42 1683.0471,-40.0865 1675.7348,-38.0459 1668.5241,-36.0169"/>
<polygon fill="#191970" stroke="#191970" points="1858.6365,-142.1431 1864.7113,-150.8234 1865.3755,-140.2494 1858.6365,-142.1431"/>
</g>
<!-- Node38 -->
<g id="node17" class="node">
<title>Node38</title>
<g id="a_node17"><a xlink:href="metadata__expiration__test_8cc_source.html" target="_top" xlink:title="src/libaktualizr/primary\l/metadata_expiration_test.cc">
<polygon fill="#ffffff" stroke="#000000" points="1699.5,-6 1699.5,-36 1858.5,-36 1858.5,-6 1699.5,-6"/>
<text text-anchor="start" x="1707.5" y="-24" font-family="Helvetica,sans-Serif" font-size="10.00" fill="#000000">src/libaktualizr/primary</text>
<text text-anchor="middle" x="1779" y="-13" font-family="Helvetica,sans-Serif" font-size="10.00" fill="#000000">/metadata_expiration_test.cc</text>
</a>
</g>
</g>
<!-- Node25&#45;&gt;Node38 -->
<g id="edge20" class="edge">
<title>Node25&#45;&gt;Node38</title>
<path fill="none" stroke="#191970" d="M1872.247,-140.8051C1874.0861,-122.245 1873.7866,-97.0296 1863,-78 1852.3973,-59.2949 1832.8229,-45.4727 1815.2359,-36.1276"/>
<polygon fill="#191970" stroke="#191970" points="1868.7568,-140.5078 1870.9801,-150.8668 1875.702,-141.3824 1868.7568,-140.5078"/>
</g>
<!-- Node39 -->
<g id="node18" class="node">
<title>Node39</title>
<g id="a_node18"><a xlink:href="metadata__fetch__test_8cc_source.html" target="_top" xlink:title="src/libaktualizr/primary\l/metadata_fetch_test.cc">
<polygon fill="#ffffff" stroke="#000000" points="1877,-6 1877,-36 2011,-36 2011,-6 1877,-6"/>
<text text-anchor="start" x="1885" y="-24" font-family="Helvetica,sans-Serif" font-size="10.00" fill="#000000">src/libaktualizr/primary</text>
<text text-anchor="middle" x="1944" y="-13" font-family="Helvetica,sans-Serif" font-size="10.00" fill="#000000">/metadata_fetch_test.cc</text>
</a>
</g>
</g>
<!-- Node25&#45;&gt;Node39 -->
<g id="edge21" class="edge">
<title>Node25&#45;&gt;Node39</title>
<path fill="none" stroke="#191970" d="M1882.3943,-142.0028C1888.3207,-131.9037 1895.1531,-119.9708 1901,-109 1914.4357,-83.7898 1928.7556,-53.7696 1937.0129,-36.1096"/>
<polygon fill="#191970" stroke="#191970" points="1879.3393,-140.2928 1877.2606,-150.6817 1885.3642,-143.8566 1879.3393,-140.2928"/>
</g>
<!-- Node40 -->
<g id="node19" class="node">
<title>Node40</title>
<g id="a_node19"><a xlink:href="reregistration__test_8cc_source.html" target="_top" xlink:title="src/libaktualizr/primary\l/reregistration_test.cc">
<polygon fill="#ffffff" stroke="#000000" points="2029,-6 2029,-36 2159,-36 2159,-6 2029,-6"/>
<text text-anchor="start" x="2037" y="-24" font-family="Helvetica,sans-Serif" font-size="10.00" fill="#000000">src/libaktualizr/primary</text>
<text text-anchor="middle" x="2094" y="-13" font-family="Helvetica,sans-Serif" font-size="10.00" fill="#000000">/reregistration_test.cc</text>
</a>
</g>
</g>
<!-- Node25&#45;&gt;Node40 -->
<g id="edge22" class="edge">
<title>Node25&#45;&gt;Node40</title>
<path fill="none" stroke="#191970" d="M1900.463,-145.172C1946.5871,-115.579 2029.9838,-62.0724 2070.5595,-36.0392"/>
<polygon fill="#191970" stroke="#191970" points="1898.2854,-142.4106 1891.7588,-150.7565 1902.0655,-148.3023 1898.2854,-142.4106"/>
</g>
<!-- Node41 -->
<g id="node20" class="node">
<title>Node41</title>
<g id="a_node20"><a xlink:href="target__mismatch__test_8cc_source.html" target="_top" xlink:title="src/libaktualizr/primary\l/target_mismatch_test.cc">
<polygon fill="#ffffff" stroke="#000000" points="733,-6 733,-36 873,-36 873,-6 733,-6"/>
<text text-anchor="start" x="741" y="-24" font-family="Helvetica,sans-Serif" font-size="10.00" fill="#000000">src/libaktualizr/primary</text>
<text text-anchor="middle" x="803" y="-13" font-family="Helvetica,sans-Serif" font-size="10.00" fill="#000000">/target_mismatch_test.cc</text>
</a>
</g>
</g>
<!-- Node25&#45;&gt;Node41 -->
<g id="edge23" class="edge">
<title>Node25&#45;&gt;Node41</title>
<path fill="none" stroke="#191970" d="M1792.3686,-163.4172C1663.1912,-158.1263 1405.9543,-143.5118 1323,-109 1302.8762,-100.6278 1305.1865,-86.2199 1285,-78 1118.4537,-10.1831 1059.0949,-73.2122 882,-42 873.0552,-40.4235 863.6454,-38.3228 854.562,-36.0585"/>
<polygon fill="#191970" stroke="#191970" points="1792.4434,-166.9229 1802.5757,-163.8268 1792.7241,-159.9286 1792.4434,-166.9229"/>
</g>
<!-- Node25&#45;&gt;Node42 -->
<g id="edge24" class="edge">
<title>Node25&#45;&gt;Node42</title>
<path fill="none" stroke="#191970" d="M1792.9771,-152.7583C1751.3301,-143.7219 1699.3408,-129.5974 1656,-109 1634.721,-98.8873 1634.8379,-86.8411 1613,-78 1510.17,-36.369 1474.8077,-63.6343 1366,-42 1357.253,-40.2608 1348.0468,-38.1833 1339.0771,-36.0216"/>
<polygon fill="#191970" stroke="#191970" points="1792.2763,-156.1875 1802.7843,-154.8343 1793.7259,-149.3392 1792.2763,-156.1875"/>
</g>
<!-- Node43 -->
<g id="node22" class="node">
<title>Node43</title>
<g id="a_node22"><a xlink:href="aktualizr__cycle__simple_8cc_source.html" target="_top" xlink:title="tests/aktualizr_cycle\l_simple.cc">
<polygon fill="#ffffff" stroke="#000000" points="1665.5,-78.5 1665.5,-108.5 1782.5,-108.5 1782.5,-78.5 1665.5,-78.5"/>
<text text-anchor="start" x="1673.5" y="-96.5" font-family="Helvetica,sans-Serif" font-size="10.00" fill="#000000">tests/aktualizr_cycle</text>
<text text-anchor="middle" x="1724" y="-85.5" font-family="Helvetica,sans-Serif" font-size="10.00" fill="#000000">_simple.cc</text>
</a>
</g>
</g>
<!-- Node25&#45;&gt;Node43 -->
<g id="edge25" class="edge">
<title>Node25&#45;&gt;Node43</title>
<path fill="none" stroke="#191970" d="M1829.086,-146.4079C1805.3991,-134.4822 1775.6071,-119.4828 1753.7987,-108.5028"/>
<polygon fill="#191970" stroke="#191970" points="1827.6573,-149.6071 1838.1631,-150.978 1830.8052,-143.3548 1827.6573,-149.6071"/>
</g>
<!-- Node44 -->
<g id="node23" class="node">
<title>Node44</title>
<g id="a_node23"><a xlink:href="uptane__test__common_8h_source.html" target="_top" xlink:title="tests/uptane_test_common.h">
<polygon fill="#ffffff" stroke="#000000" points="1375,-84 1375,-103 1533,-103 1533,-84 1375,-84"/>
<text text-anchor="middle" x="1454" y="-91" font-family="Helvetica,sans-Serif" font-size="10.00" fill="#000000">tests/uptane_test_common.h</text>
</a>
</g>
</g>
<!-- Node25&#45;&gt;Node44 -->
<g id="edge26" class="edge">
<title>Node25&#45;&gt;Node44</title>
<path fill="none" stroke="#191970" d="M1792.8439,-152.8386C1710.7846,-138.4683 1581.3763,-115.8062 1508.5261,-103.0487"/>
<polygon fill="#191970" stroke="#191970" points="1792.4032,-156.3146 1802.8571,-154.5921 1793.6107,-149.4195 1792.4032,-156.3146"/>
</g>
<!-- Node27&#45;&gt;Node26 -->
<g id="edge6" class="edge">
<title>Node27&#45;&gt;Node26</title>
<path fill="none" stroke="#191970" d="M2335.327,-87.486C2412.6021,-80.0814 2540.0933,-65.5135 2648,-42 2655.5854,-40.3471 2663.5439,-38.2631 2671.2497,-36.0537"/>
<polygon fill="#191970" stroke="#191970" points="2334.8549,-84.0149 2325.2286,-88.4402 2335.5135,-90.9839 2334.8549,-84.0149"/>
</g>
<!-- Node27&#45;&gt;Node28 -->
<g id="edge7" class="edge">
<title>Node27&#45;&gt;Node28</title>
<path fill="none" stroke="#191970" d="M2265,-68.4016C2265,-59.6173 2265,-49.8652 2265,-41.5015"/>
<polygon fill="#191970" stroke="#191970" points="2261.5001,-68.4779 2265,-78.478 2268.5001,-68.478 2261.5001,-68.4779"/>
</g>
<!-- Node29 -->
<g id="node8" class="node">
<title>Node29</title>
<g id="a_node8"><a xlink:href="secondary_8cc_source.html" target="_top" xlink:title="src/aktualizr_primary\l/secondary.cc">
<polygon fill="#ffffff" stroke="#000000" points="2371,-6 2371,-36 2491,-36 2491,-6 2371,-6"/>
<text text-anchor="start" x="2379" y="-24" font-family="Helvetica,sans-Serif" font-size="10.00" fill="#000000">src/aktualizr_primary</text>
<text text-anchor="middle" x="2431" y="-13" font-family="Helvetica,sans-Serif" font-size="10.00" fill="#000000">/secondary.cc</text>
</a>
</g>
</g>
<!-- Node27&#45;&gt;Node29 -->
<g id="edge8" class="edge">
<title>Node27&#45;&gt;Node29</title>
<path fill="none" stroke="#191970" d="M2308.7756,-74.3811C2336.2515,-62.3811 2371.1747,-47.1285 2396.6488,-36.0028"/>
<polygon fill="#191970" stroke="#191970" points="2307.1586,-71.2681 2299.3953,-78.478 2309.9603,-77.6829 2307.1586,-71.2681"/>
</g>
<!-- Node32&#45;&gt;Node26 -->
<g id="edge13" class="edge">
<title>Node32&#45;&gt;Node26</title>
<path fill="none" stroke="#191970" d="M2592.5667,-74.3811C2620.5392,-62.3811 2656.0935,-47.1285 2682.028,-36.0028"/>
<polygon fill="#191970" stroke="#191970" points="2590.8271,-71.3189 2583.0169,-78.478 2593.5868,-77.7519 2590.8271,-71.3189"/>
</g>
<!-- Node33 -->
<g id="node12" class="node">
<title>Node33</title>
<g id="a_node12"><a xlink:href="aktualizr__helpers_8cc_source.html" target="_top" xlink:title="src/libaktualizr/primary\l/aktualizr_helpers.cc">
<polygon fill="#ffffff" stroke="#000000" points="2795,-6 2795,-36 2925,-36 2925,-6 2795,-6"/>
<text text-anchor="start" x="2803" y="-24" font-family="Helvetica,sans-Serif" font-size="10.00" fill="#000000">src/libaktualizr/primary</text>
<text text-anchor="middle" x="2860" y="-13" font-family="Helvetica,sans-Serif" font-size="10.00" fill="#000000">/aktualizr_helpers.cc</text>
</a>
</g>
</g>
<!-- Node32&#45;&gt;Node33 -->
<g id="edge14" class="edge">
<title>Node32&#45;&gt;Node33</title>
<path fill="none" stroke="#191970" d="M2622.9575,-78.5505C2669.9605,-68.8625 2731.7217,-55.5597 2786,-42 2793.2556,-40.1874 2800.8778,-38.163 2808.3592,-36.1061"/>
<polygon fill="#191970" stroke="#191970" points="2622.2515,-75.1224 2613.1596,-80.5617 2623.6591,-81.9794 2622.2515,-75.1224"/>
</g>
<!-- Node32&#45;&gt;Node34 -->
<g id="edge15" class="edge">
<title>Node32&#45;&gt;Node34</title>
<path fill="none" stroke="#191970" d="M2556.7816,-69.0128C2560.7056,-58.0709 2565.2047,-45.5252 2568.6197,-36.0028"/>
<polygon fill="#191970" stroke="#191970" points="2553.4684,-67.8834 2553.3872,-78.478 2560.0575,-70.2465 2553.4684,-67.8834"/>
</g>
<!-- Node44&#45;&gt;Node28 -->
<g id="edge27" class="edge">
<title>Node44&#45;&gt;Node28</title>
<path fill="none" stroke="#191970" d="M1543.3633,-86.5195C1578.4728,-83.8093 1619.1251,-80.7111 1656,-78 1883.5033,-61.2735 1942.169,-74.2163 2168,-42 2171.0704,-41.562 2174.1886,-41.0818 2177.3326,-40.5674"/>
<polygon fill="#191970" stroke="#191970" points="1542.8376,-83.0496 1533.1371,-87.31 1543.3771,-90.0288 1542.8376,-83.0496"/>
</g>
<!-- Node44&#45;&gt;Node31 -->
<g id="edge28" class="edge">
<title>Node44&#45;&gt;Node31</title>
<path fill="none" stroke="#191970" d="M1389.5998,-82.3447C1380.0235,-80.8084 1370.2621,-79.3106 1361,-78 1224.1015,-58.6291 1188.0508,-66.63 1052,-42 1042.7263,-40.3211 1032.959,-38.2237 1023.4809,-36.009"/>
<polygon fill="#191970" stroke="#191970" points="1389.0511,-85.8014 1399.4835,-83.9532 1390.1756,-78.8923 1389.0511,-85.8014"/>
</g>
<!-- Node44&#45;&gt;Node34 -->
<g id="edge29" class="edge">
<title>Node44&#45;&gt;Node34</title>
<path fill="none" stroke="#191970" d="M1543.328,-85.9896C1578.4329,-83.2099 1619.0912,-80.2026 1656,-78 2030.7854,-55.6343 2129.3177,-101.6574 2500,-42 2508.9657,-40.5571 2518.3896,-38.399 2527.3956,-36.0075"/>
<polygon fill="#191970" stroke="#191970" points="1542.7935,-82.521 1533.1035,-86.8051 1543.3501,-89.4989 1542.7935,-82.521"/>
</g>
<!-- Node44&#45;&gt;Node35 -->
<g id="edge30" class="edge">
<title>Node44&#45;&gt;Node35</title>
<path fill="none" stroke="#191970" d="M1390.7148,-82.0609C1339.1461,-72.406 1264.5601,-57.6812 1200,-42 1192.603,-40.2033 1184.8314,-38.1656 1177.2186,-36.0833"/>
<polygon fill="#191970" stroke="#191970" points="1390.24,-85.5326 1400.7118,-83.9231 1391.5219,-78.651 1390.24,-85.5326"/>
</g>
<!-- Node44&#45;&gt;Node36 -->
<g id="edge31" class="edge">
<title>Node44&#45;&gt;Node36</title>
<path fill="none" stroke="#191970" d="M1454,-73.5177C1454,-61.7164 1454,-47.013 1454,-36.168"/>
<polygon fill="#191970" stroke="#191970" points="1450.5001,-73.7223 1454,-83.7223 1457.5001,-73.7224 1450.5001,-73.7223"/>
</g>
<!-- Node44&#45;&gt;Node37 -->
<g id="edge32" class="edge">
<title>Node44&#45;&gt;Node37</title>
<path fill="none" stroke="#191970" d="M1484.7734,-79.728C1512.615,-67.268 1553.5356,-48.9548 1582.2605,-36.0995"/>
<polygon fill="#191970" stroke="#191970" points="1483.2103,-76.5929 1475.5123,-83.8726 1486.0697,-82.9823 1483.2103,-76.5929"/>
</g>
<!-- Node44&#45;&gt;Node38 -->
<g id="edge33" class="edge">
<title>Node44&#45;&gt;Node38</title>
<path fill="none" stroke="#191970" d="M1508.6997,-81.8368C1556.5689,-71.5648 1627.958,-56.0879 1690,-42 1698.3601,-40.1017 1707.1532,-38.0698 1715.8248,-36.0452"/>
<polygon fill="#191970" stroke="#191970" points="1507.898,-78.4291 1498.8537,-83.9474 1509.3652,-85.2736 1507.898,-78.4291"/>
</g>
<!-- Node44&#45;&gt;Node39 -->
<g id="edge34" class="edge">
<title>Node44&#45;&gt;Node39</title>
<path fill="none" stroke="#191970" d="M1543.3452,-86.0572C1627.3918,-78.1847 1756.4815,-63.8462 1867,-42 1875.4278,-40.3341 1884.2898,-38.2433 1892.8814,-36.0312"/>
<polygon fill="#191970" stroke="#191970" points="1542.9578,-82.578 1533.3232,-86.9853 1543.6033,-89.5482 1542.9578,-82.578"/>
</g>
<!-- Node44&#45;&gt;Node40 -->
<g id="edge35" class="edge">
<title>Node44&#45;&gt;Node40</title>
<path fill="none" stroke="#191970" d="M1543.5419,-86.2725C1691.3023,-74.2081 1974.4669,-50.4564 2020,-42 2028.4032,-40.4394 2037.2298,-38.3466 2045.7429,-36.0852"/>
<polygon fill="#191970" stroke="#191970" points="1542.8247,-82.8193 1533.1423,-87.1206 1543.3937,-89.7961 1542.8247,-82.8193"/>
</g>
<!-- Node44&#45;&gt;Node41 -->
<g id="edge36" class="edge">
<title>Node44&#45;&gt;Node41</title>
<path fill="none" stroke="#191970" d="M1367.3538,-82.7982C1352.5655,-81.1005 1337.3494,-79.4341 1323,-78 1127.3229,-58.4434 1075.7961,-75.3928 882,-42 872.9094,-40.4336 863.3422,-38.3088 854.1263,-36.0102"/>
<polygon fill="#191970" stroke="#191970" points="1367.1708,-86.3003 1377.5075,-83.976 1367.9774,-79.347 1367.1708,-86.3003"/>
</g>
<!-- Node44&#45;&gt;Node42 -->
<g id="edge39" class="edge">
<title>Node44&#45;&gt;Node42</title>
<path fill="none" stroke="#191970" d="M1421.9012,-79.8908C1392.5061,-67.428 1349.0671,-49.0109 1318.6139,-36.0995"/>
<polygon fill="#191970" stroke="#191970" points="1420.7196,-83.1914 1431.2925,-83.8726 1423.452,-76.7467 1420.7196,-83.1914"/>
</g>
<!-- Node45 -->
<g id="node24" class="node">
<title>Node45</title>
<g id="a_node24"><a xlink:href="uptane__key__test_8cc_source.html" target="_top" xlink:title="src/libaktualizr/primary\l/uptane_key_test.cc">
<polygon fill="#ffffff" stroke="#000000" points="441,-6 441,-36 571,-36 571,-6 441,-6"/>
<text text-anchor="start" x="449" y="-24" font-family="Helvetica,sans-Serif" font-size="10.00" fill="#000000">src/libaktualizr/primary</text>
<text text-anchor="middle" x="506" y="-13" font-family="Helvetica,sans-Serif" font-size="10.00" fill="#000000">/uptane_key_test.cc</text>
</a>
</g>
</g>
<!-- Node44&#45;&gt;Node45 -->
<g id="edge37" class="edge">
<title>Node44&#45;&gt;Node45</title>
<path fill="none" stroke="#191970" d="M1364.9596,-90.7141C1173.7141,-84.3287 728.9813,-67.2188 580,-42 571.3096,-40.5289 562.1817,-38.4206 553.4194,-36.1013"/>
<polygon fill="#191970" stroke="#191970" points="1364.868,-94.2129 1374.9786,-91.0465 1365.1002,-87.2168 1364.868,-94.2129"/>
</g>
<!-- Node46 -->
<g id="node25" class="node">
<title>Node46</title>
<g id="a_node25"><a xlink:href="uptane__ci__test_8cc_source.html" target="_top" xlink:title="src/libaktualizr/uptane\l/uptane_ci_test.cc">
<polygon fill="#ffffff" stroke="#000000" points="589.5,-6 589.5,-36 714.5,-36 714.5,-6 589.5,-6"/>
<text text-anchor="start" x="597.5" y="-24" font-family="Helvetica,sans-Serif" font-size="10.00" fill="#000000">src/libaktualizr/uptane</text>
<text text-anchor="middle" x="652" y="-13" font-family="Helvetica,sans-Serif" font-size="10.00" fill="#000000">/uptane_ci_test.cc</text>
</a>
</g>
</g>
<!-- Node44&#45;&gt;Node46 -->
<g id="edge38" class="edge">
<title>Node44&#45;&gt;Node46</title>
<path fill="none" stroke="#191970" d="M1364.8234,-84.8607C1339.0764,-82.4912 1310.9321,-80.0209 1285,-78 1035.909,-58.5886 970.0762,-85.2391 724,-42 715.5359,-40.5127 706.6505,-38.3965 698.1235,-36.0745"/>
<polygon fill="#191970" stroke="#191970" points="1364.6589,-88.3604 1374.9391,-85.7977 1365.3046,-81.3902 1364.6589,-88.3604"/>
</g>
<!-- Node47 -->
<g id="node26" class="node">
<title>Node47</title>
<g id="a_node26"><a xlink:href="uptane__network__test_8cc.html" target="_top" xlink:title="Check that aktualizr can complete provisioning after encountering various network issues...">
<polygon fill="#ffffff" stroke="#000000" points="0,-6 0,-36 136,-36 136,-6 0,-6"/>
<text text-anchor="start" x="8" y="-24" font-family="Helvetica,sans-Serif" font-size="10.00" fill="#000000">src/libaktualizr/uptane</text>
<text text-anchor="middle" x="68" y="-13" font-family="Helvetica,sans-Serif" font-size="10.00" fill="#000000">/uptane_network_test.cc</text>
</a>
</g>
</g>
<!-- Node44&#45;&gt;Node47 -->
<g id="edge40" class="edge">
<title>Node44&#45;&gt;Node47</title>
<path fill="none" stroke="#191970" d="M1364.229,-92.6178C1108.7046,-89.6857 380.7056,-78.2957 145,-42 135.6875,-40.566 125.8894,-38.4121 116.5207,-36.022"/>
<polygon fill="#191970" stroke="#191970" points="1364.5409,-96.1214 1374.5799,-92.7349 1364.6202,-89.1219 1364.5409,-96.1214"/>
</g>
<!-- Node48 -->
<g id="node27" class="node">
<title>Node48</title>
<g id="a_node27"><a xlink:href="uptane__serial__test_8cc_source.html" target="_top" xlink:title="src/libaktualizr/uptane\l/uptane_serial_test.cc">
<polygon fill="#ffffff" stroke="#000000" points="154.5,-6 154.5,-36 279.5,-36 279.5,-6 154.5,-6"/>
<text text-anchor="start" x="162.5" y="-24" font-family="Helvetica,sans-Serif" font-size="10.00" fill="#000000">src/libaktualizr/uptane</text>
<text text-anchor="middle" x="217" y="-13" font-family="Helvetica,sans-Serif" font-size="10.00" fill="#000000">/uptane_serial_test.cc</text>
</a>
</g>
</g>
<!-- Node44&#45;&gt;Node48 -->
<g id="edge41" class="edge">
<title>Node44&#45;&gt;Node48</title>
<path fill="none" stroke="#191970" d="M1364.6728,-92.3637C1129.0732,-88.9175 494.7658,-76.6116 288,-42 279.3791,-40.5569 270.3285,-38.3987 261.6847,-36.0072"/>
<polygon fill="#191970" stroke="#191970" points="1364.8636,-95.8667 1374.9131,-92.5116 1364.9648,-88.8674 1364.8636,-95.8667"/>
</g>
<!-- Node49 -->
<g id="node28" class="node">
<title>Node49</title>
<g id="a_node28"><a xlink:href="uptane__test_8cc_source.html" target="_top" xlink:title="src/libaktualizr/uptane\l/uptane_test.cc">
<polygon fill="#ffffff" stroke="#000000" points="297.5,-6 297.5,-36 422.5,-36 422.5,-6 297.5,-6"/>
<text text-anchor="start" x="305.5" y="-24" font-family="Helvetica,sans-Serif" font-size="10.00" fill="#000000">src/libaktualizr/uptane</text>
<text text-anchor="middle" x="360" y="-13" font-family="Helvetica,sans-Serif" font-size="10.00" fill="#000000">/uptane_test.cc</text>
</a>
</g>
</g>
<!-- Node44&#45;&gt;Node49 -->
<g id="edge42" class="edge">
<title>Node44&#45;&gt;Node49</title>
<path fill="none" stroke="#191970" d="M1364.5257,-91.6688C1149.8262,-86.8425 610.0687,-72.0301 432,-42 423.3975,-40.5492 414.3661,-38.4194 405.7196,-36.0654"/>
<polygon fill="#191970" stroke="#191970" points="1364.7341,-95.1742 1374.8096,-91.8979 1364.8901,-88.1759 1364.7341,-95.1742"/>
</g>
<!-- Node50&#45;&gt;Node25 -->
<g id="edge49" class="edge">
<title>Node50&#45;&gt;Node25</title>
<path fill="none" stroke="#191970" d="M1192.3056,-231.2302C1339.6704,-217.0039 1663.858,-185.7074 1802.7469,-172.2994"/>
<polygon fill="#191970" stroke="#191970" points="1191.6232,-227.7797 1182.0059,-232.2245 1192.2959,-234.7473 1191.6232,-227.7797"/>
</g>
<!-- Node50&#45;&gt;Node34 -->
<g id="edge50" class="edge">
<title>Node50&#45;&gt;Node34</title>
<path fill="none" stroke="#191970" d="M1192.2733,-236.3156C1428.8648,-228.5821 2154.5282,-198.0112 2370,-109 2392.4465,-99.7274 2393.3882,-89.0795 2415,-78 2449.054,-60.5419 2489.7068,-46.0708 2521.3814,-36.078"/>
<polygon fill="#191970" stroke="#191970" points="1191.9311,-232.8247 1182.0492,-236.6454 1192.1569,-239.821 1191.9311,-232.8247"/>
</g>
<!-- Node50&#45;&gt;Node44 -->
<g id="edge59" class="edge">
<title>Node50&#45;&gt;Node44</title>
<path fill="none" stroke="#191970" d="M1192.4403,-235.38C1273.7724,-230.4498 1396.1591,-217.9809 1430,-187 1454.1042,-164.9329 1455.4123,-122.2335 1454.6671,-103.1375"/>
<polygon fill="#191970" stroke="#191970" points="1192.0204,-231.8984 1182.2401,-235.9721 1192.4261,-238.8866 1192.0204,-231.8984"/>
</g>
<!-- Node50&#45;&gt;Node45 -->
<g id="edge54" class="edge">
<title>Node50&#45;&gt;Node45</title>
<path fill="none" stroke="#191970" d="M1041.6119,-235.4714C911.5492,-229.5394 655.9742,-214.5062 626,-187 589.6502,-153.6433 633.6399,-118.1713 605,-78 591.3569,-58.8637 569.1318,-45.2301 549.193,-36.1053"/>
<polygon fill="#191970" stroke="#191970" points="1041.7485,-238.981 1051.8956,-235.9334 1042.0627,-231.9881 1041.7485,-238.981"/>
</g>
<!-- Node50&#45;&gt;Node46 -->
<g id="edge55" class="edge">
<title>Node50&#45;&gt;Node46</title>
<path fill="none" stroke="#191970" d="M1192.3835,-235.139C1265.9876,-230.0887 1370.5327,-217.5985 1396,-187 1407.9414,-172.6526 1408.1584,-159.164 1396,-145 1371.3992,-116.3413 760.8759,-50.1665 724,-42 716.2452,-40.2826 708.098,-38.1913 700.1858,-36.0019"/>
<polygon fill="#191970" stroke="#191970" points="1191.9649,-231.6588 1182.2144,-235.8034 1192.4213,-238.6439 1191.9649,-231.6588"/>
</g>
<!-- Node50&#45;&gt;Node47 -->
<g id="edge56" class="edge">
<title>Node50&#45;&gt;Node47</title>
<path fill="none" stroke="#191970" d="M1041.8302,-236.9647C843.8168,-232.5112 318.107,-217.8946 246,-187 167.9301,-153.5506 102.7226,-70.2931 78.3073,-36.0624"/>
<polygon fill="#191970" stroke="#191970" points="1041.7821,-240.4644 1051.8575,-237.1878 1041.9379,-233.4661 1041.7821,-240.4644"/>
</g>
<!-- Node50&#45;&gt;Node48 -->
<g id="edge57" class="edge">
<title>Node50&#45;&gt;Node48</title>
<path fill="none" stroke="#191970" d="M1041.7705,-235.9091C842.8541,-228.7839 316.0736,-208.0243 285,-187 233.2824,-152.008 220.8639,-70.0021 217.9101,-36.0895"/>
<polygon fill="#191970" stroke="#191970" points="1041.7261,-239.4096 1051.8445,-236.2683 1041.9756,-232.4141 1041.7261,-239.4096"/>
</g>
<!-- Node50&#45;&gt;Node49 -->
<g id="edge58" class="edge">
<title>Node50&#45;&gt;Node49</title>
<path fill="none" stroke="#191970" d="M1041.4525,-236.1171C887.9983,-230.7388 544.7387,-215.8213 431,-187 348.8485,-166.1828 303.0668,-180.1342 257,-109 236.8002,-77.8084 280.7694,-51.598 317.3934,-36.1015"/>
<polygon fill="#191970" stroke="#191970" points="1041.6094,-239.6245 1051.7246,-236.4727 1041.8517,-232.6287 1041.6094,-239.6245"/>
</g>
<!-- Node51 -->
<g id="node30" class="node">
<title>Node51</title>
<g id="a_node30"><a xlink:href="helpers_8h_source.html" target="_top" xlink:title="src/aktualizr_lite\l/helpers.h">
<polygon fill="#ffffff" stroke="#000000" points="440,-151 440,-181 538,-181 538,-151 440,-151"/>
<text text-anchor="start" x="448" y="-169" font-family="Helvetica,sans-Serif" font-size="10.00" fill="#000000">src/aktualizr_lite</text>
<text text-anchor="middle" x="489" y="-158" font-family="Helvetica,sans-Serif" font-size="10.00" fill="#000000">/helpers.h</text>
</a>
</g>
</g>
<!-- Node50&#45;&gt;Node51 -->
<g id="edge44" class="edge">
<title>Node50&#45;&gt;Node51</title>
<path fill="none" stroke="#191970" d="M1041.5854,-233.4985C939.5071,-226.1796 751.852,-210.7817 593,-187 574.9652,-184.3 555.3259,-180.5477 538.0201,-176.9608"/>
<polygon fill="#191970" stroke="#191970" points="1041.5722,-237.0063 1051.7951,-234.224 1042.0684,-230.0239 1041.5722,-237.0063"/>
</g>
<!-- Node55 -->
<g id="node34" class="node">
<title>Node55</title>
<g id="a_node34"><a xlink:href="dockerappmanager__test_8cc_source.html" target="_top" xlink:title="src/libaktualizr/package\l_manager/dockerappmanager\l_test.cc">
<polygon fill="#ffffff" stroke="#000000" points="635.5,-145.5 635.5,-186.5 798.5,-186.5 798.5,-145.5 635.5,-145.5"/>
<text text-anchor="start" x="643.5" y="-174.5" font-family="Helvetica,sans-Serif" font-size="10.00" fill="#000000">src/libaktualizr/package</text>
<text text-anchor="start" x="643.5" y="-163.5" font-family="Helvetica,sans-Serif" font-size="10.00" fill="#000000">_manager/dockerappmanager</text>
<text text-anchor="middle" x="717" y="-152.5" font-family="Helvetica,sans-Serif" font-size="10.00" fill="#000000">_test.cc</text>
</a>
</g>
</g>
<!-- Node50&#45;&gt;Node55 -->
<g id="edge48" class="edge">
<title>Node50&#45;&gt;Node55</title>
<path fill="none" stroke="#191970" d="M1041.5286,-227.3576C978.6033,-217.7333 886.6961,-202.9005 807,-187 804.3251,-186.4663 801.6086,-185.9109 798.8678,-185.339"/>
<polygon fill="#191970" stroke="#191970" points="1041.3483,-230.8704 1051.7612,-228.9158 1042.4021,-223.9502 1041.3483,-230.8704"/>
</g>
<!-- Node56 -->
<g id="node35" class="node">
<title>Node56</title>
<g id="a_node35"><a xlink:href="device__cred__prov__test_8cc.html" target="_top" xlink:title="src/libaktualizr/primary\l/device_cred_prov_test.cc">
<polygon fill="#ffffff" stroke="#000000" points="816.5,-151 816.5,-181 959.5,-181 959.5,-151 816.5,-151"/>
<text text-anchor="start" x="824.5" y="-169" font-family="Helvetica,sans-Serif" font-size="10.00" fill="#000000">src/libaktualizr/primary</text>
<text text-anchor="middle" x="888" y="-158" font-family="Helvetica,sans-Serif" font-size="10.00" fill="#000000">/device_cred_prov_test.cc</text>
</a>
</g>
</g>
<!-- Node50&#45;&gt;Node56 -->
<g id="edge51" class="edge">
<title>Node50&#45;&gt;Node56</title>
<path fill="none" stroke="#191970" d="M1059.5685,-220.3175C1021.2407,-208.1832 971.4508,-192.42 935.3882,-181.0028"/>
<polygon fill="#191970" stroke="#191970" points="1058.961,-223.7964 1069.5511,-223.478 1061.0738,-217.1228 1058.961,-223.7964"/>
</g>
<!-- Node57 -->
<g id="node36" class="node">
<title>Node57</title>
<g id="a_node36"><a xlink:href="initializer__test_8cc_source.html" target="_top" xlink:title="src/libaktualizr/primary\l/initializer_test.cc">
<polygon fill="#ffffff" stroke="#000000" points="978,-151 978,-181 1108,-181 1108,-151 978,-151"/>
<text text-anchor="start" x="986" y="-169" font-family="Helvetica,sans-Serif" font-size="10.00" fill="#000000">src/libaktualizr/primary</text>
<text text-anchor="middle" x="1043" y="-158" font-family="Helvetica,sans-Serif" font-size="10.00" fill="#000000">/initializer_test.cc</text>
</a>
</g>
</g>
<!-- Node50&#45;&gt;Node57 -->
<g id="edge52" class="edge">
<title>Node50&#45;&gt;Node57</title>
<path fill="none" stroke="#191970" d="M1094.3726,-216.3313C1082.6829,-204.8785 1068.7269,-191.2054 1058.3132,-181.0028"/>
<polygon fill="#191970" stroke="#191970" points="1092.0746,-218.9797 1101.6672,-223.478 1096.9734,-213.9795 1092.0746,-218.9797"/>
</g>
<!-- Node58 -->
<g id="node37" class="node">
<title>Node58</title>
<g id="a_node37"><a xlink:href="sotauptaneclient_8cc_source.html" target="_top" xlink:title="src/libaktualizr/primary\l/sotauptaneclient.cc">
<polygon fill="#ffffff" stroke="#000000" points="1126,-151 1126,-181 1256,-181 1256,-151 1126,-151"/>
<text text-anchor="start" x="1134" y="-169" font-family="Helvetica,sans-Serif" font-size="10.00" fill="#000000">src/libaktualizr/primary</text>
<text text-anchor="middle" x="1191" y="-158" font-family="Helvetica,sans-Serif" font-size="10.00" fill="#000000">/sotauptaneclient.cc</text>
</a>
</g>
</g>
<!-- Node50&#45;&gt;Node58 -->
<g id="edge53" class="edge">
<title>Node50&#45;&gt;Node58</title>
<path fill="none" stroke="#191970" d="M1139.6274,-216.3313C1151.3171,-204.8785 1165.2731,-191.2054 1175.6868,-181.0028"/>
<polygon fill="#191970" stroke="#191970" points="1137.0266,-213.9795 1132.3328,-223.478 1141.9254,-218.9797 1137.0266,-213.9795"/>
</g>
<!-- Node59 -->
<g id="node38" class="node">
<title>Node59</title>
<g id="a_node38"><a xlink:href="uptane__vector__tests_8cc_source.html" target="_top" xlink:title="tests/uptane_vector\l_tests.cc">
<polygon fill="#ffffff" stroke="#000000" points="1274.5,-151 1274.5,-181 1387.5,-181 1387.5,-151 1274.5,-151"/>
<text text-anchor="start" x="1282.5" y="-169" font-family="Helvetica,sans-Serif" font-size="10.00" fill="#000000">tests/uptane_vector</text>
<text text-anchor="middle" x="1331" y="-158" font-family="Helvetica,sans-Serif" font-size="10.00" fill="#000000">_tests.cc</text>
</a>
</g>
</g>
<!-- Node50&#45;&gt;Node59 -->
<g id="edge60" class="edge">
<title>Node50&#45;&gt;Node59</title>
<path fill="none" stroke="#191970" d="M1171.1274,-220.1624C1206.8826,-208.0491 1253.1588,-192.3714 1286.7159,-181.0028"/>
<polygon fill="#191970" stroke="#191970" points="1169.6891,-216.9542 1161.3409,-223.478 1171.9352,-223.5841 1169.6891,-216.9542"/>
</g>
<!-- Node52 -->
<g id="node31" class="node">
<title>Node52</title>
<g id="a_node31"><a xlink:href="helpers_8cc_source.html" target="_top" xlink:title="src/aktualizr_lite\l/helpers.cc">
<polygon fill="#ffffff" stroke="#000000" points="382,-78.5 382,-108.5 480,-108.5 480,-78.5 382,-78.5"/>
<text text-anchor="start" x="390" y="-96.5" font-family="Helvetica,sans-Serif" font-size="10.00" fill="#000000">src/aktualizr_lite</text>
<text text-anchor="middle" x="431" y="-85.5" font-family="Helvetica,sans-Serif" font-size="10.00" fill="#000000">/helpers.cc</text>
</a>
</g>
</g>
<!-- Node51&#45;&gt;Node52 -->
<g id="edge45" class="edge">
<title>Node51&#45;&gt;Node52</title>
<path fill="none" stroke="#191970" d="M470.4754,-142.8443C461.48,-131.6 450.9311,-118.4139 443.0022,-108.5028"/>
<polygon fill="#191970" stroke="#191970" points="468.0023,-145.3557 476.9824,-150.978 473.4684,-140.9828 468.0023,-145.3557"/>
</g>
<!-- Node53 -->
<g id="node32" class="node">
<title>Node53</title>
<g id="a_node32"><a xlink:href="helpers__test_8cc_source.html" target="_top" xlink:title="src/aktualizr_lite\l/helpers_test.cc">
<polygon fill="#ffffff" stroke="#000000" points="498,-78.5 498,-108.5 596,-108.5 596,-78.5 498,-78.5"/>
<text text-anchor="start" x="506" y="-96.5" font-family="Helvetica,sans-Serif" font-size="10.00" fill="#000000">src/aktualizr_lite</text>
<text text-anchor="middle" x="547" y="-85.5" font-family="Helvetica,sans-Serif" font-size="10.00" fill="#000000">/helpers_test.cc</text>
</a>
</g>
</g>
<!-- Node51&#45;&gt;Node53 -->
<g id="edge46" class="edge">
<title>Node51&#45;&gt;Node53</title>
<path fill="none" stroke="#191970" d="M507.5246,-142.8443C516.52,-131.6 527.0689,-118.4139 534.9978,-108.5028"/>
<polygon fill="#191970" stroke="#191970" points="504.5316,-140.9828 501.0176,-150.978 509.9977,-145.3557 504.5316,-140.9828"/>
</g>
<!-- Node54 -->
<g id="node33" class="node">
<title>Node54</title>
<g id="a_node33"><a xlink:href="aktualizr__lite_2main_8cc_source.html" target="_top" xlink:title="src/aktualizr_lite\l/main.cc">
<polygon fill="#ffffff" stroke="#000000" points="266,-78.5 266,-108.5 364,-108.5 364,-78.5 266,-78.5"/>
<text text-anchor="start" x="274" y="-96.5" font-family="Helvetica,sans-Serif" font-size="10.00" fill="#000000">src/aktualizr_lite</text>
<text text-anchor="middle" x="315" y="-85.5" font-family="Helvetica,sans-Serif" font-size="10.00" fill="#000000">/main.cc</text>
</a>
</g>
</g>
<!-- Node51&#45;&gt;Node54 -->
<g id="edge47" class="edge">
<title>Node51&#45;&gt;Node54</title>
<path fill="none" stroke="#191970" d="M443.4916,-147.0382C414.6346,-135.0144 377.825,-119.6771 351.0067,-108.5028"/>
<polygon fill="#191970" stroke="#191970" points="442.3701,-150.3625 452.9471,-150.978 445.0625,-143.901 442.3701,-150.3625"/>
</g>
</g>
</svg>
