<?xml version="1.0" encoding="UTF-8" standalone="no"?>
<!DOCTYPE svg PUBLIC "-//W3C//DTD SVG 1.1//EN"
 "http://www.w3.org/Graphics/SVG/1.1/DTD/svg11.dtd">
<!-- Generated by graphviz version 2.40.1 (20161225.0304)
 -->
<!-- Title: PackageConfig Pages: 1 -->
<svg width="251pt" height="254pt"
 viewBox="0.00 0.00 251.00 254.00" xmlns="http://www.w3.org/2000/svg" xmlns:xlink="http://www.w3.org/1999/xlink">
<g id="graph0" class="graph" transform="scale(1 1) rotate(0) translate(4 250)">
<title>PackageConfig</title>
<polygon fill="#ffffff" stroke="transparent" points="-4,4 -4,-250 247,-250 247,4 -4,4"/>
<!-- Node1 -->
<g id="node1" class="node">
<title>Node1</title>
<polygon fill="#bfbfbf" stroke="#000000" points="8,-.5 8,-19.5 96,-19.5 96,-.5 8,-.5"/>
<text text-anchor="middle" x="52" y="-7.5" font-family="Helvetica,sans-Serif" font-size="10.00" fill="#000000">PackageConfig</text>
</g>
<!-- Node2 -->
<g id="node2" class="node">
<title>Node2</title>
<polygon fill="#ffffff" stroke="#bfbfbf" points="121,-68.5 121,-98.5 243,-98.5 243,-68.5 121,-68.5"/>
<text text-anchor="start" x="129" y="-86.5" font-family="Helvetica,sans-Serif" font-size="10.00" fill="#000000">std::map&lt; std::string,</text>
<text text-anchor="middle" x="182" y="-75.5" font-family="Helvetica,sans-Serif" font-size="10.00" fill="#000000"> std::string &gt;</text>
</g>
<!-- Node2&#45;&gt;Node1 -->
<g id="edge1" class="edge">
<title>Node2&#45;&gt;Node1</title>
<path fill="none" stroke="#9a32cd" stroke-dasharray="5,2" d="M146.4818,-63.4186C121.3103,-49.187 88.6545,-30.7239 69.0683,-19.6501"/>
<polygon fill="#9a32cd" stroke="#9a32cd" points="144.9512,-66.5738 155.3789,-68.4488 148.3964,-60.4803 144.9512,-66.5738"/>
<text text-anchor="middle" x="134.5" y="-41" font-family="Helvetica,sans-Serif" font-size="10.00" fill="#000000"> extra</text>
</g>
<!-- Node3 -->
<g id="node3" class="node">
<title>Node3</title>
<g id="a_node3"><a xlink:title="STL class. ">
<polygon fill="#ffffff" stroke="#bfbfbf" points="19.5,-158.5 19.5,-177.5 84.5,-177.5 84.5,-158.5 19.5,-158.5"/>
<text text-anchor="middle" x="52" y="-165.5" font-family="Helvetica,sans-Serif" font-size="10.00" fill="#000000">std::string</text>
</a>
</g>
</g>
<!-- Node3&#45;&gt;Node1 -->
<g id="edge4" class="edge">
<title>Node3&#45;&gt;Node1</title>
<path fill="none" stroke="#9a32cd" stroke-dasharray="5,2" d="M49.1173,-148.3251C46.4925,-127.9749 43.2704,-95.2732 45,-67 46.0227,-50.2814 48.7178,-30.9581 50.4498,-19.6489"/>
<polygon fill="#9a32cd" stroke="#9a32cd" points="45.6526,-148.8217 50.4789,-158.2534 52.5877,-147.8706 45.6526,-148.8217"/>
<text text-anchor="middle" x="78.5" y="-92" font-family="Helvetica,sans-Serif" font-size="10.00" fill="#000000"> os</text>
<text text-anchor="middle" x="78.5" y="-81" font-family="Helvetica,sans-Serif" font-size="10.00" fill="#000000">ostree_server</text>
<text text-anchor="middle" x="78.5" y="-70" font-family="Helvetica,sans-Serif" font-size="10.00" fill="#000000">type</text>
</g>
<!-- Node3&#45;&gt;Node2 -->
<g id="edge2" class="edge">
<title>Node3&#45;&gt;Node2</title>
<path fill="none" stroke="#9a32cd" stroke-dasharray="5,2" d="M75.3409,-152.8284C98.9752,-137.4661 135.3082,-113.8496 158.8675,-98.5361"/>
<polygon fill="#9a32cd" stroke="#9a32cd" points="73.1369,-150.0865 66.6599,-158.471 76.9519,-155.9557 73.1369,-150.0865"/>
<text text-anchor="middle" x="151" y="-132" font-family="Helvetica,sans-Serif" font-size="10.00" fill="#000000"> keys</text>
<text text-anchor="middle" x="151" y="-121" font-family="Helvetica,sans-Serif" font-size="10.00" fill="#000000">elements</text>
</g>
<!-- Node4 -->
<g id="node4" class="node">
<title>Node4</title>
<g id="a_node4"><a xlink:title="STL class. ">
<polygon fill="#ffffff" stroke="#bfbfbf" points="0,-215.5 0,-245.5 104,-245.5 104,-215.5 0,-215.5"/>
<text text-anchor="start" x="8" y="-233.5" font-family="Helvetica,sans-Serif" font-size="10.00" fill="#000000">std::basic_string&lt;</text>
<text text-anchor="middle" x="52" y="-222.5" font-family="Helvetica,sans-Serif" font-size="10.00" fill="#000000"> char &gt;</text>
</a>
</g>
</g>
<!-- Node4&#45;&gt;Node3 -->
<g id="edge3" class="edge">
<title>Node4&#45;&gt;Node3</title>
<path fill="none" stroke="#191970" d="M52,-205.3498C52,-195.6481 52,-185.1303 52,-177.7356"/>
<polygon fill="#191970" stroke="#191970" points="48.5001,-205.3705 52,-215.3705 55.5001,-205.3705 48.5001,-205.3705"/>
</g>
</g>
</svg>
