<?xml version="1.0" encoding="UTF-8" standalone="no"?>
<!DOCTYPE svg PUBLIC "-//W3C//DTD SVG 1.1//EN"
 "http://www.w3.org/Graphics/SVG/1.1/DTD/svg11.dtd">
<!-- Generated by graphviz version 2.40.1 (20161225.0304)
 -->
<!-- Title: AktualizrSecondaryUptaneConfig Pages: 1 -->
<svg width="167pt" height="185pt"
 viewBox="0.00 0.00 167.00 185.00" xmlns="http://www.w3.org/2000/svg" xmlns:xlink="http://www.w3.org/1999/xlink">
<g id="graph0" class="graph" transform="scale(1 1) rotate(0) translate(4 181)">
<title>AktualizrSecondaryUptaneConfig</title>
<polygon fill="#ffffff" stroke="transparent" points="-4,4 -4,-181 163,-181 163,4 -4,4"/>
<!-- Node1 -->
<g id="node1" class="node">
<title>Node1</title>
<polygon fill="#bfbfbf" stroke="#000000" points="0,-.5 0,-30.5 146,-30.5 146,-.5 0,-.5"/>
<text text-anchor="start" x="8" y="-18.5" font-family="Helvetica,sans-Serif" font-size="10.00" fill="#000000">AktualizrSecondaryUptane</text>
<text text-anchor="middle" x="73" y="-7.5" font-family="Helvetica,sans-Serif" font-size="10.00" fill="#000000">Config</text>
</g>
<!-- Node2 -->
<g id="node2" class="node">
<title>Node2</title>
<g id="a_node2"><a xlink:title="STL class. ">
<polygon fill="#ffffff" stroke="#bfbfbf" points="40.5,-89.5 40.5,-108.5 105.5,-108.5 105.5,-89.5 40.5,-89.5"/>
<text text-anchor="middle" x="73" y="-96.5" font-family="Helvetica,sans-Serif" font-size="10.00" fill="#000000">std::string</text>
</a>
</g>
</g>
<!-- Node2&#45;&gt;Node1 -->
<g id="edge1" class="edge">
<title>Node2&#45;&gt;Node1</title>
<path fill="none" stroke="#9a32cd" stroke-dasharray="5,2" d="M73,-79.2427C73,-64.345 73,-44.2186 73,-30.597"/>
<polygon fill="#9a32cd" stroke="#9a32cd" points="69.5001,-79.4215 73,-89.4215 76.5001,-79.4215 69.5001,-79.4215"/>
<text text-anchor="middle" x="116" y="-63" font-family="Helvetica,sans-Serif" font-size="10.00" fill="#000000"> ecu_hardware_id</text>
<text text-anchor="middle" x="116" y="-52" font-family="Helvetica,sans-Serif" font-size="10.00" fill="#000000">ecu_serial</text>
</g>
<!-- Node3 -->
<g id="node3" class="node">
<title>Node3</title>
<g id="a_node3"><a xlink:title="STL class. ">
<polygon fill="#ffffff" stroke="#bfbfbf" points="21,-146.5 21,-176.5 125,-176.5 125,-146.5 21,-146.5"/>
<text text-anchor="start" x="29" y="-164.5" font-family="Helvetica,sans-Serif" font-size="10.00" fill="#000000">std::basic_string&lt;</text>
<text text-anchor="middle" x="73" y="-153.5" font-family="Helvetica,sans-Serif" font-size="10.00" fill="#000000"> char &gt;</text>
</a>
</g>
</g>
<!-- Node3&#45;&gt;Node2 -->
<g id="edge2" class="edge">
<title>Node3&#45;&gt;Node2</title>
<path fill="none" stroke="#191970" d="M73,-136.3498C73,-126.6481 73,-116.1303 73,-108.7356"/>
<polygon fill="#191970" stroke="#191970" points="69.5001,-136.3705 73,-146.3705 76.5001,-136.3705 69.5001,-136.3705"/>
</g>
</g>
</svg>
