<?xml version="1.0" encoding="UTF-8" standalone="no"?>
<!DOCTYPE svg PUBLIC "-//W3C//DTD SVG 1.1//EN"
 "http://www.w3.org/Graphics/SVG/1.1/DTD/svg11.dtd">
<!-- Generated by graphviz version 2.40.1 (20161225.0304)
 -->
<!-- Title: Aktualizr::InstallationLogEntry Pages: 1 -->
<svg width="244pt" height="184pt"
 viewBox="0.00 0.00 244.00 184.00" xmlns="http://www.w3.org/2000/svg" xmlns:xlink="http://www.w3.org/1999/xlink">
<g id="graph0" class="graph" transform="scale(1 1) rotate(0) translate(4 180)">
<title>Aktualizr::InstallationLogEntry</title>
<polygon fill="#ffffff" stroke="transparent" points="-4,4 -4,-180 240,-180 240,4 -4,4"/>
<!-- Node1 -->
<g id="node1" class="node">
<title>Node1</title>
<polygon fill="#bfbfbf" stroke="#000000" points="83.5,-.5 83.5,-30.5 221.5,-30.5 221.5,-.5 83.5,-.5"/>
<text text-anchor="start" x="91.5" y="-18.5" font-family="Helvetica,sans-Serif" font-size="10.00" fill="#000000">Aktualizr::InstallationLog</text>
<text text-anchor="middle" x="152.5" y="-7.5" font-family="Helvetica,sans-Serif" font-size="10.00" fill="#000000">Entry</text>
</g>
<!-- Node2 -->
<g id="node2" class="node">
<title>Node2</title>
<polygon fill="#ffffff" stroke="#bfbfbf" points="0,-78.5 0,-108.5 115,-108.5 115,-78.5 0,-78.5"/>
<text text-anchor="start" x="8" y="-96.5" font-family="Helvetica,sans-Serif" font-size="10.00" fill="#000000">std::vector&lt; Uptane</text>
<text text-anchor="middle" x="57.5" y="-85.5" font-family="Helvetica,sans-Serif" font-size="10.00" fill="#000000">::Target &gt;</text>
</g>
<!-- Node2&#45;&gt;Node1 -->
<g id="edge1" class="edge">
<title>Node2&#45;&gt;Node1</title>
<path fill="none" stroke="#9a32cd" stroke-dasharray="5,2" d="M83.7292,-71.9644C99.6588,-58.8854 119.6106,-42.5039 133.9151,-30.7592"/>
<polygon fill="#9a32cd" stroke="#9a32cd" points="81.3247,-69.4101 75.817,-78.4608 85.7667,-74.8202 81.3247,-69.4101"/>
<text text-anchor="middle" x="131" y="-52" font-family="Helvetica,sans-Serif" font-size="10.00" fill="#000000"> installs</text>
</g>
<!-- Node3 -->
<g id="node3" class="node">
<title>Node3</title>
<g id="a_node3"><a xlink:href="class_uptane_1_1_target.html" target="_top" xlink:title="Uptane::Target">
<polygon fill="#ffffff" stroke="#000000" points="13.5,-156.5 13.5,-175.5 101.5,-175.5 101.5,-156.5 13.5,-156.5"/>
<text text-anchor="middle" x="57.5" y="-163.5" font-family="Helvetica,sans-Serif" font-size="10.00" fill="#000000">Uptane::Target</text>
</a>
</g>
</g>
<!-- Node3&#45;&gt;Node2 -->
<g id="edge2" class="edge">
<title>Node3&#45;&gt;Node2</title>
<path fill="none" stroke="#9a32cd" stroke-dasharray="5,2" d="M57.5,-146.0177C57.5,-134.2164 57.5,-119.513 57.5,-108.668"/>
<polygon fill="#9a32cd" stroke="#9a32cd" points="54.0001,-146.2223 57.5,-156.2223 61.0001,-146.2224 54.0001,-146.2223"/>
<text text-anchor="middle" x="82" y="-130" font-family="Helvetica,sans-Serif" font-size="10.00" fill="#000000"> elements</text>
</g>
<!-- Node4 -->
<g id="node4" class="node">
<title>Node4</title>
<g id="a_node4"><a xlink:href="class_uptane_1_1_ecu_serial.html" target="_top" xlink:title="Uptane::EcuSerial">
<polygon fill="#ffffff" stroke="#000000" points="133,-84 133,-103 236,-103 236,-84 133,-84"/>
<text text-anchor="middle" x="184.5" y="-91" font-family="Helvetica,sans-Serif" font-size="10.00" fill="#000000">Uptane::EcuSerial</text>
</a>
</g>
</g>
<!-- Node4&#45;&gt;Node1 -->
<g id="edge3" class="edge">
<title>Node4&#45;&gt;Node1</title>
<path fill="none" stroke="#9a32cd" stroke-dasharray="5,2" d="M176.7754,-74.6714C171.257,-61.2202 163.9263,-43.3517 158.7697,-30.7824"/>
<polygon fill="#9a32cd" stroke="#9a32cd" points="173.5425,-76.0124 180.5762,-83.9357 180.0186,-73.3555 173.5425,-76.0124"/>
<text text-anchor="middle" x="180" y="-52" font-family="Helvetica,sans-Serif" font-size="10.00" fill="#000000"> ecu</text>
</g>
</g>
</svg>
