<?xml version="1.0" encoding="UTF-8" standalone="no"?>
<!DOCTYPE svg PUBLIC "-//W3C//DTD SVG 1.1//EN"
 "http://www.w3.org/Graphics/SVG/1.1/DTD/svg11.dtd">
<!-- Generated by graphviz version 2.43.0 (0)
 -->
<!-- Title: HttpInterface Pages: 1 -->
<svg width="364pt" height="750pt"
 viewBox="0.00 0.00 364.00 750.00" xmlns="http://www.w3.org/2000/svg" xmlns:xlink="http://www.w3.org/1999/xlink">
<g id="graph0" class="graph" transform="scale(1 1) rotate(0) translate(4 746)">
<title>HttpInterface</title>
<polygon fill="white" stroke="transparent" points="-4,4 -4,-746 360,-746 360,4 -4,4"/>
<!-- Node1 -->
<g id="node1" class="node">
<title>Node1</title>
<g id="a_node1"><a xlink:title=" ">
<polygon fill="#bfbfbf" stroke="black" points="0,-361.5 0,-380.5 81,-380.5 81,-361.5 0,-361.5"/>
<text text-anchor="middle" x="40.5" y="-368.5" font-family="Helvetica,sans-Serif" font-size="10.00">HttpInterface</text>
</a>
</g>
</g>
<!-- Node2 -->
<g id="node2" class="node">
<title>Node2</title>
<g id="a_node2"><a xlink:href="class_http_client.html" target="_top" xlink:title=" ">
<polygon fill="white" stroke="black" points="117,-380.5 117,-399.5 183,-399.5 183,-380.5 117,-380.5"/>
<text text-anchor="middle" x="150" y="-387.5" font-family="Helvetica,sans-Serif" font-size="10.00">HttpClient</text>
</a>
</g>
</g>
<!-- Node1&#45;&gt;Node2 -->
<g id="edge1" class="edge">
<title>Node1&#45;&gt;Node2</title>
<path fill="none" stroke="midnightblue" d="M91.29,-379.8C99.96,-381.33 108.77,-382.89 116.81,-384.31"/>
<polygon fill="midnightblue" stroke="midnightblue" points="91.68,-376.31 81.22,-378.02 90.46,-383.21 91.68,-376.31"/>
</g>
<!-- Node3 -->
<g id="node3" class="node">
<title>Node3</title>
<g id="a_node3"><a xlink:href="class_http_fake.html" target="_top" xlink:title=" ">
<polygon fill="white" stroke="black" points="120,-342.5 120,-361.5 180,-361.5 180,-342.5 120,-342.5"/>
<text text-anchor="middle" x="150" y="-349.5" font-family="Helvetica,sans-Serif" font-size="10.00">HttpFake</text>
</a>
</g>
</g>
<!-- Node1&#45;&gt;Node3 -->
<g id="edge2" class="edge">
<title>Node1&#45;&gt;Node3</title>
<path fill="none" stroke="midnightblue" d="M91.3,-362.2C101.07,-360.47 111.03,-358.71 119.85,-357.15"/>
<polygon fill="midnightblue" stroke="midnightblue" points="90.46,-358.79 81.22,-363.98 91.68,-365.69 90.46,-358.79"/>
</g>
<!-- Node4 -->
<g id="node4" class="node">
<title>Node4</title>
<g id="a_node4"><a xlink:href="class_http_check_url.html" target="_top" xlink:title=" ">
<polygon fill="white" stroke="black" points="246.5,-722.5 246.5,-741.5 328.5,-741.5 328.5,-722.5 246.5,-722.5"/>
<text text-anchor="middle" x="287.5" y="-729.5" font-family="Helvetica,sans-Serif" font-size="10.00">HttpCheckUrl</text>
</a>
</g>
</g>
<!-- Node3&#45;&gt;Node4 -->
<g id="edge3" class="edge">
<title>Node3&#45;&gt;Node4</title>
<path fill="none" stroke="midnightblue" d="M181.31,-368.66C181.92,-369.41 182.48,-370.19 183,-371 265.47,-499.68 120.46,-596.17 219,-713 225.91,-721.19 236.04,-725.99 246.37,-728.77"/>
<polygon fill="midnightblue" stroke="midnightblue" points="183.36,-365.8 173.59,-361.71 178.68,-371 183.36,-365.8"/>
</g>
<!-- Node5 -->
<g id="node5" class="node">
<title>Node5</title>
<g id="a_node5"><a xlink:href="class_http_custom_uri.html" target="_top" xlink:title=" ">
<polygon fill="white" stroke="black" points="243,-684.5 243,-703.5 332,-703.5 332,-684.5 243,-684.5"/>
<text text-anchor="middle" x="287.5" y="-691.5" font-family="Helvetica,sans-Serif" font-size="10.00">HttpCustomUri</text>
</a>
</g>
</g>
<!-- Node3&#45;&gt;Node5 -->
<g id="edge4" class="edge">
<title>Node3&#45;&gt;Node5</title>
<path fill="none" stroke="midnightblue" d="M180.97,-368.28C181.7,-369.14 182.38,-370.05 183,-371 257.15,-485.07 130.61,-571.57 219,-675 225.17,-682.22 233.85,-686.8 242.93,-689.69"/>
<polygon fill="midnightblue" stroke="midnightblue" points="183.06,-365.46 173.23,-361.51 178.45,-370.73 183.06,-365.46"/>
</g>
<!-- Node6 -->
<g id="node6" class="node">
<title>Node6</title>
<g id="a_node6"><a xlink:href="class_http_default_uri.html" target="_top" xlink:title=" ">
<polygon fill="white" stroke="black" points="243.5,-646.5 243.5,-665.5 331.5,-665.5 331.5,-646.5 243.5,-646.5"/>
<text text-anchor="middle" x="287.5" y="-653.5" font-family="Helvetica,sans-Serif" font-size="10.00">HttpDefaultUri</text>
</a>
</g>
</g>
<!-- Node3&#45;&gt;Node6 -->
<g id="edge5" class="edge">
<title>Node3&#45;&gt;Node6</title>
<path fill="none" stroke="midnightblue" d="M180.95,-368.29C181.69,-369.15 182.38,-370.06 183,-371 248.85,-470.48 140.74,-546.95 219,-637 225.31,-644.26 234.15,-648.85 243.36,-651.72"/>
<polygon fill="midnightblue" stroke="midnightblue" points="183.02,-365.46 173.18,-361.54 178.43,-370.74 183.02,-365.46"/>
</g>
<!-- Node7 -->
<g id="node7" class="node">
<title>Node7</title>
<g id="a_node7"><a xlink:href="class_http_download_failure.html" target="_top" xlink:title=" ">
<polygon fill="white" stroke="black" points="228,-608.5 228,-627.5 347,-627.5 347,-608.5 228,-608.5"/>
<text text-anchor="middle" x="287.5" y="-615.5" font-family="Helvetica,sans-Serif" font-size="10.00">HttpDownloadFailure</text>
</a>
</g>
</g>
<!-- Node3&#45;&gt;Node7 -->
<g id="edge6" class="edge">
<title>Node3&#45;&gt;Node7</title>
<path fill="none" stroke="midnightblue" d="M180.92,-368.31C181.67,-369.17 182.37,-370.06 183,-371 240.57,-455.91 150.85,-522.32 219,-599 222.4,-602.82 226.5,-605.9 230.97,-608.38"/>
<polygon fill="midnightblue" stroke="midnightblue" points="182.97,-365.46 173.11,-361.59 178.41,-370.76 182.97,-365.46"/>
</g>
<!-- Node8 -->
<g id="node8" class="node">
<title>Node8</title>
<g id="a_node8"><a xlink:href="class_http_fake_campaign.html" target="_top" xlink:title=" ">
<polygon fill="white" stroke="black" points="232.5,-570.5 232.5,-589.5 342.5,-589.5 342.5,-570.5 232.5,-570.5"/>
<text text-anchor="middle" x="287.5" y="-577.5" font-family="Helvetica,sans-Serif" font-size="10.00">HttpFakeCampaign</text>
</a>
</g>
</g>
<!-- Node3&#45;&gt;Node8 -->
<g id="edge7" class="edge">
<title>Node3&#45;&gt;Node8</title>
<path fill="none" stroke="midnightblue" d="M180.88,-368.33C181.64,-369.19 182.35,-370.07 183,-371 232.31,-441.39 160.93,-497.64 219,-561 222.78,-565.13 227.39,-568.39 232.39,-570.95"/>
<polygon fill="midnightblue" stroke="midnightblue" points="182.91,-365.46 173.02,-361.65 178.37,-370.79 182.91,-365.46"/>
</g>
<!-- Node9 -->
<g id="node9" class="node">
<title>Node9</title>
<g id="a_node9"><a xlink:href="class_http_fake_delegation.html" target="_top" xlink:title=" ">
<polygon fill="white" stroke="black" points="231,-532.5 231,-551.5 344,-551.5 344,-532.5 231,-532.5"/>
<text text-anchor="middle" x="287.5" y="-539.5" font-family="Helvetica,sans-Serif" font-size="10.00">HttpFakeDelegation</text>
</a>
</g>
</g>
<!-- Node3&#45;&gt;Node9 -->
<g id="edge8" class="edge">
<title>Node3&#45;&gt;Node9</title>
<path fill="none" stroke="midnightblue" d="M180.46,-367.98C181.37,-368.94 182.23,-369.95 183,-371 224.11,-426.94 170.95,-472.89 219,-523 222.71,-526.87 227.13,-529.96 231.92,-532.44"/>
<polygon fill="midnightblue" stroke="midnightblue" points="182.52,-365.14 172.56,-361.53 178.09,-370.56 182.52,-365.14"/>
</g>
<!-- Node10 -->
<g id="node10" class="node">
<title>Node10</title>
<g id="a_node10"><a xlink:href="class_http_fake_event_counter.html" target="_top" xlink:title=" ">
<polygon fill="white" stroke="black" points="224.5,-494.5 224.5,-513.5 350.5,-513.5 350.5,-494.5 224.5,-494.5"/>
<text text-anchor="middle" x="287.5" y="-501.5" font-family="Helvetica,sans-Serif" font-size="10.00">HttpFakeEventCounter</text>
</a>
</g>
</g>
<!-- Node3&#45;&gt;Node10 -->
<g id="edge9" class="edge">
<title>Node3&#45;&gt;Node10</title>
<path fill="none" stroke="midnightblue" d="M180.36,-368.05C181.3,-368.99 182.19,-369.97 183,-371 216.01,-412.63 180.84,-448.03 219,-485 223.02,-488.9 227.78,-492.01 232.87,-494.49"/>
<polygon fill="midnightblue" stroke="midnightblue" points="182.36,-365.17 172.35,-361.69 178,-370.65 182.36,-365.17"/>
</g>
<!-- Node11 -->
<g id="node11" class="node">
<title>Node11</title>
<g id="a_node11"><a xlink:href="class_http_fake_events.html" target="_top" xlink:title=" ">
<polygon fill="white" stroke="black" points="241,-456.5 241,-475.5 334,-475.5 334,-456.5 241,-456.5"/>
<text text-anchor="middle" x="287.5" y="-463.5" font-family="Helvetica,sans-Serif" font-size="10.00">HttpFakeEvents</text>
</a>
</g>
</g>
<!-- Node3&#45;&gt;Node11 -->
<g id="edge10" class="edge">
<title>Node3&#45;&gt;Node11</title>
<path fill="none" stroke="midnightblue" d="M179.67,-367.74C180.85,-368.78 181.97,-369.87 183,-371 208.17,-398.63 190.45,-422.88 219,-447 225.32,-452.34 233.05,-456.19 240.99,-458.95"/>
<polygon fill="midnightblue" stroke="midnightblue" points="181.44,-364.69 171.31,-361.59 177.29,-370.33 181.44,-364.69"/>
</g>
<!-- Node12 -->
<g id="node12" class="node">
<title>Node12</title>
<g id="a_node12"><a xlink:href="class_http_fake_meta_counter.html" target="_top" xlink:title=" ">
<polygon fill="white" stroke="black" points="226.5,-418.5 226.5,-437.5 348.5,-437.5 348.5,-418.5 226.5,-418.5"/>
<text text-anchor="middle" x="287.5" y="-425.5" font-family="Helvetica,sans-Serif" font-size="10.00">HttpFakeMetaCounter</text>
</a>
</g>
</g>
<!-- Node3&#45;&gt;Node12 -->
<g id="edge11" class="edge">
<title>Node3&#45;&gt;Node12</title>
<path fill="none" stroke="midnightblue" d="M178,-367.28C179.73,-368.48 181.41,-369.73 183,-371 201.18,-385.52 199.09,-396.97 219,-409 225.36,-412.84 232.52,-415.93 239.74,-418.41"/>
<polygon fill="midnightblue" stroke="midnightblue" points="179.49,-364.08 169.18,-361.62 175.71,-369.97 179.49,-364.08"/>
</g>
<!-- Node13 -->
<g id="node13" class="node">
<title>Node13</title>
<g id="a_node13"><a xlink:href="class_http_fake_no_correlation_id.html" target="_top" xlink:title=" ">
<polygon fill="white" stroke="black" points="219,-380.5 219,-399.5 356,-399.5 356,-380.5 219,-380.5"/>
<text text-anchor="middle" x="287.5" y="-387.5" font-family="Helvetica,sans-Serif" font-size="10.00">HttpFakeNoCorrelationId</text>
</a>
</g>
</g>
<!-- Node3&#45;&gt;Node13 -->
<g id="edge12" class="edge">
<title>Node3&#45;&gt;Node13</title>
<path fill="none" stroke="midnightblue" d="M189.94,-362.92C209.6,-368.43 233.24,-375.06 252.21,-380.38"/>
<polygon fill="midnightblue" stroke="midnightblue" points="190.64,-359.48 180.07,-360.15 188.75,-366.22 190.64,-359.48"/>
</g>
<!-- Node14 -->
<g id="node14" class="node">
<title>Node14</title>
<g id="a_node14"><a xlink:href="class_http_fake_pause_counter.html" target="_top" xlink:title=" ">
<polygon fill="white" stroke="black" points="224,-342.5 224,-361.5 351,-361.5 351,-342.5 224,-342.5"/>
<text text-anchor="middle" x="287.5" y="-349.5" font-family="Helvetica,sans-Serif" font-size="10.00">HttpFakePauseCounter</text>
</a>
</g>
</g>
<!-- Node3&#45;&gt;Node14 -->
<g id="edge13" class="edge">
<title>Node3&#45;&gt;Node14</title>
<path fill="none" stroke="midnightblue" d="M190.16,-352C200.68,-352 212.33,-352 223.78,-352"/>
<polygon fill="midnightblue" stroke="midnightblue" points="190.07,-348.5 180.07,-352 190.07,-355.5 190.07,-348.5"/>
</g>
<!-- Node15 -->
<g id="node15" class="node">
<title>Node15</title>
<g id="a_node15"><a xlink:href="class_http_fake_prov.html" target="_top" xlink:title="Check that basic device info sent by aktualizr during provisioning matches our expectations.">
<polygon fill="white" stroke="black" points="246.5,-304.5 246.5,-323.5 328.5,-323.5 328.5,-304.5 246.5,-304.5"/>
<text text-anchor="middle" x="287.5" y="-311.5" font-family="Helvetica,sans-Serif" font-size="10.00">HttpFakeProv</text>
</a>
</g>
</g>
<!-- Node3&#45;&gt;Node15 -->
<g id="edge14" class="edge">
<title>Node3&#45;&gt;Node15</title>
<path fill="none" stroke="midnightblue" d="M189.94,-341.08C209.6,-335.57 233.24,-328.94 252.21,-323.62"/>
<polygon fill="midnightblue" stroke="midnightblue" points="188.75,-337.78 180.07,-343.85 190.64,-344.52 188.75,-337.78"/>
</g>
<!-- Node16 -->
<g id="node16" class="node">
<title>Node16</title>
<g id="a_node16"><a xlink:href="class_http_fake_put_counter.html" target="_top" xlink:title=" ">
<polygon fill="white" stroke="black" points="230.5,-266.5 230.5,-285.5 344.5,-285.5 344.5,-266.5 230.5,-266.5"/>
<text text-anchor="middle" x="287.5" y="-273.5" font-family="Helvetica,sans-Serif" font-size="10.00">HttpFakePutCounter</text>
</a>
</g>
</g>
<!-- Node3&#45;&gt;Node16 -->
<g id="edge15" class="edge">
<title>Node3&#45;&gt;Node16</title>
<path fill="none" stroke="midnightblue" d="M166.93,-335.23C179.86,-322.51 199.15,-305.49 219,-295 226.21,-291.19 234.27,-288.07 242.24,-285.55"/>
<polygon fill="midnightblue" stroke="midnightblue" points="164.29,-332.92 159.75,-342.49 169.27,-337.84 164.29,-332.92"/>
</g>
<!-- Node17 -->
<g id="node17" class="node">
<title>Node17</title>
<g id="a_node17"><a xlink:href="class_http_fake_rq.html" target="_top" xlink:title=" ">
<polygon fill="white" stroke="black" points="251,-228.5 251,-247.5 324,-247.5 324,-228.5 251,-228.5"/>
<text text-anchor="middle" x="287.5" y="-235.5" font-family="Helvetica,sans-Serif" font-size="10.00">HttpFakeRq</text>
</a>
</g>
</g>
<!-- Node3&#45;&gt;Node17 -->
<g id="edge16" class="edge">
<title>Node3&#45;&gt;Node17</title>
<path fill="none" stroke="midnightblue" d="M159.63,-333.11C170.46,-311.51 191.05,-276.62 219,-257 228.37,-250.43 239.96,-246.12 250.87,-243.3"/>
<polygon fill="midnightblue" stroke="midnightblue" points="156.41,-331.73 155.23,-342.26 162.72,-334.76 156.41,-331.73"/>
</g>
<!-- Node18 -->
<g id="node18" class="node">
<title>Node18</title>
<g id="a_node18"><a xlink:href="class_http_fake_split.html" target="_top" xlink:title=" ">
<polygon fill="white" stroke="black" points="246.5,-190.5 246.5,-209.5 328.5,-209.5 328.5,-190.5 246.5,-190.5"/>
<text text-anchor="middle" x="287.5" y="-197.5" font-family="Helvetica,sans-Serif" font-size="10.00">HttpFakeSplit</text>
</a>
</g>
</g>
<!-- Node3&#45;&gt;Node18 -->
<g id="edge17" class="edge">
<title>Node3&#45;&gt;Node18</title>
<path fill="none" stroke="midnightblue" d="M155.64,-332.48C163.57,-303.38 182.53,-248.87 219,-219 226.82,-212.6 236.66,-208.35 246.4,-205.53"/>
<polygon fill="midnightblue" stroke="midnightblue" points="152.22,-331.72 153.12,-342.28 159,-333.46 152.22,-331.72"/>
</g>
<!-- Node19 -->
<g id="node19" class="node">
<title>Node19</title>
<g id="a_node19"><a xlink:href="class_http_fake_unstable.html" target="_top" xlink:title=" ">
<polygon fill="white" stroke="black" points="235.5,-152.5 235.5,-171.5 339.5,-171.5 339.5,-152.5 235.5,-152.5"/>
<text text-anchor="middle" x="287.5" y="-159.5" font-family="Helvetica,sans-Serif" font-size="10.00">HttpFakeUnstable</text>
</a>
</g>
</g>
<!-- Node3&#45;&gt;Node19 -->
<g id="edge18" class="edge">
<title>Node3&#45;&gt;Node19</title>
<path fill="none" stroke="midnightblue" d="M153.2,-332.09C158.22,-296.45 173.81,-221.72 219,-181 223.7,-176.76 229.28,-173.46 235.18,-170.89"/>
<polygon fill="midnightblue" stroke="midnightblue" points="149.71,-331.83 151.92,-342.19 156.65,-332.71 149.71,-331.83"/>
</g>
<!-- Node20 -->
<g id="node20" class="node">
<title>Node20</title>
<g id="a_node20"><a xlink:href="class_http_put_manifest_fail.html" target="_top" xlink:title=" ">
<polygon fill="white" stroke="black" points="231.5,-114.5 231.5,-133.5 343.5,-133.5 343.5,-114.5 231.5,-114.5"/>
<text text-anchor="middle" x="287.5" y="-121.5" font-family="Helvetica,sans-Serif" font-size="10.00">HttpPutManifestFail</text>
</a>
</g>
</g>
<!-- Node3&#45;&gt;Node20 -->
<g id="edge19" class="edge">
<title>Node3&#45;&gt;Node20</title>
<path fill="none" stroke="midnightblue" d="M151.31,-332.31C152.95,-289.32 162.67,-188.11 219,-134 222.6,-130.54 226.78,-127.7 231.26,-125.41"/>
<polygon fill="midnightblue" stroke="midnightblue" points="147.81,-332.27 151.04,-342.36 154.81,-332.46 147.81,-332.27"/>
</g>
<!-- Node3&#45;&gt;Node20 -->
<g id="edge20" class="edge">
<title>Node3&#45;&gt;Node20</title>
<path fill="none" stroke="midnightblue" d="M151.86,-332.07C154.74,-291.88 167.05,-201.91 219,-152 229.97,-141.46 246.32,-136.68 260.18,-133.5"/>
<polygon fill="midnightblue" stroke="midnightblue" points="148.35,-332.03 151.26,-342.22 155.34,-332.44 148.35,-332.03"/>
</g>
<!-- Node21 -->
<g id="node21" class="node">
<title>Node21</title>
<g id="a_node21"><a xlink:href="class_http_reject_empty_corr_id.html" target="_top" xlink:title=" ">
<polygon fill="white" stroke="black" points="223.5,-76.5 223.5,-95.5 351.5,-95.5 351.5,-76.5 223.5,-76.5"/>
<text text-anchor="middle" x="287.5" y="-83.5" font-family="Helvetica,sans-Serif" font-size="10.00">HttpRejectEmptyCorrId</text>
</a>
</g>
</g>
<!-- Node3&#45;&gt;Node21 -->
<g id="edge21" class="edge">
<title>Node3&#45;&gt;Node21</title>
<path fill="none" stroke="midnightblue" d="M150.34,-332.09C149.94,-285.54 155.69,-168.68 219,-105 222.86,-101.12 227.45,-98.01 232.4,-95.53"/>
<polygon fill="midnightblue" stroke="midnightblue" points="146.85,-332.41 150.55,-342.34 153.85,-332.27 146.85,-332.41"/>
</g>
<!-- Node22 -->
<g id="node22" class="node">
<title>Node22</title>
<g id="a_node22"><a xlink:href="class_http_unstable.html" target="_top" xlink:title=" ">
<polygon fill="white" stroke="black" points="247,-38.5 247,-57.5 328,-57.5 328,-38.5 247,-38.5"/>
<text text-anchor="middle" x="287.5" y="-45.5" font-family="Helvetica,sans-Serif" font-size="10.00">HttpUnstable</text>
</a>
</g>
</g>
<!-- Node3&#45;&gt;Node22 -->
<g id="edge22" class="edge">
<title>Node3&#45;&gt;Node22</title>
<path fill="none" stroke="midnightblue" d="M153.12,-332.21C159.75,-274.12 181.83,-105.69 219,-67 226.34,-59.36 236.48,-54.72 246.68,-51.92"/>
<polygon fill="midnightblue" stroke="midnightblue" points="149.63,-331.97 152.01,-342.29 156.59,-332.74 149.63,-331.97"/>
</g>
<!-- Node23 -->
<g id="node23" class="node">
<title>Node23</title>
<g id="a_node23"><a xlink:href="class_http_zero_length.html" target="_top" xlink:title=" ">
<polygon fill="white" stroke="black" points="241,-0.5 241,-19.5 334,-19.5 334,-0.5 241,-0.5"/>
<text text-anchor="middle" x="287.5" y="-7.5" font-family="Helvetica,sans-Serif" font-size="10.00">HttpZeroLength</text>
</a>
</g>
</g>
<!-- Node3&#45;&gt;Node23 -->
<g id="edge23" class="edge">
<title>Node3&#45;&gt;Node23</title>
<path fill="none" stroke="midnightblue" d="M152.53,-332.12C157.79,-268.85 177.18,-73.72 219,-29 224.9,-22.69 232.73,-18.41 240.95,-15.54"/>
<polygon fill="midnightblue" stroke="midnightblue" points="149.02,-332.08 151.71,-342.33 156,-332.65 149.02,-332.08"/>
</g>
</g>
</svg>
