<?xml version="1.0" encoding="UTF-8" standalone="no"?>
<!DOCTYPE svg PUBLIC "-//W3C//DTD SVG 1.1//EN"
 "http://www.w3.org/Graphics/SVG/1.1/DTD/svg11.dtd">
<!-- Generated by graphviz version 2.43.0 (0)
 -->
<!-- Title: Graphical Class Hierarchy Pages: 1 -->
<svg width="330pt" height="256pt"
 viewBox="0.00 0.00 330.00 256.00" xmlns="http://www.w3.org/2000/svg" xmlns:xlink="http://www.w3.org/1999/xlink">
<g id="graph0" class="graph" transform="scale(1 1) rotate(0) translate(4 252)">
<title>Graphical Class Hierarchy</title>
<polygon fill="white" stroke="transparent" points="-4,4 -4,-252 326,-252 326,4 -4,4"/>
<!-- Node36 -->
<g id="node1" class="node">
<title>Node36</title>
<g id="a_node1"><a xlink:title=" ">
<polygon fill="white" stroke="#bfbfbf" points="38.5,-114.5 38.5,-133.5 74.5,-133.5 74.5,-114.5 38.5,-114.5"/>
<text text-anchor="middle" x="56.5" y="-121.5" font-family="Helvetica,sans-Serif" font-size="10.00">Test</text>
</a>
</g>
</g>
<!-- Node37 -->
<g id="node2" class="node">
<title>Node37</title>
<g id="a_node2"><a xlink:href="class_aktualizr_cert_provider_test.html" target="_top" xlink:title=" ">
<polygon fill="white" stroke="black" points="165.5,-228.5 165.5,-247.5 305.5,-247.5 305.5,-228.5 165.5,-228.5"/>
<text text-anchor="middle" x="235.5" y="-235.5" font-family="Helvetica,sans-Serif" font-size="10.00">AktualizrCertProviderTest</text>
</a>
</g>
</g>
<!-- Node36&#45;&gt;Node37 -->
<g id="edge1" class="edge">
<title>Node36&#45;&gt;Node37</title>
<path fill="none" stroke="midnightblue" d="M69.63,-141.94C85.33,-163.68 114.75,-199.78 149,-219 155.9,-222.87 163.52,-225.95 171.29,-228.41"/>
<polygon fill="midnightblue" stroke="midnightblue" points="72.38,-139.76 63.77,-133.59 66.65,-143.79 72.38,-139.76"/>
</g>
<!-- Node38 -->
<g id="node3" class="node">
<title>Node38</title>
<g id="a_node3"><a xlink:href="class_aktualizr_info_test.html" target="_top" xlink:title=" ">
<polygon fill="white" stroke="black" points="186.5,-190.5 186.5,-209.5 284.5,-209.5 284.5,-190.5 186.5,-190.5"/>
<text text-anchor="middle" x="235.5" y="-197.5" font-family="Helvetica,sans-Serif" font-size="10.00">AktualizrInfoTest</text>
</a>
</g>
</g>
<!-- Node36&#45;&gt;Node38 -->
<g id="edge2" class="edge">
<title>Node36&#45;&gt;Node38</title>
<path fill="none" stroke="midnightblue" d="M78.25,-139.8C96.11,-152.67 123.03,-170.39 149,-181 160.68,-185.77 173.78,-189.45 186.14,-192.24"/>
<polygon fill="midnightblue" stroke="midnightblue" points="79.92,-136.68 69.79,-133.57 75.77,-142.32 79.92,-136.68"/>
</g>
<!-- Node39 -->
<g id="node4" class="node">
<title>Node39</title>
<g id="a_node4"><a xlink:href="class_partial_verification_secondary_test.html" target="_top" xlink:title=" ">
<polygon fill="white" stroke="black" points="149,-152.5 149,-171.5 322,-171.5 322,-152.5 149,-152.5"/>
<text text-anchor="middle" x="235.5" y="-159.5" font-family="Helvetica,sans-Serif" font-size="10.00">PartialVerificationSecondaryTest</text>
</a>
</g>
</g>
<!-- Node36&#45;&gt;Node39 -->
<g id="edge3" class="edge">
<title>Node36&#45;&gt;Node39</title>
<path fill="none" stroke="midnightblue" d="M84.68,-129.84C112.69,-135.85 156.81,-145.32 189.94,-152.43"/>
<polygon fill="midnightblue" stroke="midnightblue" points="85.31,-126.39 74.79,-127.71 83.84,-133.23 85.31,-126.39"/>
</g>
<!-- Node40 -->
<g id="node5" class="node">
<title>Node40</title>
<g id="a_node5"><a xlink:href="class_secondary_ostree_test.html" target="_top" xlink:title=" ">
<polygon fill="white" stroke="black" points="176,-114.5 176,-133.5 295,-133.5 295,-114.5 176,-114.5"/>
<text text-anchor="middle" x="235.5" y="-121.5" font-family="Helvetica,sans-Serif" font-size="10.00">SecondaryOstreeTest</text>
</a>
</g>
</g>
<!-- Node36&#45;&gt;Node40 -->
<g id="edge4" class="edge">
<title>Node36&#45;&gt;Node40</title>
<path fill="none" stroke="midnightblue" d="M85,-124C109.16,-124 145.14,-124 175.75,-124"/>
<polygon fill="midnightblue" stroke="midnightblue" points="84.79,-120.5 74.79,-124 84.79,-127.5 84.79,-120.5"/>
</g>
<!-- Node41 -->
<g id="node6" class="node">
<title>Node41</title>
<g id="a_node6"><a xlink:href="class_secondary_test.html" target="_top" xlink:title=" ">
<polygon fill="white" stroke="black" points="192,-76.5 192,-95.5 279,-95.5 279,-76.5 192,-76.5"/>
<text text-anchor="middle" x="235.5" y="-83.5" font-family="Helvetica,sans-Serif" font-size="10.00">SecondaryTest</text>
</a>
</g>
</g>
<!-- Node36&#45;&gt;Node41 -->
<g id="edge5" class="edge">
<title>Node36&#45;&gt;Node41</title>
<path fill="none" stroke="midnightblue" d="M84.86,-118.13C113.4,-112 158.52,-102.31 191.77,-95.17"/>
<polygon fill="midnightblue" stroke="midnightblue" points="83.84,-114.77 74.79,-120.29 85.31,-121.61 83.84,-114.77"/>
</g>
<!-- Node0 -->
<g id="node7" class="node">
<title>Node0</title>
<g id="a_node7"><a xlink:href="class_secondary_test_negative.html" target="_top" xlink:title=" ">
<polygon fill="white" stroke="black" points="170,-0.5 170,-19.5 301,-19.5 301,-0.5 170,-0.5"/>
<text text-anchor="middle" x="235.5" y="-7.5" font-family="Helvetica,sans-Serif" font-size="10.00">SecondaryTestNegative</text>
</a>
</g>
</g>
<!-- Node36&#45;&gt;Node0 -->
<g id="edge6" class="edge">
<title>Node36&#45;&gt;Node0</title>
<path fill="none" stroke="midnightblue" d="M69.63,-106.06C85.33,-84.32 114.75,-48.22 149,-29 155.9,-25.13 163.52,-22.05 171.29,-19.59"/>
<polygon fill="midnightblue" stroke="midnightblue" points="66.65,-104.21 63.77,-114.41 72.38,-108.24 66.65,-104.21"/>
</g>
<!-- Node42 -->
<g id="node8" class="node">
<title>Node42</title>
<g id="a_node8"><a xlink:href="class_virtual_secondary_test.html" target="_top" xlink:title=" ">
<polygon fill="white" stroke="black" points="176,-38.5 176,-57.5 295,-57.5 295,-38.5 176,-38.5"/>
<text text-anchor="middle" x="235.5" y="-45.5" font-family="Helvetica,sans-Serif" font-size="10.00">VirtualSecondaryTest</text>
</a>
</g>
</g>
<!-- Node36&#45;&gt;Node42 -->
<g id="edge7" class="edge">
<title>Node36&#45;&gt;Node42</title>
<path fill="none" stroke="midnightblue" d="M78.25,-108.2C96.11,-95.33 123.03,-77.61 149,-67 158.29,-63.2 168.47,-60.1 178.47,-57.59"/>
<polygon fill="midnightblue" stroke="midnightblue" points="75.77,-105.68 69.79,-114.43 79.92,-111.32 75.77,-105.68"/>
</g>
<!-- Node2 -->
<g id="node9" class="node">
<title>Node2</title>
<g id="a_node9"><a xlink:title=" ">
<polygon fill="white" stroke="#bfbfbf" points="0,-0.5 0,-19.5 113,-19.5 113,-0.5 0,-0.5"/>
<text text-anchor="middle" x="56.5" y="-7.5" font-family="Helvetica,sans-Serif" font-size="10.00">WithParamInterface</text>
</a>
</g>
</g>
<!-- Node2&#45;&gt;Node0 -->
<g id="edge8" class="edge">
<title>Node2&#45;&gt;Node0</title>
<path fill="none" stroke="midnightblue" d="M123.37,-10C138.58,-10 154.74,-10 169.9,-10"/>
<polygon fill="midnightblue" stroke="midnightblue" points="123.02,-6.5 113.02,-10 123.02,-13.5 123.02,-6.5"/>
</g>
</g>
</svg>
