<?xml version="1.0" encoding="UTF-8" standalone="no"?>
<!DOCTYPE svg PUBLIC "-//W3C//DTD SVG 1.1//EN"
 "http://www.w3.org/Graphics/SVG/1.1/DTD/svg11.dtd">
<!-- Generated by graphviz version 2.43.0 (0)
 -->
<!-- Title: LiteClient Pages: 1 -->
<!--zoomable 597 -->
<svg id="main" version="1.1" xmlns="http://www.w3.org/2000/svg" xmlns:xlink="http://www.w3.org/1999/xlink" xml:space="preserve" onload="init(evt)">
<style type="text/css"><![CDATA[
.edge:hover path { stroke: red; }
.edge:hover polygon { stroke: red; fill: red; }
]]></style>
<script type="text/javascript"><![CDATA[
var edges = document.getElementsByTagName('g');
if (edges && edges.length) {
  for (var i=0;i<edges.length;i++) {
    if (edges[i].id.substr(0,4)=='edge') {
      edges[i].setAttribute('class','edge');
    }
  }
}
]]></script>
        <defs>
                <circle id="rim" cx="0" cy="0" r="7"/>
                <circle id="rim2" cx="0" cy="0" r="3.5"/>
                <g id="zoomPlus">
                        <use xlink:href="#rim" fill="#404040">
                                <set attributeName="fill" to="#808080" begin="zoomplus.mouseover" end="zoomplus.mouseout"/>
                        </use>
                        <path d="M-4,0h8M0,-4v8" fill="none" stroke="white" stroke-width="1.5" pointer-events="none"/>
                </g>
                <g id="zoomMin">
                        <use xlink:href="#rim" fill="#404040">
                                <set attributeName="fill" to="#808080" begin="zoomminus.mouseover" end="zoomminus.mouseout"/>
                        </use>
                        <path d="M-4,0h8" fill="none" stroke="white" stroke-width="1.5" pointer-events="none"/>
                </g>
                <g id="dirArrow">
                        <path fill="none" stroke="white" stroke-width="1.5" d="M0,-3.0v7 M-2.5,-0.5L0,-3.0L2.5,-0.5"/>
                </g>
               <g id="resetDef">
                       <use xlink:href="#rim2" fill="#404040">
                               <set attributeName="fill" to="#808080" begin="reset.mouseover" end="reset.mouseout"/>
                       </use>
               </g>
        </defs>

<script type="text/javascript">
var viewWidth = 1075;
var viewHeight = 597;
var sectionId = 'dynsection-0';
</script>
<script xlink:href="svgpan.js"/>
<svg id="graph" class="graph">
<g id="viewport">
<title>LiteClient</title>
<polygon fill="white" stroke="transparent" points="-4,4 -4,-593.31 1071,-593.31 1071,4 -4,4"/>
<!-- Node1 -->
<g id="node1" class="node">
<title>Node1</title>
<g id="a_node1"><a xlink:title=" ">
<polygon fill="#bfbfbf" stroke="black" points="1004,-167.31 1004,-186.31 1067,-186.31 1067,-167.31 1004,-167.31"/>
<text text-anchor="middle" x="1035.5" y="-174.31" font-family="Helvetica,sans-Serif" font-size="10.00">LiteClient</text>
</a>
</g>
</g>
<!-- Node2 -->
<g id="node2" class="node">
<title>Node2</title>
<g id="a_node2"><a xlink:title=" ">
<polygon fill="white" stroke="#bfbfbf" points="760,-167.31 760,-186.31 926,-186.31 926,-167.31 760,-167.31"/>
<text text-anchor="middle" x="843" y="-174.31" font-family="Helvetica,sans-Serif" font-size="10.00">std::shared_ptr&lt; INvStorage &gt;</text>
</a>
</g>
</g>
<!-- Node2&#45;&gt;Node1 -->
<g id="edge1" class="edge">
<title>Node2&#45;&gt;Node1</title>
<path fill="none" stroke="#9a32cd" stroke-dasharray="5,2" d="M936.24,-176.81C960.69,-176.81 985.4,-176.81 1003.93,-176.81"/>
<polygon fill="#9a32cd" stroke="#9a32cd" points="936.17,-173.31 926.17,-176.81 936.17,-180.31 936.17,-173.31"/>
<text text-anchor="middle" x="965" y="-179.81" font-family="Helvetica,sans-Serif" font-size="10.00"> storage</text>
</g>
<!-- Node3 -->
<g id="node3" class="node">
<title>Node3</title>
<g id="a_node3"><a xlink:href="class_i_nv_storage.html" target="_top" xlink:title=" ">
<polygon fill="white" stroke="black" points="620.5,-163.31 620.5,-182.31 691.5,-182.31 691.5,-163.31 620.5,-163.31"/>
<text text-anchor="middle" x="656" y="-170.31" font-family="Helvetica,sans-Serif" font-size="10.00">INvStorage</text>
</a>
</g>
</g>
<!-- Node3&#45;&gt;Node2 -->
<g id="edge2" class="edge">
<title>Node3&#45;&gt;Node2</title>
<path fill="none" stroke="#9a32cd" stroke-dasharray="5,2" d="M702.19,-173.78C719.56,-174.16 739.98,-174.6 759.76,-175.03"/>
<polygon fill="#9a32cd" stroke="#9a32cd" points="701.87,-170.28 691.8,-173.56 701.72,-177.27 701.87,-170.28"/>
<text text-anchor="middle" x="733.5" y="-176.81" font-family="Helvetica,sans-Serif" font-size="10.00"> ptr</text>
</g>
<!-- Node4 -->
<g id="node4" class="node">
<title>Node4</title>
<g id="a_node4"><a xlink:href="struct_storage_config.html" target="_top" xlink:title=" ">
<polygon fill="white" stroke="black" points="420,-114.31 420,-133.31 505,-133.31 505,-114.31 420,-114.31"/>
<text text-anchor="middle" x="462.5" y="-121.31" font-family="Helvetica,sans-Serif" font-size="10.00">StorageConfig</text>
</a>
</g>
</g>
<!-- Node4&#45;&gt;Node3 -->
<g id="edge3" class="edge">
<title>Node4&#45;&gt;Node3</title>
<path fill="none" stroke="#9a32cd" stroke-dasharray="5,2" d="M515.16,-113.69C538.39,-111.7 565.39,-113.13 587,-124.81 599.69,-131.66 593.88,-142.62 605,-151.81 610.66,-156.48 617.52,-160.26 624.31,-163.25"/>
<polygon fill="#9a32cd" stroke="#9a32cd" points="514.68,-110.22 505.12,-114.77 515.44,-117.18 514.68,-110.22"/>
<text text-anchor="middle" x="559" y="-127.81" font-family="Helvetica,sans-Serif" font-size="10.00"> config_</text>
</g>
<!-- Node6 -->
<g id="node6" class="node">
<title>Node6</title>
<g id="a_node6"><a xlink:href="class_config.html" target="_top" xlink:title="Configuration object for an aktualizr instance running on a primary ECU.">
<polygon fill="white" stroke="black" points="632.5,-309.31 632.5,-328.31 679.5,-328.31 679.5,-309.31 632.5,-309.31"/>
<text text-anchor="middle" x="656" y="-316.31" font-family="Helvetica,sans-Serif" font-size="10.00">Config</text>
</a>
</g>
</g>
<!-- Node4&#45;&gt;Node6 -->
<g id="edge8" class="edge">
<title>Node4&#45;&gt;Node6</title>
<path fill="none" stroke="#9a32cd" stroke-dasharray="5,2" d="M512.79,-136.46C537.51,-144.84 566.47,-158.03 587,-177.81 627.32,-216.65 646.78,-284.28 652.85,-309.22"/>
<polygon fill="#9a32cd" stroke="#9a32cd" points="513.8,-133.1 503.21,-133.37 511.65,-139.76 513.8,-133.1"/>
<text text-anchor="middle" x="559" y="-180.81" font-family="Helvetica,sans-Serif" font-size="10.00"> storage</text>
</g>
<!-- Node5 -->
<g id="node5" class="node">
<title>Node5</title>
<g id="a_node5"><a xlink:href="class_based_path.html" target="_top" xlink:title=" ">
<polygon fill="white" stroke="black" points="163.5,-62.31 163.5,-81.31 231.5,-81.31 231.5,-62.31 163.5,-62.31"/>
<text text-anchor="middle" x="197.5" y="-69.31" font-family="Helvetica,sans-Serif" font-size="10.00">BasedPath</text>
</a>
</g>
</g>
<!-- Node5&#45;&gt;Node4 -->
<g id="edge4" class="edge">
<title>Node5&#45;&gt;Node4</title>
<path fill="none" stroke="#9a32cd" stroke-dasharray="5,2" d="M214.53,-54.89C228.32,-41.66 249.5,-24.29 272,-16.81 323.45,0.31 346.52,9.38 394,-16.81 432.66,-38.13 452.22,-91.93 458.84,-114.06"/>
<polygon fill="#9a32cd" stroke="#9a32cd" points="211.92,-52.55 207.32,-62.09 216.87,-57.51 211.92,-52.55"/>
<text text-anchor="middle" x="333" y="-96.81" font-family="Helvetica,sans-Serif" font-size="10.00"> uptane_public_key_path</text>
<text text-anchor="middle" x="333" y="-85.81" font-family="Helvetica,sans-Serif" font-size="10.00">tls_pkey_path</text>
<text text-anchor="middle" x="333" y="-74.81" font-family="Helvetica,sans-Serif" font-size="10.00">uptane_metadata_path</text>
<text text-anchor="middle" x="333" y="-63.81" font-family="Helvetica,sans-Serif" font-size="10.00">sqldb_path</text>
<text text-anchor="start" x="272" y="-52.81" font-family="Helvetica,sans-Serif" font-size="10.00">uptane_private_key</text>
<text text-anchor="middle" x="333" y="-41.81" font-family="Helvetica,sans-Serif" font-size="10.00">_path</text>
<text text-anchor="middle" x="333" y="-30.81" font-family="Helvetica,sans-Serif" font-size="10.00">tls_cacert_path</text>
<text text-anchor="middle" x="333" y="-19.81" font-family="Helvetica,sans-Serif" font-size="10.00">tls_clientcert_path</text>
</g>
<!-- Node18 -->
<g id="node18" class="node">
<title>Node18</title>
<g id="a_node18"><a xlink:href="struct_import_config.html" target="_top" xlink:title=" ">
<polygon fill="white" stroke="black" points="422.5,-164.31 422.5,-183.31 502.5,-183.31 502.5,-164.31 422.5,-164.31"/>
<text text-anchor="middle" x="462.5" y="-171.31" font-family="Helvetica,sans-Serif" font-size="10.00">ImportConfig</text>
</a>
</g>
</g>
<!-- Node5&#45;&gt;Node18 -->
<g id="edge23" class="edge">
<title>Node5&#45;&gt;Node18</title>
<path fill="none" stroke="#9a32cd" stroke-dasharray="5,2" d="M227.04,-85.82C240.48,-92.11 256.86,-99.33 272,-104.81 324.94,-123.94 341.62,-118.19 394,-138.81 412.18,-145.96 431.9,-156.54 445.3,-164.2"/>
<polygon fill="#9a32cd" stroke="#9a32cd" points="228.36,-82.58 217.82,-81.44 225.35,-88.9 228.36,-82.58"/>
<text text-anchor="middle" x="333" y="-196.81" font-family="Helvetica,sans-Serif" font-size="10.00"> uptane_public_key_path</text>
<text text-anchor="middle" x="333" y="-185.81" font-family="Helvetica,sans-Serif" font-size="10.00">tls_pkey_path</text>
<text text-anchor="start" x="272" y="-174.81" font-family="Helvetica,sans-Serif" font-size="10.00">uptane_private_key</text>
<text text-anchor="middle" x="333" y="-163.81" font-family="Helvetica,sans-Serif" font-size="10.00">_path</text>
<text text-anchor="middle" x="333" y="-152.81" font-family="Helvetica,sans-Serif" font-size="10.00">tls_cacert_path</text>
<text text-anchor="middle" x="333" y="-141.81" font-family="Helvetica,sans-Serif" font-size="10.00">tls_clientcert_path</text>
</g>
<!-- Node6&#45;&gt;Node1 -->
<g id="edge5" class="edge">
<title>Node6&#45;&gt;Node1</title>
<path fill="none" stroke="#9a32cd" stroke-dasharray="5,2" d="M689.44,-306.6C763.15,-278.88 941.95,-211.62 1008.76,-186.49"/>
<polygon fill="#9a32cd" stroke="#9a32cd" points="687.89,-303.45 679.76,-310.24 690.36,-310 687.89,-303.45"/>
<text text-anchor="middle" x="843" y="-282.81" font-family="Helvetica,sans-Serif" font-size="10.00"> config</text>
</g>
<!-- Node7 -->
<g id="node7" class="node">
<title>Node7</title>
<g id="a_node7"><a xlink:href="class_base_config.html" target="_top" xlink:title=" ">
<polygon fill="white" stroke="black" points="427,-542.31 427,-561.31 498,-561.31 498,-542.31 427,-542.31"/>
<text text-anchor="middle" x="462.5" y="-549.31" font-family="Helvetica,sans-Serif" font-size="10.00">BaseConfig</text>
</a>
</g>
</g>
<!-- Node7&#45;&gt;Node6 -->
<g id="edge6" class="edge">
<title>Node7&#45;&gt;Node6</title>
<path fill="none" stroke="midnightblue" d="M507.8,-540.49C533.88,-531.81 565.8,-517.41 587,-494.81 634.29,-444.4 649.82,-357.52 653.82,-328.54"/>
<polygon fill="midnightblue" stroke="midnightblue" points="506.61,-537.2 498.13,-543.54 508.72,-543.87 506.61,-537.2"/>
</g>
<!-- Node8 -->
<g id="node8" class="node">
<title>Node8</title>
<g id="a_node8"><a xlink:title=" ">
<polygon fill="white" stroke="#bfbfbf" points="141,-558.81 141,-588.81 254,-588.81 254,-558.81 141,-558.81"/>
<text text-anchor="start" x="149" y="-576.81" font-family="Helvetica,sans-Serif" font-size="10.00">std::vector&lt; boost</text>
<text text-anchor="middle" x="197.5" y="-565.81" font-family="Helvetica,sans-Serif" font-size="10.00">::filesystem::path &gt;</text>
</a>
</g>
</g>
<!-- Node8&#45;&gt;Node7 -->
<g id="edge7" class="edge">
<title>Node8&#45;&gt;Node7</title>
<path fill="none" stroke="#9a32cd" stroke-dasharray="5,2" d="M264.33,-568.3C315.86,-563.99 385.49,-558.16 426.73,-554.71"/>
<polygon fill="#9a32cd" stroke="#9a32cd" points="263.95,-564.82 254.28,-569.14 264.53,-571.79 263.95,-564.82"/>
<text text-anchor="middle" x="333" y="-569.81" font-family="Helvetica,sans-Serif" font-size="10.00"> config_dirs_</text>
</g>
<!-- Node9 -->
<g id="node9" class="node">
<title>Node9</title>
<g id="a_node9"><a xlink:href="struct_tls_config.html" target="_top" xlink:title=" ">
<polygon fill="white" stroke="black" points="431.5,-366.31 431.5,-385.31 493.5,-385.31 493.5,-366.31 431.5,-366.31"/>
<text text-anchor="middle" x="462.5" y="-373.31" font-family="Helvetica,sans-Serif" font-size="10.00">TlsConfig</text>
</a>
</g>
</g>
<!-- Node9&#45;&gt;Node6 -->
<g id="edge9" class="edge">
<title>Node9&#45;&gt;Node6</title>
<path fill="none" stroke="#9a32cd" stroke-dasharray="5,2" d="M503.68,-367C527.99,-361.36 559.51,-353.48 587,-344.81 602.31,-339.98 619.16,-333.54 632.26,-328.28"/>
<polygon fill="#9a32cd" stroke="#9a32cd" points="502.69,-363.63 493.73,-369.28 504.26,-370.46 502.69,-363.63"/>
<text text-anchor="middle" x="559" y="-362.81" font-family="Helvetica,sans-Serif" font-size="10.00"> tls</text>
</g>
<!-- Node10 -->
<g id="node10" class="node">
<title>Node10</title>
<g id="a_node10"><a xlink:title="STL class.">
<polygon fill="white" stroke="#bfbfbf" points="165,-390.31 165,-409.31 230,-409.31 230,-390.31 165,-390.31"/>
<text text-anchor="middle" x="197.5" y="-397.31" font-family="Helvetica,sans-Serif" font-size="10.00">std::string</text>
</a>
</g>
</g>
<!-- Node10&#45;&gt;Node9 -->
<g id="edge10" class="edge">
<title>Node10&#45;&gt;Node9</title>
<path fill="none" stroke="#9a32cd" stroke-dasharray="5,2" d="M240.31,-392.96C250.64,-391.43 261.71,-389.93 272,-388.81 328.06,-382.7 393.78,-378.95 431.24,-377.13"/>
<polygon fill="#9a32cd" stroke="#9a32cd" points="239.62,-389.52 230.26,-394.48 240.68,-396.44 239.62,-389.52"/>
<text text-anchor="middle" x="333" y="-391.81" font-family="Helvetica,sans-Serif" font-size="10.00"> server</text>
</g>
<!-- Node13 -->
<g id="node13" class="node">
<title>Node13</title>
<g id="a_node13"><a xlink:href="struct_package_config.html" target="_top" xlink:title=" ">
<polygon fill="white" stroke="black" points="418.5,-328.31 418.5,-347.31 506.5,-347.31 506.5,-328.31 418.5,-328.31"/>
<text text-anchor="middle" x="462.5" y="-335.31" font-family="Helvetica,sans-Serif" font-size="10.00">PackageConfig</text>
</a>
</g>
</g>
<!-- Node10&#45;&gt;Node13 -->
<g id="edge14" class="edge">
<title>Node10&#45;&gt;Node13</title>
<path fill="none" stroke="#9a32cd" stroke-dasharray="5,2" d="M217.48,-383.94C231.58,-373.13 251.79,-359.59 272,-352.81 320.18,-336.63 378.97,-334.49 418.17,-335.35"/>
<polygon fill="#9a32cd" stroke="#9a32cd" points="215.21,-381.28 209.55,-390.23 219.56,-386.76 215.21,-381.28"/>
<text text-anchor="middle" x="333" y="-366.81" font-family="Helvetica,sans-Serif" font-size="10.00"> os</text>
<text text-anchor="middle" x="333" y="-355.81" font-family="Helvetica,sans-Serif" font-size="10.00">ostree_server</text>
</g>
<!-- Node14 -->
<g id="node14" class="node">
<title>Node14</title>
<g id="a_node14"><a xlink:href="struct_provision_config.html" target="_top" xlink:title=" ">
<polygon fill="white" stroke="black" points="416.5,-290.31 416.5,-309.31 508.5,-309.31 508.5,-290.31 416.5,-290.31"/>
<text text-anchor="middle" x="462.5" y="-297.31" font-family="Helvetica,sans-Serif" font-size="10.00">ProvisionConfig</text>
</a>
</g>
</g>
<!-- Node10&#45;&gt;Node14 -->
<g id="edge16" class="edge">
<title>Node10&#45;&gt;Node14</title>
<path fill="none" stroke="#9a32cd" stroke-dasharray="5,2" d="M200.38,-379.9C205.06,-343.14 220.81,-265.28 272,-231.81 317.38,-202.13 349.54,-200.77 394,-231.81 413.02,-245.08 395.71,-264.28 412,-280.81 415.81,-284.67 420.5,-287.77 425.45,-290.24"/>
<polygon fill="#9a32cd" stroke="#9a32cd" points="196.9,-379.57 199.26,-389.9 203.86,-380.35 196.9,-379.57"/>
<text text-anchor="middle" x="333" y="-322.81" font-family="Helvetica,sans-Serif" font-size="10.00"> server</text>
<text text-anchor="middle" x="333" y="-311.81" font-family="Helvetica,sans-Serif" font-size="10.00">p12_password</text>
<text text-anchor="start" x="277" y="-300.81" font-family="Helvetica,sans-Serif" font-size="10.00">primary_ecu_hardware</text>
<text text-anchor="middle" x="333" y="-289.81" font-family="Helvetica,sans-Serif" font-size="10.00">_id</text>
<text text-anchor="middle" x="333" y="-278.81" font-family="Helvetica,sans-Serif" font-size="10.00">expiry_days</text>
<text text-anchor="middle" x="333" y="-267.81" font-family="Helvetica,sans-Serif" font-size="10.00">device_id</text>
<text text-anchor="start" x="277" y="-256.81" font-family="Helvetica,sans-Serif" font-size="10.00">ecu_registration</text>
<text text-anchor="middle" x="333" y="-245.81" font-family="Helvetica,sans-Serif" font-size="10.00">_endpoint</text>
<text text-anchor="middle" x="333" y="-234.81" font-family="Helvetica,sans-Serif" font-size="10.00">primary_ecu_serial</text>
</g>
<!-- Node15 -->
<g id="node15" class="node">
<title>Node15</title>
<g id="a_node15"><a xlink:href="struct_p11_config.html" target="_top" xlink:title=" ">
<polygon fill="white" stroke="black" points="430,-483.31 430,-502.31 495,-502.31 495,-483.31 430,-483.31"/>
<text text-anchor="middle" x="462.5" y="-490.31" font-family="Helvetica,sans-Serif" font-size="10.00">P11Config</text>
</a>
</g>
</g>
<!-- Node10&#45;&gt;Node15 -->
<g id="edge18" class="edge">
<title>Node10&#45;&gt;Node15</title>
<path fill="none" stroke="#9a32cd" stroke-dasharray="5,2" d="M211.48,-417.85C224.66,-434.65 246.7,-458.84 272,-470.81 323.35,-495.09 390.94,-496.71 429.97,-495.14"/>
<polygon fill="#9a32cd" stroke="#9a32cd" points="213.92,-415.28 205.1,-409.41 208.34,-419.5 213.92,-415.28"/>
<text text-anchor="middle" x="333" y="-541.81" font-family="Helvetica,sans-Serif" font-size="10.00"> tls_pkey_id</text>
<text text-anchor="middle" x="333" y="-530.81" font-family="Helvetica,sans-Serif" font-size="10.00">tls_clientcert_id</text>
<text text-anchor="middle" x="333" y="-519.81" font-family="Helvetica,sans-Serif" font-size="10.00">pass</text>
<text text-anchor="middle" x="333" y="-508.81" font-family="Helvetica,sans-Serif" font-size="10.00">uptane_key_id</text>
<text text-anchor="middle" x="333" y="-497.81" font-family="Helvetica,sans-Serif" font-size="10.00">tls_cacert_id</text>
</g>
<!-- Node16 -->
<g id="node16" class="node">
<title>Node16</title>
<g id="a_node16"><a xlink:href="struct_uptane_config.html" target="_top" xlink:title=" ">
<polygon fill="white" stroke="black" points="421,-442.31 421,-461.31 504,-461.31 504,-442.31 421,-442.31"/>
<text text-anchor="middle" x="462.5" y="-449.31" font-family="Helvetica,sans-Serif" font-size="10.00">UptaneConfig</text>
</a>
</g>
</g>
<!-- Node10&#45;&gt;Node16 -->
<g id="edge20" class="edge">
<title>Node10&#45;&gt;Node16</title>
<path fill="none" stroke="#9a32cd" stroke-dasharray="5,2" d="M232.44,-412.82C244.75,-417.15 258.86,-421.66 272,-424.81 322.58,-436.9 382.14,-444.3 420.8,-448.22"/>
<polygon fill="#9a32cd" stroke="#9a32cd" points="233.59,-409.52 223,-409.42 231.22,-416.1 233.59,-409.52"/>
<text text-anchor="middle" x="333" y="-458.81" font-family="Helvetica,sans-Serif" font-size="10.00"> repo_server</text>
<text text-anchor="middle" x="333" y="-447.81" font-family="Helvetica,sans-Serif" font-size="10.00">director_server</text>
</g>
<!-- Node19 -->
<g id="node19" class="node">
<title>Node19</title>
<g id="a_node19"><a xlink:href="struct_bootloader_config.html" target="_top" xlink:title=" ">
<polygon fill="white" stroke="black" points="412,-404.31 412,-423.31 513,-423.31 513,-404.31 412,-404.31"/>
<text text-anchor="middle" x="462.5" y="-411.31" font-family="Helvetica,sans-Serif" font-size="10.00">BootloaderConfig</text>
</a>
</g>
</g>
<!-- Node10&#45;&gt;Node19 -->
<g id="edge25" class="edge">
<title>Node10&#45;&gt;Node19</title>
<path fill="none" stroke="#9a32cd" stroke-dasharray="5,2" d="M240.27,-402.03C286.84,-404.51 362.1,-408.51 411.7,-411.15"/>
<polygon fill="#9a32cd" stroke="#9a32cd" points="240.4,-398.53 230.22,-401.49 240.02,-405.52 240.4,-398.53"/>
<text text-anchor="middle" x="333" y="-412.81" font-family="Helvetica,sans-Serif" font-size="10.00"> reboot_command</text>
</g>
<!-- Node11 -->
<g id="node11" class="node">
<title>Node11</title>
<g id="a_node11"><a xlink:title="STL class.">
<polygon fill="white" stroke="#bfbfbf" points="0,-384.81 0,-414.81 104,-414.81 104,-384.81 0,-384.81"/>
<text text-anchor="start" x="8" y="-402.81" font-family="Helvetica,sans-Serif" font-size="10.00">std::basic_string&lt;</text>
<text text-anchor="middle" x="52" y="-391.81" font-family="Helvetica,sans-Serif" font-size="10.00"> char &gt;</text>
</a>
</g>
</g>
<!-- Node11&#45;&gt;Node10 -->
<g id="edge11" class="edge">
<title>Node11&#45;&gt;Node10</title>
<path fill="none" stroke="midnightblue" d="M114.45,-399.81C131.74,-399.81 149.84,-399.81 164.63,-399.81"/>
<polygon fill="midnightblue" stroke="midnightblue" points="114.4,-396.31 104.4,-399.81 114.4,-403.31 114.4,-396.31"/>
</g>
<!-- Node12 -->
<g id="node12" class="node">
<title>Node12</title>
<g id="a_node12"><a xlink:href="struct_logger_config.html" target="_top" xlink:title=" ">
<polygon fill="white" stroke="black" points="422.5,-252.31 422.5,-271.31 502.5,-271.31 502.5,-252.31 422.5,-252.31"/>
<text text-anchor="middle" x="462.5" y="-259.31" font-family="Helvetica,sans-Serif" font-size="10.00">LoggerConfig</text>
</a>
</g>
</g>
<!-- Node12&#45;&gt;Node6 -->
<g id="edge12" class="edge">
<title>Node12&#45;&gt;Node6</title>
<path fill="none" stroke="#9a32cd" stroke-dasharray="5,2" d="M512.48,-270.79C535.38,-275.53 562.86,-281.99 587,-289.81 603.61,-295.18 621.76,-303.03 635.13,-309.21"/>
<polygon fill="#9a32cd" stroke="#9a32cd" points="513.14,-267.36 502.64,-268.8 511.75,-274.22 513.14,-267.36"/>
<text text-anchor="middle" x="559" y="-292.81" font-family="Helvetica,sans-Serif" font-size="10.00"> logger</text>
</g>
<!-- Node13&#45;&gt;Node6 -->
<g id="edge13" class="edge">
<title>Node13&#45;&gt;Node6</title>
<path fill="none" stroke="#9a32cd" stroke-dasharray="5,2" d="M517.34,-332.46C555.28,-328.7 604.17,-323.85 632.31,-321.06"/>
<polygon fill="#9a32cd" stroke="#9a32cd" points="516.56,-329.02 506.95,-333.49 517.25,-335.99 516.56,-329.02"/>
<text text-anchor="middle" x="559" y="-332.81" font-family="Helvetica,sans-Serif" font-size="10.00"> pacman</text>
</g>
<!-- Node14&#45;&gt;Node6 -->
<g id="edge15" class="edge">
<title>Node14&#45;&gt;Node6</title>
<path fill="none" stroke="#9a32cd" stroke-dasharray="5,2" d="M518.87,-304.4C540.18,-306.26 564.74,-308.51 587,-310.81 602.13,-312.37 619.13,-314.37 632.35,-315.98"/>
<polygon fill="#9a32cd" stroke="#9a32cd" points="518.96,-300.9 508.7,-303.52 518.36,-307.87 518.96,-300.9"/>
<text text-anchor="middle" x="559" y="-313.81" font-family="Helvetica,sans-Serif" font-size="10.00"> provision</text>
</g>
<!-- Node15&#45;&gt;Node6 -->
<g id="edge17" class="edge">
<title>Node15&#45;&gt;Node6</title>
<path fill="none" stroke="#9a32cd" stroke-dasharray="5,2" d="M505.15,-487.2C531.18,-481.86 564,-471.55 587,-451.81 627.34,-417.18 646.68,-352.72 652.78,-328.42"/>
<polygon fill="#9a32cd" stroke="#9a32cd" points="504.37,-483.79 495.19,-489.08 505.66,-490.67 504.37,-483.79"/>
<text text-anchor="middle" x="559" y="-482.81" font-family="Helvetica,sans-Serif" font-size="10.00"> p11</text>
</g>
<!-- Node16&#45;&gt;Node6 -->
<g id="edge19" class="edge">
<title>Node16&#45;&gt;Node6</title>
<path fill="none" stroke="#9a32cd" stroke-dasharray="5,2" d="M514.14,-442.94C537.89,-436.99 565.59,-427.3 587,-411.81 618.44,-389.06 641.28,-347.38 650.5,-328.53"/>
<polygon fill="#9a32cd" stroke="#9a32cd" points="513.17,-439.58 504.24,-445.27 514.78,-446.39 513.17,-439.58"/>
<text text-anchor="middle" x="559" y="-439.81" font-family="Helvetica,sans-Serif" font-size="10.00"> uptane</text>
</g>
<!-- Node17 -->
<g id="node17" class="node">
<title>Node17</title>
<g id="a_node17"><a xlink:href="struct_telemetry_config.html" target="_top" xlink:title=" ">
<polygon fill="white" stroke="black" points="414.5,-214.31 414.5,-233.31 510.5,-233.31 510.5,-214.31 414.5,-214.31"/>
<text text-anchor="middle" x="462.5" y="-221.31" font-family="Helvetica,sans-Serif" font-size="10.00">TelemetryConfig</text>
</a>
</g>
</g>
<!-- Node17&#45;&gt;Node6 -->
<g id="edge21" class="edge">
<title>Node17&#45;&gt;Node6</title>
<path fill="none" stroke="#9a32cd" stroke-dasharray="5,2" d="M520.27,-234.9C541.97,-240.52 566.42,-248.59 587,-259.81 611.15,-272.97 634.24,-295.92 646.3,-308.98"/>
<polygon fill="#9a32cd" stroke="#9a32cd" points="521.06,-231.49 510.52,-232.49 519.38,-238.29 521.06,-231.49"/>
<text text-anchor="middle" x="559" y="-262.81" font-family="Helvetica,sans-Serif" font-size="10.00"> telemetry</text>
</g>
<!-- Node18&#45;&gt;Node6 -->
<g id="edge22" class="edge">
<title>Node18&#45;&gt;Node6</title>
<path fill="none" stroke="#9a32cd" stroke-dasharray="5,2" d="M512.36,-186.04C536.55,-193.78 565.16,-205.64 587,-222.81 618.31,-247.42 641.38,-290.23 650.59,-309.24"/>
<polygon fill="#9a32cd" stroke="#9a32cd" points="513.23,-182.64 502.64,-183.07 511.18,-189.34 513.23,-182.64"/>
<text text-anchor="middle" x="559" y="-225.81" font-family="Helvetica,sans-Serif" font-size="10.00"> import</text>
</g>
<!-- Node19&#45;&gt;Node6 -->
<g id="edge24" class="edge">
<title>Node19&#45;&gt;Node6</title>
<path fill="none" stroke="#9a32cd" stroke-dasharray="5,2" d="M517.4,-401.62C539.72,-395.36 565.4,-386.53 587,-374.81 610.39,-362.11 633.4,-340.8 645.74,-328.45"/>
<polygon fill="#9a32cd" stroke="#9a32cd" points="516.47,-398.24 507.73,-404.23 518.29,-405 516.47,-398.24"/>
<text text-anchor="middle" x="559" y="-399.81" font-family="Helvetica,sans-Serif" font-size="10.00"> bootloader</text>
</g>
<!-- Node20 -->
<g id="node20" class="node">
<title>Node20</title>
<g id="a_node20"><a xlink:title=" ">
<polygon fill="white" stroke="#bfbfbf" points="764,-117.81 764,-147.81 922,-147.81 922,-117.81 764,-117.81"/>
<text text-anchor="start" x="772" y="-135.81" font-family="Helvetica,sans-Serif" font-size="10.00">std::shared_ptr&lt; SotaUptane</text>
<text text-anchor="middle" x="843" y="-124.81" font-family="Helvetica,sans-Serif" font-size="10.00">Client &gt;</text>
</a>
</g>
</g>
<!-- Node20&#45;&gt;Node1 -->
<g id="edge26" class="edge">
<title>Node20&#45;&gt;Node1</title>
<path fill="none" stroke="#9a32cd" stroke-dasharray="5,2" d="M931.95,-149.36C949.91,-153.13 968.62,-157.36 986,-161.81 992.32,-163.42 999.04,-165.36 1005.39,-167.29"/>
<polygon fill="#9a32cd" stroke="#9a32cd" points="932.57,-145.91 922.07,-147.31 931.15,-152.77 932.57,-145.91"/>
<text text-anchor="middle" x="965" y="-164.81" font-family="Helvetica,sans-Serif" font-size="10.00"> primary</text>
</g>
<!-- Node21 -->
<g id="node21" class="node">
<title>Node21</title>
<g id="a_node21"><a xlink:href="class_sota_uptane_client.html" target="_top" xlink:title=" ">
<polygon fill="white" stroke="black" points="605,-123.31 605,-142.31 707,-142.31 707,-123.31 605,-123.31"/>
<text text-anchor="middle" x="656" y="-130.31" font-family="Helvetica,sans-Serif" font-size="10.00">SotaUptaneClient</text>
</a>
</g>
</g>
<!-- Node21&#45;&gt;Node20 -->
<g id="edge27" class="edge">
<title>Node21&#45;&gt;Node20</title>
<path fill="none" stroke="#9a32cd" stroke-dasharray="5,2" d="M717.12,-132.81C731.98,-132.81 748.11,-132.81 763.7,-132.81"/>
<polygon fill="#9a32cd" stroke="#9a32cd" points="717.06,-129.31 707.06,-132.81 717.06,-136.31 717.06,-129.31"/>
<text text-anchor="middle" x="733.5" y="-135.81" font-family="Helvetica,sans-Serif" font-size="10.00"> ptr</text>
</g>
</g>
</svg>
        <g id="navigator" transform="translate(0 0)" fill="#404254">
                <rect fill="#f2f5e9" fill-opacity="0.5" stroke="#606060" stroke-width=".5" x="0" y="0" width="60" height="60"/>
                <use id="zoomplus" xlink:href="#zoomPlus" x="17" y="9" onmousedown="handleZoom(evt,'in')"/>
                <use id="zoomminus" xlink:href="#zoomMin" x="42" y="9" onmousedown="handleZoom(evt,'out')"/>
                <use id="reset" xlink:href="#resetDef" x="30" y="36" onmousedown="handleReset()"/>
                <g id="arrowUp" xlink:href="#dirArrow" transform="translate(30 24)" onmousedown="handlePan(0,-1)">
                  <use xlink:href="#rim" fill="#404040">
                        <set attributeName="fill" to="#808080" begin="arrowUp.mouseover" end="arrowUp.mouseout"/>
                  </use>
                  <path fill="none" stroke="white" stroke-width="1.5" d="M0,-3.0v7 M-2.5,-0.5L0,-3.0L2.5,-0.5"/>
                </g>
                <g id="arrowRight" xlink:href="#dirArrow" transform="rotate(90) translate(36 -43)" onmousedown="handlePan(1,0)">
                  <use xlink:href="#rim" fill="#404040">
                        <set attributeName="fill" to="#808080" begin="arrowRight.mouseover" end="arrowRight.mouseout"/>
                  </use>
                  <path fill="none" stroke="white" stroke-width="1.5" d="M0,-3.0v7 M-2.5,-0.5L0,-3.0L2.5,-0.5"/>
                </g>
                <g id="arrowDown" xlink:href="#dirArrow" transform="rotate(180) translate(-30 -48)" onmousedown="handlePan(0,1)">
                  <use xlink:href="#rim" fill="#404040">
                        <set attributeName="fill" to="#808080" begin="arrowDown.mouseover" end="arrowDown.mouseout"/>
                  </use>
                  <path fill="none" stroke="white" stroke-width="1.5" d="M0,-3.0v7 M-2.5,-0.5L0,-3.0L2.5,-0.5"/>
                </g>
                <g id="arrowLeft" xlink:href="#dirArrow" transform="rotate(270) translate(-36 17)" onmousedown="handlePan(-1,0)">
                  <use xlink:href="#rim" fill="#404040">
                        <set attributeName="fill" to="#808080" begin="arrowLeft.mouseover" end="arrowLeft.mouseout"/>
                  </use>
                  <path fill="none" stroke="white" stroke-width="1.5" d="M0,-3.0v7 M-2.5,-0.5L0,-3.0L2.5,-0.5"/>
                </g>
        </g>
        <svg viewBox="0 0 15 15" width="100%" height="30px" preserveAspectRatio="xMaxYMin meet">
         <g id="arrow_out" transform="scale(0.3 0.3)">
          <a xlink:href="struct_lite_client__coll__graph_org.svg" target="_base">
           <rect id="button" ry="5" rx="5" y="6" x="6" height="38" width="38"
                fill="#f2f5e9" fill-opacity="0.5" stroke="#606060" stroke-width="1.0"/>
           <path id="arrow"
             d="M 11.500037,31.436501 C 11.940474,20.09759 22.043105,11.32322 32.158766,21.979434 L 37.068811,17.246167 C 37.068811,17.246167 37.088388,32 37.088388,32 L 22.160133,31.978069 C 22.160133,31.978069 26.997745,27.140456 26.997745,27.140456 C 18.528582,18.264221 13.291696,25.230495 11.500037,31.436501 z"
             style="fill:#404040;"/>
          </a>
         </g>
        </svg>
</svg>
