<?xml version="1.0" encoding="UTF-8" standalone="no"?>
<!DOCTYPE svg PUBLIC "-//W3C//DTD SVG 1.1//EN"
 "http://www.w3.org/Graphics/SVG/1.1/DTD/svg11.dtd">
<!-- Generated by graphviz version 2.40.1 (20161225.0304)
 -->
<!-- Title: DockerAppManager Pages: 1 -->
<svg width="271pt" height="435pt"
 viewBox="0.00 0.00 270.50 435.00" xmlns="http://www.w3.org/2000/svg" xmlns:xlink="http://www.w3.org/1999/xlink">
<g id="graph0" class="graph" transform="scale(1 1) rotate(0) translate(4 431)">
<title>DockerAppManager</title>
<polygon fill="#ffffff" stroke="transparent" points="-4,4 -4,-431 266.5,-431 266.5,4 -4,4"/>
<!-- Node3 -->
<g id="node1" class="node">
<title>Node3</title>
<polygon fill="#bfbfbf" stroke="#000000" points="15.5,-.5 15.5,-19.5 127.5,-19.5 127.5,-.5 15.5,-.5"/>
<text text-anchor="middle" x="71.5" y="-7.5" font-family="Helvetica,sans-Serif" font-size="10.00" fill="#000000">DockerAppManager</text>
</g>
<!-- Node4 -->
<g id="node2" class="node">
<title>Node4</title>
<g id="a_node2"><a xlink:href="class_ostree_manager.html" target="_top" xlink:title="OstreeManager">
<polygon fill="#ffffff" stroke="#000000" points="26,-57.5 26,-76.5 117,-76.5 117,-57.5 26,-57.5"/>
<text text-anchor="middle" x="71.5" y="-64.5" font-family="Helvetica,sans-Serif" font-size="10.00" fill="#000000">OstreeManager</text>
</a>
</g>
</g>
<!-- Node4&#45;&gt;Node3 -->
<g id="edge1" class="edge">
<title>Node4&#45;&gt;Node3</title>
<path fill="none" stroke="#191970" d="M71.5,-47.2342C71.5,-37.8491 71.5,-27.0651 71.5,-19.5265"/>
<polygon fill="#191970" stroke="#191970" points="68.0001,-47.3307 71.5,-57.3307 75.0001,-47.3308 68.0001,-47.3307"/>
</g>
<!-- Node5 -->
<g id="node3" class="node">
<title>Node5</title>
<g id="a_node3"><a xlink:href="class_package_manager_interface.html" target="_top" xlink:title="PackageManagerInterface">
<polygon fill="#ffffff" stroke="#000000" points="0,-114.5 0,-133.5 143,-133.5 143,-114.5 0,-114.5"/>
<text text-anchor="middle" x="71.5" y="-121.5" font-family="Helvetica,sans-Serif" font-size="10.00" fill="#000000">PackageManagerInterface</text>
</a>
</g>
</g>
<!-- Node5&#45;&gt;Node4 -->
<g id="edge2" class="edge">
<title>Node5&#45;&gt;Node4</title>
<path fill="none" stroke="#191970" d="M71.5,-104.2342C71.5,-94.8491 71.5,-84.0651 71.5,-76.5265"/>
<polygon fill="#191970" stroke="#191970" points="68.0001,-104.3307 71.5,-114.3307 75.0001,-104.3308 68.0001,-104.3307"/>
</g>
<!-- Node6 -->
<g id="node4" class="node">
<title>Node6</title>
<g id="a_node4"><a xlink:href="struct_package_config.html" target="_top" xlink:title="PackageConfig">
<polygon fill="#ffffff" stroke="#000000" points="27.5,-181.5 27.5,-200.5 115.5,-200.5 115.5,-181.5 27.5,-181.5"/>
<text text-anchor="middle" x="71.5" y="-188.5" font-family="Helvetica,sans-Serif" font-size="10.00" fill="#000000">PackageConfig</text>
</a>
</g>
</g>
<!-- Node6&#45;&gt;Node5 -->
<g id="edge3" class="edge">
<title>Node6&#45;&gt;Node5</title>
<path fill="none" stroke="#9a32cd" stroke-dasharray="5,2" d="M71.5,-171.1079C71.5,-158.714 71.5,-143.3263 71.5,-133.5817"/>
<polygon fill="#9a32cd" stroke="#9a32cd" points="68.0001,-171.4005 71.5,-181.4005 75.0001,-171.4006 68.0001,-171.4005"/>
<text text-anchor="middle" x="88" y="-155" font-family="Helvetica,sans-Serif" font-size="10.00" fill="#000000"> config</text>
</g>
<!-- Node7 -->
<g id="node5" class="node">
<title>Node7</title>
<polygon fill="#ffffff" stroke="#bfbfbf" points="140.5,-249.5 140.5,-279.5 262.5,-279.5 262.5,-249.5 140.5,-249.5"/>
<text text-anchor="start" x="148.5" y="-267.5" font-family="Helvetica,sans-Serif" font-size="10.00" fill="#000000">std::map&lt; std::string,</text>
<text text-anchor="middle" x="201.5" y="-256.5" font-family="Helvetica,sans-Serif" font-size="10.00" fill="#000000"> std::string &gt;</text>
</g>
<!-- Node7&#45;&gt;Node6 -->
<g id="edge4" class="edge">
<title>Node7&#45;&gt;Node6</title>
<path fill="none" stroke="#9a32cd" stroke-dasharray="5,2" d="M165.9818,-244.4186C140.8103,-230.187 108.1545,-211.7239 88.5683,-200.6501"/>
<polygon fill="#9a32cd" stroke="#9a32cd" points="164.4512,-247.5738 174.8789,-249.4488 167.8964,-241.4803 164.4512,-247.5738"/>
<text text-anchor="middle" x="154" y="-222" font-family="Helvetica,sans-Serif" font-size="10.00" fill="#000000"> extra</text>
</g>
<!-- Node8 -->
<g id="node6" class="node">
<title>Node8</title>
<g id="a_node6"><a xlink:title="STL class. ">
<polygon fill="#ffffff" stroke="#bfbfbf" points="39,-339.5 39,-358.5 104,-358.5 104,-339.5 39,-339.5"/>
<text text-anchor="middle" x="71.5" y="-346.5" font-family="Helvetica,sans-Serif" font-size="10.00" fill="#000000">std::string</text>
</a>
</g>
</g>
<!-- Node8&#45;&gt;Node6 -->
<g id="edge7" class="edge">
<title>Node8&#45;&gt;Node6</title>
<path fill="none" stroke="#9a32cd" stroke-dasharray="5,2" d="M68.6173,-329.3251C65.9925,-308.9749 62.7704,-276.2732 64.5,-248 65.5227,-231.2814 68.2178,-211.9581 69.9498,-200.6489"/>
<polygon fill="#9a32cd" stroke="#9a32cd" points="65.1526,-329.8217 69.9789,-339.2534 72.0877,-328.8706 65.1526,-329.8217"/>
<text text-anchor="middle" x="98" y="-273" font-family="Helvetica,sans-Serif" font-size="10.00" fill="#000000"> os</text>
<text text-anchor="middle" x="98" y="-262" font-family="Helvetica,sans-Serif" font-size="10.00" fill="#000000">ostree_server</text>
<text text-anchor="middle" x="98" y="-251" font-family="Helvetica,sans-Serif" font-size="10.00" fill="#000000">type</text>
</g>
<!-- Node8&#45;&gt;Node7 -->
<g id="edge5" class="edge">
<title>Node8&#45;&gt;Node7</title>
<path fill="none" stroke="#9a32cd" stroke-dasharray="5,2" d="M94.8409,-333.8284C118.4752,-318.4661 154.8082,-294.8496 178.3675,-279.5361"/>
<polygon fill="#9a32cd" stroke="#9a32cd" points="92.6369,-331.0865 86.1599,-339.471 96.4519,-336.9557 92.6369,-331.0865"/>
<text text-anchor="middle" x="170.5" y="-313" font-family="Helvetica,sans-Serif" font-size="10.00" fill="#000000"> keys</text>
<text text-anchor="middle" x="170.5" y="-302" font-family="Helvetica,sans-Serif" font-size="10.00" fill="#000000">elements</text>
</g>
<!-- Node9 -->
<g id="node7" class="node">
<title>Node9</title>
<g id="a_node7"><a xlink:title="STL class. ">
<polygon fill="#ffffff" stroke="#bfbfbf" points="19.5,-396.5 19.5,-426.5 123.5,-426.5 123.5,-396.5 19.5,-396.5"/>
<text text-anchor="start" x="27.5" y="-414.5" font-family="Helvetica,sans-Serif" font-size="10.00" fill="#000000">std::basic_string&lt;</text>
<text text-anchor="middle" x="71.5" y="-403.5" font-family="Helvetica,sans-Serif" font-size="10.00" fill="#000000"> char &gt;</text>
</a>
</g>
</g>
<!-- Node9&#45;&gt;Node8 -->
<g id="edge6" class="edge">
<title>Node9&#45;&gt;Node8</title>
<path fill="none" stroke="#191970" d="M71.5,-386.3498C71.5,-376.6481 71.5,-366.1303 71.5,-358.7356"/>
<polygon fill="#191970" stroke="#191970" points="68.0001,-386.3705 71.5,-396.3705 75.0001,-386.3705 68.0001,-386.3705"/>
</g>
</g>
</svg>
