<?xml version="1.0" encoding="UTF-8" standalone="no"?>
<!DOCTYPE svg PUBLIC "-//W3C//DTD SVG 1.1//EN"
 "http://www.w3.org/Graphics/SVG/1.1/DTD/svg11.dtd">
<!-- Generated by graphviz version 2.40.1 (20161225.0304)
 -->
<!-- Title: event::CampaignAcceptComplete Pages: 1 -->
<svg width="188pt" height="220pt"
 viewBox="0.00 0.00 188.00 220.00" xmlns="http://www.w3.org/2000/svg" xmlns:xlink="http://www.w3.org/1999/xlink">
<g id="graph0" class="graph" transform="scale(1 1) rotate(0) translate(4 216)">
<title>event::CampaignAcceptComplete</title>
<polygon fill="#ffffff" stroke="transparent" points="-4,4 -4,-216 184,-216 184,4 -4,4"/>
<!-- Node2 -->
<g id="node1" class="node">
<title>Node2</title>
<polygon fill="#bfbfbf" stroke="#000000" points="0,-.5 0,-19.5 180,-19.5 180,-.5 0,-.5"/>
<text text-anchor="middle" x="90" y="-7.5" font-family="Helvetica,sans-Serif" font-size="10.00" fill="#000000">event::CampaignAcceptComplete</text>
</g>
<!-- Node3 -->
<g id="node2" class="node">
<title>Node3</title>
<g id="a_node2"><a xlink:href="classevent_1_1_base_event.html" target="_top" xlink:title="Base class for all event objects. ">
<polygon fill="#ffffff" stroke="#000000" points="39,-57.5 39,-76.5 141,-76.5 141,-57.5 39,-57.5"/>
<text text-anchor="middle" x="90" y="-64.5" font-family="Helvetica,sans-Serif" font-size="10.00" fill="#000000">event::BaseEvent</text>
</a>
</g>
</g>
<!-- Node3&#45;&gt;Node2 -->
<g id="edge1" class="edge">
<title>Node3&#45;&gt;Node2</title>
<path fill="none" stroke="#191970" d="M90,-47.2342C90,-37.8491 90,-27.0651 90,-19.5265"/>
<polygon fill="#191970" stroke="#191970" points="86.5001,-47.3307 90,-57.3307 93.5001,-47.3308 86.5001,-47.3307"/>
</g>
<!-- Node4 -->
<g id="node3" class="node">
<title>Node4</title>
<g id="a_node3"><a xlink:title="STL class. ">
<polygon fill="#ffffff" stroke="#bfbfbf" points="57.5,-124.5 57.5,-143.5 122.5,-143.5 122.5,-124.5 57.5,-124.5"/>
<text text-anchor="middle" x="90" y="-131.5" font-family="Helvetica,sans-Serif" font-size="10.00" fill="#000000">std::string</text>
</a>
</g>
</g>
<!-- Node4&#45;&gt;Node3 -->
<g id="edge2" class="edge">
<title>Node4&#45;&gt;Node3</title>
<path fill="none" stroke="#9a32cd" stroke-dasharray="5,2" d="M90,-114.1079C90,-101.714 90,-86.3263 90,-76.5817"/>
<polygon fill="#9a32cd" stroke="#9a32cd" points="86.5001,-114.4005 90,-124.4005 93.5001,-114.4006 86.5001,-114.4005"/>
<text text-anchor="middle" x="109" y="-98" font-family="Helvetica,sans-Serif" font-size="10.00" fill="#000000"> variant</text>
</g>
<!-- Node5 -->
<g id="node4" class="node">
<title>Node5</title>
<g id="a_node4"><a xlink:title="STL class. ">
<polygon fill="#ffffff" stroke="#bfbfbf" points="38,-181.5 38,-211.5 142,-211.5 142,-181.5 38,-181.5"/>
<text text-anchor="start" x="46" y="-199.5" font-family="Helvetica,sans-Serif" font-size="10.00" fill="#000000">std::basic_string&lt;</text>
<text text-anchor="middle" x="90" y="-188.5" font-family="Helvetica,sans-Serif" font-size="10.00" fill="#000000"> char &gt;</text>
</a>
</g>
</g>
<!-- Node5&#45;&gt;Node4 -->
<g id="edge3" class="edge">
<title>Node5&#45;&gt;Node4</title>
<path fill="none" stroke="#191970" d="M90,-171.3498C90,-161.6481 90,-151.1303 90,-143.7356"/>
<polygon fill="#191970" stroke="#191970" points="86.5001,-171.3705 90,-181.3705 93.5001,-171.3705 86.5001,-171.3705"/>
</g>
</g>
</svg>
