<?xml version="1.0" encoding="UTF-8" standalone="no"?>
<!DOCTYPE svg PUBLIC "-//W3C//DTD SVG 1.1//EN"
 "http://www.w3.org/Graphics/SVG/1.1/DTD/svg11.dtd">
<!-- Generated by graphviz version 2.43.0 (0)
 -->
<!-- Title: Primary::ManagedSecondaryConfig Pages: 1 -->
<svg width="164pt" height="162pt"
 viewBox="0.00 0.00 164.00 162.00" xmlns="http://www.w3.org/2000/svg" xmlns:xlink="http://www.w3.org/1999/xlink">
<g id="graph0" class="graph" transform="scale(1 1) rotate(0) translate(4 158)">
<title>Primary::ManagedSecondaryConfig</title>
<polygon fill="white" stroke="transparent" points="-4,4 -4,-158 160,-158 160,4 -4,4"/>
<!-- Node1 -->
<g id="node1" class="node">
<title>Node1</title>
<g id="a_node1"><a xlink:title=" ">
<polygon fill="#bfbfbf" stroke="black" points="0,-67.5 0,-97.5 156,-97.5 156,-67.5 0,-67.5"/>
<text text-anchor="start" x="8" y="-85.5" font-family="Helvetica,sans-Serif" font-size="10.00">Primary::ManagedSecondary</text>
<text text-anchor="middle" x="78" y="-74.5" font-family="Helvetica,sans-Serif" font-size="10.00">Config</text>
</a>
</g>
</g>
<!-- Node3 -->
<g id="node3" class="node">
<title>Node3</title>
<g id="a_node3"><a xlink:href="class_primary_1_1_virtual_secondary_config.html" target="_top" xlink:title=" ">
<polygon fill="white" stroke="black" points="6.5,-0.5 6.5,-30.5 149.5,-30.5 149.5,-0.5 6.5,-0.5"/>
<text text-anchor="start" x="14.5" y="-18.5" font-family="Helvetica,sans-Serif" font-size="10.00">Primary::VirtualSecondary</text>
<text text-anchor="middle" x="78" y="-7.5" font-family="Helvetica,sans-Serif" font-size="10.00">Config</text>
</a>
</g>
</g>
<!-- Node1&#45;&gt;Node3 -->
<g id="edge2" class="edge">
<title>Node1&#45;&gt;Node3</title>
<path fill="none" stroke="midnightblue" d="M78,-57.11C78,-48.15 78,-38.32 78,-30.58"/>
<polygon fill="midnightblue" stroke="midnightblue" points="74.5,-57.4 78,-67.4 81.5,-57.4 74.5,-57.4"/>
</g>
<!-- Node2 -->
<g id="node2" class="node">
<title>Node2</title>
<g id="a_node2"><a xlink:href="class_primary_1_1_secondary_config.html" target="_top" xlink:title=" ">
<polygon fill="white" stroke="black" points="7,-134.5 7,-153.5 149,-153.5 149,-134.5 7,-134.5"/>
<text text-anchor="middle" x="78" y="-141.5" font-family="Helvetica,sans-Serif" font-size="10.00">Primary::SecondaryConfig</text>
</a>
</g>
</g>
<!-- Node2&#45;&gt;Node1 -->
<g id="edge1" class="edge">
<title>Node2&#45;&gt;Node1</title>
<path fill="none" stroke="midnightblue" d="M78,-124.23C78,-115.59 78,-105.5 78,-97.52"/>
<polygon fill="midnightblue" stroke="midnightblue" points="74.5,-124.48 78,-134.48 81.5,-124.48 74.5,-124.48"/>
</g>
</g>
</svg>
