<?xml version="1.0" encoding="UTF-8" standalone="no"?>
<!DOCTYPE svg PUBLIC "-//W3C//DTD SVG 1.1//EN"
 "http://www.w3.org/Graphics/SVG/1.1/DTD/svg11.dtd">
<!-- Generated by graphviz version 2.43.0 (0)
 -->
<!-- Title: event::DownloadTargetComplete Pages: 1 -->
<svg width="184pt" height="220pt"
 viewBox="0.00 0.00 184.00 220.00" xmlns="http://www.w3.org/2000/svg" xmlns:xlink="http://www.w3.org/1999/xlink">
<g id="graph0" class="graph" transform="scale(1 1) rotate(0) translate(4 216)">
<title>event::DownloadTargetComplete</title>
<polygon fill="white" stroke="transparent" points="-4,4 -4,-216 180,-216 180,4 -4,4"/>
<!-- Node1 -->
<g id="node1" class="node">
<title>Node1</title>
<g id="a_node1"><a xlink:title="A target has been downloaded.">
<polygon fill="#bfbfbf" stroke="black" points="0,-0.5 0,-19.5 176,-19.5 176,-0.5 0,-0.5"/>
<text text-anchor="middle" x="88" y="-7.5" font-family="Helvetica,sans-Serif" font-size="10.00">event::DownloadTargetComplete</text>
</a>
</g>
</g>
<!-- Node2 -->
<g id="node2" class="node">
<title>Node2</title>
<g id="a_node2"><a xlink:href="classevent_1_1_base_event.html" target="_top" xlink:title="Base class for all event objects.">
<polygon fill="white" stroke="black" points="37,-57.5 37,-76.5 139,-76.5 139,-57.5 37,-57.5"/>
<text text-anchor="middle" x="88" y="-64.5" font-family="Helvetica,sans-Serif" font-size="10.00">event::BaseEvent</text>
</a>
</g>
</g>
<!-- Node2&#45;&gt;Node1 -->
<g id="edge1" class="edge">
<title>Node2&#45;&gt;Node1</title>
<path fill="none" stroke="midnightblue" d="M88,-47.12C88,-37.82 88,-27.06 88,-19.71"/>
<polygon fill="midnightblue" stroke="midnightblue" points="84.5,-47.41 88,-57.41 91.5,-47.41 84.5,-47.41"/>
</g>
<!-- Node3 -->
<g id="node3" class="node">
<title>Node3</title>
<g id="a_node3"><a xlink:title="STL class.">
<polygon fill="white" stroke="#bfbfbf" points="55.5,-124.5 55.5,-143.5 120.5,-143.5 120.5,-124.5 55.5,-124.5"/>
<text text-anchor="middle" x="88" y="-131.5" font-family="Helvetica,sans-Serif" font-size="10.00">std::string</text>
</a>
</g>
</g>
<!-- Node3&#45;&gt;Node2 -->
<g id="edge2" class="edge">
<title>Node3&#45;&gt;Node2</title>
<path fill="none" stroke="#9a32cd" stroke-dasharray="5,2" d="M88,-114.04C88,-101.67 88,-86.12 88,-76.63"/>
<polygon fill="#9a32cd" stroke="#9a32cd" points="84.5,-114.23 88,-124.23 91.5,-114.23 84.5,-114.23"/>
<text text-anchor="middle" x="107" y="-98" font-family="Helvetica,sans-Serif" font-size="10.00"> variant</text>
</g>
<!-- Node4 -->
<g id="node4" class="node">
<title>Node4</title>
<g id="a_node4"><a xlink:title="STL class.">
<polygon fill="white" stroke="#bfbfbf" points="36,-181.5 36,-211.5 140,-211.5 140,-181.5 36,-181.5"/>
<text text-anchor="start" x="44" y="-199.5" font-family="Helvetica,sans-Serif" font-size="10.00">std::basic_string&lt;</text>
<text text-anchor="middle" x="88" y="-188.5" font-family="Helvetica,sans-Serif" font-size="10.00"> char &gt;</text>
</a>
</g>
</g>
<!-- Node4&#45;&gt;Node3 -->
<g id="edge3" class="edge">
<title>Node4&#45;&gt;Node3</title>
<path fill="none" stroke="midnightblue" d="M88,-171.35C88,-161.51 88,-150.78 88,-143.54"/>
<polygon fill="midnightblue" stroke="midnightblue" points="84.5,-171.47 88,-181.47 91.5,-171.47 84.5,-171.47"/>
</g>
</g>
</svg>
