<?xml version="1.0" encoding="UTF-8" standalone="no"?>
<!DOCTYPE svg PUBLIC "-//W3C//DTD SVG 1.1//EN"
 "http://www.w3.org/Graphics/SVG/1.1/DTD/svg11.dtd">
<!-- Generated by graphviz version 2.40.1 (20161225.0304)
 -->
<!-- Title: Primary::IPSecondaryConfig Pages: 1 -->
<svg width="159pt" height="163pt"
 viewBox="0.00 0.00 159.00 163.00" xmlns="http://www.w3.org/2000/svg" xmlns:xlink="http://www.w3.org/1999/xlink">
<g id="graph0" class="graph" transform="scale(1 1) rotate(0) translate(4 159)">
<title>Primary::IPSecondaryConfig</title>
<polygon fill="#ffffff" stroke="transparent" points="-4,4 -4,-159 155,-159 155,4 -4,4"/>
<!-- Node1 -->
<g id="node1" class="node">
<title>Node1</title>
<polygon fill="#bfbfbf" stroke="#000000" points="0,-.5 0,-19.5 151,-19.5 151,-.5 0,-.5"/>
<text text-anchor="middle" x="75.5" y="-7.5" font-family="Helvetica,sans-Serif" font-size="10.00" fill="#000000">Primary::IPSecondaryConfig</text>
</g>
<!-- Node2 -->
<g id="node2" class="node">
<title>Node2</title>
<g id="a_node2"><a xlink:title="STL class. ">
<polygon fill="#ffffff" stroke="#bfbfbf" points="43,-67.5 43,-86.5 108,-86.5 108,-67.5 43,-67.5"/>
<text text-anchor="middle" x="75.5" y="-74.5" font-family="Helvetica,sans-Serif" font-size="10.00" fill="#000000">std::string</text>
</a>
</g>
</g>
<!-- Node2&#45;&gt;Node1 -->
<g id="edge1" class="edge">
<title>Node2&#45;&gt;Node1</title>
<path fill="none" stroke="#9a32cd" stroke-dasharray="5,2" d="M75.5,-57.1079C75.5,-44.714 75.5,-29.3263 75.5,-19.5817"/>
<polygon fill="#9a32cd" stroke="#9a32cd" points="72.0001,-57.4005 75.5,-67.4005 79.0001,-57.4006 72.0001,-57.4005"/>
<text text-anchor="middle" x="82" y="-41" font-family="Helvetica,sans-Serif" font-size="10.00" fill="#000000"> ip</text>
</g>
<!-- Node3 -->
<g id="node3" class="node">
<title>Node3</title>
<g id="a_node3"><a xlink:title="STL class. ">
<polygon fill="#ffffff" stroke="#bfbfbf" points="23.5,-124.5 23.5,-154.5 127.5,-154.5 127.5,-124.5 23.5,-124.5"/>
<text text-anchor="start" x="31.5" y="-142.5" font-family="Helvetica,sans-Serif" font-size="10.00" fill="#000000">std::basic_string&lt;</text>
<text text-anchor="middle" x="75.5" y="-131.5" font-family="Helvetica,sans-Serif" font-size="10.00" fill="#000000"> char &gt;</text>
</a>
</g>
</g>
<!-- Node3&#45;&gt;Node2 -->
<g id="edge2" class="edge">
<title>Node3&#45;&gt;Node2</title>
<path fill="none" stroke="#191970" d="M75.5,-114.3498C75.5,-104.6481 75.5,-94.1303 75.5,-86.7356"/>
<polygon fill="#191970" stroke="#191970" points="72.0001,-114.3705 75.5,-124.3705 79.0001,-114.3705 72.0001,-114.3705"/>
</g>
</g>
</svg>
