<?xml version="1.0" encoding="UTF-8" standalone="no"?>
<!DOCTYPE svg PUBLIC "-//W3C//DTD SVG 1.1//EN"
 "http://www.w3.org/Graphics/SVG/1.1/DTD/svg11.dtd">
<!-- Generated by graphviz version 2.43.0 (0)
 -->
<!-- Title: Repo Pages: 1 -->
<svg width="439pt" height="352pt"
 viewBox="0.00 0.00 439.00 352.00" xmlns="http://www.w3.org/2000/svg" xmlns:xlink="http://www.w3.org/1999/xlink">
<g id="graph0" class="graph" transform="scale(1 1) rotate(0) translate(4 348)">
<title>Repo</title>
<polygon fill="white" stroke="transparent" points="-4,4 -4,-348 435,-348 435,4 -4,4"/>
<!-- Node1 -->
<g id="node1" class="node">
<title>Node1</title>
<g id="a_node1"><a xlink:title=" ">
<polygon fill="#bfbfbf" stroke="black" points="256.5,-0.5 256.5,-19.5 297.5,-19.5 297.5,-0.5 256.5,-0.5"/>
<text text-anchor="middle" x="277" y="-7.5" font-family="Helvetica,sans-Serif" font-size="10.00">Repo</text>
</a>
</g>
</g>
<!-- Node2 -->
<g id="node2" class="node">
<title>Node2</title>
<g id="a_node2"><a xlink:title=" ">
<polygon fill="white" stroke="#bfbfbf" points="103.5,-67.5 103.5,-97.5 240.5,-97.5 240.5,-67.5 103.5,-67.5"/>
<text text-anchor="start" x="111.5" y="-85.5" font-family="Helvetica,sans-Serif" font-size="10.00">std::map&lt; Uptane::Role,</text>
<text text-anchor="middle" x="172" y="-74.5" font-family="Helvetica,sans-Serif" font-size="10.00"> KeyPair &gt;</text>
</a>
</g>
</g>
<!-- Node2&#45;&gt;Node1 -->
<g id="edge1" class="edge">
<title>Node2&#45;&gt;Node1</title>
<path fill="none" stroke="#9a32cd" stroke-dasharray="5,2" d="M198.79,-61.31C209.04,-53.79 220.93,-45.31 232,-38 241.73,-31.57 252.98,-24.82 261.8,-19.68"/>
<polygon fill="#9a32cd" stroke="#9a32cd" points="196.58,-58.6 190.62,-67.36 200.74,-64.23 196.58,-58.6"/>
<text text-anchor="middle" x="247.5" y="-41" font-family="Helvetica,sans-Serif" font-size="10.00"> keys_</text>
</g>
<!-- Node3 -->
<g id="node3" class="node">
<title>Node3</title>
<g id="a_node3"><a xlink:href="struct_key_pair.html" target="_top" xlink:title=" ">
<polygon fill="white" stroke="black" points="78.5,-156.5 78.5,-175.5 131.5,-175.5 131.5,-156.5 78.5,-156.5"/>
<text text-anchor="middle" x="105" y="-163.5" font-family="Helvetica,sans-Serif" font-size="10.00">KeyPair</text>
</a>
</g>
</g>
<!-- Node3&#45;&gt;Node2 -->
<g id="edge2" class="edge">
<title>Node3&#45;&gt;Node2</title>
<path fill="none" stroke="#9a32cd" stroke-dasharray="5,2" d="M106.13,-146.19C107.53,-136.4 110.55,-124.69 117,-116 122.55,-108.52 130.38,-102.45 138.4,-97.67"/>
<polygon fill="#9a32cd" stroke="#9a32cd" points="102.65,-145.88 105.15,-156.17 109.61,-146.57 102.65,-145.88"/>
<text text-anchor="middle" x="141.5" y="-124.5" font-family="Helvetica,sans-Serif" font-size="10.00"> elements</text>
</g>
<!-- Node4 -->
<g id="node4" class="node">
<title>Node4</title>
<g id="a_node4"><a xlink:title="STL class.">
<polygon fill="white" stroke="#bfbfbf" points="201.5,-256.5 201.5,-275.5 266.5,-275.5 266.5,-256.5 201.5,-256.5"/>
<text text-anchor="middle" x="234" y="-263.5" font-family="Helvetica,sans-Serif" font-size="10.00">std::string</text>
</a>
</g>
</g>
<!-- Node4&#45;&gt;Node1 -->
<g id="edge10" class="edge">
<title>Node4&#45;&gt;Node1</title>
<path fill="none" stroke="#9a32cd" stroke-dasharray="5,2" d="M277,-260.75C292.85,-257.07 309.68,-250.32 321,-238 351.79,-204.49 338.08,-183.24 343,-138 346.42,-106.55 352.18,-95.28 338,-67 327.49,-46.05 305.64,-29.08 291.14,-19.51"/>
<polygon fill="#9a32cd" stroke="#9a32cd" points="275.94,-257.39 266.8,-262.75 277.28,-264.26 275.94,-257.39"/>
<text text-anchor="middle" x="388" y="-130" font-family="Helvetica,sans-Serif" font-size="10.00"> expiration_time_</text>
<text text-anchor="middle" x="388" y="-119" font-family="Helvetica,sans-Serif" font-size="10.00">correlation_id_</text>
</g>
<!-- Node4&#45;&gt;Node3 -->
<g id="edge3" class="edge">
<title>Node4&#45;&gt;Node3</title>
<path fill="none" stroke="#9a32cd" stroke-dasharray="5,2" d="M191.22,-259.38C163.89,-254.93 131.81,-247.82 122,-238 105.16,-221.14 103.89,-190.75 104.4,-175.8"/>
<polygon fill="#9a32cd" stroke="#9a32cd" points="190.99,-262.88 201.41,-260.95 192.06,-255.97 190.99,-262.88"/>
<text text-anchor="middle" x="152.5" y="-213.5" font-family="Helvetica,sans-Serif" font-size="10.00"> private_key</text>
</g>
<!-- Node7 -->
<g id="node7" class="node">
<title>Node7</title>
<g id="a_node7"><a xlink:href="class_uptane_1_1_role.html" target="_top" xlink:title="TUF Roles.">
<polygon fill="white" stroke="black" points="152,-156.5 152,-175.5 232,-175.5 232,-156.5 152,-156.5"/>
<text text-anchor="middle" x="192" y="-163.5" font-family="Helvetica,sans-Serif" font-size="10.00">Uptane::Role</text>
</a>
</g>
</g>
<!-- Node4&#45;&gt;Node7 -->
<g id="edge7" class="edge">
<title>Node4&#45;&gt;Node7</title>
<path fill="none" stroke="#9a32cd" stroke-dasharray="5,2" d="M206.31,-250.75C201.81,-247.2 197.73,-242.96 195,-238 183.92,-217.9 187.36,-189.53 190.07,-175.51"/>
<polygon fill="#9a32cd" stroke="#9a32cd" points="204.44,-253.71 214.68,-256.41 208.36,-247.91 204.44,-253.71"/>
<text text-anchor="middle" x="224" y="-230" font-family="Helvetica,sans-Serif" font-size="10.00"> ROOT</text>
<text text-anchor="middle" x="224" y="-219" font-family="Helvetica,sans-Serif" font-size="10.00">TIMESTAMP</text>
<text text-anchor="middle" x="224" y="-208" font-family="Helvetica,sans-Serif" font-size="10.00">SNAPSHOT</text>
<text text-anchor="middle" x="224" y="-197" font-family="Helvetica,sans-Serif" font-size="10.00">TARGETS</text>
</g>
<!-- Node8 -->
<g id="node8" class="node">
<title>Node8</title>
<g id="a_node8"><a xlink:href="class_uptane_1_1_repository_type.html" target="_top" xlink:title=" ">
<polygon fill="white" stroke="black" points="208.5,-117.5 208.5,-136.5 341.5,-136.5 341.5,-117.5 208.5,-117.5"/>
<text text-anchor="middle" x="275" y="-124.5" font-family="Helvetica,sans-Serif" font-size="10.00">Uptane::RepositoryType</text>
</a>
</g>
</g>
<!-- Node4&#45;&gt;Node8 -->
<g id="edge9" class="edge">
<title>Node4&#45;&gt;Node8</title>
<path fill="none" stroke="#9a32cd" stroke-dasharray="5,2" d="M247.6,-247.9C249.65,-244.74 251.55,-241.37 253,-238 268.28,-202.38 273.1,-155.67 274.49,-136.63"/>
<polygon fill="#9a32cd" stroke="#9a32cd" points="244.71,-245.92 241.71,-256.08 250.39,-250.01 244.71,-245.92"/>
<text text-anchor="middle" x="291.5" y="-219" font-family="Helvetica,sans-Serif" font-size="10.00"> IMAGE</text>
<text text-anchor="middle" x="291.5" y="-208" font-family="Helvetica,sans-Serif" font-size="10.00">DIRECTOR</text>
</g>
<!-- Node5 -->
<g id="node5" class="node">
<title>Node5</title>
<g id="a_node5"><a xlink:title="STL class.">
<polygon fill="white" stroke="#bfbfbf" points="182,-313.5 182,-343.5 286,-343.5 286,-313.5 182,-313.5"/>
<text text-anchor="start" x="190" y="-331.5" font-family="Helvetica,sans-Serif" font-size="10.00">std::basic_string&lt;</text>
<text text-anchor="middle" x="234" y="-320.5" font-family="Helvetica,sans-Serif" font-size="10.00"> char &gt;</text>
</a>
</g>
</g>
<!-- Node5&#45;&gt;Node4 -->
<g id="edge4" class="edge">
<title>Node5&#45;&gt;Node4</title>
<path fill="none" stroke="midnightblue" d="M234,-303.35C234,-293.51 234,-282.78 234,-275.54"/>
<polygon fill="midnightblue" stroke="midnightblue" points="230.5,-303.47 234,-313.47 237.5,-303.47 230.5,-303.47"/>
</g>
<!-- Node6 -->
<g id="node6" class="node">
<title>Node6</title>
<g id="a_node6"><a xlink:href="class_public_key.html" target="_top" xlink:title=" ">
<polygon fill="white" stroke="black" points="0,-256.5 0,-275.5 64,-275.5 64,-256.5 0,-256.5"/>
<text text-anchor="middle" x="32" y="-263.5" font-family="Helvetica,sans-Serif" font-size="10.00">PublicKey</text>
</a>
</g>
</g>
<!-- Node6&#45;&gt;Node3 -->
<g id="edge5" class="edge">
<title>Node6&#45;&gt;Node3</title>
<path fill="none" stroke="#9a32cd" stroke-dasharray="5,2" d="M26.88,-246.24C23.84,-230.81 22.38,-209.09 33,-194 43.22,-179.48 62.25,-172.76 78.18,-169.65"/>
<polygon fill="#9a32cd" stroke="#9a32cd" points="23.52,-247.25 29.22,-256.18 30.34,-245.65 23.52,-247.25"/>
<text text-anchor="middle" x="60.5" y="-213.5" font-family="Helvetica,sans-Serif" font-size="10.00"> public_key</text>
</g>
<!-- Node7&#45;&gt;Node2 -->
<g id="edge6" class="edge">
<title>Node7&#45;&gt;Node2</title>
<path fill="none" stroke="#9a32cd" stroke-dasharray="5,2" d="M178.51,-147.71C176.68,-144.62 175.07,-141.32 174,-138 169.75,-124.85 169.7,-108.97 170.44,-97.75"/>
<polygon fill="#9a32cd" stroke="#9a32cd" points="175.76,-149.89 184.29,-156.17 181.53,-145.94 175.76,-149.89"/>
<text text-anchor="middle" x="187" y="-124.5" font-family="Helvetica,sans-Serif" font-size="10.00"> keys</text>
</g>
<!-- Node8&#45;&gt;Node1 -->
<g id="edge8" class="edge">
<title>Node8&#45;&gt;Node1</title>
<path fill="none" stroke="#9a32cd" stroke-dasharray="5,2" d="M275.33,-107.25C275.76,-82.06 276.52,-38.32 276.85,-19.74"/>
<polygon fill="#9a32cd" stroke="#9a32cd" points="271.82,-107.3 275.15,-117.36 278.82,-107.42 271.82,-107.3"/>
<text text-anchor="middle" x="305" y="-80" font-family="Helvetica,sans-Serif" font-size="10.00"> repo_type_</text>
</g>
</g>
</svg>
