<?xml version="1.0" encoding="UTF-8" standalone="no"?>
<!DOCTYPE svg PUBLIC "-//W3C//DTD SVG 1.1//EN"
 "http://www.w3.org/Graphics/SVG/1.1/DTD/svg11.dtd">
<!-- Generated by graphviz version 2.43.0 (0)
 -->
<!-- Title: test_fixtures.UptaneRepo.Handler Pages: 1 -->
<svg width="334pt" height="162pt"
 viewBox="0.00 0.00 333.50 162.00" xmlns="http://www.w3.org/2000/svg" xmlns:xlink="http://www.w3.org/1999/xlink">
<g id="graph0" class="graph" transform="scale(1 1) rotate(0) translate(4 158)">
<title>test_fixtures.UptaneRepo.Handler</title>
<polygon fill="white" stroke="transparent" points="-4,4 -4,-158 329.5,-158 329.5,4 -4,4"/>
<!-- Node1 -->
<g id="node1" class="node">
<title>Node1</title>
<g id="a_node1"><a xlink:title=" ">
<polygon fill="#bfbfbf" stroke="black" points="88,-67.5 88,-97.5 231,-97.5 231,-67.5 88,-67.5"/>
<text text-anchor="start" x="96" y="-85.5" font-family="Helvetica,sans-Serif" font-size="10.00">test_fixtures.UptaneRepo.</text>
<text text-anchor="middle" x="159.5" y="-74.5" font-family="Helvetica,sans-Serif" font-size="10.00">Handler</text>
</a>
</g>
</g>
<!-- Node3 -->
<g id="node3" class="node">
<title>Node3</title>
<g id="a_node3"><a xlink:href="classtest__fixtures_1_1_director_repo_1_1_handler.html" target="_top" xlink:title=" ">
<polygon fill="white" stroke="black" points="0,-0.5 0,-30.5 147,-30.5 147,-0.5 0,-0.5"/>
<text text-anchor="start" x="8" y="-18.5" font-family="Helvetica,sans-Serif" font-size="10.00">test_fixtures.DirectorRepo.</text>
<text text-anchor="middle" x="73.5" y="-7.5" font-family="Helvetica,sans-Serif" font-size="10.00">Handler</text>
</a>
</g>
</g>
<!-- Node1&#45;&gt;Node3 -->
<g id="edge2" class="edge">
<title>Node1&#45;&gt;Node3</title>
<path fill="none" stroke="midnightblue" d="M132.6,-61.17C119.45,-51.23 103.95,-39.51 92.12,-30.58"/>
<polygon fill="midnightblue" stroke="midnightblue" points="130.75,-64.16 140.84,-67.4 134.97,-58.57 130.75,-64.16"/>
</g>
<!-- Node4 -->
<g id="node4" class="node">
<title>Node4</title>
<g id="a_node4"><a xlink:href="classtest__fixtures_1_1_treehub_1_1_handler.html" target="_top" xlink:title=" ">
<polygon fill="white" stroke="black" points="165.5,-6 165.5,-25 325.5,-25 325.5,-6 165.5,-6"/>
<text text-anchor="middle" x="245.5" y="-13" font-family="Helvetica,sans-Serif" font-size="10.00">test_fixtures.Treehub.Handler</text>
</a>
</g>
</g>
<!-- Node1&#45;&gt;Node4 -->
<g id="edge3" class="edge">
<title>Node1&#45;&gt;Node4</title>
<path fill="none" stroke="midnightblue" d="M186.17,-61.34C202.22,-49.21 221.83,-34.39 234,-25.19"/>
<polygon fill="midnightblue" stroke="midnightblue" points="184.03,-58.57 178.16,-67.4 188.25,-64.16 184.03,-58.57"/>
</g>
<!-- Node2 -->
<g id="node2" class="node">
<title>Node2</title>
<g id="a_node2"><a xlink:title=" ">
<polygon fill="white" stroke="#bfbfbf" points="82.5,-134.5 82.5,-153.5 236.5,-153.5 236.5,-134.5 82.5,-134.5"/>
<text text-anchor="middle" x="159.5" y="-141.5" font-family="Helvetica,sans-Serif" font-size="10.00">SimpleHTTPRequestHandler</text>
</a>
</g>
</g>
<!-- Node2&#45;&gt;Node1 -->
<g id="edge1" class="edge">
<title>Node2&#45;&gt;Node1</title>
<path fill="none" stroke="midnightblue" d="M159.5,-124.23C159.5,-115.59 159.5,-105.5 159.5,-97.52"/>
<polygon fill="midnightblue" stroke="midnightblue" points="156,-124.48 159.5,-134.48 163,-124.48 156,-124.48"/>
</g>
</g>
</svg>
