<?xml version="1.0" encoding="UTF-8" standalone="no"?>
<!DOCTYPE svg PUBLIC "-//W3C//DTD SVG 1.1//EN"
 "http://www.w3.org/Graphics/SVG/1.1/DTD/svg11.dtd">
<!-- Generated by graphviz version 2.43.0 (0)
 -->
<!-- Title: HttpFakePutCounter Pages: 1 -->
<svg width="323pt" height="252pt"
 viewBox="0.00 0.00 322.50 252.00" xmlns="http://www.w3.org/2000/svg" xmlns:xlink="http://www.w3.org/1999/xlink">
<g id="graph0" class="graph" transform="scale(1 1) rotate(0) translate(4 248)">
<title>HttpFakePutCounter</title>
<polygon fill="white" stroke="transparent" points="-4,4 -4,-248 318.5,-248 318.5,4 -4,4"/>
<!-- Node1 -->
<g id="node1" class="node">
<title>Node1</title>
<g id="a_node1"><a xlink:title=" ">
<polygon fill="#bfbfbf" stroke="black" points="149,-0.5 149,-19.5 262,-19.5 262,-0.5 149,-0.5"/>
<text text-anchor="middle" x="205.5" y="-7.5" font-family="Helvetica,sans-Serif" font-size="10.00">HttpFakePutCounter</text>
</a>
</g>
</g>
<!-- Node2 -->
<g id="node2" class="node">
<title>Node2</title>
<g id="a_node2"><a xlink:href="class_http_fake.html" target="_top" xlink:title=" ">
<polygon fill="white" stroke="black" points="126,-73 126,-92 185,-92 185,-73 126,-73"/>
<text text-anchor="middle" x="155.5" y="-80" font-family="Helvetica,sans-Serif" font-size="10.00">HttpFake</text>
</a>
</g>
</g>
<!-- Node2&#45;&gt;Node1 -->
<g id="edge1" class="edge">
<title>Node2&#45;&gt;Node1</title>
<path fill="none" stroke="midnightblue" d="M167.56,-64.5C177.58,-50.37 191.42,-30.85 199.32,-19.72"/>
<polygon fill="midnightblue" stroke="midnightblue" points="164.56,-62.67 161.63,-72.86 170.27,-66.72 164.56,-62.67"/>
</g>
<!-- Node3 -->
<g id="node3" class="node">
<title>Node3</title>
<g id="a_node3"><a xlink:href="class_http_interface.html" target="_top" xlink:title=" ">
<polygon fill="white" stroke="black" points="0,-156.5 0,-175.5 81,-175.5 81,-156.5 0,-156.5"/>
<text text-anchor="middle" x="40.5" y="-163.5" font-family="Helvetica,sans-Serif" font-size="10.00">HttpInterface</text>
</a>
</g>
</g>
<!-- Node3&#45;&gt;Node2 -->
<g id="edge2" class="edge">
<title>Node3&#45;&gt;Node2</title>
<path fill="none" stroke="midnightblue" d="M61.19,-150.34C85.11,-133.38 123.71,-106.03 143.28,-92.16"/>
<polygon fill="midnightblue" stroke="midnightblue" points="58.94,-147.64 52.81,-156.28 62.99,-153.35 58.94,-147.64"/>
</g>
<!-- Node4 -->
<g id="node4" class="node">
<title>Node4</title>
<g id="a_node4"><a xlink:href="class_temporary_directory.html" target="_top" xlink:title=" ">
<polygon fill="white" stroke="black" points="99,-156.5 99,-175.5 212,-175.5 212,-156.5 99,-156.5"/>
<text text-anchor="middle" x="155.5" y="-163.5" font-family="Helvetica,sans-Serif" font-size="10.00">TemporaryDirectory</text>
</a>
</g>
</g>
<!-- Node4&#45;&gt;Node2 -->
<g id="edge3" class="edge">
<title>Node4&#45;&gt;Node2</title>
<path fill="none" stroke="#9a32cd" stroke-dasharray="5,2" d="M155.5,-145.88C155.5,-128.9 155.5,-104.87 155.5,-92.16"/>
<polygon fill="#9a32cd" stroke="#9a32cd" points="152,-146.28 155.5,-156.28 159,-146.28 152,-146.28"/>
<text text-anchor="middle" x="194.5" y="-124.5" font-family="Helvetica,sans-Serif" font-size="10.00"> temp_meta_dir</text>
</g>
<!-- Node5 -->
<g id="node5" class="node">
<title>Node5</title>
<g id="a_node5"><a xlink:title="STL class.">
<polygon fill="white" stroke="#bfbfbf" points="230,-156.5 230,-175.5 295,-175.5 295,-156.5 230,-156.5"/>
<text text-anchor="middle" x="262.5" y="-163.5" font-family="Helvetica,sans-Serif" font-size="10.00">std::string</text>
</a>
</g>
</g>
<!-- Node5&#45;&gt;Node2 -->
<g id="edge4" class="edge">
<title>Node5&#45;&gt;Node2</title>
<path fill="none" stroke="#9a32cd" stroke-dasharray="5,2" d="M256.75,-146.59C252.76,-136.41 246.52,-124.2 237.5,-116 235.16,-113.87 201.77,-100.99 178.33,-92.09"/>
<polygon fill="#9a32cd" stroke="#9a32cd" points="253.51,-147.92 260.12,-156.21 260.12,-145.61 253.51,-147.92"/>
<text text-anchor="middle" x="278.5" y="-130" font-family="Helvetica,sans-Serif" font-size="10.00"> tls_server</text>
<text text-anchor="middle" x="278.5" y="-119" font-family="Helvetica,sans-Serif" font-size="10.00">flavor_</text>
</g>
<!-- Node6 -->
<g id="node6" class="node">
<title>Node6</title>
<g id="a_node6"><a xlink:title="STL class.">
<polygon fill="white" stroke="#bfbfbf" points="210.5,-213.5 210.5,-243.5 314.5,-243.5 314.5,-213.5 210.5,-213.5"/>
<text text-anchor="start" x="218.5" y="-231.5" font-family="Helvetica,sans-Serif" font-size="10.00">std::basic_string&lt;</text>
<text text-anchor="middle" x="262.5" y="-220.5" font-family="Helvetica,sans-Serif" font-size="10.00"> char &gt;</text>
</a>
</g>
</g>
<!-- Node6&#45;&gt;Node5 -->
<g id="edge5" class="edge">
<title>Node6&#45;&gt;Node5</title>
<path fill="none" stroke="midnightblue" d="M262.5,-203.35C262.5,-193.51 262.5,-182.78 262.5,-175.54"/>
<polygon fill="midnightblue" stroke="midnightblue" points="259,-203.47 262.5,-213.47 266,-203.47 259,-203.47"/>
</g>
<!-- Node7 -->
<g id="node7" class="node">
<title>Node7</title>
<g id="a_node7"><a xlink:title=" ">
<polygon fill="white" stroke="#bfbfbf" points="203.5,-67.5 203.5,-97.5 309.5,-97.5 309.5,-67.5 203.5,-67.5"/>
<text text-anchor="start" x="211.5" y="-85.5" font-family="Helvetica,sans-Serif" font-size="10.00">std::vector&lt; Json::</text>
<text text-anchor="middle" x="256.5" y="-74.5" font-family="Helvetica,sans-Serif" font-size="10.00">Value &gt;</text>
</a>
</g>
</g>
<!-- Node7&#45;&gt;Node1 -->
<g id="edge6" class="edge">
<title>Node7&#45;&gt;Node1</title>
<path fill="none" stroke="#9a32cd" stroke-dasharray="5,2" d="M240.23,-59.01C230.62,-45.73 219,-29.66 211.93,-19.89"/>
<polygon fill="#9a32cd" stroke="#9a32cd" points="237.48,-61.18 246.18,-67.23 243.15,-57.08 237.48,-61.18"/>
<text text-anchor="middle" x="251" y="-41" font-family="Helvetica,sans-Serif" font-size="10.00"> events</text>
</g>
</g>
</svg>
