<?xml version="1.0" encoding="UTF-8" standalone="no"?>
<!DOCTYPE svg PUBLIC "-//W3C//DTD SVG 1.1//EN"
 "http://www.w3.org/Graphics/SVG/1.1/DTD/svg11.dtd">
<!-- Generated by graphviz version 2.43.0 (0)
 -->
<!-- Title: DockerAppManagerConfig Pages: 1 -->
<svg width="151pt" height="230pt"
 viewBox="0.00 0.00 151.00 230.00" xmlns="http://www.w3.org/2000/svg" xmlns:xlink="http://www.w3.org/1999/xlink">
<g id="graph0" class="graph" transform="scale(1 1) rotate(0) translate(4 226)">
<title>DockerAppManagerConfig</title>
<polygon fill="white" stroke="transparent" points="-4,4 -4,-226 147,-226 147,4 -4,4"/>
<!-- Node1 -->
<g id="node1" class="node">
<title>Node1</title>
<g id="a_node1"><a xlink:title=" ">
<polygon fill="#bfbfbf" stroke="black" points="0,-0.5 0,-19.5 143,-19.5 143,-0.5 0,-0.5"/>
<text text-anchor="middle" x="71.5" y="-7.5" font-family="Helvetica,sans-Serif" font-size="10.00">DockerAppManagerConfig</text>
</a>
</g>
</g>
<!-- Node2 -->
<g id="node2" class="node">
<title>Node2</title>
<g id="a_node2"><a xlink:title=" ">
<polygon fill="white" stroke="#bfbfbf" points="1.5,-67.5 1.5,-86.5 141.5,-86.5 141.5,-67.5 1.5,-67.5"/>
<text text-anchor="middle" x="71.5" y="-74.5" font-family="Helvetica,sans-Serif" font-size="10.00">std::vector&lt; std::string &gt;</text>
</a>
</g>
</g>
<!-- Node2&#45;&gt;Node1 -->
<g id="edge1" class="edge">
<title>Node2&#45;&gt;Node1</title>
<path fill="none" stroke="#9a32cd" stroke-dasharray="5,2" d="M71.5,-57.04C71.5,-44.67 71.5,-29.12 71.5,-19.63"/>
<polygon fill="#9a32cd" stroke="#9a32cd" points="68,-57.23 71.5,-67.23 75,-57.23 68,-57.23"/>
<text text-anchor="middle" x="104" y="-41" font-family="Helvetica,sans-Serif" font-size="10.00"> docker_apps</text>
</g>
<!-- Node3 -->
<g id="node3" class="node">
<title>Node3</title>
<g id="a_node3"><a xlink:title="STL class.">
<polygon fill="white" stroke="#bfbfbf" points="39,-134.5 39,-153.5 104,-153.5 104,-134.5 39,-134.5"/>
<text text-anchor="middle" x="71.5" y="-141.5" font-family="Helvetica,sans-Serif" font-size="10.00">std::string</text>
</a>
</g>
</g>
<!-- Node3&#45;&gt;Node2 -->
<g id="edge2" class="edge">
<title>Node3&#45;&gt;Node2</title>
<path fill="none" stroke="#9a32cd" stroke-dasharray="5,2" d="M71.5,-124.04C71.5,-111.67 71.5,-96.12 71.5,-86.63"/>
<polygon fill="#9a32cd" stroke="#9a32cd" points="68,-124.23 71.5,-134.23 75,-124.23 68,-124.23"/>
<text text-anchor="middle" x="96" y="-108" font-family="Helvetica,sans-Serif" font-size="10.00"> elements</text>
</g>
<!-- Node4 -->
<g id="node4" class="node">
<title>Node4</title>
<g id="a_node4"><a xlink:title="STL class.">
<polygon fill="white" stroke="#bfbfbf" points="19.5,-191.5 19.5,-221.5 123.5,-221.5 123.5,-191.5 19.5,-191.5"/>
<text text-anchor="start" x="27.5" y="-209.5" font-family="Helvetica,sans-Serif" font-size="10.00">std::basic_string&lt;</text>
<text text-anchor="middle" x="71.5" y="-198.5" font-family="Helvetica,sans-Serif" font-size="10.00"> char &gt;</text>
</a>
</g>
</g>
<!-- Node4&#45;&gt;Node3 -->
<g id="edge3" class="edge">
<title>Node4&#45;&gt;Node3</title>
<path fill="none" stroke="midnightblue" d="M71.5,-181.35C71.5,-171.51 71.5,-160.78 71.5,-153.54"/>
<polygon fill="midnightblue" stroke="midnightblue" points="68,-181.47 71.5,-191.47 75,-181.47 68,-181.47"/>
</g>
</g>
</svg>
