<?xml version="1.0" encoding="UTF-8" standalone="no"?>
<!DOCTYPE svg PUBLIC "-//W3C//DTD SVG 1.1//EN"
 "http://www.w3.org/Graphics/SVG/1.1/DTD/svg11.dtd">
<!-- Generated by graphviz version 2.43.0 (0)
 -->
<!-- Title: result::CampaignCheck Pages: 1 -->
<svg width="138pt" height="330pt"
 viewBox="0.00 0.00 138.00 330.00" xmlns="http://www.w3.org/2000/svg" xmlns:xlink="http://www.w3.org/1999/xlink">
<g id="graph0" class="graph" transform="scale(1 1) rotate(0) translate(4 326)">
<title>result::CampaignCheck</title>
<polygon fill="white" stroke="transparent" points="-4,4 -4,-326 134,-326 134,4 -4,4"/>
<!-- Node1 -->
<g id="node1" class="node">
<title>Node1</title>
<g id="a_node1"><a xlink:title="Container for information about available campaigns.">
<polygon fill="#bfbfbf" stroke="black" points="0,-0.5 0,-19.5 130,-19.5 130,-0.5 0,-0.5"/>
<text text-anchor="middle" x="65" y="-7.5" font-family="Helvetica,sans-Serif" font-size="10.00">result::CampaignCheck</text>
</a>
</g>
</g>
<!-- Node2 -->
<g id="node2" class="node">
<title>Node2</title>
<g id="a_node2"><a xlink:title=" ">
<polygon fill="white" stroke="#bfbfbf" points="1,-67.5 1,-97.5 129,-97.5 129,-67.5 1,-67.5"/>
<text text-anchor="start" x="9" y="-85.5" font-family="Helvetica,sans-Serif" font-size="10.00">std::vector&lt; campaign</text>
<text text-anchor="middle" x="65" y="-74.5" font-family="Helvetica,sans-Serif" font-size="10.00">::Campaign &gt;</text>
</a>
</g>
</g>
<!-- Node2&#45;&gt;Node1 -->
<g id="edge1" class="edge">
<title>Node2&#45;&gt;Node1</title>
<path fill="none" stroke="#9a32cd" stroke-dasharray="5,2" d="M65,-57.09C65,-44.21 65,-29.2 65,-19.89"/>
<polygon fill="#9a32cd" stroke="#9a32cd" points="61.5,-57.23 65,-67.23 68.5,-57.23 61.5,-57.23"/>
<text text-anchor="middle" x="93.5" y="-41" font-family="Helvetica,sans-Serif" font-size="10.00"> campaigns</text>
</g>
<!-- Node3 -->
<g id="node3" class="node">
<title>Node3</title>
<g id="a_node3"><a xlink:href="classcampaign_1_1_campaign.html" target="_top" xlink:title=" ">
<polygon fill="white" stroke="black" points="5,-145.5 5,-164.5 125,-164.5 125,-145.5 5,-145.5"/>
<text text-anchor="middle" x="65" y="-152.5" font-family="Helvetica,sans-Serif" font-size="10.00">campaign::Campaign</text>
</a>
</g>
</g>
<!-- Node3&#45;&gt;Node2 -->
<g id="edge2" class="edge">
<title>Node3&#45;&gt;Node2</title>
<path fill="none" stroke="#9a32cd" stroke-dasharray="5,2" d="M65,-135.24C65,-123.41 65,-108.38 65,-97.58"/>
<polygon fill="#9a32cd" stroke="#9a32cd" points="61.5,-135.36 65,-145.36 68.5,-135.36 61.5,-135.36"/>
<text text-anchor="middle" x="89.5" y="-119" font-family="Helvetica,sans-Serif" font-size="10.00"> elements</text>
</g>
<!-- Node4 -->
<g id="node4" class="node">
<title>Node4</title>
<g id="a_node4"><a xlink:title="STL class.">
<polygon fill="white" stroke="#bfbfbf" points="32.5,-234.5 32.5,-253.5 97.5,-253.5 97.5,-234.5 32.5,-234.5"/>
<text text-anchor="middle" x="65" y="-241.5" font-family="Helvetica,sans-Serif" font-size="10.00">std::string</text>
</a>
</g>
</g>
<!-- Node4&#45;&gt;Node3 -->
<g id="edge3" class="edge">
<title>Node4&#45;&gt;Node3</title>
<path fill="none" stroke="#9a32cd" stroke-dasharray="5,2" d="M65,-224.19C65,-205.74 65,-178.41 65,-164.62"/>
<polygon fill="#9a32cd" stroke="#9a32cd" points="61.5,-224.34 65,-234.34 68.5,-224.34 61.5,-224.34"/>
<text text-anchor="middle" x="92.5" y="-208" font-family="Helvetica,sans-Serif" font-size="10.00"> id</text>
<text text-anchor="middle" x="92.5" y="-197" font-family="Helvetica,sans-Serif" font-size="10.00">name</text>
<text text-anchor="middle" x="92.5" y="-186" font-family="Helvetica,sans-Serif" font-size="10.00">description</text>
</g>
<!-- Node5 -->
<g id="node5" class="node">
<title>Node5</title>
<g id="a_node5"><a xlink:title="STL class.">
<polygon fill="white" stroke="#bfbfbf" points="13,-291.5 13,-321.5 117,-321.5 117,-291.5 13,-291.5"/>
<text text-anchor="start" x="21" y="-309.5" font-family="Helvetica,sans-Serif" font-size="10.00">std::basic_string&lt;</text>
<text text-anchor="middle" x="65" y="-298.5" font-family="Helvetica,sans-Serif" font-size="10.00"> char &gt;</text>
</a>
</g>
</g>
<!-- Node5&#45;&gt;Node4 -->
<g id="edge4" class="edge">
<title>Node5&#45;&gt;Node4</title>
<path fill="none" stroke="midnightblue" d="M65,-281.35C65,-271.51 65,-260.78 65,-253.54"/>
<polygon fill="midnightblue" stroke="midnightblue" points="61.5,-281.47 65,-291.47 68.5,-281.47 61.5,-281.47"/>
</g>
</g>
</svg>
