<?xml version="1.0" encoding="UTF-8" standalone="no"?>
<!DOCTYPE svg PUBLIC "-//W3C//DTD SVG 1.1//EN"
 "http://www.w3.org/Graphics/SVG/1.1/DTD/svg11.dtd">
<!-- Generated by graphviz version 2.43.0 (0)
 -->
<!-- Title: ImageRepo Pages: 1 -->
<svg width="439pt" height="409pt"
 viewBox="0.00 0.00 439.00 409.00" xmlns="http://www.w3.org/2000/svg" xmlns:xlink="http://www.w3.org/1999/xlink">
<g id="graph0" class="graph" transform="scale(1 1) rotate(0) translate(4 405)">
<title>ImageRepo</title>
<polygon fill="white" stroke="transparent" points="-4,4 -4,-405 435,-405 435,4 -4,4"/>
<!-- Node1 -->
<g id="node1" class="node">
<title>Node1</title>
<g id="a_node1"><a xlink:title=" ">
<polygon fill="#bfbfbf" stroke="black" points="241,-0.5 241,-19.5 313,-19.5 313,-0.5 241,-0.5"/>
<text text-anchor="middle" x="277" y="-7.5" font-family="Helvetica,sans-Serif" font-size="10.00">ImageRepo</text>
</a>
</g>
</g>
<!-- Node2 -->
<g id="node2" class="node">
<title>Node2</title>
<g id="a_node2"><a xlink:href="class_repo.html" target="_top" xlink:title=" ">
<polygon fill="white" stroke="black" points="256.5,-57.5 256.5,-76.5 297.5,-76.5 297.5,-57.5 256.5,-57.5"/>
<text text-anchor="middle" x="277" y="-64.5" font-family="Helvetica,sans-Serif" font-size="10.00">Repo</text>
</a>
</g>
</g>
<!-- Node2&#45;&gt;Node1 -->
<g id="edge1" class="edge">
<title>Node2&#45;&gt;Node1</title>
<path fill="none" stroke="midnightblue" d="M277,-47.12C277,-37.82 277,-27.06 277,-19.71"/>
<polygon fill="midnightblue" stroke="midnightblue" points="273.5,-47.41 277,-57.41 280.5,-47.41 273.5,-47.41"/>
</g>
<!-- Node3 -->
<g id="node3" class="node">
<title>Node3</title>
<g id="a_node3"><a xlink:title=" ">
<polygon fill="white" stroke="#bfbfbf" points="103.5,-124.5 103.5,-154.5 240.5,-154.5 240.5,-124.5 103.5,-124.5"/>
<text text-anchor="start" x="111.5" y="-142.5" font-family="Helvetica,sans-Serif" font-size="10.00">std::map&lt; Uptane::Role,</text>
<text text-anchor="middle" x="172" y="-131.5" font-family="Helvetica,sans-Serif" font-size="10.00"> KeyPair &gt;</text>
</a>
</g>
</g>
<!-- Node3&#45;&gt;Node2 -->
<g id="edge2" class="edge">
<title>Node3&#45;&gt;Node2</title>
<path fill="none" stroke="#9a32cd" stroke-dasharray="5,2" d="M198.79,-118.31C209.04,-110.79 220.93,-102.31 232,-95 241.73,-88.57 252.98,-81.82 261.8,-76.68"/>
<polygon fill="#9a32cd" stroke="#9a32cd" points="196.58,-115.6 190.62,-124.36 200.74,-121.23 196.58,-115.6"/>
<text text-anchor="middle" x="247.5" y="-98" font-family="Helvetica,sans-Serif" font-size="10.00"> keys_</text>
</g>
<!-- Node4 -->
<g id="node4" class="node">
<title>Node4</title>
<g id="a_node4"><a xlink:href="struct_key_pair.html" target="_top" xlink:title=" ">
<polygon fill="white" stroke="black" points="78.5,-213.5 78.5,-232.5 131.5,-232.5 131.5,-213.5 78.5,-213.5"/>
<text text-anchor="middle" x="105" y="-220.5" font-family="Helvetica,sans-Serif" font-size="10.00">KeyPair</text>
</a>
</g>
</g>
<!-- Node4&#45;&gt;Node3 -->
<g id="edge3" class="edge">
<title>Node4&#45;&gt;Node3</title>
<path fill="none" stroke="#9a32cd" stroke-dasharray="5,2" d="M106.13,-203.19C107.53,-193.4 110.55,-181.69 117,-173 122.55,-165.52 130.38,-159.45 138.4,-154.67"/>
<polygon fill="#9a32cd" stroke="#9a32cd" points="102.65,-202.88 105.15,-213.17 109.61,-203.57 102.65,-202.88"/>
<text text-anchor="middle" x="141.5" y="-181.5" font-family="Helvetica,sans-Serif" font-size="10.00"> elements</text>
</g>
<!-- Node5 -->
<g id="node5" class="node">
<title>Node5</title>
<g id="a_node5"><a xlink:title="STL class.">
<polygon fill="white" stroke="#bfbfbf" points="201.5,-313.5 201.5,-332.5 266.5,-332.5 266.5,-313.5 201.5,-313.5"/>
<text text-anchor="middle" x="234" y="-320.5" font-family="Helvetica,sans-Serif" font-size="10.00">std::string</text>
</a>
</g>
</g>
<!-- Node5&#45;&gt;Node2 -->
<g id="edge11" class="edge">
<title>Node5&#45;&gt;Node2</title>
<path fill="none" stroke="#9a32cd" stroke-dasharray="5,2" d="M277,-317.75C292.85,-314.07 309.68,-307.32 321,-295 351.79,-261.49 338.08,-240.24 343,-195 346.42,-163.55 352.18,-152.28 338,-124 327.49,-103.05 305.64,-86.08 291.14,-76.51"/>
<polygon fill="#9a32cd" stroke="#9a32cd" points="275.94,-314.39 266.8,-319.75 277.28,-321.26 275.94,-314.39"/>
<text text-anchor="middle" x="388" y="-187" font-family="Helvetica,sans-Serif" font-size="10.00"> expiration_time_</text>
<text text-anchor="middle" x="388" y="-176" font-family="Helvetica,sans-Serif" font-size="10.00">correlation_id_</text>
</g>
<!-- Node5&#45;&gt;Node4 -->
<g id="edge4" class="edge">
<title>Node5&#45;&gt;Node4</title>
<path fill="none" stroke="#9a32cd" stroke-dasharray="5,2" d="M191.22,-316.38C163.89,-311.93 131.81,-304.82 122,-295 105.16,-278.14 103.89,-247.75 104.4,-232.8"/>
<polygon fill="#9a32cd" stroke="#9a32cd" points="190.99,-319.88 201.41,-317.95 192.06,-312.97 190.99,-319.88"/>
<text text-anchor="middle" x="152.5" y="-270.5" font-family="Helvetica,sans-Serif" font-size="10.00"> private_key</text>
</g>
<!-- Node8 -->
<g id="node8" class="node">
<title>Node8</title>
<g id="a_node8"><a xlink:href="class_uptane_1_1_role.html" target="_top" xlink:title="TUF Roles.">
<polygon fill="white" stroke="black" points="152,-213.5 152,-232.5 232,-232.5 232,-213.5 152,-213.5"/>
<text text-anchor="middle" x="192" y="-220.5" font-family="Helvetica,sans-Serif" font-size="10.00">Uptane::Role</text>
</a>
</g>
</g>
<!-- Node5&#45;&gt;Node8 -->
<g id="edge8" class="edge">
<title>Node5&#45;&gt;Node8</title>
<path fill="none" stroke="#9a32cd" stroke-dasharray="5,2" d="M206.31,-307.75C201.81,-304.2 197.73,-299.96 195,-295 183.92,-274.9 187.36,-246.53 190.07,-232.51"/>
<polygon fill="#9a32cd" stroke="#9a32cd" points="204.44,-310.71 214.68,-313.41 208.36,-304.91 204.44,-310.71"/>
<text text-anchor="middle" x="224" y="-287" font-family="Helvetica,sans-Serif" font-size="10.00"> ROOT</text>
<text text-anchor="middle" x="224" y="-276" font-family="Helvetica,sans-Serif" font-size="10.00">TIMESTAMP</text>
<text text-anchor="middle" x="224" y="-265" font-family="Helvetica,sans-Serif" font-size="10.00">SNAPSHOT</text>
<text text-anchor="middle" x="224" y="-254" font-family="Helvetica,sans-Serif" font-size="10.00">TARGETS</text>
</g>
<!-- Node9 -->
<g id="node9" class="node">
<title>Node9</title>
<g id="a_node9"><a xlink:href="class_uptane_1_1_repository_type.html" target="_top" xlink:title=" ">
<polygon fill="white" stroke="black" points="208.5,-174.5 208.5,-193.5 341.5,-193.5 341.5,-174.5 208.5,-174.5"/>
<text text-anchor="middle" x="275" y="-181.5" font-family="Helvetica,sans-Serif" font-size="10.00">Uptane::RepositoryType</text>
</a>
</g>
</g>
<!-- Node5&#45;&gt;Node9 -->
<g id="edge10" class="edge">
<title>Node5&#45;&gt;Node9</title>
<path fill="none" stroke="#9a32cd" stroke-dasharray="5,2" d="M247.6,-304.9C249.65,-301.74 251.55,-298.37 253,-295 268.28,-259.38 273.1,-212.67 274.49,-193.63"/>
<polygon fill="#9a32cd" stroke="#9a32cd" points="244.71,-302.92 241.71,-313.08 250.39,-307.01 244.71,-302.92"/>
<text text-anchor="middle" x="291.5" y="-276" font-family="Helvetica,sans-Serif" font-size="10.00"> IMAGE</text>
<text text-anchor="middle" x="291.5" y="-265" font-family="Helvetica,sans-Serif" font-size="10.00">DIRECTOR</text>
</g>
<!-- Node6 -->
<g id="node6" class="node">
<title>Node6</title>
<g id="a_node6"><a xlink:title="STL class.">
<polygon fill="white" stroke="#bfbfbf" points="182,-370.5 182,-400.5 286,-400.5 286,-370.5 182,-370.5"/>
<text text-anchor="start" x="190" y="-388.5" font-family="Helvetica,sans-Serif" font-size="10.00">std::basic_string&lt;</text>
<text text-anchor="middle" x="234" y="-377.5" font-family="Helvetica,sans-Serif" font-size="10.00"> char &gt;</text>
</a>
</g>
</g>
<!-- Node6&#45;&gt;Node5 -->
<g id="edge5" class="edge">
<title>Node6&#45;&gt;Node5</title>
<path fill="none" stroke="midnightblue" d="M234,-360.35C234,-350.51 234,-339.78 234,-332.54"/>
<polygon fill="midnightblue" stroke="midnightblue" points="230.5,-360.47 234,-370.47 237.5,-360.47 230.5,-360.47"/>
</g>
<!-- Node7 -->
<g id="node7" class="node">
<title>Node7</title>
<g id="a_node7"><a xlink:href="class_public_key.html" target="_top" xlink:title=" ">
<polygon fill="white" stroke="black" points="0,-313.5 0,-332.5 64,-332.5 64,-313.5 0,-313.5"/>
<text text-anchor="middle" x="32" y="-320.5" font-family="Helvetica,sans-Serif" font-size="10.00">PublicKey</text>
</a>
</g>
</g>
<!-- Node7&#45;&gt;Node4 -->
<g id="edge6" class="edge">
<title>Node7&#45;&gt;Node4</title>
<path fill="none" stroke="#9a32cd" stroke-dasharray="5,2" d="M26.88,-303.24C23.84,-287.81 22.38,-266.09 33,-251 43.22,-236.48 62.25,-229.76 78.18,-226.65"/>
<polygon fill="#9a32cd" stroke="#9a32cd" points="23.52,-304.25 29.22,-313.18 30.34,-302.65 23.52,-304.25"/>
<text text-anchor="middle" x="60.5" y="-270.5" font-family="Helvetica,sans-Serif" font-size="10.00"> public_key</text>
</g>
<!-- Node8&#45;&gt;Node3 -->
<g id="edge7" class="edge">
<title>Node8&#45;&gt;Node3</title>
<path fill="none" stroke="#9a32cd" stroke-dasharray="5,2" d="M178.51,-204.71C176.68,-201.62 175.07,-198.32 174,-195 169.75,-181.85 169.7,-165.97 170.44,-154.75"/>
<polygon fill="#9a32cd" stroke="#9a32cd" points="175.76,-206.89 184.29,-213.17 181.53,-202.94 175.76,-206.89"/>
<text text-anchor="middle" x="187" y="-181.5" font-family="Helvetica,sans-Serif" font-size="10.00"> keys</text>
</g>
<!-- Node9&#45;&gt;Node2 -->
<g id="edge9" class="edge">
<title>Node9&#45;&gt;Node2</title>
<path fill="none" stroke="#9a32cd" stroke-dasharray="5,2" d="M275.33,-164.25C275.76,-139.06 276.52,-95.32 276.85,-76.74"/>
<polygon fill="#9a32cd" stroke="#9a32cd" points="271.82,-164.3 275.15,-174.36 278.82,-164.42 271.82,-164.3"/>
<text text-anchor="middle" x="305" y="-137" font-family="Helvetica,sans-Serif" font-size="10.00"> repo_type_</text>
</g>
</g>
</svg>
