<?xml version="1.0" encoding="UTF-8" standalone="no"?>
<!DOCTYPE svg PUBLIC "-//W3C//DTD SVG 1.1//EN"
 "http://www.w3.org/Graphics/SVG/1.1/DTD/svg11.dtd">
<!-- Generated by graphviz version 2.40.1 (20161225.0304)
 -->
<!-- Title: Uptane::DirectorRepository Pages: 1 -->
<svg width="1565pt" height="214pt"
 viewBox="0.00 0.00 1565.00 214.00" xmlns="http://www.w3.org/2000/svg" xmlns:xlink="http://www.w3.org/1999/xlink">
<g id="graph0" class="graph" transform="scale(1 1) rotate(0) translate(4 210)">
<title>Uptane::DirectorRepository</title>
<polygon fill="#ffffff" stroke="transparent" points="-4,4 -4,-210 1561,-210 1561,4 -4,4"/>
<!-- Node2 -->
<g id="node1" class="node">
<title>Node2</title>
<polygon fill="#bfbfbf" stroke="#000000" points="1408,-16.5 1408,-35.5 1557,-35.5 1557,-16.5 1408,-16.5"/>
<text text-anchor="middle" x="1482.5" y="-23.5" font-family="Helvetica,sans-Serif" font-size="10.00" fill="#000000">Uptane::DirectorRepository</text>
</g>
<!-- Node3 -->
<g id="node2" class="node">
<title>Node3</title>
<g id="a_node2"><a xlink:href="class_uptane_1_1_repository_common.html" target="_top" xlink:title="Uptane::RepositoryCommon">
<polygon fill="#ffffff" stroke="#000000" points="1217,-16.5 1217,-35.5 1371,-35.5 1371,-16.5 1217,-16.5"/>
<text text-anchor="middle" x="1294" y="-23.5" font-family="Helvetica,sans-Serif" font-size="10.00" fill="#000000">Uptane::RepositoryCommon</text>
</a>
</g>
</g>
<!-- Node3&#45;&gt;Node2 -->
<g id="edge1" class="edge">
<title>Node3&#45;&gt;Node2</title>
<path fill="none" stroke="#191970" d="M1381.4961,-26C1390.3016,-26 1399.1861,-26 1407.8401,-26"/>
<polygon fill="#191970" stroke="#191970" points="1381.2141,-22.5001 1371.2141,-26 1381.214,-29.5001 1381.2141,-22.5001"/>
</g>
<!-- Node4 -->
<g id="node3" class="node">
<title>Node4</title>
<g id="a_node3"><a xlink:href="class_uptane_1_1_repository_type.html" target="_top" xlink:title="Uptane::RepositoryType">
<polygon fill="#ffffff" stroke="#000000" points="478,-.5 478,-19.5 610,-19.5 610,-.5 478,-.5"/>
<text text-anchor="middle" x="544" y="-7.5" font-family="Helvetica,sans-Serif" font-size="10.00" fill="#000000">Uptane::RepositoryType</text>
</a>
</g>
</g>
<!-- Node4&#45;&gt;Node3 -->
<g id="edge2" class="edge">
<title>Node4&#45;&gt;Node3</title>
<path fill="none" stroke="#9a32cd" stroke-dasharray="5,2" d="M620.2584,-10C680.786,-10 767.5587,-10 843.5,-10 843.5,-10 843.5,-10 1118,-10 1152.2099,-10 1190.0072,-13.0352 1221.7772,-16.4617"/>
<polygon fill="#9a32cd" stroke="#9a32cd" points="620.0243,-6.5001 610.0242,-10 620.0242,-13.5001 620.0243,-6.5001"/>
<text text-anchor="middle" x="977" y="-13" font-family="Helvetica,sans-Serif" font-size="10.00" fill="#000000"> type</text>
</g>
<!-- Node5 -->
<g id="node4" class="node">
<title>Node5</title>
<g id="a_node4"><a xlink:title="STL class. ">
<polygon fill="#ffffff" stroke="#bfbfbf" points="141,-44.5 141,-63.5 206,-63.5 206,-44.5 141,-44.5"/>
<text text-anchor="middle" x="173.5" y="-51.5" font-family="Helvetica,sans-Serif" font-size="10.00" fill="#000000">std::string</text>
</a>
</g>
</g>
<!-- Node5&#45;&gt;Node4 -->
<g id="edge3" class="edge">
<title>Node5&#45;&gt;Node4</title>
<path fill="none" stroke="#9a32cd" stroke-dasharray="5,2" d="M197.2377,-39.1837C205.4196,-34.7928 214.8361,-30.495 224,-28 309.3655,-4.7577 412.1334,-3.4431 477.7563,-5.7837"/>
<polygon fill="#9a32cd" stroke="#9a32cd" points="195.2475,-36.2892 188.289,-44.2786 198.711,-42.3724 195.2475,-36.2892"/>
<text text-anchor="middle" x="252" y="-42" font-family="Helvetica,sans-Serif" font-size="10.00" fill="#000000"> IMAGE</text>
<text text-anchor="middle" x="252" y="-31" font-family="Helvetica,sans-Serif" font-size="10.00" fill="#000000">DIRECTOR</text>
</g>
<!-- Node12 -->
<g id="node11" class="node">
<title>Node12</title>
<polygon fill="#ffffff" stroke="#bfbfbf" points="298,-111.5 298,-130.5 460,-130.5 460,-111.5 298,-111.5"/>
<text text-anchor="middle" x="379" y="-118.5" font-family="Helvetica,sans-Serif" font-size="10.00" fill="#000000">std::map&lt; KeyId, PublicKey &gt;</text>
</g>
<!-- Node5&#45;&gt;Node12 -->
<g id="edge12" class="edge">
<title>Node5&#45;&gt;Node12</title>
<path fill="none" stroke="#9a32cd" stroke-dasharray="5,2" d="M188.161,-71.3735C197.4073,-81.1259 210.1853,-92.59 224,-99 246.8056,-109.5817 273.3671,-115.3888 297.9928,-118.4901"/>
<polygon fill="#9a32cd" stroke="#9a32cd" points="190.5725,-68.8211 181.2796,-63.7326 185.371,-73.5056 190.5725,-68.8211"/>
<text text-anchor="middle" x="252" y="-118" font-family="Helvetica,sans-Serif" font-size="10.00" fill="#000000"> keys</text>
</g>
<!-- Node15 -->
<g id="node14" class="node">
<title>Node15</title>
<g id="a_node14"><a xlink:href="class_uptane_1_1_role.html" target="_top" xlink:title="TUF Roles. ">
<polygon fill="#ffffff" stroke="#000000" points="339.5,-44.5 339.5,-63.5 418.5,-63.5 418.5,-44.5 339.5,-44.5"/>
<text text-anchor="middle" x="379" y="-51.5" font-family="Helvetica,sans-Serif" font-size="10.00" fill="#000000">Uptane::Role</text>
</a>
</g>
</g>
<!-- Node5&#45;&gt;Node15 -->
<g id="edge15" class="edge">
<title>Node5&#45;&gt;Node15</title>
<path fill="none" stroke="#9a32cd" stroke-dasharray="5,2" d="M216.299,-54C252.4741,-54 303.8969,-54 339.1958,-54"/>
<polygon fill="#9a32cd" stroke="#9a32cd" points="216.0621,-50.5001 206.0621,-54 216.0621,-57.5001 216.0621,-50.5001"/>
<text text-anchor="middle" x="252" y="-90" font-family="Helvetica,sans-Serif" font-size="10.00" fill="#000000"> ROOT</text>
<text text-anchor="middle" x="252" y="-79" font-family="Helvetica,sans-Serif" font-size="10.00" fill="#000000">TIMESTAMP</text>
<text text-anchor="middle" x="252" y="-68" font-family="Helvetica,sans-Serif" font-size="10.00" fill="#000000">SNAPSHOT</text>
<text text-anchor="middle" x="252" y="-57" font-family="Helvetica,sans-Serif" font-size="10.00" fill="#000000">TARGETS</text>
</g>
<!-- Node6 -->
<g id="node5" class="node">
<title>Node6</title>
<g id="a_node5"><a xlink:title="STL class. ">
<polygon fill="#ffffff" stroke="#bfbfbf" points="0,-39 0,-69 104,-69 104,-39 0,-39"/>
<text text-anchor="start" x="8" y="-57" font-family="Helvetica,sans-Serif" font-size="10.00" fill="#000000">std::basic_string&lt;</text>
<text text-anchor="middle" x="52" y="-46" font-family="Helvetica,sans-Serif" font-size="10.00" fill="#000000"> char &gt;</text>
</a>
</g>
</g>
<!-- Node6&#45;&gt;Node5 -->
<g id="edge4" class="edge">
<title>Node6&#45;&gt;Node5</title>
<path fill="none" stroke="#191970" d="M114.2382,-54C123.4802,-54 132.6763,-54 140.9702,-54"/>
<polygon fill="#191970" stroke="#191970" points="114.2321,-50.5001 104.2321,-54 114.232,-57.5001 114.2321,-50.5001"/>
</g>
<!-- Node7 -->
<g id="node6" class="node">
<title>Node7</title>
<g id="a_node6"><a xlink:href="class_uptane_1_1_root.html" target="_top" xlink:title="Uptane::Root">
<polygon fill="#ffffff" stroke="#000000" points="1078,-67.5 1078,-86.5 1158,-86.5 1158,-67.5 1078,-67.5"/>
<text text-anchor="middle" x="1118" y="-74.5" font-family="Helvetica,sans-Serif" font-size="10.00" fill="#000000">Uptane::Root</text>
</a>
</g>
</g>
<!-- Node7&#45;&gt;Node3 -->
<g id="edge5" class="edge">
<title>Node7&#45;&gt;Node3</title>
<path fill="none" stroke="#9a32cd" stroke-dasharray="5,2" d="M1160.7398,-64.6152C1191.6119,-55.6693 1232.6954,-43.7644 1261.0442,-35.5497"/>
<polygon fill="#9a32cd" stroke="#9a32cd" points="1159.735,-61.2623 1151.1043,-67.4073 1161.6833,-67.9857 1159.735,-61.2623"/>
<text text-anchor="middle" x="1187.5" y="-63" font-family="Helvetica,sans-Serif" font-size="10.00" fill="#000000"> root</text>
</g>
<!-- Node8 -->
<g id="node7" class="node">
<title>Node8</title>
<g id="a_node7"><a xlink:href="class_uptane_1_1_meta_with_keys.html" target="_top" xlink:title="Uptane::MetaWithKeys">
<polygon fill="#ffffff" stroke="#000000" points="913,-96.5 913,-115.5 1041,-115.5 1041,-96.5 913,-96.5"/>
<text text-anchor="middle" x="977" y="-103.5" font-family="Helvetica,sans-Serif" font-size="10.00" fill="#000000">Uptane::MetaWithKeys</text>
</a>
</g>
</g>
<!-- Node8&#45;&gt;Node7 -->
<g id="edge6" class="edge">
<title>Node8&#45;&gt;Node7</title>
<path fill="none" stroke="#191970" d="M1033.5976,-94.3594C1048.3403,-91.3272 1063.9277,-88.1212 1077.6408,-85.3008"/>
<polygon fill="#191970" stroke="#191970" points="1032.6493,-90.9811 1023.5594,-96.4239 1034.0595,-97.8375 1032.6493,-90.9811"/>
</g>
<!-- Node9 -->
<g id="node8" class="node">
<title>Node9</title>
<g id="a_node8"><a xlink:href="class_uptane_1_1_base_meta.html" target="_top" xlink:title="Uptane::BaseMeta">
<polygon fill="#ffffff" stroke="#000000" points="648,-185.5 648,-204.5 754,-204.5 754,-185.5 648,-185.5"/>
<text text-anchor="middle" x="701" y="-192.5" font-family="Helvetica,sans-Serif" font-size="10.00" fill="#000000">Uptane::BaseMeta</text>
</a>
</g>
</g>
<!-- Node9&#45;&gt;Node8 -->
<g id="edge7" class="edge">
<title>Node9&#45;&gt;Node8</title>
<path fill="none" stroke="#191970" d="M764.0955,-185.291C802.6839,-178.2336 852.6105,-167.0751 895,-151 919.9014,-141.5568 946.5507,-125.7447 962.4889,-115.5993"/>
<polygon fill="#191970" stroke="#191970" points="763.2657,-181.8837 754.0357,-187.0853 764.4949,-188.775 763.2657,-181.8837"/>
</g>
<!-- Node10 -->
<g id="node9" class="node">
<title>Node10</title>
<g id="a_node9"><a xlink:href="class_time_stamp.html" target="_top" xlink:title="TimeStamp">
<polygon fill="#ffffff" stroke="#000000" points="342.5,-185.5 342.5,-204.5 415.5,-204.5 415.5,-185.5 342.5,-185.5"/>
<text text-anchor="middle" x="379" y="-192.5" font-family="Helvetica,sans-Serif" font-size="10.00" fill="#000000">TimeStamp</text>
</a>
</g>
</g>
<!-- Node10&#45;&gt;Node9 -->
<g id="edge8" class="edge">
<title>Node10&#45;&gt;Node9</title>
<path fill="none" stroke="#9a32cd" stroke-dasharray="5,2" d="M425.779,-195C484.7891,-195 586.0095,-195 647.8741,-195"/>
<polygon fill="#9a32cd" stroke="#9a32cd" points="425.624,-191.5001 415.624,-195 425.624,-198.5001 425.624,-191.5001"/>
<text text-anchor="middle" x="544" y="-198" font-family="Helvetica,sans-Serif" font-size="10.00" fill="#000000"> expiry_</text>
</g>
<!-- Node11 -->
<g id="node10" class="node">
<title>Node11</title>
<polygon fill="#ffffff" stroke="#bfbfbf" points="628,-136 628,-166 774,-166 774,-136 628,-136"/>
<text text-anchor="start" x="636" y="-154" font-family="Helvetica,sans-Serif" font-size="10.00" fill="#000000">std::set&lt; std::pair</text>
<text text-anchor="middle" x="701" y="-143" font-family="Helvetica,sans-Serif" font-size="10.00" fill="#000000">&lt; Uptane::Role, KeyId &gt; &gt;</text>
</g>
<!-- Node11&#45;&gt;Node8 -->
<g id="edge9" class="edge">
<title>Node11&#45;&gt;Node8</title>
<path fill="none" stroke="#9a32cd" stroke-dasharray="5,2" d="M784.248,-137.8967C818.559,-132.4443 858.7058,-125.9979 895,-120 903.5493,-118.5872 912.5955,-117.0675 921.4361,-115.5688"/>
<polygon fill="#9a32cd" stroke="#9a32cd" points="783.5948,-134.4565 774.2671,-139.4809 784.6922,-141.37 783.5948,-134.4565"/>
<text text-anchor="middle" x="843.5" y="-139" font-family="Helvetica,sans-Serif" font-size="10.00" fill="#000000"> keys_for_role_</text>
</g>
<!-- Node12&#45;&gt;Node8 -->
<g id="edge10" class="edge">
<title>Node12&#45;&gt;Node8</title>
<path fill="none" stroke="#9a32cd" stroke-dasharray="5,2" d="M470.3599,-118.7084C592.6053,-115.642 806.3218,-110.2812 912.8456,-107.6092"/>
<polygon fill="#9a32cd" stroke="#9a32cd" points="470.1803,-115.2117 460.2713,-118.9614 470.3559,-122.2095 470.1803,-115.2117"/>
<text text-anchor="middle" x="701" y="-117" font-family="Helvetica,sans-Serif" font-size="10.00" fill="#000000"> keys_</text>
</g>
<!-- Node13 -->
<g id="node12" class="node">
<title>Node13</title>
<g id="a_node12"><a xlink:href="class_public_key.html" target="_top" xlink:title="PublicKey">
<polygon fill="#ffffff" stroke="#000000" points="141.5,-145.5 141.5,-164.5 205.5,-164.5 205.5,-145.5 141.5,-145.5"/>
<text text-anchor="middle" x="173.5" y="-152.5" font-family="Helvetica,sans-Serif" font-size="10.00" fill="#000000">PublicKey</text>
</a>
</g>
</g>
<!-- Node13&#45;&gt;Node12 -->
<g id="edge11" class="edge">
<title>Node13&#45;&gt;Node12</title>
<path fill="none" stroke="#9a32cd" stroke-dasharray="5,2" d="M215.5178,-148.0481C246.0813,-142.9914 287.8273,-136.0845 321.4835,-130.5161"/>
<polygon fill="#9a32cd" stroke="#9a32cd" points="214.9039,-144.602 205.6094,-149.6875 216.0466,-151.5082 214.9039,-144.602"/>
<text text-anchor="middle" x="252" y="-148" font-family="Helvetica,sans-Serif" font-size="10.00" fill="#000000"> elements</text>
</g>
<!-- Node14 -->
<g id="node13" class="node">
<title>Node14</title>
<polygon fill="#ffffff" stroke="#bfbfbf" points="633,-39 633,-69 769,-69 769,-39 633,-39"/>
<text text-anchor="start" x="641" y="-57" font-family="Helvetica,sans-Serif" font-size="10.00" fill="#000000">std::map&lt; Uptane::Role,</text>
<text text-anchor="middle" x="701" y="-46" font-family="Helvetica,sans-Serif" font-size="10.00" fill="#000000"> int64_t &gt;</text>
</g>
<!-- Node14&#45;&gt;Node8 -->
<g id="edge13" class="edge">
<title>Node14&#45;&gt;Node8</title>
<path fill="none" stroke="#9a32cd" stroke-dasharray="5,2" d="M779.5518,-62.0776C815.0451,-66.4576 857.3718,-72.6998 895,-81 913.4577,-85.0715 933.7829,-91.256 949.58,-96.455"/>
<polygon fill="#9a32cd" stroke="#9a32cd" points="779.599,-58.558 769.2517,-60.8348 778.7604,-65.5076 779.599,-58.558"/>
<text text-anchor="middle" x="843.5" y="-84" font-family="Helvetica,sans-Serif" font-size="10.00" fill="#000000"> thresholds_for_role_</text>
</g>
<!-- Node15&#45;&gt;Node14 -->
<g id="edge14" class="edge">
<title>Node15&#45;&gt;Node14</title>
<path fill="none" stroke="#9a32cd" stroke-dasharray="5,2" d="M428.959,-54C483.7044,-54 571.8471,-54 632.8985,-54"/>
<polygon fill="#9a32cd" stroke="#9a32cd" points="428.8065,-50.5001 418.8065,-54 428.8064,-57.5001 428.8065,-50.5001"/>
<text text-anchor="middle" x="544" y="-57" font-family="Helvetica,sans-Serif" font-size="10.00" fill="#000000"> keys</text>
</g>
</g>
</svg>
