<?xml version="1.0" encoding="UTF-8" standalone="no"?>
<!DOCTYPE svg PUBLIC "-//W3C//DTD SVG 1.1//EN"
 "http://www.w3.org/Graphics/SVG/1.1/DTD/svg11.dtd">
<!-- Generated by graphviz version 2.43.0 (0)
 -->
<!-- Title: Primary::SecondaryConfig Pages: 1 -->
<svg width="342pt" height="162pt"
 viewBox="0.00 0.00 341.50 162.00" xmlns="http://www.w3.org/2000/svg" xmlns:xlink="http://www.w3.org/1999/xlink">
<g id="graph0" class="graph" transform="scale(1 1) rotate(0) translate(4 158)">
<title>Primary::SecondaryConfig</title>
<polygon fill="white" stroke="transparent" points="-4,4 -4,-158 337.5,-158 337.5,4 -4,4"/>
<!-- Node1 -->
<g id="node1" class="node">
<title>Node1</title>
<g id="a_node1"><a xlink:title=" ">
<polygon fill="#bfbfbf" stroke="black" points="96.5,-134.5 96.5,-153.5 238.5,-153.5 238.5,-134.5 96.5,-134.5"/>
<text text-anchor="middle" x="167.5" y="-141.5" font-family="Helvetica,sans-Serif" font-size="10.00">Primary::SecondaryConfig</text>
</a>
</g>
</g>
<!-- Node2 -->
<g id="node2" class="node">
<title>Node2</title>
<g id="a_node2"><a xlink:href="class_primary_1_1_i_p_secondaries_config.html" target="_top" xlink:title=" ">
<polygon fill="white" stroke="black" points="0,-73 0,-92 159,-92 159,-73 0,-73"/>
<text text-anchor="middle" x="79.5" y="-80" font-family="Helvetica,sans-Serif" font-size="10.00">Primary::IPSecondariesConfig</text>
</a>
</g>
</g>
<!-- Node1&#45;&gt;Node2 -->
<g id="edge1" class="edge">
<title>Node1&#45;&gt;Node2</title>
<path fill="none" stroke="midnightblue" d="M146.22,-128.61C129.3,-117.17 106.19,-101.55 92.08,-92.01"/>
<polygon fill="midnightblue" stroke="midnightblue" points="144.65,-131.77 154.89,-134.48 148.57,-125.97 144.65,-131.77"/>
</g>
<!-- Node3 -->
<g id="node3" class="node">
<title>Node3</title>
<g id="a_node3"><a xlink:href="class_primary_1_1_managed_secondary_config.html" target="_top" xlink:title=" ">
<polygon fill="white" stroke="black" points="177.5,-67.5 177.5,-97.5 333.5,-97.5 333.5,-67.5 177.5,-67.5"/>
<text text-anchor="start" x="185.5" y="-85.5" font-family="Helvetica,sans-Serif" font-size="10.00">Primary::ManagedSecondary</text>
<text text-anchor="middle" x="255.5" y="-74.5" font-family="Helvetica,sans-Serif" font-size="10.00">Config</text>
</a>
</g>
</g>
<!-- Node1&#45;&gt;Node3 -->
<g id="edge2" class="edge">
<title>Node1&#45;&gt;Node3</title>
<path fill="none" stroke="midnightblue" d="M188.59,-128.74C202.58,-119.28 220.85,-106.93 234.76,-97.52"/>
<polygon fill="midnightblue" stroke="midnightblue" points="186.43,-125.97 180.11,-134.48 190.35,-131.77 186.43,-125.97"/>
</g>
<!-- Node4 -->
<g id="node4" class="node">
<title>Node4</title>
<g id="a_node4"><a xlink:href="class_primary_1_1_virtual_secondary_config.html" target="_top" xlink:title=" ">
<polygon fill="white" stroke="black" points="184,-0.5 184,-30.5 327,-30.5 327,-0.5 184,-0.5"/>
<text text-anchor="start" x="192" y="-18.5" font-family="Helvetica,sans-Serif" font-size="10.00">Primary::VirtualSecondary</text>
<text text-anchor="middle" x="255.5" y="-7.5" font-family="Helvetica,sans-Serif" font-size="10.00">Config</text>
</a>
</g>
</g>
<!-- Node3&#45;&gt;Node4 -->
<g id="edge3" class="edge">
<title>Node3&#45;&gt;Node4</title>
<path fill="none" stroke="midnightblue" d="M255.5,-57.11C255.5,-48.15 255.5,-38.32 255.5,-30.58"/>
<polygon fill="midnightblue" stroke="midnightblue" points="252,-57.4 255.5,-67.4 259,-57.4 252,-57.4"/>
</g>
</g>
</svg>
