<?xml version="1.0" encoding="UTF-8" standalone="no"?>
<!DOCTYPE svg PUBLIC "-//W3C//DTD SVG 1.1//EN"
 "http://www.w3.org/Graphics/SVG/1.1/DTD/svg11.dtd">
<!-- Generated by graphviz version 2.43.0 (0)
 -->
<!-- Title: Uptane::Targets Pages: 1 -->
<svg width="1177pt" height="365pt"
 viewBox="0.00 0.00 1177.00 364.50" xmlns="http://www.w3.org/2000/svg" xmlns:xlink="http://www.w3.org/1999/xlink">
<g id="graph0" class="graph" transform="scale(1 1) rotate(0) translate(4 360.5)">
<title>Uptane::Targets</title>
<polygon fill="white" stroke="transparent" points="-4,4 -4,-360.5 1173,-360.5 1173,4 -4,4"/>
<!-- Node1 -->
<g id="node1" class="node">
<title>Node1</title>
<g id="a_node1"><a xlink:title=" ">
<polygon fill="#bfbfbf" stroke="black" points="1076,-97 1076,-116 1169,-116 1169,-97 1076,-97"/>
<text text-anchor="middle" x="1122.5" y="-104" font-family="Helvetica,sans-Serif" font-size="10.00">Uptane::Targets</text>
</a>
</g>
</g>
<!-- Node2 -->
<g id="node2" class="node">
<title>Node2</title>
<g id="a_node2"><a xlink:href="class_uptane_1_1_meta_with_keys.html" target="_top" xlink:title=" ">
<polygon fill="white" stroke="black" points="874,-247 874,-266 1002,-266 1002,-247 874,-247"/>
<text text-anchor="middle" x="938" y="-254" font-family="Helvetica,sans-Serif" font-size="10.00">Uptane::MetaWithKeys</text>
</a>
</g>
</g>
<!-- Node2&#45;&gt;Node1 -->
<g id="edge1" class="edge">
<title>Node2&#45;&gt;Node1</title>
<path fill="none" stroke="midnightblue" d="M962.68,-241.39C987.37,-225.23 1026.75,-198.28 1058,-171.5 1079.08,-153.43 1101.19,-129.48 1112.95,-116.28"/>
<polygon fill="midnightblue" stroke="midnightblue" points="960.77,-238.46 954.29,-246.84 964.58,-244.33 960.77,-238.46"/>
</g>
<!-- Node3 -->
<g id="node3" class="node">
<title>Node3</title>
<g id="a_node3"><a xlink:href="class_uptane_1_1_base_meta.html" target="_top" xlink:title=" ">
<polygon fill="white" stroke="black" points="570.5,-336 570.5,-355 677.5,-355 677.5,-336 570.5,-336"/>
<text text-anchor="middle" x="624" y="-343" font-family="Helvetica,sans-Serif" font-size="10.00">Uptane::BaseMeta</text>
</a>
</g>
</g>
<!-- Node3&#45;&gt;Node2 -->
<g id="edge2" class="edge">
<title>Node3&#45;&gt;Node2</title>
<path fill="none" stroke="midnightblue" d="M687.85,-340C735.2,-334.46 801.12,-323.71 856,-303.5 881.48,-294.12 908.19,-276.98 923.68,-266.19"/>
<polygon fill="midnightblue" stroke="midnightblue" points="687.28,-336.54 677.74,-341.14 688.07,-343.5 687.28,-336.54"/>
</g>
<!-- Node4 -->
<g id="node4" class="node">
<title>Node4</title>
<g id="a_node4"><a xlink:href="class_time_stamp.html" target="_top" xlink:title=" ">
<polygon fill="white" stroke="black" points="344.5,-336 344.5,-355 417.5,-355 417.5,-336 344.5,-336"/>
<text text-anchor="middle" x="381" y="-343" font-family="Helvetica,sans-Serif" font-size="10.00">TimeStamp</text>
</a>
</g>
</g>
<!-- Node4&#45;&gt;Node3 -->
<g id="edge3" class="edge">
<title>Node4&#45;&gt;Node3</title>
<path fill="none" stroke="#9a32cd" stroke-dasharray="5,2" d="M427.72,-345.5C468.36,-345.5 527.75,-345.5 570.35,-345.5"/>
<polygon fill="#9a32cd" stroke="#9a32cd" points="427.56,-342 417.56,-345.5 427.56,-349 427.56,-342"/>
<text text-anchor="middle" x="504.5" y="-348.5" font-family="Helvetica,sans-Serif" font-size="10.00"> expiry_</text>
</g>
<!-- Node5 -->
<g id="node5" class="node">
<title>Node5</title>
<g id="a_node5"><a xlink:title=" ">
<polygon fill="white" stroke="#bfbfbf" points="551,-286.5 551,-316.5 697,-316.5 697,-286.5 551,-286.5"/>
<text text-anchor="start" x="559" y="-304.5" font-family="Helvetica,sans-Serif" font-size="10.00">std::set&lt; std::pair</text>
<text text-anchor="middle" x="624" y="-293.5" font-family="Helvetica,sans-Serif" font-size="10.00">&lt; Uptane::Role, KeyId &gt; &gt;</text>
</a>
</g>
</g>
<!-- Node5&#45;&gt;Node2 -->
<g id="edge4" class="edge">
<title>Node5&#45;&gt;Node2</title>
<path fill="none" stroke="#9a32cd" stroke-dasharray="5,2" d="M707.26,-291.23C751.42,-285.52 806.74,-278.06 856,-270.5 864.89,-269.14 874.31,-267.6 883.46,-266.05"/>
<polygon fill="#9a32cd" stroke="#9a32cd" points="706.63,-287.78 697.15,-292.53 707.52,-294.72 706.63,-287.78"/>
<text text-anchor="middle" x="787.5" y="-291.5" font-family="Helvetica,sans-Serif" font-size="10.00"> keys_for_role_</text>
</g>
<!-- Node6 -->
<g id="node6" class="node">
<title>Node6</title>
<g id="a_node6"><a xlink:title=" ">
<polygon fill="white" stroke="#bfbfbf" points="300,-247 300,-266 462,-266 462,-247 300,-247"/>
<text text-anchor="middle" x="381" y="-254" font-family="Helvetica,sans-Serif" font-size="10.00">std::map&lt; KeyId, PublicKey &gt;</text>
</a>
</g>
</g>
<!-- Node6&#45;&gt;Node2 -->
<g id="edge5" class="edge">
<title>Node6&#45;&gt;Node2</title>
<path fill="none" stroke="#9a32cd" stroke-dasharray="5,2" d="M472.45,-256.5C585.28,-256.5 775.33,-256.5 873.72,-256.5"/>
<polygon fill="#9a32cd" stroke="#9a32cd" points="472.11,-253 462.11,-256.5 472.11,-260 472.11,-253"/>
<text text-anchor="middle" x="624" y="-259.5" font-family="Helvetica,sans-Serif" font-size="10.00"> keys_</text>
</g>
<!-- Node7 -->
<g id="node7" class="node">
<title>Node7</title>
<g id="a_node7"><a xlink:href="class_public_key.html" target="_top" xlink:title=" ">
<polygon fill="white" stroke="black" points="141.5,-249 141.5,-268 205.5,-268 205.5,-249 141.5,-249"/>
<text text-anchor="middle" x="173.5" y="-256" font-family="Helvetica,sans-Serif" font-size="10.00">PublicKey</text>
</a>
</g>
</g>
<!-- Node7&#45;&gt;Node6 -->
<g id="edge6" class="edge">
<title>Node7&#45;&gt;Node6</title>
<path fill="none" stroke="#9a32cd" stroke-dasharray="5,2" d="M215.88,-258.1C239.89,-257.86 270.95,-257.56 299.59,-257.28"/>
<polygon fill="#9a32cd" stroke="#9a32cd" points="215.68,-254.6 205.71,-258.2 215.74,-261.6 215.68,-254.6"/>
<text text-anchor="middle" x="253" y="-260.5" font-family="Helvetica,sans-Serif" font-size="10.00"> elements</text>
</g>
<!-- Node8 -->
<g id="node8" class="node">
<title>Node8</title>
<g id="a_node8"><a xlink:title="STL class.">
<polygon fill="white" stroke="#bfbfbf" points="141,-148 141,-167 206,-167 206,-148 141,-148"/>
<text text-anchor="middle" x="173.5" y="-155" font-family="Helvetica,sans-Serif" font-size="10.00">std::string</text>
</a>
</g>
</g>
<!-- Node8&#45;&gt;Node6 -->
<g id="edge7" class="edge">
<title>Node8&#45;&gt;Node6</title>
<path fill="none" stroke="#9a32cd" stroke-dasharray="5,2" d="M189.97,-174.63C199.12,-183.92 211.36,-195 224,-202.5 259.99,-223.85 305.67,-238.41 338.28,-246.98"/>
<polygon fill="#9a32cd" stroke="#9a32cd" points="192.5,-172.2 183.08,-167.36 187.42,-177.02 192.5,-172.2"/>
<text text-anchor="middle" x="253" y="-231.5" font-family="Helvetica,sans-Serif" font-size="10.00"> keys</text>
</g>
<!-- Node11 -->
<g id="node11" class="node">
<title>Node11</title>
<g id="a_node11"><a xlink:href="class_uptane_1_1_role.html" target="_top" xlink:title="TUF Roles.">
<polygon fill="white" stroke="black" points="341,-150 341,-169 421,-169 421,-150 341,-150"/>
<text text-anchor="middle" x="381" y="-157" font-family="Helvetica,sans-Serif" font-size="10.00">Uptane::Role</text>
</a>
</g>
</g>
<!-- Node8&#45;&gt;Node11 -->
<g id="edge11" class="edge">
<title>Node8&#45;&gt;Node11</title>
<path fill="none" stroke="#9a32cd" stroke-dasharray="5,2" d="M216.02,-157.88C235.97,-158.06 260.23,-158.29 282,-158.5 301.4,-158.69 322.95,-158.91 340.9,-159.09"/>
<polygon fill="#9a32cd" stroke="#9a32cd" points="216.05,-154.38 206.02,-157.79 215.98,-161.38 216.05,-154.38"/>
<text text-anchor="middle" x="253" y="-194.5" font-family="Helvetica,sans-Serif" font-size="10.00"> ROOT</text>
<text text-anchor="middle" x="253" y="-183.5" font-family="Helvetica,sans-Serif" font-size="10.00">TIMESTAMP</text>
<text text-anchor="middle" x="253" y="-172.5" font-family="Helvetica,sans-Serif" font-size="10.00">SNAPSHOT</text>
<text text-anchor="middle" x="253" y="-161.5" font-family="Helvetica,sans-Serif" font-size="10.00">TARGETS</text>
</g>
<!-- Node16 -->
<g id="node16" class="node">
<title>Node16</title>
<g id="a_node16"><a xlink:title=" ">
<polygon fill="white" stroke="#bfbfbf" points="311,-83 311,-102 451,-102 451,-83 311,-83"/>
<text text-anchor="middle" x="381" y="-90" font-family="Helvetica,sans-Serif" font-size="10.00">std::vector&lt; std::string &gt;</text>
</a>
</g>
</g>
<!-- Node8&#45;&gt;Node16 -->
<g id="edge19" class="edge">
<title>Node8&#45;&gt;Node16</title>
<path fill="none" stroke="#9a32cd" stroke-dasharray="5,2" d="M214.45,-144.87C254.12,-132.32 314.06,-113.36 349.89,-102.02"/>
<polygon fill="#9a32cd" stroke="#9a32cd" points="213.3,-141.56 204.82,-147.91 215.41,-148.23 213.3,-141.56"/>
<text text-anchor="middle" x="253" y="-144.5" font-family="Helvetica,sans-Serif" font-size="10.00"> elements</text>
</g>
<!-- Node9 -->
<g id="node9" class="node">
<title>Node9</title>
<g id="a_node9"><a xlink:title="STL class.">
<polygon fill="white" stroke="#bfbfbf" points="0,-142.5 0,-172.5 104,-172.5 104,-142.5 0,-142.5"/>
<text text-anchor="start" x="8" y="-160.5" font-family="Helvetica,sans-Serif" font-size="10.00">std::basic_string&lt;</text>
<text text-anchor="middle" x="52" y="-149.5" font-family="Helvetica,sans-Serif" font-size="10.00"> char &gt;</text>
</a>
</g>
</g>
<!-- Node9&#45;&gt;Node8 -->
<g id="edge8" class="edge">
<title>Node9&#45;&gt;Node8</title>
<path fill="none" stroke="midnightblue" d="M114.1,-157.5C123.41,-157.5 132.68,-157.5 141,-157.5"/>
<polygon fill="midnightblue" stroke="midnightblue" points="114.03,-154 104.03,-157.5 114.03,-161 114.03,-154"/>
</g>
<!-- Node10 -->
<g id="node10" class="node">
<title>Node10</title>
<g id="a_node10"><a xlink:title=" ">
<polygon fill="white" stroke="#bfbfbf" points="555.5,-189.5 555.5,-219.5 692.5,-219.5 692.5,-189.5 555.5,-189.5"/>
<text text-anchor="start" x="563.5" y="-207.5" font-family="Helvetica,sans-Serif" font-size="10.00">std::map&lt; Uptane::Role,</text>
<text text-anchor="middle" x="624" y="-196.5" font-family="Helvetica,sans-Serif" font-size="10.00"> int64_t &gt;</text>
</a>
</g>
</g>
<!-- Node10&#45;&gt;Node2 -->
<g id="edge9" class="edge">
<title>Node10&#45;&gt;Node2</title>
<path fill="none" stroke="#9a32cd" stroke-dasharray="5,2" d="M702.75,-210.02C747.83,-214.1 805.5,-220.85 856,-231.5 874.43,-235.39 894.68,-241.64 910.32,-246.92"/>
<polygon fill="#9a32cd" stroke="#9a32cd" points="703.01,-206.53 692.75,-209.14 702.4,-213.5 703.01,-206.53"/>
<text text-anchor="middle" x="787.5" y="-234.5" font-family="Helvetica,sans-Serif" font-size="10.00"> thresholds_for_role_</text>
</g>
<!-- Node11&#45;&gt;Node10 -->
<g id="edge10" class="edge">
<title>Node11&#45;&gt;Node10</title>
<path fill="none" stroke="#9a32cd" stroke-dasharray="5,2" d="M431.46,-168.74C467.27,-175.42 516.09,-184.54 555.49,-191.89"/>
<polygon fill="#9a32cd" stroke="#9a32cd" points="431.73,-165.23 421.26,-166.83 430.44,-172.11 431.73,-165.23"/>
<text text-anchor="middle" x="504.5" y="-188.5" font-family="Helvetica,sans-Serif" font-size="10.00"> keys</text>
</g>
<!-- Node14 -->
<g id="node14" class="node">
<title>Node14</title>
<g id="a_node14"><a xlink:title=" ">
<polygon fill="white" stroke="#bfbfbf" points="719,-143.5 719,-173.5 856,-173.5 856,-143.5 719,-143.5"/>
<text text-anchor="start" x="727" y="-161.5" font-family="Helvetica,sans-Serif" font-size="10.00">std::map&lt; Uptane::Role,</text>
<text text-anchor="middle" x="787.5" y="-150.5" font-family="Helvetica,sans-Serif" font-size="10.00"> bool &gt;</text>
</a>
</g>
</g>
<!-- Node11&#45;&gt;Node14 -->
<g id="edge15" class="edge">
<title>Node11&#45;&gt;Node14</title>
<path fill="none" stroke="#9a32cd" stroke-dasharray="5,2" d="M431.32,-159.38C503.39,-159.2 637.72,-158.87 718.93,-158.67"/>
<polygon fill="#9a32cd" stroke="#9a32cd" points="431.14,-155.88 421.15,-159.4 431.16,-162.88 431.14,-155.88"/>
<text text-anchor="middle" x="504.5" y="-161.5" font-family="Helvetica,sans-Serif" font-size="10.00"> keys</text>
</g>
<!-- Node15 -->
<g id="node15" class="node">
<title>Node15</title>
<g id="a_node15"><a xlink:title=" ">
<polygon fill="white" stroke="#bfbfbf" points="547,-91.5 547,-121.5 701,-121.5 701,-91.5 547,-91.5"/>
<text text-anchor="start" x="555" y="-109.5" font-family="Helvetica,sans-Serif" font-size="10.00">std::map&lt; Uptane::Role,</text>
<text text-anchor="middle" x="624" y="-98.5" font-family="Helvetica,sans-Serif" font-size="10.00"> std::vector&lt; std::string &gt; &gt;</text>
</a>
</g>
</g>
<!-- Node11&#45;&gt;Node15 -->
<g id="edge17" class="edge">
<title>Node11&#45;&gt;Node15</title>
<path fill="none" stroke="#9a32cd" stroke-dasharray="5,2" d="M416.94,-146.49C435.47,-140 458.73,-132.5 480,-127.5 501.5,-122.45 525.11,-118.39 546.85,-115.24"/>
<polygon fill="#9a32cd" stroke="#9a32cd" points="415.7,-143.22 407.45,-149.87 418.05,-149.81 415.7,-143.22"/>
<text text-anchor="middle" x="504.5" y="-130.5" font-family="Helvetica,sans-Serif" font-size="10.00"> keys</text>
</g>
<!-- Node12 -->
<g id="node12" class="node">
<title>Node12</title>
<g id="a_node12"><a xlink:title=" ">
<polygon fill="white" stroke="#bfbfbf" points="880.5,-0.5 880.5,-30.5 995.5,-30.5 995.5,-0.5 880.5,-0.5"/>
<text text-anchor="start" x="888.5" y="-18.5" font-family="Helvetica,sans-Serif" font-size="10.00">std::vector&lt; Uptane</text>
<text text-anchor="middle" x="938" y="-7.5" font-family="Helvetica,sans-Serif" font-size="10.00">::Target &gt;</text>
</a>
</g>
</g>
<!-- Node12&#45;&gt;Node1 -->
<g id="edge12" class="edge">
<title>Node12&#45;&gt;Node1</title>
<path fill="none" stroke="#9a32cd" stroke-dasharray="5,2" d="M1006.08,-18.06C1023.77,-20.87 1042.3,-25.86 1058,-34.5 1085.3,-49.53 1106.6,-81.02 1116.1,-96.9"/>
<polygon fill="#9a32cd" stroke="#9a32cd" points="1006.17,-14.54 995.78,-16.65 1005.21,-21.48 1006.17,-14.54"/>
<text text-anchor="middle" x="1039" y="-37.5" font-family="Helvetica,sans-Serif" font-size="10.00"> targets</text>
</g>
<!-- Node13 -->
<g id="node13" class="node">
<title>Node13</title>
<g id="a_node13"><a xlink:href="class_uptane_1_1_target.html" target="_top" xlink:title=" ">
<polygon fill="white" stroke="black" points="580,-6 580,-25 668,-25 668,-6 580,-6"/>
<text text-anchor="middle" x="624" y="-13" font-family="Helvetica,sans-Serif" font-size="10.00">Uptane::Target</text>
</a>
</g>
</g>
<!-- Node13&#45;&gt;Node12 -->
<g id="edge13" class="edge">
<title>Node13&#45;&gt;Node12</title>
<path fill="none" stroke="#9a32cd" stroke-dasharray="5,2" d="M678.17,-15.5C734.43,-15.5 822.87,-15.5 880.4,-15.5"/>
<polygon fill="#9a32cd" stroke="#9a32cd" points="678.05,-12 668.05,-15.5 678.05,-19 678.05,-12"/>
<text text-anchor="middle" x="787.5" y="-18.5" font-family="Helvetica,sans-Serif" font-size="10.00"> elements</text>
</g>
<!-- Node14&#45;&gt;Node1 -->
<g id="edge14" class="edge">
<title>Node14&#45;&gt;Node1</title>
<path fill="none" stroke="#9a32cd" stroke-dasharray="5,2" d="M866.2,-149.15C920.17,-142.27 993.67,-132.11 1058,-120.5 1065.33,-119.18 1073.1,-117.61 1080.6,-116"/>
<polygon fill="#9a32cd" stroke="#9a32cd" points="865.49,-145.71 856.01,-150.44 866.37,-152.66 865.49,-145.71"/>
<text text-anchor="middle" x="938" y="-150.5" font-family="Helvetica,sans-Serif" font-size="10.00"> terminating_role_</text>
</g>
<!-- Node15&#45;&gt;Node1 -->
<g id="edge16" class="edge">
<title>Node15&#45;&gt;Node1</title>
<path fill="none" stroke="#9a32cd" stroke-dasharray="5,2" d="M711.25,-106.5C817.18,-106.5 992.97,-106.5 1075.74,-106.5"/>
<polygon fill="#9a32cd" stroke="#9a32cd" points="711.22,-103 701.22,-106.5 711.22,-110 711.22,-103"/>
<text text-anchor="middle" x="938" y="-109.5" font-family="Helvetica,sans-Serif" font-size="10.00"> paths_for_role_</text>
</g>
<!-- Node16&#45;&gt;Node1 -->
<g id="edge20" class="edge">
<title>Node16&#45;&gt;Node1</title>
<path fill="none" stroke="#9a32cd" stroke-dasharray="5,2" d="M461.6,-86.68C488.69,-84.97 519.15,-83.33 547,-82.5 743.82,-76.63 978.41,-94.05 1075.71,-102.36"/>
<polygon fill="#9a32cd" stroke="#9a32cd" points="461.15,-83.21 451.4,-87.34 461.61,-90.19 461.15,-83.21"/>
<text text-anchor="middle" x="787.5" y="-89.5" font-family="Helvetica,sans-Serif" font-size="10.00"> delegated_role_names_</text>
</g>
<!-- Node16&#45;&gt;Node15 -->
<g id="edge18" class="edge">
<title>Node16&#45;&gt;Node15</title>
<path fill="none" stroke="#9a32cd" stroke-dasharray="5,2" d="M461.5,-91.15C483.39,-91.29 507.13,-91.92 529,-93.5 534.83,-93.92 540.86,-94.48 546.9,-95.12"/>
<polygon fill="#9a32cd" stroke="#9a32cd" points="461.26,-87.64 451.25,-91.11 461.23,-94.64 461.26,-87.64"/>
<text text-anchor="middle" x="504.5" y="-96.5" font-family="Helvetica,sans-Serif" font-size="10.00"> elements</text>
</g>
</g>
</svg>
