<?xml version="1.0" encoding="UTF-8" standalone="no"?>
<!DOCTYPE svg PUBLIC "-//W3C//DTD SVG 1.1//EN"
 "http://www.w3.org/Graphics/SVG/1.1/DTD/svg11.dtd">
<!-- Generated by graphviz version 2.40.1 (20161225.0304)
 -->
<!-- Title: AndroidManager Pages: 1 -->
<svg width="271pt" height="378pt"
 viewBox="0.00 0.00 270.50 378.00" xmlns="http://www.w3.org/2000/svg" xmlns:xlink="http://www.w3.org/1999/xlink">
<g id="graph0" class="graph" transform="scale(1 1) rotate(0) translate(4 374)">
<title>AndroidManager</title>
<polygon fill="#ffffff" stroke="transparent" points="-4,4 -4,-374 266.5,-374 266.5,4 -4,4"/>
<!-- Node2 -->
<g id="node1" class="node">
<title>Node2</title>
<polygon fill="#bfbfbf" stroke="#000000" points="23.5,-.5 23.5,-19.5 119.5,-19.5 119.5,-.5 23.5,-.5"/>
<text text-anchor="middle" x="71.5" y="-7.5" font-family="Helvetica,sans-Serif" font-size="10.00" fill="#000000">AndroidManager</text>
</g>
<!-- Node3 -->
<g id="node2" class="node">
<title>Node3</title>
<g id="a_node2"><a xlink:href="class_package_manager_interface.html" target="_top" xlink:title="PackageManagerInterface">
<polygon fill="#ffffff" stroke="#000000" points="0,-57.5 0,-76.5 143,-76.5 143,-57.5 0,-57.5"/>
<text text-anchor="middle" x="71.5" y="-64.5" font-family="Helvetica,sans-Serif" font-size="10.00" fill="#000000">PackageManagerInterface</text>
</a>
</g>
</g>
<!-- Node3&#45;&gt;Node2 -->
<g id="edge1" class="edge">
<title>Node3&#45;&gt;Node2</title>
<path fill="none" stroke="#191970" d="M71.5,-47.2342C71.5,-37.8491 71.5,-27.0651 71.5,-19.5265"/>
<polygon fill="#191970" stroke="#191970" points="68.0001,-47.3307 71.5,-57.3307 75.0001,-47.3308 68.0001,-47.3307"/>
</g>
<!-- Node4 -->
<g id="node3" class="node">
<title>Node4</title>
<g id="a_node3"><a xlink:href="struct_package_config.html" target="_top" xlink:title="PackageConfig">
<polygon fill="#ffffff" stroke="#000000" points="27.5,-124.5 27.5,-143.5 115.5,-143.5 115.5,-124.5 27.5,-124.5"/>
<text text-anchor="middle" x="71.5" y="-131.5" font-family="Helvetica,sans-Serif" font-size="10.00" fill="#000000">PackageConfig</text>
</a>
</g>
</g>
<!-- Node4&#45;&gt;Node3 -->
<g id="edge2" class="edge">
<title>Node4&#45;&gt;Node3</title>
<path fill="none" stroke="#9a32cd" stroke-dasharray="5,2" d="M71.5,-114.1079C71.5,-101.714 71.5,-86.3263 71.5,-76.5817"/>
<polygon fill="#9a32cd" stroke="#9a32cd" points="68.0001,-114.4005 71.5,-124.4005 75.0001,-114.4006 68.0001,-114.4005"/>
<text text-anchor="middle" x="88" y="-98" font-family="Helvetica,sans-Serif" font-size="10.00" fill="#000000"> config</text>
</g>
<!-- Node5 -->
<g id="node4" class="node">
<title>Node5</title>
<polygon fill="#ffffff" stroke="#bfbfbf" points="140.5,-192.5 140.5,-222.5 262.5,-222.5 262.5,-192.5 140.5,-192.5"/>
<text text-anchor="start" x="148.5" y="-210.5" font-family="Helvetica,sans-Serif" font-size="10.00" fill="#000000">std::map&lt; std::string,</text>
<text text-anchor="middle" x="201.5" y="-199.5" font-family="Helvetica,sans-Serif" font-size="10.00" fill="#000000"> std::string &gt;</text>
</g>
<!-- Node5&#45;&gt;Node4 -->
<g id="edge3" class="edge">
<title>Node5&#45;&gt;Node4</title>
<path fill="none" stroke="#9a32cd" stroke-dasharray="5,2" d="M165.9818,-187.4186C140.8103,-173.187 108.1545,-154.7239 88.5683,-143.6501"/>
<polygon fill="#9a32cd" stroke="#9a32cd" points="164.4512,-190.5738 174.8789,-192.4488 167.8964,-184.4803 164.4512,-190.5738"/>
<text text-anchor="middle" x="154" y="-165" font-family="Helvetica,sans-Serif" font-size="10.00" fill="#000000"> extra</text>
</g>
<!-- Node6 -->
<g id="node5" class="node">
<title>Node6</title>
<g id="a_node5"><a xlink:title="STL class. ">
<polygon fill="#ffffff" stroke="#bfbfbf" points="39,-282.5 39,-301.5 104,-301.5 104,-282.5 39,-282.5"/>
<text text-anchor="middle" x="71.5" y="-289.5" font-family="Helvetica,sans-Serif" font-size="10.00" fill="#000000">std::string</text>
</a>
</g>
</g>
<!-- Node6&#45;&gt;Node4 -->
<g id="edge6" class="edge">
<title>Node6&#45;&gt;Node4</title>
<path fill="none" stroke="#9a32cd" stroke-dasharray="5,2" d="M68.6173,-272.3251C65.9925,-251.9749 62.7704,-219.2732 64.5,-191 65.5227,-174.2814 68.2178,-154.9581 69.9498,-143.6489"/>
<polygon fill="#9a32cd" stroke="#9a32cd" points="65.1526,-272.8217 69.9789,-282.2534 72.0877,-271.8706 65.1526,-272.8217"/>
<text text-anchor="middle" x="98" y="-216" font-family="Helvetica,sans-Serif" font-size="10.00" fill="#000000"> os</text>
<text text-anchor="middle" x="98" y="-205" font-family="Helvetica,sans-Serif" font-size="10.00" fill="#000000">ostree_server</text>
<text text-anchor="middle" x="98" y="-194" font-family="Helvetica,sans-Serif" font-size="10.00" fill="#000000">type</text>
</g>
<!-- Node6&#45;&gt;Node5 -->
<g id="edge4" class="edge">
<title>Node6&#45;&gt;Node5</title>
<path fill="none" stroke="#9a32cd" stroke-dasharray="5,2" d="M94.8409,-276.8284C118.4752,-261.4661 154.8082,-237.8496 178.3675,-222.5361"/>
<polygon fill="#9a32cd" stroke="#9a32cd" points="92.6369,-274.0865 86.1599,-282.471 96.4519,-279.9557 92.6369,-274.0865"/>
<text text-anchor="middle" x="170.5" y="-256" font-family="Helvetica,sans-Serif" font-size="10.00" fill="#000000"> keys</text>
<text text-anchor="middle" x="170.5" y="-245" font-family="Helvetica,sans-Serif" font-size="10.00" fill="#000000">elements</text>
</g>
<!-- Node7 -->
<g id="node6" class="node">
<title>Node7</title>
<g id="a_node6"><a xlink:title="STL class. ">
<polygon fill="#ffffff" stroke="#bfbfbf" points="19.5,-339.5 19.5,-369.5 123.5,-369.5 123.5,-339.5 19.5,-339.5"/>
<text text-anchor="start" x="27.5" y="-357.5" font-family="Helvetica,sans-Serif" font-size="10.00" fill="#000000">std::basic_string&lt;</text>
<text text-anchor="middle" x="71.5" y="-346.5" font-family="Helvetica,sans-Serif" font-size="10.00" fill="#000000"> char &gt;</text>
</a>
</g>
</g>
<!-- Node7&#45;&gt;Node6 -->
<g id="edge5" class="edge">
<title>Node7&#45;&gt;Node6</title>
<path fill="none" stroke="#191970" d="M71.5,-329.3498C71.5,-319.6481 71.5,-309.1303 71.5,-301.7356"/>
<polygon fill="#191970" stroke="#191970" points="68.0001,-329.3705 71.5,-339.3705 75.0001,-329.3705 68.0001,-329.3705"/>
</g>
</g>
</svg>
