<?xml version="1.0" encoding="UTF-8" standalone="no"?>
<!DOCTYPE svg PUBLIC "-//W3C//DTD SVG 1.1//EN"
 "http://www.w3.org/Graphics/SVG/1.1/DTD/svg11.dtd">
<!-- Generated by graphviz version 2.43.0 (0)
 -->
<!-- Title: Uptane::MissingRepo Pages: 1 -->
<svg width="128pt" height="196pt"
 viewBox="0.00 0.00 128.00 196.00" xmlns="http://www.w3.org/2000/svg" xmlns:xlink="http://www.w3.org/1999/xlink">
<g id="graph0" class="graph" transform="scale(1 1) rotate(0) translate(4 192)">
<title>Uptane::MissingRepo</title>
<polygon fill="white" stroke="transparent" points="-4,4 -4,-192 124,-192 124,4 -4,4"/>
<!-- Node1 -->
<g id="node1" class="node">
<title>Node1</title>
<g id="a_node1"><a xlink:title=" ">
<polygon fill="#bfbfbf" stroke="black" points="0,-0.5 0,-19.5 120,-19.5 120,-0.5 0,-0.5"/>
<text text-anchor="middle" x="60" y="-7.5" font-family="Helvetica,sans-Serif" font-size="10.00">Uptane::MissingRepo</text>
</a>
</g>
</g>
<!-- Node2 -->
<g id="node2" class="node">
<title>Node2</title>
<g id="a_node2"><a xlink:href="class_uptane_1_1_exception.html" target="_top" xlink:title=" ">
<polygon fill="white" stroke="black" points="7,-56.5 7,-75.5 113,-75.5 113,-56.5 7,-56.5"/>
<text text-anchor="middle" x="60" y="-63.5" font-family="Helvetica,sans-Serif" font-size="10.00">Uptane::Exception</text>
</a>
</g>
</g>
<!-- Node2&#45;&gt;Node1 -->
<g id="edge1" class="edge">
<title>Node2&#45;&gt;Node1</title>
<path fill="none" stroke="midnightblue" d="M60,-45.8C60,-36.91 60,-26.78 60,-19.75"/>
<polygon fill="midnightblue" stroke="midnightblue" points="56.5,-46.08 60,-56.08 63.5,-46.08 56.5,-46.08"/>
</g>
<!-- Node3 -->
<g id="node3" class="node">
<title>Node3</title>
<g id="a_node3"><a xlink:title="STL class.">
<polygon fill="white" stroke="#bfbfbf" points="15.5,-112.5 15.5,-131.5 104.5,-131.5 104.5,-112.5 15.5,-112.5"/>
<text text-anchor="middle" x="60" y="-119.5" font-family="Helvetica,sans-Serif" font-size="10.00">std::logic_error</text>
</a>
</g>
</g>
<!-- Node3&#45;&gt;Node2 -->
<g id="edge2" class="edge">
<title>Node3&#45;&gt;Node2</title>
<path fill="none" stroke="midnightblue" d="M60,-101.8C60,-92.91 60,-82.78 60,-75.75"/>
<polygon fill="midnightblue" stroke="midnightblue" points="56.5,-102.08 60,-112.08 63.5,-102.08 56.5,-102.08"/>
</g>
<!-- Node4 -->
<g id="node4" class="node">
<title>Node4</title>
<g id="a_node4"><a xlink:title="STL class.">
<polygon fill="white" stroke="#bfbfbf" points="17,-168.5 17,-187.5 103,-187.5 103,-168.5 17,-168.5"/>
<text text-anchor="middle" x="60" y="-175.5" font-family="Helvetica,sans-Serif" font-size="10.00">std::exception</text>
</a>
</g>
</g>
<!-- Node4&#45;&gt;Node3 -->
<g id="edge3" class="edge">
<title>Node4&#45;&gt;Node3</title>
<path fill="none" stroke="midnightblue" d="M60,-157.8C60,-148.91 60,-138.78 60,-131.75"/>
<polygon fill="midnightblue" stroke="midnightblue" points="56.5,-158.08 60,-168.08 63.5,-158.08 56.5,-158.08"/>
</g>
</g>
</svg>
