<?xml version="1.0" encoding="UTF-8" standalone="no"?>
<!DOCTYPE svg PUBLIC "-//W3C//DTD SVG 1.1//EN"
 "http://www.w3.org/Graphics/SVG/1.1/DTD/svg11.dtd">
<!-- Generated by graphviz version 2.40.1 (20161225.0304)
 -->
<!-- Title: Initializer::KeyGenerationError Pages: 1 -->
<svg width="148pt" height="207pt"
 viewBox="0.00 0.00 148.00 207.00" xmlns="http://www.w3.org/2000/svg" xmlns:xlink="http://www.w3.org/1999/xlink">
<g id="graph0" class="graph" transform="scale(1 1) rotate(0) translate(4 203)">
<title>Initializer::KeyGenerationError</title>
<polygon fill="#ffffff" stroke="transparent" points="-4,4 -4,-203 144,-203 144,4 -4,4"/>
<!-- Node4 -->
<g id="node1" class="node">
<title>Node4</title>
<polygon fill="#bfbfbf" stroke="#000000" points="0,-.5 0,-30.5 140,-30.5 140,-.5 0,-.5"/>
<text text-anchor="start" x="8" y="-18.5" font-family="Helvetica,sans-Serif" font-size="10.00" fill="#000000">Initializer::KeyGeneration</text>
<text text-anchor="middle" x="70" y="-7.5" font-family="Helvetica,sans-Serif" font-size="10.00" fill="#000000">Error</text>
</g>
<!-- Node5 -->
<g id="node2" class="node">
<title>Node5</title>
<g id="a_node2"><a xlink:href="class_initializer_1_1_error.html" target="_top" xlink:title="Initializer::Error">
<polygon fill="#ffffff" stroke="#000000" points="24,-67.5 24,-86.5 116,-86.5 116,-67.5 24,-67.5"/>
<text text-anchor="middle" x="70" y="-74.5" font-family="Helvetica,sans-Serif" font-size="10.00" fill="#000000">Initializer::Error</text>
</a>
</g>
</g>
<!-- Node5&#45;&gt;Node4 -->
<g id="edge1" class="edge">
<title>Node5&#45;&gt;Node4</title>
<path fill="none" stroke="#191970" d="M70,-57.3693C70,-48.681 70,-38.6241 70,-30.5446"/>
<polygon fill="#191970" stroke="#191970" points="66.5001,-57.3906 70,-67.3906 73.5001,-57.3907 66.5001,-57.3906"/>
</g>
<!-- Node6 -->
<g id="node3" class="node">
<title>Node6</title>
<g id="a_node3"><a xlink:title="STL class. ">
<polygon fill="#ffffff" stroke="#bfbfbf" points="18,-123.5 18,-142.5 122,-142.5 122,-123.5 18,-123.5"/>
<text text-anchor="middle" x="70" y="-130.5" font-family="Helvetica,sans-Serif" font-size="10.00" fill="#000000">std::runtime_error</text>
</a>
</g>
</g>
<!-- Node6&#45;&gt;Node5 -->
<g id="edge2" class="edge">
<title>Node6&#45;&gt;Node5</title>
<path fill="none" stroke="#191970" d="M70,-113.1575C70,-104.155 70,-93.9199 70,-86.6427"/>
<polygon fill="#191970" stroke="#191970" points="66.5001,-113.2455 70,-123.2455 73.5001,-113.2456 66.5001,-113.2455"/>
</g>
<!-- Node7 -->
<g id="node4" class="node">
<title>Node7</title>
<g id="a_node4"><a xlink:title="STL class. ">
<polygon fill="#ffffff" stroke="#bfbfbf" points="27,-179.5 27,-198.5 113,-198.5 113,-179.5 27,-179.5"/>
<text text-anchor="middle" x="70" y="-186.5" font-family="Helvetica,sans-Serif" font-size="10.00" fill="#000000">std::exception</text>
</a>
</g>
</g>
<!-- Node7&#45;&gt;Node6 -->
<g id="edge3" class="edge">
<title>Node7&#45;&gt;Node6</title>
<path fill="none" stroke="#191970" d="M70,-169.1575C70,-160.155 70,-149.9199 70,-142.6427"/>
<polygon fill="#191970" stroke="#191970" points="66.5001,-169.2455 70,-179.2455 73.5001,-169.2456 66.5001,-169.2455"/>
</g>
</g>
</svg>
