<?xml version="1.0" encoding="UTF-8" standalone="no"?>
<!DOCTYPE svg PUBLIC "-//W3C//DTD SVG 1.1//EN"
 "http://www.w3.org/Graphics/SVG/1.1/DTD/svg11.dtd">
<!-- Generated by graphviz version 2.43.0 (0)
 -->
<!-- Title: result::Install::EcuReport Pages: 1 -->
<svg width="260pt" height="297pt"
 viewBox="0.00 0.00 259.50 297.00" xmlns="http://www.w3.org/2000/svg" xmlns:xlink="http://www.w3.org/1999/xlink">
<g id="graph0" class="graph" transform="scale(1 1) rotate(0) translate(4 293)">
<title>result::Install::EcuReport</title>
<polygon fill="white" stroke="transparent" points="-4,4 -4,-293 255.5,-293 255.5,4 -4,4"/>
<!-- Node1 -->
<g id="node1" class="node">
<title>Node1</title>
<g id="a_node1"><a xlink:title=" ">
<polygon fill="#bfbfbf" stroke="black" points="64,-0.5 64,-19.5 200,-19.5 200,-0.5 64,-0.5"/>
<text text-anchor="middle" x="132" y="-7.5" font-family="Helvetica,sans-Serif" font-size="10.00">result::Install::EcuReport</text>
</a>
</g>
</g>
<!-- Node2 -->
<g id="node2" class="node">
<title>Node2</title>
<g id="a_node2"><a xlink:href="structdata_1_1_installation_result.html" target="_top" xlink:title=" ">
<polygon fill="white" stroke="black" points="0,-67.5 0,-86.5 130,-86.5 130,-67.5 0,-67.5"/>
<text text-anchor="middle" x="65" y="-74.5" font-family="Helvetica,sans-Serif" font-size="10.00">data::InstallationResult</text>
</a>
</g>
</g>
<!-- Node2&#45;&gt;Node1 -->
<g id="edge1" class="edge">
<title>Node2&#45;&gt;Node1</title>
<path fill="none" stroke="#9a32cd" stroke-dasharray="5,2" d="M81.5,-60C94.64,-47.25 112.52,-29.89 123.11,-19.63"/>
<polygon fill="#9a32cd" stroke="#9a32cd" points="78.78,-57.76 74.04,-67.23 83.65,-62.78 78.78,-57.76"/>
<text text-anchor="middle" x="130" y="-41" font-family="Helvetica,sans-Serif" font-size="10.00"> install_res</text>
</g>
<!-- Node3 -->
<g id="node3" class="node">
<title>Node3</title>
<g id="a_node3"><a xlink:href="structdata_1_1_result_code.html" target="_top" xlink:title=" ">
<polygon fill="white" stroke="black" points="125,-134.5 125,-153.5 225,-153.5 225,-134.5 125,-134.5"/>
<text text-anchor="middle" x="175" y="-141.5" font-family="Helvetica,sans-Serif" font-size="10.00">data::ResultCode</text>
</a>
</g>
</g>
<!-- Node3&#45;&gt;Node2 -->
<g id="edge2" class="edge">
<title>Node3&#45;&gt;Node2</title>
<path fill="none" stroke="#9a32cd" stroke-dasharray="5,2" d="M151.5,-129.12C129.71,-116.24 97.96,-97.48 79.6,-86.63"/>
<polygon fill="#9a32cd" stroke="#9a32cd" points="149.78,-132.16 160.16,-134.23 153.34,-126.13 149.78,-132.16"/>
<text text-anchor="middle" x="156" y="-108" font-family="Helvetica,sans-Serif" font-size="10.00"> result_code</text>
</g>
<!-- Node4 -->
<g id="node4" class="node">
<title>Node4</title>
<g id="a_node4"><a xlink:title="STL class.">
<polygon fill="white" stroke="#bfbfbf" points="32.5,-201.5 32.5,-220.5 97.5,-220.5 97.5,-201.5 32.5,-201.5"/>
<text text-anchor="middle" x="65" y="-208.5" font-family="Helvetica,sans-Serif" font-size="10.00">std::string</text>
</a>
</g>
</g>
<!-- Node4&#45;&gt;Node2 -->
<g id="edge5" class="edge">
<title>Node4&#45;&gt;Node2</title>
<path fill="none" stroke="#9a32cd" stroke-dasharray="5,2" d="M62.07,-191.3C60.52,-180.44 58.78,-166.48 58,-154 56.49,-129.67 60.76,-101.05 63.29,-86.88"/>
<polygon fill="#9a32cd" stroke="#9a32cd" points="58.63,-191.93 63.57,-201.3 65.55,-190.89 58.63,-191.93"/>
<text text-anchor="middle" x="87" y="-141.5" font-family="Helvetica,sans-Serif" font-size="10.00"> description</text>
</g>
<!-- Node4&#45;&gt;Node3 -->
<g id="edge3" class="edge">
<title>Node4&#45;&gt;Node3</title>
<path fill="none" stroke="#9a32cd" stroke-dasharray="5,2" d="M88.5,-196.12C110.29,-183.24 142.04,-164.48 160.4,-153.63"/>
<polygon fill="#9a32cd" stroke="#9a32cd" points="86.66,-193.13 79.84,-201.23 90.22,-199.16 86.66,-193.13"/>
<text text-anchor="middle" x="152" y="-175" font-family="Helvetica,sans-Serif" font-size="10.00"> text_code</text>
</g>
<!-- Node5 -->
<g id="node5" class="node">
<title>Node5</title>
<g id="a_node5"><a xlink:title="STL class.">
<polygon fill="white" stroke="#bfbfbf" points="13,-258.5 13,-288.5 117,-288.5 117,-258.5 13,-258.5"/>
<text text-anchor="start" x="21" y="-276.5" font-family="Helvetica,sans-Serif" font-size="10.00">std::basic_string&lt;</text>
<text text-anchor="middle" x="65" y="-265.5" font-family="Helvetica,sans-Serif" font-size="10.00"> char &gt;</text>
</a>
</g>
</g>
<!-- Node5&#45;&gt;Node4 -->
<g id="edge4" class="edge">
<title>Node5&#45;&gt;Node4</title>
<path fill="none" stroke="midnightblue" d="M65,-248.35C65,-238.51 65,-227.78 65,-220.54"/>
<polygon fill="midnightblue" stroke="midnightblue" points="61.5,-248.47 65,-258.47 68.5,-248.47 61.5,-248.47"/>
</g>
<!-- Node6 -->
<g id="node6" class="node">
<title>Node6</title>
<g id="a_node6"><a xlink:href="class_uptane_1_1_ecu_serial.html" target="_top" xlink:title=" ">
<polygon fill="white" stroke="black" points="148.5,-67.5 148.5,-86.5 251.5,-86.5 251.5,-67.5 148.5,-67.5"/>
<text text-anchor="middle" x="200" y="-74.5" font-family="Helvetica,sans-Serif" font-size="10.00">Uptane::EcuSerial</text>
</a>
</g>
</g>
<!-- Node6&#45;&gt;Node1 -->
<g id="edge6" class="edge">
<title>Node6&#45;&gt;Node1</title>
<path fill="none" stroke="#9a32cd" stroke-dasharray="5,2" d="M183.89,-60.14C176.89,-53.3 168.58,-45.22 161,-38 154.52,-31.83 147.15,-24.97 141.45,-19.7"/>
<polygon fill="#9a32cd" stroke="#9a32cd" points="181.79,-62.99 191.38,-67.49 186.69,-57.99 181.79,-62.99"/>
<text text-anchor="middle" x="186.5" y="-41" font-family="Helvetica,sans-Serif" font-size="10.00"> serial</text>
</g>
</g>
</svg>
