<?xml version="1.0" encoding="UTF-8" standalone="no"?>
<!DOCTYPE svg PUBLIC "-//W3C//DTD SVG 1.1//EN"
 "http://www.w3.org/Graphics/SVG/1.1/DTD/svg11.dtd">
<!-- Generated by graphviz version 2.40.1 (20161225.0304)
 -->
<!-- Title: event::BaseEvent Pages: 1 -->
<svg width="338pt" height="484pt"
 viewBox="0.00 0.00 338.00 484.00" xmlns="http://www.w3.org/2000/svg" xmlns:xlink="http://www.w3.org/1999/xlink">
<g id="graph0" class="graph" transform="scale(1 1) rotate(0) translate(4 480)">
<title>event::BaseEvent</title>
<polygon fill="#ffffff" stroke="transparent" points="-4,4 -4,-480 334,-480 334,4 -4,4"/>
<!-- Node0 -->
<g id="node1" class="node">
<title>Node0</title>
<polygon fill="#bfbfbf" stroke="#000000" points="0,-228.5 0,-247.5 102,-247.5 102,-228.5 0,-228.5"/>
<text text-anchor="middle" x="51" y="-235.5" font-family="Helvetica,sans-Serif" font-size="10.00" fill="#000000">event::BaseEvent</text>
</g>
<!-- Node1 -->
<g id="node2" class="node">
<title>Node1</title>
<g id="a_node2"><a xlink:href="classevent_1_1_all_downloads_complete.html" target="_top" xlink:title="All targets for an update have been downloaded. ">
<polygon fill="#ffffff" stroke="#000000" points="152,-456.5 152,-475.5 316,-475.5 316,-456.5 152,-456.5"/>
<text text-anchor="middle" x="234" y="-463.5" font-family="Helvetica,sans-Serif" font-size="10.00" fill="#000000">event::AllDownloadsComplete</text>
</a>
</g>
</g>
<!-- Node0&#45;&gt;Node1 -->
<g id="edge1" class="edge">
<title>Node0&#45;&gt;Node1</title>
<path fill="none" stroke="#191970" d="M53.1119,-257.8227C58.6951,-299.7813 77.8205,-397.7483 138,-447 142.6018,-450.7662 147.7397,-453.8577 153.1812,-456.3886"/>
<polygon fill="#191970" stroke="#191970" points="56.5721,-257.2823 51.8965,-247.775 49.6228,-258.123 56.5721,-257.2823"/>
</g>
<!-- Node2 -->
<g id="node3" class="node">
<title>Node2</title>
<g id="a_node3"><a xlink:href="classevent_1_1_all_installs_complete.html" target="_top" xlink:title="All ECU installation attempts for an update have completed. ">
<polygon fill="#ffffff" stroke="#000000" points="161,-418.5 161,-437.5 307,-437.5 307,-418.5 161,-418.5"/>
<text text-anchor="middle" x="234" y="-425.5" font-family="Helvetica,sans-Serif" font-size="10.00" fill="#000000">event::AllInstallsComplete</text>
</a>
</g>
</g>
<!-- Node0&#45;&gt;Node2 -->
<g id="edge2" class="edge">
<title>Node0&#45;&gt;Node2</title>
<path fill="none" stroke="#191970" d="M55.015,-257.4128C63.533,-293.4173 86.9687,-370.3848 138,-409 144.7741,-414.126 152.5642,-417.9744 160.715,-420.8488"/>
<polygon fill="#191970" stroke="#191970" points="58.4288,-256.6405 52.8363,-247.6419 51.5966,-258.1639 58.4288,-256.6405"/>
</g>
<!-- Node3 -->
<g id="node4" class="node">
<title>Node3</title>
<g id="a_node4"><a xlink:href="classevent_1_1_campaign_accept_complete.html" target="_top" xlink:title="A campaign has been accepted. ">
<polygon fill="#ffffff" stroke="#000000" points="144,-380.5 144,-399.5 324,-399.5 324,-380.5 144,-380.5"/>
<text text-anchor="middle" x="234" y="-387.5" font-family="Helvetica,sans-Serif" font-size="10.00" fill="#000000">event::CampaignAcceptComplete</text>
</a>
</g>
</g>
<!-- Node0&#45;&gt;Node3 -->
<g id="edge3" class="edge">
<title>Node0&#45;&gt;Node3</title>
<path fill="none" stroke="#191970" d="M57.8876,-257.1618C69.5346,-286.6467 96.0337,-342.6907 138,-371 143.634,-374.8005 149.8511,-377.8772 156.3315,-380.3636"/>
<polygon fill="#191970" stroke="#191970" points="61.0819,-255.7138 54.2675,-247.6012 54.5355,-258.1926 61.0819,-255.7138"/>
</g>
<!-- Node4 -->
<g id="node5" class="node">
<title>Node4</title>
<g id="a_node5"><a xlink:href="classevent_1_1_campaign_check_complete.html" target="_top" xlink:title="The server has been queried for available campaigns. ">
<polygon fill="#ffffff" stroke="#000000" points="145.5,-342.5 145.5,-361.5 322.5,-361.5 322.5,-342.5 145.5,-342.5"/>
<text text-anchor="middle" x="234" y="-349.5" font-family="Helvetica,sans-Serif" font-size="10.00" fill="#000000">event::CampaignCheckComplete</text>
</a>
</g>
</g>
<!-- Node0&#45;&gt;Node4 -->
<g id="edge4" class="edge">
<title>Node0&#45;&gt;Node4</title>
<path fill="none" stroke="#191970" d="M62.2523,-256.0726C76.8861,-277.9517 104.5705,-314.1973 138,-333 144.8118,-336.8314 152.2752,-339.8993 159.9362,-342.3545"/>
<polygon fill="#191970" stroke="#191970" points="65.1792,-254.1532 56.801,-247.6681 59.3064,-257.9625 65.1792,-254.1532"/>
</g>
<!-- Node5 -->
<g id="node6" class="node">
<title>Node5</title>
<g id="a_node6"><a xlink:href="classevent_1_1_campaign_decline_complete.html" target="_top" xlink:title="event::CampaignDeclineComplete">
<polygon fill="#ffffff" stroke="#000000" points="142,-304.5 142,-323.5 326,-323.5 326,-304.5 142,-304.5"/>
<text text-anchor="middle" x="234" y="-311.5" font-family="Helvetica,sans-Serif" font-size="10.00" fill="#000000">event::CampaignDeclineComplete</text>
</a>
</g>
</g>
<!-- Node0&#45;&gt;Node5 -->
<g id="edge5" class="edge">
<title>Node0&#45;&gt;Node5</title>
<path fill="none" stroke="#191970" d="M70.5403,-253.9903C87.4078,-266.9803 112.9453,-284.7685 138,-295 147.516,-298.886 157.896,-301.9965 168.2,-304.4809"/>
<polygon fill="#191970" stroke="#191970" points="72.5791,-251.1408 62.5585,-247.7002 68.2464,-256.6388 72.5791,-251.1408"/>
</g>
<!-- Node6 -->
<g id="node7" class="node">
<title>Node6</title>
<g id="a_node7"><a xlink:href="classevent_1_1_campaign_postpone_complete.html" target="_top" xlink:title="event::CampaignPostponeComplete">
<polygon fill="#ffffff" stroke="#000000" points="138,-266.5 138,-285.5 330,-285.5 330,-266.5 138,-266.5"/>
<text text-anchor="middle" x="234" y="-273.5" font-family="Helvetica,sans-Serif" font-size="10.00" fill="#000000">event::CampaignPostponeComplete</text>
</a>
</g>
</g>
<!-- Node0&#45;&gt;Node6 -->
<g id="edge6" class="edge">
<title>Node0&#45;&gt;Node6</title>
<path fill="none" stroke="#191970" d="M103.9961,-249.7475C115.2149,-252.1856 126.9911,-254.7087 138,-257 153.1365,-260.1504 169.6422,-263.4619 184.6312,-266.4218"/>
<polygon fill="#191970" stroke="#191970" points="104.4042,-246.2542 93.8879,-247.5413 102.9115,-253.0932 104.4042,-246.2542"/>
</g>
<!-- Node7 -->
<g id="node8" class="node">
<title>Node7</title>
<g id="a_node8"><a xlink:href="classevent_1_1_download_progress_report.html" target="_top" xlink:title="A report for a download in progress. ">
<polygon fill="#ffffff" stroke="#000000" points="147.5,-228.5 147.5,-247.5 320.5,-247.5 320.5,-228.5 147.5,-228.5"/>
<text text-anchor="middle" x="234" y="-235.5" font-family="Helvetica,sans-Serif" font-size="10.00" fill="#000000">event::DownloadProgressReport</text>
</a>
</g>
</g>
<!-- Node0&#45;&gt;Node7 -->
<g id="edge7" class="edge">
<title>Node0&#45;&gt;Node7</title>
<path fill="none" stroke="#191970" d="M112.5073,-238C123.6741,-238 135.5111,-238 147.2437,-238"/>
<polygon fill="#191970" stroke="#191970" points="112.4627,-234.5001 102.4627,-238 112.4627,-241.5001 112.4627,-234.5001"/>
</g>
<!-- Node8 -->
<g id="node9" class="node">
<title>Node8</title>
<g id="a_node9"><a xlink:href="classevent_1_1_download_target_complete.html" target="_top" xlink:title="A target has been downloaded. ">
<polygon fill="#ffffff" stroke="#000000" points="146,-190.5 146,-209.5 322,-209.5 322,-190.5 146,-190.5"/>
<text text-anchor="middle" x="234" y="-197.5" font-family="Helvetica,sans-Serif" font-size="10.00" fill="#000000">event::DownloadTargetComplete</text>
</a>
</g>
</g>
<!-- Node0&#45;&gt;Node8 -->
<g id="edge8" class="edge">
<title>Node0&#45;&gt;Node8</title>
<path fill="none" stroke="#191970" d="M103.9961,-226.2525C115.2149,-223.8144 126.9911,-221.2913 138,-219 153.1365,-215.8496 169.6422,-212.5381 184.6312,-209.5782"/>
<polygon fill="#191970" stroke="#191970" points="102.9115,-222.9068 93.8879,-228.4587 104.4042,-229.7458 102.9115,-222.9068"/>
</g>
<!-- Node9 -->
<g id="node10" class="node">
<title>Node9</title>
<g id="a_node10"><a xlink:href="classevent_1_1_install_started.html" target="_top" xlink:title="An ECU has begun installation of an update. ">
<polygon fill="#ffffff" stroke="#000000" points="176,-152.5 176,-171.5 292,-171.5 292,-152.5 176,-152.5"/>
<text text-anchor="middle" x="234" y="-159.5" font-family="Helvetica,sans-Serif" font-size="10.00" fill="#000000">event::InstallStarted</text>
</a>
</g>
</g>
<!-- Node0&#45;&gt;Node9 -->
<g id="edge9" class="edge">
<title>Node0&#45;&gt;Node9</title>
<path fill="none" stroke="#191970" d="M70.5403,-222.0097C87.4078,-209.0197 112.9453,-191.2315 138,-181 149.8754,-176.1505 163.0961,-172.5088 175.8358,-169.7844"/>
<polygon fill="#191970" stroke="#191970" points="68.2464,-219.3612 62.5585,-228.2998 72.5791,-224.8592 68.2464,-219.3612"/>
</g>
<!-- Node10 -->
<g id="node11" class="node">
<title>Node10</title>
<g id="a_node11"><a xlink:href="classevent_1_1_install_target_complete.html" target="_top" xlink:title="An installation attempt on an ECU has completed. ">
<polygon fill="#ffffff" stroke="#000000" points="155,-114.5 155,-133.5 313,-133.5 313,-114.5 155,-114.5"/>
<text text-anchor="middle" x="234" y="-121.5" font-family="Helvetica,sans-Serif" font-size="10.00" fill="#000000">event::InstallTargetComplete</text>
</a>
</g>
</g>
<!-- Node0&#45;&gt;Node10 -->
<g id="edge10" class="edge">
<title>Node0&#45;&gt;Node10</title>
<path fill="none" stroke="#191970" d="M62.2523,-219.9274C76.8861,-198.0483 104.5705,-161.8027 138,-143 144.8118,-139.1686 152.2752,-136.1007 159.9362,-133.6455"/>
<polygon fill="#191970" stroke="#191970" points="59.3064,-218.0375 56.801,-228.3319 65.1792,-221.8468 59.3064,-218.0375"/>
</g>
<!-- Node11 -->
<g id="node12" class="node">
<title>Node11</title>
<g id="a_node12"><a xlink:href="classevent_1_1_put_manifest_complete.html" target="_top" xlink:title="A manifest has been sent to the server. ">
<polygon fill="#ffffff" stroke="#000000" points="156.5,-76.5 156.5,-95.5 311.5,-95.5 311.5,-76.5 156.5,-76.5"/>
<text text-anchor="middle" x="234" y="-83.5" font-family="Helvetica,sans-Serif" font-size="10.00" fill="#000000">event::PutManifestComplete</text>
</a>
</g>
</g>
<!-- Node0&#45;&gt;Node11 -->
<g id="edge11" class="edge">
<title>Node0&#45;&gt;Node11</title>
<path fill="none" stroke="#191970" d="M57.8876,-218.8382C69.5346,-189.3533 96.0337,-133.3093 138,-105 143.634,-101.1995 149.8511,-98.1228 156.3315,-95.6364"/>
<polygon fill="#191970" stroke="#191970" points="54.5355,-217.8074 54.2675,-228.3988 61.0819,-220.2862 54.5355,-217.8074"/>
</g>
<!-- Node12 -->
<g id="node13" class="node">
<title>Node12</title>
<g id="a_node13"><a xlink:href="classevent_1_1_send_device_data_complete.html" target="_top" xlink:title="Device data has been sent to the server. ">
<polygon fill="#ffffff" stroke="#000000" points="144.5,-38.5 144.5,-57.5 323.5,-57.5 323.5,-38.5 144.5,-38.5"/>
<text text-anchor="middle" x="234" y="-45.5" font-family="Helvetica,sans-Serif" font-size="10.00" fill="#000000">event::SendDeviceDataComplete</text>
</a>
</g>
</g>
<!-- Node0&#45;&gt;Node12 -->
<g id="edge12" class="edge">
<title>Node0&#45;&gt;Node12</title>
<path fill="none" stroke="#191970" d="M55.015,-218.5872C63.533,-182.5827 86.9687,-105.6152 138,-67 143.0129,-63.2068 148.5821,-60.1131 154.4421,-57.5961"/>
<polygon fill="#191970" stroke="#191970" points="51.5966,-217.8361 52.8363,-228.3581 58.4288,-219.3595 51.5966,-217.8361"/>
</g>
<!-- Node13 -->
<g id="node14" class="node">
<title>Node13</title>
<g id="a_node14"><a xlink:href="classevent_1_1_update_check_complete.html" target="_top" xlink:title="An update is available for download from the server. ">
<polygon fill="#ffffff" stroke="#000000" points="152.5,-.5 152.5,-19.5 315.5,-19.5 315.5,-.5 152.5,-.5"/>
<text text-anchor="middle" x="234" y="-7.5" font-family="Helvetica,sans-Serif" font-size="10.00" fill="#000000">event::UpdateCheckComplete</text>
</a>
</g>
</g>
<!-- Node0&#45;&gt;Node13 -->
<g id="edge13" class="edge">
<title>Node0&#45;&gt;Node13</title>
<path fill="none" stroke="#191970" d="M53.1119,-218.1773C58.6951,-176.2187 77.8205,-78.2517 138,-29 142.6018,-25.2338 147.7397,-22.1423 153.1812,-19.6114"/>
<polygon fill="#191970" stroke="#191970" points="49.6228,-217.877 51.8965,-228.225 56.5721,-218.7177 49.6228,-217.877"/>
</g>
</g>
</svg>
