<?xml version="1.0" encoding="UTF-8" standalone="no"?>
<!DOCTYPE svg PUBLIC "-//W3C//DTD SVG 1.1//EN"
 "http://www.w3.org/Graphics/SVG/1.1/DTD/svg11.dtd">
<!-- Generated by graphviz version 2.40.1 (20161225.0304)
 -->
<!-- Title: test_fixtures.UptaneRepo Pages: 1 -->
<svg width="437pt" height="142pt"
 viewBox="0.00 0.00 437.00 142.00" xmlns="http://www.w3.org/2000/svg" xmlns:xlink="http://www.w3.org/1999/xlink">
<g id="graph0" class="graph" transform="scale(1 1) rotate(0) translate(4 138)">
<title>test_fixtures.UptaneRepo</title>
<polygon fill="#ffffff" stroke="transparent" points="-4,4 -4,-138 433,-138 433,4 -4,4"/>
<!-- Node0 -->
<g id="node1" class="node">
<title>Node0</title>
<polygon fill="#bfbfbf" stroke="#000000" points="110,-57.5 110,-76.5 250,-76.5 250,-57.5 110,-57.5"/>
<text text-anchor="middle" x="180" y="-64.5" font-family="Helvetica,sans-Serif" font-size="10.00" fill="#000000">test_fixtures.UptaneRepo</text>
</g>
<!-- Node2 -->
<g id="node3" class="node">
<title>Node2</title>
<g id="a_node3"><a xlink:href="classtest__fixtures_1_1_custom_repo.html" target="_top" xlink:title="test_fixtures.CustomRepo">
<polygon fill="#ffffff" stroke="#000000" points="286.5,-114.5 286.5,-133.5 428.5,-133.5 428.5,-114.5 286.5,-114.5"/>
<text text-anchor="middle" x="357.5" y="-121.5" font-family="Helvetica,sans-Serif" font-size="10.00" fill="#000000">test_fixtures.CustomRepo</text>
</a>
</g>
</g>
<!-- Node0&#45;&gt;Node2 -->
<g id="edge2" class="edge">
<title>Node0&#45;&gt;Node2</title>
<path fill="none" stroke="#191970" d="M214.2356,-80.1033C234.8773,-87.7954 261.7793,-97.4552 286,-105 296.6687,-108.3233 308.3438,-111.5822 319.1091,-114.4366"/>
<polygon fill="#191970" stroke="#191970" points="215.2367,-76.7407 204.6445,-76.5032 212.7767,-83.2942 215.2367,-76.7407"/>
</g>
<!-- Node3 -->
<g id="node4" class="node">
<title>Node3</title>
<g id="a_node4"><a xlink:href="classtest__fixtures_1_1_director_repo.html" target="_top" xlink:title="test_fixtures.DirectorRepo">
<polygon fill="#ffffff" stroke="#000000" points="286,-76.5 286,-95.5 429,-95.5 429,-76.5 286,-76.5"/>
<text text-anchor="middle" x="357.5" y="-83.5" font-family="Helvetica,sans-Serif" font-size="10.00" fill="#000000">test_fixtures.DirectorRepo</text>
</a>
</g>
</g>
<!-- Node0&#45;&gt;Node3 -->
<g id="edge3" class="edge">
<title>Node0&#45;&gt;Node3</title>
<path fill="none" stroke="#191970" d="M260.1341,-75.5777C268.6956,-76.4942 277.365,-77.4222 285.8196,-78.3272"/>
<polygon fill="#191970" stroke="#191970" points="260.4684,-72.0936 250.1527,-74.5093 259.7233,-79.0539 260.4684,-72.0936"/>
</g>
<!-- Node4 -->
<g id="node5" class="node">
<title>Node4</title>
<g id="a_node5"><a xlink:href="classtest__fixtures_1_1_image_repo.html" target="_top" xlink:title="test_fixtures.ImageRepo">
<polygon fill="#ffffff" stroke="#000000" points="290,-38.5 290,-57.5 425,-57.5 425,-38.5 290,-38.5"/>
<text text-anchor="middle" x="357.5" y="-45.5" font-family="Helvetica,sans-Serif" font-size="10.00" fill="#000000">test_fixtures.ImageRepo</text>
</a>
</g>
</g>
<!-- Node0&#45;&gt;Node4 -->
<g id="edge4" class="edge">
<title>Node0&#45;&gt;Node4</title>
<path fill="none" stroke="#191970" d="M260.3626,-58.3978C270.2283,-57.3418 280.2334,-56.2708 289.8845,-55.2377"/>
<polygon fill="#191970" stroke="#191970" points="259.7233,-54.9461 250.1527,-59.4907 260.4684,-61.9064 259.7233,-54.9461"/>
</g>
<!-- Node5 -->
<g id="node6" class="node">
<title>Node5</title>
<g id="a_node6"><a xlink:href="classtest__fixtures_1_1_treehub.html" target="_top" xlink:title="test_fixtures.Treehub">
<polygon fill="#ffffff" stroke="#000000" points="298,-.5 298,-19.5 417,-19.5 417,-.5 298,-.5"/>
<text text-anchor="middle" x="357.5" y="-7.5" font-family="Helvetica,sans-Serif" font-size="10.00" fill="#000000">test_fixtures.Treehub</text>
</a>
</g>
</g>
<!-- Node0&#45;&gt;Node5 -->
<g id="edge5" class="edge">
<title>Node0&#45;&gt;Node5</title>
<path fill="none" stroke="#191970" d="M214.2356,-53.8967C234.8773,-46.2046 261.7793,-36.5448 286,-29 296.6687,-25.6767 308.3438,-22.4178 319.1091,-19.5634"/>
<polygon fill="#191970" stroke="#191970" points="212.7767,-50.7058 204.6445,-57.4968 215.2367,-57.2593 212.7767,-50.7058"/>
</g>
<!-- Node1 -->
<g id="node2" class="node">
<title>Node1</title>
<polygon fill="#ffffff" stroke="#bfbfbf" points="0,-57.5 0,-76.5 74,-76.5 74,-57.5 0,-57.5"/>
<text text-anchor="middle" x="37" y="-64.5" font-family="Helvetica,sans-Serif" font-size="10.00" fill="#000000">HTTPServer</text>
</g>
<!-- Node1&#45;&gt;Node0 -->
<g id="edge1" class="edge">
<title>Node1&#45;&gt;Node0</title>
<path fill="none" stroke="#191970" d="M84.3378,-67C92.5782,-67 101.3038,-67 109.9998,-67"/>
<polygon fill="#191970" stroke="#191970" points="84.1983,-63.5001 74.1983,-67 84.1982,-70.5001 84.1983,-63.5001"/>
</g>
</g>
</svg>
