<?xml version="1.0" encoding="UTF-8" standalone="no"?>
<!DOCTYPE svg PUBLIC "-//W3C//DTD SVG 1.1//EN"
 "http://www.w3.org/Graphics/SVG/1.1/DTD/svg11.dtd">
<!-- Generated by graphviz version 2.43.0 (0)
 -->
<!-- Title: SecondaryInterfaceMock Pages: 1 -->
<!--zoomable 165 -->
<svg id="main" version="1.1" xmlns="http://www.w3.org/2000/svg" xmlns:xlink="http://www.w3.org/1999/xlink" xml:space="preserve" onload="init(evt)">
<style type="text/css"><![CDATA[
.edge:hover path { stroke: red; }
.edge:hover polygon { stroke: red; fill: red; }
]]></style>
<script type="text/javascript"><![CDATA[
var edges = document.getElementsByTagName('g');
if (edges && edges.length) {
  for (var i=0;i<edges.length;i++) {
    if (edges[i].id.substr(0,4)=='edge') {
      edges[i].setAttribute('class','edge');
    }
  }
}
]]></script>
        <defs>
                <circle id="rim" cx="0" cy="0" r="7"/>
                <circle id="rim2" cx="0" cy="0" r="3.5"/>
                <g id="zoomPlus">
                        <use xlink:href="#rim" fill="#404040">
                                <set attributeName="fill" to="#808080" begin="zoomplus.mouseover" end="zoomplus.mouseout"/>
                        </use>
                        <path d="M-4,0h8M0,-4v8" fill="none" stroke="white" stroke-width="1.5" pointer-events="none"/>
                </g>
                <g id="zoomMin">
                        <use xlink:href="#rim" fill="#404040">
                                <set attributeName="fill" to="#808080" begin="zoomminus.mouseover" end="zoomminus.mouseout"/>
                        </use>
                        <path d="M-4,0h8" fill="none" stroke="white" stroke-width="1.5" pointer-events="none"/>
                </g>
                <g id="dirArrow">
                        <path fill="none" stroke="white" stroke-width="1.5" d="M0,-3.0v7 M-2.5,-0.5L0,-3.0L2.5,-0.5"/>
                </g>
               <g id="resetDef">
                       <use xlink:href="#rim2" fill="#404040">
                               <set attributeName="fill" to="#808080" begin="reset.mouseover" end="reset.mouseout"/>
                       </use>
               </g>
        </defs>

<script type="text/javascript">
var viewWidth = 1049;
var viewHeight = 165;
var sectionId = 'dynsection-1';
</script>
<script xlink:href="svgpan.js"/>
<svg id="graph" class="graph">
<g id="viewport">
<title>SecondaryInterfaceMock</title>
<polygon fill="white" stroke="transparent" points="-4,4 -4,-161 1045,-161 1045,4 -4,4"/>
<!-- Node1 -->
<g id="node1" class="node">
<title>Node1</title>
<g id="a_node1"><a xlink:title=" ">
<polygon fill="#bfbfbf" stroke="black" points="904,-72.5 904,-91.5 1041,-91.5 1041,-72.5 904,-72.5"/>
<text text-anchor="middle" x="972.5" y="-79.5" font-family="Helvetica,sans-Serif" font-size="10.00">SecondaryInterfaceMock</text>
</a>
</g>
</g>
<!-- Node2 -->
<g id="node2" class="node">
<title>Node2</title>
<g id="a_node2"><a xlink:href="class_secondary_interface.html" target="_top" xlink:title=" ">
<polygon fill="white" stroke="black" points="631.5,-137.5 631.5,-156.5 742.5,-156.5 742.5,-137.5 631.5,-137.5"/>
<text text-anchor="middle" x="687" y="-144.5" font-family="Helvetica,sans-Serif" font-size="10.00">SecondaryInterface</text>
</a>
</g>
</g>
<!-- Node2&#45;&gt;Node1 -->
<g id="edge1" class="edge">
<title>Node2&#45;&gt;Node1</title>
<path fill="none" stroke="midnightblue" d="M752.77,-137.11C791.67,-130.62 842,-121.26 886,-110 906.12,-104.85 928.42,-97.49 945.19,-91.61"/>
<polygon fill="midnightblue" stroke="midnightblue" points="751.93,-133.7 742.63,-138.78 753.06,-140.61 751.93,-133.7"/>
</g>
<!-- Node3 -->
<g id="node3" class="node">
<title>Node3</title>
<g id="a_node3"><a xlink:href="class_primary_1_1_virtual_secondary_config.html" target="_top" xlink:title=" ">
<polygon fill="white" stroke="black" points="615.5,-88 615.5,-118 758.5,-118 758.5,-88 615.5,-88"/>
<text text-anchor="start" x="623.5" y="-106" font-family="Helvetica,sans-Serif" font-size="10.00">Primary::VirtualSecondary</text>
<text text-anchor="middle" x="687" y="-95" font-family="Helvetica,sans-Serif" font-size="10.00">Config</text>
</a>
</g>
</g>
<!-- Node3&#45;&gt;Node1 -->
<g id="edge2" class="edge">
<title>Node3&#45;&gt;Node1</title>
<path fill="none" stroke="#9a32cd" stroke-dasharray="5,2" d="M768.86,-97.01C811.44,-93.86 863.06,-90.03 903.55,-87.03"/>
<polygon fill="#9a32cd" stroke="#9a32cd" points="768.52,-93.53 758.81,-97.75 769.04,-100.51 768.52,-93.53"/>
<text text-anchor="middle" x="833.5" y="-98" font-family="Helvetica,sans-Serif" font-size="10.00"> sconfig</text>
</g>
<!-- Node4 -->
<g id="node4" class="node">
<title>Node4</title>
<g id="a_node4"><a xlink:href="class_primary_1_1_managed_secondary_config.html" target="_top" xlink:title=" ">
<polygon fill="white" stroke="black" points="402,-88 402,-118 558,-118 558,-88 402,-88"/>
<text text-anchor="start" x="410" y="-106" font-family="Helvetica,sans-Serif" font-size="10.00">Primary::ManagedSecondary</text>
<text text-anchor="middle" x="480" y="-95" font-family="Helvetica,sans-Serif" font-size="10.00">Config</text>
</a>
</g>
</g>
<!-- Node4&#45;&gt;Node3 -->
<g id="edge3" class="edge">
<title>Node4&#45;&gt;Node3</title>
<path fill="none" stroke="midnightblue" d="M568.41,-103C584.05,-103 600.17,-103 615.28,-103"/>
<polygon fill="midnightblue" stroke="midnightblue" points="568.21,-99.5 558.21,-103 568.21,-106.5 568.21,-99.5"/>
</g>
<!-- Node5 -->
<g id="node5" class="node">
<title>Node5</title>
<g id="a_node5"><a xlink:href="class_primary_1_1_secondary_config.html" target="_top" xlink:title=" ">
<polygon fill="white" stroke="black" points="141,-122.5 141,-141.5 283,-141.5 283,-122.5 141,-122.5"/>
<text text-anchor="middle" x="212" y="-129.5" font-family="Helvetica,sans-Serif" font-size="10.00">Primary::SecondaryConfig</text>
</a>
</g>
</g>
<!-- Node5&#45;&gt;Node4 -->
<g id="edge4" class="edge">
<title>Node5&#45;&gt;Node4</title>
<path fill="none" stroke="midnightblue" d="M293,-126.7C321.74,-124.46 354.37,-121.55 384,-118 389.8,-117.31 395.79,-116.52 401.82,-115.68"/>
<polygon fill="midnightblue" stroke="midnightblue" points="292.71,-123.21 283.01,-127.46 293.24,-130.19 292.71,-123.21"/>
</g>
<!-- Node6 -->
<g id="node6" class="node">
<title>Node6</title>
<g id="a_node6"><a xlink:title="STL class.">
<polygon fill="white" stroke="#bfbfbf" points="179.5,-63.5 179.5,-82.5 244.5,-82.5 244.5,-63.5 179.5,-63.5"/>
<text text-anchor="middle" x="212" y="-70.5" font-family="Helvetica,sans-Serif" font-size="10.00">std::string</text>
</a>
</g>
</g>
<!-- Node6&#45;&gt;Node4 -->
<g id="edge5" class="edge">
<title>Node6&#45;&gt;Node4</title>
<path fill="none" stroke="#9a32cd" stroke-dasharray="5,2" d="M255.05,-67.98C289.86,-64.85 340.49,-62.66 384,-70 404.66,-73.49 426.82,-80.95 444.54,-87.91"/>
<polygon fill="#9a32cd" stroke="#9a32cd" points="254.39,-64.53 244.78,-68.98 255.07,-71.5 254.39,-64.53"/>
<text text-anchor="middle" x="342.5" y="-106" font-family="Helvetica,sans-Serif" font-size="10.00"> ecu_private_key</text>
<text text-anchor="middle" x="342.5" y="-95" font-family="Helvetica,sans-Serif" font-size="10.00">ecu_hardware_id</text>
<text text-anchor="middle" x="342.5" y="-84" font-family="Helvetica,sans-Serif" font-size="10.00">ecu_serial</text>
<text text-anchor="middle" x="342.5" y="-73" font-family="Helvetica,sans-Serif" font-size="10.00">ecu_public_key</text>
</g>
<!-- Node7 -->
<g id="node7" class="node">
<title>Node7</title>
<g id="a_node7"><a xlink:title="STL class.">
<polygon fill="white" stroke="#bfbfbf" points="0,-58 0,-88 104,-88 104,-58 0,-58"/>
<text text-anchor="start" x="8" y="-76" font-family="Helvetica,sans-Serif" font-size="10.00">std::basic_string&lt;</text>
<text text-anchor="middle" x="52" y="-65" font-family="Helvetica,sans-Serif" font-size="10.00"> char &gt;</text>
</a>
</g>
</g>
<!-- Node7&#45;&gt;Node6 -->
<g id="edge6" class="edge">
<title>Node7&#45;&gt;Node6</title>
<path fill="none" stroke="midnightblue" d="M114.33,-73C136.51,-73 160.66,-73 179.27,-73"/>
<polygon fill="midnightblue" stroke="midnightblue" points="114.3,-69.5 104.3,-73 114.3,-76.5 114.3,-69.5"/>
</g>
<!-- Node8 -->
<g id="node8" class="node">
<title>Node8</title>
<g id="a_node8"><a xlink:title=" ">
<polygon fill="white" stroke="#bfbfbf" points="611,-39 611,-69 763,-69 763,-39 611,-39"/>
<text text-anchor="start" x="619" y="-57" font-family="Helvetica,sans-Serif" font-size="10.00">std::shared_ptr&lt; Secondary</text>
<text text-anchor="middle" x="687" y="-46" font-family="Helvetica,sans-Serif" font-size="10.00">Provider &gt;</text>
</a>
</g>
</g>
<!-- Node8&#45;&gt;Node1 -->
<g id="edge7" class="edge">
<title>Node8&#45;&gt;Node1</title>
<path fill="none" stroke="#9a32cd" stroke-dasharray="5,2" d="M773.39,-62.02C808.31,-65.35 849.1,-69.29 886,-73 891.79,-73.58 897.8,-74.2 903.83,-74.82"/>
<polygon fill="#9a32cd" stroke="#9a32cd" points="773.52,-58.52 763.23,-61.05 772.86,-65.49 773.52,-58.52"/>
<text text-anchor="middle" x="833.5" y="-76" font-family="Helvetica,sans-Serif" font-size="10.00"> secondary_provider_</text>
</g>
<!-- Node9 -->
<g id="node9" class="node">
<title>Node9</title>
<g id="a_node9"><a xlink:href="class_secondary_provider.html" target="_top" xlink:title=" ">
<polygon fill="white" stroke="black" points="426,-44.5 426,-63.5 534,-63.5 534,-44.5 426,-44.5"/>
<text text-anchor="middle" x="480" y="-51.5" font-family="Helvetica,sans-Serif" font-size="10.00">SecondaryProvider</text>
</a>
</g>
</g>
<!-- Node9&#45;&gt;Node8 -->
<g id="edge8" class="edge">
<title>Node9&#45;&gt;Node8</title>
<path fill="none" stroke="#9a32cd" stroke-dasharray="5,2" d="M544.17,-54C565.22,-54 588.89,-54 610.77,-54"/>
<polygon fill="#9a32cd" stroke="#9a32cd" points="544.06,-50.5 534.06,-54 544.06,-57.5 544.06,-50.5"/>
<text text-anchor="middle" x="584.5" y="-57" font-family="Helvetica,sans-Serif" font-size="10.00"> ptr</text>
</g>
<!-- Node10 -->
<g id="node10" class="node">
<title>Node10</title>
<g id="a_node10"><a xlink:href="class_public_key.html" target="_top" xlink:title=" ">
<polygon fill="white" stroke="black" points="655,-0.5 655,-19.5 719,-19.5 719,-0.5 655,-0.5"/>
<text text-anchor="middle" x="687" y="-7.5" font-family="Helvetica,sans-Serif" font-size="10.00">PublicKey</text>
</a>
</g>
</g>
<!-- Node10&#45;&gt;Node1 -->
<g id="edge9" class="edge">
<title>Node10&#45;&gt;Node1</title>
<path fill="none" stroke="#9a32cd" stroke-dasharray="5,2" d="M729.32,-15.6C769.75,-21.63 832.84,-32.48 886,-48 908.69,-54.63 933.73,-64.95 950.81,-72.49"/>
<polygon fill="#9a32cd" stroke="#9a32cd" points="729.7,-12.12 719.3,-14.14 728.69,-19.05 729.7,-12.12"/>
<text text-anchor="middle" x="833.5" y="-51" font-family="Helvetica,sans-Serif" font-size="10.00"> public_key_</text>
</g>
</g>
</svg>
        <g id="navigator" transform="translate(0 0)" fill="#404254">
                <rect fill="#f2f5e9" fill-opacity="0.5" stroke="#606060" stroke-width=".5" x="0" y="0" width="60" height="60"/>
                <use id="zoomplus" xlink:href="#zoomPlus" x="17" y="9" onmousedown="handleZoom(evt,'in')"/>
                <use id="zoomminus" xlink:href="#zoomMin" x="42" y="9" onmousedown="handleZoom(evt,'out')"/>
                <use id="reset" xlink:href="#resetDef" x="30" y="36" onmousedown="handleReset()"/>
                <g id="arrowUp" xlink:href="#dirArrow" transform="translate(30 24)" onmousedown="handlePan(0,-1)">
                  <use xlink:href="#rim" fill="#404040">
                        <set attributeName="fill" to="#808080" begin="arrowUp.mouseover" end="arrowUp.mouseout"/>
                  </use>
                  <path fill="none" stroke="white" stroke-width="1.5" d="M0,-3.0v7 M-2.5,-0.5L0,-3.0L2.5,-0.5"/>
                </g>
                <g id="arrowRight" xlink:href="#dirArrow" transform="rotate(90) translate(36 -43)" onmousedown="handlePan(1,0)">
                  <use xlink:href="#rim" fill="#404040">
                        <set attributeName="fill" to="#808080" begin="arrowRight.mouseover" end="arrowRight.mouseout"/>
                  </use>
                  <path fill="none" stroke="white" stroke-width="1.5" d="M0,-3.0v7 M-2.5,-0.5L0,-3.0L2.5,-0.5"/>
                </g>
                <g id="arrowDown" xlink:href="#dirArrow" transform="rotate(180) translate(-30 -48)" onmousedown="handlePan(0,1)">
                  <use xlink:href="#rim" fill="#404040">
                        <set attributeName="fill" to="#808080" begin="arrowDown.mouseover" end="arrowDown.mouseout"/>
                  </use>
                  <path fill="none" stroke="white" stroke-width="1.5" d="M0,-3.0v7 M-2.5,-0.5L0,-3.0L2.5,-0.5"/>
                </g>
                <g id="arrowLeft" xlink:href="#dirArrow" transform="rotate(270) translate(-36 17)" onmousedown="handlePan(-1,0)">
                  <use xlink:href="#rim" fill="#404040">
                        <set attributeName="fill" to="#808080" begin="arrowLeft.mouseover" end="arrowLeft.mouseout"/>
                  </use>
                  <path fill="none" stroke="white" stroke-width="1.5" d="M0,-3.0v7 M-2.5,-0.5L0,-3.0L2.5,-0.5"/>
                </g>
        </g>
        <svg viewBox="0 0 15 15" width="100%" height="30px" preserveAspectRatio="xMaxYMin meet">
         <g id="arrow_out" transform="scale(0.3 0.3)">
          <a xlink:href="class_secondary_interface_mock__coll__graph_org.svg" target="_base">
           <rect id="button" ry="5" rx="5" y="6" x="6" height="38" width="38"
                fill="#f2f5e9" fill-opacity="0.5" stroke="#606060" stroke-width="1.0"/>
           <path id="arrow"
             d="M 11.500037,31.436501 C 11.940474,20.09759 22.043105,11.32322 32.158766,21.979434 L 37.068811,17.246167 C 37.068811,17.246167 37.088388,32 37.088388,32 L 22.160133,31.978069 C 22.160133,31.978069 26.997745,27.140456 26.997745,27.140456 C 18.528582,18.264221 13.291696,25.230495 11.500037,31.436501 z"
             style="fill:#404040;"/>
          </a>
         </g>
        </svg>
</svg>
