<?xml version="1.0" encoding="UTF-8" standalone="no"?>
<!DOCTYPE svg PUBLIC "-//W3C//DTD SVG 1.1//EN"
 "http://www.w3.org/Graphics/SVG/1.1/DTD/svg11.dtd">
<!-- Generated by graphviz version 2.43.0 (0)
 -->
<!-- Title: INvStorage Pages: 1 -->
<svg width="177pt" height="239pt"
 viewBox="0.00 0.00 176.50 239.00" xmlns="http://www.w3.org/2000/svg" xmlns:xlink="http://www.w3.org/1999/xlink">
<g id="graph0" class="graph" transform="scale(1 1) rotate(0) translate(4 235)">
<title>INvStorage</title>
<polygon fill="white" stroke="transparent" points="-4,4 -4,-235 172.5,-235 172.5,4 -4,4"/>
<!-- Node1 -->
<g id="node1" class="node">
<title>Node1</title>
<g id="a_node1"><a xlink:title=" ">
<polygon fill="#bfbfbf" stroke="black" points="12,-0.5 12,-19.5 83,-19.5 83,-0.5 12,-0.5"/>
<text text-anchor="middle" x="47.5" y="-7.5" font-family="Helvetica,sans-Serif" font-size="10.00">INvStorage</text>
</a>
</g>
</g>
<!-- Node2 -->
<g id="node2" class="node">
<title>Node2</title>
<g id="a_node2"><a xlink:href="struct_storage_config.html" target="_top" xlink:title=" ">
<polygon fill="white" stroke="black" points="5,-67.5 5,-86.5 90,-86.5 90,-67.5 5,-67.5"/>
<text text-anchor="middle" x="47.5" y="-74.5" font-family="Helvetica,sans-Serif" font-size="10.00">StorageConfig</text>
</a>
</g>
</g>
<!-- Node2&#45;&gt;Node1 -->
<g id="edge1" class="edge">
<title>Node2&#45;&gt;Node1</title>
<path fill="none" stroke="#9a32cd" stroke-dasharray="5,2" d="M47.5,-57.04C47.5,-44.67 47.5,-29.12 47.5,-19.63"/>
<polygon fill="#9a32cd" stroke="#9a32cd" points="44,-57.23 47.5,-67.23 51,-57.23 44,-57.23"/>
<text text-anchor="middle" x="66.5" y="-41" font-family="Helvetica,sans-Serif" font-size="10.00"> config_</text>
</g>
<!-- Node3 -->
<g id="node3" class="node">
<title>Node3</title>
<g id="a_node3"><a xlink:href="classutils_1_1_based_path.html" target="_top" xlink:title="The BasedPath class Can represent an absolute or relative path, only readable through the BasePath::g...">
<polygon fill="white" stroke="black" points="0,-211.5 0,-230.5 95,-230.5 95,-211.5 0,-211.5"/>
<text text-anchor="middle" x="47.5" y="-218.5" font-family="Helvetica,sans-Serif" font-size="10.00">utils::BasedPath</text>
</a>
</g>
</g>
<!-- Node3&#45;&gt;Node2 -->
<g id="edge2" class="edge">
<title>Node3&#45;&gt;Node2</title>
<path fill="none" stroke="#9a32cd" stroke-dasharray="5,2" d="M47.5,-201.11C47.5,-169.93 47.5,-108.93 47.5,-86.52"/>
<polygon fill="#9a32cd" stroke="#9a32cd" points="44,-201.12 47.5,-211.12 51,-201.12 44,-201.12"/>
<text text-anchor="middle" x="108" y="-185" font-family="Helvetica,sans-Serif" font-size="10.00"> uptane_public_key_path</text>
<text text-anchor="middle" x="108" y="-174" font-family="Helvetica,sans-Serif" font-size="10.00">tls_pkey_path</text>
<text text-anchor="middle" x="108" y="-163" font-family="Helvetica,sans-Serif" font-size="10.00">uptane_metadata_path</text>
<text text-anchor="middle" x="108" y="-152" font-family="Helvetica,sans-Serif" font-size="10.00">sqldb_path</text>
<text text-anchor="start" x="47.5" y="-141" font-family="Helvetica,sans-Serif" font-size="10.00">uptane_private_key</text>
<text text-anchor="middle" x="108" y="-130" font-family="Helvetica,sans-Serif" font-size="10.00">_path</text>
<text text-anchor="middle" x="108" y="-119" font-family="Helvetica,sans-Serif" font-size="10.00">tls_cacert_path</text>
<text text-anchor="middle" x="108" y="-108" font-family="Helvetica,sans-Serif" font-size="10.00">tls_clientcert_path</text>
</g>
</g>
</svg>
