<?xml version="1.0" encoding="UTF-8" standalone="no"?>
<!DOCTYPE svg PUBLIC "-//W3C//DTD SVG 1.1//EN"
 "http://www.w3.org/Graphics/SVG/1.1/DTD/svg11.dtd">
<!-- Generated by graphviz version 2.40.1 (20161225.0304)
 -->
<!-- Title: Socket Pages: 1 -->
<svg width="210pt" height="84pt"
 viewBox="0.00 0.00 209.50 84.00" xmlns="http://www.w3.org/2000/svg" xmlns:xlink="http://www.w3.org/1999/xlink">
<g id="graph0" class="graph" transform="scale(1 1) rotate(0) translate(4 80)">
<title>Socket</title>
<polygon fill="#ffffff" stroke="transparent" points="-4,4 -4,-80 205.5,-80 205.5,4 -4,4"/>
<!-- Node0 -->
<g id="node1" class="node">
<title>Node0</title>
<polygon fill="#bfbfbf" stroke="#000000" points="82,-56.5 82,-75.5 132,-75.5 132,-56.5 82,-56.5"/>
<text text-anchor="middle" x="107" y="-63.5" font-family="Helvetica,sans-Serif" font-size="10.00" fill="#000000">Socket</text>
</g>
<!-- Node1 -->
<g id="node2" class="node">
<title>Node1</title>
<g id="a_node2"><a xlink:href="class_connection_socket.html" target="_top" xlink:title="ConnectionSocket">
<polygon fill="#ffffff" stroke="#000000" points="0,-.5 0,-19.5 104,-19.5 104,-.5 0,-.5"/>
<text text-anchor="middle" x="52" y="-7.5" font-family="Helvetica,sans-Serif" font-size="10.00" fill="#000000">ConnectionSocket</text>
</a>
</g>
</g>
<!-- Node0&#45;&gt;Node1 -->
<g id="edge1" class="edge">
<title>Node0&#45;&gt;Node1</title>
<path fill="none" stroke="#191970" d="M90.3774,-49.0751C80.9145,-39.4402 69.4031,-27.7196 61.4705,-19.6427"/>
<polygon fill="#191970" stroke="#191970" points="87.9155,-51.5635 97.4197,-56.2455 92.9097,-46.6585 87.9155,-51.5635"/>
</g>
<!-- Node2 -->
<g id="node3" class="node">
<title>Node2</title>
<g id="a_node3"><a xlink:href="class_listen_socket.html" target="_top" xlink:title="ListenSocket">
<polygon fill="#ffffff" stroke="#000000" points="122.5,-.5 122.5,-19.5 201.5,-19.5 201.5,-.5 122.5,-.5"/>
<text text-anchor="middle" x="162" y="-7.5" font-family="Helvetica,sans-Serif" font-size="10.00" fill="#000000">ListenSocket</text>
</a>
</g>
</g>
<!-- Node0&#45;&gt;Node2 -->
<g id="edge2" class="edge">
<title>Node0&#45;&gt;Node2</title>
<path fill="none" stroke="#191970" d="M123.6226,-49.0751C133.0855,-39.4402 144.5969,-27.7196 152.5295,-19.6427"/>
<polygon fill="#191970" stroke="#191970" points="121.0903,-46.6585 116.5803,-56.2455 126.0845,-51.5635 121.0903,-46.6585"/>
</g>
</g>
</svg>
