<?xml version="1.0" encoding="UTF-8" standalone="no"?>
<!DOCTYPE svg PUBLIC "-//W3C//DTD SVG 1.1//EN"
 "http://www.w3.org/Graphics/SVG/1.1/DTD/svg11.dtd">
<!-- Generated by graphviz version 2.43.0 (0)
 -->
<!-- Title: result::Install Pages: 1 -->
<svg width="288pt" height="442pt"
 viewBox="0.00 0.00 288.00 442.00" xmlns="http://www.w3.org/2000/svg" xmlns:xlink="http://www.w3.org/1999/xlink">
<g id="graph0" class="graph" transform="scale(1 1) rotate(0) translate(4 438)">
<title>result::Install</title>
<polygon fill="white" stroke="transparent" points="-4,4 -4,-438 284,-438 284,4 -4,4"/>
<!-- Node1 -->
<g id="node1" class="node">
<title>Node1</title>
<g id="a_node1"><a xlink:title="Container for information about installing an update.">
<polygon fill="#bfbfbf" stroke="black" points="61,-0.5 61,-19.5 141,-19.5 141,-0.5 61,-0.5"/>
<text text-anchor="middle" x="101" y="-7.5" font-family="Helvetica,sans-Serif" font-size="10.00">result::Install</text>
</a>
</g>
</g>
<!-- Node2 -->
<g id="node2" class="node">
<title>Node2</title>
<g id="a_node2"><a xlink:href="structdata_1_1_installation_result.html" target="_top" xlink:title=" ">
<polygon fill="white" stroke="black" points="150,-212.5 150,-231.5 280,-231.5 280,-212.5 150,-212.5"/>
<text text-anchor="middle" x="215" y="-219.5" font-family="Helvetica,sans-Serif" font-size="10.00">data::InstallationResult</text>
</a>
</g>
</g>
<!-- Node2&#45;&gt;Node1 -->
<g id="edge1" class="edge">
<title>Node2&#45;&gt;Node1</title>
<path fill="none" stroke="#9a32cd" stroke-dasharray="5,2" d="M215.16,-201.94C214.44,-165.6 207.85,-85.77 166,-38 158.51,-29.45 147.89,-23.55 137.39,-19.5"/>
<polygon fill="#9a32cd" stroke="#9a32cd" points="211.66,-202.14 215.22,-212.11 218.66,-202.09 211.66,-202.14"/>
<text text-anchor="middle" x="235" y="-119" font-family="Helvetica,sans-Serif" font-size="10.00"> dev_report</text>
</g>
<!-- Node7 -->
<g id="node7" class="node">
<title>Node7</title>
<g id="a_node7"><a xlink:href="classresult_1_1_install_1_1_ecu_report.html" target="_top" xlink:title=" ">
<polygon fill="white" stroke="black" points="33,-145.5 33,-164.5 169,-164.5 169,-145.5 33,-145.5"/>
<text text-anchor="middle" x="101" y="-152.5" font-family="Helvetica,sans-Serif" font-size="10.00">result::Install::EcuReport</text>
</a>
</g>
</g>
<!-- Node2&#45;&gt;Node7 -->
<g id="edge9" class="edge">
<title>Node2&#45;&gt;Node7</title>
<path fill="none" stroke="#9a32cd" stroke-dasharray="5,2" d="M175.97,-209.03C165.24,-204.99 153.85,-199.95 144,-194 130.36,-185.76 116.97,-172.97 108.85,-164.55"/>
<polygon fill="#9a32cd" stroke="#9a32cd" points="174.98,-212.4 185.58,-212.47 177.34,-205.81 174.98,-212.4"/>
<text text-anchor="middle" x="171" y="-186" font-family="Helvetica,sans-Serif" font-size="10.00"> install_res</text>
</g>
<!-- Node3 -->
<g id="node3" class="node">
<title>Node3</title>
<g id="a_node3"><a xlink:href="structdata_1_1_result_code.html" target="_top" xlink:title=" ">
<polygon fill="white" stroke="black" points="79,-279.5 79,-298.5 179,-298.5 179,-279.5 79,-279.5"/>
<text text-anchor="middle" x="129" y="-286.5" font-family="Helvetica,sans-Serif" font-size="10.00">data::ResultCode</text>
</a>
</g>
</g>
<!-- Node3&#45;&gt;Node2 -->
<g id="edge2" class="edge">
<title>Node3&#45;&gt;Node2</title>
<path fill="none" stroke="#9a32cd" stroke-dasharray="5,2" d="M131.36,-269.41C133.06,-262.58 135.98,-255.25 141,-250 149.23,-241.4 160.41,-235.53 171.59,-231.53"/>
<polygon fill="#9a32cd" stroke="#9a32cd" points="127.9,-268.89 129.57,-279.35 134.78,-270.13 127.9,-268.89"/>
<text text-anchor="middle" x="171" y="-253" font-family="Helvetica,sans-Serif" font-size="10.00"> result_code</text>
</g>
<!-- Node4 -->
<g id="node4" class="node">
<title>Node4</title>
<g id="a_node4"><a xlink:title="STL class.">
<polygon fill="white" stroke="#bfbfbf" points="96.5,-346.5 96.5,-365.5 161.5,-365.5 161.5,-346.5 96.5,-346.5"/>
<text text-anchor="middle" x="129" y="-353.5" font-family="Helvetica,sans-Serif" font-size="10.00">std::string</text>
</a>
</g>
</g>
<!-- Node4&#45;&gt;Node1 -->
<g id="edge6" class="edge">
<title>Node4&#45;&gt;Node1</title>
<path fill="none" stroke="#9a32cd" stroke-dasharray="5,2" d="M86.2,-351.05C48.65,-344.94 0,-329.43 0,-290 0,-290 0,-290 0,-81.5 0,-48.03 37.75,-29.14 67.09,-19.5"/>
<polygon fill="#9a32cd" stroke="#9a32cd" points="86.05,-354.56 96.45,-352.53 87.05,-347.63 86.05,-354.56"/>
<text text-anchor="middle" x="28" y="-186" font-family="Helvetica,sans-Serif" font-size="10.00"> raw_report</text>
</g>
<!-- Node4&#45;&gt;Node2 -->
<g id="edge5" class="edge">
<title>Node4&#45;&gt;Node2</title>
<path fill="none" stroke="#9a32cd" stroke-dasharray="5,2" d="M167.18,-342.02C173.84,-338.34 180.17,-333.73 185,-328 209.42,-299 214,-251.22 214.83,-231.71"/>
<polygon fill="#9a32cd" stroke="#9a32cd" points="165.48,-338.95 158.01,-346.46 168.53,-345.25 165.48,-338.95"/>
<text text-anchor="middle" x="237" y="-286.5" font-family="Helvetica,sans-Serif" font-size="10.00"> description</text>
</g>
<!-- Node4&#45;&gt;Node3 -->
<g id="edge3" class="edge">
<title>Node4&#45;&gt;Node3</title>
<path fill="none" stroke="#9a32cd" stroke-dasharray="5,2" d="M129,-336.04C129,-323.67 129,-308.12 129,-298.63"/>
<polygon fill="#9a32cd" stroke="#9a32cd" points="125.5,-336.23 129,-346.23 132.5,-336.23 125.5,-336.23"/>
<text text-anchor="middle" x="155" y="-320" font-family="Helvetica,sans-Serif" font-size="10.00"> text_code</text>
</g>
<!-- Node5 -->
<g id="node5" class="node">
<title>Node5</title>
<g id="a_node5"><a xlink:title="STL class.">
<polygon fill="white" stroke="#bfbfbf" points="77,-403.5 77,-433.5 181,-433.5 181,-403.5 77,-403.5"/>
<text text-anchor="start" x="85" y="-421.5" font-family="Helvetica,sans-Serif" font-size="10.00">std::basic_string&lt;</text>
<text text-anchor="middle" x="129" y="-410.5" font-family="Helvetica,sans-Serif" font-size="10.00"> char &gt;</text>
</a>
</g>
</g>
<!-- Node5&#45;&gt;Node4 -->
<g id="edge4" class="edge">
<title>Node5&#45;&gt;Node4</title>
<path fill="none" stroke="midnightblue" d="M129,-393.35C129,-383.51 129,-372.78 129,-365.54"/>
<polygon fill="midnightblue" stroke="midnightblue" points="125.5,-393.47 129,-403.47 132.5,-393.47 125.5,-393.47"/>
</g>
<!-- Node6 -->
<g id="node6" class="node">
<title>Node6</title>
<g id="a_node6"><a xlink:title=" ">
<polygon fill="white" stroke="#bfbfbf" points="41.5,-67.5 41.5,-97.5 160.5,-97.5 160.5,-67.5 41.5,-67.5"/>
<text text-anchor="start" x="49.5" y="-85.5" font-family="Helvetica,sans-Serif" font-size="10.00">std::vector&lt; result</text>
<text text-anchor="middle" x="101" y="-74.5" font-family="Helvetica,sans-Serif" font-size="10.00">::Install::EcuReport &gt;</text>
</a>
</g>
</g>
<!-- Node6&#45;&gt;Node1 -->
<g id="edge7" class="edge">
<title>Node6&#45;&gt;Node1</title>
<path fill="none" stroke="#9a32cd" stroke-dasharray="5,2" d="M101,-57.09C101,-44.21 101,-29.2 101,-19.89"/>
<polygon fill="#9a32cd" stroke="#9a32cd" points="97.5,-57.23 101,-67.23 104.5,-57.23 97.5,-57.23"/>
<text text-anchor="middle" x="131.5" y="-41" font-family="Helvetica,sans-Serif" font-size="10.00"> ecu_reports</text>
</g>
<!-- Node7&#45;&gt;Node6 -->
<g id="edge8" class="edge">
<title>Node7&#45;&gt;Node6</title>
<path fill="none" stroke="#9a32cd" stroke-dasharray="5,2" d="M101,-135.24C101,-123.41 101,-108.38 101,-97.58"/>
<polygon fill="#9a32cd" stroke="#9a32cd" points="97.5,-135.36 101,-145.36 104.5,-135.36 97.5,-135.36"/>
<text text-anchor="middle" x="125.5" y="-119" font-family="Helvetica,sans-Serif" font-size="10.00"> elements</text>
</g>
<!-- Node8 -->
<g id="node8" class="node">
<title>Node8</title>
<g id="a_node8"><a xlink:href="class_uptane_1_1_ecu_serial.html" target="_top" xlink:title=" ">
<polygon fill="white" stroke="black" points="28.5,-212.5 28.5,-231.5 131.5,-231.5 131.5,-212.5 28.5,-212.5"/>
<text text-anchor="middle" x="80" y="-219.5" font-family="Helvetica,sans-Serif" font-size="10.00">Uptane::EcuSerial</text>
</a>
</g>
</g>
<!-- Node8&#45;&gt;Node7 -->
<g id="edge10" class="edge">
<title>Node8&#45;&gt;Node7</title>
<path fill="none" stroke="#9a32cd" stroke-dasharray="5,2" d="M82.33,-202.21C83.4,-195.99 84.91,-189.11 87,-183 89.19,-176.61 92.69,-169.86 95.64,-164.7"/>
<polygon fill="#9a32cd" stroke="#9a32cd" points="78.83,-201.96 80.85,-212.36 85.76,-202.97 78.83,-201.96"/>
<text text-anchor="middle" x="102.5" y="-186" font-family="Helvetica,sans-Serif" font-size="10.00"> serial</text>
</g>
</g>
</svg>
