<?xml version="1.0" encoding="UTF-8" standalone="no"?>
<!DOCTYPE svg PUBLIC "-//W3C//DTD SVG 1.1//EN"
 "http://www.w3.org/Graphics/SVG/1.1/DTD/svg11.dtd">
<!-- Generated by graphviz version 2.40.1 (20161225.0304)
 -->
<!-- Title: AktualizrSecondaryConfig Pages: 1 -->
<svg width="965pt" height="502pt"
 viewBox="0.00 0.00 965.00 502.43" xmlns="http://www.w3.org/2000/svg" xmlns:xlink="http://www.w3.org/1999/xlink">
<g id="graph0" class="graph" transform="scale(1 1) rotate(0) translate(4 498.4347)">
<title>AktualizrSecondaryConfig</title>
<polygon fill="#ffffff" stroke="transparent" points="-4,4 -4,-498.4347 961,-498.4347 961,4 -4,4"/>
<!-- Node2 -->
<g id="node1" class="node">
<title>Node2</title>
<polygon fill="#bfbfbf" stroke="#000000" points="815,-184.4347 815,-203.4347 957,-203.4347 957,-184.4347 815,-184.4347"/>
<text text-anchor="middle" x="886" y="-191.4347" font-family="Helvetica,sans-Serif" font-size="10.00" fill="#000000">AktualizrSecondaryConfig</text>
</g>
<!-- Node3 -->
<g id="node2" class="node">
<title>Node3</title>
<g id="a_node2"><a xlink:href="class_base_config.html" target="_top" xlink:title="The BaseConfig class. ">
<polygon fill="#ffffff" stroke="#000000" points="656.5,-418.4347 656.5,-437.4347 727.5,-437.4347 727.5,-418.4347 656.5,-418.4347"/>
<text text-anchor="middle" x="692" y="-425.4347" font-family="Helvetica,sans-Serif" font-size="10.00" fill="#000000">BaseConfig</text>
</a>
</g>
</g>
<!-- Node3&#45;&gt;Node2 -->
<g id="edge1" class="edge">
<title>Node3&#45;&gt;Node2</title>
<path fill="none" stroke="#191970" d="M711.5691,-411.6565C733.6596,-392.7676 770.0285,-360.0847 797,-327.9347 833.2578,-284.7156 867.7094,-226.2706 880.6304,-203.5372"/>
<polygon fill="#191970" stroke="#191970" points="709.2218,-409.0579 703.8512,-418.1906 713.7449,-414.4004 709.2218,-409.0579"/>
</g>
<!-- Node4 -->
<g id="node3" class="node">
<title>Node4</title>
<polygon fill="#ffffff" stroke="#bfbfbf" points="335.5,-463.9347 335.5,-493.9347 448.5,-493.9347 448.5,-463.9347 335.5,-463.9347"/>
<text text-anchor="start" x="343.5" y="-481.9347" font-family="Helvetica,sans-Serif" font-size="10.00" fill="#000000">std::vector&lt; boost</text>
<text text-anchor="middle" x="392" y="-470.9347" font-family="Helvetica,sans-Serif" font-size="10.00" fill="#000000">::filesystem::path &gt;</text>
</g>
<!-- Node4&#45;&gt;Node3 -->
<g id="edge2" class="edge">
<title>Node4&#45;&gt;Node3</title>
<path fill="none" stroke="#9a32cd" stroke-dasharray="5,2" d="M458.494,-471.0846C506.406,-464.9599 572.4807,-455.5516 630,-443.9347 639.0441,-442.1081 648.741,-439.7841 657.7167,-437.4772"/>
<polygon fill="#9a32cd" stroke="#9a32cd" points="458.0374,-467.6143 448.5555,-472.3413 458.9156,-474.559 458.0374,-467.6143"/>
<text text-anchor="middle" x="550.5" y="-471.9347" font-family="Helvetica,sans-Serif" font-size="10.00" fill="#000000"> config_dirs_</text>
</g>
<!-- Node5 -->
<g id="node4" class="node">
<title>Node5</title>
<g id="a_node4"><a xlink:href="struct_storage_config.html" target="_top" xlink:title="StorageConfig">
<polygon fill="#ffffff" stroke="#000000" points="649.5,-344.4347 649.5,-363.4347 734.5,-363.4347 734.5,-344.4347 649.5,-344.4347"/>
<text text-anchor="middle" x="692" y="-351.4347" font-family="Helvetica,sans-Serif" font-size="10.00" fill="#000000">StorageConfig</text>
</a>
</g>
</g>
<!-- Node5&#45;&gt;Node2 -->
<g id="edge3" class="edge">
<title>Node5&#45;&gt;Node2</title>
<path fill="none" stroke="#9a32cd" stroke-dasharray="5,2" d="M716.599,-338.8407C738.4611,-325.0184 770.9056,-303.4894 797,-281.9347 828.6629,-255.7803 862.0838,-220.2793 877.4088,-203.4883"/>
<polygon fill="#9a32cd" stroke="#9a32cd" points="714.5453,-335.997 707.9268,-344.2703 718.26,-341.9301 714.5453,-335.997"/>
<text text-anchor="middle" x="775.5" y="-315.9347" font-family="Helvetica,sans-Serif" font-size="10.00" fill="#000000"> storage</text>
</g>
<!-- Node6 -->
<g id="node5" class="node">
<title>Node6</title>
<g id="a_node5"><a xlink:href="classutils_1_1_based_path.html" target="_top" xlink:title="The BasedPath class Can represent an absolute or relative path, only readable through the BasePath::g...">
<polygon fill="#ffffff" stroke="#000000" points="344.5,-328.4347 344.5,-347.4347 439.5,-347.4347 439.5,-328.4347 344.5,-328.4347"/>
<text text-anchor="middle" x="392" y="-335.4347" font-family="Helvetica,sans-Serif" font-size="10.00" fill="#000000">utils::BasedPath</text>
</a>
</g>
</g>
<!-- Node6&#45;&gt;Node5 -->
<g id="edge4" class="edge">
<title>Node6&#45;&gt;Node5</title>
<path fill="none" stroke="#9a32cd" stroke-dasharray="5,2" d="M449.8988,-344.2322C457.0005,-344.8764 464.1622,-345.4652 471,-345.9347 532.8594,-350.182 604.624,-352.2543 649.1772,-353.2055"/>
<polygon fill="#9a32cd" stroke="#9a32cd" points="449.8666,-340.7136 439.5814,-343.2563 449.2074,-347.6825 449.8666,-340.7136"/>
<text text-anchor="middle" x="550.5" y="-431.9347" font-family="Helvetica,sans-Serif" font-size="10.00" fill="#000000"> uptane_public_key_path</text>
<text text-anchor="middle" x="550.5" y="-420.9347" font-family="Helvetica,sans-Serif" font-size="10.00" fill="#000000">tls_pkey_path</text>
<text text-anchor="middle" x="550.5" y="-409.9347" font-family="Helvetica,sans-Serif" font-size="10.00" fill="#000000">uptane_metadata_path</text>
<text text-anchor="middle" x="550.5" y="-398.9347" font-family="Helvetica,sans-Serif" font-size="10.00" fill="#000000">sqldb_path</text>
<text text-anchor="start" x="489.5" y="-387.9347" font-family="Helvetica,sans-Serif" font-size="10.00" fill="#000000">uptane_private_key</text>
<text text-anchor="middle" x="550.5" y="-376.9347" font-family="Helvetica,sans-Serif" font-size="10.00" fill="#000000">_path</text>
<text text-anchor="middle" x="550.5" y="-365.9347" font-family="Helvetica,sans-Serif" font-size="10.00" fill="#000000">tls_cacert_path</text>
<text text-anchor="middle" x="550.5" y="-354.9347" font-family="Helvetica,sans-Serif" font-size="10.00" fill="#000000">tls_clientcert_path</text>
</g>
<!-- Node15 -->
<g id="node14" class="node">
<title>Node15</title>
<g id="a_node14"><a xlink:href="struct_import_config.html" target="_top" xlink:title="ImportConfig">
<polygon fill="#ffffff" stroke="#000000" points="652,-269.4347 652,-288.4347 732,-288.4347 732,-269.4347 652,-269.4347"/>
<text text-anchor="middle" x="692" y="-276.4347" font-family="Helvetica,sans-Serif" font-size="10.00" fill="#000000">ImportConfig</text>
</a>
</g>
</g>
<!-- Node6&#45;&gt;Node15 -->
<g id="edge18" class="edge">
<title>Node6&#45;&gt;Node15</title>
<path fill="none" stroke="#9a32cd" stroke-dasharray="5,2" d="M407.6693,-320.2979C422.3224,-305.2417 445.695,-284.6789 471,-275.9347 531.3852,-255.0686 606.7072,-262.6138 651.9931,-270.4399"/>
<polygon fill="#9a32cd" stroke="#9a32cd" points="404.7502,-318.2946 400.4689,-327.9859 409.8593,-323.0797 404.7502,-318.2946"/>
<text text-anchor="middle" x="550.5" y="-333.9347" font-family="Helvetica,sans-Serif" font-size="10.00" fill="#000000"> uptane_public_key_path</text>
<text text-anchor="middle" x="550.5" y="-322.9347" font-family="Helvetica,sans-Serif" font-size="10.00" fill="#000000">tls_pkey_path</text>
<text text-anchor="start" x="489.5" y="-311.9347" font-family="Helvetica,sans-Serif" font-size="10.00" fill="#000000">uptane_private_key</text>
<text text-anchor="middle" x="550.5" y="-300.9347" font-family="Helvetica,sans-Serif" font-size="10.00" fill="#000000">_path</text>
<text text-anchor="middle" x="550.5" y="-289.9347" font-family="Helvetica,sans-Serif" font-size="10.00" fill="#000000">tls_cacert_path</text>
<text text-anchor="middle" x="550.5" y="-278.9347" font-family="Helvetica,sans-Serif" font-size="10.00" fill="#000000">tls_clientcert_path</text>
</g>
<!-- Node7 -->
<g id="node6" class="node">
<title>Node7</title>
<g id="a_node6"><a xlink:href="struct_aktualizr_secondary_uptane_config.html" target="_top" xlink:title="AktualizrSecondaryUptane\lConfig">
<polygon fill="#ffffff" stroke="#000000" points="477.5,-224.9347 477.5,-254.9347 623.5,-254.9347 623.5,-224.9347 477.5,-224.9347"/>
<text text-anchor="start" x="485.5" y="-242.9347" font-family="Helvetica,sans-Serif" font-size="10.00" fill="#000000">AktualizrSecondaryUptane</text>
<text text-anchor="middle" x="550.5" y="-231.9347" font-family="Helvetica,sans-Serif" font-size="10.00" fill="#000000">Config</text>
</a>
</g>
</g>
<!-- Node7&#45;&gt;Node2 -->
<g id="edge5" class="edge">
<title>Node7&#45;&gt;Node2</title>
<path fill="none" stroke="#9a32cd" stroke-dasharray="5,2" d="M633.6824,-230.3526C681.5214,-224.6221 742.7189,-216.9186 797,-208.9347 808.1618,-207.293 820.0851,-205.3882 831.4587,-203.4982"/>
<polygon fill="#9a32cd" stroke="#9a32cd" points="633.1993,-226.8853 623.6842,-231.5449 634.0283,-233.8361 633.1993,-226.8853"/>
<text text-anchor="middle" x="692" y="-230.9347" font-family="Helvetica,sans-Serif" font-size="10.00" fill="#000000"> uptane</text>
</g>
<!-- Node8 -->
<g id="node7" class="node">
<title>Node8</title>
<g id="a_node7"><a xlink:title="STL class. ">
<polygon fill="#ffffff" stroke="#bfbfbf" points="141,-130.4347 141,-149.4347 206,-149.4347 206,-130.4347 141,-130.4347"/>
<text text-anchor="middle" x="173.5" y="-137.4347" font-family="Helvetica,sans-Serif" font-size="10.00" fill="#000000">std::string</text>
</a>
</g>
</g>
<!-- Node8&#45;&gt;Node7 -->
<g id="edge6" class="edge">
<title>Node8&#45;&gt;Node7</title>
<path fill="none" stroke="#9a32cd" stroke-dasharray="5,2" d="M180.0355,-159.1855C187.5708,-178.373 201.8444,-207.1856 224,-222.9347 301.4912,-278.0187 417.354,-268.2979 488.2012,-254.9938"/>
<polygon fill="#9a32cd" stroke="#9a32cd" points="183.2696,-157.8392 176.5352,-149.6601 176.6992,-160.2537 183.2696,-157.8392"/>
<text text-anchor="middle" x="268.5" y="-271.9347" font-family="Helvetica,sans-Serif" font-size="10.00" fill="#000000"> ecu_hardware_id</text>
<text text-anchor="middle" x="268.5" y="-260.9347" font-family="Helvetica,sans-Serif" font-size="10.00" fill="#000000">ecu_serial</text>
</g>
<!-- Node11 -->
<g id="node10" class="node">
<title>Node11</title>
<g id="a_node10"><a xlink:href="struct_package_config.html" target="_top" xlink:title="PackageConfig">
<polygon fill="#ffffff" stroke="#000000" points="648,-184.4347 648,-203.4347 736,-203.4347 736,-184.4347 648,-184.4347"/>
<text text-anchor="middle" x="692" y="-191.4347" font-family="Helvetica,sans-Serif" font-size="10.00" fill="#000000">PackageConfig</text>
</a>
</g>
</g>
<!-- Node8&#45;&gt;Node11 -->
<g id="edge12" class="edge">
<title>Node8&#45;&gt;Node11</title>
<path fill="none" stroke="#9a32cd" stroke-dasharray="5,2" d="M191.2406,-156.2214C200.351,-163.5847 212.0345,-171.5935 224,-175.9347 371.5194,-229.4564 562.6065,-212.5082 647.7231,-200.9251"/>
<polygon fill="#9a32cd" stroke="#9a32cd" points="193.2468,-153.3321 183.3691,-149.5003 188.7013,-158.6556 193.2468,-153.3321"/>
<text text-anchor="middle" x="392" y="-236.9347" font-family="Helvetica,sans-Serif" font-size="10.00" fill="#000000"> os</text>
<text text-anchor="middle" x="392" y="-225.9347" font-family="Helvetica,sans-Serif" font-size="10.00" fill="#000000">ostree_server</text>
<text text-anchor="middle" x="392" y="-214.9347" font-family="Helvetica,sans-Serif" font-size="10.00" fill="#000000">type</text>
</g>
<!-- Node12 -->
<g id="node11" class="node">
<title>Node12</title>
<polygon fill="#ffffff" stroke="#bfbfbf" points="331,-141.9347 331,-171.9347 453,-171.9347 453,-141.9347 331,-141.9347"/>
<text text-anchor="start" x="339" y="-159.9347" font-family="Helvetica,sans-Serif" font-size="10.00" fill="#000000">std::map&lt; std::string,</text>
<text text-anchor="middle" x="392" y="-148.9347" font-family="Helvetica,sans-Serif" font-size="10.00" fill="#000000"> std::string &gt;</text>
</g>
<!-- Node8&#45;&gt;Node12 -->
<g id="edge11" class="edge">
<title>Node8&#45;&gt;Node12</title>
<path fill="none" stroke="#9a32cd" stroke-dasharray="5,2" d="M216.3416,-143.2679C249.008,-145.8095 294.4382,-149.3441 330.9132,-152.182"/>
<polygon fill="#9a32cd" stroke="#9a32cd" points="216.4531,-139.7661 206.2117,-142.4798 215.91,-146.745 216.4531,-139.7661"/>
<text text-anchor="middle" x="268.5" y="-163.9347" font-family="Helvetica,sans-Serif" font-size="10.00" fill="#000000"> keys</text>
<text text-anchor="middle" x="268.5" y="-152.9347" font-family="Helvetica,sans-Serif" font-size="10.00" fill="#000000">elements</text>
</g>
<!-- Node13 -->
<g id="node12" class="node">
<title>Node13</title>
<g id="a_node12"><a xlink:href="struct_aktualizr_secondary_net_config.html" target="_top" xlink:title="AktualizrSecondaryNetConfig">
<polygon fill="#ffffff" stroke="#000000" points="471,-115.4347 471,-134.4347 630,-134.4347 630,-115.4347 471,-115.4347"/>
<text text-anchor="middle" x="550.5" y="-122.4347" font-family="Helvetica,sans-Serif" font-size="10.00" fill="#000000">AktualizrSecondaryNetConfig</text>
</a>
</g>
</g>
<!-- Node8&#45;&gt;Node13 -->
<g id="edge14" class="edge">
<title>Node8&#45;&gt;Node13</title>
<path fill="none" stroke="#9a32cd" stroke-dasharray="5,2" d="M216.259,-129.996C218.8695,-129.5836 221.4647,-129.2234 224,-128.9347 307.7826,-119.3961 404.4351,-119.5919 470.7141,-121.4302"/>
<polygon fill="#9a32cd" stroke="#9a32cd" points="215.4313,-126.5887 206.2089,-131.8038 216.6706,-133.4781 215.4313,-126.5887"/>
<text text-anchor="middle" x="268.5" y="-131.9347" font-family="Helvetica,sans-Serif" font-size="10.00" fill="#000000"> primary_ip</text>
</g>
<!-- Node14 -->
<g id="node13" class="node">
<title>Node14</title>
<g id="a_node13"><a xlink:href="struct_p11_config.html" target="_top" xlink:title="P11Config">
<polygon fill="#ffffff" stroke="#000000" points="518,-58.4347 518,-77.4347 583,-77.4347 583,-58.4347 518,-58.4347"/>
<text text-anchor="middle" x="550.5" y="-65.4347" font-family="Helvetica,sans-Serif" font-size="10.00" fill="#000000">P11Config</text>
</a>
</g>
</g>
<!-- Node8&#45;&gt;Node14 -->
<g id="edge16" class="edge">
<title>Node8&#45;&gt;Node14</title>
<path fill="none" stroke="#9a32cd" stroke-dasharray="5,2" d="M179.9268,-120.8417C187.3214,-102.2673 201.4359,-75.1202 224,-62.9347 273.944,-35.9631 445.5313,-54.2467 517.8969,-63.4892"/>
<polygon fill="#9a32cd" stroke="#9a32cd" points="176.5895,-119.7761 176.4175,-130.3695 183.1581,-122.1955 176.5895,-119.7761"/>
<text text-anchor="middle" x="268.5" y="-109.9347" font-family="Helvetica,sans-Serif" font-size="10.00" fill="#000000"> tls_pkey_id</text>
<text text-anchor="middle" x="268.5" y="-98.9347" font-family="Helvetica,sans-Serif" font-size="10.00" fill="#000000">tls_clientcert_id</text>
<text text-anchor="middle" x="268.5" y="-87.9347" font-family="Helvetica,sans-Serif" font-size="10.00" fill="#000000">pass</text>
<text text-anchor="middle" x="268.5" y="-76.9347" font-family="Helvetica,sans-Serif" font-size="10.00" fill="#000000">uptane_key_id</text>
<text text-anchor="middle" x="268.5" y="-65.9347" font-family="Helvetica,sans-Serif" font-size="10.00" fill="#000000">tls_cacert_id</text>
</g>
<!-- Node16 -->
<g id="node15" class="node">
<title>Node16</title>
<g id="a_node15"><a xlink:href="struct_bootloader_config.html" target="_top" xlink:title="BootloaderConfig">
<polygon fill="#ffffff" stroke="#000000" points="500,-27.4347 500,-46.4347 601,-46.4347 601,-27.4347 500,-27.4347"/>
<text text-anchor="middle" x="550.5" y="-34.4347" font-family="Helvetica,sans-Serif" font-size="10.00" fill="#000000">BootloaderConfig</text>
</a>
</g>
</g>
<!-- Node8&#45;&gt;Node16 -->
<g id="edge20" class="edge">
<title>Node8&#45;&gt;Node16</title>
<path fill="none" stroke="#9a32cd" stroke-dasharray="5,2" d="M176.4668,-120.2344C181.4122,-95.1812 193.9546,-52.9015 224,-33.9347 318.9101,25.9794 462.3202,-8.5808 522.4312,-27.3163"/>
<polygon fill="#9a32cd" stroke="#9a32cd" points="172.9663,-119.9345 174.6936,-130.3875 179.8619,-121.1388 172.9663,-119.9345"/>
<text text-anchor="middle" x="268.5" y="-36.9347" font-family="Helvetica,sans-Serif" font-size="10.00" fill="#000000"> reboot_command</text>
</g>
<!-- Node9 -->
<g id="node8" class="node">
<title>Node9</title>
<g id="a_node8"><a xlink:title="STL class. ">
<polygon fill="#ffffff" stroke="#bfbfbf" points="0,-124.9347 0,-154.9347 104,-154.9347 104,-124.9347 0,-124.9347"/>
<text text-anchor="start" x="8" y="-142.9347" font-family="Helvetica,sans-Serif" font-size="10.00" fill="#000000">std::basic_string&lt;</text>
<text text-anchor="middle" x="52" y="-131.9347" font-family="Helvetica,sans-Serif" font-size="10.00" fill="#000000"> char &gt;</text>
</a>
</g>
</g>
<!-- Node9&#45;&gt;Node8 -->
<g id="edge7" class="edge">
<title>Node9&#45;&gt;Node8</title>
<path fill="none" stroke="#191970" d="M114.2382,-139.9347C123.4802,-139.9347 132.6763,-139.9347 140.9702,-139.9347"/>
<polygon fill="#191970" stroke="#191970" points="114.2321,-136.4348 104.2321,-139.9347 114.232,-143.4348 114.2321,-136.4348"/>
</g>
<!-- Node10 -->
<g id="node9" class="node">
<title>Node10</title>
<g id="a_node9"><a xlink:href="struct_logger_config.html" target="_top" xlink:title="LoggerConfig">
<polygon fill="#ffffff" stroke="#000000" points="652,-5.4347 652,-24.4347 732,-24.4347 732,-5.4347 652,-5.4347"/>
<text text-anchor="middle" x="692" y="-12.4347" font-family="Helvetica,sans-Serif" font-size="10.00" fill="#000000">LoggerConfig</text>
</a>
</g>
</g>
<!-- Node10&#45;&gt;Node2 -->
<g id="edge8" class="edge">
<title>Node10&#45;&gt;Node2</title>
<path fill="none" stroke="#9a32cd" stroke-dasharray="5,2" d="M742.2072,-16.2989C760.8434,-18.9203 781.2564,-24.5136 797,-35.9347 850.5155,-74.7574 876.1214,-156.2068 883.5956,-184.2242"/>
<polygon fill="#9a32cd" stroke="#9a32cd" points="742.4128,-12.7995 732.0776,-15.1302 741.6105,-19.7534 742.4128,-12.7995"/>
<text text-anchor="middle" x="775.5" y="-38.9347" font-family="Helvetica,sans-Serif" font-size="10.00" fill="#000000"> logger</text>
</g>
<!-- Node11&#45;&gt;Node2 -->
<g id="edge9" class="edge">
<title>Node11&#45;&gt;Node2</title>
<path fill="none" stroke="#9a32cd" stroke-dasharray="5,2" d="M746.1552,-193.9347C767.4082,-193.9347 792.0956,-193.9347 814.76,-193.9347"/>
<polygon fill="#9a32cd" stroke="#9a32cd" points="746.0216,-190.4348 736.0216,-193.9347 746.0216,-197.4348 746.0216,-190.4348"/>
<text text-anchor="middle" x="775.5" y="-196.9347" font-family="Helvetica,sans-Serif" font-size="10.00" fill="#000000"> pacman</text>
</g>
<!-- Node12&#45;&gt;Node11 -->
<g id="edge10" class="edge">
<title>Node12&#45;&gt;Node11</title>
<path fill="none" stroke="#9a32cd" stroke-dasharray="5,2" d="M463.3918,-164.1495C510.7204,-169.1499 574.1545,-176.2677 630,-183.9347 635.7249,-184.7207 641.7368,-185.6099 647.6714,-186.5258"/>
<polygon fill="#9a32cd" stroke="#9a32cd" points="463.554,-160.6473 453.2431,-163.0835 462.8228,-167.609 463.554,-160.6473"/>
<text text-anchor="middle" x="550.5" y="-186.9347" font-family="Helvetica,sans-Serif" font-size="10.00" fill="#000000"> extra</text>
</g>
<!-- Node13&#45;&gt;Node2 -->
<g id="edge13" class="edge">
<title>Node13&#45;&gt;Node2</title>
<path fill="none" stroke="#9a32cd" stroke-dasharray="5,2" d="M606.9266,-136.5396C672.3221,-149.9891 778.863,-171.9006 839.6392,-184.4"/>
<polygon fill="#9a32cd" stroke="#9a32cd" points="607.2977,-133.0427 596.7976,-134.4564 605.8875,-139.8992 607.2977,-133.0427"/>
<text text-anchor="middle" x="692" y="-164.9347" font-family="Helvetica,sans-Serif" font-size="10.00" fill="#000000"> network</text>
</g>
<!-- Node14&#45;&gt;Node2 -->
<g id="edge15" class="edge">
<title>Node14&#45;&gt;Node2</title>
<path fill="none" stroke="#9a32cd" stroke-dasharray="5,2" d="M591.2622,-80.515C629.0707,-92.4295 686.7529,-111.2336 736,-129.9347 782.5851,-147.625 836.0141,-171.2411 864.8579,-184.2737"/>
<polygon fill="#9a32cd" stroke="#9a32cd" points="592.2118,-77.1448 581.6226,-77.491 590.1164,-83.8239 592.2118,-77.1448"/>
<text text-anchor="middle" x="692" y="-132.9347" font-family="Helvetica,sans-Serif" font-size="10.00" fill="#000000"> p11</text>
</g>
<!-- Node15&#45;&gt;Node2 -->
<g id="edge17" class="edge">
<title>Node15&#45;&gt;Node2</title>
<path fill="none" stroke="#9a32cd" stroke-dasharray="5,2" d="M742.3917,-270.7736C760.1065,-266.9136 779.8583,-261.4556 797,-253.9347 827.3748,-240.6079 858.5375,-216.8061 874.7075,-203.5391"/>
<polygon fill="#9a32cd" stroke="#9a32cd" points="741.3208,-267.4205 732.232,-272.8651 742.7323,-274.2768 741.3208,-267.4205"/>
<text text-anchor="middle" x="775.5" y="-269.9347" font-family="Helvetica,sans-Serif" font-size="10.00" fill="#000000"> import</text>
</g>
<!-- Node16&#45;&gt;Node2 -->
<g id="edge19" class="edge">
<title>Node16&#45;&gt;Node2</title>
<path fill="none" stroke="#9a32cd" stroke-dasharray="5,2" d="M611.1649,-46.7905C617.548,-48.0739 623.9224,-49.4599 630,-50.9347 677.9498,-62.5704 691.9482,-61.7085 736,-83.9347 793.3748,-112.8831 852.1892,-163.2948 875.5356,-184.3086"/>
<polygon fill="#9a32cd" stroke="#9a32cd" points="611.6507,-43.3197 601.1685,-44.8601 610.3235,-50.1927 611.6507,-43.3197"/>
<text text-anchor="middle" x="692" y="-86.9347" font-family="Helvetica,sans-Serif" font-size="10.00" fill="#000000"> bootloader</text>
</g>
</g>
</svg>
