<?xml version="1.0" encoding="UTF-8" standalone="no"?>
<!DOCTYPE svg PUBLIC "-//W3C//DTD SVG 1.1//EN"
 "http://www.w3.org/Graphics/SVG/1.1/DTD/svg11.dtd">
<!-- Generated by graphviz version 2.43.0 (0)
 -->
<!-- Title: Uptane::BaseMeta Pages: 1 -->
<svg width="442pt" height="140pt"
 viewBox="0.00 0.00 442.00 140.00" xmlns="http://www.w3.org/2000/svg" xmlns:xlink="http://www.w3.org/1999/xlink">
<g id="graph0" class="graph" transform="scale(1 1) rotate(0) translate(4 136)">
<title>Uptane::BaseMeta</title>
<polygon fill="white" stroke="transparent" points="-4,4 -4,-136 438,-136 438,4 -4,4"/>
<!-- Node1 -->
<g id="node1" class="node">
<title>Node1</title>
<g id="a_node1"><a xlink:title=" ">
<polygon fill="#bfbfbf" stroke="black" points="172.5,-112.5 172.5,-131.5 279.5,-131.5 279.5,-112.5 172.5,-112.5"/>
<text text-anchor="middle" x="226" y="-119.5" font-family="Helvetica,sans-Serif" font-size="10.00">Uptane::BaseMeta</text>
</a>
</g>
</g>
<!-- Node2 -->
<g id="node2" class="node">
<title>Node2</title>
<g id="a_node2"><a xlink:href="class_uptane_1_1_meta_with_keys.html" target="_top" xlink:title=" ">
<polygon fill="white" stroke="black" points="28,-56.5 28,-75.5 156,-75.5 156,-56.5 28,-56.5"/>
<text text-anchor="middle" x="92" y="-63.5" font-family="Helvetica,sans-Serif" font-size="10.00">Uptane::MetaWithKeys</text>
</a>
</g>
</g>
<!-- Node1&#45;&gt;Node2 -->
<g id="edge1" class="edge">
<title>Node1&#45;&gt;Node2</title>
<path fill="none" stroke="midnightblue" d="M195.32,-108.64C170.18,-98.5 135.25,-84.43 113.13,-75.52"/>
<polygon fill="midnightblue" stroke="midnightblue" points="194.18,-111.95 204.77,-112.44 196.8,-105.46 194.18,-111.95"/>
</g>
<!-- Node5 -->
<g id="node5" class="node">
<title>Node5</title>
<g id="a_node5"><a xlink:href="class_uptane_1_1_snapshot.html" target="_top" xlink:title=" ">
<polygon fill="white" stroke="black" points="174.5,-56.5 174.5,-75.5 277.5,-75.5 277.5,-56.5 174.5,-56.5"/>
<text text-anchor="middle" x="226" y="-63.5" font-family="Helvetica,sans-Serif" font-size="10.00">Uptane::Snapshot</text>
</a>
</g>
</g>
<!-- Node1&#45;&gt;Node5 -->
<g id="edge4" class="edge">
<title>Node1&#45;&gt;Node5</title>
<path fill="none" stroke="midnightblue" d="M226,-101.8C226,-92.91 226,-82.78 226,-75.75"/>
<polygon fill="midnightblue" stroke="midnightblue" points="222.5,-102.08 226,-112.08 229.5,-102.08 222.5,-102.08"/>
</g>
<!-- Node6 -->
<g id="node6" class="node">
<title>Node6</title>
<g id="a_node6"><a xlink:href="class_uptane_1_1_timestamp_meta.html" target="_top" xlink:title=" ">
<polygon fill="white" stroke="black" points="296,-56.5 296,-75.5 434,-75.5 434,-56.5 296,-56.5"/>
<text text-anchor="middle" x="365" y="-63.5" font-family="Helvetica,sans-Serif" font-size="10.00">Uptane::TimestampMeta</text>
</a>
</g>
</g>
<!-- Node1&#45;&gt;Node6 -->
<g id="edge5" class="edge">
<title>Node1&#45;&gt;Node6</title>
<path fill="none" stroke="midnightblue" d="M257.48,-108.77C283.59,-98.63 320.04,-84.47 343.08,-75.52"/>
<polygon fill="midnightblue" stroke="midnightblue" points="256.08,-105.56 248.02,-112.44 258.61,-112.08 256.08,-105.56"/>
</g>
<!-- Node3 -->
<g id="node3" class="node">
<title>Node3</title>
<g id="a_node3"><a xlink:href="class_uptane_1_1_root.html" target="_top" xlink:title=" ">
<polygon fill="white" stroke="black" points="0,-0.5 0,-19.5 80,-19.5 80,-0.5 0,-0.5"/>
<text text-anchor="middle" x="40" y="-7.5" font-family="Helvetica,sans-Serif" font-size="10.00">Uptane::Root</text>
</a>
</g>
</g>
<!-- Node2&#45;&gt;Node3 -->
<g id="edge2" class="edge">
<title>Node2&#45;&gt;Node3</title>
<path fill="none" stroke="midnightblue" d="M76.32,-48.72C67.16,-39.2 55.95,-27.56 48.43,-19.75"/>
<polygon fill="midnightblue" stroke="midnightblue" points="73.96,-51.31 83.41,-56.08 79,-46.45 73.96,-51.31"/>
</g>
<!-- Node4 -->
<g id="node4" class="node">
<title>Node4</title>
<g id="a_node4"><a xlink:href="class_uptane_1_1_targets.html" target="_top" xlink:title=" ">
<polygon fill="white" stroke="black" points="98.5,-0.5 98.5,-19.5 191.5,-19.5 191.5,-0.5 98.5,-0.5"/>
<text text-anchor="middle" x="145" y="-7.5" font-family="Helvetica,sans-Serif" font-size="10.00">Uptane::Targets</text>
</a>
</g>
</g>
<!-- Node2&#45;&gt;Node4 -->
<g id="edge3" class="edge">
<title>Node2&#45;&gt;Node4</title>
<path fill="none" stroke="midnightblue" d="M107.98,-48.72C117.32,-39.2 128.75,-27.56 136.41,-19.75"/>
<polygon fill="midnightblue" stroke="midnightblue" points="105.26,-46.49 100.75,-56.08 110.25,-51.4 105.26,-46.49"/>
</g>
</g>
</svg>
