<?xml version="1.0" encoding="UTF-8" standalone="no"?>
<!DOCTYPE svg PUBLIC "-//W3C//DTD SVG 1.1//EN"
 "http://www.w3.org/Graphics/SVG/1.1/DTD/svg11.dtd">
<!-- Generated by graphviz version 2.40.1 (20161225.0304)
 -->
<!-- Title: Primary::ManagedSecondaryConfig Pages: 1 -->
<svg width="256pt" height="207pt"
 viewBox="0.00 0.00 256.00 207.00" xmlns="http://www.w3.org/2000/svg" xmlns:xlink="http://www.w3.org/1999/xlink">
<g id="graph0" class="graph" transform="scale(1 1) rotate(0) translate(4 203)">
<title>Primary::ManagedSecondaryConfig</title>
<polygon fill="#ffffff" stroke="transparent" points="-4,4 -4,-203 252,-203 252,4 -4,4"/>
<!-- Node4 -->
<g id="node1" class="node">
<title>Node4</title>
<polygon fill="#bfbfbf" stroke="#000000" points="9.5,-.5 9.5,-30.5 164.5,-30.5 164.5,-.5 9.5,-.5"/>
<text text-anchor="start" x="17.5" y="-18.5" font-family="Helvetica,sans-Serif" font-size="10.00" fill="#000000">Primary::ManagedSecondary</text>
<text text-anchor="middle" x="87" y="-7.5" font-family="Helvetica,sans-Serif" font-size="10.00" fill="#000000">Config</text>
</g>
<!-- Node5 -->
<g id="node2" class="node">
<title>Node5</title>
<g id="a_node2"><a xlink:href="class_primary_1_1_secondary_config.html" target="_top" xlink:title="Primary::SecondaryConfig">
<polygon fill="#ffffff" stroke="#000000" points="0,-111.5 0,-130.5 142,-130.5 142,-111.5 0,-111.5"/>
<text text-anchor="middle" x="71" y="-118.5" font-family="Helvetica,sans-Serif" font-size="10.00" fill="#000000">Primary::SecondaryConfig</text>
</a>
</g>
</g>
<!-- Node5&#45;&gt;Node4 -->
<g id="edge1" class="edge">
<title>Node5&#45;&gt;Node4</title>
<path fill="none" stroke="#191970" d="M74.0079,-101.1669C77.116,-80.6729 81.8986,-49.1372 84.7118,-30.5875"/>
<polygon fill="#191970" stroke="#191970" points="70.5157,-100.8521 72.4766,-111.2639 77.4365,-101.9018 70.5157,-100.8521"/>
</g>
<!-- Node6 -->
<g id="node3" class="node">
<title>Node6</title>
<g id="a_node3"><a xlink:title="STL class. ">
<polygon fill="#ffffff" stroke="#bfbfbf" points="160.5,-111.5 160.5,-130.5 225.5,-130.5 225.5,-111.5 160.5,-111.5"/>
<text text-anchor="middle" x="193" y="-118.5" font-family="Helvetica,sans-Serif" font-size="10.00" fill="#000000">std::string</text>
</a>
</g>
</g>
<!-- Node6&#45;&gt;Node4 -->
<g id="edge2" class="edge">
<title>Node6&#45;&gt;Node4</title>
<path fill="none" stroke="#9a32cd" stroke-dasharray="5,2" d="M176.1293,-104.2089C155.7428,-83.9185 121.7458,-50.0819 102.159,-30.5875"/>
<polygon fill="#9a32cd" stroke="#9a32cd" points="173.661,-106.6903 183.2178,-111.2639 178.599,-101.7288 173.661,-106.6903"/>
<text text-anchor="middle" x="206" y="-85" font-family="Helvetica,sans-Serif" font-size="10.00" fill="#000000"> ecu_private_key</text>
<text text-anchor="middle" x="206" y="-74" font-family="Helvetica,sans-Serif" font-size="10.00" fill="#000000">ecu_hardware_id</text>
<text text-anchor="middle" x="206" y="-63" font-family="Helvetica,sans-Serif" font-size="10.00" fill="#000000">ecu_serial</text>
<text text-anchor="middle" x="206" y="-52" font-family="Helvetica,sans-Serif" font-size="10.00" fill="#000000">ecu_public_key</text>
</g>
<!-- Node7 -->
<g id="node4" class="node">
<title>Node7</title>
<g id="a_node4"><a xlink:title="STL class. ">
<polygon fill="#ffffff" stroke="#bfbfbf" points="141,-168.5 141,-198.5 245,-198.5 245,-168.5 141,-168.5"/>
<text text-anchor="start" x="149" y="-186.5" font-family="Helvetica,sans-Serif" font-size="10.00" fill="#000000">std::basic_string&lt;</text>
<text text-anchor="middle" x="193" y="-175.5" font-family="Helvetica,sans-Serif" font-size="10.00" fill="#000000"> char &gt;</text>
</a>
</g>
</g>
<!-- Node7&#45;&gt;Node6 -->
<g id="edge3" class="edge">
<title>Node7&#45;&gt;Node6</title>
<path fill="none" stroke="#191970" d="M193,-158.3498C193,-148.6481 193,-138.1303 193,-130.7356"/>
<polygon fill="#191970" stroke="#191970" points="189.5001,-158.3705 193,-168.3705 196.5001,-158.3705 189.5001,-158.3705"/>
</g>
</g>
</svg>
