<?xml version="1.0" encoding="UTF-8" standalone="no"?>
<!DOCTYPE svg PUBLIC "-//W3C//DTD SVG 1.1//EN"
 "http://www.w3.org/Graphics/SVG/1.1/DTD/svg11.dtd">
<!-- Generated by graphviz version 2.40.1 (20161225.0304)
 -->
<!-- Title: event::UpdateCheckComplete Pages: 1 -->
<svg width="254pt" height="251pt"
 viewBox="0.00 0.00 253.50 251.00" xmlns="http://www.w3.org/2000/svg" xmlns:xlink="http://www.w3.org/1999/xlink">
<g id="graph0" class="graph" transform="scale(1 1) rotate(0) translate(4 247)">
<title>event::UpdateCheckComplete</title>
<polygon fill="#ffffff" stroke="transparent" points="-4,4 -4,-247 249.5,-247 249.5,4 -4,4"/>
<!-- Node2 -->
<g id="node1" class="node">
<title>Node2</title>
<polygon fill="#bfbfbf" stroke="#000000" points="49,-.5 49,-19.5 212,-19.5 212,-.5 49,-.5"/>
<text text-anchor="middle" x="130.5" y="-7.5" font-family="Helvetica,sans-Serif" font-size="10.00" fill="#000000">event::UpdateCheckComplete</text>
</g>
<!-- Node3 -->
<g id="node2" class="node">
<title>Node3</title>
<g id="a_node2"><a xlink:href="classevent_1_1_base_event.html" target="_top" xlink:title="Base class for all event objects. ">
<polygon fill="#ffffff" stroke="#000000" points="143.5,-67.5 143.5,-86.5 245.5,-86.5 245.5,-67.5 143.5,-67.5"/>
<text text-anchor="middle" x="194.5" y="-74.5" font-family="Helvetica,sans-Serif" font-size="10.00" fill="#000000">event::BaseEvent</text>
</a>
</g>
</g>
<!-- Node3&#45;&gt;Node2 -->
<g id="edge1" class="edge">
<title>Node3&#45;&gt;Node2</title>
<path fill="none" stroke="#191970" d="M178.3362,-60.0785C166.0953,-47.2639 149.7208,-30.1218 139.6526,-19.5817"/>
<polygon fill="#191970" stroke="#191970" points="175.8921,-62.587 185.3304,-67.4005 180.9539,-57.7518 175.8921,-62.587"/>
</g>
<!-- Node4 -->
<g id="node3" class="node">
<title>Node4</title>
<g id="a_node3"><a xlink:title="STL class. ">
<polygon fill="#ffffff" stroke="#bfbfbf" points="150,-140 150,-159 215,-159 215,-140 150,-140"/>
<text text-anchor="middle" x="182.5" y="-147" font-family="Helvetica,sans-Serif" font-size="10.00" fill="#000000">std::string</text>
</a>
</g>
</g>
<!-- Node4&#45;&gt;Node3 -->
<g id="edge2" class="edge">
<title>Node4&#45;&gt;Node3</title>
<path fill="none" stroke="#9a32cd" stroke-dasharray="5,2" d="M185.7929,-129.6054C188.1071,-115.6237 191.1012,-97.5346 192.9073,-86.6228"/>
<polygon fill="#9a32cd" stroke="#9a32cd" points="182.2984,-129.285 184.1184,-139.7223 189.2044,-130.4281 182.2984,-129.285"/>
<text text-anchor="middle" x="208.5" y="-108" font-family="Helvetica,sans-Serif" font-size="10.00" fill="#000000"> variant</text>
</g>
<!-- Node6 -->
<g id="node5" class="node">
<title>Node6</title>
<g id="a_node5"><a xlink:href="classresult_1_1_update_check.html" target="_top" xlink:title="Container for information about available updates. ">
<polygon fill="#ffffff" stroke="#000000" points="9.5,-67.5 9.5,-86.5 125.5,-86.5 125.5,-67.5 9.5,-67.5"/>
<text text-anchor="middle" x="67.5" y="-74.5" font-family="Helvetica,sans-Serif" font-size="10.00" fill="#000000">result::UpdateCheck</text>
</a>
</g>
</g>
<!-- Node4&#45;&gt;Node6 -->
<g id="edge7" class="edge">
<title>Node4&#45;&gt;Node6</title>
<path fill="none" stroke="#9a32cd" stroke-dasharray="5,2" d="M158.2389,-134.2049C135.4467,-119.836 102.043,-98.7771 82.7637,-86.6228"/>
<polygon fill="#9a32cd" stroke="#9a32cd" points="156.6647,-137.35 166.9906,-139.7223 160.3979,-131.4285 156.6647,-137.35"/>
<text text-anchor="middle" x="151.5" y="-108" font-family="Helvetica,sans-Serif" font-size="10.00" fill="#000000"> message</text>
</g>
<!-- Node5 -->
<g id="node4" class="node">
<title>Node5</title>
<g id="a_node4"><a xlink:title="STL class. ">
<polygon fill="#ffffff" stroke="#bfbfbf" points="130.5,-212.5 130.5,-242.5 234.5,-242.5 234.5,-212.5 130.5,-212.5"/>
<text text-anchor="start" x="138.5" y="-230.5" font-family="Helvetica,sans-Serif" font-size="10.00" fill="#000000">std::basic_string&lt;</text>
<text text-anchor="middle" x="182.5" y="-219.5" font-family="Helvetica,sans-Serif" font-size="10.00" fill="#000000"> char &gt;</text>
</a>
</g>
</g>
<!-- Node5&#45;&gt;Node4 -->
<g id="edge3" class="edge">
<title>Node5&#45;&gt;Node4</title>
<path fill="none" stroke="#191970" d="M182.5,-202.3962C182.5,-187.6331 182.5,-169.8138 182.5,-159.0839"/>
<polygon fill="#191970" stroke="#191970" points="179.0001,-202.4608 182.5,-212.4608 186.0001,-202.4609 179.0001,-202.4608"/>
</g>
<!-- Node6&#45;&gt;Node2 -->
<g id="edge4" class="edge">
<title>Node6&#45;&gt;Node2</title>
<path fill="none" stroke="#9a32cd" stroke-dasharray="5,2" d="M83.4112,-60.0785C95.4608,-47.2639 111.5795,-30.1218 121.4904,-19.5817"/>
<polygon fill="#9a32cd" stroke="#9a32cd" points="80.8268,-57.7177 76.5264,-67.4005 85.9265,-62.5129 80.8268,-57.7177"/>
<text text-anchor="middle" x="119" y="-41" font-family="Helvetica,sans-Serif" font-size="10.00" fill="#000000"> result</text>
</g>
<!-- Node7 -->
<g id="node6" class="node">
<title>Node7</title>
<polygon fill="#ffffff" stroke="#bfbfbf" points="0,-134.5 0,-164.5 115,-164.5 115,-134.5 0,-134.5"/>
<text text-anchor="start" x="8" y="-152.5" font-family="Helvetica,sans-Serif" font-size="10.00" fill="#000000">std::vector&lt; Uptane</text>
<text text-anchor="middle" x="57.5" y="-141.5" font-family="Helvetica,sans-Serif" font-size="10.00" fill="#000000">::Target &gt;</text>
</g>
<!-- Node7&#45;&gt;Node6 -->
<g id="edge5" class="edge">
<title>Node7&#45;&gt;Node6</title>
<path fill="none" stroke="#9a32cd" stroke-dasharray="5,2" d="M56.8085,-124.1335C56.983,-117.8474 57.4648,-111.1512 58.5,-105 59.5508,-98.7563 61.6952,-91.9918 63.6272,-86.676"/>
<polygon fill="#9a32cd" stroke="#9a32cd" points="53.3085,-124.1404 56.7616,-134.1567 60.3085,-124.1732 53.3085,-124.1404"/>
<text text-anchor="middle" x="80" y="-108" font-family="Helvetica,sans-Serif" font-size="10.00" fill="#000000"> updates</text>
</g>
<!-- Node8 -->
<g id="node7" class="node">
<title>Node8</title>
<g id="a_node7"><a xlink:href="class_uptane_1_1_target.html" target="_top" xlink:title="Uptane::Target">
<polygon fill="#ffffff" stroke="#000000" points="13.5,-218 13.5,-237 101.5,-237 101.5,-218 13.5,-218"/>
<text text-anchor="middle" x="57.5" y="-225" font-family="Helvetica,sans-Serif" font-size="10.00" fill="#000000">Uptane::Target</text>
</a>
</g>
</g>
<!-- Node8&#45;&gt;Node7 -->
<g id="edge6" class="edge">
<title>Node8&#45;&gt;Node7</title>
<path fill="none" stroke="#9a32cd" stroke-dasharray="5,2" d="M57.5,-207.8751C57.5,-194.5215 57.5,-177.1052 57.5,-164.7824"/>
<polygon fill="#9a32cd" stroke="#9a32cd" points="54.0001,-207.9356 57.5,-217.9357 61.0001,-207.9357 54.0001,-207.9356"/>
<text text-anchor="middle" x="82" y="-186" font-family="Helvetica,sans-Serif" font-size="10.00" fill="#000000"> elements</text>
</g>
</g>
</svg>
