<?xml version="1.0" encoding="UTF-8" standalone="no"?>
<!DOCTYPE svg PUBLIC "-//W3C//DTD SVG 1.1//EN"
 "http://www.w3.org/Graphics/SVG/1.1/DTD/svg11.dtd">
<!-- Generated by graphviz version 2.43.0 (0)
 -->
<!-- Title: Uptane::TimestampMeta Pages: 1 -->
<svg width="146pt" height="152pt"
 viewBox="0.00 0.00 146.00 152.00" xmlns="http://www.w3.org/2000/svg" xmlns:xlink="http://www.w3.org/1999/xlink">
<g id="graph0" class="graph" transform="scale(1 1) rotate(0) translate(4 148)">
<title>Uptane::TimestampMeta</title>
<polygon fill="white" stroke="transparent" points="-4,4 -4,-148 142,-148 142,4 -4,4"/>
<!-- Node1 -->
<g id="node1" class="node">
<title>Node1</title>
<g id="a_node1"><a xlink:title=" ">
<polygon fill="#bfbfbf" stroke="black" points="0,-0.5 0,-19.5 138,-19.5 138,-0.5 0,-0.5"/>
<text text-anchor="middle" x="69" y="-7.5" font-family="Helvetica,sans-Serif" font-size="10.00">Uptane::TimestampMeta</text>
</a>
</g>
</g>
<!-- Node2 -->
<g id="node2" class="node">
<title>Node2</title>
<g id="a_node2"><a xlink:href="class_uptane_1_1_base_meta.html" target="_top" xlink:title=" ">
<polygon fill="white" stroke="black" points="15.5,-57.5 15.5,-76.5 122.5,-76.5 122.5,-57.5 15.5,-57.5"/>
<text text-anchor="middle" x="69" y="-64.5" font-family="Helvetica,sans-Serif" font-size="10.00">Uptane::BaseMeta</text>
</a>
</g>
</g>
<!-- Node2&#45;&gt;Node1 -->
<g id="edge1" class="edge">
<title>Node2&#45;&gt;Node1</title>
<path fill="none" stroke="midnightblue" d="M69,-47.12C69,-37.82 69,-27.06 69,-19.71"/>
<polygon fill="midnightblue" stroke="midnightblue" points="65.5,-47.41 69,-57.41 72.5,-47.41 65.5,-47.41"/>
</g>
<!-- Node3 -->
<g id="node3" class="node">
<title>Node3</title>
<g id="a_node3"><a xlink:href="class_time_stamp.html" target="_top" xlink:title=" ">
<polygon fill="white" stroke="black" points="32.5,-124.5 32.5,-143.5 105.5,-143.5 105.5,-124.5 32.5,-124.5"/>
<text text-anchor="middle" x="69" y="-131.5" font-family="Helvetica,sans-Serif" font-size="10.00">TimeStamp</text>
</a>
</g>
</g>
<!-- Node3&#45;&gt;Node2 -->
<g id="edge2" class="edge">
<title>Node3&#45;&gt;Node2</title>
<path fill="none" stroke="#9a32cd" stroke-dasharray="5,2" d="M69,-114.04C69,-101.67 69,-86.12 69,-76.63"/>
<polygon fill="#9a32cd" stroke="#9a32cd" points="65.5,-114.23 69,-124.23 72.5,-114.23 65.5,-114.23"/>
<text text-anchor="middle" x="89" y="-98" font-family="Helvetica,sans-Serif" font-size="10.00"> expiry_</text>
</g>
</g>
</svg>
