<?xml version="1.0" encoding="UTF-8" standalone="no"?>
<!DOCTYPE svg PUBLIC "-//W3C//DTD SVG 1.1//EN"
 "http://www.w3.org/Graphics/SVG/1.1/DTD/svg11.dtd">
<!-- Generated by graphviz version 2.43.0 (0)
 -->
<!-- Title: Initializer::KeyGenerationError Pages: 1 -->
<svg width="148pt" height="207pt"
 viewBox="0.00 0.00 148.00 207.00" xmlns="http://www.w3.org/2000/svg" xmlns:xlink="http://www.w3.org/1999/xlink">
<g id="graph0" class="graph" transform="scale(1 1) rotate(0) translate(4 203)">
<title>Initializer::KeyGenerationError</title>
<polygon fill="white" stroke="transparent" points="-4,4 -4,-203 144,-203 144,4 -4,4"/>
<!-- Node1 -->
<g id="node1" class="node">
<title>Node1</title>
<g id="a_node1"><a xlink:title=" ">
<polygon fill="#bfbfbf" stroke="black" points="0,-0.5 0,-30.5 140,-30.5 140,-0.5 0,-0.5"/>
<text text-anchor="start" x="8" y="-18.5" font-family="Helvetica,sans-Serif" font-size="10.00">Initializer::KeyGeneration</text>
<text text-anchor="middle" x="70" y="-7.5" font-family="Helvetica,sans-Serif" font-size="10.00">Error</text>
</a>
</g>
</g>
<!-- Node2 -->
<g id="node2" class="node">
<title>Node2</title>
<g id="a_node2"><a xlink:href="class_initializer_1_1_error.html" target="_top" xlink:title=" ">
<polygon fill="white" stroke="black" points="24,-67.5 24,-86.5 116,-86.5 116,-67.5 24,-67.5"/>
<text text-anchor="middle" x="70" y="-74.5" font-family="Helvetica,sans-Serif" font-size="10.00">Initializer::Error</text>
</a>
</g>
</g>
<!-- Node2&#45;&gt;Node1 -->
<g id="edge1" class="edge">
<title>Node2&#45;&gt;Node1</title>
<path fill="none" stroke="midnightblue" d="M70,-57.23C70,-48.59 70,-38.5 70,-30.52"/>
<polygon fill="midnightblue" stroke="midnightblue" points="66.5,-57.48 70,-67.48 73.5,-57.48 66.5,-57.48"/>
</g>
<!-- Node3 -->
<g id="node3" class="node">
<title>Node3</title>
<g id="a_node3"><a xlink:title="STL class.">
<polygon fill="white" stroke="#bfbfbf" points="18,-123.5 18,-142.5 122,-142.5 122,-123.5 18,-123.5"/>
<text text-anchor="middle" x="70" y="-130.5" font-family="Helvetica,sans-Serif" font-size="10.00">std::runtime_error</text>
</a>
</g>
</g>
<!-- Node3&#45;&gt;Node2 -->
<g id="edge2" class="edge">
<title>Node3&#45;&gt;Node2</title>
<path fill="none" stroke="midnightblue" d="M70,-112.8C70,-103.91 70,-93.78 70,-86.75"/>
<polygon fill="midnightblue" stroke="midnightblue" points="66.5,-113.08 70,-123.08 73.5,-113.08 66.5,-113.08"/>
</g>
<!-- Node4 -->
<g id="node4" class="node">
<title>Node4</title>
<g id="a_node4"><a xlink:title="STL class.">
<polygon fill="white" stroke="#bfbfbf" points="27,-179.5 27,-198.5 113,-198.5 113,-179.5 27,-179.5"/>
<text text-anchor="middle" x="70" y="-186.5" font-family="Helvetica,sans-Serif" font-size="10.00">std::exception</text>
</a>
</g>
</g>
<!-- Node4&#45;&gt;Node3 -->
<g id="edge3" class="edge">
<title>Node4&#45;&gt;Node3</title>
<path fill="none" stroke="midnightblue" d="M70,-168.8C70,-159.91 70,-149.78 70,-142.75"/>
<polygon fill="midnightblue" stroke="midnightblue" points="66.5,-169.08 70,-179.08 73.5,-169.08 66.5,-169.08"/>
</g>
</g>
</svg>
