<?xml version="1.0" encoding="UTF-8" standalone="no"?>
<!DOCTYPE svg PUBLIC "-//W3C//DTD SVG 1.1//EN"
 "http://www.w3.org/Graphics/SVG/1.1/DTD/svg11.dtd">
<!-- Generated by graphviz version 2.40.1 (20161225.0304)
 -->
<!-- Title: PackageManagerInterface Pages: 1 -->
<svg width="271pt" height="321pt"
 viewBox="0.00 0.00 270.50 321.00" xmlns="http://www.w3.org/2000/svg" xmlns:xlink="http://www.w3.org/1999/xlink">
<g id="graph0" class="graph" transform="scale(1 1) rotate(0) translate(4 317)">
<title>PackageManagerInterface</title>
<polygon fill="#ffffff" stroke="transparent" points="-4,4 -4,-317 266.5,-317 266.5,4 -4,4"/>
<!-- Node8 -->
<g id="node1" class="node">
<title>Node8</title>
<polygon fill="#bfbfbf" stroke="#000000" points="0,-.5 0,-19.5 143,-19.5 143,-.5 0,-.5"/>
<text text-anchor="middle" x="71.5" y="-7.5" font-family="Helvetica,sans-Serif" font-size="10.00" fill="#000000">PackageManagerInterface</text>
</g>
<!-- Node9 -->
<g id="node2" class="node">
<title>Node9</title>
<g id="a_node2"><a xlink:href="struct_package_config.html" target="_top" xlink:title="PackageConfig">
<polygon fill="#ffffff" stroke="#000000" points="27.5,-67.5 27.5,-86.5 115.5,-86.5 115.5,-67.5 27.5,-67.5"/>
<text text-anchor="middle" x="71.5" y="-74.5" font-family="Helvetica,sans-Serif" font-size="10.00" fill="#000000">PackageConfig</text>
</a>
</g>
</g>
<!-- Node9&#45;&gt;Node8 -->
<g id="edge1" class="edge">
<title>Node9&#45;&gt;Node8</title>
<path fill="none" stroke="#9a32cd" stroke-dasharray="5,2" d="M71.5,-57.1079C71.5,-44.714 71.5,-29.3263 71.5,-19.5817"/>
<polygon fill="#9a32cd" stroke="#9a32cd" points="68.0001,-57.4005 71.5,-67.4005 75.0001,-57.4006 68.0001,-57.4005"/>
<text text-anchor="middle" x="88" y="-41" font-family="Helvetica,sans-Serif" font-size="10.00" fill="#000000"> config</text>
</g>
<!-- Node10 -->
<g id="node3" class="node">
<title>Node10</title>
<polygon fill="#ffffff" stroke="#bfbfbf" points="140.5,-135.5 140.5,-165.5 262.5,-165.5 262.5,-135.5 140.5,-135.5"/>
<text text-anchor="start" x="148.5" y="-153.5" font-family="Helvetica,sans-Serif" font-size="10.00" fill="#000000">std::map&lt; std::string,</text>
<text text-anchor="middle" x="201.5" y="-142.5" font-family="Helvetica,sans-Serif" font-size="10.00" fill="#000000"> std::string &gt;</text>
</g>
<!-- Node10&#45;&gt;Node9 -->
<g id="edge2" class="edge">
<title>Node10&#45;&gt;Node9</title>
<path fill="none" stroke="#9a32cd" stroke-dasharray="5,2" d="M165.9818,-130.4186C140.8103,-116.187 108.1545,-97.7239 88.5683,-86.6501"/>
<polygon fill="#9a32cd" stroke="#9a32cd" points="164.4512,-133.5738 174.8789,-135.4488 167.8964,-127.4803 164.4512,-133.5738"/>
<text text-anchor="middle" x="154" y="-108" font-family="Helvetica,sans-Serif" font-size="10.00" fill="#000000"> extra</text>
</g>
<!-- Node11 -->
<g id="node4" class="node">
<title>Node11</title>
<g id="a_node4"><a xlink:title="STL class. ">
<polygon fill="#ffffff" stroke="#bfbfbf" points="39,-225.5 39,-244.5 104,-244.5 104,-225.5 39,-225.5"/>
<text text-anchor="middle" x="71.5" y="-232.5" font-family="Helvetica,sans-Serif" font-size="10.00" fill="#000000">std::string</text>
</a>
</g>
</g>
<!-- Node11&#45;&gt;Node9 -->
<g id="edge5" class="edge">
<title>Node11&#45;&gt;Node9</title>
<path fill="none" stroke="#9a32cd" stroke-dasharray="5,2" d="M68.6173,-215.3251C65.9925,-194.9749 62.7704,-162.2732 64.5,-134 65.5227,-117.2814 68.2178,-97.9581 69.9498,-86.6489"/>
<polygon fill="#9a32cd" stroke="#9a32cd" points="65.1526,-215.8217 69.9789,-225.2534 72.0877,-214.8706 65.1526,-215.8217"/>
<text text-anchor="middle" x="98" y="-159" font-family="Helvetica,sans-Serif" font-size="10.00" fill="#000000"> os</text>
<text text-anchor="middle" x="98" y="-148" font-family="Helvetica,sans-Serif" font-size="10.00" fill="#000000">ostree_server</text>
<text text-anchor="middle" x="98" y="-137" font-family="Helvetica,sans-Serif" font-size="10.00" fill="#000000">type</text>
</g>
<!-- Node11&#45;&gt;Node10 -->
<g id="edge3" class="edge">
<title>Node11&#45;&gt;Node10</title>
<path fill="none" stroke="#9a32cd" stroke-dasharray="5,2" d="M94.8409,-219.8284C118.4752,-204.4661 154.8082,-180.8496 178.3675,-165.5361"/>
<polygon fill="#9a32cd" stroke="#9a32cd" points="92.6369,-217.0865 86.1599,-225.471 96.4519,-222.9557 92.6369,-217.0865"/>
<text text-anchor="middle" x="170.5" y="-199" font-family="Helvetica,sans-Serif" font-size="10.00" fill="#000000"> keys</text>
<text text-anchor="middle" x="170.5" y="-188" font-family="Helvetica,sans-Serif" font-size="10.00" fill="#000000">elements</text>
</g>
<!-- Node12 -->
<g id="node5" class="node">
<title>Node12</title>
<g id="a_node5"><a xlink:title="STL class. ">
<polygon fill="#ffffff" stroke="#bfbfbf" points="19.5,-282.5 19.5,-312.5 123.5,-312.5 123.5,-282.5 19.5,-282.5"/>
<text text-anchor="start" x="27.5" y="-300.5" font-family="Helvetica,sans-Serif" font-size="10.00" fill="#000000">std::basic_string&lt;</text>
<text text-anchor="middle" x="71.5" y="-289.5" font-family="Helvetica,sans-Serif" font-size="10.00" fill="#000000"> char &gt;</text>
</a>
</g>
</g>
<!-- Node12&#45;&gt;Node11 -->
<g id="edge4" class="edge">
<title>Node12&#45;&gt;Node11</title>
<path fill="none" stroke="#191970" d="M71.5,-272.3498C71.5,-262.6481 71.5,-252.1303 71.5,-244.7356"/>
<polygon fill="#191970" stroke="#191970" points="68.0001,-272.3705 71.5,-282.3705 75.0001,-272.3705 68.0001,-272.3705"/>
</g>
</g>
</svg>
