<?xml version="1.0" encoding="UTF-8" standalone="no"?>
<!DOCTYPE svg PUBLIC "-//W3C//DTD SVG 1.1//EN"
 "http://www.w3.org/Graphics/SVG/1.1/DTD/svg11.dtd">
<!-- Generated by graphviz version 2.40.1 (20161225.0304)
 -->
<!-- Title: result::Install Pages: 1 -->
<svg width="287pt" height="442pt"
 viewBox="0.00 0.00 286.50 442.00" xmlns="http://www.w3.org/2000/svg" xmlns:xlink="http://www.w3.org/1999/xlink">
<g id="graph0" class="graph" transform="scale(1 1) rotate(0) translate(4 438)">
<title>result::Install</title>
<polygon fill="#ffffff" stroke="transparent" points="-4,4 -4,-438 282.5,-438 282.5,4 -4,4"/>
<!-- Node1 -->
<g id="node1" class="node">
<title>Node1</title>
<polygon fill="#bfbfbf" stroke="#000000" points="61,-.5 61,-19.5 141,-19.5 141,-.5 61,-.5"/>
<text text-anchor="middle" x="101" y="-7.5" font-family="Helvetica,sans-Serif" font-size="10.00" fill="#000000">result::Install</text>
</g>
<!-- Node2 -->
<g id="node2" class="node">
<title>Node2</title>
<g id="a_node2"><a xlink:href="structdata_1_1_installation_result.html" target="_top" xlink:title="data::InstallationResult">
<polygon fill="#ffffff" stroke="#000000" points="149.5,-212.5 149.5,-231.5 278.5,-231.5 278.5,-212.5 149.5,-212.5"/>
<text text-anchor="middle" x="214" y="-219.5" font-family="Helvetica,sans-Serif" font-size="10.00" fill="#000000">data::InstallationResult</text>
</a>
</g>
</g>
<!-- Node2&#45;&gt;Node1 -->
<g id="edge1" class="edge">
<title>Node2&#45;&gt;Node1</title>
<path fill="none" stroke="#9a32cd" stroke-dasharray="5,2" d="M214.2367,-201.8608C213.6023,-164.9611 207.1474,-85.9093 166,-38 158.875,-29.7041 148.8479,-23.7922 138.7977,-19.6094"/>
<polygon fill="#9a32cd" stroke="#9a32cd" points="210.7381,-202.2801 214.2748,-212.2672 217.7381,-202.2544 210.7381,-202.2801"/>
<text text-anchor="middle" x="234" y="-119" font-family="Helvetica,sans-Serif" font-size="10.00" fill="#000000"> dev_report</text>
</g>
<!-- Node7 -->
<g id="node7" class="node">
<title>Node7</title>
<g id="a_node7"><a xlink:href="classresult_1_1_install_1_1_ecu_report.html" target="_top" xlink:title="result::Install::EcuReport">
<polygon fill="#ffffff" stroke="#000000" points="33.5,-145.5 33.5,-164.5 168.5,-164.5 168.5,-145.5 33.5,-145.5"/>
<text text-anchor="middle" x="101" y="-152.5" font-family="Helvetica,sans-Serif" font-size="10.00" fill="#000000">result::Install::EcuReport</text>
</a>
</g>
</g>
<!-- Node2&#45;&gt;Node7 -->
<g id="edge9" class="edge">
<title>Node2&#45;&gt;Node7</title>
<path fill="none" stroke="#9a32cd" stroke-dasharray="5,2" d="M172.8713,-208.7792C162.7424,-204.7246 152.1765,-199.7789 143,-194 130.0332,-185.8342 117.4683,-173.3796 109.514,-164.7513"/>
<polygon fill="#9a32cd" stroke="#9a32cd" points="171.7979,-212.1154 182.3891,-212.3917 174.2819,-205.5709 171.7979,-212.1154"/>
<text text-anchor="middle" x="170" y="-186" font-family="Helvetica,sans-Serif" font-size="10.00" fill="#000000"> install_res</text>
</g>
<!-- Node3 -->
<g id="node3" class="node">
<title>Node3</title>
<g id="a_node3"><a xlink:href="structdata_1_1_result_code.html" target="_top" xlink:title="data::ResultCode">
<polygon fill="#ffffff" stroke="#000000" points="78.5,-279.5 78.5,-298.5 177.5,-298.5 177.5,-279.5 78.5,-279.5"/>
<text text-anchor="middle" x="128" y="-286.5" font-family="Helvetica,sans-Serif" font-size="10.00" fill="#000000">data::ResultCode</text>
</a>
</g>
</g>
<!-- Node3&#45;&gt;Node2 -->
<g id="edge2" class="edge">
<title>Node3&#45;&gt;Node2</title>
<path fill="none" stroke="#9a32cd" stroke-dasharray="5,2" d="M130.4153,-269.4351C132.1237,-262.5833 135.0365,-255.2877 140,-250 147.8969,-241.5873 158.5787,-235.6808 169.3676,-231.5416"/>
<polygon fill="#9a32cd" stroke="#9a32cd" points="126.9334,-269.0219 128.6004,-279.4848 133.822,-270.2661 126.9334,-269.0219"/>
<text text-anchor="middle" x="170" y="-253" font-family="Helvetica,sans-Serif" font-size="10.00" fill="#000000"> result_code</text>
</g>
<!-- Node4 -->
<g id="node4" class="node">
<title>Node4</title>
<g id="a_node4"><a xlink:title="STL class. ">
<polygon fill="#ffffff" stroke="#bfbfbf" points="95.5,-346.5 95.5,-365.5 160.5,-365.5 160.5,-346.5 95.5,-346.5"/>
<text text-anchor="middle" x="128" y="-353.5" font-family="Helvetica,sans-Serif" font-size="10.00" fill="#000000">std::string</text>
</a>
</g>
</g>
<!-- Node4&#45;&gt;Node1 -->
<g id="edge6" class="edge">
<title>Node4&#45;&gt;Node1</title>
<path fill="none" stroke="#9a32cd" stroke-dasharray="5,2" d="M85.2082,-351.3271C47.9966,-344.6077 0,-328.3197 0,-289 0,-289 0,-289 0,-82.5 0,-49.2597 36.5496,-29.7756 65.6751,-19.5261"/>
<polygon fill="#9a32cd" stroke="#9a32cd" points="84.9368,-354.8289 95.369,-352.9798 86.0606,-347.9197 84.9368,-354.8289"/>
<text text-anchor="middle" x="28" y="-186" font-family="Helvetica,sans-Serif" font-size="10.00" fill="#000000"> raw_report</text>
</g>
<!-- Node4&#45;&gt;Node2 -->
<g id="edge5" class="edge">
<title>Node4&#45;&gt;Node2</title>
<path fill="none" stroke="#9a32cd" stroke-dasharray="5,2" d="M167.4297,-341.6165C173.636,-337.95 179.4827,-333.4569 184,-328 208.026,-298.9769 212.8398,-251.8512 213.7826,-231.6709"/>
<polygon fill="#9a32cd" stroke="#9a32cd" points="165.4544,-338.6984 158.1921,-346.4127 168.68,-344.9109 165.4544,-338.6984"/>
<text text-anchor="middle" x="236" y="-286.5" font-family="Helvetica,sans-Serif" font-size="10.00" fill="#000000"> description</text>
</g>
<!-- Node4&#45;&gt;Node3 -->
<g id="edge3" class="edge">
<title>Node4&#45;&gt;Node3</title>
<path fill="none" stroke="#9a32cd" stroke-dasharray="5,2" d="M128,-336.1079C128,-323.714 128,-308.3263 128,-298.5817"/>
<polygon fill="#9a32cd" stroke="#9a32cd" points="124.5001,-336.4005 128,-346.4005 131.5001,-336.4006 124.5001,-336.4005"/>
<text text-anchor="middle" x="154" y="-320" font-family="Helvetica,sans-Serif" font-size="10.00" fill="#000000"> text_code</text>
</g>
<!-- Node5 -->
<g id="node5" class="node">
<title>Node5</title>
<g id="a_node5"><a xlink:title="STL class. ">
<polygon fill="#ffffff" stroke="#bfbfbf" points="76,-403.5 76,-433.5 180,-433.5 180,-403.5 76,-403.5"/>
<text text-anchor="start" x="84" y="-421.5" font-family="Helvetica,sans-Serif" font-size="10.00" fill="#000000">std::basic_string&lt;</text>
<text text-anchor="middle" x="128" y="-410.5" font-family="Helvetica,sans-Serif" font-size="10.00" fill="#000000"> char &gt;</text>
</a>
</g>
</g>
<!-- Node5&#45;&gt;Node4 -->
<g id="edge4" class="edge">
<title>Node5&#45;&gt;Node4</title>
<path fill="none" stroke="#191970" d="M128,-393.3498C128,-383.6481 128,-373.1303 128,-365.7356"/>
<polygon fill="#191970" stroke="#191970" points="124.5001,-393.3705 128,-403.3705 131.5001,-393.3705 124.5001,-393.3705"/>
</g>
<!-- Node6 -->
<g id="node6" class="node">
<title>Node6</title>
<polygon fill="#ffffff" stroke="#bfbfbf" points="41.5,-67.5 41.5,-97.5 160.5,-97.5 160.5,-67.5 41.5,-67.5"/>
<text text-anchor="start" x="49.5" y="-85.5" font-family="Helvetica,sans-Serif" font-size="10.00" fill="#000000">std::vector&lt; result</text>
<text text-anchor="middle" x="101" y="-74.5" font-family="Helvetica,sans-Serif" font-size="10.00" fill="#000000">::Install::EcuReport &gt;</text>
</g>
<!-- Node6&#45;&gt;Node1 -->
<g id="edge7" class="edge">
<title>Node6&#45;&gt;Node1</title>
<path fill="none" stroke="#9a32cd" stroke-dasharray="5,2" d="M101,-57.305C101,-44.424 101,-29.4836 101,-19.8957"/>
<polygon fill="#9a32cd" stroke="#9a32cd" points="97.5001,-57.4779 101,-67.478 104.5001,-57.478 97.5001,-57.4779"/>
<text text-anchor="middle" x="131.5" y="-41" font-family="Helvetica,sans-Serif" font-size="10.00" fill="#000000"> ecu_reports</text>
</g>
<!-- Node7&#45;&gt;Node6 -->
<g id="edge8" class="edge">
<title>Node7&#45;&gt;Node6</title>
<path fill="none" stroke="#9a32cd" stroke-dasharray="5,2" d="M101,-135.0177C101,-123.2164 101,-108.513 101,-97.668"/>
<polygon fill="#9a32cd" stroke="#9a32cd" points="97.5001,-135.2223 101,-145.2223 104.5001,-135.2224 97.5001,-135.2223"/>
<text text-anchor="middle" x="125.5" y="-119" font-family="Helvetica,sans-Serif" font-size="10.00" fill="#000000"> elements</text>
</g>
<!-- Node8 -->
<g id="node8" class="node">
<title>Node8</title>
<g id="a_node8"><a xlink:href="class_uptane_1_1_ecu_serial.html" target="_top" xlink:title="Uptane::EcuSerial">
<polygon fill="#ffffff" stroke="#000000" points="28.5,-212.5 28.5,-231.5 131.5,-231.5 131.5,-212.5 28.5,-212.5"/>
<text text-anchor="middle" x="80" y="-219.5" font-family="Helvetica,sans-Serif" font-size="10.00" fill="#000000">Uptane::EcuSerial</text>
</a>
</g>
</g>
<!-- Node8&#45;&gt;Node7 -->
<g id="edge10" class="edge">
<title>Node8&#45;&gt;Node7</title>
<path fill="none" stroke="#9a32cd" stroke-dasharray="5,2" d="M81.7245,-202.2011C82.6173,-195.9521 83.9662,-189.0918 86,-183 88.1306,-176.6183 91.6372,-169.9601 94.7243,-164.7382"/>
<polygon fill="#9a32cd" stroke="#9a32cd" points="78.2068,-202.161 80.5604,-212.4911 85.1624,-202.9479 78.2068,-202.161"/>
<text text-anchor="middle" x="101.5" y="-186" font-family="Helvetica,sans-Serif" font-size="10.00" fill="#000000"> serial</text>
</g>
</g>
</svg>
