<?xml version="1.0" encoding="UTF-8" standalone="no"?>
<!DOCTYPE svg PUBLIC "-//W3C//DTD SVG 1.1//EN"
 "http://www.w3.org/Graphics/SVG/1.1/DTD/svg11.dtd">
<!-- Generated by graphviz version 2.40.1 (20161225.0304)
 -->
<!-- Title: SecondaryInterfaceMock Pages: 1 -->
<svg width="411pt" height="342pt"
 viewBox="0.00 0.00 411.00 342.00" xmlns="http://www.w3.org/2000/svg" xmlns:xlink="http://www.w3.org/1999/xlink">
<g id="graph0" class="graph" transform="scale(1 1) rotate(0) translate(4 338)">
<title>SecondaryInterfaceMock</title>
<polygon fill="#ffffff" stroke="transparent" points="-4,4 -4,-338 407,-338 407,4 -4,4"/>
<!-- Node2 -->
<g id="node1" class="node">
<title>Node2</title>
<polygon fill="#bfbfbf" stroke="#000000" points="173.5,-.5 173.5,-19.5 310.5,-19.5 310.5,-.5 173.5,-.5"/>
<text text-anchor="middle" x="242" y="-7.5" font-family="Helvetica,sans-Serif" font-size="10.00" fill="#000000">SecondaryInterfaceMock</text>
</g>
<!-- Node3 -->
<g id="node2" class="node">
<title>Node3</title>
<g id="a_node2"><a xlink:href="class_uptane_1_1_secondary_interface.html" target="_top" xlink:title="Uptane::SecondaryInterface">
<polygon fill="#ffffff" stroke="#000000" points="0,-73 0,-92 152,-92 152,-73 0,-73"/>
<text text-anchor="middle" x="76" y="-80" font-family="Helvetica,sans-Serif" font-size="10.00" fill="#000000">Uptane::SecondaryInterface</text>
</a>
</g>
</g>
<!-- Node3&#45;&gt;Node2 -->
<g id="edge1" class="edge">
<title>Node3&#45;&gt;Node2</title>
<path fill="none" stroke="#191970" d="M107.2319,-68.8596C140.1785,-54.4702 191.2405,-32.1691 220.1297,-19.5518"/>
<polygon fill="#191970" stroke="#191970" points="105.8068,-65.6627 98.0435,-72.8726 108.6085,-72.0775 105.8068,-65.6627"/>
</g>
<!-- Node4 -->
<g id="node3" class="node">
<title>Node4</title>
<g id="a_node3"><a xlink:href="class_primary_1_1_virtual_secondary_config.html" target="_top" xlink:title="Primary::VirtualSecondary\lConfig">
<polygon fill="#ffffff" stroke="#000000" points="170.5,-67.5 170.5,-97.5 313.5,-97.5 313.5,-67.5 170.5,-67.5"/>
<text text-anchor="start" x="178.5" y="-85.5" font-family="Helvetica,sans-Serif" font-size="10.00" fill="#000000">Primary::VirtualSecondary</text>
<text text-anchor="middle" x="242" y="-74.5" font-family="Helvetica,sans-Serif" font-size="10.00" fill="#000000">Config</text>
</a>
</g>
</g>
<!-- Node4&#45;&gt;Node2 -->
<g id="edge2" class="edge">
<title>Node4&#45;&gt;Node2</title>
<path fill="none" stroke="#9a32cd" stroke-dasharray="5,2" d="M242,-57.305C242,-44.424 242,-29.4836 242,-19.8957"/>
<polygon fill="#9a32cd" stroke="#9a32cd" points="238.5001,-57.4779 242,-67.478 245.5001,-57.478 238.5001,-57.4779"/>
<text text-anchor="middle" x="261" y="-41" font-family="Helvetica,sans-Serif" font-size="10.00" fill="#000000"> sconfig</text>
</g>
<!-- Node5 -->
<g id="node4" class="node">
<title>Node5</title>
<g id="a_node4"><a xlink:href="class_primary_1_1_managed_secondary_config.html" target="_top" xlink:title="Primary::ManagedSecondary\lConfig">
<polygon fill="#ffffff" stroke="#000000" points="164.5,-135.5 164.5,-165.5 319.5,-165.5 319.5,-135.5 164.5,-135.5"/>
<text text-anchor="start" x="172.5" y="-153.5" font-family="Helvetica,sans-Serif" font-size="10.00" fill="#000000">Primary::ManagedSecondary</text>
<text text-anchor="middle" x="242" y="-142.5" font-family="Helvetica,sans-Serif" font-size="10.00" fill="#000000">Config</text>
</a>
</g>
</g>
<!-- Node5&#45;&gt;Node4 -->
<g id="edge3" class="edge">
<title>Node5&#45;&gt;Node4</title>
<path fill="none" stroke="#191970" d="M242,-125.1174C242,-115.8378 242,-105.6413 242,-97.5492"/>
<polygon fill="#191970" stroke="#191970" points="238.5001,-125.4086 242,-135.4086 245.5001,-125.4086 238.5001,-125.4086"/>
</g>
<!-- Node6 -->
<g id="node5" class="node">
<title>Node6</title>
<g id="a_node5"><a xlink:href="class_primary_1_1_secondary_config.html" target="_top" xlink:title="Primary::SecondaryConfig">
<polygon fill="#ffffff" stroke="#000000" points="155,-246.5 155,-265.5 297,-265.5 297,-246.5 155,-246.5"/>
<text text-anchor="middle" x="226" y="-253.5" font-family="Helvetica,sans-Serif" font-size="10.00" fill="#000000">Primary::SecondaryConfig</text>
</a>
</g>
</g>
<!-- Node6&#45;&gt;Node5 -->
<g id="edge4" class="edge">
<title>Node6&#45;&gt;Node5</title>
<path fill="none" stroke="#191970" d="M229.0079,-236.1669C232.116,-215.6729 236.8986,-184.1372 239.7118,-165.5875"/>
<polygon fill="#191970" stroke="#191970" points="225.5157,-235.8521 227.4766,-246.2639 232.4365,-236.9018 225.5157,-235.8521"/>
</g>
<!-- Node7 -->
<g id="node6" class="node">
<title>Node7</title>
<g id="a_node6"><a xlink:title="STL class. ">
<polygon fill="#ffffff" stroke="#bfbfbf" points="315.5,-246.5 315.5,-265.5 380.5,-265.5 380.5,-246.5 315.5,-246.5"/>
<text text-anchor="middle" x="348" y="-253.5" font-family="Helvetica,sans-Serif" font-size="10.00" fill="#000000">std::string</text>
</a>
</g>
</g>
<!-- Node7&#45;&gt;Node5 -->
<g id="edge5" class="edge">
<title>Node7&#45;&gt;Node5</title>
<path fill="none" stroke="#9a32cd" stroke-dasharray="5,2" d="M331.1293,-239.2089C310.7428,-218.9185 276.7458,-185.0819 257.159,-165.5875"/>
<polygon fill="#9a32cd" stroke="#9a32cd" points="328.661,-241.6903 338.2178,-246.2639 333.599,-236.7288 328.661,-241.6903"/>
<text text-anchor="middle" x="361" y="-220" font-family="Helvetica,sans-Serif" font-size="10.00" fill="#000000"> ecu_private_key</text>
<text text-anchor="middle" x="361" y="-209" font-family="Helvetica,sans-Serif" font-size="10.00" fill="#000000">ecu_hardware_id</text>
<text text-anchor="middle" x="361" y="-198" font-family="Helvetica,sans-Serif" font-size="10.00" fill="#000000">ecu_serial</text>
<text text-anchor="middle" x="361" y="-187" font-family="Helvetica,sans-Serif" font-size="10.00" fill="#000000">ecu_public_key</text>
</g>
<!-- Node8 -->
<g id="node7" class="node">
<title>Node8</title>
<g id="a_node7"><a xlink:title="STL class. ">
<polygon fill="#ffffff" stroke="#bfbfbf" points="296,-303.5 296,-333.5 400,-333.5 400,-303.5 296,-303.5"/>
<text text-anchor="start" x="304" y="-321.5" font-family="Helvetica,sans-Serif" font-size="10.00" fill="#000000">std::basic_string&lt;</text>
<text text-anchor="middle" x="348" y="-310.5" font-family="Helvetica,sans-Serif" font-size="10.00" fill="#000000"> char &gt;</text>
</a>
</g>
</g>
<!-- Node8&#45;&gt;Node7 -->
<g id="edge6" class="edge">
<title>Node8&#45;&gt;Node7</title>
<path fill="none" stroke="#191970" d="M348,-293.3498C348,-283.6481 348,-273.1303 348,-265.7356"/>
<polygon fill="#191970" stroke="#191970" points="344.5001,-293.3705 348,-303.3705 351.5001,-293.3705 344.5001,-293.3705"/>
</g>
<!-- Node9 -->
<g id="node8" class="node">
<title>Node9</title>
<g id="a_node8"><a xlink:href="class_public_key.html" target="_top" xlink:title="PublicKey">
<polygon fill="#ffffff" stroke="#000000" points="332,-73 332,-92 396,-92 396,-73 332,-73"/>
<text text-anchor="middle" x="364" y="-80" font-family="Helvetica,sans-Serif" font-size="10.00" fill="#000000">PublicKey</text>
</a>
</g>
</g>
<!-- Node9&#45;&gt;Node2 -->
<g id="edge7" class="edge">
<title>Node9&#45;&gt;Node2</title>
<path fill="none" stroke="#9a32cd" stroke-dasharray="5,2" d="M339.1756,-67.7478C315.012,-53.3883 278.9915,-31.9827 258.2677,-19.6673"/>
<polygon fill="#9a32cd" stroke="#9a32cd" points="337.4147,-70.7727 347.7993,-72.8726 340.9908,-64.755 337.4147,-70.7727"/>
<text text-anchor="middle" x="336.5" y="-41" font-family="Helvetica,sans-Serif" font-size="10.00" fill="#000000"> public_key_</text>
</g>
</g>
</svg>
