<?xml version="1.0" encoding="UTF-8" standalone="no"?>
<!DOCTYPE svg PUBLIC "-//W3C//DTD SVG 1.1//EN"
 "http://www.w3.org/Graphics/SVG/1.1/DTD/svg11.dtd">
<!-- Generated by graphviz version 2.40.1 (20161225.0304)
 -->
<!-- Title: SecondaryMock Pages: 1 -->
<svg width="238pt" height="196pt"
 viewBox="0.00 0.00 237.50 196.00" xmlns="http://www.w3.org/2000/svg" xmlns:xlink="http://www.w3.org/1999/xlink">
<g id="graph0" class="graph" transform="scale(1 1) rotate(0) translate(4 192)">
<title>SecondaryMock</title>
<polygon fill="#ffffff" stroke="transparent" points="-4,4 -4,-192 233.5,-192 233.5,4 -4,4"/>
<!-- Node3 -->
<g id="node1" class="node">
<title>Node3</title>
<polygon fill="#bfbfbf" stroke="#000000" points="45,-.5 45,-19.5 138,-19.5 138,-.5 45,-.5"/>
<text text-anchor="middle" x="91.5" y="-7.5" font-family="Helvetica,sans-Serif" font-size="10.00" fill="#000000">SecondaryMock</text>
</g>
<!-- Node4 -->
<g id="node2" class="node">
<title>Node4</title>
<g id="a_node2"><a xlink:href="class_msg_dispatcher.html" target="_top" xlink:title="MsgDispatcher">
<polygon fill="#ffffff" stroke="#000000" points="0,-100.5 0,-119.5 89,-119.5 89,-100.5 0,-100.5"/>
<text text-anchor="middle" x="44.5" y="-107.5" font-family="Helvetica,sans-Serif" font-size="10.00" fill="#000000">MsgDispatcher</text>
</a>
</g>
</g>
<!-- Node4&#45;&gt;Node3 -->
<g id="edge1" class="edge">
<title>Node4&#45;&gt;Node3</title>
<path fill="none" stroke="#191970" d="M53.3786,-91.1094C63.3656,-69.8603 79.1987,-36.1731 86.938,-19.7063"/>
<polygon fill="#191970" stroke="#191970" points="50.0926,-89.8725 49.0066,-100.4116 56.4278,-92.8501 50.0926,-89.8725"/>
</g>
<!-- Node5 -->
<g id="node3" class="node">
<title>Node5</title>
<g id="a_node3"><a xlink:href="class_msg_handler.html" target="_top" xlink:title="MsgHandler">
<polygon fill="#ffffff" stroke="#000000" points="4.5,-163 4.5,-182 78.5,-182 78.5,-163 4.5,-163"/>
<text text-anchor="middle" x="41.5" y="-170" font-family="Helvetica,sans-Serif" font-size="10.00" fill="#000000">MsgHandler</text>
</a>
</g>
</g>
<!-- Node5&#45;&gt;Node4 -->
<g id="edge2" class="edge">
<title>Node5&#45;&gt;Node4</title>
<path fill="none" stroke="#191970" d="M42.4636,-152.425C42.9853,-141.5568 43.6066,-128.6118 44.0246,-119.9033"/>
<polygon fill="#191970" stroke="#191970" points="38.9523,-152.578 41.9688,-162.7344 45.9443,-152.9137 38.9523,-152.578"/>
</g>
<!-- Node6 -->
<g id="node4" class="node">
<title>Node6</title>
<g id="a_node4"><a xlink:title="STL class. ">
<polygon fill="#ffffff" stroke="#bfbfbf" points="113,-100.5 113,-119.5 178,-119.5 178,-100.5 113,-100.5"/>
<text text-anchor="middle" x="145.5" y="-107.5" font-family="Helvetica,sans-Serif" font-size="10.00" fill="#000000">std::string</text>
</a>
</g>
</g>
<!-- Node6&#45;&gt;Node3 -->
<g id="edge3" class="edge">
<title>Node6&#45;&gt;Node3</title>
<path fill="none" stroke="#9a32cd" stroke-dasharray="5,2" d="M135.4551,-91.3984C123.9901,-70.1669 105.6739,-36.2479 96.7414,-19.7063"/>
<polygon fill="#9a32cd" stroke="#9a32cd" points="132.491,-93.2756 140.3223,-100.4116 138.6504,-89.9495 132.491,-93.2756"/>
<text text-anchor="middle" x="179.5" y="-74" font-family="Helvetica,sans-Serif" font-size="10.00" fill="#000000"> upload_data_failure</text>
<text text-anchor="middle" x="179.5" y="-63" font-family="Helvetica,sans-Serif" font-size="10.00" fill="#000000">verification_failure</text>
<text text-anchor="middle" x="179.5" y="-52" font-family="Helvetica,sans-Serif" font-size="10.00" fill="#000000">ostree_failure</text>
<text text-anchor="middle" x="179.5" y="-41" font-family="Helvetica,sans-Serif" font-size="10.00" fill="#000000">installation_failure</text>
</g>
<!-- Node7 -->
<g id="node5" class="node">
<title>Node7</title>
<g id="a_node5"><a xlink:title="STL class. ">
<polygon fill="#ffffff" stroke="#bfbfbf" points="96.5,-157.5 96.5,-187.5 200.5,-187.5 200.5,-157.5 96.5,-157.5"/>
<text text-anchor="start" x="104.5" y="-175.5" font-family="Helvetica,sans-Serif" font-size="10.00" fill="#000000">std::basic_string&lt;</text>
<text text-anchor="middle" x="148.5" y="-164.5" font-family="Helvetica,sans-Serif" font-size="10.00" fill="#000000"> char &gt;</text>
</a>
</g>
</g>
<!-- Node7&#45;&gt;Node6 -->
<g id="edge4" class="edge">
<title>Node7&#45;&gt;Node6</title>
<path fill="none" stroke="#191970" d="M147.2928,-147.3498C146.8271,-137.6481 146.3223,-127.1303 145.9673,-119.7356"/>
<polygon fill="#191970" stroke="#191970" points="143.7983,-147.5498 147.7738,-157.3705 150.7902,-147.2142 143.7983,-147.5498"/>
</g>
</g>
</svg>
