<?xml version="1.0" encoding="UTF-8" standalone="no"?>
<!DOCTYPE svg PUBLIC "-//W3C//DTD SVG 1.1//EN"
 "http://www.w3.org/Graphics/SVG/1.1/DTD/svg11.dtd">
<!-- Generated by graphviz version 2.40.1 (20161225.0304)
 -->
<!-- Title: event::AllInstallsComplete Pages: 1 -->
<!--zoomable 518 -->
<svg id="main" version="1.1" xmlns="http://www.w3.org/2000/svg" xmlns:xlink="http://www.w3.org/1999/xlink" xml:space="preserve" onload="init(evt)">
<style type="text/css"><![CDATA[
.edge:hover path { stroke: red; }
.edge:hover polygon { stroke: red; fill: red; }
]]></style>
<script type="text/javascript"><![CDATA[
var edges = document.getElementsByTagName('g');
if (edges && edges.length) {
  for (var i=0;i<edges.length;i++) {
    if (edges[i].id.substr(0,4)=='edge') {
      edges[i].setAttribute('class','edge');
    }
  }
}
]]></script>
        <defs>
                <circle id="rim" cx="0" cy="0" r="7"/>
                <circle id="rim2" cx="0" cy="0" r="3.5"/>
                <g id="zoomPlus">
                        <use xlink:href="#rim" fill="#404040">
                                <set attributeName="fill" to="#808080" begin="zoomplus.mouseover" end="zoomplus.mouseout"/>
                        </use>
                        <path d="M-4,0h8M0,-4v8" fill="none" stroke="white" stroke-width="1.5" pointer-events="none"/>
                </g>
                <g id="zoomMin">
                        <use xlink:href="#rim" fill="#404040">
                                <set attributeName="fill" to="#808080" begin="zoomminus.mouseover" end="zoomminus.mouseout"/>
                        </use>
                        <path d="M-4,0h8" fill="none" stroke="white" stroke-width="1.5" pointer-events="none"/>
                </g>
                <g id="dirArrow">
                        <path fill="none" stroke="white" stroke-width="1.5" d="M0,-3.0v7 M-2.5,-0.5L0,-3.0L2.5,-0.5"/>
                </g>
               <g id="resetDef">
                       <use xlink:href="#rim2" fill="#404040">
                               <set attributeName="fill" to="#808080" begin="reset.mouseover" end="reset.mouseout"/>
                       </use>
               </g>
        </defs>

<script type="text/javascript">
var viewWidth = 404;
var viewHeight = 518;
var sectionId = 'dynsection-1';
</script>
<script xlink:href="svgpan.js"/>
<svg id="graph" class="graph">
<g id="viewport">
<title>event::AllInstallsComplete</title>
<polygon fill="#ffffff" stroke="transparent" points="-4,4 -4,-514 399.5,-514 399.5,4 -4,4"/>
<!-- Node2 -->
<g id="node1" class="node">
<title>Node2</title>
<polygon fill="#bfbfbf" stroke="#000000" points="8,-.5 8,-19.5 154,-19.5 154,-.5 8,-.5"/>
<text text-anchor="middle" x="81" y="-7.5" font-family="Helvetica,sans-Serif" font-size="10.00" fill="#000000">event::AllInstallsComplete</text>
</g>
<!-- Node3 -->
<g id="node2" class="node">
<title>Node3</title>
<g id="a_node2"><a xlink:href="classevent_1_1_base_event.html" target="_top" xlink:title="Base class for all event objects. ">
<polygon fill="#ffffff" stroke="#000000" points="0,-317.5 0,-336.5 102,-336.5 102,-317.5 0,-317.5"/>
<text text-anchor="middle" x="51" y="-324.5" font-family="Helvetica,sans-Serif" font-size="10.00" fill="#000000">event::BaseEvent</text>
</a>
</g>
</g>
<!-- Node3&#45;&gt;Node2 -->
<g id="edge1" class="edge">
<title>Node3&#45;&gt;Node2</title>
<path fill="none" stroke="#191970" d="M56.8688,-307.7301C60.702,-293.4518 65,-273.4417 65,-255.5 65,-255.5 65,-255.5 65,-77 65,-56.1913 72.3916,-32.7171 77.1268,-19.8139"/>
<polygon fill="#191970" stroke="#191970" points="53.4872,-306.8257 54.1071,-317.4024 60.2182,-308.7476 53.4872,-306.8257"/>
</g>
<!-- Node4 -->
<g id="node3" class="node">
<title>Node4</title>
<g id="a_node3"><a xlink:title="STL class. ">
<polygon fill="#ffffff" stroke="#bfbfbf" points="107.5,-422.5 107.5,-441.5 172.5,-441.5 172.5,-422.5 107.5,-422.5"/>
<text text-anchor="middle" x="140" y="-429.5" font-family="Helvetica,sans-Serif" font-size="10.00" fill="#000000">std::string</text>
</a>
</g>
</g>
<!-- Node4&#45;&gt;Node3 -->
<g id="edge2" class="edge">
<title>Node4&#45;&gt;Node3</title>
<path fill="none" stroke="#9a32cd" stroke-dasharray="5,2" d="M97.6327,-424.473C85.4885,-420.335 73.3038,-413.9255 65,-404 48.6964,-384.5124 48.7412,-352.409 49.9497,-336.5189"/>
<polygon fill="#9a32cd" stroke="#9a32cd" points="96.7065,-427.8489 107.2885,-427.3285 98.6916,-421.1363 96.7065,-427.8489"/>
<text text-anchor="middle" x="84" y="-396" font-family="Helvetica,sans-Serif" font-size="10.00" fill="#000000"> variant</text>
</g>
<!-- Node6 -->
<g id="node5" class="node">
<title>Node6</title>
<g id="a_node5"><a xlink:href="classresult_1_1_install.html" target="_top" xlink:title="Container for information about installing an update. ">
<polygon fill="#ffffff" stroke="#000000" points="122,-67.5 122,-86.5 202,-86.5 202,-67.5 122,-67.5"/>
<text text-anchor="middle" x="162" y="-74.5" font-family="Helvetica,sans-Serif" font-size="10.00" fill="#000000">result::Install</text>
</a>
</g>
</g>
<!-- Node4&#45;&gt;Node6 -->
<g id="edge9" class="edge">
<title>Node4&#45;&gt;Node6</title>
<path fill="none" stroke="#9a32cd" stroke-dasharray="5,2" d="M129.9328,-413.4221C123.7473,-400.2877 117,-382.0523 117,-365 117,-365 117,-365 117,-149.5 117,-123.7232 137.7889,-99.4935 151.1068,-86.6161"/>
<polygon fill="#9a32cd" stroke="#9a32cd" points="126.812,-415.0069 134.4323,-422.3678 133.0655,-411.8615 126.812,-415.0069"/>
<text text-anchor="middle" x="145" y="-253" font-family="Helvetica,sans-Serif" font-size="10.00" fill="#000000"> raw_report</text>
</g>
<!-- Node7 -->
<g id="node6" class="node">
<title>Node7</title>
<g id="a_node6"><a xlink:href="structdata_1_1_installation_result.html" target="_top" xlink:title="data::InstallationResult">
<polygon fill="#ffffff" stroke="#000000" points="145.5,-279.5 145.5,-298.5 274.5,-298.5 274.5,-279.5 145.5,-279.5"/>
<text text-anchor="middle" x="210" y="-286.5" font-family="Helvetica,sans-Serif" font-size="10.00" fill="#000000">data::InstallationResult</text>
</a>
</g>
</g>
<!-- Node4&#45;&gt;Node7 -->
<g id="edge8" class="edge">
<title>Node4&#45;&gt;Node7</title>
<path fill="none" stroke="#9a32cd" stroke-dasharray="5,2" d="M147.2364,-412.6701C153.325,-396.9105 162.5321,-374.1996 172,-355 182.175,-334.3664 196.0734,-311.2913 203.9331,-298.6257"/>
<polygon fill="#9a32cd" stroke="#9a32cd" points="143.8416,-411.7504 143.5547,-422.3413 150.3835,-414.2409 143.8416,-411.7504"/>
<text text-anchor="middle" x="201" y="-362.5" font-family="Helvetica,sans-Serif" font-size="10.00" fill="#000000"> description</text>
</g>
<!-- Node8 -->
<g id="node7" class="node">
<title>Node8</title>
<g id="a_node7"><a xlink:href="structdata_1_1_result_code.html" target="_top" xlink:title="data::ResultCode">
<polygon fill="#ffffff" stroke="#000000" points="239.5,-355.5 239.5,-374.5 338.5,-374.5 338.5,-355.5 239.5,-355.5"/>
<text text-anchor="middle" x="289" y="-362.5" font-family="Helvetica,sans-Serif" font-size="10.00" fill="#000000">data::ResultCode</text>
</a>
</g>
</g>
<!-- Node4&#45;&gt;Node8 -->
<g id="edge7" class="edge">
<title>Node4&#45;&gt;Node8</title>
<path fill="none" stroke="#9a32cd" stroke-dasharray="5,2" d="M170.5953,-418.2424C199.5502,-405.2224 242.2613,-386.0167 267.6915,-374.5817"/>
<polygon fill="#9a32cd" stroke="#9a32cd" points="169.033,-415.1072 161.3481,-422.4005 171.9038,-421.4915 169.033,-415.1072"/>
<text text-anchor="middle" x="250" y="-396" font-family="Helvetica,sans-Serif" font-size="10.00" fill="#000000"> text_code</text>
</g>
<!-- Node5 -->
<g id="node4" class="node">
<title>Node5</title>
<g id="a_node4"><a xlink:title="STL class. ">
<polygon fill="#ffffff" stroke="#bfbfbf" points="88,-479.5 88,-509.5 192,-509.5 192,-479.5 88,-479.5"/>
<text text-anchor="start" x="96" y="-497.5" font-family="Helvetica,sans-Serif" font-size="10.00" fill="#000000">std::basic_string&lt;</text>
<text text-anchor="middle" x="140" y="-486.5" font-family="Helvetica,sans-Serif" font-size="10.00" fill="#000000"> char &gt;</text>
</a>
</g>
</g>
<!-- Node5&#45;&gt;Node4 -->
<g id="edge3" class="edge">
<title>Node5&#45;&gt;Node4</title>
<path fill="none" stroke="#191970" d="M140,-469.3498C140,-459.6481 140,-449.1303 140,-441.7356"/>
<polygon fill="#191970" stroke="#191970" points="136.5001,-469.3705 140,-479.3705 143.5001,-469.3705 136.5001,-469.3705"/>
</g>
<!-- Node6&#45;&gt;Node2 -->
<g id="edge4" class="edge">
<title>Node6&#45;&gt;Node2</title>
<path fill="none" stroke="#9a32cd" stroke-dasharray="5,2" d="M142.414,-60.7992C126.8352,-47.9131 105.5668,-30.3207 92.5838,-19.5817"/>
<polygon fill="#9a32cd" stroke="#9a32cd" points="140.4583,-63.7237 150.3947,-67.4005 144.9199,-58.3298 140.4583,-63.7237"/>
<text text-anchor="middle" x="142.5" y="-41" font-family="Helvetica,sans-Serif" font-size="10.00" fill="#000000"> result</text>
</g>
<!-- Node7&#45;&gt;Node6 -->
<g id="edge5" class="edge">
<title>Node7&#45;&gt;Node6</title>
<path fill="none" stroke="#9a32cd" stroke-dasharray="5,2" d="M205.5984,-269.5597C195.6236,-225.5043 171.591,-119.3602 164.2,-86.7168"/>
<polygon fill="#9a32cd" stroke="#9a32cd" points="202.1909,-270.3597 207.8128,-279.3399 209.0181,-268.8139 202.1909,-270.3597"/>
<text text-anchor="middle" x="217" y="-186" font-family="Helvetica,sans-Serif" font-size="10.00" fill="#000000"> dev_report</text>
</g>
<!-- Node10 -->
<g id="node9" class="node">
<title>Node10</title>
<g id="a_node9"><a xlink:href="classresult_1_1_install_1_1_ecu_report.html" target="_top" xlink:title="result::Install::EcuReport">
<polygon fill="#ffffff" stroke="#000000" points="216.5,-212.5 216.5,-231.5 351.5,-231.5 351.5,-212.5 216.5,-212.5"/>
<text text-anchor="middle" x="284" y="-219.5" font-family="Helvetica,sans-Serif" font-size="10.00" fill="#000000">result::Install::EcuReport</text>
</a>
</g>
</g>
<!-- Node7&#45;&gt;Node10 -->
<g id="edge12" class="edge">
<title>Node7&#45;&gt;Node10</title>
<path fill="none" stroke="#9a32cd" stroke-dasharray="5,2" d="M227.7367,-272.3136C235.1844,-265.3635 243.967,-257.2412 252,-250 258.9087,-243.7723 266.7687,-236.892 272.9698,-231.5102"/>
<polygon fill="#9a32cd" stroke="#9a32cd" points="225.185,-269.908 220.2777,-279.2979 229.9695,-275.0177 225.185,-269.908"/>
<text text-anchor="middle" x="279" y="-253" font-family="Helvetica,sans-Serif" font-size="10.00" fill="#000000"> install_res</text>
</g>
<!-- Node8&#45;&gt;Node7 -->
<g id="edge6" class="edge">
<title>Node8&#45;&gt;Node7</title>
<path fill="none" stroke="#9a32cd" stroke-dasharray="5,2" d="M271.4219,-348.0894C255.5695,-332.839 232.8233,-310.9566 219.9242,-298.5473"/>
<polygon fill="#9a32cd" stroke="#9a32cd" points="269.3615,-350.9639 278.9946,-355.3745 274.2145,-345.9193 269.3615,-350.9639"/>
<text text-anchor="middle" x="288" y="-324.5" font-family="Helvetica,sans-Serif" font-size="10.00" fill="#000000"> result_code</text>
</g>
<!-- Node9 -->
<g id="node8" class="node">
<title>Node9</title>
<polygon fill="#ffffff" stroke="#bfbfbf" points="220.5,-134.5 220.5,-164.5 339.5,-164.5 339.5,-134.5 220.5,-134.5"/>
<text text-anchor="start" x="228.5" y="-152.5" font-family="Helvetica,sans-Serif" font-size="10.00" fill="#000000">std::vector&lt; result</text>
<text text-anchor="middle" x="280" y="-141.5" font-family="Helvetica,sans-Serif" font-size="10.00" fill="#000000">::Install::EcuReport &gt;</text>
</g>
<!-- Node9&#45;&gt;Node6 -->
<g id="edge10" class="edge">
<title>Node9&#45;&gt;Node6</title>
<path fill="none" stroke="#9a32cd" stroke-dasharray="5,2" d="M246.9208,-129.1759C224.3051,-115.2807 195.3475,-97.4889 177.7591,-86.6825"/>
<polygon fill="#9a32cd" stroke="#9a32cd" points="245.1978,-132.2251 255.5503,-134.478 248.8623,-126.2609 245.1978,-132.2251"/>
<text text-anchor="middle" x="255.5" y="-108" font-family="Helvetica,sans-Serif" font-size="10.00" fill="#000000"> ecu_reports</text>
</g>
<!-- Node10&#45;&gt;Node9 -->
<g id="edge11" class="edge">
<title>Node10&#45;&gt;Node9</title>
<path fill="none" stroke="#9a32cd" stroke-dasharray="5,2" d="M282.8975,-202.0177C282.2464,-190.2164 281.4352,-175.513 280.8369,-164.668"/>
<polygon fill="#9a32cd" stroke="#9a32cd" points="279.4149,-202.4304 283.4605,-212.2223 286.4042,-202.0447 279.4149,-202.4304"/>
<text text-anchor="middle" x="306.5" y="-186" font-family="Helvetica,sans-Serif" font-size="10.00" fill="#000000"> elements</text>
</g>
<!-- Node11 -->
<g id="node10" class="node">
<title>Node11</title>
<g id="a_node10"><a xlink:href="class_uptane_1_1_ecu_serial.html" target="_top" xlink:title="Uptane::EcuSerial">
<polygon fill="#ffffff" stroke="#000000" points="292.5,-279.5 292.5,-298.5 395.5,-298.5 395.5,-279.5 292.5,-279.5"/>
<text text-anchor="middle" x="344" y="-286.5" font-family="Helvetica,sans-Serif" font-size="10.00" fill="#000000">Uptane::EcuSerial</text>
</a>
</g>
</g>
<!-- Node11&#45;&gt;Node10 -->
<g id="edge13" class="edge">
<title>Node11&#45;&gt;Node10</title>
<path fill="none" stroke="#9a32cd" stroke-dasharray="5,2" d="M328.5206,-271.7147C317.0815,-258.941 301.9305,-242.0224 292.5806,-231.5817"/>
<polygon fill="#9a32cd" stroke="#9a32cd" points="326.1249,-274.2859 335.4035,-279.4005 331.3396,-269.6161 326.1249,-274.2859"/>
<text text-anchor="middle" x="332.5" y="-253" font-family="Helvetica,sans-Serif" font-size="10.00" fill="#000000"> serial</text>
</g>
</g>
</svg>
        <g id="navigator" transform="translate(0 0)" fill="#404254">
                <rect fill="#f2f5e9" fill-opacity="0.5" stroke="#606060" stroke-width=".5" x="0" y="0" width="60" height="60"/>
                <use id="zoomplus" xlink:href="#zoomPlus" x="17" y="9" onmousedown="handleZoom(evt,'in')"/>
                <use id="zoomminus" xlink:href="#zoomMin" x="42" y="9" onmousedown="handleZoom(evt,'out')"/>
                <use id="reset" xlink:href="#resetDef" x="30" y="36" onmousedown="handleReset()"/>
                <g id="arrowUp" xlink:href="#dirArrow" transform="translate(30 24)" onmousedown="handlePan(0,-1)">
                  <use xlink:href="#rim" fill="#404040">
                        <set attributeName="fill" to="#808080" begin="arrowUp.mouseover" end="arrowUp.mouseout"/>
                  </use>
                  <path fill="none" stroke="white" stroke-width="1.5" d="M0,-3.0v7 M-2.5,-0.5L0,-3.0L2.5,-0.5"/>
                </g>
                <g id="arrowRight" xlink:href="#dirArrow" transform="rotate(90) translate(36 -43)" onmousedown="handlePan(1,0)">
                  <use xlink:href="#rim" fill="#404040">
                        <set attributeName="fill" to="#808080" begin="arrowRight.mouseover" end="arrowRight.mouseout"/>
                  </use>
                  <path fill="none" stroke="white" stroke-width="1.5" d="M0,-3.0v7 M-2.5,-0.5L0,-3.0L2.5,-0.5"/>
                </g>
                <g id="arrowDown" xlink:href="#dirArrow" transform="rotate(180) translate(-30 -48)" onmousedown="handlePan(0,1)">
                  <use xlink:href="#rim" fill="#404040">
                        <set attributeName="fill" to="#808080" begin="arrowDown.mouseover" end="arrowDown.mouseout"/>
                  </use>
                  <path fill="none" stroke="white" stroke-width="1.5" d="M0,-3.0v7 M-2.5,-0.5L0,-3.0L2.5,-0.5"/>
                </g>
                <g id="arrowLeft" xlink:href="#dirArrow" transform="rotate(270) translate(-36 17)" onmousedown="handlePan(-1,0)">
                  <use xlink:href="#rim" fill="#404040">
                        <set attributeName="fill" to="#808080" begin="arrowLeft.mouseover" end="arrowLeft.mouseout"/>
                  </use>
                  <path fill="none" stroke="white" stroke-width="1.5" d="M0,-3.0v7 M-2.5,-0.5L0,-3.0L2.5,-0.5"/>
                </g>
        </g>
        <svg viewBox="0 0 15 15" width="100%" height="30px" preserveAspectRatio="xMaxYMin meet">
         <g id="arrow_out" transform="scale(0.3 0.3)">
          <a xlink:href="classevent_1_1_all_installs_complete__coll__graph_org.svg" target="_base">
           <rect id="button" ry="5" rx="5" y="6" x="6" height="38" width="38"
                fill="#f2f5e9" fill-opacity="0.5" stroke="#606060" stroke-width="1.0"/>
           <path id="arrow"
             d="M 11.500037,31.436501 C 11.940474,20.09759 22.043105,11.32322 32.158766,21.979434 L 37.068811,17.246167 C 37.068811,17.246167 37.088388,32 37.088388,32 L 22.160133,31.978069 C 22.160133,31.978069 26.997745,27.140456 26.997745,27.140456 C 18.528582,18.264221 13.291696,25.230495 11.500037,31.436501 z"
             style="fill:#404040;"/>
          </a>
         </g>
        </svg>
</svg>
