<?xml version="1.0" encoding="UTF-8" standalone="no"?>
<!DOCTYPE svg PUBLIC "-//W3C//DTD SVG 1.1//EN"
 "http://www.w3.org/Graphics/SVG/1.1/DTD/svg11.dtd">
<!-- Generated by graphviz version 2.40.1 (20161225.0304)
 -->
<!-- Title: SecondaryInterfaceMock Pages: 1 -->
<svg width="370pt" height="342pt"
 viewBox="0.00 0.00 369.50 342.00" xmlns="http://www.w3.org/2000/svg" xmlns:xlink="http://www.w3.org/1999/xlink">
<g id="graph0" class="graph" transform="scale(1 1) rotate(0) translate(4 338)">
<title>SecondaryInterfaceMock</title>
<polygon fill="#ffffff" stroke="transparent" points="-4,4 -4,-338 365.5,-338 365.5,4 -4,4"/>
<!-- Node2 -->
<g id="node1" class="node">
<title>Node2</title>
<polygon fill="#bfbfbf" stroke="#000000" points="132,-.5 132,-19.5 269,-19.5 269,-.5 132,-.5"/>
<text text-anchor="middle" x="200.5" y="-7.5" font-family="Helvetica,sans-Serif" font-size="10.00" fill="#000000">SecondaryInterfaceMock</text>
</g>
<!-- Node3 -->
<g id="node2" class="node">
<title>Node3</title>
<g id="a_node2"><a xlink:href="class_secondary_interface.html" target="_top" xlink:title="SecondaryInterface">
<polygon fill="#ffffff" stroke="#000000" points="0,-73 0,-92 111,-92 111,-73 0,-73"/>
<text text-anchor="middle" x="55.5" y="-80" font-family="Helvetica,sans-Serif" font-size="10.00" fill="#000000">SecondaryInterface</text>
</a>
</g>
</g>
<!-- Node3&#45;&gt;Node2 -->
<g id="edge1" class="edge">
<title>Node3&#45;&gt;Node2</title>
<path fill="none" stroke="#191970" d="M83.8732,-68.3134C112.5887,-53.9557 156.2091,-32.1454 181.1655,-19.6673"/>
<polygon fill="#191970" stroke="#191970" points="82.1339,-65.2699 74.7549,-72.8726 85.2644,-71.5309 82.1339,-65.2699"/>
</g>
<!-- Node4 -->
<g id="node3" class="node">
<title>Node4</title>
<g id="a_node3"><a xlink:href="class_primary_1_1_virtual_secondary_config.html" target="_top" xlink:title="Primary::VirtualSecondary\lConfig">
<polygon fill="#ffffff" stroke="#000000" points="129,-67.5 129,-97.5 272,-97.5 272,-67.5 129,-67.5"/>
<text text-anchor="start" x="137" y="-85.5" font-family="Helvetica,sans-Serif" font-size="10.00" fill="#000000">Primary::VirtualSecondary</text>
<text text-anchor="middle" x="200.5" y="-74.5" font-family="Helvetica,sans-Serif" font-size="10.00" fill="#000000">Config</text>
</a>
</g>
</g>
<!-- Node4&#45;&gt;Node2 -->
<g id="edge2" class="edge">
<title>Node4&#45;&gt;Node2</title>
<path fill="none" stroke="#9a32cd" stroke-dasharray="5,2" d="M200.5,-57.305C200.5,-44.424 200.5,-29.4836 200.5,-19.8957"/>
<polygon fill="#9a32cd" stroke="#9a32cd" points="197.0001,-57.4779 200.5,-67.478 204.0001,-57.478 197.0001,-57.4779"/>
<text text-anchor="middle" x="219.5" y="-41" font-family="Helvetica,sans-Serif" font-size="10.00" fill="#000000"> sconfig</text>
</g>
<!-- Node5 -->
<g id="node4" class="node">
<title>Node5</title>
<g id="a_node4"><a xlink:href="class_primary_1_1_managed_secondary_config.html" target="_top" xlink:title="Primary::ManagedSecondary\lConfig">
<polygon fill="#ffffff" stroke="#000000" points="123,-135.5 123,-165.5 278,-165.5 278,-135.5 123,-135.5"/>
<text text-anchor="start" x="131" y="-153.5" font-family="Helvetica,sans-Serif" font-size="10.00" fill="#000000">Primary::ManagedSecondary</text>
<text text-anchor="middle" x="200.5" y="-142.5" font-family="Helvetica,sans-Serif" font-size="10.00" fill="#000000">Config</text>
</a>
</g>
</g>
<!-- Node5&#45;&gt;Node4 -->
<g id="edge3" class="edge">
<title>Node5&#45;&gt;Node4</title>
<path fill="none" stroke="#191970" d="M200.5,-125.1174C200.5,-115.8378 200.5,-105.6413 200.5,-97.5492"/>
<polygon fill="#191970" stroke="#191970" points="197.0001,-125.4086 200.5,-135.4086 204.0001,-125.4086 197.0001,-125.4086"/>
</g>
<!-- Node6 -->
<g id="node5" class="node">
<title>Node6</title>
<g id="a_node5"><a xlink:href="class_primary_1_1_secondary_config.html" target="_top" xlink:title="Primary::SecondaryConfig">
<polygon fill="#ffffff" stroke="#000000" points="113.5,-246.5 113.5,-265.5 255.5,-265.5 255.5,-246.5 113.5,-246.5"/>
<text text-anchor="middle" x="184.5" y="-253.5" font-family="Helvetica,sans-Serif" font-size="10.00" fill="#000000">Primary::SecondaryConfig</text>
</a>
</g>
</g>
<!-- Node6&#45;&gt;Node5 -->
<g id="edge4" class="edge">
<title>Node6&#45;&gt;Node5</title>
<path fill="none" stroke="#191970" d="M187.5079,-236.1669C190.616,-215.6729 195.3986,-184.1372 198.2118,-165.5875"/>
<polygon fill="#191970" stroke="#191970" points="184.0157,-235.8521 185.9766,-246.2639 190.9365,-236.9018 184.0157,-235.8521"/>
</g>
<!-- Node7 -->
<g id="node6" class="node">
<title>Node7</title>
<g id="a_node6"><a xlink:title="STL class. ">
<polygon fill="#ffffff" stroke="#bfbfbf" points="274,-246.5 274,-265.5 339,-265.5 339,-246.5 274,-246.5"/>
<text text-anchor="middle" x="306.5" y="-253.5" font-family="Helvetica,sans-Serif" font-size="10.00" fill="#000000">std::string</text>
</a>
</g>
</g>
<!-- Node7&#45;&gt;Node5 -->
<g id="edge5" class="edge">
<title>Node7&#45;&gt;Node5</title>
<path fill="none" stroke="#9a32cd" stroke-dasharray="5,2" d="M289.6293,-239.2089C269.2428,-218.9185 235.2458,-185.0819 215.659,-165.5875"/>
<polygon fill="#9a32cd" stroke="#9a32cd" points="287.161,-241.6903 296.7178,-246.2639 292.099,-236.7288 287.161,-241.6903"/>
<text text-anchor="middle" x="319.5" y="-220" font-family="Helvetica,sans-Serif" font-size="10.00" fill="#000000"> ecu_private_key</text>
<text text-anchor="middle" x="319.5" y="-209" font-family="Helvetica,sans-Serif" font-size="10.00" fill="#000000">ecu_hardware_id</text>
<text text-anchor="middle" x="319.5" y="-198" font-family="Helvetica,sans-Serif" font-size="10.00" fill="#000000">ecu_serial</text>
<text text-anchor="middle" x="319.5" y="-187" font-family="Helvetica,sans-Serif" font-size="10.00" fill="#000000">ecu_public_key</text>
</g>
<!-- Node8 -->
<g id="node7" class="node">
<title>Node8</title>
<g id="a_node7"><a xlink:title="STL class. ">
<polygon fill="#ffffff" stroke="#bfbfbf" points="254.5,-303.5 254.5,-333.5 358.5,-333.5 358.5,-303.5 254.5,-303.5"/>
<text text-anchor="start" x="262.5" y="-321.5" font-family="Helvetica,sans-Serif" font-size="10.00" fill="#000000">std::basic_string&lt;</text>
<text text-anchor="middle" x="306.5" y="-310.5" font-family="Helvetica,sans-Serif" font-size="10.00" fill="#000000"> char &gt;</text>
</a>
</g>
</g>
<!-- Node8&#45;&gt;Node7 -->
<g id="edge6" class="edge">
<title>Node8&#45;&gt;Node7</title>
<path fill="none" stroke="#191970" d="M306.5,-293.3498C306.5,-283.6481 306.5,-273.1303 306.5,-265.7356"/>
<polygon fill="#191970" stroke="#191970" points="303.0001,-293.3705 306.5,-303.3705 310.0001,-293.3705 303.0001,-293.3705"/>
</g>
<!-- Node9 -->
<g id="node8" class="node">
<title>Node9</title>
<g id="a_node8"><a xlink:href="class_public_key.html" target="_top" xlink:title="PublicKey">
<polygon fill="#ffffff" stroke="#000000" points="290.5,-73 290.5,-92 354.5,-92 354.5,-73 290.5,-73"/>
<text text-anchor="middle" x="322.5" y="-80" font-family="Helvetica,sans-Serif" font-size="10.00" fill="#000000">PublicKey</text>
</a>
</g>
</g>
<!-- Node9&#45;&gt;Node2 -->
<g id="edge7" class="edge">
<title>Node9&#45;&gt;Node2</title>
<path fill="none" stroke="#9a32cd" stroke-dasharray="5,2" d="M297.6756,-67.7478C273.512,-53.3883 237.4915,-31.9827 216.7677,-19.6673"/>
<polygon fill="#9a32cd" stroke="#9a32cd" points="295.9147,-70.7727 306.2993,-72.8726 299.4908,-64.755 295.9147,-70.7727"/>
<text text-anchor="middle" x="295" y="-41" font-family="Helvetica,sans-Serif" font-size="10.00" fill="#000000"> public_key_</text>
</g>
</g>
</svg>
