<?xml version="1.0" encoding="UTF-8" standalone="no"?>
<!DOCTYPE svg PUBLIC "-//W3C//DTD SVG 1.1//EN"
 "http://www.w3.org/Graphics/SVG/1.1/DTD/svg11.dtd">
<!-- Generated by graphviz version 2.40.1 (20161225.0304)
 -->
<!-- Title: Primary::ManagedSecondary Pages: 1 -->
<svg width="398pt" height="274pt"
 viewBox="0.00 0.00 397.50 274.00" xmlns="http://www.w3.org/2000/svg" xmlns:xlink="http://www.w3.org/1999/xlink">
<g id="graph0" class="graph" transform="scale(1 1) rotate(0) translate(4 270)">
<title>Primary::ManagedSecondary</title>
<polygon fill="#ffffff" stroke="transparent" points="-4,4 -4,-270 393.5,-270 393.5,4 -4,4"/>
<!-- Node3 -->
<g id="node1" class="node">
<title>Node3</title>
<polygon fill="#bfbfbf" stroke="#000000" points="129,-.5 129,-19.5 284,-19.5 284,-.5 129,-.5"/>
<text text-anchor="middle" x="206.5" y="-7.5" font-family="Helvetica,sans-Serif" font-size="10.00" fill="#000000">Primary::ManagedSecondary</text>
</g>
<!-- Node4 -->
<g id="node2" class="node">
<title>Node4</title>
<g id="a_node2"><a xlink:href="class_secondary_interface.html" target="_top" xlink:title="SecondaryInterface">
<polygon fill="#ffffff" stroke="#000000" points="0,-73 0,-92 111,-92 111,-73 0,-73"/>
<text text-anchor="middle" x="55.5" y="-80" font-family="Helvetica,sans-Serif" font-size="10.00" fill="#000000">SecondaryInterface</text>
</a>
</g>
</g>
<!-- Node4&#45;&gt;Node3 -->
<g id="edge1" class="edge">
<title>Node4&#45;&gt;Node3</title>
<path fill="none" stroke="#191970" d="M84.6581,-68.5002C114.5556,-54.1455 160.2634,-32.1997 186.3654,-19.6673"/>
<polygon fill="#191970" stroke="#191970" points="83.0515,-65.3891 75.5516,-72.8726 86.0813,-71.6994 83.0515,-65.3891"/>
</g>
<!-- Node5 -->
<g id="node3" class="node">
<title>Node5</title>
<g id="a_node3"><a xlink:href="class_primary_1_1_managed_secondary_config.html" target="_top" xlink:title="Primary::ManagedSecondary\lConfig">
<polygon fill="#ffffff" stroke="#000000" points="129,-67.5 129,-97.5 284,-97.5 284,-67.5 129,-67.5"/>
<text text-anchor="start" x="137" y="-85.5" font-family="Helvetica,sans-Serif" font-size="10.00" fill="#000000">Primary::ManagedSecondary</text>
<text text-anchor="middle" x="206.5" y="-74.5" font-family="Helvetica,sans-Serif" font-size="10.00" fill="#000000">Config</text>
</a>
</g>
</g>
<!-- Node5&#45;&gt;Node3 -->
<g id="edge2" class="edge">
<title>Node5&#45;&gt;Node3</title>
<path fill="none" stroke="#9a32cd" stroke-dasharray="5,2" d="M206.5,-57.305C206.5,-44.424 206.5,-29.4836 206.5,-19.8957"/>
<polygon fill="#9a32cd" stroke="#9a32cd" points="203.0001,-57.4779 206.5,-67.478 210.0001,-57.478 203.0001,-57.4779"/>
<text text-anchor="middle" x="225.5" y="-41" font-family="Helvetica,sans-Serif" font-size="10.00" fill="#000000"> sconfig</text>
</g>
<!-- Node6 -->
<g id="node4" class="node">
<title>Node6</title>
<g id="a_node4"><a xlink:href="class_primary_1_1_secondary_config.html" target="_top" xlink:title="Primary::SecondaryConfig">
<polygon fill="#ffffff" stroke="#000000" points="117.5,-178.5 117.5,-197.5 259.5,-197.5 259.5,-178.5 117.5,-178.5"/>
<text text-anchor="middle" x="188.5" y="-185.5" font-family="Helvetica,sans-Serif" font-size="10.00" fill="#000000">Primary::SecondaryConfig</text>
</a>
</g>
</g>
<!-- Node6&#45;&gt;Node5 -->
<g id="edge3" class="edge">
<title>Node6&#45;&gt;Node5</title>
<path fill="none" stroke="#191970" d="M191.8838,-168.1669C195.3805,-147.6729 200.7609,-116.1372 203.9258,-97.5875"/>
<polygon fill="#191970" stroke="#191970" points="188.3929,-167.8177 190.1611,-178.2639 195.2932,-168.995 188.3929,-167.8177"/>
</g>
<!-- Node7 -->
<g id="node5" class="node">
<title>Node7</title>
<g id="a_node5"><a xlink:title="STL class. ">
<polygon fill="#ffffff" stroke="#bfbfbf" points="283,-178.5 283,-197.5 348,-197.5 348,-178.5 283,-178.5"/>
<text text-anchor="middle" x="315.5" y="-185.5" font-family="Helvetica,sans-Serif" font-size="10.00" fill="#000000">std::string</text>
</a>
</g>
</g>
<!-- Node7&#45;&gt;Node3 -->
<g id="edge6" class="edge">
<title>Node7&#45;&gt;Node3</title>
<path fill="none" stroke="#9a32cd" stroke-dasharray="5,2" d="M316.8517,-168.4646C317.6187,-142.7643 315.3752,-97.3157 293.5,-67 277.4395,-44.7425 249.7799,-28.8211 229.9571,-19.5582"/>
<polygon fill="#9a32cd" stroke="#9a32cd" points="313.3554,-168.306 316.3673,-178.4637 320.3472,-168.6448 313.3554,-168.306"/>
<text text-anchor="middle" x="348.5" y="-80" font-family="Helvetica,sans-Serif" font-size="10.00" fill="#000000"> detected_attack</text>
</g>
<!-- Node7&#45;&gt;Node5 -->
<g id="edge4" class="edge">
<title>Node7&#45;&gt;Node5</title>
<path fill="none" stroke="#9a32cd" stroke-dasharray="5,2" d="M272.8975,-177.2985C250.2077,-171.2257 226.2056,-164.0504 222.5,-160 206.9203,-142.9707 204.8983,-114.9159 205.3492,-97.6404"/>
<polygon fill="#9a32cd" stroke="#9a32cd" points="272.2528,-180.7479 282.8143,-179.9084 274.0344,-173.9784 272.2528,-180.7479"/>
<text text-anchor="middle" x="264.5" y="-152" font-family="Helvetica,sans-Serif" font-size="10.00" fill="#000000"> ecu_private_key</text>
<text text-anchor="middle" x="264.5" y="-141" font-family="Helvetica,sans-Serif" font-size="10.00" fill="#000000">ecu_hardware_id</text>
<text text-anchor="middle" x="264.5" y="-130" font-family="Helvetica,sans-Serif" font-size="10.00" fill="#000000">ecu_serial</text>
<text text-anchor="middle" x="264.5" y="-119" font-family="Helvetica,sans-Serif" font-size="10.00" fill="#000000">ecu_public_key</text>
</g>
<!-- Node8 -->
<g id="node6" class="node">
<title>Node8</title>
<g id="a_node6"><a xlink:title="STL class. ">
<polygon fill="#ffffff" stroke="#bfbfbf" points="263.5,-235.5 263.5,-265.5 367.5,-265.5 367.5,-235.5 263.5,-235.5"/>
<text text-anchor="start" x="271.5" y="-253.5" font-family="Helvetica,sans-Serif" font-size="10.00" fill="#000000">std::basic_string&lt;</text>
<text text-anchor="middle" x="315.5" y="-242.5" font-family="Helvetica,sans-Serif" font-size="10.00" fill="#000000"> char &gt;</text>
</a>
</g>
</g>
<!-- Node8&#45;&gt;Node7 -->
<g id="edge5" class="edge">
<title>Node8&#45;&gt;Node7</title>
<path fill="none" stroke="#191970" d="M315.5,-225.3498C315.5,-215.6481 315.5,-205.1303 315.5,-197.7356"/>
<polygon fill="#191970" stroke="#191970" points="312.0001,-225.3705 315.5,-235.3705 319.0001,-225.3705 312.0001,-225.3705"/>
</g>
</g>
</svg>
