<?xml version="1.0" encoding="UTF-8" standalone="no"?>
<!DOCTYPE svg PUBLIC "-//W3C//DTD SVG 1.1//EN"
 "http://www.w3.org/Graphics/SVG/1.1/DTD/svg11.dtd">
<!-- Generated by graphviz version 2.43.0 (0)
 -->
<!-- Title: Uptane::MetaWithKeys Pages: 1 -->
<!--zoomable 180 -->
<svg id="main" version="1.1" xmlns="http://www.w3.org/2000/svg" xmlns:xlink="http://www.w3.org/1999/xlink" xml:space="preserve" onload="init(evt)">
<style type="text/css"><![CDATA[
.edge:hover path { stroke: red; }
.edge:hover polygon { stroke: red; fill: red; }
]]></style>
<script type="text/javascript"><![CDATA[
var edges = document.getElementsByTagName('g');
if (edges && edges.length) {
  for (var i=0;i<edges.length;i++) {
    if (edges[i].id.substr(0,4)=='edge') {
      edges[i].setAttribute('class','edge');
    }
  }
}
]]></script>
        <defs>
                <circle id="rim" cx="0" cy="0" r="7"/>
                <circle id="rim2" cx="0" cy="0" r="3.5"/>
                <g id="zoomPlus">
                        <use xlink:href="#rim" fill="#404040">
                                <set attributeName="fill" to="#808080" begin="zoomplus.mouseover" end="zoomplus.mouseout"/>
                        </use>
                        <path d="M-4,0h8M0,-4v8" fill="none" stroke="white" stroke-width="1.5" pointer-events="none"/>
                </g>
                <g id="zoomMin">
                        <use xlink:href="#rim" fill="#404040">
                                <set attributeName="fill" to="#808080" begin="zoomminus.mouseover" end="zoomminus.mouseout"/>
                        </use>
                        <path d="M-4,0h8" fill="none" stroke="white" stroke-width="1.5" pointer-events="none"/>
                </g>
                <g id="dirArrow">
                        <path fill="none" stroke="white" stroke-width="1.5" d="M0,-3.0v7 M-2.5,-0.5L0,-3.0L2.5,-0.5"/>
                </g>
               <g id="resetDef">
                       <use xlink:href="#rim2" fill="#404040">
                               <set attributeName="fill" to="#808080" begin="reset.mouseover" end="reset.mouseout"/>
                       </use>
               </g>
        </defs>

<script type="text/javascript">
var viewWidth = 959;
var viewHeight = 180;
var sectionId = 'dynsection-1';
</script>
<script xlink:href="svgpan.js"/>
<svg id="graph" class="graph">
<g id="viewport">
<title>Uptane::MetaWithKeys</title>
<polygon fill="white" stroke="transparent" points="-4,4 -4,-176.28 955,-176.28 955,4 -4,4"/>
<!-- Node1 -->
<g id="node1" class="node">
<title>Node1</title>
<g id="a_node1"><a xlink:title=" ">
<polygon fill="#bfbfbf" stroke="black" points="823,-84.78 823,-103.78 951,-103.78 951,-84.78 823,-84.78"/>
<text text-anchor="middle" x="887" y="-91.78" font-family="Helvetica,sans-Serif" font-size="10.00">Uptane::MetaWithKeys</text>
</a>
</g>
</g>
<!-- Node2 -->
<g id="node2" class="node">
<title>Node2</title>
<g id="a_node2"><a xlink:href="class_uptane_1_1_base_meta.html" target="_top" xlink:title=" ">
<polygon fill="white" stroke="black" points="557.5,-151.78 557.5,-170.78 664.5,-170.78 664.5,-151.78 557.5,-151.78"/>
<text text-anchor="middle" x="611" y="-158.78" font-family="Helvetica,sans-Serif" font-size="10.00">Uptane::BaseMeta</text>
</a>
</g>
</g>
<!-- Node2&#45;&gt;Node1 -->
<g id="edge1" class="edge">
<title>Node2&#45;&gt;Node1</title>
<path fill="none" stroke="midnightblue" d="M674.43,-151.42C712.49,-144.82 761.94,-135.15 805,-123.28 824.58,-117.88 846.22,-110.03 862.2,-103.86"/>
<polygon fill="midnightblue" stroke="midnightblue" points="673.77,-147.99 664.51,-153.12 674.96,-154.88 673.77,-147.99"/>
</g>
<!-- Node3 -->
<g id="node3" class="node">
<title>Node3</title>
<g id="a_node3"><a xlink:href="class_time_stamp.html" target="_top" xlink:title=" ">
<polygon fill="white" stroke="black" points="344.5,-151.78 344.5,-170.78 417.5,-170.78 417.5,-151.78 344.5,-151.78"/>
<text text-anchor="middle" x="381" y="-158.78" font-family="Helvetica,sans-Serif" font-size="10.00">TimeStamp</text>
</a>
</g>
</g>
<!-- Node3&#45;&gt;Node2 -->
<g id="edge2" class="edge">
<title>Node3&#45;&gt;Node2</title>
<path fill="none" stroke="#9a32cd" stroke-dasharray="5,2" d="M427.74,-161.28C465.15,-161.28 518.07,-161.28 557.26,-161.28"/>
<polygon fill="#9a32cd" stroke="#9a32cd" points="427.63,-157.78 417.62,-161.28 427.62,-164.78 427.63,-157.78"/>
<text text-anchor="middle" x="500" y="-164.28" font-family="Helvetica,sans-Serif" font-size="10.00"> expiry_</text>
</g>
<!-- Node4 -->
<g id="node4" class="node">
<title>Node4</title>
<g id="a_node4"><a xlink:title=" ">
<polygon fill="white" stroke="#bfbfbf" points="538,-102.28 538,-132.28 684,-132.28 684,-102.28 538,-102.28"/>
<text text-anchor="start" x="546" y="-120.28" font-family="Helvetica,sans-Serif" font-size="10.00">std::set&lt; std::pair</text>
<text text-anchor="middle" x="611" y="-109.28" font-family="Helvetica,sans-Serif" font-size="10.00">&lt; Uptane::Role, KeyId &gt; &gt;</text>
</a>
</g>
</g>
<!-- Node4&#45;&gt;Node1 -->
<g id="edge3" class="edge">
<title>Node4&#45;&gt;Node1</title>
<path fill="none" stroke="#9a32cd" stroke-dasharray="5,2" d="M694.35,-110.37C735.47,-106.91 784.44,-102.8 822.59,-99.6"/>
<polygon fill="#9a32cd" stroke="#9a32cd" points="694.02,-106.88 684.35,-111.2 694.61,-113.86 694.02,-106.88"/>
<text text-anchor="middle" x="753.5" y="-111.28" font-family="Helvetica,sans-Serif" font-size="10.00"> keys_for_role_</text>
</g>
<!-- Node5 -->
<g id="node5" class="node">
<title>Node5</title>
<g id="a_node5"><a xlink:title=" ">
<polygon fill="white" stroke="#bfbfbf" points="300,-63.78 300,-82.78 462,-82.78 462,-63.78 300,-63.78"/>
<text text-anchor="middle" x="381" y="-70.78" font-family="Helvetica,sans-Serif" font-size="10.00">std::map&lt; KeyId, PublicKey &gt;</text>
</a>
</g>
</g>
<!-- Node5&#45;&gt;Node1 -->
<g id="edge4" class="edge">
<title>Node5&#45;&gt;Node1</title>
<path fill="none" stroke="#9a32cd" stroke-dasharray="5,2" d="M472.35,-75.27C532.37,-76.77 612.92,-79.11 684,-82.28 730.5,-84.35 782.98,-87.49 822.79,-90.04"/>
<polygon fill="#9a32cd" stroke="#9a32cd" points="472.22,-71.77 462.14,-75.02 472.05,-78.77 472.22,-71.77"/>
<text text-anchor="middle" x="611" y="-85.28" font-family="Helvetica,sans-Serif" font-size="10.00"> keys_</text>
</g>
<!-- Node6 -->
<g id="node6" class="node">
<title>Node6</title>
<g id="a_node6"><a xlink:href="class_public_key.html" target="_top" xlink:title=" ">
<polygon fill="white" stroke="black" points="141.5,-97.78 141.5,-116.78 205.5,-116.78 205.5,-97.78 141.5,-97.78"/>
<text text-anchor="middle" x="173.5" y="-104.78" font-family="Helvetica,sans-Serif" font-size="10.00">PublicKey</text>
</a>
</g>
</g>
<!-- Node6&#45;&gt;Node5 -->
<g id="edge5" class="edge">
<title>Node6&#45;&gt;Node5</title>
<path fill="none" stroke="#9a32cd" stroke-dasharray="5,2" d="M215.62,-100.47C246.23,-95.41 288.42,-88.43 322.39,-82.81"/>
<polygon fill="#9a32cd" stroke="#9a32cd" points="215.01,-97.03 205.71,-102.11 216.15,-103.93 215.01,-97.03"/>
<text text-anchor="middle" x="253" y="-101.28" font-family="Helvetica,sans-Serif" font-size="10.00"> elements</text>
</g>
<!-- Node7 -->
<g id="node7" class="node">
<title>Node7</title>
<g id="a_node7"><a xlink:title="STL class.">
<polygon fill="white" stroke="#bfbfbf" points="141,-28.78 141,-47.78 206,-47.78 206,-28.78 141,-28.78"/>
<text text-anchor="middle" x="173.5" y="-35.78" font-family="Helvetica,sans-Serif" font-size="10.00">std::string</text>
</a>
</g>
</g>
<!-- Node7&#45;&gt;Node5 -->
<g id="edge6" class="edge">
<title>Node7&#45;&gt;Node5</title>
<path fill="none" stroke="#9a32cd" stroke-dasharray="5,2" d="M215.91,-49.53C218.64,-50.16 221.36,-50.75 224,-51.28 248.54,-56.21 275.46,-60.43 299.93,-63.81"/>
<polygon fill="#9a32cd" stroke="#9a32cd" points="216.6,-46.1 206.06,-47.15 214.96,-52.9 216.6,-46.1"/>
<text text-anchor="middle" x="253" y="-64.28" font-family="Helvetica,sans-Serif" font-size="10.00"> keys</text>
</g>
<!-- Node10 -->
<g id="node10" class="node">
<title>Node10</title>
<g id="a_node10"><a xlink:href="class_uptane_1_1_role.html" target="_top" xlink:title="TUF Roles.">
<polygon fill="white" stroke="black" points="341,-3.78 341,-22.78 421,-22.78 421,-3.78 341,-3.78"/>
<text text-anchor="middle" x="381" y="-10.78" font-family="Helvetica,sans-Serif" font-size="10.00">Uptane::Role</text>
</a>
</g>
</g>
<!-- Node7&#45;&gt;Node10 -->
<g id="edge10" class="edge">
<title>Node7&#45;&gt;Node10</title>
<path fill="none" stroke="#9a32cd" stroke-dasharray="5,2" d="M194.01,-22.51C202.66,-16.5 213.29,-10.35 224,-7.28 262.55,3.8 308.67,0.06 340.72,-5.06"/>
<polygon fill="#9a32cd" stroke="#9a32cd" points="191.75,-19.83 185.8,-28.59 195.91,-25.46 191.75,-19.83"/>
<text text-anchor="middle" x="253" y="-43.28" font-family="Helvetica,sans-Serif" font-size="10.00"> ROOT</text>
<text text-anchor="middle" x="253" y="-32.28" font-family="Helvetica,sans-Serif" font-size="10.00">TIMESTAMP</text>
<text text-anchor="middle" x="253" y="-21.28" font-family="Helvetica,sans-Serif" font-size="10.00">SNAPSHOT</text>
<text text-anchor="middle" x="253" y="-10.28" font-family="Helvetica,sans-Serif" font-size="10.00">TARGETS</text>
</g>
<!-- Node8 -->
<g id="node8" class="node">
<title>Node8</title>
<g id="a_node8"><a xlink:title="STL class.">
<polygon fill="white" stroke="#bfbfbf" points="0,-23.28 0,-53.28 104,-53.28 104,-23.28 0,-23.28"/>
<text text-anchor="start" x="8" y="-41.28" font-family="Helvetica,sans-Serif" font-size="10.00">std::basic_string&lt;</text>
<text text-anchor="middle" x="52" y="-30.28" font-family="Helvetica,sans-Serif" font-size="10.00"> char &gt;</text>
</a>
</g>
</g>
<!-- Node8&#45;&gt;Node7 -->
<g id="edge7" class="edge">
<title>Node8&#45;&gt;Node7</title>
<path fill="none" stroke="midnightblue" d="M114.1,-38.28C123.41,-38.28 132.68,-38.28 141,-38.28"/>
<polygon fill="midnightblue" stroke="midnightblue" points="114.03,-34.78 104.03,-38.28 114.03,-41.78 114.03,-34.78"/>
</g>
<!-- Node9 -->
<g id="node9" class="node">
<title>Node9</title>
<g id="a_node9"><a xlink:title=" ">
<polygon fill="white" stroke="#bfbfbf" points="542.5,-4.28 542.5,-34.28 679.5,-34.28 679.5,-4.28 542.5,-4.28"/>
<text text-anchor="start" x="550.5" y="-22.28" font-family="Helvetica,sans-Serif" font-size="10.00">std::map&lt; Uptane::Role,</text>
<text text-anchor="middle" x="611" y="-11.28" font-family="Helvetica,sans-Serif" font-size="10.00"> int64_t &gt;</text>
</a>
</g>
</g>
<!-- Node9&#45;&gt;Node1 -->
<g id="edge8" class="edge">
<title>Node9&#45;&gt;Node1</title>
<path fill="none" stroke="#9a32cd" stroke-dasharray="5,2" d="M689.98,-23.79C725.78,-27.57 768.33,-34.52 805,-47.28 830.8,-56.26 857.62,-73.69 873.01,-84.62"/>
<polygon fill="#9a32cd" stroke="#9a32cd" points="689.89,-20.26 679.59,-22.76 689.2,-27.23 689.89,-20.26"/>
<text text-anchor="middle" x="753.5" y="-50.28" font-family="Helvetica,sans-Serif" font-size="10.00"> thresholds_for_role_</text>
</g>
<!-- Node10&#45;&gt;Node9 -->
<g id="edge9" class="edge">
<title>Node10&#45;&gt;Node9</title>
<path fill="none" stroke="#9a32cd" stroke-dasharray="5,2" d="M431.34,-14.58C463.8,-15.43 506.7,-16.56 542.32,-17.5"/>
<polygon fill="#9a32cd" stroke="#9a32cd" points="431.28,-11.07 421.19,-14.31 431.1,-18.07 431.28,-11.07"/>
<text text-anchor="middle" x="500" y="-20.28" font-family="Helvetica,sans-Serif" font-size="10.00"> keys</text>
</g>
</g>
</svg>
        <g id="navigator" transform="translate(0 0)" fill="#404254">
                <rect fill="#f2f5e9" fill-opacity="0.5" stroke="#606060" stroke-width=".5" x="0" y="0" width="60" height="60"/>
                <use id="zoomplus" xlink:href="#zoomPlus" x="17" y="9" onmousedown="handleZoom(evt,'in')"/>
                <use id="zoomminus" xlink:href="#zoomMin" x="42" y="9" onmousedown="handleZoom(evt,'out')"/>
                <use id="reset" xlink:href="#resetDef" x="30" y="36" onmousedown="handleReset()"/>
                <g id="arrowUp" xlink:href="#dirArrow" transform="translate(30 24)" onmousedown="handlePan(0,-1)">
                  <use xlink:href="#rim" fill="#404040">
                        <set attributeName="fill" to="#808080" begin="arrowUp.mouseover" end="arrowUp.mouseout"/>
                  </use>
                  <path fill="none" stroke="white" stroke-width="1.5" d="M0,-3.0v7 M-2.5,-0.5L0,-3.0L2.5,-0.5"/>
                </g>
                <g id="arrowRight" xlink:href="#dirArrow" transform="rotate(90) translate(36 -43)" onmousedown="handlePan(1,0)">
                  <use xlink:href="#rim" fill="#404040">
                        <set attributeName="fill" to="#808080" begin="arrowRight.mouseover" end="arrowRight.mouseout"/>
                  </use>
                  <path fill="none" stroke="white" stroke-width="1.5" d="M0,-3.0v7 M-2.5,-0.5L0,-3.0L2.5,-0.5"/>
                </g>
                <g id="arrowDown" xlink:href="#dirArrow" transform="rotate(180) translate(-30 -48)" onmousedown="handlePan(0,1)">
                  <use xlink:href="#rim" fill="#404040">
                        <set attributeName="fill" to="#808080" begin="arrowDown.mouseover" end="arrowDown.mouseout"/>
                  </use>
                  <path fill="none" stroke="white" stroke-width="1.5" d="M0,-3.0v7 M-2.5,-0.5L0,-3.0L2.5,-0.5"/>
                </g>
                <g id="arrowLeft" xlink:href="#dirArrow" transform="rotate(270) translate(-36 17)" onmousedown="handlePan(-1,0)">
                  <use xlink:href="#rim" fill="#404040">
                        <set attributeName="fill" to="#808080" begin="arrowLeft.mouseover" end="arrowLeft.mouseout"/>
                  </use>
                  <path fill="none" stroke="white" stroke-width="1.5" d="M0,-3.0v7 M-2.5,-0.5L0,-3.0L2.5,-0.5"/>
                </g>
        </g>
        <svg viewBox="0 0 15 15" width="100%" height="30px" preserveAspectRatio="xMaxYMin meet">
         <g id="arrow_out" transform="scale(0.3 0.3)">
          <a xlink:href="class_uptane_1_1_meta_with_keys__coll__graph_org.svg" target="_base">
           <rect id="button" ry="5" rx="5" y="6" x="6" height="38" width="38"
                fill="#f2f5e9" fill-opacity="0.5" stroke="#606060" stroke-width="1.0"/>
           <path id="arrow"
             d="M 11.500037,31.436501 C 11.940474,20.09759 22.043105,11.32322 32.158766,21.979434 L 37.068811,17.246167 C 37.068811,17.246167 37.088388,32 37.088388,32 L 22.160133,31.978069 C 22.160133,31.978069 26.997745,27.140456 26.997745,27.140456 C 18.528582,18.264221 13.291696,25.230495 11.500037,31.436501 z"
             style="fill:#404040;"/>
          </a>
         </g>
        </svg>
</svg>
