<?xml version="1.0" encoding="UTF-8" standalone="no"?>
<!DOCTYPE svg PUBLIC "-//W3C//DTD SVG 1.1//EN"
 "http://www.w3.org/Graphics/SVG/1.1/DTD/svg11.dtd">
<!-- Generated by graphviz version 2.43.0 (0)
 -->
<!-- Title: Primary::VirtualSecondary Pages: 1 -->
<svg width="1043pt" height="173pt"
 viewBox="0.00 0.00 1043.00 172.50" xmlns="http://www.w3.org/2000/svg" xmlns:xlink="http://www.w3.org/1999/xlink">
<g id="graph0" class="graph" transform="scale(1 1) rotate(0) translate(4 168.5)">
<title>Primary::VirtualSecondary</title>
<polygon fill="white" stroke="transparent" points="-4,4 -4,-168.5 1039,-168.5 1039,4 -4,4"/>
<!-- Node1 -->
<g id="node1" class="node">
<title>Node1</title>
<g id="a_node1"><a xlink:title=" ">
<polygon fill="#bfbfbf" stroke="black" points="892,-80 892,-99 1035,-99 1035,-80 892,-80"/>
<text text-anchor="middle" x="963.5" y="-87" font-family="Helvetica,sans-Serif" font-size="10.00">Primary::VirtualSecondary</text>
</a>
</g>
</g>
<!-- Node2 -->
<g id="node2" class="node">
<title>Node2</title>
<g id="a_node2"><a xlink:href="class_primary_1_1_managed_secondary.html" target="_top" xlink:title=" ">
<polygon fill="white" stroke="black" points="699,-80 699,-99 855,-99 855,-80 699,-80"/>
<text text-anchor="middle" x="777" y="-87" font-family="Helvetica,sans-Serif" font-size="10.00">Primary::ManagedSecondary</text>
</a>
</g>
</g>
<!-- Node2&#45;&gt;Node1 -->
<g id="edge1" class="edge">
<title>Node2&#45;&gt;Node1</title>
<path fill="none" stroke="midnightblue" d="M865.2,-89.5C874.12,-89.5 883.1,-89.5 891.81,-89.5"/>
<polygon fill="midnightblue" stroke="midnightblue" points="865.18,-86 855.18,-89.5 865.18,-93 865.18,-86"/>
</g>
<!-- Node3 -->
<g id="node3" class="node">
<title>Node3</title>
<g id="a_node3"><a xlink:href="class_secondary_interface.html" target="_top" xlink:title=" ">
<polygon fill="white" stroke="black" points="424.5,-145 424.5,-164 535.5,-164 535.5,-145 424.5,-145"/>
<text text-anchor="middle" x="480" y="-152" font-family="Helvetica,sans-Serif" font-size="10.00">SecondaryInterface</text>
</a>
</g>
</g>
<!-- Node3&#45;&gt;Node2 -->
<g id="edge2" class="edge">
<title>Node3&#45;&gt;Node2</title>
<path fill="none" stroke="midnightblue" d="M545.69,-144.85C585.05,-138.48 636.2,-129.33 681,-118.5 703.8,-112.99 729.18,-105.15 747.97,-99.01"/>
<polygon fill="midnightblue" stroke="midnightblue" points="545.01,-141.41 535.69,-146.44 546.12,-148.32 545.01,-141.41"/>
</g>
<!-- Node4 -->
<g id="node4" class="node">
<title>Node4</title>
<g id="a_node4"><a xlink:title=" ">
<polygon fill="white" stroke="#bfbfbf" points="404,-95.5 404,-125.5 556,-125.5 556,-95.5 404,-95.5"/>
<text text-anchor="start" x="412" y="-113.5" font-family="Helvetica,sans-Serif" font-size="10.00">std::shared_ptr&lt; Secondary</text>
<text text-anchor="middle" x="480" y="-102.5" font-family="Helvetica,sans-Serif" font-size="10.00">Provider &gt;</text>
</a>
</g>
</g>
<!-- Node4&#45;&gt;Node2 -->
<g id="edge3" class="edge">
<title>Node4&#45;&gt;Node2</title>
<path fill="none" stroke="#9a32cd" stroke-dasharray="5,2" d="M566.38,-104.42C608.21,-101.44 658.21,-97.89 698.88,-94.99"/>
<polygon fill="#9a32cd" stroke="#9a32cd" points="565.93,-100.95 556.2,-105.15 566.43,-107.93 565.93,-100.95"/>
<text text-anchor="middle" x="628.5" y="-106.5" font-family="Helvetica,sans-Serif" font-size="10.00"> secondary_provider_</text>
</g>
<!-- Node5 -->
<g id="node5" class="node">
<title>Node5</title>
<g id="a_node5"><a xlink:href="class_secondary_provider.html" target="_top" xlink:title=" ">
<polygon fill="white" stroke="black" points="158,-119 158,-138 266,-138 266,-119 158,-119"/>
<text text-anchor="middle" x="212" y="-126" font-family="Helvetica,sans-Serif" font-size="10.00">SecondaryProvider</text>
</a>
</g>
</g>
<!-- Node5&#45;&gt;Node4 -->
<g id="edge4" class="edge">
<title>Node5&#45;&gt;Node4</title>
<path fill="none" stroke="#9a32cd" stroke-dasharray="5,2" d="M276.2,-124.22C314.54,-121.63 363.68,-118.3 403.99,-115.58"/>
<polygon fill="#9a32cd" stroke="#9a32cd" points="275.93,-120.73 266.19,-124.9 276.4,-127.72 275.93,-120.73"/>
<text text-anchor="middle" x="342.5" y="-124.5" font-family="Helvetica,sans-Serif" font-size="10.00"> ptr</text>
</g>
<!-- Node6 -->
<g id="node6" class="node">
<title>Node6</title>
<g id="a_node6"><a xlink:href="class_primary_1_1_managed_secondary_config.html" target="_top" xlink:title=" ">
<polygon fill="white" stroke="black" points="402,-46.5 402,-76.5 558,-76.5 558,-46.5 402,-46.5"/>
<text text-anchor="start" x="410" y="-64.5" font-family="Helvetica,sans-Serif" font-size="10.00">Primary::ManagedSecondary</text>
<text text-anchor="middle" x="480" y="-53.5" font-family="Helvetica,sans-Serif" font-size="10.00">Config</text>
</a>
</g>
</g>
<!-- Node6&#45;&gt;Node2 -->
<g id="edge5" class="edge">
<title>Node6&#45;&gt;Node2</title>
<path fill="none" stroke="#9a32cd" stroke-dasharray="5,2" d="M568.21,-69.78C609.64,-73.71 658.75,-78.37 698.82,-82.17"/>
<polygon fill="#9a32cd" stroke="#9a32cd" points="568.41,-66.28 558.12,-68.82 567.75,-73.25 568.41,-66.28"/>
<text text-anchor="middle" x="628.5" y="-82.5" font-family="Helvetica,sans-Serif" font-size="10.00"> sconfig</text>
</g>
<!-- Node7 -->
<g id="node7" class="node">
<title>Node7</title>
<g id="a_node7"><a xlink:href="class_primary_1_1_secondary_config.html" target="_top" xlink:title=" ">
<polygon fill="white" stroke="black" points="141,-81 141,-100 283,-100 283,-81 141,-81"/>
<text text-anchor="middle" x="212" y="-88" font-family="Helvetica,sans-Serif" font-size="10.00">Primary::SecondaryConfig</text>
</a>
</g>
</g>
<!-- Node7&#45;&gt;Node6 -->
<g id="edge6" class="edge">
<title>Node7&#45;&gt;Node6</title>
<path fill="none" stroke="midnightblue" d="M293,-85.2C321.74,-82.96 354.37,-80.05 384,-76.5 389.8,-75.81 395.79,-75.02 401.82,-74.18"/>
<polygon fill="midnightblue" stroke="midnightblue" points="292.71,-81.71 283.01,-85.96 293.24,-88.69 292.71,-81.71"/>
</g>
<!-- Node8 -->
<g id="node8" class="node">
<title>Node8</title>
<g id="a_node8"><a xlink:title="STL class.">
<polygon fill="white" stroke="#bfbfbf" points="179.5,-6 179.5,-25 244.5,-25 244.5,-6 179.5,-6"/>
<text text-anchor="middle" x="212" y="-13" font-family="Helvetica,sans-Serif" font-size="10.00">std::string</text>
</a>
</g>
</g>
<!-- Node8&#45;&gt;Node2 -->
<g id="edge9" class="edge">
<title>Node8&#45;&gt;Node2</title>
<path fill="none" stroke="#9a32cd" stroke-dasharray="5,2" d="M254.74,-14.32C289.37,-13.56 339.9,-12.98 384,-14.5 461.47,-17.17 481.67,-13 558,-26.5 628.8,-39.02 709.44,-65.71 749.92,-80"/>
<polygon fill="#9a32cd" stroke="#9a32cd" points="254.44,-10.82 244.53,-14.56 254.61,-17.82 254.44,-10.82"/>
<text text-anchor="middle" x="480" y="-29.5" font-family="Helvetica,sans-Serif" font-size="10.00"> detected_attack</text>
</g>
<!-- Node8&#45;&gt;Node6 -->
<g id="edge7" class="edge">
<title>Node8&#45;&gt;Node6</title>
<path fill="none" stroke="#9a32cd" stroke-dasharray="5,2" d="M254.83,-15.68C289.71,-16.54 340.55,-19.46 384,-28.5 403.83,-32.62 425.19,-39.79 442.63,-46.39"/>
<polygon fill="#9a32cd" stroke="#9a32cd" points="254.61,-12.17 244.54,-15.47 254.47,-19.17 254.61,-12.17"/>
<text text-anchor="middle" x="342.5" y="-64.5" font-family="Helvetica,sans-Serif" font-size="10.00"> ecu_private_key</text>
<text text-anchor="middle" x="342.5" y="-53.5" font-family="Helvetica,sans-Serif" font-size="10.00">ecu_hardware_id</text>
<text text-anchor="middle" x="342.5" y="-42.5" font-family="Helvetica,sans-Serif" font-size="10.00">ecu_serial</text>
<text text-anchor="middle" x="342.5" y="-31.5" font-family="Helvetica,sans-Serif" font-size="10.00">ecu_public_key</text>
</g>
<!-- Node9 -->
<g id="node9" class="node">
<title>Node9</title>
<g id="a_node9"><a xlink:title="STL class.">
<polygon fill="white" stroke="#bfbfbf" points="0,-0.5 0,-30.5 104,-30.5 104,-0.5 0,-0.5"/>
<text text-anchor="start" x="8" y="-18.5" font-family="Helvetica,sans-Serif" font-size="10.00">std::basic_string&lt;</text>
<text text-anchor="middle" x="52" y="-7.5" font-family="Helvetica,sans-Serif" font-size="10.00"> char &gt;</text>
</a>
</g>
</g>
<!-- Node9&#45;&gt;Node8 -->
<g id="edge8" class="edge">
<title>Node9&#45;&gt;Node8</title>
<path fill="none" stroke="midnightblue" d="M114.33,-15.5C136.51,-15.5 160.66,-15.5 179.27,-15.5"/>
<polygon fill="midnightblue" stroke="midnightblue" points="114.3,-12 104.3,-15.5 114.3,-19 114.3,-12"/>
</g>
</g>
</svg>
