<?xml version="1.0" encoding="UTF-8" standalone="no"?>
<!DOCTYPE svg PUBLIC "-//W3C//DTD SVG 1.1//EN"
 "http://www.w3.org/Graphics/SVG/1.1/DTD/svg11.dtd">
<!-- Generated by graphviz version 2.40.1 (20161225.0304)
 -->
<!-- Title: BaseConfig Pages: 1 -->
<svg width="344pt" height="84pt"
 viewBox="0.00 0.00 343.50 84.00" xmlns="http://www.w3.org/2000/svg" xmlns:xlink="http://www.w3.org/1999/xlink">
<g id="graph0" class="graph" transform="scale(1 1) rotate(0) translate(4 80)">
<title>BaseConfig</title>
<polygon fill="#ffffff" stroke="transparent" points="-4,4 -4,-80 339.5,-80 339.5,4 -4,4"/>
<!-- Node0 -->
<g id="node1" class="node">
<title>Node0</title>
<polygon fill="#bfbfbf" stroke="#000000" points="163.5,-56.5 163.5,-75.5 234.5,-75.5 234.5,-56.5 163.5,-56.5"/>
<text text-anchor="middle" x="199" y="-63.5" font-family="Helvetica,sans-Serif" font-size="10.00" fill="#000000">BaseConfig</text>
</g>
<!-- Node1 -->
<g id="node2" class="node">
<title>Node1</title>
<g id="a_node2"><a xlink:href="class_aktualizr_info_config.html" target="_top" xlink:title="AktualizrInfoConfig">
<polygon fill="#ffffff" stroke="#000000" points="0,-.5 0,-19.5 110,-19.5 110,-.5 0,-.5"/>
<text text-anchor="middle" x="55" y="-7.5" font-family="Helvetica,sans-Serif" font-size="10.00" fill="#000000">AktualizrInfoConfig</text>
</a>
</g>
</g>
<!-- Node0&#45;&gt;Node1 -->
<g id="edge1" class="edge">
<title>Node0&#45;&gt;Node1</title>
<path fill="none" stroke="#191970" d="M164.6818,-52.6541C138.422,-42.4419 102.8508,-28.6086 79.4315,-19.5011"/>
<polygon fill="#191970" stroke="#191970" points="163.6569,-56.0108 174.2455,-56.3733 166.194,-49.4867 163.6569,-56.0108"/>
</g>
<!-- Node2 -->
<g id="node3" class="node">
<title>Node2</title>
<g id="a_node3"><a xlink:href="class_aktualizr_secondary_config.html" target="_top" xlink:title="AktualizrSecondaryConfig">
<polygon fill="#ffffff" stroke="#000000" points="128,-.5 128,-19.5 270,-19.5 270,-.5 128,-.5"/>
<text text-anchor="middle" x="199" y="-7.5" font-family="Helvetica,sans-Serif" font-size="10.00" fill="#000000">AktualizrSecondaryConfig</text>
</a>
</g>
</g>
<!-- Node0&#45;&gt;Node2 -->
<g id="edge2" class="edge">
<title>Node0&#45;&gt;Node2</title>
<path fill="none" stroke="#191970" d="M199,-46.1575C199,-37.155 199,-26.9199 199,-19.6427"/>
<polygon fill="#191970" stroke="#191970" points="195.5001,-46.2455 199,-56.2455 202.5001,-46.2456 195.5001,-46.2455"/>
</g>
<!-- Node3 -->
<g id="node4" class="node">
<title>Node3</title>
<g id="a_node4"><a xlink:href="class_config.html" target="_top" xlink:title="Configuration object for an aktualizr instance running on a Primary ECU. ">
<polygon fill="#ffffff" stroke="#000000" points="288.5,-.5 288.5,-19.5 335.5,-19.5 335.5,-.5 288.5,-.5"/>
<text text-anchor="middle" x="312" y="-7.5" font-family="Helvetica,sans-Serif" font-size="10.00" fill="#000000">Config</text>
</a>
</g>
</g>
<!-- Node0&#45;&gt;Node3 -->
<g id="edge3" class="edge">
<title>Node0&#45;&gt;Node3</title>
<path fill="none" stroke="#191970" d="M227.5792,-51.8368C248.0058,-41.7139 274.9362,-28.3679 292.8281,-19.5011"/>
<polygon fill="#191970" stroke="#191970" points="225.8313,-48.7968 218.4254,-56.3733 228.9396,-55.0688 225.8313,-48.7968"/>
</g>
</g>
</svg>
