<?xml version="1.0" encoding="UTF-8" standalone="no"?>
<!DOCTYPE svg PUBLIC "-//W3C//DTD SVG 1.1//EN"
 "http://www.w3.org/Graphics/SVG/1.1/DTD/svg11.dtd">
<!-- Generated by graphviz version 2.43.0 (0)
 -->
<!-- Title: Uptane::RepositoryType Pages: 1 -->
<svg width="141pt" height="174pt"
 viewBox="0.00 0.00 141.00 174.00" xmlns="http://www.w3.org/2000/svg" xmlns:xlink="http://www.w3.org/1999/xlink">
<g id="graph0" class="graph" transform="scale(1 1) rotate(0) translate(4 170)">
<title>Uptane::RepositoryType</title>
<polygon fill="white" stroke="transparent" points="-4,4 -4,-170 137,-170 137,4 -4,4"/>
<!-- Node1 -->
<g id="node1" class="node">
<title>Node1</title>
<g id="a_node1"><a xlink:title=" ">
<polygon fill="#bfbfbf" stroke="black" points="0,-0.5 0,-19.5 133,-19.5 133,-0.5 0,-0.5"/>
<text text-anchor="middle" x="66.5" y="-7.5" font-family="Helvetica,sans-Serif" font-size="10.00">Uptane::RepositoryType</text>
</a>
</g>
</g>
<!-- Node2 -->
<g id="node2" class="node">
<title>Node2</title>
<g id="a_node2"><a xlink:title="STL class.">
<polygon fill="white" stroke="#bfbfbf" points="34,-78.5 34,-97.5 99,-97.5 99,-78.5 34,-78.5"/>
<text text-anchor="middle" x="66.5" y="-85.5" font-family="Helvetica,sans-Serif" font-size="10.00">std::string</text>
</a>
</g>
</g>
<!-- Node2&#45;&gt;Node1 -->
<g id="edge1" class="edge">
<title>Node2&#45;&gt;Node1</title>
<path fill="none" stroke="#9a32cd" stroke-dasharray="5,2" d="M66.5,-68.22C66.5,-52.7 66.5,-31.36 66.5,-19.62"/>
<polygon fill="#9a32cd" stroke="#9a32cd" points="63,-68.28 66.5,-78.28 70,-68.28 63,-68.28"/>
<text text-anchor="middle" x="92" y="-52" font-family="Helvetica,sans-Serif" font-size="10.00"> IMAGE</text>
<text text-anchor="middle" x="92" y="-41" font-family="Helvetica,sans-Serif" font-size="10.00">DIRECTOR</text>
</g>
<!-- Node3 -->
<g id="node3" class="node">
<title>Node3</title>
<g id="a_node3"><a xlink:title="STL class.">
<polygon fill="white" stroke="#bfbfbf" points="14.5,-135.5 14.5,-165.5 118.5,-165.5 118.5,-135.5 14.5,-135.5"/>
<text text-anchor="start" x="22.5" y="-153.5" font-family="Helvetica,sans-Serif" font-size="10.00">std::basic_string&lt;</text>
<text text-anchor="middle" x="66.5" y="-142.5" font-family="Helvetica,sans-Serif" font-size="10.00"> char &gt;</text>
</a>
</g>
</g>
<!-- Node3&#45;&gt;Node2 -->
<g id="edge2" class="edge">
<title>Node3&#45;&gt;Node2</title>
<path fill="none" stroke="midnightblue" d="M66.5,-125.35C66.5,-115.51 66.5,-104.78 66.5,-97.54"/>
<polygon fill="midnightblue" stroke="midnightblue" points="63,-125.47 66.5,-135.47 70,-125.47 63,-125.47"/>
</g>
</g>
</svg>
