<?xml version="1.0" encoding="UTF-8" standalone="no"?>
<!DOCTYPE svg PUBLIC "-//W3C//DTD SVG 1.1//EN"
 "http://www.w3.org/Graphics/SVG/1.1/DTD/svg11.dtd">
<!-- Generated by graphviz version 2.40.1 (20161225.0304)
 -->
<!-- Title: Uptane::RepositoryCommon Pages: 1 -->
<svg width="316pt" height="84pt"
 viewBox="0.00 0.00 315.50 84.00" xmlns="http://www.w3.org/2000/svg" xmlns:xlink="http://www.w3.org/1999/xlink">
<g id="graph0" class="graph" transform="scale(1 1) rotate(0) translate(4 80)">
<title>Uptane::RepositoryCommon</title>
<polygon fill="#ffffff" stroke="transparent" points="-4,4 -4,-80 311.5,-80 311.5,4 -4,4"/>
<!-- Node0 -->
<g id="node1" class="node">
<title>Node0</title>
<polygon fill="#bfbfbf" stroke="#000000" points="78.5,-56.5 78.5,-75.5 232.5,-75.5 232.5,-56.5 78.5,-56.5"/>
<text text-anchor="middle" x="155.5" y="-63.5" font-family="Helvetica,sans-Serif" font-size="10.00" fill="#000000">Uptane::RepositoryCommon</text>
</g>
<!-- Node1 -->
<g id="node2" class="node">
<title>Node1</title>
<g id="a_node2"><a xlink:href="class_uptane_1_1_director_repository.html" target="_top" xlink:title="Uptane::DirectorRepository">
<polygon fill="#ffffff" stroke="#000000" points="0,-.5 0,-19.5 149,-19.5 149,-.5 0,-.5"/>
<text text-anchor="middle" x="74.5" y="-7.5" font-family="Helvetica,sans-Serif" font-size="10.00" fill="#000000">Uptane::DirectorRepository</text>
</a>
</g>
</g>
<!-- Node0&#45;&gt;Node1 -->
<g id="edge1" class="edge">
<title>Node0&#45;&gt;Node1</title>
<path fill="none" stroke="#191970" d="M133.066,-50.49C118.7746,-40.6096 100.7084,-28.1194 88.4474,-19.6427"/>
<polygon fill="#191970" stroke="#191970" points="131.1749,-53.4376 141.3909,-56.2455 135.1557,-47.6797 131.1749,-53.4376"/>
</g>
<!-- Node2 -->
<g id="node3" class="node">
<title>Node2</title>
<g id="a_node3"><a xlink:href="class_uptane_1_1_image_repository.html" target="_top" xlink:title="Uptane::ImageRepository">
<polygon fill="#ffffff" stroke="#000000" points="167.5,-.5 167.5,-19.5 307.5,-19.5 307.5,-.5 167.5,-.5"/>
<text text-anchor="middle" x="237.5" y="-7.5" font-family="Helvetica,sans-Serif" font-size="10.00" fill="#000000">Uptane::ImageRepository</text>
</a>
</g>
</g>
<!-- Node0&#45;&gt;Node2 -->
<g id="edge2" class="edge">
<title>Node0&#45;&gt;Node2</title>
<path fill="none" stroke="#191970" d="M178.211,-50.49C192.6788,-40.6096 210.968,-28.1194 223.3804,-19.6427"/>
<polygon fill="#191970" stroke="#191970" points="176.0675,-47.7156 169.7833,-56.2455 180.0152,-53.4962 176.0675,-47.7156"/>
</g>
</g>
</svg>
