<?xml version="1.0" encoding="UTF-8" standalone="no"?>
<!DOCTYPE svg PUBLIC "-//W3C//DTD SVG 1.1//EN"
 "http://www.w3.org/Graphics/SVG/1.1/DTD/svg11.dtd">
<!-- Generated by graphviz version 2.43.0 (0)
 -->
<!-- Title: src Pages: 1 -->
<svg width="1494pt" height="148pt"
 viewBox="0.00 0.00 1494.00 148.00" xmlns="http://www.w3.org/2000/svg" xmlns:xlink="http://www.w3.org/1999/xlink">
<g id="graph0" class="graph" transform="scale(1 1) rotate(0) translate(4 144)">
<title>src</title>
<polygon fill="white" stroke="transparent" points="-4,4 -4,-144 1490,-144 1490,4 -4,4"/>
<g id="clust1" class="cluster">
<title>clusterdir_68267d1309a1af8e8297ef4c3efbcdba</title>
<g id="a_clust1"><a xlink:href="dir_68267d1309a1af8e8297ef4c3efbcdba.html" target="_top">
<polygon fill="#eeeeff" stroke="black" points="8,-8 8,-132 1478,-132 1478,-8 8,-8"/>
</a>
</g>
</g>
<!-- dir_68267d1309a1af8e8297ef4c3efbcdba -->
<g id="node1" class="node">
<title>dir_68267d1309a1af8e8297ef4c3efbcdba</title>
<text text-anchor="middle" x="1443" y="-103.5" font-family="Helvetica,sans-Serif" font-size="10.00">src</text>
</g>
<!-- dir_8a55f271c8f111a5e45629b7e60480a4 -->
<g id="node2" class="node">
<title>dir_8a55f271c8f111a5e45629b7e60480a4</title>
<g id="a_node2"><a xlink:href="dir_8a55f271c8f111a5e45629b7e60480a4.html" target="_top" xlink:title="aktualizr_get">
<polygon fill="white" stroke="black" points="1398,-124 1318,-124 1318,-88 1398,-88 1398,-124"/>
<text text-anchor="middle" x="1358" y="-103.5" font-family="Helvetica,sans-Serif" font-size="10.00">aktualizr_get</text>
</a>
</g>
</g>
<!-- dir_b4ab7baa9a72fa869f9ae99b22d05745 -->
<g id="node3" class="node">
<title>dir_b4ab7baa9a72fa869f9ae99b22d05745</title>
<g id="a_node3"><a xlink:href="dir_b4ab7baa9a72fa869f9ae99b22d05745.html" target="_top" xlink:title="aktualizr_info">
<polygon fill="white" stroke="black" points="1299.5,-124 1216.5,-124 1216.5,-88 1299.5,-88 1299.5,-124"/>
<text text-anchor="middle" x="1258" y="-103.5" font-family="Helvetica,sans-Serif" font-size="10.00">aktualizr_info</text>
</a>
</g>
</g>
<!-- dir_c16c808c13fd858226485f631e64bc99 -->
<g id="node4" class="node">
<title>dir_c16c808c13fd858226485f631e64bc99</title>
<g id="a_node4"><a xlink:href="dir_c16c808c13fd858226485f631e64bc99.html" target="_top" xlink:title="aktualizr_lite">
<polygon fill="white" stroke="black" points="1198,-124 1118,-124 1118,-88 1198,-88 1198,-124"/>
<text text-anchor="middle" x="1158" y="-103.5" font-family="Helvetica,sans-Serif" font-size="10.00">aktualizr_lite</text>
</a>
</g>
</g>
<!-- dir_a1c365666047c910e07f82ea3785a0e3 -->
<g id="node5" class="node">
<title>dir_a1c365666047c910e07f82ea3785a0e3</title>
<g id="a_node5"><a xlink:href="dir_a1c365666047c910e07f82ea3785a0e3.html" target="_top" xlink:title="aktualizr_primary">
<polygon fill="white" stroke="black" points="1099.5,-124 996.5,-124 996.5,-88 1099.5,-88 1099.5,-124"/>
<text text-anchor="middle" x="1048" y="-103.5" font-family="Helvetica,sans-Serif" font-size="10.00">aktualizr_primary</text>
</a>
</g>
</g>
<!-- dir_a0345981ec4afd73d92f143a325145ef -->
<g id="node6" class="node">
<title>dir_a0345981ec4afd73d92f143a325145ef</title>
<g id="a_node6"><a xlink:href="dir_a0345981ec4afd73d92f143a325145ef.html" target="_top" xlink:title="aktualizr_secondary">
<polygon fill="white" stroke="black" points="978.5,-124 863.5,-124 863.5,-88 978.5,-88 978.5,-124"/>
<text text-anchor="middle" x="921" y="-103.5" font-family="Helvetica,sans-Serif" font-size="10.00">aktualizr_secondary</text>
</a>
</g>
</g>
<!-- dir_1f4a50f8f1fe2f3e2e3e79b978626114 -->
<g id="node7" class="node">
<title>dir_1f4a50f8f1fe2f3e2e3e79b978626114</title>
<g id="a_node7"><a xlink:href="dir_1f4a50f8f1fe2f3e2e3e79b978626114.html" target="_top" xlink:title="cert_provider">
<polygon fill="white" stroke="black" points="845.5,-124 764.5,-124 764.5,-88 845.5,-88 845.5,-124"/>
<text text-anchor="middle" x="805" y="-103.5" font-family="Helvetica,sans-Serif" font-size="10.00">cert_provider</text>
</a>
</g>
</g>
<!-- dir_25fe10002fe19a6f872ae0406361d164 -->
<g id="node8" class="node">
<title>dir_25fe10002fe19a6f872ae0406361d164</title>
<g id="a_node8"><a xlink:href="dir_25fe10002fe19a6f872ae0406361d164.html" target="_top" xlink:title="libaktualizr">
<polygon fill="white" stroke="red" points="370.5,-52 299.5,-52 299.5,-16 370.5,-16 370.5,-52"/>
<text text-anchor="middle" x="335" y="-31.5" font-family="Helvetica,sans-Serif" font-size="10.00">libaktualizr</text>
</a>
</g>
</g>
<!-- dir_69b27e618995272ead2721cf398d1c1a -->
<g id="node9" class="node">
<title>dir_69b27e618995272ead2721cf398d1c1a</title>
<g id="a_node9"><a xlink:href="dir_69b27e618995272ead2721cf398d1c1a.html" target="_top" xlink:title="libaktualizr&#45;c">
<polygon fill="white" stroke="black" points="746,-124 666,-124 666,-88 746,-88 746,-124"/>
<text text-anchor="middle" x="706" y="-103.5" font-family="Helvetica,sans-Serif" font-size="10.00">libaktualizr&#45;c</text>
</a>
</g>
</g>
<!-- dir_69b27e618995272ead2721cf398d1c1a&#45;&gt;dir_25fe10002fe19a6f872ae0406361d164 -->
<g id="edge2" class="edge">
<title>dir_69b27e618995272ead2721cf398d1c1a&#45;&gt;dir_25fe10002fe19a6f872ae0406361d164</title>
<path fill="none" stroke="black" d="M665.79,-90.44C662.83,-89.56 659.88,-88.73 657,-88 559.99,-63.38 443.52,-47.5 380.66,-40.02"/>
<polygon fill="black" stroke="black" points="381.01,-36.54 370.67,-38.85 380.19,-43.49 381.01,-36.54"/>
<g id="a_edge2&#45;headlabel"><a xlink:href="dir_000014_000012.html" target="_top" xlink:title="1">
<text text-anchor="middle" x="384.91" y="-31.64" font-family="Helvetica,sans-Serif" font-size="10.00">1</text>
</a>
</g>
</g>
<!-- dir_40cd5f72ba432c457eeee2591603d2c8 -->
<g id="node10" class="node">
<title>dir_40cd5f72ba432c457eeee2591603d2c8</title>
<g id="a_node10"><a xlink:href="dir_40cd5f72ba432c457eeee2591603d2c8.html" target="_top" xlink:title="libaktualizr&#45;isotp">
<polygon fill="white" stroke="black" points="647.5,-124 548.5,-124 548.5,-88 647.5,-88 647.5,-124"/>
<text text-anchor="middle" x="598" y="-103.5" font-family="Helvetica,sans-Serif" font-size="10.00">libaktualizr&#45;isotp</text>
</a>
</g>
</g>
<!-- dir_4d83f6f3df02246e3e673d37b1fa988b -->
<g id="node11" class="node">
<title>dir_4d83f6f3df02246e3e673d37b1fa988b</title>
<g id="a_node11"><a xlink:href="dir_4d83f6f3df02246e3e673d37b1fa988b.html" target="_top" xlink:title="libaktualizr&#45;posix">
<polygon fill="white" stroke="red" points="530.5,-124 429.5,-124 429.5,-88 530.5,-88 530.5,-124"/>
<text text-anchor="middle" x="480" y="-103.5" font-family="Helvetica,sans-Serif" font-size="10.00">libaktualizr&#45;posix</text>
</a>
</g>
</g>
<!-- dir_32bfa720d5faedcc76f8e32c775d43dc -->
<g id="node12" class="node">
<title>dir_32bfa720d5faedcc76f8e32c775d43dc</title>
<g id="a_node12"><a xlink:href="dir_32bfa720d5faedcc76f8e32c775d43dc.html" target="_top" xlink:title="load_tests">
<polygon fill="white" stroke="black" points="411.5,-124 344.5,-124 344.5,-88 411.5,-88 411.5,-124"/>
<text text-anchor="middle" x="378" y="-103.5" font-family="Helvetica,sans-Serif" font-size="10.00">load_tests</text>
</a>
</g>
</g>
<!-- dir_32bfa720d5faedcc76f8e32c775d43dc&#45;&gt;dir_25fe10002fe19a6f872ae0406361d164 -->
<g id="edge3" class="edge">
<title>dir_32bfa720d5faedcc76f8e32c775d43dc&#45;&gt;dir_25fe10002fe19a6f872ae0406361d164</title>
<path fill="none" stroke="black" d="M367.37,-87.7C362.37,-79.56 356.31,-69.69 350.79,-60.7"/>
<polygon fill="black" stroke="black" points="353.72,-58.79 345.51,-52.1 347.76,-62.46 353.72,-58.79"/>
<g id="a_edge3&#45;headlabel"><a xlink:href="dir_000010_000012.html" target="_top" xlink:title="2">
<text text-anchor="middle" x="358.02" y="-57.87" font-family="Helvetica,sans-Serif" font-size="10.00">2</text>
</a>
</g>
</g>
<!-- dir_b7cd886a5e99df99c476fe0c3ded0563 -->
<g id="node13" class="node">
<title>dir_b7cd886a5e99df99c476fe0c3ded0563</title>
<g id="a_node13"><a xlink:href="dir_b7cd886a5e99df99c476fe0c3ded0563.html" target="_top" xlink:title="sota_tools">
<polygon fill="white" stroke="black" points="326.5,-124 259.5,-124 259.5,-88 326.5,-88 326.5,-124"/>
<text text-anchor="middle" x="293" y="-103.5" font-family="Helvetica,sans-Serif" font-size="10.00">sota_tools</text>
</a>
</g>
</g>
<!-- dir_b7cd886a5e99df99c476fe0c3ded0563&#45;&gt;dir_25fe10002fe19a6f872ae0406361d164 -->
<g id="edge4" class="edge">
<title>dir_b7cd886a5e99df99c476fe0c3ded0563&#45;&gt;dir_25fe10002fe19a6f872ae0406361d164</title>
<path fill="none" stroke="black" d="M303.38,-87.7C308.26,-79.56 314.19,-69.69 319.58,-60.7"/>
<polygon fill="black" stroke="black" points="322.59,-62.48 324.74,-52.1 316.59,-58.88 322.59,-62.48"/>
<g id="a_edge4&#45;headlabel"><a xlink:href="dir_000030_000012.html" target="_top" xlink:title="2">
<text text-anchor="middle" x="323.18" y="-64.52" font-family="Helvetica,sans-Serif" font-size="10.00">2</text>
</a>
</g>
</g>
<!-- dir_a276f8890176b14b77a786ef6e2c59bb -->
<g id="node14" class="node">
<title>dir_a276f8890176b14b77a786ef6e2c59bb</title>
<g id="a_node14"><a xlink:href="dir_a276f8890176b14b77a786ef6e2c59bb.html" target="_top" xlink:title="uptane_generator">
<polygon fill="white" stroke="black" points="241.5,-124 138.5,-124 138.5,-88 241.5,-88 241.5,-124"/>
<text text-anchor="middle" x="190" y="-103.5" font-family="Helvetica,sans-Serif" font-size="10.00">uptane_generator</text>
</a>
</g>
</g>
<!-- dir_e1d95de2daaa60f98711a754eb3af91a -->
<g id="node15" class="node">
<title>dir_e1d95de2daaa60f98711a754eb3af91a</title>
<g id="a_node15"><a xlink:href="dir_e1d95de2daaa60f98711a754eb3af91a.html" target="_top" xlink:title="virtual_secondary">
<polygon fill="white" stroke="black" points="120,-124 16,-124 16,-88 120,-88 120,-124"/>
<text text-anchor="middle" x="68" y="-103.5" font-family="Helvetica,sans-Serif" font-size="10.00">virtual_secondary</text>
</a>
</g>
</g>
<!-- dir_e1d95de2daaa60f98711a754eb3af91a&#45;&gt;dir_25fe10002fe19a6f872ae0406361d164 -->
<g id="edge1" class="edge">
<title>dir_e1d95de2daaa60f98711a754eb3af91a&#45;&gt;dir_25fe10002fe19a6f872ae0406361d164</title>
<path fill="none" stroke="black" d="M120.08,-90.66C123.44,-89.76 126.76,-88.86 130,-88 184.8,-73.4 248.01,-57.15 289.58,-46.54"/>
<polygon fill="black" stroke="black" points="290.58,-49.9 299.41,-44.03 288.85,-43.11 290.58,-49.9"/>
<g id="a_edge1&#45;headlabel"><a xlink:href="dir_000031_000012.html" target="_top" xlink:title="4">
<text text-anchor="middle" x="287.8" y="-51.04" font-family="Helvetica,sans-Serif" font-size="10.00">4</text>
</a>
</g>
</g>
</g>
</svg>
