<?xml version="1.0" encoding="UTF-8" standalone="no"?>
<!DOCTYPE svg PUBLIC "-//W3C//DTD SVG 1.1//EN"
 "http://www.w3.org/Graphics/SVG/1.1/DTD/svg11.dtd">
<!-- Generated by graphviz version 2.40.1 (20161225.0304)
 -->
<!-- Title: src/libaktualizr/primary/events.h Pages: 1 -->
<svg width="2577pt" height="554pt"
 viewBox="0.00 0.00 2577.00 554.00" xmlns="http://www.w3.org/2000/svg" xmlns:xlink="http://www.w3.org/1999/xlink">
<g id="graph0" class="graph" transform="scale(1 1) rotate(0) translate(4 550)">
<title>src/libaktualizr/primary/events.h</title>
<polygon fill="#ffffff" stroke="transparent" points="-4,4 -4,-550 2573,-550 2573,4 -4,4"/>
<!-- Node0 -->
<g id="node1" class="node">
<title>Node0</title>
<polygon fill="#bfbfbf" stroke="#000000" points="1003,-515.5 1003,-545.5 1133,-545.5 1133,-515.5 1003,-515.5"/>
<text text-anchor="start" x="1011" y="-533.5" font-family="Helvetica,sans-Serif" font-size="10.00" fill="#000000">src/libaktualizr/primary</text>
<text text-anchor="middle" x="1068" y="-522.5" font-family="Helvetica,sans-Serif" font-size="10.00" fill="#000000">/events.h</text>
</g>
<!-- Node1 -->
<g id="node2" class="node">
<title>Node1</title>
<polygon fill="#ffffff" stroke="#bfbfbf" points="47,-56.5 47,-75.5 105,-75.5 105,-56.5 47,-56.5"/>
<text text-anchor="middle" x="76" y="-63.5" font-family="Helvetica,sans-Serif" font-size="10.00" fill="#000000">memory</text>
</g>
<!-- Node0&#45;&gt;Node1 -->
<g id="edge1" class="edge">
<title>Node0&#45;&gt;Node1</title>
<path fill="none" stroke="#191970" d="M1002.7995,-526.7678C770.9209,-513.0697 0,-463.7143 0,-413 0,-413 0,-413 0,-189 0,-145.4388 34.9243,-104.4145 57.4235,-82.5053"/>
<polygon fill="#191970" stroke="#191970" points="59.8999,-84.981 64.7859,-75.5801 55.1038,-79.8822 59.8999,-84.981"/>
</g>
<!-- Node2 -->
<g id="node3" class="node">
<title>Node2</title>
<polygon fill="#ffffff" stroke="#bfbfbf" points="1737,-56.5 1737,-75.5 1781,-75.5 1781,-56.5 1737,-56.5"/>
<text text-anchor="middle" x="1759" y="-63.5" font-family="Helvetica,sans-Serif" font-size="10.00" fill="#000000">string</text>
</g>
<!-- Node0&#45;&gt;Node2 -->
<g id="edge2" class="edge">
<title>Node0&#45;&gt;Node2</title>
<path fill="none" stroke="#191970" d="M1002.8999,-526.5652C880.8867,-517.3963 630,-489.27 630,-413 630,-413 630,-413 630,-189 630,-141.8428 660.0925,-131.5639 703,-112 750.66,-90.2691 1553.5204,-70.7055 1726.3782,-66.7333"/>
<polygon fill="#191970" stroke="#191970" points="1726.6993,-70.227 1736.6167,-66.4994 1726.5394,-63.2288 1726.6993,-70.227"/>
</g>
<!-- Node3 -->
<g id="node4" class="node">
<title>Node3</title>
<polygon fill="#ffffff" stroke="#bfbfbf" points="892,-459.5 892,-478.5 1000,-478.5 1000,-459.5 892,-459.5"/>
<text text-anchor="middle" x="946" y="-466.5" font-family="Helvetica,sans-Serif" font-size="10.00" fill="#000000">boost/signals2.hpp</text>
</g>
<!-- Node0&#45;&gt;Node3 -->
<g id="edge3" class="edge">
<title>Node0&#45;&gt;Node3</title>
<path fill="none" stroke="#191970" d="M1038.1554,-515.4554C1018.603,-505.599 993.2128,-492.7999 974.0355,-483.1327"/>
<polygon fill="#191970" stroke="#191970" points="975.4108,-479.9064 964.9057,-478.5303 972.2598,-486.1571 975.4108,-479.9064"/>
</g>
<!-- Node4 -->
<g id="node5" class="node">
<title>Node4</title>
<g id="a_node5"><a xlink:href="results_8h.html" target="_top" xlink:title="primary/results.h">
<polygon fill="#ffffff" stroke="#000000" points="1018,-459.5 1018,-478.5 1118,-478.5 1118,-459.5 1018,-459.5"/>
<text text-anchor="middle" x="1068" y="-466.5" font-family="Helvetica,sans-Serif" font-size="10.00" fill="#000000">primary/results.h</text>
</a>
</g>
</g>
<!-- Node0&#45;&gt;Node4 -->
<g id="edge4" class="edge">
<title>Node0&#45;&gt;Node4</title>
<path fill="none" stroke="#191970" d="M1068,-515.2977C1068,-507.3834 1068,-497.6043 1068,-489.0759"/>
<polygon fill="#191970" stroke="#191970" points="1071.5001,-488.8469 1068,-478.8469 1064.5001,-488.847 1071.5001,-488.8469"/>
</g>
<!-- Node21 -->
<g id="node17" class="node">
<title>Node21</title>
<g id="a_node17"><a xlink:href="types_8h.html" target="_top" xlink:title="utilities/types.h">
<polygon fill="#ffffff" stroke="#000000" points="2053,-118 2053,-137 2145,-137 2145,-118 2053,-118"/>
<text text-anchor="middle" x="2099" y="-125" font-family="Helvetica,sans-Serif" font-size="10.00" fill="#000000">utilities/types.h</text>
</a>
</g>
</g>
<!-- Node0&#45;&gt;Node21 -->
<g id="edge112" class="edge">
<title>Node0&#45;&gt;Node21</title>
<path fill="none" stroke="#191970" d="M1133.2268,-528.728C1417.1325,-520.594 2531,-484.148 2531,-413 2531,-413 2531,-413 2531,-357 2531,-188.8255 2272.514,-143.506 2155.4349,-131.6045"/>
<polygon fill="#191970" stroke="#191970" points="2155.5226,-128.0967 2145.2316,-130.6157 2154.8473,-135.064 2155.5226,-128.0967"/>
</g>
<!-- Node27 -->
<g id="node22" class="node">
<title>Node27</title>
<g id="a_node22"><a xlink:href="fetcher_8h_source.html" target="_top" xlink:title="uptane/fetcher.h">
<polygon fill="#ffffff" stroke="#000000" points="1223,-403.5 1223,-422.5 1319,-422.5 1319,-403.5 1223,-403.5"/>
<text text-anchor="middle" x="1271" y="-410.5" font-family="Helvetica,sans-Serif" font-size="10.00" fill="#000000">uptane/fetcher.h</text>
</a>
</g>
</g>
<!-- Node0&#45;&gt;Node27 -->
<g id="edge110" class="edge">
<title>Node0&#45;&gt;Node27</title>
<path fill="none" stroke="#191970" d="M1094.1231,-515.3795C1133.2155,-492.7521 1206.4831,-450.3435 1245.3171,-427.8657"/>
<polygon fill="#191970" stroke="#191970" points="1247.5051,-430.6433 1254.4065,-422.6046 1243.9984,-424.585 1247.5051,-430.6433"/>
</g>
<!-- Node44 -->
<g id="node38" class="node">
<title>Node44</title>
<g id="a_node38"><a xlink:href="tuf_8h_source.html" target="_top" xlink:title="uptane/tuf.h">
<polygon fill="#ffffff" stroke="#000000" points="1433.5,-235.5 1433.5,-254.5 1508.5,-254.5 1508.5,-235.5 1433.5,-235.5"/>
<text text-anchor="middle" x="1471" y="-242.5" font-family="Helvetica,sans-Serif" font-size="10.00" fill="#000000">uptane/tuf.h</text>
</a>
</g>
</g>
<!-- Node0&#45;&gt;Node44 -->
<g id="edge111" class="edge">
<title>Node0&#45;&gt;Node44</title>
<path fill="none" stroke="#191970" d="M1133.0011,-518.8589C1222.0325,-501.032 1371,-463.6379 1371,-413 1371,-413 1371,-413 1371,-357 1371,-326.4754 1371.1091,-314.9768 1390,-291 1401.189,-276.7985 1418.0532,-266.228 1433.5018,-258.8256"/>
<polygon fill="#191970" stroke="#191970" points="1435.1825,-261.9077 1442.8744,-254.6217 1432.3178,-255.5207 1435.1825,-261.9077"/>
</g>
<!-- Node4&#45;&gt;Node2 -->
<g id="edge5" class="edge">
<title>Node4&#45;&gt;Node2</title>
<path fill="none" stroke="#191970" d="M1062.9832,-459.4109C1053.5255,-440.4144 1034,-396.4221 1034,-357 1034,-357 1034,-357 1034,-301 1034,-270.3494 1030.5414,-254.7269 1054,-235 1104.3767,-192.6369 1285.1803,-218.6501 1348,-199 1366.2149,-193.3023 1367.7664,-184.6375 1386,-179 1518.9362,-137.8984 1575.1611,-210.2061 1697,-143 1721.0922,-129.7108 1739.3238,-102.8698 1749.587,-84.6612"/>
<polygon fill="#191970" stroke="#191970" points="1752.818,-86.0419 1754.4556,-75.5744 1746.6478,-82.736 1752.818,-86.0419"/>
</g>
<!-- Node5 -->
<g id="node6" class="node">
<title>Node5</title>
<polygon fill="#ffffff" stroke="#bfbfbf" points="902.5,-179.5 902.5,-198.5 949.5,-198.5 949.5,-179.5 902.5,-179.5"/>
<text text-anchor="middle" x="926" y="-186.5" font-family="Helvetica,sans-Serif" font-size="10.00" fill="#000000">vector</text>
</g>
<!-- Node4&#45;&gt;Node5 -->
<g id="edge6" class="edge">
<title>Node4&#45;&gt;Node5</title>
<path fill="none" stroke="#191970" d="M1032.9261,-459.3935C989.1605,-445.0216 920,-413.3894 920,-357 920,-357 920,-357 920,-301 920,-268.6653 922.5245,-231.1547 924.2984,-208.7876"/>
<polygon fill="#191970" stroke="#191970" points="927.8065,-208.833 925.1403,-198.5791 920.8302,-208.2576 927.8065,-208.833"/>
</g>
<!-- Node6 -->
<g id="node7" class="node">
<title>Node6</title>
<g id="a_node7"><a xlink:href="campaign_8h_source.html" target="_top" xlink:title="campaign/campaign.h">
<polygon fill="#ffffff" stroke="#000000" points="658.5,-291.5 658.5,-310.5 783.5,-310.5 783.5,-291.5 658.5,-291.5"/>
<text text-anchor="middle" x="721" y="-298.5" font-family="Helvetica,sans-Serif" font-size="10.00" fill="#000000">campaign/campaign.h</text>
</a>
</g>
</g>
<!-- Node4&#45;&gt;Node6 -->
<g id="edge7" class="edge">
<title>Node4&#45;&gt;Node6</title>
<path fill="none" stroke="#191970" d="M1020.2081,-459.4882C987.2071,-451.9541 942.8096,-439.8742 906,-423 841.1488,-393.271 773.1833,-342.6009 740.64,-316.924"/>
<polygon fill="#191970" stroke="#191970" points="742.7941,-314.1653 732.7917,-310.672 738.4325,-319.6404 742.7941,-314.1653"/>
</g>
<!-- Node4&#45;&gt;Node27 -->
<g id="edge38" class="edge">
<title>Node4&#45;&gt;Node27</title>
<path fill="none" stroke="#191970" d="M1102.8969,-459.3733C1137.0911,-449.9404 1189.3415,-435.5265 1226.5042,-425.2747"/>
<polygon fill="#191970" stroke="#191970" points="1227.8493,-428.5345 1236.5584,-422.5011 1225.9877,-421.7865 1227.8493,-428.5345"/>
</g>
<!-- Node4&#45;&gt;Node44 -->
<g id="edge109" class="edge">
<title>Node4&#45;&gt;Node44</title>
<path fill="none" stroke="#191970" d="M1081.6506,-459.4305C1122.2453,-431.2313 1246.2848,-346.9313 1357,-291 1382.0566,-278.3419 1411.4606,-266.5475 1434.1295,-258.071"/>
<polygon fill="#191970" stroke="#191970" points="1435.545,-261.2794 1443.715,-254.5338 1433.1216,-254.7122 1435.545,-261.2794"/>
</g>
<!-- Node6&#45;&gt;Node2 -->
<g id="edge8" class="edge">
<title>Node6&#45;&gt;Node2</title>
<path fill="none" stroke="#191970" d="M717.3244,-291.4643C706.1,-260.5561 675.9186,-162.2384 725,-112 760.8435,-75.3116 1555.4633,-67.4747 1726.6791,-66.2099"/>
<polygon fill="#191970" stroke="#191970" points="1726.8464,-69.7089 1736.8211,-66.1374 1726.7963,-62.7091 1726.8464,-69.7089"/>
</g>
<!-- Node6&#45;&gt;Node5 -->
<g id="edge9" class="edge">
<title>Node6&#45;&gt;Node5</title>
<path fill="none" stroke="#191970" d="M738.4782,-291.4509C774.4852,-271.7788 857.1121,-226.6363 899.642,-203.4005"/>
<polygon fill="#191970" stroke="#191970" points="901.4685,-206.3909 908.5661,-198.5249 898.1123,-200.248 901.4685,-206.3909"/>
</g>
<!-- Node7 -->
<g id="node8" class="node">
<title>Node7</title>
<g id="a_node8"><a xlink:href="httpclient_8h_source.html" target="_top" xlink:title="http/httpclient.h">
<polygon fill="#ffffff" stroke="#ff0000" points="199.5,-235.5 199.5,-254.5 294.5,-254.5 294.5,-235.5 199.5,-235.5"/>
<text text-anchor="middle" x="247" y="-242.5" font-family="Helvetica,sans-Serif" font-size="10.00" fill="#000000">http/httpclient.h</text>
</a>
</g>
</g>
<!-- Node6&#45;&gt;Node7 -->
<g id="edge10" class="edge">
<title>Node6&#45;&gt;Node7</title>
<path fill="none" stroke="#191970" d="M658.0565,-293.5636C565.5483,-282.6344 394.1885,-262.3894 304.7432,-251.822"/>
<polygon fill="#191970" stroke="#191970" points="305.1175,-248.3419 294.7759,-250.6444 304.2961,-255.2936 305.1175,-248.3419"/>
</g>
<!-- Node25 -->
<g id="node21" class="node">
<title>Node25</title>
<g id="a_node21"><a xlink:href="utils_8h_source.html" target="_top" xlink:title="utilities/utils.h">
<polygon fill="#ffffff" stroke="#ff0000" points="320,-118 320,-137 406,-137 406,-118 320,-118"/>
<text text-anchor="middle" x="363" y="-125" font-family="Helvetica,sans-Serif" font-size="10.00" fill="#000000">utilities/utils.h</text>
</a>
</g>
</g>
<!-- Node6&#45;&gt;Node25 -->
<g id="edge37" class="edge">
<title>Node6&#45;&gt;Node25</title>
<path fill="none" stroke="#191970" d="M658.3549,-293.1812C590.8676,-282.0728 483.1991,-256.2941 409,-199 391.3664,-185.3839 378.5354,-162.9685 370.9738,-146.8633"/>
<polygon fill="#191970" stroke="#191970" points="374.0118,-145.0787 366.7681,-137.347 367.6091,-147.9084 374.0118,-145.0787"/>
</g>
<!-- Node7&#45;&gt;Node1 -->
<g id="edge12" class="edge">
<title>Node7&#45;&gt;Node1</title>
<path fill="none" stroke="#191970" d="M223.0072,-235.4244C189.6735,-220.797 130.0679,-189.5865 100,-143 88.6481,-125.4117 82.37,-102.1061 79.111,-85.7591"/>
<polygon fill="#191970" stroke="#191970" points="82.5194,-84.9361 77.3119,-75.7094 75.629,-86.1697 82.5194,-84.9361"/>
</g>
<!-- Node8 -->
<g id="node9" class="node">
<title>Node8</title>
<polygon fill="#ffffff" stroke="#bfbfbf" points="218,-118 218,-137 264,-137 264,-118 218,-118"/>
<text text-anchor="middle" x="241" y="-125" font-family="Helvetica,sans-Serif" font-size="10.00" fill="#000000">future</text>
</g>
<!-- Node7&#45;&gt;Node8 -->
<g id="edge11" class="edge">
<title>Node7&#45;&gt;Node8</title>
<path fill="none" stroke="#191970" d="M246.509,-235.3845C245.5289,-216.1913 243.3125,-172.786 242.0093,-147.2663"/>
<polygon fill="#191970" stroke="#191970" points="245.5033,-147.0568 241.4978,-137.2484 238.5124,-147.4139 245.5033,-147.0568"/>
</g>
<!-- Node9 -->
<g id="node10" class="node">
<title>Node9</title>
<polygon fill="#ffffff" stroke="#bfbfbf" points="259.5,-56.5 259.5,-75.5 324.5,-75.5 324.5,-56.5 259.5,-56.5"/>
<text text-anchor="middle" x="292" y="-63.5" font-family="Helvetica,sans-Serif" font-size="10.00" fill="#000000">curl/curl.h</text>
</g>
<!-- Node7&#45;&gt;Node9 -->
<g id="edge13" class="edge">
<title>Node7&#45;&gt;Node9</title>
<path fill="none" stroke="#191970" d="M220.399,-235.397C204.4127,-228.0839 185.4002,-216.291 176,-199 157.5317,-165.0289 154.2747,-143.9863 176,-112 192.3339,-87.9514 223.4158,-76.4753 249.297,-70.9988"/>
<polygon fill="#191970" stroke="#191970" points="250.1019,-74.4088 259.2821,-69.1196 248.8072,-67.5296 250.1019,-74.4088"/>
</g>
<!-- Node11 -->
<g id="node11" class="node">
<title>Node11</title>
<polygon fill="#ffffff" stroke="#bfbfbf" points="370.5,-56.5 370.5,-75.5 439.5,-75.5 439.5,-56.5 370.5,-56.5"/>
<text text-anchor="middle" x="405" y="-63.5" font-family="Helvetica,sans-Serif" font-size="10.00" fill="#000000">json/json.h</text>
</g>
<!-- Node7&#45;&gt;Node11 -->
<g id="edge14" class="edge">
<title>Node7&#45;&gt;Node11</title>
<path fill="none" stroke="#191970" d="M238.8949,-235.1713C220.3575,-211.4501 178.7224,-150.2063 209,-112 218.4324,-100.0976 305.3953,-83.1546 360.2701,-73.501"/>
<polygon fill="#191970" stroke="#191970" points="361.1993,-76.892 370.4508,-71.7287 359.9986,-69.9957 361.1993,-76.892"/>
</g>
<!-- Node12 -->
<g id="node12" class="node">
<title>Node12</title>
<g id="a_node12"><a xlink:href="httpinterface_8h_source.html" target="_top" xlink:title="httpinterface.h">
<polygon fill="#ffffff" stroke="#000000" points="418.5,-179.5 418.5,-198.5 507.5,-198.5 507.5,-179.5 418.5,-179.5"/>
<text text-anchor="middle" x="463" y="-186.5" font-family="Helvetica,sans-Serif" font-size="10.00" fill="#000000">httpinterface.h</text>
</a>
</g>
</g>
<!-- Node7&#45;&gt;Node12 -->
<g id="edge15" class="edge">
<title>Node7&#45;&gt;Node12</title>
<path fill="none" stroke="#191970" d="M284.1317,-235.3733C320.8267,-225.8598 377.0639,-211.2797 416.6651,-201.0127"/>
<polygon fill="#191970" stroke="#191970" points="417.5512,-204.3988 426.3528,-198.5011 415.7944,-197.6228 417.5512,-204.3988"/>
</g>
<!-- Node14 -->
<g id="node14" class="node">
<title>Node14</title>
<g id="a_node14"><a xlink:href="logging_8h_source.html" target="_top" xlink:title="logging/logging.h">
<polygon fill="#ffffff" stroke="#ff0000" points="500.5,-118 500.5,-137 601.5,-137 601.5,-118 500.5,-118"/>
<text text-anchor="middle" x="551" y="-125" font-family="Helvetica,sans-Serif" font-size="10.00" fill="#000000">logging/logging.h</text>
</a>
</g>
</g>
<!-- Node7&#45;&gt;Node14 -->
<g id="edge35" class="edge">
<title>Node7&#45;&gt;Node14</title>
<path fill="none" stroke="#191970" d="M294.7395,-242.0212C362.4092,-236.9461 481.8131,-224.5851 516,-199 532.8828,-186.365 542.074,-163.3925 546.7448,-146.8932"/>
<polygon fill="#191970" stroke="#191970" points="550.148,-147.7114 549.1969,-137.1593 543.36,-146.0014 550.148,-147.7114"/>
</g>
<!-- Node7&#45;&gt;Node25 -->
<g id="edge36" class="edge">
<title>Node7&#45;&gt;Node25</title>
<path fill="none" stroke="#191970" d="M256.4928,-235.3845C276.1207,-215.5028 321.3974,-169.6406 346.1274,-144.5908"/>
<polygon fill="#191970" stroke="#191970" points="348.8413,-146.8237 353.3761,-137.2484 343.8598,-141.9058 348.8413,-146.8237"/>
</g>
<!-- Node12&#45;&gt;Node2 -->
<g id="edge17" class="edge">
<title>Node12&#45;&gt;Node2</title>
<path fill="none" stroke="#191970" d="M463.2663,-179.4563C464.3091,-162.6153 469.1482,-127.9038 491,-112 542.4572,-74.5492 1534.5999,-67.2269 1726.8816,-66.1577"/>
<polygon fill="#191970" stroke="#191970" points="1726.9367,-69.6576 1736.9177,-66.1036 1726.8989,-62.6577 1726.9367,-69.6576"/>
</g>
<!-- Node12&#45;&gt;Node8 -->
<g id="edge16" class="edge">
<title>Node12&#45;&gt;Node8</title>
<path fill="none" stroke="#191970" d="M418.349,-179.9085C380.5365,-171.7332 325.1206,-158.6261 278,-143 275.9053,-142.3054 273.7623,-141.5452 271.615,-140.7464"/>
<polygon fill="#191970" stroke="#191970" points="272.897,-137.4897 262.3101,-137.0801 270.3308,-144.0024 272.897,-137.4897"/>
</g>
<!-- Node12&#45;&gt;Node9 -->
<g id="edge19" class="edge">
<title>Node12&#45;&gt;Node9</title>
<path fill="none" stroke="#191970" d="M418.3176,-180.5659C379.0109,-172.2662 325.8064,-158.5963 311,-143 296.4578,-127.682 292.5213,-103.0742 291.7018,-85.8097"/>
<polygon fill="#191970" stroke="#191970" points="295.1995,-85.6366 291.5332,-75.6964 288.2005,-85.7533 295.1995,-85.6366"/>
</g>
<!-- Node12&#45;&gt;Node11 -->
<g id="edge20" class="edge">
<title>Node12&#45;&gt;Node11</title>
<path fill="none" stroke="#191970" d="M458.4488,-179.3484C448.8772,-159.0499 426.5135,-111.6235 413.9585,-84.9981"/>
<polygon fill="#191970" stroke="#191970" points="416.9608,-83.1588 409.53,-75.6068 410.6294,-86.1444 416.9608,-83.1588"/>
</g>
<!-- Node13 -->
<g id="node13" class="node">
<title>Node13</title>
<polygon fill="#ffffff" stroke="#bfbfbf" points="734.5,-118 734.5,-137 779.5,-137 779.5,-118 734.5,-118"/>
<text text-anchor="middle" x="757" y="-125" font-family="Helvetica,sans-Serif" font-size="10.00" fill="#000000">utility</text>
</g>
<!-- Node12&#45;&gt;Node13 -->
<g id="edge18" class="edge">
<title>Node12&#45;&gt;Node13</title>
<path fill="none" stroke="#191970" d="M507.6523,-179.6595C567.2884,-167.1846 671.5392,-145.377 724.35,-134.3298"/>
<polygon fill="#191970" stroke="#191970" points="725.1263,-137.7433 734.1978,-132.2698 723.693,-130.8916 725.1263,-137.7433"/>
</g>
<!-- Node12&#45;&gt;Node14 -->
<g id="edge21" class="edge">
<title>Node12&#45;&gt;Node14</title>
<path fill="none" stroke="#191970" d="M476.75,-179.3906C490.6991,-169.6421 512.5098,-154.3994 528.8897,-142.9521"/>
<polygon fill="#191970" stroke="#191970" points="531.1548,-145.6392 537.3466,-137.0419 527.1449,-139.9015 531.1548,-145.6392"/>
</g>
<!-- Node12&#45;&gt;Node21 -->
<g id="edge24" class="edge">
<title>Node12&#45;&gt;Node21</title>
<path fill="none" stroke="#191970" d="M507.6075,-187.3231C737.4345,-178.6835 1787.0171,-139.228 2042.7135,-129.6159"/>
<polygon fill="#191970" stroke="#191970" points="2043.0231,-133.1068 2052.8845,-129.2336 2042.7601,-126.1118 2043.0231,-133.1068"/>
</g>
<!-- Node12&#45;&gt;Node25 -->
<g id="edge29" class="edge">
<title>Node12&#45;&gt;Node25</title>
<path fill="none" stroke="#191970" d="M447.375,-179.3906C431.2302,-169.4616 405.8178,-153.833 387.0977,-142.3201"/>
<polygon fill="#191970" stroke="#191970" points="388.8669,-139.2992 378.5153,-137.0419 385.1998,-145.2619 388.8669,-139.2992"/>
</g>
<!-- Node18 -->
<g id="node15" class="node">
<title>Node18</title>
<g id="a_node15"><a xlink:href="logging__config_8h_source.html" target="_top" xlink:title="logging_config.h">
<polygon fill="#ffffff" stroke="#ff0000" points="658,-56.5 658,-75.5 754,-75.5 754,-56.5 658,-56.5"/>
<text text-anchor="middle" x="706" y="-63.5" font-family="Helvetica,sans-Serif" font-size="10.00" fill="#000000">logging_config.h</text>
</a>
</g>
</g>
<!-- Node14&#45;&gt;Node18 -->
<g id="edge22" class="edge">
<title>Node14&#45;&gt;Node18</title>
<path fill="none" stroke="#191970" d="M575.2188,-117.8906C601.3806,-107.5103 643.2429,-90.9004 672.5388,-79.2766"/>
<polygon fill="#191970" stroke="#191970" points="673.9471,-82.4833 681.9513,-75.5419 671.3654,-75.9767 673.9471,-82.4833"/>
</g>
<!-- Node20 -->
<g id="node16" class="node">
<title>Node20</title>
<polygon fill="#ffffff" stroke="#bfbfbf" points="1260.5,-.5 1260.5,-19.5 1317.5,-19.5 1317.5,-.5 1260.5,-.5"/>
<text text-anchor="middle" x="1289" y="-7.5" font-family="Helvetica,sans-Serif" font-size="10.00" fill="#000000">ostream</text>
</g>
<!-- Node18&#45;&gt;Node20 -->
<g id="edge23" class="edge">
<title>Node18&#45;&gt;Node20</title>
<path fill="none" stroke="#191970" d="M754.2053,-61.3696C867.2236,-50.5137 1147.4717,-23.5945 1250.3384,-13.7136"/>
<polygon fill="#191970" stroke="#191970" points="1250.6757,-17.1974 1260.2952,-12.7572 1250.0063,-10.2295 1250.6757,-17.1974"/>
</g>
<!-- Node21&#45;&gt;Node11 -->
<g id="edge27" class="edge">
<title>Node21&#45;&gt;Node11</title>
<path fill="none" stroke="#191970" d="M2052.9649,-125.8572C1973.5782,-123.0247 1805.7908,-117.0407 1664,-112 1212.8902,-95.963 1100.0653,-93.2422 649,-76 579.5334,-73.3446 498.9544,-69.9883 449.9963,-67.9184"/>
<polygon fill="#191970" stroke="#191970" points="449.8861,-64.4107 439.747,-67.4843 449.5899,-71.4044 449.8861,-64.4107"/>
</g>
<!-- Node22 -->
<g id="node18" class="node">
<title>Node22</title>
<polygon fill="#ffffff" stroke="#bfbfbf" points="2432,-56.5 2432,-75.5 2496,-75.5 2496,-56.5 2432,-56.5"/>
<text text-anchor="middle" x="2464" y="-63.5" font-family="Helvetica,sans-Serif" font-size="10.00" fill="#000000">algorithm</text>
</g>
<!-- Node21&#45;&gt;Node22 -->
<g id="edge25" class="edge">
<title>Node21&#45;&gt;Node22</title>
<path fill="none" stroke="#191970" d="M2145.2275,-119.711C2216.6615,-107.6748 2352.8111,-84.7346 2421.752,-73.1185"/>
<polygon fill="#191970" stroke="#191970" points="2422.5406,-76.5351 2431.82,-71.4221 2421.3775,-69.6323 2422.5406,-76.5351"/>
</g>
<!-- Node23 -->
<g id="node19" class="node">
<title>Node23</title>
<polygon fill="#ffffff" stroke="#bfbfbf" points="1984.5,-56.5 1984.5,-75.5 2049.5,-75.5 2049.5,-56.5 1984.5,-56.5"/>
<text text-anchor="middle" x="2017" y="-63.5" font-family="Helvetica,sans-Serif" font-size="10.00" fill="#000000">stdexcept</text>
</g>
<!-- Node21&#45;&gt;Node23 -->
<g id="edge26" class="edge">
<title>Node21&#45;&gt;Node23</title>
<path fill="none" stroke="#191970" d="M2086.1875,-117.8906C2073.3099,-108.2324 2053.2416,-93.1812 2038.028,-81.771"/>
<polygon fill="#191970" stroke="#191970" points="2039.8226,-78.7419 2029.7225,-75.5419 2035.6225,-84.3419 2039.8226,-78.7419"/>
</g>
<!-- Node24 -->
<g id="node20" class="node">
<title>Node24</title>
<polygon fill="#ffffff" stroke="#bfbfbf" points="2189.5,-56.5 2189.5,-75.5 2308.5,-75.5 2308.5,-56.5 2189.5,-56.5"/>
<text text-anchor="middle" x="2249" y="-63.5" font-family="Helvetica,sans-Serif" font-size="10.00" fill="#000000">boost/filesystem.hpp</text>
</g>
<!-- Node21&#45;&gt;Node24 -->
<g id="edge28" class="edge">
<title>Node21&#45;&gt;Node24</title>
<path fill="none" stroke="#191970" d="M2122.4375,-117.8906C2147.6453,-107.5554 2187.9153,-91.0447 2216.2477,-79.4284"/>
<polygon fill="#191970" stroke="#191970" points="2217.8023,-82.5739 2225.7271,-75.5419 2215.1468,-76.0971 2217.8023,-82.5739"/>
</g>
<!-- Node25&#45;&gt;Node1 -->
<g id="edge31" class="edge">
<title>Node25&#45;&gt;Node1</title>
<path fill="none" stroke="#191970" d="M319.7225,-118.2262C264.1139,-106.3101 168.3997,-85.7999 114.9636,-74.3493"/>
<polygon fill="#191970" stroke="#191970" points="115.6921,-70.9261 105.1807,-72.253 114.2254,-77.7707 115.6921,-70.9261"/>
</g>
<!-- Node25&#45;&gt;Node2 -->
<g id="edge32" class="edge">
<title>Node25&#45;&gt;Node2</title>
<path fill="none" stroke="#191970" d="M406.3584,-119.2416C422.5103,-116.4782 441.0373,-113.6769 458,-112 715.2007,-86.5737 1551.2532,-69.8635 1726.5704,-66.5899"/>
<polygon fill="#191970" stroke="#191970" points="1726.7687,-70.0869 1736.7021,-66.402 1726.6389,-63.0881 1726.7687,-70.0869"/>
</g>
<!-- Node25&#45;&gt;Node9 -->
<g id="edge33" class="edge">
<title>Node25&#45;&gt;Node9</title>
<path fill="none" stroke="#191970" d="M351.9063,-117.8906C341.0285,-108.4683 324.2252,-93.9134 311.18,-82.6137"/>
<polygon fill="#191970" stroke="#191970" points="313.1004,-79.6466 303.2502,-75.7449 308.5173,-84.9377 313.1004,-79.6466"/>
</g>
<!-- Node25&#45;&gt;Node11 -->
<g id="edge34" class="edge">
<title>Node25&#45;&gt;Node11</title>
<path fill="none" stroke="#191970" d="M369.5625,-117.8906C375.6908,-108.917 384.9985,-95.2879 392.5372,-84.2491"/>
<polygon fill="#191970" stroke="#191970" points="395.5956,-85.9768 398.345,-75.7449 389.815,-82.029 395.5956,-85.9768"/>
</g>
<!-- Node25&#45;&gt;Node24 -->
<g id="edge30" class="edge">
<title>Node25&#45;&gt;Node24</title>
<path fill="none" stroke="#191970" d="M406.1499,-121.2112C430.9212,-117.8681 462.6447,-114.0375 491,-112 1186.28,-62.0411 1362.4246,-102.3215 2059,-76 2098.6563,-74.5015 2142.9372,-72.2071 2178.7681,-70.1938"/>
<polygon fill="#191970" stroke="#191970" points="2179.3335,-73.6675 2189.1193,-69.6069 2178.9372,-66.6787 2179.3335,-73.6675"/>
</g>
<!-- Node27&#45;&gt;Node12 -->
<g id="edge75" class="edge">
<title>Node27&#45;&gt;Node12</title>
<path fill="none" stroke="#191970" d="M1236.5397,-403.4467C1107.4039,-367.6466 652.1854,-241.4474 507.4983,-201.3362"/>
<polygon fill="#191970" stroke="#191970" points="508.1979,-197.8982 497.6263,-198.5994 506.3278,-204.6437 508.1979,-197.8982"/>
</g>
<!-- Node28 -->
<g id="node23" class="node">
<title>Node28</title>
<g id="a_node23"><a xlink:href="config_8h_source.html" target="_top" xlink:title="config/config.h">
<polygon fill="#ffffff" stroke="#000000" points="1839.5,-347.5 1839.5,-366.5 1926.5,-366.5 1926.5,-347.5 1839.5,-347.5"/>
<text text-anchor="middle" x="1883" y="-354.5" font-family="Helvetica,sans-Serif" font-size="10.00" fill="#000000">config/config.h</text>
</a>
</g>
</g>
<!-- Node27&#45;&gt;Node28 -->
<g id="edge39" class="edge">
<title>Node27&#45;&gt;Node28</title>
<path fill="none" stroke="#191970" d="M1319.0226,-408.6058C1431.4428,-398.319 1711.0987,-372.7295 1829.1054,-361.9315"/>
<polygon fill="#191970" stroke="#191970" points="1829.6999,-365.3918 1839.3393,-360.9951 1829.062,-358.421 1829.6999,-365.3918"/>
</g>
<!-- Node41 -->
<g id="node35" class="node">
<title>Node41</title>
<g id="a_node35"><a xlink:href="invstorage_8h_source.html" target="_top" xlink:title="storage/invstorage.h">
<polygon fill="#ffffff" stroke="#000000" points="1187.5,-291.5 1187.5,-310.5 1304.5,-310.5 1304.5,-291.5 1187.5,-291.5"/>
<text text-anchor="middle" x="1246" y="-298.5" font-family="Helvetica,sans-Serif" font-size="10.00" fill="#000000">storage/invstorage.h</text>
</a>
</g>
</g>
<!-- Node27&#45;&gt;Node41 -->
<g id="edge76" class="edge">
<title>Node27&#45;&gt;Node41</title>
<path fill="none" stroke="#191970" d="M1268.8685,-403.4509C1264.7726,-385.1013 1255.7301,-344.5908 1250.3235,-320.3693"/>
<polygon fill="#191970" stroke="#191970" points="1253.7206,-319.5222 1248.1261,-310.5249 1246.8888,-321.0472 1253.7206,-319.5222"/>
</g>
<!-- Node28&#45;&gt;Node2 -->
<g id="edge42" class="edge">
<title>Node28&#45;&gt;Node2</title>
<path fill="none" stroke="#191970" d="M1881.6004,-347.4602C1878.8731,-325.0399 1875.327,-268.3756 1903,-235 1935.2658,-196.0851 2027.6667,-222.5509 2002,-179 1957.3932,-103.3118 1846.3806,-77.8005 1791.196,-69.6238"/>
<polygon fill="#191970" stroke="#191970" points="1791.6396,-66.1519 1781.2546,-68.25 1790.6813,-73.086 1791.6396,-66.1519"/>
</g>
<!-- Node28&#45;&gt;Node5 -->
<g id="edge43" class="edge">
<title>Node28&#45;&gt;Node5</title>
<path fill="none" stroke="#191970" d="M1839.3868,-356.024C1663.9977,-351.9393 1017.8349,-335.2925 982,-311 947.4126,-287.5532 933.804,-237.105 928.7542,-208.9792"/>
<polygon fill="#191970" stroke="#191970" points="932.1547,-208.0772 927.1219,-198.754 925.2422,-209.1808 932.1547,-208.0772"/>
</g>
<!-- Node28&#45;&gt;Node18 -->
<g id="edge61" class="edge">
<title>Node28&#45;&gt;Node18</title>
<path fill="none" stroke="#191970" d="M1839.398,-356.1716C1706.057,-353.3204 1305.1592,-342.304 1179,-311 1119.9158,-296.3394 1105.9628,-286.7134 1054,-255 1007.8459,-226.8317 1008.5095,-200.7362 959,-179 862.6529,-136.7006 802.6502,-214.0102 725,-143 709.2554,-128.6017 705.6097,-103.423 705.1847,-85.7895"/>
<polygon fill="#191970" stroke="#191970" points="708.6851,-85.7427 705.2661,-75.7147 701.6853,-85.6861 708.6851,-85.7427"/>
</g>
<!-- Node28&#45;&gt;Node21 -->
<g id="edge74" class="edge">
<title>Node28&#45;&gt;Node21</title>
<path fill="none" stroke="#191970" d="M1926.5028,-352.2167C1969.4474,-346.3826 2036.2917,-334.2745 2090,-311 2130.4935,-293.4521 2151.3935,-294.026 2172,-255 2179.845,-240.1426 2176.701,-199.6142 2165,-179 2156.2309,-163.551 2140.7902,-151.1144 2127.0477,-142.3354"/>
<polygon fill="#191970" stroke="#191970" points="2128.7219,-139.2581 2118.3492,-137.0996 2125.1119,-145.2554 2128.7219,-139.2581"/>
</g>
<!-- Node28&#45;&gt;Node22 -->
<g id="edge40" class="edge">
<title>Node28&#45;&gt;Node22</title>
<path fill="none" stroke="#191970" d="M1926.6984,-355.734C2041.3743,-352.0454 2348.7682,-339.6983 2446,-311 2505.5018,-293.4378 2569,-307.0394 2569,-245 2569,-245 2569,-245 2569,-189 2569,-140.447 2521.0875,-101.3637 2489.993,-81.1116"/>
<polygon fill="#191970" stroke="#191970" points="2491.668,-78.0305 2481.3386,-75.6737 2487.9437,-83.9576 2491.668,-78.0305"/>
</g>
<!-- Node28&#45;&gt;Node24 -->
<g id="edge44" class="edge">
<title>Node28&#45;&gt;Node24</title>
<path fill="none" stroke="#191970" d="M1926.5072,-355.6078C2047.0173,-351.4278 2378.9802,-337.6021 2420,-311 2495.4103,-262.0949 2512.2404,-182.1102 2456,-112 2438.8766,-90.6538 2371.8299,-78.5869 2318.6194,-72.2208"/>
<polygon fill="#191970" stroke="#191970" points="2318.855,-68.7249 2308.5207,-71.06 2318.0556,-75.6791 2318.855,-68.7249"/>
</g>
<!-- Node29 -->
<g id="node24" class="node">
<title>Node29</title>
<polygon fill="#ffffff" stroke="#bfbfbf" points="1399,-291.5 1399,-310.5 1459,-310.5 1459,-291.5 1399,-291.5"/>
<text text-anchor="middle" x="1429" y="-298.5" font-family="Helvetica,sans-Serif" font-size="10.00" fill="#000000">iostream</text>
</g>
<!-- Node28&#45;&gt;Node29 -->
<g id="edge41" class="edge">
<title>Node28&#45;&gt;Node29</title>
<path fill="none" stroke="#191970" d="M1839.3924,-354.1929C1765.2405,-348.9799 1609.7507,-336.1449 1469.2312,-311.0061"/>
<polygon fill="#191970" stroke="#191970" points="1469.6053,-307.5169 1459.141,-309.1748 1468.3552,-314.4044 1469.6053,-307.5169"/>
</g>
<!-- Node30 -->
<g id="node25" class="node">
<title>Node30</title>
<polygon fill="#ffffff" stroke="#bfbfbf" points="1477,-291.5 1477,-310.5 1627,-310.5 1627,-291.5 1477,-291.5"/>
<text text-anchor="middle" x="1552" y="-298.5" font-family="Helvetica,sans-Serif" font-size="10.00" fill="#000000">boost/program_options.hpp</text>
</g>
<!-- Node28&#45;&gt;Node30 -->
<g id="edge45" class="edge">
<title>Node28&#45;&gt;Node30</title>
<path fill="none" stroke="#191970" d="M1839.3872,-349.6214C1782.9816,-340.0785 1684.1897,-323.3644 1618.4257,-312.2382"/>
<polygon fill="#191970" stroke="#191970" points="1618.6099,-308.7197 1608.1661,-310.5024 1617.4421,-315.6216 1618.6099,-308.7197"/>
</g>
<!-- Node31 -->
<g id="node26" class="node">
<title>Node31</title>
<polygon fill="#ffffff" stroke="#bfbfbf" points="2315.5,-112.5 2315.5,-142.5 2428.5,-142.5 2428.5,-112.5 2315.5,-112.5"/>
<text text-anchor="start" x="2323.5" y="-130.5" font-family="Helvetica,sans-Serif" font-size="10.00" fill="#000000">boost/property_tree</text>
<text text-anchor="middle" x="2372" y="-119.5" font-family="Helvetica,sans-Serif" font-size="10.00" fill="#000000">/ini_parser.hpp</text>
</g>
<!-- Node28&#45;&gt;Node31 -->
<g id="edge46" class="edge">
<title>Node28&#45;&gt;Node31</title>
<path fill="none" stroke="#191970" d="M1926.5301,-355.0376C2042.2677,-349.544 2351.5513,-332.9649 2392,-311 2426.2993,-292.3744 2446.354,-272.6318 2436,-235 2427.2778,-203.2989 2406.4933,-171.5012 2390.9612,-150.8052"/>
<polygon fill="#191970" stroke="#191970" points="2393.5523,-148.4335 2384.6767,-142.6478 2388.0071,-152.7056 2393.5523,-148.4335"/>
</g>
<!-- Node32 -->
<g id="node27" class="node">
<title>Node32</title>
<g id="a_node27"><a xlink:href="bootloader_8h_source.html" target="_top" xlink:title="bootloader/bootloader.h">
<polygon fill="#ffffff" stroke="#ff0000" points="1645.5,-291.5 1645.5,-310.5 1778.5,-310.5 1778.5,-291.5 1645.5,-291.5"/>
<text text-anchor="middle" x="1712" y="-298.5" font-family="Helvetica,sans-Serif" font-size="10.00" fill="#000000">bootloader/bootloader.h</text>
</a>
</g>
</g>
<!-- Node28&#45;&gt;Node32 -->
<g id="edge47" class="edge">
<title>Node28&#45;&gt;Node32</title>
<path fill="none" stroke="#191970" d="M1853.6041,-347.3733C1825.1693,-338.0613 1781.9123,-323.8953 1750.6919,-313.671"/>
<polygon fill="#191970" stroke="#191970" points="1751.605,-310.2872 1741.0124,-310.5011 1749.4264,-316.9396 1751.605,-310.2872"/>
</g>
<!-- Node34 -->
<g id="node28" class="node">
<title>Node34</title>
<g id="a_node28"><a xlink:href="keymanager__config_8h_source.html" target="_top" xlink:title="crypto/keymanager_config.h">
<polygon fill="#ffffff" stroke="#000000" points="2210.5,-291.5 2210.5,-310.5 2365.5,-310.5 2365.5,-291.5 2210.5,-291.5"/>
<text text-anchor="middle" x="2288" y="-298.5" font-family="Helvetica,sans-Serif" font-size="10.00" fill="#000000">crypto/keymanager_config.h</text>
</a>
</g>
</g>
<!-- Node28&#45;&gt;Node34 -->
<g id="edge48" class="edge">
<title>Node28&#45;&gt;Node34</title>
<path fill="none" stroke="#191970" d="M1926.7269,-350.9538C1994.2416,-341.6184 2124.8589,-323.5578 2209.1544,-311.9021"/>
<polygon fill="#191970" stroke="#191970" points="2209.7711,-315.3502 2219.1974,-310.5134 2208.8122,-308.4162 2209.7711,-315.3502"/>
</g>
<!-- Node35 -->
<g id="node29" class="node">
<title>Node35</title>
<g id="a_node29"><a xlink:href="p11__config_8h_source.html" target="_top" xlink:title="crypto/p11_config.h">
<polygon fill="#ffffff" stroke="#000000" points="2315,-235.5 2315,-254.5 2427,-254.5 2427,-235.5 2315,-235.5"/>
<text text-anchor="middle" x="2371" y="-242.5" font-family="Helvetica,sans-Serif" font-size="10.00" fill="#000000">crypto/p11_config.h</text>
</a>
</g>
</g>
<!-- Node28&#45;&gt;Node35 -->
<g id="edge60" class="edge">
<title>Node28&#45;&gt;Node35</title>
<path fill="none" stroke="#191970" d="M1926.8892,-356.1967C2041.8742,-353.6403 2345.1042,-343.8213 2375,-311 2386.1966,-298.7078 2383.4427,-279.1971 2378.9403,-264.5713"/>
<polygon fill="#191970" stroke="#191970" points="2382.1713,-263.2106 2375.5273,-254.9579 2375.5747,-265.5527 2382.1713,-263.2106"/>
</g>
<!-- Node36 -->
<g id="node30" class="node">
<title>Node36</title>
<g id="a_node30"><a xlink:href="config__utils_8h_source.html" target="_top" xlink:title="utilities/config_utils.h">
<polygon fill="#ffffff" stroke="#000000" points="1871.5,-179.5 1871.5,-198.5 1992.5,-198.5 1992.5,-179.5 1871.5,-179.5"/>
<text text-anchor="middle" x="1932" y="-186.5" font-family="Helvetica,sans-Serif" font-size="10.00" fill="#000000">utilities/config_utils.h</text>
</a>
</g>
</g>
<!-- Node28&#45;&gt;Node36 -->
<g id="edge73" class="edge">
<title>Node28&#45;&gt;Node36</title>
<path fill="none" stroke="#191970" d="M1878.5109,-347.4976C1869.0955,-326.0943 1849.6871,-273.0146 1869,-235 1875.861,-221.4951 1888.7532,-211.0099 1901.0966,-203.4839"/>
<polygon fill="#191970" stroke="#191970" points="1902.9003,-206.4849 1909.8934,-198.5258 1899.4633,-200.3868 1902.9003,-206.4849"/>
</g>
<!-- Node37 -->
<g id="node31" class="node">
<title>Node37</title>
<g id="a_node31"><a xlink:href="packagemanagerconfig_8h_source.html" target="_top" xlink:title="package_manager/packagemanagerconfig.h">
<polygon fill="#ffffff" stroke="#ff0000" points="1911.5,-235.5 1911.5,-254.5 2144.5,-254.5 2144.5,-235.5 1911.5,-235.5"/>
<text text-anchor="middle" x="2028" y="-242.5" font-family="Helvetica,sans-Serif" font-size="10.00" fill="#000000">package_manager/packagemanagerconfig.h</text>
</a>
</g>
</g>
<!-- Node28&#45;&gt;Node37 -->
<g id="edge62" class="edge">
<title>Node28&#45;&gt;Node37</title>
<path fill="none" stroke="#191970" d="M1926.6632,-352.6776C1977.258,-346.6617 2056.0068,-333.8411 2074,-311 2087.0723,-294.4057 2068.6407,-274.3813 2051.3683,-260.7726"/>
<polygon fill="#191970" stroke="#191970" points="2053.2403,-257.8032 2043.1254,-254.6505 2049.0665,-263.4228 2053.2403,-257.8032"/>
</g>
<!-- Node39 -->
<g id="node33" class="node">
<title>Node39</title>
<g id="a_node33"><a xlink:href="storage__config_8h_source.html" target="_top" xlink:title="storage/storage_config.h">
<polygon fill="#ffffff" stroke="#ff0000" points="1661.5,-235.5 1661.5,-254.5 1798.5,-254.5 1798.5,-235.5 1661.5,-235.5"/>
<text text-anchor="middle" x="1730" y="-242.5" font-family="Helvetica,sans-Serif" font-size="10.00" fill="#000000">storage/storage_config.h</text>
</a>
</g>
</g>
<!-- Node28&#45;&gt;Node39 -->
<g id="edge67" class="edge">
<title>Node28&#45;&gt;Node39</title>
<path fill="none" stroke="#191970" d="M1869.9553,-347.4509C1843.5334,-328.1094 1783.477,-284.1465 1751.2976,-260.5904"/>
<polygon fill="#191970" stroke="#191970" points="1753.1482,-257.6075 1743.0117,-254.5249 1749.0134,-263.2559 1753.1482,-257.6075"/>
</g>
<!-- Node40 -->
<g id="node34" class="node">
<title>Node40</title>
<g id="a_node34"><a xlink:href="telemetryconfig_8h_source.html" target="_top" xlink:title="telemetry/telemetryconfig.h">
<polygon fill="#ffffff" stroke="#ff0000" points="1911,-291.5 1911,-310.5 2065,-310.5 2065,-291.5 1911,-291.5"/>
<text text-anchor="middle" x="1988" y="-298.5" font-family="Helvetica,sans-Serif" font-size="10.00" fill="#000000">telemetry/telemetryconfig.h</text>
</a>
</g>
</g>
<!-- Node28&#45;&gt;Node40 -->
<g id="edge72" class="edge">
<title>Node28&#45;&gt;Node40</title>
<path fill="none" stroke="#191970" d="M1901.2896,-347.2455C1917.7762,-338.4527 1942.2352,-325.4079 1960.9765,-315.4125"/>
<polygon fill="#191970" stroke="#191970" points="1962.7435,-318.4368 1969.92,-310.6427 1959.4494,-312.2604 1962.7435,-318.4368"/>
</g>
<!-- Node34&#45;&gt;Node21 -->
<g id="edge59" class="edge">
<title>Node34&#45;&gt;Node21</title>
<path fill="none" stroke="#191970" d="M2285.5151,-291.3441C2279.2119,-268.6733 2260.5245,-211.5065 2225,-179 2204.6203,-160.3517 2176.581,-147.9959 2152.1263,-140.0743"/>
<polygon fill="#191970" stroke="#191970" points="2152.8386,-136.6319 2142.2519,-137.0477 2150.7871,-143.3246 2152.8386,-136.6319"/>
</g>
<!-- Node34&#45;&gt;Node35 -->
<g id="edge49" class="edge">
<title>Node34&#45;&gt;Node35</title>
<path fill="none" stroke="#191970" d="M2302.4575,-291.2455C2315.0732,-282.7337 2333.5944,-270.2375 2348.2045,-260.3801"/>
<polygon fill="#191970" stroke="#191970" points="2350.3761,-263.1371 2356.7082,-254.6427 2346.4609,-257.3343 2350.3761,-263.1371"/>
</g>
<!-- Node35&#45;&gt;Node2 -->
<g id="edge50" class="edge">
<title>Node35&#45;&gt;Node2</title>
<path fill="none" stroke="#191970" d="M2359.2449,-235.1652C2328.1167,-209.7395 2240.0274,-141.7449 2154,-112 2086.9487,-88.8163 1872.9712,-73.2093 1791.1948,-67.9559"/>
<polygon fill="#191970" stroke="#191970" points="1791.2059,-64.4497 1781.0048,-67.3112 1790.7638,-71.4358 1791.2059,-64.4497"/>
</g>
<!-- Node35&#45;&gt;Node24 -->
<g id="edge51" class="edge">
<title>Node35&#45;&gt;Node24</title>
<path fill="none" stroke="#191970" d="M2382.9931,-235.2247C2409.8979,-212.1326 2470.2689,-153.0647 2438,-112 2423.1465,-93.0978 2366.3573,-80.9926 2318.8711,-73.9707"/>
<polygon fill="#191970" stroke="#191970" points="2319.2917,-70.4953 2308.8977,-72.5488 2318.3036,-77.4252 2319.2917,-70.4953"/>
</g>
<!-- Node35&#45;&gt;Node31 -->
<g id="edge52" class="edge">
<title>Node35&#45;&gt;Node31</title>
<path fill="none" stroke="#191970" d="M2371.0818,-235.3845C2371.2337,-217.544 2371.5635,-178.7839 2371.7837,-152.9138"/>
<polygon fill="#191970" stroke="#191970" points="2375.2852,-152.7438 2371.8705,-142.7143 2368.2854,-152.6841 2375.2852,-152.7438"/>
</g>
<!-- Node35&#45;&gt;Node36 -->
<g id="edge53" class="edge">
<title>Node35&#45;&gt;Node36</title>
<path fill="none" stroke="#191970" d="M2314.9544,-237.8507C2235.3543,-227.6967 2089.5914,-209.1028 2002.6754,-198.0155"/>
<polygon fill="#191970" stroke="#191970" points="2002.9984,-194.5285 1992.6359,-196.7349 2002.1126,-201.4722 2002.9984,-194.5285"/>
</g>
<!-- Node36&#45;&gt;Node2 -->
<g id="edge54" class="edge">
<title>Node36&#45;&gt;Node2</title>
<path fill="none" stroke="#191970" d="M1923.0303,-179.0717C1908.5501,-163.436 1878.6395,-132.7247 1849,-112 1830.678,-99.1888 1808.3012,-87.7358 1790.4438,-79.4623"/>
<polygon fill="#191970" stroke="#191970" points="1791.5957,-76.1418 1781.0424,-75.2045 1788.7078,-82.5183 1791.5957,-76.1418"/>
</g>
<!-- Node36&#45;&gt;Node14 -->
<g id="edge56" class="edge">
<title>Node36&#45;&gt;Node14</title>
<path fill="none" stroke="#191970" d="M1871.3408,-179.9172C1868.1854,-179.5754 1865.0575,-179.266 1862,-179 1358.3157,-135.1831 1229.6692,-173.4426 725,-143 687.2771,-140.7245 645.0519,-136.9918 611.6451,-133.7596"/>
<polygon fill="#191970" stroke="#191970" points="611.8686,-130.2649 601.5754,-132.7748 611.1872,-137.2316 611.8686,-130.2649"/>
</g>
<!-- Node36&#45;&gt;Node21 -->
<g id="edge57" class="edge">
<title>Node36&#45;&gt;Node21</title>
<path fill="none" stroke="#191970" d="M1958.0938,-179.3906C1986.4036,-168.9652 2031.7768,-152.2559 2063.3592,-140.6252"/>
<polygon fill="#191970" stroke="#191970" points="2064.9151,-143.7821 2073.0895,-137.0419 2062.496,-137.2133 2064.9151,-143.7821"/>
</g>
<!-- Node36&#45;&gt;Node25 -->
<g id="edge58" class="edge">
<title>Node36&#45;&gt;Node25</title>
<path fill="none" stroke="#191970" d="M1871.3425,-179.897C1868.1867,-179.5605 1865.0582,-179.2577 1862,-179 1254.6097,-127.8132 1098.903,-187.6879 491,-143 466.4136,-141.1926 439.2917,-138.0716 416.3663,-135.1018"/>
<polygon fill="#191970" stroke="#191970" points="416.5247,-131.5924 406.1525,-133.7532 415.6083,-138.5322 416.5247,-131.5924"/>
</g>
<!-- Node36&#45;&gt;Node31 -->
<g id="edge55" class="edge">
<title>Node36&#45;&gt;Node31</title>
<path fill="none" stroke="#191970" d="M1992.7182,-180.5133C2074.7257,-169.0508 2220.3765,-148.6928 2305.3356,-136.8179"/>
<polygon fill="#191970" stroke="#191970" points="2305.968,-140.2636 2315.3872,-135.4129 2304.999,-133.331 2305.968,-140.2636"/>
</g>
<!-- Node37&#45;&gt;Node2 -->
<g id="edge65" class="edge">
<title>Node37&#45;&gt;Node2</title>
<path fill="none" stroke="#191970" d="M2029.9347,-235.1787C2031.658,-225.8986 2034.0494,-211.5658 2035,-199 2038.1317,-157.6038 2034.1863,-136.9425 2001,-112 1968.3336,-87.4482 1849.579,-73.9181 1791.4709,-68.6361"/>
<polygon fill="#191970" stroke="#191970" points="1791.6297,-65.1366 1781.361,-67.7451 1791.0151,-72.1096 1791.6297,-65.1366"/>
</g>
<!-- Node37&#45;&gt;Node24 -->
<g id="edge63" class="edge">
<title>Node37&#45;&gt;Node24</title>
<path fill="none" stroke="#191970" d="M2048.0558,-235.3704C2080.0065,-219.3623 2143.3067,-184.859 2187,-143 2206.0626,-124.7377 2224.6002,-100.6237 2236.3622,-84.2824"/>
<polygon fill="#191970" stroke="#191970" points="2239.5418,-85.8479 2242.4572,-75.6621 2233.8262,-81.8066 2239.5418,-85.8479"/>
</g>
<!-- Node37&#45;&gt;Node36 -->
<g id="edge66" class="edge">
<title>Node37&#45;&gt;Node36</title>
<path fill="none" stroke="#191970" d="M2011.2781,-235.2455C1996.4111,-226.5731 1974.4534,-213.7645 1957.4142,-203.825"/>
<polygon fill="#191970" stroke="#191970" points="1958.9317,-200.6582 1948.5303,-198.6427 1955.4045,-206.7047 1958.9317,-200.6582"/>
</g>
<!-- Node38 -->
<g id="node32" class="node">
<title>Node38</title>
<polygon fill="#ffffff" stroke="#bfbfbf" points="1815,-179.5 1815,-198.5 1853,-198.5 1853,-179.5 1815,-179.5"/>
<text text-anchor="middle" x="1834" y="-186.5" font-family="Helvetica,sans-Serif" font-size="10.00" fill="#000000">map</text>
</g>
<!-- Node37&#45;&gt;Node38 -->
<g id="edge64" class="edge">
<title>Node37&#45;&gt;Node38</title>
<path fill="none" stroke="#191970" d="M1991.4415,-235.4846C1957.883,-226.59 1906.8666,-212.6644 1863,-199 1862.9015,-198.9693 1862.8028,-198.9385 1862.704,-198.9076"/>
<polygon fill="#191970" stroke="#191970" points="1863.8822,-195.6106 1853.2897,-195.8326 1861.7088,-202.2646 1863.8822,-195.6106"/>
</g>
<!-- Node39&#45;&gt;Node1 -->
<g id="edge68" class="edge">
<title>Node39&#45;&gt;Node1</title>
<path fill="none" stroke="#191970" d="M1661.268,-241.502C1619.7838,-239.4545 1565.8625,-236.9056 1518,-235 1271.6209,-225.1908 652.704,-236.5129 409,-199 317.7669,-184.9567 294.0603,-178.8529 209,-143 168.0527,-125.7407 124.0921,-98.3484 98.3698,-81.3125"/>
<polygon fill="#191970" stroke="#191970" points="100.0136,-78.2009 89.7577,-75.5426 96.1174,-84.0164 100.0136,-78.2009"/>
</g>
<!-- Node39&#45;&gt;Node2 -->
<g id="edge69" class="edge">
<title>Node39&#45;&gt;Node2</title>
<path fill="none" stroke="#191970" d="M1738.0817,-235.3959C1751.9562,-218.2069 1779.7978,-180.4656 1790,-143 1793.62,-129.7063 1794.0255,-125.1766 1790,-112 1786.8591,-101.7192 1780.5634,-91.6582 1774.4612,-83.5799"/>
<polygon fill="#191970" stroke="#191970" points="1777.0816,-81.2539 1768.0741,-75.6757 1771.637,-85.6535 1777.0816,-81.2539"/>
</g>
<!-- Node39&#45;&gt;Node24 -->
<g id="edge70" class="edge">
<title>Node39&#45;&gt;Node24</title>
<path fill="none" stroke="#191970" d="M1798.5262,-241.5956C1886.7795,-234.4262 2042.0985,-212.159 2154,-143 2171.1177,-132.4207 2171.5604,-124.9057 2187,-112 2199.7436,-101.3479 2214.6776,-90.2296 2226.6954,-81.5926"/>
<polygon fill="#191970" stroke="#191970" points="2228.7394,-84.4338 2234.8577,-75.7841 2224.6808,-78.7305 2228.7394,-84.4338"/>
</g>
<!-- Node39&#45;&gt;Node36 -->
<g id="edge71" class="edge">
<title>Node39&#45;&gt;Node36</title>
<path fill="none" stroke="#191970" d="M1764.725,-235.3733C1798.7508,-225.9404 1850.7437,-211.5265 1887.7234,-201.2747"/>
<polygon fill="#191970" stroke="#191970" points="1889.0266,-204.5455 1897.7281,-198.5011 1887.1565,-197.7999 1889.0266,-204.5455"/>
</g>
<!-- Node41&#45;&gt;Node1 -->
<g id="edge77" class="edge">
<title>Node41&#45;&gt;Node1</title>
<path fill="none" stroke="#191970" d="M1187.2767,-299.5425C972.0282,-294.0574 236.3481,-274.0009 190,-255 126.302,-228.8863 108.7772,-206.8349 83,-143 75.5987,-124.6713 74.396,-101.9507 74.7097,-85.9557"/>
<polygon fill="#191970" stroke="#191970" points="78.2195,-85.7935 75.1392,-75.6563 71.2255,-85.5018 78.2195,-85.7935"/>
</g>
<!-- Node41&#45;&gt;Node2 -->
<g id="edge78" class="edge">
<title>Node41&#45;&gt;Node2</title>
<path fill="none" stroke="#191970" d="M1265.3101,-291.4414C1282.4746,-282.6796 1308.025,-268.9789 1329,-255 1374.2834,-224.8206 1374.7222,-199.8214 1425,-179 1489.0747,-152.4649 1681.6069,-187.2589 1735,-143 1751.7932,-129.0797 1757.0356,-103.5891 1758.5664,-85.7638"/>
<polygon fill="#191970" stroke="#191970" points="1762.0714,-85.7656 1759.1155,-75.5915 1755.0815,-85.3883 1762.0714,-85.7656"/>
</g>
<!-- Node41&#45;&gt;Node13 -->
<g id="edge79" class="edge">
<title>Node41&#45;&gt;Node13</title>
<path fill="none" stroke="#191970" d="M1268.7328,-291.2983C1294.5917,-278.9199 1331.0367,-256.5261 1313,-235 1267.3377,-180.504 1068.0331,-191.2566 998,-179 905.1544,-162.7509 878.7402,-171.8277 789,-143 787.3434,-142.4678 785.6636,-141.8649 783.9859,-141.2134"/>
<polygon fill="#191970" stroke="#191970" points="785.1395,-137.898 774.5745,-137.1023 782.3373,-144.3127 785.1395,-137.898"/>
</g>
<!-- Node41&#45;&gt;Node21 -->
<g id="edge108" class="edge">
<title>Node41&#45;&gt;Node21</title>
<path fill="none" stroke="#191970" d="M1304.8327,-296.6173C1330.9151,-294.751 1361.9801,-292.6329 1390,-291 1432.4196,-288.528 2124.6696,-285.745 2154,-255 2184.7449,-222.7723 2142.4622,-170.6505 2116.5491,-144.1378"/>
<polygon fill="#191970" stroke="#191970" points="2119.002,-141.6411 2109.4397,-137.0788 2114.0698,-146.6084 2119.002,-141.6411"/>
</g>
<!-- Node41&#45;&gt;Node24 -->
<g id="edge80" class="edge">
<title>Node41&#45;&gt;Node24</title>
<path fill="none" stroke="#191970" d="M1304.8318,-296.6029C1330.9141,-294.734 1361.9792,-292.6177 1390,-291 1476.8363,-285.9867 2100.9544,-305.1817 2172,-255 2228.7523,-214.9141 2243.7404,-125.3368 2247.6472,-85.6142"/>
<polygon fill="#191970" stroke="#191970" points="2251.1381,-85.8688 2248.4954,-75.6089 2244.1631,-85.2775 2251.1381,-85.8688"/>
</g>
<!-- Node41&#45;&gt;Node39 -->
<g id="edge82" class="edge">
<title>Node41&#45;&gt;Node39</title>
<path fill="none" stroke="#191970" d="M1304.864,-294.1893C1391.7281,-284.1389 1554.4023,-265.3171 1651.3865,-254.0958"/>
<polygon fill="#191970" stroke="#191970" points="1651.8986,-257.56 1661.4301,-252.9337 1651.094,-250.6064 1651.8986,-257.56"/>
</g>
<!-- Node42 -->
<g id="node36" class="node">
<title>Node42</title>
<polygon fill="#ffffff" stroke="#bfbfbf" points="1062.5,-235.5 1062.5,-254.5 1169.5,-254.5 1169.5,-235.5 1062.5,-235.5"/>
<text text-anchor="middle" x="1116" y="-242.5" font-family="Helvetica,sans-Serif" font-size="10.00" fill="#000000">boost/optional.hpp</text>
</g>
<!-- Node41&#45;&gt;Node42 -->
<g id="edge81" class="edge">
<title>Node41&#45;&gt;Node42</title>
<path fill="none" stroke="#191970" d="M1223.6522,-291.3733C1202.5967,-282.3032 1170.8505,-268.6279 1147.2825,-258.4755"/>
<polygon fill="#191970" stroke="#191970" points="1148.625,-255.243 1138.0562,-254.5011 1145.8556,-261.6719 1148.625,-255.243"/>
</g>
<!-- Node43 -->
<g id="node37" class="node">
<title>Node43</title>
<g id="a_node37"><a xlink:href="storage__exception_8h_source.html" target="_top" xlink:title="storage_exception.h">
<polygon fill="#ffffff" stroke="#000000" points="1188,-235.5 1188,-254.5 1304,-254.5 1304,-235.5 1188,-235.5"/>
<text text-anchor="middle" x="1246" y="-242.5" font-family="Helvetica,sans-Serif" font-size="10.00" fill="#000000">storage_exception.h</text>
</a>
</g>
</g>
<!-- Node41&#45;&gt;Node43 -->
<g id="edge83" class="edge">
<title>Node41&#45;&gt;Node43</title>
<path fill="none" stroke="#191970" d="M1246,-291.2455C1246,-283.9382 1246,-273.6944 1246,-264.7046"/>
<polygon fill="#191970" stroke="#191970" points="1249.5001,-264.6426 1246,-254.6427 1242.5001,-264.6427 1249.5001,-264.6426"/>
</g>
<!-- Node41&#45;&gt;Node44 -->
<g id="edge84" class="edge">
<title>Node41&#45;&gt;Node44</title>
<path fill="none" stroke="#191970" d="M1284.4232,-291.4369C1322.9194,-281.8556 1382.2477,-267.0895 1423.6348,-256.7887"/>
<polygon fill="#191970" stroke="#191970" points="1424.6259,-260.1489 1433.4845,-254.3372 1422.9352,-253.3561 1424.6259,-260.1489"/>
</g>
<!-- Node44&#45;&gt;Node5 -->
<g id="edge89" class="edge">
<title>Node44&#45;&gt;Node5</title>
<path fill="none" stroke="#191970" d="M1433.1094,-241.1066C1331.7807,-230.6949 1055.7439,-202.3315 959.5773,-192.4501"/>
<polygon fill="#191970" stroke="#191970" points="959.8446,-188.9593 949.5392,-191.4187 959.129,-195.9226 959.8446,-188.9593"/>
</g>
<!-- Node44&#45;&gt;Node20 -->
<g id="edge87" class="edge">
<title>Node44&#45;&gt;Node20</title>
<path fill="none" stroke="#191970" d="M1508.7646,-240.8037C1553.5903,-234.9972 1630.0649,-222.4668 1692,-199 1738.9108,-181.2258 1764.8208,-186.3884 1790,-143 1809.4078,-109.5568 1816.0616,-84.5641 1790,-56 1759.0248,-22.0505 1440.3691,-12.8317 1327.9798,-10.6261"/>
<polygon fill="#191970" stroke="#191970" points="1327.828,-7.1227 1317.7639,-10.434 1327.6963,-14.1215 1327.828,-7.1227"/>
</g>
<!-- Node44&#45;&gt;Node21 -->
<g id="edge107" class="edge">
<title>Node44&#45;&gt;Node21</title>
<path fill="none" stroke="#191970" d="M1508.6233,-242.441C1564.9681,-237.8609 1674.1457,-226.0776 1763,-199 1783.1618,-192.8559 1785.8935,-185.3227 1806,-179 1886.3416,-153.7356 1983.2136,-139.7613 2042.9592,-132.9448"/>
<polygon fill="#191970" stroke="#191970" points="2043.3939,-136.4181 2052.9451,-131.8328 2042.6192,-129.4611 2043.3939,-136.4181"/>
</g>
<!-- Node44&#45;&gt;Node38 -->
<g id="edge86" class="edge">
<title>Node44&#45;&gt;Node38</title>
<path fill="none" stroke="#191970" d="M1508.9518,-241.6493C1570.6879,-235.7662 1696.4808,-221.9742 1801,-199 1802.2827,-198.7181 1803.5878,-198.411 1804.9022,-198.0852"/>
<polygon fill="#191970" stroke="#191970" points="1806.2235,-201.3519 1814.9383,-195.3267 1804.3683,-194.6022 1806.2235,-201.3519"/>
</g>
<!-- Node45 -->
<g id="node39" class="node">
<title>Node45</title>
<polygon fill="#ffffff" stroke="#bfbfbf" points="1433.5,-179.5 1433.5,-198.5 1498.5,-198.5 1498.5,-179.5 1433.5,-179.5"/>
<text text-anchor="middle" x="1466" y="-186.5" font-family="Helvetica,sans-Serif" font-size="10.00" fill="#000000">functional</text>
</g>
<!-- Node44&#45;&gt;Node45 -->
<g id="edge85" class="edge">
<title>Node44&#45;&gt;Node45</title>
<path fill="none" stroke="#191970" d="M1470.1291,-235.2455C1469.4766,-227.9382 1468.562,-217.6944 1467.7593,-208.7046"/>
<polygon fill="#191970" stroke="#191970" points="1471.2365,-208.2918 1466.861,-198.6427 1464.2642,-208.9143 1471.2365,-208.2918"/>
</g>
<!-- Node46 -->
<g id="node40" class="node">
<title>Node46</title>
<polygon fill="#ffffff" stroke="#bfbfbf" points="1517,-179.5 1517,-198.5 1549,-198.5 1549,-179.5 1517,-179.5"/>
<text text-anchor="middle" x="1533" y="-186.5" font-family="Helvetica,sans-Serif" font-size="10.00" fill="#000000">set</text>
</g>
<!-- Node44&#45;&gt;Node46 -->
<g id="edge88" class="edge">
<title>Node44&#45;&gt;Node46</title>
<path fill="none" stroke="#191970" d="M1481.7996,-235.2455C1490.8678,-227.0549 1504.0206,-215.1749 1514.7245,-205.5069"/>
<polygon fill="#191970" stroke="#191970" points="1517.2491,-207.9429 1522.3242,-198.6427 1512.5571,-202.7482 1517.2491,-207.9429"/>
</g>
<!-- Node47 -->
<g id="node41" class="node">
<title>Node47</title>
<g id="a_node41"><a xlink:href="uptane_2exceptions_8h_source.html" target="_top" xlink:title="uptane/exceptions.h">
<polygon fill="#ffffff" stroke="#000000" points="1567,-179.5 1567,-198.5 1683,-198.5 1683,-179.5 1567,-179.5"/>
<text text-anchor="middle" x="1625" y="-186.5" font-family="Helvetica,sans-Serif" font-size="10.00" fill="#000000">uptane/exceptions.h</text>
</a>
</g>
</g>
<!-- Node44&#45;&gt;Node47 -->
<g id="edge90" class="edge">
<title>Node44&#45;&gt;Node47</title>
<path fill="none" stroke="#191970" d="M1497.4735,-235.3733C1522.8597,-226.1419 1561.3645,-212.1402 1589.422,-201.9375"/>
<polygon fill="#191970" stroke="#191970" points="1590.6701,-205.2079 1598.8719,-198.5011 1588.2778,-198.6293 1590.6701,-205.2079"/>
</g>
<!-- Node48 -->
<g id="node42" class="node">
<title>Node48</title>
<g id="a_node42"><a xlink:href="crypto_8h_source.html" target="_top" xlink:title="crypto/crypto.h">
<polygon fill="#ffffff" stroke="#ff0000" points="1249,-179.5 1249,-198.5 1339,-198.5 1339,-179.5 1249,-179.5"/>
<text text-anchor="middle" x="1294" y="-186.5" font-family="Helvetica,sans-Serif" font-size="10.00" fill="#000000">crypto/crypto.h</text>
</a>
</g>
</g>
<!-- Node44&#45;&gt;Node48 -->
<g id="edge94" class="edge">
<title>Node44&#45;&gt;Node48</title>
<path fill="none" stroke="#191970" d="M1440.5726,-235.3733C1411.0128,-226.021 1365.9774,-211.7725 1333.6305,-201.5385"/>
<polygon fill="#191970" stroke="#191970" points="1334.6203,-198.1807 1324.0303,-198.5011 1332.5087,-204.8546 1334.6203,-198.1807"/>
</g>
<!-- Node47&#45;&gt;Node2 -->
<g id="edge92" class="edge">
<title>Node47&#45;&gt;Node2</title>
<path fill="none" stroke="#191970" d="M1677.4311,-179.4976C1715.1711,-171.4668 1761.393,-158.7623 1773,-143 1785.5268,-125.9886 1777.6726,-101.237 1769.5737,-84.4227"/>
<polygon fill="#191970" stroke="#191970" points="1772.6705,-82.7917 1764.9291,-75.5584 1766.4701,-86.0406 1772.6705,-82.7917"/>
</g>
<!-- Node47&#45;&gt;Node13 -->
<g id="edge93" class="edge">
<title>Node47&#45;&gt;Node13</title>
<path fill="none" stroke="#191970" d="M1566.9399,-179.9664C1563.9199,-179.6117 1560.9262,-179.2861 1558,-179 1387.736,-162.3516 954.8031,-185.1466 789,-143 787.0257,-142.4981 785.0287,-141.8681 783.0476,-141.1513"/>
<polygon fill="#191970" stroke="#191970" points="784.0237,-137.7616 773.4538,-137.0355 781.2639,-144.1946 784.0237,-137.7616"/>
</g>
<!-- Node47&#45;&gt;Node23 -->
<g id="edge91" class="edge">
<title>Node47&#45;&gt;Node23</title>
<path fill="none" stroke="#191970" d="M1661.5423,-179.4326C1695.0899,-170.5025 1746.0992,-156.554 1790,-143 1857.8352,-122.0565 1936.0674,-94.8318 1980.7149,-78.9982"/>
<polygon fill="#191970" stroke="#191970" points="1981.9996,-82.2561 1990.2496,-75.6088 1979.6549,-75.6605 1981.9996,-82.2561"/>
</g>
<!-- Node48&#45;&gt;Node2 -->
<g id="edge103" class="edge">
<title>Node48&#45;&gt;Node2</title>
<path fill="none" stroke="#191970" d="M1339.0597,-181.1117C1343.7617,-180.3637 1348.4745,-179.645 1353,-179 1490.7531,-159.367 1535.7406,-196.9529 1664,-143 1672.6591,-139.3575 1714.7548,-103.9457 1739.9136,-82.4347"/>
<polygon fill="#191970" stroke="#191970" points="1742.4101,-84.9046 1747.7237,-75.7385 1737.8538,-79.5904 1742.4101,-84.9046"/>
</g>
<!-- Node48&#45;&gt;Node13 -->
<g id="edge104" class="edge">
<title>Node48&#45;&gt;Node13</title>
<path fill="none" stroke="#191970" d="M1248.9619,-180.9499C1244.2557,-180.2335 1239.536,-179.5664 1235,-179 1037.6654,-154.3604 980.8829,-195.2398 789,-143 787.0791,-142.477 785.1344,-141.8399 783.2023,-141.1255"/>
<polygon fill="#191970" stroke="#191970" points="784.3847,-137.824 773.8159,-137.0827 781.6156,-144.2531 784.3847,-137.824"/>
</g>
<!-- Node48&#45;&gt;Node21 -->
<g id="edge105" class="edge">
<title>Node48&#45;&gt;Node21</title>
<path fill="none" stroke="#191970" d="M1339.0052,-185.5617C1476.5663,-175.0524 1891.2834,-143.369 2042.7953,-131.7939"/>
<polygon fill="#191970" stroke="#191970" points="2043.1115,-135.28 2052.8158,-131.0284 2042.5782,-128.3004 2043.1115,-135.28"/>
</g>
<!-- Node48&#45;&gt;Node25 -->
<g id="edge106" class="edge">
<title>Node48&#45;&gt;Node25</title>
<path fill="none" stroke="#191970" d="M1248.649,-187.4088C1126.2364,-182.8961 778.9107,-168.6527 491,-143 466.4445,-140.8121 439.327,-137.638 416.3965,-134.7312"/>
<polygon fill="#191970" stroke="#191970" points="416.5441,-131.2215 406.1797,-133.4189 415.6523,-138.1644 416.5441,-131.2215"/>
</g>
<!-- Node49 -->
<g id="node43" class="node">
<title>Node49</title>
<polygon fill="#ffffff" stroke="#bfbfbf" points="1555.5,-118 1555.5,-137 1654.5,-137 1654.5,-118 1555.5,-118"/>
<text text-anchor="middle" x="1605" y="-125" font-family="Helvetica,sans-Serif" font-size="10.00" fill="#000000">openssl/engine.h</text>
</g>
<!-- Node48&#45;&gt;Node49 -->
<g id="edge95" class="edge">
<title>Node48&#45;&gt;Node49</title>
<path fill="none" stroke="#191970" d="M1339.1662,-181.1831C1400.6233,-170.4728 1507.3622,-151.5886 1546,-143 1550.7265,-141.9494 1555.6466,-140.7796 1560.5403,-139.5668"/>
<polygon fill="#191970" stroke="#191970" points="1561.6481,-142.8967 1570.4779,-137.0414 1559.9239,-136.1123 1561.6481,-142.8967"/>
</g>
<!-- Node50 -->
<g id="node44" class="node">
<title>Node50</title>
<polygon fill="#ffffff" stroke="#bfbfbf" points="797.5,-118 797.5,-137 876.5,-137 876.5,-118 797.5,-118"/>
<text text-anchor="middle" x="837" y="-125" font-family="Helvetica,sans-Serif" font-size="10.00" fill="#000000">openssl/err.h</text>
</g>
<!-- Node48&#45;&gt;Node50 -->
<g id="edge96" class="edge">
<title>Node48&#45;&gt;Node50</title>
<path fill="none" stroke="#191970" d="M1248.9485,-181.0523C1244.2449,-180.3159 1239.5295,-179.6161 1235,-179 1080.0507,-157.9229 1038.0243,-175.2037 885,-143 881.0635,-142.1716 876.9941,-141.1413 872.9663,-140.0084"/>
<polygon fill="#191970" stroke="#191970" points="873.7244,-136.5812 863.1394,-137.0372 871.6984,-143.2816 873.7244,-136.5812"/>
</g>
<!-- Node51 -->
<g id="node45" class="node">
<title>Node51</title>
<polygon fill="#ffffff" stroke="#bfbfbf" points="894,-118 894,-137 978,-137 978,-118 894,-118"/>
<text text-anchor="middle" x="936" y="-125" font-family="Helvetica,sans-Serif" font-size="10.00" fill="#000000">openssl/evp.h</text>
</g>
<!-- Node48&#45;&gt;Node51 -->
<g id="edge97" class="edge">
<title>Node48&#45;&gt;Node51</title>
<path fill="none" stroke="#191970" d="M1248.9201,-181.2461C1244.222,-180.4719 1239.5157,-179.7103 1235,-179 1124.9755,-161.6927 1095.7026,-167.2627 987,-143 982.8849,-142.0815 978.6191,-140.999 974.3866,-139.8399"/>
<polygon fill="#191970" stroke="#191970" points="975.2358,-136.4422 964.6577,-137.0376 973.2983,-143.1688 975.2358,-136.4422"/>
</g>
<!-- Node52 -->
<g id="node46" class="node">
<title>Node52</title>
<polygon fill="#ffffff" stroke="#bfbfbf" points="996,-118 996,-137 1084,-137 1084,-118 996,-118"/>
<text text-anchor="middle" x="1040" y="-125" font-family="Helvetica,sans-Serif" font-size="10.00" fill="#000000">openssl/pem.h</text>
</g>
<!-- Node48&#45;&gt;Node52 -->
<g id="edge98" class="edge">
<title>Node48&#45;&gt;Node52</title>
<path fill="none" stroke="#191970" d="M1249.3506,-179.4472C1208.709,-170.582 1147.1245,-156.7232 1094,-143 1090.1267,-141.9994 1086.1083,-140.9216 1082.0909,-139.817"/>
<polygon fill="#191970" stroke="#191970" points="1082.7628,-136.3705 1072.1894,-137.0446 1080.8753,-143.1113 1082.7628,-136.3705"/>
</g>
<!-- Node53 -->
<g id="node47" class="node">
<title>Node53</title>
<polygon fill="#ffffff" stroke="#bfbfbf" points="1102.5,-118 1102.5,-137 1203.5,-137 1203.5,-118 1102.5,-118"/>
<text text-anchor="middle" x="1153" y="-125" font-family="Helvetica,sans-Serif" font-size="10.00" fill="#000000">openssl/pkcs12.h</text>
</g>
<!-- Node48&#45;&gt;Node53 -->
<g id="edge99" class="edge">
<title>Node48&#45;&gt;Node53</title>
<path fill="none" stroke="#191970" d="M1271.9688,-179.3906C1248.3769,-169.1005 1210.7499,-152.6888 1184.1367,-141.0809"/>
<polygon fill="#191970" stroke="#191970" points="1185.4419,-137.8318 1174.8765,-137.0419 1182.6433,-144.248 1185.4419,-137.8318"/>
</g>
<!-- Node54 -->
<g id="node48" class="node">
<title>Node54</title>
<polygon fill="#ffffff" stroke="#bfbfbf" points="1221.5,-118 1221.5,-137 1302.5,-137 1302.5,-118 1221.5,-118"/>
<text text-anchor="middle" x="1262" y="-125" font-family="Helvetica,sans-Serif" font-size="10.00" fill="#000000">openssl/rsa.h</text>
</g>
<!-- Node48&#45;&gt;Node54 -->
<g id="edge100" class="edge">
<title>Node48&#45;&gt;Node54</title>
<path fill="none" stroke="#191970" d="M1289,-179.3906C1284.4242,-170.5965 1277.5219,-157.3312 1271.8417,-146.4145"/>
<polygon fill="#191970" stroke="#191970" points="1274.7912,-144.5003 1267.0705,-137.2449 1268.5815,-147.7314 1274.7912,-144.5003"/>
</g>
<!-- Node55 -->
<g id="node49" class="node">
<title>Node55</title>
<polygon fill="#ffffff" stroke="#bfbfbf" points="1321,-118 1321,-137 1383,-137 1383,-118 1321,-118"/>
<text text-anchor="middle" x="1352" y="-125" font-family="Helvetica,sans-Serif" font-size="10.00" fill="#000000">sodium.h</text>
</g>
<!-- Node48&#45;&gt;Node55 -->
<g id="edge101" class="edge">
<title>Node48&#45;&gt;Node55</title>
<path fill="none" stroke="#191970" d="M1303.0625,-179.3906C1311.7793,-170.1478 1325.154,-155.966 1335.7196,-144.7628"/>
<polygon fill="#191970" stroke="#191970" points="1338.495,-146.9213 1342.8097,-137.2449 1333.4024,-142.1186 1338.495,-146.9213"/>
</g>
<!-- Node56 -->
<g id="node50" class="node">
<title>Node56</title>
<polygon fill="#ffffff" stroke="#bfbfbf" points="1401,-118 1401,-137 1537,-137 1537,-118 1401,-118"/>
<text text-anchor="middle" x="1469" y="-125" font-family="Helvetica,sans-Serif" font-size="10.00" fill="#000000">boost/algorithm/hex.hpp</text>
</g>
<!-- Node48&#45;&gt;Node56 -->
<g id="edge102" class="edge">
<title>Node48&#45;&gt;Node56</title>
<path fill="none" stroke="#191970" d="M1321.3438,-179.3906C1351.1382,-168.92 1398.9685,-152.1111 1432.0808,-140.4745"/>
<polygon fill="#191970" stroke="#191970" points="1433.5743,-143.6595 1441.8483,-137.0419 1431.2534,-137.0554 1433.5743,-143.6595"/>
</g>
</g>
</svg>
