<?xml version="1.0" encoding="UTF-8" standalone="no"?>
<!DOCTYPE svg PUBLIC "-//W3C//DTD SVG 1.1//EN"
 "http://www.w3.org/Graphics/SVG/1.1/DTD/svg11.dtd">
<!-- Generated by graphviz version 2.43.0 (0)
 -->
<!-- Title: include/libaktualizr/events.h Pages: 1 -->
<!--zoomable 262 -->
<svg id="main" version="1.1" xmlns="http://www.w3.org/2000/svg" xmlns:xlink="http://www.w3.org/1999/xlink" xml:space="preserve" onload="init(evt)">
<style type="text/css"><![CDATA[
.edge:hover path { stroke: red; }
.edge:hover polygon { stroke: red; fill: red; }
]]></style>
<script type="text/javascript"><![CDATA[
var edges = document.getElementsByTagName('g');
if (edges && edges.length) {
  for (var i=0;i<edges.length;i++) {
    if (edges[i].id.substr(0,4)=='edge') {
      edges[i].setAttribute('class','edge');
    }
  }
}
]]></script>
        <defs>
                <circle id="rim" cx="0" cy="0" r="7"/>
                <circle id="rim2" cx="0" cy="0" r="3.5"/>
                <g id="zoomPlus">
                        <use xlink:href="#rim" fill="#404040">
                                <set attributeName="fill" to="#808080" begin="zoomplus.mouseover" end="zoomplus.mouseout"/>
                        </use>
                        <path d="M-4,0h8M0,-4v8" fill="none" stroke="white" stroke-width="1.5" pointer-events="none"/>
                </g>
                <g id="zoomMin">
                        <use xlink:href="#rim" fill="#404040">
                                <set attributeName="fill" to="#808080" begin="zoomminus.mouseover" end="zoomminus.mouseout"/>
                        </use>
                        <path d="M-4,0h8" fill="none" stroke="white" stroke-width="1.5" pointer-events="none"/>
                </g>
                <g id="dirArrow">
                        <path fill="none" stroke="white" stroke-width="1.5" d="M0,-3.0v7 M-2.5,-0.5L0,-3.0L2.5,-0.5"/>
                </g>
               <g id="resetDef">
                       <use xlink:href="#rim2" fill="#404040">
                               <set attributeName="fill" to="#808080" begin="reset.mouseover" end="reset.mouseout"/>
                       </use>
               </g>
        </defs>

<script type="text/javascript">
var viewWidth = 3311;
var viewHeight = 262;
var sectionId = 'dynsection-1';
</script>
<script xlink:href="svgpan.js"/>
<svg id="graph" class="graph">
<g id="viewport">
<title>include/libaktualizr/events.h</title>
<polygon fill="white" stroke="transparent" points="-4,4 -4,-258 3306.5,-258 3306.5,4 -4,4"/>
<!-- Node1 -->
<g id="node1" class="node">
<title>Node1</title>
<g id="a_node1"><a xlink:title=" ">
<polygon fill="#bfbfbf" stroke="black" points="1793.5,-223.5 1793.5,-253.5 1903.5,-253.5 1903.5,-223.5 1793.5,-223.5"/>
<text text-anchor="start" x="1801.5" y="-241.5" font-family="Helvetica,sans-Serif" font-size="10.00">include/libaktualizr</text>
<text text-anchor="middle" x="1848.5" y="-230.5" font-family="Helvetica,sans-Serif" font-size="10.00">/events.h</text>
</a>
</g>
</g>
<!-- Node2 -->
<g id="node2" class="node">
<title>Node2</title>
<g id="a_node2"><a xlink:href="aktualizr_8h_source.html" target="_top" xlink:title=" ">
<polygon fill="white" stroke="black" points="1944.5,-156.5 1944.5,-186.5 2054.5,-186.5 2054.5,-156.5 1944.5,-156.5"/>
<text text-anchor="start" x="1952.5" y="-174.5" font-family="Helvetica,sans-Serif" font-size="10.00">include/libaktualizr</text>
<text text-anchor="middle" x="1999.5" y="-163.5" font-family="Helvetica,sans-Serif" font-size="10.00">/aktualizr.h</text>
</a>
</g>
</g>
<!-- Node1&#45;&gt;Node2 -->
<g id="edge1" class="edge">
<title>Node1&#45;&gt;Node2</title>
<path fill="none" stroke="midnightblue" d="M1890.53,-219.41C1914.64,-209.03 1944.45,-196.2 1966.8,-186.58"/>
<polygon fill="midnightblue" stroke="midnightblue" points="1889.07,-216.23 1881.26,-223.4 1891.83,-222.66 1889.07,-216.23"/>
</g>
<!-- Node7 -->
<g id="node7" class="node">
<title>Node7</title>
<g id="a_node7"><a xlink:href="aktualizr_8cc_source.html" target="_top" xlink:title=" ">
<polygon fill="white" stroke="black" points="1352.5,-84 1352.5,-114 1482.5,-114 1482.5,-84 1352.5,-84"/>
<text text-anchor="start" x="1360.5" y="-102" font-family="Helvetica,sans-Serif" font-size="10.00">src/libaktualizr/primary</text>
<text text-anchor="middle" x="1417.5" y="-91" font-family="Helvetica,sans-Serif" font-size="10.00">/aktualizr.cc</text>
</a>
</g>
</g>
<!-- Node1&#45;&gt;Node7 -->
<g id="edge42" class="edge">
<title>Node1&#45;&gt;Node7</title>
<path fill="none" stroke="midnightblue" d="M1794.81,-220.37C1708.65,-192.88 1541.13,-139.44 1461.54,-114.05"/>
<polygon fill="midnightblue" stroke="midnightblue" points="1793.81,-223.73 1804.4,-223.43 1795.94,-217.06 1793.81,-223.73"/>
</g>
<!-- Node11 -->
<g id="node11" class="node">
<title>Node11</title>
<g id="a_node11"><a xlink:href="aktualizr__test_8cc_source.html" target="_top" xlink:title=" ">
<polygon fill="white" stroke="black" points="1110.5,-6 1110.5,-36 1240.5,-36 1240.5,-6 1110.5,-6"/>
<text text-anchor="start" x="1118.5" y="-24" font-family="Helvetica,sans-Serif" font-size="10.00">src/libaktualizr/primary</text>
<text text-anchor="middle" x="1175.5" y="-13" font-family="Helvetica,sans-Serif" font-size="10.00">/aktualizr_test.cc</text>
</a>
</g>
</g>
<!-- Node1&#45;&gt;Node11 -->
<g id="edge61" class="edge">
<title>Node1&#45;&gt;Node11</title>
<path fill="none" stroke="midnightblue" d="M1783.1,-229.45C1684.69,-215.77 1494.03,-183.11 1343.5,-120 1286.98,-96.3 1226.16,-56.95 1195.54,-36.05"/>
<polygon fill="midnightblue" stroke="midnightblue" points="1782.81,-232.94 1793.19,-230.83 1783.76,-226.01 1782.81,-232.94"/>
</g>
<!-- Node19 -->
<g id="node19" class="node">
<title>Node19</title>
<g id="a_node19"><a xlink:href="uptane__delegation__test_8cc_source.html" target="_top" xlink:title=" ">
<polygon fill="white" stroke="black" points="3154.5,-6 3154.5,-36 3302.5,-36 3302.5,-6 3154.5,-6"/>
<text text-anchor="start" x="3162.5" y="-24" font-family="Helvetica,sans-Serif" font-size="10.00">src/libaktualizr/uptane</text>
<text text-anchor="middle" x="3228.5" y="-13" font-family="Helvetica,sans-Serif" font-size="10.00">/uptane_delegation_test.cc</text>
</a>
</g>
</g>
<!-- Node1&#45;&gt;Node19 -->
<g id="edge62" class="edge">
<title>Node1&#45;&gt;Node19</title>
<path fill="none" stroke="midnightblue" d="M1913.82,-234.65C2081.47,-226.41 2540.06,-197.94 2913.5,-120 3016.1,-98.59 3132.98,-57.71 3191.29,-36.14"/>
<polygon fill="midnightblue" stroke="midnightblue" points="1913.49,-231.17 1903.67,-235.15 1913.83,-238.16 1913.49,-231.17"/>
</g>
<!-- Node27 -->
<g id="node27" class="node">
<title>Node27</title>
<g id="a_node27"><a xlink:href="libaktualizr-c_8cc_source.html" target="_top" xlink:title=" ">
<polygon fill="white" stroke="black" points="2964.5,-156.5 2964.5,-186.5 3062.5,-186.5 3062.5,-156.5 2964.5,-156.5"/>
<text text-anchor="start" x="2972.5" y="-174.5" font-family="Helvetica,sans-Serif" font-size="10.00">src/libaktualizr&#45;c</text>
<text text-anchor="middle" x="3013.5" y="-163.5" font-family="Helvetica,sans-Serif" font-size="10.00">/libaktualizr&#45;c.cc</text>
</a>
</g>
</g>
<!-- Node1&#45;&gt;Node27 -->
<g id="edge41" class="edge">
<title>Node1&#45;&gt;Node27</title>
<path fill="none" stroke="midnightblue" d="M1913.79,-236.06C2118.83,-231.27 2748.27,-214.68 2950.5,-187 2955.06,-186.38 2959.77,-185.58 2964.48,-184.68"/>
<polygon fill="midnightblue" stroke="midnightblue" points="1913.69,-232.56 1903.77,-236.29 1913.85,-239.55 1913.69,-232.56"/>
</g>
<!-- Node28 -->
<g id="node28" class="node">
<title>Node28</title>
<g id="a_node28"><a xlink:href="sotauptaneclient_8h_source.html" target="_top" xlink:title=" ">
<polygon fill="white" stroke="black" points="726.5,-156.5 726.5,-186.5 856.5,-186.5 856.5,-156.5 726.5,-156.5"/>
<text text-anchor="start" x="734.5" y="-174.5" font-family="Helvetica,sans-Serif" font-size="10.00">src/libaktualizr/primary</text>
<text text-anchor="middle" x="791.5" y="-163.5" font-family="Helvetica,sans-Serif" font-size="10.00">/sotauptaneclient.h</text>
</a>
</g>
</g>
<!-- Node1&#45;&gt;Node28 -->
<g id="edge43" class="edge">
<title>Node1&#45;&gt;Node28</title>
<path fill="none" stroke="midnightblue" d="M1783.07,-233.48C1593.51,-221.82 1045.53,-188.12 856.51,-176.5"/>
<polygon fill="midnightblue" stroke="midnightblue" points="1782.96,-236.98 1793.16,-234.1 1783.39,-229.99 1782.96,-236.98"/>
</g>
<!-- Node3 -->
<g id="node3" class="node">
<title>Node3</title>
<g id="a_node3"><a xlink:href="aktualizr__primary_2main_8cc_source.html" target="_top" xlink:title=" ">
<polygon fill="white" stroke="black" points="3016.5,-6 3016.5,-36 3136.5,-36 3136.5,-6 3016.5,-6"/>
<text text-anchor="start" x="3024.5" y="-24" font-family="Helvetica,sans-Serif" font-size="10.00">src/aktualizr_primary</text>
<text text-anchor="middle" x="3076.5" y="-13" font-family="Helvetica,sans-Serif" font-size="10.00">/main.cc</text>
</a>
</g>
</g>
<!-- Node2&#45;&gt;Node3 -->
<g id="edge2" class="edge">
<title>Node2&#45;&gt;Node3</title>
<path fill="none" stroke="midnightblue" d="M2064.73,-169.2C2250.11,-165.15 2771.23,-151.11 2841.5,-120 2865.93,-109.19 2861.43,-91.48 2884.5,-78 2885.3,-77.53 2971.2,-52.56 3027.82,-36.12"/>
<polygon fill="midnightblue" stroke="midnightblue" points="2064.5,-165.71 2054.58,-169.42 2064.65,-172.71 2064.5,-165.71"/>
</g>
<!-- Node4 -->
<g id="node4" class="node">
<title>Node4</title>
<g id="a_node4"><a xlink:href="secondary_8h_source.html" target="_top" xlink:title=" ">
<polygon fill="white" stroke="black" points="2712.5,-84 2712.5,-114 2832.5,-114 2832.5,-84 2712.5,-84"/>
<text text-anchor="start" x="2720.5" y="-102" font-family="Helvetica,sans-Serif" font-size="10.00">src/aktualizr_primary</text>
<text text-anchor="middle" x="2772.5" y="-91" font-family="Helvetica,sans-Serif" font-size="10.00">/secondary.h</text>
</a>
</g>
</g>
<!-- Node2&#45;&gt;Node4 -->
<g id="edge3" class="edge">
<title>Node2&#45;&gt;Node4</title>
<path fill="none" stroke="midnightblue" d="M2064.58,-166.62C2179.31,-159.48 2424.95,-142.88 2631.5,-120 2658.04,-117.06 2687.28,-113.04 2712.22,-109.38"/>
<polygon fill="midnightblue" stroke="midnightblue" points="2064.32,-163.13 2054.56,-167.24 2064.75,-170.11 2064.32,-163.13"/>
</g>
<!-- Node5 -->
<g id="node5" class="node">
<title>Node5</title>
<g id="a_node5"><a xlink:href="primary__secondary__registration__test_8cc_source.html" target="_top" xlink:title=" ">
<polygon fill="white" stroke="black" points="2685,-0.5 2685,-41.5 2860,-41.5 2860,-0.5 2685,-0.5"/>
<text text-anchor="start" x="2693" y="-29.5" font-family="Helvetica,sans-Serif" font-size="10.00">src/aktualizr_primary</text>
<text text-anchor="start" x="2693" y="-18.5" font-family="Helvetica,sans-Serif" font-size="10.00">/primary_secondary_registration</text>
<text text-anchor="middle" x="2772.5" y="-7.5" font-family="Helvetica,sans-Serif" font-size="10.00">_test.cc</text>
</a>
</g>
</g>
<!-- Node2&#45;&gt;Node5 -->
<g id="edge7" class="edge">
<title>Node2&#45;&gt;Node5</title>
<path fill="none" stroke="midnightblue" d="M2064.94,-167.52C2155.55,-162.46 2323.93,-149.69 2464.5,-120 2557.15,-100.44 2661.48,-64.08 2721.84,-41.57"/>
<polygon fill="midnightblue" stroke="midnightblue" points="2064.62,-164.03 2054.82,-168.07 2065,-171.02 2064.62,-164.03"/>
</g>
<!-- Node2&#45;&gt;Node7 -->
<g id="edge8" class="edge">
<title>Node2&#45;&gt;Node7</title>
<path fill="none" stroke="midnightblue" d="M1934.26,-167.04C1837.94,-161.23 1652.25,-147.38 1496.5,-120 1487.3,-118.38 1477.6,-116.27 1468.26,-114.03"/>
<polygon fill="midnightblue" stroke="midnightblue" points="1934.24,-170.54 1944.43,-167.64 1934.65,-163.56 1934.24,-170.54"/>
</g>
<!-- Node8 -->
<g id="node8" class="node">
<title>Node8</title>
<g id="a_node8"><a xlink:href="aktualizr__fullostree__test_8cc_source.html" target="_top" xlink:title=" ">
<polygon fill="white" stroke="black" points="1258.5,-6 1258.5,-36 1410.5,-36 1410.5,-6 1258.5,-6"/>
<text text-anchor="start" x="1266.5" y="-24" font-family="Helvetica,sans-Serif" font-size="10.00">src/libaktualizr/primary</text>
<text text-anchor="middle" x="1334.5" y="-13" font-family="Helvetica,sans-Serif" font-size="10.00">/aktualizr_fullostree_test.cc</text>
</a>
</g>
</g>
<!-- Node2&#45;&gt;Node8 -->
<g id="edge9" class="edge">
<title>Node2&#45;&gt;Node8</title>
<path fill="none" stroke="midnightblue" d="M1934.17,-168C1829.81,-163.16 1630.82,-150.2 1567.5,-120 1543.39,-108.5 1547.55,-91.51 1524.5,-78 1502.17,-64.92 1440.43,-47.86 1393.33,-36.03"/>
<polygon fill="midnightblue" stroke="midnightblue" points="1934.12,-171.5 1944.27,-168.46 1934.44,-164.51 1934.12,-171.5"/>
</g>
<!-- Node9 -->
<g id="node9" class="node">
<title>Node9</title>
<g id="a_node9"><a xlink:href="aktualizr__helpers_8h_source.html" target="_top" xlink:title=" ">
<polygon fill="white" stroke="black" points="2325.5,-84 2325.5,-114 2455.5,-114 2455.5,-84 2325.5,-84"/>
<text text-anchor="start" x="2333.5" y="-102" font-family="Helvetica,sans-Serif" font-size="10.00">src/libaktualizr/primary</text>
<text text-anchor="middle" x="2390.5" y="-91" font-family="Helvetica,sans-Serif" font-size="10.00">/aktualizr_helpers.h</text>
</a>
</g>
</g>
<!-- Node2&#45;&gt;Node9 -->
<g id="edge10" class="edge">
<title>Node2&#45;&gt;Node9</title>
<path fill="none" stroke="midnightblue" d="M2064.6,-158.76C2136.98,-145.71 2253.17,-124.76 2325.5,-111.72"/>
<polygon fill="midnightblue" stroke="midnightblue" points="2063.91,-155.33 2054.69,-160.55 2065.15,-162.22 2063.91,-155.33"/>
</g>
<!-- Node2&#45;&gt;Node11 -->
<g id="edge14" class="edge">
<title>Node2&#45;&gt;Node11</title>
<path fill="none" stroke="midnightblue" d="M1934.06,-169.75C1820.69,-167.44 1593.28,-158.06 1524.5,-120 1503.73,-108.51 1512.03,-89.92 1491.5,-78 1397.47,-23.38 1355.94,-64.22 1249.5,-42 1241.29,-40.29 1232.64,-38.21 1224.27,-36.04"/>
<polygon fill="midnightblue" stroke="midnightblue" points="1934.27,-173.26 1944.34,-169.95 1934.4,-166.26 1934.27,-173.26"/>
</g>
<!-- Node12 -->
<g id="node12" class="node">
<title>Node12</title>
<g id="a_node12"><a xlink:href="custom__url__test_8cc_source.html" target="_top" xlink:title=" ">
<polygon fill="white" stroke="black" points="1428.5,-6 1428.5,-36 1558.5,-36 1558.5,-6 1428.5,-6"/>
<text text-anchor="start" x="1436.5" y="-24" font-family="Helvetica,sans-Serif" font-size="10.00">src/libaktualizr/primary</text>
<text text-anchor="middle" x="1493.5" y="-13" font-family="Helvetica,sans-Serif" font-size="10.00">/custom_url_test.cc</text>
</a>
</g>
</g>
<!-- Node2&#45;&gt;Node12 -->
<g id="edge15" class="edge">
<title>Node2&#45;&gt;Node12</title>
<path fill="none" stroke="midnightblue" d="M1934.61,-154.16C1902.28,-145.32 1862.85,-133.44 1828.5,-120 1789.26,-104.64 1783.36,-91.67 1743.5,-78 1667.98,-52.1 1645.19,-60.42 1567.5,-42 1559.86,-40.19 1551.81,-38.15 1543.95,-36.08"/>
<polygon fill="midnightblue" stroke="midnightblue" points="1933.84,-157.58 1944.4,-156.81 1935.66,-150.82 1933.84,-157.58"/>
</g>
<!-- Node13 -->
<g id="node13" class="node">
<title>Node13</title>
<g id="a_node13"><a xlink:href="download__nonostree__test_8cc_source.html" target="_top" xlink:title=" ">
<polygon fill="white" stroke="black" points="1576.5,-6 1576.5,-36 1734.5,-36 1734.5,-6 1576.5,-6"/>
<text text-anchor="start" x="1584.5" y="-24" font-family="Helvetica,sans-Serif" font-size="10.00">src/libaktualizr/primary</text>
<text text-anchor="middle" x="1655.5" y="-13" font-family="Helvetica,sans-Serif" font-size="10.00">/download_nonostree_test.cc</text>
</a>
</g>
</g>
<!-- Node2&#45;&gt;Node13 -->
<g id="edge16" class="edge">
<title>Node2&#45;&gt;Node13</title>
<path fill="none" stroke="midnightblue" d="M1957.43,-152.29C1937.43,-143.22 1913.38,-131.7 1892.5,-120 1862.82,-103.37 1859.18,-92.7 1828.5,-78 1790.92,-59.99 1746.1,-45.66 1711.5,-36.01"/>
<polygon fill="midnightblue" stroke="midnightblue" points="1956.04,-155.5 1966.6,-156.41 1958.91,-149.12 1956.04,-155.5"/>
</g>
<!-- Node14 -->
<g id="node14" class="node">
<title>Node14</title>
<g id="a_node14"><a xlink:href="empty__targets__test_8cc_source.html" target="_top" xlink:title=" ">
<polygon fill="white" stroke="black" points="1752.5,-6 1752.5,-36 1882.5,-36 1882.5,-6 1752.5,-6"/>
<text text-anchor="start" x="1760.5" y="-24" font-family="Helvetica,sans-Serif" font-size="10.00">src/libaktualizr/primary</text>
<text text-anchor="middle" x="1817.5" y="-13" font-family="Helvetica,sans-Serif" font-size="10.00">/empty_targets_test.cc</text>
</a>
</g>
</g>
<!-- Node2&#45;&gt;Node14 -->
<g id="edge17" class="edge">
<title>Node2&#45;&gt;Node14</title>
<path fill="none" stroke="midnightblue" d="M1976.23,-149.54C1954.83,-130.46 1922.03,-101.74 1892.5,-78 1874.14,-63.24 1852.51,-47.23 1837.22,-36.13"/>
<polygon fill="midnightblue" stroke="midnightblue" points="1974.06,-152.29 1983.85,-156.35 1978.73,-147.07 1974.06,-152.29"/>
</g>
<!-- Node15 -->
<g id="node15" class="node">
<title>Node15</title>
<g id="a_node15"><a xlink:href="metadata__expiration__test_8cc_source.html" target="_top" xlink:title=" ">
<polygon fill="white" stroke="black" points="1901,-6 1901,-36 2060,-36 2060,-6 1901,-6"/>
<text text-anchor="start" x="1909" y="-24" font-family="Helvetica,sans-Serif" font-size="10.00">src/libaktualizr/primary</text>
<text text-anchor="middle" x="1980.5" y="-13" font-family="Helvetica,sans-Serif" font-size="10.00">/metadata_expiration_test.cc</text>
</a>
</g>
</g>
<!-- Node2&#45;&gt;Node15 -->
<g id="edge18" class="edge">
<title>Node2&#45;&gt;Node15</title>
<path fill="none" stroke="midnightblue" d="M1996.39,-146.22C1992.4,-115.03 1985.6,-61.87 1982.34,-36.41"/>
<polygon fill="midnightblue" stroke="midnightblue" points="1992.94,-146.79 1997.68,-156.26 1999.88,-145.9 1992.94,-146.79"/>
</g>
<!-- Node16 -->
<g id="node16" class="node">
<title>Node16</title>
<g id="a_node16"><a xlink:href="metadata__fetch__test_8cc_source.html" target="_top" xlink:title=" ">
<polygon fill="white" stroke="black" points="2078.5,-6 2078.5,-36 2212.5,-36 2212.5,-6 2078.5,-6"/>
<text text-anchor="start" x="2086.5" y="-24" font-family="Helvetica,sans-Serif" font-size="10.00">src/libaktualizr/primary</text>
<text text-anchor="middle" x="2145.5" y="-13" font-family="Helvetica,sans-Serif" font-size="10.00">/metadata_fetch_test.cc</text>
</a>
</g>
</g>
<!-- Node2&#45;&gt;Node16 -->
<g id="edge19" class="edge">
<title>Node2&#45;&gt;Node16</title>
<path fill="none" stroke="midnightblue" d="M2005.95,-146.65C2012.43,-126.39 2024.12,-97.57 2042.5,-78 2060.13,-59.23 2085.48,-45.34 2106.63,-36.08"/>
<polygon fill="midnightblue" stroke="midnightblue" points="2002.56,-145.79 2003.03,-156.37 2009.26,-147.8 2002.56,-145.79"/>
</g>
<!-- Node17 -->
<g id="node17" class="node">
<title>Node17</title>
<g id="a_node17"><a xlink:href="reregistration__test_8cc_source.html" target="_top" xlink:title=" ">
<polygon fill="white" stroke="black" points="2230.5,-6 2230.5,-36 2360.5,-36 2360.5,-6 2230.5,-6"/>
<text text-anchor="start" x="2238.5" y="-24" font-family="Helvetica,sans-Serif" font-size="10.00">src/libaktualizr/primary</text>
<text text-anchor="middle" x="2295.5" y="-13" font-family="Helvetica,sans-Serif" font-size="10.00">/reregistration_test.cc</text>
</a>
</g>
</g>
<!-- Node2&#45;&gt;Node17 -->
<g id="edge20" class="edge">
<title>Node2&#45;&gt;Node17</title>
<path fill="none" stroke="midnightblue" d="M2018.25,-148.44C2040.92,-121.85 2076.56,-80.42 2080.5,-78 2135.61,-44.15 2158.95,-58.44 2221.5,-42 2228.71,-40.11 2236.3,-38.08 2243.77,-36.08"/>
<polygon fill="midnightblue" stroke="midnightblue" points="2015.49,-146.27 2011.67,-156.15 2020.82,-150.81 2015.49,-146.27"/>
</g>
<!-- Node18 -->
<g id="node18" class="node">
<title>Node18</title>
<g id="a_node18"><a xlink:href="target__mismatch__test_8cc_source.html" target="_top" xlink:title=" ">
<polygon fill="white" stroke="black" points="2378.5,-6 2378.5,-36 2518.5,-36 2518.5,-6 2378.5,-6"/>
<text text-anchor="start" x="2386.5" y="-24" font-family="Helvetica,sans-Serif" font-size="10.00">src/libaktualizr/primary</text>
<text text-anchor="middle" x="2448.5" y="-13" font-family="Helvetica,sans-Serif" font-size="10.00">/target_mismatch_test.cc</text>
</a>
</g>
</g>
<!-- Node2&#45;&gt;Node18 -->
<g id="edge21" class="edge">
<title>Node2&#45;&gt;Node18</title>
<path fill="none" stroke="midnightblue" d="M2033.38,-150.9C2047.31,-142.19 2063.25,-131.34 2076.5,-120 2095.62,-103.63 2092.26,-89.8 2114.5,-78 2215.61,-24.36 2257.19,-64.08 2369.5,-42 2378.25,-40.28 2387.47,-38.2 2396.41,-36.03"/>
<polygon fill="midnightblue" stroke="midnightblue" points="2031.26,-148.1 2024.56,-156.3 2034.91,-154.06 2031.26,-148.1"/>
</g>
<!-- Node2&#45;&gt;Node19 -->
<g id="edge22" class="edge">
<title>Node2&#45;&gt;Node19</title>
<path fill="none" stroke="midnightblue" d="M2064.75,-169.26C2255.33,-165.27 2802.41,-151.22 2876.5,-120 2902.01,-109.25 2897.57,-90.04 2922.5,-78 3012.9,-34.33 3047.07,-61.77 3145.5,-42 3154.36,-40.22 3163.72,-38.15 3172.82,-36.03"/>
<polygon fill="midnightblue" stroke="midnightblue" points="2064.52,-165.76 2054.6,-169.47 2064.67,-172.76 2064.52,-165.76"/>
</g>
<!-- Node20 -->
<g id="node20" class="node">
<title>Node20</title>
<g id="a_node20"><a xlink:href="aktualizr__cycle__simple_8cc_source.html" target="_top" xlink:title=" ">
<polygon fill="white" stroke="black" points="2123,-84 2123,-114 2240,-114 2240,-84 2123,-84"/>
<text text-anchor="start" x="2131" y="-102" font-family="Helvetica,sans-Serif" font-size="10.00">tests/aktualizr_cycle</text>
<text text-anchor="middle" x="2181.5" y="-91" font-family="Helvetica,sans-Serif" font-size="10.00">_simple.cc</text>
</a>
</g>
</g>
<!-- Node2&#45;&gt;Node20 -->
<g id="edge23" class="edge">
<title>Node2&#45;&gt;Node20</title>
<path fill="none" stroke="midnightblue" d="M2045.57,-152.65C2076.45,-140.69 2116.54,-125.16 2145.17,-114.07"/>
<polygon fill="midnightblue" stroke="midnightblue" points="2043.95,-149.53 2035.89,-156.4 2046.48,-156.05 2043.95,-149.53"/>
</g>
<!-- Node21 -->
<g id="node21" class="node">
<title>Node21</title>
<g id="a_node21"><a xlink:href="uptane__test__common_8h_source.html" target="_top" xlink:title=" ">
<polygon fill="white" stroke="black" points="1576.5,-89.5 1576.5,-108.5 1734.5,-108.5 1734.5,-89.5 1576.5,-89.5"/>
<text text-anchor="middle" x="1655.5" y="-96.5" font-family="Helvetica,sans-Serif" font-size="10.00">tests/uptane_test_common.h</text>
</a>
</g>
</g>
<!-- Node2&#45;&gt;Node21 -->
<g id="edge24" class="edge">
<title>Node2&#45;&gt;Node21</title>
<path fill="none" stroke="midnightblue" d="M1934.23,-157.12C1864.5,-142.83 1756.07,-120.61 1697.11,-108.53"/>
<polygon fill="midnightblue" stroke="midnightblue" points="1933.73,-160.59 1944.23,-159.17 1935.14,-153.74 1933.73,-160.59"/>
</g>
<!-- Node4&#45;&gt;Node3 -->
<g id="edge4" class="edge">
<title>Node4&#45;&gt;Node3</title>
<path fill="none" stroke="midnightblue" d="M2833.21,-81.36C2837.7,-80.2 2842.17,-79.07 2846.5,-78 2917.69,-60.43 2936.48,-60.22 3007.5,-42 3014.63,-40.17 3022.14,-38.12 3029.47,-36.06"/>
<polygon fill="midnightblue" stroke="midnightblue" points="2832.17,-78.02 2823.38,-83.93 2833.94,-84.79 2832.17,-78.02"/>
</g>
<!-- Node4&#45;&gt;Node5 -->
<g id="edge5" class="edge">
<title>Node4&#45;&gt;Node5</title>
<path fill="none" stroke="midnightblue" d="M2772.5,-73.66C2772.5,-63.33 2772.5,-51.44 2772.5,-41.68"/>
<polygon fill="midnightblue" stroke="midnightblue" points="2769,-73.7 2772.5,-83.7 2776,-73.71 2769,-73.7"/>
</g>
<!-- Node6 -->
<g id="node6" class="node">
<title>Node6</title>
<g id="a_node6"><a xlink:href="secondary_8cc_source.html" target="_top" xlink:title=" ">
<polygon fill="white" stroke="black" points="2878.5,-6 2878.5,-36 2998.5,-36 2998.5,-6 2878.5,-6"/>
<text text-anchor="start" x="2886.5" y="-24" font-family="Helvetica,sans-Serif" font-size="10.00">src/aktualizr_primary</text>
<text text-anchor="middle" x="2938.5" y="-13" font-family="Helvetica,sans-Serif" font-size="10.00">/secondary.cc</text>
</a>
</g>
</g>
<!-- Node4&#45;&gt;Node6 -->
<g id="edge6" class="edge">
<title>Node4&#45;&gt;Node6</title>
<path fill="none" stroke="midnightblue" d="M2812.47,-79.7C2841.78,-66.28 2880.98,-48.34 2907.83,-36.04"/>
<polygon fill="midnightblue" stroke="midnightblue" points="2810.97,-76.54 2803.33,-83.88 2813.88,-82.9 2810.97,-76.54"/>
</g>
<!-- Node9&#45;&gt;Node3 -->
<g id="edge11" class="edge">
<title>Node9&#45;&gt;Node3</title>
<path fill="none" stroke="midnightblue" d="M2465.85,-92.98C2606.85,-83.27 2905.54,-61.22 3007.5,-42 3015.71,-40.45 3024.35,-38.34 3032.63,-36.08"/>
<polygon fill="midnightblue" stroke="midnightblue" points="2465.3,-89.51 2455.56,-93.68 2465.78,-96.49 2465.3,-89.51"/>
</g>
<!-- Node10 -->
<g id="node10" class="node">
<title>Node10</title>
<g id="a_node10"><a xlink:href="aktualizr__helpers_8cc_source.html" target="_top" xlink:title=" ">
<polygon fill="white" stroke="black" points="2536.5,-6 2536.5,-36 2666.5,-36 2666.5,-6 2536.5,-6"/>
<text text-anchor="start" x="2544.5" y="-24" font-family="Helvetica,sans-Serif" font-size="10.00">src/libaktualizr/primary</text>
<text text-anchor="middle" x="2601.5" y="-13" font-family="Helvetica,sans-Serif" font-size="10.00">/aktualizr_helpers.cc</text>
</a>
</g>
</g>
<!-- Node9&#45;&gt;Node10 -->
<g id="edge12" class="edge">
<title>Node9&#45;&gt;Node10</title>
<path fill="none" stroke="midnightblue" d="M2439.39,-80.39C2476.83,-66.9 2527.79,-48.55 2562.52,-36.04"/>
<polygon fill="midnightblue" stroke="midnightblue" points="2437.92,-77.2 2429.69,-83.88 2440.29,-83.79 2437.92,-77.2"/>
</g>
<!-- Node9&#45;&gt;Node11 -->
<g id="edge13" class="edge">
<title>Node9&#45;&gt;Node11</title>
<path fill="none" stroke="midnightblue" d="M2315.44,-85.86C2294.18,-82.83 2270.97,-79.9 2249.5,-78 1806.51,-38.72 1689.24,-108.45 1249.5,-42 1240.16,-40.59 1230.3,-38.42 1220.94,-36.03"/>
<polygon fill="midnightblue" stroke="midnightblue" points="2314.98,-89.33 2325.38,-87.31 2315.99,-82.41 2314.98,-89.33"/>
</g>
<!-- Node21&#45;&gt;Node5 -->
<g id="edge25" class="edge">
<title>Node21&#45;&gt;Node5</title>
<path fill="none" stroke="midnightblue" d="M1744.79,-93.86C1976.39,-83.01 2584.68,-53.79 2675.5,-42 2678.57,-41.6 2681.69,-41.16 2684.83,-40.68"/>
<polygon fill="midnightblue" stroke="midnightblue" points="1744.54,-90.37 1734.72,-94.33 1744.87,-97.36 1744.54,-90.37"/>
</g>
<!-- Node21&#45;&gt;Node8 -->
<g id="edge26" class="edge">
<title>Node21&#45;&gt;Node8</title>
<path fill="none" stroke="midnightblue" d="M1609.52,-87.11C1552.71,-73.66 1455.97,-50.76 1393.68,-36.01"/>
<polygon fill="midnightblue" stroke="midnightblue" points="1608.76,-90.53 1619.3,-89.43 1610.38,-83.72 1608.76,-90.53"/>
</g>
<!-- Node21&#45;&gt;Node11 -->
<g id="edge27" class="edge">
<title>Node21&#45;&gt;Node11</title>
<path fill="none" stroke="midnightblue" d="M1591.46,-87.94C1570.17,-84.67 1546.33,-81.09 1524.5,-78 1402.46,-60.7 1370.38,-66.13 1249.5,-42 1241.15,-40.33 1232.35,-38.25 1223.84,-36.06"/>
<polygon fill="midnightblue" stroke="midnightblue" points="1590.95,-91.41 1601.36,-89.47 1592.01,-84.49 1590.95,-91.41"/>
</g>
<!-- Node21&#45;&gt;Node12 -->
<g id="edge28" class="edge">
<title>Node21&#45;&gt;Node12</title>
<path fill="none" stroke="midnightblue" d="M1628.08,-85.14C1599.08,-71.53 1553.46,-50.13 1523.52,-36.08"/>
<polygon fill="midnightblue" stroke="midnightblue" points="1626.69,-88.35 1637.23,-89.43 1629.66,-82.01 1626.69,-88.35"/>
</g>
<!-- Node21&#45;&gt;Node13 -->
<g id="edge29" class="edge">
<title>Node21&#45;&gt;Node13</title>
<path fill="none" stroke="midnightblue" d="M1655.5,-79.28C1655.5,-65.9 1655.5,-48.19 1655.5,-36.02"/>
<polygon fill="midnightblue" stroke="midnightblue" points="1652,-79.28 1655.5,-89.28 1659,-79.28 1652,-79.28"/>
</g>
<!-- Node21&#45;&gt;Node14 -->
<g id="edge30" class="edge">
<title>Node21&#45;&gt;Node14</title>
<path fill="none" stroke="midnightblue" d="M1682.92,-85.14C1711.92,-71.53 1757.54,-50.13 1787.48,-36.08"/>
<polygon fill="midnightblue" stroke="midnightblue" points="1681.34,-82.01 1673.77,-89.43 1684.31,-88.35 1681.34,-82.01"/>
</g>
<!-- Node21&#45;&gt;Node15 -->
<g id="edge31" class="edge">
<title>Node21&#45;&gt;Node15</title>
<path fill="none" stroke="midnightblue" d="M1702.06,-87.11C1759.57,-73.66 1857.51,-50.76 1920.58,-36.01"/>
<polygon fill="midnightblue" stroke="midnightblue" points="1701.09,-83.74 1692.15,-89.43 1702.68,-90.56 1701.09,-83.74"/>
</g>
<!-- Node21&#45;&gt;Node16 -->
<g id="edge32" class="edge">
<title>Node21&#45;&gt;Node16</title>
<path fill="none" stroke="midnightblue" d="M1744.61,-89.15C1828.81,-80.03 1958.41,-64.04 2069.5,-42 2078.06,-40.3 2087.1,-38.2 2095.83,-36.01"/>
<polygon fill="midnightblue" stroke="midnightblue" points="1744.14,-85.68 1734.57,-90.23 1744.89,-92.64 1744.14,-85.68"/>
</g>
<!-- Node21&#45;&gt;Node17 -->
<g id="edge33" class="edge">
<title>Node21&#45;&gt;Node17</title>
<path fill="none" stroke="midnightblue" d="M1745.07,-93.72C1857.19,-87.31 2054.79,-72.56 2221.5,-42 2230.14,-40.42 2239.24,-38.32 2248,-36.08"/>
<polygon fill="midnightblue" stroke="midnightblue" points="1744.61,-90.24 1734.82,-94.3 1745,-97.23 1744.61,-90.24"/>
</g>
<!-- Node21&#45;&gt;Node18 -->
<g id="edge34" class="edge">
<title>Node21&#45;&gt;Node18</title>
<path fill="none" stroke="midnightblue" d="M1745.09,-95.85C1880.93,-91.48 2146.79,-78.65 2369.5,-42 2378.85,-40.46 2388.72,-38.36 2398.2,-36.09"/>
<polygon fill="midnightblue" stroke="midnightblue" points="1744.62,-92.36 1734.74,-96.17 1744.84,-99.35 1744.62,-92.36"/>
</g>
<!-- Node21&#45;&gt;Node19 -->
<g id="edge37" class="edge">
<title>Node21&#45;&gt;Node19</title>
<path fill="none" stroke="midnightblue" d="M1744.85,-93.88C1837.34,-89.66 1986.02,-83.04 2114.5,-78 2572.65,-60.02 2691.21,-104.02 3145.5,-42 3155.93,-40.58 3166.95,-38.4 3177.45,-36.01"/>
<polygon fill="midnightblue" stroke="midnightblue" points="1744.51,-90.39 1734.68,-94.34 1744.83,-97.38 1744.51,-90.39"/>
</g>
<!-- Node22 -->
<g id="node22" class="node">
<title>Node22</title>
<g id="a_node22"><a xlink:href="uptane__key__test_8cc_source.html" target="_top" xlink:title=" ">
<polygon fill="white" stroke="black" points="818.5,-6 818.5,-36 948.5,-36 948.5,-6 818.5,-6"/>
<text text-anchor="start" x="826.5" y="-24" font-family="Helvetica,sans-Serif" font-size="10.00">src/libaktualizr/primary</text>
<text text-anchor="middle" x="883.5" y="-13" font-family="Helvetica,sans-Serif" font-size="10.00">/uptane_key_test.cc</text>
</a>
</g>
</g>
<!-- Node21&#45;&gt;Node22 -->
<g id="edge35" class="edge">
<title>Node21&#45;&gt;Node22</title>
<path fill="none" stroke="midnightblue" d="M1581.92,-88.17C1553.68,-84.62 1521.13,-80.81 1491.5,-78 1255.13,-55.62 1192.74,-80.77 958.5,-42 949.46,-40.5 939.93,-38.39 930.81,-36.1"/>
<polygon fill="midnightblue" stroke="midnightblue" points="1581.75,-91.68 1592.11,-89.46 1582.63,-84.73 1581.75,-91.68"/>
</g>
<!-- Node23 -->
<g id="node23" class="node">
<title>Node23</title>
<g id="a_node23"><a xlink:href="uptane__ci__test_8cc_source.html" target="_top" xlink:title=" ">
<polygon fill="white" stroke="black" points="967,-6 967,-36 1092,-36 1092,-6 967,-6"/>
<text text-anchor="start" x="975" y="-24" font-family="Helvetica,sans-Serif" font-size="10.00">src/libaktualizr/uptane</text>
<text text-anchor="middle" x="1029.5" y="-13" font-family="Helvetica,sans-Serif" font-size="10.00">/uptane_ci_test.cc</text>
</a>
</g>
</g>
<!-- Node21&#45;&gt;Node23 -->
<g id="edge36" class="edge">
<title>Node21&#45;&gt;Node23</title>
<path fill="none" stroke="midnightblue" d="M1579.32,-88.24C1551.68,-84.82 1520.2,-81.07 1491.5,-78 1318.42,-59.46 1272.71,-73.42 1101.5,-42 1092.95,-40.43 1083.94,-38.31 1075.31,-36.04"/>
<polygon fill="midnightblue" stroke="midnightblue" points="1578.96,-91.72 1589.32,-89.48 1579.83,-84.78 1578.96,-91.72"/>
</g>
<!-- Node24 -->
<g id="node24" class="node">
<title>Node24</title>
<g id="a_node24"><a xlink:href="uptane__network__test_8cc.html" target="_top" xlink:title=" ">
<polygon fill="white" stroke="black" points="377.5,-6 377.5,-36 513.5,-36 513.5,-6 377.5,-6"/>
<text text-anchor="start" x="385.5" y="-24" font-family="Helvetica,sans-Serif" font-size="10.00">src/libaktualizr/uptane</text>
<text text-anchor="middle" x="445.5" y="-13" font-family="Helvetica,sans-Serif" font-size="10.00">/uptane_network_test.cc</text>
</a>
</g>
</g>
<!-- Node21&#45;&gt;Node24 -->
<g id="edge38" class="edge">
<title>Node21&#45;&gt;Node24</title>
<path fill="none" stroke="midnightblue" d="M1585.59,-88.16C1556.54,-84.41 1522.45,-80.46 1491.5,-78 1061.89,-43.88 948.9,-104.54 522.5,-42 512.8,-40.58 502.55,-38.4 492.82,-36.01"/>
<polygon fill="midnightblue" stroke="midnightblue" points="1585.27,-91.65 1595.64,-89.47 1586.18,-84.71 1585.27,-91.65"/>
</g>
<!-- Node25 -->
<g id="node25" class="node">
<title>Node25</title>
<g id="a_node25"><a xlink:href="uptane__serial__test_8cc_source.html" target="_top" xlink:title=" ">
<polygon fill="white" stroke="black" points="532,-6 532,-36 657,-36 657,-6 532,-6"/>
<text text-anchor="start" x="540" y="-24" font-family="Helvetica,sans-Serif" font-size="10.00">src/libaktualizr/uptane</text>
<text text-anchor="middle" x="594.5" y="-13" font-family="Helvetica,sans-Serif" font-size="10.00">/uptane_serial_test.cc</text>
</a>
</g>
</g>
<!-- Node21&#45;&gt;Node25 -->
<g id="edge39" class="edge">
<title>Node21&#45;&gt;Node25</title>
<path fill="none" stroke="midnightblue" d="M1584.86,-88.17C1555.97,-84.46 1522.18,-80.54 1491.5,-78 1125.29,-47.74 1028.32,-100.2 665.5,-42 656.65,-40.58 647.33,-38.44 638.46,-36.08"/>
<polygon fill="midnightblue" stroke="midnightblue" points="1584.5,-91.65 1594.87,-89.46 1585.4,-84.71 1584.5,-91.65"/>
</g>
<!-- Node26 -->
<g id="node26" class="node">
<title>Node26</title>
<g id="a_node26"><a xlink:href="uptane__test_8cc_source.html" target="_top" xlink:title=" ">
<polygon fill="white" stroke="black" points="675,-6 675,-36 800,-36 800,-6 675,-6"/>
<text text-anchor="start" x="683" y="-24" font-family="Helvetica,sans-Serif" font-size="10.00">src/libaktualizr/uptane</text>
<text text-anchor="middle" x="737.5" y="-13" font-family="Helvetica,sans-Serif" font-size="10.00">/uptane_test.cc</text>
</a>
</g>
</g>
<!-- Node21&#45;&gt;Node26 -->
<g id="edge40" class="edge">
<title>Node21&#45;&gt;Node26</title>
<path fill="none" stroke="midnightblue" d="M1584.13,-88.22C1555.39,-84.56 1521.92,-80.65 1491.5,-78 1189.12,-51.61 1109.07,-90.91 809.5,-42 800.54,-40.54 791.09,-38.38 782.1,-36.01"/>
<polygon fill="midnightblue" stroke="midnightblue" points="1583.72,-91.69 1594.08,-89.5 1584.61,-84.75 1583.72,-91.69"/>
</g>
<!-- Node28&#45;&gt;Node7 -->
<g id="edge49" class="edge">
<title>Node28&#45;&gt;Node7</title>
<path fill="none" stroke="midnightblue" d="M866.88,-162.01C990.83,-148.05 1235.57,-120.49 1352.43,-107.33"/>
<polygon fill="midnightblue" stroke="midnightblue" points="866.27,-158.56 856.72,-163.15 867.05,-165.51 866.27,-158.56"/>
</g>
<!-- Node28&#45;&gt;Node11 -->
<g id="edge50" class="edge">
<title>Node28&#45;&gt;Node11</title>
<path fill="none" stroke="midnightblue" d="M833.15,-151.84C850.16,-143.3 869.54,-132.33 885.5,-120 905.66,-104.43 902.29,-90.47 924.5,-78 994.5,-38.7 1023.38,-60.48 1101.5,-42 1109.14,-40.19 1117.19,-38.16 1125.05,-36.09"/>
<polygon fill="midnightblue" stroke="midnightblue" points="831.43,-148.79 823.99,-156.33 834.51,-155.08 831.43,-148.79"/>
</g>
<!-- Node28&#45;&gt;Node21 -->
<g id="edge59" class="edge">
<title>Node28&#45;&gt;Node21</title>
<path fill="none" stroke="midnightblue" d="M866.85,-166.29C995.22,-158.84 1264.5,-142.02 1491.5,-120 1524.62,-116.79 1561.39,-112.38 1591.72,-108.52"/>
<polygon fill="midnightblue" stroke="midnightblue" points="866.51,-162.8 856.73,-166.87 866.92,-169.79 866.51,-162.8"/>
</g>
<!-- Node28&#45;&gt;Node22 -->
<g id="edge54" class="edge">
<title>Node28&#45;&gt;Node22</title>
<path fill="none" stroke="midnightblue" d="M805.79,-147.44C825,-116.43 858.59,-62.2 874.57,-36.41"/>
<polygon fill="midnightblue" stroke="midnightblue" points="802.61,-145.92 800.32,-156.26 808.56,-149.6 802.61,-145.92"/>
</g>
<!-- Node28&#45;&gt;Node23 -->
<g id="edge55" class="edge">
<title>Node28&#45;&gt;Node23</title>
<path fill="none" stroke="midnightblue" d="M816.63,-149.84C827.27,-140.88 839.68,-130.14 850.5,-120 869.54,-102.17 869.85,-92.55 891.5,-78 919.08,-59.47 953.74,-45.44 981.43,-36.05"/>
<polygon fill="midnightblue" stroke="midnightblue" points="814.32,-147.21 808.89,-156.31 818.81,-152.58 814.32,-147.21"/>
</g>
<!-- Node28&#45;&gt;Node24 -->
<g id="edge56" class="edge">
<title>Node28&#45;&gt;Node24</title>
<path fill="none" stroke="midnightblue" d="M763.95,-150.19C752.77,-141.43 740.04,-130.73 729.5,-120 712.86,-103.07 716.68,-90.5 696.5,-78 629.36,-36.43 599.41,-59.93 522.5,-42 514.56,-40.15 506.2,-38.09 498.02,-36.02"/>
<polygon fill="midnightblue" stroke="midnightblue" points="762.07,-153.16 772.13,-156.49 766.34,-147.62 762.07,-153.16"/>
</g>
<!-- Node28&#45;&gt;Node25 -->
<g id="edge57" class="edge">
<title>Node28&#45;&gt;Node25</title>
<path fill="none" stroke="midnightblue" d="M780.89,-147.35C770.4,-126.72 752.6,-96.94 729.5,-78 705.76,-58.53 674.3,-44.96 647.72,-36.05"/>
<polygon fill="midnightblue" stroke="midnightblue" points="777.77,-148.94 785.31,-156.38 784.06,-145.86 777.77,-148.94"/>
</g>
<!-- Node28&#45;&gt;Node26 -->
<g id="edge58" class="edge">
<title>Node28&#45;&gt;Node26</title>
<path fill="none" stroke="midnightblue" d="M786.91,-146.49C782.9,-127.52 776.33,-100.58 767.5,-78 761.71,-63.21 752.95,-47.34 746.38,-36.28"/>
<polygon fill="midnightblue" stroke="midnightblue" points="783.5,-147.28 788.93,-156.38 790.36,-145.89 783.5,-147.28"/>
</g>
<!-- Node29 -->
<g id="node29" class="node">
<title>Node29</title>
<g id="a_node29"><a xlink:href="helpers_8h_source.html" target="_top" xlink:title=" ">
<polygon fill="white" stroke="black" points="589.5,-84 589.5,-114 687.5,-114 687.5,-84 589.5,-84"/>
<text text-anchor="start" x="597.5" y="-102" font-family="Helvetica,sans-Serif" font-size="10.00">src/aktualizr_lite</text>
<text text-anchor="middle" x="638.5" y="-91" font-family="Helvetica,sans-Serif" font-size="10.00">/helpers.h</text>
</a>
</g>
</g>
<!-- Node28&#45;&gt;Node29 -->
<g id="edge44" class="edge">
<title>Node28&#45;&gt;Node29</title>
<path fill="none" stroke="midnightblue" d="M751.76,-152.19C725.94,-140.29 692.79,-125.02 669.04,-114.07"/>
<polygon fill="midnightblue" stroke="midnightblue" points="750.36,-155.4 760.91,-156.4 753.29,-149.04 750.36,-155.4"/>
</g>
<!-- Node33 -->
<g id="node33" class="node">
<title>Node33</title>
<g id="a_node33"><a xlink:href="dockerappmanager__test_8cc_source.html" target="_top" xlink:title=" ">
<polygon fill="white" stroke="black" points="933.5,-78.5 933.5,-119.5 1095.5,-119.5 1095.5,-78.5 933.5,-78.5"/>
<text text-anchor="start" x="941.5" y="-107.5" font-family="Helvetica,sans-Serif" font-size="10.00">src/libaktualizr/package</text>
<text text-anchor="start" x="941.5" y="-96.5" font-family="Helvetica,sans-Serif" font-size="10.00">_manager/dockerappmanager</text>
<text text-anchor="middle" x="1014.5" y="-85.5" font-family="Helvetica,sans-Serif" font-size="10.00">_test.cc</text>
</a>
</g>
</g>
<!-- Node28&#45;&gt;Node33 -->
<g id="edge48" class="edge">
<title>Node28&#45;&gt;Node33</title>
<path fill="none" stroke="midnightblue" d="M845.54,-153.42C877.82,-143.21 918.94,-130.21 952.53,-119.59"/>
<polygon fill="midnightblue" stroke="midnightblue" points="844.3,-150.14 835.82,-156.49 846.41,-156.81 844.3,-150.14"/>
</g>
<!-- Node34 -->
<g id="node34" class="node">
<title>Node34</title>
<g id="a_node34"><a xlink:href="device__cred__prov__test_8cc.html" target="_top" xlink:title=" ">
<polygon fill="white" stroke="black" points="0,-84 0,-114 143,-114 143,-84 0,-84"/>
<text text-anchor="start" x="8" y="-102" font-family="Helvetica,sans-Serif" font-size="10.00">src/libaktualizr/primary</text>
<text text-anchor="middle" x="71.5" y="-91" font-family="Helvetica,sans-Serif" font-size="10.00">/device_cred_prov_test.cc</text>
</a>
</g>
</g>
<!-- Node28&#45;&gt;Node34 -->
<g id="edge51" class="edge">
<title>Node28&#45;&gt;Node34</title>
<path fill="none" stroke="midnightblue" d="M716.05,-168.52C596.02,-164.48 354.51,-152.7 152.5,-120 142.92,-118.45 132.81,-116.34 123.09,-114.07"/>
<polygon fill="midnightblue" stroke="midnightblue" points="716.12,-172.02 726.23,-168.85 716.35,-165.03 716.12,-172.02"/>
</g>
<!-- Node35 -->
<g id="node35" class="node">
<title>Node35</title>
<g id="a_node35"><a xlink:href="initializer__test_8cc_source.html" target="_top" xlink:title=" ">
<polygon fill="white" stroke="black" points="161.5,-84 161.5,-114 291.5,-114 291.5,-84 161.5,-84"/>
<text text-anchor="start" x="169.5" y="-102" font-family="Helvetica,sans-Serif" font-size="10.00">src/libaktualizr/primary</text>
<text text-anchor="middle" x="226.5" y="-91" font-family="Helvetica,sans-Serif" font-size="10.00">/initializer_test.cc</text>
</a>
</g>
</g>
<!-- Node28&#45;&gt;Node35 -->
<g id="edge52" class="edge">
<title>Node28&#45;&gt;Node35</title>
<path fill="none" stroke="midnightblue" d="M716.3,-166.55C619.5,-160.6 446.37,-147.03 300.5,-120 291.86,-118.4 282.76,-116.3 274.01,-114.05"/>
<polygon fill="midnightblue" stroke="midnightblue" points="716.1,-170.04 726.29,-167.15 716.52,-163.05 716.1,-170.04"/>
</g>
<!-- Node36 -->
<g id="node36" class="node">
<title>Node36</title>
<g id="a_node36"><a xlink:href="sotauptaneclient_8cc_source.html" target="_top" xlink:title=" ">
<polygon fill="white" stroke="black" points="309.5,-84 309.5,-114 439.5,-114 439.5,-84 309.5,-84"/>
<text text-anchor="start" x="317.5" y="-102" font-family="Helvetica,sans-Serif" font-size="10.00">src/libaktualizr/primary</text>
<text text-anchor="middle" x="374.5" y="-91" font-family="Helvetica,sans-Serif" font-size="10.00">/sotauptaneclient.cc</text>
</a>
</g>
</g>
<!-- Node28&#45;&gt;Node36 -->
<g id="edge53" class="edge">
<title>Node28&#45;&gt;Node36</title>
<path fill="none" stroke="midnightblue" d="M716.28,-162.01C646.48,-153.53 539.91,-139.01 448.5,-120 440.29,-118.29 431.64,-116.21 423.26,-114.05"/>
<polygon fill="midnightblue" stroke="midnightblue" points="715.95,-165.5 726.3,-163.22 716.79,-158.55 715.95,-165.5"/>
</g>
<!-- Node37 -->
<g id="node37" class="node">
<title>Node37</title>
<g id="a_node37"><a xlink:href="uptane__vector__tests_8cc_source.html" target="_top" xlink:title=" ">
<polygon fill="white" stroke="black" points="458,-84 458,-114 571,-114 571,-84 458,-84"/>
<text text-anchor="start" x="466" y="-102" font-family="Helvetica,sans-Serif" font-size="10.00">tests/uptane_vector</text>
<text text-anchor="middle" x="514.5" y="-91" font-family="Helvetica,sans-Serif" font-size="10.00">_tests.cc</text>
</a>
</g>
</g>
<!-- Node28&#45;&gt;Node37 -->
<g id="edge60" class="edge">
<title>Node28&#45;&gt;Node37</title>
<path fill="none" stroke="midnightblue" d="M718.62,-154.18C677.84,-144.77 626.18,-132.38 580.5,-120 573.68,-118.15 566.5,-116.09 559.49,-114.02"/>
<polygon fill="midnightblue" stroke="midnightblue" points="717.94,-157.61 728.47,-156.44 719.51,-150.79 717.94,-157.61"/>
</g>
<!-- Node30 -->
<g id="node30" class="node">
<title>Node30</title>
<g id="a_node30"><a xlink:href="helpers_8cc_source.html" target="_top" xlink:title=" ">
<polygon fill="white" stroke="black" points="29.5,-6 29.5,-36 127.5,-36 127.5,-6 29.5,-6"/>
<text text-anchor="start" x="37.5" y="-24" font-family="Helvetica,sans-Serif" font-size="10.00">src/aktualizr_lite</text>
<text text-anchor="middle" x="78.5" y="-13" font-family="Helvetica,sans-Serif" font-size="10.00">/helpers.cc</text>
</a>
</g>
</g>
<!-- Node29&#45;&gt;Node30 -->
<g id="edge45" class="edge">
<title>Node29&#45;&gt;Node30</title>
<path fill="none" stroke="midnightblue" d="M592.03,-81.08C587.83,-79.9 583.61,-78.85 579.5,-78 386.06,-37.99 329.84,-82.52 136.5,-42 129.31,-40.49 121.78,-38.34 114.62,-36.01"/>
<polygon fill="midnightblue" stroke="midnightblue" points="591.16,-84.47 601.75,-84 593.18,-77.76 591.16,-84.47"/>
</g>
<!-- Node31 -->
<g id="node31" class="node">
<title>Node31</title>
<g id="a_node31"><a xlink:href="helpers__test_8cc_source.html" target="_top" xlink:title=" ">
<polygon fill="white" stroke="black" points="145.5,-6 145.5,-36 243.5,-36 243.5,-6 145.5,-6"/>
<text text-anchor="start" x="153.5" y="-24" font-family="Helvetica,sans-Serif" font-size="10.00">src/aktualizr_lite</text>
<text text-anchor="middle" x="194.5" y="-13" font-family="Helvetica,sans-Serif" font-size="10.00">/helpers_test.cc</text>
</a>
</g>
</g>
<!-- Node29&#45;&gt;Node31 -->
<g id="edge46" class="edge">
<title>Node29&#45;&gt;Node31</title>
<path fill="none" stroke="midnightblue" d="M591.3,-81C587.34,-79.88 583.37,-78.86 579.5,-78 436.76,-46.34 395.16,-74.03 252.5,-42 245.54,-40.44 238.25,-38.32 231.28,-36.05"/>
<polygon fill="midnightblue" stroke="midnightblue" points="590.49,-84.41 601.08,-83.96 592.52,-77.71 590.49,-84.41"/>
</g>
<!-- Node32 -->
<g id="node32" class="node">
<title>Node32</title>
<g id="a_node32"><a xlink:href="aktualizr__lite_2main_8cc_source.html" target="_top" xlink:title=" ">
<polygon fill="white" stroke="black" points="261.5,-6 261.5,-36 359.5,-36 359.5,-6 261.5,-6"/>
<text text-anchor="start" x="269.5" y="-24" font-family="Helvetica,sans-Serif" font-size="10.00">src/aktualizr_lite</text>
<text text-anchor="middle" x="310.5" y="-13" font-family="Helvetica,sans-Serif" font-size="10.00">/main.cc</text>
</a>
</g>
</g>
<!-- Node29&#45;&gt;Node32 -->
<g id="edge47" class="edge">
<title>Node29&#45;&gt;Node32</title>
<path fill="none" stroke="midnightblue" d="M590.39,-81C586.72,-79.92 583.06,-78.9 579.5,-78 487.28,-54.66 460.66,-65.58 368.5,-42 361.9,-40.31 354.97,-38.22 348.29,-36.02"/>
<polygon fill="midnightblue" stroke="midnightblue" points="589.45,-84.38 600.04,-83.99 591.53,-77.69 589.45,-84.38"/>
</g>
</g>
</svg>
        <g id="navigator" transform="translate(0 0)" fill="#404254">
                <rect fill="#f2f5e9" fill-opacity="0.5" stroke="#606060" stroke-width=".5" x="0" y="0" width="60" height="60"/>
                <use id="zoomplus" xlink:href="#zoomPlus" x="17" y="9" onmousedown="handleZoom(evt,'in')"/>
                <use id="zoomminus" xlink:href="#zoomMin" x="42" y="9" onmousedown="handleZoom(evt,'out')"/>
                <use id="reset" xlink:href="#resetDef" x="30" y="36" onmousedown="handleReset()"/>
                <g id="arrowUp" xlink:href="#dirArrow" transform="translate(30 24)" onmousedown="handlePan(0,-1)">
                  <use xlink:href="#rim" fill="#404040">
                        <set attributeName="fill" to="#808080" begin="arrowUp.mouseover" end="arrowUp.mouseout"/>
                  </use>
                  <path fill="none" stroke="white" stroke-width="1.5" d="M0,-3.0v7 M-2.5,-0.5L0,-3.0L2.5,-0.5"/>
                </g>
                <g id="arrowRight" xlink:href="#dirArrow" transform="rotate(90) translate(36 -43)" onmousedown="handlePan(1,0)">
                  <use xlink:href="#rim" fill="#404040">
                        <set attributeName="fill" to="#808080" begin="arrowRight.mouseover" end="arrowRight.mouseout"/>
                  </use>
                  <path fill="none" stroke="white" stroke-width="1.5" d="M0,-3.0v7 M-2.5,-0.5L0,-3.0L2.5,-0.5"/>
                </g>
                <g id="arrowDown" xlink:href="#dirArrow" transform="rotate(180) translate(-30 -48)" onmousedown="handlePan(0,1)">
                  <use xlink:href="#rim" fill="#404040">
                        <set attributeName="fill" to="#808080" begin="arrowDown.mouseover" end="arrowDown.mouseout"/>
                  </use>
                  <path fill="none" stroke="white" stroke-width="1.5" d="M0,-3.0v7 M-2.5,-0.5L0,-3.0L2.5,-0.5"/>
                </g>
                <g id="arrowLeft" xlink:href="#dirArrow" transform="rotate(270) translate(-36 17)" onmousedown="handlePan(-1,0)">
                  <use xlink:href="#rim" fill="#404040">
                        <set attributeName="fill" to="#808080" begin="arrowLeft.mouseover" end="arrowLeft.mouseout"/>
                  </use>
                  <path fill="none" stroke="white" stroke-width="1.5" d="M0,-3.0v7 M-2.5,-0.5L0,-3.0L2.5,-0.5"/>
                </g>
        </g>
        <svg viewBox="0 0 15 15" width="100%" height="30px" preserveAspectRatio="xMaxYMin meet">
         <g id="arrow_out" transform="scale(0.3 0.3)">
          <a xlink:href="events_8h__dep__incl_org.svg" target="_base">
           <rect id="button" ry="5" rx="5" y="6" x="6" height="38" width="38"
                fill="#f2f5e9" fill-opacity="0.5" stroke="#606060" stroke-width="1.0"/>
           <path id="arrow"
             d="M 11.500037,31.436501 C 11.940474,20.09759 22.043105,11.32322 32.158766,21.979434 L 37.068811,17.246167 C 37.068811,17.246167 37.088388,32 37.088388,32 L 22.160133,31.978069 C 22.160133,31.978069 26.997745,27.140456 26.997745,27.140456 C 18.528582,18.264221 13.291696,25.230495 11.500037,31.436501 z"
             style="fill:#404040;"/>
          </a>
         </g>
        </svg>
</svg>
