<?xml version="1.0" encoding="UTF-8" standalone="no"?>
<!DOCTYPE svg PUBLIC "-//W3C//DTD SVG 1.1//EN"
 "http://www.w3.org/Graphics/SVG/1.1/DTD/svg11.dtd">
<!-- Generated by graphviz version 2.43.0 (0)
 -->
<!-- Title: Graphical Class Hierarchy Pages: 1 -->
<svg width="331pt" height="104pt"
 viewBox="0.00 0.00 331.00 104.00" xmlns="http://www.w3.org/2000/svg" xmlns:xlink="http://www.w3.org/1999/xlink">
<g id="graph0" class="graph" transform="scale(1 1) rotate(0) translate(4 100)">
<title>Graphical Class Hierarchy</title>
<polygon fill="white" stroke="transparent" points="-4,4 -4,-100 327,-100 327,4 -4,4"/>
<!-- Node0 -->
<g id="node1" class="node">
<title>Node0</title>
<g id="a_node1"><a xlink:href="class_execution_controller.html" target="_top" xlink:title=" ">
<polygon fill="white" stroke="black" points="0,-38.5 0,-57.5 112,-57.5 112,-38.5 0,-38.5"/>
<text text-anchor="middle" x="56" y="-45.5" font-family="Helvetica,sans-Serif" font-size="10.00">ExecutionController</text>
</a>
</g>
</g>
<!-- Node1 -->
<g id="node2" class="node">
<title>Node1</title>
<g id="a_node2"><a xlink:href="class_fixed_execution_controller.html" target="_top" xlink:title=" ">
<polygon fill="white" stroke="black" points="167,-76.5 167,-95.5 304,-95.5 304,-76.5 167,-76.5"/>
<text text-anchor="middle" x="235.5" y="-83.5" font-family="Helvetica,sans-Serif" font-size="10.00">FixedExecutionController</text>
</a>
</g>
</g>
<!-- Node0&#45;&gt;Node1 -->
<g id="edge1" class="edge">
<title>Node0&#45;&gt;Node1</title>
<path fill="none" stroke="midnightblue" d="M111.9,-59.75C137,-65.13 166.34,-71.41 190.03,-76.48"/>
<polygon fill="midnightblue" stroke="midnightblue" points="112.3,-56.26 101.79,-57.59 110.84,-63.1 112.3,-56.26"/>
</g>
<!-- Node2 -->
<g id="node3" class="node">
<title>Node2</title>
<g id="a_node3"><a xlink:href="class_interruptable_execution_controller.html" target="_top" xlink:title=" ">
<polygon fill="white" stroke="black" points="148,-38.5 148,-57.5 323,-57.5 323,-38.5 148,-38.5"/>
<text text-anchor="middle" x="235.5" y="-45.5" font-family="Helvetica,sans-Serif" font-size="10.00">InterruptableExecutionController</text>
</a>
</g>
</g>
<!-- Node0&#45;&gt;Node2 -->
<g id="edge2" class="edge">
<title>Node0&#45;&gt;Node2</title>
<path fill="none" stroke="midnightblue" d="M122.45,-48C130.69,-48 139.22,-48 147.73,-48"/>
<polygon fill="midnightblue" stroke="midnightblue" points="122.19,-44.5 112.19,-48 122.19,-51.5 122.19,-44.5"/>
</g>
<!-- Node3 -->
<g id="node4" class="node">
<title>Node3</title>
<g id="a_node4"><a xlink:href="class_unbounded_execution_controller.html" target="_top" xlink:title=" ">
<polygon fill="white" stroke="black" points="152,-0.5 152,-19.5 319,-19.5 319,-0.5 152,-0.5"/>
<text text-anchor="middle" x="235.5" y="-7.5" font-family="Helvetica,sans-Serif" font-size="10.00">UnboundedExecutionController</text>
</a>
</g>
</g>
<!-- Node0&#45;&gt;Node3 -->
<g id="edge3" class="edge">
<title>Node0&#45;&gt;Node3</title>
<path fill="none" stroke="#8b1a1a" d="M111.9,-36.25C137,-30.87 166.34,-24.59 190.03,-19.52"/>
<polygon fill="#8b1a1a" stroke="#8b1a1a" points="110.84,-32.9 101.79,-38.41 112.3,-39.74 110.84,-32.9"/>
</g>
</g>
</svg>
