<?xml version="1.0" encoding="UTF-8" standalone="no"?>
<!DOCTYPE svg PUBLIC "-//W3C//DTD SVG 1.1//EN"
 "http://www.w3.org/Graphics/SVG/1.1/DTD/svg11.dtd">
<!-- Generated by graphviz version 2.40.1 (20161225.0304)
 -->
<!-- Title: Graphical Class Hierarchy Pages: 1 -->
<svg width="198pt" height="66pt"
 viewBox="0.00 0.00 198.00 66.00" xmlns="http://www.w3.org/2000/svg" xmlns:xlink="http://www.w3.org/1999/xlink">
<g id="graph0" class="graph" transform="scale(1 1) rotate(0) translate(4 62)">
<title>Graphical Class Hierarchy</title>
<polygon fill="#ffffff" stroke="transparent" points="-4,4 -4,-62 194,-62 194,4 -4,4"/>
<!-- Node0 -->
<g id="node1" class="node">
<title>Node0</title>
<g id="a_node1"><a xlink:href="class_socket.html" target="_top" xlink:title="Socket">
<polygon fill="#ffffff" stroke="#000000" points="0,-19.5 0,-38.5 50,-38.5 50,-19.5 0,-19.5"/>
<text text-anchor="middle" x="25" y="-26.5" font-family="Helvetica,sans-Serif" font-size="10.00" fill="#000000">Socket</text>
</a>
</g>
</g>
<!-- Node1 -->
<g id="node2" class="node">
<title>Node1</title>
<g id="a_node2"><a xlink:href="class_connection_socket.html" target="_top" xlink:title="ConnectionSocket">
<polygon fill="#ffffff" stroke="#000000" points="86,-38.5 86,-57.5 190,-57.5 190,-38.5 86,-38.5"/>
<text text-anchor="middle" x="138" y="-45.5" font-family="Helvetica,sans-Serif" font-size="10.00" fill="#000000">ConnectionSocket</text>
</a>
</g>
</g>
<!-- Node0&#45;&gt;Node1 -->
<g id="edge1" class="edge">
<title>Node0&#45;&gt;Node1</title>
<path fill="none" stroke="#191970" d="M59.9616,-34.8785C68.1107,-36.2487 76.9628,-37.7371 85.6813,-39.2031"/>
<polygon fill="#191970" stroke="#191970" points="60.5203,-31.4234 50.0784,-33.2167 59.3596,-38.3265 60.5203,-31.4234"/>
</g>
<!-- Node2 -->
<g id="node3" class="node">
<title>Node2</title>
<g id="a_node3"><a xlink:href="class_listen_socket.html" target="_top" xlink:title="ListenSocket">
<polygon fill="#ffffff" stroke="#000000" points="98.5,-.5 98.5,-19.5 177.5,-19.5 177.5,-.5 98.5,-.5"/>
<text text-anchor="middle" x="138" y="-7.5" font-family="Helvetica,sans-Serif" font-size="10.00" fill="#000000">ListenSocket</text>
</a>
</g>
</g>
<!-- Node0&#45;&gt;Node2 -->
<g id="edge2" class="edge">
<title>Node0&#45;&gt;Node2</title>
<path fill="none" stroke="#191970" d="M60.2402,-23.0747C72.3264,-21.0425 85.9321,-18.7548 98.3441,-16.6678"/>
<polygon fill="#191970" stroke="#191970" points="59.3596,-19.6735 50.0784,-24.7833 60.5203,-26.5766 59.3596,-19.6735"/>
</g>
</g>
</svg>
