<?xml version="1.0" encoding="UTF-8" standalone="no"?>
<!DOCTYPE svg PUBLIC "-//W3C//DTD SVG 1.1//EN"
 "http://www.w3.org/Graphics/SVG/1.1/DTD/svg11.dtd">
<!-- Generated by graphviz version 2.40.1 (20161225.0304)
 -->
<!-- Title: Graphical Class Hierarchy Pages: 1 -->
<svg width="220pt" height="78pt"
 viewBox="0.00 0.00 220.00 77.50" xmlns="http://www.w3.org/2000/svg" xmlns:xlink="http://www.w3.org/1999/xlink">
<g id="graph0" class="graph" transform="scale(1 1) rotate(0) translate(4 73.5)">
<title>Graphical Class Hierarchy</title>
<polygon fill="#ffffff" stroke="transparent" points="-4,4 -4,-73.5 216,-73.5 216,4 -4,4"/>
<!-- Node0 -->
<g id="node1" class="node">
<title>Node0</title>
<g id="a_node1"><a xlink:href="class_process.html" target="_top" xlink:title="Process">
<polygon fill="#ffffff" stroke="#000000" points="0,-22.5 0,-41.5 54,-41.5 54,-22.5 0,-22.5"/>
<text text-anchor="middle" x="27" y="-29.5" font-family="Helvetica,sans-Serif" font-size="10.00" fill="#000000">Process</text>
</a>
</g>
</g>
<!-- Node1 -->
<g id="node2" class="node">
<title>Node1</title>
<g id="a_node2"><a xlink:href="class_aktualizr_info_test_1_1_aktualizr_info_process.html" target="_top" xlink:title="AktualizrInfoTest::\lAktualizrInfoProcess">
<polygon fill="#ffffff" stroke="#000000" points="93,-39 93,-69 209,-69 209,-39 93,-39"/>
<text text-anchor="start" x="101" y="-57" font-family="Helvetica,sans-Serif" font-size="10.00" fill="#000000">AktualizrInfoTest::</text>
<text text-anchor="middle" x="151" y="-46" font-family="Helvetica,sans-Serif" font-size="10.00" fill="#000000">AktualizrInfoProcess</text>
</a>
</g>
</g>
<!-- Node0&#45;&gt;Node1 -->
<g id="edge1" class="edge">
<title>Node0&#45;&gt;Node1</title>
<path fill="none" stroke="#191970" d="M64.3308,-38.6232C73.3226,-40.2185 83.1415,-41.9606 92.835,-43.6804"/>
<polygon fill="#191970" stroke="#191970" points="64.67,-35.1288 54.2123,-36.828 63.4471,-42.0212 64.67,-35.1288"/>
</g>
<!-- Node2 -->
<g id="node3" class="node">
<title>Node2</title>
<g id="a_node3"><a xlink:href="class_device_cred_generator.html" target="_top" xlink:title="DeviceCredGenerator">
<polygon fill="#ffffff" stroke="#000000" points="90,-.5 90,-19.5 212,-19.5 212,-.5 90,-.5"/>
<text text-anchor="middle" x="151" y="-7.5" font-family="Helvetica,sans-Serif" font-size="10.00" fill="#000000">DeviceCredGenerator</text>
</a>
</g>
</g>
<!-- Node0&#45;&gt;Node2 -->
<g id="edge2" class="edge">
<title>Node0&#45;&gt;Node2</title>
<path fill="none" stroke="#191970" d="M64.2136,-25.3976C74.6435,-23.5471 86.1937,-21.4979 97.3738,-19.5143"/>
<polygon fill="#191970" stroke="#191970" points="63.4471,-21.9788 54.2123,-27.172 64.67,-28.8712 63.4471,-21.9788"/>
</g>
</g>
</svg>
