<?xml version="1.0" encoding="UTF-8" standalone="no"?>
<!DOCTYPE svg PUBLIC "-//W3C//DTD SVG 1.1//EN"
 "http://www.w3.org/Graphics/SVG/1.1/DTD/svg11.dtd">
<!-- Generated by graphviz version 2.40.1 (20161225.0304)
 -->
<!-- Title: Graphical Class Hierarchy Pages: 1 -->
<svg width="416pt" height="123pt"
 viewBox="0.00 0.00 416.00 123.00" xmlns="http://www.w3.org/2000/svg" xmlns:xlink="http://www.w3.org/1999/xlink">
<g id="graph0" class="graph" transform="scale(1 1) rotate(0) translate(4 119)">
<title>Graphical Class Hierarchy</title>
<polygon fill="#ffffff" stroke="transparent" points="-4,4 -4,-119 412,-119 412,4 -4,4"/>
<!-- Node0 -->
<g id="node1" class="node">
<title>Node0</title>
<g id="a_node1"><a xlink:href="class_uptane_1_1_base_meta.html" target="_top" xlink:title="Uptane::BaseMeta">
<polygon fill="#ffffff" stroke="#000000" points="0,-38.5 0,-57.5 106,-57.5 106,-38.5 0,-38.5"/>
<text text-anchor="middle" x="53" y="-45.5" font-family="Helvetica,sans-Serif" font-size="10.00" fill="#000000">Uptane::BaseMeta</text>
</a>
</g>
</g>
<!-- Node1 -->
<g id="node2" class="node">
<title>Node1</title>
<g id="a_node2"><a xlink:href="class_uptane_1_1_meta_with_keys.html" target="_top" xlink:title="Uptane::MetaWithKeys">
<polygon fill="#ffffff" stroke="#000000" points="146.5,-76.5 146.5,-95.5 274.5,-95.5 274.5,-76.5 146.5,-76.5"/>
<text text-anchor="middle" x="210.5" y="-83.5" font-family="Helvetica,sans-Serif" font-size="10.00" fill="#000000">Uptane::MetaWithKeys</text>
</a>
</g>
</g>
<!-- Node0&#45;&gt;Node1 -->
<g id="edge1" class="edge">
<title>Node0&#45;&gt;Node1</title>
<path fill="none" stroke="#191970" d="M102.6041,-59.968C124.6753,-65.2931 150.3027,-71.4762 171.0419,-76.4799"/>
<polygon fill="#191970" stroke="#191970" points="103.2859,-56.5321 92.7439,-57.589 101.6441,-63.3369 103.2859,-56.5321"/>
</g>
<!-- Node4 -->
<g id="node5" class="node">
<title>Node4</title>
<g id="a_node5"><a xlink:href="class_uptane_1_1_snapshot.html" target="_top" xlink:title="Uptane::Snapshot">
<polygon fill="#ffffff" stroke="#000000" points="159,-38.5 159,-57.5 262,-57.5 262,-38.5 159,-38.5"/>
<text text-anchor="middle" x="210.5" y="-45.5" font-family="Helvetica,sans-Serif" font-size="10.00" fill="#000000">Uptane::Snapshot</text>
</a>
</g>
</g>
<!-- Node0&#45;&gt;Node4 -->
<g id="edge4" class="edge">
<title>Node0&#45;&gt;Node4</title>
<path fill="none" stroke="#191970" d="M116.432,-48C130.5182,-48 145.2846,-48 158.8332,-48"/>
<polygon fill="#191970" stroke="#191970" points="116.3223,-44.5001 106.3223,-48 116.3223,-51.5001 116.3223,-44.5001"/>
</g>
<!-- Node5 -->
<g id="node6" class="node">
<title>Node5</title>
<g id="a_node6"><a xlink:href="class_uptane_1_1_timestamp_meta.html" target="_top" xlink:title="Uptane::TimestampMeta">
<polygon fill="#ffffff" stroke="#000000" points="142,-.5 142,-19.5 279,-19.5 279,-.5 142,-.5"/>
<text text-anchor="middle" x="210.5" y="-7.5" font-family="Helvetica,sans-Serif" font-size="10.00" fill="#000000">Uptane::TimestampMeta</text>
</a>
</g>
</g>
<!-- Node0&#45;&gt;Node5 -->
<g id="edge5" class="edge">
<title>Node0&#45;&gt;Node5</title>
<path fill="none" stroke="#191970" d="M102.6041,-36.032C124.6753,-30.7069 150.3027,-24.5238 171.0419,-19.5201"/>
<polygon fill="#191970" stroke="#191970" points="101.6441,-32.6631 92.7439,-38.411 103.2859,-39.4679 101.6441,-32.6631"/>
</g>
<!-- Node2 -->
<g id="node3" class="node">
<title>Node2</title>
<g id="a_node3"><a xlink:href="class_uptane_1_1_root.html" target="_top" xlink:title="Uptane::Root">
<polygon fill="#ffffff" stroke="#000000" points="321.5,-95.5 321.5,-114.5 401.5,-114.5 401.5,-95.5 321.5,-95.5"/>
<text text-anchor="middle" x="361.5" y="-102.5" font-family="Helvetica,sans-Serif" font-size="10.00" fill="#000000">Uptane::Root</text>
</a>
</g>
</g>
<!-- Node1&#45;&gt;Node2 -->
<g id="edge2" class="edge">
<title>Node1&#45;&gt;Node2</title>
<path fill="none" stroke="#191970" d="M284.6746,-95.3332C297.362,-96.9297 310.0993,-98.5324 321.4529,-99.961"/>
<polygon fill="#191970" stroke="#191970" points="284.8963,-91.8336 274.5376,-94.0577 284.0224,-98.7788 284.8963,-91.8336"/>
</g>
<!-- Node3 -->
<g id="node4" class="node">
<title>Node3</title>
<g id="a_node4"><a xlink:href="class_uptane_1_1_targets.html" target="_top" xlink:title="Uptane::Targets">
<polygon fill="#ffffff" stroke="#000000" points="315,-57.5 315,-76.5 408,-76.5 408,-57.5 315,-57.5"/>
<text text-anchor="middle" x="361.5" y="-64.5" font-family="Helvetica,sans-Serif" font-size="10.00" fill="#000000">Uptane::Targets</text>
</a>
</g>
</g>
<!-- Node1&#45;&gt;Node3 -->
<g id="edge3" class="edge">
<title>Node1&#45;&gt;Node3</title>
<path fill="none" stroke="#191970" d="M284.7317,-76.6596C294.9639,-75.3721 305.2273,-74.0807 314.7696,-72.88"/>
<polygon fill="#191970" stroke="#191970" points="284.0224,-73.2212 274.5376,-77.9423 284.8963,-80.1664 284.0224,-73.2212"/>
</g>
</g>
</svg>
