<?xml version="1.0" encoding="UTF-8" standalone="no"?>
<!DOCTYPE svg PUBLIC "-//W3C//DTD SVG 1.1//EN"
 "http://www.w3.org/Graphics/SVG/1.1/DTD/svg11.dtd">
<!-- Generated by graphviz version 2.43.0 (0)
 -->
<!-- Title: Graphical Class Hierarchy Pages: 1 -->
<svg width="379pt" height="864pt"
 viewBox="0.00 0.00 379.00 864.00" xmlns="http://www.w3.org/2000/svg" xmlns:xlink="http://www.w3.org/1999/xlink">
<g id="graph0" class="graph" transform="scale(1 1) rotate(0) translate(4 860)">
<title>Graphical Class Hierarchy</title>
<polygon fill="white" stroke="transparent" points="-4,4 -4,-860 375,-860 375,4 -4,4"/>
<!-- Node0 -->
<g id="node1" class="node">
<title>Node0</title>
<g id="a_node1"><a xlink:href="class_http_interface.html" target="_top" xlink:title=" ">
<polygon fill="white" stroke="black" points="0,-437.5 0,-456.5 81,-456.5 81,-437.5 0,-437.5"/>
<text text-anchor="middle" x="40.5" y="-444.5" font-family="Helvetica,sans-Serif" font-size="10.00">HttpInterface</text>
</a>
</g>
</g>
<!-- Node1 -->
<g id="node2" class="node">
<title>Node1</title>
<g id="a_node2"><a xlink:href="class_http_client.html" target="_top" xlink:title=" ">
<polygon fill="white" stroke="black" points="117,-456.5 117,-475.5 183,-475.5 183,-456.5 117,-456.5"/>
<text text-anchor="middle" x="150" y="-463.5" font-family="Helvetica,sans-Serif" font-size="10.00">HttpClient</text>
</a>
</g>
</g>
<!-- Node0&#45;&gt;Node1 -->
<g id="edge1" class="edge">
<title>Node0&#45;&gt;Node1</title>
<path fill="none" stroke="midnightblue" d="M91.29,-455.8C99.96,-457.33 108.77,-458.89 116.81,-460.31"/>
<polygon fill="midnightblue" stroke="midnightblue" points="91.68,-452.31 81.22,-454.02 90.46,-459.21 91.68,-452.31"/>
</g>
<!-- Node2 -->
<g id="node3" class="node">
<title>Node2</title>
<g id="a_node3"><a xlink:href="class_http_fake.html" target="_top" xlink:title=" ">
<polygon fill="white" stroke="black" points="120.5,-418.5 120.5,-437.5 179.5,-437.5 179.5,-418.5 120.5,-418.5"/>
<text text-anchor="middle" x="150" y="-425.5" font-family="Helvetica,sans-Serif" font-size="10.00">HttpFake</text>
</a>
</g>
</g>
<!-- Node0&#45;&gt;Node2 -->
<g id="edge2" class="edge">
<title>Node0&#45;&gt;Node2</title>
<path fill="none" stroke="midnightblue" d="M91.08,-438.24C101.05,-436.47 111.21,-434.68 120.19,-433.09"/>
<polygon fill="midnightblue" stroke="midnightblue" points="90.46,-434.79 81.22,-439.98 91.68,-441.69 90.46,-434.79"/>
</g>
<!-- Node3 -->
<g id="node4" class="node">
<title>Node3</title>
<g id="a_node4"><a xlink:href="class_http_check_url.html" target="_top" xlink:title=" ">
<polygon fill="white" stroke="black" points="254,-836.5 254,-855.5 336,-855.5 336,-836.5 254,-836.5"/>
<text text-anchor="middle" x="295" y="-843.5" font-family="Helvetica,sans-Serif" font-size="10.00">HttpCheckUrl</text>
</a>
</g>
</g>
<!-- Node2&#45;&gt;Node3 -->
<g id="edge3" class="edge">
<title>Node2&#45;&gt;Node3</title>
<path fill="none" stroke="midnightblue" d="M181.32,-444.65C181.92,-445.41 182.49,-446.19 183,-447 228.4,-518.65 163.8,-762.59 219,-827 227.65,-837.1 240.83,-842.23 253.74,-844.72"/>
<polygon fill="midnightblue" stroke="midnightblue" points="183.38,-441.8 173.62,-437.69 178.69,-446.99 183.38,-441.8"/>
</g>
<!-- Node4 -->
<g id="node5" class="node">
<title>Node4</title>
<g id="a_node5"><a xlink:href="class_http_custom_uri.html" target="_top" xlink:title=" ">
<polygon fill="white" stroke="black" points="250.5,-798.5 250.5,-817.5 339.5,-817.5 339.5,-798.5 250.5,-798.5"/>
<text text-anchor="middle" x="295" y="-805.5" font-family="Helvetica,sans-Serif" font-size="10.00">HttpCustomUri</text>
</a>
</g>
</g>
<!-- Node2&#45;&gt;Node4 -->
<g id="edge4" class="edge">
<title>Node2&#45;&gt;Node4</title>
<path fill="none" stroke="midnightblue" d="M181.31,-444.66C181.92,-445.41 182.48,-446.19 183,-447 224.23,-511.34 168.97,-731.23 219,-789 226.91,-798.14 238.53,-803.2 250.27,-805.92"/>
<polygon fill="midnightblue" stroke="midnightblue" points="183.36,-441.8 173.59,-437.71 178.68,-447 183.36,-441.8"/>
</g>
<!-- Node5 -->
<g id="node6" class="node">
<title>Node5</title>
<g id="a_node6"><a xlink:href="class_http_default_uri.html" target="_top" xlink:title=" ">
<polygon fill="white" stroke="black" points="251,-760.5 251,-779.5 339,-779.5 339,-760.5 251,-760.5"/>
<text text-anchor="middle" x="295" y="-767.5" font-family="Helvetica,sans-Serif" font-size="10.00">HttpDefaultUri</text>
</a>
</g>
</g>
<!-- Node2&#45;&gt;Node5 -->
<g id="edge5" class="edge">
<title>Node2&#45;&gt;Node5</title>
<path fill="none" stroke="midnightblue" d="M180.97,-444.28C181.7,-445.14 182.38,-446.05 183,-447 257.15,-561.07 129.26,-648.74 219,-751 227.06,-760.19 238.87,-765.24 250.74,-767.95"/>
<polygon fill="midnightblue" stroke="midnightblue" points="183.06,-441.46 173.23,-437.51 178.45,-446.73 183.06,-441.46"/>
</g>
<!-- Node6 -->
<g id="node7" class="node">
<title>Node6</title>
<g id="a_node7"><a xlink:href="class_http_download_failure.html" target="_top" xlink:title=" ">
<polygon fill="white" stroke="black" points="235.5,-722.5 235.5,-741.5 354.5,-741.5 354.5,-722.5 235.5,-722.5"/>
<text text-anchor="middle" x="295" y="-729.5" font-family="Helvetica,sans-Serif" font-size="10.00">HttpDownloadFailure</text>
</a>
</g>
</g>
<!-- Node2&#45;&gt;Node6 -->
<g id="edge6" class="edge">
<title>Node2&#45;&gt;Node6</title>
<path fill="none" stroke="midnightblue" d="M180.95,-444.29C181.69,-445.15 182.38,-446.06 183,-447 248.85,-546.48 139.57,-623.99 219,-713 223.47,-718.01 229.06,-721.79 235.15,-724.63"/>
<polygon fill="midnightblue" stroke="midnightblue" points="183.02,-441.46 173.18,-437.54 178.43,-446.74 183.02,-441.46"/>
</g>
<!-- Node7 -->
<g id="node8" class="node">
<title>Node7</title>
<g id="a_node8"><a xlink:href="class_http_fake_campaign.html" target="_top" xlink:title=" ">
<polygon fill="white" stroke="black" points="240.5,-684.5 240.5,-703.5 349.5,-703.5 349.5,-684.5 240.5,-684.5"/>
<text text-anchor="middle" x="295" y="-691.5" font-family="Helvetica,sans-Serif" font-size="10.00">HttpFakeCampaign</text>
</a>
</g>
</g>
<!-- Node2&#45;&gt;Node7 -->
<g id="edge7" class="edge">
<title>Node2&#45;&gt;Node7</title>
<path fill="none" stroke="midnightblue" d="M180.92,-444.31C181.67,-445.17 182.37,-446.06 183,-447 240.57,-531.91 149.85,-599.22 219,-675 224.79,-681.35 232.38,-685.71 240.5,-688.69"/>
<polygon fill="midnightblue" stroke="midnightblue" points="182.97,-441.46 173.11,-437.59 178.41,-446.76 182.97,-441.46"/>
</g>
<!-- Node8 -->
<g id="node9" class="node">
<title>Node8</title>
<g id="a_node9"><a xlink:href="class_http_fake_delegation.html" target="_top" xlink:title=" ">
<polygon fill="white" stroke="black" points="238.5,-646.5 238.5,-665.5 351.5,-665.5 351.5,-646.5 238.5,-646.5"/>
<text text-anchor="middle" x="295" y="-653.5" font-family="Helvetica,sans-Serif" font-size="10.00">HttpFakeDelegation</text>
</a>
</g>
</g>
<!-- Node2&#45;&gt;Node8 -->
<g id="edge8" class="edge">
<title>Node2&#45;&gt;Node8</title>
<path fill="none" stroke="midnightblue" d="M180.88,-444.33C181.64,-445.19 182.35,-446.07 183,-447 232.31,-517.39 160.1,-574.41 219,-637 224.34,-642.67 231.11,-646.75 238.39,-649.67"/>
<polygon fill="midnightblue" stroke="midnightblue" points="182.91,-441.46 173.02,-437.65 178.37,-446.79 182.91,-441.46"/>
</g>
<!-- Node9 -->
<g id="node10" class="node">
<title>Node9</title>
<g id="a_node10"><a xlink:href="class_http_fake_device_registration.html" target="_top" xlink:title=" ">
<polygon fill="white" stroke="black" points="219,-608.5 219,-627.5 371,-627.5 371,-608.5 219,-608.5"/>
<text text-anchor="middle" x="295" y="-615.5" font-family="Helvetica,sans-Serif" font-size="10.00">HttpFakeDeviceRegistration</text>
</a>
</g>
</g>
<!-- Node2&#45;&gt;Node9 -->
<g id="edge9" class="edge">
<title>Node2&#45;&gt;Node9</title>
<path fill="none" stroke="midnightblue" d="M180.46,-443.98C181.37,-444.94 182.23,-445.95 183,-447 224.11,-502.94 170.29,-549.53 219,-599 222.77,-602.83 227.19,-605.92 231.97,-608.42"/>
<polygon fill="midnightblue" stroke="midnightblue" points="182.52,-441.14 172.56,-437.53 178.09,-446.56 182.52,-441.14"/>
</g>
<!-- Node10 -->
<g id="node11" class="node">
<title>Node10</title>
<g id="a_node11"><a xlink:href="class_http_fake_ecu_registration.html" target="_top" xlink:title=" ">
<polygon fill="white" stroke="black" points="227,-570.5 227,-589.5 363,-589.5 363,-570.5 227,-570.5"/>
<text text-anchor="middle" x="295" y="-577.5" font-family="Helvetica,sans-Serif" font-size="10.00">HttpFakeEcuRegistration</text>
</a>
</g>
</g>
<!-- Node2&#45;&gt;Node10 -->
<g id="edge10" class="edge">
<title>Node2&#45;&gt;Node10</title>
<path fill="none" stroke="midnightblue" d="M180.36,-444.05C181.3,-444.99 182.19,-445.97 183,-447 216.01,-488.63 180.36,-524.53 219,-561 223.1,-564.87 227.88,-567.99 232.99,-570.48"/>
<polygon fill="midnightblue" stroke="midnightblue" points="182.36,-441.17 172.35,-437.69 178,-446.65 182.36,-441.17"/>
</g>
<!-- Node11 -->
<g id="node12" class="node">
<title>Node11</title>
<g id="a_node12"><a xlink:href="class_http_fake_event_counter.html" target="_top" xlink:title=" ">
<polygon fill="white" stroke="black" points="232.5,-532.5 232.5,-551.5 357.5,-551.5 357.5,-532.5 232.5,-532.5"/>
<text text-anchor="middle" x="295" y="-539.5" font-family="Helvetica,sans-Serif" font-size="10.00">HttpFakeEventCounter</text>
</a>
</g>
</g>
<!-- Node2&#45;&gt;Node11 -->
<g id="edge11" class="edge">
<title>Node2&#45;&gt;Node11</title>
<path fill="none" stroke="midnightblue" d="M179.67,-443.74C180.85,-444.78 181.97,-445.87 183,-447 208.17,-474.63 190.13,-499.26 219,-523 223.67,-526.84 229.01,-529.92 234.65,-532.38"/>
<polygon fill="midnightblue" stroke="midnightblue" points="181.44,-440.69 171.31,-437.59 177.29,-446.33 181.44,-440.69"/>
</g>
<!-- Node12 -->
<g id="node13" class="node">
<title>Node12</title>
<g id="a_node13"><a xlink:href="class_http_fake_events.html" target="_top" xlink:title=" ">
<polygon fill="white" stroke="black" points="249,-494.5 249,-513.5 341,-513.5 341,-494.5 249,-494.5"/>
<text text-anchor="middle" x="295" y="-501.5" font-family="Helvetica,sans-Serif" font-size="10.00">HttpFakeEvents</text>
</a>
</g>
</g>
<!-- Node2&#45;&gt;Node12 -->
<g id="edge12" class="edge">
<title>Node2&#45;&gt;Node12</title>
<path fill="none" stroke="midnightblue" d="M178,-443.28C179.73,-444.48 181.41,-445.73 183,-447 201.18,-461.52 198.93,-473.23 219,-485 228.04,-490.3 238.53,-494.13 248.75,-496.9"/>
<polygon fill="midnightblue" stroke="midnightblue" points="179.49,-440.08 169.18,-437.62 175.71,-445.97 179.49,-440.08"/>
</g>
<!-- Node13 -->
<g id="node14" class="node">
<title>Node13</title>
<g id="a_node14"><a xlink:href="class_http_fake_meta_counter.html" target="_top" xlink:title=" ">
<polygon fill="white" stroke="black" points="234,-456.5 234,-475.5 356,-475.5 356,-456.5 234,-456.5"/>
<text text-anchor="middle" x="295" y="-463.5" font-family="Helvetica,sans-Serif" font-size="10.00">HttpFakeMetaCounter</text>
</a>
</g>
</g>
<!-- Node2&#45;&gt;Node13 -->
<g id="edge13" class="edge">
<title>Node2&#45;&gt;Node13</title>
<path fill="none" stroke="midnightblue" d="M189.47,-438.93C199.1,-441.61 209.42,-444.45 219,-447 230.81,-450.15 243.7,-453.46 255.41,-456.42"/>
<polygon fill="midnightblue" stroke="midnightblue" points="190.32,-435.53 179.74,-436.2 188.43,-442.27 190.32,-435.53"/>
</g>
<!-- Node14 -->
<g id="node15" class="node">
<title>Node14</title>
<g id="a_node15"><a xlink:href="class_http_fake_no_correlation_id.html" target="_top" xlink:title=" ">
<polygon fill="white" stroke="black" points="227,-418.5 227,-437.5 363,-437.5 363,-418.5 227,-418.5"/>
<text text-anchor="middle" x="295" y="-425.5" font-family="Helvetica,sans-Serif" font-size="10.00">HttpFakeNoCorrelationId</text>
</a>
</g>
</g>
<!-- Node2&#45;&gt;Node14 -->
<g id="edge14" class="edge">
<title>Node2&#45;&gt;Node14</title>
<path fill="none" stroke="midnightblue" d="M189.66,-428C201.11,-428 214,-428 226.71,-428"/>
<polygon fill="midnightblue" stroke="midnightblue" points="189.59,-424.5 179.59,-428 189.59,-431.5 189.59,-424.5"/>
</g>
<!-- Node15 -->
<g id="node16" class="node">
<title>Node15</title>
<g id="a_node16"><a xlink:href="class_http_fake_pause_counter.html" target="_top" xlink:title=" ">
<polygon fill="white" stroke="black" points="232,-380.5 232,-399.5 358,-399.5 358,-380.5 232,-380.5"/>
<text text-anchor="middle" x="295" y="-387.5" font-family="Helvetica,sans-Serif" font-size="10.00">HttpFakePauseCounter</text>
</a>
</g>
</g>
<!-- Node2&#45;&gt;Node15 -->
<g id="edge15" class="edge">
<title>Node2&#45;&gt;Node15</title>
<path fill="none" stroke="midnightblue" d="M189.47,-417.07C199.1,-414.39 209.42,-411.55 219,-409 230.81,-405.85 243.7,-402.54 255.41,-399.58"/>
<polygon fill="midnightblue" stroke="midnightblue" points="188.43,-413.73 179.74,-419.8 190.32,-420.47 188.43,-413.73"/>
</g>
<!-- Node16 -->
<g id="node17" class="node">
<title>Node16</title>
<g id="a_node17"><a xlink:href="class_http_fake_prov.html" target="_top" xlink:title="Check that basic device info sent by aktualizr during provisioning matches our expectations.">
<polygon fill="white" stroke="black" points="254.5,-342.5 254.5,-361.5 335.5,-361.5 335.5,-342.5 254.5,-342.5"/>
<text text-anchor="middle" x="295" y="-349.5" font-family="Helvetica,sans-Serif" font-size="10.00">HttpFakeProv</text>
</a>
</g>
</g>
<!-- Node2&#45;&gt;Node16 -->
<g id="edge16" class="edge">
<title>Node2&#45;&gt;Node16</title>
<path fill="none" stroke="midnightblue" d="M166.85,-411.08C179.74,-398.28 199.01,-381.23 219,-371 229.88,-365.43 242.5,-361.42 254.25,-358.57"/>
<polygon fill="midnightblue" stroke="midnightblue" points="164.19,-408.8 159.7,-418.4 169.19,-413.69 164.19,-408.8"/>
</g>
<!-- Node17 -->
<g id="node18" class="node">
<title>Node17</title>
<g id="a_node18"><a xlink:href="class_http_fake_put_counter.html" target="_top" xlink:title=" ">
<polygon fill="white" stroke="black" points="238.5,-304.5 238.5,-323.5 351.5,-323.5 351.5,-304.5 238.5,-304.5"/>
<text text-anchor="middle" x="295" y="-311.5" font-family="Helvetica,sans-Serif" font-size="10.00">HttpFakePutCounter</text>
</a>
</g>
</g>
<!-- Node2&#45;&gt;Node17 -->
<g id="edge17" class="edge">
<title>Node2&#45;&gt;Node17</title>
<path fill="none" stroke="midnightblue" d="M159.37,-409.31C170.07,-387.62 190.65,-352.34 219,-333 224.88,-328.99 231.54,-325.82 238.41,-323.32"/>
<polygon fill="midnightblue" stroke="midnightblue" points="156.15,-407.95 155.04,-418.48 162.48,-410.94 156.15,-407.95"/>
</g>
<!-- Node18 -->
<g id="node19" class="node">
<title>Node18</title>
<g id="a_node19"><a xlink:href="class_http_fake_rq.html" target="_top" xlink:title=" ">
<polygon fill="white" stroke="black" points="259,-266.5 259,-285.5 331,-285.5 331,-266.5 259,-266.5"/>
<text text-anchor="middle" x="295" y="-273.5" font-family="Helvetica,sans-Serif" font-size="10.00">HttpFakeRq</text>
</a>
</g>
</g>
<!-- Node2&#45;&gt;Node18 -->
<g id="edge18" class="edge">
<title>Node2&#45;&gt;Node18</title>
<path fill="none" stroke="midnightblue" d="M155.54,-408.35C163.34,-379.1 182.14,-324.39 219,-295 230.24,-286.04 245.18,-281.25 258.77,-278.71"/>
<polygon fill="midnightblue" stroke="midnightblue" points="152.1,-407.66 153.07,-418.21 158.89,-409.36 152.1,-407.66"/>
</g>
<!-- Node19 -->
<g id="node20" class="node">
<title>Node19</title>
<g id="a_node20"><a xlink:href="class_http_fake_split.html" target="_top" xlink:title=" ">
<polygon fill="white" stroke="black" points="254.5,-228.5 254.5,-247.5 335.5,-247.5 335.5,-228.5 254.5,-228.5"/>
<text text-anchor="middle" x="295" y="-235.5" font-family="Helvetica,sans-Serif" font-size="10.00">HttpFakeSplit</text>
</a>
</g>
</g>
<!-- Node2&#45;&gt;Node19 -->
<g id="edge19" class="edge">
<title>Node2&#45;&gt;Node19</title>
<path fill="none" stroke="midnightblue" d="M153.1,-407.97C157.95,-372.15 173.28,-297.12 219,-257 228.79,-248.41 241.93,-243.6 254.48,-240.94"/>
<polygon fill="midnightblue" stroke="midnightblue" points="149.6,-407.78 151.87,-418.13 156.55,-408.62 149.6,-407.78"/>
</g>
<!-- Node20 -->
<g id="node21" class="node">
<title>Node20</title>
<g id="a_node21"><a xlink:href="class_http_fake_unstable.html" target="_top" xlink:title=" ">
<polygon fill="white" stroke="black" points="243.5,-190.5 243.5,-209.5 346.5,-209.5 346.5,-190.5 243.5,-190.5"/>
<text text-anchor="middle" x="295" y="-197.5" font-family="Helvetica,sans-Serif" font-size="10.00">HttpFakeUnstable</text>
</a>
</g>
</g>
<!-- Node2&#45;&gt;Node20 -->
<g id="edge20" class="edge">
<title>Node2&#45;&gt;Node20</title>
<path fill="none" stroke="midnightblue" d="M151.41,-408.27C153.38,-366.86 163.99,-270.47 219,-219 225.77,-212.67 234.34,-208.37 243.24,-205.47"/>
<polygon fill="midnightblue" stroke="midnightblue" points="147.91,-408.29 151.05,-418.41 154.9,-408.54 147.91,-408.29"/>
</g>
<!-- Node21 -->
<g id="node22" class="node">
<title>Node21</title>
<g id="a_node22"><a xlink:href="class_http_put_manifest_fail.html" target="_top" xlink:title=" ">
<polygon fill="white" stroke="black" points="238.5,-152.5 238.5,-171.5 351.5,-171.5 351.5,-152.5 238.5,-152.5"/>
<text text-anchor="middle" x="295" y="-159.5" font-family="Helvetica,sans-Serif" font-size="10.00">HttpPutManifestFail</text>
</a>
</g>
</g>
<!-- Node2&#45;&gt;Node21 -->
<g id="edge21" class="edge">
<title>Node2&#45;&gt;Node21</title>
<path fill="none" stroke="midnightblue" d="M150.24,-408.28C149.57,-361.68 154.72,-243.97 219,-181 224.47,-175.64 231.22,-171.73 238.41,-168.88"/>
<polygon fill="midnightblue" stroke="midnightblue" points="146.74,-408.38 150.49,-418.28 153.74,-408.2 146.74,-408.38"/>
</g>
<!-- Node22 -->
<g id="node23" class="node">
<title>Node22</title>
<g id="a_node23"><a xlink:href="class_http_reject_empty_corr_id.html" target="_top" xlink:title=" ">
<polygon fill="white" stroke="black" points="230.5,-114.5 230.5,-133.5 359.5,-133.5 359.5,-114.5 230.5,-114.5"/>
<text text-anchor="middle" x="295" y="-121.5" font-family="Helvetica,sans-Serif" font-size="10.00">HttpRejectEmptyCorrId</text>
</a>
</g>
</g>
<!-- Node2&#45;&gt;Node22 -->
<g id="edge22" class="edge">
<title>Node2&#45;&gt;Node22</title>
<path fill="none" stroke="midnightblue" d="M153.08,-408.17C159.57,-349.94 181.33,-181.2 219,-143 222.77,-139.17 227.2,-136.08 231.98,-133.58"/>
<polygon fill="midnightblue" stroke="midnightblue" points="149.58,-407.95 151.98,-418.27 156.54,-408.7 149.58,-407.95"/>
</g>
<!-- Node23 -->
<g id="node24" class="node">
<title>Node23</title>
<g id="a_node24"><a xlink:href="class_http_system_info.html" target="_top" xlink:title=" ">
<polygon fill="white" stroke="black" points="248.5,-76.5 248.5,-95.5 341.5,-95.5 341.5,-76.5 248.5,-76.5"/>
<text text-anchor="middle" x="295" y="-83.5" font-family="Helvetica,sans-Serif" font-size="10.00">HttpSystemInfo</text>
</a>
</g>
</g>
<!-- Node2&#45;&gt;Node23 -->
<g id="edge23" class="edge">
<title>Node2&#45;&gt;Node23</title>
<path fill="none" stroke="midnightblue" d="M152.48,-408.08C157.6,-344.67 176.59,-149.17 219,-105 226.72,-96.96 237.32,-92.13 248.12,-89.29"/>
<polygon fill="midnightblue" stroke="midnightblue" points="148.97,-408.07 151.69,-418.31 155.95,-408.61 148.97,-408.07"/>
</g>
<!-- Node24 -->
<g id="node25" class="node">
<title>Node24</title>
<g id="a_node25"><a xlink:href="class_http_unstable.html" target="_top" xlink:title=" ">
<polygon fill="white" stroke="black" points="254.5,-38.5 254.5,-57.5 335.5,-57.5 335.5,-38.5 254.5,-38.5"/>
<text text-anchor="middle" x="295" y="-45.5" font-family="Helvetica,sans-Serif" font-size="10.00">HttpUnstable</text>
</a>
</g>
</g>
<!-- Node2&#45;&gt;Node24 -->
<g id="edge24" class="edge">
<title>Node2&#45;&gt;Node24</title>
<path fill="none" stroke="midnightblue" d="M152.01,-407.99C155.85,-339.69 171.83,-117.19 219,-67 228.11,-57.31 241.39,-52.27 254.25,-49.74"/>
<polygon fill="midnightblue" stroke="midnightblue" points="148.5,-408.06 151.46,-418.24 155.49,-408.44 148.5,-408.06"/>
</g>
<!-- Node25 -->
<g id="node26" class="node">
<title>Node25</title>
<g id="a_node26"><a xlink:href="class_http_zero_length.html" target="_top" xlink:title=" ">
<polygon fill="white" stroke="black" points="248.5,-0.5 248.5,-19.5 341.5,-19.5 341.5,-0.5 248.5,-0.5"/>
<text text-anchor="middle" x="295" y="-7.5" font-family="Helvetica,sans-Serif" font-size="10.00">HttpZeroLength</text>
</a>
</g>
</g>
<!-- Node2&#45;&gt;Node25 -->
<g id="edge25" class="edge">
<title>Node2&#45;&gt;Node25</title>
<path fill="none" stroke="midnightblue" d="M151.6,-408.28C154.22,-335.78 166.95,-85.35 219,-29 226.66,-20.71 237.36,-15.82 248.29,-12.98"/>
<polygon fill="midnightblue" stroke="midnightblue" points="148.1,-408.21 151.27,-418.33 155.1,-408.45 148.1,-408.21"/>
</g>
</g>
</svg>
