<?xml version="1.0" encoding="UTF-8" standalone="no"?>
<!DOCTYPE svg PUBLIC "-//W3C//DTD SVG 1.1//EN"
 "http://www.w3.org/Graphics/SVG/1.1/DTD/svg11.dtd">
<!-- Generated by graphviz version 2.40.1 (20161225.0304)
 -->
<!-- Title: Graphical Class Hierarchy Pages: 1 -->
<svg width="213pt" height="66pt"
 viewBox="0.00 0.00 213.00 66.00" xmlns="http://www.w3.org/2000/svg" xmlns:xlink="http://www.w3.org/1999/xlink">
<g id="graph0" class="graph" transform="scale(1 1) rotate(0) translate(4 62)">
<title>Graphical Class Hierarchy</title>
<polygon fill="#ffffff" stroke="transparent" points="-4,4 -4,-62 209,-62 209,4 -4,4"/>
<!-- Node0 -->
<g id="node1" class="node">
<title>Node0</title>
<g id="a_node1"><a xlink:href="class_o_s_tree_repo.html" target="_top" xlink:title="A source repository to read OSTree objects from. ">
<polygon fill="#ffffff" stroke="#000000" points="0,-19.5 0,-38.5 74,-38.5 74,-19.5 0,-19.5"/>
<text text-anchor="middle" x="37" y="-26.5" font-family="Helvetica,sans-Serif" font-size="10.00" fill="#000000">OSTreeRepo</text>
</a>
</g>
</g>
<!-- Node1 -->
<g id="node2" class="node">
<title>Node1</title>
<g id="a_node2"><a xlink:href="class_o_s_tree_dir_repo.html" target="_top" xlink:title="OSTreeDirRepo">
<polygon fill="#ffffff" stroke="#000000" points="113,-38.5 113,-57.5 202,-57.5 202,-38.5 113,-38.5"/>
<text text-anchor="middle" x="157.5" y="-45.5" font-family="Helvetica,sans-Serif" font-size="10.00" fill="#000000">OSTreeDirRepo</text>
</a>
</g>
</g>
<!-- Node0&#45;&gt;Node1 -->
<g id="edge1" class="edge">
<title>Node0&#45;&gt;Node1</title>
<path fill="none" stroke="#191970" d="M84.1036,-36.4271C93.4928,-37.9076 103.3297,-39.4586 112.641,-40.9268"/>
<polygon fill="#191970" stroke="#191970" points="84.5603,-32.956 74.1372,-34.8557 83.47,-39.8706 84.5603,-32.956"/>
</g>
<!-- Node2 -->
<g id="node3" class="node">
<title>Node2</title>
<g id="a_node3"><a xlink:href="class_o_s_tree_http_repo.html" target="_top" xlink:title="OSTreeHttpRepo">
<polygon fill="#ffffff" stroke="#000000" points="110,-.5 110,-19.5 205,-19.5 205,-.5 110,-.5"/>
<text text-anchor="middle" x="157.5" y="-7.5" font-family="Helvetica,sans-Serif" font-size="10.00" fill="#000000">OSTreeHttpRepo</text>
</a>
</g>
</g>
<!-- Node0&#45;&gt;Node2 -->
<g id="edge2" class="edge">
<title>Node0&#45;&gt;Node2</title>
<path fill="none" stroke="#191970" d="M84.1207,-21.5702C92.4876,-20.2509 101.2096,-18.8757 109.598,-17.553"/>
<polygon fill="#191970" stroke="#191970" points="83.47,-18.1294 74.1372,-23.1443 84.5603,-25.044 83.47,-18.1294"/>
</g>
</g>
</svg>
