<?xml version="1.0" encoding="UTF-8" standalone="no"?>
<!DOCTYPE svg PUBLIC "-//W3C//DTD SVG 1.1//EN"
 "http://www.w3.org/Graphics/SVG/1.1/DTD/svg11.dtd">
<!-- Generated by graphviz version 2.40.1 (20161225.0304)
 -->
<!-- Title: Graphical Class Hierarchy Pages: 1 -->
<svg width="672pt" height="465pt"
 viewBox="0.00 0.00 672.00 465.00" xmlns="http://www.w3.org/2000/svg" xmlns:xlink="http://www.w3.org/1999/xlink">
<g id="graph0" class="graph" transform="scale(1 1) rotate(0) translate(4 461)">
<title>Graphical Class Hierarchy</title>
<polygon fill="#ffffff" stroke="transparent" points="-4,4 -4,-461 668,-461 668,4 -4,4"/>
<!-- Node156 -->
<g id="node1" class="node">
<title>Node156</title>
<g id="a_node1"><a xlink:href="class_msg_handler.html" target="_top" xlink:title="MsgHandler">
<polygon fill="#ffffff" stroke="#000000" points="19.5,-380.5 19.5,-399.5 93.5,-399.5 93.5,-380.5 19.5,-380.5"/>
<text text-anchor="middle" x="56.5" y="-387.5" font-family="Helvetica,sans-Serif" font-size="10.00" fill="#000000">MsgHandler</text>
</a>
</g>
</g>
<!-- Node157 -->
<g id="node2" class="node">
<title>Node157</title>
<g id="a_node2"><a xlink:href="class_msg_dispatcher.html" target="_top" xlink:title="MsgDispatcher">
<polygon fill="#ffffff" stroke="#000000" points="191,-399.5 191,-418.5 280,-418.5 280,-399.5 191,-399.5"/>
<text text-anchor="middle" x="235.5" y="-406.5" font-family="Helvetica,sans-Serif" font-size="10.00" fill="#000000">MsgDispatcher</text>
</a>
</g>
</g>
<!-- Node156&#45;&gt;Node157 -->
<g id="edge1" class="edge">
<title>Node156&#45;&gt;Node157</title>
<path fill="none" stroke="#191970" d="M103.5796,-394.9973C130.5785,-397.8631 164.2774,-401.4401 190.8573,-404.2614"/>
<polygon fill="#191970" stroke="#191970" points="103.9025,-391.512 93.5889,-393.9368 103.1636,-398.4729 103.9025,-391.512"/>
</g>
<!-- Node44 -->
<g id="node7" class="node">
<title>Node44</title>
<g id="a_node7"><a xlink:href="class_secondary_rpc_test_positive.html" target="_top" xlink:title="SecondaryRpcTestPositive">
<polygon fill="#ffffff" stroke="#000000" points="163.5,-361.5 163.5,-380.5 307.5,-380.5 307.5,-361.5 163.5,-361.5"/>
<text text-anchor="middle" x="235.5" y="-368.5" font-family="Helvetica,sans-Serif" font-size="10.00" fill="#000000">SecondaryRpcTestPositive</text>
</a>
</g>
</g>
<!-- Node156&#45;&gt;Node44 -->
<g id="edge6" class="edge">
<title>Node156&#45;&gt;Node44</title>
<path fill="none" stroke="#191970" d="M103.674,-384.9927C121.9368,-383.0542 143.2543,-380.7914 163.3568,-378.6577"/>
<polygon fill="#191970" stroke="#191970" points="103.1636,-381.5271 93.5889,-386.0632 103.9025,-388.488 103.1636,-381.5271"/>
</g>
<!-- Node158 -->
<g id="node3" class="node">
<title>Node158</title>
<g id="a_node3"><a xlink:href="class_aktualizr_secondary.html" target="_top" xlink:title="AktualizrSecondary">
<polygon fill="#ffffff" stroke="#000000" points="366,-418.5 366,-437.5 477,-437.5 477,-418.5 366,-418.5"/>
<text text-anchor="middle" x="421.5" y="-425.5" font-family="Helvetica,sans-Serif" font-size="10.00" fill="#000000">AktualizrSecondary</text>
</a>
</g>
</g>
<!-- Node157&#45;&gt;Node158 -->
<g id="edge2" class="edge">
<title>Node157&#45;&gt;Node158</title>
<path fill="none" stroke="#191970" d="M290.0239,-414.5696C313.9365,-417.0123 341.9693,-419.8759 365.993,-422.3299"/>
<polygon fill="#191970" stroke="#191970" points="290.3556,-411.0854 280.0516,-413.551 289.6442,-418.0492 290.3556,-411.0854"/>
</g>
<!-- Node161 -->
<g id="node6" class="node">
<title>Node161</title>
<g id="a_node6"><a xlink:href="class_secondary_mock.html" target="_top" xlink:title="SecondaryMock">
<polygon fill="#ffffff" stroke="#000000" points="375,-380.5 375,-399.5 468,-399.5 468,-380.5 375,-380.5"/>
<text text-anchor="middle" x="421.5" y="-387.5" font-family="Helvetica,sans-Serif" font-size="10.00" fill="#000000">SecondaryMock</text>
</a>
</g>
</g>
<!-- Node157&#45;&gt;Node161 -->
<g id="edge5" class="edge">
<title>Node157&#45;&gt;Node161</title>
<path fill="none" stroke="#191970" d="M290.0693,-403.4257C316.9332,-400.6816 348.9884,-397.4071 374.7163,-394.779"/>
<polygon fill="#191970" stroke="#191970" points="289.6442,-399.9508 280.0516,-404.449 290.3556,-406.9146 289.6442,-399.9508"/>
</g>
<!-- Node159 -->
<g id="node4" class="node">
<title>Node159</title>
<g id="a_node4"><a xlink:href="class_aktualizr_secondary_file.html" target="_top" xlink:title="AktualizrSecondaryFile">
<polygon fill="#ffffff" stroke="#000000" points="528.5,-437.5 528.5,-456.5 656.5,-456.5 656.5,-437.5 528.5,-437.5"/>
<text text-anchor="middle" x="592.5" y="-444.5" font-family="Helvetica,sans-Serif" font-size="10.00" fill="#000000">AktualizrSecondaryFile</text>
</a>
</g>
</g>
<!-- Node158&#45;&gt;Node159 -->
<g id="edge3" class="edge">
<title>Node158&#45;&gt;Node159</title>
<path fill="none" stroke="#191970" d="M487.1867,-435.2985C500.6925,-436.7992 514.8963,-438.3774 528.347,-439.8719"/>
<polygon fill="#191970" stroke="#191970" points="487.3442,-431.7946 477.0188,-434.1688 486.5711,-438.7518 487.3442,-431.7946"/>
</g>
<!-- Node160 -->
<g id="node5" class="node">
<title>Node160</title>
<g id="a_node5"><a xlink:href="class_aktualizr_secondary_ostree.html" target="_top" xlink:title="AktualizrSecondaryOstree">
<polygon fill="#ffffff" stroke="#000000" points="521,-399.5 521,-418.5 664,-418.5 664,-399.5 521,-399.5"/>
<text text-anchor="middle" x="592.5" y="-406.5" font-family="Helvetica,sans-Serif" font-size="10.00" fill="#000000">AktualizrSecondaryOstree</text>
</a>
</g>
</g>
<!-- Node158&#45;&gt;Node160 -->
<g id="edge4" class="edge">
<title>Node158&#45;&gt;Node160</title>
<path fill="none" stroke="#191970" d="M487.0023,-420.722C498.0422,-419.4953 509.5534,-418.2163 520.7422,-416.9731"/>
<polygon fill="#191970" stroke="#191970" points="486.5711,-417.2482 477.0188,-421.8312 487.3442,-424.2054 486.5711,-417.2482"/>
</g>
<!-- Node36 -->
<g id="node8" class="node">
<title>Node36</title>
<polygon fill="#ffffff" stroke="#bfbfbf" points="38.5,-190.5 38.5,-209.5 74.5,-209.5 74.5,-190.5 38.5,-190.5"/>
<text text-anchor="middle" x="56.5" y="-197.5" font-family="Helvetica,sans-Serif" font-size="10.00" fill="#000000">Test</text>
</g>
<!-- Node36&#45;&gt;Node44 -->
<g id="edge15" class="edge">
<title>Node36&#45;&gt;Node44</title>
<path fill="none" stroke="#191970" d="M62.6499,-219.4508C74.0737,-252.2542 101.7962,-318.289 149,-352 154.3802,-355.8424 160.3935,-358.93 166.6754,-361.408"/>
<polygon fill="#191970" stroke="#191970" points="65.8802,-218.0736 59.3959,-209.6948 59.2398,-220.2885 65.8802,-218.0736"/>
</g>
<!-- Node37 -->
<g id="node9" class="node">
<title>Node37</title>
<g id="a_node9"><a xlink:href="class_aktualizr_cert_provider_test.html" target="_top" xlink:title="AktualizrCertProviderTest">
<polygon fill="#ffffff" stroke="#000000" points="165.5,-323.5 165.5,-342.5 305.5,-342.5 305.5,-323.5 165.5,-323.5"/>
<text text-anchor="middle" x="235.5" y="-330.5" font-family="Helvetica,sans-Serif" font-size="10.00" fill="#000000">AktualizrCertProviderTest</text>
</a>
</g>
</g>
<!-- Node36&#45;&gt;Node37 -->
<g id="edge7" class="edge">
<title>Node36&#45;&gt;Node37</title>
<path fill="none" stroke="#191970" d="M66.4106,-218.9082C80.9349,-244.6577 110.5072,-290.2577 149,-314 155.2814,-317.8744 162.2483,-320.9638 169.4228,-323.4265"/>
<polygon fill="#191970" stroke="#191970" points="69.3016,-216.8995 61.4364,-209.8009 63.1582,-220.2549 69.3016,-216.8995"/>
</g>
<!-- Node38 -->
<g id="node10" class="node">
<title>Node38</title>
<g id="a_node10"><a xlink:href="class_aktualizr_info_test.html" target="_top" xlink:title="AktualizrInfoTest">
<polygon fill="#ffffff" stroke="#000000" points="186.5,-285.5 186.5,-304.5 284.5,-304.5 284.5,-285.5 186.5,-285.5"/>
<text text-anchor="middle" x="235.5" y="-292.5" font-family="Helvetica,sans-Serif" font-size="10.00" fill="#000000">AktualizrInfoTest</text>
</a>
</g>
</g>
<!-- Node36&#45;&gt;Node38 -->
<g id="edge8" class="edge">
<title>Node36&#45;&gt;Node38</title>
<path fill="none" stroke="#191970" d="M72.1771,-216.934C89.3455,-234.4276 118.5181,-261.2002 149,-276 160.48,-281.5738 173.6086,-285.5306 186.11,-288.333"/>
<polygon fill="#191970" stroke="#191970" points="74.6185,-214.4231 65.172,-209.6257 69.565,-219.2669 74.6185,-214.4231"/>
</g>
<!-- Node39 -->
<g id="node11" class="node">
<title>Node39</title>
<g id="a_node11"><a xlink:href="class_metadata_expiration_test.html" target="_top" xlink:title="MetadataExpirationTest">
<polygon fill="#ffffff" stroke="#000000" points="170,-247.5 170,-266.5 301,-266.5 301,-247.5 170,-247.5"/>
<text text-anchor="middle" x="235.5" y="-254.5" font-family="Helvetica,sans-Serif" font-size="10.00" fill="#000000">MetadataExpirationTest</text>
</a>
</g>
</g>
<!-- Node36&#45;&gt;Node39 -->
<g id="edge9" class="edge">
<title>Node36&#45;&gt;Node39</title>
<path fill="none" stroke="#191970" d="M83.9672,-212.7558C102.1298,-220.8214 126.6299,-231.0064 149,-238 160.4464,-241.5785 172.9479,-244.7402 184.7988,-247.4069"/>
<polygon fill="#191970" stroke="#191970" points="85.1376,-209.4443 74.5825,-208.5266 82.2616,-215.8262 85.1376,-209.4443"/>
</g>
<!-- Node40 -->
<g id="node12" class="node">
<title>Node40</title>
<g id="a_node12"><a xlink:href="class_partial_verification_secondary_test.html" target="_top" xlink:title="PartialVerificationSecondaryTest">
<polygon fill="#ffffff" stroke="#000000" points="149,-209.5 149,-228.5 322,-228.5 322,-209.5 149,-209.5"/>
<text text-anchor="middle" x="235.5" y="-216.5" font-family="Helvetica,sans-Serif" font-size="10.00" fill="#000000">PartialVerificationSecondaryTest</text>
</a>
</g>
</g>
<!-- Node36&#45;&gt;Node40 -->
<g id="edge10" class="edge">
<title>Node36&#45;&gt;Node40</title>
<path fill="none" stroke="#191970" d="M84.7027,-202.9936C102.1871,-204.8495 125.6785,-207.343 148.9084,-209.8087"/>
<polygon fill="#191970" stroke="#191970" points="84.9621,-199.5015 74.6485,-201.9264 84.2232,-206.4624 84.9621,-199.5015"/>
</g>
<!-- Node41 -->
<g id="node13" class="node">
<title>Node41</title>
<g id="a_node13"><a xlink:href="class_secondary_ostree_test.html" target="_top" xlink:title="SecondaryOstreeTest">
<polygon fill="#ffffff" stroke="#000000" points="176,-171.5 176,-190.5 295,-190.5 295,-171.5 176,-171.5"/>
<text text-anchor="middle" x="235.5" y="-178.5" font-family="Helvetica,sans-Serif" font-size="10.00" fill="#000000">SecondaryOstreeTest</text>
</a>
</g>
</g>
<!-- Node36&#45;&gt;Node41 -->
<g id="edge11" class="edge">
<title>Node36&#45;&gt;Node41</title>
<path fill="none" stroke="#191970" d="M84.6347,-197.0136C108.9819,-194.4293 145.0136,-190.6047 175.7586,-187.3413"/>
<polygon fill="#191970" stroke="#191970" points="84.2232,-193.5376 74.6485,-198.0736 84.9621,-200.4985 84.2232,-193.5376"/>
</g>
<!-- Node42 -->
<g id="node14" class="node">
<title>Node42</title>
<g id="a_node14"><a xlink:href="class_secondary_rpc_common.html" target="_top" xlink:title="SecondaryRpcCommon">
<polygon fill="#ffffff" stroke="#000000" points="170.5,-133.5 170.5,-152.5 300.5,-152.5 300.5,-133.5 170.5,-133.5"/>
<text text-anchor="middle" x="235.5" y="-140.5" font-family="Helvetica,sans-Serif" font-size="10.00" fill="#000000">SecondaryRpcCommon</text>
</a>
</g>
</g>
<!-- Node36&#45;&gt;Node42 -->
<g id="edge12" class="edge">
<title>Node36&#45;&gt;Node42</title>
<path fill="none" stroke="#191970" d="M83.9672,-187.2442C102.1298,-179.1786 126.6299,-168.9936 149,-162 160.4464,-158.4215 172.9479,-155.2598 184.7988,-152.5931"/>
<polygon fill="#191970" stroke="#191970" points="82.2616,-184.1738 74.5825,-191.4734 85.1376,-190.5557 82.2616,-184.1738"/>
</g>
<!-- Node45 -->
<g id="node17" class="node">
<title>Node45</title>
<g id="a_node17"><a xlink:href="class_secondary_test.html" target="_top" xlink:title="SecondaryTest">
<polygon fill="#ffffff" stroke="#000000" points="192,-95.5 192,-114.5 279,-114.5 279,-95.5 192,-95.5"/>
<text text-anchor="middle" x="235.5" y="-102.5" font-family="Helvetica,sans-Serif" font-size="10.00" fill="#000000">SecondaryTest</text>
</a>
</g>
</g>
<!-- Node36&#45;&gt;Node45 -->
<g id="edge16" class="edge">
<title>Node36&#45;&gt;Node45</title>
<path fill="none" stroke="#191970" d="M72.1771,-183.066C89.3455,-165.5724 118.5181,-138.7998 149,-124 162.278,-117.5531 177.7616,-113.2696 191.9293,-110.4334"/>
<polygon fill="#191970" stroke="#191970" points="69.565,-180.7331 65.172,-190.3743 74.6185,-185.5769 69.565,-180.7331"/>
</g>
<!-- Node3 -->
<g id="node18" class="node">
<title>Node3</title>
<g id="a_node18"><a xlink:href="class_secondary_test_negative.html" target="_top" xlink:title="SecondaryTestNegative">
<polygon fill="#ffffff" stroke="#000000" points="170,-19.5 170,-38.5 301,-38.5 301,-19.5 170,-19.5"/>
<text text-anchor="middle" x="235.5" y="-26.5" font-family="Helvetica,sans-Serif" font-size="10.00" fill="#000000">SecondaryTestNegative</text>
</a>
</g>
</g>
<!-- Node36&#45;&gt;Node3 -->
<g id="edge17" class="edge">
<title>Node36&#45;&gt;Node3</title>
<path fill="none" stroke="#191970" d="M62.6499,-180.5492C74.0737,-147.7458 101.7962,-81.711 149,-48 155.2561,-43.5321 162.3681,-40.0848 169.7631,-37.4296"/>
<polygon fill="#191970" stroke="#191970" points="59.2398,-179.7115 59.3959,-190.3052 65.8802,-181.9264 59.2398,-179.7115"/>
</g>
<!-- Node46 -->
<g id="node19" class="node">
<title>Node46</title>
<g id="a_node19"><a xlink:href="class_virtual_secondary_test.html" target="_top" xlink:title="VirtualSecondaryTest">
<polygon fill="#ffffff" stroke="#000000" points="176,-57.5 176,-76.5 295,-76.5 295,-57.5 176,-57.5"/>
<text text-anchor="middle" x="235.5" y="-64.5" font-family="Helvetica,sans-Serif" font-size="10.00" fill="#000000">VirtualSecondaryTest</text>
</a>
</g>
</g>
<!-- Node36&#45;&gt;Node46 -->
<g id="edge18" class="edge">
<title>Node36&#45;&gt;Node46</title>
<path fill="none" stroke="#191970" d="M66.4106,-181.0918C80.9349,-155.3423 110.5072,-109.7423 149,-86 157.1135,-80.9956 166.3707,-77.3008 175.7416,-74.5747"/>
<polygon fill="#191970" stroke="#191970" points="63.1582,-179.7451 61.4364,-190.1991 69.3016,-183.1005 63.1582,-179.7451"/>
</g>
<!-- Node0 -->
<g id="node15" class="node">
<title>Node0</title>
<g id="a_node15"><a xlink:href="class_secondary_rpc_test.html" target="_top" xlink:title="SecondaryRpcTest">
<polygon fill="#ffffff" stroke="#000000" points="369,-38.5 369,-57.5 474,-57.5 474,-38.5 369,-38.5"/>
<text text-anchor="middle" x="421.5" y="-45.5" font-family="Helvetica,sans-Serif" font-size="10.00" fill="#000000">SecondaryRpcTest</text>
</a>
</g>
</g>
<!-- Node42&#45;&gt;Node0 -->
<g id="edge13" class="edge">
<title>Node42&#45;&gt;Node0</title>
<path fill="none" stroke="#191970" d="M305.1186,-130.544C310.9372,-128.6546 316.6386,-126.4865 322,-124 359.0725,-106.8066 395.3558,-73.8787 412.0156,-57.5989"/>
<polygon fill="#191970" stroke="#191970" points="303.8484,-127.2699 295.2553,-133.4674 305.8377,-133.9813 303.8484,-127.2699"/>
</g>
<!-- Node43 -->
<g id="node16" class="node">
<title>Node43</title>
<g id="a_node16"><a xlink:href="class_secondary_rpc_upgrade.html" target="_top" xlink:title="SecondaryRpcUpgrade">
<polygon fill="#ffffff" stroke="#000000" points="358,-133.5 358,-152.5 485,-152.5 485,-133.5 358,-133.5"/>
<text text-anchor="middle" x="421.5" y="-140.5" font-family="Helvetica,sans-Serif" font-size="10.00" fill="#000000">SecondaryRpcUpgrade</text>
</a>
</g>
</g>
<!-- Node42&#45;&gt;Node43 -->
<g id="edge14" class="edge">
<title>Node42&#45;&gt;Node43</title>
<path fill="none" stroke="#191970" d="M310.6882,-143C326.2919,-143 342.5906,-143 357.7374,-143"/>
<polygon fill="#191970" stroke="#191970" points="310.5538,-139.5001 300.5538,-143 310.5537,-146.5001 310.5538,-139.5001"/>
</g>
<!-- Node1 -->
<g id="node20" class="node">
<title>Node1</title>
<polygon fill="#ffffff" stroke="#bfbfbf" points="0,-.5 0,-19.5 113,-19.5 113,-.5 0,-.5"/>
<text text-anchor="middle" x="56.5" y="-7.5" font-family="Helvetica,sans-Serif" font-size="10.00" fill="#000000">WithParamInterface</text>
</g>
<!-- Node1&#45;&gt;Node0 -->
<g id="edge19" class="edge">
<title>Node1&#45;&gt;Node0</title>
<path fill="none" stroke="#191970" d="M123.3837,-3.3353C177.4407,.4602 255.2488,2.3128 322,-10 351.277,-15.4004 383.0835,-29.038 402.6582,-38.4159"/>
<polygon fill="#191970" stroke="#191970" points="122.95,.1422 113.2372,-4.0901 123.4693,-6.8385 122.95,.1422"/>
</g>
<!-- Node1&#45;&gt;Node3 -->
<g id="edge20" class="edge">
<title>Node1&#45;&gt;Node3</title>
<path fill="none" stroke="#191970" d="M123.4712,-17.1087C138.6459,-18.7194 154.7447,-20.4282 169.8634,-22.033"/>
<polygon fill="#191970" stroke="#191970" points="123.4503,-13.5869 113.1367,-16.0117 122.7114,-20.5478 123.4503,-13.5869"/>
</g>
</g>
</svg>
