<?xml version="1.0" encoding="UTF-8" standalone="no"?>
<!DOCTYPE svg PUBLIC "-//W3C//DTD SVG 1.1//EN"
 "http://www.w3.org/Graphics/SVG/1.1/DTD/svg11.dtd">
<!-- Generated by graphviz version 2.40.1 (20161225.0304)
 -->
<!-- Title: Graphical Class Hierarchy Pages: 1 -->
<svg width="530pt" height="192pt"
 viewBox="0.00 0.00 530.00 191.50" xmlns="http://www.w3.org/2000/svg" xmlns:xlink="http://www.w3.org/1999/xlink">
<g id="graph0" class="graph" transform="scale(1 1) rotate(0) translate(4 187.5)">
<title>Graphical Class Hierarchy</title>
<polygon fill="#ffffff" stroke="transparent" points="-4,4 -4,-187.5 526,-187.5 526,4 -4,4"/>
<!-- Node0 -->
<g id="node1" class="node">
<title>Node0</title>
<g id="a_node1"><a xlink:href="class_uptane_1_1_secondary_interface.html" target="_top" xlink:title="Uptane::SecondaryInterface">
<polygon fill="#ffffff" stroke="#000000" points="0,-88 0,-107 152,-107 152,-88 0,-88"/>
<text text-anchor="middle" x="76" y="-95" font-family="Helvetica,sans-Serif" font-size="10.00" fill="#000000">Uptane::SecondaryInterface</text>
</a>
</g>
</g>
<!-- Node1 -->
<g id="node2" class="node">
<title>Node1</title>
<g id="a_node2"><a xlink:href="class_primary_1_1_managed_secondary.html" target="_top" xlink:title="Primary::ManagedSecondary">
<polygon fill="#ffffff" stroke="#000000" points="188,-164 188,-183 343,-183 343,-164 188,-164"/>
<text text-anchor="middle" x="265.5" y="-171" font-family="Helvetica,sans-Serif" font-size="10.00" fill="#000000">Primary::ManagedSecondary</text>
</a>
</g>
</g>
<!-- Node0&#45;&gt;Node1 -->
<g id="edge1" class="edge">
<title>Node0&#45;&gt;Node1</title>
<path fill="none" stroke="#191970" d="M100.5509,-112.0816C122.758,-124.7588 156.6816,-142.869 188,-154.5 197.8699,-158.1655 208.7099,-161.3291 219.0743,-163.9658"/>
<polygon fill="#191970" stroke="#191970" points="102.2013,-108.993 91.7926,-107.0159 98.6966,-115.0525 102.2013,-108.993"/>
</g>
<!-- Node3 -->
<g id="node4" class="node">
<title>Node3</title>
<g id="a_node4"><a xlink:href="class_secondary_interface_mock.html" target="_top" xlink:title="SecondaryInterfaceMock">
<polygon fill="#ffffff" stroke="#000000" points="197,-126 197,-145 334,-145 334,-126 197,-126"/>
<text text-anchor="middle" x="265.5" y="-133" font-family="Helvetica,sans-Serif" font-size="10.00" fill="#000000">SecondaryInterfaceMock</text>
</a>
</g>
</g>
<!-- Node0&#45;&gt;Node3 -->
<g id="edge3" class="edge">
<title>Node0&#45;&gt;Node3</title>
<path fill="none" stroke="#191970" d="M133.8948,-109.1095C160.846,-114.514 192.5102,-120.8635 218.025,-125.9799"/>
<polygon fill="#191970" stroke="#191970" points="134.3118,-105.6235 123.8189,-107.089 132.9355,-112.4869 134.3118,-105.6235"/>
</g>
<!-- Node4 -->
<g id="node5" class="node">
<title>Node4</title>
<g id="a_node5"><a xlink:href="class_uptane_1_1_ip_uptane_secondary.html" target="_top" xlink:title="Uptane::IpUptaneSecondary">
<polygon fill="#ffffff" stroke="#000000" points="189,-88 189,-107 342,-107 342,-88 189,-88"/>
<text text-anchor="middle" x="265.5" y="-95" font-family="Helvetica,sans-Serif" font-size="10.00" fill="#000000">Uptane::IpUptaneSecondary</text>
</a>
</g>
</g>
<!-- Node0&#45;&gt;Node4 -->
<g id="edge4" class="edge">
<title>Node0&#45;&gt;Node4</title>
<path fill="none" stroke="#191970" d="M162.4906,-97.5C171.2602,-97.5 180.1249,-97.5 188.7811,-97.5"/>
<polygon fill="#191970" stroke="#191970" points="162.2578,-94.0001 152.2578,-97.5 162.2577,-101.0001 162.2578,-94.0001"/>
</g>
<!-- Node5 -->
<g id="node6" class="node">
<title>Node5</title>
<g id="a_node6"><a xlink:href="class_uptane_1_1_iso_tp_secondary.html" target="_top" xlink:title="Uptane::IsoTpSecondary">
<polygon fill="#ffffff" stroke="#000000" points="198,-50 198,-69 333,-69 333,-50 198,-50"/>
<text text-anchor="middle" x="265.5" y="-57" font-family="Helvetica,sans-Serif" font-size="10.00" fill="#000000">Uptane::IsoTpSecondary</text>
</a>
</g>
</g>
<!-- Node0&#45;&gt;Node5 -->
<g id="edge5" class="edge">
<title>Node0&#45;&gt;Node5</title>
<path fill="none" stroke="#191970" d="M133.8948,-85.8905C160.846,-80.486 192.5102,-74.1365 218.025,-69.0201"/>
<polygon fill="#191970" stroke="#191970" points="132.9355,-82.5131 123.8189,-87.911 134.3118,-89.3765 132.9355,-82.5131"/>
</g>
<!-- Node6 -->
<g id="node7" class="node">
<title>Node6</title>
<g id="a_node7"><a xlink:href="class_uptane_1_1_partial_verification_secondary.html" target="_top" xlink:title="Uptane::PartialVerification\lSecondary">
<polygon fill="#ffffff" stroke="#000000" points="194,-.5 194,-30.5 337,-30.5 337,-.5 194,-.5"/>
<text text-anchor="start" x="202" y="-18.5" font-family="Helvetica,sans-Serif" font-size="10.00" fill="#000000">Uptane::PartialVerification</text>
<text text-anchor="middle" x="265.5" y="-7.5" font-family="Helvetica,sans-Serif" font-size="10.00" fill="#000000">Secondary</text>
</a>
</g>
</g>
<!-- Node0&#45;&gt;Node6 -->
<g id="edge6" class="edge">
<title>Node0&#45;&gt;Node6</title>
<path fill="none" stroke="#191970" d="M101.533,-83.0334C123.8858,-70.7282 157.471,-53.0992 188,-40.5 196.4945,-36.9944 205.6716,-33.6572 214.6372,-30.629"/>
<polygon fill="#191970" stroke="#191970" points="99.724,-80.0345 92.6826,-87.9509 103.1239,-86.1534 99.724,-80.0345"/>
</g>
<!-- Node2 -->
<g id="node3" class="node">
<title>Node2</title>
<g id="a_node3"><a xlink:href="class_primary_1_1_virtual_secondary.html" target="_top" xlink:title="Primary::VirtualSecondary">
<polygon fill="#ffffff" stroke="#000000" points="379,-164 379,-183 522,-183 522,-164 379,-164"/>
<text text-anchor="middle" x="450.5" y="-171" font-family="Helvetica,sans-Serif" font-size="10.00" fill="#000000">Primary::VirtualSecondary</text>
</a>
</g>
</g>
<!-- Node1&#45;&gt;Node2 -->
<g id="edge2" class="edge">
<title>Node1&#45;&gt;Node2</title>
<path fill="none" stroke="#191970" d="M353.2257,-173.5C361.8436,-173.5 370.5168,-173.5 378.9452,-173.5"/>
<polygon fill="#191970" stroke="#191970" points="353.1526,-170.0001 343.1525,-173.5 353.1525,-177.0001 353.1526,-170.0001"/>
</g>
</g>
</svg>
