<?xml version="1.0" encoding="UTF-8" standalone="no"?>
<!DOCTYPE svg PUBLIC "-//W3C//DTD SVG 1.1//EN"
 "http://www.w3.org/Graphics/SVG/1.1/DTD/svg11.dtd">
<!-- Generated by graphviz version 2.40.1 (20161225.0304)
 -->
<!-- Title: Graphical Class Hierarchy Pages: 1 -->
<svg width="702pt" height="1002pt"
 viewBox="0.00 0.00 702.00 1001.50" xmlns="http://www.w3.org/2000/svg" xmlns:xlink="http://www.w3.org/1999/xlink">
<g id="graph0" class="graph" transform="scale(1 1) rotate(0) translate(4 997.5)">
<title>Graphical Class Hierarchy</title>
<polygon fill="#ffffff" stroke="transparent" points="-4,4 -4,-997.5 698,-997.5 698,4 -4,4"/>
<!-- Node233 -->
<g id="node1" class="node">
<title>Node233</title>
<g id="a_node1"><a xlink:title="STL class. ">
<polygon fill="#ffffff" stroke="#bfbfbf" points="0,-670 0,-689 86,-689 86,-670 0,-670"/>
<text text-anchor="middle" x="43" y="-677" font-family="Helvetica,sans-Serif" font-size="10.00" fill="#000000">std::exception</text>
</a>
</g>
</g>
<!-- Node0 -->
<g id="node2" class="node">
<title>Node0</title>
<g id="a_node2"><a xlink:href="classcampaign_1_1_campaign_parse_error.html" target="_top" xlink:title="campaign::CampaignParseError">
<polygon fill="#ffffff" stroke="#000000" points="122,-765 122,-784 292,-784 292,-765 122,-765"/>
<text text-anchor="middle" x="207" y="-772" font-family="Helvetica,sans-Serif" font-size="10.00" fill="#000000">campaign::CampaignParseError</text>
</a>
</g>
</g>
<!-- Node233&#45;&gt;Node0 -->
<g id="edge1" class="edge">
<title>Node233&#45;&gt;Node0</title>
<path fill="none" stroke="#8b1a1a" d="M56.6542,-697.4365C70.9938,-714.9738 95.1596,-741.0807 122,-755.5 129.1931,-759.3643 137.1337,-762.4438 145.1863,-764.8975"/>
<polygon fill="#8b1a1a" stroke="#8b1a1a" points="59.0438,-694.8166 50.0891,-689.154 53.5581,-699.1649 59.0438,-694.8166"/>
</g>
<!-- Node235 -->
<g id="node3" class="node">
<title>Node235</title>
<g id="a_node3"><a xlink:href="classdeserialization__error.html" target="_top" xlink:title="deserialization_error">
<polygon fill="#ffffff" stroke="#000000" points="148.5,-727 148.5,-746 265.5,-746 265.5,-727 148.5,-727"/>
<text text-anchor="middle" x="207" y="-734" font-family="Helvetica,sans-Serif" font-size="10.00" fill="#000000">deserialization_error</text>
</a>
</g>
</g>
<!-- Node233&#45;&gt;Node235 -->
<g id="edge2" class="edge">
<title>Node233&#45;&gt;Node235</title>
<path fill="none" stroke="#191970" d="M69.2933,-694.019C84.3621,-701.8589 103.8368,-711.1948 122,-717.5 132.5708,-721.1696 144.1327,-724.3053 155.2295,-726.9091"/>
<polygon fill="#191970" stroke="#191970" points="70.5588,-690.7282 60.0852,-689.1299 67.2761,-696.9107 70.5588,-690.7282"/>
</g>
<!-- Node236 -->
<g id="node4" class="node">
<title>Node236</title>
<g id="a_node4"><a xlink:href="class_o_s_tree_commit_parse_error.html" target="_top" xlink:title="OSTreeCommitParseError">
<polygon fill="#ffffff" stroke="#000000" points="137.5,-689 137.5,-708 276.5,-708 276.5,-689 137.5,-689"/>
<text text-anchor="middle" x="207" y="-696" font-family="Helvetica,sans-Serif" font-size="10.00" fill="#000000">OSTreeCommitParseError</text>
</a>
</g>
</g>
<!-- Node233&#45;&gt;Node236 -->
<g id="edge3" class="edge">
<title>Node233&#45;&gt;Node236</title>
<path fill="none" stroke="#8b1a1a" d="M96.2971,-685.6747C109.3606,-687.1881 123.5363,-688.8304 137.2449,-690.4186"/>
<polygon fill="#8b1a1a" stroke="#8b1a1a" points="96.4255,-682.1662 86.0891,-684.492 95.6198,-689.1197 96.4255,-682.1662"/>
</g>
<!-- Node237 -->
<g id="node5" class="node">
<title>Node237</title>
<g id="a_node5"><a xlink:href="class_o_s_tree_object_missing.html" target="_top" xlink:title="Thrown by GetObject when the object requested is not present in the repository. ">
<polygon fill="#ffffff" stroke="#000000" points="147.5,-651 147.5,-670 266.5,-670 266.5,-651 147.5,-651"/>
<text text-anchor="middle" x="207" y="-658" font-family="Helvetica,sans-Serif" font-size="10.00" fill="#000000">OSTreeObjectMissing</text>
</a>
</g>
</g>
<!-- Node233&#45;&gt;Node237 -->
<g id="edge4" class="edge">
<title>Node233&#45;&gt;Node237</title>
<path fill="none" stroke="#8b1a1a" d="M96.4759,-673.3046C112.7031,-671.4246 130.6328,-669.3474 147.2449,-667.4228"/>
<polygon fill="#8b1a1a" stroke="#8b1a1a" points="95.6198,-669.8803 86.0891,-674.508 96.4255,-676.8338 95.6198,-669.8803"/>
</g>
<!-- Node238 -->
<g id="node6" class="node">
<title>Node238</title>
<g id="a_node6"><a xlink:title="STL class. ">
<polygon fill="#ffffff" stroke="#bfbfbf" points="162.5,-613 162.5,-632 251.5,-632 251.5,-613 162.5,-613"/>
<text text-anchor="middle" x="207" y="-620" font-family="Helvetica,sans-Serif" font-size="10.00" fill="#000000">std::logic_error</text>
</a>
</g>
</g>
<!-- Node233&#45;&gt;Node238 -->
<g id="edge5" class="edge">
<title>Node233&#45;&gt;Node238</title>
<path fill="none" stroke="#191970" d="M69.2933,-664.981C84.3621,-657.1411 103.8368,-647.8052 122,-641.5 134.8564,-637.037 149.1788,-633.3637 162.3474,-630.4765"/>
<polygon fill="#191970" stroke="#191970" points="67.2761,-662.0893 60.0852,-669.8701 70.5588,-668.2718 67.2761,-662.0893"/>
</g>
<!-- Node264 -->
<g id="node32" class="node">
<title>Node264</title>
<g id="a_node32"><a xlink:title="STL class. ">
<polygon fill="#ffffff" stroke="#bfbfbf" points="155,-145 155,-164 259,-164 259,-145 155,-145"/>
<text text-anchor="middle" x="207" y="-152" font-family="Helvetica,sans-Serif" font-size="10.00" fill="#000000">std::runtime_error</text>
</a>
</g>
</g>
<!-- Node233&#45;&gt;Node264 -->
<g id="edge31" class="edge">
<title>Node233&#45;&gt;Node264</title>
<path fill="none" stroke="#191970" d="M49.0392,-660.1672C75.9364,-574.0634 184.3633,-226.9652 203.9571,-164.241"/>
<polygon fill="#191970" stroke="#191970" points="45.6275,-659.3507 45.9865,-669.9395 52.3091,-661.438 45.6275,-659.3507"/>
</g>
<!-- Node239 -->
<g id="node7" class="node">
<title>Node239</title>
<g id="a_node7"><a xlink:href="class_fatal_exception.html" target="_top" xlink:title="FatalException">
<polygon fill="#ffffff" stroke="#000000" points="357.5,-689 357.5,-708 445.5,-708 445.5,-689 357.5,-689"/>
<text text-anchor="middle" x="401.5" y="-696" font-family="Helvetica,sans-Serif" font-size="10.00" fill="#000000">FatalException</text>
</a>
</g>
</g>
<!-- Node238&#45;&gt;Node239 -->
<g id="edge6" class="edge">
<title>Node238&#45;&gt;Node239</title>
<path fill="none" stroke="#191970" d="M261.6175,-629.6858C272.1242,-632.4366 282.7316,-636.2403 292,-641.5 312.2335,-652.9822 307.959,-667.685 328,-679.5 336.8559,-684.7209 347.1386,-688.5242 357.1564,-691.289"/>
<polygon fill="#191970" stroke="#191970" points="262.1553,-626.2175 251.622,-627.358 260.5675,-633.035 262.1553,-626.2175"/>
</g>
<!-- Node240 -->
<g id="node8" class="node">
<title>Node240</title>
<g id="a_node8"><a xlink:href="class_not_implemented_exception.html" target="_top" xlink:title="NotImplementedException">
<polygon fill="#ffffff" stroke="#000000" points="328,-651 328,-670 475,-670 475,-651 328,-651"/>
<text text-anchor="middle" x="401.5" y="-658" font-family="Helvetica,sans-Serif" font-size="10.00" fill="#000000">NotImplementedException</text>
</a>
</g>
</g>
<!-- Node238&#45;&gt;Node240 -->
<g id="edge7" class="edge">
<title>Node238&#45;&gt;Node240</title>
<path fill="none" stroke="#191970" d="M261.4691,-633.1418C290.0973,-638.7349 324.903,-645.535 352.6519,-650.9564"/>
<polygon fill="#191970" stroke="#191970" points="262.1078,-629.7005 251.6222,-631.218 260.7655,-636.5706 262.1078,-629.7005"/>
</g>
<!-- Node241 -->
<g id="node9" class="node">
<title>Node241</title>
<g id="a_node9"><a xlink:title="STL class. ">
<polygon fill="#ffffff" stroke="#bfbfbf" points="350,-613 350,-632 453,-632 453,-613 350,-613"/>
<text text-anchor="middle" x="401.5" y="-620" font-family="Helvetica,sans-Serif" font-size="10.00" fill="#000000">std::domain_error</text>
</a>
</g>
</g>
<!-- Node238&#45;&gt;Node241 -->
<g id="edge8" class="edge">
<title>Node238&#45;&gt;Node241</title>
<path fill="none" stroke="#191970" d="M261.8961,-622.5C289.4891,-622.5 322.7356,-622.5 349.8613,-622.5"/>
<polygon fill="#191970" stroke="#191970" points="261.6223,-619.0001 251.6222,-622.5 261.6222,-626.0001 261.6223,-619.0001"/>
</g>
<!-- Node243 -->
<g id="node11" class="node">
<title>Node243</title>
<g id="a_node11"><a xlink:href="class_uptane_1_1_exception.html" target="_top" xlink:title="Uptane::Exception">
<polygon fill="#ffffff" stroke="#000000" points="348.5,-575 348.5,-594 454.5,-594 454.5,-575 348.5,-575"/>
<text text-anchor="middle" x="401.5" y="-582" font-family="Helvetica,sans-Serif" font-size="10.00" fill="#000000">Uptane::Exception</text>
</a>
</g>
</g>
<!-- Node238&#45;&gt;Node243 -->
<g id="edge10" class="edge">
<title>Node238&#45;&gt;Node243</title>
<path fill="none" stroke="#191970" d="M261.4691,-611.8582C290.0973,-606.2651 324.903,-599.465 352.6519,-594.0436"/>
<polygon fill="#191970" stroke="#191970" points="260.7655,-608.4294 251.6222,-613.782 262.1078,-615.2995 260.7655,-608.4294"/>
</g>
<!-- Node242 -->
<g id="node10" class="node">
<title>Node242</title>
<g id="a_node10"><a xlink:href="class_time_stamp_1_1_invalid_time_stamp.html" target="_top" xlink:title="TimeStamp::InvalidTimeStamp">
<polygon fill="#ffffff" stroke="#000000" points="518.5,-974 518.5,-993 686.5,-993 686.5,-974 518.5,-974"/>
<text text-anchor="middle" x="602.5" y="-981" font-family="Helvetica,sans-Serif" font-size="10.00" fill="#000000">TimeStamp::InvalidTimeStamp</text>
</a>
</g>
</g>
<!-- Node241&#45;&gt;Node242 -->
<g id="edge9" class="edge">
<title>Node241&#45;&gt;Node242</title>
<path fill="none" stroke="#191970" d="M462.5157,-631.5884C467.2039,-634.1828 471.4744,-637.4347 475,-641.5 569.6363,-750.6245 413.7602,-857.6889 511,-964.5 514.3859,-968.2191 518.2935,-971.3162 522.5468,-973.8872"/>
<polygon fill="#191970" stroke="#191970" points="463.6292,-628.2524 453.0714,-627.3682 460.7735,-634.6434 463.6292,-628.2524"/>
</g>
<!-- Node244 -->
<g id="node12" class="node">
<title>Node244</title>
<g id="a_node12"><a xlink:href="class_uptane_1_1_bad_ecu_id.html" target="_top" xlink:title="Uptane::BadEcuId">
<polygon fill="#ffffff" stroke="#000000" points="551,-936 551,-955 654,-955 654,-936 551,-936"/>
<text text-anchor="middle" x="602.5" y="-943" font-family="Helvetica,sans-Serif" font-size="10.00" fill="#000000">Uptane::BadEcuId</text>
</a>
</g>
</g>
<!-- Node243&#45;&gt;Node244 -->
<g id="edge11" class="edge">
<title>Node243&#45;&gt;Node244</title>
<path fill="none" stroke="#191970" d="M463.6855,-594.2546C467.9145,-596.7336 471.7699,-599.7754 475,-603.5 569.6363,-712.6245 413.7602,-819.6889 511,-926.5 521.1576,-937.6574 536.0106,-943.2158 550.807,-945.7706"/>
<polygon fill="#191970" stroke="#191970" points="465.0951,-591.0494 454.5608,-589.9181 462.0904,-597.3718 465.0951,-591.0494"/>
</g>
<!-- Node245 -->
<g id="node13" class="node">
<title>Node245</title>
<g id="a_node13"><a xlink:href="class_uptane_1_1_bad_hardware_id.html" target="_top" xlink:title="Uptane::BadHardwareId">
<polygon fill="#ffffff" stroke="#000000" points="536,-898 536,-917 669,-917 669,-898 536,-898"/>
<text text-anchor="middle" x="602.5" y="-905" font-family="Helvetica,sans-Serif" font-size="10.00" fill="#000000">Uptane::BadHardwareId</text>
</a>
</g>
</g>
<!-- Node243&#45;&gt;Node245 -->
<g id="edge12" class="edge">
<title>Node243&#45;&gt;Node245</title>
<path fill="none" stroke="#191970" d="M464.1557,-594.6188C468.1907,-597.0281 471.8788,-599.9538 475,-603.5 559.3527,-699.3388 424.3611,-794.7228 511,-888.5 517.716,-895.7693 526.4265,-900.6531 535.7998,-903.8755"/>
<polygon fill="#191970" stroke="#191970" points="465.3807,-591.3237 454.8535,-590.1286 462.3377,-597.6277 465.3807,-591.3237"/>
</g>
<!-- Node246 -->
<g id="node14" class="node">
<title>Node246</title>
<g id="a_node14"><a xlink:href="class_uptane_1_1_bad_key_id.html" target="_top" xlink:title="Uptane::BadKeyId">
<polygon fill="#ffffff" stroke="#000000" points="550.5,-860 550.5,-879 654.5,-879 654.5,-860 550.5,-860"/>
<text text-anchor="middle" x="602.5" y="-867" font-family="Helvetica,sans-Serif" font-size="10.00" fill="#000000">Uptane::BadKeyId</text>
</a>
</g>
</g>
<!-- Node243&#45;&gt;Node246 -->
<g id="edge13" class="edge">
<title>Node243&#45;&gt;Node246</title>
<path fill="none" stroke="#191970" d="M464.0809,-594.6852C468.1328,-597.0796 471.8451,-599.9837 475,-603.5 549.0867,-686.0731 434.944,-769.7371 511,-850.5 521.1219,-861.2483 535.6095,-866.756 550.0801,-869.3908"/>
<polygon fill="#191970" stroke="#191970" points="465.2839,-591.3807 454.7531,-590.2178 462.2602,-597.694 465.2839,-591.3807"/>
</g>
<!-- Node247 -->
<g id="node15" class="node">
<title>Node247</title>
<g id="a_node15"><a xlink:href="class_uptane_1_1_delegation_hash_mismatch.html" target="_top" xlink:title="Uptane::DelegationHashMismatch">
<polygon fill="#ffffff" stroke="#000000" points="511,-822 511,-841 694,-841 694,-822 511,-822"/>
<text text-anchor="middle" x="602.5" y="-829" font-family="Helvetica,sans-Serif" font-size="10.00" fill="#000000">Uptane::DelegationHashMismatch</text>
</a>
</g>
</g>
<!-- Node243&#45;&gt;Node247 -->
<g id="edge14" class="edge">
<title>Node243&#45;&gt;Node247</title>
<path fill="none" stroke="#191970" d="M463.9807,-594.7763C468.0551,-597.1502 471.7999,-600.0248 475,-603.5 538.8482,-672.838 445.4986,-744.7216 511,-812.5 514.6079,-816.2333 518.7435,-819.3302 523.2185,-821.8914"/>
<polygon fill="#191970" stroke="#191970" points="465.154,-591.4593 454.6184,-590.3402 462.1566,-597.7851 465.154,-591.4593"/>
</g>
<!-- Node248 -->
<g id="node16" class="node">
<title>Node248</title>
<g id="a_node16"><a xlink:href="class_uptane_1_1_delegation_missing.html" target="_top" xlink:title="Uptane::DelegationMissing">
<polygon fill="#ffffff" stroke="#000000" points="528.5,-784 528.5,-803 676.5,-803 676.5,-784 528.5,-784"/>
<text text-anchor="middle" x="602.5" y="-791" font-family="Helvetica,sans-Serif" font-size="10.00" fill="#000000">Uptane::DelegationMissing</text>
</a>
</g>
</g>
<!-- Node243&#45;&gt;Node248 -->
<g id="edge15" class="edge">
<title>Node243&#45;&gt;Node248</title>
<path fill="none" stroke="#191970" d="M464.038,-595.0225C468.0678,-597.3443 471.789,-600.1395 475,-603.5 528.6555,-659.6524 456.0063,-719.6576 511,-774.5 515.9399,-779.4263 521.8018,-783.2337 528.1367,-786.1591"/>
<polygon fill="#191970" stroke="#191970" points="465.3382,-591.7659 454.8013,-590.6599 462.3487,-598.0954 465.3382,-591.7659"/>
</g>
<!-- Node249 -->
<g id="node17" class="node">
<title>Node249</title>
<g id="a_node17"><a xlink:href="class_uptane_1_1_expired_metadata.html" target="_top" xlink:title="Uptane::ExpiredMetadata">
<polygon fill="#ffffff" stroke="#000000" points="532.5,-746 532.5,-765 672.5,-765 672.5,-746 532.5,-746"/>
<text text-anchor="middle" x="602.5" y="-753" font-family="Helvetica,sans-Serif" font-size="10.00" fill="#000000">Uptane::ExpiredMetadata</text>
</a>
</g>
</g>
<!-- Node243&#45;&gt;Node249 -->
<g id="edge16" class="edge">
<title>Node243&#45;&gt;Node249</title>
<path fill="none" stroke="#191970" d="M463.8279,-595.2291C467.9053,-597.5041 471.6948,-600.2321 475,-603.5 518.5476,-646.555 466.427,-694.5075 511,-736.5 517.1407,-742.2852 524.562,-746.5041 532.4903,-749.5543"/>
<polygon fill="#191970" stroke="#191970" points="465.0646,-591.9452 454.5176,-590.9387 462.1349,-598.3027 465.0646,-591.9452"/>
</g>
<!-- Node250 -->
<g id="node18" class="node">
<title>Node250</title>
<g id="a_node18"><a xlink:href="class_uptane_1_1_illegal_threshold.html" target="_top" xlink:title="Uptane::IllegalThreshold">
<polygon fill="#ffffff" stroke="#000000" points="534.5,-708 534.5,-727 670.5,-727 670.5,-708 534.5,-708"/>
<text text-anchor="middle" x="602.5" y="-715" font-family="Helvetica,sans-Serif" font-size="10.00" fill="#000000">Uptane::IllegalThreshold</text>
</a>
</g>
</g>
<!-- Node243&#45;&gt;Node250 -->
<g id="edge17" class="edge">
<title>Node243&#45;&gt;Node250</title>
<path fill="none" stroke="#191970" d="M464.2122,-595.9902C468.0949,-598.0988 471.7428,-600.5806 475,-603.5 508.6231,-633.6364 476.6601,-669.183 511,-698.5 517.7866,-704.2939 525.8804,-708.4752 534.4067,-711.4694"/>
<polygon fill="#191970" stroke="#191970" points="465.3527,-592.6642 454.8003,-591.7172 462.4589,-599.0381 465.3527,-592.6642"/>
</g>
<!-- Node251 -->
<g id="node19" class="node">
<title>Node251</title>
<g id="a_node19"><a xlink:href="class_uptane_1_1_invalid_metadata.html" target="_top" xlink:title="Uptane::InvalidMetadata">
<polygon fill="#ffffff" stroke="#000000" points="534,-670 534,-689 671,-689 671,-670 534,-670"/>
<text text-anchor="middle" x="602.5" y="-677" font-family="Helvetica,sans-Serif" font-size="10.00" fill="#000000">Uptane::InvalidMetadata</text>
</a>
</g>
</g>
<!-- Node243&#45;&gt;Node251 -->
<g id="edge18" class="edge">
<title>Node243&#45;&gt;Node251</title>
<path fill="none" stroke="#191970" d="M463.9928,-596.9637C467.8742,-598.845 471.586,-601.0096 475,-603.5 499.2069,-621.1579 486.3744,-643.4309 511,-660.5 517.8005,-665.2137 525.5228,-668.8034 533.5299,-671.5298"/>
<polygon fill="#191970" stroke="#191970" points="465.2646,-593.7018 454.6887,-593.0678 462.5609,-600.1586 465.2646,-593.7018"/>
</g>
<!-- Node252 -->
<g id="node20" class="node">
<title>Node252</title>
<g id="a_node20"><a xlink:href="class_uptane_1_1_invalid_target.html" target="_top" xlink:title="Uptane::InvalidTarget">
<polygon fill="#ffffff" stroke="#000000" points="542,-632 542,-651 663,-651 663,-632 542,-632"/>
<text text-anchor="middle" x="602.5" y="-639" font-family="Helvetica,sans-Serif" font-size="10.00" fill="#000000">Uptane::InvalidTarget</text>
</a>
</g>
</g>
<!-- Node243&#45;&gt;Node252 -->
<g id="edge19" class="edge">
<title>Node243&#45;&gt;Node252</title>
<path fill="none" stroke="#191970" d="M455.0628,-596.7849C461.8507,-598.7964 468.6412,-601.0388 475,-603.5 491.872,-610.0303 493.9755,-616.3784 511,-622.5 521.5344,-626.2879 533.0373,-629.4142 544.2214,-631.9604"/>
<polygon fill="#191970" stroke="#191970" points="455.7441,-593.3409 445.1701,-594.0044 453.85,-600.0797 455.7441,-593.3409"/>
</g>
<!-- Node253 -->
<g id="node21" class="node">
<title>Node253</title>
<g id="a_node21"><a xlink:href="class_uptane_1_1_metadata_fetch_failure.html" target="_top" xlink:title="Uptane::MetadataFetchFailure">
<polygon fill="#ffffff" stroke="#000000" points="522,-594 522,-613 683,-613 683,-594 522,-594"/>
<text text-anchor="middle" x="602.5" y="-601" font-family="Helvetica,sans-Serif" font-size="10.00" fill="#000000">Uptane::MetadataFetchFailure</text>
</a>
</g>
</g>
<!-- Node243&#45;&gt;Node253 -->
<g id="edge20" class="edge">
<title>Node243&#45;&gt;Node253</title>
<path fill="none" stroke="#191970" d="M464.7098,-590.4751C482.8219,-592.1871 502.8169,-594.0772 521.8264,-595.8741"/>
<polygon fill="#191970" stroke="#191970" points="464.8583,-586.9736 454.5733,-589.5169 464.1995,-593.9425 464.8583,-586.9736"/>
</g>
<!-- Node254 -->
<g id="node22" class="node">
<title>Node254</title>
<g id="a_node22"><a xlink:href="class_uptane_1_1_missing_repo.html" target="_top" xlink:title="Uptane::MissingRepo">
<polygon fill="#ffffff" stroke="#000000" points="543,-556 543,-575 662,-575 662,-556 543,-556"/>
<text text-anchor="middle" x="602.5" y="-563" font-family="Helvetica,sans-Serif" font-size="10.00" fill="#000000">Uptane::MissingRepo</text>
</a>
</g>
</g>
<!-- Node243&#45;&gt;Node254 -->
<g id="edge21" class="edge">
<title>Node243&#45;&gt;Node254</title>
<path fill="none" stroke="#191970" d="M464.6613,-578.5295C489.6081,-576.1714 518.1331,-573.475 542.737,-571.1492"/>
<polygon fill="#191970" stroke="#191970" points="464.1995,-575.0575 454.5733,-579.4831 464.8583,-582.0264 464.1995,-575.0575"/>
</g>
<!-- Node255 -->
<g id="node23" class="node">
<title>Node255</title>
<g id="a_node23"><a xlink:href="class_uptane_1_1_non_unique_signatures.html" target="_top" xlink:title="Uptane::NonUniqueSignatures">
<polygon fill="#ffffff" stroke="#000000" points="520.5,-518 520.5,-537 684.5,-537 684.5,-518 520.5,-518"/>
<text text-anchor="middle" x="602.5" y="-525" font-family="Helvetica,sans-Serif" font-size="10.00" fill="#000000">Uptane::NonUniqueSignatures</text>
</a>
</g>
</g>
<!-- Node243&#45;&gt;Node255 -->
<g id="edge22" class="edge">
<title>Node243&#45;&gt;Node255</title>
<path fill="none" stroke="#191970" d="M435.623,-571.3807C457.0484,-563.4635 485.3802,-553.5735 511,-546.5 523.6677,-543.0025 537.4795,-539.8161 550.4431,-537.0941"/>
<polygon fill="#191970" stroke="#191970" points="434.1444,-568.1968 426.0014,-574.9749 436.594,-574.7542 434.1444,-568.1968"/>
</g>
<!-- Node256 -->
<g id="node24" class="node">
<title>Node256</title>
<g id="a_node24"><a xlink:href="class_uptane_1_1_oversized_target.html" target="_top" xlink:title="Uptane::OversizedTarget">
<polygon fill="#ffffff" stroke="#000000" points="534,-480 534,-499 671,-499 671,-480 534,-480"/>
<text text-anchor="middle" x="602.5" y="-487" font-family="Helvetica,sans-Serif" font-size="10.00" fill="#000000">Uptane::OversizedTarget</text>
</a>
</g>
</g>
<!-- Node243&#45;&gt;Node256 -->
<g id="edge23" class="edge">
<title>Node243&#45;&gt;Node256</title>
<path fill="none" stroke="#191970" d="M419.7851,-568.3047C440.4698,-550.8633 475.868,-523.5917 511,-508.5 519.9442,-504.6578 529.7221,-501.573 539.4515,-499.1015"/>
<polygon fill="#191970" stroke="#191970" points="417.4168,-565.725 412.1125,-574.8964 421.9785,-571.0346 417.4168,-565.725"/>
</g>
<!-- Node257 -->
<g id="node25" class="node">
<title>Node257</title>
<g id="a_node25"><a xlink:href="class_uptane_1_1_root_rotation_error.html" target="_top" xlink:title="Uptane::RootRotationError">
<polygon fill="#ffffff" stroke="#000000" points="531,-442 531,-461 674,-461 674,-442 531,-442"/>
<text text-anchor="middle" x="602.5" y="-449" font-family="Helvetica,sans-Serif" font-size="10.00" fill="#000000">Uptane::RootRotationError</text>
</a>
</g>
</g>
<!-- Node243&#45;&gt;Node257 -->
<g id="edge24" class="edge">
<title>Node243&#45;&gt;Node257</title>
<path fill="none" stroke="#191970" d="M413.588,-566.2222C431.5986,-540.5436 468.0086,-494.2738 511,-470.5 517.957,-466.6528 525.603,-463.5823 533.4194,-461.1321"/>
<polygon fill="#191970" stroke="#191970" points="410.5653,-564.4419 407.8068,-574.6714 416.3424,-568.3948 410.5653,-564.4419"/>
</g>
<!-- Node258 -->
<g id="node26" class="node">
<title>Node258</title>
<g id="a_node26"><a xlink:href="class_uptane_1_1_security_exception.html" target="_top" xlink:title="Uptane::SecurityException">
<polygon fill="#ffffff" stroke="#000000" points="529.5,-404 529.5,-423 675.5,-423 675.5,-404 529.5,-404"/>
<text text-anchor="middle" x="602.5" y="-411" font-family="Helvetica,sans-Serif" font-size="10.00" fill="#000000">Uptane::SecurityException</text>
</a>
</g>
</g>
<!-- Node243&#45;&gt;Node258 -->
<g id="edge25" class="edge">
<title>Node243&#45;&gt;Node258</title>
<path fill="none" stroke="#191970" d="M409.5763,-565.3777C424.4782,-532.5737 459.5484,-465.8888 511,-432.5 516.9883,-428.614 523.6211,-425.5025 530.5,-423.0141"/>
<polygon fill="#191970" stroke="#191970" points="406.2752,-564.1899 405.4515,-574.7527 412.6825,-567.009 406.2752,-564.1899"/>
</g>
<!-- Node259 -->
<g id="node27" class="node">
<title>Node259</title>
<g id="a_node27"><a xlink:href="class_uptane_1_1_target_content_mismatch.html" target="_top" xlink:title="Uptane::TargetContentMismatch">
<polygon fill="#ffffff" stroke="#000000" points="516,-366 516,-385 689,-385 689,-366 516,-366"/>
<text text-anchor="middle" x="602.5" y="-373" font-family="Helvetica,sans-Serif" font-size="10.00" fill="#000000">Uptane::TargetContentMismatch</text>
</a>
</g>
</g>
<!-- Node243&#45;&gt;Node259 -->
<g id="edge26" class="edge">
<title>Node243&#45;&gt;Node259</title>
<path fill="none" stroke="#191970" d="M406.833,-565.0567C418.6024,-526.0278 450.6648,-438.1556 511,-394.5 516.2578,-390.6957 522.1064,-387.6165 528.2328,-385.1285"/>
<polygon fill="#191970" stroke="#191970" points="403.4624,-564.1134 404.0449,-574.6923 410.1866,-566.0592 403.4624,-564.1134"/>
</g>
<!-- Node260 -->
<g id="node28" class="node">
<title>Node260</title>
<g id="a_node28"><a xlink:href="class_uptane_1_1_target_hash_mismatch.html" target="_top" xlink:title="Uptane::TargetHashMismatch">
<polygon fill="#ffffff" stroke="#000000" points="522.5,-328 522.5,-347 682.5,-347 682.5,-328 522.5,-328"/>
<text text-anchor="middle" x="602.5" y="-335" font-family="Helvetica,sans-Serif" font-size="10.00" fill="#000000">Uptane::TargetHashMismatch</text>
</a>
</g>
</g>
<!-- Node243&#45;&gt;Node260 -->
<g id="edge27" class="edge">
<title>Node243&#45;&gt;Node260</title>
<path fill="none" stroke="#191970" d="M404.8692,-564.9604C413.6354,-520.3905 441.4958,-410.8784 511,-356.5 515.8557,-352.701 521.2859,-349.6112 527.0132,-347.1038"/>
<polygon fill="#191970" stroke="#191970" points="401.4231,-564.3484 403.0381,-574.8194 408.3054,-565.6267 401.4231,-564.3484"/>
</g>
<!-- Node261 -->
<g id="node29" class="node">
<title>Node261</title>
<g id="a_node29"><a xlink:href="class_uptane_1_1_target_mismatch.html" target="_top" xlink:title="Uptane::TargetMismatch">
<polygon fill="#ffffff" stroke="#000000" points="535,-290 535,-309 670,-309 670,-290 535,-290"/>
<text text-anchor="middle" x="602.5" y="-297" font-family="Helvetica,sans-Serif" font-size="10.00" fill="#000000">Uptane::TargetMismatch</text>
</a>
</g>
</g>
<!-- Node243&#45;&gt;Node261 -->
<g id="edge28" class="edge">
<title>Node243&#45;&gt;Node261</title>
<path fill="none" stroke="#191970" d="M403.4218,-564.8392C409.3819,-515.1542 432.1943,-383.8747 511,-318.5 517.8678,-312.8027 526.0081,-308.6764 534.557,-305.7092"/>
<polygon fill="#191970" stroke="#191970" points="399.9302,-564.5725 402.3173,-574.8948 406.8883,-565.3368 399.9302,-564.5725"/>
</g>
<!-- Node262 -->
<g id="node30" class="node">
<title>Node262</title>
<g id="a_node30"><a xlink:href="class_uptane_1_1_unmet_threshold.html" target="_top" xlink:title="Uptane::UnmetThreshold">
<polygon fill="#ffffff" stroke="#000000" points="533,-252 533,-271 672,-271 672,-252 533,-252"/>
<text text-anchor="middle" x="602.5" y="-259" font-family="Helvetica,sans-Serif" font-size="10.00" fill="#000000">Uptane::UnmetThreshold</text>
</a>
</g>
</g>
<!-- Node243&#45;&gt;Node262 -->
<g id="edge29" class="edge">
<title>Node243&#45;&gt;Node262</title>
<path fill="none" stroke="#191970" d="M402.3028,-564.6632C405.6388,-510.1528 422.8057,-357.0607 511,-280.5 517.371,-274.9694 524.929,-270.9017 532.929,-267.9307"/>
<polygon fill="#191970" stroke="#191970" points="398.8031,-564.5679 401.7803,-574.7359 405.7937,-564.9306 398.8031,-564.5679"/>
</g>
<!-- Node263 -->
<g id="node31" class="node">
<title>Node263</title>
<g id="a_node31"><a xlink:href="class_uptane_1_1_version_mismatch.html" target="_top" xlink:title="Uptane::VersionMismatch">
<polygon fill="#ffffff" stroke="#000000" points="532,-214 532,-233 673,-233 673,-214 532,-214"/>
<text text-anchor="middle" x="602.5" y="-221" font-family="Helvetica,sans-Serif" font-size="10.00" fill="#000000">Uptane::VersionMismatch</text>
</a>
</g>
</g>
<!-- Node243&#45;&gt;Node263 -->
<g id="edge30" class="edge">
<title>Node243&#45;&gt;Node263</title>
<path fill="none" stroke="#191970" d="M405.1002,-564.9323C417.595,-499.1292 461.0624,-287.4459 511,-242.5 517.0296,-237.0731 524.1943,-233.0413 531.8208,-230.0667"/>
<polygon fill="#191970" stroke="#191970" points="401.6477,-564.354 403.2474,-574.8274 408.5281,-565.6424 401.6477,-564.354"/>
</g>
<!-- Node265 -->
<g id="node33" class="node">
<title>Node265</title>
<g id="a_node33"><a xlink:href="class_bad_credentials_archive.html" target="_top" xlink:title="BadCredentialsArchive">
<polygon fill="#ffffff" stroke="#000000" points="337.5,-240 337.5,-259 465.5,-259 465.5,-240 337.5,-240"/>
<text text-anchor="middle" x="401.5" y="-247" font-family="Helvetica,sans-Serif" font-size="10.00" fill="#000000">BadCredentialsArchive</text>
</a>
</g>
</g>
<!-- Node264&#45;&gt;Node265 -->
<g id="edge32" class="edge">
<title>Node264&#45;&gt;Node265</title>
<path fill="none" stroke="#191970" d="M227.4049,-170.0891C250.6203,-187.1452 290.2244,-214.2208 328,-230.5 336.7147,-234.2556 346.3414,-237.4016 355.6777,-239.9838"/>
<polygon fill="#191970" stroke="#191970" points="229.4579,-167.254 219.3477,-164.0861 225.2757,-172.8674 229.4579,-167.254"/>
</g>
<!-- Node266 -->
<g id="node34" class="node">
<title>Node266</title>
<g id="a_node34"><a xlink:href="class_bad_credentials_content.html" target="_top" xlink:title="BadCredentialsContent">
<polygon fill="#ffffff" stroke="#000000" points="337,-202 337,-221 466,-221 466,-202 337,-202"/>
<text text-anchor="middle" x="401.5" y="-209" font-family="Helvetica,sans-Serif" font-size="10.00" fill="#000000">BadCredentialsContent</text>
</a>
</g>
</g>
<!-- Node264&#45;&gt;Node266 -->
<g id="edge33" class="edge">
<title>Node264&#45;&gt;Node266</title>
<path fill="none" stroke="#191970" d="M245.8777,-167.2674C269.5296,-174.8952 300.4005,-184.6045 328,-192.5 339.2777,-195.7262 351.5974,-199.0057 362.8716,-201.9114"/>
<polygon fill="#191970" stroke="#191970" points="246.8057,-163.889 236.2138,-164.1371 244.6486,-170.5483 246.8057,-163.889"/>
</g>
<!-- Node267 -->
<g id="node35" class="node">
<title>Node267</title>
<g id="a_node35"><a xlink:href="class_bad_credentials_json.html" target="_top" xlink:title="BadCredentialsJson">
<polygon fill="#ffffff" stroke="#000000" points="346,-164 346,-183 457,-183 457,-164 346,-164"/>
<text text-anchor="middle" x="401.5" y="-171" font-family="Helvetica,sans-Serif" font-size="10.00" fill="#000000">BadCredentialsJson</text>
</a>
</g>
</g>
<!-- Node264&#45;&gt;Node267 -->
<g id="edge34" class="edge">
<title>Node264&#45;&gt;Node267</title>
<path fill="none" stroke="#191970" d="M269.0896,-160.5653C293.7317,-162.9725 321.8542,-165.7197 345.8251,-168.0613"/>
<polygon fill="#191970" stroke="#191970" points="269.4154,-157.0806 259.1224,-159.5917 268.7347,-164.0474 269.4154,-157.0806"/>
</g>
<!-- Node268 -->
<g id="node36" class="node">
<title>Node268</title>
<g id="a_node36"><a xlink:href="class_initializer_1_1_error.html" target="_top" xlink:title="Initializer::Error">
<polygon fill="#ffffff" stroke="#000000" points="355.5,-126 355.5,-145 447.5,-145 447.5,-126 355.5,-126"/>
<text text-anchor="middle" x="401.5" y="-133" font-family="Helvetica,sans-Serif" font-size="10.00" fill="#000000">Initializer::Error</text>
</a>
</g>
</g>
<!-- Node264&#45;&gt;Node268 -->
<g id="edge35" class="edge">
<title>Node264&#45;&gt;Node268</title>
<path fill="none" stroke="#191970" d="M269.1863,-148.4252C297.1049,-145.698 329.475,-142.5359 355.2097,-140.0219"/>
<polygon fill="#191970" stroke="#191970" points="268.7347,-144.9526 259.1224,-149.4083 269.4154,-151.9194 268.7347,-144.9526"/>
</g>
<!-- Node273 -->
<g id="node41" class="node">
<title>Node273</title>
<g id="a_node41"><a xlink:href="class_s_q_l_exception.html" target="_top" xlink:title="SQLException">
<polygon fill="#ffffff" stroke="#000000" points="360,-88 360,-107 443,-107 443,-88 360,-88"/>
<text text-anchor="middle" x="401.5" y="-95" font-family="Helvetica,sans-Serif" font-size="10.00" fill="#000000">SQLException</text>
</a>
</g>
</g>
<!-- Node264&#45;&gt;Node273 -->
<g id="edge40" class="edge">
<title>Node264&#45;&gt;Node273</title>
<path fill="none" stroke="#191970" d="M245.8777,-141.7326C269.5296,-134.1048 300.4005,-124.3955 328,-116.5 339.2777,-113.2738 351.5974,-109.9943 362.8716,-107.0886"/>
<polygon fill="#191970" stroke="#191970" points="244.6486,-138.4517 236.2138,-144.8629 246.8057,-145.111 244.6486,-138.4517"/>
</g>
<!-- Node274 -->
<g id="node42" class="node">
<title>Node274</title>
<g id="a_node42"><a xlink:href="class_storage_exception.html" target="_top" xlink:title="StorageException">
<polygon fill="#ffffff" stroke="#000000" points="350.5,-50 350.5,-69 452.5,-69 452.5,-50 350.5,-50"/>
<text text-anchor="middle" x="401.5" y="-57" font-family="Helvetica,sans-Serif" font-size="10.00" fill="#000000">StorageException</text>
</a>
</g>
</g>
<!-- Node264&#45;&gt;Node274 -->
<g id="edge41" class="edge">
<title>Node264&#45;&gt;Node274</title>
<path fill="none" stroke="#191970" d="M227.4049,-138.9109C250.6203,-121.8548 290.2244,-94.7792 328,-78.5 336.7147,-74.7444 346.3414,-71.5984 355.6777,-69.0162"/>
<polygon fill="#191970" stroke="#191970" points="225.2757,-136.1326 219.3477,-144.9139 229.4579,-141.746 225.2757,-136.1326"/>
</g>
<!-- Node275 -->
<g id="node43" class="node">
<title>Node275</title>
<g id="a_node43"><a xlink:href="class_storage_lock_1_1locked__exception.html" target="_top" xlink:title="StorageLock::locked\l_exception">
<polygon fill="#ffffff" stroke="#000000" points="344,-.5 344,-30.5 459,-30.5 459,-.5 344,-.5"/>
<text text-anchor="start" x="352" y="-18.5" font-family="Helvetica,sans-Serif" font-size="10.00" fill="#000000">StorageLock::locked</text>
<text text-anchor="middle" x="401.5" y="-7.5" font-family="Helvetica,sans-Serif" font-size="10.00" fill="#000000">_exception</text>
</a>
</g>
</g>
<!-- Node264&#45;&gt;Node275 -->
<g id="edge42" class="edge">
<title>Node264&#45;&gt;Node275</title>
<path fill="none" stroke="#8b1a1a" d="M221.2742,-136.9548C242.2575,-112.2129 283.758,-67.1247 328,-40.5 334.2362,-36.7471 341.1118,-33.4651 348.0796,-30.6223"/>
<polygon fill="#8b1a1a" stroke="#8b1a1a" points="218.4534,-134.8725 214.737,-144.7941 223.8295,-139.3556 218.4534,-134.8725"/>
</g>
<!-- Node269 -->
<g id="node37" class="node">
<title>Node269</title>
<g id="a_node37"><a xlink:href="class_initializer_1_1_key_generation_error.html" target="_top" xlink:title="Initializer::KeyGeneration\lError">
<polygon fill="#ffffff" stroke="#000000" points="532.5,-164.5 532.5,-194.5 672.5,-194.5 672.5,-164.5 532.5,-164.5"/>
<text text-anchor="start" x="540.5" y="-182.5" font-family="Helvetica,sans-Serif" font-size="10.00" fill="#000000">Initializer::KeyGeneration</text>
<text text-anchor="middle" x="602.5" y="-171.5" font-family="Helvetica,sans-Serif" font-size="10.00" fill="#000000">Error</text>
</a>
</g>
</g>
<!-- Node268&#45;&gt;Node269 -->
<g id="edge36" class="edge">
<title>Node268&#45;&gt;Node269</title>
<path fill="none" stroke="#191970" d="M455.1415,-147.2424C479.2538,-152.5207 508.0027,-158.814 533.6787,-164.4346"/>
<polygon fill="#191970" stroke="#191970" points="455.6312,-143.7668 445.114,-145.0473 454.1342,-150.6049 455.6312,-143.7668"/>
</g>
<!-- Node270 -->
<g id="node38" class="node">
<title>Node270</title>
<g id="a_node38"><a xlink:href="class_initializer_1_1_server_error.html" target="_top" xlink:title="Initializer::ServerError">
<polygon fill="#ffffff" stroke="#000000" points="541,-126 541,-145 664,-145 664,-126 541,-126"/>
<text text-anchor="middle" x="602.5" y="-133" font-family="Helvetica,sans-Serif" font-size="10.00" fill="#000000">Initializer::ServerError</text>
</a>
</g>
</g>
<!-- Node268&#45;&gt;Node270 -->
<g id="edge37" class="edge">
<title>Node268&#45;&gt;Node270</title>
<path fill="none" stroke="#191970" d="M457.6554,-135.5C483.5797,-135.5 514.428,-135.5 540.9804,-135.5"/>
<polygon fill="#191970" stroke="#191970" points="457.6135,-132.0001 447.6135,-135.5 457.6134,-139.0001 457.6135,-132.0001"/>
</g>
<!-- Node271 -->
<g id="node39" class="node">
<title>Node271</title>
<g id="a_node39"><a xlink:href="class_initializer_1_1_server_occupied.html" target="_top" xlink:title="Initializer::ServerOccupied">
<polygon fill="#ffffff" stroke="#000000" points="530,-88 530,-107 675,-107 675,-88 530,-88"/>
<text text-anchor="middle" x="602.5" y="-95" font-family="Helvetica,sans-Serif" font-size="10.00" fill="#000000">Initializer::ServerOccupied</text>
</a>
</g>
</g>
<!-- Node268&#45;&gt;Node271 -->
<g id="edge38" class="edge">
<title>Node268&#45;&gt;Node271</title>
<path fill="none" stroke="#191970" d="M457.7894,-124.8582C487.3743,-119.2651 523.3432,-112.465 552.0194,-107.0436"/>
<polygon fill="#191970" stroke="#191970" points="456.7892,-121.4852 447.6135,-126.782 458.0896,-128.3634 456.7892,-121.4852"/>
</g>
<!-- Node272 -->
<g id="node40" class="node">
<title>Node272</title>
<g id="a_node40"><a xlink:href="class_initializer_1_1_storage_error.html" target="_top" xlink:title="Initializer::StorageError">
<polygon fill="#ffffff" stroke="#000000" points="538,-50 538,-69 667,-69 667,-50 538,-50"/>
<text text-anchor="middle" x="602.5" y="-57" font-family="Helvetica,sans-Serif" font-size="10.00" fill="#000000">Initializer::StorageError</text>
</a>
</g>
</g>
<!-- Node268&#45;&gt;Node272 -->
<g id="edge39" class="edge">
<title>Node268&#45;&gt;Node272</title>
<path fill="none" stroke="#191970" d="M457.4599,-124.6033C463.5835,-122.3784 469.5609,-119.7066 475,-116.5 495.041,-104.685 490.68,-89.8283 511,-78.5 519.2191,-73.9179 528.4107,-70.4368 537.7122,-67.7929"/>
<polygon fill="#191970" stroke="#191970" points="456.2057,-121.3305 447.7729,-127.7444 458.3649,-127.9892 456.2057,-121.3305"/>
</g>
</g>
</svg>
