<?xml version="1.0" encoding="UTF-8" standalone="no"?>
<!DOCTYPE svg PUBLIC "-//W3C//DTD SVG 1.1//EN"
 "http://www.w3.org/Graphics/SVG/1.1/DTD/svg11.dtd">
<!-- Generated by graphviz version 2.43.0 (0)
 -->
<!-- Title: include/libaktualizr/results.h Pages: 1 -->
<svg width="676pt" height="151pt"
 viewBox="0.00 0.00 675.50 151.00" xmlns="http://www.w3.org/2000/svg" xmlns:xlink="http://www.w3.org/1999/xlink">
<g id="graph0" class="graph" transform="scale(1 1) rotate(0) translate(4 147)">
<title>include/libaktualizr/results.h</title>
<polygon fill="white" stroke="transparent" points="-4,4 -4,-147 671.5,-147 671.5,4 -4,4"/>
<!-- Node1 -->
<g id="node1" class="node">
<title>Node1</title>
<g id="a_node1"><a xlink:title=" ">
<polygon fill="#bfbfbf" stroke="black" points="52,-112.5 52,-142.5 162,-142.5 162,-112.5 52,-112.5"/>
<text text-anchor="start" x="60" y="-130.5" font-family="Helvetica,sans-Serif" font-size="10.00">include/libaktualizr</text>
<text text-anchor="middle" x="107" y="-119.5" font-family="Helvetica,sans-Serif" font-size="10.00">/results.h</text>
</a>
</g>
</g>
<!-- Node2 -->
<g id="node2" class="node">
<title>Node2</title>
<g id="a_node2"><a xlink:title=" ">
<polygon fill="white" stroke="#bfbfbf" points="0,-0.5 0,-19.5 44,-19.5 44,-0.5 0,-0.5"/>
<text text-anchor="middle" x="22" y="-7.5" font-family="Helvetica,sans-Serif" font-size="10.00">string</text>
</a>
</g>
</g>
<!-- Node1&#45;&gt;Node2 -->
<g id="edge1" class="edge">
<title>Node1&#45;&gt;Node2</title>
<path fill="none" stroke="midnightblue" d="M96.58,-112.34C80.84,-90.96 51.09,-50.53 34.31,-27.73"/>
<polygon fill="midnightblue" stroke="midnightblue" points="37.13,-25.65 28.38,-19.67 31.49,-29.8 37.13,-25.65"/>
</g>
<!-- Node3 -->
<g id="node3" class="node">
<title>Node3</title>
<g id="a_node3"><a xlink:title=" ">
<polygon fill="white" stroke="#bfbfbf" points="62.5,-0.5 62.5,-19.5 109.5,-19.5 109.5,-0.5 62.5,-0.5"/>
<text text-anchor="middle" x="86" y="-7.5" font-family="Helvetica,sans-Serif" font-size="10.00">vector</text>
</a>
</g>
</g>
<!-- Node1&#45;&gt;Node3 -->
<g id="edge2" class="edge">
<title>Node1&#45;&gt;Node3</title>
<path fill="none" stroke="midnightblue" d="M96.56,-112.31C90.1,-102.63 82.41,-89.2 79,-76 75,-60.55 77.51,-42.46 80.58,-29.29"/>
<polygon fill="midnightblue" stroke="midnightblue" points="83.98,-30.12 83.16,-19.56 77.22,-28.32 83.98,-30.12"/>
</g>
<!-- Node4 -->
<g id="node4" class="node">
<title>Node4</title>
<g id="a_node4"><a xlink:href="campaign_8h_source.html" target="_top" xlink:title=" ">
<polygon fill="white" stroke="black" points="88.5,-56.5 88.5,-75.5 219.5,-75.5 219.5,-56.5 88.5,-56.5"/>
<text text-anchor="middle" x="154" y="-63.5" font-family="Helvetica,sans-Serif" font-size="10.00">libaktualizr/campaign.h</text>
</a>
</g>
</g>
<!-- Node1&#45;&gt;Node4 -->
<g id="edge3" class="edge">
<title>Node1&#45;&gt;Node4</title>
<path fill="none" stroke="midnightblue" d="M118.14,-112.4C124.97,-103.75 133.74,-92.64 140.91,-83.58"/>
<polygon fill="midnightblue" stroke="midnightblue" points="143.71,-85.67 147.16,-75.66 138.22,-81.34 143.71,-85.67"/>
</g>
<!-- Node7 -->
<g id="node7" class="node">
<title>Node7</title>
<g id="a_node7"><a xlink:href="types_8h.html" target="_top" xlink:title=" ">
<polygon fill="white" stroke="black" points="290,-56.5 290,-75.5 400,-75.5 400,-56.5 290,-56.5"/>
<text text-anchor="middle" x="345" y="-63.5" font-family="Helvetica,sans-Serif" font-size="10.00">libaktualizr/types.h</text>
</a>
</g>
</g>
<!-- Node1&#45;&gt;Node7 -->
<g id="edge8" class="edge">
<title>Node1&#45;&gt;Node7</title>
<path fill="none" stroke="midnightblue" d="M162.2,-112.7C204.39,-102.15 261.78,-87.81 300.92,-78.02"/>
<polygon fill="midnightblue" stroke="midnightblue" points="301.86,-81.39 310.71,-75.57 300.16,-74.6 301.86,-81.39"/>
</g>
<!-- Node4&#45;&gt;Node2 -->
<g id="edge5" class="edge">
<title>Node4&#45;&gt;Node2</title>
<path fill="none" stroke="midnightblue" d="M133.08,-56.44C111.26,-47.52 76.85,-33.44 52.11,-23.32"/>
<polygon fill="midnightblue" stroke="midnightblue" points="53.4,-20.06 42.82,-19.52 50.75,-26.54 53.4,-20.06"/>
</g>
<!-- Node4&#45;&gt;Node3 -->
<g id="edge6" class="edge">
<title>Node4&#45;&gt;Node3</title>
<path fill="none" stroke="midnightblue" d="M143.07,-56.32C132.83,-48.18 117.28,-35.84 105,-26.09"/>
<polygon fill="midnightblue" stroke="midnightblue" points="107.13,-23.31 97.12,-19.83 102.78,-28.79 107.13,-23.31"/>
</g>
<!-- Node5 -->
<g id="node5" class="node">
<title>Node5</title>
<g id="a_node5"><a xlink:title=" ">
<polygon fill="white" stroke="#bfbfbf" points="128,-0.5 128,-19.5 166,-19.5 166,-0.5 128,-0.5"/>
<text text-anchor="middle" x="147" y="-7.5" font-family="Helvetica,sans-Serif" font-size="10.00">map</text>
</a>
</g>
</g>
<!-- Node4&#45;&gt;Node5 -->
<g id="edge4" class="edge">
<title>Node4&#45;&gt;Node5</title>
<path fill="none" stroke="midnightblue" d="M152.84,-56.08C151.92,-48.93 150.58,-38.64 149.42,-29.69"/>
<polygon fill="midnightblue" stroke="midnightblue" points="152.89,-29.22 148.13,-19.75 145.95,-30.12 152.89,-29.22"/>
</g>
<!-- Node6 -->
<g id="node6" class="node">
<title>Node6</title>
<g id="a_node6"><a xlink:title=" ">
<polygon fill="white" stroke="#bfbfbf" points="184.5,-0.5 184.5,-19.5 253.5,-19.5 253.5,-0.5 184.5,-0.5"/>
<text text-anchor="middle" x="219" y="-7.5" font-family="Helvetica,sans-Serif" font-size="10.00">json/json.h</text>
</a>
</g>
</g>
<!-- Node4&#45;&gt;Node6 -->
<g id="edge7" class="edge">
<title>Node4&#45;&gt;Node6</title>
<path fill="none" stroke="midnightblue" d="M164.44,-56.32C174.15,-48.26 188.82,-36.08 200.5,-26.37"/>
<polygon fill="midnightblue" stroke="midnightblue" points="202.91,-28.92 208.37,-19.83 198.44,-23.53 202.91,-28.92"/>
</g>
<!-- Node7&#45;&gt;Node6 -->
<g id="edge13" class="edge">
<title>Node7&#45;&gt;Node6</title>
<path fill="none" stroke="midnightblue" d="M325.03,-56.44C304.39,-47.6 271.94,-33.69 248.37,-23.59"/>
<polygon fill="midnightblue" stroke="midnightblue" points="249.44,-20.24 238.87,-19.52 246.68,-26.67 249.44,-20.24"/>
</g>
<!-- Node8 -->
<g id="node8" class="node">
<title>Node8</title>
<g id="a_node8"><a xlink:title=" ">
<polygon fill="white" stroke="#bfbfbf" points="272,-0.5 272,-19.5 336,-19.5 336,-0.5 272,-0.5"/>
<text text-anchor="middle" x="304" y="-7.5" font-family="Helvetica,sans-Serif" font-size="10.00">algorithm</text>
</a>
</g>
</g>
<!-- Node7&#45;&gt;Node8 -->
<g id="edge9" class="edge">
<title>Node7&#45;&gt;Node8</title>
<path fill="none" stroke="midnightblue" d="M338.23,-56.08C332.44,-48.46 323.94,-37.26 316.86,-27.94"/>
<polygon fill="midnightblue" stroke="midnightblue" points="319.48,-25.6 310.64,-19.75 313.9,-29.83 319.48,-25.6"/>
</g>
<!-- Node9 -->
<g id="node9" class="node">
<title>Node9</title>
<g id="a_node9"><a xlink:title=" ">
<polygon fill="white" stroke="#bfbfbf" points="354.5,-0.5 354.5,-19.5 419.5,-19.5 419.5,-0.5 354.5,-0.5"/>
<text text-anchor="middle" x="387" y="-7.5" font-family="Helvetica,sans-Serif" font-size="10.00">stdexcept</text>
</a>
</g>
</g>
<!-- Node7&#45;&gt;Node9 -->
<g id="edge10" class="edge">
<title>Node7&#45;&gt;Node9</title>
<path fill="none" stroke="midnightblue" d="M351.94,-56.08C357.93,-48.38 366.75,-37.03 374.05,-27.65"/>
<polygon fill="midnightblue" stroke="midnightblue" points="376.82,-29.79 380.19,-19.75 371.29,-25.5 376.82,-29.79"/>
</g>
<!-- Node10 -->
<g id="node10" class="node">
<title>Node10</title>
<g id="a_node10"><a xlink:title=" ">
<polygon fill="white" stroke="#bfbfbf" points="437.5,-0.5 437.5,-19.5 530.5,-19.5 530.5,-0.5 437.5,-0.5"/>
<text text-anchor="middle" x="484" y="-7.5" font-family="Helvetica,sans-Serif" font-size="10.00">unordered_map</text>
</a>
</g>
</g>
<!-- Node7&#45;&gt;Node10 -->
<g id="edge11" class="edge">
<title>Node7&#45;&gt;Node10</title>
<path fill="none" stroke="midnightblue" d="M367.02,-56.44C390.1,-47.48 426.56,-33.31 452.64,-23.18"/>
<polygon fill="midnightblue" stroke="midnightblue" points="454.02,-26.4 462.08,-19.52 451.49,-19.88 454.02,-26.4"/>
</g>
<!-- Node11 -->
<g id="node11" class="node">
<title>Node11</title>
<g id="a_node11"><a xlink:title=" ">
<polygon fill="white" stroke="#bfbfbf" points="548.5,-0.5 548.5,-19.5 667.5,-19.5 667.5,-0.5 548.5,-0.5"/>
<text text-anchor="middle" x="608" y="-7.5" font-family="Helvetica,sans-Serif" font-size="10.00">boost/filesystem.hpp</text>
</a>
</g>
</g>
<!-- Node7&#45;&gt;Node11 -->
<g id="edge12" class="edge">
<title>Node7&#45;&gt;Node11</title>
<path fill="none" stroke="midnightblue" d="M386.67,-56.44C432.75,-46.98 507,-31.74 556.63,-21.55"/>
<polygon fill="midnightblue" stroke="midnightblue" points="557.43,-24.96 566.52,-19.52 556.02,-18.1 557.43,-24.96"/>
</g>
</g>
</svg>
