<?xml version="1.0" encoding="UTF-8" standalone="no"?>
<!DOCTYPE svg PUBLIC "-//W3C//DTD SVG 1.1//EN"
 "http://www.w3.org/Graphics/SVG/1.1/DTD/svg11.dtd">
<!-- Generated by graphviz version 2.43.0 (0)
 -->
<!-- Title: src/libaktualizr/primary/results.h Pages: 1 -->
<svg width="2833pt" height="396pt"
 viewBox="0.00 0.00 2832.50 396.00" xmlns="http://www.w3.org/2000/svg" xmlns:xlink="http://www.w3.org/1999/xlink">
<g id="graph0" class="graph" transform="scale(1 1) rotate(0) translate(4 392)">
<title>src/libaktualizr/primary/results.h</title>
<polygon fill="white" stroke="transparent" points="-4,4 -4,-392 2828.5,-392 2828.5,4 -4,4"/>
<!-- Node1 -->
<g id="node1" class="node">
<title>Node1</title>
<g id="a_node1"><a xlink:title=" ">
<polygon fill="#bfbfbf" stroke="black" points="1260,-357.5 1260,-387.5 1390,-387.5 1390,-357.5 1260,-357.5"/>
<text text-anchor="start" x="1268" y="-375.5" font-family="Helvetica,sans-Serif" font-size="10.00">src/libaktualizr/primary</text>
<text text-anchor="middle" x="1325" y="-364.5" font-family="Helvetica,sans-Serif" font-size="10.00">/results.h</text>
</a>
</g>
</g>
<!-- Node2 -->
<g id="node2" class="node">
<title>Node2</title>
<g id="a_node2"><a xlink:href="sotauptaneclient_8h_source.html" target="_top" xlink:title=" ">
<polygon fill="white" stroke="black" points="1881,-223.5 1881,-253.5 2011,-253.5 2011,-223.5 1881,-223.5"/>
<text text-anchor="start" x="1889" y="-241.5" font-family="Helvetica,sans-Serif" font-size="10.00">src/libaktualizr/primary</text>
<text text-anchor="middle" x="1946" y="-230.5" font-family="Helvetica,sans-Serif" font-size="10.00">/sotauptaneclient.h</text>
</a>
</g>
</g>
<!-- Node1&#45;&gt;Node2 -->
<g id="edge1" class="edge">
<title>Node1&#45;&gt;Node2</title>
<path fill="none" stroke="midnightblue" d="M1400.36,-355.48C1523.22,-329.37 1764.61,-278.06 1880.66,-253.39"/>
<polygon fill="midnightblue" stroke="midnightblue" points="1399.34,-352.12 1390.28,-357.62 1400.79,-358.97 1399.34,-352.12"/>
</g>
<!-- Node38 -->
<g id="node38" class="node">
<title>Node38</title>
<g id="a_node38"><a xlink:href="events_8h.html" target="_top" xlink:title=" ">
<polygon fill="white" stroke="black" points="1214,-290.5 1214,-320.5 1344,-320.5 1344,-290.5 1214,-290.5"/>
<text text-anchor="start" x="1222" y="-308.5" font-family="Helvetica,sans-Serif" font-size="10.00">src/libaktualizr/primary</text>
<text text-anchor="middle" x="1279" y="-297.5" font-family="Helvetica,sans-Serif" font-size="10.00">/events.h</text>
</a>
</g>
</g>
<!-- Node1&#45;&gt;Node38 -->
<g id="edge60" class="edge">
<title>Node1&#45;&gt;Node38</title>
<path fill="none" stroke="midnightblue" d="M1309.19,-349.16C1302.48,-339.68 1294.87,-328.92 1288.96,-320.58"/>
<polygon fill="midnightblue" stroke="midnightblue" points="1306.38,-351.26 1315.02,-357.4 1312.1,-347.21 1306.38,-351.26"/>
</g>
<!-- Node3 -->
<g id="node3" class="node">
<title>Node3</title>
<g id="a_node3"><a xlink:href="helpers_8h_source.html" target="_top" xlink:title=" ">
<polygon fill="white" stroke="black" points="1955,-151 1955,-181 2053,-181 2053,-151 1955,-151"/>
<text text-anchor="start" x="1963" y="-169" font-family="Helvetica,sans-Serif" font-size="10.00">src/aktualizr_lite</text>
<text text-anchor="middle" x="2004" y="-158" font-family="Helvetica,sans-Serif" font-size="10.00">/helpers.h</text>
</a>
</g>
</g>
<!-- Node2&#45;&gt;Node3 -->
<g id="edge2" class="edge">
<title>Node2&#45;&gt;Node3</title>
<path fill="none" stroke="midnightblue" d="M1964.34,-215.21C1973.48,-204.1 1984.27,-190.99 1992.28,-181.25"/>
<polygon fill="midnightblue" stroke="midnightblue" points="1961.39,-213.29 1957.74,-223.23 1966.79,-217.73 1961.39,-213.29"/>
</g>
<!-- Node7 -->
<g id="node7" class="node">
<title>Node7</title>
<g id="a_node7"><a xlink:href="dockerappmanager__test_8cc_source.html" target="_top" xlink:title=" ">
<polygon fill="white" stroke="black" points="1662.5,-145.5 1662.5,-186.5 1825.5,-186.5 1825.5,-145.5 1662.5,-145.5"/>
<text text-anchor="start" x="1670.5" y="-174.5" font-family="Helvetica,sans-Serif" font-size="10.00">src/libaktualizr/package</text>
<text text-anchor="start" x="1670.5" y="-163.5" font-family="Helvetica,sans-Serif" font-size="10.00">_manager/dockerappmanager</text>
<text text-anchor="middle" x="1744" y="-152.5" font-family="Helvetica,sans-Serif" font-size="10.00">_test.cc</text>
</a>
</g>
</g>
<!-- Node2&#45;&gt;Node7 -->
<g id="edge6" class="edge">
<title>Node2&#45;&gt;Node7</title>
<path fill="none" stroke="midnightblue" d="M1896.05,-220.07C1866.92,-209.9 1830.11,-197.05 1800.01,-186.55"/>
<polygon fill="midnightblue" stroke="midnightblue" points="1895.01,-223.41 1905.61,-223.4 1897.32,-216.8 1895.01,-223.41"/>
</g>
<!-- Node8 -->
<g id="node8" class="node">
<title>Node8</title>
<g id="a_node8"><a xlink:href="aktualizr_8h_source.html" target="_top" xlink:title=" ">
<polygon fill="white" stroke="black" points="1122,-151 1122,-181 1252,-181 1252,-151 1122,-151"/>
<text text-anchor="start" x="1130" y="-169" font-family="Helvetica,sans-Serif" font-size="10.00">src/libaktualizr/primary</text>
<text text-anchor="middle" x="1187" y="-158" font-family="Helvetica,sans-Serif" font-size="10.00">/aktualizr.h</text>
</a>
</g>
</g>
<!-- Node2&#45;&gt;Node8 -->
<g id="edge7" class="edge">
<title>Node2&#45;&gt;Node8</title>
<path fill="none" stroke="midnightblue" d="M1871,-230.53C1722.26,-216.72 1392.2,-186.06 1252.01,-173.04"/>
<polygon fill="midnightblue" stroke="midnightblue" points="1870.68,-234.02 1880.96,-231.46 1871.33,-227.05 1870.68,-234.02"/>
</g>
<!-- Node17 -->
<g id="node17" class="node">
<title>Node17</title>
<g id="a_node17"><a xlink:href="aktualizr__test_8cc_source.html" target="_top" xlink:title=" ">
<polygon fill="white" stroke="black" points="0,-6 0,-36 130,-36 130,-6 0,-6"/>
<text text-anchor="start" x="8" y="-24" font-family="Helvetica,sans-Serif" font-size="10.00">src/libaktualizr/primary</text>
<text text-anchor="middle" x="65" y="-13" font-family="Helvetica,sans-Serif" font-size="10.00">/aktualizr_test.cc</text>
</a>
</g>
</g>
<!-- Node2&#45;&gt;Node17 -->
<g id="edge47" class="edge">
<title>Node2&#45;&gt;Node17</title>
<path fill="none" stroke="midnightblue" d="M1870.69,-234.59C1554.05,-221.99 339.58,-170.08 180,-109 137.91,-92.89 98.16,-56.42 78.26,-36.19"/>
<polygon fill="midnightblue" stroke="midnightblue" points="1870.56,-238.08 1880.69,-234.98 1870.84,-231.09 1870.56,-238.08"/>
</g>
<!-- Node25 -->
<g id="node25" class="node">
<title>Node25</title>
<g id="a_node25"><a xlink:href="load__tests_2check_8cc_source.html" target="_top" xlink:title=" ">
<polygon fill="white" stroke="black" points="1729.5,-84 1729.5,-103 1858.5,-103 1858.5,-84 1729.5,-84"/>
<text text-anchor="middle" x="1794" y="-91" font-family="Helvetica,sans-Serif" font-size="10.00">src/load_tests/check.cc</text>
</a>
</g>
</g>
<!-- Node2&#45;&gt;Node25 -->
<g id="edge56" class="edge">
<title>Node2&#45;&gt;Node25</title>
<path fill="none" stroke="midnightblue" d="M1916.74,-217.68C1904.36,-208.81 1890.04,-197.91 1878,-187 1846.81,-158.74 1814.65,-120.19 1800.91,-103.18"/>
<polygon fill="midnightblue" stroke="midnightblue" points="1914.76,-220.57 1924.95,-223.47 1918.8,-214.84 1914.76,-220.57"/>
</g>
<!-- Node26 -->
<g id="node26" class="node">
<title>Node26</title>
<g id="a_node26"><a xlink:href="provision_8cc_source.html" target="_top" xlink:title=" ">
<polygon fill="white" stroke="black" points="1565,-84 1565,-103 1711,-103 1711,-84 1565,-84"/>
<text text-anchor="middle" x="1638" y="-91" font-family="Helvetica,sans-Serif" font-size="10.00">src/load_tests/provision.cc</text>
</a>
</g>
</g>
<!-- Node2&#45;&gt;Node26 -->
<g id="edge57" class="edge">
<title>Node2&#45;&gt;Node26</title>
<path fill="none" stroke="midnightblue" d="M1870.73,-234.24C1794.18,-229.29 1682.72,-217.01 1653,-187 1630.34,-164.11 1633.76,-121.29 1636.47,-103.07"/>
<polygon fill="midnightblue" stroke="midnightblue" points="1870.62,-237.74 1880.82,-234.87 1871.05,-230.76 1870.62,-237.74"/>
</g>
<!-- Node28 -->
<g id="node28" class="node">
<title>Node28</title>
<g id="a_node28"><a xlink:href="uptane__test__common_8h_source.html" target="_top" xlink:title=" ">
<polygon fill="white" stroke="black" points="1313,-84 1313,-103 1471,-103 1471,-84 1313,-84"/>
<text text-anchor="middle" x="1392" y="-91" font-family="Helvetica,sans-Serif" font-size="10.00">tests/uptane_test_common.h</text>
</a>
</g>
</g>
<!-- Node2&#45;&gt;Node28 -->
<g id="edge58" class="edge">
<title>Node2&#45;&gt;Node28</title>
<path fill="none" stroke="midnightblue" d="M1870.78,-229.87C1806.59,-222.29 1712.2,-208.65 1632,-187 1546.64,-163.96 1449.75,-121.22 1410.23,-103.04"/>
<polygon fill="midnightblue" stroke="midnightblue" points="1870.48,-233.35 1880.82,-231.03 1871.29,-226.4 1870.48,-233.35"/>
</g>
<!-- Node29 -->
<g id="node29" class="node">
<title>Node29</title>
<g id="a_node29"><a xlink:href="uptane__key__test_8cc_source.html" target="_top" xlink:title=" ">
<polygon fill="white" stroke="black" points="2646,-6 2646,-36 2776,-36 2776,-6 2646,-6"/>
<text text-anchor="start" x="2654" y="-24" font-family="Helvetica,sans-Serif" font-size="10.00">src/libaktualizr/primary</text>
<text text-anchor="middle" x="2711" y="-13" font-family="Helvetica,sans-Serif" font-size="10.00">/uptane_key_test.cc</text>
</a>
</g>
</g>
<!-- Node2&#45;&gt;Node29 -->
<g id="edge51" class="edge">
<title>Node2&#45;&gt;Node29</title>
<path fill="none" stroke="midnightblue" d="M2021.51,-238.25C2103.48,-236.74 2236.98,-227.38 2344,-187 2375.14,-175.25 2376.62,-160.65 2406,-145 2495.57,-97.29 2607.8,-56.54 2668.04,-36.08"/>
<polygon fill="midnightblue" stroke="midnightblue" points="2021.23,-234.76 2011.29,-238.41 2021.34,-241.76 2021.23,-234.76"/>
</g>
<!-- Node30 -->
<g id="node30" class="node">
<title>Node30</title>
<g id="a_node30"><a xlink:href="uptane__ci__test_8cc_source.html" target="_top" xlink:title=" ">
<polygon fill="white" stroke="black" points="2061.5,-6 2061.5,-36 2186.5,-36 2186.5,-6 2061.5,-6"/>
<text text-anchor="start" x="2069.5" y="-24" font-family="Helvetica,sans-Serif" font-size="10.00">src/libaktualizr/uptane</text>
<text text-anchor="middle" x="2124" y="-13" font-family="Helvetica,sans-Serif" font-size="10.00">/uptane_ci_test.cc</text>
</a>
</g>
</g>
<!-- Node2&#45;&gt;Node30 -->
<g id="edge52" class="edge">
<title>Node2&#45;&gt;Node30</title>
<path fill="none" stroke="midnightblue" d="M1929.49,-214.91C1907.3,-181.54 1874.1,-118.65 1906,-78 1947.52,-25.08 1987.95,-59.12 2053,-42 2060.06,-40.14 2067.49,-38.12 2074.79,-36.1"/>
<polygon fill="midnightblue" stroke="midnightblue" points="1926.85,-217.24 1935.4,-223.5 1932.61,-213.27 1926.85,-217.24"/>
</g>
<!-- Node31 -->
<g id="node31" class="node">
<title>Node31</title>
<g id="a_node31"><a xlink:href="uptane__network__test_8cc.html" target="_top" xlink:title=" ">
<polygon fill="white" stroke="black" points="2205,-6 2205,-36 2341,-36 2341,-6 2205,-6"/>
<text text-anchor="start" x="2213" y="-24" font-family="Helvetica,sans-Serif" font-size="10.00">src/libaktualizr/uptane</text>
<text text-anchor="middle" x="2273" y="-13" font-family="Helvetica,sans-Serif" font-size="10.00">/uptane_network_test.cc</text>
</a>
</g>
</g>
<!-- Node2&#45;&gt;Node31 -->
<g id="edge53" class="edge">
<title>Node2&#45;&gt;Node31</title>
<path fill="none" stroke="midnightblue" d="M1990.95,-219.61C2012.73,-210.52 2039.07,-198.9 2062,-187 2093.87,-170.46 2098.16,-159.5 2131,-145 2183.11,-121.99 2215.15,-150.66 2254,-109 2272.66,-88.99 2274.6,-55.06 2274.02,-36.02"/>
<polygon fill="midnightblue" stroke="midnightblue" points="1989.51,-216.42 1981.61,-223.47 1992.19,-222.89 1989.51,-216.42"/>
</g>
<!-- Node32 -->
<g id="node32" class="node">
<title>Node32</title>
<g id="a_node32"><a xlink:href="uptane__serial__test_8cc_source.html" target="_top" xlink:title=" ">
<polygon fill="white" stroke="black" points="2359.5,-6 2359.5,-36 2484.5,-36 2484.5,-6 2359.5,-6"/>
<text text-anchor="start" x="2367.5" y="-24" font-family="Helvetica,sans-Serif" font-size="10.00">src/libaktualizr/uptane</text>
<text text-anchor="middle" x="2422" y="-13" font-family="Helvetica,sans-Serif" font-size="10.00">/uptane_serial_test.cc</text>
</a>
</g>
</g>
<!-- Node2&#45;&gt;Node32 -->
<g id="edge54" class="edge">
<title>Node2&#45;&gt;Node32</title>
<path fill="none" stroke="midnightblue" d="M2021.41,-235.17C2110.35,-230.96 2251.28,-219.26 2292,-187 2332.82,-154.66 2301.96,-118.25 2335,-78 2349.93,-59.81 2372.36,-45.57 2390.71,-36.01"/>
<polygon fill="midnightblue" stroke="midnightblue" points="2021.2,-231.67 2011.37,-235.62 2021.51,-238.66 2021.2,-231.67"/>
</g>
<!-- Node33 -->
<g id="node33" class="node">
<title>Node33</title>
<g id="a_node33"><a xlink:href="uptane__test_8cc_source.html" target="_top" xlink:title=" ">
<polygon fill="white" stroke="black" points="2502.5,-6 2502.5,-36 2627.5,-36 2627.5,-6 2502.5,-6"/>
<text text-anchor="start" x="2510.5" y="-24" font-family="Helvetica,sans-Serif" font-size="10.00">src/libaktualizr/uptane</text>
<text text-anchor="middle" x="2565" y="-13" font-family="Helvetica,sans-Serif" font-size="10.00">/uptane_test.cc</text>
</a>
</g>
</g>
<!-- Node2&#45;&gt;Node33 -->
<g id="edge55" class="edge">
<title>Node2&#45;&gt;Node33</title>
<path fill="none" stroke="midnightblue" d="M2021.35,-235.34C2115.76,-231.28 2270.79,-219.69 2317,-187 2361.46,-155.54 2330.99,-112.67 2373,-78 2375.84,-75.66 2459.09,-51.87 2515.02,-36.06"/>
<polygon fill="midnightblue" stroke="midnightblue" points="2021.12,-231.85 2011.28,-235.75 2021.41,-238.84 2021.12,-231.85"/>
</g>
<!-- Node34 -->
<g id="node34" class="node">
<title>Node34</title>
<g id="a_node34"><a xlink:href="device__cred__prov__test_8cc.html" target="_top" xlink:title=" ">
<polygon fill="white" stroke="black" points="2139.5,-151 2139.5,-181 2282.5,-181 2282.5,-151 2139.5,-151"/>
<text text-anchor="start" x="2147.5" y="-169" font-family="Helvetica,sans-Serif" font-size="10.00">src/libaktualizr/primary</text>
<text text-anchor="middle" x="2211" y="-158" font-family="Helvetica,sans-Serif" font-size="10.00">/device_cred_prov_test.cc</text>
</a>
</g>
</g>
<!-- Node2&#45;&gt;Node34 -->
<g id="edge48" class="edge">
<title>Node2&#45;&gt;Node34</title>
<path fill="none" stroke="midnightblue" d="M2008.42,-220.89C2053.9,-208.79 2114.85,-192.58 2157.97,-181.11"/>
<polygon fill="midnightblue" stroke="midnightblue" points="2007.44,-217.53 1998.67,-223.49 2009.24,-224.3 2007.44,-217.53"/>
</g>
<!-- Node35 -->
<g id="node35" class="node">
<title>Node35</title>
<g id="a_node35"><a xlink:href="initializer__test_8cc_source.html" target="_top" xlink:title=" ">
<polygon fill="white" stroke="black" points="2415,-151 2415,-181 2545,-181 2545,-151 2415,-151"/>
<text text-anchor="start" x="2423" y="-169" font-family="Helvetica,sans-Serif" font-size="10.00">src/libaktualizr/primary</text>
<text text-anchor="middle" x="2480" y="-158" font-family="Helvetica,sans-Serif" font-size="10.00">/initializer_test.cc</text>
</a>
</g>
</g>
<!-- Node2&#45;&gt;Node35 -->
<g id="edge49" class="edge">
<title>Node2&#45;&gt;Node35</title>
<path fill="none" stroke="midnightblue" d="M2021.39,-232.32C2112.01,-225.36 2268.47,-211.01 2401,-187 2410.05,-185.36 2419.6,-183.26 2428.8,-181.05"/>
<polygon fill="midnightblue" stroke="midnightblue" points="2020.91,-228.85 2011.21,-233.09 2021.44,-235.83 2020.91,-228.85"/>
</g>
<!-- Node36 -->
<g id="node36" class="node">
<title>Node36</title>
<g id="a_node36"><a xlink:href="sotauptaneclient_8cc_source.html" target="_top" xlink:title=" ">
<polygon fill="white" stroke="black" points="2563,-151 2563,-181 2693,-181 2693,-151 2563,-151"/>
<text text-anchor="start" x="2571" y="-169" font-family="Helvetica,sans-Serif" font-size="10.00">src/libaktualizr/primary</text>
<text text-anchor="middle" x="2628" y="-158" font-family="Helvetica,sans-Serif" font-size="10.00">/sotauptaneclient.cc</text>
</a>
</g>
</g>
<!-- Node2&#45;&gt;Node36 -->
<g id="edge50" class="edge">
<title>Node2&#45;&gt;Node36</title>
<path fill="none" stroke="midnightblue" d="M2021.43,-235.62C2136.91,-231.76 2364.11,-220.26 2554,-187 2562.78,-185.46 2572.04,-183.36 2580.91,-181.09"/>
<polygon fill="midnightblue" stroke="midnightblue" points="2021.16,-232.13 2011.28,-235.95 2021.39,-239.12 2021.16,-232.13"/>
</g>
<!-- Node37 -->
<g id="node37" class="node">
<title>Node37</title>
<g id="a_node37"><a xlink:href="uptane__vector__tests_8cc_source.html" target="_top" xlink:title=" ">
<polygon fill="white" stroke="black" points="2711.5,-151 2711.5,-181 2824.5,-181 2824.5,-151 2711.5,-151"/>
<text text-anchor="start" x="2719.5" y="-169" font-family="Helvetica,sans-Serif" font-size="10.00">tests/uptane_vector</text>
<text text-anchor="middle" x="2768" y="-158" font-family="Helvetica,sans-Serif" font-size="10.00">_tests.cc</text>
</a>
</g>
</g>
<!-- Node2&#45;&gt;Node37 -->
<g id="edge59" class="edge">
<title>Node2&#45;&gt;Node37</title>
<path fill="none" stroke="midnightblue" d="M2021.44,-238.11C2158.25,-237.96 2455.91,-231.9 2702,-187 2710.13,-185.52 2718.67,-183.38 2726.81,-181.05"/>
<polygon fill="midnightblue" stroke="midnightblue" points="2021.08,-234.61 2011.08,-238.11 2021.08,-241.61 2021.08,-234.61"/>
</g>
<!-- Node4 -->
<g id="node4" class="node">
<title>Node4</title>
<g id="a_node4"><a xlink:href="helpers_8cc_source.html" target="_top" xlink:title=" ">
<polygon fill="white" stroke="black" points="1915,-78.5 1915,-108.5 2013,-108.5 2013,-78.5 1915,-78.5"/>
<text text-anchor="start" x="1923" y="-96.5" font-family="Helvetica,sans-Serif" font-size="10.00">src/aktualizr_lite</text>
<text text-anchor="middle" x="1964" y="-85.5" font-family="Helvetica,sans-Serif" font-size="10.00">/helpers.cc</text>
</a>
</g>
</g>
<!-- Node3&#45;&gt;Node4 -->
<g id="edge3" class="edge">
<title>Node3&#45;&gt;Node4</title>
<path fill="none" stroke="midnightblue" d="M1990.8,-141.73C1984.61,-130.83 1977.45,-118.2 1972.08,-108.75"/>
<polygon fill="midnightblue" stroke="midnightblue" points="1987.93,-143.76 1995.91,-150.73 1994.01,-140.31 1987.93,-143.76"/>
</g>
<!-- Node5 -->
<g id="node5" class="node">
<title>Node5</title>
<g id="a_node5"><a xlink:href="helpers__test_8cc_source.html" target="_top" xlink:title=" ">
<polygon fill="white" stroke="black" points="2031,-78.5 2031,-108.5 2129,-108.5 2129,-78.5 2031,-78.5"/>
<text text-anchor="start" x="2039" y="-96.5" font-family="Helvetica,sans-Serif" font-size="10.00">src/aktualizr_lite</text>
<text text-anchor="middle" x="2080" y="-85.5" font-family="Helvetica,sans-Serif" font-size="10.00">/helpers_test.cc</text>
</a>
</g>
</g>
<!-- Node3&#45;&gt;Node5 -->
<g id="edge4" class="edge">
<title>Node3&#45;&gt;Node5</title>
<path fill="none" stroke="midnightblue" d="M2027.03,-143.64C2039.31,-132.24 2054.08,-118.54 2064.9,-108.5"/>
<polygon fill="midnightblue" stroke="midnightblue" points="2024.33,-141.37 2019.38,-150.73 2029.09,-146.5 2024.33,-141.37"/>
</g>
<!-- Node6 -->
<g id="node6" class="node">
<title>Node6</title>
<g id="a_node6"><a xlink:href="aktualizr__lite_2main_8cc_source.html" target="_top" xlink:title=" ">
<polygon fill="white" stroke="black" points="2147,-78.5 2147,-108.5 2245,-108.5 2245,-78.5 2147,-78.5"/>
<text text-anchor="start" x="2155" y="-96.5" font-family="Helvetica,sans-Serif" font-size="10.00">src/aktualizr_lite</text>
<text text-anchor="middle" x="2196" y="-85.5" font-family="Helvetica,sans-Serif" font-size="10.00">/main.cc</text>
</a>
</g>
</g>
<!-- Node3&#45;&gt;Node6 -->
<g id="edge5" class="edge">
<title>Node3&#45;&gt;Node6</title>
<path fill="none" stroke="midnightblue" d="M2052.18,-147.31C2084.81,-135.33 2127.34,-119.71 2157.67,-108.57"/>
<polygon fill="midnightblue" stroke="midnightblue" points="2050.57,-144.17 2042.39,-150.9 2052.99,-150.74 2050.57,-144.17"/>
</g>
<!-- Node9 -->
<g id="node9" class="node">
<title>Node9</title>
<g id="a_node9"><a xlink:href="aktualizr__primary_2main_8cc_source.html" target="_top" xlink:title=" ">
<polygon fill="white" stroke="black" points="296,-6 296,-36 416,-36 416,-6 296,-6"/>
<text text-anchor="start" x="304" y="-24" font-family="Helvetica,sans-Serif" font-size="10.00">src/aktualizr_primary</text>
<text text-anchor="middle" x="356" y="-13" font-family="Helvetica,sans-Serif" font-size="10.00">/main.cc</text>
</a>
</g>
</g>
<!-- Node8&#45;&gt;Node9 -->
<g id="edge8" class="edge">
<title>Node8&#45;&gt;Node9</title>
<path fill="none" stroke="midnightblue" d="M1111.57,-165.22C996.79,-163.93 772.18,-155.04 588,-109 553.41,-100.35 547.26,-90.85 514,-78 474.91,-62.9 429.8,-47.07 397.82,-36.11"/>
<polygon fill="midnightblue" stroke="midnightblue" points="1111.62,-168.72 1121.65,-165.32 1111.69,-161.72 1111.62,-168.72"/>
</g>
<!-- Node10 -->
<g id="node10" class="node">
<title>Node10</title>
<g id="a_node10"><a xlink:href="secondary_8h_source.html" target="_top" xlink:title=" ">
<polygon fill="white" stroke="black" points="597,-78.5 597,-108.5 717,-108.5 717,-78.5 597,-78.5"/>
<text text-anchor="start" x="605" y="-96.5" font-family="Helvetica,sans-Serif" font-size="10.00">src/aktualizr_primary</text>
<text text-anchor="middle" x="657" y="-85.5" font-family="Helvetica,sans-Serif" font-size="10.00">/secondary.h</text>
</a>
</g>
</g>
<!-- Node8&#45;&gt;Node10 -->
<g id="edge9" class="edge">
<title>Node8&#45;&gt;Node10</title>
<path fill="none" stroke="midnightblue" d="M1111.75,-154.99C1005.68,-140.88 814.31,-115.43 717.13,-102.5"/>
<polygon fill="midnightblue" stroke="midnightblue" points="1111.37,-158.47 1121.75,-156.32 1112.29,-151.53 1111.37,-158.47"/>
</g>
<!-- Node11 -->
<g id="node11" class="node">
<title>Node11</title>
<g id="a_node11"><a xlink:href="primary__secondary__registration__test_8cc_source.html" target="_top" xlink:title=" ">
<polygon fill="white" stroke="black" points="572.5,-0.5 572.5,-41.5 747.5,-41.5 747.5,-0.5 572.5,-0.5"/>
<text text-anchor="start" x="580.5" y="-29.5" font-family="Helvetica,sans-Serif" font-size="10.00">src/aktualizr_primary</text>
<text text-anchor="start" x="580.5" y="-18.5" font-family="Helvetica,sans-Serif" font-size="10.00">/primary_secondary_registration</text>
<text text-anchor="middle" x="660" y="-7.5" font-family="Helvetica,sans-Serif" font-size="10.00">_test.cc</text>
</a>
</g>
</g>
<!-- Node8&#45;&gt;Node11 -->
<g id="edge13" class="edge">
<title>Node8&#45;&gt;Node11</title>
<path fill="none" stroke="midnightblue" d="M1111.88,-150.53C1060.62,-140.18 991.34,-125.24 931,-109 855.61,-88.7 770.05,-60.32 715.59,-41.56"/>
<polygon fill="midnightblue" stroke="midnightblue" points="1111.39,-154 1121.88,-152.54 1112.77,-147.14 1111.39,-154"/>
</g>
<!-- Node13 -->
<g id="node13" class="node">
<title>Node13</title>
<g id="a_node13"><a xlink:href="aktualizr_8cc_source.html" target="_top" xlink:title=" ">
<polygon fill="white" stroke="black" points="189,-78.5 189,-108.5 319,-108.5 319,-78.5 189,-78.5"/>
<text text-anchor="start" x="197" y="-96.5" font-family="Helvetica,sans-Serif" font-size="10.00">src/libaktualizr/primary</text>
<text text-anchor="middle" x="254" y="-85.5" font-family="Helvetica,sans-Serif" font-size="10.00">/aktualizr.cc</text>
</a>
</g>
</g>
<!-- Node8&#45;&gt;Node13 -->
<g id="edge14" class="edge">
<title>Node8&#45;&gt;Node13</title>
<path fill="none" stroke="midnightblue" d="M1111.54,-162.99C962.32,-158.37 619.19,-144.53 333,-109 328.43,-108.43 323.73,-107.77 319,-107.05"/>
<polygon fill="midnightblue" stroke="midnightblue" points="1111.84,-166.5 1121.94,-163.31 1112.05,-159.51 1111.84,-166.5"/>
</g>
<!-- Node14 -->
<g id="node14" class="node">
<title>Node14</title>
<g id="a_node14"><a xlink:href="aktualizr__fullostree__test_8cc_source.html" target="_top" xlink:title=" ">
<polygon fill="white" stroke="black" points="1568,-6 1568,-36 1720,-36 1720,-6 1568,-6"/>
<text text-anchor="start" x="1576" y="-24" font-family="Helvetica,sans-Serif" font-size="10.00">src/libaktualizr/primary</text>
<text text-anchor="middle" x="1644" y="-13" font-family="Helvetica,sans-Serif" font-size="10.00">/aktualizr_fullostree_test.cc</text>
</a>
</g>
</g>
<!-- Node8&#45;&gt;Node14 -->
<g id="edge15" class="edge">
<title>Node8&#45;&gt;Node14</title>
<path fill="none" stroke="midnightblue" d="M1217.88,-145.24C1233.53,-134.9 1252.63,-121.76 1269,-109 1285.39,-96.23 1285.13,-86.71 1304,-78 1407.92,-30.02 1446.51,-63.13 1559,-42 1568.24,-40.26 1577.99,-38.2 1587.46,-36.06"/>
<polygon fill="midnightblue" stroke="midnightblue" points="1215.56,-142.58 1209.11,-150.99 1219.39,-148.43 1215.56,-142.58"/>
</g>
<!-- Node15 -->
<g id="node15" class="node">
<title>Node15</title>
<g id="a_node15"><a xlink:href="aktualizr__helpers_8h_source.html" target="_top" xlink:title=" ">
<polygon fill="white" stroke="black" points="375,-78.5 375,-108.5 505,-108.5 505,-78.5 375,-78.5"/>
<text text-anchor="start" x="383" y="-96.5" font-family="Helvetica,sans-Serif" font-size="10.00">src/libaktualizr/primary</text>
<text text-anchor="middle" x="440" y="-85.5" font-family="Helvetica,sans-Serif" font-size="10.00">/aktualizr_helpers.h</text>
</a>
</g>
</g>
<!-- Node8&#45;&gt;Node15 -->
<g id="edge16" class="edge">
<title>Node8&#45;&gt;Node15</title>
<path fill="none" stroke="midnightblue" d="M1111.78,-159.76C991.45,-151.09 748.32,-132.36 543,-109 530.71,-107.6 517.62,-105.91 505.04,-104.19"/>
<polygon fill="midnightblue" stroke="midnightblue" points="1111.76,-163.27 1121.98,-160.49 1112.26,-156.29 1111.76,-163.27"/>
</g>
<!-- Node8&#45;&gt;Node17 -->
<g id="edge20" class="edge">
<title>Node8&#45;&gt;Node17</title>
<path fill="none" stroke="midnightblue" d="M1111.64,-165.65C935.27,-166.25 500.43,-162.1 366,-109 345.73,-100.99 347.75,-87.21 328,-78 250.5,-41.87 222.33,-61.17 139,-42 131.22,-40.21 123.02,-38.16 115.03,-36.07"/>
<polygon fill="midnightblue" stroke="midnightblue" points="1111.88,-169.15 1121.87,-165.61 1111.85,-162.15 1111.88,-169.15"/>
</g>
<!-- Node18 -->
<g id="node18" class="node">
<title>Node18</title>
<g id="a_node18"><a xlink:href="custom__url__test_8cc_source.html" target="_top" xlink:title=" ">
<polygon fill="white" stroke="black" points="1738,-6 1738,-36 1868,-36 1868,-6 1738,-6"/>
<text text-anchor="start" x="1746" y="-24" font-family="Helvetica,sans-Serif" font-size="10.00">src/libaktualizr/primary</text>
<text text-anchor="middle" x="1803" y="-13" font-family="Helvetica,sans-Serif" font-size="10.00">/custom_url_test.cc</text>
</a>
</g>
</g>
<!-- Node8&#45;&gt;Node18 -->
<g id="edge21" class="edge">
<title>Node8&#45;&gt;Node18</title>
<path fill="none" stroke="midnightblue" d="M1262.51,-159.63C1323.3,-153.2 1409.86,-139.21 1480,-109 1501.64,-99.68 1501.29,-87.15 1523,-78 1608.65,-41.91 1638.27,-62.15 1729,-42 1736.92,-40.24 1745.27,-38.18 1753.4,-36.07"/>
<polygon fill="midnightblue" stroke="midnightblue" points="1261.83,-156.18 1252.23,-160.67 1262.53,-163.15 1261.83,-156.18"/>
</g>
<!-- Node19 -->
<g id="node19" class="node">
<title>Node19</title>
<g id="a_node19"><a xlink:href="download__nonostree__test_8cc_source.html" target="_top" xlink:title=" ">
<polygon fill="white" stroke="black" points="1886,-6 1886,-36 2044,-36 2044,-6 1886,-6"/>
<text text-anchor="start" x="1894" y="-24" font-family="Helvetica,sans-Serif" font-size="10.00">src/libaktualizr/primary</text>
<text text-anchor="middle" x="1965" y="-13" font-family="Helvetica,sans-Serif" font-size="10.00">/download_nonostree_test.cc</text>
</a>
</g>
</g>
<!-- Node8&#45;&gt;Node19 -->
<g id="edge22" class="edge">
<title>Node8&#45;&gt;Node19</title>
<path fill="none" stroke="midnightblue" d="M1262.18,-156.51C1344.78,-146.42 1471.63,-128.49 1516,-109 1536.59,-99.95 1535.16,-86.46 1556,-78 1689.03,-24.02 1735.45,-65.95 1877,-42 1886.89,-40.33 1897.33,-38.24 1907.43,-36.05"/>
<polygon fill="midnightblue" stroke="midnightblue" points="1261.59,-153.05 1252.08,-157.73 1262.43,-160 1261.59,-153.05"/>
</g>
<!-- Node20 -->
<g id="node20" class="node">
<title>Node20</title>
<g id="a_node20"><a xlink:href="empty__targets__test_8cc_source.html" target="_top" xlink:title=" ">
<polygon fill="white" stroke="black" points="932,-6 932,-36 1062,-36 1062,-6 932,-6"/>
<text text-anchor="start" x="940" y="-24" font-family="Helvetica,sans-Serif" font-size="10.00">src/libaktualizr/primary</text>
<text text-anchor="middle" x="997" y="-13" font-family="Helvetica,sans-Serif" font-size="10.00">/empty_targets_test.cc</text>
</a>
</g>
</g>
<!-- Node8&#45;&gt;Node20 -->
<g id="edge23" class="edge">
<title>Node8&#45;&gt;Node20</title>
<path fill="none" stroke="midnightblue" d="M1111.74,-157.29C1078,-150.03 1040.4,-136.01 1016,-109 997.76,-88.81 995.62,-55.26 996.06,-36.26"/>
<polygon fill="midnightblue" stroke="midnightblue" points="1111.11,-160.74 1121.6,-159.25 1112.48,-153.87 1111.11,-160.74"/>
</g>
<!-- Node21 -->
<g id="node21" class="node">
<title>Node21</title>
<g id="a_node21"><a xlink:href="metadata__expiration__test_8cc_source.html" target="_top" xlink:title=" ">
<polygon fill="white" stroke="black" points="1080.5,-6 1080.5,-36 1239.5,-36 1239.5,-6 1080.5,-6"/>
<text text-anchor="start" x="1088.5" y="-24" font-family="Helvetica,sans-Serif" font-size="10.00">src/libaktualizr/primary</text>
<text text-anchor="middle" x="1160" y="-13" font-family="Helvetica,sans-Serif" font-size="10.00">/metadata_expiration_test.cc</text>
</a>
</g>
</g>
<!-- Node8&#45;&gt;Node21 -->
<g id="edge24" class="edge">
<title>Node8&#45;&gt;Node21</title>
<path fill="none" stroke="midnightblue" d="M1182.41,-140.69C1176.74,-110.66 1167.28,-60.55 1162.68,-36.18"/>
<polygon fill="midnightblue" stroke="midnightblue" points="1179.02,-141.59 1184.31,-150.77 1185.9,-140.29 1179.02,-141.59"/>
</g>
<!-- Node22 -->
<g id="node22" class="node">
<title>Node22</title>
<g id="a_node22"><a xlink:href="metadata__fetch__test_8cc_source.html" target="_top" xlink:title=" ">
<polygon fill="white" stroke="black" points="1258,-6 1258,-36 1392,-36 1392,-6 1258,-6"/>
<text text-anchor="start" x="1266" y="-24" font-family="Helvetica,sans-Serif" font-size="10.00">src/libaktualizr/primary</text>
<text text-anchor="middle" x="1325" y="-13" font-family="Helvetica,sans-Serif" font-size="10.00">/metadata_fetch_test.cc</text>
</a>
</g>
</g>
<!-- Node8&#45;&gt;Node22 -->
<g id="edge25" class="edge">
<title>Node8&#45;&gt;Node22</title>
<path fill="none" stroke="midnightblue" d="M1195.35,-141.57C1202.94,-122.73 1215.63,-96.45 1233,-78 1249.92,-60.03 1273.85,-45.7 1293.06,-36.04"/>
<polygon fill="midnightblue" stroke="midnightblue" points="1192.07,-140.33 1191.75,-150.92 1198.61,-142.85 1192.07,-140.33"/>
</g>
<!-- Node23 -->
<g id="node23" class="node">
<title>Node23</title>
<g id="a_node23"><a xlink:href="target__mismatch__test_8cc_source.html" target="_top" xlink:title=" ">
<polygon fill="white" stroke="black" points="1410,-6 1410,-36 1550,-36 1550,-6 1410,-6"/>
<text text-anchor="start" x="1418" y="-24" font-family="Helvetica,sans-Serif" font-size="10.00">src/libaktualizr/primary</text>
<text text-anchor="middle" x="1480" y="-13" font-family="Helvetica,sans-Serif" font-size="10.00">/target_mismatch_test.cc</text>
</a>
</g>
</g>
<!-- Node8&#45;&gt;Node23 -->
<g id="edge26" class="edge">
<title>Node8&#45;&gt;Node23</title>
<path fill="none" stroke="midnightblue" d="M1205.72,-143.07C1225.58,-120.3 1256.1,-86.78 1271,-78 1277.78,-74.01 1365.16,-51.27 1424.77,-36.02"/>
<polygon fill="midnightblue" stroke="midnightblue" points="1202.84,-141.06 1198.94,-150.91 1208.13,-145.64 1202.84,-141.06"/>
</g>
<!-- Node24 -->
<g id="node24" class="node">
<title>Node24</title>
<g id="a_node24"><a xlink:href="uptane__delegation__test_8cc_source.html" target="_top" xlink:title=" ">
<polygon fill="white" stroke="black" points="766,-6 766,-36 914,-36 914,-6 766,-6"/>
<text text-anchor="start" x="774" y="-24" font-family="Helvetica,sans-Serif" font-size="10.00">src/libaktualizr/uptane</text>
<text text-anchor="middle" x="840" y="-13" font-family="Helvetica,sans-Serif" font-size="10.00">/uptane_delegation_test.cc</text>
</a>
</g>
</g>
<!-- Node8&#45;&gt;Node24 -->
<g id="edge27" class="edge">
<title>Node8&#45;&gt;Node24</title>
<path fill="none" stroke="midnightblue" d="M1117.16,-148.35C1080.69,-138.68 1035.71,-125.2 997,-109 946.55,-87.89 891.49,-54.84 861.84,-36.14"/>
<polygon fill="midnightblue" stroke="midnightblue" points="1116.65,-151.84 1127.21,-150.98 1118.42,-145.06 1116.65,-151.84"/>
</g>
<!-- Node8&#45;&gt;Node25 -->
<g id="edge28" class="edge">
<title>Node8&#45;&gt;Node25</title>
<path fill="none" stroke="midnightblue" d="M1262.09,-159.23C1365.52,-150.79 1557.49,-133.41 1720,-109 1731,-107.35 1742.86,-105.19 1753.79,-103.05"/>
<polygon fill="midnightblue" stroke="midnightblue" points="1261.74,-155.74 1252.05,-160.04 1262.3,-162.72 1261.74,-155.74"/>
</g>
<!-- Node8&#45;&gt;Node26 -->
<g id="edge29" class="edge">
<title>Node8&#45;&gt;Node26</title>
<path fill="none" stroke="midnightblue" d="M1262.24,-153.7C1335.88,-142.58 1451.21,-124.99 1551,-109 1562.79,-107.11 1575.48,-105.03 1587.41,-103.04"/>
<polygon fill="midnightblue" stroke="midnightblue" points="1261.5,-150.28 1252.13,-155.23 1262.54,-157.2 1261.5,-150.28"/>
</g>
<!-- Node27 -->
<g id="node27" class="node">
<title>Node27</title>
<g id="a_node27"><a xlink:href="aktualizr__cycle__simple_8cc_source.html" target="_top" xlink:title=" ">
<polygon fill="white" stroke="black" points="1025.5,-78.5 1025.5,-108.5 1142.5,-108.5 1142.5,-78.5 1025.5,-78.5"/>
<text text-anchor="start" x="1033.5" y="-96.5" font-family="Helvetica,sans-Serif" font-size="10.00">tests/aktualizr_cycle</text>
<text text-anchor="middle" x="1084" y="-85.5" font-family="Helvetica,sans-Serif" font-size="10.00">_simple.cc</text>
</a>
</g>
</g>
<!-- Node8&#45;&gt;Node27 -->
<g id="edge30" class="edge">
<title>Node8&#45;&gt;Node27</title>
<path fill="none" stroke="midnightblue" d="M1157.68,-144.93C1140.68,-133.29 1119.68,-118.92 1104.46,-108.5"/>
<polygon fill="midnightblue" stroke="midnightblue" points="1155.93,-147.97 1166.16,-150.73 1159.88,-142.2 1155.93,-147.97"/>
</g>
<!-- Node8&#45;&gt;Node28 -->
<g id="edge31" class="edge">
<title>Node8&#45;&gt;Node28</title>
<path fill="none" stroke="midnightblue" d="M1237.59,-147.6C1278.79,-133.43 1335.2,-114.04 1367.19,-103.03"/>
<polygon fill="midnightblue" stroke="midnightblue" points="1236.31,-144.34 1227.99,-150.9 1238.59,-150.96 1236.31,-144.34"/>
</g>
<!-- Node10&#45;&gt;Node9 -->
<g id="edge10" class="edge">
<title>Node10&#45;&gt;Node9</title>
<path fill="none" stroke="midnightblue" d="M586.75,-78.5C540.59,-68.99 478.98,-55.68 425,-42 417.87,-40.19 410.36,-38.16 403.02,-36.09"/>
<polygon fill="midnightblue" stroke="midnightblue" points="586.15,-81.95 596.65,-80.53 587.56,-75.09 586.15,-81.95"/>
</g>
<!-- Node10&#45;&gt;Node11 -->
<g id="edge11" class="edge">
<title>Node10&#45;&gt;Node11</title>
<path fill="none" stroke="midnightblue" d="M658.04,-67.98C658.41,-59.35 658.82,-49.76 659.17,-41.59"/>
<polygon fill="midnightblue" stroke="midnightblue" points="654.54,-68.09 657.61,-78.23 661.53,-68.39 654.54,-68.09"/>
</g>
<!-- Node12 -->
<g id="node12" class="node">
<title>Node12</title>
<g id="a_node12"><a xlink:href="secondary_8cc_source.html" target="_top" xlink:title=" ">
<polygon fill="white" stroke="black" points="434,-6 434,-36 554,-36 554,-6 434,-6"/>
<text text-anchor="start" x="442" y="-24" font-family="Helvetica,sans-Serif" font-size="10.00">src/aktualizr_primary</text>
<text text-anchor="middle" x="494" y="-13" font-family="Helvetica,sans-Serif" font-size="10.00">/secondary.cc</text>
</a>
</g>
</g>
<!-- Node10&#45;&gt;Node12 -->
<g id="edge12" class="edge">
<title>Node10&#45;&gt;Node12</title>
<path fill="none" stroke="midnightblue" d="M615.02,-74.34C587.46,-62.42 551.95,-47.07 526.54,-36.07"/>
<polygon fill="midnightblue" stroke="midnightblue" points="613.84,-77.65 624.41,-78.4 616.62,-71.22 613.84,-77.65"/>
</g>
<!-- Node15&#45;&gt;Node9 -->
<g id="edge17" class="edge">
<title>Node15&#45;&gt;Node9</title>
<path fill="none" stroke="midnightblue" d="M415.32,-71.79C401.59,-60.27 384.87,-46.23 372.69,-36"/>
<polygon fill="midnightblue" stroke="midnightblue" points="413.09,-74.49 423,-78.23 417.59,-69.12 413.09,-74.49"/>
</g>
<!-- Node16 -->
<g id="node16" class="node">
<title>Node16</title>
<g id="a_node16"><a xlink:href="aktualizr__helpers_8cc_source.html" target="_top" xlink:title=" ">
<polygon fill="white" stroke="black" points="148,-6 148,-36 278,-36 278,-6 148,-6"/>
<text text-anchor="start" x="156" y="-24" font-family="Helvetica,sans-Serif" font-size="10.00">src/libaktualizr/primary</text>
<text text-anchor="middle" x="213" y="-13" font-family="Helvetica,sans-Serif" font-size="10.00">/aktualizr_helpers.cc</text>
</a>
</g>
</g>
<!-- Node15&#45;&gt;Node16 -->
<g id="edge18" class="edge">
<title>Node15&#45;&gt;Node16</title>
<path fill="none" stroke="midnightblue" d="M385.3,-75.51C346.48,-63.46 294.98,-47.46 258.42,-36.11"/>
<polygon fill="midnightblue" stroke="midnightblue" points="384.29,-78.86 394.88,-78.49 386.37,-72.18 384.29,-78.86"/>
</g>
<!-- Node15&#45;&gt;Node17 -->
<g id="edge19" class="edge">
<title>Node15&#45;&gt;Node17</title>
<path fill="none" stroke="midnightblue" d="M364.86,-78.67C363.56,-78.44 362.28,-78.22 361,-78 262.5,-60.98 236.71,-63.07 139,-42 130.93,-40.26 122.43,-38.19 114.19,-36.05"/>
<polygon fill="midnightblue" stroke="midnightblue" points="364.47,-82.15 374.92,-80.44 365.68,-75.26 364.47,-82.15"/>
</g>
<!-- Node28&#45;&gt;Node11 -->
<g id="edge32" class="edge">
<title>Node28&#45;&gt;Node11</title>
<path fill="none" stroke="midnightblue" d="M1302.72,-86.77C1153.54,-76.97 859.81,-56.63 757,-42 753.94,-41.56 750.82,-41.09 747.68,-40.59"/>
<polygon fill="midnightblue" stroke="midnightblue" points="1302.57,-90.27 1312.77,-87.43 1303.02,-83.29 1302.57,-90.27"/>
</g>
<!-- Node28&#45;&gt;Node14 -->
<g id="edge33" class="edge">
<title>Node28&#45;&gt;Node14</title>
<path fill="none" stroke="midnightblue" d="M1432.15,-81.27C1476.05,-68.99 1546.46,-49.29 1593.94,-36.01"/>
<polygon fill="midnightblue" stroke="midnightblue" points="1431.08,-77.93 1422.4,-84 1432.97,-84.67 1431.08,-77.93"/>
</g>
<!-- Node28&#45;&gt;Node17 -->
<g id="edge34" class="edge">
<title>Node28&#45;&gt;Node17</title>
<path fill="none" stroke="midnightblue" d="M1302.68,-86.6C1257.27,-83.74 1201.21,-80.4 1151,-78 701.45,-56.48 584.02,-109.15 139,-42 129.66,-40.59 119.8,-38.42 110.44,-36.03"/>
<polygon fill="midnightblue" stroke="midnightblue" points="1302.59,-90.1 1312.79,-87.24 1303.03,-83.12 1302.59,-90.1"/>
</g>
<!-- Node28&#45;&gt;Node18 -->
<g id="edge35" class="edge">
<title>Node28&#45;&gt;Node18</title>
<path fill="none" stroke="midnightblue" d="M1456.08,-82.44C1465.77,-80.94 1475.65,-79.42 1485,-78 1593.38,-61.56 1621.68,-64.34 1729,-42 1737.21,-40.29 1745.86,-38.21 1754.24,-36.05"/>
<polygon fill="midnightblue" stroke="midnightblue" points="1455.43,-79 1446.08,-83.99 1456.5,-85.92 1455.43,-79"/>
</g>
<!-- Node28&#45;&gt;Node19 -->
<g id="edge36" class="edge">
<title>Node28&#45;&gt;Node19</title>
<path fill="none" stroke="midnightblue" d="M1478.11,-82.86C1493.07,-81.21 1508.49,-79.54 1523,-78 1680.26,-61.3 1720.94,-67.57 1877,-42 1887.05,-40.35 1897.67,-38.25 1907.92,-36.04"/>
<polygon fill="midnightblue" stroke="midnightblue" points="1477.4,-79.42 1467.84,-83.99 1478.16,-86.37 1477.4,-79.42"/>
</g>
<!-- Node28&#45;&gt;Node20 -->
<g id="edge37" class="edge">
<title>Node28&#45;&gt;Node20</title>
<path fill="none" stroke="midnightblue" d="M1313.77,-82.6C1248.5,-73.76 1153.23,-59.53 1071,-42 1062.93,-40.28 1054.43,-38.22 1046.18,-36.09"/>
<polygon fill="midnightblue" stroke="midnightblue" points="1313.6,-86.11 1323.98,-83.97 1314.53,-79.17 1313.6,-86.11"/>
</g>
<!-- Node28&#45;&gt;Node21 -->
<g id="edge38" class="edge">
<title>Node28&#45;&gt;Node21</title>
<path fill="none" stroke="midnightblue" d="M1354.27,-81.03C1313.8,-68.74 1249.52,-49.2 1206.09,-36.01"/>
<polygon fill="midnightblue" stroke="midnightblue" points="1353.43,-84.44 1364.02,-84 1355.47,-77.74 1353.43,-84.44"/>
</g>
<!-- Node28&#45;&gt;Node22 -->
<g id="edge39" class="edge">
<title>Node28&#45;&gt;Node22</title>
<path fill="none" stroke="midnightblue" d="M1376.88,-76.59C1365.31,-64.41 1349.49,-47.77 1338.38,-36.08"/>
<polygon fill="midnightblue" stroke="midnightblue" points="1374.36,-79.02 1383.78,-83.86 1379.43,-74.2 1374.36,-79.02"/>
</g>
<!-- Node28&#45;&gt;Node23 -->
<g id="edge40" class="edge">
<title>Node28&#45;&gt;Node23</title>
<path fill="none" stroke="midnightblue" d="M1410.99,-77.28C1426.26,-65.05 1447.55,-48 1462.43,-36.08"/>
<polygon fill="midnightblue" stroke="midnightblue" points="1408.41,-74.87 1402.79,-83.86 1412.78,-80.33 1408.41,-74.87"/>
</g>
<!-- Node28&#45;&gt;Node24 -->
<g id="edge43" class="edge">
<title>Node28&#45;&gt;Node24</title>
<path fill="none" stroke="midnightblue" d="M1302.62,-86.33C1207.89,-78.99 1054.18,-64.77 923,-42 913.51,-40.35 903.48,-38.25 893.81,-36.04"/>
<polygon fill="midnightblue" stroke="midnightblue" points="1302.49,-89.83 1312.73,-87.1 1303.03,-82.85 1302.49,-89.83"/>
</g>
<!-- Node28&#45;&gt;Node29 -->
<g id="edge41" class="edge">
<title>Node28&#45;&gt;Node29</title>
<path fill="none" stroke="midnightblue" d="M1481.41,-83.7C1505.6,-81.56 1531.78,-79.47 1556,-78 2035.82,-48.82 2161.59,-113.18 2637,-42 2646.34,-40.6 2656.2,-38.44 2665.56,-36.05"/>
<polygon fill="midnightblue" stroke="midnightblue" points="1480.83,-80.24 1471.18,-84.62 1481.45,-87.21 1480.83,-80.24"/>
</g>
<!-- Node28&#45;&gt;Node30 -->
<g id="edge42" class="edge">
<title>Node28&#45;&gt;Node30</title>
<path fill="none" stroke="midnightblue" d="M1481.46,-84.33C1505.64,-82.19 1531.82,-79.94 1556,-78 1776.75,-60.25 1834.86,-80.22 2053,-42 2061.58,-40.5 2070.61,-38.38 2079.24,-36.08"/>
<polygon fill="midnightblue" stroke="midnightblue" points="1480.87,-80.87 1471.22,-85.24 1481.49,-87.84 1480.87,-80.87"/>
</g>
<!-- Node28&#45;&gt;Node31 -->
<g id="edge44" class="edge">
<title>Node28&#45;&gt;Node31</title>
<path fill="none" stroke="midnightblue" d="M1481.44,-84.07C1505.62,-81.93 1531.8,-79.75 1556,-78 1840.15,-57.45 1914.53,-86.03 2196,-42 2205.42,-40.53 2215.35,-38.4 2224.84,-36.07"/>
<polygon fill="midnightblue" stroke="midnightblue" points="1480.85,-80.61 1471.2,-84.98 1481.48,-87.58 1480.85,-80.61"/>
</g>
<!-- Node28&#45;&gt;Node32 -->
<g id="edge45" class="edge">
<title>Node28&#45;&gt;Node32</title>
<path fill="none" stroke="midnightblue" d="M1481.42,-83.89C1505.61,-81.76 1531.79,-79.62 1556,-78 1908.46,-54.44 2001.16,-97.63 2350,-42 2358.97,-40.57 2368.41,-38.43 2377.41,-36.07"/>
<polygon fill="midnightblue" stroke="midnightblue" points="1480.84,-80.43 1471.19,-84.81 1481.46,-87.4 1480.84,-80.43"/>
</g>
<!-- Node28&#45;&gt;Node33 -->
<g id="edge46" class="edge">
<title>Node28&#45;&gt;Node33</title>
<path fill="none" stroke="midnightblue" d="M1481.42,-83.78C1505.6,-81.64 1531.79,-79.53 1556,-78 1972.36,-51.62 2081.9,-107.01 2494,-42 2502.98,-40.58 2512.44,-38.41 2521.43,-36.02"/>
<polygon fill="midnightblue" stroke="midnightblue" points="1480.83,-80.32 1471.18,-84.7 1481.46,-87.29 1480.83,-80.32"/>
</g>
<!-- Node38&#45;&gt;Node2 -->
<g id="edge63" class="edge">
<title>Node38&#45;&gt;Node2</title>
<path fill="none" stroke="midnightblue" d="M1354.17,-297.17C1485.86,-284.34 1756.08,-258.01 1880.57,-245.88"/>
<polygon fill="midnightblue" stroke="midnightblue" points="1353.78,-293.7 1344.17,-298.15 1354.46,-300.66 1353.78,-293.7"/>
</g>
<!-- Node38&#45;&gt;Node8 -->
<g id="edge62" class="edge">
<title>Node38&#45;&gt;Node8</title>
<path fill="none" stroke="midnightblue" d="M1277.25,-280.11C1275.06,-262.97 1270.12,-240.15 1259,-223 1247.54,-205.33 1228.56,-190.9 1212.96,-181.12"/>
<polygon fill="midnightblue" stroke="midnightblue" points="1273.81,-280.85 1278.33,-290.43 1280.77,-280.11 1273.81,-280.85"/>
</g>
<!-- Node38&#45;&gt;Node13 -->
<g id="edge64" class="edge">
<title>Node38&#45;&gt;Node13</title>
<path fill="none" stroke="midnightblue" d="M1203.92,-299.66C1114.49,-293.07 960.86,-279.11 831,-254 627.17,-214.59 390.13,-139.58 295.81,-108.51"/>
<polygon fill="midnightblue" stroke="midnightblue" points="1203.74,-303.16 1213.97,-300.39 1204.25,-296.18 1203.74,-303.16"/>
</g>
<!-- Node38&#45;&gt;Node17 -->
<g id="edge65" class="edge">
<title>Node38&#45;&gt;Node17</title>
<path fill="none" stroke="midnightblue" d="M1203.47,-301.52C1090.99,-296.3 873.06,-283.13 690,-254 561.07,-233.48 530.48,-219.35 404,-187 278.43,-154.88 227.97,-185.02 123,-109 96.83,-90.05 79.01,-55.39 70.58,-36.03"/>
<polygon fill="midnightblue" stroke="midnightblue" points="1203.55,-305.03 1213.69,-301.99 1203.86,-298.03 1203.55,-305.03"/>
</g>
<!-- Node38&#45;&gt;Node24 -->
<g id="edge66" class="edge">
<title>Node38&#45;&gt;Node24</title>
<path fill="none" stroke="midnightblue" d="M1223.48,-287.1C1198.58,-278.45 1169.21,-267.05 1144,-254 1042.31,-201.34 1020.03,-181.04 931,-109 901.61,-85.21 870.38,-53.85 853.22,-36"/>
<polygon fill="midnightblue" stroke="midnightblue" points="1222.55,-290.48 1233.14,-290.4 1224.81,-283.86 1222.55,-290.48"/>
</g>
<!-- Node38&#45;&gt;Node25 -->
<g id="edge67" class="edge">
<title>Node38&#45;&gt;Node25</title>
<path fill="none" stroke="midnightblue" d="M1319.81,-286.16C1388.2,-255.62 1530.54,-193 1653,-145 1693.07,-129.3 1740.26,-112.79 1768.62,-103.08"/>
<polygon fill="midnightblue" stroke="midnightblue" points="1317.96,-283.15 1310.26,-290.42 1320.82,-289.54 1317.96,-283.15"/>
</g>
<!-- Node38&#45;&gt;Node26 -->
<g id="edge68" class="edge">
<title>Node38&#45;&gt;Node26</title>
<path fill="none" stroke="midnightblue" d="M1302.68,-283.86C1341.48,-250.89 1421.97,-185.88 1499,-145 1534.38,-126.22 1578.26,-111.58 1607.14,-103"/>
<polygon fill="midnightblue" stroke="midnightblue" points="1300.38,-281.23 1295.06,-290.39 1304.93,-286.55 1300.38,-281.23"/>
</g>
<!-- Node39 -->
<g id="node39" class="node">
<title>Node39</title>
<g id="a_node39"><a xlink:href="libaktualizr-c_8cc_source.html" target="_top" xlink:title=" ">
<polygon fill="white" stroke="black" points="1153.5,-223.5 1153.5,-253.5 1250.5,-253.5 1250.5,-223.5 1153.5,-223.5"/>
<text text-anchor="start" x="1161.5" y="-241.5" font-family="Helvetica,sans-Serif" font-size="10.00">src/libaktualizr&#45;c</text>
<text text-anchor="middle" x="1202" y="-230.5" font-family="Helvetica,sans-Serif" font-size="10.00">/libaktualizr&#45;c.cc</text>
</a>
</g>
</g>
<!-- Node38&#45;&gt;Node39 -->
<g id="edge61" class="edge">
<title>Node38&#45;&gt;Node39</title>
<path fill="none" stroke="midnightblue" d="M1254.58,-283.88C1242.88,-274.01 1229.16,-262.43 1218.68,-253.58"/>
<polygon fill="midnightblue" stroke="midnightblue" points="1252.39,-286.62 1262.29,-290.4 1256.91,-281.27 1252.39,-286.62"/>
</g>
</g>
</svg>
