<?xml version="1.0" encoding="UTF-8" standalone="no"?>
<!DOCTYPE svg PUBLIC "-//W3C//DTD SVG 1.1//EN"
 "http://www.w3.org/Graphics/SVG/1.1/DTD/svg11.dtd">
<!-- Generated by graphviz version 2.40.1 (20161225.0304)
 -->
<!-- Title: LiteClient Pages: 1 -->
<!--zoomable 604 -->
<svg id="main" version="1.1" xmlns="http://www.w3.org/2000/svg" xmlns:xlink="http://www.w3.org/1999/xlink" xml:space="preserve" onload="init(evt)">
<style type="text/css"><![CDATA[
.edge:hover path { stroke: red; }
.edge:hover polygon { stroke: red; fill: red; }
]]></style>
<script type="text/javascript"><![CDATA[
var edges = document.getElementsByTagName('g');
if (edges && edges.length) {
  for (var i=0;i<edges.length;i++) {
    if (edges[i].id.substr(0,4)=='edge') {
      edges[i].setAttribute('class','edge');
    }
  }
}
]]></script>
        <defs>
                <circle id="rim" cx="0" cy="0" r="7"/>
                <circle id="rim2" cx="0" cy="0" r="3.5"/>
                <g id="zoomPlus">
                        <use xlink:href="#rim" fill="#404040">
                                <set attributeName="fill" to="#808080" begin="zoomplus.mouseover" end="zoomplus.mouseout"/>
                        </use>
                        <path d="M-4,0h8M0,-4v8" fill="none" stroke="white" stroke-width="1.5" pointer-events="none"/>
                </g>
                <g id="zoomMin">
                        <use xlink:href="#rim" fill="#404040">
                                <set attributeName="fill" to="#808080" begin="zoomminus.mouseover" end="zoomminus.mouseout"/>
                        </use>
                        <path d="M-4,0h8" fill="none" stroke="white" stroke-width="1.5" pointer-events="none"/>
                </g>
                <g id="dirArrow">
                        <path fill="none" stroke="white" stroke-width="1.5" d="M0,-3.0v7 M-2.5,-0.5L0,-3.0L2.5,-0.5"/>
                </g>
               <g id="resetDef">
                       <use xlink:href="#rim2" fill="#404040">
                               <set attributeName="fill" to="#808080" begin="reset.mouseover" end="reset.mouseout"/>
                       </use>
               </g>
        </defs>

<script type="text/javascript">
var viewWidth = 1005;
var viewHeight = 604;
var sectionId = 'dynsection-0';
</script>
<script xlink:href="svgpan.js"/>
<svg id="graph" class="graph">
<g id="viewport">
<title>LiteClient</title>
<polygon fill="#ffffff" stroke="transparent" points="-4,4 -4,-599.5 1001,-599.5 1001,4 -4,4"/>
<!-- Node1 -->
<g id="node1" class="node">
<title>Node1</title>
<polygon fill="#bfbfbf" stroke="#000000" points="934,-225.5 934,-244.5 997,-244.5 997,-225.5 934,-225.5"/>
<text text-anchor="middle" x="965.5" y="-232.5" font-family="Helvetica,sans-Serif" font-size="10.00" fill="#000000">LiteClient</text>
</g>
<!-- Node2 -->
<g id="node2" class="node">
<title>Node2</title>
<g id="a_node2"><a xlink:href="class_config.html" target="_top" xlink:title="Configuration object for an aktualizr instance running on a Primary ECU. ">
<polygon fill="#ffffff" stroke="#000000" points="818,-225.5 818,-244.5 865,-244.5 865,-225.5 818,-225.5"/>
<text text-anchor="middle" x="841.5" y="-232.5" font-family="Helvetica,sans-Serif" font-size="10.00" fill="#000000">Config</text>
</a>
</g>
</g>
<!-- Node2&#45;&gt;Node1 -->
<g id="edge1" class="edge">
<title>Node2&#45;&gt;Node1</title>
<path fill="none" stroke="#9a32cd" stroke-dasharray="5,2" d="M875.2637,-235C893.4148,-235 915.6716,-235 933.5392,-235"/>
<polygon fill="#9a32cd" stroke="#9a32cd" points="875.1154,-231.5001 865.1153,-235 875.1153,-238.5001 875.1154,-231.5001"/>
<text text-anchor="middle" x="899.5" y="-238" font-family="Helvetica,sans-Serif" font-size="10.00" fill="#000000"> config</text>
</g>
<!-- Node3 -->
<g id="node3" class="node">
<title>Node3</title>
<g id="a_node3"><a xlink:href="class_base_config.html" target="_top" xlink:title="The BaseConfig class. ">
<polygon fill="#ffffff" stroke="#000000" points="646.5,-540.5 646.5,-559.5 717.5,-559.5 717.5,-540.5 646.5,-540.5"/>
<text text-anchor="middle" x="682" y="-547.5" font-family="Helvetica,sans-Serif" font-size="10.00" fill="#000000">BaseConfig</text>
</a>
</g>
</g>
<!-- Node3&#45;&gt;Node2 -->
<g id="edge2" class="edge">
<title>Node3&#45;&gt;Node2</title>
<path fill="none" stroke="#191970" d="M706.1044,-534.6978C733.399,-516.0279 777.0482,-481.849 800,-441 819.479,-406.3317 835.8769,-281.3252 840.3159,-244.9777"/>
<polygon fill="#191970" stroke="#191970" points="703.9028,-531.9593 697.5284,-540.422 707.7889,-537.7815 703.9028,-531.9593"/>
</g>
<!-- Node4 -->
<g id="node4" class="node">
<title>Node4</title>
<polygon fill="#ffffff" stroke="#bfbfbf" points="358.5,-565 358.5,-595 471.5,-595 471.5,-565 358.5,-565"/>
<text text-anchor="start" x="366.5" y="-583" font-family="Helvetica,sans-Serif" font-size="10.00" fill="#000000">std::vector&lt; boost</text>
<text text-anchor="middle" x="415" y="-572" font-family="Helvetica,sans-Serif" font-size="10.00" fill="#000000">::filesystem::path &gt;</text>
</g>
<!-- Node4&#45;&gt;Node3 -->
<g id="edge3" class="edge">
<title>Node4&#45;&gt;Node3</title>
<path fill="none" stroke="#9a32cd" stroke-dasharray="5,2" d="M481.7975,-572.4947C533.9537,-566.6344 604.39,-558.7202 646.3115,-554.0099"/>
<polygon fill="#9a32cd" stroke="#9a32cd" points="481.1705,-569.043 471.6238,-573.6378 481.9521,-575.9992 481.1705,-569.043"/>
<text text-anchor="middle" x="555" y="-573" font-family="Helvetica,sans-Serif" font-size="10.00" fill="#000000"> config_dirs_</text>
</g>
<!-- Node5 -->
<g id="node5" class="node">
<title>Node5</title>
<g id="a_node5"><a xlink:href="struct_storage_config.html" target="_top" xlink:title="StorageConfig">
<polygon fill="#ffffff" stroke="#000000" points="639.5,-444.5 639.5,-463.5 724.5,-463.5 724.5,-444.5 639.5,-444.5"/>
<text text-anchor="middle" x="682" y="-451.5" font-family="Helvetica,sans-Serif" font-size="10.00" fill="#000000">StorageConfig</text>
</a>
</g>
</g>
<!-- Node5&#45;&gt;Node2 -->
<g id="edge4" class="edge">
<title>Node5&#45;&gt;Node2</title>
<path fill="none" stroke="#9a32cd" stroke-dasharray="5,2" d="M720.1914,-440.5812C746.3008,-429.5259 779.7257,-411.3513 800,-385 817.465,-362.3 834.4639,-274.3282 839.7914,-244.7585"/>
<polygon fill="#9a32cd" stroke="#9a32cd" points="718.5403,-437.4737 710.5856,-444.4718 721.1682,-443.9617 718.5403,-437.4737"/>
<text text-anchor="middle" x="774" y="-429" font-family="Helvetica,sans-Serif" font-size="10.00" fill="#000000"> storage</text>
</g>
<!-- Node6 -->
<g id="node6" class="node">
<title>Node6</title>
<g id="a_node6"><a xlink:href="classutils_1_1_based_path.html" target="_top" xlink:title="The BasedPath class Can represent an absolute or relative path, only readable through the BasePath::g...">
<polygon fill="#ffffff" stroke="#000000" points="367.5,-439.5 367.5,-458.5 462.5,-458.5 462.5,-439.5 367.5,-439.5"/>
<text text-anchor="middle" x="415" y="-446.5" font-family="Helvetica,sans-Serif" font-size="10.00" fill="#000000">utils::BasedPath</text>
</a>
</g>
</g>
<!-- Node6&#45;&gt;Node5 -->
<g id="edge5" class="edge">
<title>Node6&#45;&gt;Node5</title>
<path fill="none" stroke="#9a32cd" stroke-dasharray="5,2" d="M472.7542,-450.0815C522.7699,-451.0182 593.9851,-452.3518 639.0879,-453.1964"/>
<polygon fill="#9a32cd" stroke="#9a32cd" points="472.7981,-446.5818 462.7342,-449.8939 472.6669,-453.5806 472.7981,-446.5818"/>
<text text-anchor="middle" x="555" y="-532" font-family="Helvetica,sans-Serif" font-size="10.00" fill="#000000"> uptane_public_key_path</text>
<text text-anchor="middle" x="555" y="-521" font-family="Helvetica,sans-Serif" font-size="10.00" fill="#000000">tls_pkey_path</text>
<text text-anchor="middle" x="555" y="-510" font-family="Helvetica,sans-Serif" font-size="10.00" fill="#000000">uptane_metadata_path</text>
<text text-anchor="middle" x="555" y="-499" font-family="Helvetica,sans-Serif" font-size="10.00" fill="#000000">sqldb_path</text>
<text text-anchor="start" x="494" y="-488" font-family="Helvetica,sans-Serif" font-size="10.00" fill="#000000">uptane_private_key</text>
<text text-anchor="middle" x="555" y="-477" font-family="Helvetica,sans-Serif" font-size="10.00" fill="#000000">_path</text>
<text text-anchor="middle" x="555" y="-466" font-family="Helvetica,sans-Serif" font-size="10.00" fill="#000000">tls_cacert_path</text>
<text text-anchor="middle" x="555" y="-455" font-family="Helvetica,sans-Serif" font-size="10.00" fill="#000000">tls_clientcert_path</text>
</g>
<!-- Node17 -->
<g id="node17" class="node">
<title>Node17</title>
<g id="a_node17"><a xlink:href="struct_import_config.html" target="_top" xlink:title="ImportConfig">
<polygon fill="#ffffff" stroke="#000000" points="642,-367.5 642,-386.5 722,-386.5 722,-367.5 642,-367.5"/>
<text text-anchor="middle" x="682" y="-374.5" font-family="Helvetica,sans-Serif" font-size="10.00" fill="#000000">ImportConfig</text>
</a>
</g>
</g>
<!-- Node6&#45;&gt;Node17 -->
<g id="edge22" class="edge">
<title>Node6&#45;&gt;Node17</title>
<path fill="none" stroke="#9a32cd" stroke-dasharray="5,2" d="M435.5113,-432.6155C447.5335,-422.8249 462.8859,-409.9953 476,-398 484.3482,-390.364 483.5824,-384.4128 494,-380 541.6413,-359.8195 602.3563,-363.4782 641.6935,-369.1922"/>
<polygon fill="#9a32cd" stroke="#9a32cd" points="433.0018,-430.1435 427.4254,-439.1521 437.4026,-435.5872 433.0018,-430.1435"/>
<text text-anchor="middle" x="555" y="-438" font-family="Helvetica,sans-Serif" font-size="10.00" fill="#000000"> uptane_public_key_path</text>
<text text-anchor="middle" x="555" y="-427" font-family="Helvetica,sans-Serif" font-size="10.00" fill="#000000">tls_pkey_path</text>
<text text-anchor="start" x="494" y="-416" font-family="Helvetica,sans-Serif" font-size="10.00" fill="#000000">uptane_private_key</text>
<text text-anchor="middle" x="555" y="-405" font-family="Helvetica,sans-Serif" font-size="10.00" fill="#000000">_path</text>
<text text-anchor="middle" x="555" y="-394" font-family="Helvetica,sans-Serif" font-size="10.00" fill="#000000">tls_cacert_path</text>
<text text-anchor="middle" x="555" y="-383" font-family="Helvetica,sans-Serif" font-size="10.00" fill="#000000">tls_clientcert_path</text>
</g>
<!-- Node7 -->
<g id="node7" class="node">
<title>Node7</title>
<g id="a_node7"><a xlink:href="struct_tls_config.html" target="_top" xlink:title="TlsConfig">
<polygon fill="#ffffff" stroke="#000000" points="524,-337.5 524,-356.5 586,-356.5 586,-337.5 524,-337.5"/>
<text text-anchor="middle" x="555" y="-344.5" font-family="Helvetica,sans-Serif" font-size="10.00" fill="#000000">TlsConfig</text>
</a>
</g>
</g>
<!-- Node7&#45;&gt;Node2 -->
<g id="edge6" class="edge">
<title>Node7&#45;&gt;Node2</title>
<path fill="none" stroke="#9a32cd" stroke-dasharray="5,2" d="M596.0106,-341.6845C646.8612,-333.6741 734.7877,-315.0789 800,-276 813.7263,-267.7744 826.3174,-254.0845 833.9459,-244.8087"/>
<polygon fill="#9a32cd" stroke="#9a32cd" points="595.4117,-338.2352 586.0482,-343.1926 596.4595,-345.1563 595.4117,-338.2352"/>
<text text-anchor="middle" x="682" y="-337" font-family="Helvetica,sans-Serif" font-size="10.00" fill="#000000"> tls</text>
</g>
<!-- Node8 -->
<g id="node8" class="node">
<title>Node8</title>
<g id="a_node8"><a xlink:title="STL class. ">
<polygon fill="#ffffff" stroke="#bfbfbf" points="141,-175.5 141,-194.5 206,-194.5 206,-175.5 141,-175.5"/>
<text text-anchor="middle" x="173.5" y="-182.5" font-family="Helvetica,sans-Serif" font-size="10.00" fill="#000000">std::string</text>
</a>
</g>
</g>
<!-- Node8&#45;&gt;Node7 -->
<g id="edge7" class="edge">
<title>Node8&#45;&gt;Node7</title>
<path fill="none" stroke="#9a32cd" stroke-dasharray="5,2" d="M176.3213,-204.8139C182.65,-246.1365 199.3788,-339.2408 224,-358 270.3064,-393.2815 450.4632,-365.8638 523.7407,-352.8632"/>
<polygon fill="#9a32cd" stroke="#9a32cd" points="179.7731,-204.2299 174.8448,-194.8511 172.8487,-205.2562 179.7731,-204.2299"/>
<text text-anchor="middle" x="280" y="-378" font-family="Helvetica,sans-Serif" font-size="10.00" fill="#000000"> server</text>
</g>
<!-- Node11 -->
<g id="node11" class="node">
<title>Node11</title>
<g id="a_node11"><a xlink:href="struct_package_config.html" target="_top" xlink:title="PackageConfig">
<polygon fill="#ffffff" stroke="#000000" points="638,-264.5 638,-283.5 726,-283.5 726,-264.5 638,-264.5"/>
<text text-anchor="middle" x="682" y="-271.5" font-family="Helvetica,sans-Serif" font-size="10.00" fill="#000000">PackageConfig</text>
</a>
</g>
</g>
<!-- Node8&#45;&gt;Node11 -->
<g id="edge13" class="edge">
<title>Node8&#45;&gt;Node11</title>
<path fill="none" stroke="#9a32cd" stroke-dasharray="5,2" d="M177.6286,-204.8624C185.4653,-240.4145 203.5524,-312.5697 224,-327 264.6699,-355.7016 286.3918,-331.1057 336,-327 344.0827,-326.3311 345.9818,-325.2188 354,-324 470.2038,-306.3366 500.2117,-308.2081 616,-288 623.5003,-286.691 631.4467,-285.1442 639.1292,-283.5647"/>
<polygon fill="#9a32cd" stroke="#9a32cd" points="180.9737,-203.7689 175.4544,-194.7252 174.1294,-205.2369 180.9737,-203.7689"/>
<text text-anchor="middle" x="415" y="-349" font-family="Helvetica,sans-Serif" font-size="10.00" fill="#000000"> os</text>
<text text-anchor="middle" x="415" y="-338" font-family="Helvetica,sans-Serif" font-size="10.00" fill="#000000">ostree_server</text>
<text text-anchor="middle" x="415" y="-327" font-family="Helvetica,sans-Serif" font-size="10.00" fill="#000000">type</text>
</g>
<!-- Node12 -->
<g id="node12" class="node">
<title>Node12</title>
<polygon fill="#ffffff" stroke="#bfbfbf" points="354,-256 354,-286 476,-286 476,-256 354,-256"/>
<text text-anchor="start" x="362" y="-274" font-family="Helvetica,sans-Serif" font-size="10.00" fill="#000000">std::map&lt; std::string,</text>
<text text-anchor="middle" x="415" y="-263" font-family="Helvetica,sans-Serif" font-size="10.00" fill="#000000"> std::string &gt;</text>
</g>
<!-- Node8&#45;&gt;Node12 -->
<g id="edge12" class="edge">
<title>Node8&#45;&gt;Node12</title>
<path fill="none" stroke="#9a32cd" stroke-dasharray="5,2" d="M177.0603,-204.6579C182.5372,-228.4483 195.5426,-267.4908 224,-285 270.5829,-313.6615 336.1646,-299.7078 377.0944,-286.0716"/>
<polygon fill="#9a32cd" stroke="#9a32cd" points="180.4434,-203.734 174.9932,-194.6486 173.5881,-205.1498 180.4434,-203.734"/>
<text text-anchor="middle" x="280" y="-315" font-family="Helvetica,sans-Serif" font-size="10.00" fill="#000000"> keys</text>
<text text-anchor="middle" x="280" y="-304" font-family="Helvetica,sans-Serif" font-size="10.00" fill="#000000">elements</text>
</g>
<!-- Node13 -->
<g id="node13" class="node">
<title>Node13</title>
<g id="a_node13"><a xlink:href="struct_provision_config.html" target="_top" xlink:title="ProvisionConfig">
<polygon fill="#ffffff" stroke="#000000" points="509,-200.5 509,-219.5 601,-219.5 601,-200.5 509,-200.5"/>
<text text-anchor="middle" x="555" y="-207.5" font-family="Helvetica,sans-Serif" font-size="10.00" fill="#000000">ProvisionConfig</text>
</a>
</g>
</g>
<!-- Node8&#45;&gt;Node13 -->
<g id="edge15" class="edge">
<title>Node8&#45;&gt;Node13</title>
<path fill="none" stroke="#9a32cd" stroke-dasharray="5,2" d="M216.2315,-182.2835C218.8595,-182.1717 221.4651,-182.0752 224,-182 273.7559,-180.5234 286.3228,-178.8372 336,-182 395.8658,-185.8115 464.3814,-195.4271 508.5979,-202.3259"/>
<polygon fill="#9a32cd" stroke="#9a32cd" points="215.9032,-178.7953 206.086,-182.7795 216.245,-185.787 215.9032,-178.7953"/>
<text text-anchor="middle" x="280" y="-273" font-family="Helvetica,sans-Serif" font-size="10.00" fill="#000000"> server</text>
<text text-anchor="middle" x="280" y="-262" font-family="Helvetica,sans-Serif" font-size="10.00" fill="#000000">p12_password</text>
<text text-anchor="start" x="224" y="-251" font-family="Helvetica,sans-Serif" font-size="10.00" fill="#000000">primary_ecu_hardware</text>
<text text-anchor="middle" x="280" y="-240" font-family="Helvetica,sans-Serif" font-size="10.00" fill="#000000">_id</text>
<text text-anchor="middle" x="280" y="-229" font-family="Helvetica,sans-Serif" font-size="10.00" fill="#000000">expiry_days</text>
<text text-anchor="middle" x="280" y="-218" font-family="Helvetica,sans-Serif" font-size="10.00" fill="#000000">device_id</text>
<text text-anchor="start" x="224" y="-207" font-family="Helvetica,sans-Serif" font-size="10.00" fill="#000000">ecu_registration</text>
<text text-anchor="middle" x="280" y="-196" font-family="Helvetica,sans-Serif" font-size="10.00" fill="#000000">_endpoint</text>
<text text-anchor="middle" x="280" y="-185" font-family="Helvetica,sans-Serif" font-size="10.00" fill="#000000">primary_ecu_serial</text>
</g>
<!-- Node14 -->
<g id="node14" class="node">
<title>Node14</title>
<g id="a_node14"><a xlink:href="struct_p11_config.html" target="_top" xlink:title="P11Config">
<polygon fill="#ffffff" stroke="#000000" points="522.5,-148.5 522.5,-167.5 587.5,-167.5 587.5,-148.5 522.5,-148.5"/>
<text text-anchor="middle" x="555" y="-155.5" font-family="Helvetica,sans-Serif" font-size="10.00" fill="#000000">P11Config</text>
</a>
</g>
</g>
<!-- Node8&#45;&gt;Node14 -->
<g id="edge17" class="edge">
<title>Node8&#45;&gt;Node14</title>
<path fill="none" stroke="#9a32cd" stroke-dasharray="5,2" d="M182.3222,-166.2181C190.6662,-150.897 204.7766,-130.3187 224,-121 268.7923,-99.2865 286.3964,-116.8392 336,-121 402.6669,-126.5921 479.5608,-141.5992 522.1977,-150.6911"/>
<polygon fill="#9a32cd" stroke="#9a32cd" points="179.0885,-164.8557 177.6758,-175.3559 185.3282,-168.0284 179.0885,-164.8557"/>
<text text-anchor="middle" x="280" y="-168" font-family="Helvetica,sans-Serif" font-size="10.00" fill="#000000"> tls_pkey_id</text>
<text text-anchor="middle" x="280" y="-157" font-family="Helvetica,sans-Serif" font-size="10.00" fill="#000000">tls_clientcert_id</text>
<text text-anchor="middle" x="280" y="-146" font-family="Helvetica,sans-Serif" font-size="10.00" fill="#000000">pass</text>
<text text-anchor="middle" x="280" y="-135" font-family="Helvetica,sans-Serif" font-size="10.00" fill="#000000">uptane_key_id</text>
<text text-anchor="middle" x="280" y="-124" font-family="Helvetica,sans-Serif" font-size="10.00" fill="#000000">tls_cacert_id</text>
</g>
<!-- Node15 -->
<g id="node15" class="node">
<title>Node15</title>
<g id="a_node15"><a xlink:href="struct_uptane_config.html" target="_top" xlink:title="UptaneConfig">
<polygon fill="#ffffff" stroke="#000000" points="513.5,-120.5 513.5,-139.5 596.5,-139.5 596.5,-120.5 513.5,-120.5"/>
<text text-anchor="middle" x="555" y="-127.5" font-family="Helvetica,sans-Serif" font-size="10.00" fill="#000000">UptaneConfig</text>
</a>
</g>
</g>
<!-- Node8&#45;&gt;Node15 -->
<g id="edge19" class="edge">
<title>Node8&#45;&gt;Node15</title>
<path fill="none" stroke="#9a32cd" stroke-dasharray="5,2" d="M176.9981,-165.1526C182.411,-141.1316 195.3509,-101.7061 224,-84 273.7228,-53.2696 450.2392,-99.4145 523.143,-120.4549"/>
<polygon fill="#9a32cd" stroke="#9a32cd" points="173.506,-164.7642 174.9602,-175.2587 180.3679,-166.1479 173.506,-164.7642"/>
<text text-anchor="middle" x="280" y="-98" font-family="Helvetica,sans-Serif" font-size="10.00" fill="#000000"> repo_server</text>
<text text-anchor="middle" x="280" y="-87" font-family="Helvetica,sans-Serif" font-size="10.00" fill="#000000">director_server</text>
</g>
<!-- Node18 -->
<g id="node18" class="node">
<title>Node18</title>
<g id="a_node18"><a xlink:href="struct_bootloader_config.html" target="_top" xlink:title="BootloaderConfig">
<polygon fill="#ffffff" stroke="#000000" points="364.5,-14.5 364.5,-33.5 465.5,-33.5 465.5,-14.5 364.5,-14.5"/>
<text text-anchor="middle" x="415" y="-21.5" font-family="Helvetica,sans-Serif" font-size="10.00" fill="#000000">BootloaderConfig</text>
</a>
</g>
</g>
<!-- Node8&#45;&gt;Node18 -->
<g id="edge24" class="edge">
<title>Node8&#45;&gt;Node18</title>
<path fill="none" stroke="#9a32cd" stroke-dasharray="5,2" d="M176.9739,-165.3469C184.1461,-127.2434 201.7957,-45.5994 224,-29 270.095,5.4596 341.4405,-4.4931 382.6378,-14.4867"/>
<polygon fill="#9a32cd" stroke="#9a32cd" points="173.5183,-164.787 175.1619,-175.2536 180.4041,-166.0465 173.5183,-164.787"/>
<text text-anchor="middle" x="280" y="-32" font-family="Helvetica,sans-Serif" font-size="10.00" fill="#000000"> reboot_command</text>
</g>
<!-- Node9 -->
<g id="node9" class="node">
<title>Node9</title>
<g id="a_node9"><a xlink:title="STL class. ">
<polygon fill="#ffffff" stroke="#bfbfbf" points="0,-170 0,-200 104,-200 104,-170 0,-170"/>
<text text-anchor="start" x="8" y="-188" font-family="Helvetica,sans-Serif" font-size="10.00" fill="#000000">std::basic_string&lt;</text>
<text text-anchor="middle" x="52" y="-177" font-family="Helvetica,sans-Serif" font-size="10.00" fill="#000000"> char &gt;</text>
</a>
</g>
</g>
<!-- Node9&#45;&gt;Node8 -->
<g id="edge8" class="edge">
<title>Node9&#45;&gt;Node8</title>
<path fill="none" stroke="#191970" d="M114.2382,-185C123.4802,-185 132.6763,-185 140.9702,-185"/>
<polygon fill="#191970" stroke="#191970" points="114.2321,-181.5001 104.2321,-185 114.232,-188.5001 114.2321,-181.5001"/>
</g>
<!-- Node10 -->
<g id="node10" class="node">
<title>Node10</title>
<g id="a_node10"><a xlink:href="struct_logger_config.html" target="_top" xlink:title="LoggerConfig">
<polygon fill="#ffffff" stroke="#000000" points="642,-38.5 642,-57.5 722,-57.5 722,-38.5 642,-38.5"/>
<text text-anchor="middle" x="682" y="-45.5" font-family="Helvetica,sans-Serif" font-size="10.00" fill="#000000">LoggerConfig</text>
</a>
</g>
</g>
<!-- Node10&#45;&gt;Node2 -->
<g id="edge9" class="edge">
<title>Node10&#45;&gt;Node2</title>
<path fill="none" stroke="#9a32cd" stroke-dasharray="5,2" d="M732.2328,-45.1213C755.5629,-46.4721 782.0457,-52.2413 800,-69 823.3449,-90.7904 836.7492,-193.0658 840.4439,-225.2669"/>
<polygon fill="#9a32cd" stroke="#9a32cd" points="732.2295,-41.6194 722.1204,-44.7905 732.0007,-48.6157 732.2295,-41.6194"/>
<text text-anchor="middle" x="774" y="-72" font-family="Helvetica,sans-Serif" font-size="10.00" fill="#000000"> logger</text>
</g>
<!-- Node11&#45;&gt;Node2 -->
<g id="edge10" class="edge">
<title>Node11&#45;&gt;Node2</title>
<path fill="none" stroke="#9a32cd" stroke-dasharray="5,2" d="M735.9747,-263.9427C756.1849,-259.8165 779.265,-254.6732 800,-249 805.8674,-247.3947 812.1204,-245.4255 817.945,-243.4766"/>
<polygon fill="#9a32cd" stroke="#9a32cd" points="735.1176,-260.5448 726.0021,-265.9446 736.4954,-267.4079 735.1176,-260.5448"/>
<text text-anchor="middle" x="774" y="-264" font-family="Helvetica,sans-Serif" font-size="10.00" fill="#000000"> pacman</text>
</g>
<!-- Node12&#45;&gt;Node11 -->
<g id="edge11" class="edge">
<title>Node12&#45;&gt;Node11</title>
<path fill="none" stroke="#9a32cd" stroke-dasharray="5,2" d="M486.3061,-271.8012C534.455,-272.3422 596.5039,-273.0394 637.6857,-273.5021"/>
<polygon fill="#9a32cd" stroke="#9a32cd" points="486.2939,-268.3009 476.2552,-271.6883 486.2152,-275.3005 486.2939,-268.3009"/>
<text text-anchor="middle" x="555" y="-276" font-family="Helvetica,sans-Serif" font-size="10.00" fill="#000000"> extra</text>
</g>
<!-- Node13&#45;&gt;Node2 -->
<g id="edge14" class="edge">
<title>Node13&#45;&gt;Node2</title>
<path fill="none" stroke="#9a32cd" stroke-dasharray="5,2" d="M611.182,-214.9024C674.0623,-220.3894 773.0043,-229.0231 817.9194,-232.9424"/>
<polygon fill="#9a32cd" stroke="#9a32cd" points="611.2976,-211.3993 601.0312,-214.0167 610.689,-218.3728 611.2976,-211.3993"/>
<text text-anchor="middle" x="682" y="-228" font-family="Helvetica,sans-Serif" font-size="10.00" fill="#000000"> provision</text>
</g>
<!-- Node14&#45;&gt;Node2 -->
<g id="edge16" class="edge">
<title>Node14&#45;&gt;Node2</title>
<path fill="none" stroke="#9a32cd" stroke-dasharray="5,2" d="M597.699,-168.2121C633.2119,-176.831 685.0336,-189.6985 730,-202 760.3766,-210.3101 795.1359,-220.7464 817.6565,-227.6318"/>
<polygon fill="#9a32cd" stroke="#9a32cd" points="598.2239,-164.7382 587.6812,-165.7885 596.5778,-171.5419 598.2239,-164.7382"/>
<text text-anchor="middle" x="682" y="-205" font-family="Helvetica,sans-Serif" font-size="10.00" fill="#000000"> p11</text>
</g>
<!-- Node15&#45;&gt;Node2 -->
<g id="edge18" class="edge">
<title>Node15&#45;&gt;Node2</title>
<path fill="none" stroke="#9a32cd" stroke-dasharray="5,2" d="M606.8832,-134.6873C642.3865,-139.0436 690.0729,-147.1827 730,-162 770.7807,-177.134 811.7974,-209.4093 830.7102,-225.4878"/>
<polygon fill="#9a32cd" stroke="#9a32cd" points="607.0828,-131.187 596.7447,-133.5051 606.272,-138.1399 607.0828,-131.187"/>
<text text-anchor="middle" x="682" y="-165" font-family="Helvetica,sans-Serif" font-size="10.00" fill="#000000"> uptane</text>
</g>
<!-- Node16 -->
<g id="node16" class="node">
<title>Node16</title>
<g id="a_node16"><a xlink:href="struct_telemetry_config.html" target="_top" xlink:title="The TelemetryConfig struct Report device network information: IP address, hostname, MAC address. ">
<polygon fill="#ffffff" stroke="#000000" points="634,-.5 634,-19.5 730,-19.5 730,-.5 634,-.5"/>
<text text-anchor="middle" x="682" y="-7.5" font-family="Helvetica,sans-Serif" font-size="10.00" fill="#000000">TelemetryConfig</text>
</a>
</g>
</g>
<!-- Node16&#45;&gt;Node2 -->
<g id="edge20" class="edge">
<title>Node16&#45;&gt;Node2</title>
<path fill="none" stroke="#9a32cd" stroke-dasharray="5,2" d="M740.2479,-7.9036C761.6009,-10.1661 784.3466,-16.6156 800,-32 828.1569,-59.6731 838.5388,-189.1311 840.9268,-225.4843"/>
<polygon fill="#9a32cd" stroke="#9a32cd" points="740.4827,-4.4114 730.2413,-7.1248 739.9396,-11.3903 740.4827,-4.4114"/>
<text text-anchor="middle" x="774" y="-35" font-family="Helvetica,sans-Serif" font-size="10.00" fill="#000000"> telemetry</text>
</g>
<!-- Node17&#45;&gt;Node2 -->
<g id="edge21" class="edge">
<title>Node17&#45;&gt;Node2</title>
<path fill="none" stroke="#9a32cd" stroke-dasharray="5,2" d="M732.2306,-374.2197C755.315,-370.543 781.5897,-362.6408 800,-346 830.5254,-318.4084 838.6845,-266.1796 840.7934,-244.6499"/>
<polygon fill="#9a32cd" stroke="#9a32cd" points="731.6606,-370.765 722.2277,-375.589 732.6101,-377.7003 731.6606,-370.765"/>
<text text-anchor="middle" x="774" y="-373" font-family="Helvetica,sans-Serif" font-size="10.00" fill="#000000"> import</text>
</g>
<!-- Node18&#45;&gt;Node2 -->
<g id="edge23" class="edge">
<title>Node18&#45;&gt;Node2</title>
<path fill="none" stroke="#9a32cd" stroke-dasharray="5,2" d="M466.248,-35.9558C529.7887,-51.7097 640.6297,-82.2631 730,-123 763.2234,-138.1439 774.3033,-140.0613 800,-166 817.7087,-183.8755 831.0315,-210.7261 837.3812,-225.0932"/>
<polygon fill="#9a32cd" stroke="#9a32cd" points="467.0128,-32.5397 456.4667,-33.5552 465.3442,-39.338 467.0128,-32.5397"/>
<text text-anchor="middle" x="682" y="-126" font-family="Helvetica,sans-Serif" font-size="10.00" fill="#000000"> bootloader</text>
</g>
</g>
</svg>
        <g id="navigator" transform="translate(0 0)" fill="#404254">
                <rect fill="#f2f5e9" fill-opacity="0.5" stroke="#606060" stroke-width=".5" x="0" y="0" width="60" height="60"/>
                <use id="zoomplus" xlink:href="#zoomPlus" x="17" y="9" onmousedown="handleZoom(evt,'in')"/>
                <use id="zoomminus" xlink:href="#zoomMin" x="42" y="9" onmousedown="handleZoom(evt,'out')"/>
                <use id="reset" xlink:href="#resetDef" x="30" y="36" onmousedown="handleReset()"/>
                <g id="arrowUp" xlink:href="#dirArrow" transform="translate(30 24)" onmousedown="handlePan(0,-1)">
                  <use xlink:href="#rim" fill="#404040">
                        <set attributeName="fill" to="#808080" begin="arrowUp.mouseover" end="arrowUp.mouseout"/>
                  </use>
                  <path fill="none" stroke="white" stroke-width="1.5" d="M0,-3.0v7 M-2.5,-0.5L0,-3.0L2.5,-0.5"/>
                </g>
                <g id="arrowRight" xlink:href="#dirArrow" transform="rotate(90) translate(36 -43)" onmousedown="handlePan(1,0)">
                  <use xlink:href="#rim" fill="#404040">
                        <set attributeName="fill" to="#808080" begin="arrowRight.mouseover" end="arrowRight.mouseout"/>
                  </use>
                  <path fill="none" stroke="white" stroke-width="1.5" d="M0,-3.0v7 M-2.5,-0.5L0,-3.0L2.5,-0.5"/>
                </g>
                <g id="arrowDown" xlink:href="#dirArrow" transform="rotate(180) translate(-30 -48)" onmousedown="handlePan(0,1)">
                  <use xlink:href="#rim" fill="#404040">
                        <set attributeName="fill" to="#808080" begin="arrowDown.mouseover" end="arrowDown.mouseout"/>
                  </use>
                  <path fill="none" stroke="white" stroke-width="1.5" d="M0,-3.0v7 M-2.5,-0.5L0,-3.0L2.5,-0.5"/>
                </g>
                <g id="arrowLeft" xlink:href="#dirArrow" transform="rotate(270) translate(-36 17)" onmousedown="handlePan(-1,0)">
                  <use xlink:href="#rim" fill="#404040">
                        <set attributeName="fill" to="#808080" begin="arrowLeft.mouseover" end="arrowLeft.mouseout"/>
                  </use>
                  <path fill="none" stroke="white" stroke-width="1.5" d="M0,-3.0v7 M-2.5,-0.5L0,-3.0L2.5,-0.5"/>
                </g>
        </g>
        <svg viewBox="0 0 15 15" width="100%" height="30px" preserveAspectRatio="xMaxYMin meet">
         <g id="arrow_out" transform="scale(0.3 0.3)">
          <a xlink:href="struct_lite_client__coll__graph_org.svg" target="_base">
           <rect id="button" ry="5" rx="5" y="6" x="6" height="38" width="38"
                fill="#f2f5e9" fill-opacity="0.5" stroke="#606060" stroke-width="1.0"/>
           <path id="arrow"
             d="M 11.500037,31.436501 C 11.940474,20.09759 22.043105,11.32322 32.158766,21.979434 L 37.068811,17.246167 C 37.068811,17.246167 37.088388,32 37.088388,32 L 22.160133,31.978069 C 22.160133,31.978069 26.997745,27.140456 26.997745,27.140456 C 18.528582,18.264221 13.291696,25.230495 11.500037,31.436501 z"
             style="fill:#404040;"/>
          </a>
         </g>
        </svg>
</svg>
