<?xml version="1.0" encoding="UTF-8" standalone="no"?>
<!DOCTYPE svg PUBLIC "-//W3C//DTD SVG 1.1//EN"
 "http://www.w3.org/Graphics/SVG/1.1/DTD/svg11.dtd">
<!-- Generated by graphviz version 2.40.1 (20161225.0304)
 -->
<!-- Title: DownloadMetaStruct Pages: 1 -->
<svg width="288pt" height="173pt"
 viewBox="0.00 0.00 288.00 173.00" xmlns="http://www.w3.org/2000/svg" xmlns:xlink="http://www.w3.org/1999/xlink">
<g id="graph0" class="graph" transform="scale(1 1) rotate(0) translate(4 169)">
<title>DownloadMetaStruct</title>
<polygon fill="#ffffff" stroke="transparent" points="-4,4 -4,-169 284,-169 284,4 -4,4"/>
<!-- Node1 -->
<g id="node1" class="node">
<title>Node1</title>
<polygon fill="#bfbfbf" stroke="#000000" points="121,-.5 121,-19.5 239,-19.5 239,-.5 121,-.5"/>
<text text-anchor="middle" x="180" y="-7.5" font-family="Helvetica,sans-Serif" font-size="10.00" fill="#000000">DownloadMetaStruct</text>
</g>
<!-- Node2 -->
<g id="node2" class="node">
<title>Node2</title>
<polygon fill="#ffffff" stroke="#bfbfbf" points="0,-67.5 0,-97.5 138,-97.5 138,-67.5 0,-67.5"/>
<text text-anchor="start" x="8" y="-85.5" font-family="Helvetica,sans-Serif" font-size="10.00" fill="#000000">std::unique_ptr&lt; Storage</text>
<text text-anchor="middle" x="69" y="-74.5" font-family="Helvetica,sans-Serif" font-size="10.00" fill="#000000">TargetWHandle &gt;</text>
</g>
<!-- Node2&#45;&gt;Node1 -->
<g id="edge1" class="edge">
<title>Node2&#45;&gt;Node1</title>
<path fill="none" stroke="#9a32cd" stroke-dasharray="5,2" d="M100.3996,-61.9912C121.6318,-48.1234 148.704,-30.4411 165.1758,-19.6825"/>
<polygon fill="#9a32cd" stroke="#9a32cd" points="98.4577,-59.0792 91.9993,-67.478 102.2856,-64.9398 98.4577,-59.0792"/>
<text text-anchor="middle" x="155" y="-41" font-family="Helvetica,sans-Serif" font-size="10.00" fill="#000000"> fhandle</text>
</g>
<!-- Node3 -->
<g id="node3" class="node">
<title>Node3</title>
<g id="a_node3"><a xlink:href="class_storage_target_w_handle.html" target="_top" xlink:title="StorageTargetWHandle">
<polygon fill="#ffffff" stroke="#000000" points="5,-145.5 5,-164.5 133,-164.5 133,-145.5 5,-145.5"/>
<text text-anchor="middle" x="69" y="-152.5" font-family="Helvetica,sans-Serif" font-size="10.00" fill="#000000">StorageTargetWHandle</text>
</a>
</g>
</g>
<!-- Node3&#45;&gt;Node2 -->
<g id="edge2" class="edge">
<title>Node3&#45;&gt;Node2</title>
<path fill="none" stroke="#9a32cd" stroke-dasharray="5,2" d="M69,-135.0177C69,-123.2164 69,-108.513 69,-97.668"/>
<polygon fill="#9a32cd" stroke="#9a32cd" points="65.5001,-135.2223 69,-145.2223 72.5001,-135.2224 65.5001,-135.2223"/>
<text text-anchor="middle" x="77.5" y="-119" font-family="Helvetica,sans-Serif" font-size="10.00" fill="#000000"> ptr</text>
</g>
<!-- Node4 -->
<g id="node4" class="node">
<title>Node4</title>
<g id="a_node4"><a xlink:href="classapi_1_1_flow_control_token.html" target="_top" xlink:title="Provides a thread&#45;safe way to pause and terminate task execution. ">
<polygon fill="#ffffff" stroke="#000000" points="156,-73 156,-92 280,-92 280,-73 156,-73"/>
<text text-anchor="middle" x="218" y="-80" font-family="Helvetica,sans-Serif" font-size="10.00" fill="#000000">api::FlowControlToken</text>
</a>
</g>
</g>
<!-- Node4&#45;&gt;Node1 -->
<g id="edge3" class="edge">
<title>Node4&#45;&gt;Node1</title>
<path fill="none" stroke="#9a32cd" stroke-dasharray="5,2" d="M208.2196,-63.8401C200.8107,-49.7046 190.9329,-30.8588 185.0437,-19.6228"/>
<polygon fill="#9a32cd" stroke="#9a32cd" points="205.1327,-65.49 212.8752,-72.7223 211.3327,-62.2404 205.1327,-65.49"/>
<text text-anchor="middle" x="215.5" y="-41" font-family="Helvetica,sans-Serif" font-size="10.00" fill="#000000"> token</text>
</g>
</g>
</svg>
