<?xml version="1.0" encoding="UTF-8" standalone="no"?>
<!DOCTYPE svg PUBLIC "-//W3C//DTD SVG 1.1//EN"
 "http://www.w3.org/Graphics/SVG/1.1/DTD/svg11.dtd">
<!-- Generated by graphviz version 2.43.0 (0)
 -->
<!-- Title: Uptane::LazyTargetsList::DelegatedTargetTreeNode Pages: 1 -->
<svg width="1058pt" height="95pt"
 viewBox="0.00 0.00 1058.00 95.00" xmlns="http://www.w3.org/2000/svg" xmlns:xlink="http://www.w3.org/1999/xlink">
<g id="graph0" class="graph" transform="scale(1 1) rotate(0) translate(4 91)">
<title>Uptane::LazyTargetsList::DelegatedTargetTreeNode</title>
<polygon fill="white" stroke="transparent" points="-4,4 -4,-91 1054,-91 1054,4 -4,4"/>
<!-- Node1 -->
<g id="node1" class="node">
<title>Node1</title>
<g id="a_node1"><a xlink:title=" ">
<polygon fill="#bfbfbf" stroke="black" points="438,-6 438,-36 587,-36 587,-6 438,-6"/>
<text text-anchor="start" x="446" y="-24" font-family="Helvetica,sans-Serif" font-size="10.00">Uptane::LazyTargetsList</text>
<text text-anchor="middle" x="512.5" y="-13" font-family="Helvetica,sans-Serif" font-size="10.00">::DelegatedTargetTreeNode</text>
</a>
</g>
</g>
<!-- Node1&#45;&gt;Node1 -->
<g id="edge7" class="edge">
<title>Node1&#45;&gt;Node1</title>
<path fill="none" stroke="#9a32cd" stroke-dasharray="5,2" d="M494.73,-46.46C496.94,-51.18 502.86,-54.5 512.5,-54.5 528.32,-54.5 534.13,-45.56 529.93,-36.16"/>
<polygon fill="#9a32cd" stroke="#9a32cd" points="498.24,-46.27 495.07,-36.16 491.24,-46.04 498.24,-46.27"/>
<text text-anchor="middle" x="512.5" y="-57.5" font-family="Helvetica,sans-Serif" font-size="10.00"> parent</text>
</g>
<!-- Node3 -->
<g id="node3" class="node">
<title>Node3</title>
<g id="a_node3"><a xlink:title=" ">
<polygon fill="white" stroke="#bfbfbf" points="640,-45.5 640,-86.5 794,-86.5 794,-45.5 640,-45.5"/>
<text text-anchor="start" x="648" y="-74.5" font-family="Helvetica,sans-Serif" font-size="10.00">std::shared_ptr&lt; Uptane</text>
<text text-anchor="start" x="648" y="-63.5" font-family="Helvetica,sans-Serif" font-size="10.00">::LazyTargetsList::Delegated</text>
<text text-anchor="middle" x="717" y="-52.5" font-family="Helvetica,sans-Serif" font-size="10.00">TargetTreeNode &gt;</text>
</a>
</g>
</g>
<!-- Node1&#45;&gt;Node3 -->
<g id="edge3" class="edge">
<title>Node1&#45;&gt;Node3</title>
<path fill="none" stroke="#9a32cd" stroke-dasharray="5,2" d="M591.07,-38.24C607.11,-41.8 623.99,-45.55 639.97,-49.11"/>
<polygon fill="#9a32cd" stroke="#9a32cd" points="591.73,-34.8 581.21,-36.05 590.21,-41.63 591.73,-34.8"/>
<text text-anchor="middle" x="613.5" y="-47" font-family="Helvetica,sans-Serif" font-size="10.00"> ptr</text>
</g>
<!-- Node2 -->
<g id="node2" class="node">
<title>Node2</title>
<g id="a_node2"><a xlink:title=" ">
<polygon fill="white" stroke="#bfbfbf" points="879,-0.5 879,-41.5 1050,-41.5 1050,-0.5 879,-0.5"/>
<text text-anchor="start" x="887" y="-29.5" font-family="Helvetica,sans-Serif" font-size="10.00">std::vector&lt; std::shared</text>
<text text-anchor="start" x="887" y="-18.5" font-family="Helvetica,sans-Serif" font-size="10.00">_ptr&lt; Uptane::LazyTargetsList</text>
<text text-anchor="middle" x="964.5" y="-7.5" font-family="Helvetica,sans-Serif" font-size="10.00">::DelegatedTargetTreeNode &gt; &gt;</text>
</a>
</g>
</g>
<!-- Node2&#45;&gt;Node1 -->
<g id="edge1" class="edge">
<title>Node2&#45;&gt;Node1</title>
<path fill="none" stroke="#9a32cd" stroke-dasharray="5,2" d="M868.33,-16.38C844.09,-15.39 818.09,-14.5 794,-14 725.57,-12.59 708.42,-12.11 640,-14 622.85,-14.47 604.41,-15.31 587.05,-16.24"/>
<polygon fill="#9a32cd" stroke="#9a32cd" points="868.46,-19.89 878.6,-16.81 868.75,-12.89 868.46,-19.89"/>
<text text-anchor="middle" x="717" y="-28" font-family="Helvetica,sans-Serif" font-size="10.00"> parent_idx</text>
<text text-anchor="middle" x="717" y="-17" font-family="Helvetica,sans-Serif" font-size="10.00">children</text>
</g>
<!-- Node3&#45;&gt;Node2 -->
<g id="edge2" class="edge">
<title>Node3&#45;&gt;Node2</title>
<path fill="none" stroke="#9a32cd" stroke-dasharray="5,2" d="M804.19,-50.2C828.35,-45.77 854.58,-40.96 878.66,-36.55"/>
<polygon fill="#9a32cd" stroke="#9a32cd" points="803.54,-46.76 794.33,-52.01 804.8,-53.65 803.54,-46.76"/>
<text text-anchor="middle" x="836.5" y="-50" font-family="Helvetica,sans-Serif" font-size="10.00"> elements</text>
</g>
<!-- Node4 -->
<g id="node4" class="node">
<title>Node4</title>
<g id="a_node4"><a xlink:href="class_uptane_1_1_role.html" target="_top" xlink:title="TUF Roles.">
<polygon fill="white" stroke="black" points="300,-11.5 300,-30.5 380,-30.5 380,-11.5 300,-11.5"/>
<text text-anchor="middle" x="340" y="-18.5" font-family="Helvetica,sans-Serif" font-size="10.00">Uptane::Role</text>
</a>
</g>
</g>
<!-- Node4&#45;&gt;Node1 -->
<g id="edge4" class="edge">
<title>Node4&#45;&gt;Node1</title>
<path fill="none" stroke="#9a32cd" stroke-dasharray="5,2" d="M390.51,-21C405.26,-21 421.75,-21 437.69,-21"/>
<polygon fill="#9a32cd" stroke="#9a32cd" points="390.12,-17.5 380.12,-21 390.12,-24.5 390.12,-17.5"/>
<text text-anchor="middle" x="409" y="-24" font-family="Helvetica,sans-Serif" font-size="10.00"> role</text>
</g>
<!-- Node5 -->
<g id="node5" class="node">
<title>Node5</title>
<g id="a_node5"><a xlink:title="STL class.">
<polygon fill="white" stroke="#bfbfbf" points="141,-11.5 141,-30.5 206,-30.5 206,-11.5 141,-11.5"/>
<text text-anchor="middle" x="173.5" y="-18.5" font-family="Helvetica,sans-Serif" font-size="10.00">std::string</text>
</a>
</g>
</g>
<!-- Node5&#45;&gt;Node4 -->
<g id="edge5" class="edge">
<title>Node5&#45;&gt;Node4</title>
<path fill="none" stroke="#9a32cd" stroke-dasharray="5,2" d="M216.39,-21C242.05,-21 274.69,-21 299.83,-21"/>
<polygon fill="#9a32cd" stroke="#9a32cd" points="216.22,-17.5 206.22,-21 216.22,-24.5 216.22,-17.5"/>
<text text-anchor="middle" x="253" y="-57" font-family="Helvetica,sans-Serif" font-size="10.00"> ROOT</text>
<text text-anchor="middle" x="253" y="-46" font-family="Helvetica,sans-Serif" font-size="10.00">TIMESTAMP</text>
<text text-anchor="middle" x="253" y="-35" font-family="Helvetica,sans-Serif" font-size="10.00">SNAPSHOT</text>
<text text-anchor="middle" x="253" y="-24" font-family="Helvetica,sans-Serif" font-size="10.00">TARGETS</text>
</g>
<!-- Node6 -->
<g id="node6" class="node">
<title>Node6</title>
<g id="a_node6"><a xlink:title="STL class.">
<polygon fill="white" stroke="#bfbfbf" points="0,-6 0,-36 104,-36 104,-6 0,-6"/>
<text text-anchor="start" x="8" y="-24" font-family="Helvetica,sans-Serif" font-size="10.00">std::basic_string&lt;</text>
<text text-anchor="middle" x="52" y="-13" font-family="Helvetica,sans-Serif" font-size="10.00"> char &gt;</text>
</a>
</g>
</g>
<!-- Node6&#45;&gt;Node5 -->
<g id="edge6" class="edge">
<title>Node6&#45;&gt;Node5</title>
<path fill="none" stroke="midnightblue" d="M114.1,-21C123.41,-21 132.68,-21 141,-21"/>
<polygon fill="midnightblue" stroke="midnightblue" points="114.03,-17.5 104.03,-21 114.03,-24.5 114.03,-17.5"/>
</g>
</g>
</svg>
