<?xml version="1.0" encoding="UTF-8" standalone="no"?>
<!DOCTYPE svg PUBLIC "-//W3C//DTD SVG 1.1//EN"
 "http://www.w3.org/Graphics/SVG/1.1/DTD/svg11.dtd">
<!-- Generated by graphviz version 2.43.0 (0)
 -->
<!-- Title: ImportConfig Pages: 1 -->
<svg width="177pt" height="150pt"
 viewBox="0.00 0.00 176.50 150.00" xmlns="http://www.w3.org/2000/svg" xmlns:xlink="http://www.w3.org/1999/xlink">
<g id="graph0" class="graph" transform="scale(1 1) rotate(0) translate(4 146)">
<title>ImportConfig</title>
<polygon fill="white" stroke="transparent" points="-4,4 -4,-146 172.5,-146 172.5,4 -4,4"/>
<!-- Node1 -->
<g id="node1" class="node">
<title>Node1</title>
<g id="a_node1"><a xlink:title=" ">
<polygon fill="#bfbfbf" stroke="black" points="7.5,-0.5 7.5,-19.5 87.5,-19.5 87.5,-0.5 7.5,-0.5"/>
<text text-anchor="middle" x="47.5" y="-7.5" font-family="Helvetica,sans-Serif" font-size="10.00">ImportConfig</text>
</a>
</g>
</g>
<!-- Node2 -->
<g id="node2" class="node">
<title>Node2</title>
<g id="a_node2"><a xlink:href="classutils_1_1_based_path.html" target="_top" xlink:title="The BasedPath class Can represent an absolute or relative path, only readable through the BasePath::g...">
<polygon fill="white" stroke="black" points="0,-122.5 0,-141.5 95,-141.5 95,-122.5 0,-122.5"/>
<text text-anchor="middle" x="47.5" y="-129.5" font-family="Helvetica,sans-Serif" font-size="10.00">utils::BasedPath</text>
</a>
</g>
</g>
<!-- Node2&#45;&gt;Node1 -->
<g id="edge1" class="edge">
<title>Node2&#45;&gt;Node1</title>
<path fill="none" stroke="#9a32cd" stroke-dasharray="5,2" d="M47.5,-112.15C47.5,-85.72 47.5,-38.76 47.5,-19.55"/>
<polygon fill="#9a32cd" stroke="#9a32cd" points="44,-112.37 47.5,-122.37 51,-112.37 44,-112.37"/>
<text text-anchor="middle" x="108" y="-96" font-family="Helvetica,sans-Serif" font-size="10.00"> uptane_public_key_path</text>
<text text-anchor="middle" x="108" y="-85" font-family="Helvetica,sans-Serif" font-size="10.00">tls_pkey_path</text>
<text text-anchor="start" x="47.5" y="-74" font-family="Helvetica,sans-Serif" font-size="10.00">uptane_private_key</text>
<text text-anchor="middle" x="108" y="-63" font-family="Helvetica,sans-Serif" font-size="10.00">_path</text>
<text text-anchor="middle" x="108" y="-52" font-family="Helvetica,sans-Serif" font-size="10.00">tls_cacert_path</text>
<text text-anchor="middle" x="108" y="-41" font-family="Helvetica,sans-Serif" font-size="10.00">tls_clientcert_path</text>
</g>
</g>
</svg>
