<?xml version="1.0" encoding="UTF-8" standalone="no"?>
<!DOCTYPE svg PUBLIC "-//W3C//DTD SVG 1.1//EN"
 "http://www.w3.org/Graphics/SVG/1.1/DTD/svg11.dtd">
<!-- Generated by graphviz version 2.40.1 (20161225.0304)
 -->
<!-- Title: Uptane::MetaPack Pages: 1 -->
<svg width="1494pt" height="390pt"
 viewBox="0.00 0.00 1494.00 390.42" xmlns="http://www.w3.org/2000/svg" xmlns:xlink="http://www.w3.org/1999/xlink">
<g id="graph0" class="graph" transform="scale(1 1) rotate(0) translate(4 386.4211)">
<title>Uptane::MetaPack</title>
<polygon fill="#ffffff" stroke="transparent" points="-4,4 -4,-386.4211 1490,-386.4211 1490,4 -4,4"/>
<!-- Node1 -->
<g id="node1" class="node">
<title>Node1</title>
<polygon fill="#bfbfbf" stroke="#000000" points="1382,-279.9211 1382,-298.9211 1486,-298.9211 1486,-279.9211 1382,-279.9211"/>
<text text-anchor="middle" x="1434" y="-286.9211" font-family="Helvetica,sans-Serif" font-size="10.00" fill="#000000">Uptane::MetaPack</text>
</g>
<!-- Node2 -->
<g id="node2" class="node">
<title>Node2</title>
<g id="a_node2"><a xlink:href="class_uptane_1_1_targets.html" target="_top" xlink:title="Uptane::Targets">
<polygon fill="#ffffff" stroke="#000000" points="1172,-122.9211 1172,-141.9211 1265,-141.9211 1265,-122.9211 1172,-122.9211"/>
<text text-anchor="middle" x="1218.5" y="-129.9211" font-family="Helvetica,sans-Serif" font-size="10.00" fill="#000000">Uptane::Targets</text>
</a>
</g>
</g>
<!-- Node2&#45;&gt;Node1 -->
<g id="edge1" class="edge">
<title>Node2&#45;&gt;Node1</title>
<path fill="none" stroke="#9a32cd" stroke-dasharray="5,2" d="M1239.9722,-148.0644C1284.2626,-180.3316 1384.6287,-253.4522 1420.7423,-279.7623"/>
<polygon fill="#9a32cd" stroke="#9a32cd" points="1241.7996,-145.0654 1231.6561,-142.0058 1237.6776,-150.7231 1241.7996,-145.0654"/>
<text text-anchor="middle" x="1323.5" y="-247.4211" font-family="Helvetica,sans-Serif" font-size="10.00" fill="#000000"> director_targets</text>
<text text-anchor="middle" x="1323.5" y="-236.4211" font-family="Helvetica,sans-Serif" font-size="10.00" fill="#000000">image_targets</text>
</g>
<!-- Node3 -->
<g id="node3" class="node">
<title>Node3</title>
<g id="a_node3"><a xlink:href="class_uptane_1_1_meta_with_keys.html" target="_top" xlink:title="Uptane::MetaWithKeys">
<polygon fill="#ffffff" stroke="#000000" points="871,-242.9211 871,-261.9211 999,-261.9211 999,-242.9211 871,-242.9211"/>
<text text-anchor="middle" x="935" y="-249.9211" font-family="Helvetica,sans-Serif" font-size="10.00" fill="#000000">Uptane::MetaWithKeys</text>
</a>
</g>
</g>
<!-- Node3&#45;&gt;Node2 -->
<g id="edge2" class="edge">
<title>Node3&#45;&gt;Node2</title>
<path fill="none" stroke="#191970" d="M970.9083,-239.3512C1014.6512,-223.1571 1090.5642,-194.1712 1154,-165.4211 1170.154,-158.0999 1188.08,-148.8326 1200.9257,-141.9839"/>
<polygon fill="#191970" stroke="#191970" points="969.4646,-236.1531 961.2929,-242.8966 971.8863,-242.7209 969.4646,-236.1531"/>
</g>
<!-- Node20 -->
<g id="node20" class="node">
<title>Node20</title>
<g id="a_node20"><a xlink:href="class_uptane_1_1_root.html" target="_top" xlink:title="Uptane::Root">
<polygon fill="#ffffff" stroke="#000000" points="1178.5,-246.9211 1178.5,-265.9211 1258.5,-265.9211 1258.5,-246.9211 1178.5,-246.9211"/>
<text text-anchor="middle" x="1218.5" y="-253.9211" font-family="Helvetica,sans-Serif" font-size="10.00" fill="#000000">Uptane::Root</text>
</a>
</g>
</g>
<!-- Node3&#45;&gt;Node20 -->
<g id="edge27" class="edge">
<title>Node3&#45;&gt;Node20</title>
<path fill="none" stroke="#191970" d="M1009.5661,-253.4732C1063.6606,-254.2364 1134.7364,-255.2392 1178.485,-255.8565"/>
<polygon fill="#191970" stroke="#191970" points="1009.379,-249.9703 999.3305,-253.3288 1009.2801,-256.9696 1009.379,-249.9703"/>
</g>
<!-- Node4 -->
<g id="node4" class="node">
<title>Node4</title>
<g id="a_node4"><a xlink:href="class_uptane_1_1_base_meta.html" target="_top" xlink:title="Uptane::BaseMeta">
<polygon fill="#ffffff" stroke="#000000" points="569,-330.9211 569,-349.9211 675,-349.9211 675,-330.9211 569,-330.9211"/>
<text text-anchor="middle" x="622" y="-337.9211" font-family="Helvetica,sans-Serif" font-size="10.00" fill="#000000">Uptane::BaseMeta</text>
</a>
</g>
</g>
<!-- Node4&#45;&gt;Node3 -->
<g id="edge3" class="edge">
<title>Node4&#45;&gt;Node3</title>
<path fill="none" stroke="#191970" d="M685.4544,-329.3555C748.2927,-318.2327 837.3476,-301.9642 853,-296.4211 877.9761,-287.5762 904.6044,-272.0062 920.5178,-261.9576"/>
<polygon fill="#191970" stroke="#191970" points="684.4597,-325.9769 675.2207,-331.1625 685.677,-332.8702 684.4597,-325.9769"/>
</g>
<!-- Node18 -->
<g id="node18" class="node">
<title>Node18</title>
<g id="a_node18"><a xlink:href="class_uptane_1_1_snapshot.html" target="_top" xlink:title="Uptane::Snapshot">
<polygon fill="#ffffff" stroke="#000000" points="1034,-322.9211 1034,-341.9211 1137,-341.9211 1137,-322.9211 1034,-322.9211"/>
<text text-anchor="middle" x="1085.5" y="-329.9211" font-family="Helvetica,sans-Serif" font-size="10.00" fill="#000000">Uptane::Snapshot</text>
</a>
</g>
</g>
<!-- Node4&#45;&gt;Node18 -->
<g id="edge23" class="edge">
<title>Node4&#45;&gt;Node18</title>
<path fill="none" stroke="#191970" d="M685.2325,-339.3297C777.7105,-337.7335 948.1225,-334.7922 1033.6588,-333.3159"/>
<polygon fill="#191970" stroke="#191970" points="685.1074,-335.8312 675.1693,-339.5034 685.2283,-342.8302 685.1074,-335.8312"/>
</g>
<!-- Node19 -->
<g id="node19" class="node">
<title>Node19</title>
<g id="a_node19"><a xlink:href="class_uptane_1_1_timestamp_meta.html" target="_top" xlink:title="Uptane::TimestampMeta">
<polygon fill="#ffffff" stroke="#000000" points="1017,-362.9211 1017,-381.9211 1154,-381.9211 1154,-362.9211 1017,-362.9211"/>
<text text-anchor="middle" x="1085.5" y="-369.9211" font-family="Helvetica,sans-Serif" font-size="10.00" fill="#000000">Uptane::TimestampMeta</text>
</a>
</g>
</g>
<!-- Node4&#45;&gt;Node19 -->
<g id="edge25" class="edge">
<title>Node4&#45;&gt;Node19</title>
<path fill="none" stroke="#191970" d="M685.2413,-348.265C695.8345,-349.4292 706.7209,-350.5339 717,-351.4211 821.3819,-360.4308 942.744,-366.4979 1016.8192,-369.7061"/>
<polygon fill="#191970" stroke="#191970" points="685.5328,-344.7758 675.2041,-347.1357 684.7501,-351.7319 685.5328,-344.7758"/>
</g>
<!-- Node5 -->
<g id="node5" class="node">
<title>Node5</title>
<g id="a_node5"><a xlink:href="class_time_stamp.html" target="_top" xlink:title="TimeStamp">
<polygon fill="#ffffff" stroke="#000000" points="342.5,-330.9211 342.5,-349.9211 415.5,-349.9211 415.5,-330.9211 342.5,-330.9211"/>
<text text-anchor="middle" x="379" y="-337.9211" font-family="Helvetica,sans-Serif" font-size="10.00" fill="#000000">TimeStamp</text>
</a>
</g>
</g>
<!-- Node5&#45;&gt;Node4 -->
<g id="edge4" class="edge">
<title>Node5&#45;&gt;Node4</title>
<path fill="none" stroke="#9a32cd" stroke-dasharray="5,2" d="M425.8863,-340.4211C466.804,-340.4211 526.1447,-340.4211 568.8222,-340.4211"/>
<polygon fill="#9a32cd" stroke="#9a32cd" points="425.6427,-336.9212 415.6427,-340.4211 425.6426,-343.9212 425.6427,-336.9212"/>
<text text-anchor="middle" x="502.5" y="-343.4211" font-family="Helvetica,sans-Serif" font-size="10.00" fill="#000000"> expiry_</text>
</g>
<!-- Node6 -->
<g id="node6" class="node">
<title>Node6</title>
<polygon fill="#ffffff" stroke="#bfbfbf" points="549,-281.4211 549,-311.4211 695,-311.4211 695,-281.4211 549,-281.4211"/>
<text text-anchor="start" x="557" y="-299.4211" font-family="Helvetica,sans-Serif" font-size="10.00" fill="#000000">std::set&lt; std::pair</text>
<text text-anchor="middle" x="622" y="-288.4211" font-family="Helvetica,sans-Serif" font-size="10.00" fill="#000000">&lt; Uptane::Role, KeyId &gt; &gt;</text>
</g>
<!-- Node6&#45;&gt;Node3 -->
<g id="edge5" class="edge">
<title>Node6&#45;&gt;Node3</title>
<path fill="none" stroke="#9a32cd" stroke-dasharray="5,2" d="M705.5644,-284.674C757.4277,-277.3833 823.0563,-268.1576 870.8239,-261.4427"/>
<polygon fill="#9a32cd" stroke="#9a32cd" points="704.8,-281.247 695.3846,-286.105 705.7745,-288.1788 704.8,-281.247"/>
<text text-anchor="middle" x="785" y="-284.4211" font-family="Helvetica,sans-Serif" font-size="10.00" fill="#000000"> keys_for_role_</text>
</g>
<!-- Node7 -->
<g id="node7" class="node">
<title>Node7</title>
<polygon fill="#ffffff" stroke="#bfbfbf" points="298,-231.9211 298,-250.9211 460,-250.9211 460,-231.9211 298,-231.9211"/>
<text text-anchor="middle" x="379" y="-238.9211" font-family="Helvetica,sans-Serif" font-size="10.00" fill="#000000">std::map&lt; KeyId, PublicKey &gt;</text>
</g>
<!-- Node7&#45;&gt;Node3 -->
<g id="edge6" class="edge">
<title>Node7&#45;&gt;Node3</title>
<path fill="none" stroke="#9a32cd" stroke-dasharray="5,2" d="M470.478,-243.2309C583.2371,-245.4618 771.995,-249.1962 870.5931,-251.1469"/>
<polygon fill="#9a32cd" stroke="#9a32cd" points="470.212,-239.7251 460.1447,-243.0265 470.0735,-246.7237 470.212,-239.7251"/>
<text text-anchor="middle" x="622" y="-250.4211" font-family="Helvetica,sans-Serif" font-size="10.00" fill="#000000"> keys_</text>
</g>
<!-- Node8 -->
<g id="node8" class="node">
<title>Node8</title>
<g id="a_node8"><a xlink:href="class_public_key.html" target="_top" xlink:title="PublicKey">
<polygon fill="#ffffff" stroke="#000000" points="141.5,-231.9211 141.5,-250.9211 205.5,-250.9211 205.5,-231.9211 141.5,-231.9211"/>
<text text-anchor="middle" x="173.5" y="-238.9211" font-family="Helvetica,sans-Serif" font-size="10.00" fill="#000000">PublicKey</text>
</a>
</g>
</g>
<!-- Node8&#45;&gt;Node7 -->
<g id="edge7" class="edge">
<title>Node8&#45;&gt;Node7</title>
<path fill="none" stroke="#9a32cd" stroke-dasharray="5,2" d="M215.6678,-241.4211C239.3811,-241.4211 269.791,-241.4211 297.9285,-241.4211"/>
<polygon fill="#9a32cd" stroke="#9a32cd" points="215.6094,-237.9212 205.6094,-241.4211 215.6093,-244.9212 215.6094,-237.9212"/>
<text text-anchor="middle" x="252" y="-244.4211" font-family="Helvetica,sans-Serif" font-size="10.00" fill="#000000"> elements</text>
</g>
<!-- Node9 -->
<g id="node9" class="node">
<title>Node9</title>
<g id="a_node9"><a xlink:title="STL class. ">
<polygon fill="#ffffff" stroke="#bfbfbf" points="141,-101.9211 141,-120.9211 206,-120.9211 206,-101.9211 141,-101.9211"/>
<text text-anchor="middle" x="173.5" y="-108.9211" font-family="Helvetica,sans-Serif" font-size="10.00" fill="#000000">std::string</text>
</a>
</g>
</g>
<!-- Node9&#45;&gt;Node7 -->
<g id="edge8" class="edge">
<title>Node9&#45;&gt;Node7</title>
<path fill="none" stroke="#9a32cd" stroke-dasharray="5,2" d="M189.2938,-128.6143C198.7791,-138.3599 211.4165,-150.3745 224,-159.4211 267.8753,-190.964 325.4237,-218.1871 356.5916,-231.9165"/>
<polygon fill="#9a32cd" stroke="#9a32cd" points="191.5613,-125.9192 182.1379,-121.0765 186.4846,-130.7387 191.5613,-125.9192"/>
<text text-anchor="middle" x="252" y="-195.4211" font-family="Helvetica,sans-Serif" font-size="10.00" fill="#000000"> keys</text>
</g>
<!-- Node12 -->
<g id="node12" class="node">
<title>Node12</title>
<g id="a_node12"><a xlink:href="class_uptane_1_1_role.html" target="_top" xlink:title="TUF Roles. ">
<polygon fill="#ffffff" stroke="#000000" points="339.5,-101.9211 339.5,-120.9211 418.5,-120.9211 418.5,-101.9211 339.5,-101.9211"/>
<text text-anchor="middle" x="379" y="-108.9211" font-family="Helvetica,sans-Serif" font-size="10.00" fill="#000000">Uptane::Role</text>
</a>
</g>
</g>
<!-- Node9&#45;&gt;Node12 -->
<g id="edge12" class="edge">
<title>Node9&#45;&gt;Node12</title>
<path fill="none" stroke="#9a32cd" stroke-dasharray="5,2" d="M216.299,-111.4211C252.4741,-111.4211 303.8969,-111.4211 339.1958,-111.4211"/>
<polygon fill="#9a32cd" stroke="#9a32cd" points="216.0621,-107.9212 206.0621,-111.4211 216.0621,-114.9212 216.0621,-107.9212"/>
<text text-anchor="middle" x="252" y="-147.4211" font-family="Helvetica,sans-Serif" font-size="10.00" fill="#000000"> ROOT</text>
<text text-anchor="middle" x="252" y="-136.4211" font-family="Helvetica,sans-Serif" font-size="10.00" fill="#000000">TIMESTAMP</text>
<text text-anchor="middle" x="252" y="-125.4211" font-family="Helvetica,sans-Serif" font-size="10.00" fill="#000000">SNAPSHOT</text>
<text text-anchor="middle" x="252" y="-114.4211" font-family="Helvetica,sans-Serif" font-size="10.00" fill="#000000">TARGETS</text>
</g>
<!-- Node17 -->
<g id="node17" class="node">
<title>Node17</title>
<polygon fill="#ffffff" stroke="#bfbfbf" points="309,-28.9211 309,-47.9211 449,-47.9211 449,-28.9211 309,-28.9211"/>
<text text-anchor="middle" x="379" y="-35.9211" font-family="Helvetica,sans-Serif" font-size="10.00" fill="#000000">std::vector&lt; std::string &gt;</text>
</g>
<!-- Node9&#45;&gt;Node17 -->
<g id="edge20" class="edge">
<title>Node9&#45;&gt;Node17</title>
<path fill="none" stroke="#9a32cd" stroke-dasharray="5,2" d="M209.9206,-98.4833C250.6742,-84.0064 315.7404,-60.8929 352.1279,-47.9669"/>
<polygon fill="#9a32cd" stroke="#9a32cd" points="208.617,-95.2321 200.3655,-101.8776 210.9603,-101.8283 208.617,-95.2321"/>
<text text-anchor="middle" x="252" y="-95.4211" font-family="Helvetica,sans-Serif" font-size="10.00" fill="#000000"> elements</text>
</g>
<!-- Node10 -->
<g id="node10" class="node">
<title>Node10</title>
<g id="a_node10"><a xlink:title="STL class. ">
<polygon fill="#ffffff" stroke="#bfbfbf" points="0,-96.4211 0,-126.4211 104,-126.4211 104,-96.4211 0,-96.4211"/>
<text text-anchor="start" x="8" y="-114.4211" font-family="Helvetica,sans-Serif" font-size="10.00" fill="#000000">std::basic_string&lt;</text>
<text text-anchor="middle" x="52" y="-103.4211" font-family="Helvetica,sans-Serif" font-size="10.00" fill="#000000"> char &gt;</text>
</a>
</g>
</g>
<!-- Node10&#45;&gt;Node9 -->
<g id="edge9" class="edge">
<title>Node10&#45;&gt;Node9</title>
<path fill="none" stroke="#191970" d="M114.2382,-111.4211C123.4802,-111.4211 132.6763,-111.4211 140.9702,-111.4211"/>
<polygon fill="#191970" stroke="#191970" points="114.2321,-107.9212 104.2321,-111.4211 114.232,-114.9212 114.2321,-107.9212"/>
</g>
<!-- Node11 -->
<g id="node11" class="node">
<title>Node11</title>
<polygon fill="#ffffff" stroke="#bfbfbf" points="554,-184.4211 554,-214.4211 690,-214.4211 690,-184.4211 554,-184.4211"/>
<text text-anchor="start" x="562" y="-202.4211" font-family="Helvetica,sans-Serif" font-size="10.00" fill="#000000">std::map&lt; Uptane::Role,</text>
<text text-anchor="middle" x="622" y="-191.4211" font-family="Helvetica,sans-Serif" font-size="10.00" fill="#000000"> int64_t &gt;</text>
</g>
<!-- Node11&#45;&gt;Node3 -->
<g id="edge10" class="edge">
<title>Node11&#45;&gt;Node3</title>
<path fill="none" stroke="#9a32cd" stroke-dasharray="5,2" d="M700.027,-204.8142C745.0822,-208.8536 802.6291,-215.5953 853,-226.4211 872.1275,-230.532 893.1514,-237.2439 909.1222,-242.8184"/>
<polygon fill="#9a32cd" stroke="#9a32cd" points="700.2932,-201.3243 690.0273,-203.9435 699.6859,-208.2979 700.2932,-201.3243"/>
<text text-anchor="middle" x="785" y="-229.4211" font-family="Helvetica,sans-Serif" font-size="10.00" fill="#000000"> thresholds_for_role_</text>
</g>
<!-- Node12&#45;&gt;Node11 -->
<g id="edge11" class="edge">
<title>Node12&#45;&gt;Node11</title>
<path fill="none" stroke="#9a32cd" stroke-dasharray="5,2" d="M412.7804,-124.7953C446.1979,-137.8945 498.8847,-158.1949 545,-174.4211 554.4133,-177.7333 564.528,-181.1312 574.2309,-184.3126"/>
<polygon fill="#9a32cd" stroke="#9a32cd" points="413.6439,-121.3741 403.0567,-120.9737 411.0834,-127.889 413.6439,-121.3741"/>
<text text-anchor="middle" x="502.5" y="-170.4211" font-family="Helvetica,sans-Serif" font-size="10.00" fill="#000000"> keys</text>
</g>
<!-- Node15 -->
<g id="node15" class="node">
<title>Node15</title>
<polygon fill="#ffffff" stroke="#bfbfbf" points="717,-51.4211 717,-81.4211 853,-81.4211 853,-51.4211 717,-51.4211"/>
<text text-anchor="start" x="725" y="-69.4211" font-family="Helvetica,sans-Serif" font-size="10.00" fill="#000000">std::map&lt; Uptane::Role,</text>
<text text-anchor="middle" x="785" y="-58.4211" font-family="Helvetica,sans-Serif" font-size="10.00" fill="#000000"> bool &gt;</text>
</g>
<!-- Node12&#45;&gt;Node15 -->
<g id="edge16" class="edge">
<title>Node12&#45;&gt;Node15</title>
<path fill="none" stroke="#9a32cd" stroke-dasharray="5,2" d="M429.0074,-103.8222C444.6904,-101.445 462.0653,-98.8174 478,-96.4211 507.7728,-91.9437 515.0935,-89.8953 545,-86.4211 602.833,-79.7027 668.7604,-74.3756 716.8649,-70.9141"/>
<polygon fill="#9a32cd" stroke="#9a32cd" points="428.34,-100.3833 418.9779,-105.3433 429.3896,-107.3042 428.34,-100.3833"/>
<text text-anchor="middle" x="502.5" y="-99.4211" font-family="Helvetica,sans-Serif" font-size="10.00" fill="#000000"> keys</text>
</g>
<!-- Node16 -->
<g id="node16" class="node">
<title>Node16</title>
<polygon fill="#ffffff" stroke="#bfbfbf" points="545,-96.4211 545,-126.4211 699,-126.4211 699,-96.4211 545,-96.4211"/>
<text text-anchor="start" x="553" y="-114.4211" font-family="Helvetica,sans-Serif" font-size="10.00" fill="#000000">std::map&lt; Uptane::Role,</text>
<text text-anchor="middle" x="622" y="-103.4211" font-family="Helvetica,sans-Serif" font-size="10.00" fill="#000000"> std::vector&lt; std::string &gt; &gt;</text>
</g>
<!-- Node12&#45;&gt;Node16 -->
<g id="edge18" class="edge">
<title>Node12&#45;&gt;Node16</title>
<path fill="none" stroke="#9a32cd" stroke-dasharray="5,2" d="M428.9877,-111.4211C462.3095,-111.4211 506.7725,-111.4211 544.6241,-111.4211"/>
<polygon fill="#9a32cd" stroke="#9a32cd" points="428.583,-107.9212 418.583,-111.4211 428.5829,-114.9212 428.583,-107.9212"/>
<text text-anchor="middle" x="502.5" y="-114.4211" font-family="Helvetica,sans-Serif" font-size="10.00" fill="#000000"> keys</text>
</g>
<!-- Node13 -->
<g id="node13" class="node">
<title>Node13</title>
<polygon fill="#ffffff" stroke="#bfbfbf" points="877.5,-142.4211 877.5,-172.4211 992.5,-172.4211 992.5,-142.4211 877.5,-142.4211"/>
<text text-anchor="start" x="885.5" y="-160.4211" font-family="Helvetica,sans-Serif" font-size="10.00" fill="#000000">std::vector&lt; Uptane</text>
<text text-anchor="middle" x="935" y="-149.4211" font-family="Helvetica,sans-Serif" font-size="10.00" fill="#000000">::Target &gt;</text>
</g>
<!-- Node13&#45;&gt;Node2 -->
<g id="edge13" class="edge">
<title>Node13&#45;&gt;Node2</title>
<path fill="none" stroke="#9a32cd" stroke-dasharray="5,2" d="M1002.8804,-151.4352C1055.0191,-146.8374 1125.6618,-140.6079 1171.6522,-136.5523"/>
<polygon fill="#9a32cd" stroke="#9a32cd" points="1002.366,-147.9669 992.7122,-152.3318 1002.981,-154.9398 1002.366,-147.9669"/>
<text text-anchor="middle" x="1085.5" y="-153.4211" font-family="Helvetica,sans-Serif" font-size="10.00" fill="#000000"> targets</text>
</g>
<!-- Node14 -->
<g id="node14" class="node">
<title>Node14</title>
<g id="a_node14"><a xlink:href="class_uptane_1_1_target.html" target="_top" xlink:title="Uptane::Target">
<polygon fill="#ffffff" stroke="#000000" points="578,-145.9211 578,-164.9211 666,-164.9211 666,-145.9211 578,-145.9211"/>
<text text-anchor="middle" x="622" y="-152.9211" font-family="Helvetica,sans-Serif" font-size="10.00" fill="#000000">Uptane::Target</text>
</a>
</g>
</g>
<!-- Node14&#45;&gt;Node13 -->
<g id="edge14" class="edge">
<title>Node14&#45;&gt;Node13</title>
<path fill="none" stroke="#9a32cd" stroke-dasharray="5,2" d="M676.3054,-155.7681C732.5519,-156.1275 820.0933,-156.6869 877.4935,-157.0536"/>
<polygon fill="#9a32cd" stroke="#9a32cd" points="676.2036,-152.2675 666.1814,-155.7034 676.1588,-159.2673 676.2036,-152.2675"/>
<text text-anchor="middle" x="785" y="-159.4211" font-family="Helvetica,sans-Serif" font-size="10.00" fill="#000000"> elements</text>
</g>
<!-- Node15&#45;&gt;Node2 -->
<g id="edge15" class="edge">
<title>Node15&#45;&gt;Node2</title>
<path fill="none" stroke="#9a32cd" stroke-dasharray="5,2" d="M863.4503,-63.5462C939.4686,-62.9921 1057.1525,-68.0861 1154,-98.4211 1172.2404,-104.1344 1191.4034,-114.9369 1204.0545,-122.8372"/>
<polygon fill="#9a32cd" stroke="#9a32cd" points="862.9681,-60.0512 853.0068,-63.6599 863.0443,-67.0508 862.9681,-60.0512"/>
<text text-anchor="middle" x="935" y="-72.4211" font-family="Helvetica,sans-Serif" font-size="10.00" fill="#000000"> terminating_role_</text>
</g>
<!-- Node16&#45;&gt;Node2 -->
<g id="edge17" class="edge">
<title>Node16&#45;&gt;Node2</title>
<path fill="none" stroke="#9a32cd" stroke-dasharray="5,2" d="M709.3361,-113.1549C785.758,-114.8113 899.755,-117.6186 999,-121.4211 1058.6695,-123.7073 1127.4157,-127.3092 1171.8411,-129.7637"/>
<polygon fill="#9a32cd" stroke="#9a32cd" points="709.3474,-109.6545 699.2745,-112.9388 709.197,-116.6529 709.3474,-109.6545"/>
<text text-anchor="middle" x="935" y="-124.4211" font-family="Helvetica,sans-Serif" font-size="10.00" fill="#000000"> paths_for_role_</text>
</g>
<!-- Node17&#45;&gt;Node2 -->
<g id="edge21" class="edge">
<title>Node17&#45;&gt;Node2</title>
<path fill="none" stroke="#9a32cd" stroke-dasharray="5,2" d="M459.2077,-28.7498C465.5591,-28.2158 471.8811,-27.76 478,-27.4211 499.7445,-26.2168 505.2225,-27.3209 527,-27.4211 806.2302,-28.7059 903.2721,55.4881 1154,-67.4211 1179.9802,-80.1568 1201.6202,-107.637 1211.96,-122.4599"/>
<polygon fill="#9a32cd" stroke="#9a32cd" points="458.8736,-25.2656 449.2274,-29.6475 459.5008,-32.2375 458.8736,-25.2656"/>
<text text-anchor="middle" x="785" y="-19.4211" font-family="Helvetica,sans-Serif" font-size="10.00" fill="#000000"> delegated_role_names_</text>
</g>
<!-- Node17&#45;&gt;Node16 -->
<g id="edge19" class="edge">
<title>Node17&#45;&gt;Node16</title>
<path fill="none" stroke="#9a32cd" stroke-dasharray="5,2" d="M459.2163,-29.7466C481.6402,-29.7748 505.692,-32.1786 527,-39.4211 560.3095,-50.7429 591.2728,-78.7784 608.3172,-96.3371"/>
<polygon fill="#9a32cd" stroke="#9a32cd" points="458.9927,-26.2493 449.0437,-29.8919 459.0927,-33.2486 458.9927,-26.2493"/>
<text text-anchor="middle" x="502.5" y="-42.4211" font-family="Helvetica,sans-Serif" font-size="10.00" fill="#000000"> elements</text>
</g>
<!-- Node18&#45;&gt;Node1 -->
<g id="edge22" class="edge">
<title>Node18&#45;&gt;Node1</title>
<path fill="none" stroke="#9a32cd" stroke-dasharray="5,2" d="M1147.287,-324.9927C1203.7324,-318.1792 1289.4943,-307.7586 1364,-298.4211 1369.7141,-297.705 1375.6896,-296.9484 1381.6377,-296.1905"/>
<polygon fill="#9a32cd" stroke="#9a32cd" points="1146.6067,-321.5493 1137.0979,-326.2219 1147.4451,-328.4989 1146.6067,-321.5493"/>
<text text-anchor="middle" x="1218.5" y="-324.4211" font-family="Helvetica,sans-Serif" font-size="10.00" fill="#000000"> image_snapshot</text>
</g>
<!-- Node19&#45;&gt;Node1 -->
<g id="edge24" class="edge">
<title>Node19&#45;&gt;Node1</title>
<path fill="none" stroke="#9a32cd" stroke-dasharray="5,2" d="M1158.4025,-361.2656C1215.0722,-351.7559 1295.3278,-336.446 1364,-316.4211 1380.3811,-311.6443 1398.3271,-304.6862 1411.9469,-299.03"/>
<polygon fill="#9a32cd" stroke="#9a32cd" points="1157.7499,-357.826 1148.4576,-362.9156 1158.8956,-364.7316 1157.7499,-357.826"/>
<text text-anchor="middle" x="1218.5" y="-361.4211" font-family="Helvetica,sans-Serif" font-size="10.00" fill="#000000"> image_timestamp</text>
</g>
<!-- Node20&#45;&gt;Node1 -->
<g id="edge26" class="edge">
<title>Node20&#45;&gt;Node1</title>
<path fill="none" stroke="#9a32cd" stroke-dasharray="5,2" d="M1268.7012,-262.73C1296.7801,-266.4071 1332.3897,-271.3162 1364,-276.4211 1370.5893,-277.4852 1377.5134,-278.6789 1384.3378,-279.9"/>
<polygon fill="#9a32cd" stroke="#9a32cd" points="1269.086,-259.2506 1258.7184,-261.4329 1268.184,-266.1923 1269.086,-259.2506"/>
<text text-anchor="middle" x="1323.5" y="-290.4211" font-family="Helvetica,sans-Serif" font-size="10.00" fill="#000000"> image_root</text>
<text text-anchor="middle" x="1323.5" y="-279.4211" font-family="Helvetica,sans-Serif" font-size="10.00" fill="#000000">director_root</text>
</g>
</g>
</svg>
