<?xml version="1.0" encoding="UTF-8" standalone="no"?>
<!DOCTYPE svg PUBLIC "-//W3C//DTD SVG 1.1//EN"
 "http://www.w3.org/Graphics/SVG/1.1/DTD/svg11.dtd">
<!-- Generated by graphviz version 2.40.1 (20161225.0304)
 -->
<!-- Title: data::InstallationResult Pages: 1 -->
<svg width="232pt" height="230pt"
 viewBox="0.00 0.00 232.00 230.00" xmlns="http://www.w3.org/2000/svg" xmlns:xlink="http://www.w3.org/1999/xlink">
<g id="graph0" class="graph" transform="scale(1 1) rotate(0) translate(4 226)">
<title>data::InstallationResult</title>
<polygon fill="#ffffff" stroke="transparent" points="-4,4 -4,-226 228,-226 228,4 -4,4"/>
<!-- Node1 -->
<g id="node1" class="node">
<title>Node1</title>
<polygon fill="#bfbfbf" stroke="#000000" points="0,-.5 0,-19.5 129,-19.5 129,-.5 0,-.5"/>
<text text-anchor="middle" x="64.5" y="-7.5" font-family="Helvetica,sans-Serif" font-size="10.00" fill="#000000">data::InstallationResult</text>
</g>
<!-- Node2 -->
<g id="node2" class="node">
<title>Node2</title>
<g id="a_node2"><a xlink:href="structdata_1_1_result_code.html" target="_top" xlink:title="data::ResultCode">
<polygon fill="#ffffff" stroke="#000000" points="125,-67.5 125,-86.5 224,-86.5 224,-67.5 125,-67.5"/>
<text text-anchor="middle" x="174.5" y="-74.5" font-family="Helvetica,sans-Serif" font-size="10.00" fill="#000000">data::ResultCode</text>
</a>
</g>
</g>
<!-- Node2&#45;&gt;Node1 -->
<g id="edge1" class="edge">
<title>Node2&#45;&gt;Node1</title>
<path fill="none" stroke="#9a32cd" stroke-dasharray="5,2" d="M149.9335,-62.0368C128.6293,-49.0605 98.4337,-30.6687 80.2311,-19.5817"/>
<polygon fill="#9a32cd" stroke="#9a32cd" points="148.3785,-65.1877 158.7397,-67.4005 152.0199,-59.2094 148.3785,-65.1877"/>
<text text-anchor="middle" x="155.5" y="-41" font-family="Helvetica,sans-Serif" font-size="10.00" fill="#000000"> result_code</text>
</g>
<!-- Node3 -->
<g id="node3" class="node">
<title>Node3</title>
<g id="a_node3"><a xlink:title="STL class. ">
<polygon fill="#ffffff" stroke="#bfbfbf" points="32,-134.5 32,-153.5 97,-153.5 97,-134.5 32,-134.5"/>
<text text-anchor="middle" x="64.5" y="-141.5" font-family="Helvetica,sans-Serif" font-size="10.00" fill="#000000">std::string</text>
</a>
</g>
</g>
<!-- Node3&#45;&gt;Node1 -->
<g id="edge4" class="edge">
<title>Node3&#45;&gt;Node1</title>
<path fill="none" stroke="#9a32cd" stroke-dasharray="5,2" d="M61.513,-124.0252C59.5367,-108.4922 57.482,-86.3948 58.5,-67 59.3762,-50.3061 61.6864,-30.9751 63.1711,-19.6577"/>
<polygon fill="#9a32cd" stroke="#9a32cd" points="58.061,-124.6143 62.8931,-134.043 64.9955,-123.6589 58.061,-124.6143"/>
<text text-anchor="middle" x="87.5" y="-74.5" font-family="Helvetica,sans-Serif" font-size="10.00" fill="#000000"> description</text>
</g>
<!-- Node3&#45;&gt;Node2 -->
<g id="edge2" class="edge">
<title>Node3&#45;&gt;Node2</title>
<path fill="none" stroke="#9a32cd" stroke-dasharray="5,2" d="M89.0665,-129.0368C110.3707,-116.0605 140.5663,-97.6687 158.7689,-86.5817"/>
<polygon fill="#9a32cd" stroke="#9a32cd" points="86.9801,-126.2094 80.2603,-134.4005 90.6215,-132.1877 86.9801,-126.2094"/>
<text text-anchor="middle" x="151.5" y="-108" font-family="Helvetica,sans-Serif" font-size="10.00" fill="#000000"> text_code</text>
</g>
<!-- Node4 -->
<g id="node4" class="node">
<title>Node4</title>
<g id="a_node4"><a xlink:title="STL class. ">
<polygon fill="#ffffff" stroke="#bfbfbf" points="12.5,-191.5 12.5,-221.5 116.5,-221.5 116.5,-191.5 12.5,-191.5"/>
<text text-anchor="start" x="20.5" y="-209.5" font-family="Helvetica,sans-Serif" font-size="10.00" fill="#000000">std::basic_string&lt;</text>
<text text-anchor="middle" x="64.5" y="-198.5" font-family="Helvetica,sans-Serif" font-size="10.00" fill="#000000"> char &gt;</text>
</a>
</g>
</g>
<!-- Node4&#45;&gt;Node3 -->
<g id="edge3" class="edge">
<title>Node4&#45;&gt;Node3</title>
<path fill="none" stroke="#191970" d="M64.5,-181.3498C64.5,-171.6481 64.5,-161.1303 64.5,-153.7356"/>
<polygon fill="#191970" stroke="#191970" points="61.0001,-181.3705 64.5,-191.3705 68.0001,-181.3705 61.0001,-181.3705"/>
</g>
</g>
</svg>
