<?xml version="1.0" encoding="UTF-8" standalone="no"?>
<!DOCTYPE svg PUBLIC "-//W3C//DTD SVG 1.1//EN"
 "http://www.w3.org/Graphics/SVG/1.1/DTD/svg11.dtd">
<!-- Generated by graphviz version 2.40.1 (20161225.0304)
 -->
<!-- Title: opcuabridge::VersionReport Pages: 1 -->
<!--zoomable 211 -->
<svg id="main" version="1.1" xmlns="http://www.w3.org/2000/svg" xmlns:xlink="http://www.w3.org/1999/xlink" xml:space="preserve" onload="init(evt)">
<style type="text/css"><![CDATA[
.edge:hover path { stroke: red; }
.edge:hover polygon { stroke: red; fill: red; }
]]></style>
<script type="text/javascript"><![CDATA[
var edges = document.getElementsByTagName('g');
if (edges && edges.length) {
  for (var i=0;i<edges.length;i++) {
    if (edges[i].id.substr(0,4)=='edge') {
      edges[i].setAttribute('class','edge');
    }
  }
}
]]></script>
        <defs>
                <circle id="rim" cx="0" cy="0" r="7"/>
                <circle id="rim2" cx="0" cy="0" r="3.5"/>
                <g id="zoomPlus">
                        <use xlink:href="#rim" fill="#404040">
                                <set attributeName="fill" to="#808080" begin="zoomplus.mouseover" end="zoomplus.mouseout"/>
                        </use>
                        <path d="M-4,0h8M0,-4v8" fill="none" stroke="white" stroke-width="1.5" pointer-events="none"/>
                </g>
                <g id="zoomMin">
                        <use xlink:href="#rim" fill="#404040">
                                <set attributeName="fill" to="#808080" begin="zoomminus.mouseover" end="zoomminus.mouseout"/>
                        </use>
                        <path d="M-4,0h8" fill="none" stroke="white" stroke-width="1.5" pointer-events="none"/>
                </g>
                <g id="dirArrow">
                        <path fill="none" stroke="white" stroke-width="1.5" d="M0,-3.0v7 M-2.5,-0.5L0,-3.0L2.5,-0.5"/>
                </g>
               <g id="resetDef">
                       <use xlink:href="#rim2" fill="#404040">
                               <set attributeName="fill" to="#808080" begin="reset.mouseover" end="reset.mouseout"/>
                       </use>
               </g>
        </defs>

<script type="text/javascript">
var viewWidth = 1695;
var viewHeight = 211;
var sectionId = 'dynsection-0';
</script>
<script xlink:href="svgpan.js"/>
<svg id="graph" class="graph">
<g id="viewport">
<title>opcuabridge::VersionReport</title>
<polygon fill="#ffffff" stroke="transparent" points="-4,4 -4,-206.5 1690.9561,-206.5 1690.9561,4 -4,4"/>
<!-- Node1 -->
<g id="node1" class="node">
<title>Node1</title>
<polygon fill="#bfbfbf" stroke="#000000" points="1546.9814,-117 1546.9814,-135 1686.9561,-135 1686.9561,-117 1546.9814,-117"/>
<text text-anchor="middle" x="1616.9688" y="-123" font-family="Helvetica,sans-Serif" font-size="10.00" fill="#000000">opcuabridge::VersionReport</text>
</g>
<!-- Node2 -->
<g id="node2" class="node">
<title>Node2</title>
<g id="a_node2"><a xlink:href="structopcuabridge_1_1_message_on_before_read_callback.html" target="_top" xlink:title="opcuabridge::MessageOnBefore\lReadCallback\&lt; opcuabridge\l::VersionReport \&gt;">
<polygon fill="#ffffff" stroke="#000000" points="1250.9434,-164 1250.9434,-202 1410.9229,-202 1410.9229,-164 1250.9434,-164"/>
<text text-anchor="start" x="1258.9434" y="-190" font-family="Helvetica,sans-Serif" font-size="10.00" fill="#000000">opcuabridge::MessageOnBefore</text>
<text text-anchor="start" x="1258.9434" y="-180" font-family="Helvetica,sans-Serif" font-size="10.00" fill="#000000">ReadCallback&lt; opcuabridge</text>
<text text-anchor="middle" x="1330.9331" y="-170" font-family="Helvetica,sans-Serif" font-size="10.00" fill="#000000">::VersionReport &gt;</text>
</a>
</g>
</g>
<!-- Node2&#45;&gt;Node1 -->
<g id="edge1" class="edge">
<title>Node2&#45;&gt;Node1</title>
<path fill="none" stroke="#9a32cd" stroke-dasharray="5,2" d="M1420.8738,-165.077C1471.0116,-155.0857 1531.2911,-143.0735 1571.6641,-135.0281"/>
<polygon fill="#9a32cd" stroke="#9a32cd" points="1420.1135,-161.6596 1410.9903,-167.0465 1421.4815,-168.5246 1420.1135,-161.6596"/>
<text text-anchor="middle" x="1481.1738" y="-163" font-family="Helvetica,sans-Serif" font-size="10.00" fill="#000000"> on_before_read_cb_</text>
</g>
<!-- Node3 -->
<g id="node3" class="node">
<title>Node3</title>
<g id="a_node3"><a xlink:href="structopcuabridge_1_1_message_on_after_write_callback.html" target="_top" xlink:title="opcuabridge::MessageOnAfter\lWriteCallback\&lt; opcuabridge\l::VersionReport \&gt;">
<polygon fill="#ffffff" stroke="#000000" points="1255.1157,-107 1255.1157,-145 1406.7505,-145 1406.7505,-107 1255.1157,-107"/>
<text text-anchor="start" x="1263.1157" y="-133" font-family="Helvetica,sans-Serif" font-size="10.00" fill="#000000">opcuabridge::MessageOnAfter</text>
<text text-anchor="start" x="1263.1157" y="-123" font-family="Helvetica,sans-Serif" font-size="10.00" fill="#000000">WriteCallback&lt; opcuabridge</text>
<text text-anchor="middle" x="1330.9331" y="-113" font-family="Helvetica,sans-Serif" font-size="10.00" fill="#000000">::VersionReport &gt;</text>
</a>
</g>
</g>
<!-- Node3&#45;&gt;Node1 -->
<g id="edge2" class="edge">
<title>Node3&#45;&gt;Node1</title>
<path fill="none" stroke="#9a32cd" stroke-dasharray="5,2" d="M1416.919,-126C1458.3578,-126 1507.4359,-126 1546.6102,-126"/>
<polygon fill="#9a32cd" stroke="#9a32cd" points="1416.8345,-122.5001 1406.8344,-126 1416.8344,-129.5001 1416.8345,-122.5001"/>
<text text-anchor="middle" x="1481.1738" y="-128" font-family="Helvetica,sans-Serif" font-size="10.00" fill="#000000"> on_after_write_cb_</text>
</g>
<!-- Node4 -->
<g id="node4" class="node">
<title>Node4</title>
<g id="a_node4"><a xlink:href="classopcuabridge_1_1_e_c_u_version_manifest.html" target="_top" xlink:title="opcuabridge::ECUVersionManifest">
<polygon fill="#ffffff" stroke="#000000" points="1246.5,-70 1246.5,-88 1415.3662,-88 1415.3662,-70 1246.5,-70"/>
<text text-anchor="middle" x="1330.9331" y="-76" font-family="Helvetica,sans-Serif" font-size="10.00" fill="#000000">opcuabridge::ECUVersionManifest</text>
</a>
</g>
</g>
<!-- Node4&#45;&gt;Node1 -->
<g id="edge3" class="edge">
<title>Node4&#45;&gt;Node1</title>
<path fill="none" stroke="#9a32cd" stroke-dasharray="5,2" d="M1395.8199,-89.6619C1445.898,-97.8905 1514.416,-109.149 1561.8553,-116.944"/>
<polygon fill="#9a32cd" stroke="#9a32cd" points="1396.1804,-86.1743 1385.7452,-88.0065 1395.0454,-93.0816 1396.1804,-86.1743"/>
<text text-anchor="middle" x="1481.1738" y="-112" font-family="Helvetica,sans-Serif" font-size="10.00" fill="#000000"> ecuVersionManifest_</text>
</g>
<!-- Node5 -->
<g id="node5" class="node">
<title>Node5</title>
<polygon fill="#ffffff" stroke="#bfbfbf" points="771.0908,-98 771.0908,-126 896.8809,-126 896.8809,-98 771.0908,-98"/>
<text text-anchor="start" x="779.0908" y="-114" font-family="Helvetica,sans-Serif" font-size="10.00" fill="#000000">std::vector&lt; opcuabridge</text>
<text text-anchor="middle" x="833.9858" y="-104" font-family="Helvetica,sans-Serif" font-size="10.00" fill="#000000">::Signature &gt;</text>
</g>
<!-- Node5&#45;&gt;Node4 -->
<g id="edge4" class="edge">
<title>Node5&#45;&gt;Node4</title>
<path fill="none" stroke="#9a32cd" stroke-dasharray="5,2" d="M907.0761,-107.1464C997.3675,-101.1506 1150.698,-90.9686 1246.0915,-84.6339"/>
<polygon fill="#9a32cd" stroke="#9a32cd" points="906.6706,-103.6655 896.9246,-107.8205 907.1345,-110.6501 906.6706,-103.6655"/>
<text text-anchor="middle" x="999.314" y="-108" font-family="Helvetica,sans-Serif" font-size="10.00" fill="#000000"> signatures_</text>
</g>
<!-- Node6 -->
<g id="node6" class="node">
<title>Node6</title>
<g id="a_node6"><a xlink:href="classopcuabridge_1_1_signature.html" target="_top" xlink:title="opcuabridge::Signature">
<polygon fill="#ffffff" stroke="#000000" points="446.7437,-124 446.7437,-142 566.1519,-142 566.1519,-124 446.7437,-124"/>
<text text-anchor="middle" x="506.4478" y="-130" font-family="Helvetica,sans-Serif" font-size="10.00" fill="#000000">opcuabridge::Signature</text>
</a>
</g>
</g>
<!-- Node6&#45;&gt;Node5 -->
<g id="edge5" class="edge">
<title>Node6&#45;&gt;Node5</title>
<path fill="none" stroke="#9a32cd" stroke-dasharray="5,2" d="M576.6502,-128.499C634.3296,-124.8009 715.3117,-119.6088 770.9423,-116.042"/>
<polygon fill="#9a32cd" stroke="#9a32cd" points="576.2788,-125.0155 566.5233,-129.1483 576.7268,-132.0012 576.2788,-125.0155"/>
<text text-anchor="middle" x="609.02" y="-129" font-family="Helvetica,sans-Serif" font-size="10.00" fill="#000000"> elements</text>
</g>
<!-- Node7 -->
<g id="node7" class="node">
<title>Node7</title>
<g id="a_node7"><a xlink:href="classopcuabridge_1_1_hash.html" target="_top" xlink:title="opcuabridge::Hash">
<polygon fill="#ffffff" stroke="#000000" points="261.4697,-77 261.4697,-95 361.415,-95 361.415,-77 261.4697,-77"/>
<text text-anchor="middle" x="311.4424" y="-83" font-family="Helvetica,sans-Serif" font-size="10.00" fill="#000000">opcuabridge::Hash</text>
</a>
</g>
</g>
<!-- Node7&#45;&gt;Node6 -->
<g id="edge6" class="edge">
<title>Node7&#45;&gt;Node6</title>
<path fill="none" stroke="#9a32cd" stroke-dasharray="5,2" d="M359.1578,-97.5003C392.9715,-105.6501 437.7036,-116.4313 468.9642,-123.9657"/>
<polygon fill="#9a32cd" stroke="#9a32cd" points="359.5831,-94.0027 349.0414,-95.0621 357.9429,-100.8078 359.5831,-94.0027"/>
<text text-anchor="middle" x="402.4839" y="-114" font-family="Helvetica,sans-Serif" font-size="10.00" fill="#000000"> hash_</text>
</g>
<!-- Node12 -->
<g id="node12" class="node">
<title>Node12</title>
<polygon fill="#ffffff" stroke="#bfbfbf" points="443.5527,-77 443.5527,-105 569.3428,-105 569.3428,-77 443.5527,-77"/>
<text text-anchor="start" x="451.5527" y="-93" font-family="Helvetica,sans-Serif" font-size="10.00" fill="#000000">std::vector&lt; opcuabridge</text>
<text text-anchor="middle" x="506.4478" y="-83" font-family="Helvetica,sans-Serif" font-size="10.00" fill="#000000">::Hash &gt;</text>
</g>
<!-- Node7&#45;&gt;Node12 -->
<g id="edge15" class="edge">
<title>Node7&#45;&gt;Node12</title>
<path fill="none" stroke="#9a32cd" stroke-dasharray="5,2" d="M371.6913,-84.1335C374.301,-84.0822 376.8844,-84.0372 379.415,-84 399.9185,-83.6984 405.0662,-83.1153 425.5527,-84 431.327,-84.2494 437.3267,-84.5984 443.3314,-85.0088"/>
<polygon fill="#9a32cd" stroke="#9a32cd" points="371.4716,-80.6374 361.5518,-84.3586 371.6271,-87.6357 371.4716,-80.6374"/>
<text text-anchor="middle" x="402.4839" y="-86" font-family="Helvetica,sans-Serif" font-size="10.00" fill="#000000"> elements</text>
</g>
<!-- Node8 -->
<g id="node8" class="node">
<title>Node8</title>
<g id="a_node8"><a xlink:title="STL class. ">
<polygon fill="#ffffff" stroke="#bfbfbf" points="131.0957,-57 131.0957,-75 190.4453,-75 190.4453,-57 131.0957,-57"/>
<text text-anchor="middle" x="160.7705" y="-63" font-family="Helvetica,sans-Serif" font-size="10.00" fill="#000000">std::string</text>
</a>
</g>
</g>
<!-- Node8&#45;&gt;Node6 -->
<g id="edge9" class="edge">
<title>Node8&#45;&gt;Node6</title>
<path fill="none" stroke="#9a32cd" stroke-dasharray="5,2" d="M184.6767,-79.8779C192.128,-83.8348 200.4824,-87.9064 208.4453,-91 231.165,-99.8266 237.6683,-99.7482 261.4697,-105 313.4636,-116.4725 326.526,-119.8573 379.415,-126 401.2456,-128.5355 425.2966,-130.1575 446.5442,-131.1931"/>
<polygon fill="#9a32cd" stroke="#9a32cd" points="186.2683,-76.759 175.8189,-75.0096 182.8967,-82.8935 186.2683,-76.759"/>
<text text-anchor="middle" x="311.4424" y="-135" font-family="Helvetica,sans-Serif" font-size="10.00" fill="#000000"> keyid_</text>
<text text-anchor="middle" x="311.4424" y="-125" font-family="Helvetica,sans-Serif" font-size="10.00" fill="#000000">value_</text>
</g>
<!-- Node8&#45;&gt;Node7 -->
<g id="edge7" class="edge">
<title>Node8&#45;&gt;Node7</title>
<path fill="none" stroke="#9a32cd" stroke-dasharray="5,2" d="M200.4556,-71.2677C219.0791,-73.7398 241.4803,-76.7133 261.2659,-79.3396"/>
<polygon fill="#9a32cd" stroke="#9a32cd" points="200.912,-67.7977 190.5384,-69.9514 199.9909,-74.7369 200.912,-67.7977"/>
<text text-anchor="middle" x="225.9575" y="-79" font-family="Helvetica,sans-Serif" font-size="10.00" fill="#000000"> digest_</text>
</g>
<!-- Node10 -->
<g id="node10" class="node">
<title>Node10</title>
<g id="a_node10"><a xlink:href="classopcuabridge_1_1_e_c_u_version_manifest_signed.html" target="_top" xlink:title="opcuabridge::ECUVersionManifest\lSigned">
<polygon fill="#ffffff" stroke="#000000" points="914.8809,-36 914.8809,-64 1083.7471,-64 1083.7471,-36 914.8809,-36"/>
<text text-anchor="start" x="922.8809" y="-52" font-family="Helvetica,sans-Serif" font-size="10.00" fill="#000000">opcuabridge::ECUVersionManifest</text>
<text text-anchor="middle" x="999.314" y="-42" font-family="Helvetica,sans-Serif" font-size="10.00" fill="#000000">Signed</text>
</a>
</g>
</g>
<!-- Node8&#45;&gt;Node10 -->
<g id="edge11" class="edge">
<title>Node8&#45;&gt;Node10</title>
<path fill="none" stroke="#9a32cd" stroke-dasharray="5,2" d="M180.9468,-50.7235C208.757,-31.2286 261.1538,0 311.4424,0 311.4424,0 311.4424,0 700.894,0 788.3585,0 888.2848,-21.1504 947.4647,-35.9392"/>
<polygon fill="#9a32cd" stroke="#9a32cd" points="178.5566,-48.1323 172.4967,-56.823 182.6535,-53.8081 178.5566,-48.1323"/>
<text text-anchor="middle" x="506.4478" y="-12" font-family="Helvetica,sans-Serif" font-size="10.00" fill="#000000"> ecuIdentifier_</text>
<text text-anchor="middle" x="506.4478" y="-2" font-family="Helvetica,sans-Serif" font-size="10.00" fill="#000000">securityAttack_</text>
</g>
<!-- Node11 -->
<g id="node11" class="node">
<title>Node11</title>
<g id="a_node11"><a xlink:href="classopcuabridge_1_1_image.html" target="_top" xlink:title="opcuabridge::Image">
<polygon fill="#ffffff" stroke="#000000" points="648.6973,-41 648.6973,-59 753.0908,-59 753.0908,-41 648.6973,-41"/>
<text text-anchor="middle" x="700.894" y="-47" font-family="Helvetica,sans-Serif" font-size="10.00" fill="#000000">opcuabridge::Image</text>
</a>
</g>
</g>
<!-- Node8&#45;&gt;Node11 -->
<g id="edge13" class="edge">
<title>Node8&#45;&gt;Node11</title>
<path fill="none" stroke="#9a32cd" stroke-dasharray="5,2" d="M200.7499,-64.8157C296.8635,-61.9685 540.8719,-54.7403 648.5121,-51.5517"/>
<polygon fill="#9a32cd" stroke="#9a32cd" points="200.4712,-61.3223 190.5793,-65.117 200.6785,-68.3193 200.4712,-61.3223"/>
<text text-anchor="middle" x="402.4839" y="-62" font-family="Helvetica,sans-Serif" font-size="10.00" fill="#000000"> filename_</text>
</g>
<!-- Node9 -->
<g id="node9" class="node">
<title>Node9</title>
<g id="a_node9"><a xlink:title="STL class. ">
<polygon fill="#ffffff" stroke="#bfbfbf" points="0,-52 0,-80 94.0957,-80 94.0957,-52 0,-52"/>
<text text-anchor="start" x="8" y="-68" font-family="Helvetica,sans-Serif" font-size="10.00" fill="#000000">std::basic_string&lt;</text>
<text text-anchor="middle" x="47.0479" y="-58" font-family="Helvetica,sans-Serif" font-size="10.00" fill="#000000"> char &gt;</text>
</a>
</g>
</g>
<!-- Node9&#45;&gt;Node8 -->
<g id="edge8" class="edge">
<title>Node9&#45;&gt;Node8</title>
<path fill="none" stroke="#191970" d="M104.2966,-66C113.5577,-66 122.8051,-66 131.056,-66"/>
<polygon fill="#191970" stroke="#191970" points="104.2886,-62.5001 94.2885,-66 104.2885,-69.5001 104.2886,-62.5001"/>
</g>
<!-- Node10&#45;&gt;Node4 -->
<g id="edge10" class="edge">
<title>Node10&#45;&gt;Node4</title>
<path fill="none" stroke="#9a32cd" stroke-dasharray="5,2" d="M1093.9383,-58.2749C1141.9324,-62.4719 1199.7484,-67.5279 1246.2601,-71.5954"/>
<polygon fill="#9a32cd" stroke="#9a32cd" points="1094.1204,-54.7775 1083.8535,-57.393 1093.5106,-61.7509 1094.1204,-54.7775"/>
<text text-anchor="middle" x="1165.1235" y="-72" font-family="Helvetica,sans-Serif" font-size="10.00" fill="#000000"> ecuVersionManifestSigned_</text>
</g>
<!-- Node11&#45;&gt;Node10 -->
<g id="edge12" class="edge">
<title>Node11&#45;&gt;Node10</title>
<path fill="none" stroke="#9a32cd" stroke-dasharray="5,2" d="M763.4769,-50C807.4257,-50 866.7143,-50 914.8499,-50"/>
<polygon fill="#9a32cd" stroke="#9a32cd" points="763.2163,-46.5001 753.2163,-50 763.2163,-53.5001 763.2163,-46.5001"/>
<text text-anchor="middle" x="833.9858" y="-52" font-family="Helvetica,sans-Serif" font-size="10.00" fill="#000000"> installedImage_</text>
</g>
<!-- Node12&#45;&gt;Node11 -->
<g id="edge14" class="edge">
<title>Node12&#45;&gt;Node11</title>
<path fill="none" stroke="#9a32cd" stroke-dasharray="5,2" d="M579.5749,-75.5808C606.0273,-70.0031 635.0196,-63.89 658.0274,-59.0387"/>
<polygon fill="#9a32cd" stroke="#9a32cd" points="578.6416,-72.2005 569.5789,-77.6885 580.0859,-79.0499 578.6416,-72.2005"/>
<text text-anchor="middle" x="609.02" y="-75" font-family="Helvetica,sans-Serif" font-size="10.00" fill="#000000"> hashes_</text>
</g>
</g>
</svg>
        <g id="navigator" transform="translate(0 0)" fill="#404254">
                <rect fill="#f2f5e9" fill-opacity="0.5" stroke="#606060" stroke-width=".5" x="0" y="0" width="60" height="60"/>
                <use id="zoomplus" xlink:href="#zoomPlus" x="17" y="9" onmousedown="handleZoom(evt,'in')"/>
                <use id="zoomminus" xlink:href="#zoomMin" x="42" y="9" onmousedown="handleZoom(evt,'out')"/>
                <use id="reset" xlink:href="#resetDef" x="30" y="36" onmousedown="handleReset()"/>
                <g id="arrowUp" xlink:href="#dirArrow" transform="translate(30 24)" onmousedown="handlePan(0,-1)">
                  <use xlink:href="#rim" fill="#404040">
                        <set attributeName="fill" to="#808080" begin="arrowUp.mouseover" end="arrowUp.mouseout"/>
                  </use>
                  <path fill="none" stroke="white" stroke-width="1.5" d="M0,-3.0v7 M-2.5,-0.5L0,-3.0L2.5,-0.5"/>
                </g>
                <g id="arrowRight" xlink:href="#dirArrow" transform="rotate(90) translate(36 -43)" onmousedown="handlePan(1,0)">
                  <use xlink:href="#rim" fill="#404040">
                        <set attributeName="fill" to="#808080" begin="arrowRight.mouseover" end="arrowRight.mouseout"/>
                  </use>
                  <path fill="none" stroke="white" stroke-width="1.5" d="M0,-3.0v7 M-2.5,-0.5L0,-3.0L2.5,-0.5"/>
                </g>
                <g id="arrowDown" xlink:href="#dirArrow" transform="rotate(180) translate(-30 -48)" onmousedown="handlePan(0,1)">
                  <use xlink:href="#rim" fill="#404040">
                        <set attributeName="fill" to="#808080" begin="arrowDown.mouseover" end="arrowDown.mouseout"/>
                  </use>
                  <path fill="none" stroke="white" stroke-width="1.5" d="M0,-3.0v7 M-2.5,-0.5L0,-3.0L2.5,-0.5"/>
                </g>
                <g id="arrowLeft" xlink:href="#dirArrow" transform="rotate(270) translate(-36 17)" onmousedown="handlePan(-1,0)">
                  <use xlink:href="#rim" fill="#404040">
                        <set attributeName="fill" to="#808080" begin="arrowLeft.mouseover" end="arrowLeft.mouseout"/>
                  </use>
                  <path fill="none" stroke="white" stroke-width="1.5" d="M0,-3.0v7 M-2.5,-0.5L0,-3.0L2.5,-0.5"/>
                </g>
        </g>
        <svg viewBox="0 0 15 15" width="100%" height="30px" preserveAspectRatio="xMaxYMin meet">
         <g id="arrow_out" transform="scale(0.3 0.3)">
          <a xlink:href="classopcuabridge_1_1_version_report__coll__graph_org.svg" target="_base">
           <rect id="button" ry="5" rx="5" y="6" x="6" height="38" width="38"
                fill="#f2f5e9" fill-opacity="0.5" stroke="#606060" stroke-width="1.0"/>
           <path id="arrow"
             d="M 11.500037,31.436501 C 11.940474,20.09759 22.043105,11.32322 32.158766,21.979434 L 37.068811,17.246167 C 37.068811,17.246167 37.088388,32 37.088388,32 L 22.160133,31.978069 C 22.160133,31.978069 26.997745,27.140456 26.997745,27.140456 C 18.528582,18.264221 13.291696,25.230495 11.500037,31.436501 z"
             style="fill:#404040;"/>
          </a>
         </g>
        </svg>
</svg>
