<?xml version="1.0" encoding="UTF-8" standalone="no"?>
<!DOCTYPE svg PUBLIC "-//W3C//DTD SVG 1.1//EN"
 "http://www.w3.org/Graphics/SVG/1.1/DTD/svg11.dtd">
<!-- Generated by graphviz version 2.40.1 (20161225.0304)
 -->
<!-- Title: INvStorage Pages: 1 -->
<svg width="159pt" height="227pt"
 viewBox="0.00 0.00 159.17 227.00" xmlns="http://www.w3.org/2000/svg" xmlns:xlink="http://www.w3.org/1999/xlink">
<g id="graph0" class="graph" transform="scale(1 1) rotate(0) translate(4 223)">
<title>INvStorage</title>
<polygon fill="#ffffff" stroke="transparent" points="-4,4 -4,-223 155.1665,-223 155.1665,4 -4,4"/>
<!-- Node3 -->
<g id="node1" class="node">
<title>Node3</title>
<polygon fill="#bfbfbf" stroke="#000000" points="6.9531,-.5 6.9531,-18.5 72.9775,-18.5 72.9775,-.5 6.9531,-.5"/>
<text text-anchor="middle" x="39.9653" y="-6.5" font-family="Helvetica,sans-Serif" font-size="10.00" fill="#000000">INvStorage</text>
</g>
<!-- Node4 -->
<g id="node2" class="node">
<title>Node4</title>
<g id="a_node2"><a xlink:href="struct_storage_config.html" target="_top" xlink:title="StorageConfig">
<polygon fill="#ffffff" stroke="#000000" points="0,-65.5 0,-83.5 79.9307,-83.5 79.9307,-65.5 0,-65.5"/>
<text text-anchor="middle" x="39.9653" y="-71.5" font-family="Helvetica,sans-Serif" font-size="10.00" fill="#000000">StorageConfig</text>
</a>
</g>
</g>
<!-- Node4&#45;&gt;Node3 -->
<g id="edge1" class="edge">
<title>Node4&#45;&gt;Node3</title>
<path fill="none" stroke="#9a32cd" stroke-dasharray="5,2" d="M39.9653,-55.1265C39.9653,-43.1522 39.9653,-28.3205 39.9653,-18.8821"/>
<polygon fill="#9a32cd" stroke="#9a32cd" points="36.4654,-55.462 39.9653,-65.462 43.4654,-55.4621 36.4654,-55.462"/>
<text text-anchor="middle" x="57.4775" y="-39" font-family="Helvetica,sans-Serif" font-size="10.00" fill="#000000"> config_</text>
</g>
<!-- Node5 -->
<g id="node3" class="node">
<title>Node5</title>
<g id="a_node3"><a xlink:href="class_based_path.html" target="_top" xlink:title="BasedPath">
<polygon fill="#ffffff" stroke="#000000" points="7.5024,-200.5 7.5024,-218.5 72.4282,-218.5 72.4282,-200.5 7.5024,-200.5"/>
<text text-anchor="middle" x="39.9653" y="-206.5" font-family="Helvetica,sans-Serif" font-size="10.00" fill="#000000">BasedPath</text>
</a>
</g>
</g>
<!-- Node5&#45;&gt;Node4 -->
<g id="edge2" class="edge">
<title>Node5&#45;&gt;Node4</title>
<path fill="none" stroke="#9a32cd" stroke-dasharray="5,2" d="M39.9653,-189.9433C39.9653,-160.4406 39.9653,-105.6817 39.9653,-83.844"/>
<polygon fill="#9a32cd" stroke="#9a32cd" points="36.4654,-190.2209 39.9653,-200.2209 43.4654,-190.2209 36.4654,-190.2209"/>
<text text-anchor="middle" x="95.5659" y="-174" font-family="Helvetica,sans-Serif" font-size="10.00" fill="#000000"> uptane_public_key_path</text>
<text text-anchor="middle" x="95.5659" y="-164" font-family="Helvetica,sans-Serif" font-size="10.00" fill="#000000">tls_pkey_path</text>
<text text-anchor="middle" x="95.5659" y="-154" font-family="Helvetica,sans-Serif" font-size="10.00" fill="#000000">uptane_metadata_path</text>
<text text-anchor="middle" x="95.5659" y="-144" font-family="Helvetica,sans-Serif" font-size="10.00" fill="#000000">sqldb_path</text>
<text text-anchor="start" x="39.9653" y="-134" font-family="Helvetica,sans-Serif" font-size="10.00" fill="#000000">uptane_private_key</text>
<text text-anchor="middle" x="95.5659" y="-124" font-family="Helvetica,sans-Serif" font-size="10.00" fill="#000000">_path</text>
<text text-anchor="middle" x="95.5659" y="-114" font-family="Helvetica,sans-Serif" font-size="10.00" fill="#000000">tls_cacert_path</text>
<text text-anchor="middle" x="95.5659" y="-104" font-family="Helvetica,sans-Serif" font-size="10.00" fill="#000000">tls_clientcert_path</text>
</g>
</g>
</svg>
