<?xml version="1.0" encoding="UTF-8" standalone="no"?>
<!DOCTYPE svg PUBLIC "-//W3C//DTD SVG 1.1//EN"
 "http://www.w3.org/Graphics/SVG/1.1/DTD/svg11.dtd">
<!-- Generated by graphviz version 2.40.1 (20161225.0304)
 -->
<!-- Title: event::InstallComplete Pages: 1 -->
<svg width="123pt" height="214pt"
 viewBox="0.00 0.00 122.94 214.00" xmlns="http://www.w3.org/2000/svg" xmlns:xlink="http://www.w3.org/1999/xlink">
<g id="graph0" class="graph" transform="scale(1 1) rotate(0) translate(4 210)">
<title>event::InstallComplete</title>
<polygon fill="#ffffff" stroke="transparent" points="-4,4 -4,-210 118.9404,-210 118.9404,4 -4,4"/>
<!-- Node2 -->
<g id="node1" class="node">
<title>Node2</title>
<polygon fill="#bfbfbf" stroke="#000000" points="0,-.5 0,-18.5 114.9404,-18.5 114.9404,-.5 0,-.5"/>
<text text-anchor="middle" x="57.4702" y="-6.5" font-family="Helvetica,sans-Serif" font-size="10.00" fill="#000000">event::InstallComplete</text>
</g>
<!-- Node3 -->
<g id="node2" class="node">
<title>Node3</title>
<g id="a_node2"><a xlink:href="classevent_1_1_base_event.html" target="_top" xlink:title="Base class for all event objects. ">
<polygon fill="#ffffff" stroke="#000000" points="10.2783,-56.5 10.2783,-74.5 104.6621,-74.5 104.6621,-56.5 10.2783,-56.5"/>
<text text-anchor="middle" x="57.4702" y="-62.5" font-family="Helvetica,sans-Serif" font-size="10.00" fill="#000000">event::BaseEvent</text>
</a>
</g>
</g>
<!-- Node3&#45;&gt;Node2 -->
<g id="edge1" class="edge">
<title>Node3&#45;&gt;Node2</title>
<path fill="none" stroke="#191970" d="M57.4702,-46.2065C57.4702,-36.8384 57.4702,-26.0262 57.4702,-18.5752"/>
<polygon fill="#191970" stroke="#191970" points="53.9703,-46.2527 57.4702,-56.2527 60.9703,-46.2528 53.9703,-46.2527"/>
</g>
<!-- Node4 -->
<g id="node3" class="node">
<title>Node4</title>
<g id="a_node3"><a xlink:title="STL class. ">
<polygon fill="#ffffff" stroke="#bfbfbf" points="27.7954,-121.5 27.7954,-139.5 87.145,-139.5 87.145,-121.5 27.7954,-121.5"/>
<text text-anchor="middle" x="57.4702" y="-127.5" font-family="Helvetica,sans-Serif" font-size="10.00" fill="#000000">std::string</text>
</a>
</g>
</g>
<!-- Node4&#45;&gt;Node3 -->
<g id="edge2" class="edge">
<title>Node4&#45;&gt;Node3</title>
<path fill="none" stroke="#9a32cd" stroke-dasharray="5,2" d="M57.4702,-111.1265C57.4702,-99.1522 57.4702,-84.3205 57.4702,-74.8821"/>
<polygon fill="#9a32cd" stroke="#9a32cd" points="53.9703,-111.462 57.4702,-121.462 60.9703,-111.4621 53.9703,-111.462"/>
<text text-anchor="middle" x="73.8667" y="-95" font-family="Helvetica,sans-Serif" font-size="10.00" fill="#000000"> variant</text>
</g>
<!-- Node5 -->
<g id="node4" class="node">
<title>Node5</title>
<g id="a_node4"><a xlink:title="STL class. ">
<polygon fill="#ffffff" stroke="#bfbfbf" points="10.4224,-177.5 10.4224,-205.5 104.5181,-205.5 104.5181,-177.5 10.4224,-177.5"/>
<text text-anchor="start" x="18.4224" y="-193.5" font-family="Helvetica,sans-Serif" font-size="10.00" fill="#000000">std::basic_string&lt;</text>
<text text-anchor="middle" x="57.4702" y="-183.5" font-family="Helvetica,sans-Serif" font-size="10.00" fill="#000000"> char &gt;</text>
</a>
</g>
</g>
<!-- Node5&#45;&gt;Node4 -->
<g id="edge3" class="edge">
<title>Node5&#45;&gt;Node4</title>
<path fill="none" stroke="#191970" d="M57.4702,-167.1001C57.4702,-157.5157 57.4702,-147.0935 57.4702,-139.831"/>
<polygon fill="#191970" stroke="#191970" points="53.9703,-167.352 57.4702,-177.3521 60.9703,-167.3521 53.9703,-167.352"/>
</g>
</g>
</svg>
