<?xml version="1.0" encoding="UTF-8" standalone="no"?>
<!DOCTYPE svg PUBLIC "-//W3C//DTD SVG 1.1//EN"
 "http://www.w3.org/Graphics/SVG/1.1/DTD/svg11.dtd">
<!-- Generated by graphviz version 2.40.1 (20161225.0304)
 -->
<!-- Title: opcuabridge::Hash Pages: 1 -->
<svg width="108pt" height="158pt"
 viewBox="0.00 0.00 107.95 158.00" xmlns="http://www.w3.org/2000/svg" xmlns:xlink="http://www.w3.org/1999/xlink">
<g id="graph0" class="graph" transform="scale(1 1) rotate(0) translate(4 154)">
<title>opcuabridge::Hash</title>
<polygon fill="#ffffff" stroke="transparent" points="-4,4 -4,-154 103.9453,-154 103.9453,4 -4,4"/>
<!-- Node1 -->
<g id="node1" class="node">
<title>Node1</title>
<polygon fill="#bfbfbf" stroke="#000000" points="0,-.5 0,-18.5 99.9453,-18.5 99.9453,-.5 0,-.5"/>
<text text-anchor="middle" x="49.9727" y="-6.5" font-family="Helvetica,sans-Serif" font-size="10.00" fill="#000000">opcuabridge::Hash</text>
</g>
<!-- Node2 -->
<g id="node2" class="node">
<title>Node2</title>
<g id="a_node2"><a xlink:title="STL class. ">
<polygon fill="#ffffff" stroke="#bfbfbf" points="20.2979,-65.5 20.2979,-83.5 79.6475,-83.5 79.6475,-65.5 20.2979,-65.5"/>
<text text-anchor="middle" x="49.9727" y="-71.5" font-family="Helvetica,sans-Serif" font-size="10.00" fill="#000000">std::string</text>
</a>
</g>
</g>
<!-- Node2&#45;&gt;Node1 -->
<g id="edge1" class="edge">
<title>Node2&#45;&gt;Node1</title>
<path fill="none" stroke="#9a32cd" stroke-dasharray="5,2" d="M49.9727,-55.1265C49.9727,-43.1522 49.9727,-28.3205 49.9727,-18.8821"/>
<polygon fill="#9a32cd" stroke="#9a32cd" points="46.4728,-55.462 49.9727,-65.462 53.4728,-55.4621 46.4728,-55.462"/>
<text text-anchor="middle" x="67.4849" y="-39" font-family="Helvetica,sans-Serif" font-size="10.00" fill="#000000"> digest_</text>
</g>
<!-- Node3 -->
<g id="node3" class="node">
<title>Node3</title>
<g id="a_node3"><a xlink:title="STL class. ">
<polygon fill="#ffffff" stroke="#bfbfbf" points="2.9248,-121.5 2.9248,-149.5 97.0205,-149.5 97.0205,-121.5 2.9248,-121.5"/>
<text text-anchor="start" x="10.9248" y="-137.5" font-family="Helvetica,sans-Serif" font-size="10.00" fill="#000000">std::basic_string&lt;</text>
<text text-anchor="middle" x="49.9727" y="-127.5" font-family="Helvetica,sans-Serif" font-size="10.00" fill="#000000"> char &gt;</text>
</a>
</g>
</g>
<!-- Node3&#45;&gt;Node2 -->
<g id="edge2" class="edge">
<title>Node3&#45;&gt;Node2</title>
<path fill="none" stroke="#191970" d="M49.9727,-111.1001C49.9727,-101.5157 49.9727,-91.0935 49.9727,-83.831"/>
<polygon fill="#191970" stroke="#191970" points="46.4728,-111.352 49.9727,-121.3521 53.4728,-111.3521 46.4728,-111.352"/>
</g>
</g>
</svg>
