<?xml version="1.0" encoding="UTF-8" standalone="no"?>
<!DOCTYPE svg PUBLIC "-//W3C//DTD SVG 1.1//EN"
 "http://www.w3.org/Graphics/SVG/1.1/DTD/svg11.dtd">
<!-- Generated by graphviz version 2.40.1 (20161225.0304)
 -->
<!-- Title: Uptane::TargetHashMismatch Pages: 1 -->
<svg width="156pt" height="192pt"
 viewBox="0.00 0.00 155.72 192.00" xmlns="http://www.w3.org/2000/svg" xmlns:xlink="http://www.w3.org/1999/xlink">
<g id="graph0" class="graph" transform="scale(1 1) rotate(0) translate(4 188)">
<title>Uptane::TargetHashMismatch</title>
<polygon fill="#ffffff" stroke="transparent" points="-4,4 -4,-188 151.7236,-188 151.7236,4 -4,4"/>
<!-- Node0 -->
<g id="node1" class="node">
<title>Node0</title>
<polygon fill="#bfbfbf" stroke="#000000" points="0,-.5 0,-18.5 147.7236,-18.5 147.7236,-.5 0,-.5"/>
<text text-anchor="middle" x="73.8618" y="-6.5" font-family="Helvetica,sans-Serif" font-size="10.00" fill="#000000">Uptane::TargetHashMismatch</text>
</g>
<!-- Node1 -->
<g id="node2" class="node">
<title>Node1</title>
<g id="a_node2"><a xlink:href="class_uptane_1_1_exception.html" target="_top" xlink:title="Uptane::Exception">
<polygon fill="#ffffff" stroke="#000000" points="25.0024,-55.5 25.0024,-73.5 122.7212,-73.5 122.7212,-55.5 25.0024,-55.5"/>
<text text-anchor="middle" x="73.8618" y="-61.5" font-family="Helvetica,sans-Serif" font-size="10.00" fill="#000000">Uptane::Exception</text>
</a>
</g>
</g>
<!-- Node1&#45;&gt;Node0 -->
<g id="edge1" class="edge">
<title>Node1&#45;&gt;Node0</title>
<path fill="none" stroke="#191970" d="M73.8618,-45.383C73.8618,-36.3738 73.8618,-26.0373 73.8618,-18.7795"/>
<polygon fill="#191970" stroke="#191970" points="70.3619,-45.4178 73.8618,-55.4179 77.3619,-45.4179 70.3619,-45.4178"/>
</g>
<!-- Node2 -->
<g id="node3" class="node">
<title>Node2</title>
<g id="a_node3"><a xlink:title="STL class. ">
<polygon fill="#ffffff" stroke="#bfbfbf" points="32.793,-110.5 32.793,-128.5 114.9307,-128.5 114.9307,-110.5 32.793,-110.5"/>
<text text-anchor="middle" x="73.8618" y="-116.5" font-family="Helvetica,sans-Serif" font-size="10.00" fill="#000000">std::logic_error</text>
</a>
</g>
</g>
<!-- Node2&#45;&gt;Node1 -->
<g id="edge2" class="edge">
<title>Node2&#45;&gt;Node1</title>
<path fill="none" stroke="#191970" d="M73.8618,-100.383C73.8618,-91.3738 73.8618,-81.0373 73.8618,-73.7795"/>
<polygon fill="#191970" stroke="#191970" points="70.3619,-100.4178 73.8618,-110.4179 77.3619,-100.4179 70.3619,-100.4178"/>
</g>
<!-- Node3 -->
<g id="node4" class="node">
<title>Node3</title>
<g id="a_node4"><a xlink:title="STL class. ">
<polygon fill="#ffffff" stroke="#bfbfbf" points="35.0098,-165.5 35.0098,-183.5 112.7139,-183.5 112.7139,-165.5 35.0098,-165.5"/>
<text text-anchor="middle" x="73.8618" y="-171.5" font-family="Helvetica,sans-Serif" font-size="10.00" fill="#000000">std::exception</text>
</a>
</g>
</g>
<!-- Node3&#45;&gt;Node2 -->
<g id="edge3" class="edge">
<title>Node3&#45;&gt;Node2</title>
<path fill="none" stroke="#191970" d="M73.8618,-155.383C73.8618,-146.3738 73.8618,-136.0373 73.8618,-128.7795"/>
<polygon fill="#191970" stroke="#191970" points="70.3619,-155.4178 73.8618,-165.4179 77.3619,-155.4179 70.3619,-155.4178"/>
</g>
</g>
</svg>
