<?xml version="1.0" encoding="UTF-8" standalone="no"?>
<!DOCTYPE svg PUBLIC "-//W3C//DTD SVG 1.1//EN"
 "http://www.w3.org/Graphics/SVG/1.1/DTD/svg11.dtd">
<!-- Generated by graphviz version 2.40.1 (20161225.0304)
 -->
<!-- Title: Uptane::ImagesRepository Pages: 1 -->
<svg width="150pt" height="269pt"
 viewBox="0.00 0.00 150.17 269.00" xmlns="http://www.w3.org/2000/svg" xmlns:xlink="http://www.w3.org/1999/xlink">
<g id="graph0" class="graph" transform="scale(1 1) rotate(0) translate(4 265)">
<title>Uptane::ImagesRepository</title>
<polygon fill="#ffffff" stroke="transparent" points="-4,4 -4,-265 146.167,-265 146.167,4 -4,4"/>
<!-- Node2 -->
<g id="node1" class="node">
<title>Node2</title>
<polygon fill="#bfbfbf" stroke="#000000" points="3.8867,-.5 3.8867,-18.5 138.2803,-18.5 138.2803,-.5 3.8867,-.5"/>
<text text-anchor="middle" x="71.0835" y="-6.5" font-family="Helvetica,sans-Serif" font-size="10.00" fill="#000000">Uptane::ImagesRepository</text>
</g>
<!-- Node3 -->
<g id="node2" class="node">
<title>Node3</title>
<g id="a_node2"><a xlink:href="class_uptane_1_1_repository_common.html" target="_top" xlink:title="Uptane::RepositoryCommon">
<polygon fill="#ffffff" stroke="#000000" points="0,-56.5 0,-74.5 142.167,-74.5 142.167,-56.5 0,-56.5"/>
<text text-anchor="middle" x="71.0835" y="-62.5" font-family="Helvetica,sans-Serif" font-size="10.00" fill="#000000">Uptane::RepositoryCommon</text>
</a>
</g>
</g>
<!-- Node3&#45;&gt;Node2 -->
<g id="edge1" class="edge">
<title>Node3&#45;&gt;Node2</title>
<path fill="none" stroke="#191970" d="M71.0835,-46.2065C71.0835,-36.8384 71.0835,-26.0262 71.0835,-18.5752"/>
<polygon fill="#191970" stroke="#191970" points="67.5836,-46.2527 71.0835,-56.2527 74.5836,-46.2528 67.5836,-46.2527"/>
</g>
<!-- Node4 -->
<g id="node3" class="node">
<title>Node4</title>
<g id="a_node3"><a xlink:href="class_uptane_1_1_root.html" target="_top" xlink:title="Uptane::Root">
<polygon fill="#ffffff" stroke="#000000" points="33.6206,-121.5 33.6206,-139.5 108.5464,-139.5 108.5464,-121.5 33.6206,-121.5"/>
<text text-anchor="middle" x="71.0835" y="-127.5" font-family="Helvetica,sans-Serif" font-size="10.00" fill="#000000">Uptane::Root</text>
</a>
</g>
</g>
<!-- Node4&#45;&gt;Node3 -->
<g id="edge2" class="edge">
<title>Node4&#45;&gt;Node3</title>
<path fill="none" stroke="#9a32cd" stroke-dasharray="5,2" d="M71.0835,-111.1265C71.0835,-99.1522 71.0835,-84.3205 71.0835,-74.8821"/>
<polygon fill="#9a32cd" stroke="#9a32cd" points="67.5836,-111.462 71.0835,-121.462 74.5836,-111.4621 67.5836,-111.462"/>
<text text-anchor="middle" x="81.0884" y="-95" font-family="Helvetica,sans-Serif" font-size="10.00" fill="#000000"> root</text>
</g>
<!-- Node5 -->
<g id="node4" class="node">
<title>Node5</title>
<g id="a_node4"><a xlink:href="class_uptane_1_1_base_meta.html" target="_top" xlink:title="Uptane::BaseMeta">
<polygon fill="#ffffff" stroke="#000000" points="21.6699,-177.5 21.6699,-195.5 120.4971,-195.5 120.4971,-177.5 21.6699,-177.5"/>
<text text-anchor="middle" x="71.0835" y="-183.5" font-family="Helvetica,sans-Serif" font-size="10.00" fill="#000000">Uptane::BaseMeta</text>
</a>
</g>
</g>
<!-- Node5&#45;&gt;Node4 -->
<g id="edge3" class="edge">
<title>Node5&#45;&gt;Node4</title>
<path fill="none" stroke="#191970" d="M71.0835,-167.2065C71.0835,-157.8384 71.0835,-147.0262 71.0835,-139.5752"/>
<polygon fill="#191970" stroke="#191970" points="67.5836,-167.2527 71.0835,-177.2527 74.5836,-167.2528 67.5836,-167.2527"/>
</g>
<!-- Node6 -->
<g id="node5" class="node">
<title>Node6</title>
<g id="a_node5"><a xlink:href="class_uptane_1_1_time_stamp.html" target="_top" xlink:title="Uptane::TimeStamp">
<polygon fill="#ffffff" stroke="#000000" points="18.8037,-242.5 18.8037,-260.5 123.3633,-260.5 123.3633,-242.5 18.8037,-242.5"/>
<text text-anchor="middle" x="71.0835" y="-248.5" font-family="Helvetica,sans-Serif" font-size="10.00" fill="#000000">Uptane::TimeStamp</text>
</a>
</g>
</g>
<!-- Node6&#45;&gt;Node5 -->
<g id="edge4" class="edge">
<title>Node6&#45;&gt;Node5</title>
<path fill="none" stroke="#9a32cd" stroke-dasharray="5,2" d="M71.0835,-232.1265C71.0835,-220.1522 71.0835,-205.3205 71.0835,-195.8821"/>
<polygon fill="#9a32cd" stroke="#9a32cd" points="67.5836,-232.462 71.0835,-242.462 74.5836,-232.4621 67.5836,-232.462"/>
<text text-anchor="middle" x="88.5908" y="-216" font-family="Helvetica,sans-Serif" font-size="10.00" fill="#000000"> expiry_</text>
</g>
</g>
</svg>
