<?xml version="1.0" encoding="UTF-8" standalone="no"?>
<!DOCTYPE svg PUBLIC "-//W3C//DTD SVG 1.1//EN"
 "http://www.w3.org/Graphics/SVG/1.1/DTD/svg11.dtd">
<!-- Generated by graphviz version 2.40.1 (20161225.0304)
 -->
<!-- Title: Config Pages: 1 -->
<!--zoomable 640 -->
<svg id="main" version="1.1" xmlns="http://www.w3.org/2000/svg" xmlns:xlink="http://www.w3.org/1999/xlink" xml:space="preserve" onload="init(evt)">
<style type="text/css"><![CDATA[
.edge:hover path { stroke: red; }
.edge:hover polygon { stroke: red; fill: red; }
]]></style>
<script type="text/javascript"><![CDATA[
var edges = document.getElementsByTagName('g');
if (edges && edges.length) {
  for (var i=0;i<edges.length;i++) {
    if (edges[i].id.substr(0,4)=='edge') {
      edges[i].setAttribute('class','edge');
    }
  }
}
]]></script>
        <defs>
                <circle id="rim" cx="0" cy="0" r="7"/>
                <circle id="rim2" cx="0" cy="0" r="3.5"/>
                <g id="zoomPlus">
                        <use xlink:href="#rim" fill="#404040">
                                <set attributeName="fill" to="#808080" begin="zoomplus.mouseover" end="zoomplus.mouseout"/>
                        </use>
                        <path d="M-4,0h8M0,-4v8" fill="none" stroke="white" stroke-width="1.5" pointer-events="none"/>
                </g>
                <g id="zoomMin">
                        <use xlink:href="#rim" fill="#404040">
                                <set attributeName="fill" to="#808080" begin="zoomminus.mouseover" end="zoomminus.mouseout"/>
                        </use>
                        <path d="M-4,0h8" fill="none" stroke="white" stroke-width="1.5" pointer-events="none"/>
                </g>
                <g id="dirArrow">
                        <path fill="none" stroke="white" stroke-width="1.5" d="M0,-3.0v7 M-2.5,-0.5L0,-3.0L2.5,-0.5"/>
                </g>
               <g id="resetDef">
                       <use xlink:href="#rim2" fill="#404040">
                               <set attributeName="fill" to="#808080" begin="reset.mouseover" end="reset.mouseout"/>
                       </use>
               </g>
        </defs>

<script type="text/javascript">
var viewWidth = 1068;
var viewHeight = 640;
var sectionId = 'dynsection-1';
</script>
<script xlink:href="svgpan.js"/>
<svg id="graph" class="graph">
<g id="viewport">
<title>Config</title>
<polygon fill="#ffffff" stroke="transparent" points="-4,4 -4,-635.8661 1063.5771,-635.8661 1063.5771,4 -4,4"/>
<!-- Node2 -->
<g id="node1" class="node">
<title>Node2</title>
<polygon fill="#bfbfbf" stroke="#000000" points="1014.6709,-305.3661 1014.6709,-323.3661 1059.5771,-323.3661 1059.5771,-305.3661 1014.6709,-305.3661"/>
<text text-anchor="middle" x="1037.124" y="-311.3661" font-family="Helvetica,sans-Serif" font-size="10.00" fill="#000000">Config</text>
</g>
<!-- Node3 -->
<g id="node2" class="node">
<title>Node3</title>
<g id="a_node2"><a xlink:href="class_base_config.html" target="_top" xlink:title="BaseConfig">
<polygon fill="#ffffff" stroke="#000000" points="848.1445,-574.3661 848.1445,-592.3661 915.8438,-592.3661 915.8438,-574.3661 848.1445,-574.3661"/>
<text text-anchor="middle" x="881.9941" y="-580.3661" font-family="Helvetica,sans-Serif" font-size="10.00" fill="#000000">BaseConfig</text>
</a>
</g>
</g>
<!-- Node3&#45;&gt;Node2 -->
<g id="edge1" class="edge">
<title>Node3&#45;&gt;Node2</title>
<path fill="none" stroke="#191970" d="M923.95,-570.8509C948.8445,-561.2662 978.9153,-545.5109 996.6709,-521.3661 1020.5336,-488.9165 1033.2579,-359.3649 1036.3648,-323.5702"/>
<polygon fill="#191970" stroke="#191970" points="922.5494,-567.6361 914.3508,-574.3468 924.9448,-574.2135 922.5494,-567.6361"/>
</g>
<!-- Node4 -->
<g id="node3" class="node">
<title>Node4</title>
<polygon fill="#ffffff" stroke="#bfbfbf" points="584.8872,-603.3661 584.8872,-631.3661 684.5347,-631.3661 684.5347,-603.3661 584.8872,-603.3661"/>
<text text-anchor="start" x="592.8872" y="-619.3661" font-family="Helvetica,sans-Serif" font-size="10.00" fill="#000000">std::vector&lt; boost</text>
<text text-anchor="middle" x="634.7109" y="-609.3661" font-family="Helvetica,sans-Serif" font-size="10.00" fill="#000000">::filesystem::path &gt;</text>
</g>
<!-- Node4&#45;&gt;Node3 -->
<g id="edge2" class="edge">
<title>Node4&#45;&gt;Node3</title>
<path fill="none" stroke="#9a32cd" stroke-dasharray="5,2" d="M695.0701,-611.0728C730.7216,-607.1123 776.6963,-601.5827 817.3564,-595.3661 827.285,-593.8481 838.0255,-591.9557 847.8466,-590.1258"/>
<polygon fill="#9a32cd" stroke="#9a32cd" points="694.3867,-607.6268 684.8292,-612.199 695.1519,-614.5849 694.3867,-607.6268"/>
<text text-anchor="middle" x="761.7559" y="-611.3661" font-family="Helvetica,sans-Serif" font-size="10.00" fill="#000000"> config_dirs_</text>
</g>
<!-- Node5 -->
<g id="node4" class="node">
<title>Node5</title>
<g id="a_node4"><a xlink:href="struct_storage_config.html" target="_top" xlink:title="StorageConfig">
<polygon fill="#ffffff" stroke="#000000" points="842.0288,-503.3661 842.0288,-521.3661 921.9595,-521.3661 921.9595,-503.3661 842.0288,-503.3661"/>
<text text-anchor="middle" x="881.9941" y="-509.3661" font-family="Helvetica,sans-Serif" font-size="10.00" fill="#000000">StorageConfig</text>
</a>
</g>
</g>
<!-- Node5&#45;&gt;Node2 -->
<g id="edge3" class="edge">
<title>Node5&#45;&gt;Node2</title>
<path fill="none" stroke="#9a32cd" stroke-dasharray="5,2" d="M932.2376,-511.0588C954.7314,-507.8875 979.9048,-500.3472 996.6709,-483.3661 1019.563,-460.1803 1032.6238,-355.8071 1036.1465,-323.7565"/>
<polygon fill="#9a32cd" stroke="#9a32cd" points="931.6631,-507.6018 922.131,-512.2267 932.4667,-514.5555 931.6631,-507.6018"/>
<text text-anchor="middle" x="971.6514" y="-509.3661" font-family="Helvetica,sans-Serif" font-size="10.00" fill="#000000"> storage</text>
</g>
<!-- Node6 -->
<g id="node5" class="node">
<title>Node6</title>
<g id="a_node5"><a xlink:href="class_based_path.html" target="_top" xlink:title="BasedPath">
<polygon fill="#ffffff" stroke="#000000" points="602.248,-466.3661 602.248,-484.3661 667.1738,-484.3661 667.1738,-466.3661 602.248,-466.3661"/>
<text text-anchor="middle" x="634.7109" y="-472.3661" font-family="Helvetica,sans-Serif" font-size="10.00" fill="#000000">BasedPath</text>
</a>
</g>
</g>
<!-- Node6&#45;&gt;Node5 -->
<g id="edge4" class="edge">
<title>Node6&#45;&gt;Node5</title>
<path fill="none" stroke="#9a32cd" stroke-dasharray="5,2" d="M677.2621,-486.3773C686.7293,-488.579 696.7481,-490.7181 706.1553,-492.3661 752.4584,-500.4779 806.2233,-506.0374 841.9916,-509.1979"/>
<polygon fill="#9a32cd" stroke="#9a32cd" points="677.8008,-482.9075 667.2608,-483.984 676.1717,-489.7153 677.8008,-482.9075"/>
<text text-anchor="middle" x="761.7559" y="-578.3661" font-family="Helvetica,sans-Serif" font-size="10.00" fill="#000000"> uptane_public_key_path</text>
<text text-anchor="middle" x="761.7559" y="-568.3661" font-family="Helvetica,sans-Serif" font-size="10.00" fill="#000000">tls_pkey_path</text>
<text text-anchor="middle" x="761.7559" y="-558.3661" font-family="Helvetica,sans-Serif" font-size="10.00" fill="#000000">uptane_metadata_path</text>
<text text-anchor="middle" x="761.7559" y="-548.3661" font-family="Helvetica,sans-Serif" font-size="10.00" fill="#000000">sqldb_path</text>
<text text-anchor="start" x="706.1553" y="-538.3661" font-family="Helvetica,sans-Serif" font-size="10.00" fill="#000000">uptane_private_key</text>
<text text-anchor="middle" x="761.7559" y="-528.3661" font-family="Helvetica,sans-Serif" font-size="10.00" fill="#000000">_path</text>
<text text-anchor="middle" x="761.7559" y="-518.3661" font-family="Helvetica,sans-Serif" font-size="10.00" fill="#000000">tls_cacert_path</text>
<text text-anchor="middle" x="761.7559" y="-508.3661" font-family="Helvetica,sans-Serif" font-size="10.00" fill="#000000">tls_clientcert_path</text>
</g>
<!-- Node21 -->
<g id="node20" class="node">
<title>Node21</title>
<g id="a_node20"><a xlink:href="struct_import_config.html" target="_top" xlink:title="ImportConfig">
<polygon fill="#ffffff" stroke="#000000" points="845.3711,-464.3661 845.3711,-482.3661 918.6172,-482.3661 918.6172,-464.3661 845.3711,-464.3661"/>
<text text-anchor="middle" x="881.9941" y="-470.3661" font-family="Helvetica,sans-Serif" font-size="10.00" fill="#000000">ImportConfig</text>
</a>
</g>
</g>
<!-- Node6&#45;&gt;Node21 -->
<g id="edge27" class="edge">
<title>Node6&#45;&gt;Node21</title>
<path fill="none" stroke="#9a32cd" stroke-dasharray="5,2" d="M653.5563,-460.1031C667.2433,-450.0448 686.7032,-437.7684 706.1553,-432.3661 753.7756,-419.1408 772.9267,-410.7188 817.3564,-432.3661 829.0256,-438.0516 824.9258,-447.6398 835.3564,-455.3661 840.0988,-458.8789 845.6124,-461.7956 851.1529,-464.1849"/>
<polygon fill="#9a32cd" stroke="#9a32cd" points="651.2721,-457.4437 645.4538,-466.298 655.5237,-463.0046 651.2721,-457.4437"/>
<text text-anchor="middle" x="761.7559" y="-484.3661" font-family="Helvetica,sans-Serif" font-size="10.00" fill="#000000"> uptane_public_key_path</text>
<text text-anchor="middle" x="761.7559" y="-474.3661" font-family="Helvetica,sans-Serif" font-size="10.00" fill="#000000">tls_pkey_path</text>
<text text-anchor="start" x="706.1553" y="-464.3661" font-family="Helvetica,sans-Serif" font-size="10.00" fill="#000000">uptane_private_key</text>
<text text-anchor="middle" x="761.7559" y="-454.3661" font-family="Helvetica,sans-Serif" font-size="10.00" fill="#000000">_path</text>
<text text-anchor="middle" x="761.7559" y="-444.3661" font-family="Helvetica,sans-Serif" font-size="10.00" fill="#000000">tls_cacert_path</text>
<text text-anchor="middle" x="761.7559" y="-434.3661" font-family="Helvetica,sans-Serif" font-size="10.00" fill="#000000">tls_clientcert_path</text>
</g>
<!-- Node7 -->
<g id="node6" class="node">
<title>Node7</title>
<g id="a_node6"><a xlink:href="struct_discovery_config.html" target="_top" xlink:title="DiscoveryConfig">
<polygon fill="#ffffff" stroke="#000000" points="837.5928,-427.3661 837.5928,-445.3661 926.3955,-445.3661 926.3955,-427.3661 837.5928,-427.3661"/>
<text text-anchor="middle" x="881.9941" y="-433.3661" font-family="Helvetica,sans-Serif" font-size="10.00" fill="#000000">DiscoveryConfig</text>
</a>
</g>
</g>
<!-- Node7&#45;&gt;Node2 -->
<g id="edge5" class="edge">
<title>Node7&#45;&gt;Node2</title>
<path fill="none" stroke="#9a32cd" stroke-dasharray="5,2" d="M936.553,-435.5319C957.3292,-432.6873 979.9927,-426.2102 996.6709,-412.3661 1024.7134,-389.0887 1033.577,-343.1944 1036.1538,-323.5934"/>
<polygon fill="#9a32cd" stroke="#9a32cd" points="936.0885,-432.0619 926.54,-436.6528 936.8673,-439.0185 936.0885,-432.0619"/>
<text text-anchor="middle" x="971.6514" y="-435.3661" font-family="Helvetica,sans-Serif" font-size="10.00" fill="#000000"> discovery</text>
</g>
<!-- Node8 -->
<g id="node7" class="node">
<title>Node8</title>
<g id="a_node7"><a xlink:href="struct_tls_config.html" target="_top" xlink:title="TlsConfig">
<polygon fill="#ffffff" stroke="#000000" points="491.1313,-394.3661 491.1313,-412.3661 549.3677,-412.3661 549.3677,-394.3661 491.1313,-394.3661"/>
<text text-anchor="middle" x="520.2495" y="-400.3661" font-family="Helvetica,sans-Serif" font-size="10.00" fill="#000000">TlsConfig</text>
</a>
</g>
</g>
<!-- Node8&#45;&gt;Node2 -->
<g id="edge6" class="edge">
<title>Node8&#45;&gt;Node2</title>
<path fill="none" stroke="#9a32cd" stroke-dasharray="5,2" d="M559.6377,-402.4797C632.8968,-400.2609 794.8183,-392.6727 928.6318,-367.3661 959.6018,-361.5091 968.7881,-362.0629 996.6709,-347.3661 1008.6978,-341.0268 1020.5191,-330.7867 1028.2467,-323.3935"/>
<polygon fill="#9a32cd" stroke="#9a32cd" points="559.3823,-398.9854 549.4863,-402.7695 559.5821,-405.9826 559.3823,-398.9854"/>
<text text-anchor="middle" x="761.7559" y="-396.3661" font-family="Helvetica,sans-Serif" font-size="10.00" fill="#000000"> tls</text>
</g>
<!-- Node9 -->
<g id="node8" class="node">
<title>Node9</title>
<g id="a_node8"><a xlink:title="STL class. ">
<polygon fill="#ffffff" stroke="#bfbfbf" points="131.0957,-215.3661 131.0957,-233.3661 190.4453,-233.3661 190.4453,-215.3661 131.0957,-215.3661"/>
<text text-anchor="middle" x="160.7705" y="-221.3661" font-family="Helvetica,sans-Serif" font-size="10.00" fill="#000000">std::string</text>
</a>
</g>
</g>
<!-- Node9&#45;&gt;Node8 -->
<g id="edge7" class="edge">
<title>Node9&#45;&gt;Node8</title>
<path fill="none" stroke="#9a32cd" stroke-dasharray="5,2" d="M163.6303,-243.599C169.8422,-282.5278 185.8485,-368.481 208.4453,-386.3661 291.9761,-452.4794 430.9817,-427.1145 491.0852,-411.7523"/>
<polygon fill="#9a32cd" stroke="#9a32cd" points="167.0648,-242.9051 162.0802,-233.5561 160.1467,-243.973 167.0648,-242.9051"/>
<text text-anchor="middle" x="259.5806" y="-427.3661" font-family="Helvetica,sans-Serif" font-size="10.00" fill="#000000"> server</text>
</g>
<!-- Node12 -->
<g id="node11" class="node">
<title>Node12</title>
<g id="a_node11"><a xlink:href="struct_package_config.html" target="_top" xlink:title="PackageConfig">
<polygon fill="#ffffff" stroke="#000000" points="719.8447,-351.3661 719.8447,-369.3661 803.667,-369.3661 803.667,-351.3661 719.8447,-351.3661"/>
<text text-anchor="middle" x="761.7559" y="-357.3661" font-family="Helvetica,sans-Serif" font-size="10.00" fill="#000000">PackageConfig</text>
</a>
</g>
</g>
<!-- Node9&#45;&gt;Node12 -->
<g id="edge11" class="edge">
<title>Node9&#45;&gt;Node12</title>
<path fill="none" stroke="#9a32cd" stroke-dasharray="5,2" d="M164.7003,-243.97C172.0464,-278.414 188.8972,-347.4707 208.4453,-361.3661 249.6485,-390.6545 597.1965,-371.1011 719.4374,-363.2252"/>
<polygon fill="#9a32cd" stroke="#9a32cd" points="168.0382,-242.8282 162.5832,-233.7456 161.1836,-244.2476 168.0382,-242.8282"/>
<text text-anchor="middle" x="393.9741" y="-388.3661" font-family="Helvetica,sans-Serif" font-size="10.00" fill="#000000"> os</text>
<text text-anchor="middle" x="393.9741" y="-378.3661" font-family="Helvetica,sans-Serif" font-size="10.00" fill="#000000">ostree_server</text>
</g>
<!-- Node13 -->
<g id="node12" class="node">
<title>Node13</title>
<g id="a_node12"><a xlink:href="struct_provision_config.html" target="_top" xlink:title="ProvisionConfig">
<polygon fill="#ffffff" stroke="#000000" points="477.2324,-305.3661 477.2324,-323.3661 563.2666,-323.3661 563.2666,-305.3661 477.2324,-305.3661"/>
<text text-anchor="middle" x="520.2495" y="-311.3661" font-family="Helvetica,sans-Serif" font-size="10.00" fill="#000000">ProvisionConfig</text>
</a>
</g>
</g>
<!-- Node9&#45;&gt;Node13 -->
<g id="edge13" class="edge">
<title>Node9&#45;&gt;Node13</title>
<path fill="none" stroke="#9a32cd" stroke-dasharray="5,2" d="M185.4989,-238.2569C192.7354,-241.9227 200.768,-245.6175 208.4453,-248.3661 252.3079,-264.0693 270.2116,-248.3459 310.7158,-271.3661 320.8288,-277.1137 318.3372,-285.1132 328.7158,-290.3661 375.5105,-314.0501 436.6718,-317.7461 477.146,-317.0412"/>
<polygon fill="#9a32cd" stroke="#9a32cd" points="186.7103,-234.9388 176.2326,-233.3677 183.4437,-241.1298 186.7103,-234.9388"/>
<text text-anchor="middle" x="259.5806" y="-353.3661" font-family="Helvetica,sans-Serif" font-size="10.00" fill="#000000"> server</text>
<text text-anchor="middle" x="259.5806" y="-343.3661" font-family="Helvetica,sans-Serif" font-size="10.00" fill="#000000">p12_password</text>
<text text-anchor="start" x="208.4453" y="-333.3661" font-family="Helvetica,sans-Serif" font-size="10.00" fill="#000000">primary_ecu_hardware</text>
<text text-anchor="middle" x="259.5806" y="-323.3661" font-family="Helvetica,sans-Serif" font-size="10.00" fill="#000000">_id</text>
<text text-anchor="middle" x="259.5806" y="-313.3661" font-family="Helvetica,sans-Serif" font-size="10.00" fill="#000000">expiry_days</text>
<text text-anchor="middle" x="259.5806" y="-303.3661" font-family="Helvetica,sans-Serif" font-size="10.00" fill="#000000">device_id</text>
<text text-anchor="start" x="208.4453" y="-293.3661" font-family="Helvetica,sans-Serif" font-size="10.00" fill="#000000">ecu_registration</text>
<text text-anchor="middle" x="259.5806" y="-283.3661" font-family="Helvetica,sans-Serif" font-size="10.00" fill="#000000">_endpoint</text>
<text text-anchor="middle" x="259.5806" y="-273.3661" font-family="Helvetica,sans-Serif" font-size="10.00" fill="#000000">primary_ecu_serial</text>
</g>
<!-- Node14 -->
<g id="node13" class="node">
<title>Node14</title>
<g id="a_node13"><a xlink:href="struct_network_config.html" target="_top" xlink:title="NetworkConfig">
<polygon fill="#ffffff" stroke="#000000" points="593.9204,-247.3661 593.9204,-265.3661 675.5015,-265.3661 675.5015,-247.3661 593.9204,-247.3661"/>
<text text-anchor="middle" x="634.7109" y="-253.3661" font-family="Helvetica,sans-Serif" font-size="10.00" fill="#000000">NetworkConfig</text>
</a>
</g>
</g>
<!-- Node9&#45;&gt;Node14 -->
<g id="edge15" class="edge">
<title>Node9&#45;&gt;Node14</title>
<path fill="none" stroke="#9a32cd" stroke-dasharray="5,2" d="M201.0247,-227.084C290.2457,-233.1081 503.8167,-247.5282 593.7189,-253.5983"/>
<polygon fill="#9a32cd" stroke="#9a32cd" points="200.9902,-223.5738 190.7772,-226.3921 200.5186,-230.5579 200.9902,-223.5738"/>
<text text-anchor="middle" x="393.9741" y="-265.3661" font-family="Helvetica,sans-Serif" font-size="10.00" fill="#000000"> socket_commands_path</text>
<text text-anchor="middle" x="393.9741" y="-255.3661" font-family="Helvetica,sans-Serif" font-size="10.00" fill="#000000">socket_events_path</text>
<text text-anchor="middle" x="393.9741" y="-245.3661" font-family="Helvetica,sans-Serif" font-size="10.00" fill="#000000">ipdiscovery_host</text>
</g>
<!-- Node15 -->
<g id="node14" class="node">
<title>Node15</title>
<polygon fill="#ffffff" stroke="#bfbfbf" points="332.6172,-201.3661 332.6172,-219.3661 455.3311,-219.3661 455.3311,-201.3661 332.6172,-201.3661"/>
<text text-anchor="middle" x="393.9741" y="-207.3661" font-family="Helvetica,sans-Serif" font-size="10.00" fill="#000000">std::vector&lt; std::string &gt;</text>
</g>
<!-- Node9&#45;&gt;Node15 -->
<g id="edge17" class="edge">
<title>Node9&#45;&gt;Node15</title>
<path fill="none" stroke="#9a32cd" stroke-dasharray="5,2" d="M200.6716,-214.5141C203.292,-214.0672 205.9,-213.6768 208.4453,-213.3661 249.5354,-208.3504 296.1202,-207.6141 332.3305,-208.1248"/>
<polygon fill="#9a32cd" stroke="#9a32cd" points="199.7577,-211.1261 190.609,-216.4695 201.093,-217.9976 199.7577,-211.1261"/>
<text text-anchor="middle" x="259.5806" y="-215.3661" font-family="Helvetica,sans-Serif" font-size="10.00" fill="#000000"> elements</text>
</g>
<!-- Node16 -->
<g id="node15" class="node">
<title>Node16</title>
<g id="a_node15"><a xlink:href="struct_p11_config.html" target="_top" xlink:title="P11Config">
<polygon fill="#ffffff" stroke="#000000" points="730.7749,-172.3661 730.7749,-190.3661 792.7368,-190.3661 792.7368,-172.3661 730.7749,-172.3661"/>
<text text-anchor="middle" x="761.7559" y="-178.3661" font-family="Helvetica,sans-Serif" font-size="10.00" fill="#000000">P11Config</text>
</a>
</g>
</g>
<!-- Node9&#45;&gt;Node16 -->
<g id="edge19" class="edge">
<title>Node9&#45;&gt;Node16</title>
<path fill="none" stroke="#9a32cd" stroke-dasharray="5,2" d="M182.5663,-209.6636C213.4794,-189.7886 272.5617,-155.3427 328.7158,-142.3661 477.2799,-108.0344 661.0105,-152.1646 731.9116,-172.3096"/>
<polygon fill="#9a32cd" stroke="#9a32cd" points="180.3647,-206.9214 173.9114,-215.324 184.1962,-212.7797 180.3647,-206.9214"/>
<text text-anchor="middle" x="393.9741" y="-184.3661" font-family="Helvetica,sans-Serif" font-size="10.00" fill="#000000"> tls_pkey_id</text>
<text text-anchor="middle" x="393.9741" y="-174.3661" font-family="Helvetica,sans-Serif" font-size="10.00" fill="#000000">tls_clientcert_id</text>
<text text-anchor="middle" x="393.9741" y="-164.3661" font-family="Helvetica,sans-Serif" font-size="10.00" fill="#000000">pass</text>
<text text-anchor="middle" x="393.9741" y="-154.3661" font-family="Helvetica,sans-Serif" font-size="10.00" fill="#000000">uptane_key_id</text>
<text text-anchor="middle" x="393.9741" y="-144.3661" font-family="Helvetica,sans-Serif" font-size="10.00" fill="#000000">tls_cacert_id</text>
</g>
<!-- Node17 -->
<g id="node16" class="node">
<title>Node17</title>
<g id="a_node16"><a xlink:href="struct_uptane_config.html" target="_top" xlink:title="UptaneConfig">
<polygon fill="#ffffff" stroke="#000000" points="843.418,-175.3661 843.418,-193.3661 920.5703,-193.3661 920.5703,-175.3661 843.418,-175.3661"/>
<text text-anchor="middle" x="881.9941" y="-181.3661" font-family="Helvetica,sans-Serif" font-size="10.00" fill="#000000">UptaneConfig</text>
</a>
</g>
</g>
<!-- Node9&#45;&gt;Node17 -->
<g id="edge21" class="edge">
<title>Node9&#45;&gt;Node17</title>
<path fill="none" stroke="#9a32cd" stroke-dasharray="5,2" d="M166.6315,-205.571C173.5045,-186.8588 186.7958,-158.8919 208.4453,-144.3661 340.1474,-55.9999 405.5985,-89.1975 563.2666,-106.3661 678.226,-118.8841 705.9842,-131.2438 817.3564,-162.3661 830.8281,-166.1306 845.6137,-171.0989 857.6397,-175.3615"/>
<polygon fill="#9a32cd" stroke="#9a32cd" points="163.294,-204.5146 163.3863,-215.1091 169.9209,-206.7694 163.294,-204.5146"/>
<text text-anchor="middle" x="520.2495" y="-118.3661" font-family="Helvetica,sans-Serif" font-size="10.00" fill="#000000"> repo_server</text>
<text text-anchor="middle" x="520.2495" y="-108.3661" font-family="Helvetica,sans-Serif" font-size="10.00" fill="#000000">director_server</text>
</g>
<!-- Node19 -->
<g id="node18" class="node">
<title>Node19</title>
<g id="a_node18"><a xlink:href="class_uptane_1_1_secondary_config.html" target="_top" xlink:title="Uptane::SecondaryConfig">
<polygon fill="#ffffff" stroke="#000000" points="328.7158,-15.3661 328.7158,-33.3661 459.2324,-33.3661 459.2324,-15.3661 328.7158,-15.3661"/>
<text text-anchor="middle" x="393.9741" y="-21.3661" font-family="Helvetica,sans-Serif" font-size="10.00" fill="#000000">Uptane::SecondaryConfig</text>
</a>
</g>
</g>
<!-- Node9&#45;&gt;Node19 -->
<g id="edge24" class="edge">
<title>Node9&#45;&gt;Node19</title>
<path fill="none" stroke="#9a32cd" stroke-dasharray="5,2" d="M162.3788,-204.7674C166.6172,-158.5718 179.7937,-45.0427 208.4453,-22.3661 255.0464,14.5168 330.8424,-2.8024 369.5465,-15.3539"/>
<polygon fill="#9a32cd" stroke="#9a32cd" points="158.8716,-204.6988 161.4899,-214.965 165.8452,-205.3068 158.8716,-204.6988"/>
<text text-anchor="middle" x="259.5806" y="-64.3661" font-family="Helvetica,sans-Serif" font-size="10.00" fill="#000000"> ecu_private_key</text>
<text text-anchor="middle" x="259.5806" y="-54.3661" font-family="Helvetica,sans-Serif" font-size="10.00" fill="#000000">ecu_hardware_id</text>
<text text-anchor="middle" x="259.5806" y="-44.3661" font-family="Helvetica,sans-Serif" font-size="10.00" fill="#000000">ecu_serial</text>
<text text-anchor="middle" x="259.5806" y="-34.3661" font-family="Helvetica,sans-Serif" font-size="10.00" fill="#000000">opcua_lds_url</text>
<text text-anchor="middle" x="259.5806" y="-24.3661" font-family="Helvetica,sans-Serif" font-size="10.00" fill="#000000">ecu_public_key</text>
</g>
<!-- Node10 -->
<g id="node9" class="node">
<title>Node10</title>
<g id="a_node9"><a xlink:title="STL class. ">
<polygon fill="#ffffff" stroke="#bfbfbf" points="0,-210.3661 0,-238.3661 94.0957,-238.3661 94.0957,-210.3661 0,-210.3661"/>
<text text-anchor="start" x="8" y="-226.3661" font-family="Helvetica,sans-Serif" font-size="10.00" fill="#000000">std::basic_string&lt;</text>
<text text-anchor="middle" x="47.0479" y="-216.3661" font-family="Helvetica,sans-Serif" font-size="10.00" fill="#000000"> char &gt;</text>
</a>
</g>
</g>
<!-- Node10&#45;&gt;Node9 -->
<g id="edge8" class="edge">
<title>Node10&#45;&gt;Node9</title>
<path fill="none" stroke="#191970" d="M104.2966,-224.3661C113.5577,-224.3661 122.8051,-224.3661 131.056,-224.3661"/>
<polygon fill="#191970" stroke="#191970" points="104.2886,-220.8662 94.2885,-224.3661 104.2885,-227.8662 104.2886,-220.8662"/>
</g>
<!-- Node11 -->
<g id="node10" class="node">
<title>Node11</title>
<g id="a_node10"><a xlink:href="struct_logger_config.html" target="_top" xlink:title="LoggerConfig">
<polygon fill="#ffffff" stroke="#000000" points="843.9722,-138.3661 843.9722,-156.3661 920.0161,-156.3661 920.0161,-138.3661 843.9722,-138.3661"/>
<text text-anchor="middle" x="881.9941" y="-144.3661" font-family="Helvetica,sans-Serif" font-size="10.00" fill="#000000">LoggerConfig</text>
</a>
</g>
</g>
<!-- Node11&#45;&gt;Node2 -->
<g id="edge9" class="edge">
<title>Node11&#45;&gt;Node2</title>
<path fill="none" stroke="#9a32cd" stroke-dasharray="5,2" d="M930.2756,-146.4533C953.0335,-148.5283 979.001,-154.8814 996.6709,-171.3661 1016.7627,-190.1102 1031.4252,-276.6584 1035.784,-305.2044"/>
<polygon fill="#9a32cd" stroke="#9a32cd" points="930.2955,-142.9471 920.0865,-145.78 929.8339,-149.9319 930.2955,-142.9471"/>
<text text-anchor="middle" x="971.6514" y="-173.3661" font-family="Helvetica,sans-Serif" font-size="10.00" fill="#000000"> logger</text>
</g>
<!-- Node12&#45;&gt;Node2 -->
<g id="edge10" class="edge">
<title>Node12&#45;&gt;Node2</title>
<path fill="none" stroke="#9a32cd" stroke-dasharray="5,2" d="M813.9455,-356.2393C861.9144,-351.7448 934.7542,-343.1434 996.6709,-328.3661 1002.4539,-326.9859 1008.5731,-325.1011 1014.2535,-323.1619"/>
<polygon fill="#9a32cd" stroke="#9a32cd" points="813.4435,-352.7704 803.8022,-357.1631 814.0784,-359.7415 813.4435,-352.7704"/>
<text text-anchor="middle" x="881.9941" y="-355.3661" font-family="Helvetica,sans-Serif" font-size="10.00" fill="#000000"> pacman</text>
</g>
<!-- Node13&#45;&gt;Node2 -->
<g id="edge12" class="edge">
<title>Node13&#45;&gt;Node2</title>
<path fill="none" stroke="#9a32cd" stroke-dasharray="5,2" d="M573.7519,-314.3661C685.0907,-314.3661 937.7352,-314.3661 1014.5503,-314.3661"/>
<polygon fill="#9a32cd" stroke="#9a32cd" points="573.429,-310.8662 563.4289,-314.3661 573.4289,-317.8662 573.429,-310.8662"/>
<text text-anchor="middle" x="761.7559" y="-316.3661" font-family="Helvetica,sans-Serif" font-size="10.00" fill="#000000"> provision</text>
</g>
<!-- Node14&#45;&gt;Node2 -->
<g id="edge14" class="edge">
<title>Node14&#45;&gt;Node2</title>
<path fill="none" stroke="#9a32cd" stroke-dasharray="5,2" d="M685.7706,-261.7907C744.4435,-268.136 843.5898,-279.2006 928.6318,-290.3661 958.9362,-294.3449 966.9793,-293.1141 996.6709,-300.3661 1002.591,-301.812 1008.869,-303.7681 1014.6682,-305.7591"/>
<polygon fill="#9a32cd" stroke="#9a32cd" points="685.9693,-258.2919 675.6517,-260.6998 685.2189,-265.2516 685.9693,-258.2919"/>
<text text-anchor="middle" x="881.9941" y="-292.3661" font-family="Helvetica,sans-Serif" font-size="10.00" fill="#000000"> network</text>
</g>
<!-- Node15&#45;&gt;Node14 -->
<g id="edge16" class="edge">
<title>Node15&#45;&gt;Node14</title>
<path fill="none" stroke="#9a32cd" stroke-dasharray="5,2" d="M465.6836,-216.5589C496.028,-219.9838 531.6113,-225.0658 563.2666,-232.3661 579.7141,-236.1592 597.7269,-242.2237 611.551,-247.3072"/>
<polygon fill="#9a32cd" stroke="#9a32cd" points="465.9274,-213.0648 455.6069,-215.4601 465.1686,-220.0235 465.9274,-213.0648"/>
<text text-anchor="middle" x="520.2495" y="-234.3661" font-family="Helvetica,sans-Serif" font-size="10.00" fill="#000000"> socket_events</text>
</g>
<!-- Node16&#45;&gt;Node2 -->
<g id="edge18" class="edge">
<title>Node16&#45;&gt;Node2</title>
<path fill="none" stroke="#9a32cd" stroke-dasharray="5,2" d="M801.0442,-193.5617C863.565,-213.1695 980.3421,-250.688 996.6709,-262.3661 1012.8589,-273.9435 1025.7296,-293.8055 1032.3141,-305.3419"/>
<polygon fill="#9a32cd" stroke="#9a32cd" points="801.7226,-190.1067 791.1337,-190.461 799.6324,-196.7874 801.7226,-190.1067"/>
<text text-anchor="middle" x="881.9941" y="-236.3661" font-family="Helvetica,sans-Serif" font-size="10.00" fill="#000000"> p11</text>
</g>
<!-- Node17&#45;&gt;Node2 -->
<g id="edge20" class="edge">
<title>Node17&#45;&gt;Node2</title>
<path fill="none" stroke="#9a32cd" stroke-dasharray="5,2" d="M930.6338,-183.2473C953.0031,-185.1515 978.534,-191.0594 996.6709,-206.3661 1027.4264,-232.3223 1034.8243,-284.0979 1036.5835,-305.1472"/>
<polygon fill="#9a32cd" stroke="#9a32cd" points="930.8114,-179.7517 920.6164,-182.6347 930.3841,-186.7387 930.8114,-179.7517"/>
<text text-anchor="middle" x="971.6514" y="-208.3661" font-family="Helvetica,sans-Serif" font-size="10.00" fill="#000000"> uptane</text>
</g>
<!-- Node18 -->
<g id="node17" class="node">
<title>Node18</title>
<polygon fill="#ffffff" stroke="#bfbfbf" points="581.2666,-26.3661 581.2666,-54.3661 688.1553,-54.3661 688.1553,-26.3661 581.2666,-26.3661"/>
<text text-anchor="start" x="589.2666" y="-42.3661" font-family="Helvetica,sans-Serif" font-size="10.00" fill="#000000">std::vector&lt; Uptane</text>
<text text-anchor="middle" x="634.7109" y="-32.3661" font-family="Helvetica,sans-Serif" font-size="10.00" fill="#000000">::SecondaryConfig &gt;</text>
</g>
<!-- Node18&#45;&gt;Node17 -->
<g id="edge22" class="edge">
<title>Node18&#45;&gt;Node17</title>
<path fill="none" stroke="#9a32cd" stroke-dasharray="5,2" d="M698.1869,-30.5451C737.4901,-28.2496 786.2292,-32.8504 817.3564,-62.3661 851.0781,-94.3419 806.1908,-129.1864 835.3564,-165.3661 838.6487,-169.4501 842.9596,-172.6634 847.6308,-175.1899"/>
<polygon fill="#9a32cd" stroke="#9a32cd" points="697.8688,-27.0589 688.1553,-31.2894 698.3869,-34.0397 697.8688,-27.0589"/>
<text text-anchor="middle" x="761.7559" y="-64.3661" font-family="Helvetica,sans-Serif" font-size="10.00" fill="#000000"> secondary_configs</text>
</g>
<!-- Node19&#45;&gt;Node18 -->
<g id="edge23" class="edge">
<title>Node19&#45;&gt;Node18</title>
<path fill="none" stroke="#9a32cd" stroke-dasharray="5,2" d="M469.4682,-29.3836C505.6691,-31.7896 548.1902,-34.6157 581.0325,-36.7985"/>
<polygon fill="#9a32cd" stroke="#9a32cd" points="469.6487,-25.888 459.4385,-28.717 469.1844,-32.8726 469.6487,-25.888"/>
<text text-anchor="middle" x="520.2495" y="-37.3661" font-family="Helvetica,sans-Serif" font-size="10.00" fill="#000000"> elements</text>
</g>
<!-- Node20 -->
<g id="node19" class="node">
<title>Node20</title>
<g id="a_node19"><a xlink:href="struct_telemetry_config.html" target="_top" xlink:title="TelemetryConfig">
<polygon fill="#ffffff" stroke="#000000" points="837.8687,-101.3661 837.8687,-119.3661 926.1196,-119.3661 926.1196,-101.3661 837.8687,-101.3661"/>
<text text-anchor="middle" x="881.9941" y="-107.3661" font-family="Helvetica,sans-Serif" font-size="10.00" fill="#000000">TelemetryConfig</text>
</a>
</g>
</g>
<!-- Node20&#45;&gt;Node2 -->
<g id="edge25" class="edge">
<title>Node20&#45;&gt;Node2</title>
<path fill="none" stroke="#9a32cd" stroke-dasharray="5,2" d="M936.2905,-110.1374C957.689,-112.8403 980.8762,-119.6912 996.6709,-135.3661 1021.3203,-159.8285 1033.3236,-272.4318 1036.344,-305.3219"/>
<polygon fill="#9a32cd" stroke="#9a32cd" points="936.5913,-106.6502 926.2948,-109.1468 935.9009,-113.6161 936.5913,-106.6502"/>
<text text-anchor="middle" x="971.6514" y="-137.3661" font-family="Helvetica,sans-Serif" font-size="10.00" fill="#000000"> telemetry</text>
</g>
<!-- Node21&#45;&gt;Node2 -->
<g id="edge26" class="edge">
<title>Node21&#45;&gt;Node2</title>
<path fill="none" stroke="#9a32cd" stroke-dasharray="5,2" d="M928.6468,-473.3672C951.7482,-470.9758 978.507,-464.2618 996.6709,-447.3661 1015.3144,-430.0242 1030.7065,-350.9176 1035.5418,-323.6425"/>
<polygon fill="#9a32cd" stroke="#9a32cd" points="928.3607,-469.8788 918.671,-474.1638 928.918,-476.8566 928.3607,-469.8788"/>
<text text-anchor="middle" x="971.6514" y="-471.3661" font-family="Helvetica,sans-Serif" font-size="10.00" fill="#000000"> import</text>
</g>
<!-- Node22 -->
<g id="node21" class="node">
<title>Node22</title>
<g id="a_node21"><a xlink:href="struct_bootloader_config.html" target="_top" xlink:title="BootloaderConfig">
<polygon fill="#ffffff" stroke="#000000" points="835.3564,-64.3661 835.3564,-82.3661 928.6318,-82.3661 928.6318,-64.3661 835.3564,-64.3661"/>
<text text-anchor="middle" x="881.9941" y="-70.3661" font-family="Helvetica,sans-Serif" font-size="10.00" fill="#000000">BootloaderConfig</text>
</a>
</g>
</g>
<!-- Node22&#45;&gt;Node2 -->
<g id="edge28" class="edge">
<title>Node22&#45;&gt;Node2</title>
<path fill="none" stroke="#9a32cd" stroke-dasharray="5,2" d="M938.9026,-73.1545C959.6823,-76.0153 981.728,-82.9756 996.6709,-98.3661 1026.1045,-128.6812 1034.8886,-268.2412 1036.7216,-305.3063"/>
<polygon fill="#9a32cd" stroke="#9a32cd" points="939.1597,-69.6619 928.84,-72.0604 938.403,-76.6209 939.1597,-69.6619"/>
<text text-anchor="middle" x="971.6514" y="-100.3661" font-family="Helvetica,sans-Serif" font-size="10.00" fill="#000000"> bootloader</text>
</g>
</g>
</svg>
        <g id="navigator" transform="translate(0 0)" fill="#404254">
                <rect fill="#f2f5e9" fill-opacity="0.5" stroke="#606060" stroke-width=".5" x="0" y="0" width="60" height="60"/>
                <use id="zoomplus" xlink:href="#zoomPlus" x="17" y="9" onmousedown="handleZoom(evt,'in')"/>
                <use id="zoomminus" xlink:href="#zoomMin" x="42" y="9" onmousedown="handleZoom(evt,'out')"/>
                <use id="reset" xlink:href="#resetDef" x="30" y="36" onmousedown="handleReset()"/>
                <g id="arrowUp" xlink:href="#dirArrow" transform="translate(30 24)" onmousedown="handlePan(0,-1)">
                  <use xlink:href="#rim" fill="#404040">
                        <set attributeName="fill" to="#808080" begin="arrowUp.mouseover" end="arrowUp.mouseout"/>
                  </use>
                  <path fill="none" stroke="white" stroke-width="1.5" d="M0,-3.0v7 M-2.5,-0.5L0,-3.0L2.5,-0.5"/>
                </g>
                <g id="arrowRight" xlink:href="#dirArrow" transform="rotate(90) translate(36 -43)" onmousedown="handlePan(1,0)">
                  <use xlink:href="#rim" fill="#404040">
                        <set attributeName="fill" to="#808080" begin="arrowRight.mouseover" end="arrowRight.mouseout"/>
                  </use>
                  <path fill="none" stroke="white" stroke-width="1.5" d="M0,-3.0v7 M-2.5,-0.5L0,-3.0L2.5,-0.5"/>
                </g>
                <g id="arrowDown" xlink:href="#dirArrow" transform="rotate(180) translate(-30 -48)" onmousedown="handlePan(0,1)">
                  <use xlink:href="#rim" fill="#404040">
                        <set attributeName="fill" to="#808080" begin="arrowDown.mouseover" end="arrowDown.mouseout"/>
                  </use>
                  <path fill="none" stroke="white" stroke-width="1.5" d="M0,-3.0v7 M-2.5,-0.5L0,-3.0L2.5,-0.5"/>
                </g>
                <g id="arrowLeft" xlink:href="#dirArrow" transform="rotate(270) translate(-36 17)" onmousedown="handlePan(-1,0)">
                  <use xlink:href="#rim" fill="#404040">
                        <set attributeName="fill" to="#808080" begin="arrowLeft.mouseover" end="arrowLeft.mouseout"/>
                  </use>
                  <path fill="none" stroke="white" stroke-width="1.5" d="M0,-3.0v7 M-2.5,-0.5L0,-3.0L2.5,-0.5"/>
                </g>
        </g>
        <svg viewBox="0 0 15 15" width="100%" height="30px" preserveAspectRatio="xMaxYMin meet">
         <g id="arrow_out" transform="scale(0.3 0.3)">
          <a xlink:href="class_config__coll__graph_org.svg" target="_base">
           <rect id="button" ry="5" rx="5" y="6" x="6" height="38" width="38"
                fill="#f2f5e9" fill-opacity="0.5" stroke="#606060" stroke-width="1.0"/>
           <path id="arrow"
             d="M 11.500037,31.436501 C 11.940474,20.09759 22.043105,11.32322 32.158766,21.979434 L 37.068811,17.246167 C 37.068811,17.246167 37.088388,32 37.088388,32 L 22.160133,31.978069 C 22.160133,31.978069 26.997745,27.140456 26.997745,27.140456 C 18.528582,18.264221 13.291696,25.230495 11.500037,31.436501 z"
             style="fill:#404040;"/>
          </a>
         </g>
        </svg>
</svg>
