<?xml version="1.0" encoding="UTF-8" standalone="no"?>
<!DOCTYPE svg PUBLIC "-//W3C//DTD SVG 1.1//EN"
 "http://www.w3.org/Graphics/SVG/1.1/DTD/svg11.dtd">
<!-- Generated by graphviz version 2.40.1 (20161225.0304)
 -->
<!-- Title: command::BaseCommand Pages: 1 -->
<svg width="319pt" height="286pt"
 viewBox="0.00 0.00 318.89 286.00" xmlns="http://www.w3.org/2000/svg" xmlns:xlink="http://www.w3.org/1999/xlink">
<g id="graph0" class="graph" transform="scale(1 1) rotate(0) translate(4 282)">
<title>command::BaseCommand</title>
<polygon fill="#ffffff" stroke="transparent" points="-4,4 -4,-282 314.8906,-282 314.8906,4 -4,4"/>
<!-- Node0 -->
<g id="node1" class="node">
<title>Node0</title>
<polygon fill="#bfbfbf" stroke="#000000" points="0,-129.5 0,-147.5 134.3838,-147.5 134.3838,-129.5 0,-129.5"/>
<text text-anchor="middle" x="67.1919" y="-135.5" font-family="Helvetica,sans-Serif" font-size="10.00" fill="#000000">command::BaseCommand</text>
</g>
<!-- Node1 -->
<g id="node2" class="node">
<title>Node1</title>
<g id="a_node2"><a xlink:href="classcommand_1_1_campaign_check.html" target="_top" xlink:title="command::CampaignCheck">
<polygon fill="#ffffff" stroke="#000000" points="170.9429,-259.5 170.9429,-277.5 310.3315,-277.5 310.3315,-259.5 170.9429,-259.5"/>
<text text-anchor="middle" x="240.6372" y="-265.5" font-family="Helvetica,sans-Serif" font-size="10.00" fill="#000000">command::CampaignCheck</text>
</a>
</g>
</g>
<!-- Node0&#45;&gt;Node1 -->
<g id="edge1" class="edge">
<title>Node0&#45;&gt;Node1</title>
<path fill="none" stroke="#191970" d="M78.5232,-156.1653C95.4478,-181.0811 129.7299,-226.2102 170.3838,-250.5 176.5446,-254.181 183.4448,-257.1151 190.4497,-259.4525"/>
<polygon fill="#191970" stroke="#191970" points="81.35,-154.0949 72.9094,-147.6913 75.5144,-157.9609 81.35,-154.0949"/>
</g>
<!-- Node2 -->
<g id="node3" class="node">
<title>Node2</title>
<g id="a_node3"><a xlink:href="classcommand_1_1_check_updates.html" target="_top" xlink:title="Check updates for validity. ">
<polygon fill="#ffffff" stroke="#000000" points="175.1104,-222.5 175.1104,-240.5 306.1641,-240.5 306.1641,-222.5 175.1104,-222.5"/>
<text text-anchor="middle" x="240.6372" y="-228.5" font-family="Helvetica,sans-Serif" font-size="10.00" fill="#000000">command::CheckUpdates</text>
</a>
</g>
</g>
<!-- Node0&#45;&gt;Node2 -->
<g id="edge2" class="edge">
<title>Node0&#45;&gt;Node2</title>
<path fill="none" stroke="#191970" d="M84.6332,-154.4095C104.1534,-171.4032 137.389,-197.9806 170.3838,-213.5 178.0173,-217.0905 186.4673,-220.0345 194.7835,-222.4246"/>
<polygon fill="#191970" stroke="#191970" points="86.7171,-151.5794 76.9135,-147.5617 82.0719,-156.8161 86.7171,-151.5794"/>
</g>
<!-- Node3 -->
<g id="node4" class="node">
<title>Node3</title>
<g id="a_node4"><a xlink:href="classcommand_1_1_fetch_meta.html" target="_top" xlink:title="Fetch metadata from the server. ">
<polygon fill="#ffffff" stroke="#000000" points="184.2852,-185.5 184.2852,-203.5 296.9893,-203.5 296.9893,-185.5 184.2852,-185.5"/>
<text text-anchor="middle" x="240.6372" y="-191.5" font-family="Helvetica,sans-Serif" font-size="10.00" fill="#000000">command::FetchMeta</text>
</a>
</g>
</g>
<!-- Node0&#45;&gt;Node3 -->
<g id="edge3" class="edge">
<title>Node0&#45;&gt;Node3</title>
<path fill="none" stroke="#191970" d="M99.2766,-151.276C119.4998,-159.0884 146.2597,-168.9892 170.3838,-176.5 180.7223,-179.7188 192.0431,-182.8064 202.5193,-185.4876"/>
<polygon fill="#191970" stroke="#191970" points="100.5025,-147.9974 89.9141,-147.6281 97.9612,-154.5198 100.5025,-147.9974"/>
</g>
<!-- Node4 -->
<g id="node5" class="node">
<title>Node4</title>
<g id="a_node5"><a xlink:href="classcommand_1_1_put_manifest.html" target="_top" xlink:title="Send a manifest to the server. ">
<polygon fill="#ffffff" stroke="#000000" points="181.5044,-148.5 181.5044,-166.5 299.77,-166.5 299.77,-148.5 181.5044,-148.5"/>
<text text-anchor="middle" x="240.6372" y="-154.5" font-family="Helvetica,sans-Serif" font-size="10.00" fill="#000000">command::PutManifest</text>
</a>
</g>
</g>
<!-- Node0&#45;&gt;Node4 -->
<g id="edge4" class="edge">
<title>Node0&#45;&gt;Node4</title>
<path fill="none" stroke="#191970" d="M144.9595,-147.019C157.2106,-148.3611 169.7027,-149.7295 181.4436,-151.0157"/>
<polygon fill="#191970" stroke="#191970" points="145.0687,-143.5101 134.747,-145.9003 144.3064,-150.4685 145.0687,-143.5101"/>
</g>
<!-- Node5 -->
<g id="node6" class="node">
<title>Node5</title>
<g id="a_node6"><a xlink:href="classcommand_1_1_send_device_data.html" target="_top" xlink:title="Send device data to the server. ">
<polygon fill="#ffffff" stroke="#000000" points="170.3838,-111.5 170.3838,-129.5 310.8906,-129.5 310.8906,-111.5 170.3838,-111.5"/>
<text text-anchor="middle" x="240.6372" y="-117.5" font-family="Helvetica,sans-Serif" font-size="10.00" fill="#000000">command::SendDeviceData</text>
</a>
</g>
</g>
<!-- Node0&#45;&gt;Node5 -->
<g id="edge5" class="edge">
<title>Node0&#45;&gt;Node5</title>
<path fill="none" stroke="#191970" d="M144.9096,-130.4345C153.3049,-129.5633 161.8141,-128.6802 170.1177,-127.8185"/>
<polygon fill="#191970" stroke="#191970" points="144.3323,-126.9755 134.747,-131.4892 145.0549,-133.9382 144.3323,-126.9755"/>
</g>
<!-- Node6 -->
<g id="node7" class="node">
<title>Node6</title>
<g id="a_node7"><a xlink:href="classcommand_1_1_shutdown.html" target="_top" xlink:title="Shut aktualizr down and return control from the main thread. ">
<polygon fill="#ffffff" stroke="#000000" points="185.667,-74.5 185.667,-92.5 295.6074,-92.5 295.6074,-74.5 185.667,-74.5"/>
<text text-anchor="middle" x="240.6372" y="-80.5" font-family="Helvetica,sans-Serif" font-size="10.00" fill="#000000">command::Shutdown</text>
</a>
</g>
</g>
<!-- Node0&#45;&gt;Node6 -->
<g id="edge6" class="edge">
<title>Node0&#45;&gt;Node6</title>
<path fill="none" stroke="#191970" d="M101.2356,-125.9352C121.2537,-118.7199 147.1228,-109.6928 170.3838,-102.5 181.6098,-99.0286 193.951,-95.572 205.1156,-92.5774"/>
<polygon fill="#191970" stroke="#191970" points="99.8381,-122.7189 91.6313,-129.4196 102.2254,-129.2993 99.8381,-122.7189"/>
</g>
<!-- Node7 -->
<g id="node8" class="node">
<title>Node7</title>
<g id="a_node8"><a xlink:href="classcommand_1_1_start_download.html" target="_top" xlink:title="Download a set of Uptane targets. ">
<polygon fill="#ffffff" stroke="#000000" points="175.1104,-37.5 175.1104,-55.5 306.1641,-55.5 306.1641,-37.5 175.1104,-37.5"/>
<text text-anchor="middle" x="240.6372" y="-43.5" font-family="Helvetica,sans-Serif" font-size="10.00" fill="#000000">command::StartDownload</text>
</a>
</g>
</g>
<!-- Node0&#45;&gt;Node7 -->
<g id="edge7" class="edge">
<title>Node0&#45;&gt;Node7</title>
<path fill="none" stroke="#191970" d="M85.3774,-122.5967C105.0766,-106.1298 138.0403,-80.7231 170.3838,-65.5 178.9578,-61.4645 188.5378,-58.1627 197.7986,-55.5112"/>
<polygon fill="#191970" stroke="#191970" points="82.8967,-120.1119 77.5484,-129.2578 87.4328,-125.4433 82.8967,-120.1119"/>
</g>
<!-- Node8 -->
<g id="node9" class="node">
<title>Node8</title>
<g id="a_node9"><a xlink:href="classcommand_1_1_uptane_install.html" target="_top" xlink:title="Install a set of Uptane targets. ">
<polygon fill="#ffffff" stroke="#000000" points="178.7212,-.5 178.7212,-18.5 302.5532,-18.5 302.5532,-.5 178.7212,-.5"/>
<text text-anchor="middle" x="240.6372" y="-6.5" font-family="Helvetica,sans-Serif" font-size="10.00" fill="#000000">command::UptaneInstall</text>
</a>
</g>
</g>
<!-- Node0&#45;&gt;Node8 -->
<g id="edge8" class="edge">
<title>Node0&#45;&gt;Node8</title>
<path fill="none" stroke="#191970" d="M78.8979,-120.8644C96.0553,-96.4145 130.3721,-52.5237 170.3838,-28.5 177.3165,-24.3375 185.1737,-21.0687 193.0599,-18.507"/>
<polygon fill="#191970" stroke="#191970" points="75.9508,-118.9734 73.1862,-129.2012 81.7255,-122.9298 75.9508,-118.9734"/>
</g>
</g>
</svg>
