<?xml version="1.0" encoding="UTF-8" standalone="no"?>
<!DOCTYPE svg PUBLIC "-//W3C//DTD SVG 1.1//EN"
 "http://www.w3.org/Graphics/SVG/1.1/DTD/svg11.dtd">
<!-- Generated by graphviz version 2.40.1 (20161225.0304)
 -->
<!-- Title: command::SendDeviceData Pages: 1 -->
<svg width="149pt" height="214pt"
 viewBox="0.00 0.00 148.51 214.00" xmlns="http://www.w3.org/2000/svg" xmlns:xlink="http://www.w3.org/1999/xlink">
<g id="graph0" class="graph" transform="scale(1 1) rotate(0) translate(4 210)">
<title>command::SendDeviceData</title>
<polygon fill="#ffffff" stroke="transparent" points="-4,4 -4,-210 144.5068,-210 144.5068,4 -4,4"/>
<!-- Node2 -->
<g id="node1" class="node">
<title>Node2</title>
<polygon fill="#bfbfbf" stroke="#000000" points="0,-.5 0,-18.5 140.5068,-18.5 140.5068,-.5 0,-.5"/>
<text text-anchor="middle" x="70.2534" y="-6.5" font-family="Helvetica,sans-Serif" font-size="10.00" fill="#000000">command::SendDeviceData</text>
</g>
<!-- Node3 -->
<g id="node2" class="node">
<title>Node3</title>
<g id="a_node2"><a xlink:href="classcommand_1_1_base_command.html" target="_top" xlink:title="Base class for all command objects. ">
<polygon fill="#ffffff" stroke="#000000" points="3.0615,-56.5 3.0615,-74.5 137.4453,-74.5 137.4453,-56.5 3.0615,-56.5"/>
<text text-anchor="middle" x="70.2534" y="-62.5" font-family="Helvetica,sans-Serif" font-size="10.00" fill="#000000">command::BaseCommand</text>
</a>
</g>
</g>
<!-- Node3&#45;&gt;Node2 -->
<g id="edge1" class="edge">
<title>Node3&#45;&gt;Node2</title>
<path fill="none" stroke="#191970" d="M70.2534,-46.2065C70.2534,-36.8384 70.2534,-26.0262 70.2534,-18.5752"/>
<polygon fill="#191970" stroke="#191970" points="66.7535,-46.2527 70.2534,-56.2527 73.7535,-46.2528 66.7535,-46.2527"/>
</g>
<!-- Node4 -->
<g id="node3" class="node">
<title>Node4</title>
<g id="a_node3"><a xlink:title="STL class. ">
<polygon fill="#ffffff" stroke="#bfbfbf" points="40.5786,-121.5 40.5786,-139.5 99.9282,-139.5 99.9282,-121.5 40.5786,-121.5"/>
<text text-anchor="middle" x="70.2534" y="-127.5" font-family="Helvetica,sans-Serif" font-size="10.00" fill="#000000">std::string</text>
</a>
</g>
</g>
<!-- Node4&#45;&gt;Node3 -->
<g id="edge2" class="edge">
<title>Node4&#45;&gt;Node3</title>
<path fill="none" stroke="#9a32cd" stroke-dasharray="5,2" d="M70.2534,-111.1265C70.2534,-99.1522 70.2534,-84.3205 70.2534,-74.8821"/>
<polygon fill="#9a32cd" stroke="#9a32cd" points="66.7535,-111.462 70.2534,-121.462 73.7535,-111.4621 66.7535,-111.462"/>
<text text-anchor="middle" x="86.6499" y="-95" font-family="Helvetica,sans-Serif" font-size="10.00" fill="#000000"> variant</text>
</g>
<!-- Node5 -->
<g id="node4" class="node">
<title>Node5</title>
<g id="a_node4"><a xlink:title="STL class. ">
<polygon fill="#ffffff" stroke="#bfbfbf" points="23.2056,-177.5 23.2056,-205.5 117.3013,-205.5 117.3013,-177.5 23.2056,-177.5"/>
<text text-anchor="start" x="31.2056" y="-193.5" font-family="Helvetica,sans-Serif" font-size="10.00" fill="#000000">std::basic_string&lt;</text>
<text text-anchor="middle" x="70.2534" y="-183.5" font-family="Helvetica,sans-Serif" font-size="10.00" fill="#000000"> char &gt;</text>
</a>
</g>
</g>
<!-- Node5&#45;&gt;Node4 -->
<g id="edge3" class="edge">
<title>Node5&#45;&gt;Node4</title>
<path fill="none" stroke="#191970" d="M70.2534,-167.1001C70.2534,-157.5157 70.2534,-147.0935 70.2534,-139.831"/>
<polygon fill="#191970" stroke="#191970" points="66.7535,-167.352 70.2534,-177.3521 73.7535,-167.3521 66.7535,-167.352"/>
</g>
</g>
</svg>
