<?xml version="1.0" encoding="UTF-8" standalone="no"?>
<!DOCTYPE svg PUBLIC "-//W3C//DTD SVG 1.1//EN"
 "http://www.w3.org/Graphics/SVG/1.1/DTD/svg11.dtd">
<!-- Generated by graphviz version 2.40.1 (20161225.0304)
 -->
<!-- Title: opcuabridge::MetadataFiles Pages: 1 -->
<svg width="438pt" height="104pt"
 viewBox="0.00 0.00 438.47 104.00" xmlns="http://www.w3.org/2000/svg" xmlns:xlink="http://www.w3.org/1999/xlink">
<g id="graph0" class="graph" transform="scale(1 1) rotate(0) translate(4 100)">
<title>opcuabridge::MetadataFiles</title>
<polygon fill="#ffffff" stroke="transparent" points="-4,4 -4,-100 434.4658,-100 434.4658,4 -4,4"/>
<!-- Node1 -->
<g id="node1" class="node">
<title>Node1</title>
<polygon fill="#bfbfbf" stroke="#000000" points="291.0576,-38.5 291.0576,-56.5 430.4658,-56.5 430.4658,-38.5 291.0576,-38.5"/>
<text text-anchor="middle" x="360.7617" y="-44.5" font-family="Helvetica,sans-Serif" font-size="10.00" fill="#000000">opcuabridge::MetadataFiles</text>
</g>
<!-- Node2 -->
<g id="node2" class="node">
<title>Node2</title>
<g id="a_node2"><a xlink:href="structopcuabridge_1_1_message_on_before_read_callback.html" target="_top" xlink:title="opcuabridge::MessageOnBefore\lReadCallback\&lt; opcuabridge\l::MetadataFiles \&gt;">
<polygon fill="#ffffff" stroke="#000000" points="0,-57.5 0,-95.5 159.9795,-95.5 159.9795,-57.5 0,-57.5"/>
<text text-anchor="start" x="8" y="-83.5" font-family="Helvetica,sans-Serif" font-size="10.00" fill="#000000">opcuabridge::MessageOnBefore</text>
<text text-anchor="start" x="8" y="-73.5" font-family="Helvetica,sans-Serif" font-size="10.00" fill="#000000">ReadCallback&lt; opcuabridge</text>
<text text-anchor="middle" x="79.9897" y="-63.5" font-family="Helvetica,sans-Serif" font-size="10.00" fill="#000000">::MetadataFiles &gt;</text>
</a>
</g>
</g>
<!-- Node2&#45;&gt;Node1 -->
<g id="edge1" class="edge">
<title>Node2&#45;&gt;Node1</title>
<path fill="none" stroke="#9a32cd" stroke-dasharray="5,2" d="M170.3659,-67.1654C209.3304,-63.1408 254.2076,-58.5056 290.6029,-54.7465"/>
<polygon fill="#9a32cd" stroke="#9a32cd" points="169.6594,-63.7196 160.072,-68.2286 170.3787,-70.6826 169.6594,-63.7196"/>
<text text-anchor="middle" x="225.5186" y="-67.5" font-family="Helvetica,sans-Serif" font-size="10.00" fill="#000000"> on_before_read_cb_</text>
</g>
<!-- Node3 -->
<g id="node3" class="node">
<title>Node3</title>
<g id="a_node3"><a xlink:href="structopcuabridge_1_1_message_on_after_write_callback.html" target="_top" xlink:title="opcuabridge::MessageOnAfter\lWriteCallback\&lt; opcuabridge\l::MetadataFiles \&gt;">
<polygon fill="#ffffff" stroke="#000000" points="4.1724,-.5 4.1724,-38.5 155.8071,-38.5 155.8071,-.5 4.1724,-.5"/>
<text text-anchor="start" x="12.1724" y="-26.5" font-family="Helvetica,sans-Serif" font-size="10.00" fill="#000000">opcuabridge::MessageOnAfter</text>
<text text-anchor="start" x="12.1724" y="-16.5" font-family="Helvetica,sans-Serif" font-size="10.00" fill="#000000">WriteCallback&lt; opcuabridge</text>
<text text-anchor="middle" x="79.9897" y="-6.5" font-family="Helvetica,sans-Serif" font-size="10.00" fill="#000000">::MetadataFiles &gt;</text>
</a>
</g>
</g>
<!-- Node3&#45;&gt;Node1 -->
<g id="edge2" class="edge">
<title>Node3&#45;&gt;Node1</title>
<path fill="none" stroke="#9a32cd" stroke-dasharray="5,2" d="M165.9997,-28.0773C206.0786,-32.0742 253.1513,-36.7685 290.9783,-40.5408"/>
<polygon fill="#9a32cd" stroke="#9a32cd" points="166.2687,-24.5869 155.9707,-27.0772 165.574,-31.5523 166.2687,-24.5869"/>
<text text-anchor="middle" x="225.5186" y="-39.5" font-family="Helvetica,sans-Serif" font-size="10.00" fill="#000000"> on_after_write_cb_</text>
</g>
</g>
</svg>
