<?xml version="1.0" encoding="UTF-8" standalone="no"?>
<!DOCTYPE svg PUBLIC "-//W3C//DTD SVG 1.1//EN"
 "http://www.w3.org/Graphics/SVG/1.1/DTD/svg11.dtd">
<!-- Generated by graphviz version 2.40.1 (20161225.0304)
 -->
<!-- Title: Uptane::MissingRepo Pages: 1 -->
<svg width="120pt" height="192pt"
 viewBox="0.00 0.00 119.61 192.00" xmlns="http://www.w3.org/2000/svg" xmlns:xlink="http://www.w3.org/1999/xlink">
<g id="graph0" class="graph" transform="scale(1 1) rotate(0) translate(4 188)">
<title>Uptane::MissingRepo</title>
<polygon fill="#ffffff" stroke="transparent" points="-4,4 -4,-188 115.6055,-188 115.6055,4 -4,4"/>
<!-- Node0 -->
<g id="node1" class="node">
<title>Node0</title>
<polygon fill="#bfbfbf" stroke="#000000" points="0,-.5 0,-18.5 111.6055,-18.5 111.6055,-.5 0,-.5"/>
<text text-anchor="middle" x="55.8027" y="-6.5" font-family="Helvetica,sans-Serif" font-size="10.00" fill="#000000">Uptane::MissingRepo</text>
</g>
<!-- Node1 -->
<g id="node2" class="node">
<title>Node1</title>
<g id="a_node2"><a xlink:href="class_uptane_1_1_exception.html" target="_top" xlink:title="Uptane::Exception">
<polygon fill="#ffffff" stroke="#000000" points="6.9434,-55.5 6.9434,-73.5 104.6621,-73.5 104.6621,-55.5 6.9434,-55.5"/>
<text text-anchor="middle" x="55.8027" y="-61.5" font-family="Helvetica,sans-Serif" font-size="10.00" fill="#000000">Uptane::Exception</text>
</a>
</g>
</g>
<!-- Node1&#45;&gt;Node0 -->
<g id="edge1" class="edge">
<title>Node1&#45;&gt;Node0</title>
<path fill="none" stroke="#191970" d="M55.8027,-45.383C55.8027,-36.3738 55.8027,-26.0373 55.8027,-18.7795"/>
<polygon fill="#191970" stroke="#191970" points="52.3028,-45.4178 55.8027,-55.4179 59.3028,-45.4179 52.3028,-45.4178"/>
</g>
<!-- Node2 -->
<g id="node3" class="node">
<title>Node2</title>
<g id="a_node3"><a xlink:title="STL class. ">
<polygon fill="#ffffff" stroke="#bfbfbf" points="14.7339,-110.5 14.7339,-128.5 96.8716,-128.5 96.8716,-110.5 14.7339,-110.5"/>
<text text-anchor="middle" x="55.8027" y="-116.5" font-family="Helvetica,sans-Serif" font-size="10.00" fill="#000000">std::logic_error</text>
</a>
</g>
</g>
<!-- Node2&#45;&gt;Node1 -->
<g id="edge2" class="edge">
<title>Node2&#45;&gt;Node1</title>
<path fill="none" stroke="#191970" d="M55.8027,-100.383C55.8027,-91.3738 55.8027,-81.0373 55.8027,-73.7795"/>
<polygon fill="#191970" stroke="#191970" points="52.3028,-100.4178 55.8027,-110.4179 59.3028,-100.4179 52.3028,-100.4178"/>
</g>
<!-- Node3 -->
<g id="node4" class="node">
<title>Node3</title>
<g id="a_node4"><a xlink:title="STL class. ">
<polygon fill="#ffffff" stroke="#bfbfbf" points="16.9507,-165.5 16.9507,-183.5 94.6548,-183.5 94.6548,-165.5 16.9507,-165.5"/>
<text text-anchor="middle" x="55.8027" y="-171.5" font-family="Helvetica,sans-Serif" font-size="10.00" fill="#000000">std::exception</text>
</a>
</g>
</g>
<!-- Node3&#45;&gt;Node2 -->
<g id="edge3" class="edge">
<title>Node3&#45;&gt;Node2</title>
<path fill="none" stroke="#191970" d="M55.8027,-155.383C55.8027,-146.3738 55.8027,-136.0373 55.8027,-128.7795"/>
<polygon fill="#191970" stroke="#191970" points="52.3028,-155.4178 55.8027,-165.4179 59.3028,-155.4179 52.3028,-155.4178"/>
</g>
</g>
</svg>
