<?xml version="1.0" encoding="UTF-8" standalone="no"?>
<!DOCTYPE svg PUBLIC "-//W3C//DTD SVG 1.1//EN"
 "http://www.w3.org/Graphics/SVG/1.1/DTD/svg11.dtd">
<!-- Generated by graphviz version 2.40.1 (20161225.0304)
 -->
<!-- Title: src/libaktualizr/primary/commands.h Pages: 1 -->
<!--zoomable 232 -->
<svg id="main" version="1.1" xmlns="http://www.w3.org/2000/svg" xmlns:xlink="http://www.w3.org/1999/xlink" xml:space="preserve" onload="init(evt)">
<style type="text/css"><![CDATA[
.edge:hover path { stroke: red; }
.edge:hover polygon { stroke: red; fill: red; }
]]></style>
<script type="text/javascript"><![CDATA[
var edges = document.getElementsByTagName('g');
if (edges && edges.length) {
  for (var i=0;i<edges.length;i++) {
    if (edges[i].id.substr(0,4)=='edge') {
      edges[i].setAttribute('class','edge');
    }
  }
}
]]></script>
        <defs>
                <circle id="rim" cx="0" cy="0" r="7"/>
                <circle id="rim2" cx="0" cy="0" r="3.5"/>
                <g id="zoomPlus">
                        <use xlink:href="#rim" fill="#404040">
                                <set attributeName="fill" to="#808080" begin="zoomplus.mouseover" end="zoomplus.mouseout"/>
                        </use>
                        <path d="M-4,0h8M0,-4v8" fill="none" stroke="white" stroke-width="1.5" pointer-events="none"/>
                </g>
                <g id="zoomMin">
                        <use xlink:href="#rim" fill="#404040">
                                <set attributeName="fill" to="#808080" begin="zoomminus.mouseover" end="zoomminus.mouseout"/>
                        </use>
                        <path d="M-4,0h8" fill="none" stroke="white" stroke-width="1.5" pointer-events="none"/>
                </g>
                <g id="dirArrow">
                        <path fill="none" stroke="white" stroke-width="1.5" d="M0,-3.0v7 M-2.5,-0.5L0,-3.0L2.5,-0.5"/>
                </g>
               <g id="resetDef">
                       <use xlink:href="#rim2" fill="#404040">
                               <set attributeName="fill" to="#808080" begin="reset.mouseover" end="reset.mouseout"/>
                       </use>
               </g>
        </defs>

<script type="text/javascript">
var viewWidth = 2063;
var viewHeight = 232;
var sectionId = 'dynsection-1';
</script>
<script xlink:href="svgpan.js"/>
<svg id="graph" class="graph">
<g id="viewport">
<title>src/libaktualizr/primary/commands.h</title>
<polygon fill="#ffffff" stroke="transparent" points="-4,4 -4,-228 2059.416,-228 2059.416,4 -4,4"/>
<!-- Node34 -->
<g id="node1" class="node">
<title>Node34</title>
<polygon fill="#bfbfbf" stroke="#000000" points="857.2266,-195.5 857.2266,-223.5 972.6895,-223.5 972.6895,-195.5 857.2266,-195.5"/>
<text text-anchor="start" x="865.2266" y="-211.5" font-family="Helvetica,sans-Serif" font-size="10.00" fill="#000000">src/libaktualizr/primary</text>
<text text-anchor="middle" x="914.958" y="-201.5" font-family="Helvetica,sans-Serif" font-size="10.00" fill="#000000">/commands.h</text>
</g>
<!-- Node35 -->
<g id="node2" class="node">
<title>Node35</title>
<g id="a_node2"><a xlink:href="aktualizr_8h_source.html" target="_top" xlink:title="src/libaktualizr/primary\l/aktualizr.h">
<polygon fill="#ffffff" stroke="#000000" points="146.2266,-65.5 146.2266,-93.5 261.6895,-93.5 261.6895,-65.5 146.2266,-65.5"/>
<text text-anchor="start" x="154.2266" y="-81.5" font-family="Helvetica,sans-Serif" font-size="10.00" fill="#000000">src/libaktualizr/primary</text>
<text text-anchor="middle" x="203.958" y="-71.5" font-family="Helvetica,sans-Serif" font-size="10.00" fill="#000000">/aktualizr.h</text>
</a>
</g>
</g>
<!-- Node34&#45;&gt;Node35 -->
<g id="edge1" class="edge">
<title>Node34&#45;&gt;Node35</title>
<path fill="none" stroke="#191970" d="M846.402,-208.5695C709.1555,-205.93 405.5307,-195.9689 308.958,-159 271.3755,-144.6131 235.8401,-112.432 217.3005,-93.7238"/>
<polygon fill="#191970" stroke="#191970" points="846.7203,-212.0759 856.7833,-208.7613 846.8497,-205.0771 846.7203,-212.0759"/>
</g>
<!-- Node39 -->
<g id="node6" class="node">
<title>Node39</title>
<g id="a_node6"><a xlink:href="eventsinterpreter_8h_source.html" target="_top" xlink:title="src/libaktualizr/primary\l/eventsinterpreter.h">
<polygon fill="#ffffff" stroke="#000000" points="318.2266,-130.5 318.2266,-158.5 433.6895,-158.5 433.6895,-130.5 318.2266,-130.5"/>
<text text-anchor="start" x="326.2266" y="-146.5" font-family="Helvetica,sans-Serif" font-size="10.00" fill="#000000">src/libaktualizr/primary</text>
<text text-anchor="middle" x="375.958" y="-136.5" font-family="Helvetica,sans-Serif" font-size="10.00" fill="#000000">/eventsinterpreter.h</text>
</a>
</g>
</g>
<!-- Node34&#45;&gt;Node39 -->
<g id="edge5" class="edge">
<title>Node34&#45;&gt;Node39</title>
<path fill="none" stroke="#191970" d="M846.9861,-201.303C740.0491,-188.4071 534.3849,-163.6053 433.9748,-151.4965"/>
<polygon fill="#191970" stroke="#191970" points="846.6726,-204.7905 857.0197,-202.513 847.5107,-197.8408 846.6726,-204.7905"/>
</g>
<!-- Node41 -->
<g id="node8" class="node">
<title>Node41</title>
<g id="a_node8"><a xlink:href="eventsinterpreter__test_8cc_source.html" target="_top" xlink:title="src/libaktualizr/primary\l/eventsinterpreter_test.cc">
<polygon fill="#ffffff" stroke="#000000" points="451.8203,-65.5 451.8203,-93.5 580.0957,-93.5 580.0957,-65.5 451.8203,-65.5"/>
<text text-anchor="start" x="459.8203" y="-81.5" font-family="Helvetica,sans-Serif" font-size="10.00" fill="#000000">src/libaktualizr/primary</text>
<text text-anchor="middle" x="515.958" y="-71.5" font-family="Helvetica,sans-Serif" font-size="10.00" fill="#000000">/eventsinterpreter_test.cc</text>
</a>
</g>
</g>
<!-- Node34&#45;&gt;Node41 -->
<g id="edge25" class="edge">
<title>Node34&#45;&gt;Node41</title>
<path fill="none" stroke="#191970" d="M862.0389,-192.2582C782.2773,-166.2707 632.7725,-117.5599 559.1592,-93.5756"/>
<polygon fill="#191970" stroke="#191970" points="861.2866,-195.6941 871.8789,-195.4642 863.4551,-189.0385 861.2866,-195.6941"/>
</g>
<!-- Node42 -->
<g id="node9" class="node">
<title>Node42</title>
<g id="a_node9"><a xlink:href="sotauptaneclient_8h_source.html" target="_top" xlink:title="src/libaktualizr/primary\l/sotauptaneclient.h">
<polygon fill="#ffffff" stroke="#000000" points="990.2266,-130.5 990.2266,-158.5 1105.6895,-158.5 1105.6895,-130.5 990.2266,-130.5"/>
<text text-anchor="start" x="998.2266" y="-146.5" font-family="Helvetica,sans-Serif" font-size="10.00" fill="#000000">src/libaktualizr/primary</text>
<text text-anchor="middle" x="1047.958" y="-136.5" font-family="Helvetica,sans-Serif" font-size="10.00" fill="#000000">/sotauptaneclient.h</text>
</a>
</g>
</g>
<!-- Node34&#45;&gt;Node42 -->
<g id="edge10" class="edge">
<title>Node34&#45;&gt;Node42</title>
<path fill="none" stroke="#191970" d="M952.8281,-190.9921C973.9093,-180.6892 999.7348,-168.0677 1019.1553,-158.5765"/>
<polygon fill="#191970" stroke="#191970" points="951.2646,-187.8605 943.817,-195.396 954.3383,-194.1496 951.2646,-187.8605"/>
</g>
<!-- Node54 -->
<g id="node21" class="node">
<title>Node54</title>
<g id="a_node21"><a xlink:href="commands_8cc_source.html" target="_top" xlink:title="src/libaktualizr/primary\l/commands.cc">
<polygon fill="#ffffff" stroke="#000000" points="1123.2266,-130.5 1123.2266,-158.5 1238.6895,-158.5 1238.6895,-130.5 1123.2266,-130.5"/>
<text text-anchor="start" x="1131.2266" y="-146.5" font-family="Helvetica,sans-Serif" font-size="10.00" fill="#000000">src/libaktualizr/primary</text>
<text text-anchor="middle" x="1180.958" y="-136.5" font-family="Helvetica,sans-Serif" font-size="10.00" fill="#000000">/commands.cc</text>
</a>
</g>
</g>
<!-- Node34&#45;&gt;Node54 -->
<g id="edge23" class="edge">
<title>Node34&#45;&gt;Node54</title>
<path fill="none" stroke="#191970" d="M982.2702,-193.0515C1025.7571,-182.425 1081.7546,-168.7414 1123.2118,-158.6109"/>
<polygon fill="#191970" stroke="#191970" points="981.2319,-189.7022 972.3486,-195.476 982.8936,-196.5021 981.2319,-189.7022"/>
</g>
<!-- Node55 -->
<g id="node22" class="node">
<title>Node55</title>
<g id="a_node22"><a xlink:href="commands__test_8cc_source.html" target="_top" xlink:title="src/libaktualizr/primary\l/commands_test.cc">
<polygon fill="#ffffff" stroke="#000000" points="1256.2266,-130.5 1256.2266,-158.5 1371.6895,-158.5 1371.6895,-130.5 1256.2266,-130.5"/>
<text text-anchor="start" x="1264.2266" y="-146.5" font-family="Helvetica,sans-Serif" font-size="10.00" fill="#000000">src/libaktualizr/primary</text>
<text text-anchor="middle" x="1313.958" y="-136.5" font-family="Helvetica,sans-Serif" font-size="10.00" fill="#000000">/commands_test.cc</text>
</a>
</g>
</g>
<!-- Node34&#45;&gt;Node55 -->
<g id="edge24" class="edge">
<title>Node34&#45;&gt;Node55</title>
<path fill="none" stroke="#191970" d="M982.9779,-200.519C1050.4325,-191.2991 1156.6328,-175.9378 1247.958,-159 1250.611,-158.508 1253.3201,-157.9873 1256.0537,-157.4471"/>
<polygon fill="#191970" stroke="#191970" points="982.34,-197.0735 972.9031,-201.8898 983.2837,-204.0096 982.34,-197.0735"/>
</g>
<!-- Node36 -->
<g id="node3" class="node">
<title>Node36</title>
<g id="a_node3"><a xlink:href="aktualizr__primary_2main_8cc_source.html" target="_top" xlink:title="src/aktualizr_primary\l/main.cc">
<polygon fill="#ffffff" stroke="#000000" points="127.8374,-.5 127.8374,-28.5 236.0786,-28.5 236.0786,-.5 127.8374,-.5"/>
<text text-anchor="start" x="135.8374" y="-16.5" font-family="Helvetica,sans-Serif" font-size="10.00" fill="#000000">src/aktualizr_primary</text>
<text text-anchor="middle" x="181.958" y="-6.5" font-family="Helvetica,sans-Serif" font-size="10.00" fill="#000000">/main.cc</text>
</a>
</g>
</g>
<!-- Node35&#45;&gt;Node36 -->
<g id="edge2" class="edge">
<title>Node35&#45;&gt;Node36</title>
<path fill="none" stroke="#191970" d="M195.9017,-55.6971C192.8183,-46.5871 189.4018,-36.4929 186.7224,-28.5765"/>
<polygon fill="#191970" stroke="#191970" points="192.663,-57.0459 199.1843,-65.396 199.2936,-54.8017 192.663,-57.0459"/>
</g>
<!-- Node37 -->
<g id="node4" class="node">
<title>Node37</title>
<g id="a_node4"><a xlink:href="hmi__stub_2main_8cc_source.html" target="_top" xlink:title="src/hmi_stub/main.cc">
<polygon fill="#ffffff" stroke="#000000" points="0,-5.5 0,-23.5 109.916,-23.5 109.916,-5.5 0,-5.5"/>
<text text-anchor="middle" x="54.958" y="-11.5" font-family="Helvetica,sans-Serif" font-size="10.00" fill="#000000">src/hmi_stub/main.cc</text>
</a>
</g>
</g>
<!-- Node35&#45;&gt;Node37 -->
<g id="edge3" class="edge">
<title>Node35&#45;&gt;Node37</title>
<path fill="none" stroke="#191970" d="M162.3958,-61.3688C134.1914,-49.0649 98.101,-33.3208 75.7591,-23.5743"/>
<polygon fill="#191970" stroke="#191970" points="161.0619,-64.6054 171.6272,-65.396 163.8609,-58.1894 161.0619,-64.6054"/>
</g>
<!-- Node38 -->
<g id="node5" class="node">
<title>Node38</title>
<g id="a_node5"><a xlink:href="aktualizr_8cc_source.html" target="_top" xlink:title="src/libaktualizr/primary\l/aktualizr.cc">
<polygon fill="#ffffff" stroke="#000000" points="254.2266,-.5 254.2266,-28.5 369.6895,-28.5 369.6895,-.5 254.2266,-.5"/>
<text text-anchor="start" x="262.2266" y="-16.5" font-family="Helvetica,sans-Serif" font-size="10.00" fill="#000000">src/libaktualizr/primary</text>
<text text-anchor="middle" x="311.958" y="-6.5" font-family="Helvetica,sans-Serif" font-size="10.00" fill="#000000">/aktualizr.cc</text>
</a>
</g>
</g>
<!-- Node35&#45;&gt;Node38 -->
<g id="edge4" class="edge">
<title>Node35&#45;&gt;Node38</title>
<path fill="none" stroke="#191970" d="M236.3328,-60.0151C253.1397,-49.8999 273.2944,-37.7698 288.5694,-28.5765"/>
<polygon fill="#191970" stroke="#191970" points="234.1555,-57.2405 227.3924,-65.396 237.7652,-63.2381 234.1555,-57.2405"/>
</g>
<!-- Node39&#45;&gt;Node35 -->
<g id="edge6" class="edge">
<title>Node39&#45;&gt;Node35</title>
<path fill="none" stroke="#191970" d="M329.1701,-126.8185C301.5235,-116.3707 266.9976,-103.3231 241.2066,-93.5765"/>
<polygon fill="#191970" stroke="#191970" points="328.0449,-130.1349 338.6366,-130.396 330.5195,-123.5868 328.0449,-130.1349"/>
</g>
<!-- Node39&#45;&gt;Node38 -->
<g id="edge7" class="edge">
<title>Node39&#45;&gt;Node38</title>
<path fill="none" stroke="#191970" d="M337.617,-124.748C326.2748,-116.8346 315.2241,-106.5695 308.958,-94 298.544,-73.1097 303.1871,-45.1546 307.5458,-28.5665"/>
<polygon fill="#191970" stroke="#191970" points="335.974,-127.8534 346.2728,-130.3402 339.7726,-121.9737 335.974,-127.8534"/>
</g>
<!-- Node40 -->
<g id="node7" class="node">
<title>Node40</title>
<g id="a_node7"><a xlink:href="eventsinterpreter_8cc_source.html" target="_top" xlink:title="src/libaktualizr/primary\l/eventsinterpreter.cc">
<polygon fill="#ffffff" stroke="#000000" points="318.2266,-65.5 318.2266,-93.5 433.6895,-93.5 433.6895,-65.5 318.2266,-65.5"/>
<text text-anchor="start" x="326.2266" y="-81.5" font-family="Helvetica,sans-Serif" font-size="10.00" fill="#000000">src/libaktualizr/primary</text>
<text text-anchor="middle" x="375.958" y="-71.5" font-family="Helvetica,sans-Serif" font-size="10.00" fill="#000000">/eventsinterpreter.cc</text>
</a>
</g>
</g>
<!-- Node39&#45;&gt;Node40 -->
<g id="edge8" class="edge">
<title>Node39&#45;&gt;Node40</title>
<path fill="none" stroke="#191970" d="M375.958,-120.1081C375.958,-111.1539 375.958,-101.3227 375.958,-93.5765"/>
<polygon fill="#191970" stroke="#191970" points="372.4581,-120.3959 375.958,-130.396 379.4581,-120.396 372.4581,-120.3959"/>
</g>
<!-- Node39&#45;&gt;Node41 -->
<g id="edge9" class="edge">
<title>Node39&#45;&gt;Node41</title>
<path fill="none" stroke="#191970" d="M415.523,-126.1305C437.768,-115.8025 465.1051,-103.1103 485.6394,-93.5765"/>
<polygon fill="#191970" stroke="#191970" points="413.9321,-123.0103 406.3359,-130.396 416.8799,-129.3593 413.9321,-123.0103"/>
</g>
<!-- Node42&#45;&gt;Node35 -->
<g id="edge14" class="edge">
<title>Node42&#45;&gt;Node35</title>
<path fill="none" stroke="#191970" d="M979.6343,-141.4093C849.0839,-135.154 555.2497,-119.3905 308.958,-94 293.6732,-92.4243 277.1886,-90.3338 261.913,-88.2321"/>
<polygon fill="#191970" stroke="#191970" points="979.7222,-144.9174 989.8773,-141.8966 980.0549,-137.9253 979.7222,-144.9174"/>
</g>
<!-- Node43 -->
<g id="node10" class="node">
<title>Node43</title>
<g id="a_node10"><a xlink:href="initializer__implicit__test_8cc_source.html" target="_top" xlink:title="tests/initializer_implicit\l_test.cc">
<polygon fill="#ffffff" stroke="#000000" points="1940.5,-65.5 1940.5,-93.5 2055.416,-93.5 2055.416,-65.5 1940.5,-65.5"/>
<text text-anchor="start" x="1948.5" y="-81.5" font-family="Helvetica,sans-Serif" font-size="10.00" fill="#000000">tests/initializer_implicit</text>
<text text-anchor="middle" x="1997.958" y="-71.5" font-family="Helvetica,sans-Serif" font-size="10.00" fill="#000000">_test.cc</text>
</a>
</g>
</g>
<!-- Node42&#45;&gt;Node43 -->
<g id="edge11" class="edge">
<title>Node42&#45;&gt;Node43</title>
<path fill="none" stroke="#191970" d="M1115.7395,-129.9141C1476.5511,-83.8285 1574.3864,-140.7921 1931.958,-94 1934.7498,-93.6347 1937.5982,-93.2104 1940.4681,-92.7414"/>
<polygon fill="#191970" stroke="#191970" points="1115.2743,-126.445 1105.8066,-131.2002 1116.1733,-133.387 1115.2743,-126.445"/>
</g>
<!-- Node44 -->
<g id="node11" class="node">
<title>Node44</title>
<g id="a_node11"><a xlink:href="uptane__vector__tests_8cc_source.html" target="_top" xlink:title="tests/uptane_vector\l_tests.cc">
<polygon fill="#ffffff" stroke="#000000" points="598.3203,-65.5 598.3203,-93.5 701.5957,-93.5 701.5957,-65.5 598.3203,-65.5"/>
<text text-anchor="start" x="606.3203" y="-81.5" font-family="Helvetica,sans-Serif" font-size="10.00" fill="#000000">tests/uptane_vector</text>
<text text-anchor="middle" x="649.958" y="-71.5" font-family="Helvetica,sans-Serif" font-size="10.00" fill="#000000">_tests.cc</text>
</a>
</g>
</g>
<!-- Node42&#45;&gt;Node44 -->
<g id="edge12" class="edge">
<title>Node42&#45;&gt;Node44</title>
<path fill="none" stroke="#191970" d="M979.7535,-136.1187C911.2703,-127.2791 802.8749,-112.1316 709.958,-94 707.2233,-93.4664 704.4252,-92.8915 701.6047,-92.2894"/>
<polygon fill="#191970" stroke="#191970" points="979.6132,-139.6293 989.9772,-137.4298 980.5036,-132.6862 979.6132,-139.6293"/>
</g>
<!-- Node45 -->
<g id="node12" class="node">
<title>Node45</title>
<g id="a_node12"><a xlink:href="aktualizr__secondary_2uptane__test_8cc_source.html" target="_top" xlink:title="src/aktualizr_secondary\l/uptane_test.cc">
<polygon fill="#ffffff" stroke="#000000" points="719.436,-65.5 719.436,-93.5 840.48,-93.5 840.48,-65.5 719.436,-65.5"/>
<text text-anchor="start" x="727.436" y="-81.5" font-family="Helvetica,sans-Serif" font-size="10.00" fill="#000000">src/aktualizr_secondary</text>
<text text-anchor="middle" x="779.958" y="-71.5" font-family="Helvetica,sans-Serif" font-size="10.00" fill="#000000">/uptane_test.cc</text>
</a>
</g>
</g>
<!-- Node42&#45;&gt;Node45 -->
<g id="edge13" class="edge">
<title>Node42&#45;&gt;Node45</title>
<path fill="none" stroke="#191970" d="M980.4162,-128.1186C936.5634,-117.4827 879.9953,-103.7628 838.1384,-93.6109"/>
<polygon fill="#191970" stroke="#191970" points="979.5927,-131.5203 990.1359,-130.476 981.2427,-124.7175 979.5927,-131.5203"/>
</g>
<!-- Node46 -->
<g id="node13" class="node">
<title>Node46</title>
<g id="a_node13"><a xlink:href="sotauptaneclient_8cc_source.html" target="_top" xlink:title="src/libaktualizr/primary\l/sotauptaneclient.cc">
<polygon fill="#ffffff" stroke="#000000" points="858.2266,-65.5 858.2266,-93.5 973.6895,-93.5 973.6895,-65.5 858.2266,-65.5"/>
<text text-anchor="start" x="866.2266" y="-81.5" font-family="Helvetica,sans-Serif" font-size="10.00" fill="#000000">src/libaktualizr/primary</text>
<text text-anchor="middle" x="915.958" y="-71.5" font-family="Helvetica,sans-Serif" font-size="10.00" fill="#000000">/sotauptaneclient.cc</text>
</a>
</g>
</g>
<!-- Node42&#45;&gt;Node46 -->
<g id="edge15" class="edge">
<title>Node42&#45;&gt;Node46</title>
<path fill="none" stroke="#191970" d="M1010.0909,-125.8533C989.2202,-115.5761 963.7322,-103.0252 944.5441,-93.5765"/>
<polygon fill="#191970" stroke="#191970" points="1008.7985,-129.1182 1019.316,-130.396 1011.8909,-122.8383 1008.7985,-129.1182"/>
</g>
<!-- Node47 -->
<g id="node14" class="node">
<title>Node47</title>
<g id="a_node14"><a xlink:href="uptane__ci__test_8cc_source.html" target="_top" xlink:title="src/libaktualizr/uptane\l/uptane_ci_test.cc">
<polygon fill="#ffffff" stroke="#000000" points="991.6011,-65.5 991.6011,-93.5 1104.3149,-93.5 1104.3149,-65.5 991.6011,-65.5"/>
<text text-anchor="start" x="999.6011" y="-81.5" font-family="Helvetica,sans-Serif" font-size="10.00" fill="#000000">src/libaktualizr/uptane</text>
<text text-anchor="middle" x="1047.958" y="-71.5" font-family="Helvetica,sans-Serif" font-size="10.00" fill="#000000">/uptane_ci_test.cc</text>
</a>
</g>
</g>
<!-- Node42&#45;&gt;Node47 -->
<g id="edge16" class="edge">
<title>Node42&#45;&gt;Node47</title>
<path fill="none" stroke="#191970" d="M1047.958,-120.1081C1047.958,-111.1539 1047.958,-101.3227 1047.958,-93.5765"/>
<polygon fill="#191970" stroke="#191970" points="1044.4581,-120.3959 1047.958,-130.396 1051.4581,-120.396 1044.4581,-120.3959"/>
</g>
<!-- Node48 -->
<g id="node15" class="node">
<title>Node48</title>
<g id="a_node15"><a xlink:href="uptane__implicit__test_8cc.html" target="_top" xlink:title="src/libaktualizr/uptane\l/uptane_implicit_test.cc">
<polygon fill="#ffffff" stroke="#000000" points="1121.9878,-65.5 1121.9878,-93.5 1241.9282,-93.5 1241.9282,-65.5 1121.9878,-65.5"/>
<text text-anchor="start" x="1129.9878" y="-81.5" font-family="Helvetica,sans-Serif" font-size="10.00" fill="#000000">src/libaktualizr/uptane</text>
<text text-anchor="middle" x="1181.958" y="-71.5" font-family="Helvetica,sans-Serif" font-size="10.00" fill="#000000">/uptane_implicit_test.cc</text>
</a>
</g>
</g>
<!-- Node42&#45;&gt;Node48 -->
<g id="edge17" class="edge">
<title>Node42&#45;&gt;Node48</title>
<path fill="none" stroke="#191970" d="M1086.1129,-125.9921C1107.3525,-115.6892 1133.3723,-103.0677 1152.9387,-93.5765"/>
<polygon fill="#191970" stroke="#191970" points="1084.5038,-122.8825 1077.034,-130.396 1087.5589,-129.1806 1084.5038,-122.8825"/>
</g>
<!-- Node49 -->
<g id="node16" class="node">
<title>Node49</title>
<g id="a_node16"><a xlink:href="uptane__key__test_8cc_source.html" target="_top" xlink:title="src/libaktualizr/uptane\l/uptane_key_test.cc">
<polygon fill="#ffffff" stroke="#000000" points="1259.6011,-65.5 1259.6011,-93.5 1372.3149,-93.5 1372.3149,-65.5 1259.6011,-65.5"/>
<text text-anchor="start" x="1267.6011" y="-81.5" font-family="Helvetica,sans-Serif" font-size="10.00" fill="#000000">src/libaktualizr/uptane</text>
<text text-anchor="middle" x="1315.958" y="-71.5" font-family="Helvetica,sans-Serif" font-size="10.00" fill="#000000">/uptane_key_test.cc</text>
</a>
</g>
</g>
<!-- Node42&#45;&gt;Node49 -->
<g id="edge18" class="edge">
<title>Node42&#45;&gt;Node49</title>
<path fill="none" stroke="#191970" d="M1115.6021,-128.0938C1159.9253,-117.3437 1217.2048,-103.4513 1259.1599,-93.2757"/>
<polygon fill="#191970" stroke="#191970" points="1114.6733,-124.7175 1105.7801,-130.476 1116.3233,-131.5203 1114.6733,-124.7175"/>
</g>
<!-- Node50 -->
<g id="node17" class="node">
<title>Node50</title>
<g id="a_node17"><a xlink:href="uptane__serial__test_8cc_source.html" target="_top" xlink:title="src/libaktualizr/uptane\l/uptane_serial_test.cc">
<polygon fill="#ffffff" stroke="#000000" points="1390.3179,-65.5 1390.3179,-93.5 1503.5981,-93.5 1503.5981,-65.5 1390.3179,-65.5"/>
<text text-anchor="start" x="1398.3179" y="-81.5" font-family="Helvetica,sans-Serif" font-size="10.00" fill="#000000">src/libaktualizr/uptane</text>
<text text-anchor="middle" x="1446.958" y="-71.5" font-family="Helvetica,sans-Serif" font-size="10.00" fill="#000000">/uptane_serial_test.cc</text>
</a>
</g>
</g>
<!-- Node42&#45;&gt;Node50 -->
<g id="edge19" class="edge">
<title>Node42&#45;&gt;Node50</title>
<path fill="none" stroke="#191970" d="M1115.9806,-129.726C1233.6368,-109.4289 1266.2734,-114.294 1380.958,-94 1383.9616,-93.4685 1387.0358,-92.8954 1390.1354,-92.2946"/>
<polygon fill="#191970" stroke="#191970" points="1115.0993,-126.3269 1105.8525,-131.4985 1116.3062,-133.2221 1115.0993,-126.3269"/>
</g>
<!-- Node51 -->
<g id="node18" class="node">
<title>Node51</title>
<g id="a_node18"><a xlink:href="libaktualizr_2uptane_2uptane__test_8cc_source.html" target="_top" xlink:title="src/libaktualizr/uptane\l/uptane_test.cc">
<polygon fill="#ffffff" stroke="#000000" points="1521.6011,-65.5 1521.6011,-93.5 1634.3149,-93.5 1634.3149,-65.5 1521.6011,-65.5"/>
<text text-anchor="start" x="1529.6011" y="-81.5" font-family="Helvetica,sans-Serif" font-size="10.00" fill="#000000">src/libaktualizr/uptane</text>
<text text-anchor="middle" x="1577.958" y="-71.5" font-family="Helvetica,sans-Serif" font-size="10.00" fill="#000000">/uptane_test.cc</text>
</a>
</g>
</g>
<!-- Node42&#45;&gt;Node51 -->
<g id="edge20" class="edge">
<title>Node42&#45;&gt;Node51</title>
<path fill="none" stroke="#191970" d="M1115.9363,-129.8139C1291.7207,-103.5169 1340.2958,-120.9317 1512.958,-94 1515.6998,-93.5723 1518.4987,-93.0974 1521.3201,-92.5879"/>
<polygon fill="#191970" stroke="#191970" points="1115.1876,-126.3875 1105.8283,-131.3529 1116.2413,-133.3077 1115.1876,-126.3875"/>
</g>
<!-- Node52 -->
<g id="node19" class="node">
<title>Node52</title>
<g id="a_node19"><a xlink:href="check_8cc_source.html" target="_top" xlink:title="src/load_tests/check.cc">
<polygon fill="#ffffff" stroke="#000000" points="1652.271,-70.5 1652.271,-88.5 1771.645,-88.5 1771.645,-70.5 1652.271,-70.5"/>
<text text-anchor="middle" x="1711.958" y="-76.5" font-family="Helvetica,sans-Serif" font-size="10.00" fill="#000000">src/load_tests/check.cc</text>
</a>
</g>
</g>
<!-- Node42&#45;&gt;Node52 -->
<g id="edge21" class="edge">
<title>Node42&#45;&gt;Node52</title>
<path fill="none" stroke="#191970" d="M1115.9664,-129.846C1349.036,-97.4532 1412.8339,-125.8523 1642.958,-94 1653.0219,-92.607 1663.8132,-90.5931 1673.8022,-88.5073"/>
<polygon fill="#191970" stroke="#191970" points="1115.2295,-126.4152 1105.8175,-131.2798 1116.2088,-133.3464 1115.2295,-126.4152"/>
</g>
<!-- Node53 -->
<g id="node20" class="node">
<title>Node53</title>
<g id="a_node20"><a xlink:href="provision_8cc_source.html" target="_top" xlink:title="src/load_tests/provision.cc">
<polygon fill="#ffffff" stroke="#000000" points="1789.3228,-70.5 1789.3228,-88.5 1922.5933,-88.5 1922.5933,-70.5 1789.3228,-70.5"/>
<text text-anchor="middle" x="1855.958" y="-76.5" font-family="Helvetica,sans-Serif" font-size="10.00" fill="#000000">src/load_tests/provision.cc</text>
</a>
</g>
</g>
<!-- Node42&#45;&gt;Node53 -->
<g id="edge22" class="edge">
<title>Node42&#45;&gt;Node53</title>
<path fill="none" stroke="#191970" d="M1115.9123,-129.8752C1409.9123,-90.9109 1489.614,-129.8541 1780.958,-94 1791.883,-92.6555 1803.6077,-90.6586 1814.465,-88.5737"/>
<polygon fill="#191970" stroke="#191970" points="1115.2554,-126.4319 1105.811,-131.2332 1116.1882,-133.3695 1115.2554,-126.4319"/>
</g>
</g>
</svg>
        <g id="navigator" transform="translate(0 0)" fill="#404254">
                <rect fill="#f2f5e9" fill-opacity="0.5" stroke="#606060" stroke-width=".5" x="0" y="0" width="60" height="60"/>
                <use id="zoomplus" xlink:href="#zoomPlus" x="17" y="9" onmousedown="handleZoom(evt,'in')"/>
                <use id="zoomminus" xlink:href="#zoomMin" x="42" y="9" onmousedown="handleZoom(evt,'out')"/>
                <use id="reset" xlink:href="#resetDef" x="30" y="36" onmousedown="handleReset()"/>
                <g id="arrowUp" xlink:href="#dirArrow" transform="translate(30 24)" onmousedown="handlePan(0,-1)">
                  <use xlink:href="#rim" fill="#404040">
                        <set attributeName="fill" to="#808080" begin="arrowUp.mouseover" end="arrowUp.mouseout"/>
                  </use>
                  <path fill="none" stroke="white" stroke-width="1.5" d="M0,-3.0v7 M-2.5,-0.5L0,-3.0L2.5,-0.5"/>
                </g>
                <g id="arrowRight" xlink:href="#dirArrow" transform="rotate(90) translate(36 -43)" onmousedown="handlePan(1,0)">
                  <use xlink:href="#rim" fill="#404040">
                        <set attributeName="fill" to="#808080" begin="arrowRight.mouseover" end="arrowRight.mouseout"/>
                  </use>
                  <path fill="none" stroke="white" stroke-width="1.5" d="M0,-3.0v7 M-2.5,-0.5L0,-3.0L2.5,-0.5"/>
                </g>
                <g id="arrowDown" xlink:href="#dirArrow" transform="rotate(180) translate(-30 -48)" onmousedown="handlePan(0,1)">
                  <use xlink:href="#rim" fill="#404040">
                        <set attributeName="fill" to="#808080" begin="arrowDown.mouseover" end="arrowDown.mouseout"/>
                  </use>
                  <path fill="none" stroke="white" stroke-width="1.5" d="M0,-3.0v7 M-2.5,-0.5L0,-3.0L2.5,-0.5"/>
                </g>
                <g id="arrowLeft" xlink:href="#dirArrow" transform="rotate(270) translate(-36 17)" onmousedown="handlePan(-1,0)">
                  <use xlink:href="#rim" fill="#404040">
                        <set attributeName="fill" to="#808080" begin="arrowLeft.mouseover" end="arrowLeft.mouseout"/>
                  </use>
                  <path fill="none" stroke="white" stroke-width="1.5" d="M0,-3.0v7 M-2.5,-0.5L0,-3.0L2.5,-0.5"/>
                </g>
        </g>
        <svg viewBox="0 0 15 15" width="100%" height="30px" preserveAspectRatio="xMaxYMin meet">
         <g id="arrow_out" transform="scale(0.3 0.3)">
          <a xlink:href="commands_8h__dep__incl_org.svg" target="_base">
           <rect id="button" ry="5" rx="5" y="6" x="6" height="38" width="38"
                fill="#f2f5e9" fill-opacity="0.5" stroke="#606060" stroke-width="1.0"/>
           <path id="arrow"
             d="M 11.500037,31.436501 C 11.940474,20.09759 22.043105,11.32322 32.158766,21.979434 L 37.068811,17.246167 C 37.068811,17.246167 37.088388,32 37.088388,32 L 22.160133,31.978069 C 22.160133,31.978069 26.997745,27.140456 26.997745,27.140456 C 18.528582,18.264221 13.291696,25.230495 11.500037,31.436501 z"
             style="fill:#404040;"/>
          </a>
         </g>
        </svg>
</svg>
