<?xml version="1.0" encoding="UTF-8" standalone="no"?>
<!DOCTYPE svg PUBLIC "-//W3C//DTD SVG 1.1//EN"
 "http://www.w3.org/Graphics/SVG/1.1/DTD/svg11.dtd">
<!-- Generated by graphviz version 2.40.1 (20161225.0304)
 -->
<!-- Title: src/libaktualizr/primary/commands.h Pages: 1 -->
<!--zoomable 267 -->
<svg id="main" version="1.1" xmlns="http://www.w3.org/2000/svg" xmlns:xlink="http://www.w3.org/1999/xlink" xml:space="preserve" onload="init(evt)">
<style type="text/css"><![CDATA[
.edge:hover path { stroke: red; }
.edge:hover polygon { stroke: red; fill: red; }
]]></style>
<script type="text/javascript"><![CDATA[
var edges = document.getElementsByTagName('g');
if (edges && edges.length) {
  for (var i=0;i<edges.length;i++) {
    if (edges[i].id.substr(0,4)=='edge') {
      edges[i].setAttribute('class','edge');
    }
  }
}
]]></script>
        <defs>
                <circle id="rim" cx="0" cy="0" r="7"/>
                <circle id="rim2" cx="0" cy="0" r="3.5"/>
                <g id="zoomPlus">
                        <use xlink:href="#rim" fill="#404040">
                                <set attributeName="fill" to="#808080" begin="zoomplus.mouseover" end="zoomplus.mouseout"/>
                        </use>
                        <path d="M-4,0h8M0,-4v8" fill="none" stroke="white" stroke-width="1.5" pointer-events="none"/>
                </g>
                <g id="zoomMin">
                        <use xlink:href="#rim" fill="#404040">
                                <set attributeName="fill" to="#808080" begin="zoomminus.mouseover" end="zoomminus.mouseout"/>
                        </use>
                        <path d="M-4,0h8" fill="none" stroke="white" stroke-width="1.5" pointer-events="none"/>
                </g>
                <g id="dirArrow">
                        <path fill="none" stroke="white" stroke-width="1.5" d="M0,-3.0v7 M-2.5,-0.5L0,-3.0L2.5,-0.5"/>
                </g>
               <g id="resetDef">
                       <use xlink:href="#rim2" fill="#404040">
                               <set attributeName="fill" to="#808080" begin="reset.mouseover" end="reset.mouseout"/>
                       </use>
               </g>
        </defs>

<script type="text/javascript">
var viewWidth = 2065;
var viewHeight = 267;
var sectionId = 'dynsection-0';
</script>
<script xlink:href="svgpan.js"/>
<svg id="graph" class="graph">
<g id="viewport">
<title>src/libaktualizr/primary/commands.h</title>
<polygon fill="#ffffff" stroke="transparent" points="-4,4 -4,-263 2060.8351,-263 2060.8351,4 -4,4"/>
<!-- Node0 -->
<g id="node1" class="node">
<title>Node0</title>
<polygon fill="#bfbfbf" stroke="#000000" points="1619.9265,-230.5 1619.9265,-258.5 1735.3893,-258.5 1735.3893,-230.5 1619.9265,-230.5"/>
<text text-anchor="start" x="1627.9265" y="-246.5" font-family="Helvetica,sans-Serif" font-size="10.00" fill="#000000">src/libaktualizr/primary</text>
<text text-anchor="middle" x="1677.6579" y="-236.5" font-family="Helvetica,sans-Serif" font-size="10.00" fill="#000000">/commands.h</text>
</g>
<!-- Node1 -->
<g id="node2" class="node">
<title>Node1</title>
<polygon fill="#ffffff" stroke="#bfbfbf" points="136.4313,-.5 136.4313,-18.5 176.8845,-18.5 176.8845,-.5 136.4313,-.5"/>
<text text-anchor="middle" x="156.6579" y="-6.5" font-family="Helvetica,sans-Serif" font-size="10.00" fill="#000000">string</text>
</g>
<!-- Node0&#45;&gt;Node1 -->
<g id="edge1" class="edge">
<title>Node0&#45;&gt;Node1</title>
<path fill="none" stroke="#191970" d="M1619.7453,-242.8103C1333.9349,-234.2199 85.0656,-193.6519 24.6579,-139 -3.2222,-113.7764 -7.5029,-85.3715 14.6579,-55 27.9429,-36.7928 88.8529,-22.3033 126.4533,-14.8978"/>
<polygon fill="#191970" stroke="#191970" points="127.2166,-18.3153 136.3815,-12.9997 125.9021,-11.4399 127.2166,-18.3153"/>
</g>
<!-- Node2 -->
<g id="node3" class="node">
<title>Node2</title>
<polygon fill="#ffffff" stroke="#bfbfbf" points="1645.7541,-.5 1645.7541,-18.5 1709.5617,-18.5 1709.5617,-.5 1645.7541,-.5"/>
<text text-anchor="middle" x="1677.6579" y="-6.5" font-family="Helvetica,sans-Serif" font-size="10.00" fill="#000000">json/json.h</text>
</g>
<!-- Node0&#45;&gt;Node2 -->
<g id="edge2" class="edge">
<title>Node0&#45;&gt;Node2</title>
<path fill="none" stroke="#191970" d="M1687.7387,-230.1984C1709.1779,-197.8916 1755.1725,-117.24 1727.6579,-55 1722.2451,-42.7558 1711.7297,-32.3899 1701.7332,-24.6592"/>
<polygon fill="#191970" stroke="#191970" points="1703.7449,-21.7949 1693.5816,-18.8019 1699.6602,-27.4796 1703.7449,-21.7949"/>
</g>
<!-- Node3 -->
<g id="node4" class="node">
<title>Node3</title>
<g id="a_node4"><a xlink:href="tuf_8h_source.html" target="_top" xlink:title="uptane/tuf.h">
<polygon fill="#ffffff" stroke="#000000" points="720.2468,-175.5 720.2468,-193.5 789.069,-193.5 789.069,-175.5 720.2468,-175.5"/>
<text text-anchor="middle" x="754.6579" y="-181.5" font-family="Helvetica,sans-Serif" font-size="10.00" fill="#000000">uptane/tuf.h</text>
</a>
</g>
</g>
<!-- Node0&#45;&gt;Node3 -->
<g id="edge3" class="edge">
<title>Node0&#45;&gt;Node3</title>
<path fill="none" stroke="#191970" d="M1619.9201,-240.7467C1449.7604,-229.6854 952.6044,-197.3676 799.8398,-187.4371"/>
<polygon fill="#191970" stroke="#191970" points="799.6512,-183.9175 789.4452,-186.7614 799.197,-190.9028 799.6512,-183.9175"/>
</g>
<!-- Node23 -->
<g id="node24" class="node">
<title>Node23</title>
<g id="a_node24"><a xlink:href="types_8h.html" target="_top" xlink:title="utilities/types.h">
<polygon fill="#ffffff" stroke="#000000" points="1636.8649,-60.5 1636.8649,-78.5 1718.4509,-78.5 1718.4509,-60.5 1636.8649,-60.5"/>
<text text-anchor="middle" x="1677.6579" y="-66.5" font-family="Helvetica,sans-Serif" font-size="10.00" fill="#000000">utilities/types.h</text>
</a>
</g>
</g>
<!-- Node0&#45;&gt;Node23 -->
<g id="edge41" class="edge">
<title>Node0&#45;&gt;Node23</title>
<path fill="none" stroke="#191970" d="M1677.6579,-230.4748C1677.6579,-199.2974 1677.6579,-124.1983 1677.6579,-88.7021"/>
<polygon fill="#191970" stroke="#191970" points="1681.158,-88.6748 1677.6579,-78.6748 1674.158,-88.6748 1681.158,-88.6748"/>
</g>
<!-- Node29 -->
<g id="node30" class="node">
<title>Node29</title>
<g id="a_node30"><a xlink:href="channel_8h_source.html" target="_top" xlink:title="utilities/channel.h">
<polygon fill="#ffffff" stroke="#000000" points="1864.301,-175.5 1864.301,-193.5 1957.0148,-193.5 1957.0148,-175.5 1864.301,-175.5"/>
<text text-anchor="middle" x="1910.6579" y="-181.5" font-family="Helvetica,sans-Serif" font-size="10.00" fill="#000000">utilities/channel.h</text>
</a>
</g>
</g>
<!-- Node0&#45;&gt;Node29 -->
<g id="edge36" class="edge">
<title>Node0&#45;&gt;Node29</title>
<path fill="none" stroke="#191970" d="M1732.286,-230.4327C1772.9089,-219.9719 1827.6708,-205.8701 1865.757,-196.0625"/>
<polygon fill="#191970" stroke="#191970" points="1866.7346,-199.425 1875.5459,-193.5417 1864.9889,-192.6461 1866.7346,-199.425"/>
</g>
<!-- Node4 -->
<g id="node5" class="node">
<title>Node4</title>
<polygon fill="#ffffff" stroke="#bfbfbf" points="850.2541,-120.5 850.2541,-138.5 909.0617,-138.5 909.0617,-120.5 850.2541,-120.5"/>
<text text-anchor="middle" x="879.6579" y="-126.5" font-family="Helvetica,sans-Serif" font-size="10.00" fill="#000000">functional</text>
</g>
<!-- Node3&#45;&gt;Node4 -->
<g id="edge4" class="edge">
<title>Node3&#45;&gt;Node4</title>
<path fill="none" stroke="#191970" d="M775.2991,-175.4179C795.5645,-166.5011 826.6964,-152.803 849.6869,-142.6873"/>
<polygon fill="#191970" stroke="#191970" points="851.2425,-145.8267 858.986,-138.5956 848.4233,-139.4195 851.2425,-145.8267"/>
</g>
<!-- Node5 -->
<g id="node6" class="node">
<title>Node5</title>
<polygon fill="#ffffff" stroke="#bfbfbf" points="33.5964,-120.5 33.5964,-138.5 85.7194,-138.5 85.7194,-120.5 33.5964,-120.5"/>
<text text-anchor="middle" x="59.6579" y="-126.5" font-family="Helvetica,sans-Serif" font-size="10.00" fill="#000000">ostream</text>
</g>
<!-- Node3&#45;&gt;Node5 -->
<g id="edge5" class="edge">
<title>Node3&#45;&gt;Node5</title>
<path fill="none" stroke="#191970" d="M719.9031,-183.0062C604.7354,-177.9183 235.4762,-160.4686 95.9445,-138.8493"/>
<polygon fill="#191970" stroke="#191970" points="96.3402,-135.3678 85.9083,-137.2185 95.2174,-142.2772 96.3402,-135.3678"/>
</g>
<!-- Node6 -->
<g id="node7" class="node">
<title>Node6</title>
<polygon fill="#ffffff" stroke="#bfbfbf" points="703.988,-120.5 703.988,-138.5 733.3278,-138.5 733.3278,-120.5 703.988,-120.5"/>
<text text-anchor="middle" x="718.6579" y="-126.5" font-family="Helvetica,sans-Serif" font-size="10.00" fill="#000000">set</text>
</g>
<!-- Node3&#45;&gt;Node6 -->
<g id="edge6" class="edge">
<title>Node3&#45;&gt;Node6</title>
<path fill="none" stroke="#191970" d="M748.7132,-175.4179C743.7405,-167.8207 736.496,-156.7527 730.3655,-147.3866"/>
<polygon fill="#191970" stroke="#191970" points="733.1368,-145.2297 724.7317,-138.7795 727.2799,-149.0633 733.1368,-145.2297"/>
</g>
<!-- Node7 -->
<g id="node8" class="node">
<title>Node7</title>
<g id="a_node8"><a xlink:href="uptane_2exceptions_8h_source.html" target="_top" xlink:title="uptane/exceptions.h">
<polygon fill="#ffffff" stroke="#000000" points="103.902,-120.5 103.902,-138.5 209.4138,-138.5 209.4138,-120.5 103.902,-120.5"/>
<text text-anchor="middle" x="156.6579" y="-126.5" font-family="Helvetica,sans-Serif" font-size="10.00" fill="#000000">uptane/exceptions.h</text>
</a>
</g>
</g>
<!-- Node3&#45;&gt;Node7 -->
<g id="edge7" class="edge">
<title>Node3&#45;&gt;Node7</title>
<path fill="none" stroke="#191970" d="M719.9221,-181.3052C622.4544,-172.3408 345.3505,-146.8547 219.827,-135.3099"/>
<polygon fill="#191970" stroke="#191970" points="219.886,-131.8006 209.6075,-134.3699 219.2449,-138.7712 219.886,-131.8006"/>
</g>
<!-- Node10 -->
<g id="node11" class="node">
<title>Node10</title>
<g id="a_node11"><a xlink:href="crypto_8h_source.html" target="_top" xlink:title="crypto/crypto.h">
<polygon fill="#ffffff" stroke="#000000" points="750.8674,-120.5 750.8674,-138.5 832.4484,-138.5 832.4484,-120.5 750.8674,-120.5"/>
<text text-anchor="middle" x="791.6579" y="-126.5" font-family="Helvetica,sans-Serif" font-size="10.00" fill="#000000">crypto/crypto.h</text>
</a>
</g>
</g>
<!-- Node3&#45;&gt;Node10 -->
<g id="edge11" class="edge">
<title>Node3&#45;&gt;Node10</title>
<path fill="none" stroke="#191970" d="M760.7677,-175.4179C765.9318,-167.7415 773.4797,-156.5217 779.8216,-147.0945"/>
<polygon fill="#191970" stroke="#191970" points="782.7376,-149.0303 785.4154,-138.7795 776.9295,-145.1231 782.7376,-149.0303"/>
</g>
<!-- Node7&#45;&gt;Node1 -->
<g id="edge9" class="edge">
<title>Node7&#45;&gt;Node1</title>
<path fill="none" stroke="#191970" d="M148.9822,-120.4689C142.134,-111.7727 132.5985,-97.9224 128.6579,-84 125.1477,-71.5983 125.1477,-67.4017 128.6579,-55 131.521,-44.8845 137.3376,-34.8071 142.9311,-26.7169"/>
<polygon fill="#191970" stroke="#191970" points="145.8523,-28.653 148.9822,-18.5311 140.2233,-24.4919 145.8523,-28.653"/>
</g>
<!-- Node8 -->
<g id="node9" class="node">
<title>Node8</title>
<polygon fill="#ffffff" stroke="#bfbfbf" points="23.2565,-60.5 23.2565,-78.5 82.0593,-78.5 82.0593,-60.5 23.2565,-60.5"/>
<text text-anchor="middle" x="52.6579" y="-66.5" font-family="Helvetica,sans-Serif" font-size="10.00" fill="#000000">stdexcept</text>
</g>
<!-- Node7&#45;&gt;Node8 -->
<g id="edge8" class="edge">
<title>Node7&#45;&gt;Node8</title>
<path fill="none" stroke="#191970" d="M140.8625,-120.3873C123.8896,-110.5952 96.7005,-94.9092 76.9918,-83.5388"/>
<polygon fill="#191970" stroke="#191970" points="78.6721,-80.4675 68.2611,-78.5019 75.174,-86.5308 78.6721,-80.4675"/>
</g>
<!-- Node9 -->
<g id="node10" class="node">
<title>Node9</title>
<polygon fill="#ffffff" stroke="#bfbfbf" points="137.2663,-60.5 137.2663,-78.5 176.0495,-78.5 176.0495,-60.5 137.2663,-60.5"/>
<text text-anchor="middle" x="156.6579" y="-66.5" font-family="Helvetica,sans-Serif" font-size="10.00" fill="#000000">utility</text>
</g>
<!-- Node7&#45;&gt;Node9 -->
<g id="edge10" class="edge">
<title>Node7&#45;&gt;Node9</title>
<path fill="none" stroke="#191970" d="M156.6579,-120.3873C156.6579,-112.0174 156.6579,-99.3414 156.6579,-88.735"/>
<polygon fill="#191970" stroke="#191970" points="160.158,-88.6984 156.6579,-78.6985 153.158,-88.6985 160.158,-88.6984"/>
</g>
<!-- Node10&#45;&gt;Node1 -->
<g id="edge24" class="edge">
<title>Node10&#45;&gt;Node1</title>
<path fill="none" stroke="#191970" d="M750.8119,-121.1931C748.0583,-120.7529 745.3214,-120.3491 742.6579,-120 627.8078,-104.9485 326.5793,-135.1609 222.6579,-84 197.6743,-71.7005 177.9907,-45.3628 166.8349,-27.5356"/>
<polygon fill="#191970" stroke="#191970" points="169.6638,-25.4457 161.5352,-18.6504 163.652,-29.0316 169.6638,-25.4457"/>
</g>
<!-- Node10&#45;&gt;Node9 -->
<g id="edge25" class="edge">
<title>Node10&#45;&gt;Node9</title>
<path fill="none" stroke="#191970" d="M750.8135,-121.1804C748.0596,-120.7433 745.3221,-120.3436 742.6579,-120 498.3828,-88.4976 428.9256,-142.4269 189.6579,-84 187.6974,-83.5213 185.7071,-82.933 183.7256,-82.2705"/>
<polygon fill="#191970" stroke="#191970" points="184.6592,-78.8777 174.0711,-78.5014 182.1135,-85.3984 184.6592,-78.8777"/>
</g>
<!-- Node11 -->
<g id="node12" class="node">
<title>Node11</title>
<polygon fill="#ffffff" stroke="#bfbfbf" points="231.8503,-60.5 231.8503,-78.5 323.4655,-78.5 323.4655,-60.5 231.8503,-60.5"/>
<text text-anchor="middle" x="277.6579" y="-66.5" font-family="Helvetica,sans-Serif" font-size="10.00" fill="#000000">openssl/engine.h</text>
</g>
<!-- Node10&#45;&gt;Node11 -->
<g id="edge12" class="edge">
<title>Node10&#45;&gt;Node11</title>
<path fill="none" stroke="#191970" d="M750.8042,-121.2494C748.0525,-120.7956 745.3181,-120.3733 742.6579,-120 561.0715,-94.5151 512.2281,-115.8983 331.6579,-84 327.1263,-83.1995 322.4213,-82.1982 317.7624,-81.098"/>
<polygon fill="#191970" stroke="#191970" points="318.2744,-77.6177 307.7225,-78.5709 316.5657,-84.406 318.2744,-77.6177"/>
</g>
<!-- Node12 -->
<g id="node13" class="node">
<title>Node12</title>
<polygon fill="#ffffff" stroke="#bfbfbf" points="341.0275,-60.5 341.0275,-78.5 414.2883,-78.5 414.2883,-60.5 341.0275,-60.5"/>
<text text-anchor="middle" x="377.6579" y="-66.5" font-family="Helvetica,sans-Serif" font-size="10.00" fill="#000000">openssl/err.h</text>
</g>
<!-- Node10&#45;&gt;Node12 -->
<g id="edge13" class="edge">
<title>Node10&#45;&gt;Node12</title>
<path fill="none" stroke="#191970" d="M750.7931,-121.3253C748.0441,-120.8532 745.3133,-120.4061 742.6579,-120 601.1836,-98.3627 562.577,-114.0968 422.6579,-84 419.265,-83.2702 415.7654,-82.3859 412.2868,-81.4181"/>
<polygon fill="#191970" stroke="#191970" points="413.229,-78.0468 402.6451,-78.5283 411.2193,-84.7521 413.229,-78.0468"/>
</g>
<!-- Node13 -->
<g id="node14" class="node">
<title>Node13</title>
<polygon fill="#ffffff" stroke="#bfbfbf" points="431.8034,-60.5 431.8034,-78.5 509.5124,-78.5 509.5124,-60.5 431.8034,-60.5"/>
<text text-anchor="middle" x="470.6579" y="-66.5" font-family="Helvetica,sans-Serif" font-size="10.00" fill="#000000">openssl/evp.h</text>
</g>
<!-- Node10&#45;&gt;Node13 -->
<g id="edge14" class="edge">
<title>Node10&#45;&gt;Node13</title>
<path fill="none" stroke="#191970" d="M750.7691,-121.4707C748.0259,-120.9634 745.3029,-120.4688 742.6579,-120 643.3724,-102.4018 616.9187,-106.6301 518.6579,-84 515.2461,-83.2142 511.7215,-82.3175 508.2039,-81.364"/>
<polygon fill="#191970" stroke="#191970" points="508.9846,-77.9472 498.4082,-78.5717 507.0656,-84.679 508.9846,-77.9472"/>
</g>
<!-- Node14 -->
<g id="node15" class="node">
<title>Node14</title>
<polygon fill="#ffffff" stroke="#bfbfbf" points="527.4997,-60.5 527.4997,-78.5 627.8161,-78.5 627.8161,-60.5 527.4997,-60.5"/>
<text text-anchor="middle" x="577.6579" y="-66.5" font-family="Helvetica,sans-Serif" font-size="10.00" fill="#000000">openssl/opensslv.h</text>
</g>
<!-- Node10&#45;&gt;Node14 -->
<g id="edge15" class="edge">
<title>Node10&#45;&gt;Node14</title>
<path fill="none" stroke="#191970" d="M759.1559,-120.3873C721.7813,-109.9084 660.3328,-92.6799 619.4364,-81.2136"/>
<polygon fill="#191970" stroke="#191970" points="620.3382,-77.8315 609.7646,-78.5019 618.4484,-84.5716 620.3382,-77.8315"/>
</g>
<!-- Node15 -->
<g id="node16" class="node">
<title>Node15</title>
<polygon fill="#ffffff" stroke="#bfbfbf" points="646.1384,-60.5 646.1384,-78.5 727.1774,-78.5 727.1774,-60.5 646.1384,-60.5"/>
<text text-anchor="middle" x="686.6579" y="-66.5" font-family="Helvetica,sans-Serif" font-size="10.00" fill="#000000">openssl/pem.h</text>
</g>
<!-- Node10&#45;&gt;Node15 -->
<g id="edge16" class="edge">
<title>Node10&#45;&gt;Node15</title>
<path fill="none" stroke="#191970" d="M775.7107,-120.3873C758.5745,-110.5952 731.124,-94.9092 711.2258,-83.5388"/>
<polygon fill="#191970" stroke="#191970" points="712.8301,-80.4245 702.4112,-78.5019 709.3571,-86.5022 712.8301,-80.4245"/>
</g>
<!-- Node16 -->
<g id="node17" class="node">
<title>Node16</title>
<polygon fill="#ffffff" stroke="#bfbfbf" points="745.0226,-60.5 745.0226,-78.5 838.2932,-78.5 838.2932,-60.5 745.0226,-60.5"/>
<text text-anchor="middle" x="791.6579" y="-66.5" font-family="Helvetica,sans-Serif" font-size="10.00" fill="#000000">openssl/pkcs12.h</text>
</g>
<!-- Node10&#45;&gt;Node16 -->
<g id="edge17" class="edge">
<title>Node10&#45;&gt;Node16</title>
<path fill="none" stroke="#191970" d="M791.6579,-120.3873C791.6579,-112.0174 791.6579,-99.3414 791.6579,-88.735"/>
<polygon fill="#191970" stroke="#191970" points="795.158,-88.6984 791.6579,-78.6985 788.158,-88.6985 795.158,-88.6984"/>
</g>
<!-- Node17 -->
<g id="node18" class="node">
<title>Node17</title>
<polygon fill="#ffffff" stroke="#bfbfbf" points="855.8576,-60.5 855.8576,-78.5 937.4582,-78.5 937.4582,-60.5 855.8576,-60.5"/>
<text text-anchor="middle" x="896.6579" y="-66.5" font-family="Helvetica,sans-Serif" font-size="10.00" fill="#000000">openssl/rand.h</text>
</g>
<!-- Node10&#45;&gt;Node17 -->
<g id="edge18" class="edge">
<title>Node10&#45;&gt;Node17</title>
<path fill="none" stroke="#191970" d="M807.6051,-120.3873C824.7413,-110.5952 852.1918,-94.9092 872.09,-83.5388"/>
<polygon fill="#191970" stroke="#191970" points="873.9587,-86.5022 880.9046,-78.5019 870.4857,-80.4245 873.9587,-86.5022"/>
</g>
<!-- Node18 -->
<g id="node19" class="node">
<title>Node18</title>
<polygon fill="#ffffff" stroke="#bfbfbf" points="1048.9191,-60.5 1048.9191,-78.5 1124.3967,-78.5 1124.3967,-60.5 1048.9191,-60.5"/>
<text text-anchor="middle" x="1086.6579" y="-66.5" font-family="Helvetica,sans-Serif" font-size="10.00" fill="#000000">openssl/rsa.h</text>
</g>
<!-- Node10&#45;&gt;Node18 -->
<g id="edge19" class="edge">
<title>Node10&#45;&gt;Node18</title>
<path fill="none" stroke="#191970" d="M832.5823,-121.694C835.6529,-121.1176 838.7041,-120.5478 841.6579,-120 930.0311,-103.6113 953.4004,-105.5536 1040.6579,-84 1043.8283,-83.2169 1047.1003,-82.3358 1050.3693,-81.4049"/>
<polygon fill="#191970" stroke="#191970" points="1051.4827,-84.7252 1060.0633,-78.5103 1049.4799,-78.0179 1051.4827,-84.7252"/>
</g>
<!-- Node19 -->
<g id="node20" class="node">
<title>Node19</title>
<polygon fill="#ffffff" stroke="#bfbfbf" points="1142.3698,-60.5 1142.3698,-78.5 1198.946,-78.5 1198.946,-60.5 1142.3698,-60.5"/>
<text text-anchor="middle" x="1170.6579" y="-66.5" font-family="Helvetica,sans-Serif" font-size="10.00" fill="#000000">sodium.h</text>
</g>
<!-- Node10&#45;&gt;Node19 -->
<g id="edge20" class="edge">
<title>Node10&#45;&gt;Node19</title>
<path fill="none" stroke="#191970" d="M832.5502,-121.506C835.6282,-120.9731 838.6898,-120.4644 841.6579,-120 970.8463,-99.7854 1006.9008,-116.1077 1133.6579,-84 1135.9715,-83.414 1138.3355,-82.7215 1140.694,-81.9621"/>
<polygon fill="#191970" stroke="#191970" points="1141.9732,-85.2219 1150.2153,-78.5647 1139.6206,-78.6291 1141.9732,-85.2219"/>
</g>
<!-- Node20 -->
<g id="node21" class="node">
<title>Node20</title>
<polygon fill="#ffffff" stroke="#bfbfbf" points="1217.2912,-60.5 1217.2912,-78.5 1340.0246,-78.5 1340.0246,-60.5 1217.2912,-60.5"/>
<text text-anchor="middle" x="1278.6579" y="-66.5" font-family="Helvetica,sans-Serif" font-size="10.00" fill="#000000">boost/algorithm/hex.hpp</text>
</g>
<!-- Node10&#45;&gt;Node20 -->
<g id="edge21" class="edge">
<title>Node10&#45;&gt;Node20</title>
<path fill="none" stroke="#191970" d="M832.5378,-121.4235C835.6187,-120.9096 838.6843,-120.4278 841.6579,-120 1003.4434,-96.7216 1046.0355,-108.3855 1207.6579,-84 1214.3444,-82.9911 1221.353,-81.7667 1228.2538,-80.4617"/>
<polygon fill="#191970" stroke="#191970" points="1229.0953,-83.8635 1238.2368,-78.5078 1227.7507,-76.9938 1229.0953,-83.8635"/>
</g>
<!-- Node21 -->
<g id="node22" class="node">
<title>Node21</title>
<polygon fill="#ffffff" stroke="#bfbfbf" points="1358.1262,-60.5 1358.1262,-78.5 1489.1896,-78.5 1489.1896,-60.5 1358.1262,-60.5"/>
<text text-anchor="middle" x="1423.6579" y="-66.5" font-family="Helvetica,sans-Serif" font-size="10.00" fill="#000000">boost/algorithm/string.hpp</text>
</g>
<!-- Node10&#45;&gt;Node21 -->
<g id="edge22" class="edge">
<title>Node10&#45;&gt;Node21</title>
<path fill="none" stroke="#191970" d="M832.5253,-121.3323C835.6091,-120.8395 838.6788,-120.3874 841.6579,-120 1065.6721,-90.8669 1124.6908,-113.4932 1348.6579,-84 1356.1546,-83.0128 1364.0322,-81.7461 1371.7492,-80.3733"/>
<polygon fill="#191970" stroke="#191970" points="1372.5595,-83.7829 1381.756,-78.5222 1371.2861,-76.8997 1372.5595,-83.7829"/>
</g>
<!-- Node22 -->
<g id="node23" class="node">
<title>Node22</title>
<polygon fill="#ffffff" stroke="#bfbfbf" points="1506.8576,-55.5 1506.8576,-83.5 1618.4582,-83.5 1618.4582,-55.5 1506.8576,-55.5"/>
<text text-anchor="start" x="1514.8576" y="-71.5" font-family="Helvetica,sans-Serif" font-size="10.00" fill="#000000">boost/algorithm/string</text>
<text text-anchor="middle" x="1562.6579" y="-61.5" font-family="Helvetica,sans-Serif" font-size="10.00" fill="#000000">/case_conv.hpp</text>
</g>
<!-- Node10&#45;&gt;Node22 -->
<g id="edge23" class="edge">
<title>Node10&#45;&gt;Node22</title>
<path fill="none" stroke="#191970" d="M832.5185,-121.278C835.6038,-120.7978 838.6758,-120.3634 841.6579,-120 1128.6888,-85.0257 1207.2729,-123.5667 1496.6227,-84.1429"/>
<polygon fill="#191970" stroke="#191970" points="1497.1374,-87.6051 1506.5642,-82.7691 1496.1792,-80.671 1497.1374,-87.6051"/>
</g>
<!-- Node10&#45;&gt;Node23 -->
<g id="edge26" class="edge">
<title>Node10&#45;&gt;Node23</title>
<path fill="none" stroke="#191970" d="M832.5149,-121.2478C835.601,-120.7746 838.6742,-120.35 841.6579,-120 1188.9762,-79.2598 1282.6513,-141.0986 1627.6579,-84 1632.0913,-83.2663 1636.6886,-82.2706 1641.2189,-81.1425"/>
<polygon fill="#191970" stroke="#191970" points="1642.2016,-84.5025 1650.9398,-78.5113 1640.3727,-77.7456 1642.2016,-84.5025"/>
</g>
<!-- Node25 -->
<g id="node26" class="node">
<title>Node25</title>
<g id="a_node26"><a xlink:href="utils_8h_source.html" target="_top" xlink:title="utilities/utils.h">
<polygon fill="#ffffff" stroke="#000000" points="955.924,-60.5 955.924,-78.5 1031.3918,-78.5 1031.3918,-60.5 955.924,-60.5"/>
<text text-anchor="middle" x="993.6579" y="-66.5" font-family="Helvetica,sans-Serif" font-size="10.00" fill="#000000">utilities/utils.h</text>
</a>
</g>
</g>
<!-- Node10&#45;&gt;Node25 -->
<g id="edge29" class="edge">
<title>Node10&#45;&gt;Node25</title>
<path fill="none" stroke="#191970" d="M822.8679,-120.4747C854.1963,-111.383 903.8243,-96.8935 946.6579,-84 949.3792,-83.1808 952.1874,-82.3296 955.0137,-81.4685"/>
<polygon fill="#191970" stroke="#191970" points="956.0569,-84.8095 964.5937,-78.5348 954.0072,-78.1163 956.0569,-84.8095"/>
</g>
<!-- Node23&#45;&gt;Node2 -->
<g id="edge27" class="edge">
<title>Node23&#45;&gt;Node2</title>
<path fill="none" stroke="#191970" d="M1677.6579,-60.3873C1677.6579,-52.0174 1677.6579,-39.3414 1677.6579,-28.735"/>
<polygon fill="#191970" stroke="#191970" points="1681.158,-28.6984 1677.6579,-18.6985 1674.158,-28.6985 1681.158,-28.6984"/>
</g>
<!-- Node24 -->
<g id="node25" class="node">
<title>Node24</title>
<polygon fill="#ffffff" stroke="#bfbfbf" points="1313.0793,-.5 1313.0793,-18.5 1420.2365,-18.5 1420.2365,-.5 1313.0793,-.5"/>
<text text-anchor="middle" x="1366.6579" y="-6.5" font-family="Helvetica,sans-Serif" font-size="10.00" fill="#000000">boost/filesystem.hpp</text>
</g>
<!-- Node23&#45;&gt;Node24 -->
<g id="edge28" class="edge">
<title>Node23&#45;&gt;Node24</title>
<path fill="none" stroke="#191970" d="M1648.4518,-60.4478C1641.6631,-58.5062 1634.4381,-56.5691 1627.6579,-55 1560.8269,-39.5333 1483.2829,-26.6453 1430.1899,-18.5807"/>
<polygon fill="#191970" stroke="#191970" points="1430.6483,-15.1103 1420.2386,-17.0821 1429.6059,-22.0323 1430.6483,-15.1103"/>
</g>
<!-- Node25&#45;&gt;Node1 -->
<g id="edge33" class="edge">
<title>Node25&#45;&gt;Node1</title>
<path fill="none" stroke="#191970" d="M968.0778,-60.3826C961.2039,-58.2715 953.717,-56.2728 946.6579,-55 796.7307,-27.9673 313.6369,-13.6235 187.185,-10.2724"/>
<polygon fill="#191970" stroke="#191970" points="187.1425,-6.7701 177.0544,-10.0073 186.9594,-13.7677 187.1425,-6.7701"/>
</g>
<!-- Node25&#45;&gt;Node2 -->
<g id="edge35" class="edge">
<title>Node25&#45;&gt;Node2</title>
<path fill="none" stroke="#191970" d="M1018.6931,-60.4418C1025.4207,-58.3302 1032.7485,-56.3165 1039.6579,-55 1154.5284,-33.1133 1512.2131,-16.4429 1635.4361,-11.2197"/>
<polygon fill="#191970" stroke="#191970" points="1635.7569,-14.7094 1645.6011,-10.7923 1635.4628,-7.7155 1635.7569,-14.7094"/>
</g>
<!-- Node25&#45;&gt;Node24 -->
<g id="edge31" class="edge">
<title>Node25&#45;&gt;Node24</title>
<path fill="none" stroke="#191970" d="M1019.723,-60.4527C1026.1805,-58.4423 1033.1232,-56.4737 1039.6579,-55 1129.884,-34.6524 1236.2905,-21.8781 1302.6295,-15.2144"/>
<polygon fill="#191970" stroke="#191970" points="1303.3165,-18.6636 1312.9239,-14.1971 1302.6281,-11.6975 1303.3165,-18.6636"/>
</g>
<!-- Node26 -->
<g id="node27" class="node">
<title>Node26</title>
<polygon fill="#ffffff" stroke="#bfbfbf" points="972.0348,-.5 972.0348,-18.5 1015.2809,-18.5 1015.2809,-.5 972.0348,-.5"/>
<text text-anchor="middle" x="993.6579" y="-6.5" font-family="Helvetica,sans-Serif" font-size="10.00" fill="#000000">glob.h</text>
</g>
<!-- Node25&#45;&gt;Node26 -->
<g id="edge30" class="edge">
<title>Node25&#45;&gt;Node26</title>
<path fill="none" stroke="#191970" d="M993.6579,-60.3873C993.6579,-52.0174 993.6579,-39.3414 993.6579,-28.735"/>
<polygon fill="#191970" stroke="#191970" points="997.158,-28.6984 993.6579,-18.6985 990.158,-28.6985 997.158,-28.6984"/>
</g>
<!-- Node27 -->
<g id="node28" class="node">
<title>Node27</title>
<polygon fill="#ffffff" stroke="#bfbfbf" points="1033.6013,-.5 1033.6013,-18.5 1085.7145,-18.5 1085.7145,-.5 1033.6013,-.5"/>
<text text-anchor="middle" x="1059.6579" y="-6.5" font-family="Helvetica,sans-Serif" font-size="10.00" fill="#000000">memory</text>
</g>
<!-- Node25&#45;&gt;Node27 -->
<g id="edge32" class="edge">
<title>Node25&#45;&gt;Node27</title>
<path fill="none" stroke="#191970" d="M1003.6819,-60.3873C1013.8579,-51.1364 1029.8204,-36.625 1042.0999,-25.4618"/>
<polygon fill="#191970" stroke="#191970" points="1044.4945,-28.015 1049.5396,-18.6985 1039.7858,-22.8354 1044.4945,-28.015"/>
</g>
<!-- Node28 -->
<g id="node29" class="node">
<title>Node28</title>
<polygon fill="#ffffff" stroke="#bfbfbf" points="889.195,-.5 889.195,-18.5 954.1208,-18.5 954.1208,-.5 889.195,-.5"/>
<text text-anchor="middle" x="921.6579" y="-6.5" font-family="Helvetica,sans-Serif" font-size="10.00" fill="#000000">netinet/in.h</text>
</g>
<!-- Node25&#45;&gt;Node28 -->
<g id="edge34" class="edge">
<title>Node25&#45;&gt;Node28</title>
<path fill="none" stroke="#191970" d="M982.7226,-60.3873C971.5158,-51.0483 953.8756,-36.3481 940.4305,-25.1438"/>
<polygon fill="#191970" stroke="#191970" points="942.619,-22.4116 932.6961,-18.6985 938.1376,-27.7891 942.619,-22.4116"/>
</g>
<!-- Node30 -->
<g id="node31" class="node">
<title>Node30</title>
<polygon fill="#ffffff" stroke="#bfbfbf" points="1774.3527,-120.5 1774.3527,-138.5 1870.9631,-138.5 1870.9631,-120.5 1774.3527,-120.5"/>
<text text-anchor="middle" x="1822.6579" y="-126.5" font-family="Helvetica,sans-Serif" font-size="10.00" fill="#000000">condition_variable</text>
</g>
<!-- Node29&#45;&gt;Node30 -->
<g id="edge37" class="edge">
<title>Node29&#45;&gt;Node30</title>
<path fill="none" stroke="#191970" d="M1896.1265,-175.4179C1882.4965,-166.8992 1861.8844,-154.0166 1845.9583,-144.0627"/>
<polygon fill="#191970" stroke="#191970" points="1847.5459,-140.9277 1837.2109,-138.5956 1843.8359,-146.8637 1847.5459,-140.9277"/>
</g>
<!-- Node31 -->
<g id="node32" class="node">
<title>Node31</title>
<polygon fill="#ffffff" stroke="#bfbfbf" points="1889.0422,-120.5 1889.0422,-138.5 1932.2736,-138.5 1932.2736,-120.5 1889.0422,-120.5"/>
<text text-anchor="middle" x="1910.6579" y="-126.5" font-family="Helvetica,sans-Serif" font-size="10.00" fill="#000000">mutex</text>
</g>
<!-- Node29&#45;&gt;Node31 -->
<g id="edge38" class="edge">
<title>Node29&#45;&gt;Node31</title>
<path fill="none" stroke="#191970" d="M1910.6579,-175.4179C1910.6579,-168.2164 1910.6579,-157.8962 1910.6579,-148.8632"/>
<polygon fill="#191970" stroke="#191970" points="1914.158,-148.7794 1910.6579,-138.7795 1907.158,-148.7795 1914.158,-148.7794"/>
</g>
<!-- Node32 -->
<g id="node33" class="node">
<title>Node32</title>
<polygon fill="#ffffff" stroke="#bfbfbf" points="1950.7541,-120.5 1950.7541,-138.5 1994.5617,-138.5 1994.5617,-120.5 1950.7541,-120.5"/>
<text text-anchor="middle" x="1972.6579" y="-126.5" font-family="Helvetica,sans-Serif" font-size="10.00" fill="#000000">queue</text>
</g>
<!-- Node29&#45;&gt;Node32 -->
<g id="edge39" class="edge">
<title>Node29&#45;&gt;Node32</title>
<path fill="none" stroke="#191970" d="M1920.8959,-175.4179C1929.9953,-167.3458 1943.5116,-155.3556 1954.4505,-145.6517"/>
<polygon fill="#191970" stroke="#191970" points="1957.0393,-148.0339 1962.1974,-138.7795 1952.394,-142.7974 1957.0393,-148.0339"/>
</g>
<!-- Node33 -->
<g id="node34" class="node">
<title>Node33</title>
<polygon fill="#ffffff" stroke="#bfbfbf" points="2012.4807,-120.5 2012.4807,-138.5 2056.8351,-138.5 2056.8351,-120.5 2012.4807,-120.5"/>
<text text-anchor="middle" x="2034.6579" y="-126.5" font-family="Helvetica,sans-Serif" font-size="10.00" fill="#000000">thread</text>
</g>
<!-- Node29&#45;&gt;Node33 -->
<g id="edge40" class="edge">
<title>Node29&#45;&gt;Node33</title>
<path fill="none" stroke="#191970" d="M1931.134,-175.4179C1951.2373,-166.5011 1982.1201,-152.803 2004.9266,-142.6873"/>
<polygon fill="#191970" stroke="#191970" points="2006.4293,-145.8496 2014.1514,-138.5956 2003.5911,-139.4508 2006.4293,-145.8496"/>
</g>
</g>
</svg>
        <g id="navigator" transform="translate(0 0)" fill="#404254">
                <rect fill="#f2f5e9" fill-opacity="0.5" stroke="#606060" stroke-width=".5" x="0" y="0" width="60" height="60"/>
                <use id="zoomplus" xlink:href="#zoomPlus" x="17" y="9" onmousedown="handleZoom(evt,'in')"/>
                <use id="zoomminus" xlink:href="#zoomMin" x="42" y="9" onmousedown="handleZoom(evt,'out')"/>
                <use id="reset" xlink:href="#resetDef" x="30" y="36" onmousedown="handleReset()"/>
                <g id="arrowUp" xlink:href="#dirArrow" transform="translate(30 24)" onmousedown="handlePan(0,-1)">
                  <use xlink:href="#rim" fill="#404040">
                        <set attributeName="fill" to="#808080" begin="arrowUp.mouseover" end="arrowUp.mouseout"/>
                  </use>
                  <path fill="none" stroke="white" stroke-width="1.5" d="M0,-3.0v7 M-2.5,-0.5L0,-3.0L2.5,-0.5"/>
                </g>
                <g id="arrowRight" xlink:href="#dirArrow" transform="rotate(90) translate(36 -43)" onmousedown="handlePan(1,0)">
                  <use xlink:href="#rim" fill="#404040">
                        <set attributeName="fill" to="#808080" begin="arrowRight.mouseover" end="arrowRight.mouseout"/>
                  </use>
                  <path fill="none" stroke="white" stroke-width="1.5" d="M0,-3.0v7 M-2.5,-0.5L0,-3.0L2.5,-0.5"/>
                </g>
                <g id="arrowDown" xlink:href="#dirArrow" transform="rotate(180) translate(-30 -48)" onmousedown="handlePan(0,1)">
                  <use xlink:href="#rim" fill="#404040">
                        <set attributeName="fill" to="#808080" begin="arrowDown.mouseover" end="arrowDown.mouseout"/>
                  </use>
                  <path fill="none" stroke="white" stroke-width="1.5" d="M0,-3.0v7 M-2.5,-0.5L0,-3.0L2.5,-0.5"/>
                </g>
                <g id="arrowLeft" xlink:href="#dirArrow" transform="rotate(270) translate(-36 17)" onmousedown="handlePan(-1,0)">
                  <use xlink:href="#rim" fill="#404040">
                        <set attributeName="fill" to="#808080" begin="arrowLeft.mouseover" end="arrowLeft.mouseout"/>
                  </use>
                  <path fill="none" stroke="white" stroke-width="1.5" d="M0,-3.0v7 M-2.5,-0.5L0,-3.0L2.5,-0.5"/>
                </g>
        </g>
        <svg viewBox="0 0 15 15" width="100%" height="30px" preserveAspectRatio="xMaxYMin meet">
         <g id="arrow_out" transform="scale(0.3 0.3)">
          <a xlink:href="commands_8h__incl_org.svg" target="_base">
           <rect id="button" ry="5" rx="5" y="6" x="6" height="38" width="38"
                fill="#f2f5e9" fill-opacity="0.5" stroke="#606060" stroke-width="1.0"/>
           <path id="arrow"
             d="M 11.500037,31.436501 C 11.940474,20.09759 22.043105,11.32322 32.158766,21.979434 L 37.068811,17.246167 C 37.068811,17.246167 37.088388,32 37.088388,32 L 22.160133,31.978069 C 22.160133,31.978069 26.997745,27.140456 26.997745,27.140456 C 18.528582,18.264221 13.291696,25.230495 11.500037,31.436501 z"
             style="fill:#404040;"/>
          </a>
         </g>
        </svg>
</svg>
