<?xml version="1.0" encoding="UTF-8" standalone="no"?>
<!DOCTYPE svg PUBLIC "-//W3C//DTD SVG 1.1//EN"
 "http://www.w3.org/Graphics/SVG/1.1/DTD/svg11.dtd">
<!-- Generated by graphviz version 2.40.1 (20161225.0304)
 -->
<!-- Title: src/libaktualizr/utilities/events.h Pages: 1 -->
<!--zoomable 267 -->
<svg id="main" version="1.1" xmlns="http://www.w3.org/2000/svg" xmlns:xlink="http://www.w3.org/1999/xlink" xml:space="preserve" onload="init(evt)">
<style type="text/css"><![CDATA[
.edge:hover path { stroke: red; }
.edge:hover polygon { stroke: red; fill: red; }
]]></style>
<script type="text/javascript"><![CDATA[
var edges = document.getElementsByTagName('g');
if (edges && edges.length) {
  for (var i=0;i<edges.length;i++) {
    if (edges[i].id.substr(0,4)=='edge') {
      edges[i].setAttribute('class','edge');
    }
  }
}
]]></script>
        <defs>
                <circle id="rim" cx="0" cy="0" r="7"/>
                <circle id="rim2" cx="0" cy="0" r="3.5"/>
                <g id="zoomPlus">
                        <use xlink:href="#rim" fill="#404040">
                                <set attributeName="fill" to="#808080" begin="zoomplus.mouseover" end="zoomplus.mouseout"/>
                        </use>
                        <path d="M-4,0h8M0,-4v8" fill="none" stroke="white" stroke-width="1.5" pointer-events="none"/>
                </g>
                <g id="zoomMin">
                        <use xlink:href="#rim" fill="#404040">
                                <set attributeName="fill" to="#808080" begin="zoomminus.mouseover" end="zoomminus.mouseout"/>
                        </use>
                        <path d="M-4,0h8" fill="none" stroke="white" stroke-width="1.5" pointer-events="none"/>
                </g>
                <g id="dirArrow">
                        <path fill="none" stroke="white" stroke-width="1.5" d="M0,-3.0v7 M-2.5,-0.5L0,-3.0L2.5,-0.5"/>
                </g>
               <g id="resetDef">
                       <use xlink:href="#rim2" fill="#404040">
                               <set attributeName="fill" to="#808080" begin="reset.mouseover" end="reset.mouseout"/>
                       </use>
               </g>
        </defs>

<script type="text/javascript">
var viewWidth = 2016;
var viewHeight = 267;
var sectionId = 'dynsection-0';
</script>
<script xlink:href="svgpan.js"/>
<svg id="graph" class="graph">
<g id="viewport">
<title>src/libaktualizr/utilities/events.h</title>
<polygon fill="#ffffff" stroke="transparent" points="-4,4 -4,-263 2011.6304,-263 2011.6304,4 -4,4"/>
<!-- Node0 -->
<g id="node1" class="node">
<title>Node0</title>
<polygon fill="#bfbfbf" stroke="#000000" points="76.3794,-230.5 76.3794,-258.5 189.0737,-258.5 189.0737,-230.5 76.3794,-230.5"/>
<text text-anchor="start" x="84.3794" y="-246.5" font-family="Helvetica,sans-Serif" font-size="10.00" fill="#000000">src/libaktualizr/utilities</text>
<text text-anchor="middle" x="132.7266" y="-236.5" font-family="Helvetica,sans-Serif" font-size="10.00" fill="#000000">/events.h</text>
</g>
<!-- Node1 -->
<g id="node2" class="node">
<title>Node1</title>
<polygon fill="#ffffff" stroke="#bfbfbf" points="0,-175.5 0,-193.5 35.4531,-193.5 35.4531,-175.5 0,-175.5"/>
<text text-anchor="middle" x="17.7266" y="-181.5" font-family="Helvetica,sans-Serif" font-size="10.00" fill="#000000">map</text>
</g>
<!-- Node0&#45;&gt;Node1 -->
<g id="edge1" class="edge">
<title>Node0&#45;&gt;Node1</title>
<path fill="none" stroke="#191970" d="M105.7642,-230.4327C87.2212,-220.7581 62.7094,-207.9693 44.2595,-198.3433"/>
<polygon fill="#191970" stroke="#191970" points="45.7126,-195.1537 35.2278,-193.6311 42.4746,-201.3598 45.7126,-195.1537"/>
</g>
<!-- Node2 -->
<g id="node3" class="node">
<title>Node2</title>
<polygon fill="#ffffff" stroke="#bfbfbf" points="100.8228,-.5 100.8228,-18.5 164.6304,-18.5 164.6304,-.5 100.8228,-.5"/>
<text text-anchor="middle" x="132.7266" y="-6.5" font-family="Helvetica,sans-Serif" font-size="10.00" fill="#000000">json/json.h</text>
</g>
<!-- Node0&#45;&gt;Node2 -->
<g id="edge2" class="edge">
<title>Node0&#45;&gt;Node2</title>
<path fill="none" stroke="#191970" d="M122.6457,-230.1984C101.2065,-197.8916 55.212,-117.24 82.7266,-55 88.1394,-42.7558 98.6548,-32.3899 108.6513,-24.6592"/>
<polygon fill="#191970" stroke="#191970" points="110.7243,-27.4796 116.8028,-18.8019 106.6395,-21.7949 110.7243,-27.4796"/>
</g>
<!-- Node3 -->
<g id="node4" class="node">
<title>Node3</title>
<g id="a_node4"><a xlink:href="tuf_8h_source.html" target="_top" xlink:title="uptane/tuf.h">
<polygon fill="#ffffff" stroke="#000000" points="994.3154,-175.5 994.3154,-193.5 1063.1377,-193.5 1063.1377,-175.5 994.3154,-175.5"/>
<text text-anchor="middle" x="1028.7266" y="-181.5" font-family="Helvetica,sans-Serif" font-size="10.00" fill="#000000">uptane/tuf.h</text>
</a>
</g>
</g>
<!-- Node0&#45;&gt;Node3 -->
<g id="edge3" class="edge">
<title>Node0&#45;&gt;Node3</title>
<path fill="none" stroke="#191970" d="M189.1148,-240.724C354.2606,-229.6651 834.5936,-197.5 983.9026,-187.5016"/>
<polygon fill="#191970" stroke="#191970" points="984.3282,-190.981 994.0719,-186.8206 983.8604,-183.9967 984.3282,-190.981"/>
</g>
<!-- Node24 -->
<g id="node25" class="node">
<title>Node24</title>
<g id="a_node25"><a xlink:href="types_8h.html" target="_top" xlink:title="utilities/types.h">
<polygon fill="#ffffff" stroke="#000000" points="91.9336,-60.5 91.9336,-78.5 173.5195,-78.5 173.5195,-60.5 91.9336,-60.5"/>
<text text-anchor="middle" x="132.7266" y="-66.5" font-family="Helvetica,sans-Serif" font-size="10.00" fill="#000000">utilities/types.h</text>
</a>
</g>
</g>
<!-- Node0&#45;&gt;Node24 -->
<g id="edge41" class="edge">
<title>Node0&#45;&gt;Node24</title>
<path fill="none" stroke="#191970" d="M132.7266,-230.4748C132.7266,-199.2974 132.7266,-124.1983 132.7266,-88.7021"/>
<polygon fill="#191970" stroke="#191970" points="136.2267,-88.6748 132.7266,-78.6748 129.2267,-88.6748 136.2267,-88.6748"/>
</g>
<!-- Node30 -->
<g id="node31" class="node">
<title>Node30</title>
<g id="a_node31"><a xlink:href="channel_8h_source.html" target="_top" xlink:title="utilities/channel.h">
<polygon fill="#ffffff" stroke="#000000" points="1789.3696,-175.5 1789.3696,-193.5 1882.0835,-193.5 1882.0835,-175.5 1789.3696,-175.5"/>
<text text-anchor="middle" x="1835.7266" y="-181.5" font-family="Helvetica,sans-Serif" font-size="10.00" fill="#000000">utilities/channel.h</text>
</a>
</g>
</g>
<!-- Node0&#45;&gt;Node30 -->
<g id="edge36" class="edge">
<title>Node0&#45;&gt;Node30</title>
<path fill="none" stroke="#191970" d="M189.3884,-242.5037C448.54,-233.3733 1519.3948,-195.645 1778.8968,-186.5022"/>
<polygon fill="#191970" stroke="#191970" points="1779.3454,-189.9887 1789.2159,-186.1387 1779.0989,-182.993 1779.3454,-189.9887"/>
</g>
<!-- Node4 -->
<g id="node5" class="node">
<title>Node4</title>
<polygon fill="#ffffff" stroke="#bfbfbf" points="963.3228,-120.5 963.3228,-138.5 1022.1304,-138.5 1022.1304,-120.5 963.3228,-120.5"/>
<text text-anchor="middle" x="992.7266" y="-126.5" font-family="Helvetica,sans-Serif" font-size="10.00" fill="#000000">functional</text>
</g>
<!-- Node3&#45;&gt;Node4 -->
<g id="edge4" class="edge">
<title>Node3&#45;&gt;Node4</title>
<path fill="none" stroke="#191970" d="M1022.7819,-175.4179C1017.8092,-167.8207 1010.5647,-156.7527 1004.4342,-147.3866"/>
<polygon fill="#191970" stroke="#191970" points="1007.2055,-145.2297 998.8004,-138.7795 1001.3486,-149.0633 1007.2055,-145.2297"/>
</g>
<!-- Node5 -->
<g id="node6" class="node">
<title>Node5</title>
<polygon fill="#ffffff" stroke="#bfbfbf" points="1039.665,-120.5 1039.665,-138.5 1091.7881,-138.5 1091.7881,-120.5 1039.665,-120.5"/>
<text text-anchor="middle" x="1065.7266" y="-126.5" font-family="Helvetica,sans-Serif" font-size="10.00" fill="#000000">ostream</text>
</g>
<!-- Node3&#45;&gt;Node5 -->
<g id="edge5" class="edge">
<title>Node3&#45;&gt;Node5</title>
<path fill="none" stroke="#191970" d="M1034.8364,-175.4179C1040.0004,-167.7415 1047.5483,-156.5217 1053.8903,-147.0945"/>
<polygon fill="#191970" stroke="#191970" points="1056.8062,-149.0303 1059.484,-138.7795 1050.9982,-145.1231 1056.8062,-149.0303"/>
</g>
<!-- Node6 -->
<g id="node7" class="node">
<title>Node6</title>
<polygon fill="#ffffff" stroke="#bfbfbf" points="1110.0566,-120.5 1110.0566,-138.5 1139.3965,-138.5 1139.3965,-120.5 1110.0566,-120.5"/>
<text text-anchor="middle" x="1124.7266" y="-126.5" font-family="Helvetica,sans-Serif" font-size="10.00" fill="#000000">set</text>
</g>
<!-- Node3&#45;&gt;Node6 -->
<g id="edge6" class="edge">
<title>Node3&#45;&gt;Node6</title>
<path fill="none" stroke="#191970" d="M1044.579,-175.4179C1059.8566,-166.6651 1083.1755,-153.3053 1100.7283,-143.249"/>
<polygon fill="#191970" stroke="#191970" points="1102.862,-146.0603 1109.799,-138.0522 1099.3822,-139.9865 1102.862,-146.0603"/>
</g>
<!-- Node7 -->
<g id="node8" class="node">
<title>Node7</title>
<g id="a_node8"><a xlink:href="uptane_2exceptions_8h_source.html" target="_top" xlink:title="uptane/exceptions.h">
<polygon fill="#ffffff" stroke="#000000" points="1601.9707,-120.5 1601.9707,-138.5 1707.4824,-138.5 1707.4824,-120.5 1601.9707,-120.5"/>
<text text-anchor="middle" x="1654.7266" y="-126.5" font-family="Helvetica,sans-Serif" font-size="10.00" fill="#000000">uptane/exceptions.h</text>
</a>
</g>
</g>
<!-- Node3&#45;&gt;Node7 -->
<g id="edge7" class="edge">
<title>Node3&#45;&gt;Node7</title>
<path fill="none" stroke="#191970" d="M1063.2747,-181.4646C1164.3457,-172.5846 1460.5517,-146.5601 1591.3731,-135.0662"/>
<polygon fill="#191970" stroke="#191970" points="1591.9753,-138.5269 1601.6305,-134.165 1591.3625,-131.5537 1591.9753,-138.5269"/>
</g>
<!-- Node11 -->
<g id="node12" class="node">
<title>Node11</title>
<g id="a_node12"><a xlink:href="crypto_8h_source.html" target="_top" xlink:title="crypto/crypto.h">
<polygon fill="#ffffff" stroke="#000000" points="863.936,-120.5 863.936,-138.5 945.5171,-138.5 945.5171,-120.5 863.936,-120.5"/>
<text text-anchor="middle" x="904.7266" y="-126.5" font-family="Helvetica,sans-Serif" font-size="10.00" fill="#000000">crypto/crypto.h</text>
</a>
</g>
</g>
<!-- Node3&#45;&gt;Node11 -->
<g id="edge11" class="edge">
<title>Node3&#45;&gt;Node11</title>
<path fill="none" stroke="#191970" d="M1008.2505,-175.4179C988.1472,-166.5011 957.2643,-152.803 934.4578,-142.6873"/>
<polygon fill="#191970" stroke="#191970" points="935.7933,-139.4508 925.2331,-138.5956 932.9551,-145.8496 935.7933,-139.4508"/>
</g>
<!-- Node8 -->
<g id="node9" class="node">
<title>Node8</title>
<polygon fill="#ffffff" stroke="#bfbfbf" points="1729.3252,-60.5 1729.3252,-78.5 1788.1279,-78.5 1788.1279,-60.5 1729.3252,-60.5"/>
<text text-anchor="middle" x="1758.7266" y="-66.5" font-family="Helvetica,sans-Serif" font-size="10.00" fill="#000000">stdexcept</text>
</g>
<!-- Node7&#45;&gt;Node8 -->
<g id="edge8" class="edge">
<title>Node7&#45;&gt;Node8</title>
<path fill="none" stroke="#191970" d="M1670.5219,-120.3873C1687.4949,-110.5952 1714.684,-94.9092 1734.3926,-83.5388"/>
<polygon fill="#191970" stroke="#191970" points="1736.2105,-86.5308 1743.1233,-78.5019 1732.7124,-80.4675 1736.2105,-86.5308"/>
</g>
<!-- Node9 -->
<g id="node10" class="node">
<title>Node9</title>
<polygon fill="#ffffff" stroke="#bfbfbf" points="1620.5,-.5 1620.5,-18.5 1660.9531,-18.5 1660.9531,-.5 1620.5,-.5"/>
<text text-anchor="middle" x="1640.7266" y="-6.5" font-family="Helvetica,sans-Serif" font-size="10.00" fill="#000000">string</text>
</g>
<!-- Node7&#45;&gt;Node9 -->
<g id="edge9" class="edge">
<title>Node7&#45;&gt;Node9</title>
<path fill="none" stroke="#191970" d="M1662.6882,-120.2948C1673.8685,-106.195 1691.8838,-78.4211 1682.7266,-55 1678.2768,-43.619 1669.4978,-33.3741 1661.1116,-25.5003"/>
<polygon fill="#191970" stroke="#191970" points="1663.1799,-22.6598 1653.3456,-18.718 1658.5753,-27.9322 1663.1799,-22.6598"/>
</g>
<!-- Node10 -->
<g id="node11" class="node">
<title>Node10</title>
<polygon fill="#ffffff" stroke="#bfbfbf" points="1635.335,-60.5 1635.335,-78.5 1674.1182,-78.5 1674.1182,-60.5 1635.335,-60.5"/>
<text text-anchor="middle" x="1654.7266" y="-66.5" font-family="Helvetica,sans-Serif" font-size="10.00" fill="#000000">utility</text>
</g>
<!-- Node7&#45;&gt;Node10 -->
<g id="edge10" class="edge">
<title>Node7&#45;&gt;Node10</title>
<path fill="none" stroke="#191970" d="M1654.7266,-120.3873C1654.7266,-112.0174 1654.7266,-99.3414 1654.7266,-88.735"/>
<polygon fill="#191970" stroke="#191970" points="1658.2267,-88.6984 1654.7266,-78.6985 1651.2267,-88.6985 1658.2267,-88.6984"/>
</g>
<!-- Node11&#45;&gt;Node9 -->
<g id="edge24" class="edge">
<title>Node11&#45;&gt;Node9</title>
<path fill="none" stroke="#191970" d="M945.588,-121.2846C948.6731,-120.8029 951.7448,-120.3663 954.7266,-120 1024.758,-111.3963 1527.1156,-118.3876 1588.7266,-84 1610.7171,-71.7262 1625.5045,-45.7829 1633.5197,-27.9955"/>
<polygon fill="#191970" stroke="#191970" points="1636.808,-29.2048 1637.4597,-18.63 1630.3557,-26.4904 1636.808,-29.2048"/>
</g>
<!-- Node11&#45;&gt;Node10 -->
<g id="edge25" class="edge">
<title>Node11&#45;&gt;Node10</title>
<path fill="none" stroke="#191970" d="M945.5868,-121.2752C948.6722,-120.7957 951.7443,-120.3621 954.7266,-120 1249.4375,-84.2124 1332.9387,-152.8251 1621.7266,-84 1623.6897,-83.5321 1625.682,-82.952 1627.6648,-82.2954"/>
<polygon fill="#191970" stroke="#191970" points="1629.2711,-85.4262 1637.3227,-78.5397 1626.734,-78.9021 1629.2711,-85.4262"/>
</g>
<!-- Node12 -->
<g id="node13" class="node">
<title>Node12</title>
<polygon fill="#ffffff" stroke="#bfbfbf" points="191.9189,-60.5 191.9189,-78.5 283.5342,-78.5 283.5342,-60.5 191.9189,-60.5"/>
<text text-anchor="middle" x="237.7266" y="-66.5" font-family="Helvetica,sans-Serif" font-size="10.00" fill="#000000">openssl/engine.h</text>
</g>
<!-- Node11&#45;&gt;Node12 -->
<g id="edge12" class="edge">
<title>Node11&#45;&gt;Node12</title>
<path fill="none" stroke="#191970" d="M863.5879,-127.4595C744.7363,-121.4035 402.3288,-102.7819 291.7266,-84 287.0103,-83.1991 282.1087,-82.1692 277.2679,-81.0282"/>
<polygon fill="#191970" stroke="#191970" points="278.0477,-77.6154 267.4958,-78.5677 276.3385,-84.4035 278.0477,-77.6154"/>
</g>
<!-- Node13 -->
<g id="node14" class="node">
<title>Node13</title>
<polygon fill="#ffffff" stroke="#bfbfbf" points="301.0962,-60.5 301.0962,-78.5 374.3569,-78.5 374.3569,-60.5 301.0962,-60.5"/>
<text text-anchor="middle" x="337.7266" y="-66.5" font-family="Helvetica,sans-Serif" font-size="10.00" fill="#000000">openssl/err.h</text>
</g>
<!-- Node11&#45;&gt;Node13 -->
<g id="edge13" class="edge">
<title>Node11&#45;&gt;Node13</title>
<path fill="none" stroke="#191970" d="M863.6649,-127.1174C757.2938,-120.7538 474.6804,-102.576 382.7266,-84 379.3248,-83.3128 375.8192,-82.4571 372.3369,-81.5072"/>
<polygon fill="#191970" stroke="#191970" points="373.2725,-78.1341 362.6899,-78.6429 371.28,-84.8445 373.2725,-78.1341"/>
</g>
<!-- Node14 -->
<g id="node15" class="node">
<title>Node14</title>
<polygon fill="#ffffff" stroke="#bfbfbf" points="391.8721,-60.5 391.8721,-78.5 469.5811,-78.5 469.5811,-60.5 391.8721,-60.5"/>
<text text-anchor="middle" x="430.7266" y="-66.5" font-family="Helvetica,sans-Serif" font-size="10.00" fill="#000000">openssl/evp.h</text>
</g>
<!-- Node11&#45;&gt;Node14 -->
<g id="edge14" class="edge">
<title>Node11&#45;&gt;Node14</title>
<path fill="none" stroke="#191970" d="M863.8111,-127.6764C787.4503,-123.7119 618.3263,-112.2816 478.7266,-84 475.0098,-83.247 471.1681,-82.3304 467.3516,-81.3277"/>
<polygon fill="#191970" stroke="#191970" points="467.9854,-77.8701 457.4109,-78.5256 466.0862,-84.6075 467.9854,-77.8701"/>
</g>
<!-- Node15 -->
<g id="node16" class="node">
<title>Node15</title>
<polygon fill="#ffffff" stroke="#bfbfbf" points="487.5684,-60.5 487.5684,-78.5 587.8848,-78.5 587.8848,-60.5 487.5684,-60.5"/>
<text text-anchor="middle" x="537.7266" y="-66.5" font-family="Helvetica,sans-Serif" font-size="10.00" fill="#000000">openssl/opensslv.h</text>
</g>
<!-- Node11&#45;&gt;Node15 -->
<g id="edge15" class="edge">
<title>Node11&#45;&gt;Node15</title>
<path fill="none" stroke="#191970" d="M863.6632,-124.6852C804.4236,-117.4562 691.6688,-102.6363 596.7266,-84 591.9945,-83.0711 587.0709,-82.0116 582.1751,-80.8976"/>
<polygon fill="#191970" stroke="#191970" points="582.7708,-77.4423 572.235,-78.5592 581.1677,-84.2563 582.7708,-77.4423"/>
</g>
<!-- Node16 -->
<g id="node17" class="node">
<title>Node16</title>
<polygon fill="#ffffff" stroke="#bfbfbf" points="606.207,-60.5 606.207,-78.5 687.2461,-78.5 687.2461,-60.5 606.207,-60.5"/>
<text text-anchor="middle" x="646.7266" y="-66.5" font-family="Helvetica,sans-Serif" font-size="10.00" fill="#000000">openssl/pem.h</text>
</g>
<!-- Node11&#45;&gt;Node16 -->
<g id="edge16" class="edge">
<title>Node11&#45;&gt;Node16</title>
<path fill="none" stroke="#191970" d="M863.6689,-121.4885C821.373,-113.0188 753.6394,-98.8513 695.7266,-84 692.4033,-83.1478 688.9659,-82.2221 685.5247,-81.2647"/>
<polygon fill="#191970" stroke="#191970" points="686.4849,-77.8991 675.9081,-78.5169 684.5616,-84.6297 686.4849,-77.8991"/>
</g>
<!-- Node17 -->
<g id="node18" class="node">
<title>Node17</title>
<polygon fill="#ffffff" stroke="#bfbfbf" points="705.0913,-60.5 705.0913,-78.5 798.3618,-78.5 798.3618,-60.5 705.0913,-60.5"/>
<text text-anchor="middle" x="751.7266" y="-66.5" font-family="Helvetica,sans-Serif" font-size="10.00" fill="#000000">openssl/pkcs12.h</text>
</g>
<!-- Node11&#45;&gt;Node17 -->
<g id="edge17" class="edge">
<title>Node11&#45;&gt;Node17</title>
<path fill="none" stroke="#191970" d="M881.4892,-120.3873C855.5025,-110.1964 813.2372,-93.6218 784.0397,-82.1718"/>
<polygon fill="#191970" stroke="#191970" points="785.2689,-78.8944 774.6813,-78.5019 782.7133,-85.4112 785.2689,-78.8944"/>
</g>
<!-- Node18 -->
<g id="node19" class="node">
<title>Node18</title>
<polygon fill="#ffffff" stroke="#bfbfbf" points="815.9263,-60.5 815.9263,-78.5 897.5269,-78.5 897.5269,-60.5 815.9263,-60.5"/>
<text text-anchor="middle" x="856.7266" y="-66.5" font-family="Helvetica,sans-Serif" font-size="10.00" fill="#000000">openssl/rand.h</text>
</g>
<!-- Node11&#45;&gt;Node18 -->
<g id="edge18" class="edge">
<title>Node11&#45;&gt;Node18</title>
<path fill="none" stroke="#191970" d="M897.4364,-120.3873C890.3176,-111.4888 879.305,-97.723 870.5279,-86.7517"/>
<polygon fill="#191970" stroke="#191970" points="873.0654,-84.3207 864.0853,-78.6985 867.5993,-88.6936 873.0654,-84.3207"/>
</g>
<!-- Node19 -->
<g id="node20" class="node">
<title>Node19</title>
<polygon fill="#ffffff" stroke="#bfbfbf" points="915.9878,-60.5 915.9878,-78.5 991.4653,-78.5 991.4653,-60.5 915.9878,-60.5"/>
<text text-anchor="middle" x="953.7266" y="-66.5" font-family="Helvetica,sans-Serif" font-size="10.00" fill="#000000">openssl/rsa.h</text>
</g>
<!-- Node11&#45;&gt;Node19 -->
<g id="edge19" class="edge">
<title>Node11&#45;&gt;Node19</title>
<path fill="none" stroke="#191970" d="M912.1686,-120.3873C919.4357,-111.4888 930.6778,-97.723 939.6377,-86.7517"/>
<polygon fill="#191970" stroke="#191970" points="942.6,-88.6577 946.2145,-78.6985 937.1782,-84.2299 942.6,-88.6577"/>
</g>
<!-- Node20 -->
<g id="node21" class="node">
<title>Node20</title>
<polygon fill="#ffffff" stroke="#bfbfbf" points="1009.4385,-60.5 1009.4385,-78.5 1066.0146,-78.5 1066.0146,-60.5 1009.4385,-60.5"/>
<text text-anchor="middle" x="1037.7266" y="-66.5" font-family="Helvetica,sans-Serif" font-size="10.00" fill="#000000">sodium.h</text>
</g>
<!-- Node11&#45;&gt;Node20 -->
<g id="edge20" class="edge">
<title>Node11&#45;&gt;Node20</title>
<path fill="none" stroke="#191970" d="M924.9264,-120.3873C947.2215,-110.3294 983.3005,-94.0531 1008.6384,-82.6225"/>
<polygon fill="#191970" stroke="#191970" points="1010.0963,-85.8045 1017.7724,-78.5019 1007.2177,-79.4237 1010.0963,-85.8045"/>
</g>
<!-- Node21 -->
<g id="node22" class="node">
<title>Node21</title>
<polygon fill="#ffffff" stroke="#bfbfbf" points="1084.3599,-60.5 1084.3599,-78.5 1207.0933,-78.5 1207.0933,-60.5 1084.3599,-60.5"/>
<text text-anchor="middle" x="1145.7266" y="-66.5" font-family="Helvetica,sans-Serif" font-size="10.00" fill="#000000">boost/algorithm/hex.hpp</text>
</g>
<!-- Node11&#45;&gt;Node21 -->
<g id="edge21" class="edge">
<title>Node11&#45;&gt;Node21</title>
<path fill="none" stroke="#191970" d="M941.0676,-120.4524C983.4548,-109.8996 1053.5915,-92.4382 1099.735,-80.9502"/>
<polygon fill="#191970" stroke="#191970" points="1100.6262,-84.3352 1109.4844,-78.5229 1098.9351,-77.5426 1100.6262,-84.3352"/>
</g>
<!-- Node22 -->
<g id="node23" class="node">
<title>Node22</title>
<polygon fill="#ffffff" stroke="#bfbfbf" points="1225.1948,-60.5 1225.1948,-78.5 1356.2583,-78.5 1356.2583,-60.5 1225.1948,-60.5"/>
<text text-anchor="middle" x="1290.7266" y="-66.5" font-family="Helvetica,sans-Serif" font-size="10.00" fill="#000000">boost/algorithm/string.hpp</text>
</g>
<!-- Node11&#45;&gt;Node22 -->
<g id="edge22" class="edge">
<title>Node11&#45;&gt;Node22</title>
<path fill="none" stroke="#191970" d="M945.6266,-121.5541C948.7028,-121.0101 951.7619,-120.4858 954.7266,-120 1070.2838,-101.0651 1100.1999,-103.1206 1215.7266,-84 1222.3196,-82.9088 1229.2231,-81.6854 1236.0593,-80.424"/>
<polygon fill="#191970" stroke="#191970" points="1236.801,-83.846 1245.9829,-78.5599 1235.5086,-76.9663 1236.801,-83.846"/>
</g>
<!-- Node23 -->
<g id="node24" class="node">
<title>Node23</title>
<polygon fill="#ffffff" stroke="#bfbfbf" points="1373.9263,-55.5 1373.9263,-83.5 1485.5269,-83.5 1485.5269,-55.5 1373.9263,-55.5"/>
<text text-anchor="start" x="1381.9263" y="-71.5" font-family="Helvetica,sans-Serif" font-size="10.00" fill="#000000">boost/algorithm/string</text>
<text text-anchor="middle" x="1429.7266" y="-61.5" font-family="Helvetica,sans-Serif" font-size="10.00" fill="#000000">/case_conv.hpp</text>
</g>
<!-- Node11&#45;&gt;Node23 -->
<g id="edge23" class="edge">
<title>Node11&#45;&gt;Node23</title>
<path fill="none" stroke="#191970" d="M945.6014,-121.3876C948.6834,-120.8821 951.7508,-120.412 954.7266,-120 1133.0789,-95.309 1182.776,-111.7061 1363.5069,-84.2259"/>
<polygon fill="#191970" stroke="#191970" points="1364.2689,-87.6498 1373.6173,-82.664 1363.2001,-80.7319 1364.2689,-87.6498"/>
</g>
<!-- Node11&#45;&gt;Node24 -->
<g id="edge26" class="edge">
<title>Node11&#45;&gt;Node24</title>
<path fill="none" stroke="#191970" d="M863.4926,-128.0914C730.6948,-123.3681 315.1174,-107.0799 182.7266,-84 178.5195,-83.2666 174.1621,-82.3099 169.8532,-81.2374"/>
<polygon fill="#191970" stroke="#191970" points="170.547,-77.7996 159.9806,-78.5753 168.7245,-84.5582 170.547,-77.7996"/>
</g>
<!-- Node26 -->
<g id="node27" class="node">
<title>Node26</title>
<g id="a_node27"><a xlink:href="utils_8h_source.html" target="_top" xlink:title="utilities/utils.h">
<polygon fill="#ffffff" stroke="#000000" points="1503.9927,-60.5 1503.9927,-78.5 1579.4604,-78.5 1579.4604,-60.5 1503.9927,-60.5"/>
<text text-anchor="middle" x="1541.7266" y="-66.5" font-family="Helvetica,sans-Serif" font-size="10.00" fill="#000000">utilities/utils.h</text>
</a>
</g>
</g>
<!-- Node11&#45;&gt;Node26 -->
<g id="edge29" class="edge">
<title>Node11&#45;&gt;Node26</title>
<path fill="none" stroke="#191970" d="M945.5921,-121.3178C948.6763,-120.8284 951.7466,-120.381 954.7266,-120 1193.3171,-89.495 1258.2061,-127.7503 1494.7266,-84 1498.5838,-83.2865 1502.5702,-82.3622 1506.5151,-81.3256"/>
<polygon fill="#191970" stroke="#191970" points="1507.486,-84.6884 1516.1385,-78.5742 1505.5616,-77.9581 1507.486,-84.6884"/>
</g>
<!-- Node24&#45;&gt;Node2 -->
<g id="edge27" class="edge">
<title>Node24&#45;&gt;Node2</title>
<path fill="none" stroke="#191970" d="M132.7266,-60.3873C132.7266,-52.0174 132.7266,-39.3414 132.7266,-28.735"/>
<polygon fill="#191970" stroke="#191970" points="136.2267,-28.6984 132.7266,-18.6985 129.2267,-28.6985 136.2267,-28.6984"/>
</g>
<!-- Node25 -->
<g id="node26" class="node">
<title>Node25</title>
<polygon fill="#ffffff" stroke="#bfbfbf" points="748.1479,-.5 748.1479,-18.5 855.3052,-18.5 855.3052,-.5 748.1479,-.5"/>
<text text-anchor="middle" x="801.7266" y="-6.5" font-family="Helvetica,sans-Serif" font-size="10.00" fill="#000000">boost/filesystem.hpp</text>
</g>
<!-- Node24&#45;&gt;Node25 -->
<g id="edge28" class="edge">
<title>Node24&#45;&gt;Node25</title>
<path fill="none" stroke="#191970" d="M159.99,-60.4776C167.3022,-58.3657 175.2542,-56.3429 182.7266,-55 287.8988,-36.0991 601.6449,-19.1747 737.6582,-12.509"/>
<polygon fill="#191970" stroke="#191970" points="738.102,-15.9916 747.9198,-12.009 737.7613,-8.9999 738.102,-15.9916"/>
</g>
<!-- Node26&#45;&gt;Node2 -->
<g id="edge35" class="edge">
<title>Node26&#45;&gt;Node2</title>
<path fill="none" stroke="#191970" d="M1516.6565,-60.4181C1509.6495,-58.2511 1501.9689,-56.2158 1494.7266,-55 1362.0747,-32.7316 390.3182,-14.1214 174.9284,-10.2425"/>
<polygon fill="#191970" stroke="#191970" points="174.7354,-6.7385 164.6742,-10.0587 174.6098,-13.7374 174.7354,-6.7385"/>
</g>
<!-- Node26&#45;&gt;Node9 -->
<g id="edge33" class="edge">
<title>Node26&#45;&gt;Node9</title>
<path fill="none" stroke="#191970" d="M1556.7625,-60.3873C1572.8464,-50.6395 1598.5674,-35.051 1617.3074,-23.6934"/>
<polygon fill="#191970" stroke="#191970" points="1619.1356,-26.6781 1625.8735,-18.5019 1615.5074,-20.6917 1619.1356,-26.6781"/>
</g>
<!-- Node26&#45;&gt;Node25 -->
<g id="edge31" class="edge">
<title>Node26&#45;&gt;Node25</title>
<path fill="none" stroke="#191970" d="M1516.1394,-60.421C1509.2656,-58.3096 1501.7805,-56.3011 1494.7266,-55 1375.0987,-32.9341 1013.5094,-17.3853 865.7146,-11.7889"/>
<polygon fill="#191970" stroke="#191970" points="865.5735,-8.2812 855.4491,-11.4032 865.3106,-15.2763 865.5735,-8.2812"/>
</g>
<!-- Node27 -->
<g id="node28" class="node">
<title>Node27</title>
<polygon fill="#ffffff" stroke="#bfbfbf" points="1559.1035,-.5 1559.1035,-18.5 1602.3496,-18.5 1602.3496,-.5 1559.1035,-.5"/>
<text text-anchor="middle" x="1580.7266" y="-6.5" font-family="Helvetica,sans-Serif" font-size="10.00" fill="#000000">glob.h</text>
</g>
<!-- Node26&#45;&gt;Node27 -->
<g id="edge30" class="edge">
<title>Node26&#45;&gt;Node27</title>
<path fill="none" stroke="#191970" d="M1547.6498,-60.3873C1553.3193,-51.665 1562.0285,-38.2663 1569.0872,-27.4067"/>
<polygon fill="#191970" stroke="#191970" points="1572.2322,-28.9904 1574.7476,-18.6985 1566.3631,-25.1754 1572.2322,-28.9904"/>
</g>
<!-- Node28 -->
<g id="node29" class="node">
<title>Node28</title>
<polygon fill="#ffffff" stroke="#bfbfbf" points="1405.6699,-.5 1405.6699,-18.5 1457.7832,-18.5 1457.7832,-.5 1405.6699,-.5"/>
<text text-anchor="middle" x="1431.7266" y="-6.5" font-family="Helvetica,sans-Serif" font-size="10.00" fill="#000000">memory</text>
</g>
<!-- Node26&#45;&gt;Node28 -->
<g id="edge32" class="edge">
<title>Node26&#45;&gt;Node28</title>
<path fill="none" stroke="#191970" d="M1525.0199,-60.3873C1506.9866,-50.5509 1478.0496,-34.7671 1457.1819,-23.3847"/>
<polygon fill="#191970" stroke="#191970" points="1458.685,-20.2178 1448.23,-18.5019 1455.333,-26.3631 1458.685,-20.2178"/>
</g>
<!-- Node29 -->
<g id="node30" class="node">
<title>Node29</title>
<polygon fill="#ffffff" stroke="#bfbfbf" points="1476.2637,-.5 1476.2637,-18.5 1541.1895,-18.5 1541.1895,-.5 1476.2637,-.5"/>
<text text-anchor="middle" x="1508.7266" y="-6.5" font-family="Helvetica,sans-Serif" font-size="10.00" fill="#000000">netinet/in.h</text>
</g>
<!-- Node26&#45;&gt;Node29 -->
<g id="edge34" class="edge">
<title>Node26&#45;&gt;Node29</title>
<path fill="none" stroke="#191970" d="M1536.7146,-60.3873C1531.9658,-51.7531 1524.6966,-38.5365 1518.7567,-27.7366"/>
<polygon fill="#191970" stroke="#191970" points="1521.6717,-25.7739 1513.7857,-18.6985 1515.5382,-29.1474 1521.6717,-25.7739"/>
</g>
<!-- Node31 -->
<g id="node32" class="node">
<title>Node31</title>
<polygon fill="#ffffff" stroke="#bfbfbf" points="1787.4214,-120.5 1787.4214,-138.5 1884.0317,-138.5 1884.0317,-120.5 1787.4214,-120.5"/>
<text text-anchor="middle" x="1835.7266" y="-126.5" font-family="Helvetica,sans-Serif" font-size="10.00" fill="#000000">condition_variable</text>
</g>
<!-- Node30&#45;&gt;Node31 -->
<g id="edge37" class="edge">
<title>Node30&#45;&gt;Node31</title>
<path fill="none" stroke="#191970" d="M1835.7266,-175.4179C1835.7266,-168.2164 1835.7266,-157.8962 1835.7266,-148.8632"/>
<polygon fill="#191970" stroke="#191970" points="1839.2267,-148.7794 1835.7266,-138.7795 1832.2267,-148.7795 1839.2267,-148.7794"/>
</g>
<!-- Node32 -->
<g id="node33" class="node">
<title>Node32</title>
<polygon fill="#ffffff" stroke="#bfbfbf" points="1902.1108,-120.5 1902.1108,-138.5 1945.3423,-138.5 1945.3423,-120.5 1902.1108,-120.5"/>
<text text-anchor="middle" x="1923.7266" y="-126.5" font-family="Helvetica,sans-Serif" font-size="10.00" fill="#000000">mutex</text>
</g>
<!-- Node30&#45;&gt;Node32 -->
<g id="edge38" class="edge">
<title>Node30&#45;&gt;Node32</title>
<path fill="none" stroke="#191970" d="M1850.258,-175.4179C1863.8879,-166.8992 1884.5001,-154.0166 1900.4262,-144.0627"/>
<polygon fill="#191970" stroke="#191970" points="1902.5486,-146.8637 1909.1736,-138.5956 1898.8386,-140.9277 1902.5486,-146.8637"/>
</g>
<!-- Node33 -->
<g id="node34" class="node">
<title>Node33</title>
<polygon fill="#ffffff" stroke="#bfbfbf" points="1963.8228,-120.5 1963.8228,-138.5 2007.6304,-138.5 2007.6304,-120.5 1963.8228,-120.5"/>
<text text-anchor="middle" x="1985.7266" y="-126.5" font-family="Helvetica,sans-Serif" font-size="10.00" fill="#000000">queue</text>
</g>
<!-- Node30&#45;&gt;Node33 -->
<g id="edge39" class="edge">
<title>Node30&#45;&gt;Node33</title>
<path fill="none" stroke="#191970" d="M1860.496,-175.4179C1885.9899,-166.0701 1925.8144,-151.4678 1953.6905,-141.2466"/>
<polygon fill="#191970" stroke="#191970" points="1955.1875,-144.4256 1963.3713,-137.6969 1952.7776,-137.8535 1955.1875,-144.4256"/>
</g>
<!-- Node34 -->
<g id="node35" class="node">
<title>Node34</title>
<polygon fill="#ffffff" stroke="#bfbfbf" points="1725.5493,-120.5 1725.5493,-138.5 1769.9038,-138.5 1769.9038,-120.5 1725.5493,-120.5"/>
<text text-anchor="middle" x="1747.7266" y="-126.5" font-family="Helvetica,sans-Serif" font-size="10.00" fill="#000000">thread</text>
</g>
<!-- Node30&#45;&gt;Node34 -->
<g id="edge40" class="edge">
<title>Node30&#45;&gt;Node34</title>
<path fill="none" stroke="#191970" d="M1821.1952,-175.4179C1807.5652,-166.8992 1786.9531,-154.0166 1771.0269,-144.0627"/>
<polygon fill="#191970" stroke="#191970" points="1772.6146,-140.9277 1762.2796,-138.5956 1768.9045,-146.8637 1772.6146,-140.9277"/>
</g>
</g>
</svg>
        <g id="navigator" transform="translate(0 0)" fill="#404254">
                <rect fill="#f2f5e9" fill-opacity="0.5" stroke="#606060" stroke-width=".5" x="0" y="0" width="60" height="60"/>
                <use id="zoomplus" xlink:href="#zoomPlus" x="17" y="9" onmousedown="handleZoom(evt,'in')"/>
                <use id="zoomminus" xlink:href="#zoomMin" x="42" y="9" onmousedown="handleZoom(evt,'out')"/>
                <use id="reset" xlink:href="#resetDef" x="30" y="36" onmousedown="handleReset()"/>
                <g id="arrowUp" xlink:href="#dirArrow" transform="translate(30 24)" onmousedown="handlePan(0,-1)">
                  <use xlink:href="#rim" fill="#404040">
                        <set attributeName="fill" to="#808080" begin="arrowUp.mouseover" end="arrowUp.mouseout"/>
                  </use>
                  <path fill="none" stroke="white" stroke-width="1.5" d="M0,-3.0v7 M-2.5,-0.5L0,-3.0L2.5,-0.5"/>
                </g>
                <g id="arrowRight" xlink:href="#dirArrow" transform="rotate(90) translate(36 -43)" onmousedown="handlePan(1,0)">
                  <use xlink:href="#rim" fill="#404040">
                        <set attributeName="fill" to="#808080" begin="arrowRight.mouseover" end="arrowRight.mouseout"/>
                  </use>
                  <path fill="none" stroke="white" stroke-width="1.5" d="M0,-3.0v7 M-2.5,-0.5L0,-3.0L2.5,-0.5"/>
                </g>
                <g id="arrowDown" xlink:href="#dirArrow" transform="rotate(180) translate(-30 -48)" onmousedown="handlePan(0,1)">
                  <use xlink:href="#rim" fill="#404040">
                        <set attributeName="fill" to="#808080" begin="arrowDown.mouseover" end="arrowDown.mouseout"/>
                  </use>
                  <path fill="none" stroke="white" stroke-width="1.5" d="M0,-3.0v7 M-2.5,-0.5L0,-3.0L2.5,-0.5"/>
                </g>
                <g id="arrowLeft" xlink:href="#dirArrow" transform="rotate(270) translate(-36 17)" onmousedown="handlePan(-1,0)">
                  <use xlink:href="#rim" fill="#404040">
                        <set attributeName="fill" to="#808080" begin="arrowLeft.mouseover" end="arrowLeft.mouseout"/>
                  </use>
                  <path fill="none" stroke="white" stroke-width="1.5" d="M0,-3.0v7 M-2.5,-0.5L0,-3.0L2.5,-0.5"/>
                </g>
        </g>
        <svg viewBox="0 0 15 15" width="100%" height="30px" preserveAspectRatio="xMaxYMin meet">
         <g id="arrow_out" transform="scale(0.3 0.3)">
          <a xlink:href="events_8h__incl_org.svg" target="_base">
           <rect id="button" ry="5" rx="5" y="6" x="6" height="38" width="38"
                fill="#f2f5e9" fill-opacity="0.5" stroke="#606060" stroke-width="1.0"/>
           <path id="arrow"
             d="M 11.500037,31.436501 C 11.940474,20.09759 22.043105,11.32322 32.158766,21.979434 L 37.068811,17.246167 C 37.068811,17.246167 37.088388,32 37.088388,32 L 22.160133,31.978069 C 22.160133,31.978069 26.997745,27.140456 26.997745,27.140456 C 18.528582,18.264221 13.291696,25.230495 11.500037,31.436501 z"
             style="fill:#404040;"/>
          </a>
         </g>
        </svg>
</svg>
