<?xml version="1.0" encoding="UTF-8" standalone="no"?>
<!DOCTYPE svg PUBLIC "-//W3C//DTD SVG 1.1//EN"
 "http://www.w3.org/Graphics/SVG/1.1/DTD/svg11.dtd">
<!-- Generated by graphviz version 2.40.1 (20161225.0304)
 -->
<!-- Title: Graphical Class Hierarchy Pages: 1 -->
<svg width="177pt" height="64pt"
 viewBox="0.00 0.00 177.16 64.00" xmlns="http://www.w3.org/2000/svg" xmlns:xlink="http://www.w3.org/1999/xlink">
<g id="graph0" class="graph" transform="scale(1 1) rotate(0) translate(4 60)">
<title>Graphical Class Hierarchy</title>
<polygon fill="#ffffff" stroke="transparent" points="-4,4 -4,-60 173.1572,-60 173.1572,4 -4,4"/>
<!-- Node0 -->
<g id="node1" class="node">
<title>Node0</title>
<g id="a_node1"><a xlink:href="class_http_interface.html" target="_top" xlink:title="HttpInterface">
<polygon fill="#ffffff" stroke="#000000" points="0,-18.5 0,-36.5 73.251,-36.5 73.251,-18.5 0,-18.5"/>
<text text-anchor="middle" x="36.6255" y="-24.5" font-family="Helvetica,sans-Serif" font-size="10.00" fill="#000000">HttpInterface</text>
</a>
</g>
</g>
<!-- Node1 -->
<g id="node2" class="node">
<title>Node1</title>
<g id="a_node2"><a xlink:href="class_http_client.html" target="_top" xlink:title="HttpClient">
<polygon fill="#ffffff" stroke="#000000" points="109.251,-37.5 109.251,-55.5 169.1572,-55.5 169.1572,-37.5 109.251,-37.5"/>
<text text-anchor="middle" x="139.2041" y="-43.5" font-family="Helvetica,sans-Serif" font-size="10.00" fill="#000000">HttpClient</text>
</a>
</g>
</g>
<!-- Node0&#45;&gt;Node1 -->
<g id="edge1" class="edge">
<title>Node0&#45;&gt;Node1</title>
<path fill="none" stroke="#191970" d="M83.4656,-36.1759C92.186,-37.7911 101.0792,-39.4384 109.1267,-40.929"/>
<polygon fill="#191970" stroke="#191970" points="83.8392,-32.6856 73.369,-34.3058 82.5643,-39.5686 83.8392,-32.6856"/>
</g>
<!-- Node2 -->
<g id="node3" class="node">
<title>Node2</title>
<g id="a_node3"><a xlink:href="class_http_fake.html" target="_top" xlink:title="HttpFake">
<polygon fill="#ffffff" stroke="#000000" points="110.9185,-.5 110.9185,-18.5 167.4897,-18.5 167.4897,-.5 110.9185,-.5"/>
<text text-anchor="middle" x="139.2041" y="-6.5" font-family="Helvetica,sans-Serif" font-size="10.00" fill="#000000">HttpFake</text>
</a>
</g>
</g>
<!-- Node0&#45;&gt;Node2 -->
<g id="edge2" class="edge">
<title>Node0&#45;&gt;Node2</title>
<path fill="none" stroke="#191970" d="M83.3708,-19.2974C92.7162,-17.6575 102.2643,-15.982 110.7611,-14.491"/>
<polygon fill="#191970" stroke="#191970" points="82.6135,-15.8767 73.369,-21.0524 83.8234,-22.7713 82.6135,-15.8767"/>
</g>
</g>
</svg>
