<?xml version="1.0" encoding="UTF-8" standalone="no"?>
<!DOCTYPE svg PUBLIC "-//W3C//DTD SVG 1.1//EN"
 "http://www.w3.org/Graphics/SVG/1.1/DTD/svg11.dtd">
<!-- Generated by graphviz version 2.40.1 (20161225.0304)
 -->
<!-- Title: Graphical Class Hierarchy Pages: 1 -->
<svg width="257pt" height="64pt"
 viewBox="0.00 0.00 256.62 64.00" xmlns="http://www.w3.org/2000/svg" xmlns:xlink="http://www.w3.org/1999/xlink">
<g id="graph0" class="graph" transform="scale(1 1) rotate(0) translate(4 60)">
<title>Graphical Class Hierarchy</title>
<polygon fill="#ffffff" stroke="transparent" points="-4,4 -4,-60 252.625,-60 252.625,4 -4,4"/>
<!-- Node0 -->
<g id="node1" class="node">
<title>Node0</title>
<g id="a_node1"><a xlink:href="class_multi_part_hasher.html" target="_top" xlink:title="MultiPartHasher">
<polygon fill="#ffffff" stroke="#000000" points="0,-18.5 0,-36.5 87.6895,-36.5 87.6895,-18.5 0,-18.5"/>
<text text-anchor="middle" x="43.8447" y="-24.5" font-family="Helvetica,sans-Serif" font-size="10.00" fill="#000000">MultiPartHasher</text>
</a>
</g>
</g>
<!-- Node1 -->
<g id="node2" class="node">
<title>Node1</title>
<g id="a_node2"><a xlink:href="class_multi_part_s_h_a256_hasher.html" target="_top" xlink:title="MultiPartSHA256Hasher">
<polygon fill="#ffffff" stroke="#000000" points="123.6895,-37.5 123.6895,-55.5 248.625,-55.5 248.625,-37.5 123.6895,-37.5"/>
<text text-anchor="middle" x="186.1572" y="-43.5" font-family="Helvetica,sans-Serif" font-size="10.00" fill="#000000">MultiPartSHA256Hasher</text>
</a>
</g>
</g>
<!-- Node0&#45;&gt;Node1 -->
<g id="edge1" class="edge">
<title>Node0&#45;&gt;Node1</title>
<path fill="none" stroke="#191970" d="M97.7881,-34.7019C106.2228,-35.828 115.0008,-37 123.6083,-38.1492"/>
<polygon fill="#191970" stroke="#191970" points="98.0796,-31.2099 87.7044,-33.3557 97.1532,-38.1483 98.0796,-31.2099"/>
</g>
<!-- Node2 -->
<g id="node3" class="node">
<title>Node2</title>
<g id="a_node3"><a xlink:href="class_multi_part_s_h_a512_hasher.html" target="_top" xlink:title="MultiPartSHA512Hasher">
<polygon fill="#ffffff" stroke="#000000" points="123.6895,-.5 123.6895,-18.5 248.625,-18.5 248.625,-.5 123.6895,-.5"/>
<text text-anchor="middle" x="186.1572" y="-6.5" font-family="Helvetica,sans-Serif" font-size="10.00" fill="#000000">MultiPartSHA512Hasher</text>
</a>
</g>
</g>
<!-- Node0&#45;&gt;Node2 -->
<g id="edge2" class="edge">
<title>Node0&#45;&gt;Node2</title>
<path fill="none" stroke="#191970" d="M97.7881,-20.6771C106.2228,-19.6103 115.0008,-18.5 123.6083,-17.4113"/>
<polygon fill="#191970" stroke="#191970" points="97.1861,-17.2253 87.7044,-21.9525 98.0646,-24.17 97.1861,-17.2253"/>
</g>
</g>
</svg>
