<?xml version="1.0" encoding="UTF-8" standalone="no"?>
<!DOCTYPE svg PUBLIC "-//W3C//DTD SVG 1.1//EN"
 "http://www.w3.org/Graphics/SVG/1.1/DTD/svg11.dtd">
<!-- Generated by graphviz version 2.40.1 (20161225.0304)
 -->
<!-- Title: Graphical Class Hierarchy Pages: 1 -->
<svg width="612pt" height="528pt"
 viewBox="0.00 0.00 612.07 528.00" xmlns="http://www.w3.org/2000/svg" xmlns:xlink="http://www.w3.org/1999/xlink">
<g id="graph0" class="graph" transform="scale(1 1) rotate(0) translate(4 524)">
<title>Graphical Class Hierarchy</title>
<polygon fill="#ffffff" stroke="transparent" points="-4,4 -4,-524 608.0654,-524 608.0654,4 -4,4"/>
<!-- Node178 -->
<g id="node1" class="node">
<title>Node178</title>
<g id="a_node1"><a xlink:title="STL class. ">
<polygon fill="#ffffff" stroke="#bfbfbf" points="0,-334.5 0,-352.5 77.7041,-352.5 77.7041,-334.5 0,-334.5"/>
<text text-anchor="middle" x="38.8521" y="-340.5" font-family="Helvetica,sans-Serif" font-size="10.00" fill="#000000">std::exception</text>
</a>
</g>
</g>
<!-- Node0 -->
<g id="node2" class="node">
<title>Node0</title>
<g id="a_node2"><a xlink:href="classdeserialization__error.html" target="_top" xlink:title="deserialization_error">
<polygon fill="#ffffff" stroke="#000000" points="127.1196,-408.5 127.1196,-426.5 233.7202,-426.5 233.7202,-408.5 127.1196,-408.5"/>
<text text-anchor="middle" x="180.4199" y="-414.5" font-family="Helvetica,sans-Serif" font-size="10.00" fill="#000000">deserialization_error</text>
</a>
</g>
</g>
<!-- Node178&#45;&gt;Node0 -->
<g id="edge1" class="edge">
<title>Node178&#45;&gt;Node0</title>
<path fill="none" stroke="#191970" d="M56.3024,-359.6016C70.7192,-372.1164 92.234,-389.0514 113.7041,-399.5 121.0394,-403.0698 129.185,-406.0131 137.193,-408.411"/>
<polygon fill="#191970" stroke="#191970" points="58.4855,-356.8592 48.6882,-352.8264 53.8322,-362.0887 58.4855,-356.8592"/>
</g>
<!-- Node180 -->
<g id="node3" class="node">
<title>Node180</title>
<g id="a_node3"><a xlink:href="class_o_s_tree_commit_parse_error.html" target="_top" xlink:title="OSTreeCommitParseError">
<polygon fill="#ffffff" stroke="#000000" points="113.7041,-371.5 113.7041,-389.5 247.1357,-389.5 247.1357,-371.5 113.7041,-371.5"/>
<text text-anchor="middle" x="180.4199" y="-377.5" font-family="Helvetica,sans-Serif" font-size="10.00" fill="#000000">OSTreeCommitParseError</text>
</a>
</g>
</g>
<!-- Node178&#45;&gt;Node180 -->
<g id="edge2" class="edge">
<title>Node178&#45;&gt;Node180</title>
<path fill="none" stroke="#8b1a1a" d="M83.3542,-355.131C103.4615,-360.3862 126.8665,-366.5033 145.6554,-371.414"/>
<polygon fill="#8b1a1a" stroke="#8b1a1a" points="84.0435,-351.6937 73.4834,-352.5512 82.2734,-358.4662 84.0435,-351.6937"/>
</g>
<!-- Node181 -->
<g id="node4" class="node">
<title>Node181</title>
<g id="a_node4"><a xlink:href="class_o_s_tree_object_missing.html" target="_top" xlink:title="Thrown by GetObject when the object requested is not present in the repository. ">
<polygon fill="#ffffff" stroke="#000000" points="123.6992,-334.5 123.6992,-352.5 237.1406,-352.5 237.1406,-334.5 123.6992,-334.5"/>
<text text-anchor="middle" x="180.4199" y="-340.5" font-family="Helvetica,sans-Serif" font-size="10.00" fill="#000000">OSTreeObjectMissing</text>
</a>
</g>
</g>
<!-- Node178&#45;&gt;Node181 -->
<g id="edge3" class="edge">
<title>Node178&#45;&gt;Node181</title>
<path fill="none" stroke="#8b1a1a" d="M88.1178,-343.5C99.5264,-343.5 111.7592,-343.5 123.4667,-343.5"/>
<polygon fill="#8b1a1a" stroke="#8b1a1a" points="87.9109,-340.0001 77.9108,-343.5 87.9108,-347.0001 87.9109,-340.0001"/>
</g>
<!-- Node182 -->
<g id="node5" class="node">
<title>Node182</title>
<g id="a_node5"><a xlink:title="STL class. ">
<polygon fill="#ffffff" stroke="#bfbfbf" points="139.3511,-297.5 139.3511,-315.5 221.4888,-315.5 221.4888,-297.5 139.3511,-297.5"/>
<text text-anchor="middle" x="180.4199" y="-303.5" font-family="Helvetica,sans-Serif" font-size="10.00" fill="#000000">std::logic_error</text>
</a>
</g>
</g>
<!-- Node178&#45;&gt;Node182 -->
<g id="edge4" class="edge">
<title>Node178&#45;&gt;Node182</title>
<path fill="none" stroke="#191970" d="M83.3542,-331.869C103.4615,-326.6138 126.8665,-320.4967 145.6554,-315.586"/>
<polygon fill="#191970" stroke="#191970" points="82.2734,-328.5338 73.4834,-334.4488 84.0435,-335.3063 82.2734,-328.5338"/>
</g>
<!-- Node199 -->
<g id="node22" class="node">
<title>Node199</title>
<g id="a_node22"><a xlink:title="STL class. ">
<polygon fill="#ffffff" stroke="#bfbfbf" points="132.9619,-150.5 132.9619,-168.5 227.8779,-168.5 227.8779,-150.5 132.9619,-150.5"/>
<text text-anchor="middle" x="180.4199" y="-156.5" font-family="Helvetica,sans-Serif" font-size="10.00" fill="#000000">std::runtime_error</text>
</a>
</g>
</g>
<!-- Node178&#45;&gt;Node199 -->
<g id="edge21" class="edge">
<title>Node178&#45;&gt;Node199</title>
<path fill="none" stroke="#191970" d="M52.1046,-326.2752C81.4299,-288.1602 150.9842,-197.7585 173.3572,-168.6797"/>
<polygon fill="#191970" stroke="#191970" points="49.1964,-324.3155 45.8724,-334.3754 54.7443,-328.584 49.1964,-324.3155"/>
</g>
<!-- Node183 -->
<g id="node6" class="node">
<title>Node183</title>
<g id="a_node6"><a xlink:href="class_fatal_exception.html" target="_top" xlink:title="FatalException">
<polygon fill="#ffffff" stroke="#000000" points="308.7046,-353.5 308.7046,-371.5 390.8521,-371.5 390.8521,-353.5 308.7046,-353.5"/>
<text text-anchor="middle" x="349.7783" y="-359.5" font-family="Helvetica,sans-Serif" font-size="10.00" fill="#000000">FatalException</text>
</a>
</g>
</g>
<!-- Node182&#45;&gt;Node183 -->
<g id="edge5" class="edge">
<title>Node182&#45;&gt;Node183</title>
<path fill="none" stroke="#191970" d="M227.0978,-318.4479C233.8971,-320.5752 240.7525,-322.9391 247.1357,-325.5 263.9265,-332.2363 266.2994,-337.8784 283.1357,-344.5 291.835,-347.9214 301.4199,-350.9289 310.5431,-353.4571"/>
<polygon fill="#191970" stroke="#191970" points="227.8211,-315.0113 217.2377,-315.5051 225.819,-321.7189 227.8211,-315.0113"/>
</g>
<!-- Node184 -->
<g id="node7" class="node">
<title>Node184</title>
<g id="a_node7"><a xlink:href="class_not_implemented_exception.html" target="_top" xlink:title="NotImplementedException">
<polygon fill="#ffffff" stroke="#000000" points="283.1357,-316.5 283.1357,-334.5 416.4209,-334.5 416.4209,-316.5 283.1357,-316.5"/>
<text text-anchor="middle" x="349.7783" y="-322.5" font-family="Helvetica,sans-Serif" font-size="10.00" fill="#000000">NotImplementedException</text>
</a>
</g>
</g>
<!-- Node182&#45;&gt;Node184 -->
<g id="edge6" class="edge">
<title>Node182&#45;&gt;Node184</title>
<path fill="none" stroke="#191970" d="M232.1047,-312.2984C248.1676,-314.1005 266.1081,-316.1132 283.0447,-318.0133"/>
<polygon fill="#191970" stroke="#191970" points="232.1775,-308.7847 221.8496,-311.1479 231.3971,-315.7411 232.1775,-308.7847"/>
</g>
<!-- Node185 -->
<g id="node8" class="node">
<title>Node185</title>
<g id="a_node8"><a xlink:href="class_uptane_1_1_exception.html" target="_top" xlink:title="Uptane::Exception">
<polygon fill="#ffffff" stroke="#000000" points="300.9189,-279.5 300.9189,-297.5 398.6377,-297.5 398.6377,-279.5 300.9189,-279.5"/>
<text text-anchor="middle" x="349.7783" y="-285.5" font-family="Helvetica,sans-Serif" font-size="10.00" fill="#000000">Uptane::Exception</text>
</a>
</g>
</g>
<!-- Node182&#45;&gt;Node185 -->
<g id="edge7" class="edge">
<title>Node182&#45;&gt;Node185</title>
<path fill="none" stroke="#191970" d="M231.9302,-301.0253C253.7614,-298.705 279.086,-296.0134 300.6516,-293.7214"/>
<polygon fill="#191970" stroke="#191970" points="231.4237,-297.5593 221.8496,-302.0967 232.1636,-304.5201 231.4237,-297.5593"/>
</g>
<!-- Node186 -->
<g id="node9" class="node">
<title>Node186</title>
<g id="a_node9"><a xlink:href="class_uptane_1_1_bad_ecu_id.html" target="_top" xlink:title="Uptane::BadEcuId">
<polygon fill="#ffffff" stroke="#000000" points="479.6597,-501.5 479.6597,-519.5 576.8267,-519.5 576.8267,-501.5 479.6597,-501.5"/>
<text text-anchor="middle" x="528.2432" y="-507.5" font-family="Helvetica,sans-Serif" font-size="10.00" fill="#000000">Uptane::BadEcuId</text>
</a>
</g>
</g>
<!-- Node185&#45;&gt;Node186 -->
<g id="edge8" class="edge">
<title>Node185&#45;&gt;Node186</title>
<path fill="none" stroke="#191970" d="M407.7771,-300.297C410.9463,-302.3394 413.8709,-304.722 416.4209,-307.5 473.0646,-369.2089 394.4137,-432.071 452.4209,-492.5 459.6352,-500.0155 469.3692,-504.6383 479.4545,-507.4288"/>
<polygon fill="#191970" stroke="#191970" points="409.3878,-297.1897 398.9058,-295.6476 406.1383,-303.3898 409.3878,-297.1897"/>
</g>
<!-- Node187 -->
<g id="node10" class="node">
<title>Node187</title>
<g id="a_node10"><a xlink:href="class_uptane_1_1_bad_key_id.html" target="_top" xlink:title="Uptane::BadKeyId">
<polygon fill="#ffffff" stroke="#000000" points="479.6597,-464.5 479.6597,-482.5 576.8267,-482.5 576.8267,-464.5 479.6597,-464.5"/>
<text text-anchor="middle" x="528.2432" y="-470.5" font-family="Helvetica,sans-Serif" font-size="10.00" fill="#000000">Uptane::BadKeyId</text>
</a>
</g>
</g>
<!-- Node185&#45;&gt;Node187 -->
<g id="edge9" class="edge">
<title>Node185&#45;&gt;Node187</title>
<path fill="none" stroke="#191970" d="M407.6297,-300.4355C410.8343,-302.4445 413.8071,-304.7819 416.4209,-307.5 463.3435,-356.2953 404.4207,-407.7643 452.4209,-455.5 459.7117,-462.7506 469.3562,-467.2826 479.3142,-470.0711"/>
<polygon fill="#191970" stroke="#191970" points="409.1873,-297.3009 398.6925,-295.848 405.9907,-303.5284 409.1873,-297.3009"/>
</g>
<!-- Node188 -->
<g id="node11" class="node">
<title>Node188</title>
<g id="a_node11"><a xlink:href="class_uptane_1_1_expired_metadata.html" target="_top" xlink:title="Uptane::ExpiredMetadata">
<polygon fill="#ffffff" stroke="#000000" points="463.5415,-427.5 463.5415,-445.5 592.9448,-445.5 592.9448,-427.5 463.5415,-427.5"/>
<text text-anchor="middle" x="528.2432" y="-433.5" font-family="Helvetica,sans-Serif" font-size="10.00" fill="#000000">Uptane::ExpiredMetadata</text>
</a>
</g>
</g>
<!-- Node185&#45;&gt;Node188 -->
<g id="edge10" class="edge">
<title>Node185&#45;&gt;Node188</title>
<path fill="none" stroke="#191970" d="M407.8457,-300.9371C410.9376,-302.8281 413.8315,-305.0019 416.4209,-307.5 453.7457,-343.5088 414.3015,-383.3334 452.4209,-418.5 456.2991,-422.0778 460.7554,-424.9833 465.5237,-427.3382"/>
<polygon fill="#191970" stroke="#191970" points="409.2009,-297.7006 398.6962,-296.3215 406.0481,-303.9504 409.2009,-297.7006"/>
</g>
<!-- Node189 -->
<g id="node12" class="node">
<title>Node189</title>
<g id="a_node12"><a xlink:href="class_uptane_1_1_illegal_rsa_key_size.html" target="_top" xlink:title="Uptane::IllegalRsaKeySize">
<polygon fill="#ffffff" stroke="#000000" points="461.0439,-390.5 461.0439,-408.5 595.4424,-408.5 595.4424,-390.5 461.0439,-390.5"/>
<text text-anchor="middle" x="528.2432" y="-396.5" font-family="Helvetica,sans-Serif" font-size="10.00" fill="#000000">Uptane::IllegalRsaKeySize</text>
</a>
</g>
</g>
<!-- Node185&#45;&gt;Node189 -->
<g id="edge11" class="edge">
<title>Node185&#45;&gt;Node189</title>
<path fill="none" stroke="#191970" d="M408.0615,-301.7167C411.0261,-303.4169 413.8398,-305.3353 416.4209,-307.5 444.4444,-331.0023 423.8797,-358.6291 452.4209,-381.5 456.9608,-385.1379 462.1148,-388.0616 467.5485,-390.4083"/>
<polygon fill="#191970" stroke="#191970" points="409.324,-298.4397 398.797,-297.243 406.2801,-304.7432 409.324,-298.4397"/>
</g>
<!-- Node190 -->
<g id="node13" class="node">
<title>Node190</title>
<g id="a_node13"><a xlink:href="class_uptane_1_1_illegal_threshold.html" target="_top" xlink:title="Uptane::IllegalThreshold">
<polygon fill="#ffffff" stroke="#000000" points="466.0439,-353.5 466.0439,-371.5 590.4424,-371.5 590.4424,-353.5 466.0439,-353.5"/>
<text text-anchor="middle" x="528.2432" y="-359.5" font-family="Helvetica,sans-Serif" font-size="10.00" fill="#000000">Uptane::IllegalThreshold</text>
</a>
</g>
</g>
<!-- Node185&#45;&gt;Node190 -->
<g id="edge12" class="edge">
<title>Node185&#45;&gt;Node190</title>
<path fill="none" stroke="#191970" d="M403.2998,-301.0141C407.8708,-302.8956 412.312,-305.0458 416.4209,-307.5 436.1187,-319.2651 432.4654,-333.1776 452.4209,-344.5 458.8929,-348.1721 466.0838,-351.0972 473.3859,-353.4267"/>
<polygon fill="#191970" stroke="#191970" points="404.3934,-297.6871 393.8,-297.5182 401.9759,-304.2564 404.3934,-297.6871"/>
</g>
<!-- Node191 -->
<g id="node14" class="node">
<title>Node191</title>
<g id="a_node14"><a xlink:href="class_uptane_1_1_invalid_metadata.html" target="_top" xlink:title="Uptane::InvalidMetadata">
<polygon fill="#ffffff" stroke="#000000" points="466.0415,-316.5 466.0415,-334.5 590.4448,-334.5 590.4448,-316.5 466.0415,-316.5"/>
<text text-anchor="middle" x="528.2432" y="-322.5" font-family="Helvetica,sans-Serif" font-size="10.00" fill="#000000">Uptane::InvalidMetadata</text>
</a>
</g>
</g>
<!-- Node185&#45;&gt;Node191 -->
<g id="edge13" class="edge">
<title>Node185&#45;&gt;Node191</title>
<path fill="none" stroke="#191970" d="M403.5001,-299.6378C429.4746,-305.0229 460.2461,-311.4026 484.7275,-316.4782"/>
<polygon fill="#191970" stroke="#191970" points="403.9381,-296.1542 393.4357,-297.5512 402.517,-303.0085 403.9381,-296.1542"/>
</g>
<!-- Node192 -->
<g id="node15" class="node">
<title>Node192</title>
<g id="a_node15"><a xlink:href="class_uptane_1_1_missing_repo.html" target="_top" xlink:title="Uptane::MissingRepo">
<polygon fill="#ffffff" stroke="#000000" points="472.4404,-279.5 472.4404,-297.5 584.0459,-297.5 584.0459,-279.5 472.4404,-279.5"/>
<text text-anchor="middle" x="528.2432" y="-285.5" font-family="Helvetica,sans-Serif" font-size="10.00" fill="#000000">Uptane::MissingRepo</text>
</a>
</g>
</g>
<!-- Node185&#45;&gt;Node192 -->
<g id="edge14" class="edge">
<title>Node185&#45;&gt;Node192</title>
<path fill="none" stroke="#191970" d="M409.1076,-288.5C429.4598,-288.5 452.1587,-288.5 472.2387,-288.5"/>
<polygon fill="#191970" stroke="#191970" points="409.0171,-285.0001 399.017,-288.5 409.017,-292.0001 409.0171,-285.0001"/>
</g>
<!-- Node193 -->
<g id="node16" class="node">
<title>Node193</title>
<g id="a_node16"><a xlink:href="class_uptane_1_1_miss_match_target.html" target="_top" xlink:title="Uptane::MissMatchTarget">
<polygon fill="#ffffff" stroke="#000000" points="463.5537,-242.5 463.5537,-260.5 592.9326,-260.5 592.9326,-242.5 463.5537,-242.5"/>
<text text-anchor="middle" x="528.2432" y="-248.5" font-family="Helvetica,sans-Serif" font-size="10.00" fill="#000000">Uptane::MissMatchTarget</text>
</a>
</g>
</g>
<!-- Node185&#45;&gt;Node193 -->
<g id="edge15" class="edge">
<title>Node185&#45;&gt;Node193</title>
<path fill="none" stroke="#191970" d="M403.5001,-277.3622C429.4746,-271.9771 460.2461,-265.5974 484.7275,-260.5218"/>
<polygon fill="#191970" stroke="#191970" points="402.517,-273.9915 393.4357,-279.4488 403.9381,-280.8458 402.517,-273.9915"/>
</g>
<!-- Node194 -->
<g id="node17" class="node">
<title>Node194</title>
<g id="a_node17"><a xlink:href="class_uptane_1_1_non_unique_signatures.html" target="_top" xlink:title="Uptane::NonUniqueSignatures">
<polygon fill="#ffffff" stroke="#000000" points="452.4209,-205.5 452.4209,-223.5 604.0654,-223.5 604.0654,-205.5 452.4209,-205.5"/>
<text text-anchor="middle" x="528.2432" y="-211.5" font-family="Helvetica,sans-Serif" font-size="10.00" fill="#000000">Uptane::NonUniqueSignatures</text>
</a>
</g>
</g>
<!-- Node185&#45;&gt;Node194 -->
<g id="edge16" class="edge">
<title>Node185&#45;&gt;Node194</title>
<path fill="none" stroke="#191970" d="M405.687,-275.8556C409.415,-274.2706 413.0309,-272.4929 416.4209,-270.5 436.2002,-258.8724 432.5362,-244.9464 452.4209,-233.5 459.5952,-229.3702 467.6556,-226.1297 475.7723,-223.5892"/>
<polygon fill="#191970" stroke="#191970" points="404.3764,-272.6091 396.2535,-279.4112 406.8453,-279.1593 404.3764,-272.6091"/>
</g>
<!-- Node195 -->
<g id="node18" class="node">
<title>Node195</title>
<g id="a_node18"><a xlink:href="class_uptane_1_1_oversized_target.html" target="_top" xlink:title="Uptane::OversizedTarget">
<polygon fill="#ffffff" stroke="#000000" points="464.938,-168.5 464.938,-186.5 591.5483,-186.5 591.5483,-168.5 464.938,-168.5"/>
<text text-anchor="middle" x="528.2432" y="-174.5" font-family="Helvetica,sans-Serif" font-size="10.00" fill="#000000">Uptane::OversizedTarget</text>
</a>
</g>
</g>
<!-- Node185&#45;&gt;Node195 -->
<g id="edge17" class="edge">
<title>Node185&#45;&gt;Node195</title>
<path fill="none" stroke="#191970" d="M408.0496,-276.1874C411.0172,-274.5243 413.8348,-272.6384 416.4209,-270.5 444.6075,-247.1934 424.0226,-219.5481 452.4209,-196.5 457.4786,-192.3951 463.3054,-189.1616 469.4349,-186.617"/>
<polygon fill="#191970" stroke="#191970" points="406.3445,-273.1213 398.7787,-280.538 409.3183,-279.4582 406.3445,-273.1213"/>
</g>
<!-- Node196 -->
<g id="node19" class="node">
<title>Node196</title>
<g id="a_node19"><a xlink:href="class_uptane_1_1_security_exception.html" target="_top" xlink:title="Uptane::SecurityException">
<polygon fill="#ffffff" stroke="#000000" points="461.3223,-131.5 461.3223,-149.5 595.1641,-149.5 595.1641,-131.5 461.3223,-131.5"/>
<text text-anchor="middle" x="528.2432" y="-137.5" font-family="Helvetica,sans-Serif" font-size="10.00" fill="#000000">Uptane::SecurityException</text>
</a>
</g>
</g>
<!-- Node185&#45;&gt;Node196 -->
<g id="edge18" class="edge">
<title>Node185&#45;&gt;Node196</title>
<path fill="none" stroke="#191970" d="M407.8287,-276.9604C410.9247,-275.1093 413.8242,-272.9704 416.4209,-270.5 453.9956,-234.752 414.5211,-194.9032 452.4209,-159.5 456.7843,-155.424 461.8877,-152.1878 467.3478,-149.6232"/>
<polygon fill="#191970" stroke="#191970" points="406.1082,-273.9059 398.6709,-281.4515 409.1904,-280.1908 406.1082,-273.9059"/>
</g>
<!-- Node197 -->
<g id="node20" class="node">
<title>Node197</title>
<g id="a_node20"><a xlink:href="class_uptane_1_1_target_hash_mismatch.html" target="_top" xlink:title="Uptane::TargetHashMismatch">
<polygon fill="#ffffff" stroke="#000000" points="454.3813,-94.5 454.3813,-112.5 602.105,-112.5 602.105,-94.5 454.3813,-94.5"/>
<text text-anchor="middle" x="528.2432" y="-100.5" font-family="Helvetica,sans-Serif" font-size="10.00" fill="#000000">Uptane::TargetHashMismatch</text>
</a>
</g>
</g>
<!-- Node185&#45;&gt;Node197 -->
<g id="edge19" class="edge">
<title>Node185&#45;&gt;Node197</title>
<path fill="none" stroke="#191970" d="M407.8922,-277.2825C410.994,-275.3544 413.8755,-273.1103 416.4209,-270.5 463.6823,-222.0327 404.7187,-170.5335 452.4209,-122.5 456.4372,-118.4558 461.1765,-115.2272 466.2935,-112.6554"/>
<polygon fill="#191970" stroke="#191970" points="406.0264,-274.303 398.6634,-281.9211 409.1701,-280.5574 406.0264,-274.303"/>
</g>
<!-- Node198 -->
<g id="node21" class="node">
<title>Node198</title>
<g id="a_node21"><a xlink:href="class_uptane_1_1_unmet_threshold.html" target="_top" xlink:title="Uptane::UnmetThreshold">
<polygon fill="#ffffff" stroke="#000000" points="464.3813,-57.5 464.3813,-75.5 592.105,-75.5 592.105,-57.5 464.3813,-57.5"/>
<text text-anchor="middle" x="528.2432" y="-63.5" font-family="Helvetica,sans-Serif" font-size="10.00" fill="#000000">Uptane::UnmetThreshold</text>
</a>
</g>
</g>
<!-- Node185&#45;&gt;Node198 -->
<g id="edge20" class="edge">
<title>Node185&#45;&gt;Node198</title>
<path fill="none" stroke="#191970" d="M408.0349,-277.4185C411.102,-275.4573 413.9368,-273.1687 416.4209,-270.5 473.4931,-209.1872 394.7909,-146.2888 452.4209,-85.5 456.2489,-81.4622 460.7956,-78.2304 465.7325,-75.65"/>
<polygon fill="#191970" stroke="#191970" points="406.1714,-274.4408 398.8744,-282.1222 409.369,-280.6678 406.1714,-274.4408"/>
</g>
<!-- Node200 -->
<g id="node23" class="node">
<title>Node200</title>
<g id="a_node23"><a xlink:href="class_bad_credentials_archive.html" target="_top" xlink:title="BadCredentialsArchive">
<polygon fill="#ffffff" stroke="#000000" points="290.9189,-242.5 290.9189,-260.5 408.6377,-260.5 408.6377,-242.5 290.9189,-242.5"/>
<text text-anchor="middle" x="349.7783" y="-248.5" font-family="Helvetica,sans-Serif" font-size="10.00" fill="#000000">BadCredentialsArchive</text>
</a>
</g>
</g>
<!-- Node199&#45;&gt;Node200 -->
<g id="edge22" class="edge">
<title>Node199&#45;&gt;Node200</title>
<path fill="none" stroke="#191970" d="M198.1551,-175.3742C217.6809,-192.0749 250.6333,-218.0371 283.1357,-233.5 290.6031,-237.0525 298.8864,-239.9977 307.0034,-242.4048"/>
<polygon fill="#191970" stroke="#191970" points="200.2536,-172.5605 190.4138,-168.6324 195.6564,-177.8393 200.2536,-172.5605"/>
</g>
<!-- Node201 -->
<g id="node24" class="node">
<title>Node201</title>
<g id="a_node24"><a xlink:href="class_bad_credentials_content.html" target="_top" xlink:title="BadCredentialsContent">
<polygon fill="#ffffff" stroke="#000000" points="290.0791,-205.5 290.0791,-223.5 409.4775,-223.5 409.4775,-205.5 290.0791,-205.5"/>
<text text-anchor="middle" x="349.7783" y="-211.5" font-family="Helvetica,sans-Serif" font-size="10.00" fill="#000000">BadCredentialsContent</text>
</a>
</g>
</g>
<!-- Node199&#45;&gt;Node201 -->
<g id="edge23" class="edge">
<title>Node199&#45;&gt;Node201</title>
<path fill="none" stroke="#191970" d="M213.4776,-172.1874C233.4978,-179.6756 259.6251,-189.1041 283.1357,-196.5 293.0817,-199.6288 303.9644,-202.7098 313.9983,-205.4143"/>
<polygon fill="#191970" stroke="#191970" points="214.4874,-168.8277 203.8955,-168.5774 212.0194,-175.3783 214.4874,-168.8277"/>
</g>
<!-- Node202 -->
<g id="node25" class="node">
<title>Node202</title>
<g id="a_node25"><a xlink:href="class_bad_credentials_json.html" target="_top" xlink:title="BadCredentialsJson">
<polygon fill="#ffffff" stroke="#000000" points="297.0298,-168.5 297.0298,-186.5 402.5269,-186.5 402.5269,-168.5 297.0298,-168.5"/>
<text text-anchor="middle" x="349.7783" y="-174.5" font-family="Helvetica,sans-Serif" font-size="10.00" fill="#000000">BadCredentialsJson</text>
</a>
</g>
</g>
<!-- Node199&#45;&gt;Node202 -->
<g id="edge24" class="edge">
<title>Node199&#45;&gt;Node202</title>
<path fill="none" stroke="#191970" d="M238.0875,-165.6291C257.1241,-167.6524 278.1952,-169.8919 296.859,-171.8756"/>
<polygon fill="#191970" stroke="#191970" points="238.3603,-162.1385 228.0464,-164.5619 237.6204,-169.0993 238.3603,-162.1385"/>
</g>
<!-- Node203 -->
<g id="node26" class="node">
<title>Node203</title>
<g id="a_node26"><a xlink:href="class_s_q_l_exception.html" target="_top" xlink:title="SQLException">
<polygon fill="#ffffff" stroke="#000000" points="309.8154,-131.5 309.8154,-149.5 389.7412,-149.5 389.7412,-131.5 309.8154,-131.5"/>
<text text-anchor="middle" x="349.7783" y="-137.5" font-family="Helvetica,sans-Serif" font-size="10.00" fill="#000000">SQLException</text>
</a>
</g>
</g>
<!-- Node199&#45;&gt;Node203 -->
<g id="edge25" class="edge">
<title>Node199&#45;&gt;Node203</title>
<path fill="none" stroke="#191970" d="M238.2533,-153.0118C261.7614,-150.3745 288.3482,-147.3917 309.6654,-145.0002"/>
<polygon fill="#191970" stroke="#191970" points="237.5938,-149.5637 228.0464,-154.1569 238.3743,-156.5201 237.5938,-149.5637"/>
</g>
<!-- Node204 -->
<g id="node27" class="node">
<title>Node204</title>
<g id="a_node27"><a xlink:href="class_storage_exception.html" target="_top" xlink:title="StorageException">
<polygon fill="#ffffff" stroke="#000000" points="302.3081,-94.5 302.3081,-112.5 397.2485,-112.5 397.2485,-94.5 302.3081,-94.5"/>
<text text-anchor="middle" x="349.7783" y="-100.5" font-family="Helvetica,sans-Serif" font-size="10.00" fill="#000000">StorageException</text>
</a>
</g>
</g>
<!-- Node199&#45;&gt;Node204 -->
<g id="edge26" class="edge">
<title>Node199&#45;&gt;Node204</title>
<path fill="none" stroke="#191970" d="M213.9117,-146.7842C233.8927,-139.3615 259.8315,-130.0097 283.1357,-122.5 293.8997,-119.0313 305.7441,-115.5482 316.4242,-112.529"/>
<polygon fill="#191970" stroke="#191970" points="212.4778,-143.5836 204.3359,-150.363 214.9284,-150.1406 212.4778,-143.5836"/>
</g>
<!-- Node205 -->
<g id="node28" class="node">
<title>Node205</title>
<g id="a_node28"><a xlink:href="class_storage_target_r_handle_1_1_read_error.html" target="_top" xlink:title="StorageTargetRHandle\l::ReadError">
<polygon fill="#ffffff" stroke="#000000" points="290.9141,-47.5 290.9141,-75.5 408.6426,-75.5 408.6426,-47.5 290.9141,-47.5"/>
<text text-anchor="start" x="298.9141" y="-63.5" font-family="Helvetica,sans-Serif" font-size="10.00" fill="#000000">StorageTargetRHandle</text>
<text text-anchor="middle" x="349.7783" y="-53.5" font-family="Helvetica,sans-Serif" font-size="10.00" fill="#000000">::ReadError</text>
</a>
</g>
</g>
<!-- Node199&#45;&gt;Node205 -->
<g id="edge27" class="edge">
<title>Node199&#45;&gt;Node205</title>
<path fill="none" stroke="#191970" d="M198.7284,-143.8784C218.509,-127.6022 251.4627,-102.1907 283.1357,-85.5 290.0984,-81.8309 297.7449,-78.4963 305.2981,-75.5584"/>
<polygon fill="#191970" stroke="#191970" points="196.2938,-141.3514 190.8591,-150.4462 200.7792,-146.7256 196.2938,-141.3514"/>
</g>
<!-- Node206 -->
<g id="node29" class="node">
<title>Node206</title>
<g id="a_node29"><a xlink:href="class_storage_target_w_handle_1_1_write_error.html" target="_top" xlink:title="StorageTargetWHandle\l::WriteError">
<polygon fill="#ffffff" stroke="#000000" points="289.8057,-.5 289.8057,-28.5 409.751,-28.5 409.751,-.5 289.8057,-.5"/>
<text text-anchor="start" x="297.8057" y="-16.5" font-family="Helvetica,sans-Serif" font-size="10.00" fill="#000000">StorageTargetWHandle</text>
<text text-anchor="middle" x="349.7783" y="-6.5" font-family="Helvetica,sans-Serif" font-size="10.00" fill="#000000">::WriteError</text>
</a>
</g>
</g>
<!-- Node199&#45;&gt;Node206 -->
<g id="edge28" class="edge">
<title>Node199&#45;&gt;Node206</title>
<path fill="none" stroke="#191970" d="M191.2054,-141.6588C207.8512,-115.5305 242.1966,-66.8888 283.1357,-38.5 288.6937,-34.6459 294.9396,-31.3401 301.3212,-28.5248"/>
<polygon fill="#191970" stroke="#191970" points="188.2096,-139.8485 185.8941,-150.1873 194.1515,-143.549 188.2096,-139.8485"/>
</g>
</g>
</svg>
