<?xml version="1.0" encoding="UTF-8" standalone="no"?>
<!DOCTYPE svg PUBLIC "-//W3C//DTD SVG 1.1//EN"
 "http://www.w3.org/Graphics/SVG/1.1/DTD/svg11.dtd">
<!-- Generated by graphviz version 2.40.1 (20161225.0304)
 -->
<!-- Title: Graphical Class Hierarchy Pages: 1 -->
<svg width="307pt" height="101pt"
 viewBox="0.00 0.00 306.68 101.00" xmlns="http://www.w3.org/2000/svg" xmlns:xlink="http://www.w3.org/1999/xlink">
<g id="graph0" class="graph" transform="scale(1 1) rotate(0) translate(4 97)">
<title>Graphical Class Hierarchy</title>
<polygon fill="#ffffff" stroke="transparent" points="-4,4 -4,-97 302.6787,-97 302.6787,4 -4,4"/>
<!-- Node0 -->
<g id="node1" class="node">
<title>Node0</title>
<g id="a_node1"><a xlink:href="class_execution_controller.html" target="_top" xlink:title="ExecutionController">
<polygon fill="#ffffff" stroke="#000000" points="0,-37.5 0,-55.5 103.2656,-55.5 103.2656,-37.5 0,-37.5"/>
<text text-anchor="middle" x="51.6328" y="-43.5" font-family="Helvetica,sans-Serif" font-size="10.00" fill="#000000">ExecutionController</text>
</a>
</g>
</g>
<!-- Node1 -->
<g id="node2" class="node">
<title>Node1</title>
<g id="a_node2"><a xlink:href="class_fixed_execution_controller.html" target="_top" xlink:title="FixedExecutionController">
<polygon fill="#ffffff" stroke="#000000" points="155.1128,-74.5 155.1128,-92.5 282.8315,-92.5 282.8315,-74.5 155.1128,-74.5"/>
<text text-anchor="middle" x="218.9722" y="-80.5" font-family="Helvetica,sans-Serif" font-size="10.00" fill="#000000">FixedExecutionController</text>
</a>
</g>
</g>
<!-- Node0&#45;&gt;Node1 -->
<g id="edge1" class="edge">
<title>Node0&#45;&gt;Node1</title>
<path fill="none" stroke="#191970" d="M102.6532,-57.781C126.8711,-63.1357 155.4172,-69.4475 178.1693,-74.4782"/>
<polygon fill="#191970" stroke="#191970" points="103.0884,-54.2928 92.5686,-55.5512 101.5771,-61.1277 103.0884,-54.2928"/>
</g>
<!-- Node2 -->
<g id="node3" class="node">
<title>Node2</title>
<g id="a_node3"><a xlink:href="class_interruptable_execution_controller.html" target="_top" xlink:title="InterruptableExecutionController">
<polygon fill="#ffffff" stroke="#000000" points="139.2656,-37.5 139.2656,-55.5 298.6787,-55.5 298.6787,-37.5 139.2656,-37.5"/>
<text text-anchor="middle" x="218.9722" y="-43.5" font-family="Helvetica,sans-Serif" font-size="10.00" fill="#000000">InterruptableExecutionController</text>
</a>
</g>
</g>
<!-- Node0&#45;&gt;Node2 -->
<g id="edge2" class="edge">
<title>Node0&#45;&gt;Node2</title>
<path fill="none" stroke="#191970" d="M113.8699,-46.5C122.0732,-46.5 130.5711,-46.5 139.0185,-46.5"/>
<polygon fill="#191970" stroke="#191970" points="113.6628,-43.0001 103.6627,-46.5 113.6627,-50.0001 113.6628,-43.0001"/>
</g>
<!-- Node3 -->
<g id="node4" class="node">
<title>Node3</title>
<g id="a_node4"><a xlink:href="class_unbounded_execution_controller.html" target="_top" xlink:title="UnboundedExecutionController">
<polygon fill="#ffffff" stroke="#000000" points="141.4824,-.5 141.4824,-18.5 296.4619,-18.5 296.4619,-.5 141.4824,-.5"/>
<text text-anchor="middle" x="218.9722" y="-6.5" font-family="Helvetica,sans-Serif" font-size="10.00" fill="#000000">UnboundedExecutionController</text>
</a>
</g>
</g>
<!-- Node0&#45;&gt;Node3 -->
<g id="edge3" class="edge">
<title>Node0&#45;&gt;Node3</title>
<path fill="none" stroke="#8b1a1a" d="M102.6532,-35.219C126.8711,-29.8643 155.4172,-23.5525 178.1693,-18.5218"/>
<polygon fill="#8b1a1a" stroke="#8b1a1a" points="101.5771,-31.8723 92.5686,-37.4488 103.0884,-38.7072 101.5771,-31.8723"/>
</g>
</g>
</svg>
