<?xml version="1.0" encoding="UTF-8" standalone="no"?>
<!DOCTYPE svg PUBLIC "-//W3C//DTD SVG 1.1//EN"
 "http://www.w3.org/Graphics/SVG/1.1/DTD/svg11.dtd">
<!-- Generated by graphviz version 2.40.1 (20161225.0304)
 -->
<!-- Title: Primary::ManagedSecondaryConfig Pages: 1 -->
<svg width="236pt" height="207pt"
 viewBox="0.00 0.00 235.50 207.00" xmlns="http://www.w3.org/2000/svg" xmlns:xlink="http://www.w3.org/1999/xlink">
<g id="graph0" class="graph" transform="scale(1 1) rotate(0) translate(4 203)">
<title>Primary::ManagedSecondaryConfig</title>
<polygon fill="#ffffff" stroke="transparent" points="-4,4 -4,-203 231.5,-203 231.5,4 -4,4"/>
<!-- Node4 -->
<g id="node1" class="node">
<title>Node4</title>
<polygon fill="#bfbfbf" stroke="#000000" points="10,-.5 10,-30.5 153,-30.5 153,-.5 10,-.5"/>
<text text-anchor="start" x="18" y="-18.5" font-family="Helvetica,sans-Serif" font-size="10.00" fill="#000000">Primary::ManagedSecondary</text>
<text text-anchor="middle" x="81.5" y="-7.5" font-family="Helvetica,sans-Serif" font-size="10.00" fill="#000000">Config</text>
</g>
<!-- Node5 -->
<g id="node2" class="node">
<title>Node5</title>
<g id="a_node2"><a xlink:href="class_primary_1_1_secondary_config.html" target="_top" xlink:title="Primary::SecondaryConfig">
<polygon fill="#ffffff" stroke="#000000" points="0,-111.5 0,-130.5 131,-130.5 131,-111.5 0,-111.5"/>
<text text-anchor="middle" x="65.5" y="-118.5" font-family="Helvetica,sans-Serif" font-size="10.00" fill="#000000">Primary::SecondaryConfig</text>
</a>
</g>
</g>
<!-- Node5&#45;&gt;Node4 -->
<g id="edge1" class="edge">
<title>Node5&#45;&gt;Node4</title>
<path fill="none" stroke="#191970" d="M68.5079,-101.1669C71.616,-80.6729 76.3986,-49.1372 79.2118,-30.5875"/>
<polygon fill="#191970" stroke="#191970" points="65.0157,-100.8521 66.9766,-111.2639 71.9365,-101.9018 65.0157,-100.8521"/>
</g>
<!-- Node6 -->
<g id="node3" class="node">
<title>Node6</title>
<g id="a_node3"><a xlink:title="STL class. ">
<polygon fill="#ffffff" stroke="#bfbfbf" points="149.5,-111.5 149.5,-130.5 209.5,-130.5 209.5,-111.5 149.5,-111.5"/>
<text text-anchor="middle" x="179.5" y="-118.5" font-family="Helvetica,sans-Serif" font-size="10.00" fill="#000000">std::string</text>
</a>
</g>
</g>
<!-- Node6&#45;&gt;Node4 -->
<g id="edge2" class="edge">
<title>Node6&#45;&gt;Node4</title>
<path fill="none" stroke="#9a32cd" stroke-dasharray="5,2" d="M163.4014,-103.6694C144.5018,-83.3234 113.4639,-49.9101 95.515,-30.5875"/>
<polygon fill="#9a32cd" stroke="#9a32cd" points="161.0858,-106.3192 170.4561,-111.2639 166.2145,-101.5551 161.0858,-106.3192"/>
<text text-anchor="middle" x="190" y="-85" font-family="Helvetica,sans-Serif" font-size="10.00" fill="#000000"> ecu_private_key</text>
<text text-anchor="middle" x="190" y="-74" font-family="Helvetica,sans-Serif" font-size="10.00" fill="#000000">ecu_hardware_id</text>
<text text-anchor="middle" x="190" y="-63" font-family="Helvetica,sans-Serif" font-size="10.00" fill="#000000">ecu_serial</text>
<text text-anchor="middle" x="190" y="-52" font-family="Helvetica,sans-Serif" font-size="10.00" fill="#000000">ecu_public_key</text>
</g>
<!-- Node7 -->
<g id="node4" class="node">
<title>Node7</title>
<g id="a_node4"><a xlink:title="STL class. ">
<polygon fill="#ffffff" stroke="#bfbfbf" points="132,-168.5 132,-198.5 227,-198.5 227,-168.5 132,-168.5"/>
<text text-anchor="start" x="140" y="-186.5" font-family="Helvetica,sans-Serif" font-size="10.00" fill="#000000">std::basic_string&lt;</text>
<text text-anchor="middle" x="179.5" y="-175.5" font-family="Helvetica,sans-Serif" font-size="10.00" fill="#000000"> char &gt;</text>
</a>
</g>
</g>
<!-- Node7&#45;&gt;Node6 -->
<g id="edge3" class="edge">
<title>Node7&#45;&gt;Node6</title>
<path fill="none" stroke="#191970" d="M179.5,-158.3498C179.5,-148.6481 179.5,-138.1303 179.5,-130.7356"/>
<polygon fill="#191970" stroke="#191970" points="176.0001,-158.3705 179.5,-168.3705 183.0001,-158.3705 176.0001,-158.3705"/>
</g>
</g>
</svg>
