<?xml version="1.0" encoding="UTF-8" standalone="no"?>
<!DOCTYPE svg PUBLIC "-//W3C//DTD SVG 1.1//EN"
 "http://www.w3.org/Graphics/SVG/1.1/DTD/svg11.dtd">
<!-- Generated by graphviz version 2.40.1 (20161225.0304)
 -->
<!-- Title: CampaignDeclinedReport Pages: 1 -->
<svg width="171pt" height="231pt"
 viewBox="0.00 0.00 171.00 231.00" xmlns="http://www.w3.org/2000/svg" xmlns:xlink="http://www.w3.org/1999/xlink">
<g id="graph0" class="graph" transform="scale(1 1) rotate(0) translate(4 227)">
<title>CampaignDeclinedReport</title>
<polygon fill="#ffffff" stroke="transparent" points="-4,4 -4,-227 167,-227 167,4 -4,4"/>
<!-- Node2 -->
<g id="node1" class="node">
<title>Node2</title>
<polygon fill="#bfbfbf" stroke="#000000" points="24.5,-.5 24.5,-19.5 152.5,-19.5 152.5,-.5 24.5,-.5"/>
<text text-anchor="middle" x="88.5" y="-7.5" font-family="Helvetica,sans-Serif" font-size="10.00" fill="#000000">CampaignDeclinedReport</text>
</g>
<!-- Node3 -->
<g id="node2" class="node">
<title>Node3</title>
<g id="a_node2"><a xlink:href="class_report_event.html" target="_top" xlink:title="ReportEvent">
<polygon fill="#ffffff" stroke="#000000" points="53,-57.5 53,-76.5 124,-76.5 124,-57.5 53,-57.5"/>
<text text-anchor="middle" x="88.5" y="-64.5" font-family="Helvetica,sans-Serif" font-size="10.00" fill="#000000">ReportEvent</text>
</a>
</g>
</g>
<!-- Node3&#45;&gt;Node2 -->
<g id="edge1" class="edge">
<title>Node3&#45;&gt;Node2</title>
<path fill="none" stroke="#191970" d="M88.5,-47.2342C88.5,-37.8491 88.5,-27.0651 88.5,-19.5265"/>
<polygon fill="#191970" stroke="#191970" points="85.0001,-47.3307 88.5,-57.3307 92.0001,-47.3308 85.0001,-47.3307"/>
</g>
<!-- Node4 -->
<g id="node3" class="node">
<title>Node4</title>
<g id="a_node3"><a xlink:title="STL class. ">
<polygon fill="#ffffff" stroke="#bfbfbf" points="17.5,-135.5 17.5,-154.5 77.5,-154.5 77.5,-135.5 17.5,-135.5"/>
<text text-anchor="middle" x="47.5" y="-142.5" font-family="Helvetica,sans-Serif" font-size="10.00" fill="#000000">std::string</text>
</a>
</g>
</g>
<!-- Node4&#45;&gt;Node3 -->
<g id="edge2" class="edge">
<title>Node4&#45;&gt;Node3</title>
<path fill="none" stroke="#9a32cd" stroke-dasharray="5,2" d="M57.3894,-126.186C65.6037,-110.5589 76.9557,-88.9623 83.4315,-76.6426"/>
<polygon fill="#9a32cd" stroke="#9a32cd" points="54.0822,-124.9555 52.5274,-135.4357 60.2783,-128.2125 54.0822,-124.9555"/>
<text text-anchor="middle" x="84.5" y="-109" font-family="Helvetica,sans-Serif" font-size="10.00" fill="#000000"> type</text>
<text text-anchor="middle" x="84.5" y="-98" font-family="Helvetica,sans-Serif" font-size="10.00" fill="#000000">id</text>
</g>
<!-- Node5 -->
<g id="node4" class="node">
<title>Node5</title>
<g id="a_node4"><a xlink:title="STL class. ">
<polygon fill="#ffffff" stroke="#bfbfbf" points="0,-192.5 0,-222.5 95,-222.5 95,-192.5 0,-192.5"/>
<text text-anchor="start" x="8" y="-210.5" font-family="Helvetica,sans-Serif" font-size="10.00" fill="#000000">std::basic_string&lt;</text>
<text text-anchor="middle" x="47.5" y="-199.5" font-family="Helvetica,sans-Serif" font-size="10.00" fill="#000000"> char &gt;</text>
</a>
</g>
</g>
<!-- Node5&#45;&gt;Node4 -->
<g id="edge3" class="edge">
<title>Node5&#45;&gt;Node4</title>
<path fill="none" stroke="#191970" d="M47.5,-182.3498C47.5,-172.6481 47.5,-162.1303 47.5,-154.7356"/>
<polygon fill="#191970" stroke="#191970" points="44.0001,-182.3705 47.5,-192.3705 51.0001,-182.3705 44.0001,-182.3705"/>
</g>
<!-- Node6 -->
<g id="node5" class="node">
<title>Node6</title>
<g id="a_node5"><a xlink:href="class_time_stamp.html" target="_top" xlink:title="TimeStamp">
<polygon fill="#ffffff" stroke="#000000" points="96,-135.5 96,-154.5 163,-154.5 163,-135.5 96,-135.5"/>
<text text-anchor="middle" x="129.5" y="-142.5" font-family="Helvetica,sans-Serif" font-size="10.00" fill="#000000">TimeStamp</text>
</a>
</g>
</g>
<!-- Node6&#45;&gt;Node3 -->
<g id="edge4" class="edge">
<title>Node6&#45;&gt;Node3</title>
<path fill="none" stroke="#9a32cd" stroke-dasharray="5,2" d="M119.6106,-126.186C111.3963,-110.5589 100.0443,-88.9623 93.5685,-76.6426"/>
<polygon fill="#9a32cd" stroke="#9a32cd" points="116.7217,-128.2125 124.4726,-135.4357 122.9178,-124.9555 116.7217,-128.2125"/>
<text text-anchor="middle" x="138" y="-103.5" font-family="Helvetica,sans-Serif" font-size="10.00" fill="#000000"> timestamp</text>
</g>
</g>
</svg>
