<?xml version="1.0" encoding="UTF-8" standalone="no"?>
<!DOCTYPE svg PUBLIC "-//W3C//DTD SVG 1.1//EN"
 "http://www.w3.org/Graphics/SVG/1.1/DTD/svg11.dtd">
<!-- Generated by graphviz version 2.40.1 (20161225.0304)
 -->
<!-- Title: Uptane::SecondaryInterface Pages: 1 -->
<svg width="493pt" height="268pt"
 viewBox="0.00 0.00 493.00 267.50" xmlns="http://www.w3.org/2000/svg" xmlns:xlink="http://www.w3.org/1999/xlink">
<g id="graph0" class="graph" transform="scale(1 1) rotate(0) translate(4 263.5)">
<title>Uptane::SecondaryInterface</title>
<polygon fill="#ffffff" stroke="transparent" points="-4,4 -4,-263.5 489,-263.5 489,4 -4,4"/>
<!-- Node0 -->
<g id="node1" class="node">
<title>Node0</title>
<polygon fill="#bfbfbf" stroke="#000000" points="0,-126 0,-145 139,-145 139,-126 0,-126"/>
<text text-anchor="middle" x="69.5" y="-133" font-family="Helvetica,sans-Serif" font-size="10.00" fill="#000000">Uptane::SecondaryInterface</text>
</g>
<!-- Node1 -->
<g id="node2" class="node">
<title>Node1</title>
<g id="a_node2"><a xlink:href="class_primary_1_1_managed_secondary.html" target="_top" xlink:title="Primary::ManagedSecondary">
<polygon fill="#ffffff" stroke="#000000" points="175,-240 175,-259 318,-259 318,-240 175,-240"/>
<text text-anchor="middle" x="246.5" y="-247" font-family="Helvetica,sans-Serif" font-size="10.00" fill="#000000">Primary::ManagedSecondary</text>
</a>
</g>
</g>
<!-- Node0&#45;&gt;Node1 -->
<g id="edge1" class="edge">
<title>Node0&#45;&gt;Node1</title>
<path fill="none" stroke="#191970" d="M84.0331,-152.8956C102.8527,-174.3033 137.6911,-210.2919 175,-230.5 182.1151,-234.3538 190.0584,-237.4615 197.9914,-239.9569"/>
<polygon fill="#191970" stroke="#191970" points="86.5944,-150.5062 77.417,-145.2121 81.2899,-155.0738 86.5944,-150.5062"/>
</g>
<!-- Node3 -->
<g id="node4" class="node">
<title>Node3</title>
<g id="a_node4"><a xlink:href="class_secondary_adapter.html" target="_top" xlink:title="SecondaryAdapter">
<polygon fill="#ffffff" stroke="#000000" points="198,-202 198,-221 295,-221 295,-202 198,-202"/>
<text text-anchor="middle" x="246.5" y="-209" font-family="Helvetica,sans-Serif" font-size="10.00" fill="#000000">SecondaryAdapter</text>
</a>
</g>
</g>
<!-- Node0&#45;&gt;Node3 -->
<g id="edge3" class="edge">
<title>Node0&#45;&gt;Node3</title>
<path fill="none" stroke="#191970" d="M93.4829,-150.58C114.3695,-163.1884 145.7994,-180.92 175,-192.5 184.1934,-196.1458 194.3249,-199.3173 203.9985,-201.9701"/>
<polygon fill="#191970" stroke="#191970" points="95.0304,-147.4236 84.6741,-145.1879 91.3758,-153.3939 95.0304,-147.4236"/>
</g>
<!-- Node4 -->
<g id="node5" class="node">
<title>Node4</title>
<g id="a_node5"><a xlink:href="class_secondary_interface_mock.html" target="_top" xlink:title="SecondaryInterfaceMock">
<polygon fill="#ffffff" stroke="#000000" points="184,-164 184,-183 309,-183 309,-164 184,-164"/>
<text text-anchor="middle" x="246.5" y="-171" font-family="Helvetica,sans-Serif" font-size="10.00" fill="#000000">SecondaryInterfaceMock</text>
</a>
</g>
</g>
<!-- Node0&#45;&gt;Node4 -->
<g id="edge4" class="edge">
<title>Node0&#45;&gt;Node4</title>
<path fill="none" stroke="#191970" d="M124.2423,-147.2526C149.27,-152.6258 178.5348,-158.9086 202.1566,-163.9799"/>
<polygon fill="#191970" stroke="#191970" points="124.6765,-143.7661 114.1646,-145.089 123.2071,-150.6102 124.6765,-143.7661"/>
</g>
<!-- Node5 -->
<g id="node6" class="node">
<title>Node5</title>
<g id="a_node6"><a xlink:href="class_short_circuit_secondary.html" target="_top" xlink:title="ShortCircuitSecondary">
<polygon fill="#ffffff" stroke="#000000" points="189,-126 189,-145 304,-145 304,-126 189,-126"/>
<text text-anchor="middle" x="246.5" y="-133" font-family="Helvetica,sans-Serif" font-size="10.00" fill="#000000">ShortCircuitSecondary</text>
</a>
</g>
</g>
<!-- Node0&#45;&gt;Node5 -->
<g id="edge5" class="edge">
<title>Node0&#45;&gt;Node5</title>
<path fill="none" stroke="#191970" d="M149.3149,-135.5C162.6348,-135.5 176.2196,-135.5 188.8468,-135.5"/>
<polygon fill="#191970" stroke="#191970" points="149.201,-132.0001 139.201,-135.5 149.201,-139.0001 149.201,-132.0001"/>
</g>
<!-- Node6 -->
<g id="node7" class="node">
<title>Node6</title>
<g id="a_node7"><a xlink:href="class_uptane_1_1_ip_uptane_secondary.html" target="_top" xlink:title="Uptane::IpUptaneSecondary">
<polygon fill="#ffffff" stroke="#000000" points="176.5,-88 176.5,-107 316.5,-107 316.5,-88 176.5,-88"/>
<text text-anchor="middle" x="246.5" y="-95" font-family="Helvetica,sans-Serif" font-size="10.00" fill="#000000">Uptane::IpUptaneSecondary</text>
</a>
</g>
</g>
<!-- Node0&#45;&gt;Node6 -->
<g id="edge6" class="edge">
<title>Node0&#45;&gt;Node6</title>
<path fill="none" stroke="#191970" d="M124.2423,-123.7474C149.27,-118.3742 178.5348,-112.0914 202.1566,-107.0201"/>
<polygon fill="#191970" stroke="#191970" points="123.2071,-120.3898 114.1646,-125.911 124.6765,-127.2339 123.2071,-120.3898"/>
</g>
<!-- Node7 -->
<g id="node8" class="node">
<title>Node7</title>
<g id="a_node8"><a xlink:href="class_uptane_1_1_iso_tp_secondary.html" target="_top" xlink:title="Uptane::IsoTpSecondary">
<polygon fill="#ffffff" stroke="#000000" points="184,-50 184,-69 309,-69 309,-50 184,-50"/>
<text text-anchor="middle" x="246.5" y="-57" font-family="Helvetica,sans-Serif" font-size="10.00" fill="#000000">Uptane::IsoTpSecondary</text>
</a>
</g>
</g>
<!-- Node0&#45;&gt;Node7 -->
<g id="edge7" class="edge">
<title>Node0&#45;&gt;Node7</title>
<path fill="none" stroke="#191970" d="M93.4829,-120.42C114.3695,-107.8116 145.7994,-90.08 175,-78.5 184.1934,-74.8542 194.3249,-71.6827 203.9985,-69.0299"/>
<polygon fill="#191970" stroke="#191970" points="91.3758,-117.6061 84.6741,-125.8121 95.0304,-123.5764 91.3758,-117.6061"/>
</g>
<!-- Node8 -->
<g id="node9" class="node">
<title>Node8</title>
<g id="a_node9"><a xlink:href="class_uptane_1_1_partial_verification_secondary.html" target="_top" xlink:title="Uptane::PartialVerification\lSecondary">
<polygon fill="#ffffff" stroke="#000000" points="181,-.5 181,-30.5 312,-30.5 312,-.5 181,-.5"/>
<text text-anchor="start" x="189" y="-18.5" font-family="Helvetica,sans-Serif" font-size="10.00" fill="#000000">Uptane::PartialVerification</text>
<text text-anchor="middle" x="246.5" y="-7.5" font-family="Helvetica,sans-Serif" font-size="10.00" fill="#000000">Secondary</text>
</a>
</g>
</g>
<!-- Node0&#45;&gt;Node8 -->
<g id="edge8" class="edge">
<title>Node0&#45;&gt;Node8</title>
<path fill="none" stroke="#191970" d="M84.586,-118.2364C103.7379,-97.2595 138.6798,-62.0115 175,-40.5 181.3361,-36.7473 188.3216,-33.4401 195.3691,-30.5631"/>
<polygon fill="#191970" stroke="#191970" points="81.8999,-115.9892 77.8275,-125.7702 87.1105,-120.6637 81.8999,-115.9892"/>
</g>
<!-- Node2 -->
<g id="node3" class="node">
<title>Node2</title>
<g id="a_node3"><a xlink:href="class_primary_1_1_virtual_secondary.html" target="_top" xlink:title="Primary::VirtualSecondary">
<polygon fill="#ffffff" stroke="#000000" points="354,-240 354,-259 485,-259 485,-240 354,-240"/>
<text text-anchor="middle" x="419.5" y="-247" font-family="Helvetica,sans-Serif" font-size="10.00" fill="#000000">Primary::VirtualSecondary</text>
</a>
</g>
</g>
<!-- Node1&#45;&gt;Node2 -->
<g id="edge2" class="edge">
<title>Node1&#45;&gt;Node2</title>
<path fill="none" stroke="#191970" d="M328.1455,-249.5C336.7327,-249.5 345.384,-249.5 353.7593,-249.5"/>
<polygon fill="#191970" stroke="#191970" points="328.1146,-246.0001 318.1145,-249.5 328.1145,-253.0001 328.1146,-246.0001"/>
</g>
</g>
</svg>
