<?xml version="1.0" encoding="UTF-8" standalone="no"?>
<!DOCTYPE svg PUBLIC "-//W3C//DTD SVG 1.1//EN"
 "http://www.w3.org/Graphics/SVG/1.1/DTD/svg11.dtd">
<!-- Generated by graphviz version 2.40.1 (20161225.0304)
 -->
<!-- Title: Primary::SecondaryConfig Pages: 1 -->
<svg width="387pt" height="162pt"
 viewBox="0.00 0.00 387.00 162.00" xmlns="http://www.w3.org/2000/svg" xmlns:xlink="http://www.w3.org/1999/xlink">
<g id="graph0" class="graph" transform="scale(1 1) rotate(0) translate(4 158)">
<title>Primary::SecondaryConfig</title>
<polygon fill="#ffffff" stroke="transparent" points="-4,4 -4,-158 383,-158 383,4 -4,4"/>
<!-- Node0 -->
<g id="node1" class="node">
<title>Node0</title>
<polygon fill="#bfbfbf" stroke="#000000" points="91,-134.5 91,-153.5 222,-153.5 222,-134.5 91,-134.5"/>
<text text-anchor="middle" x="156.5" y="-141.5" font-family="Helvetica,sans-Serif" font-size="10.00" fill="#000000">Primary::SecondaryConfig</text>
</g>
<!-- Node1 -->
<g id="node2" class="node">
<title>Node1</title>
<g id="a_node2"><a xlink:href="class_primary_1_1_i_p_secondaries_config.html" target="_top" xlink:title="Primary::IPSecondariesConfig">
<polygon fill="#ffffff" stroke="#000000" points="0,-73 0,-92 149,-92 149,-73 0,-73"/>
<text text-anchor="middle" x="74.5" y="-80" font-family="Helvetica,sans-Serif" font-size="10.00" fill="#000000">Primary::IPSecondariesConfig</text>
</a>
</g>
</g>
<!-- Node0&#45;&gt;Node1 -->
<g id="edge1" class="edge">
<title>Node0&#45;&gt;Node1</title>
<path fill="none" stroke="#191970" d="M135.3655,-128.1491C120.1293,-116.722 100.0666,-101.6749 87.2225,-92.0419"/>
<polygon fill="#191970" stroke="#191970" points="133.5875,-131.1906 143.6875,-134.3906 137.7875,-125.5906 133.5875,-131.1906"/>
</g>
<!-- Node2 -->
<g id="node3" class="node">
<title>Node2</title>
<g id="a_node3"><a xlink:href="class_primary_1_1_managed_secondary_config.html" target="_top" xlink:title="Primary::ManagedSecondary\lConfig">
<polygon fill="#ffffff" stroke="#000000" points="167,-67.5 167,-97.5 310,-97.5 310,-67.5 167,-67.5"/>
<text text-anchor="start" x="175" y="-85.5" font-family="Helvetica,sans-Serif" font-size="10.00" fill="#000000">Primary::ManagedSecondary</text>
<text text-anchor="middle" x="238.5" y="-74.5" font-family="Helvetica,sans-Serif" font-size="10.00" fill="#000000">Config</text>
</a>
</g>
</g>
<!-- Node0&#45;&gt;Node2 -->
<g id="edge2" class="edge">
<title>Node0&#45;&gt;Node2</title>
<path fill="none" stroke="#191970" d="M177.4175,-128.3119C190.0231,-118.8577 205.9921,-106.8809 218.4405,-97.5446"/>
<polygon fill="#191970" stroke="#191970" points="175.2125,-125.5906 169.3125,-134.3906 179.4125,-131.1906 175.2125,-125.5906"/>
</g>
<!-- Node3 -->
<g id="node4" class="node">
<title>Node3</title>
<g id="a_node4"><a xlink:href="class_primary_1_1_partial_verification_secondary_config.html" target="_top" xlink:title="Primary::PartialVerification\lSecondaryConfig">
<polygon fill="#ffffff" stroke="#000000" points="97,-.5 97,-30.5 230,-30.5 230,-.5 97,-.5"/>
<text text-anchor="start" x="105" y="-18.5" font-family="Helvetica,sans-Serif" font-size="10.00" fill="#000000">Primary::PartialVerification</text>
<text text-anchor="middle" x="163.5" y="-7.5" font-family="Helvetica,sans-Serif" font-size="10.00" fill="#000000">SecondaryConfig</text>
</a>
</g>
</g>
<!-- Node2&#45;&gt;Node3 -->
<g id="edge3" class="edge">
<title>Node2&#45;&gt;Node3</title>
<path fill="none" stroke="#191970" d="M213.8692,-60.4965C202.9246,-50.7193 190.3157,-39.4554 180.4513,-30.6432"/>
<polygon fill="#191970" stroke="#191970" points="211.6919,-63.2447 221.4813,-67.2967 216.3555,-58.0243 211.6919,-63.2447"/>
</g>
<!-- Node4 -->
<g id="node5" class="node">
<title>Node4</title>
<g id="a_node5"><a xlink:href="class_primary_1_1_virtual_secondary_config.html" target="_top" xlink:title="Primary::VirtualSecondary\lConfig">
<polygon fill="#ffffff" stroke="#000000" points="248,-.5 248,-30.5 379,-30.5 379,-.5 248,-.5"/>
<text text-anchor="start" x="256" y="-18.5" font-family="Helvetica,sans-Serif" font-size="10.00" fill="#000000">Primary::VirtualSecondary</text>
<text text-anchor="middle" x="313.5" y="-7.5" font-family="Helvetica,sans-Serif" font-size="10.00" fill="#000000">Config</text>
</a>
</g>
</g>
<!-- Node2&#45;&gt;Node4 -->
<g id="edge4" class="edge">
<title>Node2&#45;&gt;Node4</title>
<path fill="none" stroke="#191970" d="M263.1308,-60.4965C274.0754,-50.7193 286.6843,-39.4554 296.5487,-30.6432"/>
<polygon fill="#191970" stroke="#191970" points="260.6445,-58.0243 255.5187,-67.2967 265.3081,-63.2447 260.6445,-58.0243"/>
</g>
</g>
</svg>
