<?xml version="1.0" encoding="UTF-8" standalone="no"?>
<!DOCTYPE svg PUBLIC "-//W3C//DTD SVG 1.1//EN"
 "http://www.w3.org/Graphics/SVG/1.1/DTD/svg11.dtd">
<!-- Generated by graphviz version 2.40.1 (20161225.0304)
 -->
<!-- Title: Repo Pages: 1 -->
<svg width="168pt" height="84pt"
 viewBox="0.00 0.00 167.50 84.00" xmlns="http://www.w3.org/2000/svg" xmlns:xlink="http://www.w3.org/1999/xlink">
<g id="graph0" class="graph" transform="scale(1 1) rotate(0) translate(4 80)">
<title>Repo</title>
<polygon fill="#ffffff" stroke="transparent" points="-4,4 -4,-80 163.5,-80 163.5,4 -4,4"/>
<!-- Node0 -->
<g id="node1" class="node">
<title>Node0</title>
<polygon fill="#bfbfbf" stroke="#000000" points="61,-56.5 61,-75.5 101,-75.5 101,-56.5 61,-56.5"/>
<text text-anchor="middle" x="81" y="-63.5" font-family="Helvetica,sans-Serif" font-size="10.00" fill="#000000">Repo</text>
</g>
<!-- Node1 -->
<g id="node2" class="node">
<title>Node1</title>
<g id="a_node2"><a xlink:href="class_director_repo.html" target="_top" xlink:title="DirectorRepo">
<polygon fill="#ffffff" stroke="#000000" points="0,-.5 0,-19.5 74,-19.5 74,-.5 0,-.5"/>
<text text-anchor="middle" x="37" y="-7.5" font-family="Helvetica,sans-Serif" font-size="10.00" fill="#000000">DirectorRepo</text>
</a>
</g>
</g>
<!-- Node0&#45;&gt;Node1 -->
<g id="edge1" class="edge">
<title>Node0&#45;&gt;Node1</title>
<path fill="none" stroke="#191970" d="M67.0231,-48.2112C59.5871,-38.7472 50.734,-27.4797 44.5764,-19.6427"/>
<polygon fill="#191970" stroke="#191970" points="64.4054,-50.5447 73.3358,-56.2455 69.9097,-46.22 64.4054,-50.5447"/>
</g>
<!-- Node2 -->
<g id="node3" class="node">
<title>Node2</title>
<g id="a_node3"><a xlink:href="class_image_repo.html" target="_top" xlink:title="ImageRepo">
<polygon fill="#ffffff" stroke="#000000" points="92.5,-.5 92.5,-19.5 159.5,-19.5 159.5,-.5 92.5,-.5"/>
<text text-anchor="middle" x="126" y="-7.5" font-family="Helvetica,sans-Serif" font-size="10.00" fill="#000000">ImageRepo</text>
</a>
</g>
</g>
<!-- Node0&#45;&gt;Node2 -->
<g id="edge2" class="edge">
<title>Node0&#45;&gt;Node2</title>
<path fill="none" stroke="#191970" d="M95.2946,-48.2112C102.8996,-38.7472 111.9538,-27.4797 118.2514,-19.6427"/>
<polygon fill="#191970" stroke="#191970" points="92.3741,-46.2581 88.8384,-56.2455 97.8306,-50.6428 92.3741,-46.2581"/>
</g>
</g>
</svg>
