<?xml version="1.0" encoding="UTF-8" standalone="no"?>
<!DOCTYPE svg PUBLIC "-//W3C//DTD SVG 1.1//EN"
 "http://www.w3.org/Graphics/SVG/1.1/DTD/svg11.dtd">
<!-- Generated by graphviz version 2.40.1 (20161225.0304)
 -->
<!-- Title: PackageManagerInterface Pages: 1 -->
<svg width="432pt" height="140pt"
 viewBox="0.00 0.00 431.50 140.00" xmlns="http://www.w3.org/2000/svg" xmlns:xlink="http://www.w3.org/1999/xlink">
<g id="graph0" class="graph" transform="scale(1 1) rotate(0) translate(4 136)">
<title>PackageManagerInterface</title>
<polygon fill="#ffffff" stroke="transparent" points="-4,4 -4,-136 427.5,-136 427.5,4 -4,4"/>
<!-- Node0 -->
<g id="node1" class="node">
<title>Node0</title>
<polygon fill="#bfbfbf" stroke="#000000" points="133,-112.5 133,-131.5 264,-131.5 264,-112.5 133,-112.5"/>
<text text-anchor="middle" x="198.5" y="-119.5" font-family="Helvetica,sans-Serif" font-size="10.00" fill="#000000">PackageManagerInterface</text>
</g>
<!-- Node1 -->
<g id="node2" class="node">
<title>Node1</title>
<g id="a_node2"><a xlink:href="class_android_manager.html" target="_top" xlink:title="AndroidManager">
<polygon fill="#ffffff" stroke="#000000" points="0,-56.5 0,-75.5 87,-75.5 87,-56.5 0,-56.5"/>
<text text-anchor="middle" x="43.5" y="-63.5" font-family="Helvetica,sans-Serif" font-size="10.00" fill="#000000">AndroidManager</text>
</a>
</g>
</g>
<!-- Node0&#45;&gt;Node1 -->
<g id="edge1" class="edge">
<title>Node0&#45;&gt;Node1</title>
<path fill="none" stroke="#191970" d="M162.3051,-108.9231C133.9703,-98.686 95.2282,-84.6889 69.7978,-75.5011"/>
<polygon fill="#191970" stroke="#191970" points="161.2602,-112.267 171.8546,-112.3733 163.6388,-105.6835 161.2602,-112.267"/>
</g>
<!-- Node2 -->
<g id="node3" class="node">
<title>Node2</title>
<g id="a_node3"><a xlink:href="class_debian_manager.html" target="_top" xlink:title="DebianManager">
<polygon fill="#ffffff" stroke="#000000" points="105,-56.5 105,-75.5 190,-75.5 190,-56.5 105,-56.5"/>
<text text-anchor="middle" x="147.5" y="-63.5" font-family="Helvetica,sans-Serif" font-size="10.00" fill="#000000">DebianManager</text>
</a>
</g>
</g>
<!-- Node0&#45;&gt;Node2 -->
<g id="edge2" class="edge">
<title>Node0&#45;&gt;Node2</title>
<path fill="none" stroke="#191970" d="M182.8251,-104.7884C174.1006,-95.2085 163.5646,-83.6396 156.2817,-75.6427"/>
<polygon fill="#191970" stroke="#191970" points="180.2954,-107.2088 189.6165,-112.2455 185.4709,-102.4954 180.2954,-107.2088"/>
</g>
<!-- Node3 -->
<g id="node4" class="node">
<title>Node3</title>
<g id="a_node4"><a xlink:href="class_ostree_manager.html" target="_top" xlink:title="OstreeManager">
<polygon fill="#ffffff" stroke="#000000" points="208,-56.5 208,-75.5 291,-75.5 291,-56.5 208,-56.5"/>
<text text-anchor="middle" x="249.5" y="-63.5" font-family="Helvetica,sans-Serif" font-size="10.00" fill="#000000">OstreeManager</text>
</a>
</g>
</g>
<!-- Node0&#45;&gt;Node3 -->
<g id="edge3" class="edge">
<title>Node0&#45;&gt;Node3</title>
<path fill="none" stroke="#191970" d="M214.1749,-104.7884C222.8994,-95.2085 233.4354,-83.6396 240.7183,-75.6427"/>
<polygon fill="#191970" stroke="#191970" points="211.5291,-102.4954 207.3835,-112.2455 216.7046,-107.2088 211.5291,-102.4954"/>
</g>
<!-- Node5 -->
<g id="node6" class="node">
<title>Node5</title>
<g id="a_node6"><a xlink:href="class_package_manager_fake.html" target="_top" xlink:title="PackageManagerFake">
<polygon fill="#ffffff" stroke="#000000" points="309.5,-56.5 309.5,-75.5 423.5,-75.5 423.5,-56.5 309.5,-56.5"/>
<text text-anchor="middle" x="366.5" y="-63.5" font-family="Helvetica,sans-Serif" font-size="10.00" fill="#000000">PackageManagerFake</text>
</a>
</g>
</g>
<!-- Node0&#45;&gt;Node5 -->
<g id="edge5" class="edge">
<title>Node0&#45;&gt;Node5</title>
<path fill="none" stroke="#191970" d="M236.9286,-109.1905C267.7073,-98.9309 310.1926,-84.7691 337.9966,-75.5011"/>
<polygon fill="#191970" stroke="#191970" points="235.7602,-105.8905 227.3802,-112.3733 237.9739,-112.5313 235.7602,-105.8905"/>
</g>
<!-- Node4 -->
<g id="node5" class="node">
<title>Node4</title>
<g id="a_node5"><a xlink:href="class_docker_app_manager.html" target="_top" xlink:title="DockerAppManager">
<polygon fill="#ffffff" stroke="#000000" points="198,-.5 198,-19.5 301,-19.5 301,-.5 198,-.5"/>
<text text-anchor="middle" x="249.5" y="-7.5" font-family="Helvetica,sans-Serif" font-size="10.00" fill="#000000">DockerAppManager</text>
</a>
</g>
</g>
<!-- Node3&#45;&gt;Node4 -->
<g id="edge4" class="edge">
<title>Node3&#45;&gt;Node4</title>
<path fill="none" stroke="#191970" d="M249.5,-46.1575C249.5,-37.155 249.5,-26.9199 249.5,-19.6427"/>
<polygon fill="#191970" stroke="#191970" points="246.0001,-46.2455 249.5,-56.2455 253.0001,-46.2456 246.0001,-46.2455"/>
</g>
</g>
</svg>
