<?xml version="1.0" encoding="UTF-8" standalone="no"?>
<!DOCTYPE svg PUBLIC "-//W3C//DTD SVG 1.1//EN"
 "http://www.w3.org/Graphics/SVG/1.1/DTD/svg11.dtd">
<!-- Generated by graphviz version 2.40.1 (20161225.0304)
 -->
<!-- Title: src/libaktualizr/primary/events.h Pages: 1 -->
<!--zoomable 318 -->
<svg id="main" version="1.1" xmlns="http://www.w3.org/2000/svg" xmlns:xlink="http://www.w3.org/1999/xlink" xml:space="preserve" onload="init(evt)">
<style type="text/css"><![CDATA[
.edge:hover path { stroke: red; }
.edge:hover polygon { stroke: red; fill: red; }
]]></style>
<script type="text/javascript"><![CDATA[
var edges = document.getElementsByTagName('g');
if (edges && edges.length) {
  for (var i=0;i<edges.length;i++) {
    if (edges[i].id.substr(0,4)=='edge') {
      edges[i].setAttribute('class','edge');
    }
  }
}
]]></script>
        <defs>
                <circle id="rim" cx="0" cy="0" r="7"/>
                <circle id="rim2" cx="0" cy="0" r="3.5"/>
                <g id="zoomPlus">
                        <use xlink:href="#rim" fill="#404040">
                                <set attributeName="fill" to="#808080" begin="zoomplus.mouseover" end="zoomplus.mouseout"/>
                        </use>
                        <path d="M-4,0h8M0,-4v8" fill="none" stroke="white" stroke-width="1.5" pointer-events="none"/>
                </g>
                <g id="zoomMin">
                        <use xlink:href="#rim" fill="#404040">
                                <set attributeName="fill" to="#808080" begin="zoomminus.mouseover" end="zoomminus.mouseout"/>
                        </use>
                        <path d="M-4,0h8" fill="none" stroke="white" stroke-width="1.5" pointer-events="none"/>
                </g>
                <g id="dirArrow">
                        <path fill="none" stroke="white" stroke-width="1.5" d="M0,-3.0v7 M-2.5,-0.5L0,-3.0L2.5,-0.5"/>
                </g>
               <g id="resetDef">
                       <use xlink:href="#rim2" fill="#404040">
                               <set attributeName="fill" to="#808080" begin="reset.mouseover" end="reset.mouseout"/>
                       </use>
               </g>
        </defs>

<script type="text/javascript">
var viewWidth = 2481;
var viewHeight = 318;
var sectionId = 'dynsection-1';
</script>
<script xlink:href="svgpan.js"/>
<svg id="graph" class="graph">
<g id="viewport">
<title>src/libaktualizr/primary/events.h</title>
<polygon fill="#ffffff" stroke="transparent" points="-4,4 -4,-314 2477,-314 2477,4 -4,4"/>
<!-- Node59 -->
<g id="node1" class="node">
<title>Node59</title>
<polygon fill="#bfbfbf" stroke="#000000" points="739.5,-279.5 739.5,-309.5 854.5,-309.5 854.5,-279.5 739.5,-279.5"/>
<text text-anchor="start" x="747.5" y="-297.5" font-family="Helvetica,sans-Serif" font-size="10.00" fill="#000000">src/libaktualizr/primary</text>
<text text-anchor="middle" x="797" y="-286.5" font-family="Helvetica,sans-Serif" font-size="10.00" fill="#000000">/events.h</text>
</g>
<!-- Node60 -->
<g id="node2" class="node">
<title>Node60</title>
<g id="a_node2"><a xlink:href="aktualizr_8h_source.html" target="_top" xlink:title="src/libaktualizr/primary\l/aktualizr.h">
<polygon fill="#ffffff" stroke="#000000" points="739.5,-140 739.5,-170 854.5,-170 854.5,-140 739.5,-140"/>
<text text-anchor="start" x="747.5" y="-158" font-family="Helvetica,sans-Serif" font-size="10.00" fill="#000000">src/libaktualizr/primary</text>
<text text-anchor="middle" x="797" y="-147" font-family="Helvetica,sans-Serif" font-size="10.00" fill="#000000">/aktualizr.h</text>
</a>
</g>
</g>
<!-- Node59&#45;&gt;Node60 -->
<g id="edge1" class="edge">
<title>Node59&#45;&gt;Node60</title>
<path fill="none" stroke="#191970" d="M797,-269.1668C797,-240.2706 797,-193.9582 797,-170.1758"/>
<polygon fill="#191970" stroke="#191970" points="793.5001,-269.3055 797,-279.3055 800.5001,-269.3055 793.5001,-269.3055"/>
</g>
<!-- Node65 -->
<g id="node7" class="node">
<title>Node65</title>
<g id="a_node7"><a xlink:href="aktualizr__test_8cc_source.html" target="_top" xlink:title="src/libaktualizr/primary\l/aktualizr_test.cc">
<polygon fill="#ffffff" stroke="#000000" points="535.5,-.5 535.5,-30.5 650.5,-30.5 650.5,-.5 535.5,-.5"/>
<text text-anchor="start" x="543.5" y="-18.5" font-family="Helvetica,sans-Serif" font-size="10.00" fill="#000000">src/libaktualizr/primary</text>
<text text-anchor="middle" x="593" y="-7.5" font-family="Helvetica,sans-Serif" font-size="10.00" fill="#000000">/aktualizr_test.cc</text>
</a>
</g>
</g>
<!-- Node59&#45;&gt;Node65 -->
<g id="edge54" class="edge">
<title>Node59&#45;&gt;Node65</title>
<path fill="none" stroke="#191970" d="M769.245,-272.9659C728.5578,-239.8617 653.2049,-172.4422 613,-98 601.3042,-76.3444 596.3567,-47.8345 594.3303,-30.6287"/>
<polygon fill="#191970" stroke="#191970" points="767.1509,-275.7731 777.1378,-279.3103 771.5365,-270.3172 767.1509,-275.7731"/>
</g>
<!-- Node72 -->
<g id="node14" class="node">
<title>Node72</title>
<g id="a_node14"><a xlink:href="uptane__delegation__test_8cc_source.html" target="_top" xlink:title="src/libaktualizr/uptane\l/uptane_delegation_test.cc">
<polygon fill="#ffffff" stroke="#000000" points="0,-.5 0,-30.5 134,-30.5 134,-.5 0,-.5"/>
<text text-anchor="start" x="8" y="-18.5" font-family="Helvetica,sans-Serif" font-size="10.00" fill="#000000">src/libaktualizr/uptane</text>
<text text-anchor="middle" x="67" y="-7.5" font-family="Helvetica,sans-Serif" font-size="10.00" fill="#000000">/uptane_delegation_test.cc</text>
</a>
</g>
</g>
<!-- Node59&#45;&gt;Node72 -->
<g id="edge55" class="edge">
<title>Node59&#45;&gt;Node72</title>
<path fill="none" stroke="#191970" d="M729.3243,-286.9664C664.0947,-278.9189 562.916,-264.3623 477,-243 387.2519,-220.6849 366.4086,-208.9582 280,-176 197.0097,-144.3456 156.7999,-162.7514 96,-98 78.3331,-79.1849 71.3417,-48.9778 68.6381,-30.8058"/>
<polygon fill="#191970" stroke="#191970" points="729.1271,-290.4682 739.4767,-288.2021 729.9729,-283.5194 729.1271,-290.4682"/>
</g>
<!-- Node79 -->
<g id="node21" class="node">
<title>Node79</title>
<g id="a_node21"><a xlink:href="aktualizr_8cc_source.html" target="_top" xlink:title="src/libaktualizr/primary\l/aktualizr.cc">
<polygon fill="#ffffff" stroke="#000000" points="105.5,-67.5 105.5,-97.5 220.5,-97.5 220.5,-67.5 105.5,-67.5"/>
<text text-anchor="start" x="113.5" y="-85.5" font-family="Helvetica,sans-Serif" font-size="10.00" fill="#000000">src/libaktualizr/primary</text>
<text text-anchor="middle" x="163" y="-74.5" font-family="Helvetica,sans-Serif" font-size="10.00" fill="#000000">/aktualizr.cc</text>
</a>
</g>
</g>
<!-- Node59&#45;&gt;Node79 -->
<g id="edge53" class="edge">
<title>Node59&#45;&gt;Node79</title>
<path fill="none" stroke="#191970" d="M729.2498,-281.8423C683.9862,-272.7085 623.3706,-259.1668 571,-243 428.4484,-198.9943 265.0168,-128.2902 196.2389,-97.5649"/>
<polygon fill="#191970" stroke="#191970" points="728.7543,-285.3124 739.2461,-283.8382 730.125,-278.4479 728.7543,-285.3124"/>
</g>
<!-- Node82 -->
<g id="node24" class="node">
<title>Node82</title>
<g id="a_node24"><a xlink:href="load__tests_2check_8cc_source.html" target="_top" xlink:title="src/load_tests/check.cc">
<polygon fill="#ffffff" stroke="#000000" points="967.5,-73 967.5,-92 1088.5,-92 1088.5,-73 967.5,-73"/>
<text text-anchor="middle" x="1028" y="-80" font-family="Helvetica,sans-Serif" font-size="10.00" fill="#000000">src/load_tests/check.cc</text>
</a>
</g>
</g>
<!-- Node59&#45;&gt;Node82 -->
<g id="edge56" class="edge">
<title>Node59&#45;&gt;Node82</title>
<path fill="none" stroke="#191970" d="M820.9973,-272.4765C870.4648,-227.0778 982.0829,-124.6404 1017.2067,-92.4056"/>
<polygon fill="#191970" stroke="#191970" points="818.614,-269.9132 813.613,-279.2535 823.3471,-275.0705 818.614,-269.9132"/>
</g>
<!-- Node83 -->
<g id="node25" class="node">
<title>Node83</title>
<g id="a_node25"><a xlink:href="provision_8cc_source.html" target="_top" xlink:title="src/load_tests/provision.cc">
<polygon fill="#ffffff" stroke="#000000" points="1107,-73 1107,-92 1241,-92 1241,-73 1107,-73"/>
<text text-anchor="middle" x="1174" y="-80" font-family="Helvetica,sans-Serif" font-size="10.00" fill="#000000">src/load_tests/provision.cc</text>
</a>
</g>
</g>
<!-- Node59&#45;&gt;Node83 -->
<g id="edge57" class="edge">
<title>Node59&#45;&gt;Node83</title>
<path fill="none" stroke="#191970" d="M832.9132,-274.3048C912.0692,-229.7926 1099.0931,-124.6227 1156.7638,-92.1925"/>
<polygon fill="#191970" stroke="#191970" points="830.8115,-271.4711 823.8107,-279.4234 834.2426,-277.5726 830.8115,-271.4711"/>
</g>
<!-- Node84 -->
<g id="node26" class="node">
<title>Node84</title>
<g id="a_node26"><a xlink:href="sotauptaneclient_8h_source.html" target="_top" xlink:title="src/libaktualizr/primary\l/sotauptaneclient.h">
<polygon fill="#ffffff" stroke="#000000" points="1506.5,-212.5 1506.5,-242.5 1621.5,-242.5 1621.5,-212.5 1506.5,-212.5"/>
<text text-anchor="start" x="1514.5" y="-230.5" font-family="Helvetica,sans-Serif" font-size="10.00" fill="#000000">src/libaktualizr/primary</text>
<text text-anchor="middle" x="1564" y="-219.5" font-family="Helvetica,sans-Serif" font-size="10.00" fill="#000000">/sotauptaneclient.h</text>
</a>
</g>
</g>
<!-- Node59&#45;&gt;Node84 -->
<g id="edge35" class="edge">
<title>Node59&#45;&gt;Node84</title>
<path fill="none" stroke="#191970" d="M865.027,-288.5576C1014.1391,-275.5322 1367.5206,-244.6631 1506.4668,-232.5257"/>
<polygon fill="#191970" stroke="#191970" points="864.3071,-285.1071 854.6497,-289.4641 864.9163,-292.0805 864.3071,-285.1071"/>
</g>
<!-- Node61 -->
<g id="node3" class="node">
<title>Node61</title>
<g id="a_node3"><a xlink:href="aktualizr__cycle__simple_8cc_source.html" target="_top" xlink:title="tests/aktualizr_cycle\l_simple.cc">
<polygon fill="#ffffff" stroke="#000000" points="651.5,-67.5 651.5,-97.5 758.5,-97.5 758.5,-67.5 651.5,-67.5"/>
<text text-anchor="start" x="659.5" y="-85.5" font-family="Helvetica,sans-Serif" font-size="10.00" fill="#000000">tests/aktualizr_cycle</text>
<text text-anchor="middle" x="705" y="-74.5" font-family="Helvetica,sans-Serif" font-size="10.00" fill="#000000">_simple.cc</text>
</a>
</g>
</g>
<!-- Node60&#45;&gt;Node61 -->
<g id="edge2" class="edge">
<title>Node60&#45;&gt;Node61</title>
<path fill="none" stroke="#191970" d="M769.696,-133.4833C754.9981,-121.9007 737.2314,-107.8998 724.038,-97.5028"/>
<polygon fill="#191970" stroke="#191970" points="767.9169,-136.5374 777.9375,-139.978 772.2496,-131.0394 767.9169,-136.5374"/>
</g>
<!-- Node62 -->
<g id="node4" class="node">
<title>Node62</title>
<g id="a_node4"><a xlink:href="uptane__test__common_8h_source.html" target="_top" xlink:title="tests/uptane_test_common.h">
<polygon fill="#ffffff" stroke="#000000" points="1297.5,-73 1297.5,-92 1440.5,-92 1440.5,-73 1297.5,-73"/>
<text text-anchor="middle" x="1369" y="-80" font-family="Helvetica,sans-Serif" font-size="10.00" fill="#000000">tests/uptane_test_common.h</text>
</a>
</g>
</g>
<!-- Node60&#45;&gt;Node62 -->
<g id="edge3" class="edge">
<title>Node60&#45;&gt;Node62</title>
<path fill="none" stroke="#191970" d="M864.7545,-146.568C953.3306,-135.5232 1113.2994,-115.5031 1250,-98 1265.2925,-96.042 1281.6873,-93.9208 1297.2694,-91.8944"/>
<polygon fill="#191970" stroke="#191970" points="864.0651,-143.1267 854.5749,-147.8369 864.9311,-150.073 864.0651,-143.1267"/>
</g>
<!-- Node64 -->
<g id="node6" class="node">
<title>Node64</title>
<g id="a_node6"><a xlink:href="aktualizr__fullostree__test_8cc_source.html" target="_top" xlink:title="src/libaktualizr/primary\l/aktualizr_fullostree_test.cc">
<polygon fill="#ffffff" stroke="#000000" points="1246.5,-.5 1246.5,-30.5 1383.5,-30.5 1383.5,-.5 1246.5,-.5"/>
<text text-anchor="start" x="1254.5" y="-18.5" font-family="Helvetica,sans-Serif" font-size="10.00" fill="#000000">src/libaktualizr/primary</text>
<text text-anchor="middle" x="1315" y="-7.5" font-family="Helvetica,sans-Serif" font-size="10.00" fill="#000000">/aktualizr_fullostree_test.cc</text>
</a>
</g>
</g>
<!-- Node60&#45;&gt;Node64 -->
<g id="edge22" class="edge">
<title>Node60&#45;&gt;Node64</title>
<path fill="none" stroke="#191970" d="M843.246,-135.9191C866.2966,-125.7383 894.2477,-112.3613 918,-98 937.5491,-86.1801 937.8542,-75.6448 959,-67 1074.3223,-19.854 1114.0535,-51.1529 1237,-31 1239.9974,-30.5087 1243.0557,-29.9873 1246.1423,-29.4447"/>
<polygon fill="#191970" stroke="#191970" points="841.7901,-132.7356 834.0213,-139.9394 844.5869,-139.1526 841.7901,-132.7356"/>
</g>
<!-- Node60&#45;&gt;Node65 -->
<g id="edge27" class="edge">
<title>Node60&#45;&gt;Node65</title>
<path fill="none" stroke="#191970" d="M729.5905,-140.6565C700.6142,-131.9619 667.7871,-118.4666 643,-98 620.916,-79.7654 606.0257,-49.081 598.5723,-30.715"/>
<polygon fill="#191970" stroke="#191970" points="728.6752,-144.035 739.2524,-143.4242 730.6029,-137.3057 728.6752,-144.035"/>
</g>
<!-- Node66 -->
<g id="node8" class="node">
<title>Node66</title>
<g id="a_node8"><a xlink:href="custom__url__test_8cc_source.html" target="_top" xlink:title="src/libaktualizr/primary\l/custom_url_test.cc">
<polygon fill="#ffffff" stroke="#000000" points="668.5,-.5 668.5,-30.5 783.5,-30.5 783.5,-.5 668.5,-.5"/>
<text text-anchor="start" x="676.5" y="-18.5" font-family="Helvetica,sans-Serif" font-size="10.00" fill="#000000">src/libaktualizr/primary</text>
<text text-anchor="middle" x="726" y="-7.5" font-family="Helvetica,sans-Serif" font-size="10.00" fill="#000000">/custom_url_test.cc</text>
</a>
</g>
</g>
<!-- Node60&#45;&gt;Node66 -->
<g id="edge28" class="edge">
<title>Node60&#45;&gt;Node66</title>
<path fill="none" stroke="#191970" d="M791.41,-130.1494C786.71,-111.9552 778.9844,-87.0477 768,-67 760.6822,-53.6441 749.7443,-40.3693 740.8652,-30.6427"/>
<polygon fill="#191970" stroke="#191970" points="788.0448,-131.1222 793.8294,-139.9985 794.8427,-129.4523 788.0448,-131.1222"/>
</g>
<!-- Node67 -->
<g id="node9" class="node">
<title>Node67</title>
<g id="a_node9"><a xlink:href="download__nonostree__test_8cc_source.html" target="_top" xlink:title="src/libaktualizr/primary\l/download_nonostree_test.cc">
<polygon fill="#ffffff" stroke="#000000" points="802,-.5 802,-30.5 946,-30.5 946,-.5 802,-.5"/>
<text text-anchor="start" x="810" y="-18.5" font-family="Helvetica,sans-Serif" font-size="10.00" fill="#000000">src/libaktualizr/primary</text>
<text text-anchor="middle" x="874" y="-7.5" font-family="Helvetica,sans-Serif" font-size="10.00" fill="#000000">/download_nonostree_test.cc</text>
</a>
</g>
</g>
<!-- Node60&#45;&gt;Node67 -->
<g id="edge29" class="edge">
<title>Node60&#45;&gt;Node67</title>
<path fill="none" stroke="#191970" d="M810.3559,-130.8032C826.2552,-101.9987 852.3227,-54.7725 865.6234,-30.6758"/>
<polygon fill="#191970" stroke="#191970" points="807.1552,-129.3593 805.3869,-139.8055 813.2836,-132.742 807.1552,-129.3593"/>
</g>
<!-- Node68 -->
<g id="node10" class="node">
<title>Node68</title>
<g id="a_node10"><a xlink:href="empty__targets__test_8cc_source.html" target="_top" xlink:title="src/libaktualizr/primary\l/empty_targets_test.cc">
<polygon fill="#ffffff" stroke="#000000" points="964.5,-.5 964.5,-30.5 1081.5,-30.5 1081.5,-.5 964.5,-.5"/>
<text text-anchor="start" x="972.5" y="-18.5" font-family="Helvetica,sans-Serif" font-size="10.00" fill="#000000">src/libaktualizr/primary</text>
<text text-anchor="middle" x="1023" y="-7.5" font-family="Helvetica,sans-Serif" font-size="10.00" fill="#000000">/empty_targets_test.cc</text>
</a>
</g>
</g>
<!-- Node60&#45;&gt;Node68 -->
<g id="edge30" class="edge">
<title>Node60&#45;&gt;Node68</title>
<path fill="none" stroke="#191970" d="M818.1366,-132.309C839.6828,-109.5589 872.0051,-76.5706 887,-67 911.8998,-51.1075 942.447,-38.9845 968.2785,-30.5051"/>
<polygon fill="#191970" stroke="#191970" points="815.3198,-130.1948 811.0109,-139.8738 820.4153,-134.9944 815.3198,-130.1948"/>
</g>
<!-- Node69 -->
<g id="node11" class="node">
<title>Node69</title>
<g id="a_node11"><a xlink:href="target__mismatch__test_8cc_source.html" target="_top" xlink:title="src/libaktualizr/primary\l/target_mismatch_test.cc">
<polygon fill="#ffffff" stroke="#000000" points="1100,-.5 1100,-30.5 1228,-30.5 1228,-.5 1100,-.5"/>
<text text-anchor="start" x="1108" y="-18.5" font-family="Helvetica,sans-Serif" font-size="10.00" fill="#000000">src/libaktualizr/primary</text>
<text text-anchor="middle" x="1164" y="-7.5" font-family="Helvetica,sans-Serif" font-size="10.00" fill="#000000">/target_mismatch_test.cc</text>
</a>
</g>
</g>
<!-- Node60&#45;&gt;Node69 -->
<g id="edge31" class="edge">
<title>Node60&#45;&gt;Node69</title>
<path fill="none" stroke="#191970" d="M829.1915,-134.216C845.4543,-123.5769 865.4165,-110.3045 883,-98 902.0087,-84.6981 903.8541,-76.5458 925,-67 927.0341,-66.0818 1029.6297,-44.1253 1099.7249,-29.1809"/>
<polygon fill="#191970" stroke="#191970" points="827.0413,-131.4395 820.5757,-139.8328 830.8642,-137.3035 827.0413,-131.4395"/>
</g>
<!-- Node60&#45;&gt;Node72 -->
<g id="edge32" class="edge">
<title>Node60&#45;&gt;Node72</title>
<path fill="none" stroke="#191970" d="M728.9798,-152.3736C605.5478,-146.8364 349.8707,-131.6028 268,-98 247.5161,-89.5927 248.5398,-77.4148 229,-67 198.9197,-50.9671 163.0061,-38.9182 132.6459,-30.522"/>
<polygon fill="#191970" stroke="#191970" points="728.9251,-155.8745 739.0694,-152.8178 729.233,-148.8812 728.9251,-155.8745"/>
</g>
<!-- Node76 -->
<g id="node18" class="node">
<title>Node76</title>
<g id="a_node18"><a xlink:href="aktualizr__primary_2main_8cc_source.html" target="_top" xlink:title="src/aktualizr_primary\l/main.cc">
<polygon fill="#ffffff" stroke="#000000" points="277.5,-.5 277.5,-30.5 384.5,-30.5 384.5,-.5 277.5,-.5"/>
<text text-anchor="start" x="285.5" y="-18.5" font-family="Helvetica,sans-Serif" font-size="10.00" fill="#000000">src/aktualizr_primary</text>
<text text-anchor="middle" x="331" y="-7.5" font-family="Helvetica,sans-Serif" font-size="10.00" fill="#000000">/main.cc</text>
</a>
</g>
</g>
<!-- Node60&#45;&gt;Node76 -->
<g id="edge17" class="edge">
<title>Node60&#45;&gt;Node76</title>
<path fill="none" stroke="#191970" d="M729.0794,-148.6158C638.8217,-139.4075 484.7212,-120.9557 433,-98 428.186,-95.8634 377.0621,-53.7307 349.0745,-30.5246"/>
<polygon fill="#191970" stroke="#191970" points="728.9201,-152.1174 739.2209,-149.639 729.6228,-145.1528 728.9201,-152.1174"/>
</g>
<!-- Node77 -->
<g id="node19" class="node">
<title>Node77</title>
<g id="a_node19"><a xlink:href="secondary_8h_source.html" target="_top" xlink:title="src/aktualizr_primary\l/secondary.h">
<polygon fill="#ffffff" stroke="#000000" points="277.5,-67.5 277.5,-97.5 384.5,-97.5 384.5,-67.5 277.5,-67.5"/>
<text text-anchor="start" x="285.5" y="-85.5" font-family="Helvetica,sans-Serif" font-size="10.00" fill="#000000">src/aktualizr_primary</text>
<text text-anchor="middle" x="331" y="-74.5" font-family="Helvetica,sans-Serif" font-size="10.00" fill="#000000">/secondary.h</text>
</a>
</g>
</g>
<!-- Node60&#45;&gt;Node77 -->
<g id="edge18" class="edge">
<title>Node60&#45;&gt;Node77</title>
<path fill="none" stroke="#191970" d="M729.0616,-146.9897C649.6109,-137.225 514.2777,-119.356 399,-98 394.3567,-97.1398 389.55,-96.182 384.7375,-95.1762"/>
<polygon fill="#191970" stroke="#191970" points="729.0675,-150.5164 739.4183,-148.2556 729.9168,-143.5681 729.0675,-150.5164"/>
</g>
<!-- Node60&#45;&gt;Node79 -->
<g id="edge21" class="edge">
<title>Node60&#45;&gt;Node79</title>
<path fill="none" stroke="#191970" d="M729.0535,-150.5537C623.0745,-143.0691 412.1851,-125.9689 235,-98 230.3269,-97.2623 225.5006,-96.4141 220.663,-95.5027"/>
<polygon fill="#191970" stroke="#191970" points="729.0667,-154.0631 739.2866,-151.2695 729.5552,-147.0801 729.0667,-154.0631"/>
</g>
<!-- Node80 -->
<g id="node22" class="node">
<title>Node80</title>
<g id="a_node22"><a xlink:href="aktualizr__helpers_8h_source.html" target="_top" xlink:title="src/libaktualizr/primary\l/aktualizr_helpers.h">
<polygon fill="#ffffff" stroke="#000000" points="441.5,-67.5 441.5,-97.5 556.5,-97.5 556.5,-67.5 441.5,-67.5"/>
<text text-anchor="start" x="449.5" y="-85.5" font-family="Helvetica,sans-Serif" font-size="10.00" fill="#000000">src/libaktualizr/primary</text>
<text text-anchor="middle" x="499" y="-74.5" font-family="Helvetica,sans-Serif" font-size="10.00" fill="#000000">/aktualizr_helpers.h</text>
</a>
</g>
</g>
<!-- Node60&#45;&gt;Node80 -->
<g id="edge23" class="edge">
<title>Node60&#45;&gt;Node80</title>
<path fill="none" stroke="#191970" d="M729.3675,-138.5458C677.2788,-125.8732 606.0546,-108.5452 556.6498,-96.5256"/>
<polygon fill="#191970" stroke="#191970" points="728.6453,-141.9721 739.1893,-140.9353 730.3001,-135.1705 728.6453,-141.9721"/>
</g>
<!-- Node60&#45;&gt;Node82 -->
<g id="edge33" class="edge">
<title>Node60&#45;&gt;Node82</title>
<path fill="none" stroke="#191970" d="M854.5591,-136.9349C899.8569,-122.7181 961.2008,-103.4651 997.487,-92.0766"/>
<polygon fill="#191970" stroke="#191970" points="853.3564,-133.644 844.8633,-139.978 855.4526,-140.3228 853.3564,-133.644"/>
</g>
<!-- Node60&#45;&gt;Node83 -->
<g id="edge34" class="edge">
<title>Node60&#45;&gt;Node83</title>
<path fill="none" stroke="#191970" d="M864.6467,-142.4704C925.6854,-131.098 1017.9166,-113.7482 1098,-98 1107.6455,-96.1032 1117.9699,-94.0278 1127.8017,-92.0299"/>
<polygon fill="#191970" stroke="#191970" points="863.9405,-139.0417 854.7501,-144.3129 865.2217,-145.9234 863.9405,-139.0417"/>
</g>
<!-- Node63 -->
<g id="node5" class="node">
<title>Node63</title>
<g id="a_node5"><a xlink:href="aktualizr__secondary_2uptane__test_8cc_source.html" target="_top" xlink:title="src/aktualizr_secondary\l/uptane_test.cc">
<polygon fill="#ffffff" stroke="#000000" points="1936,-.5 1936,-30.5 2056,-30.5 2056,-.5 1936,-.5"/>
<text text-anchor="start" x="1944" y="-18.5" font-family="Helvetica,sans-Serif" font-size="10.00" fill="#000000">src/aktualizr_secondary</text>
<text text-anchor="middle" x="1996" y="-7.5" font-family="Helvetica,sans-Serif" font-size="10.00" fill="#000000">/uptane_test.cc</text>
</a>
</g>
</g>
<!-- Node62&#45;&gt;Node63 -->
<g id="edge4" class="edge">
<title>Node62&#45;&gt;Node63</title>
<path fill="none" stroke="#191970" d="M1450.9931,-78.2495C1560.1454,-71.8353 1758.9641,-57.5147 1927,-31 1929.9106,-30.5407 1932.882,-30.0313 1935.877,-29.4853"/>
<polygon fill="#191970" stroke="#191970" points="1450.4945,-74.7725 1440.7139,-78.8457 1450.8998,-81.7607 1450.4945,-74.7725"/>
</g>
<!-- Node62&#45;&gt;Node64 -->
<g id="edge5" class="edge">
<title>Node62&#45;&gt;Node64</title>
<path fill="none" stroke="#191970" d="M1354.9297,-65.0423C1346.2958,-54.33 1335.353,-40.7528 1327.1071,-30.5218"/>
<polygon fill="#191970" stroke="#191970" points="1352.2627,-67.3109 1361.2631,-72.9005 1357.7129,-62.9182 1352.2627,-67.3109"/>
</g>
<!-- Node62&#45;&gt;Node65 -->
<g id="edge6" class="edge">
<title>Node62&#45;&gt;Node65</title>
<path fill="none" stroke="#191970" d="M1311.9414,-71.2219C1302.3106,-69.6042 1292.3925,-68.1137 1283,-67 1007.5785,-34.3431 934.5383,-70.3977 660,-31 656.9273,-30.5591 653.7876,-30.0478 650.6263,-29.485"/>
<polygon fill="#191970" stroke="#191970" points="1311.3877,-74.6781 1321.8396,-72.9434 1312.5872,-67.7816 1311.3877,-74.6781"/>
</g>
<!-- Node62&#45;&gt;Node66 -->
<g id="edge7" class="edge">
<title>Node62&#45;&gt;Node66</title>
<path fill="none" stroke="#191970" d="M1311.2812,-71.2387C1301.855,-69.6471 1292.1742,-68.1605 1283,-67 1066.3616,-39.5961 1008.9016,-63.7056 793,-31 789.9308,-30.5351 786.794,-30.0047 783.6349,-29.427"/>
<polygon fill="#191970" stroke="#191970" points="1310.9214,-74.7286 1321.3736,-72.9965 1312.1225,-67.8324 1310.9214,-74.7286"/>
</g>
<!-- Node62&#45;&gt;Node67 -->
<g id="edge8" class="edge">
<title>Node62&#45;&gt;Node67</title>
<path fill="none" stroke="#191970" d="M1309.5912,-71.2442C1300.6946,-69.7179 1291.6179,-68.2495 1283,-67 1138.3016,-46.0205 1100.608,-52.5944 956,-31 952.8475,-30.5292 949.6313,-30.0249 946.3856,-29.4963"/>
<polygon fill="#191970" stroke="#191970" points="1309.0713,-74.7063 1319.5252,-72.9835 1310.2786,-67.8112 1309.0713,-74.7063"/>
</g>
<!-- Node62&#45;&gt;Node68 -->
<g id="edge9" class="edge">
<title>Node62&#45;&gt;Node68</title>
<path fill="none" stroke="#191970" d="M1306.1592,-71.1678C1237.2574,-58.6875 1131.1476,-39.2907 1091,-31 1087.9169,-30.3633 1084.7586,-29.6961 1081.5722,-29.0111"/>
<polygon fill="#191970" stroke="#191970" points="1305.5793,-74.6196 1316.0428,-72.9568 1306.8261,-67.7316 1305.5793,-74.6196"/>
</g>
<!-- Node62&#45;&gt;Node69 -->
<g id="edge10" class="edge">
<title>Node62&#45;&gt;Node69</title>
<path fill="none" stroke="#191970" d="M1329.9869,-69.7494C1295.8001,-58.5761 1246.0699,-42.3229 1209.9621,-30.5218"/>
<polygon fill="#191970" stroke="#191970" points="1329.0359,-73.1207 1339.6285,-72.9005 1331.2106,-66.4671 1329.0359,-73.1207"/>
</g>
<!-- Node70 -->
<g id="node12" class="node">
<title>Node70</title>
<g id="a_node12"><a xlink:href="uptane__key__test_8cc_source.html" target="_top" xlink:title="src/libaktualizr/primary\l/uptane_key_test.cc">
<polygon fill="#ffffff" stroke="#000000" points="2074.5,-.5 2074.5,-30.5 2189.5,-30.5 2189.5,-.5 2074.5,-.5"/>
<text text-anchor="start" x="2082.5" y="-18.5" font-family="Helvetica,sans-Serif" font-size="10.00" fill="#000000">src/libaktualizr/primary</text>
<text text-anchor="middle" x="2132" y="-7.5" font-family="Helvetica,sans-Serif" font-size="10.00" fill="#000000">/uptane_key_test.cc</text>
</a>
</g>
</g>
<!-- Node62&#45;&gt;Node70 -->
<g id="edge11" class="edge">
<title>Node62&#45;&gt;Node70</title>
<path fill="none" stroke="#191970" d="M1450.8543,-80.5089C1581.4129,-76.4219 1844.5624,-64.4516 2065,-31 2068.069,-30.5343 2071.2058,-30.0033 2074.3648,-29.425"/>
<polygon fill="#191970" stroke="#191970" points="1450.4309,-77.0201 1440.5425,-80.8238 1450.6447,-84.0168 1450.4309,-77.0201"/>
</g>
<!-- Node71 -->
<g id="node13" class="node">
<title>Node71</title>
<g id="a_node13"><a xlink:href="uptane__ci__test_8cc_source.html" target="_top" xlink:title="src/libaktualizr/uptane\l/uptane_ci_test.cc">
<polygon fill="#ffffff" stroke="#000000" points="1402,-.5 1402,-30.5 1514,-30.5 1514,-.5 1402,-.5"/>
<text text-anchor="start" x="1410" y="-18.5" font-family="Helvetica,sans-Serif" font-size="10.00" fill="#000000">src/libaktualizr/uptane</text>
<text text-anchor="middle" x="1458" y="-7.5" font-family="Helvetica,sans-Serif" font-size="10.00" fill="#000000">/uptane_ci_test.cc</text>
</a>
</g>
</g>
<!-- Node62&#45;&gt;Node71 -->
<g id="edge12" class="edge">
<title>Node62&#45;&gt;Node71</title>
<path fill="none" stroke="#191970" d="M1390.1057,-66.6115C1404.6232,-55.6825 1423.7825,-41.2592 1438.0457,-30.5218"/>
<polygon fill="#191970" stroke="#191970" points="1387.6357,-64.0899 1381.7515,-72.9005 1391.8458,-69.6824 1387.6357,-64.0899"/>
</g>
<!-- Node62&#45;&gt;Node72 -->
<g id="edge13" class="edge">
<title>Node62&#45;&gt;Node72</title>
<path fill="none" stroke="#191970" d="M1294.7676,-71.7022C1279.9649,-69.8679 1264.5102,-68.1781 1250,-67 759.3545,-27.1627 631.9034,-88.3891 143,-31 140.0577,-30.6546 137.0598,-30.2541 134.0376,-29.8106"/>
<polygon fill="#191970" stroke="#191970" points="1294.5299,-75.2001 1304.8918,-72.9907 1295.4137,-68.2561 1294.5299,-75.2001"/>
</g>
<!-- Node73 -->
<g id="node15" class="node">
<title>Node73</title>
<g id="a_node15"><a xlink:href="uptane__network__test_8cc.html" target="_top" xlink:title="Check that aktualizr can complete provisioning after encountering various network issues...">
<polygon fill="#ffffff" stroke="#000000" points="1532,-.5 1532,-30.5 1656,-30.5 1656,-.5 1532,-.5"/>
<text text-anchor="start" x="1540" y="-18.5" font-family="Helvetica,sans-Serif" font-size="10.00" fill="#000000">src/libaktualizr/uptane</text>
<text text-anchor="middle" x="1594" y="-7.5" font-family="Helvetica,sans-Serif" font-size="10.00" fill="#000000">/uptane_network_test.cc</text>
</a>
</g>
</g>
<!-- Node62&#45;&gt;Node73 -->
<g id="edge14" class="edge">
<title>Node62&#45;&gt;Node73</title>
<path fill="none" stroke="#191970" d="M1410.8568,-70.036C1448.4033,-58.8555 1503.5831,-42.4242 1543.5538,-30.5218"/>
<polygon fill="#191970" stroke="#191970" points="1409.8222,-66.6921 1401.237,-72.9005 1411.82,-73.401 1409.8222,-66.6921"/>
</g>
<!-- Node74 -->
<g id="node16" class="node">
<title>Node74</title>
<g id="a_node16"><a xlink:href="uptane__serial__test_8cc_source.html" target="_top" xlink:title="src/libaktualizr/uptane\l/uptane_serial_test.cc">
<polygon fill="#ffffff" stroke="#000000" points="1674.5,-.5 1674.5,-30.5 1787.5,-30.5 1787.5,-.5 1674.5,-.5"/>
<text text-anchor="start" x="1682.5" y="-18.5" font-family="Helvetica,sans-Serif" font-size="10.00" fill="#000000">src/libaktualizr/uptane</text>
<text text-anchor="middle" x="1731" y="-7.5" font-family="Helvetica,sans-Serif" font-size="10.00" fill="#000000">/uptane_serial_test.cc</text>
</a>
</g>
</g>
<!-- Node62&#45;&gt;Node74 -->
<g id="edge15" class="edge">
<title>Node62&#45;&gt;Node74</title>
<path fill="none" stroke="#191970" d="M1439.9925,-71.3434C1500.0914,-61.6131 1588.427,-46.639 1665,-31 1667.9983,-30.3876 1671.0684,-29.7398 1674.1647,-29.0699"/>
<polygon fill="#191970" stroke="#191970" points="1439.1685,-67.931 1429.8534,-72.9786 1440.2831,-74.8417 1439.1685,-67.931"/>
</g>
<!-- Node75 -->
<g id="node17" class="node">
<title>Node75</title>
<g id="a_node17"><a xlink:href="libaktualizr_2uptane_2uptane__test_8cc_source.html" target="_top" xlink:title="src/libaktualizr/uptane\l/uptane_test.cc">
<polygon fill="#ffffff" stroke="#000000" points="1806,-.5 1806,-30.5 1918,-30.5 1918,-.5 1806,-.5"/>
<text text-anchor="start" x="1814" y="-18.5" font-family="Helvetica,sans-Serif" font-size="10.00" fill="#000000">src/libaktualizr/uptane</text>
<text text-anchor="middle" x="1862" y="-7.5" font-family="Helvetica,sans-Serif" font-size="10.00" fill="#000000">/uptane_test.cc</text>
</a>
</g>
</g>
<!-- Node62&#45;&gt;Node75 -->
<g id="edge16" class="edge">
<title>Node62&#45;&gt;Node75</title>
<path fill="none" stroke="#191970" d="M1450.5641,-75.4839C1536.9865,-67.3978 1677.2341,-52.4129 1797,-31 1799.855,-30.4896 1802.7723,-29.931 1805.7124,-29.3386"/>
<polygon fill="#191970" stroke="#191970" points="1450.1906,-72.0034 1440.5565,-76.4119 1450.837,-78.9735 1450.1906,-72.0034"/>
</g>
<!-- Node77&#45;&gt;Node76 -->
<g id="edge19" class="edge">
<title>Node77&#45;&gt;Node76</title>
<path fill="none" stroke="#191970" d="M331,-57.0249C331,-48.128 331,-38.4287 331,-30.6432"/>
<polygon fill="#191970" stroke="#191970" points="327.5001,-57.2966 331,-67.2967 334.5001,-57.2967 327.5001,-57.2966"/>
</g>
<!-- Node78 -->
<g id="node20" class="node">
<title>Node78</title>
<g id="a_node20"><a xlink:href="secondary_8cc_source.html" target="_top" xlink:title="src/aktualizr_primary\l/secondary.cc">
<polygon fill="#ffffff" stroke="#000000" points="152.5,-.5 152.5,-30.5 259.5,-30.5 259.5,-.5 152.5,-.5"/>
<text text-anchor="start" x="160.5" y="-18.5" font-family="Helvetica,sans-Serif" font-size="10.00" fill="#000000">src/aktualizr_primary</text>
<text text-anchor="middle" x="206" y="-7.5" font-family="Helvetica,sans-Serif" font-size="10.00" fill="#000000">/secondary.cc</text>
</a>
</g>
</g>
<!-- Node77&#45;&gt;Node78 -->
<g id="edge20" class="edge">
<title>Node77&#45;&gt;Node78</title>
<path fill="none" stroke="#191970" d="M293.9387,-62.6352C274.8844,-52.422 252.0265,-40.1702 234.3913,-30.7177"/>
<polygon fill="#191970" stroke="#191970" points="292.4803,-65.8245 302.9476,-67.4639 295.7873,-59.6549 292.4803,-65.8245"/>
</g>
<!-- Node80&#45;&gt;Node65 -->
<g id="edge26" class="edge">
<title>Node80&#45;&gt;Node65</title>
<path fill="none" stroke="#191970" d="M528.6775,-61.3469C542.6643,-51.3776 559.0308,-39.7121 571.7544,-30.6432"/>
<polygon fill="#191970" stroke="#191970" points="526.4418,-58.6423 520.3301,-67.2967 530.5047,-64.3426 526.4418,-58.6423"/>
</g>
<!-- Node80&#45;&gt;Node76 -->
<g id="edge24" class="edge">
<title>Node80&#45;&gt;Node76</title>
<path fill="none" stroke="#191970" d="M451.9286,-63.7275C425.6931,-53.2645 393.457,-40.4084 368.8669,-30.6017"/>
<polygon fill="#191970" stroke="#191970" points="450.7124,-67.0105 461.2975,-67.4639 453.3055,-60.5085 450.7124,-67.0105"/>
</g>
<!-- Node81 -->
<g id="node23" class="node">
<title>Node81</title>
<g id="a_node23"><a xlink:href="aktualizr__helpers_8cc_source.html" target="_top" xlink:title="src/libaktualizr/primary\l/aktualizr_helpers.cc">
<polygon fill="#ffffff" stroke="#000000" points="402.5,-.5 402.5,-30.5 517.5,-30.5 517.5,-.5 402.5,-.5"/>
<text text-anchor="start" x="410.5" y="-18.5" font-family="Helvetica,sans-Serif" font-size="10.00" fill="#000000">src/libaktualizr/primary</text>
<text text-anchor="middle" x="460" y="-7.5" font-family="Helvetica,sans-Serif" font-size="10.00" fill="#000000">/aktualizr_helpers.cc</text>
</a>
</g>
</g>
<!-- Node80&#45;&gt;Node81 -->
<g id="edge25" class="edge">
<title>Node80&#45;&gt;Node81</title>
<path fill="none" stroke="#191970" d="M485.0204,-58.4837C479.6162,-49.1996 473.5956,-38.8565 468.8147,-30.6432"/>
<polygon fill="#191970" stroke="#191970" points="482.0947,-60.4149 490.1503,-67.2967 488.1444,-56.8934 482.0947,-60.4149"/>
</g>
<!-- Node84&#45;&gt;Node60 -->
<g id="edge41" class="edge">
<title>Node84&#45;&gt;Node60</title>
<path fill="none" stroke="#191970" d="M1495.973,-221.0698C1346.8609,-206.9751 993.4794,-173.572 854.5332,-160.4383"/>
<polygon fill="#191970" stroke="#191970" points="1496.0653,-224.5941 1506.3503,-222.0507 1496.7241,-217.6251 1496.0653,-224.5941"/>
</g>
<!-- Node84&#45;&gt;Node62 -->
<g id="edge36" class="edge">
<title>Node84&#45;&gt;Node62</title>
<path fill="none" stroke="#191970" d="M1513.5949,-208.5427C1494.3315,-200.0839 1472.7478,-189.0567 1455,-176 1420.7129,-150.7757 1389.2441,-110.4419 1375.8321,-92.1177"/>
<polygon fill="#191970" stroke="#191970" points="1512.2668,-211.7813 1522.8382,-212.4866 1515.014,-205.3428 1512.2668,-211.7813"/>
</g>
<!-- Node84&#45;&gt;Node63 -->
<g id="edge39" class="edge">
<title>Node84&#45;&gt;Node63</title>
<path fill="none" stroke="#191970" d="M1631.9742,-221.7628C1700.5804,-214.6978 1800.4875,-200.5141 1830,-176 1870.0604,-142.7244 1836.5598,-104.205 1873,-67 1890.0089,-49.6341 1913.7572,-37.85 1935.8552,-29.9902"/>
<polygon fill="#191970" stroke="#191970" points="1631.2711,-218.3156 1621.6698,-222.795 1631.9689,-225.2808 1631.2711,-218.3156"/>
</g>
<!-- Node84&#45;&gt;Node65 -->
<g id="edge42" class="edge">
<title>Node84&#45;&gt;Node65</title>
<path fill="none" stroke="#191970" d="M1496.443,-209.6628C1468.1359,-201.0933 1435.2975,-189.6875 1407,-176 1350.4064,-148.6256 1339.8776,-134.9278 1289,-98 1271.0805,-84.9937 1270.6734,-74.9299 1250,-67 1127.358,-19.9567 789.9927,-49.8683 660,-31 656.928,-30.5541 653.7889,-30.0389 650.628,-29.4731"/>
<polygon fill="#191970" stroke="#191970" points="1495.6691,-213.084 1506.2517,-212.5748 1497.6613,-206.3735 1495.6691,-213.084"/>
</g>
<!-- Node84&#45;&gt;Node70 -->
<g id="edge45" class="edge">
<title>Node84&#45;&gt;Node70</title>
<path fill="none" stroke="#191970" d="M1631.7346,-219.3703C1704.6064,-209.9391 1815.2549,-193.4392 1854,-176 1881.4068,-163.6641 1881.8179,-150.4064 1907,-134 1972.1038,-91.5841 2054.0375,-51.4803 2098.8883,-30.5576"/>
<polygon fill="#191970" stroke="#191970" points="1631.1886,-215.9116 1621.7142,-220.6536 1632.0778,-222.8549 1631.1886,-215.9116"/>
</g>
<!-- Node84&#45;&gt;Node71 -->
<g id="edge46" class="edge">
<title>Node84&#45;&gt;Node71</title>
<path fill="none" stroke="#191970" d="M1538.9241,-205.289C1530.4472,-196.7852 1521.4953,-186.5731 1515,-176 1484.9726,-127.1215 1467.7215,-60.1526 1461.1268,-30.5815"/>
<polygon fill="#191970" stroke="#191970" points="1536.551,-207.8629 1546.1774,-212.2883 1541.4118,-202.8257 1536.551,-207.8629"/>
</g>
<!-- Node84&#45;&gt;Node73 -->
<g id="edge48" class="edge">
<title>Node84&#45;&gt;Node73</title>
<path fill="none" stroke="#191970" d="M1545.1428,-204.2678C1539.4433,-195.8686 1533.9243,-185.9839 1531,-176 1517.3826,-129.5088 1510.2452,-110.7733 1531,-67 1538.2628,-51.6823 1552.5595,-39.409 1565.7,-30.6917"/>
<polygon fill="#191970" stroke="#191970" points="1542.3481,-206.376 1551.0465,-212.4249 1548.0188,-202.2719 1542.3481,-206.376"/>
</g>
<!-- Node84&#45;&gt;Node74 -->
<g id="edge49" class="edge">
<title>Node84&#45;&gt;Node74</title>
<path fill="none" stroke="#191970" d="M1556.7249,-202.6899C1548.3142,-168.4599 1539.1477,-106.5085 1569,-67 1575.6718,-58.1702 1630.1433,-42.0067 1674.1088,-30.1351"/>
<polygon fill="#191970" stroke="#191970" points="1553.3411,-203.5847 1559.2668,-212.3675 1560.1115,-201.8064 1553.3411,-203.5847"/>
</g>
<!-- Node84&#45;&gt;Node75 -->
<g id="edge50" class="edge">
<title>Node84&#45;&gt;Node75</title>
<path fill="none" stroke="#191970" d="M1569.1045,-202.3889C1574.443,-181.7611 1584.6794,-152.953 1603,-134 1634.6176,-101.2911 1754.5847,-54.3839 1819.5652,-30.586"/>
<polygon fill="#191970" stroke="#191970" points="1565.6479,-201.7966 1566.7424,-212.3347 1572.4585,-203.4141 1565.6479,-201.7966"/>
</g>
<!-- Node84&#45;&gt;Node82 -->
<g id="edge51" class="edge">
<title>Node84&#45;&gt;Node82</title>
<path fill="none" stroke="#191970" d="M1496.3261,-224.6961C1422.9694,-220.0812 1303.226,-207.9239 1205,-176 1140.2193,-154.946 1070.8799,-111.3229 1041.9356,-92.0312"/>
<polygon fill="#191970" stroke="#191970" points="1496.1704,-228.193 1506.3621,-225.2985 1496.5898,-221.2055 1496.1704,-228.193"/>
</g>
<!-- Node84&#45;&gt;Node83 -->
<g id="edge52" class="edge">
<title>Node84&#45;&gt;Node83</title>
<path fill="none" stroke="#191970" d="M1495.9599,-221.5735C1417.8241,-213.8349 1295.2351,-198.5602 1255,-176 1218.2834,-155.4126 1190.3084,-111.5417 1179.212,-92.1081"/>
<polygon fill="#191970" stroke="#191970" points="1495.9121,-225.0853 1506.204,-222.5702 1496.59,-218.1182 1495.9121,-225.0853"/>
</g>
<!-- Node85 -->
<g id="node27" class="node">
<title>Node85</title>
<g id="a_node27"><a xlink:href="uptane__vector__tests_8cc_source.html" target="_top" xlink:title="tests/uptane_vector\l_tests.cc">
<polygon fill="#ffffff" stroke="#000000" points="1611.5,-140 1611.5,-170 1714.5,-170 1714.5,-140 1611.5,-140"/>
<text text-anchor="start" x="1619.5" y="-158" font-family="Helvetica,sans-Serif" font-size="10.00" fill="#000000">tests/uptane_vector</text>
<text text-anchor="middle" x="1663" y="-147" font-family="Helvetica,sans-Serif" font-size="10.00" fill="#000000">_tests.cc</text>
</a>
</g>
</g>
<!-- Node84&#45;&gt;Node85 -->
<g id="edge37" class="edge">
<title>Node84&#45;&gt;Node85</title>
<path fill="none" stroke="#191970" d="M1592.9389,-206.3074C1608.8399,-194.6627 1628.1835,-180.4969 1642.5134,-170.0028"/>
<polygon fill="#191970" stroke="#191970" points="1590.5129,-203.7458 1584.5129,-212.478 1594.6487,-209.3934 1590.5129,-203.7458"/>
</g>
<!-- Node86 -->
<g id="node28" class="node">
<title>Node86</title>
<g id="a_node28"><a xlink:href="aktualizr__lite_2main_8cc_source.html" target="_top" xlink:title="src/aktualizr_lite\l/main.cc">
<polygon fill="#ffffff" stroke="#000000" points="1733,-140 1733,-170 1821,-170 1821,-140 1733,-140"/>
<text text-anchor="start" x="1741" y="-158" font-family="Helvetica,sans-Serif" font-size="10.00" fill="#000000">src/aktualizr_lite</text>
<text text-anchor="middle" x="1777" y="-147" font-family="Helvetica,sans-Serif" font-size="10.00" fill="#000000">/main.cc</text>
</a>
</g>
</g>
<!-- Node84&#45;&gt;Node86 -->
<g id="edge38" class="edge">
<title>Node84&#45;&gt;Node86</title>
<path fill="none" stroke="#191970" d="M1623.2323,-209.4568C1653.5343,-199.9683 1690.9108,-187.8662 1724,-176 1729.124,-174.1625 1734.4927,-172.1452 1739.7644,-170.1102"/>
<polygon fill="#191970" stroke="#191970" points="1622.162,-206.1243 1613.6569,-212.4421 1624.2455,-212.807 1622.162,-206.1243"/>
</g>
<!-- Node87 -->
<g id="node29" class="node">
<title>Node87</title>
<g id="a_node29"><a xlink:href="dockerappmanager__test_8cc_source.html" target="_top" xlink:title="src/libaktualizr/package\l_manager/dockerappmanager\l_test.cc">
<polygon fill="#ffffff" stroke="#000000" points="1915.5,-134.5 1915.5,-175.5 2060.5,-175.5 2060.5,-134.5 1915.5,-134.5"/>
<text text-anchor="start" x="1923.5" y="-163.5" font-family="Helvetica,sans-Serif" font-size="10.00" fill="#000000">src/libaktualizr/package</text>
<text text-anchor="start" x="1923.5" y="-152.5" font-family="Helvetica,sans-Serif" font-size="10.00" fill="#000000">_manager/dockerappmanager</text>
<text text-anchor="middle" x="1988" y="-141.5" font-family="Helvetica,sans-Serif" font-size="10.00" fill="#000000">_test.cc</text>
</a>
</g>
</g>
<!-- Node84&#45;&gt;Node87 -->
<g id="edge40" class="edge">
<title>Node84&#45;&gt;Node87</title>
<path fill="none" stroke="#191970" d="M1631.6897,-218.882C1699.9469,-209.7872 1808.201,-194.2561 1901,-176 1905.7262,-175.0702 1910.5835,-174.0577 1915.4708,-172.9961"/>
<polygon fill="#191970" stroke="#191970" points="1630.9554,-215.4486 1621.5015,-220.2313 1631.8745,-222.388 1630.9554,-215.4486"/>
</g>
<!-- Node88 -->
<g id="node30" class="node">
<title>Node88</title>
<g id="a_node30"><a xlink:href="device__cred__prov__test_8cc.html" target="_top" xlink:title="src/libaktualizr/primary\l/device_cred_prov_test.cc">
<polygon fill="#ffffff" stroke="#000000" points="2078.5,-140 2078.5,-170 2209.5,-170 2209.5,-140 2078.5,-140"/>
<text text-anchor="start" x="2086.5" y="-158" font-family="Helvetica,sans-Serif" font-size="10.00" fill="#000000">src/libaktualizr/primary</text>
<text text-anchor="middle" x="2144" y="-147" font-family="Helvetica,sans-Serif" font-size="10.00" fill="#000000">/device_cred_prov_test.cc</text>
</a>
</g>
</g>
<!-- Node84&#45;&gt;Node88 -->
<g id="edge43" class="edge">
<title>Node84&#45;&gt;Node88</title>
<path fill="none" stroke="#191970" d="M1631.7935,-224.3764C1729.393,-219.0276 1914.8258,-205.6776 2070,-176 2078.3947,-174.3945 2087.2171,-172.2792 2095.7286,-170.0094"/>
<polygon fill="#191970" stroke="#191970" points="1631.5648,-220.8835 1621.7668,-224.9145 1631.94,-227.8734 1631.5648,-220.8835"/>
</g>
<!-- Node89 -->
<g id="node31" class="node">
<title>Node89</title>
<g id="a_node31"><a xlink:href="sotauptaneclient_8cc_source.html" target="_top" xlink:title="src/libaktualizr/primary\l/sotauptaneclient.cc">
<polygon fill="#ffffff" stroke="#000000" points="2227.5,-140 2227.5,-170 2342.5,-170 2342.5,-140 2227.5,-140"/>
<text text-anchor="start" x="2235.5" y="-158" font-family="Helvetica,sans-Serif" font-size="10.00" fill="#000000">src/libaktualizr/primary</text>
<text text-anchor="middle" x="2285" y="-147" font-family="Helvetica,sans-Serif" font-size="10.00" fill="#000000">/sotauptaneclient.cc</text>
</a>
</g>
</g>
<!-- Node84&#45;&gt;Node89 -->
<g id="edge44" class="edge">
<title>Node84&#45;&gt;Node89</title>
<path fill="none" stroke="#191970" d="M1631.7689,-224.1482C1775.7391,-216.7048 2107.9728,-197.7281 2219,-176 2226.7883,-174.4758 2234.9477,-172.3417 2242.769,-170.0135"/>
<polygon fill="#191970" stroke="#191970" points="1631.5411,-220.6552 1621.734,-224.6641 1631.9006,-227.646 1631.5411,-220.6552"/>
</g>
<!-- Node90 -->
<g id="node32" class="node">
<title>Node90</title>
<g id="a_node32"><a xlink:href="uptane__init__test_8cc_source.html" target="_top" xlink:title="src/libaktualizr/uptane\l/uptane_init_test.cc">
<polygon fill="#ffffff" stroke="#000000" points="2361,-140 2361,-170 2473,-170 2473,-140 2361,-140"/>
<text text-anchor="start" x="2369" y="-158" font-family="Helvetica,sans-Serif" font-size="10.00" fill="#000000">src/libaktualizr/uptane</text>
<text text-anchor="middle" x="2417" y="-147" font-family="Helvetica,sans-Serif" font-size="10.00" fill="#000000">/uptane_init_test.cc</text>
</a>
</g>
</g>
<!-- Node84&#45;&gt;Node90 -->
<g id="edge47" class="edge">
<title>Node84&#45;&gt;Node90</title>
<path fill="none" stroke="#191970" d="M1631.6752,-225.2261C1796.4007,-219.3453 2214.744,-202.2373 2352,-176 2359.6878,-174.5304 2367.7319,-172.4228 2375.4377,-170.1038"/>
<polygon fill="#191970" stroke="#191970" points="1631.5367,-221.7287 1621.6669,-225.5807 1631.7846,-228.7244 1631.5367,-221.7287"/>
</g>
</g>
</svg>
        <g id="navigator" transform="translate(0 0)" fill="#404254">
                <rect fill="#f2f5e9" fill-opacity="0.5" stroke="#606060" stroke-width=".5" x="0" y="0" width="60" height="60"/>
                <use id="zoomplus" xlink:href="#zoomPlus" x="17" y="9" onmousedown="handleZoom(evt,'in')"/>
                <use id="zoomminus" xlink:href="#zoomMin" x="42" y="9" onmousedown="handleZoom(evt,'out')"/>
                <use id="reset" xlink:href="#resetDef" x="30" y="36" onmousedown="handleReset()"/>
                <g id="arrowUp" xlink:href="#dirArrow" transform="translate(30 24)" onmousedown="handlePan(0,-1)">
                  <use xlink:href="#rim" fill="#404040">
                        <set attributeName="fill" to="#808080" begin="arrowUp.mouseover" end="arrowUp.mouseout"/>
                  </use>
                  <path fill="none" stroke="white" stroke-width="1.5" d="M0,-3.0v7 M-2.5,-0.5L0,-3.0L2.5,-0.5"/>
                </g>
                <g id="arrowRight" xlink:href="#dirArrow" transform="rotate(90) translate(36 -43)" onmousedown="handlePan(1,0)">
                  <use xlink:href="#rim" fill="#404040">
                        <set attributeName="fill" to="#808080" begin="arrowRight.mouseover" end="arrowRight.mouseout"/>
                  </use>
                  <path fill="none" stroke="white" stroke-width="1.5" d="M0,-3.0v7 M-2.5,-0.5L0,-3.0L2.5,-0.5"/>
                </g>
                <g id="arrowDown" xlink:href="#dirArrow" transform="rotate(180) translate(-30 -48)" onmousedown="handlePan(0,1)">
                  <use xlink:href="#rim" fill="#404040">
                        <set attributeName="fill" to="#808080" begin="arrowDown.mouseover" end="arrowDown.mouseout"/>
                  </use>
                  <path fill="none" stroke="white" stroke-width="1.5" d="M0,-3.0v7 M-2.5,-0.5L0,-3.0L2.5,-0.5"/>
                </g>
                <g id="arrowLeft" xlink:href="#dirArrow" transform="rotate(270) translate(-36 17)" onmousedown="handlePan(-1,0)">
                  <use xlink:href="#rim" fill="#404040">
                        <set attributeName="fill" to="#808080" begin="arrowLeft.mouseover" end="arrowLeft.mouseout"/>
                  </use>
                  <path fill="none" stroke="white" stroke-width="1.5" d="M0,-3.0v7 M-2.5,-0.5L0,-3.0L2.5,-0.5"/>
                </g>
        </g>
        <svg viewBox="0 0 15 15" width="100%" height="30px" preserveAspectRatio="xMaxYMin meet">
         <g id="arrow_out" transform="scale(0.3 0.3)">
          <a xlink:href="events_8h__dep__incl_org.svg" target="_base">
           <rect id="button" ry="5" rx="5" y="6" x="6" height="38" width="38"
                fill="#f2f5e9" fill-opacity="0.5" stroke="#606060" stroke-width="1.0"/>
           <path id="arrow"
             d="M 11.500037,31.436501 C 11.940474,20.09759 22.043105,11.32322 32.158766,21.979434 L 37.068811,17.246167 C 37.068811,17.246167 37.088388,32 37.088388,32 L 22.160133,31.978069 C 22.160133,31.978069 26.997745,27.140456 26.997745,27.140456 C 18.528582,18.264221 13.291696,25.230495 11.500037,31.436501 z"
             style="fill:#404040;"/>
          </a>
         </g>
        </svg>
</svg>
