<?xml version="1.0" encoding="UTF-8" standalone="no"?>
<!DOCTYPE svg PUBLIC "-//W3C//DTD SVG 1.1//EN"
 "http://www.w3.org/Graphics/SVG/1.1/DTD/svg11.dtd">
<!-- Generated by graphviz version 2.40.1 (20161225.0304)
 -->
<!-- Title: Graphical Class Hierarchy Pages: 1 -->
<svg width="239pt" height="142pt"
 viewBox="0.00 0.00 239.00 142.00" xmlns="http://www.w3.org/2000/svg" xmlns:xlink="http://www.w3.org/1999/xlink">
<g id="graph0" class="graph" transform="scale(1 1) rotate(0) translate(4 138)">
<title>Graphical Class Hierarchy</title>
<polygon fill="#ffffff" stroke="transparent" points="-4,4 -4,-138 235,-138 235,4 -4,4"/>
<!-- Node26 -->
<g id="node1" class="node">
<title>Node26</title>
<polygon fill="#ffffff" stroke="#bfbfbf" points="0,-57.5 0,-76.5 36,-76.5 36,-57.5 0,-57.5"/>
<text text-anchor="middle" x="18" y="-64.5" font-family="Helvetica,sans-Serif" font-size="10.00" fill="#000000">Test</text>
</g>
<!-- Node0 -->
<g id="node2" class="node">
<title>Node0</title>
<g id="a_node2"><a xlink:href="class_aktualizr_cert_provider_test.html" target="_top" xlink:title="AktualizrCertProviderTest">
<polygon fill="#ffffff" stroke="#000000" points="87,-114.5 87,-133.5 216,-133.5 216,-114.5 87,-114.5"/>
<text text-anchor="middle" x="151.5" y="-121.5" font-family="Helvetica,sans-Serif" font-size="10.00" fill="#000000">AktualizrCertProviderTest</text>
</a>
</g>
</g>
<!-- Node26&#45;&gt;Node0 -->
<g id="edge1" class="edge">
<title>Node26&#45;&gt;Node0</title>
<path fill="none" stroke="#191970" d="M37.1325,-83.1587C47.0001,-90.7675 59.5543,-99.3838 72,-105 80.4076,-108.794 89.671,-111.8863 98.8135,-114.3885"/>
<polygon fill="#191970" stroke="#191970" points="39.2184,-80.3453 29.2229,-76.8323 34.846,-85.8118 39.2184,-80.3453"/>
</g>
<!-- Node28 -->
<g id="node3" class="node">
<title>Node28</title>
<g id="a_node3"><a xlink:href="class_aktualizr_info_test.html" target="_top" xlink:title="AktualizrInfoTest">
<polygon fill="#ffffff" stroke="#000000" points="106,-76.5 106,-95.5 197,-95.5 197,-76.5 106,-76.5"/>
<text text-anchor="middle" x="151.5" y="-83.5" font-family="Helvetica,sans-Serif" font-size="10.00" fill="#000000">AktualizrInfoTest</text>
</a>
</g>
</g>
<!-- Node26&#45;&gt;Node28 -->
<g id="edge2" class="edge">
<title>Node26&#45;&gt;Node28</title>
<path fill="none" stroke="#191970" d="M46.0504,-70.9922C63.4089,-73.4627 86.1016,-76.6924 105.9871,-79.5225"/>
<polygon fill="#191970" stroke="#191970" points="46.3978,-67.5064 36.0044,-69.5624 45.4115,-74.4366 46.3978,-67.5064"/>
</g>
<!-- Node29 -->
<g id="node4" class="node">
<title>Node29</title>
<g id="a_node4"><a xlink:href="class_partial_verification_secondary_test.html" target="_top" xlink:title="PartialVerificationSecondaryTest">
<polygon fill="#ffffff" stroke="#000000" points="72,-38.5 72,-57.5 231,-57.5 231,-38.5 72,-38.5"/>
<text text-anchor="middle" x="151.5" y="-45.5" font-family="Helvetica,sans-Serif" font-size="10.00" fill="#000000">PartialVerificationSecondaryTest</text>
</a>
</g>
</g>
<!-- Node26&#45;&gt;Node29 -->
<g id="edge3" class="edge">
<title>Node26&#45;&gt;Node29</title>
<path fill="none" stroke="#191970" d="M46.1033,-63.0003C57.4385,-61.387 71.0418,-59.451 84.6507,-57.5141"/>
<polygon fill="#191970" stroke="#191970" points="45.4115,-59.5634 36.0044,-64.4376 46.3978,-66.4936 45.4115,-59.5634"/>
</g>
<!-- Node30 -->
<g id="node5" class="node">
<title>Node30</title>
<g id="a_node5"><a xlink:href="class_virtual_secondary_test.html" target="_top" xlink:title="VirtualSecondaryTest">
<polygon fill="#ffffff" stroke="#000000" points="96.5,-.5 96.5,-19.5 206.5,-19.5 206.5,-.5 96.5,-.5"/>
<text text-anchor="middle" x="151.5" y="-7.5" font-family="Helvetica,sans-Serif" font-size="10.00" fill="#000000">VirtualSecondaryTest</text>
</a>
</g>
</g>
<!-- Node26&#45;&gt;Node30 -->
<g id="edge4" class="edge">
<title>Node26&#45;&gt;Node30</title>
<path fill="none" stroke="#191970" d="M37.1325,-50.8413C47.0001,-43.2325 59.5543,-34.6162 72,-29 80.4076,-25.206 89.671,-22.1137 98.8135,-19.6115"/>
<polygon fill="#191970" stroke="#191970" points="34.846,-48.1882 29.2229,-57.1677 39.2184,-53.6547 34.846,-48.1882"/>
</g>
</g>
</svg>
