<?xml version="1.0" encoding="UTF-8" standalone="no"?>
<!DOCTYPE svg PUBLIC "-//W3C//DTD SVG 1.1//EN"
 "http://www.w3.org/Graphics/SVG/1.1/DTD/svg11.dtd">
<!-- Generated by graphviz version 2.40.1 (20161225.0304)
 -->
<!-- Title: data::InstallationResult Pages: 1 -->
<svg width="213pt" height="230pt"
 viewBox="0.00 0.00 213.00 230.00" xmlns="http://www.w3.org/2000/svg" xmlns:xlink="http://www.w3.org/1999/xlink">
<g id="graph0" class="graph" transform="scale(1 1) rotate(0) translate(4 226)">
<title>data::InstallationResult</title>
<polygon fill="#ffffff" stroke="transparent" points="-4,4 -4,-226 209,-226 209,4 -4,4"/>
<!-- Node1 -->
<g id="node1" class="node">
<title>Node1</title>
<polygon fill="#bfbfbf" stroke="#000000" points="0,-.5 0,-19.5 117,-19.5 117,-.5 0,-.5"/>
<text text-anchor="middle" x="58.5" y="-7.5" font-family="Helvetica,sans-Serif" font-size="10.00" fill="#000000">data::InstallationResult</text>
</g>
<!-- Node2 -->
<g id="node2" class="node">
<title>Node2</title>
<g id="a_node2"><a xlink:href="structdata_1_1_result_code.html" target="_top" xlink:title="data::ResultCode">
<polygon fill="#ffffff" stroke="#000000" points="112,-67.5 112,-86.5 205,-86.5 205,-67.5 112,-67.5"/>
<text text-anchor="middle" x="158.5" y="-74.5" font-family="Helvetica,sans-Serif" font-size="10.00" fill="#000000">data::ResultCode</text>
</a>
</g>
</g>
<!-- Node2&#45;&gt;Node1 -->
<g id="edge1" class="edge">
<title>Node2&#45;&gt;Node1</title>
<path fill="none" stroke="#9a32cd" stroke-dasharray="5,2" d="M135.6438,-61.6864C116.3078,-48.7312 89.2004,-30.5693 72.801,-19.5817"/>
<polygon fill="#9a32cd" stroke="#9a32cd" points="133.9166,-64.742 144.1724,-67.4005 137.8129,-58.9266 133.9166,-64.742"/>
<text text-anchor="middle" x="140.5" y="-41" font-family="Helvetica,sans-Serif" font-size="10.00" fill="#000000"> result_code</text>
</g>
<!-- Node3 -->
<g id="node3" class="node">
<title>Node3</title>
<g id="a_node3"><a xlink:title="STL class. ">
<polygon fill="#ffffff" stroke="#bfbfbf" points="28.5,-134.5 28.5,-153.5 88.5,-153.5 88.5,-134.5 28.5,-134.5"/>
<text text-anchor="middle" x="58.5" y="-141.5" font-family="Helvetica,sans-Serif" font-size="10.00" fill="#000000">std::string</text>
</a>
</g>
</g>
<!-- Node3&#45;&gt;Node1 -->
<g id="edge4" class="edge">
<title>Node3&#45;&gt;Node1</title>
<path fill="none" stroke="#9a32cd" stroke-dasharray="5,2" d="M55.513,-124.0252C53.5367,-108.4922 51.482,-86.3948 52.5,-67 53.3762,-50.3061 55.6864,-30.9751 57.1711,-19.6577"/>
<polygon fill="#9a32cd" stroke="#9a32cd" points="52.061,-124.6143 56.8931,-134.043 58.9955,-123.6589 52.061,-124.6143"/>
<text text-anchor="middle" x="78" y="-74.5" font-family="Helvetica,sans-Serif" font-size="10.00" fill="#000000"> description</text>
</g>
<!-- Node3&#45;&gt;Node2 -->
<g id="edge2" class="edge">
<title>Node3&#45;&gt;Node2</title>
<path fill="none" stroke="#9a32cd" stroke-dasharray="5,2" d="M81.3562,-128.6864C100.6922,-115.7312 127.7996,-97.5693 144.199,-86.5817"/>
<polygon fill="#9a32cd" stroke="#9a32cd" points="79.1871,-125.9266 72.8276,-134.4005 83.0834,-131.742 79.1871,-125.9266"/>
<text text-anchor="middle" x="136.5" y="-108" font-family="Helvetica,sans-Serif" font-size="10.00" fill="#000000"> text_code</text>
</g>
<!-- Node4 -->
<g id="node4" class="node">
<title>Node4</title>
<g id="a_node4"><a xlink:title="STL class. ">
<polygon fill="#ffffff" stroke="#bfbfbf" points="11,-191.5 11,-221.5 106,-221.5 106,-191.5 11,-191.5"/>
<text text-anchor="start" x="19" y="-209.5" font-family="Helvetica,sans-Serif" font-size="10.00" fill="#000000">std::basic_string&lt;</text>
<text text-anchor="middle" x="58.5" y="-198.5" font-family="Helvetica,sans-Serif" font-size="10.00" fill="#000000"> char &gt;</text>
</a>
</g>
</g>
<!-- Node4&#45;&gt;Node3 -->
<g id="edge3" class="edge">
<title>Node4&#45;&gt;Node3</title>
<path fill="none" stroke="#191970" d="M58.5,-181.3498C58.5,-171.6481 58.5,-161.1303 58.5,-153.7356"/>
<polygon fill="#191970" stroke="#191970" points="55.0001,-181.3705 58.5,-191.3705 62.0001,-181.3705 55.0001,-181.3705"/>
</g>
</g>
</svg>
