<?xml version="1.0" encoding="UTF-8" standalone="no"?>
<!DOCTYPE svg PUBLIC "-//W3C//DTD SVG 1.1//EN"
 "http://www.w3.org/Graphics/SVG/1.1/DTD/svg11.dtd">
<!-- Generated by graphviz version 2.43.0 (0)
 -->
<!-- Title: result::Install::EcuReport Pages: 1 -->
<svg width="365pt" height="297pt"
 viewBox="0.00 0.00 364.50 297.00" xmlns="http://www.w3.org/2000/svg" xmlns:xlink="http://www.w3.org/1999/xlink">
<g id="graph0" class="graph" transform="scale(1 1) rotate(0) translate(4 293)">
<title>result::Install::EcuReport</title>
<polygon fill="white" stroke="transparent" points="-4,4 -4,-293 360.5,-293 360.5,4 -4,4"/>
<!-- Node1 -->
<g id="node1" class="node">
<title>Node1</title>
<polygon fill="#bfbfbf" stroke="black" points="103.5,-0.5 103.5,-19.5 238.5,-19.5 238.5,-0.5 103.5,-0.5"/>
<text text-anchor="middle" x="171" y="-7.5" font-family="Helvetica,sans-Serif" font-size="10.00">result::Install::EcuReport</text>
</g>
<!-- Node2 -->
<g id="node2" class="node">
<title>Node2</title>
<g id="a_node2"><a xlink:href="class_uptane_1_1_target.html" target="_top" xlink:title="Uptane::Target">
<polygon fill="white" stroke="black" points="0,-67.5 0,-86.5 88,-86.5 88,-67.5 0,-67.5"/>
<text text-anchor="middle" x="44" y="-74.5" font-family="Helvetica,sans-Serif" font-size="10.00">Uptane::Target</text>
</a>
</g>
</g>
<!-- Node2&#45;&gt;Node1 -->
<g id="edge1" class="edge">
<title>Node2&#45;&gt;Node1</title>
<path fill="none" stroke="#9a32cd" stroke-dasharray="5,2" d="M69.84,-62.77C95,-49.9 132.49,-30.71 154.07,-19.67"/>
<polygon fill="#9a32cd" stroke="#9a32cd" points="68.17,-59.7 60.86,-67.37 71.36,-65.93 68.17,-59.7"/>
<text text-anchor="middle" x="134.5" y="-41" font-family="Helvetica,sans-Serif" font-size="10.00"> update</text>
</g>
<!-- Node3 -->
<g id="node3" class="node">
<title>Node3</title>
<g id="a_node3"><a xlink:href="structdata_1_1_installation_result.html" target="_top" xlink:title="data::InstallationResult">
<polygon fill="white" stroke="black" points="106.5,-67.5 106.5,-86.5 235.5,-86.5 235.5,-67.5 106.5,-67.5"/>
<text text-anchor="middle" x="171" y="-74.5" font-family="Helvetica,sans-Serif" font-size="10.00">data::InstallationResult</text>
</a>
</g>
</g>
<!-- Node3&#45;&gt;Node1 -->
<g id="edge2" class="edge">
<title>Node3&#45;&gt;Node1</title>
<path fill="none" stroke="#9a32cd" stroke-dasharray="5,2" d="M171,-57.04C171,-44.67 171,-29.12 171,-19.63"/>
<polygon fill="#9a32cd" stroke="#9a32cd" points="167.5,-57.23 171,-67.23 174.5,-57.23 167.5,-57.23"/>
<text text-anchor="middle" x="198" y="-41" font-family="Helvetica,sans-Serif" font-size="10.00"> install_res</text>
</g>
<!-- Node4 -->
<g id="node4" class="node">
<title>Node4</title>
<g id="a_node4"><a xlink:href="structdata_1_1_result_code.html" target="_top" xlink:title="data::ResultCode">
<polygon fill="white" stroke="black" points="207.5,-134.5 207.5,-153.5 306.5,-153.5 306.5,-134.5 207.5,-134.5"/>
<text text-anchor="middle" x="257" y="-141.5" font-family="Helvetica,sans-Serif" font-size="10.00">data::ResultCode</text>
</a>
</g>
</g>
<!-- Node4&#45;&gt;Node3 -->
<g id="edge3" class="edge">
<title>Node4&#45;&gt;Node3</title>
<path fill="none" stroke="#9a32cd" stroke-dasharray="5,2" d="M237.24,-128.07C220.27,-115.24 196.38,-97.19 182.41,-86.63"/>
<polygon fill="#9a32cd" stroke="#9a32cd" points="235.31,-131 245.4,-134.23 239.53,-125.41 235.31,-131"/>
<text text-anchor="middle" x="249" y="-108" font-family="Helvetica,sans-Serif" font-size="10.00"> result_code</text>
</g>
<!-- Node5 -->
<g id="node5" class="node">
<title>Node5</title>
<g id="a_node5"><a xlink:title="STL class. ">
<polygon fill="white" stroke="#bfbfbf" points="114.5,-201.5 114.5,-220.5 179.5,-220.5 179.5,-201.5 114.5,-201.5"/>
<text text-anchor="middle" x="147" y="-208.5" font-family="Helvetica,sans-Serif" font-size="10.00">std::string</text>
</a>
</g>
</g>
<!-- Node5&#45;&gt;Node3 -->
<g id="edge6" class="edge">
<title>Node5&#45;&gt;Node3</title>
<path fill="none" stroke="#9a32cd" stroke-dasharray="5,2" d="M142.26,-191.5C139.05,-175.94 136.18,-153.21 141,-134 145.56,-115.81 157.3,-97.09 164.66,-86.56"/>
<polygon fill="#9a32cd" stroke="#9a32cd" points="138.89,-192.46 144.56,-201.42 145.71,-190.88 138.89,-192.46"/>
<text text-anchor="middle" x="170" y="-141.5" font-family="Helvetica,sans-Serif" font-size="10.00"> description</text>
</g>
<!-- Node5&#45;&gt;Node4 -->
<g id="edge4" class="edge">
<title>Node5&#45;&gt;Node4</title>
<path fill="none" stroke="#9a32cd" stroke-dasharray="5,2" d="M170.5,-196.12C192.29,-183.24 224.04,-164.48 242.4,-153.63"/>
<polygon fill="#9a32cd" stroke="#9a32cd" points="168.66,-193.13 161.84,-201.23 172.22,-199.16 168.66,-193.13"/>
<text text-anchor="middle" x="234" y="-175" font-family="Helvetica,sans-Serif" font-size="10.00"> text_code</text>
</g>
<!-- Node6 -->
<g id="node6" class="node">
<title>Node6</title>
<g id="a_node6"><a xlink:title="STL class. ">
<polygon fill="white" stroke="#bfbfbf" points="95,-258.5 95,-288.5 199,-288.5 199,-258.5 95,-258.5"/>
<text text-anchor="start" x="103" y="-276.5" font-family="Helvetica,sans-Serif" font-size="10.00">std::basic_string&lt;</text>
<text text-anchor="middle" x="147" y="-265.5" font-family="Helvetica,sans-Serif" font-size="10.00"> char &gt;</text>
</a>
</g>
</g>
<!-- Node6&#45;&gt;Node5 -->
<g id="edge5" class="edge">
<title>Node6&#45;&gt;Node5</title>
<path fill="none" stroke="midnightblue" d="M147,-248.35C147,-238.51 147,-227.78 147,-220.54"/>
<polygon fill="midnightblue" stroke="midnightblue" points="143.5,-248.47 147,-258.47 150.5,-248.47 143.5,-248.47"/>
</g>
<!-- Node7 -->
<g id="node7" class="node">
<title>Node7</title>
<g id="a_node7"><a xlink:href="class_uptane_1_1_ecu_serial.html" target="_top" xlink:title="Uptane::EcuSerial">
<polygon fill="white" stroke="black" points="253.5,-67.5 253.5,-86.5 356.5,-86.5 356.5,-67.5 253.5,-67.5"/>
<text text-anchor="middle" x="305" y="-74.5" font-family="Helvetica,sans-Serif" font-size="10.00">Uptane::EcuSerial</text>
</a>
</g>
</g>
<!-- Node7&#45;&gt;Node1 -->
<g id="edge7" class="edge">
<title>Node7&#45;&gt;Node1</title>
<path fill="none" stroke="#9a32cd" stroke-dasharray="5,2" d="M279.17,-62.86C264.51,-55.46 245.78,-46.1 229,-38 215.9,-31.68 201.02,-24.75 189.61,-19.5"/>
<polygon fill="#9a32cd" stroke="#9a32cd" points="277.66,-66.02 288.16,-67.41 280.82,-59.77 277.66,-66.02"/>
<text text-anchor="middle" x="264.5" y="-41" font-family="Helvetica,sans-Serif" font-size="10.00"> serial</text>
</g>
</g>
</svg>
