<?xml version="1.0" encoding="UTF-8" standalone="no"?>
<!DOCTYPE svg PUBLIC "-//W3C//DTD SVG 1.1//EN"
 "http://www.w3.org/Graphics/SVG/1.1/DTD/svg11.dtd">
<!-- Generated by graphviz version 2.43.0 (0)
 -->
<!-- Title: HttpInterface Pages: 1 -->
<svg width="364pt" height="636pt"
 viewBox="0.00 0.00 364.00 636.00" xmlns="http://www.w3.org/2000/svg" xmlns:xlink="http://www.w3.org/1999/xlink">
<g id="graph0" class="graph" transform="scale(1 1) rotate(0) translate(4 632)">
<title>HttpInterface</title>
<polygon fill="white" stroke="transparent" points="-4,4 -4,-632 360,-632 360,4 -4,4"/>
<!-- Node0 -->
<g id="node1" class="node">
<title>Node0</title>
<polygon fill="#bfbfbf" stroke="black" points="0,-304.5 0,-323.5 81,-323.5 81,-304.5 0,-304.5"/>
<text text-anchor="middle" x="40.5" y="-311.5" font-family="Helvetica,sans-Serif" font-size="10.00">HttpInterface</text>
</g>
<!-- Node1 -->
<g id="node2" class="node">
<title>Node1</title>
<g id="a_node2"><a xlink:href="class_http_client.html" target="_top" xlink:title="HttpClient">
<polygon fill="white" stroke="black" points="117,-323.5 117,-342.5 183,-342.5 183,-323.5 117,-323.5"/>
<text text-anchor="middle" x="150" y="-330.5" font-family="Helvetica,sans-Serif" font-size="10.00">HttpClient</text>
</a>
</g>
</g>
<!-- Node0&#45;&gt;Node1 -->
<g id="edge1" class="edge">
<title>Node0&#45;&gt;Node1</title>
<path fill="none" stroke="midnightblue" d="M91.29,-322.8C99.96,-324.33 108.77,-325.89 116.81,-327.31"/>
<polygon fill="midnightblue" stroke="midnightblue" points="91.68,-319.31 81.22,-321.02 90.46,-326.21 91.68,-319.31"/>
</g>
<!-- Node2 -->
<g id="node3" class="node">
<title>Node2</title>
<g id="a_node3"><a xlink:href="class_http_fake.html" target="_top" xlink:title="HttpFake">
<polygon fill="white" stroke="black" points="120,-285.5 120,-304.5 180,-304.5 180,-285.5 120,-285.5"/>
<text text-anchor="middle" x="150" y="-292.5" font-family="Helvetica,sans-Serif" font-size="10.00">HttpFake</text>
</a>
</g>
</g>
<!-- Node0&#45;&gt;Node2 -->
<g id="edge2" class="edge">
<title>Node0&#45;&gt;Node2</title>
<path fill="none" stroke="midnightblue" d="M91.3,-305.2C101.07,-303.47 111.03,-301.71 119.85,-300.15"/>
<polygon fill="midnightblue" stroke="midnightblue" points="90.46,-301.79 81.22,-306.98 91.68,-308.69 90.46,-301.79"/>
</g>
<!-- Node3 -->
<g id="node4" class="node">
<title>Node3</title>
<g id="a_node4"><a xlink:href="class_http_check_url.html" target="_top" xlink:title="HttpCheckUrl">
<polygon fill="white" stroke="black" points="246.5,-608.5 246.5,-627.5 328.5,-627.5 328.5,-608.5 246.5,-608.5"/>
<text text-anchor="middle" x="287.5" y="-615.5" font-family="Helvetica,sans-Serif" font-size="10.00">HttpCheckUrl</text>
</a>
</g>
</g>
<!-- Node2&#45;&gt;Node3 -->
<g id="edge3" class="edge">
<title>Node2&#45;&gt;Node3</title>
<path fill="none" stroke="midnightblue" d="M180.96,-311.28C181.7,-312.15 182.38,-313.05 183,-314 253,-420.77 135.68,-502.26 219,-599 225.99,-607.12 236.15,-611.9 246.48,-614.68"/>
<polygon fill="midnightblue" stroke="midnightblue" points="183.04,-308.46 173.2,-304.53 178.44,-313.73 183.04,-308.46"/>
</g>
<!-- Node4 -->
<g id="node5" class="node">
<title>Node4</title>
<g id="a_node5"><a xlink:href="class_http_custom_uri.html" target="_top" xlink:title="HttpCustomUri">
<polygon fill="white" stroke="black" points="243,-570.5 243,-589.5 332,-589.5 332,-570.5 243,-570.5"/>
<text text-anchor="middle" x="287.5" y="-577.5" font-family="Helvetica,sans-Serif" font-size="10.00">HttpCustomUri</text>
</a>
</g>
</g>
<!-- Node2&#45;&gt;Node4 -->
<g id="edge4" class="edge">
<title>Node2&#45;&gt;Node4</title>
<path fill="none" stroke="midnightblue" d="M180.93,-311.3C181.68,-312.16 182.37,-313.06 183,-314 244.71,-406.19 145.8,-477.64 219,-561 225.19,-568.04 233.76,-572.57 242.72,-575.45"/>
<polygon fill="midnightblue" stroke="midnightblue" points="183,-308.46 173.15,-304.56 178.42,-313.75 183,-308.46"/>
</g>
<!-- Node5 -->
<g id="node6" class="node">
<title>Node5</title>
<g id="a_node6"><a xlink:href="class_http_default_uri.html" target="_top" xlink:title="HttpDefaultUri">
<polygon fill="white" stroke="black" points="243.5,-532.5 243.5,-551.5 331.5,-551.5 331.5,-532.5 243.5,-532.5"/>
<text text-anchor="middle" x="287.5" y="-539.5" font-family="Helvetica,sans-Serif" font-size="10.00">HttpDefaultUri</text>
</a>
</g>
</g>
<!-- Node2&#45;&gt;Node5 -->
<g id="edge5" class="edge">
<title>Node2&#45;&gt;Node5</title>
<path fill="none" stroke="midnightblue" d="M180.9,-311.32C181.66,-312.18 182.36,-313.07 183,-314 236.44,-391.65 155.9,-452.98 219,-523 225.36,-530.05 234.11,-534.57 243.2,-537.45"/>
<polygon fill="midnightblue" stroke="midnightblue" points="182.94,-308.46 173.07,-304.61 178.39,-313.78 182.94,-308.46"/>
</g>
<!-- Node6 -->
<g id="node7" class="node">
<title>Node6</title>
<g id="a_node7"><a xlink:href="class_http_download_failure.html" target="_top" xlink:title="HttpDownloadFailure">
<polygon fill="white" stroke="black" points="228,-494.5 228,-513.5 347,-513.5 347,-494.5 228,-494.5"/>
<text text-anchor="middle" x="287.5" y="-501.5" font-family="Helvetica,sans-Serif" font-size="10.00">HttpDownloadFailure</text>
</a>
</g>
</g>
<!-- Node2&#45;&gt;Node6 -->
<g id="edge6" class="edge">
<title>Node2&#45;&gt;Node6</title>
<path fill="none" stroke="midnightblue" d="M180.86,-311.35C181.62,-312.2 182.34,-313.08 183,-314 228.21,-377.15 165.95,-428.28 219,-485 222.58,-488.82 226.85,-491.9 231.5,-494.37"/>
<polygon fill="midnightblue" stroke="midnightblue" points="182.86,-308.46 172.96,-304.69 178.35,-313.81 182.86,-308.46"/>
</g>
<!-- Node7 -->
<g id="node8" class="node">
<title>Node7</title>
<g id="a_node8"><a xlink:href="class_http_fake_campaign.html" target="_top" xlink:title="HttpFakeCampaign">
<polygon fill="white" stroke="black" points="232.5,-456.5 232.5,-475.5 342.5,-475.5 342.5,-456.5 232.5,-456.5"/>
<text text-anchor="middle" x="287.5" y="-463.5" font-family="Helvetica,sans-Serif" font-size="10.00">HttpFakeCampaign</text>
</a>
</g>
</g>
<!-- Node2&#45;&gt;Node7 -->
<g id="edge7" class="edge">
<title>Node2&#45;&gt;Node7</title>
<path fill="none" stroke="midnightblue" d="M180.42,-311.01C181.34,-311.96 182.21,-312.96 183,-314 220.04,-362.76 175.92,-403.48 219,-447 222.85,-450.89 227.44,-454 232.38,-456.49"/>
<polygon fill="midnightblue" stroke="midnightblue" points="182.45,-308.15 172.47,-304.6 178.05,-313.6 182.45,-308.15"/>
</g>
<!-- Node8 -->
<g id="node9" class="node">
<title>Node8</title>
<g id="a_node9"><a xlink:href="class_http_fake_delegation.html" target="_top" xlink:title="HttpFakeDelegation">
<polygon fill="white" stroke="black" points="231,-418.5 231,-437.5 344,-437.5 344,-418.5 231,-418.5"/>
<text text-anchor="middle" x="287.5" y="-425.5" font-family="Helvetica,sans-Serif" font-size="10.00">HttpFakeDelegation</text>
</a>
</g>
</g>
<!-- Node2&#45;&gt;Node8 -->
<g id="edge8" class="edge">
<title>Node2&#45;&gt;Node8</title>
<path fill="none" stroke="midnightblue" d="M179.88,-310.72C180.99,-311.76 182.04,-312.86 183,-314 212.04,-348.57 185.7,-378.51 219,-409 223.22,-412.86 228.17,-415.95 233.43,-418.41"/>
<polygon fill="midnightblue" stroke="midnightblue" points="181.93,-307.89 171.86,-304.6 177.69,-313.45 181.93,-307.89"/>
</g>
<!-- Node9 -->
<g id="node10" class="node">
<title>Node9</title>
<g id="a_node10"><a xlink:href="class_http_fake_event_counter.html" target="_top" xlink:title="HttpFakeEventCounter">
<polygon fill="white" stroke="black" points="224.5,-380.5 224.5,-399.5 350.5,-399.5 350.5,-380.5 224.5,-380.5"/>
<text text-anchor="middle" x="287.5" y="-387.5" font-family="Helvetica,sans-Serif" font-size="10.00">HttpFakeEventCounter</text>
</a>
</g>
</g>
<!-- Node2&#45;&gt;Node9 -->
<g id="edge9" class="edge">
<title>Node2&#45;&gt;Node9</title>
<path fill="none" stroke="midnightblue" d="M179.03,-310.51C180.43,-311.63 181.76,-312.79 183,-314 204.48,-334.89 194.98,-353.08 219,-371 224.17,-374.86 230.1,-377.93 236.24,-380.38"/>
<polygon fill="midnightblue" stroke="midnightblue" points="180.87,-307.52 170.66,-304.69 176.87,-313.27 180.87,-307.52"/>
</g>
<!-- Node10 -->
<g id="node11" class="node">
<title>Node10</title>
<g id="a_node11"><a xlink:href="class_http_fake_events.html" target="_top" xlink:title="HttpFakeEvents">
<polygon fill="white" stroke="black" points="241,-342.5 241,-361.5 334,-361.5 334,-342.5 241,-342.5"/>
<text text-anchor="middle" x="287.5" y="-349.5" font-family="Helvetica,sans-Serif" font-size="10.00">HttpFakeEvents</text>
</a>
</g>
</g>
<!-- Node2&#45;&gt;Node10 -->
<g id="edge10" class="edge">
<title>Node2&#45;&gt;Node10</title>
<path fill="none" stroke="midnightblue" d="M175.84,-309.69C191.54,-318.81 210.43,-329.46 219,-333 227.78,-336.63 237.47,-339.81 246.71,-342.48"/>
<polygon fill="midnightblue" stroke="midnightblue" points="177.46,-306.58 167.06,-304.55 173.93,-312.62 177.46,-306.58"/>
</g>
<!-- Node11 -->
<g id="node12" class="node">
<title>Node11</title>
<g id="a_node12"><a xlink:href="class_http_fake_no_correlation_id.html" target="_top" xlink:title="HttpFakeNoCorrelationId">
<polygon fill="white" stroke="black" points="219,-304.5 219,-323.5 356,-323.5 356,-304.5 219,-304.5"/>
<text text-anchor="middle" x="287.5" y="-311.5" font-family="Helvetica,sans-Serif" font-size="10.00">HttpFakeNoCorrelationId</text>
</a>
</g>
</g>
<!-- Node2&#45;&gt;Node11 -->
<g id="edge11" class="edge">
<title>Node2&#45;&gt;Node11</title>
<path fill="none" stroke="midnightblue" d="M190.19,-300.5C199.17,-301.75 208.98,-303.13 218.78,-304.5"/>
<polygon fill="midnightblue" stroke="midnightblue" points="190.46,-297 180.07,-299.08 189.49,-303.93 190.46,-297"/>
</g>
<!-- Node12 -->
<g id="node13" class="node">
<title>Node12</title>
<g id="a_node13"><a xlink:href="class_http_fake_pause_counter.html" target="_top" xlink:title="HttpFakePauseCounter">
<polygon fill="white" stroke="black" points="224,-266.5 224,-285.5 351,-285.5 351,-266.5 224,-266.5"/>
<text text-anchor="middle" x="287.5" y="-273.5" font-family="Helvetica,sans-Serif" font-size="10.00">HttpFakePauseCounter</text>
</a>
</g>
</g>
<!-- Node2&#45;&gt;Node12 -->
<g id="edge12" class="edge">
<title>Node2&#45;&gt;Node12</title>
<path fill="none" stroke="midnightblue" d="M190.16,-289.51C200.68,-288.03 212.33,-286.4 223.78,-284.79"/>
<polygon fill="midnightblue" stroke="midnightblue" points="189.49,-286.07 180.07,-290.92 190.46,-293 189.49,-286.07"/>
</g>
<!-- Node13 -->
<g id="node14" class="node">
<title>Node13</title>
<g id="a_node14"><a xlink:href="class_http_fake_prov.html" target="_top" xlink:title="Check that basic device info sent by aktualizr during provisioning matches our expectations. ">
<polygon fill="white" stroke="black" points="246.5,-228.5 246.5,-247.5 328.5,-247.5 328.5,-228.5 246.5,-228.5"/>
<text text-anchor="middle" x="287.5" y="-235.5" font-family="Helvetica,sans-Serif" font-size="10.00">HttpFakeProv</text>
</a>
</g>
</g>
<!-- Node2&#45;&gt;Node13 -->
<g id="edge13" class="edge">
<title>Node2&#45;&gt;Node13</title>
<path fill="none" stroke="midnightblue" d="M174.26,-280.2C187.08,-272.51 203.51,-263.4 219,-257 227.78,-253.37 237.47,-250.19 246.71,-247.52"/>
<polygon fill="midnightblue" stroke="midnightblue" points="172.31,-277.29 165.62,-285.5 175.97,-283.26 172.31,-277.29"/>
</g>
<!-- Node14 -->
<g id="node15" class="node">
<title>Node14</title>
<g id="a_node15"><a xlink:href="class_http_fake_put_counter.html" target="_top" xlink:title="HttpFakePutCounter">
<polygon fill="white" stroke="black" points="230.5,-190.5 230.5,-209.5 344.5,-209.5 344.5,-190.5 230.5,-190.5"/>
<text text-anchor="middle" x="287.5" y="-197.5" font-family="Helvetica,sans-Serif" font-size="10.00">HttpFakePutCounter</text>
</a>
</g>
</g>
<!-- Node2&#45;&gt;Node14 -->
<g id="edge14" class="edge">
<title>Node2&#45;&gt;Node14</title>
<path fill="none" stroke="midnightblue" d="M162.69,-276.83C174.76,-259.49 195.17,-233.86 219,-219 225.2,-215.13 232.2,-212.04 239.28,-209.56"/>
<polygon fill="midnightblue" stroke="midnightblue" points="159.54,-275.24 156.87,-285.49 165.35,-279.14 159.54,-275.24"/>
</g>
<!-- Node15 -->
<g id="node16" class="node">
<title>Node15</title>
<g id="a_node16"><a xlink:href="class_http_fake_rq.html" target="_top" xlink:title="HttpFakeRq">
<polygon fill="white" stroke="black" points="251,-152.5 251,-171.5 324,-171.5 324,-152.5 251,-152.5"/>
<text text-anchor="middle" x="287.5" y="-159.5" font-family="Helvetica,sans-Serif" font-size="10.00">HttpFakeRq</text>
</a>
</g>
</g>
<!-- Node2&#45;&gt;Node15 -->
<g id="edge15" class="edge">
<title>Node2&#45;&gt;Node15</title>
<path fill="none" stroke="midnightblue" d="M157.36,-275.73C166.76,-250.23 186.82,-205.65 219,-181 228.18,-173.97 239.84,-169.54 250.88,-166.75"/>
<polygon fill="midnightblue" stroke="midnightblue" points="153.98,-274.78 153.98,-285.38 160.59,-277.1 153.98,-274.78"/>
</g>
<!-- Node16 -->
<g id="node17" class="node">
<title>Node16</title>
<g id="a_node17"><a xlink:href="class_http_fake_unstable.html" target="_top" xlink:title="HttpFakeUnstable">
<polygon fill="white" stroke="black" points="235.5,-114.5 235.5,-133.5 339.5,-133.5 339.5,-114.5 235.5,-114.5"/>
<text text-anchor="middle" x="287.5" y="-121.5" font-family="Helvetica,sans-Serif" font-size="10.00">HttpFakeUnstable</text>
</a>
</g>
</g>
<!-- Node2&#45;&gt;Node16 -->
<g id="edge16" class="edge">
<title>Node2&#45;&gt;Node16</title>
<path fill="none" stroke="midnightblue" d="M154.34,-275.04C160.83,-242.5 178.29,-178.15 219,-143 223.79,-138.86 229.42,-135.62 235.35,-133.08"/>
<polygon fill="midnightblue" stroke="midnightblue" points="150.85,-274.65 152.48,-285.12 157.73,-275.92 150.85,-274.65"/>
</g>
<!-- Node17 -->
<g id="node18" class="node">
<title>Node17</title>
<g id="a_node18"><a xlink:href="class_http_put_manifest_fail.html" target="_top" xlink:title="HttpPutManifestFail">
<polygon fill="white" stroke="black" points="231.5,-76.5 231.5,-95.5 343.5,-95.5 343.5,-76.5 231.5,-76.5"/>
<text text-anchor="middle" x="287.5" y="-83.5" font-family="Helvetica,sans-Serif" font-size="10.00">HttpPutManifestFail</text>
</a>
</g>
</g>
<!-- Node2&#45;&gt;Node17 -->
<g id="edge17" class="edge">
<title>Node2&#45;&gt;Node17</title>
<path fill="none" stroke="midnightblue" d="M151.89,-275.08C154.83,-234.67 167.25,-144.28 219,-96 222.65,-92.59 226.86,-89.79 231.36,-87.53"/>
<polygon fill="midnightblue" stroke="midnightblue" points="148.4,-274.88 151.29,-285.07 155.39,-275.3 148.4,-274.88"/>
</g>
<!-- Node2&#45;&gt;Node17 -->
<g id="edge18" class="edge">
<title>Node2&#45;&gt;Node17</title>
<path fill="none" stroke="midnightblue" d="M152.86,-274.99C157.22,-237.64 171.64,-158.19 219,-114 230.22,-103.54 246.74,-98.77 260.64,-95.55"/>
<polygon fill="midnightblue" stroke="midnightblue" points="149.36,-274.84 151.81,-285.15 156.32,-275.56 149.36,-274.84"/>
</g>
<!-- Node18 -->
<g id="node19" class="node">
<title>Node18</title>
<g id="a_node19"><a xlink:href="class_http_reject_empty_corr_id.html" target="_top" xlink:title="HttpRejectEmptyCorrId">
<polygon fill="white" stroke="black" points="223.5,-38.5 223.5,-57.5 351.5,-57.5 351.5,-38.5 223.5,-38.5"/>
<text text-anchor="middle" x="287.5" y="-45.5" font-family="Helvetica,sans-Serif" font-size="10.00">HttpRejectEmptyCorrId</text>
</a>
</g>
</g>
<!-- Node2&#45;&gt;Node18 -->
<g id="edge19" class="edge">
<title>Node2&#45;&gt;Node18</title>
<path fill="none" stroke="midnightblue" d="M150.89,-275.11C151.77,-231.12 160.25,-124.85 219,-67 222.9,-63.16 227.52,-60.08 232.48,-57.61"/>
<polygon fill="midnightblue" stroke="midnightblue" points="147.39,-275.09 150.81,-285.12 154.39,-275.15 147.39,-275.09"/>
</g>
<!-- Node19 -->
<g id="node20" class="node">
<title>Node19</title>
<g id="a_node20"><a xlink:href="class_http_zero_length.html" target="_top" xlink:title="HttpZeroLength">
<polygon fill="white" stroke="black" points="241,-0.5 241,-19.5 334,-19.5 334,-0.5 241,-0.5"/>
<text text-anchor="middle" x="287.5" y="-7.5" font-family="Helvetica,sans-Serif" font-size="10.00">HttpZeroLength</text>
</a>
</g>
</g>
<!-- Node2&#45;&gt;Node19 -->
<g id="edge20" class="edge">
<title>Node2&#45;&gt;Node19</title>
<path fill="none" stroke="midnightblue" d="M153.5,-275.1C160.87,-219.57 184.18,-64.66 219,-29 224.95,-22.9 232.7,-18.72 240.81,-15.86"/>
<polygon fill="midnightblue" stroke="midnightblue" points="149.99,-274.99 152.17,-285.36 156.93,-275.89 149.99,-274.99"/>
</g>
</g>
</svg>
