<?xml version="1.0" encoding="UTF-8" standalone="no"?>
<!DOCTYPE svg PUBLIC "-//W3C//DTD SVG 1.1//EN"
 "http://www.w3.org/Graphics/SVG/1.1/DTD/svg11.dtd">
<!-- Generated by graphviz version 2.43.0 (0)
 -->
<!-- Title: AktualizrSecondaryConfig Pages: 1 -->
<!--zoomable 386 -->
<svg id="main" version="1.1" xmlns="http://www.w3.org/2000/svg" xmlns:xlink="http://www.w3.org/1999/xlink" xml:space="preserve" onload="init(evt)">
<style type="text/css"><![CDATA[
.edge:hover path { stroke: red; }
.edge:hover polygon { stroke: red; fill: red; }
]]></style>
<script type="text/javascript"><![CDATA[
var edges = document.getElementsByTagName('g');
if (edges && edges.length) {
  for (var i=0;i<edges.length;i++) {
    if (edges[i].id.substr(0,4)=='edge') {
      edges[i].setAttribute('class','edge');
    }
  }
}
]]></script>
        <defs>
                <circle id="rim" cx="0" cy="0" r="7"/>
                <circle id="rim2" cx="0" cy="0" r="3.5"/>
                <g id="zoomPlus">
                        <use xlink:href="#rim" fill="#404040">
                                <set attributeName="fill" to="#808080" begin="zoomplus.mouseover" end="zoomplus.mouseout"/>
                        </use>
                        <path d="M-4,0h8M0,-4v8" fill="none" stroke="white" stroke-width="1.5" pointer-events="none"/>
                </g>
                <g id="zoomMin">
                        <use xlink:href="#rim" fill="#404040">
                                <set attributeName="fill" to="#808080" begin="zoomminus.mouseover" end="zoomminus.mouseout"/>
                        </use>
                        <path d="M-4,0h8" fill="none" stroke="white" stroke-width="1.5" pointer-events="none"/>
                </g>
                <g id="dirArrow">
                        <path fill="none" stroke="white" stroke-width="1.5" d="M0,-3.0v7 M-2.5,-0.5L0,-3.0L2.5,-0.5"/>
                </g>
               <g id="resetDef">
                       <use xlink:href="#rim2" fill="#404040">
                               <set attributeName="fill" to="#808080" begin="reset.mouseover" end="reset.mouseout"/>
                       </use>
               </g>
        </defs>

<script type="text/javascript">
var viewWidth = 813;
var viewHeight = 386;
var sectionId = 'dynsection-1';
</script>
<script xlink:href="svgpan.js"/>
<svg id="graph" class="graph">
<g id="viewport">
<title>AktualizrSecondaryConfig</title>
<polygon fill="white" stroke="transparent" points="-4,4 -4,-381.5 809,-381.5 809,4 -4,4"/>
<!-- Node2 -->
<g id="node1" class="node">
<title>Node2</title>
<polygon fill="#bfbfbf" stroke="black" points="663,-132.5 663,-151.5 805,-151.5 805,-132.5 663,-132.5"/>
<text text-anchor="middle" x="734" y="-139.5" font-family="Helvetica,sans-Serif" font-size="10.00">AktualizrSecondaryConfig</text>
</g>
<!-- Node3 -->
<g id="node2" class="node">
<title>Node3</title>
<g id="a_node2"><a xlink:href="class_base_config.html" target="_top" xlink:title="BaseConfig">
<polygon fill="white" stroke="black" points="456,-315.5 456,-334.5 527,-334.5 527,-315.5 456,-315.5"/>
<text text-anchor="middle" x="491.5" y="-322.5" font-family="Helvetica,sans-Serif" font-size="10.00">BaseConfig</text>
</a>
</g>
</g>
<!-- Node3&#45;&gt;Node2 -->
<g id="edge1" class="edge">
<title>Node3&#45;&gt;Node2</title>
<path fill="none" stroke="midnightblue" d="M523.08,-311.08C555.17,-295.68 606.25,-268.93 645,-238 679.1,-210.78 711.8,-170.04 725.83,-151.63"/>
<polygon fill="midnightblue" stroke="midnightblue" points="521.3,-308.04 513.76,-315.48 524.3,-314.37 521.3,-308.04"/>
</g>
<!-- Node4 -->
<g id="node3" class="node">
<title>Node4</title>
<polygon fill="white" stroke="#bfbfbf" points="141,-347 141,-377 254,-377 254,-347 141,-347"/>
<text text-anchor="start" x="149" y="-365" font-family="Helvetica,sans-Serif" font-size="10.00">std::vector&lt; boost</text>
<text text-anchor="middle" x="197.5" y="-354" font-family="Helvetica,sans-Serif" font-size="10.00">::filesystem::path &gt;</text>
</g>
<!-- Node4&#45;&gt;Node3 -->
<g id="edge2" class="edge">
<title>Node4&#45;&gt;Node3</title>
<path fill="none" stroke="#9a32cd" stroke-dasharray="5,2" d="M264.6,-355.26C302.51,-351.22 350.99,-345.76 394,-340 414.5,-337.25 437.38,-333.72 455.71,-330.77"/>
<polygon fill="#9a32cd" stroke="#9a32cd" points="263.77,-351.83 254.19,-356.36 264.51,-358.79 263.77,-351.83"/>
<text text-anchor="middle" x="333" y="-357" font-family="Helvetica,sans-Serif" font-size="10.00"> config_dirs_</text>
</g>
<!-- Node5 -->
<g id="node4" class="node">
<title>Node5</title>
<g id="a_node4"><a xlink:href="struct_storage_config.html" target="_top" xlink:title="StorageConfig">
<polygon fill="white" stroke="black" points="449,-241.5 449,-260.5 534,-260.5 534,-241.5 449,-241.5"/>
<text text-anchor="middle" x="491.5" y="-248.5" font-family="Helvetica,sans-Serif" font-size="10.00">StorageConfig</text>
</a>
</g>
</g>
<!-- Node5&#45;&gt;Node2 -->
<g id="edge3" class="edge">
<title>Node5&#45;&gt;Node2</title>
<path fill="none" stroke="#9a32cd" stroke-dasharray="5,2" d="M543.85,-239.35C552.98,-236.87 562.33,-234.07 571,-231 629.39,-210.34 691.81,-170.25 719,-151.76"/>
<polygon fill="#9a32cd" stroke="#9a32cd" points="542.86,-235.99 534.07,-241.9 544.63,-242.76 542.86,-235.99"/>
<text text-anchor="middle" x="617" y="-226" font-family="Helvetica,sans-Serif" font-size="10.00"> storage</text>
</g>
<!-- Node6 -->
<g id="node5" class="node">
<title>Node6</title>
<g id="a_node5"><a xlink:href="class_based_path.html" target="_top" xlink:title="BasedPath">
<polygon fill="white" stroke="black" points="163.5,-241.5 163.5,-260.5 231.5,-260.5 231.5,-241.5 163.5,-241.5"/>
<text text-anchor="middle" x="197.5" y="-248.5" font-family="Helvetica,sans-Serif" font-size="10.00">BasedPath</text>
</a>
</g>
</g>
<!-- Node6&#45;&gt;Node5 -->
<g id="edge4" class="edge">
<title>Node6&#45;&gt;Node5</title>
<path fill="none" stroke="#9a32cd" stroke-dasharray="5,2" d="M241.98,-251C297.79,-251 393.97,-251 448.87,-251"/>
<polygon fill="#9a32cd" stroke="#9a32cd" points="241.71,-247.5 231.71,-251 241.71,-254.5 241.71,-247.5"/>
<text text-anchor="middle" x="333" y="-331" font-family="Helvetica,sans-Serif" font-size="10.00"> uptane_public_key_path</text>
<text text-anchor="middle" x="333" y="-320" font-family="Helvetica,sans-Serif" font-size="10.00">tls_pkey_path</text>
<text text-anchor="middle" x="333" y="-309" font-family="Helvetica,sans-Serif" font-size="10.00">uptane_metadata_path</text>
<text text-anchor="middle" x="333" y="-298" font-family="Helvetica,sans-Serif" font-size="10.00">sqldb_path</text>
<text text-anchor="start" x="272" y="-287" font-family="Helvetica,sans-Serif" font-size="10.00">uptane_private_key</text>
<text text-anchor="middle" x="333" y="-276" font-family="Helvetica,sans-Serif" font-size="10.00">_path</text>
<text text-anchor="middle" x="333" y="-265" font-family="Helvetica,sans-Serif" font-size="10.00">tls_cacert_path</text>
<text text-anchor="middle" x="333" y="-254" font-family="Helvetica,sans-Serif" font-size="10.00">tls_clientcert_path</text>
</g>
<!-- Node7 -->
<g id="node6" class="node">
<title>Node7</title>
<g id="a_node6"><a xlink:href="struct_aktualizr_secondary_uptane_config.html" target="_top" xlink:title="AktualizrSecondaryUptane\lConfig">
<polygon fill="white" stroke="black" points="418.5,-191 418.5,-221 564.5,-221 564.5,-191 418.5,-191"/>
<text text-anchor="start" x="426.5" y="-209" font-family="Helvetica,sans-Serif" font-size="10.00">AktualizrSecondaryUptane</text>
<text text-anchor="middle" x="491.5" y="-198" font-family="Helvetica,sans-Serif" font-size="10.00">Config</text>
</a>
</g>
</g>
<!-- Node7&#45;&gt;Node2 -->
<g id="edge5" class="edge">
<title>Node7&#45;&gt;Node2</title>
<path fill="none" stroke="#9a32cd" stroke-dasharray="5,2" d="M565.25,-188.55C590.55,-182.3 619.08,-175.05 645,-168 663.91,-162.85 684.96,-156.65 701.73,-151.59"/>
<polygon fill="#9a32cd" stroke="#9a32cd" points="564.23,-185.2 555.35,-190.98 565.9,-191.99 564.23,-185.2"/>
<text text-anchor="middle" x="617" y="-185" font-family="Helvetica,sans-Serif" font-size="10.00"> uptane</text>
</g>
<!-- Node8 -->
<g id="node7" class="node">
<title>Node8</title>
<g id="a_node7"><a xlink:title="STL class. ">
<polygon fill="white" stroke="#bfbfbf" points="165,-117.5 165,-136.5 230,-136.5 230,-117.5 165,-117.5"/>
<text text-anchor="middle" x="197.5" y="-124.5" font-family="Helvetica,sans-Serif" font-size="10.00">std::string</text>
</a>
</g>
</g>
<!-- Node8&#45;&gt;Node7 -->
<g id="edge6" class="edge">
<title>Node8&#45;&gt;Node7</title>
<path fill="none" stroke="#9a32cd" stroke-dasharray="5,2" d="M216.87,-143.52C230.93,-155.17 251.35,-170.06 272,-178 318.67,-195.94 374.67,-202.86 418.29,-205.34"/>
<polygon fill="#9a32cd" stroke="#9a32cd" points="218.87,-140.62 208.99,-136.77 214.31,-145.94 218.87,-140.62"/>
<text text-anchor="middle" x="333" y="-217" font-family="Helvetica,sans-Serif" font-size="10.00"> ecu_hardware_id</text>
<text text-anchor="middle" x="333" y="-206" font-family="Helvetica,sans-Serif" font-size="10.00">ecu_serial</text>
</g>
<!-- Node11 -->
<g id="node10" class="node">
<title>Node11</title>
<g id="a_node10"><a xlink:href="struct_package_config.html" target="_top" xlink:title="PackageConfig">
<polygon fill="white" stroke="black" points="447.5,-152.5 447.5,-171.5 535.5,-171.5 535.5,-152.5 447.5,-152.5"/>
<text text-anchor="middle" x="491.5" y="-159.5" font-family="Helvetica,sans-Serif" font-size="10.00">PackageConfig</text>
</a>
</g>
</g>
<!-- Node8&#45;&gt;Node11 -->
<g id="edge10" class="edge">
<title>Node8&#45;&gt;Node11</title>
<path fill="none" stroke="#9a32cd" stroke-dasharray="5,2" d="M240.32,-134.25C250.66,-135.93 261.72,-137.62 272,-139 332.68,-147.14 403.16,-154.11 447.3,-158.18"/>
<polygon fill="#9a32cd" stroke="#9a32cd" points="240.71,-130.77 230.28,-132.59 239.57,-137.68 240.71,-130.77"/>
<text text-anchor="middle" x="333" y="-166" font-family="Helvetica,sans-Serif" font-size="10.00"> os</text>
<text text-anchor="middle" x="333" y="-155" font-family="Helvetica,sans-Serif" font-size="10.00">ostree_server</text>
</g>
<!-- Node12 -->
<g id="node11" class="node">
<title>Node12</title>
<g id="a_node11"><a xlink:href="struct_aktualizr_secondary_net_config.html" target="_top" xlink:title="AktualizrSecondaryNetConfig">
<polygon fill="white" stroke="black" points="412,-114.5 412,-133.5 571,-133.5 571,-114.5 412,-114.5"/>
<text text-anchor="middle" x="491.5" y="-121.5" font-family="Helvetica,sans-Serif" font-size="10.00">AktualizrSecondaryNetConfig</text>
</a>
</g>
</g>
<!-- Node8&#45;&gt;Node12 -->
<g id="edge12" class="edge">
<title>Node8&#45;&gt;Node12</title>
<path fill="none" stroke="#9a32cd" stroke-dasharray="5,2" d="M240.2,-126.57C284.76,-126.11 356.45,-125.38 411.71,-124.81"/>
<polygon fill="#9a32cd" stroke="#9a32cd" points="239.99,-123.07 230.03,-126.68 240.06,-130.07 239.99,-123.07"/>
<text text-anchor="middle" x="333" y="-129" font-family="Helvetica,sans-Serif" font-size="10.00"> primary_ip</text>
</g>
<!-- Node13 -->
<g id="node12" class="node">
<title>Node13</title>
<g id="a_node12"><a xlink:href="struct_p11_config.html" target="_top" xlink:title="P11Config">
<polygon fill="white" stroke="black" points="459,-76.5 459,-95.5 524,-95.5 524,-76.5 459,-76.5"/>
<text text-anchor="middle" x="491.5" y="-83.5" font-family="Helvetica,sans-Serif" font-size="10.00">P11Config</text>
</a>
</g>
</g>
<!-- Node8&#45;&gt;Node13 -->
<g id="edge14" class="edge">
<title>Node8&#45;&gt;Node13</title>
<path fill="none" stroke="#9a32cd" stroke-dasharray="5,2" d="M212.88,-109.67C226.38,-94.87 248.05,-74.64 272,-66 323,-47.59 340.06,-60.47 394,-66 415.79,-68.23 439.91,-73.23 458.59,-77.68"/>
<polygon fill="#9a32cd" stroke="#9a32cd" points="210.22,-107.4 206.26,-117.22 215.48,-112.01 210.22,-107.4"/>
<text text-anchor="middle" x="333" y="-113" font-family="Helvetica,sans-Serif" font-size="10.00"> tls_pkey_id</text>
<text text-anchor="middle" x="333" y="-102" font-family="Helvetica,sans-Serif" font-size="10.00">tls_clientcert_id</text>
<text text-anchor="middle" x="333" y="-91" font-family="Helvetica,sans-Serif" font-size="10.00">pass</text>
<text text-anchor="middle" x="333" y="-80" font-family="Helvetica,sans-Serif" font-size="10.00">uptane_key_id</text>
<text text-anchor="middle" x="333" y="-69" font-family="Helvetica,sans-Serif" font-size="10.00">tls_cacert_id</text>
</g>
<!-- Node14 -->
<g id="node13" class="node">
<title>Node14</title>
<g id="a_node13"><a xlink:href="struct_bootloader_config.html" target="_top" xlink:title="BootloaderConfig">
<polygon fill="white" stroke="black" points="441,-38.5 441,-57.5 542,-57.5 542,-38.5 441,-38.5"/>
<text text-anchor="middle" x="491.5" y="-45.5" font-family="Helvetica,sans-Serif" font-size="10.00">BootloaderConfig</text>
</a>
</g>
</g>
<!-- Node8&#45;&gt;Node14 -->
<g id="edge16" class="edge">
<title>Node8&#45;&gt;Node14</title>
<path fill="none" stroke="#9a32cd" stroke-dasharray="5,2" d="M207.89,-108.52C219.65,-87.66 241.97,-54.84 272,-41 300.87,-27.7 385.5,-34.8 440.57,-41.3"/>
<polygon fill="#9a32cd" stroke="#9a32cd" points="204.76,-106.94 203.11,-117.41 210.93,-110.26 204.76,-106.94"/>
<text text-anchor="middle" x="333" y="-44" font-family="Helvetica,sans-Serif" font-size="10.00"> reboot_command</text>
</g>
<!-- Node9 -->
<g id="node8" class="node">
<title>Node9</title>
<g id="a_node8"><a xlink:title="STL class. ">
<polygon fill="white" stroke="#bfbfbf" points="0,-112 0,-142 104,-142 104,-112 0,-112"/>
<text text-anchor="start" x="8" y="-130" font-family="Helvetica,sans-Serif" font-size="10.00">std::basic_string&lt;</text>
<text text-anchor="middle" x="52" y="-119" font-family="Helvetica,sans-Serif" font-size="10.00"> char &gt;</text>
</a>
</g>
</g>
<!-- Node9&#45;&gt;Node8 -->
<g id="edge7" class="edge">
<title>Node9&#45;&gt;Node8</title>
<path fill="none" stroke="midnightblue" d="M114.45,-127C131.74,-127 149.84,-127 164.63,-127"/>
<polygon fill="midnightblue" stroke="midnightblue" points="114.4,-123.5 104.4,-127 114.4,-130.5 114.4,-123.5"/>
</g>
<!-- Node10 -->
<g id="node9" class="node">
<title>Node10</title>
<g id="a_node9"><a xlink:href="struct_logger_config.html" target="_top" xlink:title="LoggerConfig">
<polygon fill="white" stroke="black" points="451.5,-0.5 451.5,-19.5 531.5,-19.5 531.5,-0.5 451.5,-0.5"/>
<text text-anchor="middle" x="491.5" y="-7.5" font-family="Helvetica,sans-Serif" font-size="10.00">LoggerConfig</text>
</a>
</g>
</g>
<!-- Node10&#45;&gt;Node2 -->
<g id="edge8" class="edge">
<title>Node10&#45;&gt;Node2</title>
<path fill="none" stroke="#9a32cd" stroke-dasharray="5,2" d="M541.75,-15.3C573.06,-20.37 613.49,-30.18 645,-49 682.21,-71.23 713.79,-113.55 726.73,-132.46"/>
<polygon fill="#9a32cd" stroke="#9a32cd" points="541.92,-11.78 531.51,-13.75 540.88,-18.71 541.92,-11.78"/>
<text text-anchor="middle" x="617" y="-52" font-family="Helvetica,sans-Serif" font-size="10.00"> logger</text>
</g>
<!-- Node11&#45;&gt;Node2 -->
<g id="edge9" class="edge">
<title>Node11&#45;&gt;Node2</title>
<path fill="none" stroke="#9a32cd" stroke-dasharray="5,2" d="M546.08,-157.54C580.47,-154.68 625.49,-150.94 662.72,-147.84"/>
<polygon fill="#9a32cd" stroke="#9a32cd" points="545.45,-154.08 535.77,-158.4 546.03,-161.06 545.45,-154.08"/>
<text text-anchor="middle" x="617" y="-156" font-family="Helvetica,sans-Serif" font-size="10.00"> pacman</text>
</g>
<!-- Node12&#45;&gt;Node2 -->
<g id="edge11" class="edge">
<title>Node12&#45;&gt;Node2</title>
<path fill="none" stroke="#9a32cd" stroke-dasharray="5,2" d="M581.5,-124.37C602.37,-125 624.49,-126.11 645,-128 656.55,-129.07 668.89,-130.71 680.56,-132.5"/>
<polygon fill="#9a32cd" stroke="#9a32cd" points="581.46,-120.86 571.37,-124.09 581.28,-127.86 581.46,-120.86"/>
<text text-anchor="middle" x="617" y="-131" font-family="Helvetica,sans-Serif" font-size="10.00"> network</text>
</g>
<!-- Node13&#45;&gt;Node2 -->
<g id="edge13" class="edge">
<title>Node13&#45;&gt;Node2</title>
<path fill="none" stroke="#9a32cd" stroke-dasharray="5,2" d="M534.14,-89.9C565.06,-93.37 608.1,-99.41 645,-109 668.21,-115.03 693.78,-125.02 711.35,-132.43"/>
<polygon fill="#9a32cd" stroke="#9a32cd" points="534.46,-86.42 524.14,-88.82 533.7,-93.38 534.46,-86.42"/>
<text text-anchor="middle" x="617" y="-112" font-family="Helvetica,sans-Serif" font-size="10.00"> p11</text>
</g>
<!-- Node14&#45;&gt;Node2 -->
<g id="edge15" class="edge">
<title>Node14&#45;&gt;Node2</title>
<path fill="none" stroke="#9a32cd" stroke-dasharray="5,2" d="M552.01,-55.88C580.89,-61.04 615.61,-69.27 645,-82 675.2,-95.09 705.95,-118.98 721.88,-132.33"/>
<polygon fill="#9a32cd" stroke="#9a32cd" points="552.5,-52.42 542.05,-54.18 551.32,-59.32 552.5,-52.42"/>
<text text-anchor="middle" x="617" y="-85" font-family="Helvetica,sans-Serif" font-size="10.00"> bootloader</text>
</g>
</g>
</svg>
        <g id="navigator" transform="translate(0 0)" fill="#404254">
                <rect fill="#f2f5e9" fill-opacity="0.5" stroke="#606060" stroke-width=".5" x="0" y="0" width="60" height="60"/>
                <use id="zoomplus" xlink:href="#zoomPlus" x="17" y="9" onmousedown="handleZoom(evt,'in')"/>
                <use id="zoomminus" xlink:href="#zoomMin" x="42" y="9" onmousedown="handleZoom(evt,'out')"/>
                <use id="reset" xlink:href="#resetDef" x="30" y="36" onmousedown="handleReset()"/>
                <g id="arrowUp" xlink:href="#dirArrow" transform="translate(30 24)" onmousedown="handlePan(0,-1)">
                  <use xlink:href="#rim" fill="#404040">
                        <set attributeName="fill" to="#808080" begin="arrowUp.mouseover" end="arrowUp.mouseout"/>
                  </use>
                  <path fill="none" stroke="white" stroke-width="1.5" d="M0,-3.0v7 M-2.5,-0.5L0,-3.0L2.5,-0.5"/>
                </g>
                <g id="arrowRight" xlink:href="#dirArrow" transform="rotate(90) translate(36 -43)" onmousedown="handlePan(1,0)">
                  <use xlink:href="#rim" fill="#404040">
                        <set attributeName="fill" to="#808080" begin="arrowRight.mouseover" end="arrowRight.mouseout"/>
                  </use>
                  <path fill="none" stroke="white" stroke-width="1.5" d="M0,-3.0v7 M-2.5,-0.5L0,-3.0L2.5,-0.5"/>
                </g>
                <g id="arrowDown" xlink:href="#dirArrow" transform="rotate(180) translate(-30 -48)" onmousedown="handlePan(0,1)">
                  <use xlink:href="#rim" fill="#404040">
                        <set attributeName="fill" to="#808080" begin="arrowDown.mouseover" end="arrowDown.mouseout"/>
                  </use>
                  <path fill="none" stroke="white" stroke-width="1.5" d="M0,-3.0v7 M-2.5,-0.5L0,-3.0L2.5,-0.5"/>
                </g>
                <g id="arrowLeft" xlink:href="#dirArrow" transform="rotate(270) translate(-36 17)" onmousedown="handlePan(-1,0)">
                  <use xlink:href="#rim" fill="#404040">
                        <set attributeName="fill" to="#808080" begin="arrowLeft.mouseover" end="arrowLeft.mouseout"/>
                  </use>
                  <path fill="none" stroke="white" stroke-width="1.5" d="M0,-3.0v7 M-2.5,-0.5L0,-3.0L2.5,-0.5"/>
                </g>
        </g>
        <svg viewBox="0 0 15 15" width="100%" height="30px" preserveAspectRatio="xMaxYMin meet">
         <g id="arrow_out" transform="scale(0.3 0.3)">
          <a xlink:href="class_aktualizr_secondary_config__coll__graph_org.svg" target="_base">
           <rect id="button" ry="5" rx="5" y="6" x="6" height="38" width="38"
                fill="#f2f5e9" fill-opacity="0.5" stroke="#606060" stroke-width="1.0"/>
           <path id="arrow"
             d="M 11.500037,31.436501 C 11.940474,20.09759 22.043105,11.32322 32.158766,21.979434 L 37.068811,17.246167 C 37.068811,17.246167 37.088388,32 37.088388,32 L 22.160133,31.978069 C 22.160133,31.978069 26.997745,27.140456 26.997745,27.140456 C 18.528582,18.264221 13.291696,25.230495 11.500037,31.436501 z"
             style="fill:#404040;"/>
          </a>
         </g>
        </svg>
</svg>
