<?xml version="1.0" encoding="UTF-8" standalone="no"?>
<!DOCTYPE svg PUBLIC "-//W3C//DTD SVG 1.1//EN"
 "http://www.w3.org/Graphics/SVG/1.1/DTD/svg11.dtd">
<!-- Generated by graphviz version 2.43.0 (0)
 -->
<!-- Title: AktualizrSecondary Pages: 1 -->
<svg width="336pt" height="84pt"
 viewBox="0.00 0.00 336.00 84.00" xmlns="http://www.w3.org/2000/svg" xmlns:xlink="http://www.w3.org/1999/xlink">
<g id="graph0" class="graph" transform="scale(1 1) rotate(0) translate(4 80)">
<title>AktualizrSecondary</title>
<polygon fill="white" stroke="transparent" points="-4,4 -4,-80 332,-80 332,4 -4,4"/>
<!-- Node0 -->
<g id="node1" class="node">
<title>Node0</title>
<polygon fill="#bfbfbf" stroke="black" points="108,-0.5 108,-19.5 219,-19.5 219,-0.5 108,-0.5"/>
<text text-anchor="middle" x="163.5" y="-7.5" font-family="Helvetica,sans-Serif" font-size="10.00">AktualizrSecondary</text>
</g>
<!-- Node1 -->
<g id="node2" class="node">
<title>Node1</title>
<g id="a_node2"><a xlink:href="class_aktualizr_secondary_interface.html" target="_top" xlink:title="AktualizrSecondaryInterface">
<polygon fill="white" stroke="black" points="0,-56.5 0,-75.5 155,-75.5 155,-56.5 0,-56.5"/>
<text text-anchor="middle" x="77.5" y="-63.5" font-family="Helvetica,sans-Serif" font-size="10.00">AktualizrSecondaryInterface</text>
</a>
</g>
</g>
<!-- Node1&#45;&gt;Node0 -->
<g id="edge1" class="edge">
<title>Node1&#45;&gt;Node0</title>
<path fill="none" stroke="midnightblue" d="M99.95,-50.9C115.72,-41 136.31,-28.07 149.72,-19.65"/>
<polygon fill="midnightblue" stroke="midnightblue" points="97.93,-48.04 91.32,-56.32 101.65,-53.97 97.93,-48.04"/>
</g>
<!-- Node2 -->
<g id="node3" class="node">
<title>Node2</title>
<g id="a_node3"><a xlink:href="class_aktualizr_secondary_common.html" target="_top" xlink:title="AktualizrSecondaryCommon">
<polygon fill="white" stroke="black" points="173,-56.5 173,-75.5 328,-75.5 328,-56.5 173,-56.5"/>
<text text-anchor="middle" x="250.5" y="-63.5" font-family="Helvetica,sans-Serif" font-size="10.00">AktualizrSecondaryCommon</text>
</a>
</g>
</g>
<!-- Node2&#45;&gt;Node0 -->
<g id="edge2" class="edge">
<title>Node2&#45;&gt;Node0</title>
<path fill="none" stroke="#8b1a1a" d="M227.78,-50.9C211.83,-41 191,-28.07 177.44,-19.65"/>
<polygon fill="#8b1a1a" stroke="#8b1a1a" points="226.18,-54.02 236.52,-56.32 229.87,-48.08 226.18,-54.02"/>
</g>
</g>
</svg>
