<?xml version="1.0" encoding="UTF-8" standalone="no"?>
<!DOCTYPE svg PUBLIC "-//W3C//DTD SVG 1.1//EN"
 "http://www.w3.org/Graphics/SVG/1.1/DTD/svg11.dtd">
<!-- Generated by graphviz version 2.43.0 (0)
 -->
<!-- Title: event::BaseEvent Pages: 1 -->
<!--zoomable 484 -->
<svg id="main" version="1.1" xmlns="http://www.w3.org/2000/svg" xmlns:xlink="http://www.w3.org/1999/xlink" xml:space="preserve" onload="init(evt)">
<style type="text/css"><![CDATA[
.edge:hover path { stroke: red; }
.edge:hover polygon { stroke: red; fill: red; }
]]></style>
<script type="text/javascript"><![CDATA[
var edges = document.getElementsByTagName('g');
if (edges && edges.length) {
  for (var i=0;i<edges.length;i++) {
    if (edges[i].id.substr(0,4)=='edge') {
      edges[i].setAttribute('class','edge');
    }
  }
}
]]></script>
        <defs>
                <circle id="rim" cx="0" cy="0" r="7"/>
                <circle id="rim2" cx="0" cy="0" r="3.5"/>
                <g id="zoomPlus">
                        <use xlink:href="#rim" fill="#404040">
                                <set attributeName="fill" to="#808080" begin="zoomplus.mouseover" end="zoomplus.mouseout"/>
                        </use>
                        <path d="M-4,0h8M0,-4v8" fill="none" stroke="white" stroke-width="1.5" pointer-events="none"/>
                </g>
                <g id="zoomMin">
                        <use xlink:href="#rim" fill="#404040">
                                <set attributeName="fill" to="#808080" begin="zoomminus.mouseover" end="zoomminus.mouseout"/>
                        </use>
                        <path d="M-4,0h8" fill="none" stroke="white" stroke-width="1.5" pointer-events="none"/>
                </g>
                <g id="dirArrow">
                        <path fill="none" stroke="white" stroke-width="1.5" d="M0,-3.0v7 M-2.5,-0.5L0,-3.0L2.5,-0.5"/>
                </g>
               <g id="resetDef">
                       <use xlink:href="#rim2" fill="#404040">
                               <set attributeName="fill" to="#808080" begin="reset.mouseover" end="reset.mouseout"/>
                       </use>
               </g>
        </defs>

<script type="text/javascript">
var viewWidth = 338;
var viewHeight = 484;
var sectionId = 'dynsection-0';
</script>
<script xlink:href="svgpan.js"/>
<svg id="graph" class="graph">
<g id="viewport">
<title>event::BaseEvent</title>
<polygon fill="white" stroke="transparent" points="-4,4 -4,-480 334,-480 334,4 -4,4"/>
<!-- Node0 -->
<g id="node1" class="node">
<title>Node0</title>
<polygon fill="#bfbfbf" stroke="black" points="0,-228.5 0,-247.5 102,-247.5 102,-228.5 0,-228.5"/>
<text text-anchor="middle" x="51" y="-235.5" font-family="Helvetica,sans-Serif" font-size="10.00">event::BaseEvent</text>
</g>
<!-- Node1 -->
<g id="node2" class="node">
<title>Node1</title>
<g id="a_node2"><a xlink:href="classevent_1_1_all_downloads_complete.html" target="_top" xlink:title="All targets for an update have been downloaded. ">
<polygon fill="white" stroke="black" points="152,-456.5 152,-475.5 316,-475.5 316,-456.5 152,-456.5"/>
<text text-anchor="middle" x="234" y="-463.5" font-family="Helvetica,sans-Serif" font-size="10.00">event::AllDownloadsComplete</text>
</a>
</g>
</g>
<!-- Node0&#45;&gt;Node1 -->
<g id="edge1" class="edge">
<title>Node0&#45;&gt;Node1</title>
<path fill="none" stroke="midnightblue" d="M54.02,-257.81C59.41,-299.74 78.07,-397.65 138,-447 142.54,-450.74 147.62,-453.82 153,-456.34"/>
<polygon fill="midnightblue" stroke="midnightblue" points="57.48,-257.3 52.85,-247.77 50.53,-258.1 57.48,-257.3"/>
</g>
<!-- Node2 -->
<g id="node3" class="node">
<title>Node2</title>
<g id="a_node3"><a xlink:href="classevent_1_1_all_installs_complete.html" target="_top" xlink:title="All ECU installation attempts for an update have completed. ">
<polygon fill="white" stroke="black" points="161,-418.5 161,-437.5 307,-437.5 307,-418.5 161,-418.5"/>
<text text-anchor="middle" x="234" y="-425.5" font-family="Helvetica,sans-Serif" font-size="10.00">event::AllInstallsComplete</text>
</a>
</g>
</g>
<!-- Node0&#45;&gt;Node2 -->
<g id="edge2" class="edge">
<title>Node0&#45;&gt;Node2</title>
<path fill="none" stroke="midnightblue" d="M56.01,-257.87C64.42,-294.04 87.44,-370.47 138,-409 144.82,-414.2 152.7,-418.08 160.93,-420.96"/>
<polygon fill="midnightblue" stroke="midnightblue" points="59.33,-256.66 53.78,-247.63 52.49,-258.15 59.33,-256.66"/>
</g>
<!-- Node3 -->
<g id="node4" class="node">
<title>Node3</title>
<g id="a_node4"><a xlink:href="classevent_1_1_campaign_accept_complete.html" target="_top" xlink:title="A campaign has been accepted. ">
<polygon fill="white" stroke="black" points="144,-380.5 144,-399.5 324,-399.5 324,-380.5 144,-380.5"/>
<text text-anchor="middle" x="234" y="-387.5" font-family="Helvetica,sans-Serif" font-size="10.00">event::CampaignAcceptComplete</text>
</a>
</g>
</g>
<!-- Node0&#45;&gt;Node3 -->
<g id="edge3" class="edge">
<title>Node0&#45;&gt;Node3</title>
<path fill="none" stroke="midnightblue" d="M58.75,-257.15C70.19,-286.62 96.28,-342.64 138,-371 143.56,-374.78 149.71,-377.85 156.12,-380.33"/>
<polygon fill="midnightblue" stroke="midnightblue" points="61.97,-255.75 55.2,-247.59 55.4,-258.19 61.97,-255.75"/>
</g>
<!-- Node4 -->
<g id="node5" class="node">
<title>Node4</title>
<g id="a_node5"><a xlink:href="classevent_1_1_campaign_check_complete.html" target="_top" xlink:title="The server has been queried for available campaigns. ">
<polygon fill="white" stroke="black" points="145.5,-342.5 145.5,-361.5 322.5,-361.5 322.5,-342.5 145.5,-342.5"/>
<text text-anchor="middle" x="234" y="-349.5" font-family="Helvetica,sans-Serif" font-size="10.00">event::CampaignCheckComplete</text>
</a>
</g>
</g>
<!-- Node0&#45;&gt;Node4 -->
<g id="edge4" class="edge">
<title>Node0&#45;&gt;Node4</title>
<path fill="none" stroke="midnightblue" d="M63.27,-256.36C77.74,-278.25 104.97,-314.25 138,-333 144.88,-336.9 152.43,-340.01 160.18,-342.49"/>
<polygon fill="midnightblue" stroke="midnightblue" points="66.05,-254.2 57.71,-247.66 60.15,-257.97 66.05,-254.2"/>
</g>
<!-- Node5 -->
<g id="node6" class="node">
<title>Node5</title>
<g id="a_node6"><a xlink:href="classevent_1_1_campaign_decline_complete.html" target="_top" xlink:title="event::CampaignDeclineComplete">
<polygon fill="white" stroke="black" points="142,-304.5 142,-323.5 326,-323.5 326,-304.5 142,-304.5"/>
<text text-anchor="middle" x="234" y="-311.5" font-family="Helvetica,sans-Serif" font-size="10.00">event::CampaignDeclineComplete</text>
</a>
</g>
</g>
<!-- Node0&#45;&gt;Node5 -->
<g id="edge5" class="edge">
<title>Node0&#45;&gt;Node5</title>
<path fill="none" stroke="midnightblue" d="M71.29,-253.99C87.95,-266.97 113.18,-284.76 138,-295 147.41,-298.88 157.67,-301.99 167.87,-304.47"/>
<polygon fill="midnightblue" stroke="midnightblue" points="73.41,-251.2 63.41,-247.7 69.04,-256.67 73.41,-251.2"/>
</g>
<!-- Node6 -->
<g id="node7" class="node">
<title>Node6</title>
<g id="a_node7"><a xlink:href="classevent_1_1_campaign_postpone_complete.html" target="_top" xlink:title="event::CampaignPostponeComplete">
<polygon fill="white" stroke="black" points="138,-266.5 138,-285.5 330,-285.5 330,-266.5 138,-266.5"/>
<text text-anchor="middle" x="234" y="-273.5" font-family="Helvetica,sans-Serif" font-size="10.00">event::CampaignPostponeComplete</text>
</a>
</g>
</g>
<!-- Node0&#45;&gt;Node6 -->
<g id="edge6" class="edge">
<title>Node0&#45;&gt;Node6</title>
<path fill="none" stroke="midnightblue" d="M104.39,-249.75C115.48,-252.19 127.12,-254.71 138,-257 152.98,-260.15 169.31,-263.46 184.14,-266.42"/>
<polygon fill="midnightblue" stroke="midnightblue" points="104.91,-246.28 94.39,-247.54 103.4,-253.12 104.91,-246.28"/>
</g>
<!-- Node7 -->
<g id="node8" class="node">
<title>Node7</title>
<g id="a_node8"><a xlink:href="classevent_1_1_download_progress_report.html" target="_top" xlink:title="A report for a download in progress. ">
<polygon fill="white" stroke="black" points="147.5,-228.5 147.5,-247.5 320.5,-247.5 320.5,-228.5 147.5,-228.5"/>
<text text-anchor="middle" x="234" y="-235.5" font-family="Helvetica,sans-Serif" font-size="10.00">event::DownloadProgressReport</text>
</a>
</g>
</g>
<!-- Node0&#45;&gt;Node7 -->
<g id="edge7" class="edge">
<title>Node0&#45;&gt;Node7</title>
<path fill="none" stroke="midnightblue" d="M112.52,-238C123.75,-238 135.68,-238 147.49,-238"/>
<polygon fill="midnightblue" stroke="midnightblue" points="112.42,-234.5 102.42,-238 112.42,-241.5 112.42,-234.5"/>
</g>
<!-- Node8 -->
<g id="node9" class="node">
<title>Node8</title>
<g id="a_node9"><a xlink:href="classevent_1_1_download_target_complete.html" target="_top" xlink:title="A target has been downloaded. ">
<polygon fill="white" stroke="black" points="146,-190.5 146,-209.5 322,-209.5 322,-190.5 146,-190.5"/>
<text text-anchor="middle" x="234" y="-197.5" font-family="Helvetica,sans-Serif" font-size="10.00">event::DownloadTargetComplete</text>
</a>
</g>
</g>
<!-- Node0&#45;&gt;Node8 -->
<g id="edge8" class="edge">
<title>Node0&#45;&gt;Node8</title>
<path fill="none" stroke="midnightblue" d="M104.39,-226.25C115.48,-223.81 127.12,-221.29 138,-219 152.98,-215.85 169.31,-212.54 184.14,-209.58"/>
<polygon fill="midnightblue" stroke="midnightblue" points="103.4,-222.88 94.39,-228.46 104.91,-229.72 103.4,-222.88"/>
</g>
<!-- Node9 -->
<g id="node10" class="node">
<title>Node9</title>
<g id="a_node10"><a xlink:href="classevent_1_1_install_started.html" target="_top" xlink:title="An ECU has begun installation of an update. ">
<polygon fill="white" stroke="black" points="176,-152.5 176,-171.5 292,-171.5 292,-152.5 176,-152.5"/>
<text text-anchor="middle" x="234" y="-159.5" font-family="Helvetica,sans-Serif" font-size="10.00">event::InstallStarted</text>
</a>
</g>
</g>
<!-- Node0&#45;&gt;Node9 -->
<g id="edge9" class="edge">
<title>Node0&#45;&gt;Node9</title>
<path fill="none" stroke="midnightblue" d="M71.29,-222.01C87.95,-209.03 113.18,-191.24 138,-181 149.82,-176.12 162.99,-172.47 175.67,-169.74"/>
<polygon fill="midnightblue" stroke="midnightblue" points="69.04,-219.33 63.41,-228.3 73.41,-224.8 69.04,-219.33"/>
</g>
<!-- Node10 -->
<g id="node11" class="node">
<title>Node10</title>
<g id="a_node11"><a xlink:href="classevent_1_1_install_target_complete.html" target="_top" xlink:title="An installation attempt on an ECU has completed. ">
<polygon fill="white" stroke="black" points="155,-114.5 155,-133.5 313,-133.5 313,-114.5 155,-114.5"/>
<text text-anchor="middle" x="234" y="-121.5" font-family="Helvetica,sans-Serif" font-size="10.00">event::InstallTargetComplete</text>
</a>
</g>
</g>
<!-- Node0&#45;&gt;Node10 -->
<g id="edge10" class="edge">
<title>Node0&#45;&gt;Node10</title>
<path fill="none" stroke="midnightblue" d="M63.27,-219.64C77.74,-197.75 104.97,-161.75 138,-143 144.88,-139.1 152.43,-135.99 160.18,-133.51"/>
<polygon fill="midnightblue" stroke="midnightblue" points="60.15,-218.03 57.71,-228.34 66.05,-221.8 60.15,-218.03"/>
</g>
<!-- Node11 -->
<g id="node12" class="node">
<title>Node11</title>
<g id="a_node12"><a xlink:href="classevent_1_1_put_manifest_complete.html" target="_top" xlink:title="A manifest has been sent to the server. ">
<polygon fill="white" stroke="black" points="156.5,-76.5 156.5,-95.5 311.5,-95.5 311.5,-76.5 156.5,-76.5"/>
<text text-anchor="middle" x="234" y="-83.5" font-family="Helvetica,sans-Serif" font-size="10.00">event::PutManifestComplete</text>
</a>
</g>
</g>
<!-- Node0&#45;&gt;Node11 -->
<g id="edge11" class="edge">
<title>Node0&#45;&gt;Node11</title>
<path fill="none" stroke="midnightblue" d="M58.75,-218.85C70.19,-189.38 96.28,-133.36 138,-105 143.56,-101.22 149.71,-98.15 156.12,-95.67"/>
<polygon fill="midnightblue" stroke="midnightblue" points="55.4,-217.81 55.2,-228.41 61.97,-220.25 55.4,-217.81"/>
</g>
<!-- Node12 -->
<g id="node13" class="node">
<title>Node12</title>
<g id="a_node13"><a xlink:href="classevent_1_1_send_device_data_complete.html" target="_top" xlink:title="Device data has been sent to the server. ">
<polygon fill="white" stroke="black" points="144.5,-38.5 144.5,-57.5 323.5,-57.5 323.5,-38.5 144.5,-38.5"/>
<text text-anchor="middle" x="234" y="-45.5" font-family="Helvetica,sans-Serif" font-size="10.00">event::SendDeviceDataComplete</text>
</a>
</g>
</g>
<!-- Node0&#45;&gt;Node12 -->
<g id="edge12" class="edge">
<title>Node0&#45;&gt;Node12</title>
<path fill="none" stroke="midnightblue" d="M56.01,-218.13C64.42,-181.96 87.44,-105.53 138,-67 142.95,-63.23 148.45,-60.15 154.25,-57.64"/>
<polygon fill="midnightblue" stroke="midnightblue" points="52.49,-217.85 53.78,-228.37 59.33,-219.34 52.49,-217.85"/>
</g>
<!-- Node13 -->
<g id="node14" class="node">
<title>Node13</title>
<g id="a_node14"><a xlink:href="classevent_1_1_update_check_complete.html" target="_top" xlink:title="An update is available for download from the server. ">
<polygon fill="white" stroke="black" points="152.5,-0.5 152.5,-19.5 315.5,-19.5 315.5,-0.5 152.5,-0.5"/>
<text text-anchor="middle" x="234" y="-7.5" font-family="Helvetica,sans-Serif" font-size="10.00">event::UpdateCheckComplete</text>
</a>
</g>
</g>
<!-- Node0&#45;&gt;Node13 -->
<g id="edge13" class="edge">
<title>Node0&#45;&gt;Node13</title>
<path fill="none" stroke="midnightblue" d="M54.02,-218.19C59.41,-176.26 78.07,-78.35 138,-29 142.54,-25.26 147.62,-22.18 153,-19.66"/>
<polygon fill="midnightblue" stroke="midnightblue" points="50.53,-217.9 52.85,-228.23 57.48,-218.7 50.53,-217.9"/>
</g>
</g>
</svg>
        <g id="navigator" transform="translate(0 0)" fill="#404254">
                <rect fill="#f2f5e9" fill-opacity="0.5" stroke="#606060" stroke-width=".5" x="0" y="0" width="60" height="60"/>
                <use id="zoomplus" xlink:href="#zoomPlus" x="17" y="9" onmousedown="handleZoom(evt,'in')"/>
                <use id="zoomminus" xlink:href="#zoomMin" x="42" y="9" onmousedown="handleZoom(evt,'out')"/>
                <use id="reset" xlink:href="#resetDef" x="30" y="36" onmousedown="handleReset()"/>
                <g id="arrowUp" xlink:href="#dirArrow" transform="translate(30 24)" onmousedown="handlePan(0,-1)">
                  <use xlink:href="#rim" fill="#404040">
                        <set attributeName="fill" to="#808080" begin="arrowUp.mouseover" end="arrowUp.mouseout"/>
                  </use>
                  <path fill="none" stroke="white" stroke-width="1.5" d="M0,-3.0v7 M-2.5,-0.5L0,-3.0L2.5,-0.5"/>
                </g>
                <g id="arrowRight" xlink:href="#dirArrow" transform="rotate(90) translate(36 -43)" onmousedown="handlePan(1,0)">
                  <use xlink:href="#rim" fill="#404040">
                        <set attributeName="fill" to="#808080" begin="arrowRight.mouseover" end="arrowRight.mouseout"/>
                  </use>
                  <path fill="none" stroke="white" stroke-width="1.5" d="M0,-3.0v7 M-2.5,-0.5L0,-3.0L2.5,-0.5"/>
                </g>
                <g id="arrowDown" xlink:href="#dirArrow" transform="rotate(180) translate(-30 -48)" onmousedown="handlePan(0,1)">
                  <use xlink:href="#rim" fill="#404040">
                        <set attributeName="fill" to="#808080" begin="arrowDown.mouseover" end="arrowDown.mouseout"/>
                  </use>
                  <path fill="none" stroke="white" stroke-width="1.5" d="M0,-3.0v7 M-2.5,-0.5L0,-3.0L2.5,-0.5"/>
                </g>
                <g id="arrowLeft" xlink:href="#dirArrow" transform="rotate(270) translate(-36 17)" onmousedown="handlePan(-1,0)">
                  <use xlink:href="#rim" fill="#404040">
                        <set attributeName="fill" to="#808080" begin="arrowLeft.mouseover" end="arrowLeft.mouseout"/>
                  </use>
                  <path fill="none" stroke="white" stroke-width="1.5" d="M0,-3.0v7 M-2.5,-0.5L0,-3.0L2.5,-0.5"/>
                </g>
        </g>
        <svg viewBox="0 0 15 15" width="100%" height="30px" preserveAspectRatio="xMaxYMin meet">
         <g id="arrow_out" transform="scale(0.3 0.3)">
          <a xlink:href="classevent_1_1_base_event__inherit__graph_org.svg" target="_base">
           <rect id="button" ry="5" rx="5" y="6" x="6" height="38" width="38"
                fill="#f2f5e9" fill-opacity="0.5" stroke="#606060" stroke-width="1.0"/>
           <path id="arrow"
             d="M 11.500037,31.436501 C 11.940474,20.09759 22.043105,11.32322 32.158766,21.979434 L 37.068811,17.246167 C 37.068811,17.246167 37.088388,32 37.088388,32 L 22.160133,31.978069 C 22.160133,31.978069 26.997745,27.140456 26.997745,27.140456 C 18.528582,18.264221 13.291696,25.230495 11.500037,31.436501 z"
             style="fill:#404040;"/>
          </a>
         </g>
        </svg>
</svg>
