<?xml version="1.0" encoding="UTF-8" standalone="no"?>
<!DOCTYPE svg PUBLIC "-//W3C//DTD SVG 1.1//EN"
 "http://www.w3.org/Graphics/SVG/1.1/DTD/svg11.dtd">
<!-- Generated by graphviz version 2.43.0 (0)
 -->
<!-- Title: HttpCheckUrl Pages: 1 -->
<svg width="354pt" height="231pt"
 viewBox="0.00 0.00 353.50 231.00" xmlns="http://www.w3.org/2000/svg" xmlns:xlink="http://www.w3.org/1999/xlink">
<g id="graph0" class="graph" transform="scale(1 1) rotate(0) translate(4 227)">
<title>HttpCheckUrl</title>
<polygon fill="white" stroke="transparent" points="-4,4 -4,-227 349.5,-227 349.5,4 -4,4"/>
<!-- Node3 -->
<g id="node1" class="node">
<title>Node3</title>
<polygon fill="#bfbfbf" stroke="black" points="223.5,-0.5 223.5,-19.5 305.5,-19.5 305.5,-0.5 223.5,-0.5"/>
<text text-anchor="middle" x="264.5" y="-7.5" font-family="Helvetica,sans-Serif" font-size="10.00">HttpCheckUrl</text>
</g>
<!-- Node4 -->
<g id="node2" class="node">
<title>Node4</title>
<g id="a_node2"><a xlink:href="class_http_fake.html" target="_top" xlink:title="HttpFake">
<polygon fill="white" stroke="black" points="176.5,-57.5 176.5,-76.5 236.5,-76.5 236.5,-57.5 176.5,-57.5"/>
<text text-anchor="middle" x="206.5" y="-64.5" font-family="Helvetica,sans-Serif" font-size="10.00">HttpFake</text>
</a>
</g>
</g>
<!-- Node4&#45;&gt;Node3 -->
<g id="edge1" class="edge">
<title>Node4&#45;&gt;Node3</title>
<path fill="none" stroke="midnightblue" d="M222.93,-50.42C233.42,-40.47 246.63,-27.94 255.31,-19.71"/>
<polygon fill="midnightblue" stroke="midnightblue" points="220.41,-47.99 215.56,-57.41 225.23,-53.06 220.41,-47.99"/>
</g>
<!-- Node5 -->
<g id="node3" class="node">
<title>Node5</title>
<g id="a_node3"><a xlink:href="class_http_interface.html" target="_top" xlink:title="HttpInterface">
<polygon fill="white" stroke="black" points="0,-135.5 0,-154.5 81,-154.5 81,-135.5 0,-135.5"/>
<text text-anchor="middle" x="40.5" y="-142.5" font-family="Helvetica,sans-Serif" font-size="10.00">HttpInterface</text>
</a>
</g>
</g>
<!-- Node5&#45;&gt;Node4 -->
<g id="edge2" class="edge">
<title>Node5&#45;&gt;Node4</title>
<path fill="none" stroke="midnightblue" d="M68,-131.2C89.37,-121.26 119.79,-107.18 146.5,-95 160.11,-88.79 175.51,-81.87 187.29,-76.58"/>
<polygon fill="midnightblue" stroke="midnightblue" points="66.45,-128.06 58.86,-135.45 69.4,-134.4 66.45,-128.06"/>
</g>
<!-- Node6 -->
<g id="node4" class="node">
<title>Node6</title>
<g id="a_node4"><a xlink:href="class_temporary_directory.html" target="_top" xlink:title="TemporaryDirectory">
<polygon fill="white" stroke="black" points="99,-135.5 99,-154.5 212,-154.5 212,-135.5 99,-135.5"/>
<text text-anchor="middle" x="155.5" y="-142.5" font-family="Helvetica,sans-Serif" font-size="10.00">TemporaryDirectory</text>
</a>
</g>
</g>
<!-- Node6&#45;&gt;Node4 -->
<g id="edge3" class="edge">
<title>Node6&#45;&gt;Node4</title>
<path fill="none" stroke="#9a32cd" stroke-dasharray="5,2" d="M151.63,-125.42C150.6,-115.69 151.02,-103.97 156.5,-95 161.59,-86.66 170.22,-80.74 178.89,-76.6"/>
<polygon fill="#9a32cd" stroke="#9a32cd" points="148.17,-125.99 153.21,-135.31 155.08,-124.88 148.17,-125.99"/>
<text text-anchor="middle" x="195.5" y="-103.5" font-family="Helvetica,sans-Serif" font-size="10.00"> temp_meta_dir</text>
</g>
<!-- Node7 -->
<g id="node5" class="node">
<title>Node7</title>
<g id="a_node5"><a xlink:title="STL class. ">
<polygon fill="white" stroke="#bfbfbf" points="261,-135.5 261,-154.5 326,-154.5 326,-135.5 261,-135.5"/>
<text text-anchor="middle" x="293.5" y="-142.5" font-family="Helvetica,sans-Serif" font-size="10.00">std::string</text>
</a>
</g>
</g>
<!-- Node7&#45;&gt;Node3 -->
<g id="edge6" class="edge">
<title>Node7&#45;&gt;Node3</title>
<path fill="none" stroke="#9a32cd" stroke-dasharray="5,2" d="M305.75,-126.31C307.3,-123.32 308.64,-120.16 309.5,-117 312.08,-107.57 311.88,-104.48 309.5,-95 302.01,-65.15 281.65,-34.33 271.07,-19.71"/>
<polygon fill="#9a32cd" stroke="#9a32cd" points="302.63,-124.7 300.45,-135.06 308.62,-128.32 302.63,-124.7"/>
<text text-anchor="middle" x="313.5" y="-64.5" font-family="Helvetica,sans-Serif" font-size="10.00"> url_</text>
</g>
<!-- Node7&#45;&gt;Node4 -->
<g id="edge4" class="edge">
<title>Node7&#45;&gt;Node4</title>
<path fill="none" stroke="#9a32cd" stroke-dasharray="5,2" d="M272.98,-129.29C267.83,-125.41 262.38,-121.15 257.5,-117 256.41,-116.08 229.98,-90.63 215.61,-76.78"/>
<polygon fill="#9a32cd" stroke="#9a32cd" points="271.09,-132.24 281.21,-135.36 275.24,-126.61 271.09,-132.24"/>
<text text-anchor="middle" x="283.5" y="-109" font-family="Helvetica,sans-Serif" font-size="10.00"> tls_server</text>
<text text-anchor="middle" x="283.5" y="-98" font-family="Helvetica,sans-Serif" font-size="10.00">flavor_</text>
</g>
<!-- Node8 -->
<g id="node6" class="node">
<title>Node8</title>
<g id="a_node6"><a xlink:title="STL class. ">
<polygon fill="white" stroke="#bfbfbf" points="241.5,-192.5 241.5,-222.5 345.5,-222.5 345.5,-192.5 241.5,-192.5"/>
<text text-anchor="start" x="249.5" y="-210.5" font-family="Helvetica,sans-Serif" font-size="10.00">std::basic_string&lt;</text>
<text text-anchor="middle" x="293.5" y="-199.5" font-family="Helvetica,sans-Serif" font-size="10.00"> char &gt;</text>
</a>
</g>
</g>
<!-- Node8&#45;&gt;Node7 -->
<g id="edge5" class="edge">
<title>Node8&#45;&gt;Node7</title>
<path fill="none" stroke="midnightblue" d="M293.5,-182.35C293.5,-172.51 293.5,-161.78 293.5,-154.54"/>
<polygon fill="midnightblue" stroke="midnightblue" points="290,-182.47 293.5,-192.47 297,-182.47 290,-182.47"/>
</g>
</g>
</svg>
