<?xml version="1.0" encoding="UTF-8" standalone="no"?>
<!DOCTYPE svg PUBLIC "-//W3C//DTD SVG 1.1//EN"
 "http://www.w3.org/Graphics/SVG/1.1/DTD/svg11.dtd">
<!-- Generated by graphviz version 2.43.0 (0)
 -->
<!-- Title: Primary::SecondaryConfig Pages: 1 -->
<svg width="415pt" height="162pt"
 viewBox="0.00 0.00 415.00 162.00" xmlns="http://www.w3.org/2000/svg" xmlns:xlink="http://www.w3.org/1999/xlink">
<g id="graph0" class="graph" transform="scale(1 1) rotate(0) translate(4 158)">
<title>Primary::SecondaryConfig</title>
<polygon fill="white" stroke="transparent" points="-4,4 -4,-158 411,-158 411,4 -4,4"/>
<!-- Node0 -->
<g id="node1" class="node">
<title>Node0</title>
<polygon fill="#bfbfbf" stroke="black" points="95.5,-134.5 95.5,-153.5 237.5,-153.5 237.5,-134.5 95.5,-134.5"/>
<text text-anchor="middle" x="166.5" y="-141.5" font-family="Helvetica,sans-Serif" font-size="10.00">Primary::SecondaryConfig</text>
</g>
<!-- Node1 -->
<g id="node2" class="node">
<title>Node1</title>
<g id="a_node2"><a xlink:href="class_primary_1_1_i_p_secondaries_config.html" target="_top" xlink:title="Primary::IPSecondariesConfig">
<polygon fill="white" stroke="black" points="0,-73 0,-92 159,-92 159,-73 0,-73"/>
<text text-anchor="middle" x="79.5" y="-80" font-family="Helvetica,sans-Serif" font-size="10.00">Primary::IPSecondariesConfig</text>
</a>
</g>
</g>
<!-- Node0&#45;&gt;Node1 -->
<g id="edge1" class="edge">
<title>Node0&#45;&gt;Node1</title>
<path fill="none" stroke="midnightblue" d="M145.46,-128.61C128.73,-117.17 105.89,-101.55 91.94,-92.01"/>
<polygon fill="midnightblue" stroke="midnightblue" points="143.8,-131.72 154.04,-134.48 147.76,-125.94 143.8,-131.72"/>
</g>
<!-- Node2 -->
<g id="node3" class="node">
<title>Node2</title>
<g id="a_node3"><a xlink:href="class_primary_1_1_managed_secondary_config.html" target="_top" xlink:title="Primary::ManagedSecondary\lConfig">
<polygon fill="white" stroke="black" points="177,-67.5 177,-97.5 332,-97.5 332,-67.5 177,-67.5"/>
<text text-anchor="start" x="185" y="-85.5" font-family="Helvetica,sans-Serif" font-size="10.00">Primary::ManagedSecondary</text>
<text text-anchor="middle" x="254.5" y="-74.5" font-family="Helvetica,sans-Serif" font-size="10.00">Config</text>
</a>
</g>
</g>
<!-- Node0&#45;&gt;Node2 -->
<g id="edge2" class="edge">
<title>Node0&#45;&gt;Node2</title>
<path fill="none" stroke="midnightblue" d="M187.59,-128.74C201.58,-119.28 219.85,-106.93 233.76,-97.52"/>
<polygon fill="midnightblue" stroke="midnightblue" points="185.43,-125.97 179.11,-134.48 189.35,-131.77 185.43,-125.97"/>
</g>
<!-- Node3 -->
<g id="node4" class="node">
<title>Node3</title>
<g id="a_node4"><a xlink:href="class_primary_1_1_partial_verification_secondary_config.html" target="_top" xlink:title="Primary::PartialVerification\lSecondaryConfig">
<polygon fill="white" stroke="black" points="99.5,-0.5 99.5,-30.5 245.5,-30.5 245.5,-0.5 99.5,-0.5"/>
<text text-anchor="start" x="107.5" y="-18.5" font-family="Helvetica,sans-Serif" font-size="10.00">Primary::PartialVerification</text>
<text text-anchor="middle" x="172.5" y="-7.5" font-family="Helvetica,sans-Serif" font-size="10.00">SecondaryConfig</text>
</a>
</g>
</g>
<!-- Node2&#45;&gt;Node3 -->
<g id="edge3" class="edge">
<title>Node2&#45;&gt;Node3</title>
<path fill="none" stroke="midnightblue" d="M228.85,-61.17C216.31,-51.23 201.53,-39.51 190.26,-30.58"/>
<polygon fill="midnightblue" stroke="midnightblue" points="226.7,-63.93 236.71,-67.4 231.04,-58.44 226.7,-63.93"/>
</g>
<!-- Node4 -->
<g id="node5" class="node">
<title>Node4</title>
<g id="a_node5"><a xlink:href="class_primary_1_1_virtual_secondary_config.html" target="_top" xlink:title="Primary::VirtualSecondary\lConfig">
<polygon fill="white" stroke="black" points="264,-0.5 264,-30.5 407,-30.5 407,-0.5 264,-0.5"/>
<text text-anchor="start" x="272" y="-18.5" font-family="Helvetica,sans-Serif" font-size="10.00">Primary::VirtualSecondary</text>
<text text-anchor="middle" x="335.5" y="-7.5" font-family="Helvetica,sans-Serif" font-size="10.00">Config</text>
</a>
</g>
</g>
<!-- Node2&#45;&gt;Node4 -->
<g id="edge4" class="edge">
<title>Node2&#45;&gt;Node4</title>
<path fill="none" stroke="midnightblue" d="M280.19,-60.88C292.5,-51.01 306.93,-39.43 317.96,-30.58"/>
<polygon fill="midnightblue" stroke="midnightblue" points="277.68,-58.41 272.08,-67.4 282.07,-63.87 277.68,-58.41"/>
</g>
</g>
</svg>
