<?xml version="1.0" encoding="UTF-8" standalone="no"?>
<!DOCTYPE svg PUBLIC "-//W3C//DTD SVG 1.1//EN"
 "http://www.w3.org/Graphics/SVG/1.1/DTD/svg11.dtd">
<!-- Generated by graphviz version 2.43.0 (0)
 -->
<!-- Title: event::PutManifestComplete Pages: 1 -->
<svg width="163pt" height="220pt"
 viewBox="0.00 0.00 163.00 220.00" xmlns="http://www.w3.org/2000/svg" xmlns:xlink="http://www.w3.org/1999/xlink">
<g id="graph0" class="graph" transform="scale(1 1) rotate(0) translate(4 216)">
<title>event::PutManifestComplete</title>
<polygon fill="white" stroke="transparent" points="-4,4 -4,-216 159,-216 159,4 -4,4"/>
<!-- Node2 -->
<g id="node1" class="node">
<title>Node2</title>
<polygon fill="#bfbfbf" stroke="black" points="0,-0.5 0,-19.5 155,-19.5 155,-0.5 0,-0.5"/>
<text text-anchor="middle" x="77.5" y="-7.5" font-family="Helvetica,sans-Serif" font-size="10.00">event::PutManifestComplete</text>
</g>
<!-- Node3 -->
<g id="node2" class="node">
<title>Node3</title>
<g id="a_node2"><a xlink:href="classevent_1_1_base_event.html" target="_top" xlink:title="Base class for all event objects. ">
<polygon fill="white" stroke="black" points="26.5,-57.5 26.5,-76.5 128.5,-76.5 128.5,-57.5 26.5,-57.5"/>
<text text-anchor="middle" x="77.5" y="-64.5" font-family="Helvetica,sans-Serif" font-size="10.00">event::BaseEvent</text>
</a>
</g>
</g>
<!-- Node3&#45;&gt;Node2 -->
<g id="edge1" class="edge">
<title>Node3&#45;&gt;Node2</title>
<path fill="none" stroke="midnightblue" d="M77.5,-47.12C77.5,-37.82 77.5,-27.06 77.5,-19.71"/>
<polygon fill="midnightblue" stroke="midnightblue" points="74,-47.41 77.5,-57.41 81,-47.41 74,-47.41"/>
</g>
<!-- Node4 -->
<g id="node3" class="node">
<title>Node4</title>
<g id="a_node3"><a xlink:title="STL class. ">
<polygon fill="white" stroke="#bfbfbf" points="45,-124.5 45,-143.5 110,-143.5 110,-124.5 45,-124.5"/>
<text text-anchor="middle" x="77.5" y="-131.5" font-family="Helvetica,sans-Serif" font-size="10.00">std::string</text>
</a>
</g>
</g>
<!-- Node4&#45;&gt;Node3 -->
<g id="edge2" class="edge">
<title>Node4&#45;&gt;Node3</title>
<path fill="none" stroke="#9a32cd" stroke-dasharray="5,2" d="M77.5,-114.04C77.5,-101.67 77.5,-86.12 77.5,-76.63"/>
<polygon fill="#9a32cd" stroke="#9a32cd" points="74,-114.23 77.5,-124.23 81,-114.23 74,-114.23"/>
<text text-anchor="middle" x="96.5" y="-98" font-family="Helvetica,sans-Serif" font-size="10.00"> variant</text>
</g>
<!-- Node5 -->
<g id="node4" class="node">
<title>Node5</title>
<g id="a_node4"><a xlink:title="STL class. ">
<polygon fill="white" stroke="#bfbfbf" points="25.5,-181.5 25.5,-211.5 129.5,-211.5 129.5,-181.5 25.5,-181.5"/>
<text text-anchor="start" x="33.5" y="-199.5" font-family="Helvetica,sans-Serif" font-size="10.00">std::basic_string&lt;</text>
<text text-anchor="middle" x="77.5" y="-188.5" font-family="Helvetica,sans-Serif" font-size="10.00"> char &gt;</text>
</a>
</g>
</g>
<!-- Node5&#45;&gt;Node4 -->
<g id="edge3" class="edge">
<title>Node5&#45;&gt;Node4</title>
<path fill="none" stroke="midnightblue" d="M77.5,-171.35C77.5,-161.51 77.5,-150.78 77.5,-143.54"/>
<polygon fill="midnightblue" stroke="midnightblue" points="74,-171.47 77.5,-181.47 81,-171.47 74,-171.47"/>
</g>
</g>
</svg>
