<?xml version="1.0" encoding="UTF-8" standalone="no"?>
<!DOCTYPE svg PUBLIC "-//W3C//DTD SVG 1.1//EN"
 "http://www.w3.org/Graphics/SVG/1.1/DTD/svg11.dtd">
<!-- Generated by graphviz version 2.43.0 (0)
 -->
<!-- Title: AktualizrSecondaryCommon Pages: 1 -->
<!--zoomable 777 -->
<svg id="main" version="1.1" xmlns="http://www.w3.org/2000/svg" xmlns:xlink="http://www.w3.org/1999/xlink" xml:space="preserve" onload="init(evt)">
<style type="text/css"><![CDATA[
.edge:hover path { stroke: red; }
.edge:hover polygon { stroke: red; fill: red; }
]]></style>
<script type="text/javascript"><![CDATA[
var edges = document.getElementsByTagName('g');
if (edges && edges.length) {
  for (var i=0;i<edges.length;i++) {
    if (edges[i].id.substr(0,4)=='edge') {
      edges[i].setAttribute('class','edge');
    }
  }
}
]]></script>
        <defs>
                <circle id="rim" cx="0" cy="0" r="7"/>
                <circle id="rim2" cx="0" cy="0" r="3.5"/>
                <g id="zoomPlus">
                        <use xlink:href="#rim" fill="#404040">
                                <set attributeName="fill" to="#808080" begin="zoomplus.mouseover" end="zoomplus.mouseout"/>
                        </use>
                        <path d="M-4,0h8M0,-4v8" fill="none" stroke="white" stroke-width="1.5" pointer-events="none"/>
                </g>
                <g id="zoomMin">
                        <use xlink:href="#rim" fill="#404040">
                                <set attributeName="fill" to="#808080" begin="zoomminus.mouseover" end="zoomminus.mouseout"/>
                        </use>
                        <path d="M-4,0h8" fill="none" stroke="white" stroke-width="1.5" pointer-events="none"/>
                </g>
                <g id="dirArrow">
                        <path fill="none" stroke="white" stroke-width="1.5" d="M0,-3.0v7 M-2.5,-0.5L0,-3.0L2.5,-0.5"/>
                </g>
               <g id="resetDef">
                       <use xlink:href="#rim2" fill="#404040">
                               <set attributeName="fill" to="#808080" begin="reset.mouseover" end="reset.mouseout"/>
                       </use>
               </g>
        </defs>

<script type="text/javascript">
var viewWidth = 1714;
var viewHeight = 777;
var sectionId = 'dynsection-1';
</script>
<script xlink:href="svgpan.js"/>
<svg id="graph" class="graph">
<g id="viewport">
<title>AktualizrSecondaryCommon</title>
<polygon fill="white" stroke="transparent" points="-4,4 -4,-773 1710,-773 1710,4 -4,4"/>
<!-- Node2 -->
<g id="node1" class="node">
<title>Node2</title>
<polygon fill="#bfbfbf" stroke="black" points="1551,-368.5 1551,-387.5 1706,-387.5 1706,-368.5 1551,-368.5"/>
<text text-anchor="middle" x="1628.5" y="-375.5" font-family="Helvetica,sans-Serif" font-size="10.00">AktualizrSecondaryCommon</text>
</g>
<!-- Node3 -->
<g id="node2" class="node">
<title>Node3</title>
<polygon fill="white" stroke="#bfbfbf" points="1138,-582 1138,-612 1274,-612 1274,-582 1138,-582"/>
<text text-anchor="start" x="1146" y="-600" font-family="Helvetica,sans-Serif" font-size="10.00">std::unique_ptr&lt; Uptane</text>
<text text-anchor="middle" x="1206" y="-589" font-family="Helvetica,sans-Serif" font-size="10.00">::Target &gt;</text>
</g>
<!-- Node3&#45;&gt;Node2 -->
<g id="edge1" class="edge">
<title>Node3&#45;&gt;Node2</title>
<path fill="none" stroke="#9a32cd" stroke-dasharray="5,2" d="M1284.27,-579.77C1354.14,-561.45 1457.36,-527.36 1533,-472 1568.85,-445.76 1604.08,-406 1619.46,-387.77"/>
<polygon fill="#9a32cd" stroke="#9a32cd" points="1283.02,-576.47 1274.21,-582.36 1284.77,-583.25 1283.02,-576.47"/>
<text text-anchor="middle" x="1366.5" y="-579" font-family="Helvetica,sans-Serif" font-size="10.00"> target_</text>
</g>
<!-- Node4 -->
<g id="node3" class="node">
<title>Node4</title>
<g id="a_node3"><a xlink:href="class_uptane_1_1_target.html" target="_top" xlink:title="Uptane::Target">
<polygon fill="white" stroke="black" points="699,-563.5 699,-582.5 787,-582.5 787,-563.5 699,-563.5"/>
<text text-anchor="middle" x="743" y="-570.5" font-family="Helvetica,sans-Serif" font-size="10.00">Uptane::Target</text>
</a>
</g>
</g>
<!-- Node4&#45;&gt;Node3 -->
<g id="edge2" class="edge">
<title>Node4&#45;&gt;Node3</title>
<path fill="none" stroke="#9a32cd" stroke-dasharray="5,2" d="M797.35,-581.67C810.61,-583.62 824.8,-585.55 838,-587 962.68,-600.72 994.57,-598.74 1120,-598 1125.76,-597.97 1131.73,-597.92 1137.72,-597.86"/>
<polygon fill="#9a32cd" stroke="#9a32cd" points="797.84,-578.2 787.43,-580.18 796.8,-585.13 797.84,-578.2"/>
<text text-anchor="middle" x="906" y="-600" font-family="Helvetica,sans-Serif" font-size="10.00"> ptr</text>
</g>
<!-- Node28 -->
<g id="node27" class="node">
<title>Node28</title>
<polygon fill="white" stroke="#bfbfbf" points="998.5,-558 998.5,-588 1113.5,-588 1113.5,-558 998.5,-558"/>
<text text-anchor="start" x="1006.5" y="-576" font-family="Helvetica,sans-Serif" font-size="10.00">std::vector&lt; Uptane</text>
<text text-anchor="middle" x="1056" y="-565" font-family="Helvetica,sans-Serif" font-size="10.00">::Target &gt;</text>
</g>
<!-- Node4&#45;&gt;Node28 -->
<g id="edge33" class="edge">
<title>Node4&#45;&gt;Node28</title>
<path fill="none" stroke="#9a32cd" stroke-dasharray="5,2" d="M797.32,-573C853.37,-573 941.19,-573 998.43,-573"/>
<polygon fill="#9a32cd" stroke="#9a32cd" points="797.24,-569.5 787.24,-573 797.24,-576.5 797.24,-569.5"/>
<text text-anchor="middle" x="906" y="-576" font-family="Helvetica,sans-Serif" font-size="10.00"> elements</text>
</g>
<!-- Node5 -->
<g id="node4" class="node">
<title>Node5</title>
<g id="a_node4"><a xlink:href="class_aktualizr_secondary_config.html" target="_top" xlink:title="AktualizrSecondaryConfig">
<polygon fill="white" stroke="black" points="672,-236.5 672,-255.5 814,-255.5 814,-236.5 672,-236.5"/>
<text text-anchor="middle" x="743" y="-243.5" font-family="Helvetica,sans-Serif" font-size="10.00">AktualizrSecondaryConfig</text>
</a>
</g>
</g>
<!-- Node5&#45;&gt;Node2 -->
<g id="edge3" class="edge">
<title>Node5&#45;&gt;Node2</title>
<path fill="none" stroke="#9a32cd" stroke-dasharray="5,2" d="M803.68,-257.39C904.18,-276.3 1113.68,-314.63 1292,-340 1380.5,-352.59 1482.62,-363.67 1550.72,-370.56"/>
<polygon fill="#9a32cd" stroke="#9a32cd" points="804.19,-253.92 793.72,-255.51 802.9,-260.8 804.19,-253.92"/>
<text text-anchor="middle" x="1206" y="-339" font-family="Helvetica,sans-Serif" font-size="10.00"> config_</text>
</g>
<!-- Node6 -->
<g id="node5" class="node">
<title>Node6</title>
<g id="a_node5"><a xlink:href="class_base_config.html" target="_top" xlink:title="BaseConfig">
<polygon fill="white" stroke="black" points="457.5,-110.5 457.5,-129.5 528.5,-129.5 528.5,-110.5 457.5,-110.5"/>
<text text-anchor="middle" x="493" y="-117.5" font-family="Helvetica,sans-Serif" font-size="10.00">BaseConfig</text>
</a>
</g>
</g>
<!-- Node6&#45;&gt;Node5 -->
<g id="edge4" class="edge">
<title>Node6&#45;&gt;Node5</title>
<path fill="none" stroke="midnightblue" d="M538.87,-128.39C550.5,-131.17 562.88,-134.69 574,-139 638.49,-163.98 704.75,-215.24 730.66,-236.47"/>
<polygon fill="midnightblue" stroke="midnightblue" points="539.41,-124.92 528.88,-126.12 537.86,-131.75 539.41,-124.92"/>
</g>
<!-- Node7 -->
<g id="node6" class="node">
<title>Node7</title>
<polygon fill="white" stroke="#bfbfbf" points="141,-106 141,-136 254,-136 254,-106 141,-106"/>
<text text-anchor="start" x="149" y="-124" font-family="Helvetica,sans-Serif" font-size="10.00">std::vector&lt; boost</text>
<text text-anchor="middle" x="197.5" y="-113" font-family="Helvetica,sans-Serif" font-size="10.00">::filesystem::path &gt;</text>
</g>
<!-- Node7&#45;&gt;Node6 -->
<g id="edge5" class="edge">
<title>Node7&#45;&gt;Node6</title>
<path fill="none" stroke="#9a32cd" stroke-dasharray="5,2" d="M264.15,-120.78C323.96,-120.57 409.95,-120.28 457.36,-120.12"/>
<polygon fill="#9a32cd" stroke="#9a32cd" points="264.04,-117.28 254.05,-120.81 264.06,-124.28 264.04,-117.28"/>
<text text-anchor="middle" x="333" y="-124" font-family="Helvetica,sans-Serif" font-size="10.00"> config_dirs_</text>
</g>
<!-- Node8 -->
<g id="node7" class="node">
<title>Node8</title>
<g id="a_node7"><a xlink:href="struct_storage_config.html" target="_top" xlink:title="StorageConfig">
<polygon fill="white" stroke="black" points="450.5,-36.5 450.5,-55.5 535.5,-55.5 535.5,-36.5 450.5,-36.5"/>
<text text-anchor="middle" x="493" y="-43.5" font-family="Helvetica,sans-Serif" font-size="10.00">StorageConfig</text>
</a>
</g>
</g>
<!-- Node8&#45;&gt;Node5 -->
<g id="edge6" class="edge">
<title>Node8&#45;&gt;Node5</title>
<path fill="none" stroke="#9a32cd" stroke-dasharray="5,2" d="M526.01,-59.87C558.72,-74.97 609.97,-101.26 648,-133 686.79,-165.38 721.81,-215.27 735.68,-236.21"/>
<polygon fill="#9a32cd" stroke="#9a32cd" points="527.04,-56.5 516.49,-55.55 524.15,-62.87 527.04,-56.5"/>
<text text-anchor="middle" x="620" y="-136" font-family="Helvetica,sans-Serif" font-size="10.00"> storage</text>
</g>
<!-- Node9 -->
<g id="node8" class="node">
<title>Node9</title>
<g id="a_node8"><a xlink:href="class_based_path.html" target="_top" xlink:title="BasedPath">
<polygon fill="white" stroke="black" points="163.5,-0.5 163.5,-19.5 231.5,-19.5 231.5,-0.5 163.5,-0.5"/>
<text text-anchor="middle" x="197.5" y="-7.5" font-family="Helvetica,sans-Serif" font-size="10.00">BasedPath</text>
</a>
</g>
</g>
<!-- Node9&#45;&gt;Node8 -->
<g id="edge7" class="edge">
<title>Node9&#45;&gt;Node8</title>
<path fill="none" stroke="#9a32cd" stroke-dasharray="5,2" d="M241.92,-13.28C281.61,-16.5 341.88,-21.96 394,-29 412.48,-31.5 432.81,-34.91 450.14,-38.03"/>
<polygon fill="#9a32cd" stroke="#9a32cd" points="242.04,-9.78 231.8,-12.47 241.48,-16.76 242.04,-9.78"/>
<text text-anchor="middle" x="333" y="-109" font-family="Helvetica,sans-Serif" font-size="10.00"> uptane_public_key_path</text>
<text text-anchor="middle" x="333" y="-98" font-family="Helvetica,sans-Serif" font-size="10.00">tls_pkey_path</text>
<text text-anchor="middle" x="333" y="-87" font-family="Helvetica,sans-Serif" font-size="10.00">uptane_metadata_path</text>
<text text-anchor="middle" x="333" y="-76" font-family="Helvetica,sans-Serif" font-size="10.00">sqldb_path</text>
<text text-anchor="start" x="272" y="-65" font-family="Helvetica,sans-Serif" font-size="10.00">uptane_private_key</text>
<text text-anchor="middle" x="333" y="-54" font-family="Helvetica,sans-Serif" font-size="10.00">_path</text>
<text text-anchor="middle" x="333" y="-43" font-family="Helvetica,sans-Serif" font-size="10.00">tls_cacert_path</text>
<text text-anchor="middle" x="333" y="-32" font-family="Helvetica,sans-Serif" font-size="10.00">tls_clientcert_path</text>
</g>
<!-- Node10 -->
<g id="node9" class="node">
<title>Node10</title>
<g id="a_node9"><a xlink:href="struct_aktualizr_secondary_uptane_config.html" target="_top" xlink:title="AktualizrSecondaryUptane\lConfig">
<polygon fill="white" stroke="black" points="420,-187 420,-217 566,-217 566,-187 420,-187"/>
<text text-anchor="start" x="428" y="-205" font-family="Helvetica,sans-Serif" font-size="10.00">AktualizrSecondaryUptane</text>
<text text-anchor="middle" x="493" y="-194" font-family="Helvetica,sans-Serif" font-size="10.00">Config</text>
</a>
</g>
</g>
<!-- Node10&#45;&gt;Node5 -->
<g id="edge8" class="edge">
<title>Node10&#45;&gt;Node5</title>
<path fill="none" stroke="#9a32cd" stroke-dasharray="5,2" d="M576.3,-216.6C613.17,-223.14 655.61,-230.67 688.3,-236.47"/>
<polygon fill="#9a32cd" stroke="#9a32cd" points="576.52,-213.09 566.07,-214.79 575.3,-219.98 576.52,-213.09"/>
<text text-anchor="middle" x="620" y="-233" font-family="Helvetica,sans-Serif" font-size="10.00"> uptane</text>
</g>
<!-- Node11 -->
<g id="node10" class="node">
<title>Node11</title>
<g id="a_node10"><a xlink:title="STL class. ">
<polygon fill="white" stroke="#bfbfbf" points="165,-357.5 165,-376.5 230,-376.5 230,-357.5 165,-357.5"/>
<text text-anchor="middle" x="197.5" y="-364.5" font-family="Helvetica,sans-Serif" font-size="10.00">std::string</text>
</a>
</g>
</g>
<!-- Node11&#45;&gt;Node2 -->
<g id="edge43" class="edge">
<title>Node11&#45;&gt;Node2</title>
<path fill="none" stroke="#9a32cd" stroke-dasharray="5,2" d="M240.24,-375.42C250.58,-377.22 261.66,-378.9 272,-380 479.86,-402.03 532.97,-397 742,-397 742,-397 742,-397 1367.5,-397 1429.28,-397 1499.1,-391.6 1550.81,-386.56"/>
<polygon fill="#9a32cd" stroke="#9a32cd" points="240.66,-371.94 230.2,-373.6 239.42,-378.83 240.66,-371.94"/>
<text text-anchor="middle" x="906" y="-400" font-family="Helvetica,sans-Serif" font-size="10.00"> detected_attack_</text>
</g>
<!-- Node11&#45;&gt;Node10 -->
<g id="edge9" class="edge">
<title>Node11&#45;&gt;Node10</title>
<path fill="none" stroke="#9a32cd" stroke-dasharray="5,2" d="M205.76,-347.87C216.37,-322.6 238.55,-278.54 272,-255 284.29,-246.35 360.47,-229.11 419.78,-216.64"/>
<polygon fill="#9a32cd" stroke="#9a32cd" points="202.4,-346.85 201.93,-357.44 208.9,-349.46 202.4,-346.85"/>
<text text-anchor="middle" x="333" y="-269" font-family="Helvetica,sans-Serif" font-size="10.00"> ecu_hardware_id</text>
<text text-anchor="middle" x="333" y="-258" font-family="Helvetica,sans-Serif" font-size="10.00">ecu_serial</text>
</g>
<!-- Node14 -->
<g id="node13" class="node">
<title>Node14</title>
<g id="a_node13"><a xlink:href="struct_package_config.html" target="_top" xlink:title="PackageConfig">
<polygon fill="white" stroke="black" points="449,-312.5 449,-331.5 537,-331.5 537,-312.5 449,-312.5"/>
<text text-anchor="middle" x="493" y="-319.5" font-family="Helvetica,sans-Serif" font-size="10.00">PackageConfig</text>
</a>
</g>
</g>
<!-- Node11&#45;&gt;Node14 -->
<g id="edge13" class="edge">
<title>Node11&#45;&gt;Node14</title>
<path fill="none" stroke="#9a32cd" stroke-dasharray="5,2" d="M225.58,-353C239.15,-346.66 256.05,-339.76 272,-336 332.16,-321.83 403.97,-319.97 448.79,-320.52"/>
<polygon fill="#9a32cd" stroke="#9a32cd" points="223.83,-349.96 216.35,-357.46 226.88,-356.26 223.83,-349.96"/>
<text text-anchor="middle" x="333" y="-350" font-family="Helvetica,sans-Serif" font-size="10.00"> os</text>
<text text-anchor="middle" x="333" y="-339" font-family="Helvetica,sans-Serif" font-size="10.00">ostree_server</text>
</g>
<!-- Node15 -->
<g id="node14" class="node">
<title>Node15</title>
<g id="a_node14"><a xlink:href="struct_aktualizr_secondary_net_config.html" target="_top" xlink:title="AktualizrSecondaryNetConfig">
<polygon fill="white" stroke="black" points="413.5,-274.5 413.5,-293.5 572.5,-293.5 572.5,-274.5 413.5,-274.5"/>
<text text-anchor="middle" x="493" y="-281.5" font-family="Helvetica,sans-Serif" font-size="10.00">AktualizrSecondaryNetConfig</text>
</a>
</g>
</g>
<!-- Node11&#45;&gt;Node15 -->
<g id="edge15" class="edge">
<title>Node11&#45;&gt;Node15</title>
<path fill="none" stroke="#9a32cd" stroke-dasharray="5,2" d="M213.94,-349.36C227.63,-335.01 248.98,-315.63 272,-306 316.44,-287.41 370.18,-281.76 413.42,-280.83"/>
<polygon fill="#9a32cd" stroke="#9a32cd" points="211,-347.38 206.81,-357.11 216.15,-352.12 211,-347.38"/>
<text text-anchor="middle" x="333" y="-309" font-family="Helvetica,sans-Serif" font-size="10.00"> primary_ip</text>
</g>
<!-- Node16 -->
<g id="node15" class="node">
<title>Node16</title>
<g id="a_node15"><a xlink:href="struct_p11_config.html" target="_top" xlink:title="P11Config">
<polygon fill="white" stroke="black" points="460.5,-148.5 460.5,-167.5 525.5,-167.5 525.5,-148.5 460.5,-148.5"/>
<text text-anchor="middle" x="493" y="-155.5" font-family="Helvetica,sans-Serif" font-size="10.00">P11Config</text>
</a>
</g>
</g>
<!-- Node11&#45;&gt;Node16 -->
<g id="edge17" class="edge">
<title>Node11&#45;&gt;Node16</title>
<path fill="none" stroke="#9a32cd" stroke-dasharray="5,2" d="M198.9,-347.18C200.93,-305.34 212.2,-208.31 272,-165 327.86,-124.54 414.32,-137.66 460.46,-148.91"/>
<polygon fill="#9a32cd" stroke="#9a32cd" points="195.4,-347.09 198.54,-357.21 202.39,-347.34 195.4,-347.09"/>
<text text-anchor="middle" x="333" y="-212" font-family="Helvetica,sans-Serif" font-size="10.00"> tls_pkey_id</text>
<text text-anchor="middle" x="333" y="-201" font-family="Helvetica,sans-Serif" font-size="10.00">tls_clientcert_id</text>
<text text-anchor="middle" x="333" y="-190" font-family="Helvetica,sans-Serif" font-size="10.00">pass</text>
<text text-anchor="middle" x="333" y="-179" font-family="Helvetica,sans-Serif" font-size="10.00">uptane_key_id</text>
<text text-anchor="middle" x="333" y="-168" font-family="Helvetica,sans-Serif" font-size="10.00">tls_cacert_id</text>
</g>
<!-- Node17 -->
<g id="node16" class="node">
<title>Node17</title>
<g id="a_node16"><a xlink:href="struct_bootloader_config.html" target="_top" xlink:title="BootloaderConfig">
<polygon fill="white" stroke="black" points="442.5,-350.5 442.5,-369.5 543.5,-369.5 543.5,-350.5 442.5,-350.5"/>
<text text-anchor="middle" x="493" y="-357.5" font-family="Helvetica,sans-Serif" font-size="10.00">BootloaderConfig</text>
</a>
</g>
</g>
<!-- Node11&#45;&gt;Node17 -->
<g id="edge19" class="edge">
<title>Node11&#45;&gt;Node17</title>
<path fill="none" stroke="#9a32cd" stroke-dasharray="5,2" d="M240.31,-366C293.6,-364.73 385.62,-362.54 442.4,-361.18"/>
<polygon fill="#9a32cd" stroke="#9a32cd" points="240.1,-362.51 230.19,-366.24 240.27,-369.5 240.1,-362.51"/>
<text text-anchor="middle" x="333" y="-368" font-family="Helvetica,sans-Serif" font-size="10.00"> reboot_command</text>
</g>
<!-- Node24 -->
<g id="node23" class="node">
<title>Node24</title>
<polygon fill="white" stroke="#bfbfbf" points="412,-633.5 412,-652.5 574,-652.5 574,-633.5 412,-633.5"/>
<text text-anchor="middle" x="493" y="-640.5" font-family="Helvetica,sans-Serif" font-size="10.00">std::map&lt; KeyId, PublicKey &gt;</text>
</g>
<!-- Node11&#45;&gt;Node24 -->
<g id="edge28" class="edge">
<title>Node11&#45;&gt;Node24</title>
<path fill="none" stroke="#9a32cd" stroke-dasharray="5,2" d="M203.68,-386.53C212.87,-417.95 234.63,-480.24 272,-520 327.44,-578.99 417.64,-616.95 463.41,-633.48"/>
<polygon fill="#9a32cd" stroke="#9a32cd" points="207.02,-385.47 200.96,-376.78 200.28,-387.36 207.02,-385.47"/>
<text text-anchor="middle" x="333" y="-604" font-family="Helvetica,sans-Serif" font-size="10.00"> keys</text>
</g>
<!-- Node27 -->
<g id="node26" class="node">
<title>Node27</title>
<g id="a_node26"><a xlink:href="class_uptane_1_1_role.html" target="_top" xlink:title="TUF Roles. ">
<polygon fill="white" stroke="black" points="453.5,-438.5 453.5,-457.5 532.5,-457.5 532.5,-438.5 453.5,-438.5"/>
<text text-anchor="middle" x="493" y="-445.5" font-family="Helvetica,sans-Serif" font-size="10.00">Uptane::Role</text>
</a>
</g>
</g>
<!-- Node11&#45;&gt;Node27 -->
<g id="edge31" class="edge">
<title>Node11&#45;&gt;Node27</title>
<path fill="none" stroke="#9a32cd" stroke-dasharray="5,2" d="M220.4,-382.19C234.53,-391.29 253.64,-402.35 272,-409 280.46,-412.06 392.17,-431.16 453.06,-441.45"/>
<polygon fill="#9a32cd" stroke="#9a32cd" points="222.17,-379.15 211.9,-376.55 218.3,-384.99 222.17,-379.15"/>
<text text-anchor="middle" x="333" y="-467" font-family="Helvetica,sans-Serif" font-size="10.00"> ROOT</text>
<text text-anchor="middle" x="333" y="-456" font-family="Helvetica,sans-Serif" font-size="10.00">TIMESTAMP</text>
<text text-anchor="middle" x="333" y="-445" font-family="Helvetica,sans-Serif" font-size="10.00">SNAPSHOT</text>
<text text-anchor="middle" x="333" y="-434" font-family="Helvetica,sans-Serif" font-size="10.00">TARGETS</text>
</g>
<!-- Node31 -->
<g id="node30" class="node">
<title>Node31</title>
<polygon fill="white" stroke="#bfbfbf" points="423,-488.5 423,-507.5 563,-507.5 563,-488.5 423,-488.5"/>
<text text-anchor="middle" x="493" y="-495.5" font-family="Helvetica,sans-Serif" font-size="10.00">std::vector&lt; std::string &gt;</text>
</g>
<!-- Node11&#45;&gt;Node31 -->
<g id="edge39" class="edge">
<title>Node11&#45;&gt;Node31</title>
<path fill="none" stroke="#9a32cd" stroke-dasharray="5,2" d="M205.47,-386.3C215.74,-411.66 237.54,-455.41 272,-476 317.14,-502.97 376.97,-507.38 422.85,-505.64"/>
<polygon fill="#9a32cd" stroke="#9a32cd" points="208.62,-384.75 201.77,-376.67 202.09,-387.26 208.62,-384.75"/>
<text text-anchor="middle" x="333" y="-508" font-family="Helvetica,sans-Serif" font-size="10.00"> elements</text>
</g>
<!-- Node12 -->
<g id="node11" class="node">
<title>Node12</title>
<g id="a_node11"><a xlink:title="STL class. ">
<polygon fill="white" stroke="#bfbfbf" points="0,-352 0,-382 104,-382 104,-352 0,-352"/>
<text text-anchor="start" x="8" y="-370" font-family="Helvetica,sans-Serif" font-size="10.00">std::basic_string&lt;</text>
<text text-anchor="middle" x="52" y="-359" font-family="Helvetica,sans-Serif" font-size="10.00"> char &gt;</text>
</a>
</g>
</g>
<!-- Node12&#45;&gt;Node11 -->
<g id="edge10" class="edge">
<title>Node12&#45;&gt;Node11</title>
<path fill="none" stroke="midnightblue" d="M114.45,-367C131.74,-367 149.84,-367 164.63,-367"/>
<polygon fill="midnightblue" stroke="midnightblue" points="114.4,-363.5 104.4,-367 114.4,-370.5 114.4,-363.5"/>
</g>
<!-- Node13 -->
<g id="node12" class="node">
<title>Node13</title>
<g id="a_node12"><a xlink:href="struct_logger_config.html" target="_top" xlink:title="LoggerConfig">
<polygon fill="white" stroke="black" points="453,-236.5 453,-255.5 533,-255.5 533,-236.5 453,-236.5"/>
<text text-anchor="middle" x="493" y="-243.5" font-family="Helvetica,sans-Serif" font-size="10.00">LoggerConfig</text>
</a>
</g>
</g>
<!-- Node13&#45;&gt;Node5 -->
<g id="edge11" class="edge">
<title>Node13&#45;&gt;Node5</title>
<path fill="none" stroke="#9a32cd" stroke-dasharray="5,2" d="M543.47,-246C580.21,-246 630.83,-246 671.75,-246"/>
<polygon fill="#9a32cd" stroke="#9a32cd" points="543.02,-242.5 533.02,-246 543.02,-249.5 543.02,-242.5"/>
<text text-anchor="middle" x="620" y="-249" font-family="Helvetica,sans-Serif" font-size="10.00"> logger</text>
</g>
<!-- Node14&#45;&gt;Node5 -->
<g id="edge12" class="edge">
<title>Node14&#45;&gt;Node5</title>
<path fill="none" stroke="#9a32cd" stroke-dasharray="5,2" d="M544.7,-310.11C554.43,-307.78 564.54,-305.34 574,-303 606.96,-294.85 615.74,-294.61 648,-284 673.42,-275.64 701.79,-263.81 720.65,-255.58"/>
<polygon fill="#9a32cd" stroke="#9a32cd" points="543.65,-306.76 534.73,-312.48 545.27,-313.57 543.65,-306.76"/>
<text text-anchor="middle" x="620" y="-301" font-family="Helvetica,sans-Serif" font-size="10.00"> pacman</text>
</g>
<!-- Node15&#45;&gt;Node5 -->
<g id="edge14" class="edge">
<title>Node15&#45;&gt;Node5</title>
<path fill="none" stroke="#9a32cd" stroke-dasharray="5,2" d="M566.2,-272.94C602.17,-267.43 645.22,-260.83 679.71,-255.54"/>
<polygon fill="#9a32cd" stroke="#9a32cd" points="565.62,-269.49 556.26,-274.46 566.68,-276.41 565.62,-269.49"/>
<text text-anchor="middle" x="620" y="-272" font-family="Helvetica,sans-Serif" font-size="10.00"> network</text>
</g>
<!-- Node16&#45;&gt;Node5 -->
<g id="edge16" class="edge">
<title>Node16&#45;&gt;Node5</title>
<path fill="none" stroke="#9a32cd" stroke-dasharray="5,2" d="M535.89,-166.78C548.26,-169.69 561.76,-173.17 574,-177 628.92,-194.19 690.91,-221.94 721.99,-236.45"/>
<polygon fill="#9a32cd" stroke="#9a32cd" points="536.34,-163.29 525.81,-164.48 534.78,-170.12 536.34,-163.29"/>
<text text-anchor="middle" x="620" y="-206" font-family="Helvetica,sans-Serif" font-size="10.00"> p11</text>
</g>
<!-- Node17&#45;&gt;Node5 -->
<g id="edge18" class="edge">
<title>Node17&#45;&gt;Node5</title>
<path fill="none" stroke="#9a32cd" stroke-dasharray="5,2" d="M548.62,-348.02C557.17,-345.86 565.86,-343.5 574,-341 607.62,-330.69 616.98,-329.56 648,-313 679.82,-296.01 713.37,-269.79 730.48,-255.72"/>
<polygon fill="#9a32cd" stroke="#9a32cd" points="547.58,-344.67 538.7,-350.45 549.25,-351.47 547.58,-344.67"/>
<text text-anchor="middle" x="620" y="-338" font-family="Helvetica,sans-Serif" font-size="10.00"> bootloader</text>
</g>
<!-- Node18 -->
<g id="node17" class="node">
<title>Node18</title>
<g id="a_node17"><a xlink:href="class_uptane_1_1_hardware_identifier.html" target="_top" xlink:title="Uptane::HardwareIdentifier">
<polygon fill="white" stroke="black" points="1292,-311.5 1292,-330.5 1441,-330.5 1441,-311.5 1292,-311.5"/>
<text text-anchor="middle" x="1366.5" y="-318.5" font-family="Helvetica,sans-Serif" font-size="10.00">Uptane::HardwareIdentifier</text>
</a>
</g>
</g>
<!-- Node18&#45;&gt;Node2 -->
<g id="edge20" class="edge">
<title>Node18&#45;&gt;Node2</title>
<path fill="none" stroke="#9a32cd" stroke-dasharray="5,2" d="M1451.35,-321.78C1477.81,-323.56 1506.92,-327.14 1533,-334 1562.05,-341.64 1593.16,-357.87 1611.45,-368.34"/>
<polygon fill="#9a32cd" stroke="#9a32cd" points="1451.54,-318.28 1441.35,-321.18 1451.13,-325.27 1451.54,-318.28"/>
<text text-anchor="middle" x="1496" y="-337" font-family="Helvetica,sans-Serif" font-size="10.00"> hardware_id_</text>
</g>
<!-- Node19 -->
<g id="node18" class="node">
<title>Node19</title>
<g id="a_node18"><a xlink:href="class_uptane_1_1_targets.html" target="_top" xlink:title="Uptane::Targets">
<polygon fill="white" stroke="black" points="1320,-491.5 1320,-510.5 1413,-510.5 1413,-491.5 1320,-491.5"/>
<text text-anchor="middle" x="1366.5" y="-498.5" font-family="Helvetica,sans-Serif" font-size="10.00">Uptane::Targets</text>
</a>
</g>
</g>
<!-- Node19&#45;&gt;Node2 -->
<g id="edge21" class="edge">
<title>Node19&#45;&gt;Node2</title>
<path fill="none" stroke="#9a32cd" stroke-dasharray="5,2" d="M1397.17,-486.96C1450.57,-461.7 1561.53,-409.21 1607.19,-387.61"/>
<polygon fill="#9a32cd" stroke="#9a32cd" points="1395.44,-483.91 1387.9,-491.35 1398.44,-490.24 1395.44,-483.91"/>
<text text-anchor="middle" x="1496" y="-460" font-family="Helvetica,sans-Serif" font-size="10.00"> meta_targets_</text>
</g>
<!-- Node20 -->
<g id="node19" class="node">
<title>Node20</title>
<g id="a_node19"><a xlink:href="class_uptane_1_1_meta_with_keys.html" target="_top" xlink:title="Uptane::MetaWithKeys">
<polygon fill="white" stroke="black" points="992,-652.5 992,-671.5 1120,-671.5 1120,-652.5 992,-652.5"/>
<text text-anchor="middle" x="1056" y="-659.5" font-family="Helvetica,sans-Serif" font-size="10.00">Uptane::MetaWithKeys</text>
</a>
</g>
</g>
<!-- Node20&#45;&gt;Node19 -->
<g id="edge22" class="edge">
<title>Node20&#45;&gt;Node19</title>
<path fill="none" stroke="midnightblue" d="M1106.97,-650.05C1117.22,-647.67 1127.95,-645.21 1138,-643 1198.27,-629.73 1228.57,-656.77 1274,-615 1294.81,-595.87 1275.66,-577.06 1292,-554 1305.73,-534.62 1328.84,-519.66 1345.48,-510.65"/>
<polygon fill="midnightblue" stroke="midnightblue" points="1105.85,-646.72 1096.91,-652.41 1107.45,-653.54 1105.85,-646.72"/>
</g>
<!-- Node34 -->
<g id="node33" class="node">
<title>Node34</title>
<g id="a_node33"><a xlink:href="class_uptane_1_1_root.html" target="_top" xlink:title="Uptane::Root">
<polygon fill="white" stroke="black" points="1326.5,-628.5 1326.5,-647.5 1406.5,-647.5 1406.5,-628.5 1326.5,-628.5"/>
<text text-anchor="middle" x="1366.5" y="-635.5" font-family="Helvetica,sans-Serif" font-size="10.00">Uptane::Root</text>
</a>
</g>
</g>
<!-- Node20&#45;&gt;Node34 -->
<g id="edge45" class="edge">
<title>Node20&#45;&gt;Node34</title>
<path fill="none" stroke="midnightblue" d="M1130.21,-656.3C1191.67,-651.52 1277.12,-644.88 1326.34,-641.05"/>
<polygon fill="midnightblue" stroke="midnightblue" points="1129.87,-652.82 1120.17,-657.09 1130.42,-659.8 1129.87,-652.82"/>
</g>
<!-- Node21 -->
<g id="node20" class="node">
<title>Node21</title>
<g id="a_node20"><a xlink:href="class_uptane_1_1_base_meta.html" target="_top" xlink:title="Uptane::BaseMeta">
<polygon fill="white" stroke="black" points="690,-748.5 690,-767.5 796,-767.5 796,-748.5 690,-748.5"/>
<text text-anchor="middle" x="743" y="-755.5" font-family="Helvetica,sans-Serif" font-size="10.00">Uptane::BaseMeta</text>
</a>
</g>
</g>
<!-- Node21&#45;&gt;Node20 -->
<g id="edge23" class="edge">
<title>Node21&#45;&gt;Node20</title>
<path fill="none" stroke="midnightblue" d="M806.14,-754.46C853.59,-750.06 919.84,-740.17 974,-718 1001.85,-706.6 1029.69,-684.41 1044.37,-671.65"/>
<polygon fill="midnightblue" stroke="midnightblue" points="805.66,-750.99 796,-755.35 806.27,-757.97 805.66,-750.99"/>
</g>
<!-- Node22 -->
<g id="node21" class="node">
<title>Node22</title>
<g id="a_node21"><a xlink:href="class_time_stamp.html" target="_top" xlink:title="TimeStamp">
<polygon fill="white" stroke="black" points="456.5,-748.5 456.5,-767.5 529.5,-767.5 529.5,-748.5 456.5,-748.5"/>
<text text-anchor="middle" x="493" y="-755.5" font-family="Helvetica,sans-Serif" font-size="10.00">TimeStamp</text>
</a>
</g>
</g>
<!-- Node22&#45;&gt;Node21 -->
<g id="edge24" class="edge">
<title>Node22&#45;&gt;Node21</title>
<path fill="none" stroke="#9a32cd" stroke-dasharray="5,2" d="M539.58,-758C582,-758 645.19,-758 689.66,-758"/>
<polygon fill="#9a32cd" stroke="#9a32cd" points="539.53,-754.5 529.53,-758 539.53,-761.5 539.53,-754.5"/>
<text text-anchor="middle" x="620" y="-761" font-family="Helvetica,sans-Serif" font-size="10.00"> expiry_</text>
</g>
<!-- Node23 -->
<g id="node22" class="node">
<title>Node23</title>
<polygon fill="white" stroke="#bfbfbf" points="670,-699 670,-729 816,-729 816,-699 670,-699"/>
<text text-anchor="start" x="678" y="-717" font-family="Helvetica,sans-Serif" font-size="10.00">std::set&lt; std::pair</text>
<text text-anchor="middle" x="743" y="-706" font-family="Helvetica,sans-Serif" font-size="10.00">&lt; Uptane::Role, KeyId &gt; &gt;</text>
</g>
<!-- Node23&#45;&gt;Node20 -->
<g id="edge25" class="edge">
<title>Node23&#45;&gt;Node20</title>
<path fill="none" stroke="#9a32cd" stroke-dasharray="5,2" d="M826.19,-705.34C870.23,-700.09 925.31,-692.56 974,-683 989.82,-679.89 1007.15,-675.53 1021.71,-671.59"/>
<polygon fill="#9a32cd" stroke="#9a32cd" points="825.63,-701.88 816.1,-706.53 826.44,-708.84 825.63,-701.88"/>
<text text-anchor="middle" x="906" y="-706" font-family="Helvetica,sans-Serif" font-size="10.00"> keys_for_role_</text>
</g>
<!-- Node24&#45;&gt;Node20 -->
<g id="edge26" class="edge">
<title>Node24&#45;&gt;Node20</title>
<path fill="none" stroke="#9a32cd" stroke-dasharray="5,2" d="M584.3,-646.21C653.68,-648.67 751.9,-652.11 838,-655 889.8,-656.74 948.56,-658.63 991.85,-660.01"/>
<polygon fill="#9a32cd" stroke="#9a32cd" points="584.4,-642.72 574.28,-645.86 584.15,-649.71 584.4,-642.72"/>
<text text-anchor="middle" x="743" y="-657" font-family="Helvetica,sans-Serif" font-size="10.00"> keys_</text>
</g>
<!-- Node25 -->
<g id="node24" class="node">
<title>Node25</title>
<g id="a_node24"><a xlink:href="class_public_key.html" target="_top" xlink:title="PublicKey">
<polygon fill="white" stroke="black" points="165.5,-633.5 165.5,-652.5 229.5,-652.5 229.5,-633.5 165.5,-633.5"/>
<text text-anchor="middle" x="197.5" y="-640.5" font-family="Helvetica,sans-Serif" font-size="10.00">PublicKey</text>
</a>
</g>
</g>
<!-- Node25&#45;&gt;Node24 -->
<g id="edge27" class="edge">
<title>Node25&#45;&gt;Node24</title>
<path fill="none" stroke="#9a32cd" stroke-dasharray="5,2" d="M239.78,-643C284.27,-643 356.18,-643 411.86,-643"/>
<polygon fill="#9a32cd" stroke="#9a32cd" points="239.63,-639.5 229.63,-643 239.63,-646.5 239.63,-639.5"/>
<text text-anchor="middle" x="333" y="-646" font-family="Helvetica,sans-Serif" font-size="10.00"> elements</text>
</g>
<!-- Node26 -->
<g id="node25" class="node">
<title>Node26</title>
<polygon fill="white" stroke="#bfbfbf" points="675,-602 675,-632 811,-632 811,-602 675,-602"/>
<text text-anchor="start" x="683" y="-620" font-family="Helvetica,sans-Serif" font-size="10.00">std::map&lt; Uptane::Role,</text>
<text text-anchor="middle" x="743" y="-609" font-family="Helvetica,sans-Serif" font-size="10.00"> int64_t &gt;</text>
</g>
<!-- Node26&#45;&gt;Node20 -->
<g id="edge29" class="edge">
<title>Node26&#45;&gt;Node20</title>
<path fill="none" stroke="#9a32cd" stroke-dasharray="5,2" d="M821.4,-624.1C866.15,-628.7 923.43,-635.44 974,-644 987.78,-646.33 1002.74,-649.48 1016.02,-652.49"/>
<polygon fill="#9a32cd" stroke="#9a32cd" points="821.49,-620.59 811.18,-623.07 820.78,-627.56 821.49,-620.59"/>
<text text-anchor="middle" x="906" y="-647" font-family="Helvetica,sans-Serif" font-size="10.00"> thresholds_for_role_</text>
</g>
<!-- Node27&#45;&gt;Node26 -->
<g id="edge30" class="edge">
<title>Node27&#45;&gt;Node26</title>
<path fill="none" stroke="#9a32cd" stroke-dasharray="5,2" d="M542,-460.71C553.3,-465.23 564.74,-471.2 574,-479 585.89,-489.02 582.79,-496.48 592,-509 621.29,-548.81 624.67,-564.91 666,-592 671.81,-595.81 678.25,-599.08 684.85,-601.88"/>
<polygon fill="#9a32cd" stroke="#9a32cd" points="543.18,-457.42 532.59,-457.25 540.77,-463.99 543.18,-457.42"/>
<text text-anchor="middle" x="620" y="-581" font-family="Helvetica,sans-Serif" font-size="10.00"> keys</text>
</g>
<!-- Node29 -->
<g id="node28" class="node">
<title>Node29</title>
<polygon fill="white" stroke="#bfbfbf" points="838,-424 838,-454 974,-454 974,-424 838,-424"/>
<text text-anchor="start" x="846" y="-442" font-family="Helvetica,sans-Serif" font-size="10.00">std::map&lt; Uptane::Role,</text>
<text text-anchor="middle" x="906" y="-431" font-family="Helvetica,sans-Serif" font-size="10.00"> bool &gt;</text>
</g>
<!-- Node27&#45;&gt;Node29 -->
<g id="edge35" class="edge">
<title>Node27&#45;&gt;Node29</title>
<path fill="none" stroke="#9a32cd" stroke-dasharray="5,2" d="M543,-446.93C616.38,-445.32 754.99,-442.28 837.77,-440.47"/>
<polygon fill="#9a32cd" stroke="#9a32cd" points="542.59,-443.44 532.67,-447.15 542.74,-450.43 542.59,-443.44"/>
<text text-anchor="middle" x="620" y="-448" font-family="Helvetica,sans-Serif" font-size="10.00"> keys</text>
</g>
<!-- Node30 -->
<g id="node29" class="node">
<title>Node30</title>
<polygon fill="white" stroke="#bfbfbf" points="666,-475 666,-505 820,-505 820,-475 666,-475"/>
<text text-anchor="start" x="674" y="-493" font-family="Helvetica,sans-Serif" font-size="10.00">std::map&lt; Uptane::Role,</text>
<text text-anchor="middle" x="743" y="-482" font-family="Helvetica,sans-Serif" font-size="10.00"> std::vector&lt; std::string &gt; &gt;</text>
</g>
<!-- Node27&#45;&gt;Node30 -->
<g id="edge37" class="edge">
<title>Node27&#45;&gt;Node30</title>
<path fill="none" stroke="#9a32cd" stroke-dasharray="5,2" d="M542.73,-456.25C577.78,-462.19 625.74,-470.31 665.82,-477.1"/>
<polygon fill="#9a32cd" stroke="#9a32cd" points="543.19,-452.78 532.75,-454.56 542.03,-459.68 543.19,-452.78"/>
<text text-anchor="middle" x="620" y="-476" font-family="Helvetica,sans-Serif" font-size="10.00"> keys</text>
</g>
<!-- Node28&#45;&gt;Node19 -->
<g id="edge32" class="edge">
<title>Node28&#45;&gt;Node19</title>
<path fill="none" stroke="#9a32cd" stroke-dasharray="5,2" d="M1123.44,-564.46C1181.83,-556.79 1259.7,-546.14 1274,-542 1300.92,-534.21 1330.17,-520 1348.17,-510.53"/>
<polygon fill="#9a32cd" stroke="#9a32cd" points="1122.97,-560.99 1113.51,-565.76 1123.88,-567.93 1122.97,-560.99"/>
<text text-anchor="middle" x="1206" y="-565" font-family="Helvetica,sans-Serif" font-size="10.00"> targets</text>
</g>
<!-- Node29&#45;&gt;Node19 -->
<g id="edge34" class="edge">
<title>Node29&#45;&gt;Node19</title>
<path fill="none" stroke="#9a32cd" stroke-dasharray="5,2" d="M984.45,-442.56C1059.16,-446.99 1175.14,-456.5 1274,-476 1294.52,-480.05 1317.2,-486.23 1334.84,-491.44"/>
<polygon fill="#9a32cd" stroke="#9a32cd" points="984.38,-439.05 974.19,-441.97 983.97,-446.04 984.38,-439.05"/>
<text text-anchor="middle" x="1056" y="-456" font-family="Helvetica,sans-Serif" font-size="10.00"> terminating_role_</text>
</g>
<!-- Node30&#45;&gt;Node19 -->
<g id="edge36" class="edge">
<title>Node30&#45;&gt;Node19</title>
<path fill="none" stroke="#9a32cd" stroke-dasharray="5,2" d="M830.41,-491.53C964.08,-493.9 1216.35,-498.36 1319.64,-500.19"/>
<polygon fill="#9a32cd" stroke="#9a32cd" points="830.27,-488.03 820.21,-491.35 830.14,-495.03 830.27,-488.03"/>
<text text-anchor="middle" x="1056" y="-499" font-family="Helvetica,sans-Serif" font-size="10.00"> paths_for_role_</text>
</g>
<!-- Node31&#45;&gt;Node19 -->
<g id="edge40" class="edge">
<title>Node31&#45;&gt;Node19</title>
<path fill="none" stroke="#9a32cd" stroke-dasharray="5,2" d="M517.52,-512.66C536.74,-523.72 565.04,-537.99 592,-544 616.29,-549.42 623.12,-544.64 648,-544 926.49,-536.89 996.43,-535.75 1274,-512 1288.99,-510.72 1305.3,-508.89 1319.95,-507.1"/>
<polygon fill="#9a32cd" stroke="#9a32cd" points="519.25,-509.61 508.86,-507.53 515.69,-515.64 519.25,-509.61"/>
<text text-anchor="middle" x="906" y="-541" font-family="Helvetica,sans-Serif" font-size="10.00"> delegated_role_names_</text>
</g>
<!-- Node31&#45;&gt;Node30 -->
<g id="edge38" class="edge">
<title>Node31&#45;&gt;Node30</title>
<path fill="none" stroke="#9a32cd" stroke-dasharray="5,2" d="M573.38,-495.44C603.01,-494.48 636.56,-493.4 665.89,-492.46"/>
<polygon fill="#9a32cd" stroke="#9a32cd" points="572.96,-491.95 563.08,-495.77 573.19,-498.95 572.96,-491.95"/>
<text text-anchor="middle" x="620" y="-497" font-family="Helvetica,sans-Serif" font-size="10.00"> elements</text>
</g>
<!-- Node32 -->
<g id="node31" class="node">
<title>Node32</title>
<g id="a_node31"><a xlink:href="class_key_manager.html" target="_top" xlink:title="KeyManager">
<polygon fill="white" stroke="black" points="1328,-273.5 1328,-292.5 1405,-292.5 1405,-273.5 1328,-273.5"/>
<text text-anchor="middle" x="1366.5" y="-280.5" font-family="Helvetica,sans-Serif" font-size="10.00">KeyManager</text>
</a>
</g>
</g>
<!-- Node32&#45;&gt;Node2 -->
<g id="edge41" class="edge">
<title>Node32&#45;&gt;Node2</title>
<path fill="none" stroke="#9a32cd" stroke-dasharray="5,2" d="M1415.19,-283.68C1449.18,-285.64 1495.34,-291.34 1533,-307 1568.24,-321.66 1602.16,-352.5 1618.07,-368.27"/>
<polygon fill="#9a32cd" stroke="#9a32cd" points="1415.21,-280.18 1405.05,-283.19 1414.87,-287.17 1415.21,-280.18"/>
<text text-anchor="middle" x="1496" y="-310" font-family="Helvetica,sans-Serif" font-size="10.00"> keys_</text>
</g>
<!-- Node33 -->
<g id="node32" class="node">
<title>Node33</title>
<g id="a_node32"><a xlink:href="class_uptane_1_1_ecu_serial.html" target="_top" xlink:title="Uptane::EcuSerial">
<polygon fill="white" stroke="black" points="1315,-235.5 1315,-254.5 1418,-254.5 1418,-235.5 1315,-235.5"/>
<text text-anchor="middle" x="1366.5" y="-242.5" font-family="Helvetica,sans-Serif" font-size="10.00">Uptane::EcuSerial</text>
</a>
</g>
</g>
<!-- Node33&#45;&gt;Node2 -->
<g id="edge42" class="edge">
<title>Node33&#45;&gt;Node2</title>
<path fill="none" stroke="#9a32cd" stroke-dasharray="5,2" d="M1428.46,-245.73C1461.18,-248.41 1501.2,-255.51 1533,-273 1575.76,-296.52 1609.15,-346.92 1621.89,-368.2"/>
<polygon fill="#9a32cd" stroke="#9a32cd" points="1428.33,-242.22 1418.11,-245.01 1427.84,-249.2 1428.33,-242.22"/>
<text text-anchor="middle" x="1496" y="-276" font-family="Helvetica,sans-Serif" font-size="10.00"> ecu_serial_</text>
</g>
<!-- Node34&#45;&gt;Node2 -->
<g id="edge44" class="edge">
<title>Node34&#45;&gt;Node2</title>
<path fill="none" stroke="#9a32cd" stroke-dasharray="5,2" d="M1417,-634.62C1452.96,-629.77 1500.77,-618.09 1533,-590 1598.62,-532.81 1620.78,-421.2 1626.11,-387.72"/>
<polygon fill="#9a32cd" stroke="#9a32cd" points="1416.23,-631.19 1406.72,-635.86 1417.07,-638.14 1416.23,-631.19"/>
<text text-anchor="middle" x="1496" y="-628" font-family="Helvetica,sans-Serif" font-size="10.00"> root_</text>
</g>
</g>
</svg>
        <g id="navigator" transform="translate(0 0)" fill="#404254">
                <rect fill="#f2f5e9" fill-opacity="0.5" stroke="#606060" stroke-width=".5" x="0" y="0" width="60" height="60"/>
                <use id="zoomplus" xlink:href="#zoomPlus" x="17" y="9" onmousedown="handleZoom(evt,'in')"/>
                <use id="zoomminus" xlink:href="#zoomMin" x="42" y="9" onmousedown="handleZoom(evt,'out')"/>
                <use id="reset" xlink:href="#resetDef" x="30" y="36" onmousedown="handleReset()"/>
                <g id="arrowUp" xlink:href="#dirArrow" transform="translate(30 24)" onmousedown="handlePan(0,-1)">
                  <use xlink:href="#rim" fill="#404040">
                        <set attributeName="fill" to="#808080" begin="arrowUp.mouseover" end="arrowUp.mouseout"/>
                  </use>
                  <path fill="none" stroke="white" stroke-width="1.5" d="M0,-3.0v7 M-2.5,-0.5L0,-3.0L2.5,-0.5"/>
                </g>
                <g id="arrowRight" xlink:href="#dirArrow" transform="rotate(90) translate(36 -43)" onmousedown="handlePan(1,0)">
                  <use xlink:href="#rim" fill="#404040">
                        <set attributeName="fill" to="#808080" begin="arrowRight.mouseover" end="arrowRight.mouseout"/>
                  </use>
                  <path fill="none" stroke="white" stroke-width="1.5" d="M0,-3.0v7 M-2.5,-0.5L0,-3.0L2.5,-0.5"/>
                </g>
                <g id="arrowDown" xlink:href="#dirArrow" transform="rotate(180) translate(-30 -48)" onmousedown="handlePan(0,1)">
                  <use xlink:href="#rim" fill="#404040">
                        <set attributeName="fill" to="#808080" begin="arrowDown.mouseover" end="arrowDown.mouseout"/>
                  </use>
                  <path fill="none" stroke="white" stroke-width="1.5" d="M0,-3.0v7 M-2.5,-0.5L0,-3.0L2.5,-0.5"/>
                </g>
                <g id="arrowLeft" xlink:href="#dirArrow" transform="rotate(270) translate(-36 17)" onmousedown="handlePan(-1,0)">
                  <use xlink:href="#rim" fill="#404040">
                        <set attributeName="fill" to="#808080" begin="arrowLeft.mouseover" end="arrowLeft.mouseout"/>
                  </use>
                  <path fill="none" stroke="white" stroke-width="1.5" d="M0,-3.0v7 M-2.5,-0.5L0,-3.0L2.5,-0.5"/>
                </g>
        </g>
        <svg viewBox="0 0 15 15" width="100%" height="30px" preserveAspectRatio="xMaxYMin meet">
         <g id="arrow_out" transform="scale(0.3 0.3)">
          <a xlink:href="class_aktualizr_secondary_common__coll__graph_org.svg" target="_base">
           <rect id="button" ry="5" rx="5" y="6" x="6" height="38" width="38"
                fill="#f2f5e9" fill-opacity="0.5" stroke="#606060" stroke-width="1.0"/>
           <path id="arrow"
             d="M 11.500037,31.436501 C 11.940474,20.09759 22.043105,11.32322 32.158766,21.979434 L 37.068811,17.246167 C 37.068811,17.246167 37.088388,32 37.088388,32 L 22.160133,31.978069 C 22.160133,31.978069 26.997745,27.140456 26.997745,27.140456 C 18.528582,18.264221 13.291696,25.230495 11.500037,31.436501 z"
             style="fill:#404040;"/>
          </a>
         </g>
        </svg>
</svg>
