<?xml version="1.0" encoding="UTF-8" standalone="no"?>
<!DOCTYPE svg PUBLIC "-//W3C//DTD SVG 1.1//EN"
 "http://www.w3.org/Graphics/SVG/1.1/DTD/svg11.dtd">
<!-- Generated by graphviz version 2.43.0 (0)
 -->
<!-- Title: ReportEvent Pages: 1 -->
<svg width="194pt" height="174pt"
 viewBox="0.00 0.00 194.00 174.00" xmlns="http://www.w3.org/2000/svg" xmlns:xlink="http://www.w3.org/1999/xlink">
<g id="graph0" class="graph" transform="scale(1 1) rotate(0) translate(4 170)">
<title>ReportEvent</title>
<polygon fill="white" stroke="transparent" points="-4,4 -4,-170 190,-170 190,4 -4,4"/>
<!-- Node11 -->
<g id="node1" class="node">
<title>Node11</title>
<polygon fill="#bfbfbf" stroke="black" points="76,-0.5 76,-19.5 152,-19.5 152,-0.5 76,-0.5"/>
<text text-anchor="middle" x="114" y="-7.5" font-family="Helvetica,sans-Serif" font-size="10.00">ReportEvent</text>
</g>
<!-- Node12 -->
<g id="node2" class="node">
<title>Node12</title>
<g id="a_node2"><a xlink:title="STL class. ">
<polygon fill="white" stroke="#bfbfbf" points="19.5,-78.5 19.5,-97.5 84.5,-97.5 84.5,-78.5 19.5,-78.5"/>
<text text-anchor="middle" x="52" y="-85.5" font-family="Helvetica,sans-Serif" font-size="10.00">std::string</text>
</a>
</g>
</g>
<!-- Node12&#45;&gt;Node11 -->
<g id="edge1" class="edge">
<title>Node12&#45;&gt;Node11</title>
<path fill="none" stroke="#9a32cd" stroke-dasharray="5,2" d="M65.51,-70.44C78.28,-54.79 96.93,-31.93 106.97,-19.62"/>
<polygon fill="#9a32cd" stroke="#9a32cd" points="62.72,-68.32 59.11,-78.28 68.15,-72.75 62.72,-68.32"/>
<text text-anchor="middle" x="103.5" y="-52" font-family="Helvetica,sans-Serif" font-size="10.00"> type</text>
<text text-anchor="middle" x="103.5" y="-41" font-family="Helvetica,sans-Serif" font-size="10.00">id</text>
</g>
<!-- Node13 -->
<g id="node3" class="node">
<title>Node13</title>
<g id="a_node3"><a xlink:title="STL class. ">
<polygon fill="white" stroke="#bfbfbf" points="0,-135.5 0,-165.5 104,-165.5 104,-135.5 0,-135.5"/>
<text text-anchor="start" x="8" y="-153.5" font-family="Helvetica,sans-Serif" font-size="10.00">std::basic_string&lt;</text>
<text text-anchor="middle" x="52" y="-142.5" font-family="Helvetica,sans-Serif" font-size="10.00"> char &gt;</text>
</a>
</g>
</g>
<!-- Node13&#45;&gt;Node12 -->
<g id="edge2" class="edge">
<title>Node13&#45;&gt;Node12</title>
<path fill="none" stroke="midnightblue" d="M52,-125.35C52,-115.51 52,-104.78 52,-97.54"/>
<polygon fill="midnightblue" stroke="midnightblue" points="48.5,-125.47 52,-135.47 55.5,-125.47 48.5,-125.47"/>
</g>
<!-- Node14 -->
<g id="node4" class="node">
<title>Node14</title>
<g id="a_node4"><a xlink:href="class_time_stamp.html" target="_top" xlink:title="TimeStamp">
<polygon fill="white" stroke="black" points="102.5,-78.5 102.5,-97.5 175.5,-97.5 175.5,-78.5 102.5,-78.5"/>
<text text-anchor="middle" x="139" y="-85.5" font-family="Helvetica,sans-Serif" font-size="10.00">TimeStamp</text>
</a>
</g>
</g>
<!-- Node14&#45;&gt;Node11 -->
<g id="edge3" class="edge">
<title>Node14&#45;&gt;Node11</title>
<path fill="none" stroke="#9a32cd" stroke-dasharray="5,2" d="M132.97,-68.67C127.85,-53.11 120.73,-31.47 116.83,-19.62"/>
<polygon fill="#9a32cd" stroke="#9a32cd" points="129.68,-69.88 136.13,-78.28 136.33,-67.69 129.68,-69.88"/>
<text text-anchor="middle" x="157.5" y="-46.5" font-family="Helvetica,sans-Serif" font-size="10.00"> timestamp</text>
</g>
</g>
</svg>
