<?xml version="1.0" encoding="UTF-8" standalone="no"?>
<!DOCTYPE svg PUBLIC "-//W3C//DTD SVG 1.1//EN"
 "http://www.w3.org/Graphics/SVG/1.1/DTD/svg11.dtd">
<!-- Generated by graphviz version 2.43.0 (0)
 -->
<!-- Title: Primary::VirtualSecondaryConfig Pages: 1 -->
<svg width="256pt" height="275pt"
 viewBox="0.00 0.00 256.00 275.00" xmlns="http://www.w3.org/2000/svg" xmlns:xlink="http://www.w3.org/1999/xlink">
<g id="graph0" class="graph" transform="scale(1 1) rotate(0) translate(4 271)">
<title>Primary::VirtualSecondaryConfig</title>
<polygon fill="white" stroke="transparent" points="-4,4 -4,-271 252,-271 252,4 -4,4"/>
<!-- Node3 -->
<g id="node1" class="node">
<title>Node3</title>
<polygon fill="#bfbfbf" stroke="black" points="15.5,-0.5 15.5,-30.5 158.5,-30.5 158.5,-0.5 15.5,-0.5"/>
<text text-anchor="start" x="23.5" y="-18.5" font-family="Helvetica,sans-Serif" font-size="10.00">Primary::VirtualSecondary</text>
<text text-anchor="middle" x="87" y="-7.5" font-family="Helvetica,sans-Serif" font-size="10.00">Config</text>
</g>
<!-- Node4 -->
<g id="node2" class="node">
<title>Node4</title>
<g id="a_node2"><a xlink:href="class_primary_1_1_managed_secondary_config.html" target="_top" xlink:title="Primary::ManagedSecondary\lConfig">
<polygon fill="white" stroke="black" points="9.5,-68.5 9.5,-98.5 164.5,-98.5 164.5,-68.5 9.5,-68.5"/>
<text text-anchor="start" x="17.5" y="-86.5" font-family="Helvetica,sans-Serif" font-size="10.00">Primary::ManagedSecondary</text>
<text text-anchor="middle" x="87" y="-75.5" font-family="Helvetica,sans-Serif" font-size="10.00">Config</text>
</a>
</g>
</g>
<!-- Node4&#45;&gt;Node3 -->
<g id="edge1" class="edge">
<title>Node4&#45;&gt;Node3</title>
<path fill="none" stroke="midnightblue" d="M87,-58.03C87,-48.86 87,-38.74 87,-30.79"/>
<polygon fill="midnightblue" stroke="midnightblue" points="83.5,-58.18 87,-68.18 90.5,-58.18 83.5,-58.18"/>
</g>
<!-- Node5 -->
<g id="node3" class="node">
<title>Node5</title>
<g id="a_node3"><a xlink:href="class_primary_1_1_secondary_config.html" target="_top" xlink:title="Primary::SecondaryConfig">
<polygon fill="white" stroke="black" points="0,-179.5 0,-198.5 142,-198.5 142,-179.5 0,-179.5"/>
<text text-anchor="middle" x="71" y="-186.5" font-family="Helvetica,sans-Serif" font-size="10.00">Primary::SecondaryConfig</text>
</a>
</g>
</g>
<!-- Node5&#45;&gt;Node4 -->
<g id="edge2" class="edge">
<title>Node5&#45;&gt;Node4</title>
<path fill="none" stroke="midnightblue" d="M73.89,-169.28C77.02,-149.03 81.95,-117.19 84.78,-98.84"/>
<polygon fill="midnightblue" stroke="midnightblue" points="70.43,-168.76 72.36,-179.18 77.35,-169.83 70.43,-168.76"/>
</g>
<!-- Node6 -->
<g id="node4" class="node">
<title>Node6</title>
<g id="a_node4"><a xlink:title="STL class. ">
<polygon fill="white" stroke="#bfbfbf" points="160.5,-179.5 160.5,-198.5 225.5,-198.5 225.5,-179.5 160.5,-179.5"/>
<text text-anchor="middle" x="193" y="-186.5" font-family="Helvetica,sans-Serif" font-size="10.00">std::string</text>
</a>
</g>
</g>
<!-- Node6&#45;&gt;Node4 -->
<g id="edge3" class="edge">
<title>Node6&#45;&gt;Node4</title>
<path fill="none" stroke="#9a32cd" stroke-dasharray="5,2" d="M176.63,-172.01C156.14,-152.01 121.35,-118.04 101.69,-98.84"/>
<polygon fill="#9a32cd" stroke="#9a32cd" points="174.36,-174.69 183.96,-179.18 179.25,-169.69 174.36,-174.69"/>
<text text-anchor="middle" x="206" y="-153" font-family="Helvetica,sans-Serif" font-size="10.00"> ecu_private_key</text>
<text text-anchor="middle" x="206" y="-142" font-family="Helvetica,sans-Serif" font-size="10.00">ecu_hardware_id</text>
<text text-anchor="middle" x="206" y="-131" font-family="Helvetica,sans-Serif" font-size="10.00">ecu_serial</text>
<text text-anchor="middle" x="206" y="-120" font-family="Helvetica,sans-Serif" font-size="10.00">ecu_public_key</text>
</g>
<!-- Node7 -->
<g id="node5" class="node">
<title>Node7</title>
<g id="a_node5"><a xlink:title="STL class. ">
<polygon fill="white" stroke="#bfbfbf" points="141,-236.5 141,-266.5 245,-266.5 245,-236.5 141,-236.5"/>
<text text-anchor="start" x="149" y="-254.5" font-family="Helvetica,sans-Serif" font-size="10.00">std::basic_string&lt;</text>
<text text-anchor="middle" x="193" y="-243.5" font-family="Helvetica,sans-Serif" font-size="10.00"> char &gt;</text>
</a>
</g>
</g>
<!-- Node7&#45;&gt;Node6 -->
<g id="edge4" class="edge">
<title>Node7&#45;&gt;Node6</title>
<path fill="none" stroke="midnightblue" d="M193,-226.35C193,-216.51 193,-205.78 193,-198.54"/>
<polygon fill="midnightblue" stroke="midnightblue" points="189.5,-226.47 193,-236.47 196.5,-226.47 189.5,-226.47"/>
</g>
</g>
</svg>
