<?xml version="1.0" encoding="UTF-8" standalone="no"?>
<!DOCTYPE svg PUBLIC "-//W3C//DTD SVG 1.1//EN"
 "http://www.w3.org/Graphics/SVG/1.1/DTD/svg11.dtd">
<!-- Generated by graphviz version 2.43.0 (0)
 -->
<!-- Title: Primary::ManagedSecondaryConfig Pages: 1 -->
<svg width="256pt" height="207pt"
 viewBox="0.00 0.00 256.00 207.00" xmlns="http://www.w3.org/2000/svg" xmlns:xlink="http://www.w3.org/1999/xlink">
<g id="graph0" class="graph" transform="scale(1 1) rotate(0) translate(4 203)">
<title>Primary::ManagedSecondaryConfig</title>
<polygon fill="white" stroke="transparent" points="-4,4 -4,-203 252,-203 252,4 -4,4"/>
<!-- Node4 -->
<g id="node1" class="node">
<title>Node4</title>
<polygon fill="#bfbfbf" stroke="black" points="9.5,-0.5 9.5,-30.5 164.5,-30.5 164.5,-0.5 9.5,-0.5"/>
<text text-anchor="start" x="17.5" y="-18.5" font-family="Helvetica,sans-Serif" font-size="10.00">Primary::ManagedSecondary</text>
<text text-anchor="middle" x="87" y="-7.5" font-family="Helvetica,sans-Serif" font-size="10.00">Config</text>
</g>
<!-- Node5 -->
<g id="node2" class="node">
<title>Node5</title>
<g id="a_node2"><a xlink:href="class_primary_1_1_secondary_config.html" target="_top" xlink:title="Primary::SecondaryConfig">
<polygon fill="white" stroke="black" points="0,-111.5 0,-130.5 142,-130.5 142,-111.5 0,-111.5"/>
<text text-anchor="middle" x="71" y="-118.5" font-family="Helvetica,sans-Serif" font-size="10.00">Primary::SecondaryConfig</text>
</a>
</g>
</g>
<!-- Node5&#45;&gt;Node4 -->
<g id="edge1" class="edge">
<title>Node5&#45;&gt;Node4</title>
<path fill="none" stroke="midnightblue" d="M73.89,-101.28C77.02,-81.03 81.95,-49.19 84.78,-30.84"/>
<polygon fill="midnightblue" stroke="midnightblue" points="70.43,-100.76 72.36,-111.18 77.35,-101.83 70.43,-100.76"/>
</g>
<!-- Node6 -->
<g id="node3" class="node">
<title>Node6</title>
<g id="a_node3"><a xlink:title="STL class. ">
<polygon fill="white" stroke="#bfbfbf" points="160.5,-111.5 160.5,-130.5 225.5,-130.5 225.5,-111.5 160.5,-111.5"/>
<text text-anchor="middle" x="193" y="-118.5" font-family="Helvetica,sans-Serif" font-size="10.00">std::string</text>
</a>
</g>
</g>
<!-- Node6&#45;&gt;Node4 -->
<g id="edge2" class="edge">
<title>Node6&#45;&gt;Node4</title>
<path fill="none" stroke="#9a32cd" stroke-dasharray="5,2" d="M176.63,-104.01C156.14,-84.01 121.35,-50.04 101.69,-30.84"/>
<polygon fill="#9a32cd" stroke="#9a32cd" points="174.36,-106.69 183.96,-111.18 179.25,-101.69 174.36,-106.69"/>
<text text-anchor="middle" x="206" y="-85" font-family="Helvetica,sans-Serif" font-size="10.00"> ecu_private_key</text>
<text text-anchor="middle" x="206" y="-74" font-family="Helvetica,sans-Serif" font-size="10.00">ecu_hardware_id</text>
<text text-anchor="middle" x="206" y="-63" font-family="Helvetica,sans-Serif" font-size="10.00">ecu_serial</text>
<text text-anchor="middle" x="206" y="-52" font-family="Helvetica,sans-Serif" font-size="10.00">ecu_public_key</text>
</g>
<!-- Node7 -->
<g id="node4" class="node">
<title>Node7</title>
<g id="a_node4"><a xlink:title="STL class. ">
<polygon fill="white" stroke="#bfbfbf" points="141,-168.5 141,-198.5 245,-198.5 245,-168.5 141,-168.5"/>
<text text-anchor="start" x="149" y="-186.5" font-family="Helvetica,sans-Serif" font-size="10.00">std::basic_string&lt;</text>
<text text-anchor="middle" x="193" y="-175.5" font-family="Helvetica,sans-Serif" font-size="10.00"> char &gt;</text>
</a>
</g>
</g>
<!-- Node7&#45;&gt;Node6 -->
<g id="edge3" class="edge">
<title>Node7&#45;&gt;Node6</title>
<path fill="none" stroke="midnightblue" d="M193,-158.35C193,-148.51 193,-137.78 193,-130.54"/>
<polygon fill="midnightblue" stroke="midnightblue" points="189.5,-158.47 193,-168.47 196.5,-158.47 189.5,-158.47"/>
</g>
</g>
</svg>
