<?xml version="1.0" encoding="UTF-8" standalone="no"?>
<!DOCTYPE svg PUBLIC "-//W3C//DTD SVG 1.1//EN"
 "http://www.w3.org/Graphics/SVG/1.1/DTD/svg11.dtd">
<!-- Generated by graphviz version 2.43.0 (0)
 -->
<!-- Title: Uptane::RepositoryCommon Pages: 1 -->
<svg width="322pt" height="84pt"
 viewBox="0.00 0.00 321.50 84.00" xmlns="http://www.w3.org/2000/svg" xmlns:xlink="http://www.w3.org/1999/xlink">
<g id="graph0" class="graph" transform="scale(1 1) rotate(0) translate(4 80)">
<title>Uptane::RepositoryCommon</title>
<polygon fill="white" stroke="transparent" points="-4,4 -4,-80 317.5,-80 317.5,4 -4,4"/>
<!-- Node0 -->
<g id="node1" class="node">
<title>Node0</title>
<polygon fill="#bfbfbf" stroke="black" points="80.5,-56.5 80.5,-75.5 234.5,-75.5 234.5,-56.5 80.5,-56.5"/>
<text text-anchor="middle" x="157.5" y="-63.5" font-family="Helvetica,sans-Serif" font-size="10.00">Uptane::RepositoryCommon</text>
</g>
<!-- Node1 -->
<g id="node2" class="node">
<title>Node1</title>
<g id="a_node2"><a xlink:href="class_uptane_1_1_director_repository.html" target="_top" xlink:title="Uptane::DirectorRepository">
<polygon fill="white" stroke="black" points="0,-0.5 0,-19.5 149,-19.5 149,-0.5 0,-0.5"/>
<text text-anchor="middle" x="74.5" y="-7.5" font-family="Helvetica,sans-Serif" font-size="10.00">Uptane::DirectorRepository</text>
</a>
</g>
</g>
<!-- Node0&#45;&gt;Node1 -->
<g id="edge1" class="edge">
<title>Node0&#45;&gt;Node1</title>
<path fill="none" stroke="midnightblue" d="M135.4,-50.62C120.24,-40.76 100.62,-27.99 87.8,-19.65"/>
<polygon fill="midnightblue" stroke="midnightblue" points="133.87,-53.8 144.16,-56.32 137.69,-47.94 133.87,-53.8"/>
</g>
<!-- Node2 -->
<g id="node3" class="node">
<title>Node2</title>
<g id="a_node3"><a xlink:href="class_uptane_1_1_images_repository.html" target="_top" xlink:title="Uptane::ImagesRepository">
<polygon fill="white" stroke="black" points="167.5,-0.5 167.5,-19.5 313.5,-19.5 313.5,-0.5 167.5,-0.5"/>
<text text-anchor="middle" x="240.5" y="-7.5" font-family="Helvetica,sans-Serif" font-size="10.00">Uptane::ImagesRepository</text>
</a>
</g>
</g>
<!-- Node0&#45;&gt;Node2 -->
<g id="edge2" class="edge">
<title>Node0&#45;&gt;Node2</title>
<path fill="none" stroke="midnightblue" d="M179.6,-50.62C194.76,-40.76 214.38,-27.99 227.2,-19.65"/>
<polygon fill="midnightblue" stroke="midnightblue" points="177.31,-47.94 170.84,-56.32 181.13,-53.8 177.31,-47.94"/>
</g>
</g>
</svg>
