<?xml version="1.0" encoding="UTF-8" standalone="no"?>
<!DOCTYPE svg PUBLIC "-//W3C//DTD SVG 1.1//EN"
 "http://www.w3.org/Graphics/SVG/1.1/DTD/svg11.dtd">
<!-- Generated by graphviz version 2.43.0 (0)
 -->
<!-- Title: BadCredentialsJson Pages: 1 -->
<svg width="119pt" height="140pt"
 viewBox="0.00 0.00 119.00 140.00" xmlns="http://www.w3.org/2000/svg" xmlns:xlink="http://www.w3.org/1999/xlink">
<g id="graph0" class="graph" transform="scale(1 1) rotate(0) translate(4 136)">
<title>BadCredentialsJson</title>
<polygon fill="white" stroke="transparent" points="-4,4 -4,-136 115,-136 115,4 -4,4"/>
<!-- Node3 -->
<g id="node1" class="node">
<title>Node3</title>
<polygon fill="#bfbfbf" stroke="black" points="0,-0.5 0,-19.5 111,-19.5 111,-0.5 0,-0.5"/>
<text text-anchor="middle" x="55.5" y="-7.5" font-family="Helvetica,sans-Serif" font-size="10.00">BadCredentialsJson</text>
</g>
<!-- Node4 -->
<g id="node2" class="node">
<title>Node4</title>
<g id="a_node2"><a xlink:title="STL class. ">
<polygon fill="white" stroke="#bfbfbf" points="3.5,-56.5 3.5,-75.5 107.5,-75.5 107.5,-56.5 3.5,-56.5"/>
<text text-anchor="middle" x="55.5" y="-63.5" font-family="Helvetica,sans-Serif" font-size="10.00">std::runtime_error</text>
</a>
</g>
</g>
<!-- Node4&#45;&gt;Node3 -->
<g id="edge1" class="edge">
<title>Node4&#45;&gt;Node3</title>
<path fill="none" stroke="midnightblue" d="M55.5,-45.8C55.5,-36.91 55.5,-26.78 55.5,-19.75"/>
<polygon fill="midnightblue" stroke="midnightblue" points="52,-46.08 55.5,-56.08 59,-46.08 52,-46.08"/>
</g>
<!-- Node5 -->
<g id="node3" class="node">
<title>Node5</title>
<g id="a_node3"><a xlink:title="STL class. ">
<polygon fill="white" stroke="#bfbfbf" points="12.5,-112.5 12.5,-131.5 98.5,-131.5 98.5,-112.5 12.5,-112.5"/>
<text text-anchor="middle" x="55.5" y="-119.5" font-family="Helvetica,sans-Serif" font-size="10.00">std::exception</text>
</a>
</g>
</g>
<!-- Node5&#45;&gt;Node4 -->
<g id="edge2" class="edge">
<title>Node5&#45;&gt;Node4</title>
<path fill="none" stroke="midnightblue" d="M55.5,-101.8C55.5,-92.91 55.5,-82.78 55.5,-75.75"/>
<polygon fill="midnightblue" stroke="midnightblue" points="52,-102.08 55.5,-112.08 59,-102.08 52,-102.08"/>
</g>
</g>
</svg>
