<?xml version="1.0" encoding="UTF-8" standalone="no"?>
<!DOCTYPE svg PUBLIC "-//W3C//DTD SVG 1.1//EN"
 "http://www.w3.org/Graphics/SVG/1.1/DTD/svg11.dtd">
<!-- Generated by graphviz version 2.43.0 (0)
 -->
<!-- Title: SQLStorageBase Pages: 1 -->
<svg width="198pt" height="163pt"
 viewBox="0.00 0.00 197.50 163.00" xmlns="http://www.w3.org/2000/svg" xmlns:xlink="http://www.w3.org/1999/xlink">
<g id="graph0" class="graph" transform="scale(1 1) rotate(0) translate(4 159)">
<title>SQLStorageBase</title>
<polygon fill="white" stroke="transparent" points="-4,4 -4,-159 193.5,-159 193.5,4 -4,4"/>
<!-- Node3 -->
<g id="node1" class="node">
<title>Node3</title>
<polygon fill="#bfbfbf" stroke="black" points="24,-0.5 24,-19.5 121,-19.5 121,-0.5 24,-0.5"/>
<text text-anchor="middle" x="72.5" y="-7.5" font-family="Helvetica,sans-Serif" font-size="10.00">SQLStorageBase</text>
</g>
<!-- Node4 -->
<g id="node2" class="node">
<title>Node4</title>
<g id="a_node2"><a xlink:href="class_storage_lock.html" target="_top" xlink:title="StorageLock">
<polygon fill="white" stroke="black" points="0,-67.5 0,-86.5 77,-86.5 77,-67.5 0,-67.5"/>
<text text-anchor="middle" x="38.5" y="-74.5" font-family="Helvetica,sans-Serif" font-size="10.00">StorageLock</text>
</a>
</g>
</g>
<!-- Node4&#45;&gt;Node3 -->
<g id="edge1" class="edge">
<title>Node4&#45;&gt;Node3</title>
<path fill="none" stroke="#9a32cd" stroke-dasharray="5,2" d="M47.83,-58.16C54.39,-45.63 62.87,-29.41 67.99,-19.63"/>
<polygon fill="#9a32cd" stroke="#9a32cd" points="44.62,-56.75 43.09,-67.23 50.82,-60 44.62,-56.75"/>
<text text-anchor="middle" x="69.5" y="-41" font-family="Helvetica,sans-Serif" font-size="10.00"> lock</text>
</g>
<!-- Node5 -->
<g id="node3" class="node">
<title>Node5</title>
<g id="a_node3"><a xlink:title="STL class. ">
<polygon fill="white" stroke="#bfbfbf" points="95,-67.5 95,-86.5 160,-86.5 160,-67.5 95,-67.5"/>
<text text-anchor="middle" x="127.5" y="-74.5" font-family="Helvetica,sans-Serif" font-size="10.00">std::string</text>
</a>
</g>
</g>
<!-- Node5&#45;&gt;Node3 -->
<g id="edge2" class="edge">
<title>Node5&#45;&gt;Node3</title>
<path fill="none" stroke="#9a32cd" stroke-dasharray="5,2" d="M113.34,-59.27C102.62,-46.6 88.32,-29.7 79.8,-19.63"/>
<polygon fill="#9a32cd" stroke="#9a32cd" points="110.95,-61.86 120.08,-67.23 116.29,-57.34 110.95,-61.86"/>
<text text-anchor="middle" x="146" y="-41" font-family="Helvetica,sans-Serif" font-size="10.00"> current_schema_</text>
</g>
<!-- Node6 -->
<g id="node4" class="node">
<title>Node6</title>
<g id="a_node4"><a xlink:title="STL class. ">
<polygon fill="white" stroke="#bfbfbf" points="75.5,-124.5 75.5,-154.5 179.5,-154.5 179.5,-124.5 75.5,-124.5"/>
<text text-anchor="start" x="83.5" y="-142.5" font-family="Helvetica,sans-Serif" font-size="10.00">std::basic_string&lt;</text>
<text text-anchor="middle" x="127.5" y="-131.5" font-family="Helvetica,sans-Serif" font-size="10.00"> char &gt;</text>
</a>
</g>
</g>
<!-- Node6&#45;&gt;Node5 -->
<g id="edge3" class="edge">
<title>Node6&#45;&gt;Node5</title>
<path fill="none" stroke="midnightblue" d="M127.5,-114.35C127.5,-104.51 127.5,-93.78 127.5,-86.54"/>
<polygon fill="midnightblue" stroke="midnightblue" points="124,-114.47 127.5,-124.47 131,-114.47 124,-114.47"/>
</g>
</g>
</svg>
