<?xml version="1.0" encoding="UTF-8" standalone="no"?>
<!DOCTYPE svg PUBLIC "-//W3C//DTD SVG 1.1//EN"
 "http://www.w3.org/Graphics/SVG/1.1/DTD/svg11.dtd">
<!-- Generated by graphviz version 2.43.0 (0)
 -->
<!-- Title: Primary::VirtualSecondary Pages: 1 -->
<svg width="401pt" height="331pt"
 viewBox="0.00 0.00 401.00 331.00" xmlns="http://www.w3.org/2000/svg" xmlns:xlink="http://www.w3.org/1999/xlink">
<g id="graph0" class="graph" transform="scale(1 1) rotate(0) translate(4 327)">
<title>Primary::VirtualSecondary</title>
<polygon fill="white" stroke="transparent" points="-4,4 -4,-327 397,-327 397,4 -4,4"/>
<!-- Node3 -->
<g id="node1" class="node">
<title>Node3</title>
<polygon fill="#bfbfbf" stroke="black" points="20.5,-0.5 20.5,-19.5 163.5,-19.5 163.5,-0.5 20.5,-0.5"/>
<text text-anchor="middle" x="92" y="-7.5" font-family="Helvetica,sans-Serif" font-size="10.00">Primary::VirtualSecondary</text>
</g>
<!-- Node4 -->
<g id="node2" class="node">
<title>Node4</title>
<g id="a_node2"><a xlink:href="class_primary_1_1_managed_secondary.html" target="_top" xlink:title="Primary::ManagedSecondary">
<polygon fill="white" stroke="black" points="14.5,-57.5 14.5,-76.5 169.5,-76.5 169.5,-57.5 14.5,-57.5"/>
<text text-anchor="middle" x="92" y="-64.5" font-family="Helvetica,sans-Serif" font-size="10.00">Primary::ManagedSecondary</text>
</a>
</g>
</g>
<!-- Node4&#45;&gt;Node3 -->
<g id="edge1" class="edge">
<title>Node4&#45;&gt;Node3</title>
<path fill="none" stroke="midnightblue" d="M92,-47.12C92,-37.82 92,-27.06 92,-19.71"/>
<polygon fill="midnightblue" stroke="midnightblue" points="88.5,-47.41 92,-57.41 95.5,-47.41 88.5,-47.41"/>
</g>
<!-- Node5 -->
<g id="node3" class="node">
<title>Node5</title>
<g id="a_node3"><a xlink:href="class_uptane_1_1_secondary_interface.html" target="_top" xlink:title="Uptane::SecondaryInterface">
<polygon fill="white" stroke="black" points="0,-130 0,-149 152,-149 152,-130 0,-130"/>
<text text-anchor="middle" x="76" y="-137" font-family="Helvetica,sans-Serif" font-size="10.00">Uptane::SecondaryInterface</text>
</a>
</g>
</g>
<!-- Node5&#45;&gt;Node4 -->
<g id="edge2" class="edge">
<title>Node5&#45;&gt;Node4</title>
<path fill="none" stroke="midnightblue" d="M80.23,-119.86C83.4,-105.9 87.59,-87.43 90.02,-76.72"/>
<polygon fill="midnightblue" stroke="midnightblue" points="76.76,-119.33 77.96,-129.86 83.59,-120.88 76.76,-119.33"/>
</g>
<!-- Node6 -->
<g id="node4" class="node">
<title>Node6</title>
<g id="a_node4"><a xlink:href="class_primary_1_1_managed_secondary_config.html" target="_top" xlink:title="Primary::ManagedSecondary\lConfig">
<polygon fill="white" stroke="black" points="170.5,-124.5 170.5,-154.5 325.5,-154.5 325.5,-124.5 170.5,-124.5"/>
<text text-anchor="start" x="178.5" y="-142.5" font-family="Helvetica,sans-Serif" font-size="10.00">Primary::ManagedSecondary</text>
<text text-anchor="middle" x="248" y="-131.5" font-family="Helvetica,sans-Serif" font-size="10.00">Config</text>
</a>
</g>
</g>
<!-- Node6&#45;&gt;Node4 -->
<g id="edge3" class="edge">
<title>Node6&#45;&gt;Node4</title>
<path fill="none" stroke="#9a32cd" stroke-dasharray="5,2" d="M207.5,-120.2C176.35,-106.12 134.71,-87.3 110.88,-76.53"/>
<polygon fill="#9a32cd" stroke="#9a32cd" points="206.25,-123.47 216.81,-124.4 209.13,-117.1 206.25,-123.47"/>
<text text-anchor="middle" x="194" y="-98" font-family="Helvetica,sans-Serif" font-size="10.00"> sconfig</text>
</g>
<!-- Node7 -->
<g id="node5" class="node">
<title>Node7</title>
<g id="a_node5"><a xlink:href="class_primary_1_1_secondary_config.html" target="_top" xlink:title="Primary::SecondaryConfig">
<polygon fill="white" stroke="black" points="139,-235.5 139,-254.5 281,-254.5 281,-235.5 139,-235.5"/>
<text text-anchor="middle" x="210" y="-242.5" font-family="Helvetica,sans-Serif" font-size="10.00">Primary::SecondaryConfig</text>
</a>
</g>
</g>
<!-- Node7&#45;&gt;Node6 -->
<g id="edge4" class="edge">
<title>Node7&#45;&gt;Node6</title>
<path fill="none" stroke="midnightblue" d="M216.77,-225.56C224.2,-205.33 235.97,-173.28 242.73,-154.84"/>
<polygon fill="midnightblue" stroke="midnightblue" points="213.4,-224.58 213.24,-235.18 219.97,-226.99 213.4,-224.58"/>
</g>
<!-- Node8 -->
<g id="node6" class="node">
<title>Node8</title>
<g id="a_node6"><a xlink:title="STL class. ">
<polygon fill="white" stroke="#bfbfbf" points="299.5,-235.5 299.5,-254.5 364.5,-254.5 364.5,-235.5 299.5,-235.5"/>
<text text-anchor="middle" x="332" y="-242.5" font-family="Helvetica,sans-Serif" font-size="10.00">std::string</text>
</a>
</g>
</g>
<!-- Node8&#45;&gt;Node6 -->
<g id="edge5" class="edge">
<title>Node8&#45;&gt;Node6</title>
<path fill="none" stroke="#9a32cd" stroke-dasharray="5,2" d="M318.37,-227.21C302.06,-207.11 275.02,-173.79 259.64,-154.84"/>
<polygon fill="#9a32cd" stroke="#9a32cd" points="315.82,-229.62 324.84,-235.18 321.25,-225.21 315.82,-229.62"/>
<text text-anchor="middle" x="351" y="-209" font-family="Helvetica,sans-Serif" font-size="10.00"> ecu_private_key</text>
<text text-anchor="middle" x="351" y="-198" font-family="Helvetica,sans-Serif" font-size="10.00">ecu_hardware_id</text>
<text text-anchor="middle" x="351" y="-187" font-family="Helvetica,sans-Serif" font-size="10.00">ecu_serial</text>
<text text-anchor="middle" x="351" y="-176" font-family="Helvetica,sans-Serif" font-size="10.00">ecu_public_key</text>
</g>
<!-- Node9 -->
<g id="node7" class="node">
<title>Node9</title>
<g id="a_node7"><a xlink:title="STL class. ">
<polygon fill="white" stroke="#bfbfbf" points="280,-292.5 280,-322.5 384,-322.5 384,-292.5 280,-292.5"/>
<text text-anchor="start" x="288" y="-310.5" font-family="Helvetica,sans-Serif" font-size="10.00">std::basic_string&lt;</text>
<text text-anchor="middle" x="332" y="-299.5" font-family="Helvetica,sans-Serif" font-size="10.00"> char &gt;</text>
</a>
</g>
</g>
<!-- Node9&#45;&gt;Node8 -->
<g id="edge6" class="edge">
<title>Node9&#45;&gt;Node8</title>
<path fill="none" stroke="midnightblue" d="M332,-282.35C332,-272.51 332,-261.78 332,-254.54"/>
<polygon fill="midnightblue" stroke="midnightblue" points="328.5,-282.47 332,-292.47 335.5,-282.47 328.5,-282.47"/>
</g>
</g>
</svg>
