<?xml version="1.0" encoding="UTF-8" standalone="no"?>
<!DOCTYPE svg PUBLIC "-//W3C//DTD SVG 1.1//EN"
 "http://www.w3.org/Graphics/SVG/1.1/DTD/svg11.dtd">
<!-- Generated by graphviz version 2.43.0 (0)
 -->
<!-- Title: EcuInstallationCompletedReport Pages: 1 -->
<svg width="194pt" height="242pt"
 viewBox="0.00 0.00 194.00 242.00" xmlns="http://www.w3.org/2000/svg" xmlns:xlink="http://www.w3.org/1999/xlink">
<g id="graph0" class="graph" transform="scale(1 1) rotate(0) translate(4 238)">
<title>EcuInstallationCompletedReport</title>
<polygon fill="white" stroke="transparent" points="-4,4 -4,-238 190,-238 190,4 -4,4"/>
<!-- Node2 -->
<g id="node1" class="node">
<title>Node2</title>
<polygon fill="#bfbfbf" stroke="black" points="43,-0.5 43,-30.5 185,-30.5 185,-0.5 43,-0.5"/>
<text text-anchor="start" x="51" y="-18.5" font-family="Helvetica,sans-Serif" font-size="10.00">EcuInstallationCompleted</text>
<text text-anchor="middle" x="114" y="-7.5" font-family="Helvetica,sans-Serif" font-size="10.00">Report</text>
</g>
<!-- Node3 -->
<g id="node2" class="node">
<title>Node3</title>
<g id="a_node2"><a xlink:href="class_report_event.html" target="_top" xlink:title="ReportEvent">
<polygon fill="white" stroke="black" points="76,-68.5 76,-87.5 152,-87.5 152,-68.5 76,-68.5"/>
<text text-anchor="middle" x="114" y="-75.5" font-family="Helvetica,sans-Serif" font-size="10.00">ReportEvent</text>
</a>
</g>
</g>
<!-- Node3&#45;&gt;Node2 -->
<g id="edge1" class="edge">
<title>Node3&#45;&gt;Node2</title>
<path fill="none" stroke="midnightblue" d="M114,-58.22C114,-49.36 114,-38.96 114,-30.76"/>
<polygon fill="midnightblue" stroke="midnightblue" points="110.5,-58.33 114,-68.33 117.5,-58.33 110.5,-58.33"/>
</g>
<!-- Node4 -->
<g id="node3" class="node">
<title>Node4</title>
<g id="a_node3"><a xlink:title="STL class. ">
<polygon fill="white" stroke="#bfbfbf" points="19.5,-146.5 19.5,-165.5 84.5,-165.5 84.5,-146.5 19.5,-146.5"/>
<text text-anchor="middle" x="52" y="-153.5" font-family="Helvetica,sans-Serif" font-size="10.00">std::string</text>
</a>
</g>
</g>
<!-- Node4&#45;&gt;Node3 -->
<g id="edge2" class="edge">
<title>Node4&#45;&gt;Node3</title>
<path fill="none" stroke="#9a32cd" stroke-dasharray="5,2" d="M65.51,-138.44C78.28,-122.79 96.93,-99.93 106.97,-87.62"/>
<polygon fill="#9a32cd" stroke="#9a32cd" points="62.72,-136.32 59.11,-146.28 68.15,-140.75 62.72,-136.32"/>
<text text-anchor="middle" x="103.5" y="-120" font-family="Helvetica,sans-Serif" font-size="10.00"> type</text>
<text text-anchor="middle" x="103.5" y="-109" font-family="Helvetica,sans-Serif" font-size="10.00">id</text>
</g>
<!-- Node5 -->
<g id="node4" class="node">
<title>Node5</title>
<g id="a_node4"><a xlink:title="STL class. ">
<polygon fill="white" stroke="#bfbfbf" points="0,-203.5 0,-233.5 104,-233.5 104,-203.5 0,-203.5"/>
<text text-anchor="start" x="8" y="-221.5" font-family="Helvetica,sans-Serif" font-size="10.00">std::basic_string&lt;</text>
<text text-anchor="middle" x="52" y="-210.5" font-family="Helvetica,sans-Serif" font-size="10.00"> char &gt;</text>
</a>
</g>
</g>
<!-- Node5&#45;&gt;Node4 -->
<g id="edge3" class="edge">
<title>Node5&#45;&gt;Node4</title>
<path fill="none" stroke="midnightblue" d="M52,-193.35C52,-183.51 52,-172.78 52,-165.54"/>
<polygon fill="midnightblue" stroke="midnightblue" points="48.5,-193.47 52,-203.47 55.5,-193.47 48.5,-193.47"/>
</g>
<!-- Node6 -->
<g id="node5" class="node">
<title>Node6</title>
<g id="a_node5"><a xlink:href="class_time_stamp.html" target="_top" xlink:title="TimeStamp">
<polygon fill="white" stroke="black" points="102.5,-146.5 102.5,-165.5 175.5,-165.5 175.5,-146.5 102.5,-146.5"/>
<text text-anchor="middle" x="139" y="-153.5" font-family="Helvetica,sans-Serif" font-size="10.00">TimeStamp</text>
</a>
</g>
</g>
<!-- Node6&#45;&gt;Node3 -->
<g id="edge4" class="edge">
<title>Node6&#45;&gt;Node3</title>
<path fill="none" stroke="#9a32cd" stroke-dasharray="5,2" d="M132.97,-136.67C127.85,-121.11 120.73,-99.47 116.83,-87.62"/>
<polygon fill="#9a32cd" stroke="#9a32cd" points="129.68,-137.88 136.13,-146.28 136.33,-135.69 129.68,-137.88"/>
<text text-anchor="middle" x="157.5" y="-114.5" font-family="Helvetica,sans-Serif" font-size="10.00"> timestamp</text>
</g>
</g>
</svg>
