<?xml version="1.0" encoding="UTF-8" standalone="no"?>
<!DOCTYPE svg PUBLIC "-//W3C//DTD SVG 1.1//EN"
 "http://www.w3.org/Graphics/SVG/1.1/DTD/svg11.dtd">
<!-- Generated by graphviz version 2.43.0 (0)
 -->
<!-- Title: OSTreeHttpRepo Pages: 1 -->
<svg width="140pt" height="230pt"
 viewBox="0.00 0.00 140.00 230.00" xmlns="http://www.w3.org/2000/svg" xmlns:xlink="http://www.w3.org/1999/xlink">
<g id="graph0" class="graph" transform="scale(1 1) rotate(0) translate(4 226)">
<title>OSTreeHttpRepo</title>
<polygon fill="white" stroke="transparent" points="-4,4 -4,-226 136,-226 136,4 -4,4"/>
<!-- Node2 -->
<g id="node1" class="node">
<title>Node2</title>
<polygon fill="#bfbfbf" stroke="black" points="18.5,-0.5 18.5,-19.5 113.5,-19.5 113.5,-0.5 18.5,-0.5"/>
<text text-anchor="middle" x="66" y="-7.5" font-family="Helvetica,sans-Serif" font-size="10.00">OSTreeHttpRepo</text>
</g>
<!-- Node3 -->
<g id="node2" class="node">
<title>Node3</title>
<g id="a_node2"><a xlink:href="class_o_s_tree_repo.html" target="_top" xlink:title="A source repository to read OSTree objects from. ">
<polygon fill="white" stroke="black" points="29,-57.5 29,-76.5 103,-76.5 103,-57.5 29,-57.5"/>
<text text-anchor="middle" x="66" y="-64.5" font-family="Helvetica,sans-Serif" font-size="10.00">OSTreeRepo</text>
</a>
</g>
</g>
<!-- Node3&#45;&gt;Node2 -->
<g id="edge1" class="edge">
<title>Node3&#45;&gt;Node2</title>
<path fill="none" stroke="midnightblue" d="M66,-47.12C66,-37.82 66,-27.06 66,-19.71"/>
<polygon fill="midnightblue" stroke="midnightblue" points="62.5,-47.41 66,-57.41 69.5,-47.41 62.5,-47.41"/>
</g>
<!-- Node4 -->
<g id="node3" class="node">
<title>Node4</title>
<polygon fill="white" stroke="#bfbfbf" points="0,-124.5 0,-154.5 132,-154.5 132,-124.5 0,-124.5"/>
<text text-anchor="start" x="8" y="-142.5" font-family="Helvetica,sans-Serif" font-size="10.00">std::map&lt; OSTreeHash,</text>
<text text-anchor="middle" x="66" y="-131.5" font-family="Helvetica,sans-Serif" font-size="10.00"> OSTreeObject::ptr &gt;</text>
</g>
<!-- Node4&#45;&gt;Node3 -->
<g id="edge2" class="edge">
<title>Node4&#45;&gt;Node3</title>
<path fill="none" stroke="#9a32cd" stroke-dasharray="5,2" d="M66,-114.09C66,-101.21 66,-86.2 66,-76.89"/>
<polygon fill="#9a32cd" stroke="#9a32cd" points="62.5,-114.23 66,-124.23 69.5,-114.23 62.5,-114.23"/>
<text text-anchor="middle" x="96.5" y="-98" font-family="Helvetica,sans-Serif" font-size="10.00"> ObjectTable</text>
</g>
<!-- Node5 -->
<g id="node4" class="node">
<title>Node5</title>
<g id="a_node4"><a xlink:href="class_o_s_tree_hash.html" target="_top" xlink:title="OSTreeHash">
<polygon fill="white" stroke="black" points="28.5,-202.5 28.5,-221.5 103.5,-221.5 103.5,-202.5 28.5,-202.5"/>
<text text-anchor="middle" x="66" y="-209.5" font-family="Helvetica,sans-Serif" font-size="10.00">OSTreeHash</text>
</a>
</g>
</g>
<!-- Node5&#45;&gt;Node4 -->
<g id="edge3" class="edge">
<title>Node5&#45;&gt;Node4</title>
<path fill="none" stroke="#9a32cd" stroke-dasharray="5,2" d="M66,-192.24C66,-180.41 66,-165.38 66,-154.58"/>
<polygon fill="#9a32cd" stroke="#9a32cd" points="62.5,-192.36 66,-202.36 69.5,-192.36 62.5,-192.36"/>
<text text-anchor="middle" x="79.5" y="-176" font-family="Helvetica,sans-Serif" font-size="10.00"> keys</text>
</g>
</g>
</svg>
