<?xml version="1.0" encoding="UTF-8" standalone="no"?>
<!DOCTYPE svg PUBLIC "-//W3C//DTD SVG 1.1//EN"
 "http://www.w3.org/Graphics/SVG/1.1/DTD/svg11.dtd">
<!-- Generated by graphviz version 2.43.0 (0)
 -->
<!-- Title: event::AllInstallsComplete Pages: 1 -->
<svg width="511pt" height="518pt"
 viewBox="0.00 0.00 510.50 518.00" xmlns="http://www.w3.org/2000/svg" xmlns:xlink="http://www.w3.org/1999/xlink">
<g id="graph0" class="graph" transform="scale(1 1) rotate(0) translate(4 514)">
<title>event::AllInstallsComplete</title>
<polygon fill="white" stroke="transparent" points="-4,4 -4,-514 506.5,-514 506.5,4 -4,4"/>
<!-- Node2 -->
<g id="node1" class="node">
<title>Node2</title>
<polygon fill="#bfbfbf" stroke="black" points="8,-0.5 8,-19.5 154,-19.5 154,-0.5 8,-0.5"/>
<text text-anchor="middle" x="81" y="-7.5" font-family="Helvetica,sans-Serif" font-size="10.00">event::AllInstallsComplete</text>
</g>
<!-- Node3 -->
<g id="node2" class="node">
<title>Node3</title>
<g id="a_node2"><a xlink:href="classevent_1_1_base_event.html" target="_top" xlink:title="Base class for all event objects. ">
<polygon fill="white" stroke="black" points="0,-317.5 0,-336.5 102,-336.5 102,-317.5 0,-317.5"/>
<text text-anchor="middle" x="51" y="-324.5" font-family="Helvetica,sans-Serif" font-size="10.00">event::BaseEvent</text>
</a>
</g>
</g>
<!-- Node3&#45;&gt;Node2 -->
<g id="edge1" class="edge">
<title>Node3&#45;&gt;Node2</title>
<path fill="none" stroke="midnightblue" d="M56.85,-307.34C60.69,-293.46 65,-273.98 65,-256.5 65,-256.5 65,-256.5 65,-76 65,-55.31 72.74,-31.97 77.45,-19.66"/>
<polygon fill="midnightblue" stroke="midnightblue" points="53.44,-306.54 53.97,-317.12 60.15,-308.52 53.44,-306.54"/>
</g>
<!-- Node4 -->
<g id="node3" class="node">
<title>Node4</title>
<g id="a_node3"><a xlink:title="STL class. ">
<polygon fill="white" stroke="#bfbfbf" points="107.5,-422.5 107.5,-441.5 172.5,-441.5 172.5,-422.5 107.5,-422.5"/>
<text text-anchor="middle" x="140" y="-429.5" font-family="Helvetica,sans-Serif" font-size="10.00">std::string</text>
</a>
</g>
</g>
<!-- Node4&#45;&gt;Node3 -->
<g id="edge2" class="edge">
<title>Node4&#45;&gt;Node3</title>
<path fill="none" stroke="#9a32cd" stroke-dasharray="5,2" d="M97.67,-424.05C85.53,-420.07 73.34,-413.82 65,-404 48.51,-384.56 48.78,-352.11 50.02,-336.67"/>
<polygon fill="#9a32cd" stroke="#9a32cd" points="96.75,-427.43 107.33,-426.78 98.65,-420.69 96.75,-427.43"/>
<text text-anchor="middle" x="84" y="-396" font-family="Helvetica,sans-Serif" font-size="10.00"> variant</text>
</g>
<!-- Node6 -->
<g id="node5" class="node">
<title>Node6</title>
<g id="a_node5"><a xlink:href="classresult_1_1_install.html" target="_top" xlink:title="Container for information about installing an update. ">
<polygon fill="white" stroke="black" points="133,-67.5 133,-86.5 213,-86.5 213,-67.5 133,-67.5"/>
<text text-anchor="middle" x="173" y="-74.5" font-family="Helvetica,sans-Serif" font-size="10.00">result::Install</text>
</a>
</g>
</g>
<!-- Node4&#45;&gt;Node6 -->
<g id="edge9" class="edge">
<title>Node4&#45;&gt;Node6</title>
<path fill="none" stroke="#9a32cd" stroke-dasharray="5,2" d="M129.96,-413.07C123.77,-400.34 117,-382.62 117,-366 117,-366 117,-366 117,-148.5 117,-121.3 142.87,-98.51 159.44,-86.69"/>
<polygon fill="#9a32cd" stroke="#9a32cd" points="126.94,-414.85 134.67,-422.1 133.15,-411.61 126.94,-414.85"/>
<text text-anchor="middle" x="145" y="-253" font-family="Helvetica,sans-Serif" font-size="10.00"> raw_report</text>
</g>
<!-- Node7 -->
<g id="node6" class="node">
<title>Node7</title>
<g id="a_node6"><a xlink:href="structdata_1_1_installation_result.html" target="_top" xlink:title="data::InstallationResult">
<polygon fill="white" stroke="black" points="145.5,-279.5 145.5,-298.5 274.5,-298.5 274.5,-279.5 145.5,-279.5"/>
<text text-anchor="middle" x="210" y="-286.5" font-family="Helvetica,sans-Serif" font-size="10.00">data::InstallationResult</text>
</a>
</g>
</g>
<!-- Node4&#45;&gt;Node7 -->
<g id="edge8" class="edge">
<title>Node4&#45;&gt;Node7</title>
<path fill="none" stroke="#9a32cd" stroke-dasharray="5,2" d="M146.84,-412.93C152.92,-397.34 162.32,-374.35 172,-355 182.41,-334.19 196.71,-310.89 204.47,-298.63"/>
<polygon fill="#9a32cd" stroke="#9a32cd" points="143.52,-411.81 143.2,-422.4 150.05,-414.32 143.52,-411.81"/>
<text text-anchor="middle" x="201" y="-362.5" font-family="Helvetica,sans-Serif" font-size="10.00"> description</text>
</g>
<!-- Node8 -->
<g id="node7" class="node">
<title>Node8</title>
<g id="a_node7"><a xlink:href="structdata_1_1_result_code.html" target="_top" xlink:title="data::ResultCode">
<polygon fill="white" stroke="black" points="239.5,-355.5 239.5,-374.5 338.5,-374.5 338.5,-355.5 239.5,-355.5"/>
<text text-anchor="middle" x="289" y="-362.5" font-family="Helvetica,sans-Serif" font-size="10.00">data::ResultCode</text>
</a>
</g>
</g>
<!-- Node4&#45;&gt;Node8 -->
<g id="edge7" class="edge">
<title>Node4&#45;&gt;Node8</title>
<path fill="none" stroke="#9a32cd" stroke-dasharray="5,2" d="M169.16,-418.28C198.66,-405.41 243.49,-385.85 269.13,-374.67"/>
<polygon fill="#9a32cd" stroke="#9a32cd" points="167.55,-415.16 159.79,-422.37 170.35,-421.58 167.55,-415.16"/>
<text text-anchor="middle" x="250" y="-396" font-family="Helvetica,sans-Serif" font-size="10.00"> text_code</text>
</g>
<!-- Node5 -->
<g id="node4" class="node">
<title>Node5</title>
<g id="a_node4"><a xlink:title="STL class. ">
<polygon fill="white" stroke="#bfbfbf" points="88,-479.5 88,-509.5 192,-509.5 192,-479.5 88,-479.5"/>
<text text-anchor="start" x="96" y="-497.5" font-family="Helvetica,sans-Serif" font-size="10.00">std::basic_string&lt;</text>
<text text-anchor="middle" x="140" y="-486.5" font-family="Helvetica,sans-Serif" font-size="10.00"> char &gt;</text>
</a>
</g>
</g>
<!-- Node5&#45;&gt;Node4 -->
<g id="edge3" class="edge">
<title>Node5&#45;&gt;Node4</title>
<path fill="none" stroke="midnightblue" d="M140,-469.35C140,-459.51 140,-448.78 140,-441.54"/>
<polygon fill="midnightblue" stroke="midnightblue" points="136.5,-469.47 140,-479.47 143.5,-469.47 136.5,-469.47"/>
</g>
<!-- Node6&#45;&gt;Node2 -->
<g id="edge4" class="edge">
<title>Node6&#45;&gt;Node2</title>
<path fill="none" stroke="#9a32cd" stroke-dasharray="5,2" d="M152.36,-61.42C134.18,-48.57 108.29,-30.28 93.21,-19.63"/>
<polygon fill="#9a32cd" stroke="#9a32cd" points="150.41,-64.32 160.59,-67.23 154.44,-58.6 150.41,-64.32"/>
<text text-anchor="middle" x="148.5" y="-41" font-family="Helvetica,sans-Serif" font-size="10.00"> result</text>
</g>
<!-- Node7&#45;&gt;Node6 -->
<g id="edge5" class="edge">
<title>Node7&#45;&gt;Node6</title>
<path fill="none" stroke="#9a32cd" stroke-dasharray="5,2" d="M206.67,-269.12C198.96,-225.34 180.08,-118.21 174.55,-86.79"/>
<polygon fill="#9a32cd" stroke="#9a32cd" points="203.28,-270 208.46,-279.24 210.17,-268.79 203.28,-270"/>
<text text-anchor="middle" x="222" y="-186" font-family="Helvetica,sans-Serif" font-size="10.00"> dev_report</text>
</g>
<!-- Node10 -->
<g id="node9" class="node">
<title>Node10</title>
<g id="a_node9"><a xlink:href="classresult_1_1_install_1_1_ecu_report.html" target="_top" xlink:title="result::Install::EcuReport">
<polygon fill="white" stroke="black" points="242.5,-212.5 242.5,-231.5 377.5,-231.5 377.5,-212.5 242.5,-212.5"/>
<text text-anchor="middle" x="310" y="-219.5" font-family="Helvetica,sans-Serif" font-size="10.00">result::Install::EcuReport</text>
</a>
</g>
</g>
<!-- Node7&#45;&gt;Node10 -->
<g id="edge13" class="edge">
<title>Node7&#45;&gt;Node10</title>
<path fill="none" stroke="#9a32cd" stroke-dasharray="5,2" d="M229.83,-273.06C239.65,-265.85 251.77,-257.22 263,-250 273.13,-243.48 284.88,-236.73 294.1,-231.61"/>
<polygon fill="#9a32cd" stroke="#9a32cd" points="227.5,-270.43 221.55,-279.2 231.67,-276.05 227.5,-270.43"/>
<text text-anchor="middle" x="290" y="-253" font-family="Helvetica,sans-Serif" font-size="10.00"> install_res</text>
</g>
<!-- Node8&#45;&gt;Node7 -->
<g id="edge6" class="edge">
<title>Node8&#45;&gt;Node7</title>
<path fill="none" stroke="#9a32cd" stroke-dasharray="5,2" d="M271.98,-348.06C255.88,-332.98 232.3,-310.89 219.36,-298.77"/>
<polygon fill="#9a32cd" stroke="#9a32cd" points="269.94,-350.94 279.63,-355.22 274.72,-345.83 269.94,-350.94"/>
<text text-anchor="middle" x="288" y="-324.5" font-family="Helvetica,sans-Serif" font-size="10.00"> result_code</text>
</g>
<!-- Node9 -->
<g id="node8" class="node">
<title>Node9</title>
<polygon fill="white" stroke="#bfbfbf" points="231.5,-134.5 231.5,-164.5 350.5,-164.5 350.5,-134.5 231.5,-134.5"/>
<text text-anchor="start" x="239.5" y="-152.5" font-family="Helvetica,sans-Serif" font-size="10.00">std::vector&lt; result</text>
<text text-anchor="middle" x="291" y="-141.5" font-family="Helvetica,sans-Serif" font-size="10.00">::Install::EcuReport &gt;</text>
</g>
<!-- Node9&#45;&gt;Node6 -->
<g id="edge10" class="edge">
<title>Node9&#45;&gt;Node6</title>
<path fill="none" stroke="#9a32cd" stroke-dasharray="5,2" d="M258.52,-129.1C235.18,-115.15 204.84,-97.02 187.28,-86.53"/>
<polygon fill="#9a32cd" stroke="#9a32cd" points="257.02,-132.28 267.4,-134.4 260.62,-126.27 257.02,-132.28"/>
<text text-anchor="middle" x="266.5" y="-108" font-family="Helvetica,sans-Serif" font-size="10.00"> ecu_reports</text>
</g>
<!-- Node10&#45;&gt;Node9 -->
<g id="edge11" class="edge">
<title>Node10&#45;&gt;Node9</title>
<path fill="none" stroke="#9a32cd" stroke-dasharray="5,2" d="M305.04,-202.6C301.84,-190.72 297.74,-175.49 294.79,-164.58"/>
<polygon fill="#9a32cd" stroke="#9a32cd" points="301.69,-203.61 307.67,-212.36 308.45,-201.79 301.69,-203.61"/>
<text text-anchor="middle" x="326.5" y="-186" font-family="Helvetica,sans-Serif" font-size="10.00"> elements</text>
</g>
<!-- Node11 -->
<g id="node10" class="node">
<title>Node11</title>
<g id="a_node10"><a xlink:href="class_uptane_1_1_target.html" target="_top" xlink:title="Uptane::Target">
<polygon fill="white" stroke="black" points="293,-279.5 293,-298.5 381,-298.5 381,-279.5 293,-279.5"/>
<text text-anchor="middle" x="337" y="-286.5" font-family="Helvetica,sans-Serif" font-size="10.00">Uptane::Target</text>
</a>
</g>
</g>
<!-- Node11&#45;&gt;Node10 -->
<g id="edge12" class="edge">
<title>Node11&#45;&gt;Node10</title>
<path fill="none" stroke="#9a32cd" stroke-dasharray="5,2" d="M329.44,-269.79C324.25,-257.31 317.61,-241.31 313.58,-231.63"/>
<polygon fill="#9a32cd" stroke="#9a32cd" points="326.29,-271.34 333.36,-279.23 332.75,-268.66 326.29,-271.34"/>
<text text-anchor="middle" x="343.5" y="-253" font-family="Helvetica,sans-Serif" font-size="10.00"> update</text>
</g>
<!-- Node12 -->
<g id="node11" class="node">
<title>Node12</title>
<g id="a_node11"><a xlink:href="class_uptane_1_1_ecu_serial.html" target="_top" xlink:title="Uptane::EcuSerial">
<polygon fill="white" stroke="black" points="399.5,-279.5 399.5,-298.5 502.5,-298.5 502.5,-279.5 399.5,-279.5"/>
<text text-anchor="middle" x="451" y="-286.5" font-family="Helvetica,sans-Serif" font-size="10.00">Uptane::EcuSerial</text>
</a>
</g>
</g>
<!-- Node12&#45;&gt;Node10 -->
<g id="edge14" class="edge">
<title>Node12&#45;&gt;Node10</title>
<path fill="none" stroke="#9a32cd" stroke-dasharray="5,2" d="M423.04,-275.11C395.12,-262.24 352.96,-242.81 328.8,-231.67"/>
<polygon fill="#9a32cd" stroke="#9a32cd" points="421.73,-278.36 432.28,-279.37 424.66,-272 421.73,-278.36"/>
<text text-anchor="middle" x="403.5" y="-253" font-family="Helvetica,sans-Serif" font-size="10.00"> serial</text>
</g>
</g>
</svg>
