<?xml version="1.0" encoding="UTF-8" standalone="no"?>
<!DOCTYPE svg PUBLIC "-//W3C//DTD SVG 1.1//EN"
 "http://www.w3.org/Graphics/SVG/1.1/DTD/svg11.dtd">
<!-- Generated by graphviz version 2.43.0 (0)
 -->
<!-- Title: Uptane::VersionMismatch Pages: 1 -->
<svg width="216pt" height="220pt"
 viewBox="0.00 0.00 216.00 220.00" xmlns="http://www.w3.org/2000/svg" xmlns:xlink="http://www.w3.org/1999/xlink">
<g id="graph0" class="graph" transform="scale(1 1) rotate(0) translate(4 216)">
<title>Uptane::VersionMismatch</title>
<polygon fill="white" stroke="transparent" points="-4,4 -4,-216 212,-216 212,4 -4,4"/>
<!-- Node4 -->
<g id="node1" class="node">
<title>Node4</title>
<polygon fill="#bfbfbf" stroke="black" points="24.5,-0.5 24.5,-19.5 165.5,-19.5 165.5,-0.5 24.5,-0.5"/>
<text text-anchor="middle" x="95" y="-7.5" font-family="Helvetica,sans-Serif" font-size="10.00">Uptane::VersionMismatch</text>
</g>
<!-- Node5 -->
<g id="node2" class="node">
<title>Node5</title>
<g id="a_node2"><a xlink:href="class_uptane_1_1_exception.html" target="_top" xlink:title="Uptane::Exception">
<polygon fill="white" stroke="black" points="42,-57.5 42,-76.5 148,-76.5 148,-57.5 42,-57.5"/>
<text text-anchor="middle" x="95" y="-64.5" font-family="Helvetica,sans-Serif" font-size="10.00">Uptane::Exception</text>
</a>
</g>
</g>
<!-- Node5&#45;&gt;Node4 -->
<g id="edge1" class="edge">
<title>Node5&#45;&gt;Node4</title>
<path fill="none" stroke="midnightblue" d="M95,-47.12C95,-37.82 95,-27.06 95,-19.71"/>
<polygon fill="midnightblue" stroke="midnightblue" points="91.5,-47.41 95,-57.41 98.5,-47.41 91.5,-47.41"/>
</g>
<!-- Node6 -->
<g id="node3" class="node">
<title>Node6</title>
<g id="a_node3"><a xlink:title="STL class. ">
<polygon fill="white" stroke="#bfbfbf" points="3.5,-124.5 3.5,-143.5 92.5,-143.5 92.5,-124.5 3.5,-124.5"/>
<text text-anchor="middle" x="48" y="-131.5" font-family="Helvetica,sans-Serif" font-size="10.00">std::logic_error</text>
</a>
</g>
</g>
<!-- Node6&#45;&gt;Node5 -->
<g id="edge2" class="edge">
<title>Node6&#45;&gt;Node5</title>
<path fill="none" stroke="midnightblue" d="M60.36,-115.9C69.49,-103.27 81.55,-86.6 88.76,-76.63"/>
<polygon fill="midnightblue" stroke="midnightblue" points="57.36,-114.08 54.34,-124.23 63.03,-118.18 57.36,-114.08"/>
</g>
<!-- Node7 -->
<g id="node4" class="node">
<title>Node7</title>
<g id="a_node4"><a xlink:title="STL class. ">
<polygon fill="white" stroke="#bfbfbf" points="0,-187 0,-206 86,-206 86,-187 0,-187"/>
<text text-anchor="middle" x="43" y="-194" font-family="Helvetica,sans-Serif" font-size="10.00">std::exception</text>
</a>
</g>
</g>
<!-- Node7&#45;&gt;Node6 -->
<g id="edge3" class="edge">
<title>Node7&#45;&gt;Node6</title>
<path fill="none" stroke="midnightblue" d="M44.54,-176.85C45.46,-165.78 46.57,-152.27 47.28,-143.65"/>
<polygon fill="midnightblue" stroke="midnightblue" points="41.05,-176.58 43.72,-186.83 48.03,-177.15 41.05,-176.58"/>
</g>
<!-- Node8 -->
<g id="node5" class="node">
<title>Node8</title>
<g id="a_node5"><a xlink:title="STL class. ">
<polygon fill="white" stroke="#bfbfbf" points="119.5,-124.5 119.5,-143.5 184.5,-143.5 184.5,-124.5 119.5,-124.5"/>
<text text-anchor="middle" x="152" y="-131.5" font-family="Helvetica,sans-Serif" font-size="10.00">std::string</text>
</a>
</g>
</g>
<!-- Node8&#45;&gt;Node5 -->
<g id="edge4" class="edge">
<title>Node8&#45;&gt;Node5</title>
<path fill="none" stroke="#9a32cd" stroke-dasharray="5,2" d="M137.65,-116.63C126.5,-103.92 111.48,-86.8 102.57,-76.63"/>
<polygon fill="#9a32cd" stroke="#9a32cd" points="135.09,-119.02 144.31,-124.23 140.35,-114.41 135.09,-119.02"/>
<text text-anchor="middle" x="156" y="-98" font-family="Helvetica,sans-Serif" font-size="10.00"> reponame_</text>
</g>
<!-- Node9 -->
<g id="node6" class="node">
<title>Node9</title>
<g id="a_node6"><a xlink:title="STL class. ">
<polygon fill="white" stroke="#bfbfbf" points="104,-181.5 104,-211.5 208,-211.5 208,-181.5 104,-181.5"/>
<text text-anchor="start" x="112" y="-199.5" font-family="Helvetica,sans-Serif" font-size="10.00">std::basic_string&lt;</text>
<text text-anchor="middle" x="156" y="-188.5" font-family="Helvetica,sans-Serif" font-size="10.00"> char &gt;</text>
</a>
</g>
</g>
<!-- Node9&#45;&gt;Node8 -->
<g id="edge5" class="edge">
<title>Node9&#45;&gt;Node8</title>
<path fill="none" stroke="midnightblue" d="M154.4,-171.35C153.75,-161.51 153.04,-150.78 152.56,-143.54"/>
<polygon fill="midnightblue" stroke="midnightblue" points="150.92,-171.72 155.07,-181.47 157.9,-171.26 150.92,-171.72"/>
</g>
</g>
</svg>
