<?xml version="1.0" encoding="UTF-8" standalone="no"?>
<!DOCTYPE svg PUBLIC "-//W3C//DTD SVG 1.1//EN"
 "http://www.w3.org/Graphics/SVG/1.1/DTD/svg11.dtd">
<!-- Generated by graphviz version 2.43.0 (0)
 -->
<!-- Title: test_fixtures.Treehub Pages: 1 -->
<svg width="148pt" height="140pt"
 viewBox="0.00 0.00 148.00 140.00" xmlns="http://www.w3.org/2000/svg" xmlns:xlink="http://www.w3.org/1999/xlink">
<g id="graph0" class="graph" transform="scale(1 1) rotate(0) translate(4 136)">
<title>test_fixtures.Treehub</title>
<polygon fill="white" stroke="transparent" points="-4,4 -4,-136 144,-136 144,4 -4,4"/>
<!-- Node3 -->
<g id="node1" class="node">
<title>Node3</title>
<polygon fill="#bfbfbf" stroke="black" points="10.5,-0.5 10.5,-19.5 129.5,-19.5 129.5,-0.5 10.5,-0.5"/>
<text text-anchor="middle" x="70" y="-7.5" font-family="Helvetica,sans-Serif" font-size="10.00">test_fixtures.Treehub</text>
</g>
<!-- Node4 -->
<g id="node2" class="node">
<title>Node4</title>
<g id="a_node2"><a xlink:href="classtest__fixtures_1_1_uptane_repo.html" target="_top" xlink:title="test_fixtures.UptaneRepo">
<polygon fill="white" stroke="black" points="0,-56.5 0,-75.5 140,-75.5 140,-56.5 0,-56.5"/>
<text text-anchor="middle" x="70" y="-63.5" font-family="Helvetica,sans-Serif" font-size="10.00">test_fixtures.UptaneRepo</text>
</a>
</g>
</g>
<!-- Node4&#45;&gt;Node3 -->
<g id="edge1" class="edge">
<title>Node4&#45;&gt;Node3</title>
<path fill="none" stroke="midnightblue" d="M70,-45.8C70,-36.91 70,-26.78 70,-19.75"/>
<polygon fill="midnightblue" stroke="midnightblue" points="66.5,-46.08 70,-56.08 73.5,-46.08 66.5,-46.08"/>
</g>
<!-- Node5 -->
<g id="node3" class="node">
<title>Node5</title>
<polygon fill="white" stroke="#bfbfbf" points="33,-112.5 33,-131.5 107,-131.5 107,-112.5 33,-112.5"/>
<text text-anchor="middle" x="70" y="-119.5" font-family="Helvetica,sans-Serif" font-size="10.00">HTTPServer</text>
</g>
<!-- Node5&#45;&gt;Node4 -->
<g id="edge2" class="edge">
<title>Node5&#45;&gt;Node4</title>
<path fill="none" stroke="midnightblue" d="M70,-101.8C70,-92.91 70,-82.78 70,-75.75"/>
<polygon fill="midnightblue" stroke="midnightblue" points="66.5,-102.08 70,-112.08 73.5,-102.08 66.5,-102.08"/>
</g>
</g>
</svg>
