<?xml version="1.0" encoding="UTF-8" standalone="no"?>
<!DOCTYPE svg PUBLIC "-//W3C//DTD SVG 1.1//EN"
 "http://www.w3.org/Graphics/SVG/1.1/DTD/svg11.dtd">
<!-- Generated by graphviz version 2.43.0 (0)
 -->
<!-- Title: Graphical Class Hierarchy Pages: 1 -->
<svg width="253pt" height="142pt"
 viewBox="0.00 0.00 253.00 142.00" xmlns="http://www.w3.org/2000/svg" xmlns:xlink="http://www.w3.org/1999/xlink">
<g id="graph0" class="graph" transform="scale(1 1) rotate(0) translate(4 138)">
<title>Graphical Class Hierarchy</title>
<polygon fill="white" stroke="transparent" points="-4,4 -4,-138 249,-138 249,4 -4,4"/>
<!-- Node26 -->
<g id="node1" class="node">
<title>Node26</title>
<polygon fill="white" stroke="#bfbfbf" points="0,-57.5 0,-76.5 36,-76.5 36,-57.5 0,-57.5"/>
<text text-anchor="middle" x="18" y="-64.5" font-family="Helvetica,sans-Serif" font-size="10.00">Test</text>
</g>
<!-- Node0 -->
<g id="node2" class="node">
<title>Node0</title>
<g id="a_node2"><a xlink:href="class_aktualizr_cert_provider_test.html" target="_top" xlink:title="AktualizrCertProviderTest">
<polygon fill="white" stroke="black" points="88.5,-114.5 88.5,-133.5 228.5,-133.5 228.5,-114.5 88.5,-114.5"/>
<text text-anchor="middle" x="158.5" y="-121.5" font-family="Helvetica,sans-Serif" font-size="10.00">AktualizrCertProviderTest</text>
</a>
</g>
</g>
<!-- Node26&#45;&gt;Node0 -->
<g id="edge1" class="edge">
<title>Node26&#45;&gt;Node0</title>
<path fill="none" stroke="midnightblue" d="M37.32,-82.96C47.04,-90.66 59.53,-99.43 72,-105 80.61,-108.85 90.06,-111.95 99.44,-114.43"/>
<polygon fill="midnightblue" stroke="midnightblue" points="39.51,-80.22 29.56,-76.57 35.05,-85.63 39.51,-80.22"/>
</g>
<!-- Node28 -->
<g id="node3" class="node">
<title>Node28</title>
<g id="a_node3"><a xlink:href="class_aktualizr_info_test.html" target="_top" xlink:title="AktualizrInfoTest">
<polygon fill="white" stroke="black" points="109.5,-76.5 109.5,-95.5 207.5,-95.5 207.5,-76.5 109.5,-76.5"/>
<text text-anchor="middle" x="158.5" y="-83.5" font-family="Helvetica,sans-Serif" font-size="10.00">AktualizrInfoTest</text>
</a>
</g>
</g>
<!-- Node26&#45;&gt;Node28 -->
<g id="edge2" class="edge">
<title>Node26&#45;&gt;Node28</title>
<path fill="none" stroke="midnightblue" d="M46.32,-70.75C64.25,-73.21 88.21,-76.49 109.29,-79.39"/>
<polygon fill="midnightblue" stroke="midnightblue" points="46.64,-67.26 36.26,-69.37 45.69,-74.19 46.64,-67.26"/>
</g>
<!-- Node29 -->
<g id="node4" class="node">
<title>Node29</title>
<g id="a_node4"><a xlink:href="class_partial_verification_secondary_test.html" target="_top" xlink:title="PartialVerificationSecondaryTest">
<polygon fill="white" stroke="black" points="72,-38.5 72,-57.5 245,-57.5 245,-38.5 72,-38.5"/>
<text text-anchor="middle" x="158.5" y="-45.5" font-family="Helvetica,sans-Serif" font-size="10.00">PartialVerificationSecondaryTest</text>
</a>
</g>
</g>
<!-- Node26&#45;&gt;Node29 -->
<g id="edge3" class="edge">
<title>Node26&#45;&gt;Node29</title>
<path fill="none" stroke="midnightblue" d="M46.5,-63.23C58.57,-61.57 73.32,-59.55 88.09,-57.52"/>
<polygon fill="midnightblue" stroke="midnightblue" points="45.69,-59.81 36.26,-64.63 46.64,-66.74 45.69,-59.81"/>
</g>
<!-- Node30 -->
<g id="node5" class="node">
<title>Node30</title>
<g id="a_node5"><a xlink:href="class_virtual_secondary_test.html" target="_top" xlink:title="VirtualSecondaryTest">
<polygon fill="white" stroke="black" points="99,-0.5 99,-19.5 218,-19.5 218,-0.5 99,-0.5"/>
<text text-anchor="middle" x="158.5" y="-7.5" font-family="Helvetica,sans-Serif" font-size="10.00">VirtualSecondaryTest</text>
</a>
</g>
</g>
<!-- Node26&#45;&gt;Node30 -->
<g id="edge4" class="edge">
<title>Node26&#45;&gt;Node30</title>
<path fill="none" stroke="midnightblue" d="M37.32,-51.04C47.04,-43.34 59.53,-34.57 72,-29 80.61,-25.15 90.06,-22.05 99.44,-19.57"/>
<polygon fill="midnightblue" stroke="midnightblue" points="35.05,-48.37 29.56,-57.43 39.51,-53.78 35.05,-48.37"/>
</g>
</g>
</svg>
