<?xml version="1.0" encoding="UTF-8" standalone="no"?>
<!DOCTYPE svg PUBLIC "-//W3C//DTD SVG 1.1//EN"
 "http://www.w3.org/Graphics/SVG/1.1/DTD/svg11.dtd">
<!-- Generated by graphviz version 2.43.0 (0)
 -->
<!-- Title: Graphical Class Hierarchy Pages: 1 -->
<svg width="165pt" height="66pt"
 viewBox="0.00 0.00 165.00 66.00" xmlns="http://www.w3.org/2000/svg" xmlns:xlink="http://www.w3.org/1999/xlink">
<g id="graph0" class="graph" transform="scale(1 1) rotate(0) translate(4 62)">
<title>Graphical Class Hierarchy</title>
<polygon fill="white" stroke="transparent" points="-4,4 -4,-62 161,-62 161,4 -4,4"/>
<!-- Node0 -->
<g id="node1" class="node">
<title>Node0</title>
<g id="a_node1"><a xlink:href="class_repo.html" target="_top" xlink:title="Repo">
<polygon fill="white" stroke="black" points="0,-19.5 0,-38.5 41,-38.5 41,-19.5 0,-19.5"/>
<text text-anchor="middle" x="20.5" y="-26.5" font-family="Helvetica,sans-Serif" font-size="10.00">Repo</text>
</a>
</g>
</g>
<!-- Node1 -->
<g id="node2" class="node">
<title>Node1</title>
<g id="a_node2"><a xlink:href="class_director_repo.html" target="_top" xlink:title="DirectorRepo">
<polygon fill="white" stroke="black" points="77,-38.5 77,-57.5 157,-57.5 157,-38.5 77,-38.5"/>
<text text-anchor="middle" x="117" y="-45.5" font-family="Helvetica,sans-Serif" font-size="10.00">DirectorRepo</text>
</a>
</g>
</g>
<!-- Node0&#45;&gt;Node1 -->
<g id="edge1" class="edge">
<title>Node0&#45;&gt;Node1</title>
<path fill="none" stroke="midnightblue" d="M50.96,-34.92C59.19,-36.58 68.26,-38.4 76.95,-40.15"/>
<polygon fill="midnightblue" stroke="midnightblue" points="51.57,-31.48 41.08,-32.94 50.19,-38.34 51.57,-31.48"/>
</g>
<!-- Node2 -->
<g id="node3" class="node">
<title>Node2</title>
<g id="a_node3"><a xlink:href="class_image_repo.html" target="_top" xlink:title="ImageRepo">
<polygon fill="white" stroke="black" points="81.5,-0.5 81.5,-19.5 152.5,-19.5 152.5,-0.5 81.5,-0.5"/>
<text text-anchor="middle" x="117" y="-7.5" font-family="Helvetica,sans-Serif" font-size="10.00">ImageRepo</text>
</a>
</g>
</g>
<!-- Node0&#45;&gt;Node2 -->
<g id="edge2" class="edge">
<title>Node0&#45;&gt;Node2</title>
<path fill="none" stroke="midnightblue" d="M50.93,-23.08C60.51,-21.16 71.23,-19 81.16,-17"/>
<polygon fill="midnightblue" stroke="midnightblue" points="50.19,-19.66 41.08,-25.06 51.57,-26.52 50.19,-19.66"/>
</g>
</g>
</svg>
