<?xml version="1.0" encoding="UTF-8" standalone="no"?>
<!DOCTYPE svg PUBLIC "-//W3C//DTD SVG 1.1//EN"
 "http://www.w3.org/Graphics/SVG/1.1/DTD/svg11.dtd">
<!-- Generated by graphviz version 2.43.0 (0)
 -->
<!-- Title: data::InstallationResult Pages: 1 -->
<svg width="232pt" height="230pt"
 viewBox="0.00 0.00 232.00 230.00" xmlns="http://www.w3.org/2000/svg" xmlns:xlink="http://www.w3.org/1999/xlink">
<g id="graph0" class="graph" transform="scale(1 1) rotate(0) translate(4 226)">
<title>data::InstallationResult</title>
<polygon fill="white" stroke="transparent" points="-4,4 -4,-226 228,-226 228,4 -4,4"/>
<!-- Node1 -->
<g id="node1" class="node">
<title>Node1</title>
<polygon fill="#bfbfbf" stroke="black" points="0,-0.5 0,-19.5 129,-19.5 129,-0.5 0,-0.5"/>
<text text-anchor="middle" x="64.5" y="-7.5" font-family="Helvetica,sans-Serif" font-size="10.00">data::InstallationResult</text>
</g>
<!-- Node2 -->
<g id="node2" class="node">
<title>Node2</title>
<g id="a_node2"><a xlink:href="structdata_1_1_result_code.html" target="_top" xlink:title="data::ResultCode">
<polygon fill="white" stroke="black" points="125,-67.5 125,-86.5 224,-86.5 224,-67.5 125,-67.5"/>
<text text-anchor="middle" x="174.5" y="-74.5" font-family="Helvetica,sans-Serif" font-size="10.00">data::ResultCode</text>
</a>
</g>
</g>
<!-- Node2&#45;&gt;Node1 -->
<g id="edge1" class="edge">
<title>Node2&#45;&gt;Node1</title>
<path fill="none" stroke="#9a32cd" stroke-dasharray="5,2" d="M151,-62.12C129.21,-49.24 97.46,-30.48 79.1,-19.63"/>
<polygon fill="#9a32cd" stroke="#9a32cd" points="149.28,-65.16 159.66,-67.23 152.84,-59.13 149.28,-65.16"/>
<text text-anchor="middle" x="155.5" y="-41" font-family="Helvetica,sans-Serif" font-size="10.00"> result_code</text>
</g>
<!-- Node3 -->
<g id="node3" class="node">
<title>Node3</title>
<g id="a_node3"><a xlink:title="STL class. ">
<polygon fill="white" stroke="#bfbfbf" points="32,-134.5 32,-153.5 97,-153.5 97,-134.5 32,-134.5"/>
<text text-anchor="middle" x="64.5" y="-141.5" font-family="Helvetica,sans-Serif" font-size="10.00">std::string</text>
</a>
</g>
</g>
<!-- Node3&#45;&gt;Node1 -->
<g id="edge4" class="edge">
<title>Node3&#45;&gt;Node1</title>
<path fill="none" stroke="#9a32cd" stroke-dasharray="5,2" d="M61.58,-123.85C59.58,-108.49 57.46,-86.38 58.5,-67 59.4,-50.21 61.8,-30.7 63.28,-19.71"/>
<polygon fill="#9a32cd" stroke="#9a32cd" points="58.17,-124.71 63.03,-134.12 65.1,-123.73 58.17,-124.71"/>
<text text-anchor="middle" x="87.5" y="-74.5" font-family="Helvetica,sans-Serif" font-size="10.00"> description</text>
</g>
<!-- Node3&#45;&gt;Node2 -->
<g id="edge2" class="edge">
<title>Node3&#45;&gt;Node2</title>
<path fill="none" stroke="#9a32cd" stroke-dasharray="5,2" d="M88,-129.12C109.79,-116.24 141.54,-97.48 159.9,-86.63"/>
<polygon fill="#9a32cd" stroke="#9a32cd" points="86.16,-126.13 79.34,-134.23 89.72,-132.16 86.16,-126.13"/>
<text text-anchor="middle" x="151.5" y="-108" font-family="Helvetica,sans-Serif" font-size="10.00"> text_code</text>
</g>
<!-- Node4 -->
<g id="node4" class="node">
<title>Node4</title>
<g id="a_node4"><a xlink:title="STL class. ">
<polygon fill="white" stroke="#bfbfbf" points="12.5,-191.5 12.5,-221.5 116.5,-221.5 116.5,-191.5 12.5,-191.5"/>
<text text-anchor="start" x="20.5" y="-209.5" font-family="Helvetica,sans-Serif" font-size="10.00">std::basic_string&lt;</text>
<text text-anchor="middle" x="64.5" y="-198.5" font-family="Helvetica,sans-Serif" font-size="10.00"> char &gt;</text>
</a>
</g>
</g>
<!-- Node4&#45;&gt;Node3 -->
<g id="edge3" class="edge">
<title>Node4&#45;&gt;Node3</title>
<path fill="none" stroke="midnightblue" d="M64.5,-181.35C64.5,-171.51 64.5,-160.78 64.5,-153.54"/>
<polygon fill="midnightblue" stroke="midnightblue" points="61,-181.47 64.5,-191.47 68,-181.47 61,-181.47"/>
</g>
</g>
</svg>
