<?xml version="1.0" encoding="UTF-8" standalone="no"?>
<!DOCTYPE svg PUBLIC "-//W3C//DTD SVG 1.1//EN"
 "http://www.w3.org/Graphics/SVG/1.1/DTD/svg11.dtd">
<!-- Generated by graphviz version 2.40.1 (20161225.0304)
 -->
<!-- Title: event::DownloadProgressReport Pages: 1 -->
<svg width="305pt" height="230pt"
 viewBox="0.00 0.00 304.50 230.00" xmlns="http://www.w3.org/2000/svg" xmlns:xlink="http://www.w3.org/1999/xlink">
<g id="graph0" class="graph" transform="scale(1 1) rotate(0) translate(4 226)">
<title>event::DownloadProgressReport</title>
<polygon fill="#ffffff" stroke="transparent" points="-4,4 -4,-226 300.5,-226 300.5,4 -4,4"/>
<!-- Node2 -->
<g id="node1" class="node">
<title>Node2</title>
<polygon fill="#bfbfbf" stroke="#000000" points="69.5,-.5 69.5,-19.5 227.5,-19.5 227.5,-.5 69.5,-.5"/>
<text text-anchor="middle" x="148.5" y="-7.5" font-family="Helvetica,sans-Serif" font-size="10.00" fill="#000000">event::DownloadProgressReport</text>
</g>
<!-- Node3 -->
<g id="node2" class="node">
<title>Node3</title>
<g id="a_node2"><a xlink:href="classevent_1_1_base_event.html" target="_top" xlink:title="Base class for all event objects. ">
<polygon fill="#ffffff" stroke="#000000" points="101,-67.5 101,-86.5 196,-86.5 196,-67.5 101,-67.5"/>
<text text-anchor="middle" x="148.5" y="-74.5" font-family="Helvetica,sans-Serif" font-size="10.00" fill="#000000">event::BaseEvent</text>
</a>
</g>
</g>
<!-- Node3&#45;&gt;Node2 -->
<g id="edge1" class="edge">
<title>Node3&#45;&gt;Node2</title>
<path fill="none" stroke="#191970" d="M148.5,-57.1079C148.5,-44.714 148.5,-29.3263 148.5,-19.5817"/>
<polygon fill="#191970" stroke="#191970" points="145.0001,-57.4005 148.5,-67.4005 152.0001,-57.4006 145.0001,-57.4005"/>
</g>
<!-- Node4 -->
<g id="node3" class="node">
<title>Node4</title>
<g id="a_node3"><a xlink:title="STL class. ">
<polygon fill="#ffffff" stroke="#bfbfbf" points="17.5,-134.5 17.5,-153.5 77.5,-153.5 77.5,-134.5 17.5,-134.5"/>
<text text-anchor="middle" x="47.5" y="-141.5" font-family="Helvetica,sans-Serif" font-size="10.00" fill="#000000">std::string</text>
</a>
</g>
</g>
<!-- Node4&#45;&gt;Node2 -->
<g id="edge5" class="edge">
<title>Node4&#45;&gt;Node2</title>
<path fill="none" stroke="#9a32cd" stroke-dasharray="5,2" d="M39.6446,-124.505C34.3465,-108.0088 30.0384,-84.3507 40.5,-67 55.3883,-42.3076 84.9383,-27.764 109.37,-19.5549"/>
<polygon fill="#9a32cd" stroke="#9a32cd" points="36.4444,-125.9489 43.1239,-134.1729 43.0309,-123.5785 36.4444,-125.9489"/>
<text text-anchor="middle" x="66" y="-74.5" font-family="Helvetica,sans-Serif" font-size="10.00" fill="#000000"> description</text>
</g>
<!-- Node4&#45;&gt;Node3 -->
<g id="edge2" class="edge">
<title>Node4&#45;&gt;Node3</title>
<path fill="none" stroke="#9a32cd" stroke-dasharray="5,2" d="M70.3201,-128.8619C89.8661,-115.8957 117.4177,-97.619 134.056,-86.5817"/>
<polygon fill="#9a32cd" stroke="#9a32cd" points="68.3692,-125.9559 61.9708,-134.4005 72.2388,-131.7892 68.3692,-125.9559"/>
<text text-anchor="middle" x="121" y="-108" font-family="Helvetica,sans-Serif" font-size="10.00" fill="#000000"> variant</text>
</g>
<!-- Node5 -->
<g id="node4" class="node">
<title>Node5</title>
<g id="a_node4"><a xlink:title="STL class. ">
<polygon fill="#ffffff" stroke="#bfbfbf" points="0,-191.5 0,-221.5 95,-221.5 95,-191.5 0,-191.5"/>
<text text-anchor="start" x="8" y="-209.5" font-family="Helvetica,sans-Serif" font-size="10.00" fill="#000000">std::basic_string&lt;</text>
<text text-anchor="middle" x="47.5" y="-198.5" font-family="Helvetica,sans-Serif" font-size="10.00" fill="#000000"> char &gt;</text>
</a>
</g>
</g>
<!-- Node5&#45;&gt;Node4 -->
<g id="edge3" class="edge">
<title>Node5&#45;&gt;Node4</title>
<path fill="none" stroke="#191970" d="M47.5,-181.3498C47.5,-171.6481 47.5,-161.1303 47.5,-153.7356"/>
<polygon fill="#191970" stroke="#191970" points="44.0001,-181.3705 47.5,-191.3705 51.0001,-181.3705 44.0001,-181.3705"/>
</g>
<!-- Node6 -->
<g id="node5" class="node">
<title>Node6</title>
<g id="a_node5"><a xlink:href="class_uptane_1_1_target.html" target="_top" xlink:title="Uptane::Target">
<polygon fill="#ffffff" stroke="#000000" points="214.5,-67.5 214.5,-86.5 296.5,-86.5 296.5,-67.5 214.5,-67.5"/>
<text text-anchor="middle" x="255.5" y="-74.5" font-family="Helvetica,sans-Serif" font-size="10.00" fill="#000000">Uptane::Target</text>
</a>
</g>
</g>
<!-- Node6&#45;&gt;Node2 -->
<g id="edge4" class="edge">
<title>Node6&#45;&gt;Node2</title>
<path fill="none" stroke="#9a32cd" stroke-dasharray="5,2" d="M231.6035,-62.0368C210.8803,-49.0605 181.5082,-30.6687 163.8021,-19.5817"/>
<polygon fill="#9a32cd" stroke="#9a32cd" points="229.8365,-65.0598 240.1695,-67.4005 233.5515,-59.1269 229.8365,-65.0598"/>
<text text-anchor="middle" x="221.5" y="-41" font-family="Helvetica,sans-Serif" font-size="10.00" fill="#000000"> target</text>
</g>
</g>
</svg>
