<?xml version="1.0" encoding="UTF-8" standalone="no"?>
<!DOCTYPE svg PUBLIC "-//W3C//DTD SVG 1.1//EN"
 "http://www.w3.org/Graphics/SVG/1.1/DTD/svg11.dtd">
<!-- Generated by graphviz version 2.40.1 (20161225.0304)
 -->
<!-- Title: BaseConfig Pages: 1 -->
<svg width="320pt" height="84pt"
 viewBox="0.00 0.00 319.50 84.00" xmlns="http://www.w3.org/2000/svg" xmlns:xlink="http://www.w3.org/1999/xlink">
<g id="graph0" class="graph" transform="scale(1 1) rotate(0) translate(4 80)">
<title>BaseConfig</title>
<polygon fill="#ffffff" stroke="transparent" points="-4,4 -4,-80 315.5,-80 315.5,4 -4,4"/>
<!-- Node0 -->
<g id="node1" class="node">
<title>Node0</title>
<polygon fill="#bfbfbf" stroke="#000000" points="149,-56.5 149,-75.5 217,-75.5 217,-56.5 149,-56.5"/>
<text text-anchor="middle" x="183" y="-63.5" font-family="Helvetica,sans-Serif" font-size="10.00" fill="#000000">BaseConfig</text>
</g>
<!-- Node1 -->
<g id="node2" class="node">
<title>Node1</title>
<g id="a_node2"><a xlink:href="class_aktualizr_info_config.html" target="_top" xlink:title="AktualizrInfoConfig">
<polygon fill="#ffffff" stroke="#000000" points="0,-.5 0,-19.5 100,-19.5 100,-.5 0,-.5"/>
<text text-anchor="middle" x="50" y="-7.5" font-family="Helvetica,sans-Serif" font-size="10.00" fill="#000000">AktualizrInfoConfig</text>
</a>
</g>
</g>
<!-- Node0&#45;&gt;Node1 -->
<g id="edge1" class="edge">
<title>Node0&#45;&gt;Node1</title>
<path fill="none" stroke="#191970" d="M150.6603,-52.3833C126.4715,-42.1985 94.005,-28.5284 72.5652,-19.5011"/>
<polygon fill="#191970" stroke="#191970" points="149.5619,-55.7184 160.1365,-56.3733 152.2783,-49.2669 149.5619,-55.7184"/>
</g>
<!-- Node2 -->
<g id="node3" class="node">
<title>Node2</title>
<g id="a_node3"><a xlink:href="class_aktualizr_secondary_config.html" target="_top" xlink:title="AktualizrSecondaryConfig">
<polygon fill="#ffffff" stroke="#000000" points="118,-.5 118,-19.5 248,-19.5 248,-.5 118,-.5"/>
<text text-anchor="middle" x="183" y="-7.5" font-family="Helvetica,sans-Serif" font-size="10.00" fill="#000000">AktualizrSecondaryConfig</text>
</a>
</g>
</g>
<!-- Node0&#45;&gt;Node2 -->
<g id="edge2" class="edge">
<title>Node0&#45;&gt;Node2</title>
<path fill="none" stroke="#191970" d="M183,-46.1575C183,-37.155 183,-26.9199 183,-19.6427"/>
<polygon fill="#191970" stroke="#191970" points="179.5001,-46.2455 183,-56.2455 186.5001,-46.2456 179.5001,-46.2455"/>
</g>
<!-- Node3 -->
<g id="node4" class="node">
<title>Node3</title>
<g id="a_node4"><a xlink:href="class_config.html" target="_top" xlink:title="Configuration object for an aktualizr instance running on a primary ECU. ">
<polygon fill="#ffffff" stroke="#000000" points="266.5,-.5 266.5,-19.5 311.5,-19.5 311.5,-.5 266.5,-.5"/>
<text text-anchor="middle" x="289" y="-7.5" font-family="Helvetica,sans-Serif" font-size="10.00" fill="#000000">Config</text>
</a>
</g>
</g>
<!-- Node0&#45;&gt;Node3 -->
<g id="edge3" class="edge">
<title>Node0&#45;&gt;Node3</title>
<path fill="none" stroke="#191970" d="M210.5222,-51.46C229.4908,-41.4388 254.1727,-28.3993 270.7478,-19.6427"/>
<polygon fill="#191970" stroke="#191970" points="208.6708,-48.4796 201.4638,-56.2455 211.9407,-54.669 208.6708,-48.4796"/>
</g>
</g>
</svg>
