<?xml version="1.0" encoding="UTF-8" standalone="no"?>
<!DOCTYPE svg PUBLIC "-//W3C//DTD SVG 1.1//EN"
 "http://www.w3.org/Graphics/SVG/1.1/DTD/svg11.dtd">
<!-- Generated by graphviz version 2.40.1 (20161225.0304)
 -->
<!-- Title: Config Pages: 1 -->
<svg width="608pt" height="568pt"
 viewBox="0.00 0.00 608.00 567.88" xmlns="http://www.w3.org/2000/svg" xmlns:xlink="http://www.w3.org/1999/xlink">
<g id="graph0" class="graph" transform="scale(1 1) rotate(0) translate(4 563.8829)">
<title>Config</title>
<polygon fill="#ffffff" stroke="transparent" points="-4,4 -4,-563.8829 604,-563.8829 604,4 -4,4"/>
<!-- Node2 -->
<g id="node1" class="node">
<title>Node2</title>
<polygon fill="#bfbfbf" stroke="#000000" points="555,-217.8829 555,-236.8829 600,-236.8829 600,-217.8829 555,-217.8829"/>
<text text-anchor="middle" x="577.5" y="-224.8829" font-family="Helvetica,sans-Serif" font-size="10.00" fill="#000000">Config</text>
</g>
<!-- Node3 -->
<g id="node2" class="node">
<title>Node3</title>
<g id="a_node2"><a xlink:href="class_base_config.html" target="_top" xlink:title="BaseConfig">
<polygon fill="#ffffff" stroke="#000000" points="390,-484.8829 390,-503.8829 458,-503.8829 458,-484.8829 390,-484.8829"/>
<text text-anchor="middle" x="424" y="-491.8829" font-family="Helvetica,sans-Serif" font-size="10.00" fill="#000000">BaseConfig</text>
</a>
</g>
</g>
<!-- Node3&#45;&gt;Node2 -->
<g id="edge1" class="edge">
<title>Node3&#45;&gt;Node2</title>
<path fill="none" stroke="#191970" d="M448.8588,-479.3021C474.8612,-462.2083 514.9039,-431.9169 537,-395.3829 569.2956,-341.985 575.8472,-264.4524 577.1686,-237.255"/>
<polygon fill="#191970" stroke="#191970" points="446.831,-476.4446 440.2995,-484.7866 450.6076,-482.3384 446.831,-476.4446"/>
</g>
<!-- Node4 -->
<g id="node3" class="node">
<title>Node4</title>
<polygon fill="#ffffff" stroke="#bfbfbf" points="132,-529.3829 132,-559.3829 233,-559.3829 233,-529.3829 132,-529.3829"/>
<text text-anchor="start" x="140" y="-547.3829" font-family="Helvetica,sans-Serif" font-size="10.00" fill="#000000">std::vector&lt; boost</text>
<text text-anchor="middle" x="182.5" y="-536.3829" font-family="Helvetica,sans-Serif" font-size="10.00" fill="#000000">::filesystem::path &gt;</text>
</g>
<!-- Node4&#45;&gt;Node3 -->
<g id="edge2" class="edge">
<title>Node4&#45;&gt;Node3</title>
<path fill="none" stroke="#9a32cd" stroke-dasharray="5,2" d="M243.0589,-531.8448C289.4202,-522.2462 351.6876,-509.3544 389.7714,-501.4696"/>
<polygon fill="#9a32cd" stroke="#9a32cd" points="242.209,-528.4465 233.1263,-533.9012 243.6283,-535.3011 242.209,-528.4465"/>
<text text-anchor="middle" x="305.5" y="-532.3829" font-family="Helvetica,sans-Serif" font-size="10.00" fill="#000000"> config_dirs_</text>
</g>
<!-- Node5 -->
<g id="node4" class="node">
<title>Node5</title>
<g id="a_node4"><a xlink:href="struct_storage_config.html" target="_top" xlink:title="StorageConfig">
<polygon fill="#ffffff" stroke="#000000" points="384.5,-397.8829 384.5,-416.8829 463.5,-416.8829 463.5,-397.8829 384.5,-397.8829"/>
<text text-anchor="middle" x="424" y="-404.8829" font-family="Helvetica,sans-Serif" font-size="10.00" fill="#000000">StorageConfig</text>
</a>
</g>
</g>
<!-- Node5&#45;&gt;Node2 -->
<g id="edge3" class="edge">
<title>Node5&#45;&gt;Node2</title>
<path fill="none" stroke="#9a32cd" stroke-dasharray="5,2" d="M462.7752,-394.0534C487.1281,-383.8851 517.5086,-367.6313 537,-344.3829 564.6199,-311.4392 573.803,-258.5589 576.4989,-237.0002"/>
<polygon fill="#9a32cd" stroke="#9a32cd" points="461.4242,-390.8241 453.4354,-397.7832 464.0203,-397.3249 461.4242,-390.8241"/>
<text text-anchor="middle" x="512.5" y="-383.3829" font-family="Helvetica,sans-Serif" font-size="10.00" fill="#000000"> storage</text>
</g>
<!-- Node6 -->
<g id="node5" class="node">
<title>Node6</title>
<g id="a_node5"><a xlink:href="class_based_path.html" target="_top" xlink:title="BasedPath">
<polygon fill="#ffffff" stroke="#000000" points="150,-378.8829 150,-397.8829 215,-397.8829 215,-378.8829 150,-378.8829"/>
<text text-anchor="middle" x="182.5" y="-385.8829" font-family="Helvetica,sans-Serif" font-size="10.00" fill="#000000">BasedPath</text>
</a>
</g>
</g>
<!-- Node6&#45;&gt;Node5 -->
<g id="edge4" class="edge">
<title>Node6&#45;&gt;Node5</title>
<path fill="none" stroke="#9a32cd" stroke-dasharray="5,2" d="M214.3606,-401.4644C225.722,-405.4867 238.7432,-409.3801 251,-411.3829 296.2155,-418.7711 348.9522,-415.9375 384.2039,-412.4386"/>
<polygon fill="#9a32cd" stroke="#9a32cd" points="215.4576,-398.1383 204.8646,-397.9408 213.0224,-404.7011 215.4576,-398.1383"/>
<text text-anchor="middle" x="305.5" y="-495.3829" font-family="Helvetica,sans-Serif" font-size="10.00" fill="#000000"> uptane_public_key_path</text>
<text text-anchor="middle" x="305.5" y="-484.3829" font-family="Helvetica,sans-Serif" font-size="10.00" fill="#000000">tls_pkey_path</text>
<text text-anchor="middle" x="305.5" y="-473.3829" font-family="Helvetica,sans-Serif" font-size="10.00" fill="#000000">uptane_metadata_path</text>
<text text-anchor="middle" x="305.5" y="-462.3829" font-family="Helvetica,sans-Serif" font-size="10.00" fill="#000000">sqldb_path</text>
<text text-anchor="start" x="251" y="-451.3829" font-family="Helvetica,sans-Serif" font-size="10.00" fill="#000000">uptane_private_key</text>
<text text-anchor="middle" x="305.5" y="-440.3829" font-family="Helvetica,sans-Serif" font-size="10.00" fill="#000000">_path</text>
<text text-anchor="middle" x="305.5" y="-429.3829" font-family="Helvetica,sans-Serif" font-size="10.00" fill="#000000">tls_cacert_path</text>
<text text-anchor="middle" x="305.5" y="-418.3829" font-family="Helvetica,sans-Serif" font-size="10.00" fill="#000000">tls_clientcert_path</text>
</g>
<!-- Node16 -->
<g id="node15" class="node">
<title>Node16</title>
<g id="a_node15"><a xlink:href="struct_import_config.html" target="_top" xlink:title="ImportConfig">
<polygon fill="#ffffff" stroke="#000000" points="387.5,-333.8829 387.5,-352.8829 460.5,-352.8829 460.5,-333.8829 387.5,-333.8829"/>
<text text-anchor="middle" x="424" y="-340.8829" font-family="Helvetica,sans-Serif" font-size="10.00" fill="#000000">ImportConfig</text>
</a>
</g>
</g>
<!-- Node6&#45;&gt;Node16 -->
<g id="edge19" class="edge">
<title>Node6&#45;&gt;Node16</title>
<path fill="none" stroke="#9a32cd" stroke-dasharray="5,2" d="M200.2206,-371.7324C213.1819,-360.7534 231.7897,-347.3396 251,-341.3829 296.3289,-327.3273 351.6041,-331.3834 387.2815,-336.5487"/>
<polygon fill="#9a32cd" stroke="#9a32cd" points="197.7457,-369.2486 192.569,-378.4927 202.3805,-374.4944 197.7457,-369.2486"/>
<text text-anchor="middle" x="305.5" y="-399.3829" font-family="Helvetica,sans-Serif" font-size="10.00" fill="#000000"> uptane_public_key_path</text>
<text text-anchor="middle" x="305.5" y="-388.3829" font-family="Helvetica,sans-Serif" font-size="10.00" fill="#000000">tls_pkey_path</text>
<text text-anchor="start" x="251" y="-377.3829" font-family="Helvetica,sans-Serif" font-size="10.00" fill="#000000">uptane_private_key</text>
<text text-anchor="middle" x="305.5" y="-366.3829" font-family="Helvetica,sans-Serif" font-size="10.00" fill="#000000">_path</text>
<text text-anchor="middle" x="305.5" y="-355.3829" font-family="Helvetica,sans-Serif" font-size="10.00" fill="#000000">tls_cacert_path</text>
<text text-anchor="middle" x="305.5" y="-344.3829" font-family="Helvetica,sans-Serif" font-size="10.00" fill="#000000">tls_clientcert_path</text>
</g>
<!-- Node7 -->
<g id="node6" class="node">
<title>Node7</title>
<g id="a_node6"><a xlink:href="struct_tls_config.html" target="_top" xlink:title="TlsConfig">
<polygon fill="#ffffff" stroke="#000000" points="394.5,-294.8829 394.5,-313.8829 453.5,-313.8829 453.5,-294.8829 394.5,-294.8829"/>
<text text-anchor="middle" x="424" y="-301.8829" font-family="Helvetica,sans-Serif" font-size="10.00" fill="#000000">TlsConfig</text>
</a>
</g>
</g>
<!-- Node7&#45;&gt;Node2 -->
<g id="edge5" class="edge">
<title>Node7&#45;&gt;Node2</title>
<path fill="none" stroke="#9a32cd" stroke-dasharray="5,2" d="M463.8604,-296.1326C486.4245,-290.3187 514.5358,-281.0882 537,-267.3829 550.3295,-259.2506 562.6326,-245.9198 570.0989,-236.9052"/>
<polygon fill="#9a32cd" stroke="#9a32cd" points="462.8034,-292.788 453.9236,-298.5672 464.4692,-299.5869 462.8034,-292.788"/>
<text text-anchor="middle" x="512.5" y="-291.3829" font-family="Helvetica,sans-Serif" font-size="10.00" fill="#000000"> tls</text>
</g>
<!-- Node8 -->
<g id="node7" class="node">
<title>Node8</title>
<g id="a_node7"><a xlink:title="STL class. ">
<polygon fill="#ffffff" stroke="#bfbfbf" points="152.5,-133.8829 152.5,-152.8829 212.5,-152.8829 212.5,-133.8829 152.5,-133.8829"/>
<text text-anchor="middle" x="182.5" y="-140.8829" font-family="Helvetica,sans-Serif" font-size="10.00" fill="#000000">std::string</text>
</a>
</g>
</g>
<!-- Node8&#45;&gt;Node7 -->
<g id="edge6" class="edge">
<title>Node8&#45;&gt;Node7</title>
<path fill="none" stroke="#9a32cd" stroke-dasharray="5,2" d="M185.5428,-163.2834C191.6293,-195.5529 208.5654,-258.6713 251,-288.3829 293.622,-318.2256 357.3539,-315.1153 394.3945,-309.9114"/>
<polygon fill="#9a32cd" stroke="#9a32cd" points="188.9634,-162.5228 183.8183,-153.2611 182.0648,-163.7098 188.9634,-162.5228"/>
<text text-anchor="middle" x="305.5" y="-315.3829" font-family="Helvetica,sans-Serif" font-size="10.00" fill="#000000"> server</text>
</g>
<!-- Node11 -->
<g id="node10" class="node">
<title>Node11</title>
<g id="a_node10"><a xlink:href="struct_package_config.html" target="_top" xlink:title="PackageConfig">
<polygon fill="#ffffff" stroke="#000000" points="382.5,-255.8829 382.5,-274.8829 465.5,-274.8829 465.5,-255.8829 382.5,-255.8829"/>
<text text-anchor="middle" x="424" y="-262.8829" font-family="Helvetica,sans-Serif" font-size="10.00" fill="#000000">PackageConfig</text>
</a>
</g>
</g>
<!-- Node8&#45;&gt;Node11 -->
<g id="edge10" class="edge">
<title>Node8&#45;&gt;Node11</title>
<path fill="none" stroke="#9a32cd" stroke-dasharray="5,2" d="M189.8604,-162.6438C199.8776,-185.9927 220.1649,-224.5477 251,-243.3829 272.3807,-256.4429 338.4208,-261.8115 382.4412,-263.975"/>
<polygon fill="#9a32cd" stroke="#9a32cd" points="192.992,-161.0536 185.9796,-153.1115 186.5087,-163.6931 192.992,-161.0536"/>
<text text-anchor="middle" x="305.5" y="-276.3829" font-family="Helvetica,sans-Serif" font-size="10.00" fill="#000000"> os</text>
<text text-anchor="middle" x="305.5" y="-265.3829" font-family="Helvetica,sans-Serif" font-size="10.00" fill="#000000">ostree_server</text>
</g>
<!-- Node12 -->
<g id="node11" class="node">
<title>Node12</title>
<g id="a_node11"><a xlink:href="struct_provision_config.html" target="_top" xlink:title="ProvisionConfig">
<polygon fill="#ffffff" stroke="#000000" points="381,-217.8829 381,-236.8829 467,-236.8829 467,-217.8829 381,-217.8829"/>
<text text-anchor="middle" x="424" y="-224.8829" font-family="Helvetica,sans-Serif" font-size="10.00" fill="#000000">ProvisionConfig</text>
</a>
</g>
</g>
<!-- Node8&#45;&gt;Node12 -->
<g id="edge12" class="edge">
<title>Node8&#45;&gt;Node12</title>
<path fill="none" stroke="#9a32cd" stroke-dasharray="5,2" d="M221.3955,-131.2682C260.5157,-121.668 320.54,-114.3147 360,-144.3829 383.5025,-162.2916 358.3696,-186.2982 378,-208.3829 381.4442,-212.2577 385.8008,-215.3599 390.4529,-217.8388"/>
<polygon fill="#9a32cd" stroke="#9a32cd" points="220.4741,-127.8914 211.682,-133.8031 222.2418,-134.6645 220.4741,-127.8914"/>
<text text-anchor="middle" x="305.5" y="-235.3829" font-family="Helvetica,sans-Serif" font-size="10.00" fill="#000000"> server</text>
<text text-anchor="middle" x="305.5" y="-224.3829" font-family="Helvetica,sans-Serif" font-size="10.00" fill="#000000">p12_password</text>
<text text-anchor="start" x="256" y="-213.3829" font-family="Helvetica,sans-Serif" font-size="10.00" fill="#000000">primary_ecu_hardware</text>
<text text-anchor="middle" x="305.5" y="-202.3829" font-family="Helvetica,sans-Serif" font-size="10.00" fill="#000000">_id</text>
<text text-anchor="middle" x="305.5" y="-191.3829" font-family="Helvetica,sans-Serif" font-size="10.00" fill="#000000">expiry_days</text>
<text text-anchor="middle" x="305.5" y="-180.3829" font-family="Helvetica,sans-Serif" font-size="10.00" fill="#000000">device_id</text>
<text text-anchor="start" x="256" y="-169.3829" font-family="Helvetica,sans-Serif" font-size="10.00" fill="#000000">ecu_registration</text>
<text text-anchor="middle" x="305.5" y="-158.3829" font-family="Helvetica,sans-Serif" font-size="10.00" fill="#000000">_endpoint</text>
<text text-anchor="middle" x="305.5" y="-147.3829" font-family="Helvetica,sans-Serif" font-size="10.00" fill="#000000">primary_ecu_serial</text>
</g>
<!-- Node13 -->
<g id="node12" class="node">
<title>Node13</title>
<g id="a_node12"><a xlink:href="struct_p11_config.html" target="_top" xlink:title="P11Config">
<polygon fill="#ffffff" stroke="#000000" points="393,-179.8829 393,-198.8829 455,-198.8829 455,-179.8829 393,-179.8829"/>
<text text-anchor="middle" x="424" y="-186.8829" font-family="Helvetica,sans-Serif" font-size="10.00" fill="#000000">P11Config</text>
</a>
</g>
</g>
<!-- Node8&#45;&gt;Node13 -->
<g id="edge14" class="edge">
<title>Node8&#45;&gt;Node13</title>
<path fill="none" stroke="#9a32cd" stroke-dasharray="5,2" d="M192.5916,-124.8871C203.9859,-106.1556 224.4501,-78.2991 251,-66.3829 295.197,-46.5462 322.9386,-35.1849 360,-66.3829 395.8871,-96.5923 348.6777,-133.7673 378,-170.3829 381.8888,-175.2389 387.2288,-178.8663 392.8961,-181.5721"/>
<polygon fill="#9a32cd" stroke="#9a32cd" points="189.4601,-123.3105 187.4757,-133.7179 195.5171,-126.8195 189.4601,-123.3105"/>
<text text-anchor="middle" x="305.5" y="-113.3829" font-family="Helvetica,sans-Serif" font-size="10.00" fill="#000000"> tls_pkey_id</text>
<text text-anchor="middle" x="305.5" y="-102.3829" font-family="Helvetica,sans-Serif" font-size="10.00" fill="#000000">tls_clientcert_id</text>
<text text-anchor="middle" x="305.5" y="-91.3829" font-family="Helvetica,sans-Serif" font-size="10.00" fill="#000000">pass</text>
<text text-anchor="middle" x="305.5" y="-80.3829" font-family="Helvetica,sans-Serif" font-size="10.00" fill="#000000">uptane_key_id</text>
<text text-anchor="middle" x="305.5" y="-69.3829" font-family="Helvetica,sans-Serif" font-size="10.00" fill="#000000">tls_cacert_id</text>
</g>
<!-- Node14 -->
<g id="node13" class="node">
<title>Node14</title>
<g id="a_node13"><a xlink:href="struct_uptane_config.html" target="_top" xlink:title="UptaneConfig">
<polygon fill="#ffffff" stroke="#000000" points="385.5,-141.8829 385.5,-160.8829 462.5,-160.8829 462.5,-141.8829 385.5,-141.8829"/>
<text text-anchor="middle" x="424" y="-148.8829" font-family="Helvetica,sans-Serif" font-size="10.00" fill="#000000">UptaneConfig</text>
</a>
</g>
</g>
<!-- Node8&#45;&gt;Node14 -->
<g id="edge16" class="edge">
<title>Node8&#45;&gt;Node14</title>
<path fill="none" stroke="#9a32cd" stroke-dasharray="5,2" d="M186.926,-123.8125C194.5296,-95.3707 213.0613,-43.591 251,-21.3829 292.8082,3.0904 323.1047,10.0114 360,-21.3829 398.0631,-53.7708 346.9673,-93.207 378,-132.3829 381.0045,-136.1758 384.8957,-139.2184 389.1419,-141.6576"/>
<polygon fill="#9a32cd" stroke="#9a32cd" points="183.4638,-123.2332 184.4559,-133.7814 190.2583,-124.9168 183.4638,-123.2332"/>
<text text-anchor="middle" x="305.5" y="-35.3829" font-family="Helvetica,sans-Serif" font-size="10.00" fill="#000000"> repo_server</text>
<text text-anchor="middle" x="305.5" y="-24.3829" font-family="Helvetica,sans-Serif" font-size="10.00" fill="#000000">director_server</text>
</g>
<!-- Node9 -->
<g id="node8" class="node">
<title>Node9</title>
<g id="a_node8"><a xlink:title="STL class. ">
<polygon fill="#ffffff" stroke="#bfbfbf" points="0,-128.3829 0,-158.3829 95,-158.3829 95,-128.3829 0,-128.3829"/>
<text text-anchor="start" x="8" y="-146.3829" font-family="Helvetica,sans-Serif" font-size="10.00" fill="#000000">std::basic_string&lt;</text>
<text text-anchor="middle" x="47.5" y="-135.3829" font-family="Helvetica,sans-Serif" font-size="10.00" fill="#000000"> char &gt;</text>
</a>
</g>
</g>
<!-- Node9&#45;&gt;Node8 -->
<g id="edge7" class="edge">
<title>Node9&#45;&gt;Node8</title>
<path fill="none" stroke="#191970" d="M105.5104,-143.3829C121.5786,-143.3829 138.3787,-143.3829 152.1705,-143.3829"/>
<polygon fill="#191970" stroke="#191970" points="105.096,-139.883 95.0959,-143.3829 105.0959,-146.883 105.096,-139.883"/>
</g>
<!-- Node10 -->
<g id="node9" class="node">
<title>Node10</title>
<g id="a_node9"><a xlink:href="struct_logger_config.html" target="_top" xlink:title="LoggerConfig">
<polygon fill="#ffffff" stroke="#000000" points="387,-103.8829 387,-122.8829 461,-122.8829 461,-103.8829 387,-103.8829"/>
<text text-anchor="middle" x="424" y="-110.8829" font-family="Helvetica,sans-Serif" font-size="10.00" fill="#000000">LoggerConfig</text>
</a>
</g>
</g>
<!-- Node10&#45;&gt;Node2 -->
<g id="edge8" class="edge">
<title>Node10&#45;&gt;Node2</title>
<path fill="none" stroke="#9a32cd" stroke-dasharray="5,2" d="M470.9452,-119.8489C492.987,-124.8661 518.4298,-133.7367 537,-149.3829 558.9372,-167.8659 570.496,-201.2679 575.0889,-217.7086"/>
<polygon fill="#9a32cd" stroke="#9a32cd" points="471.5968,-116.4096 461.0942,-117.8043 470.1742,-123.2635 471.5968,-116.4096"/>
<text text-anchor="middle" x="512.5" y="-152.3829" font-family="Helvetica,sans-Serif" font-size="10.00" fill="#000000"> logger</text>
</g>
<!-- Node11&#45;&gt;Node2 -->
<g id="edge9" class="edge">
<title>Node11&#45;&gt;Node2</title>
<path fill="none" stroke="#9a32cd" stroke-dasharray="5,2" d="M475.4924,-255.8432C494.9002,-251.8829 517.0893,-246.9158 537,-241.3829 542.8777,-239.7495 549.1453,-237.7262 554.9499,-235.7302"/>
<polygon fill="#9a32cd" stroke="#9a32cd" points="474.7414,-252.424 465.6237,-257.8201 476.1164,-259.2877 474.7414,-252.424"/>
<text text-anchor="middle" x="512.5" y="-255.3829" font-family="Helvetica,sans-Serif" font-size="10.00" fill="#000000"> pacman</text>
</g>
<!-- Node12&#45;&gt;Node2 -->
<g id="edge11" class="edge">
<title>Node12&#45;&gt;Node2</title>
<path fill="none" stroke="#9a32cd" stroke-dasharray="5,2" d="M477.4895,-227.3829C504.0403,-227.3829 534.6925,-227.3829 554.991,-227.3829"/>
<polygon fill="#9a32cd" stroke="#9a32cd" points="477.1668,-223.883 467.1668,-227.3829 477.1668,-230.883 477.1668,-223.883"/>
<text text-anchor="middle" x="512.5" y="-230.3829" font-family="Helvetica,sans-Serif" font-size="10.00" fill="#000000"> provision</text>
</g>
<!-- Node13&#45;&gt;Node2 -->
<g id="edge13" class="edge">
<title>Node13&#45;&gt;Node2</title>
<path fill="none" stroke="#9a32cd" stroke-dasharray="5,2" d="M464.8524,-196.1291C486.4895,-200.0951 513.3985,-205.6536 537,-212.3829 542.9127,-214.0687 549.1929,-216.2136 554.9985,-218.3504"/>
<polygon fill="#9a32cd" stroke="#9a32cd" points="465.4633,-192.6829 455.003,-194.3664 464.23,-199.5734 465.4633,-192.6829"/>
<text text-anchor="middle" x="512.5" y="-215.3829" font-family="Helvetica,sans-Serif" font-size="10.00" fill="#000000"> p11</text>
</g>
<!-- Node14&#45;&gt;Node2 -->
<g id="edge15" class="edge">
<title>Node14&#45;&gt;Node2</title>
<path fill="none" stroke="#9a32cd" stroke-dasharray="5,2" d="M472.6044,-160.2476C493.4574,-165.4687 517.4629,-173.4603 537,-185.3829 550.8346,-193.8255 563.1963,-208.1211 570.522,-217.6555"/>
<polygon fill="#9a32cd" stroke="#9a32cd" points="473.1903,-156.7898 462.654,-157.902 471.5842,-163.6031 473.1903,-156.7898"/>
<text text-anchor="middle" x="512.5" y="-188.3829" font-family="Helvetica,sans-Serif" font-size="10.00" fill="#000000"> uptane</text>
</g>
<!-- Node15 -->
<g id="node14" class="node">
<title>Node15</title>
<g id="a_node14"><a xlink:href="struct_telemetry_config.html" target="_top" xlink:title="TelemetryConfig">
<polygon fill="#ffffff" stroke="#000000" points="379.5,-65.8829 379.5,-84.8829 468.5,-84.8829 468.5,-65.8829 379.5,-65.8829"/>
<text text-anchor="middle" x="424" y="-72.8829" font-family="Helvetica,sans-Serif" font-size="10.00" fill="#000000">TelemetryConfig</text>
</a>
</g>
</g>
<!-- Node15&#45;&gt;Node2 -->
<g id="edge17" class="edge">
<title>Node15&#45;&gt;Node2</title>
<path fill="none" stroke="#9a32cd" stroke-dasharray="5,2" d="M478.4836,-81.6806C499.0586,-86.5508 521.2724,-95.1641 537,-110.3829 568.0487,-140.4271 575.3083,-195.4195 576.9945,-217.6623"/>
<polygon fill="#9a32cd" stroke="#9a32cd" points="479.0585,-78.2248 468.5504,-79.578 477.6088,-85.0731 479.0585,-78.2248"/>
<text text-anchor="middle" x="512.5" y="-113.3829" font-family="Helvetica,sans-Serif" font-size="10.00" fill="#000000"> telemetry</text>
</g>
<!-- Node16&#45;&gt;Node2 -->
<g id="edge18" class="edge">
<title>Node16&#45;&gt;Node2</title>
<path fill="none" stroke="#9a32cd" stroke-dasharray="5,2" d="M470.432,-335.1289C492.5782,-329.2857 518.2613,-319.5121 537,-303.3829 558.1898,-285.1439 570.0328,-252.9985 574.8775,-236.9951"/>
<polygon fill="#9a32cd" stroke="#9a32cd" points="469.4264,-331.7715 460.5433,-337.5457 471.0884,-338.5714 469.4264,-331.7715"/>
<text text-anchor="middle" x="512.5" y="-332.3829" font-family="Helvetica,sans-Serif" font-size="10.00" fill="#000000"> import</text>
</g>
<!-- Node17 -->
<g id="node16" class="node">
<title>Node17</title>
<g id="a_node16"><a xlink:href="struct_bootloader_config.html" target="_top" xlink:title="BootloaderConfig">
<polygon fill="#ffffff" stroke="#000000" points="378,-27.8829 378,-46.8829 470,-46.8829 470,-27.8829 378,-27.8829"/>
<text text-anchor="middle" x="424" y="-34.8829" font-family="Helvetica,sans-Serif" font-size="10.00" fill="#000000">BootloaderConfig</text>
</a>
</g>
</g>
<!-- Node17&#45;&gt;Node2 -->
<g id="edge20" class="edge">
<title>Node17&#45;&gt;Node2</title>
<path fill="none" stroke="#9a32cd" stroke-dasharray="5,2" d="M480.0706,-42.2155C500.4398,-46.6742 522.0904,-54.9933 537,-70.3829 557.9579,-92.0153 572.1779,-187.1913 576.2797,-217.8386"/>
<polygon fill="#9a32cd" stroke="#9a32cd" points="480.6897,-38.7705 470.2092,-40.3227 479.3702,-45.645 480.6897,-38.7705"/>
<text text-anchor="middle" x="512.5" y="-73.3829" font-family="Helvetica,sans-Serif" font-size="10.00" fill="#000000"> bootloader</text>
</g>
</g>
</svg>
