<?xml version="1.0" encoding="UTF-8" standalone="no"?>
<!DOCTYPE svg PUBLIC "-//W3C//DTD SVG 1.1//EN"
 "http://www.w3.org/Graphics/SVG/1.1/DTD/svg11.dtd">
<!-- Generated by graphviz version 2.40.1 (20161225.0304)
 -->
<!-- Title: Uptane::RepositoryCommon Pages: 1 -->
<svg width="296pt" height="84pt"
 viewBox="0.00 0.00 296.00 84.00" xmlns="http://www.w3.org/2000/svg" xmlns:xlink="http://www.w3.org/1999/xlink">
<g id="graph0" class="graph" transform="scale(1 1) rotate(0) translate(4 80)">
<title>Uptane::RepositoryCommon</title>
<polygon fill="#ffffff" stroke="transparent" points="-4,4 -4,-80 292,-80 292,4 -4,4"/>
<!-- Node0 -->
<g id="node1" class="node">
<title>Node0</title>
<polygon fill="#bfbfbf" stroke="#000000" points="73.5,-56.5 73.5,-75.5 214.5,-75.5 214.5,-56.5 73.5,-56.5"/>
<text text-anchor="middle" x="144" y="-63.5" font-family="Helvetica,sans-Serif" font-size="10.00" fill="#000000">Uptane::RepositoryCommon</text>
</g>
<!-- Node1 -->
<g id="node2" class="node">
<title>Node1</title>
<g id="a_node2"><a xlink:href="class_uptane_1_1_director_repository.html" target="_top" xlink:title="Uptane::DirectorRepository">
<polygon fill="#ffffff" stroke="#000000" points="0,-.5 0,-19.5 136,-19.5 136,-.5 0,-.5"/>
<text text-anchor="middle" x="68" y="-7.5" font-family="Helvetica,sans-Serif" font-size="10.00" fill="#000000">Uptane::DirectorRepository</text>
</a>
</g>
</g>
<!-- Node0&#45;&gt;Node1 -->
<g id="edge1" class="edge">
<title>Node0&#45;&gt;Node1</title>
<path fill="none" stroke="#191970" d="M122.5703,-50.2097C109.2223,-40.3743 92.4821,-28.0394 81.0865,-19.6427"/>
<polygon fill="#191970" stroke="#191970" points="120.635,-53.1312 130.7618,-56.2455 124.7874,-47.4958 120.635,-53.1312"/>
</g>
<!-- Node2 -->
<g id="node3" class="node">
<title>Node2</title>
<g id="a_node3"><a xlink:href="class_uptane_1_1_images_repository.html" target="_top" xlink:title="Uptane::ImagesRepository">
<polygon fill="#ffffff" stroke="#000000" points="154,-.5 154,-19.5 288,-19.5 288,-.5 154,-.5"/>
<text text-anchor="middle" x="221" y="-7.5" font-family="Helvetica,sans-Serif" font-size="10.00" fill="#000000">Uptane::ImagesRepository</text>
</a>
</g>
</g>
<!-- Node0&#45;&gt;Node2 -->
<g id="edge2" class="edge">
<title>Node0&#45;&gt;Node2</title>
<path fill="none" stroke="#191970" d="M165.7116,-50.2097C179.2353,-40.3743 196.1958,-28.0394 207.7413,-19.6427"/>
<polygon fill="#191970" stroke="#191970" points="163.4411,-47.5332 157.4124,-56.2455 167.5584,-53.1944 163.4411,-47.5332"/>
</g>
</g>
</svg>
