<?xml version="1.0" encoding="UTF-8" standalone="no"?>
<!DOCTYPE svg PUBLIC "-//W3C//DTD SVG 1.1//EN"
 "http://www.w3.org/Graphics/SVG/1.1/DTD/svg11.dtd">
<!-- Generated by graphviz version 2.40.1 (20161225.0304)
 -->
<!-- Title: Uptane::SecondaryInterface Pages: 1 -->
<svg width="308pt" height="142pt"
 viewBox="0.00 0.00 308.00 142.00" xmlns="http://www.w3.org/2000/svg" xmlns:xlink="http://www.w3.org/1999/xlink">
<g id="graph0" class="graph" transform="scale(1 1) rotate(0) translate(4 138)">
<title>Uptane::SecondaryInterface</title>
<polygon fill="#ffffff" stroke="transparent" points="-4,4 -4,-138 304,-138 304,4 -4,4"/>
<!-- Node0 -->
<g id="node1" class="node">
<title>Node0</title>
<polygon fill="#bfbfbf" stroke="#000000" points="0,-57.5 0,-76.5 139,-76.5 139,-57.5 0,-57.5"/>
<text text-anchor="middle" x="69.5" y="-64.5" font-family="Helvetica,sans-Serif" font-size="10.00" fill="#000000">Uptane::SecondaryInterface</text>
</g>
<!-- Node1 -->
<g id="node2" class="node">
<title>Node1</title>
<g id="a_node2"><a xlink:href="class_secondary_adapter.html" target="_top" xlink:title="SecondaryAdapter">
<polygon fill="#ffffff" stroke="#000000" points="189,-114.5 189,-133.5 286,-133.5 286,-114.5 189,-114.5"/>
<text text-anchor="middle" x="237.5" y="-121.5" font-family="Helvetica,sans-Serif" font-size="10.00" fill="#000000">SecondaryAdapter</text>
</a>
</g>
</g>
<!-- Node0&#45;&gt;Node1 -->
<g id="edge1" class="edge">
<title>Node0&#45;&gt;Node1</title>
<path fill="none" stroke="#191970" d="M104.4896,-80.1052C124.9551,-87.6444 151.3408,-97.1485 175,-105 184.6874,-108.2148 195.2881,-111.5176 204.9626,-114.4491"/>
<polygon fill="#191970" stroke="#191970" points="105.5495,-76.7656 94.9563,-76.5779 103.1204,-83.3306 105.5495,-76.7656"/>
</g>
<!-- Node2 -->
<g id="node3" class="node">
<title>Node2</title>
<g id="a_node3"><a xlink:href="class_secondary_interface_mock.html" target="_top" xlink:title="SecondaryInterfaceMock">
<polygon fill="#ffffff" stroke="#000000" points="175,-76.5 175,-95.5 300,-95.5 300,-76.5 175,-76.5"/>
<text text-anchor="middle" x="237.5" y="-83.5" font-family="Helvetica,sans-Serif" font-size="10.00" fill="#000000">SecondaryInterfaceMock</text>
</a>
</g>
</g>
<!-- Node0&#45;&gt;Node2 -->
<g id="edge2" class="edge">
<title>Node0&#45;&gt;Node2</title>
<path fill="none" stroke="#191970" d="M149.3222,-76.0275C157.9115,-76.9989 166.5591,-77.9769 174.9047,-78.9208"/>
<polygon fill="#191970" stroke="#191970" points="149.6176,-72.5387 139.2876,-74.8926 148.8309,-79.4944 149.6176,-72.5387"/>
</g>
<!-- Node3 -->
<g id="node4" class="node">
<title>Node3</title>
<g id="a_node4"><a xlink:href="class_short_circuit_secondary.html" target="_top" xlink:title="ShortCircuitSecondary">
<polygon fill="#ffffff" stroke="#000000" points="180,-38.5 180,-57.5 295,-57.5 295,-38.5 180,-38.5"/>
<text text-anchor="middle" x="237.5" y="-45.5" font-family="Helvetica,sans-Serif" font-size="10.00" fill="#000000">ShortCircuitSecondary</text>
</a>
</g>
</g>
<!-- Node0&#45;&gt;Node3 -->
<g id="edge3" class="edge">
<title>Node0&#45;&gt;Node3</title>
<path fill="none" stroke="#191970" d="M149.5018,-57.9522C159.7654,-56.7914 170.1088,-55.6216 179.9171,-54.5123"/>
<polygon fill="#191970" stroke="#191970" points="148.8309,-54.5056 139.2876,-59.1074 149.6176,-61.4613 148.8309,-54.5056"/>
</g>
<!-- Node4 -->
<g id="node5" class="node">
<title>Node4</title>
<g id="a_node5"><a xlink:href="class_uptane_1_1_iso_tp_secondary.html" target="_top" xlink:title="Uptane::IsoTpSecondary">
<polygon fill="#ffffff" stroke="#000000" points="175,-.5 175,-19.5 300,-19.5 300,-.5 175,-.5"/>
<text text-anchor="middle" x="237.5" y="-7.5" font-family="Helvetica,sans-Serif" font-size="10.00" fill="#000000">Uptane::IsoTpSecondary</text>
</a>
</g>
</g>
<!-- Node0&#45;&gt;Node4 -->
<g id="edge4" class="edge">
<title>Node0&#45;&gt;Node4</title>
<path fill="none" stroke="#191970" d="M104.4896,-53.8948C124.9551,-46.3556 151.3408,-36.8515 175,-29 184.6874,-25.7852 195.2881,-22.4824 204.9626,-19.5509"/>
<polygon fill="#191970" stroke="#191970" points="103.1204,-50.6694 94.9563,-57.4221 105.5495,-57.2344 103.1204,-50.6694"/>
</g>
</g>
</svg>
