<?xml version="1.0" encoding="UTF-8" standalone="no"?>
<!DOCTYPE svg PUBLIC "-//W3C//DTD SVG 1.1//EN"
 "http://www.w3.org/Graphics/SVG/1.1/DTD/svg11.dtd">
<!-- Generated by graphviz version 2.40.1 (20161225.0304)
 -->
<!-- Title: src Pages: 1 -->
<svg width="946pt" height="148pt"
 viewBox="0.00 0.00 946.00 148.00" xmlns="http://www.w3.org/2000/svg" xmlns:xlink="http://www.w3.org/1999/xlink">
<g id="graph0" class="graph" transform="scale(1 1) rotate(0) translate(4 144)">
<title>src</title>
<polygon fill="#ffffff" stroke="transparent" points="-4,4 -4,-144 942,-144 942,4 -4,4"/>
<g id="clust1" class="cluster">
<title>clusterdir_68267d1309a1af8e8297ef4c3efbcdba</title>
<g id="a_clust1"><a xlink:href="dir_68267d1309a1af8e8297ef4c3efbcdba.html" target="_top">
<polygon fill="#eeeeff" stroke="#000000" points="8,-8 8,-132 930,-132 930,-8 8,-8"/>
</a>
</g>
</g>
<!-- dir_68267d1309a1af8e8297ef4c3efbcdba -->
<g id="node1" class="node">
<title>dir_68267d1309a1af8e8297ef4c3efbcdba</title>
<text text-anchor="middle" x="895" y="-103.5" font-family="Helvetica,sans-Serif" font-size="10.00" fill="#000000">src</text>
</g>
<!-- dir_b4ab7baa9a72fa869f9ae99b22d05745 -->
<g id="node2" class="node">
<title>dir_b4ab7baa9a72fa869f9ae99b22d05745</title>
<g id="a_node2"><a xlink:href="dir_b4ab7baa9a72fa869f9ae99b22d05745.html" target="_top" xlink:title="aktualizr_info">
<polygon fill="#ffffff" stroke="#000000" points="850,-124 776,-124 776,-88 850,-88 850,-124"/>
<text text-anchor="middle" x="813" y="-103.5" font-family="Helvetica,sans-Serif" font-size="10.00" fill="#000000">aktualizr_info</text>
</a>
</g>
</g>
<!-- dir_a1c365666047c910e07f82ea3785a0e3 -->
<g id="node3" class="node">
<title>dir_a1c365666047c910e07f82ea3785a0e3</title>
<g id="a_node3"><a xlink:href="dir_a1c365666047c910e07f82ea3785a0e3.html" target="_top" xlink:title="aktualizr_primary">
<polygon fill="#ffffff" stroke="#000000" points="757.5,-124 666.5,-124 666.5,-88 757.5,-88 757.5,-124"/>
<text text-anchor="middle" x="712" y="-103.5" font-family="Helvetica,sans-Serif" font-size="10.00" fill="#000000">aktualizr_primary</text>
</a>
</g>
</g>
<!-- dir_65d4fe4106ac0c1f9b9f18be7cf87b87 -->
<g id="node4" class="node">
<title>dir_65d4fe4106ac0c1f9b9f18be7cf87b87</title>
<g id="a_node4"><a xlink:href="dir_65d4fe4106ac0c1f9b9f18be7cf87b87.html" target="_top" xlink:title="aktualizr_repo">
<polygon fill="#ffffff" stroke="#000000" points="648.5,-124 571.5,-124 571.5,-88 648.5,-88 648.5,-124"/>
<text text-anchor="middle" x="610" y="-103.5" font-family="Helvetica,sans-Serif" font-size="10.00" fill="#000000">aktualizr_repo</text>
</a>
</g>
</g>
<!-- dir_a0345981ec4afd73d92f143a325145ef -->
<g id="node5" class="node">
<title>dir_a0345981ec4afd73d92f143a325145ef</title>
<g id="a_node5"><a xlink:href="dir_a0345981ec4afd73d92f143a325145ef.html" target="_top" xlink:title="aktualizr_secondary">
<polygon fill="#ffffff" stroke="#000000" points="553,-124 449,-124 449,-88 553,-88 553,-124"/>
<text text-anchor="middle" x="501" y="-103.5" font-family="Helvetica,sans-Serif" font-size="10.00" fill="#000000">aktualizr_secondary</text>
</a>
</g>
</g>
<!-- dir_25fe10002fe19a6f872ae0406361d164 -->
<g id="node8" class="node">
<title>dir_25fe10002fe19a6f872ae0406361d164</title>
<g id="a_node8"><a xlink:href="dir_25fe10002fe19a6f872ae0406361d164.html" target="_top" xlink:title="libaktualizr">
<polygon fill="#ffffff" stroke="#ff0000" points="158.5,-52 95.5,-52 95.5,-16 158.5,-16 158.5,-52"/>
<text text-anchor="middle" x="127" y="-31.5" font-family="Helvetica,sans-Serif" font-size="10.00" fill="#000000">libaktualizr</text>
</a>
</g>
</g>
<!-- dir_a0345981ec4afd73d92f143a325145ef&#45;&gt;dir_25fe10002fe19a6f872ae0406361d164 -->
<g id="edge1" class="edge">
<title>dir_a0345981ec4afd73d92f143a325145ef&#45;&gt;dir_25fe10002fe19a6f872ae0406361d164</title>
<path fill="none" stroke="#000000" d="M448.8625,-90.1823C445.8731,-89.4104 442.9035,-88.6764 440,-88 343.9937,-65.6331 229.4421,-48.172 169.0616,-39.672"/>
<polygon fill="#000000" stroke="#000000" points="169.1749,-36.1539 158.7873,-38.2387 168.2078,-43.0868 169.1749,-36.1539"/>
<g id="a_edge1&#45;headlabel"><a xlink:href="dir_000004_000008.html" target="_top" xlink:title="1">
<text text-anchor="middle" x="173.1273" y="-31.3385" font-family="Helvetica,sans-Serif" font-size="10.00" fill="#000000">1</text>
</a>
</g>
</g>
<!-- dir_1f4a50f8f1fe2f3e2e3e79b978626114 -->
<g id="node6" class="node">
<title>dir_1f4a50f8f1fe2f3e2e3e79b978626114</title>
<g id="a_node6"><a xlink:href="dir_1f4a50f8f1fe2f3e2e3e79b978626114.html" target="_top" xlink:title="cert_provider">
<polygon fill="#ffffff" stroke="#000000" points="430.5,-124 357.5,-124 357.5,-88 430.5,-88 430.5,-124"/>
<text text-anchor="middle" x="394" y="-103.5" font-family="Helvetica,sans-Serif" font-size="10.00" fill="#000000">cert_provider</text>
</a>
</g>
</g>
<!-- dir_d46ab523f2dd12b449955baa1bd4c4d6 -->
<g id="node7" class="node">
<title>dir_d46ab523f2dd12b449955baa1bd4c4d6</title>
<g id="a_node7"><a xlink:href="dir_d46ab523f2dd12b449955baa1bd4c4d6.html" target="_top" xlink:title="hmi_stub">
<polygon fill="#ffffff" stroke="#000000" points="339,-124 283,-124 283,-88 339,-88 339,-124"/>
<text text-anchor="middle" x="311" y="-103.5" font-family="Helvetica,sans-Serif" font-size="10.00" fill="#000000">hmi_stub</text>
</a>
</g>
</g>
<!-- dir_4d83f6f3df02246e3e673d37b1fa988b -->
<g id="node9" class="node">
<title>dir_4d83f6f3df02246e3e673d37b1fa988b</title>
<g id="a_node9"><a xlink:href="dir_4d83f6f3df02246e3e673d37b1fa988b.html" target="_top" xlink:title="libaktualizr&#45;posix">
<polygon fill="#ffffff" stroke="#ff0000" points="265.5,-124 176.5,-124 176.5,-88 265.5,-88 265.5,-124"/>
<text text-anchor="middle" x="221" y="-103.5" font-family="Helvetica,sans-Serif" font-size="10.00" fill="#000000">libaktualizr&#45;posix</text>
</a>
</g>
</g>
<!-- dir_32bfa720d5faedcc76f8e32c775d43dc -->
<g id="node10" class="node">
<title>dir_32bfa720d5faedcc76f8e32c775d43dc</title>
<g id="a_node10"><a xlink:href="dir_32bfa720d5faedcc76f8e32c775d43dc.html" target="_top" xlink:title="load_tests">
<polygon fill="#ffffff" stroke="#000000" points="158,-124 96,-124 96,-88 158,-88 158,-124"/>
<text text-anchor="middle" x="127" y="-103.5" font-family="Helvetica,sans-Serif" font-size="10.00" fill="#000000">load_tests</text>
</a>
</g>
</g>
<!-- dir_32bfa720d5faedcc76f8e32c775d43dc&#45;&gt;dir_25fe10002fe19a6f872ae0406361d164 -->
<g id="edge2" class="edge">
<title>dir_32bfa720d5faedcc76f8e32c775d43dc&#45;&gt;dir_25fe10002fe19a6f872ae0406361d164</title>
<path fill="none" stroke="#000000" d="M127,-87.8314C127,-80.131 127,-70.9743 127,-62.4166"/>
<polygon fill="#000000" stroke="#000000" points="130.5001,-62.4132 127,-52.4133 123.5001,-62.4133 130.5001,-62.4132"/>
<g id="a_edge2&#45;headlabel"><a xlink:href="dir_000007_000008.html" target="_top" xlink:title="2">
<text text-anchor="middle" x="133.3393" y="-63.5079" font-family="Helvetica,sans-Serif" font-size="10.00" fill="#000000">2</text>
</a>
</g>
</g>
<!-- dir_b7cd886a5e99df99c476fe0c3ded0563 -->
<g id="node11" class="node">
<title>dir_b7cd886a5e99df99c476fe0c3ded0563</title>
<g id="a_node11"><a xlink:href="dir_b7cd886a5e99df99c476fe0c3ded0563.html" target="_top" xlink:title="sota_tools">
<polygon fill="#ffffff" stroke="#000000" points="78,-124 16,-124 16,-88 78,-88 78,-124"/>
<text text-anchor="middle" x="47" y="-103.5" font-family="Helvetica,sans-Serif" font-size="10.00" fill="#000000">sota_tools</text>
</a>
</g>
</g>
<!-- dir_b7cd886a5e99df99c476fe0c3ded0563&#45;&gt;dir_25fe10002fe19a6f872ae0406361d164 -->
<g id="edge3" class="edge">
<title>dir_b7cd886a5e99df99c476fe0c3ded0563&#45;&gt;dir_25fe10002fe19a6f872ae0406361d164</title>
<path fill="none" stroke="#000000" d="M67.1874,-87.8314C76.8514,-79.1337 88.5796,-68.5783 99.0816,-59.1265"/>
<polygon fill="#000000" stroke="#000000" points="101.7275,-61.454 106.8191,-52.1628 97.0447,-56.251 101.7275,-61.454"/>
<g id="a_edge3&#45;headlabel"><a xlink:href="dir_000024_000008.html" target="_top" xlink:title="2">
<text text-anchor="middle" x="100.955" y="-63.4691" font-family="Helvetica,sans-Serif" font-size="10.00" fill="#000000">2</text>
</a>
</g>
</g>
</g>
</svg>
