<?xml version="1.0" encoding="UTF-8" standalone="no"?>
<!DOCTYPE svg PUBLIC "-//W3C//DTD SVG 1.1//EN"
 "http://www.w3.org/Graphics/SVG/1.1/DTD/svg11.dtd">
<!-- Generated by graphviz version 2.40.1 (20161225.0304)
 -->
<!-- Title: Graphical Class Hierarchy Pages: 1 -->
<svg width="340pt" height="560pt"
 viewBox="0.00 0.00 340.00 560.00" xmlns="http://www.w3.org/2000/svg" xmlns:xlink="http://www.w3.org/1999/xlink">
<g id="graph0" class="graph" transform="scale(1 1) rotate(0) translate(4 556)">
<title>Graphical Class Hierarchy</title>
<polygon fill="#ffffff" stroke="transparent" points="-4,4 -4,-556 336,-556 336,4 -4,4"/>
<!-- Node0 -->
<g id="node1" class="node">
<title>Node0</title>
<g id="a_node1"><a xlink:href="class_http_interface.html" target="_top" xlink:title="HttpInterface">
<polygon fill="#ffffff" stroke="#000000" points="0,-285.5 0,-304.5 74,-304.5 74,-285.5 0,-285.5"/>
<text text-anchor="middle" x="37" y="-292.5" font-family="Helvetica,sans-Serif" font-size="10.00" fill="#000000">HttpInterface</text>
</a>
</g>
</g>
<!-- Node1 -->
<g id="node2" class="node">
<title>Node1</title>
<g id="a_node2"><a xlink:href="class_http_client.html" target="_top" xlink:title="HttpClient">
<polygon fill="#ffffff" stroke="#000000" points="110,-304.5 110,-323.5 171,-323.5 171,-304.5 110,-304.5"/>
<text text-anchor="middle" x="140.5" y="-311.5" font-family="Helvetica,sans-Serif" font-size="10.00" fill="#000000">HttpClient</text>
</a>
</g>
</g>
<!-- Node0&#45;&gt;Node1 -->
<g id="edge1" class="edge">
<title>Node0&#45;&gt;Node1</title>
<path fill="none" stroke="#191970" d="M84.1595,-303.6573C92.8707,-305.2565 101.7567,-306.8877 109.8197,-308.3679"/>
<polygon fill="#191970" stroke="#191970" points="84.5412,-300.169 74.0735,-301.8058 83.2772,-307.0539 84.5412,-300.169"/>
</g>
<!-- Node2 -->
<g id="node3" class="node">
<title>Node2</title>
<g id="a_node3"><a xlink:href="class_http_fake.html" target="_top" xlink:title="HttpFake">
<polygon fill="#ffffff" stroke="#000000" points="112,-266.5 112,-285.5 169,-285.5 169,-266.5 112,-266.5"/>
<text text-anchor="middle" x="140.5" y="-273.5" font-family="Helvetica,sans-Serif" font-size="10.00" fill="#000000">HttpFake</text>
</a>
</g>
</g>
<!-- Node0&#45;&gt;Node2 -->
<g id="edge2" class="edge">
<title>Node0&#45;&gt;Node2</title>
<path fill="none" stroke="#191970" d="M84.1652,-286.3417C93.5945,-284.6107 103.2284,-282.8421 111.8016,-281.2683"/>
<polygon fill="#191970" stroke="#191970" points="83.2772,-282.9461 74.0735,-288.1942 84.5412,-289.831 83.2772,-282.9461"/>
</g>
<!-- Node3 -->
<g id="node4" class="node">
<title>Node3</title>
<g id="a_node4"><a xlink:href="class_http_custom_uri.html" target="_top" xlink:title="HttpCustomUri">
<polygon fill="#ffffff" stroke="#000000" points="228,-532.5 228,-551.5 311,-551.5 311,-532.5 228,-532.5"/>
<text text-anchor="middle" x="269.5" y="-539.5" font-family="Helvetica,sans-Serif" font-size="10.00" fill="#000000">HttpCustomUri</text>
</a>
</g>
</g>
<!-- Node2&#45;&gt;Node3 -->
<g id="edge3" class="edge">
<title>Node2&#45;&gt;Node3</title>
<path fill="none" stroke="#191970" d="M168.9607,-292.3041C169.696,-293.1655 170.3798,-294.0639 171,-295 227.6611,-380.5217 139.653,-445.6125 207,-523 212.4349,-529.2452 219.8524,-533.4736 227.6798,-536.3277"/>
<polygon fill="#191970" stroke="#191970" points="171.0918,-289.5171 161.2745,-285.5334 166.4648,-294.7698 171.0918,-289.5171"/>
</g>
<!-- Node4 -->
<g id="node5" class="node">
<title>Node4</title>
<g id="a_node5"><a xlink:href="class_http_default_uri.html" target="_top" xlink:title="HttpDefaultUri">
<polygon fill="#ffffff" stroke="#000000" points="229.5,-494.5 229.5,-513.5 309.5,-513.5 309.5,-494.5 229.5,-494.5"/>
<text text-anchor="middle" x="269.5" y="-501.5" font-family="Helvetica,sans-Serif" font-size="10.00" fill="#000000">HttpDefaultUri</text>
</a>
</g>
</g>
<!-- Node2&#45;&gt;Node4 -->
<g id="edge4" class="edge">
<title>Node2&#45;&gt;Node4</title>
<path fill="none" stroke="#191970" d="M168.9236,-292.329C169.6695,-293.1833 170.3655,-294.0735 171,-295 219.5621,-365.9125 149.5909,-421.0386 207,-485 212.9088,-491.5832 221.019,-495.9186 229.4407,-498.7648"/>
<polygon fill="#191970" stroke="#191970" points="171.0265,-289.5192 161.186,-285.593 166.4303,-294.7989 171.0265,-289.5192"/>
</g>
<!-- Node5 -->
<g id="node6" class="node">
<title>Node5</title>
<g id="a_node6"><a xlink:href="class_http_download_failure.html" target="_top" xlink:title="HttpDownloadFailure">
<polygon fill="#ffffff" stroke="#000000" points="215.5,-456.5 215.5,-475.5 323.5,-475.5 323.5,-456.5 215.5,-456.5"/>
<text text-anchor="middle" x="269.5" y="-463.5" font-family="Helvetica,sans-Serif" font-size="10.00" fill="#000000">HttpDownloadFailure</text>
</a>
</g>
</g>
<!-- Node2&#45;&gt;Node5 -->
<g id="edge5" class="edge">
<title>Node2&#45;&gt;Node5</title>
<path fill="none" stroke="#191970" d="M168.8697,-292.3669C169.6307,-293.2105 170.3447,-294.0881 171,-295 211.5138,-351.3772 159.469,-396.3981 207,-447 210.6493,-450.8851 215.0654,-453.9841 219.8435,-456.4546"/>
<polygon fill="#191970" stroke="#191970" points="170.931,-289.5244 161.0569,-285.6836 166.3807,-294.8437 170.931,-289.5244"/>
</g>
<!-- Node6 -->
<g id="node7" class="node">
<title>Node6</title>
<g id="a_node7"><a xlink:href="class_http_fake_campaign.html" target="_top" xlink:title="HttpFakeCampaign">
<polygon fill="#ffffff" stroke="#000000" points="219,-418.5 219,-437.5 320,-437.5 320,-418.5 219,-418.5"/>
<text text-anchor="middle" x="269.5" y="-425.5" font-family="Helvetica,sans-Serif" font-size="10.00" fill="#000000">HttpFakeCampaign</text>
</a>
</g>
</g>
<!-- Node2&#45;&gt;Node6 -->
<g id="edge6" class="edge">
<title>Node2&#45;&gt;Node6</title>
<path fill="none" stroke="#191970" d="M168.4129,-292.0461C169.3361,-292.9894 170.2042,-293.9741 171,-295 203.5673,-336.9819 169.2278,-371.6319 207,-409 210.9505,-412.9083 215.6785,-416.0165 220.7416,-418.4878"/>
<polygon fill="#191970" stroke="#191970" points="170.4992,-289.2312 160.5373,-285.6242 166.0755,-294.6562 170.4992,-289.2312"/>
</g>
<!-- Node7 -->
<g id="node8" class="node">
<title>Node7</title>
<g id="a_node8"><a xlink:href="class_http_fake_delegation.html" target="_top" xlink:title="HttpFakeDelegation">
<polygon fill="#ffffff" stroke="#000000" points="217.5,-380.5 217.5,-399.5 321.5,-399.5 321.5,-380.5 217.5,-380.5"/>
<text text-anchor="middle" x="269.5" y="-387.5" font-family="Helvetica,sans-Serif" font-size="10.00" fill="#000000">HttpFakeDelegation</text>
</a>
</g>
</g>
<!-- Node2&#45;&gt;Node7 -->
<g id="edge7" class="edge">
<title>Node2&#45;&gt;Node7</title>
<path fill="none" stroke="#191970" d="M167.7382,-291.7282C168.8925,-292.7736 169.9882,-293.8649 171,-295 195.8696,-322.9006 178.699,-346.5871 207,-371 211.4655,-374.852 216.6956,-377.9231 222.1955,-380.3715"/>
<polygon fill="#191970" stroke="#191970" points="169.6197,-288.7627 159.535,-285.5148 165.3932,-294.3427 169.6197,-288.7627"/>
</g>
<!-- Node8 -->
<g id="node9" class="node">
<title>Node8</title>
<g id="a_node9"><a xlink:href="class_http_fake_event_counter.html" target="_top" xlink:title="HttpFakeEventCounter">
<polygon fill="#ffffff" stroke="#000000" points="211,-342.5 211,-361.5 328,-361.5 328,-342.5 211,-342.5"/>
<text text-anchor="middle" x="269.5" y="-349.5" font-family="Helvetica,sans-Serif" font-size="10.00" fill="#000000">HttpFakeEventCounter</text>
</a>
</g>
</g>
<!-- Node2&#45;&gt;Node8 -->
<g id="edge8" class="edge">
<title>Node2&#45;&gt;Node8</title>
<path fill="none" stroke="#191970" d="M166.0985,-291.255C167.7919,-292.474 169.4416,-293.7275 171,-295 189.0198,-309.7147 187.2125,-320.7653 207,-333 213.1735,-336.8171 220.1665,-339.9131 227.1834,-342.4101"/>
<polygon fill="#191970" stroke="#191970" points="167.7515,-288.1507 157.4888,-285.5187 163.8702,-293.9762 167.7515,-288.1507"/>
</g>
<!-- Node9 -->
<g id="node10" class="node">
<title>Node9</title>
<g id="a_node10"><a xlink:href="class_http_fake_events.html" target="_top" xlink:title="HttpFakeEvents">
<polygon fill="#ffffff" stroke="#000000" points="225.5,-304.5 225.5,-323.5 313.5,-323.5 313.5,-304.5 225.5,-304.5"/>
<text text-anchor="middle" x="269.5" y="-311.5" font-family="Helvetica,sans-Serif" font-size="10.00" fill="#000000">HttpFakeEvents</text>
</a>
</g>
</g>
<!-- Node2&#45;&gt;Node9 -->
<g id="edge9" class="edge">
<title>Node2&#45;&gt;Node9</title>
<path fill="none" stroke="#191970" d="M178.9714,-287.3327C197.4056,-292.7629 219.2482,-299.1972 236.8593,-304.3849"/>
<polygon fill="#191970" stroke="#191970" points="179.7108,-283.9018 169.1293,-284.4334 177.7327,-290.6166 179.7108,-283.9018"/>
</g>
<!-- Node10 -->
<g id="node11" class="node">
<title>Node10</title>
<g id="a_node11"><a xlink:href="class_http_fake_no_correlation_id.html" target="_top" xlink:title="HttpFakeNoCorrelationId">
<polygon fill="#ffffff" stroke="#000000" points="207,-266.5 207,-285.5 332,-285.5 332,-266.5 207,-266.5"/>
<text text-anchor="middle" x="269.5" y="-273.5" font-family="Helvetica,sans-Serif" font-size="10.00" fill="#000000">HttpFakeNoCorrelationId</text>
</a>
</g>
</g>
<!-- Node2&#45;&gt;Node10 -->
<g id="edge10" class="edge">
<title>Node2&#45;&gt;Node10</title>
<path fill="none" stroke="#191970" d="M179.3264,-276C188.0336,-276 197.4868,-276 206.8865,-276"/>
<polygon fill="#191970" stroke="#191970" points="179.1293,-272.5001 169.1293,-276 179.1292,-279.5001 179.1293,-272.5001"/>
</g>
<!-- Node11 -->
<g id="node12" class="node">
<title>Node11</title>
<g id="a_node12"><a xlink:href="class_http_fake_pause_counter.html" target="_top" xlink:title="HttpFakePauseCounter">
<polygon fill="#ffffff" stroke="#000000" points="210,-228.5 210,-247.5 329,-247.5 329,-228.5 210,-228.5"/>
<text text-anchor="middle" x="269.5" y="-235.5" font-family="Helvetica,sans-Serif" font-size="10.00" fill="#000000">HttpFakePauseCounter</text>
</a>
</g>
</g>
<!-- Node2&#45;&gt;Node11 -->
<g id="edge11" class="edge">
<title>Node2&#45;&gt;Node11</title>
<path fill="none" stroke="#191970" d="M178.9714,-264.6673C197.4056,-259.2371 219.2482,-252.8028 236.8593,-247.6151"/>
<polygon fill="#191970" stroke="#191970" points="177.7327,-261.3834 169.1293,-267.5666 179.7108,-268.0982 177.7327,-261.3834"/>
</g>
<!-- Node12 -->
<g id="node13" class="node">
<title>Node12</title>
<g id="a_node13"><a xlink:href="class_http_fake_prov.html" target="_top" xlink:title="Check that basic device info sent by aktualizr during provisioning matches our expectations. ">
<polygon fill="#ffffff" stroke="#000000" points="231,-190.5 231,-209.5 308,-209.5 308,-190.5 231,-190.5"/>
<text text-anchor="middle" x="269.5" y="-197.5" font-family="Helvetica,sans-Serif" font-size="10.00" fill="#000000">HttpFakeProv</text>
</a>
</g>
</g>
<!-- Node2&#45;&gt;Node12 -->
<g id="edge12" class="edge">
<title>Node2&#45;&gt;Node12</title>
<path fill="none" stroke="#191970" d="M156.5006,-258.8892C169.138,-246.2739 187.7913,-229.5406 207,-219 214.3574,-214.9627 222.6837,-211.6719 230.8038,-209.0333"/>
<polygon fill="#191970" stroke="#191970" points="153.9283,-256.5139 149.4582,-266.1196 158.9428,-261.398 153.9283,-256.5139"/>
</g>
<!-- Node13 -->
<g id="node14" class="node">
<title>Node13</title>
<g id="a_node14"><a xlink:href="class_http_fake_put_counter.html" target="_top" xlink:title="HttpFakePutCounter">
<polygon fill="#ffffff" stroke="#000000" points="216,-152.5 216,-171.5 323,-171.5 323,-152.5 216,-152.5"/>
<text text-anchor="middle" x="269.5" y="-159.5" font-family="Helvetica,sans-Serif" font-size="10.00" fill="#000000">HttpFakePutCounter</text>
</a>
</g>
</g>
<!-- Node2&#45;&gt;Node13 -->
<g id="edge13" class="edge">
<title>Node2&#45;&gt;Node13</title>
<path fill="none" stroke="#191970" d="M148.9024,-257.2116C159.4578,-235.7077 179.5674,-200.9007 207,-181 212.3243,-177.1375 218.4442,-174.0499 224.7259,-171.5844"/>
<polygon fill="#191970" stroke="#191970" points="145.7092,-255.7772 144.6151,-266.3154 152.0421,-258.7596 145.7092,-255.7772"/>
</g>
<!-- Node14 -->
<g id="node15" class="node">
<title>Node14</title>
<g id="a_node15"><a xlink:href="class_http_fake_rq.html" target="_top" xlink:title="HttpFakeRq">
<polygon fill="#ffffff" stroke="#000000" points="234.5,-114.5 234.5,-133.5 304.5,-133.5 304.5,-114.5 234.5,-114.5"/>
<text text-anchor="middle" x="269.5" y="-121.5" font-family="Helvetica,sans-Serif" font-size="10.00" fill="#000000">HttpFakeRq</text>
</a>
</g>
</g>
<!-- Node2&#45;&gt;Node14 -->
<g id="edge14" class="edge">
<title>Node2&#45;&gt;Node14</title>
<path fill="none" stroke="#191970" d="M144.986,-256.5768C152.6785,-227.6118 171.1425,-173.272 207,-143 214.7125,-136.4888 224.6165,-132.2085 234.256,-129.3949"/>
<polygon fill="#191970" stroke="#191970" points="141.577,-255.7825 142.5514,-266.3324 148.3687,-257.4774 141.577,-255.7825"/>
</g>
<!-- Node15 -->
<g id="node16" class="node">
<title>Node15</title>
<g id="a_node16"><a xlink:href="class_http_fake_unstable.html" target="_top" xlink:title="HttpFakeUnstable">
<polygon fill="#ffffff" stroke="#000000" points="221.5,-76.5 221.5,-95.5 317.5,-95.5 317.5,-76.5 221.5,-76.5"/>
<text text-anchor="middle" x="269.5" y="-83.5" font-family="Helvetica,sans-Serif" font-size="10.00" fill="#000000">HttpFakeUnstable</text>
</a>
</g>
</g>
<!-- Node2&#45;&gt;Node15 -->
<g id="edge15" class="edge">
<title>Node2&#45;&gt;Node15</title>
<path fill="none" stroke="#191970" d="M142.6005,-256.1879C147.4201,-220.7172 162.5226,-146.229 207,-105 211.1586,-101.1451 216.077,-98.0712 221.2997,-95.6203"/>
<polygon fill="#191970" stroke="#191970" points="139.1108,-255.8912 141.3728,-266.2418 146.0592,-256.7398 139.1108,-255.8912"/>
</g>
<!-- Node16 -->
<g id="node17" class="node">
<title>Node16</title>
<g id="a_node17"><a xlink:href="class_http_put_manifest_fail.html" target="_top" xlink:title="HttpPutManifestFail">
<polygon fill="#ffffff" stroke="#000000" points="217.5,-38.5 217.5,-57.5 321.5,-57.5 321.5,-38.5 217.5,-38.5"/>
<text text-anchor="middle" x="269.5" y="-45.5" font-family="Helvetica,sans-Serif" font-size="10.00" fill="#000000">HttpPutManifestFail</text>
</a>
</g>
</g>
<!-- Node2&#45;&gt;Node16 -->
<g id="edge16" class="edge">
<title>Node2&#45;&gt;Node16</title>
<path fill="none" stroke="#191970" d="M144.3648,-256.1743C153.8518,-209.4114 179.5252,-94.1219 207,-67 210.9548,-63.096 215.6854,-59.9905 220.75,-57.5207"/>
<polygon fill="#191970" stroke="#191970" points="140.8777,-255.7648 142.3563,-266.256 147.7428,-257.1326 140.8777,-255.7648"/>
</g>
<!-- Node17 -->
<g id="node18" class="node">
<title>Node17</title>
<g id="a_node18"><a xlink:href="class_http_reject_empty_corr_id.html" target="_top" xlink:title="HttpRejectEmptyCorrId">
<polygon fill="#ffffff" stroke="#000000" points="210,-.5 210,-19.5 329,-19.5 329,-.5 210,-.5"/>
<text text-anchor="middle" x="269.5" y="-7.5" font-family="Helvetica,sans-Serif" font-size="10.00" fill="#000000">HttpRejectEmptyCorrId</text>
</a>
</g>
</g>
<!-- Node2&#45;&gt;Node17 -->
<g id="edge17" class="edge">
<title>Node2&#45;&gt;Node17</title>
<path fill="none" stroke="#191970" d="M143.3288,-256.1671C151.2139,-203.5302 174.9806,-62.065 207,-29 210.7869,-25.0894 215.351,-21.9773 220.2677,-19.5018"/>
<polygon fill="#191970" stroke="#191970" points="139.8395,-255.8394 141.8526,-266.2412 146.7656,-256.8544 139.8395,-255.8394"/>
</g>
</g>
</svg>
