<?xml version="1.0" encoding="UTF-8" standalone="no"?>
<!DOCTYPE svg PUBLIC "-//W3C//DTD SVG 1.1//EN"
 "http://www.w3.org/Graphics/SVG/1.1/DTD/svg11.dtd">
<!-- Generated by graphviz version 2.40.1 (20161225.0304)
 -->
<!-- Title: Graphical Class Hierarchy Pages: 1 -->
<svg width="624pt" height="670pt"
 viewBox="0.00 0.00 624.00 669.50" xmlns="http://www.w3.org/2000/svg" xmlns:xlink="http://www.w3.org/1999/xlink">
<g id="graph0" class="graph" transform="scale(1 1) rotate(0) translate(4 665.5)">
<title>Graphical Class Hierarchy</title>
<polygon fill="#ffffff" stroke="transparent" points="-4,4 -4,-665.5 620,-665.5 620,4 -4,4"/>
<!-- Node186 -->
<g id="node1" class="node">
<title>Node186</title>
<g id="a_node1"><a xlink:title="STL class. ">
<polygon fill="#ffffff" stroke="#bfbfbf" points="0,-414 0,-433 78,-433 78,-414 0,-414"/>
<text text-anchor="middle" x="39" y="-421" font-family="Helvetica,sans-Serif" font-size="10.00" fill="#000000">std::exception</text>
</a>
</g>
</g>
<!-- Node0 -->
<g id="node2" class="node">
<title>Node0</title>
<g id="a_node2"><a xlink:href="classdeserialization__error.html" target="_top" xlink:title="deserialization_error">
<polygon fill="#ffffff" stroke="#000000" points="127.5,-490 127.5,-509 231.5,-509 231.5,-490 127.5,-490"/>
<text text-anchor="middle" x="179.5" y="-497" font-family="Helvetica,sans-Serif" font-size="10.00" fill="#000000">deserialization_error</text>
</a>
</g>
</g>
<!-- Node186&#45;&gt;Node0 -->
<g id="edge1" class="edge">
<title>Node186&#45;&gt;Node0</title>
<path fill="none" stroke="#191970" d="M56.9898,-440.2266C71.4351,-452.8662 92.7494,-469.8095 114,-480.5 121.5099,-484.278 129.8923,-487.4218 138.0857,-489.9927"/>
<polygon fill="#191970" stroke="#191970" points="59.1134,-437.4299 49.3307,-433.3618 54.4413,-442.6426 59.1134,-437.4299"/>
</g>
<!-- Node188 -->
<g id="node3" class="node">
<title>Node188</title>
<g id="a_node3"><a xlink:href="class_o_s_tree_commit_parse_error.html" target="_top" xlink:title="OSTreeCommitParseError">
<polygon fill="#ffffff" stroke="#000000" points="114,-452 114,-471 245,-471 245,-452 114,-452"/>
<text text-anchor="middle" x="179.5" y="-459" font-family="Helvetica,sans-Serif" font-size="10.00" fill="#000000">OSTreeCommitParseError</text>
</a>
</g>
</g>
<!-- Node186&#45;&gt;Node188 -->
<g id="edge2" class="edge">
<title>Node186&#45;&gt;Node188</title>
<path fill="none" stroke="#8b1a1a" d="M84.2787,-435.7462C103.6449,-440.984 125.9218,-447.0091 144.0573,-451.9141"/>
<polygon fill="#8b1a1a" stroke="#8b1a1a" points="85.0211,-432.3213 74.4541,-433.089 83.1934,-439.0785 85.0211,-432.3213"/>
</g>
<!-- Node189 -->
<g id="node4" class="node">
<title>Node189</title>
<g id="a_node4"><a xlink:href="class_o_s_tree_object_missing.html" target="_top" xlink:title="Thrown by GetObject when the object requested is not present in the repository. ">
<polygon fill="#ffffff" stroke="#000000" points="123,-414 123,-433 236,-433 236,-414 123,-414"/>
<text text-anchor="middle" x="179.5" y="-421" font-family="Helvetica,sans-Serif" font-size="10.00" fill="#000000">OSTreeObjectMissing</text>
</a>
</g>
</g>
<!-- Node186&#45;&gt;Node189 -->
<g id="edge3" class="edge">
<title>Node186&#45;&gt;Node189</title>
<path fill="none" stroke="#8b1a1a" d="M88.1972,-423.5C99.4347,-423.5 111.4641,-423.5 122.9811,-423.5"/>
<polygon fill="#8b1a1a" stroke="#8b1a1a" points="88.1371,-420.0001 78.1371,-423.5 88.137,-427.0001 88.1371,-420.0001"/>
</g>
<!-- Node190 -->
<g id="node5" class="node">
<title>Node190</title>
<g id="a_node5"><a xlink:title="STL class. ">
<polygon fill="#ffffff" stroke="#bfbfbf" points="139,-376 139,-395 220,-395 220,-376 139,-376"/>
<text text-anchor="middle" x="179.5" y="-383" font-family="Helvetica,sans-Serif" font-size="10.00" fill="#000000">std::logic_error</text>
</a>
</g>
</g>
<!-- Node186&#45;&gt;Node190 -->
<g id="edge4" class="edge">
<title>Node186&#45;&gt;Node190</title>
<path fill="none" stroke="#191970" d="M84.2787,-411.2538C103.6449,-406.016 125.9218,-399.9909 144.0573,-395.0859"/>
<polygon fill="#191970" stroke="#191970" points="83.1934,-407.9215 74.4541,-413.911 85.0211,-414.6787 83.1934,-407.9215"/>
</g>
<!-- Node212 -->
<g id="node27" class="node">
<title>Node212</title>
<g id="a_node27"><a xlink:title="STL class. ">
<polygon fill="#ffffff" stroke="#bfbfbf" points="133,-186 133,-205 226,-205 226,-186 133,-186"/>
<text text-anchor="middle" x="179.5" y="-193" font-family="Helvetica,sans-Serif" font-size="10.00" fill="#000000">std::runtime_error</text>
</a>
</g>
</g>
<!-- Node186&#45;&gt;Node212 -->
<g id="edge26" class="edge">
<title>Node186&#45;&gt;Node212</title>
<path fill="none" stroke="#191970" d="M50.1713,-405.3715C78.4695,-359.4498 152.2419,-239.7337 173.6168,-205.0472"/>
<polygon fill="#191970" stroke="#191970" points="47.1248,-403.6438 44.8582,-413.9934 53.0841,-407.3162 47.1248,-403.6438"/>
</g>
<!-- Node191 -->
<g id="node6" class="node">
<title>Node191</title>
<g id="a_node6"><a xlink:href="class_fatal_exception.html" target="_top" xlink:title="FatalException">
<polygon fill="#ffffff" stroke="#000000" points="306,-452 306,-471 388,-471 388,-452 306,-452"/>
<text text-anchor="middle" x="347" y="-459" font-family="Helvetica,sans-Serif" font-size="10.00" fill="#000000">FatalException</text>
</a>
</g>
</g>
<!-- Node190&#45;&gt;Node191 -->
<g id="edge5" class="edge">
<title>Node190&#45;&gt;Node191</title>
<path fill="none" stroke="#191970" d="M229.7283,-397.0395C235.061,-399.1437 240.2608,-401.6115 245,-404.5 264.8654,-416.6079 261.1223,-430.4123 281,-442.5 288.539,-447.0845 297.2343,-450.6062 305.7875,-453.2964"/>
<polygon fill="#191970" stroke="#191970" points="230.6514,-393.6539 220.0566,-393.6322 228.3254,-400.2562 230.6514,-393.6539"/>
</g>
<!-- Node192 -->
<g id="node7" class="node">
<title>Node192</title>
<g id="a_node7"><a xlink:href="class_not_implemented_exception.html" target="_top" xlink:title="NotImplementedException">
<polygon fill="#ffffff" stroke="#000000" points="281,-414 281,-433 413,-433 413,-414 281,-414"/>
<text text-anchor="middle" x="347" y="-421" font-family="Helvetica,sans-Serif" font-size="10.00" fill="#000000">NotImplementedException</text>
</a>
</g>
</g>
<!-- Node190&#45;&gt;Node192 -->
<g id="edge6" class="edge">
<title>Node190&#45;&gt;Node192</title>
<path fill="none" stroke="#191970" d="M230.028,-396.9631C254.0032,-402.4022 282.3135,-408.8248 305.0771,-413.9891"/>
<polygon fill="#191970" stroke="#191970" points="230.5736,-393.498 220.0471,-394.6987 229.0249,-400.3245 230.5736,-393.498"/>
</g>
<!-- Node193 -->
<g id="node8" class="node">
<title>Node193</title>
<g id="a_node8"><a xlink:title="STL class. ">
<polygon fill="#ffffff" stroke="#bfbfbf" points="301,-376 301,-395 393,-395 393,-376 301,-376"/>
<text text-anchor="middle" x="347" y="-383" font-family="Helvetica,sans-Serif" font-size="10.00" fill="#000000">std::domain_error</text>
</a>
</g>
</g>
<!-- Node190&#45;&gt;Node193 -->
<g id="edge7" class="edge">
<title>Node190&#45;&gt;Node193</title>
<path fill="none" stroke="#191970" d="M230.0956,-385.5C252.6138,-385.5 278.9454,-385.5 300.9113,-385.5"/>
<polygon fill="#191970" stroke="#191970" points="230.0471,-382.0001 220.0471,-385.5 230.047,-389.0001 230.0471,-382.0001"/>
</g>
<!-- Node195 -->
<g id="node10" class="node">
<title>Node195</title>
<g id="a_node10"><a xlink:href="class_uptane_1_1_exception.html" target="_top" xlink:title="Uptane::Exception">
<polygon fill="#ffffff" stroke="#000000" points="298,-338 298,-357 396,-357 396,-338 298,-338"/>
<text text-anchor="middle" x="347" y="-345" font-family="Helvetica,sans-Serif" font-size="10.00" fill="#000000">Uptane::Exception</text>
</a>
</g>
</g>
<!-- Node190&#45;&gt;Node195 -->
<g id="edge9" class="edge">
<title>Node190&#45;&gt;Node195</title>
<path fill="none" stroke="#191970" d="M230.028,-374.0369C254.0032,-368.5978 282.3135,-362.1752 305.0771,-357.0109"/>
<polygon fill="#191970" stroke="#191970" points="229.0249,-370.6755 220.0471,-376.3013 230.5736,-377.502 229.0249,-370.6755"/>
</g>
<!-- Node194 -->
<g id="node9" class="node">
<title>Node194</title>
<g id="a_node9"><a xlink:href="class_time_stamp_1_1_invalid_time_stamp.html" target="_top" xlink:title="TimeStamp::InvalidTimeStamp">
<polygon fill="#ffffff" stroke="#000000" points="456.5,-642 456.5,-661 608.5,-661 608.5,-642 456.5,-642"/>
<text text-anchor="middle" x="532.5" y="-649" font-family="Helvetica,sans-Serif" font-size="10.00" fill="#000000">TimeStamp::InvalidTimeStamp</text>
</a>
</g>
</g>
<!-- Node193&#45;&gt;Node194 -->
<g id="edge8" class="edge">
<title>Node193&#45;&gt;Node194</title>
<path fill="none" stroke="#191970" d="M402.3171,-395.8471C406.2989,-398.1896 409.9423,-401.0386 413,-404.5 480.9187,-481.3862 378.9342,-557.5652 449,-632.5 452.5539,-636.3008 456.6967,-639.4175 461.2012,-641.9661"/>
<polygon fill="#191970" stroke="#191970" points="403.6891,-392.6239 393.1555,-391.4865 400.6807,-398.9445 403.6891,-392.6239"/>
</g>
<!-- Node196 -->
<g id="node11" class="node">
<title>Node196</title>
<g id="a_node11"><a xlink:href="class_uptane_1_1_bad_ecu_id.html" target="_top" xlink:title="Uptane::BadEcuId">
<polygon fill="#ffffff" stroke="#000000" points="484,-604 484,-623 581,-623 581,-604 484,-604"/>
<text text-anchor="middle" x="532.5" y="-611" font-family="Helvetica,sans-Serif" font-size="10.00" fill="#000000">Uptane::BadEcuId</text>
</a>
</g>
</g>
<!-- Node195&#45;&gt;Node196 -->
<g id="edge10" class="edge">
<title>Node195&#45;&gt;Node196</title>
<path fill="none" stroke="#191970" d="M404.984,-359.529C407.9292,-361.5201 410.6392,-363.8275 413,-366.5 480.9187,-443.3862 378.9342,-519.5652 449,-594.5 458.037,-604.165 470.8826,-609.4062 483.7965,-612.1314"/>
<polygon fill="#191970" stroke="#191970" points="406.6101,-356.4292 396.1549,-354.7145 403.2588,-362.5748 406.6101,-356.4292"/>
</g>
<!-- Node197 -->
<g id="node12" class="node">
<title>Node197</title>
<g id="a_node12"><a xlink:href="class_uptane_1_1_bad_hardware_id.html" target="_top" xlink:title="Uptane::BadHardwareId">
<polygon fill="#ffffff" stroke="#000000" points="471.5,-566 471.5,-585 593.5,-585 593.5,-566 471.5,-566"/>
<text text-anchor="middle" x="532.5" y="-573" font-family="Helvetica,sans-Serif" font-size="10.00" fill="#000000">Uptane::BadHardwareId</text>
</a>
</g>
</g>
<!-- Node195&#45;&gt;Node197 -->
<g id="edge11" class="edge">
<title>Node195&#45;&gt;Node197</title>
<path fill="none" stroke="#191970" d="M404.8888,-359.6144C407.8574,-361.5845 410.5985,-363.864 413,-366.5 470.8815,-430.0342 389.345,-494.628 449,-556.5 455.1915,-562.9216 463.0675,-567.3767 471.4983,-570.4345"/>
<polygon fill="#191970" stroke="#191970" points="406.4783,-356.4952 396.0133,-354.8415 403.1629,-362.6603 406.4783,-356.4952"/>
</g>
<!-- Node198 -->
<g id="node13" class="node">
<title>Node198</title>
<g id="a_node13"><a xlink:href="class_uptane_1_1_bad_key_id.html" target="_top" xlink:title="Uptane::BadKeyId">
<polygon fill="#ffffff" stroke="#000000" points="484,-528 484,-547 581,-547 581,-528 484,-528"/>
<text text-anchor="middle" x="532.5" y="-535" font-family="Helvetica,sans-Serif" font-size="10.00" fill="#000000">Uptane::BadKeyId</text>
</a>
</g>
</g>
<!-- Node195&#45;&gt;Node198 -->
<g id="edge12" class="edge">
<title>Node195&#45;&gt;Node198</title>
<path fill="none" stroke="#191970" d="M405.1726,-360.0187C408.0143,-361.893 410.6551,-364.0404 413,-366.5 460.9048,-416.7483 399.6935,-469.6265 449,-518.5 458.2918,-527.7102 471.0622,-532.8335 483.8217,-535.5913"/>
<polygon fill="#191970" stroke="#191970" points="406.6066,-356.8163 396.1395,-355.1762 403.2993,-362.9857 406.6066,-356.8163"/>
</g>
<!-- Node199 -->
<g id="node14" class="node">
<title>Node199</title>
<g id="a_node14"><a xlink:href="class_uptane_1_1_delegation_hash_mismatch.html" target="_top" xlink:title="Uptane::DelegationHashMismatch">
<polygon fill="#ffffff" stroke="#000000" points="449,-490 449,-509 616,-509 616,-490 449,-490"/>
<text text-anchor="middle" x="532.5" y="-497" font-family="Helvetica,sans-Serif" font-size="10.00" fill="#000000">Uptane::DelegationHashMismatch</text>
</a>
</g>
</g>
<!-- Node195&#45;&gt;Node199 -->
<g id="edge13" class="edge">
<title>Node195&#45;&gt;Node199</title>
<path fill="none" stroke="#191970" d="M405.1149,-360.3224C407.9519,-362.1217 410.6092,-364.1696 413,-366.5 451.0481,-403.5871 409.9184,-444.5037 449,-480.5 453.1555,-484.3274 457.9171,-487.4372 463.0133,-489.958"/>
<polygon fill="#191970" stroke="#191970" points="406.6354,-357.1679 396.1518,-355.6361 403.392,-363.3711 406.6354,-357.1679"/>
</g>
<!-- Node200 -->
<g id="node15" class="node">
<title>Node200</title>
<g id="a_node15"><a xlink:href="class_uptane_1_1_delegation_missing.html" target="_top" xlink:title="Uptane::DelegationMissing">
<polygon fill="#ffffff" stroke="#000000" points="465.5,-452 465.5,-471 599.5,-471 599.5,-452 465.5,-452"/>
<text text-anchor="middle" x="532.5" y="-459" font-family="Helvetica,sans-Serif" font-size="10.00" fill="#000000">Uptane::DelegationMissing</text>
</a>
</g>
</g>
<!-- Node195&#45;&gt;Node200 -->
<g id="edge14" class="edge">
<title>Node195&#45;&gt;Node200</title>
<path fill="none" stroke="#191970" d="M405.3265,-361.0616C408.0435,-362.6752 410.6234,-364.4804 413,-366.5 441.4812,-390.7025 419.8458,-419.1126 449,-442.5 453.8707,-446.4072 459.3907,-449.5438 465.2158,-452.0574"/>
<polygon fill="#191970" stroke="#191970" points="406.7741,-357.8723 396.2643,-356.5326 403.6447,-364.1339 406.7741,-357.8723"/>
</g>
<!-- Node201 -->
<g id="node16" class="node">
<title>Node201</title>
<g id="a_node16"><a xlink:href="class_uptane_1_1_expired_metadata.html" target="_top" xlink:title="Uptane::ExpiredMetadata">
<polygon fill="#ffffff" stroke="#000000" points="468.5,-414 468.5,-433 596.5,-433 596.5,-414 468.5,-414"/>
<text text-anchor="middle" x="532.5" y="-421" font-family="Helvetica,sans-Serif" font-size="10.00" fill="#000000">Uptane::ExpiredMetadata</text>
</a>
</g>
</g>
<!-- Node195&#45;&gt;Node201 -->
<g id="edge15" class="edge">
<title>Node195&#45;&gt;Node201</title>
<path fill="none" stroke="#191970" d="M401.7064,-360.7021C405.6372,-362.4148 409.447,-364.3394 413,-366.5 432.8777,-378.5877 428.7885,-392.9792 449,-404.5 455.8455,-408.402 463.4356,-411.5028 471.1684,-413.9667"/>
<polygon fill="#191970" stroke="#191970" points="402.968,-357.4375 392.3792,-357.0789 400.4332,-363.9624 402.968,-357.4375"/>
</g>
<!-- Node202 -->
<g id="node17" class="node">
<title>Node202</title>
<g id="a_node17"><a xlink:href="class_uptane_1_1_illegal_threshold.html" target="_top" xlink:title="Uptane::IllegalThreshold">
<polygon fill="#ffffff" stroke="#000000" points="471.5,-376 471.5,-395 593.5,-395 593.5,-376 471.5,-376"/>
<text text-anchor="middle" x="532.5" y="-383" font-family="Helvetica,sans-Serif" font-size="10.00" fill="#000000">Uptane::IllegalThreshold</text>
</a>
</g>
</g>
<!-- Node195&#45;&gt;Node202 -->
<g id="edge16" class="edge">
<title>Node195&#45;&gt;Node202</title>
<path fill="none" stroke="#191970" d="M403.6727,-359.1095C430.0551,-364.514 461.0509,-370.8635 486.0271,-375.9799"/>
<polygon fill="#191970" stroke="#191970" points="404.3085,-355.6671 393.8095,-357.089 402.9036,-362.5247 404.3085,-355.6671"/>
</g>
<!-- Node203 -->
<g id="node18" class="node">
<title>Node203</title>
<g id="a_node18"><a xlink:href="class_uptane_1_1_invalid_metadata.html" target="_top" xlink:title="Uptane::InvalidMetadata">
<polygon fill="#ffffff" stroke="#000000" points="471,-338 471,-357 594,-357 594,-338 471,-338"/>
<text text-anchor="middle" x="532.5" y="-345" font-family="Helvetica,sans-Serif" font-size="10.00" fill="#000000">Uptane::InvalidMetadata</text>
</a>
</g>
</g>
<!-- Node195&#45;&gt;Node203 -->
<g id="edge17" class="edge">
<title>Node195&#45;&gt;Node203</title>
<path fill="none" stroke="#191970" d="M406.3991,-347.5C426.9468,-347.5 450.0139,-347.5 470.7463,-347.5"/>
<polygon fill="#191970" stroke="#191970" points="406.2236,-344.0001 396.2236,-347.5 406.2235,-351.0001 406.2236,-344.0001"/>
</g>
<!-- Node204 -->
<g id="node19" class="node">
<title>Node204</title>
<g id="a_node19"><a xlink:href="class_uptane_1_1_missing_repo.html" target="_top" xlink:title="Uptane::MissingRepo">
<polygon fill="#ffffff" stroke="#000000" points="477,-300 477,-319 588,-319 588,-300 477,-300"/>
<text text-anchor="middle" x="532.5" y="-307" font-family="Helvetica,sans-Serif" font-size="10.00" fill="#000000">Uptane::MissingRepo</text>
</a>
</g>
</g>
<!-- Node195&#45;&gt;Node204 -->
<g id="edge18" class="edge">
<title>Node195&#45;&gt;Node204</title>
<path fill="none" stroke="#191970" d="M403.6727,-335.8905C430.0551,-330.486 461.0509,-324.1365 486.0271,-319.0201"/>
<polygon fill="#191970" stroke="#191970" points="402.9036,-332.4753 393.8095,-337.911 404.3085,-339.3329 402.9036,-332.4753"/>
</g>
<!-- Node205 -->
<g id="node20" class="node">
<title>Node205</title>
<g id="a_node20"><a xlink:href="class_uptane_1_1_non_unique_signatures.html" target="_top" xlink:title="Uptane::NonUniqueSignatures">
<polygon fill="#ffffff" stroke="#000000" points="458,-262 458,-281 607,-281 607,-262 458,-262"/>
<text text-anchor="middle" x="532.5" y="-269" font-family="Helvetica,sans-Serif" font-size="10.00" fill="#000000">Uptane::NonUniqueSignatures</text>
</a>
</g>
</g>
<!-- Node195&#45;&gt;Node205 -->
<g id="edge19" class="edge">
<title>Node195&#45;&gt;Node205</title>
<path fill="none" stroke="#191970" d="M401.7064,-334.2979C405.6372,-332.5852 409.447,-330.6606 413,-328.5 432.8777,-316.4123 428.7885,-302.0208 449,-290.5 455.8455,-286.598 463.4356,-283.4972 471.1684,-281.0333"/>
<polygon fill="#191970" stroke="#191970" points="400.4332,-331.0376 392.3792,-337.9211 402.968,-337.5625 400.4332,-331.0376"/>
</g>
<!-- Node206 -->
<g id="node21" class="node">
<title>Node206</title>
<g id="a_node21"><a xlink:href="class_uptane_1_1_oversized_target.html" target="_top" xlink:title="Uptane::OversizedTarget">
<polygon fill="#ffffff" stroke="#000000" points="469.5,-224 469.5,-243 595.5,-243 595.5,-224 469.5,-224"/>
<text text-anchor="middle" x="532.5" y="-231" font-family="Helvetica,sans-Serif" font-size="10.00" fill="#000000">Uptane::OversizedTarget</text>
</a>
</g>
</g>
<!-- Node195&#45;&gt;Node206 -->
<g id="edge20" class="edge">
<title>Node195&#45;&gt;Node206</title>
<path fill="none" stroke="#191970" d="M405.3265,-333.9384C408.0435,-332.3248 410.6234,-330.5196 413,-328.5 441.4812,-304.2975 419.8458,-275.8874 449,-252.5 455.0303,-247.6625 462.056,-244.0063 469.4239,-241.2511"/>
<polygon fill="#191970" stroke="#191970" points="403.6447,-330.8661 396.2643,-338.4674 406.7741,-337.1277 403.6447,-330.8661"/>
</g>
<!-- Node207 -->
<g id="node22" class="node">
<title>Node207</title>
<g id="a_node22"><a xlink:href="class_uptane_1_1_security_exception.html" target="_top" xlink:title="Uptane::SecurityException">
<polygon fill="#ffffff" stroke="#000000" points="465.5,-186 465.5,-205 599.5,-205 599.5,-186 465.5,-186"/>
<text text-anchor="middle" x="532.5" y="-193" font-family="Helvetica,sans-Serif" font-size="10.00" fill="#000000">Uptane::SecurityException</text>
</a>
</g>
</g>
<!-- Node195&#45;&gt;Node207 -->
<g id="edge21" class="edge">
<title>Node195&#45;&gt;Node207</title>
<path fill="none" stroke="#191970" d="M405.1149,-334.6776C407.9519,-332.8783 410.6092,-330.8304 413,-328.5 451.0481,-291.4129 409.9184,-250.4963 449,-214.5 453.8116,-210.0683 459.4358,-206.5987 465.4513,-203.8914"/>
<polygon fill="#191970" stroke="#191970" points="403.392,-331.6289 396.1518,-339.3639 406.6354,-337.8321 403.392,-331.6289"/>
</g>
<!-- Node208 -->
<g id="node23" class="node">
<title>Node208</title>
<g id="a_node23"><a xlink:href="class_uptane_1_1_target_hash_mismatch.html" target="_top" xlink:title="Uptane::TargetHashMismatch">
<polygon fill="#ffffff" stroke="#000000" points="458.5,-148 458.5,-167 606.5,-167 606.5,-148 458.5,-148"/>
<text text-anchor="middle" x="532.5" y="-155" font-family="Helvetica,sans-Serif" font-size="10.00" fill="#000000">Uptane::TargetHashMismatch</text>
</a>
</g>
</g>
<!-- Node195&#45;&gt;Node208 -->
<g id="edge22" class="edge">
<title>Node195&#45;&gt;Node208</title>
<path fill="none" stroke="#191970" d="M405.1726,-334.9813C408.0143,-333.107 410.6551,-330.9596 413,-328.5 460.9048,-278.2517 399.6935,-225.3735 449,-176.5 452.8012,-172.7322 457.1846,-169.6483 461.9112,-167.1306"/>
<polygon fill="#191970" stroke="#191970" points="403.2993,-332.0143 396.1395,-339.8238 406.6066,-338.1837 403.2993,-332.0143"/>
</g>
<!-- Node209 -->
<g id="node24" class="node">
<title>Node209</title>
<g id="a_node24"><a xlink:href="class_uptane_1_1_target_mismatch.html" target="_top" xlink:title="Uptane::TargetMismatch">
<polygon fill="#ffffff" stroke="#000000" points="470,-110 470,-129 595,-129 595,-110 470,-110"/>
<text text-anchor="middle" x="532.5" y="-117" font-family="Helvetica,sans-Serif" font-size="10.00" fill="#000000">Uptane::TargetMismatch</text>
</a>
</g>
</g>
<!-- Node195&#45;&gt;Node209 -->
<g id="edge23" class="edge">
<title>Node195&#45;&gt;Node209</title>
<path fill="none" stroke="#191970" d="M404.8888,-335.3856C407.8574,-333.4155 410.5985,-331.136 413,-328.5 470.8815,-264.9658 389.345,-200.372 449,-138.5 454.7787,-132.5065 462.0248,-128.226 469.8199,-125.1959"/>
<polygon fill="#191970" stroke="#191970" points="403.1629,-332.3397 396.0133,-340.1585 406.4783,-338.5048 403.1629,-332.3397"/>
</g>
<!-- Node210 -->
<g id="node25" class="node">
<title>Node210</title>
<g id="a_node25"><a xlink:href="class_uptane_1_1_unmet_threshold.html" target="_top" xlink:title="Uptane::UnmetThreshold">
<polygon fill="#ffffff" stroke="#000000" points="469.5,-72 469.5,-91 595.5,-91 595.5,-72 469.5,-72"/>
<text text-anchor="middle" x="532.5" y="-79" font-family="Helvetica,sans-Serif" font-size="10.00" fill="#000000">Uptane::UnmetThreshold</text>
</a>
</g>
</g>
<!-- Node195&#45;&gt;Node210 -->
<g id="edge24" class="edge">
<title>Node195&#45;&gt;Node210</title>
<path fill="none" stroke="#191970" d="M404.984,-335.471C407.9292,-333.4799 410.6392,-331.1725 413,-328.5 480.9187,-251.6138 378.9342,-175.4348 449,-100.5 454.5846,-94.5273 461.6238,-90.244 469.2347,-87.1998"/>
<polygon fill="#191970" stroke="#191970" points="403.2588,-332.4252 396.1549,-340.2855 406.6101,-338.5708 403.2588,-332.4252"/>
</g>
<!-- Node211 -->
<g id="node26" class="node">
<title>Node211</title>
<g id="a_node26"><a xlink:href="class_uptane_1_1_version_mismatch.html" target="_top" xlink:title="Uptane::VersionMismatch">
<polygon fill="#ffffff" stroke="#000000" points="467.5,-34 467.5,-53 597.5,-53 597.5,-34 467.5,-34"/>
<text text-anchor="middle" x="532.5" y="-41" font-family="Helvetica,sans-Serif" font-size="10.00" fill="#000000">Uptane::VersionMismatch</text>
</a>
</g>
</g>
<!-- Node195&#45;&gt;Node211 -->
<g id="edge25" class="edge">
<title>Node195&#45;&gt;Node211</title>
<path fill="none" stroke="#191970" d="M405.0533,-335.5317C407.9816,-333.5257 410.6688,-331.1984 413,-328.5 490.9905,-238.2228 368.4878,-150.5357 449,-62.5 454.117,-56.9048 460.5092,-52.7849 467.4653,-49.7745"/>
<polygon fill="#191970" stroke="#191970" points="403.3289,-332.4856 396.2581,-340.3757 406.706,-338.6171 403.3289,-332.4856"/>
</g>
<!-- Node213 -->
<g id="node28" class="node">
<title>Node213</title>
<g id="a_node28"><a xlink:href="class_bad_credentials_archive.html" target="_top" xlink:title="BadCredentialsArchive">
<polygon fill="#ffffff" stroke="#000000" points="289,-300 289,-319 405,-319 405,-300 289,-300"/>
<text text-anchor="middle" x="347" y="-307" font-family="Helvetica,sans-Serif" font-size="10.00" fill="#000000">BadCredentialsArchive</text>
</a>
</g>
</g>
<!-- Node212&#45;&gt;Node213 -->
<g id="edge27" class="edge">
<title>Node212&#45;&gt;Node213</title>
<path fill="none" stroke="#191970" d="M193.6454,-213.0814C211.7275,-234.4214 245.0266,-270.0786 281,-290.5 287.7401,-294.3262 295.3124,-297.4343 302.8598,-299.9423"/>
<polygon fill="#191970" stroke="#191970" points="196.1484,-210.6167 187.0708,-205.1535 190.7602,-215.0852 196.1484,-210.6167"/>
</g>
<!-- Node214 -->
<g id="node29" class="node">
<title>Node214</title>
<g id="a_node29"><a xlink:href="class_bad_credentials_content.html" target="_top" xlink:title="BadCredentialsContent">
<polygon fill="#ffffff" stroke="#000000" points="288,-262 288,-281 406,-281 406,-262 288,-262"/>
<text text-anchor="middle" x="347" y="-269" font-family="Helvetica,sans-Serif" font-size="10.00" fill="#000000">BadCredentialsContent</text>
</a>
</g>
</g>
<!-- Node212&#45;&gt;Node214 -->
<g id="edge28" class="edge">
<title>Node212&#45;&gt;Node214</title>
<path fill="none" stroke="#191970" d="M202.5525,-210.4876C222.634,-223.0384 252.8648,-240.7373 281,-252.5 289.5807,-256.0874 299.0597,-259.2526 308.0929,-261.9198"/>
<polygon fill="#191970" stroke="#191970" points="204.4047,-207.5177 194.084,-205.123 200.6587,-213.4311 204.4047,-207.5177"/>
</g>
<!-- Node215 -->
<g id="node30" class="node">
<title>Node215</title>
<g id="a_node30"><a xlink:href="class_bad_credentials_json.html" target="_top" xlink:title="BadCredentialsJson">
<polygon fill="#ffffff" stroke="#000000" points="295,-224 295,-243 399,-243 399,-224 295,-224"/>
<text text-anchor="middle" x="347" y="-231" font-family="Helvetica,sans-Serif" font-size="10.00" fill="#000000">BadCredentialsJson</text>
</a>
</g>
</g>
<!-- Node212&#45;&gt;Node215 -->
<g id="edge29" class="edge">
<title>Node212&#45;&gt;Node215</title>
<path fill="none" stroke="#191970" d="M231.6201,-207.3243C255.2347,-212.6816 282.782,-218.9311 305.0366,-223.9799"/>
<polygon fill="#191970" stroke="#191970" points="232.2939,-203.8883 221.7673,-205.089 230.7451,-210.7148 232.2939,-203.8883"/>
</g>
<!-- Node216 -->
<g id="node31" class="node">
<title>Node216</title>
<g id="a_node31"><a xlink:href="class_s_q_l_exception.html" target="_top" xlink:title="SQLException">
<polygon fill="#ffffff" stroke="#000000" points="307,-186 307,-205 387,-205 387,-186 307,-186"/>
<text text-anchor="middle" x="347" y="-193" font-family="Helvetica,sans-Serif" font-size="10.00" fill="#000000">SQLException</text>
</a>
</g>
</g>
<!-- Node212&#45;&gt;Node216 -->
<g id="edge30" class="edge">
<title>Node212&#45;&gt;Node216</title>
<path fill="none" stroke="#191970" d="M236.2228,-195.5C259.412,-195.5 285.6977,-195.5 306.843,-195.5"/>
<polygon fill="#191970" stroke="#191970" points="236.1581,-192.0001 226.1581,-195.5 236.1581,-199.0001 236.1581,-192.0001"/>
</g>
<!-- Node217 -->
<g id="node32" class="node">
<title>Node217</title>
<g id="a_node32"><a xlink:href="class_storage_exception.html" target="_top" xlink:title="StorageException">
<polygon fill="#ffffff" stroke="#000000" points="300,-148 300,-167 394,-167 394,-148 300,-148"/>
<text text-anchor="middle" x="347" y="-155" font-family="Helvetica,sans-Serif" font-size="10.00" fill="#000000">StorageException</text>
</a>
</g>
</g>
<!-- Node212&#45;&gt;Node217 -->
<g id="edge31" class="edge">
<title>Node212&#45;&gt;Node217</title>
<path fill="none" stroke="#191970" d="M231.6201,-183.6757C255.2347,-178.3184 282.782,-172.0689 305.0366,-167.0201"/>
<polygon fill="#191970" stroke="#191970" points="230.7451,-180.2852 221.7673,-185.911 232.2939,-187.1117 230.7451,-180.2852"/>
</g>
<!-- Node218 -->
<g id="node33" class="node">
<title>Node218</title>
<g id="a_node33"><a xlink:href="class_storage_lock_1_1locked__exception.html" target="_top" xlink:title="StorageLock::locked\l_exception">
<polygon fill="#ffffff" stroke="#000000" points="294,-98.5 294,-128.5 400,-128.5 400,-98.5 294,-98.5"/>
<text text-anchor="start" x="302" y="-116.5" font-family="Helvetica,sans-Serif" font-size="10.00" fill="#000000">StorageLock::locked</text>
<text text-anchor="middle" x="347" y="-105.5" font-family="Helvetica,sans-Serif" font-size="10.00" fill="#000000">_exception</text>
</a>
</g>
</g>
<!-- Node212&#45;&gt;Node218 -->
<g id="edge32" class="edge">
<title>Node212&#45;&gt;Node218</title>
<path fill="none" stroke="#8b1a1a" d="M203.5095,-180.6667C223.7449,-168.4965 253.6868,-151.2548 281,-138.5 288.4383,-135.0264 296.5039,-131.6586 304.3589,-128.5792"/>
<polygon fill="#8b1a1a" stroke="#8b1a1a" points="201.6728,-177.6872 194.9395,-185.8672 205.3043,-183.6716 201.6728,-177.6872"/>
</g>
<!-- Node219 -->
<g id="node34" class="node">
<title>Node219</title>
<g id="a_node34"><a xlink:href="class_storage_target_r_handle_1_1_read_error.html" target="_top" xlink:title="StorageTargetRHandle\l::ReadError">
<polygon fill="#ffffff" stroke="#000000" points="289,-49.5 289,-79.5 405,-79.5 405,-49.5 289,-49.5"/>
<text text-anchor="start" x="297" y="-67.5" font-family="Helvetica,sans-Serif" font-size="10.00" fill="#000000">StorageTargetRHandle</text>
<text text-anchor="middle" x="347" y="-56.5" font-family="Helvetica,sans-Serif" font-size="10.00" fill="#000000">::ReadError</text>
</a>
</g>
</g>
<!-- Node212&#45;&gt;Node219 -->
<g id="edge33" class="edge">
<title>Node212&#45;&gt;Node219</title>
<path fill="none" stroke="#191970" d="M192.4478,-177.6889C210.1169,-154.5109 243.8591,-114.0776 281,-89.5 286.7222,-85.7134 293.0991,-82.3872 299.5705,-79.5011"/>
<polygon fill="#191970" stroke="#191970" points="189.4724,-175.8237 186.2908,-185.9295 195.0801,-180.0135 189.4724,-175.8237"/>
</g>
<!-- Node220 -->
<g id="node35" class="node">
<title>Node220</title>
<g id="a_node35"><a xlink:href="class_storage_target_w_handle_1_1_write_error.html" target="_top" xlink:title="StorageTargetWHandle\l::WriteError">
<polygon fill="#ffffff" stroke="#000000" points="287.5,-.5 287.5,-30.5 406.5,-30.5 406.5,-.5 287.5,-.5"/>
<text text-anchor="start" x="295.5" y="-18.5" font-family="Helvetica,sans-Serif" font-size="10.00" fill="#000000">StorageTargetWHandle</text>
<text text-anchor="middle" x="347" y="-7.5" font-family="Helvetica,sans-Serif" font-size="10.00" fill="#000000">::WriteError</text>
</a>
</g>
</g>
<!-- Node212&#45;&gt;Node220 -->
<g id="edge34" class="edge">
<title>Node212&#45;&gt;Node220</title>
<path fill="none" stroke="#191970" d="M187.2693,-176.354C201.3194,-143.9881 233.9263,-78.2994 281,-40.5 285.777,-36.6642 291.2056,-33.3731 296.8492,-30.5602"/>
<polygon fill="#191970" stroke="#191970" points="184.0251,-175.0397 183.3648,-185.6139 190.4752,-177.7594 184.0251,-175.0397"/>
</g>
</g>
</svg>
