<?xml version="1.0" encoding="UTF-8" standalone="no"?>
<!DOCTYPE svg PUBLIC "-//W3C//DTD SVG 1.1//EN"
 "http://www.w3.org/Graphics/SVG/1.1/DTD/svg11.dtd">
<!-- Generated by graphviz version 2.40.1 (20161225.0304)
 -->
<!-- Title: Graphical Class Hierarchy Pages: 1 -->
<svg width="302pt" height="104pt"
 viewBox="0.00 0.00 302.00 104.00" xmlns="http://www.w3.org/2000/svg" xmlns:xlink="http://www.w3.org/1999/xlink">
<g id="graph0" class="graph" transform="scale(1 1) rotate(0) translate(4 100)">
<title>Graphical Class Hierarchy</title>
<polygon fill="#ffffff" stroke="transparent" points="-4,4 -4,-100 298,-100 298,4 -4,4"/>
<!-- Node0 -->
<g id="node1" class="node">
<title>Node0</title>
<g id="a_node1"><a xlink:href="class_execution_controller.html" target="_top" xlink:title="ExecutionController">
<polygon fill="#ffffff" stroke="#000000" points="0,-38.5 0,-57.5 102,-57.5 102,-38.5 0,-38.5"/>
<text text-anchor="middle" x="51" y="-45.5" font-family="Helvetica,sans-Serif" font-size="10.00" fill="#000000">ExecutionController</text>
</a>
</g>
</g>
<!-- Node1 -->
<g id="node2" class="node">
<title>Node1</title>
<g id="a_node2"><a xlink:href="class_fixed_execution_controller.html" target="_top" xlink:title="FixedExecutionController">
<polygon fill="#ffffff" stroke="#000000" points="153,-76.5 153,-95.5 279,-95.5 279,-76.5 153,-76.5"/>
<text text-anchor="middle" x="216" y="-83.5" font-family="Helvetica,sans-Serif" font-size="10.00" fill="#000000">FixedExecutionController</text>
</a>
</g>
</g>
<!-- Node0&#45;&gt;Node1 -->
<g id="edge1" class="edge">
<title>Node0&#45;&gt;Node1</title>
<path fill="none" stroke="#191970" d="M102.654,-59.8961C125.8465,-65.2374 152.8383,-71.4537 174.6629,-76.4799"/>
<polygon fill="#191970" stroke="#191970" points="103.1669,-56.4226 92.6365,-57.589 101.5959,-63.2441 103.1669,-56.4226"/>
</g>
<!-- Node2 -->
<g id="node3" class="node">
<title>Node2</title>
<g id="a_node3"><a xlink:href="class_interruptable_execution_controller.html" target="_top" xlink:title="InterruptableExecutionController">
<polygon fill="#ffffff" stroke="#000000" points="138,-38.5 138,-57.5 294,-57.5 294,-38.5 138,-38.5"/>
<text text-anchor="middle" x="216" y="-45.5" font-family="Helvetica,sans-Serif" font-size="10.00" fill="#000000">InterruptableExecutionController</text>
</a>
</g>
</g>
<!-- Node0&#45;&gt;Node2 -->
<g id="edge2" class="edge">
<title>Node0&#45;&gt;Node2</title>
<path fill="none" stroke="#191970" d="M112.5422,-48C120.7733,-48 129.3025,-48 137.7715,-48"/>
<polygon fill="#191970" stroke="#191970" points="112.3026,-44.5001 102.3026,-48 112.3025,-51.5001 112.3026,-44.5001"/>
</g>
<!-- Node3 -->
<g id="node4" class="node">
<title>Node3</title>
<g id="a_node4"><a xlink:href="class_unbounded_execution_controller.html" target="_top" xlink:title="UnboundedExecutionController">
<polygon fill="#ffffff" stroke="#000000" points="140,-.5 140,-19.5 292,-19.5 292,-.5 140,-.5"/>
<text text-anchor="middle" x="216" y="-7.5" font-family="Helvetica,sans-Serif" font-size="10.00" fill="#000000">UnboundedExecutionController</text>
</a>
</g>
</g>
<!-- Node0&#45;&gt;Node3 -->
<g id="edge3" class="edge">
<title>Node0&#45;&gt;Node3</title>
<path fill="none" stroke="#8b1a1a" d="M102.654,-36.1039C125.8465,-30.7626 152.8383,-24.5463 174.6629,-19.5201"/>
<polygon fill="#8b1a1a" stroke="#8b1a1a" points="101.5959,-32.7559 92.6365,-38.411 103.1669,-39.5774 101.5959,-32.7559"/>
</g>
</g>
</svg>
