<?xml version="1.0" encoding="UTF-8" standalone="no"?>
<!DOCTYPE svg PUBLIC "-//W3C//DTD SVG 1.1//EN"
 "http://www.w3.org/Graphics/SVG/1.1/DTD/svg11.dtd">
<!-- Generated by graphviz version 2.40.1 (20161225.0304)
 -->
<!-- Title: archive_state Pages: 1 -->
<svg width="248pt" height="277pt"
 viewBox="0.00 0.00 248.00 277.00" xmlns="http://www.w3.org/2000/svg" xmlns:xlink="http://www.w3.org/1999/xlink">
<g id="graph0" class="graph" transform="scale(1 1) rotate(0) translate(4 273)">
<title>archive_state</title>
<polygon fill="#ffffff" stroke="transparent" points="-4,4 -4,-273 244,-273 244,4 -4,4"/>
<!-- Node1 -->
<g id="node1" class="node">
<title>Node1</title>
<polygon fill="#bfbfbf" stroke="#000000" points="66.5,-.5 66.5,-19.5 141.5,-19.5 141.5,-.5 66.5,-.5"/>
<text text-anchor="middle" x="104" y="-7.5" font-family="Helvetica,sans-Serif" font-size="10.00" fill="#000000">archive_state</text>
</g>
<!-- Node2 -->
<g id="node2" class="node">
<title>Node2</title>
<polygon fill="#ffffff" stroke="#bfbfbf" points="0,-67.5 0,-86.5 130,-86.5 130,-67.5 0,-67.5"/>
<text text-anchor="middle" x="65" y="-74.5" font-family="Helvetica,sans-Serif" font-size="10.00" fill="#000000">std::array&lt; char, BSIZE &gt;</text>
</g>
<!-- Node2&#45;&gt;Node1 -->
<g id="edge1" class="edge">
<title>Node2&#45;&gt;Node1</title>
<path fill="none" stroke="#9a32cd" stroke-dasharray="5,2" d="M75.7047,-58.6099C83.0567,-45.9795 92.5188,-29.7241 98.4226,-19.5817"/>
<polygon fill="#9a32cd" stroke="#9a32cd" points="72.5936,-56.9973 70.5877,-67.4005 78.6434,-60.5188 72.5936,-56.9973"/>
<text text-anchor="middle" x="94.5" y="-41" font-family="Helvetica,sans-Serif" font-size="10.00" fill="#000000"> buf</text>
</g>
<!-- Node3 -->
<g id="node3" class="node">
<title>Node3</title>
<g id="a_node3"><a xlink:title="STL class. ">
<polygon fill="#ffffff" stroke="#bfbfbf" points="148,-67.5 148,-86.5 216,-86.5 216,-67.5 148,-67.5"/>
<text text-anchor="middle" x="182" y="-74.5" font-family="Helvetica,sans-Serif" font-size="10.00" fill="#000000">std::istream</text>
</a>
</g>
</g>
<!-- Node3&#45;&gt;Node1 -->
<g id="edge2" class="edge">
<title>Node3&#45;&gt;Node1</title>
<path fill="none" stroke="#9a32cd" stroke-dasharray="5,2" d="M163.1394,-60.7992C148.1376,-47.9131 127.6569,-30.3207 115.1548,-19.5817"/>
<polygon fill="#9a32cd" stroke="#9a32cd" points="160.9582,-63.5396 170.8245,-67.4005 165.5194,-58.2296 160.9582,-63.5396"/>
<text text-anchor="middle" x="152.5" y="-41" font-family="Helvetica,sans-Serif" font-size="10.00" fill="#000000"> is</text>
</g>
<!-- Node4 -->
<g id="node4" class="node">
<title>Node4</title>
<g id="a_node4"><a xlink:title="STL class. ">
<polygon fill="#ffffff" stroke="#bfbfbf" points="133.5,-124.5 133.5,-154.5 230.5,-154.5 230.5,-124.5 133.5,-124.5"/>
<text text-anchor="start" x="141.5" y="-142.5" font-family="Helvetica,sans-Serif" font-size="10.00" fill="#000000">std::basic_istream</text>
<text text-anchor="middle" x="182" y="-131.5" font-family="Helvetica,sans-Serif" font-size="10.00" fill="#000000">&lt; char &gt;</text>
</a>
</g>
</g>
<!-- Node4&#45;&gt;Node3 -->
<g id="edge3" class="edge">
<title>Node4&#45;&gt;Node3</title>
<path fill="none" stroke="#191970" d="M182,-114.3498C182,-104.6481 182,-94.1303 182,-86.7356"/>
<polygon fill="#191970" stroke="#191970" points="178.5001,-114.3705 182,-124.3705 185.5001,-114.3705 178.5001,-114.3705"/>
</g>
<!-- Node5 -->
<g id="node5" class="node">
<title>Node5</title>
<g id="a_node5"><a xlink:title="STL class. ">
<polygon fill="#ffffff" stroke="#bfbfbf" points="124,-192.5 124,-211.5 240,-211.5 240,-192.5 124,-192.5"/>
<text text-anchor="middle" x="182" y="-199.5" font-family="Helvetica,sans-Serif" font-size="10.00" fill="#000000">std::basic_ios&lt; Char &gt;</text>
</a>
</g>
</g>
<!-- Node5&#45;&gt;Node4 -->
<g id="edge4" class="edge">
<title>Node5&#45;&gt;Node4</title>
<path fill="none" stroke="#191970" d="M182,-182.0501C182,-173.2205 182,-163.0001 182,-154.7892"/>
<polygon fill="#191970" stroke="#191970" points="178.5001,-182.2343 182,-192.2344 185.5001,-182.2344 178.5001,-182.2343"/>
</g>
<!-- Node6 -->
<g id="node6" class="node">
<title>Node6</title>
<g id="a_node6"><a xlink:title="STL class. ">
<polygon fill="#ffffff" stroke="#bfbfbf" points="144.5,-249.5 144.5,-268.5 219.5,-268.5 219.5,-249.5 144.5,-249.5"/>
<text text-anchor="middle" x="182" y="-256.5" font-family="Helvetica,sans-Serif" font-size="10.00" fill="#000000">std::ios_base</text>
</a>
</g>
</g>
<!-- Node6&#45;&gt;Node5 -->
<g id="edge5" class="edge">
<title>Node6&#45;&gt;Node5</title>
<path fill="none" stroke="#191970" d="M182,-239.2342C182,-229.8491 182,-219.0651 182,-211.5265"/>
<polygon fill="#191970" stroke="#191970" points="178.5001,-239.3307 182,-249.3307 185.5001,-239.3308 178.5001,-239.3307"/>
</g>
</g>
</svg>
