<?xml version="1.0" encoding="UTF-8" standalone="no"?>
<!DOCTYPE svg PUBLIC "-//W3C//DTD SVG 1.1//EN"
 "http://www.w3.org/Graphics/SVG/1.1/DTD/svg11.dtd">
<!-- Generated by graphviz version 2.43.0 (0)
 -->
<!-- Title: event::AllInstallsComplete Pages: 1 -->
<!--zoomable 518 -->
<svg id="main" version="1.1" xmlns="http://www.w3.org/2000/svg" xmlns:xlink="http://www.w3.org/1999/xlink" xml:space="preserve" onload="init(evt)">
<style type="text/css"><![CDATA[
.edge:hover path { stroke: red; }
.edge:hover polygon { stroke: red; fill: red; }
]]></style>
<script type="text/javascript"><![CDATA[
var edges = document.getElementsByTagName('g');
if (edges && edges.length) {
  for (var i=0;i<edges.length;i++) {
    if (edges[i].id.substr(0,4)=='edge') {
      edges[i].setAttribute('class','edge');
    }
  }
}
]]></script>
        <defs>
                <circle id="rim" cx="0" cy="0" r="7"/>
                <circle id="rim2" cx="0" cy="0" r="3.5"/>
                <g id="zoomPlus">
                        <use xlink:href="#rim" fill="#404040">
                                <set attributeName="fill" to="#808080" begin="zoomplus.mouseover" end="zoomplus.mouseout"/>
                        </use>
                        <path d="M-4,0h8M0,-4v8" fill="none" stroke="white" stroke-width="1.5" pointer-events="none"/>
                </g>
                <g id="zoomMin">
                        <use xlink:href="#rim" fill="#404040">
                                <set attributeName="fill" to="#808080" begin="zoomminus.mouseover" end="zoomminus.mouseout"/>
                        </use>
                        <path d="M-4,0h8" fill="none" stroke="white" stroke-width="1.5" pointer-events="none"/>
                </g>
                <g id="dirArrow">
                        <path fill="none" stroke="white" stroke-width="1.5" d="M0,-3.0v7 M-2.5,-0.5L0,-3.0L2.5,-0.5"/>
                </g>
               <g id="resetDef">
                       <use xlink:href="#rim2" fill="#404040">
                               <set attributeName="fill" to="#808080" begin="reset.mouseover" end="reset.mouseout"/>
                       </use>
               </g>
        </defs>

<script type="text/javascript">
var viewWidth = 404;
var viewHeight = 518;
var sectionId = 'dynsection-1';
</script>
<script xlink:href="svgpan.js"/>
<svg id="graph" class="graph">
<g id="viewport">
<title>event::AllInstallsComplete</title>
<polygon fill="white" stroke="transparent" points="-4,4 -4,-514 399.5,-514 399.5,4 -4,4"/>
<!-- Node1 -->
<g id="node1" class="node">
<title>Node1</title>
<g id="a_node1"><a xlink:title="All ECU installation attempts for an update have completed.">
<polygon fill="#bfbfbf" stroke="black" points="8,-0.5 8,-19.5 154,-19.5 154,-0.5 8,-0.5"/>
<text text-anchor="middle" x="81" y="-7.5" font-family="Helvetica,sans-Serif" font-size="10.00">event::AllInstallsComplete</text>
</a>
</g>
</g>
<!-- Node2 -->
<g id="node2" class="node">
<title>Node2</title>
<g id="a_node2"><a xlink:href="classevent_1_1_base_event.html" target="_top" xlink:title="Base class for all event objects.">
<polygon fill="white" stroke="black" points="0,-317.5 0,-336.5 102,-336.5 102,-317.5 0,-317.5"/>
<text text-anchor="middle" x="51" y="-324.5" font-family="Helvetica,sans-Serif" font-size="10.00">event::BaseEvent</text>
</a>
</g>
</g>
<!-- Node2&#45;&gt;Node1 -->
<g id="edge1" class="edge">
<title>Node2&#45;&gt;Node1</title>
<path fill="none" stroke="midnightblue" d="M56.85,-307.34C60.69,-293.46 65,-273.98 65,-256.5 65,-256.5 65,-256.5 65,-76 65,-55.31 72.74,-31.97 77.45,-19.66"/>
<polygon fill="midnightblue" stroke="midnightblue" points="53.44,-306.54 53.97,-317.12 60.15,-308.52 53.44,-306.54"/>
</g>
<!-- Node3 -->
<g id="node3" class="node">
<title>Node3</title>
<g id="a_node3"><a xlink:title="STL class.">
<polygon fill="white" stroke="#bfbfbf" points="107.5,-422.5 107.5,-441.5 172.5,-441.5 172.5,-422.5 107.5,-422.5"/>
<text text-anchor="middle" x="140" y="-429.5" font-family="Helvetica,sans-Serif" font-size="10.00">std::string</text>
</a>
</g>
</g>
<!-- Node3&#45;&gt;Node2 -->
<g id="edge2" class="edge">
<title>Node3&#45;&gt;Node2</title>
<path fill="none" stroke="#9a32cd" stroke-dasharray="5,2" d="M97.67,-424.05C85.53,-420.07 73.34,-413.82 65,-404 48.51,-384.56 48.78,-352.11 50.02,-336.67"/>
<polygon fill="#9a32cd" stroke="#9a32cd" points="96.75,-427.43 107.33,-426.78 98.65,-420.69 96.75,-427.43"/>
<text text-anchor="middle" x="84" y="-396" font-family="Helvetica,sans-Serif" font-size="10.00"> variant</text>
</g>
<!-- Node5 -->
<g id="node5" class="node">
<title>Node5</title>
<g id="a_node5"><a xlink:href="classresult_1_1_install.html" target="_top" xlink:title="Container for information about installing an update.">
<polygon fill="white" stroke="black" points="122,-67.5 122,-86.5 202,-86.5 202,-67.5 122,-67.5"/>
<text text-anchor="middle" x="162" y="-74.5" font-family="Helvetica,sans-Serif" font-size="10.00">result::Install</text>
</a>
</g>
</g>
<!-- Node3&#45;&gt;Node5 -->
<g id="edge9" class="edge">
<title>Node3&#45;&gt;Node5</title>
<path fill="none" stroke="#9a32cd" stroke-dasharray="5,2" d="M129.96,-413.07C123.77,-400.34 117,-382.62 117,-366 117,-366 117,-366 117,-148.5 117,-122.94 138.27,-99.21 151.56,-86.86"/>
<polygon fill="#9a32cd" stroke="#9a32cd" points="126.94,-414.85 134.67,-422.1 133.15,-411.61 126.94,-414.85"/>
<text text-anchor="middle" x="145" y="-253" font-family="Helvetica,sans-Serif" font-size="10.00"> raw_report</text>
</g>
<!-- Node6 -->
<g id="node6" class="node">
<title>Node6</title>
<g id="a_node6"><a xlink:href="structdata_1_1_installation_result.html" target="_top" xlink:title=" ">
<polygon fill="white" stroke="black" points="145.5,-279.5 145.5,-298.5 274.5,-298.5 274.5,-279.5 145.5,-279.5"/>
<text text-anchor="middle" x="210" y="-286.5" font-family="Helvetica,sans-Serif" font-size="10.00">data::InstallationResult</text>
</a>
</g>
</g>
<!-- Node3&#45;&gt;Node6 -->
<g id="edge8" class="edge">
<title>Node3&#45;&gt;Node6</title>
<path fill="none" stroke="#9a32cd" stroke-dasharray="5,2" d="M146.84,-412.93C152.92,-397.34 162.32,-374.35 172,-355 182.41,-334.19 196.71,-310.89 204.47,-298.63"/>
<polygon fill="#9a32cd" stroke="#9a32cd" points="143.52,-411.81 143.2,-422.4 150.05,-414.32 143.52,-411.81"/>
<text text-anchor="middle" x="201" y="-362.5" font-family="Helvetica,sans-Serif" font-size="10.00"> description</text>
</g>
<!-- Node7 -->
<g id="node7" class="node">
<title>Node7</title>
<g id="a_node7"><a xlink:href="structdata_1_1_result_code.html" target="_top" xlink:title=" ">
<polygon fill="white" stroke="black" points="239.5,-355.5 239.5,-374.5 338.5,-374.5 338.5,-355.5 239.5,-355.5"/>
<text text-anchor="middle" x="289" y="-362.5" font-family="Helvetica,sans-Serif" font-size="10.00">data::ResultCode</text>
</a>
</g>
</g>
<!-- Node3&#45;&gt;Node7 -->
<g id="edge7" class="edge">
<title>Node3&#45;&gt;Node7</title>
<path fill="none" stroke="#9a32cd" stroke-dasharray="5,2" d="M169.16,-418.28C198.66,-405.41 243.49,-385.85 269.13,-374.67"/>
<polygon fill="#9a32cd" stroke="#9a32cd" points="167.55,-415.16 159.79,-422.37 170.35,-421.58 167.55,-415.16"/>
<text text-anchor="middle" x="250" y="-396" font-family="Helvetica,sans-Serif" font-size="10.00"> text_code</text>
</g>
<!-- Node4 -->
<g id="node4" class="node">
<title>Node4</title>
<g id="a_node4"><a xlink:title="STL class.">
<polygon fill="white" stroke="#bfbfbf" points="88,-479.5 88,-509.5 192,-509.5 192,-479.5 88,-479.5"/>
<text text-anchor="start" x="96" y="-497.5" font-family="Helvetica,sans-Serif" font-size="10.00">std::basic_string&lt;</text>
<text text-anchor="middle" x="140" y="-486.5" font-family="Helvetica,sans-Serif" font-size="10.00"> char &gt;</text>
</a>
</g>
</g>
<!-- Node4&#45;&gt;Node3 -->
<g id="edge3" class="edge">
<title>Node4&#45;&gt;Node3</title>
<path fill="none" stroke="midnightblue" d="M140,-469.35C140,-459.51 140,-448.78 140,-441.54"/>
<polygon fill="midnightblue" stroke="midnightblue" points="136.5,-469.47 140,-479.47 143.5,-469.47 136.5,-469.47"/>
</g>
<!-- Node5&#45;&gt;Node1 -->
<g id="edge4" class="edge">
<title>Node5&#45;&gt;Node1</title>
<path fill="none" stroke="#9a32cd" stroke-dasharray="5,2" d="M142.95,-60.71C126.99,-47.91 104.79,-30.09 91.75,-19.63"/>
<polygon fill="#9a32cd" stroke="#9a32cd" points="141.09,-63.7 151.08,-67.23 145.47,-58.25 141.09,-63.7"/>
<text text-anchor="middle" x="142.5" y="-41" font-family="Helvetica,sans-Serif" font-size="10.00"> result</text>
</g>
<!-- Node6&#45;&gt;Node5 -->
<g id="edge5" class="edge">
<title>Node6&#45;&gt;Node5</title>
<path fill="none" stroke="#9a32cd" stroke-dasharray="5,2" d="M205.75,-269.4C195.78,-225.79 171.21,-118.27 164.01,-86.79"/>
<polygon fill="#9a32cd" stroke="#9a32cd" points="202.36,-270.28 208,-279.24 209.18,-268.72 202.36,-270.28"/>
<text text-anchor="middle" x="217" y="-186" font-family="Helvetica,sans-Serif" font-size="10.00"> dev_report</text>
</g>
<!-- Node9 -->
<g id="node9" class="node">
<title>Node9</title>
<g id="a_node9"><a xlink:href="classresult_1_1_install_1_1_ecu_report.html" target="_top" xlink:title=" ">
<polygon fill="white" stroke="black" points="216.5,-212.5 216.5,-231.5 351.5,-231.5 351.5,-212.5 216.5,-212.5"/>
<text text-anchor="middle" x="284" y="-219.5" font-family="Helvetica,sans-Serif" font-size="10.00">result::Install::EcuReport</text>
</a>
</g>
</g>
<!-- Node6&#45;&gt;Node9 -->
<g id="edge12" class="edge">
<title>Node6&#45;&gt;Node9</title>
<path fill="none" stroke="#9a32cd" stroke-dasharray="5,2" d="M226.82,-272.54C234.45,-265.59 243.63,-257.32 252,-250 259.12,-243.78 267.26,-236.92 273.55,-231.66"/>
<polygon fill="#9a32cd" stroke="#9a32cd" points="224.28,-270.12 219.26,-279.45 229,-275.29 224.28,-270.12"/>
<text text-anchor="middle" x="279" y="-253" font-family="Helvetica,sans-Serif" font-size="10.00"> install_res</text>
</g>
<!-- Node7&#45;&gt;Node6 -->
<g id="edge6" class="edge">
<title>Node7&#45;&gt;Node6</title>
<path fill="none" stroke="#9a32cd" stroke-dasharray="5,2" d="M271.98,-348.06C255.88,-332.98 232.3,-310.89 219.36,-298.77"/>
<polygon fill="#9a32cd" stroke="#9a32cd" points="269.94,-350.94 279.63,-355.22 274.72,-345.83 269.94,-350.94"/>
<text text-anchor="middle" x="288" y="-324.5" font-family="Helvetica,sans-Serif" font-size="10.00"> result_code</text>
</g>
<!-- Node8 -->
<g id="node8" class="node">
<title>Node8</title>
<g id="a_node8"><a xlink:title=" ">
<polygon fill="white" stroke="#bfbfbf" points="220.5,-134.5 220.5,-164.5 339.5,-164.5 339.5,-134.5 220.5,-134.5"/>
<text text-anchor="start" x="228.5" y="-152.5" font-family="Helvetica,sans-Serif" font-size="10.00">std::vector&lt; result</text>
<text text-anchor="middle" x="280" y="-141.5" font-family="Helvetica,sans-Serif" font-size="10.00">::Install::EcuReport &gt;</text>
</a>
</g>
</g>
<!-- Node8&#45;&gt;Node5 -->
<g id="edge10" class="edge">
<title>Node8&#45;&gt;Node5</title>
<path fill="none" stroke="#9a32cd" stroke-dasharray="5,2" d="M247.52,-129.1C224.18,-115.15 193.84,-97.02 176.28,-86.53"/>
<polygon fill="#9a32cd" stroke="#9a32cd" points="246.02,-132.28 256.4,-134.4 249.62,-126.27 246.02,-132.28"/>
<text text-anchor="middle" x="255.5" y="-108" font-family="Helvetica,sans-Serif" font-size="10.00"> ecu_reports</text>
</g>
<!-- Node9&#45;&gt;Node8 -->
<g id="edge11" class="edge">
<title>Node9&#45;&gt;Node8</title>
<path fill="none" stroke="#9a32cd" stroke-dasharray="5,2" d="M282.94,-202.24C282.26,-190.41 281.41,-175.38 280.8,-164.58"/>
<polygon fill="#9a32cd" stroke="#9a32cd" points="279.45,-202.57 283.51,-212.36 286.44,-202.17 279.45,-202.57"/>
<text text-anchor="middle" x="306.5" y="-186" font-family="Helvetica,sans-Serif" font-size="10.00"> elements</text>
</g>
<!-- Node10 -->
<g id="node10" class="node">
<title>Node10</title>
<g id="a_node10"><a xlink:href="class_uptane_1_1_ecu_serial.html" target="_top" xlink:title=" ">
<polygon fill="white" stroke="black" points="292.5,-279.5 292.5,-298.5 395.5,-298.5 395.5,-279.5 292.5,-279.5"/>
<text text-anchor="middle" x="344" y="-286.5" font-family="Helvetica,sans-Serif" font-size="10.00">Uptane::EcuSerial</text>
</a>
</g>
</g>
<!-- Node10&#45;&gt;Node9 -->
<g id="edge13" class="edge">
<title>Node10&#45;&gt;Node9</title>
<path fill="none" stroke="#9a32cd" stroke-dasharray="5,2" d="M328.89,-271.63C317.16,-258.92 301.35,-241.8 291.96,-231.63"/>
<polygon fill="#9a32cd" stroke="#9a32cd" points="326.55,-274.26 335.91,-279.23 331.7,-269.51 326.55,-274.26"/>
<text text-anchor="middle" x="332.5" y="-253" font-family="Helvetica,sans-Serif" font-size="10.00"> serial</text>
</g>
</g>
</svg>
        <g id="navigator" transform="translate(0 0)" fill="#404254">
                <rect fill="#f2f5e9" fill-opacity="0.5" stroke="#606060" stroke-width=".5" x="0" y="0" width="60" height="60"/>
                <use id="zoomplus" xlink:href="#zoomPlus" x="17" y="9" onmousedown="handleZoom(evt,'in')"/>
                <use id="zoomminus" xlink:href="#zoomMin" x="42" y="9" onmousedown="handleZoom(evt,'out')"/>
                <use id="reset" xlink:href="#resetDef" x="30" y="36" onmousedown="handleReset()"/>
                <g id="arrowUp" xlink:href="#dirArrow" transform="translate(30 24)" onmousedown="handlePan(0,-1)">
                  <use xlink:href="#rim" fill="#404040">
                        <set attributeName="fill" to="#808080" begin="arrowUp.mouseover" end="arrowUp.mouseout"/>
                  </use>
                  <path fill="none" stroke="white" stroke-width="1.5" d="M0,-3.0v7 M-2.5,-0.5L0,-3.0L2.5,-0.5"/>
                </g>
                <g id="arrowRight" xlink:href="#dirArrow" transform="rotate(90) translate(36 -43)" onmousedown="handlePan(1,0)">
                  <use xlink:href="#rim" fill="#404040">
                        <set attributeName="fill" to="#808080" begin="arrowRight.mouseover" end="arrowRight.mouseout"/>
                  </use>
                  <path fill="none" stroke="white" stroke-width="1.5" d="M0,-3.0v7 M-2.5,-0.5L0,-3.0L2.5,-0.5"/>
                </g>
                <g id="arrowDown" xlink:href="#dirArrow" transform="rotate(180) translate(-30 -48)" onmousedown="handlePan(0,1)">
                  <use xlink:href="#rim" fill="#404040">
                        <set attributeName="fill" to="#808080" begin="arrowDown.mouseover" end="arrowDown.mouseout"/>
                  </use>
                  <path fill="none" stroke="white" stroke-width="1.5" d="M0,-3.0v7 M-2.5,-0.5L0,-3.0L2.5,-0.5"/>
                </g>
                <g id="arrowLeft" xlink:href="#dirArrow" transform="rotate(270) translate(-36 17)" onmousedown="handlePan(-1,0)">
                  <use xlink:href="#rim" fill="#404040">
                        <set attributeName="fill" to="#808080" begin="arrowLeft.mouseover" end="arrowLeft.mouseout"/>
                  </use>
                  <path fill="none" stroke="white" stroke-width="1.5" d="M0,-3.0v7 M-2.5,-0.5L0,-3.0L2.5,-0.5"/>
                </g>
        </g>
        <svg viewBox="0 0 15 15" width="100%" height="30px" preserveAspectRatio="xMaxYMin meet">
         <g id="arrow_out" transform="scale(0.3 0.3)">
          <a xlink:href="classevent_1_1_all_installs_complete__coll__graph_org.svg" target="_base">
           <rect id="button" ry="5" rx="5" y="6" x="6" height="38" width="38"
                fill="#f2f5e9" fill-opacity="0.5" stroke="#606060" stroke-width="1.0"/>
           <path id="arrow"
             d="M 11.500037,31.436501 C 11.940474,20.09759 22.043105,11.32322 32.158766,21.979434 L 37.068811,17.246167 C 37.068811,17.246167 37.088388,32 37.088388,32 L 22.160133,31.978069 C 22.160133,31.978069 26.997745,27.140456 26.997745,27.140456 C 18.528582,18.264221 13.291696,25.230495 11.500037,31.436501 z"
             style="fill:#404040;"/>
          </a>
         </g>
        </svg>
</svg>
