<?xml version="1.0" encoding="UTF-8" standalone="no"?>
<!DOCTYPE svg PUBLIC "-//W3C//DTD SVG 1.1//EN"
 "http://www.w3.org/Graphics/SVG/1.1/DTD/svg11.dtd">
<!-- Generated by graphviz version 2.43.0 (0)
 -->
<!-- Title: AktualizrSecondaryConfig Pages: 1 -->
<svg width="965pt" height="503pt"
 viewBox="0.00 0.00 965.00 503.40" xmlns="http://www.w3.org/2000/svg" xmlns:xlink="http://www.w3.org/1999/xlink">
<g id="graph0" class="graph" transform="scale(1 1) rotate(0) translate(4 499.4)">
<title>AktualizrSecondaryConfig</title>
<polygon fill="white" stroke="transparent" points="-4,4 -4,-499.4 961,-499.4 961,4 -4,4"/>
<!-- Node1 -->
<g id="node1" class="node">
<title>Node1</title>
<g id="a_node1"><a xlink:title=" ">
<polygon fill="#bfbfbf" stroke="black" points="815,-185.4 815,-204.4 957,-204.4 957,-185.4 815,-185.4"/>
<text text-anchor="middle" x="886" y="-192.4" font-family="Helvetica,sans-Serif" font-size="10.00">AktualizrSecondaryConfig</text>
</a>
</g>
</g>
<!-- Node2 -->
<g id="node2" class="node">
<title>Node2</title>
<g id="a_node2"><a xlink:href="class_base_config.html" target="_top" xlink:title=" ">
<polygon fill="white" stroke="black" points="656.5,-419.4 656.5,-438.4 727.5,-438.4 727.5,-419.4 656.5,-419.4"/>
<text text-anchor="middle" x="692" y="-426.4" font-family="Helvetica,sans-Serif" font-size="10.00">BaseConfig</text>
</a>
</g>
</g>
<!-- Node2&#45;&gt;Node1 -->
<g id="edge1" class="edge">
<title>Node2&#45;&gt;Node1</title>
<path fill="none" stroke="midnightblue" d="M712.4,-412.61C734.29,-393.71 770.32,-361.02 797,-328.9 832.92,-285.65 866.94,-227.22 879.7,-204.49"/>
<polygon fill="midnightblue" stroke="midnightblue" points="710.08,-409.99 704.75,-419.15 714.62,-415.31 710.08,-409.99"/>
</g>
<!-- Node3 -->
<g id="node3" class="node">
<title>Node3</title>
<g id="a_node3"><a xlink:title=" ">
<polygon fill="white" stroke="#bfbfbf" points="335.5,-464.9 335.5,-494.9 448.5,-494.9 448.5,-464.9 335.5,-464.9"/>
<text text-anchor="start" x="343.5" y="-482.9" font-family="Helvetica,sans-Serif" font-size="10.00">std::vector&lt; boost</text>
<text text-anchor="middle" x="392" y="-471.9" font-family="Helvetica,sans-Serif" font-size="10.00">::filesystem::path &gt;</text>
</a>
</g>
</g>
<!-- Node3&#45;&gt;Node2 -->
<g id="edge2" class="edge">
<title>Node3&#45;&gt;Node2</title>
<path fill="none" stroke="#9a32cd" stroke-dasharray="5,2" d="M459.05,-472.12C506.78,-466.02 572.67,-456.61 630,-444.9 638.9,-443.08 648.45,-440.76 657.28,-438.45"/>
<polygon fill="#9a32cd" stroke="#9a32cd" points="458.33,-468.68 448.85,-473.41 459.21,-475.63 458.33,-468.68"/>
<text text-anchor="middle" x="550.5" y="-472.9" font-family="Helvetica,sans-Serif" font-size="10.00"> config_dirs_</text>
</g>
<!-- Node4 -->
<g id="node4" class="node">
<title>Node4</title>
<g id="a_node4"><a xlink:href="struct_storage_config.html" target="_top" xlink:title=" ">
<polygon fill="white" stroke="black" points="649.5,-345.4 649.5,-364.4 734.5,-364.4 734.5,-345.4 649.5,-345.4"/>
<text text-anchor="middle" x="692" y="-352.4" font-family="Helvetica,sans-Serif" font-size="10.00">StorageConfig</text>
</a>
</g>
</g>
<!-- Node4&#45;&gt;Node1 -->
<g id="edge3" class="edge">
<title>Node4&#45;&gt;Node1</title>
<path fill="none" stroke="#9a32cd" stroke-dasharray="5,2" d="M717.38,-339.8C739.04,-325.97 771.18,-304.44 797,-282.9 828.35,-256.73 861.38,-221.24 876.51,-204.45"/>
<polygon fill="#9a32cd" stroke="#9a32cd" points="715.37,-336.93 708.79,-345.23 719.11,-342.85 715.37,-336.93"/>
<text text-anchor="middle" x="775.5" y="-316.9" font-family="Helvetica,sans-Serif" font-size="10.00"> storage</text>
</g>
<!-- Node5 -->
<g id="node5" class="node">
<title>Node5</title>
<g id="a_node5"><a xlink:href="class_based_path.html" target="_top" xlink:title=" ">
<polygon fill="white" stroke="black" points="358,-329.4 358,-348.4 426,-348.4 426,-329.4 358,-329.4"/>
<text text-anchor="middle" x="392" y="-336.4" font-family="Helvetica,sans-Serif" font-size="10.00">BasedPath</text>
</a>
</g>
</g>
<!-- Node5&#45;&gt;Node4 -->
<g id="edge4" class="edge">
<title>Node5&#45;&gt;Node4</title>
<path fill="none" stroke="#9a32cd" stroke-dasharray="5,2" d="M436.4,-343.86C447.66,-345.01 459.77,-346.12 471,-346.9 532.96,-351.2 604.9,-353.26 649.19,-354.19"/>
<polygon fill="#9a32cd" stroke="#9a32cd" points="436.67,-340.37 426.36,-342.81 435.94,-347.33 436.67,-340.37"/>
<text text-anchor="middle" x="550.5" y="-432.9" font-family="Helvetica,sans-Serif" font-size="10.00"> uptane_public_key_path</text>
<text text-anchor="middle" x="550.5" y="-421.9" font-family="Helvetica,sans-Serif" font-size="10.00">tls_pkey_path</text>
<text text-anchor="middle" x="550.5" y="-410.9" font-family="Helvetica,sans-Serif" font-size="10.00">uptane_metadata_path</text>
<text text-anchor="middle" x="550.5" y="-399.9" font-family="Helvetica,sans-Serif" font-size="10.00">sqldb_path</text>
<text text-anchor="start" x="489.5" y="-388.9" font-family="Helvetica,sans-Serif" font-size="10.00">uptane_private_key</text>
<text text-anchor="middle" x="550.5" y="-377.9" font-family="Helvetica,sans-Serif" font-size="10.00">_path</text>
<text text-anchor="middle" x="550.5" y="-366.9" font-family="Helvetica,sans-Serif" font-size="10.00">tls_cacert_path</text>
<text text-anchor="middle" x="550.5" y="-355.9" font-family="Helvetica,sans-Serif" font-size="10.00">tls_clientcert_path</text>
</g>
<!-- Node14 -->
<g id="node14" class="node">
<title>Node14</title>
<g id="a_node14"><a xlink:href="struct_import_config.html" target="_top" xlink:title=" ">
<polygon fill="white" stroke="black" points="652,-270.4 652,-289.4 732,-289.4 732,-270.4 652,-270.4"/>
<text text-anchor="middle" x="692" y="-277.4" font-family="Helvetica,sans-Serif" font-size="10.00">ImportConfig</text>
</a>
</g>
</g>
<!-- Node5&#45;&gt;Node14 -->
<g id="edge18" class="edge">
<title>Node5&#45;&gt;Node14</title>
<path fill="none" stroke="#9a32cd" stroke-dasharray="5,2" d="M408.43,-321.26C422.86,-306.21 445.92,-285.65 471,-276.9 531.41,-255.81 606.95,-263.6 651.96,-271.51"/>
<polygon fill="#9a32cd" stroke="#9a32cd" points="405.54,-319.23 401.33,-328.95 410.69,-323.97 405.54,-319.23"/>
<text text-anchor="middle" x="550.5" y="-334.9" font-family="Helvetica,sans-Serif" font-size="10.00"> uptane_public_key_path</text>
<text text-anchor="middle" x="550.5" y="-323.9" font-family="Helvetica,sans-Serif" font-size="10.00">tls_pkey_path</text>
<text text-anchor="start" x="489.5" y="-312.9" font-family="Helvetica,sans-Serif" font-size="10.00">uptane_private_key</text>
<text text-anchor="middle" x="550.5" y="-301.9" font-family="Helvetica,sans-Serif" font-size="10.00">_path</text>
<text text-anchor="middle" x="550.5" y="-290.9" font-family="Helvetica,sans-Serif" font-size="10.00">tls_cacert_path</text>
<text text-anchor="middle" x="550.5" y="-279.9" font-family="Helvetica,sans-Serif" font-size="10.00">tls_clientcert_path</text>
</g>
<!-- Node6 -->
<g id="node6" class="node">
<title>Node6</title>
<g id="a_node6"><a xlink:href="struct_aktualizr_secondary_uptane_config.html" target="_top" xlink:title=" ">
<polygon fill="white" stroke="black" points="477.5,-225.9 477.5,-255.9 623.5,-255.9 623.5,-225.9 477.5,-225.9"/>
<text text-anchor="start" x="485.5" y="-243.9" font-family="Helvetica,sans-Serif" font-size="10.00">AktualizrSecondaryUptane</text>
<text text-anchor="middle" x="550.5" y="-232.9" font-family="Helvetica,sans-Serif" font-size="10.00">Config</text>
</a>
</g>
</g>
<!-- Node6&#45;&gt;Node1 -->
<g id="edge5" class="edge">
<title>Node6&#45;&gt;Node1</title>
<path fill="none" stroke="#9a32cd" stroke-dasharray="5,2" d="M633.56,-231.43C681.32,-225.7 742.65,-217.96 797,-209.9 808.04,-208.26 819.83,-206.36 831.07,-204.47"/>
<polygon fill="#9a32cd" stroke="#9a32cd" points="633.1,-227.96 623.59,-232.62 633.93,-234.91 633.1,-227.96"/>
<text text-anchor="middle" x="692" y="-231.9" font-family="Helvetica,sans-Serif" font-size="10.00"> uptane</text>
</g>
<!-- Node7 -->
<g id="node7" class="node">
<title>Node7</title>
<g id="a_node7"><a xlink:title="STL class.">
<polygon fill="white" stroke="#bfbfbf" points="141,-131.4 141,-150.4 206,-150.4 206,-131.4 141,-131.4"/>
<text text-anchor="middle" x="173.5" y="-138.4" font-family="Helvetica,sans-Serif" font-size="10.00">std::string</text>
</a>
</g>
</g>
<!-- Node7&#45;&gt;Node6 -->
<g id="edge6" class="edge">
<title>Node7&#45;&gt;Node6</title>
<path fill="none" stroke="#9a32cd" stroke-dasharray="5,2" d="M180.8,-160.14C188.11,-179.32 202.03,-208.13 224,-223.9 301.24,-279.32 417.28,-269.32 487.94,-255.9"/>
<polygon fill="#9a32cd" stroke="#9a32cd" points="184.06,-158.87 177.42,-150.62 177.47,-161.21 184.06,-158.87"/>
<text text-anchor="middle" x="268.5" y="-272.9" font-family="Helvetica,sans-Serif" font-size="10.00"> ecu_hardware_id</text>
<text text-anchor="middle" x="268.5" y="-261.9" font-family="Helvetica,sans-Serif" font-size="10.00">ecu_serial</text>
</g>
<!-- Node10 -->
<g id="node10" class="node">
<title>Node10</title>
<g id="a_node10"><a xlink:href="struct_package_config.html" target="_top" xlink:title=" ">
<polygon fill="white" stroke="black" points="648,-185.4 648,-204.4 736,-204.4 736,-185.4 648,-185.4"/>
<text text-anchor="middle" x="692" y="-192.4" font-family="Helvetica,sans-Serif" font-size="10.00">PackageConfig</text>
</a>
</g>
</g>
<!-- Node7&#45;&gt;Node10 -->
<g id="edge12" class="edge">
<title>Node7&#45;&gt;Node10</title>
<path fill="none" stroke="#9a32cd" stroke-dasharray="5,2" d="M191.84,-157.18C200.75,-164.55 212.21,-172.56 224,-176.9 371.52,-231.21 563.24,-213.62 647.76,-201.86"/>
<polygon fill="#9a32cd" stroke="#9a32cd" points="193.97,-154.4 184.14,-150.46 189.37,-159.68 193.97,-154.4"/>
<text text-anchor="middle" x="392" y="-238.9" font-family="Helvetica,sans-Serif" font-size="10.00"> os</text>
<text text-anchor="middle" x="392" y="-227.9" font-family="Helvetica,sans-Serif" font-size="10.00">ostree_server</text>
<text text-anchor="middle" x="392" y="-216.9" font-family="Helvetica,sans-Serif" font-size="10.00">type</text>
</g>
<!-- Node11 -->
<g id="node11" class="node">
<title>Node11</title>
<g id="a_node11"><a xlink:title=" ">
<polygon fill="white" stroke="#bfbfbf" points="331,-142.9 331,-172.9 453,-172.9 453,-142.9 331,-142.9"/>
<text text-anchor="start" x="339" y="-160.9" font-family="Helvetica,sans-Serif" font-size="10.00">std::map&lt; std::string,</text>
<text text-anchor="middle" x="392" y="-149.9" font-family="Helvetica,sans-Serif" font-size="10.00"> std::string &gt;</text>
</a>
</g>
</g>
<!-- Node7&#45;&gt;Node11 -->
<g id="edge11" class="edge">
<title>Node7&#45;&gt;Node11</title>
<path fill="none" stroke="#9a32cd" stroke-dasharray="5,2" d="M216.5,-144.19C248.95,-146.74 294.31,-150.3 330.64,-153.16"/>
<polygon fill="#9a32cd" stroke="#9a32cd" points="216.69,-140.7 206.45,-143.4 216.14,-147.68 216.69,-140.7"/>
<text text-anchor="middle" x="268.5" y="-164.9" font-family="Helvetica,sans-Serif" font-size="10.00"> keys</text>
<text text-anchor="middle" x="268.5" y="-153.9" font-family="Helvetica,sans-Serif" font-size="10.00">elements</text>
</g>
<!-- Node12 -->
<g id="node12" class="node">
<title>Node12</title>
<g id="a_node12"><a xlink:href="struct_aktualizr_secondary_net_config.html" target="_top" xlink:title=" ">
<polygon fill="white" stroke="black" points="471,-116.4 471,-135.4 630,-135.4 630,-116.4 471,-116.4"/>
<text text-anchor="middle" x="550.5" y="-123.4" font-family="Helvetica,sans-Serif" font-size="10.00">AktualizrSecondaryNetConfig</text>
</a>
</g>
</g>
<!-- Node7&#45;&gt;Node12 -->
<g id="edge14" class="edge">
<title>Node7&#45;&gt;Node12</title>
<path fill="none" stroke="#9a32cd" stroke-dasharray="5,2" d="M215.89,-131.04C218.62,-130.59 221.35,-130.2 224,-129.9 307.93,-120.16 404.84,-120.43 470.95,-122.34"/>
<polygon fill="#9a32cd" stroke="#9a32cd" points="215.22,-127.61 206.02,-132.87 216.49,-134.49 215.22,-127.61"/>
<text text-anchor="middle" x="268.5" y="-132.9" font-family="Helvetica,sans-Serif" font-size="10.00"> primary_ip</text>
</g>
<!-- Node13 -->
<g id="node13" class="node">
<title>Node13</title>
<g id="a_node13"><a xlink:href="struct_p11_config.html" target="_top" xlink:title=" ">
<polygon fill="white" stroke="black" points="518,-59.4 518,-78.4 583,-78.4 583,-59.4 518,-59.4"/>
<text text-anchor="middle" x="550.5" y="-66.4" font-family="Helvetica,sans-Serif" font-size="10.00">P11Config</text>
</a>
</g>
</g>
<!-- Node7&#45;&gt;Node13 -->
<g id="edge16" class="edge">
<title>Node7&#45;&gt;Node13</title>
<path fill="none" stroke="#9a32cd" stroke-dasharray="5,2" d="M180.69,-121.82C187.86,-103.25 201.62,-76.11 224,-63.9 273.85,-36.68 446.08,-55.28 517.79,-64.53"/>
<polygon fill="#9a32cd" stroke="#9a32cd" points="177.36,-120.74 177.3,-131.34 183.95,-123.09 177.36,-120.74"/>
<text text-anchor="middle" x="268.5" y="-110.9" font-family="Helvetica,sans-Serif" font-size="10.00"> tls_pkey_id</text>
<text text-anchor="middle" x="268.5" y="-99.9" font-family="Helvetica,sans-Serif" font-size="10.00">tls_clientcert_id</text>
<text text-anchor="middle" x="268.5" y="-88.9" font-family="Helvetica,sans-Serif" font-size="10.00">pass</text>
<text text-anchor="middle" x="268.5" y="-77.9" font-family="Helvetica,sans-Serif" font-size="10.00">uptane_key_id</text>
<text text-anchor="middle" x="268.5" y="-66.9" font-family="Helvetica,sans-Serif" font-size="10.00">tls_cacert_id</text>
</g>
<!-- Node15 -->
<g id="node15" class="node">
<title>Node15</title>
<g id="a_node15"><a xlink:href="struct_bootloader_config.html" target="_top" xlink:title=" ">
<polygon fill="white" stroke="black" points="500,-28.4 500,-47.4 601,-47.4 601,-28.4 500,-28.4"/>
<text text-anchor="middle" x="550.5" y="-35.4" font-family="Helvetica,sans-Serif" font-size="10.00">BootloaderConfig</text>
</a>
</g>
</g>
<!-- Node7&#45;&gt;Node15 -->
<g id="edge20" class="edge">
<title>Node7&#45;&gt;Node15</title>
<path fill="none" stroke="#9a32cd" stroke-dasharray="5,2" d="M177.16,-121.37C181.76,-96.15 193.8,-53.2 224,-33.9 318.76,26.67 462.89,-9.34 522.37,-28.38"/>
<polygon fill="#9a32cd" stroke="#9a32cd" points="173.7,-120.84 175.57,-131.27 180.61,-121.95 173.7,-120.84"/>
<text text-anchor="middle" x="268.5" y="-36.9" font-family="Helvetica,sans-Serif" font-size="10.00"> reboot_command</text>
</g>
<!-- Node8 -->
<g id="node8" class="node">
<title>Node8</title>
<g id="a_node8"><a xlink:title="STL class.">
<polygon fill="white" stroke="#bfbfbf" points="0,-125.9 0,-155.9 104,-155.9 104,-125.9 0,-125.9"/>
<text text-anchor="start" x="8" y="-143.9" font-family="Helvetica,sans-Serif" font-size="10.00">std::basic_string&lt;</text>
<text text-anchor="middle" x="52" y="-132.9" font-family="Helvetica,sans-Serif" font-size="10.00"> char &gt;</text>
</a>
</g>
</g>
<!-- Node8&#45;&gt;Node7 -->
<g id="edge7" class="edge">
<title>Node8&#45;&gt;Node7</title>
<path fill="none" stroke="midnightblue" d="M114.1,-140.9C123.41,-140.9 132.68,-140.9 141,-140.9"/>
<polygon fill="midnightblue" stroke="midnightblue" points="114.03,-137.4 104.03,-140.9 114.03,-144.4 114.03,-137.4"/>
</g>
<!-- Node9 -->
<g id="node9" class="node">
<title>Node9</title>
<g id="a_node9"><a xlink:href="struct_logger_config.html" target="_top" xlink:title=" ">
<polygon fill="white" stroke="black" points="652,-6.4 652,-25.4 732,-25.4 732,-6.4 652,-6.4"/>
<text text-anchor="middle" x="692" y="-13.4" font-family="Helvetica,sans-Serif" font-size="10.00">LoggerConfig</text>
</a>
</g>
</g>
<!-- Node9&#45;&gt;Node1 -->
<g id="edge8" class="edge">
<title>Node9&#45;&gt;Node1</title>
<path fill="none" stroke="#9a32cd" stroke-dasharray="5,2" d="M742.32,-17.25C760.9,-19.85 781.31,-25.44 797,-36.9 850.24,-75.79 875.35,-157.19 882.65,-185.19"/>
<polygon fill="#9a32cd" stroke="#9a32cd" points="742.56,-13.76 732.22,-16.1 741.76,-20.71 742.56,-13.76"/>
<text text-anchor="middle" x="775.5" y="-39.9" font-family="Helvetica,sans-Serif" font-size="10.00"> logger</text>
</g>
<!-- Node10&#45;&gt;Node1 -->
<g id="edge9" class="edge">
<title>Node10&#45;&gt;Node1</title>
<path fill="none" stroke="#9a32cd" stroke-dasharray="5,2" d="M746.22,-194.9C767.47,-194.9 792.24,-194.9 814.93,-194.9"/>
<polygon fill="#9a32cd" stroke="#9a32cd" points="746.09,-191.4 736.09,-194.9 746.09,-198.4 746.09,-191.4"/>
<text text-anchor="middle" x="775.5" y="-197.9" font-family="Helvetica,sans-Serif" font-size="10.00"> pacman</text>
</g>
<!-- Node11&#45;&gt;Node10 -->
<g id="edge10" class="edge">
<title>Node11&#45;&gt;Node10</title>
<path fill="none" stroke="#9a32cd" stroke-dasharray="5,2" d="M463.13,-164.97C510.36,-169.96 574.02,-177.12 630,-184.9 635.74,-185.69 641.77,-186.6 647.72,-187.53"/>
<polygon fill="#9a32cd" stroke="#9a32cd" points="463.32,-161.47 453.01,-163.91 462.59,-168.44 463.32,-161.47"/>
<text text-anchor="middle" x="550.5" y="-187.9" font-family="Helvetica,sans-Serif" font-size="10.00"> extra</text>
</g>
<!-- Node12&#45;&gt;Node1 -->
<g id="edge13" class="edge">
<title>Node12&#45;&gt;Node1</title>
<path fill="none" stroke="#9a32cd" stroke-dasharray="5,2" d="M607.59,-137.5C672.6,-150.95 778.5,-172.86 838.92,-185.36"/>
<polygon fill="#9a32cd" stroke="#9a32cd" points="608.02,-134.02 597.52,-135.42 606.61,-140.87 608.02,-134.02"/>
<text text-anchor="middle" x="692" y="-165.9" font-family="Helvetica,sans-Serif" font-size="10.00"> network</text>
</g>
<!-- Node13&#45;&gt;Node1 -->
<g id="edge15" class="edge">
<title>Node13&#45;&gt;Node1</title>
<path fill="none" stroke="#9a32cd" stroke-dasharray="5,2" d="M592.05,-81.47C629.66,-93.38 687.03,-112.19 736,-130.9 782.29,-148.58 835.36,-172.2 864,-185.23"/>
<polygon fill="#9a32cd" stroke="#9a32cd" points="593.05,-78.12 582.46,-78.45 590.94,-84.79 593.05,-78.12"/>
<text text-anchor="middle" x="692" y="-133.9" font-family="Helvetica,sans-Serif" font-size="10.00"> p11</text>
</g>
<!-- Node14&#45;&gt;Node1 -->
<g id="edge17" class="edge">
<title>Node14&#45;&gt;Node1</title>
<path fill="none" stroke="#9a32cd" stroke-dasharray="5,2" d="M742.27,-271.87C759.99,-268.01 779.83,-262.51 797,-254.9 827.09,-241.56 857.88,-217.76 873.85,-204.5"/>
<polygon fill="#9a32cd" stroke="#9a32cd" points="741.21,-268.52 732.12,-273.97 742.62,-275.38 741.21,-268.52"/>
<text text-anchor="middle" x="775.5" y="-270.9" font-family="Helvetica,sans-Serif" font-size="10.00"> import</text>
</g>
<!-- Node15&#45;&gt;Node1 -->
<g id="edge19" class="edge">
<title>Node15&#45;&gt;Node1</title>
<path fill="none" stroke="#9a32cd" stroke-dasharray="5,2" d="M611.12,-47.72C617.52,-49.01 623.91,-50.41 630,-51.9 677.94,-63.58 691.98,-62.6 736,-84.9 793.08,-113.81 851.45,-164.24 874.62,-185.26"/>
<polygon fill="#9a32cd" stroke="#9a32cd" points="611.59,-44.25 601.11,-45.77 610.26,-51.12 611.59,-44.25"/>
<text text-anchor="middle" x="692" y="-87.9" font-family="Helvetica,sans-Serif" font-size="10.00"> bootloader</text>
</g>
</g>
</svg>
