<?xml version="1.0" encoding="UTF-8" standalone="no"?>
<!DOCTYPE svg PUBLIC "-//W3C//DTD SVG 1.1//EN"
 "http://www.w3.org/Graphics/SVG/1.1/DTD/svg11.dtd">
<!-- Generated by graphviz version 2.43.0 (0)
 -->
<!-- Title: event::DownloadProgressReport Pages: 1 -->
<svg width="261pt" height="220pt"
 viewBox="0.00 0.00 260.50 220.00" xmlns="http://www.w3.org/2000/svg" xmlns:xlink="http://www.w3.org/1999/xlink">
<g id="graph0" class="graph" transform="scale(1 1) rotate(0) translate(4 216)">
<title>event::DownloadProgressReport</title>
<polygon fill="white" stroke="transparent" points="-4,4 -4,-216 256.5,-216 256.5,4 -4,4"/>
<!-- Node1 -->
<g id="node1" class="node">
<title>Node1</title>
<g id="a_node1"><a xlink:title="A report for a download in progress.">
<polygon fill="#bfbfbf" stroke="black" points="0,-0.5 0,-19.5 173,-19.5 173,-0.5 0,-0.5"/>
<text text-anchor="middle" x="86.5" y="-7.5" font-family="Helvetica,sans-Serif" font-size="10.00">event::DownloadProgressReport</text>
</a>
</g>
</g>
<!-- Node2 -->
<g id="node2" class="node">
<title>Node2</title>
<g id="a_node2"><a xlink:href="classevent_1_1_base_event.html" target="_top" xlink:title="Base class for all event objects.">
<polygon fill="white" stroke="black" points="150.5,-57.5 150.5,-76.5 252.5,-76.5 252.5,-57.5 150.5,-57.5"/>
<text text-anchor="middle" x="201.5" y="-64.5" font-family="Helvetica,sans-Serif" font-size="10.00">event::BaseEvent</text>
</a>
</g>
</g>
<!-- Node2&#45;&gt;Node1 -->
<g id="edge1" class="edge">
<title>Node2&#45;&gt;Node1</title>
<path fill="none" stroke="midnightblue" d="M174.23,-52.96C152.61,-42.62 123.03,-28.47 104.34,-19.53"/>
<polygon fill="midnightblue" stroke="midnightblue" points="173,-56.25 183.53,-57.41 176.02,-49.93 173,-56.25"/>
</g>
<!-- Node3 -->
<g id="node3" class="node">
<title>Node3</title>
<g id="a_node3"><a xlink:title="STL class.">
<polygon fill="white" stroke="#bfbfbf" points="58,-124.5 58,-143.5 123,-143.5 123,-124.5 58,-124.5"/>
<text text-anchor="middle" x="90.5" y="-131.5" font-family="Helvetica,sans-Serif" font-size="10.00">std::string</text>
</a>
</g>
</g>
<!-- Node3&#45;&gt;Node1 -->
<g id="edge4" class="edge">
<title>Node3&#45;&gt;Node1</title>
<path fill="none" stroke="#9a32cd" stroke-dasharray="5,2" d="M87.57,-114.3C86.02,-103.44 84.28,-89.48 83.5,-77 82.95,-68.13 83.21,-65.88 83.5,-57 83.92,-44.04 85.01,-29.06 85.75,-19.81"/>
<polygon fill="#9a32cd" stroke="#9a32cd" points="84.13,-114.93 89.07,-124.3 91.05,-113.89 84.13,-114.93"/>
<text text-anchor="middle" x="112.5" y="-64.5" font-family="Helvetica,sans-Serif" font-size="10.00"> description</text>
</g>
<!-- Node3&#45;&gt;Node2 -->
<g id="edge2" class="edge">
<title>Node3&#45;&gt;Node2</title>
<path fill="none" stroke="#9a32cd" stroke-dasharray="5,2" d="M114.21,-119.12C136.2,-106.24 168.24,-87.48 186.77,-76.63"/>
<polygon fill="#9a32cd" stroke="#9a32cd" points="112.33,-116.16 105.47,-124.23 115.87,-122.2 112.33,-116.16"/>
<text text-anchor="middle" x="171.5" y="-98" font-family="Helvetica,sans-Serif" font-size="10.00"> variant</text>
</g>
<!-- Node4 -->
<g id="node4" class="node">
<title>Node4</title>
<g id="a_node4"><a xlink:title="STL class.">
<polygon fill="white" stroke="#bfbfbf" points="38.5,-181.5 38.5,-211.5 142.5,-211.5 142.5,-181.5 38.5,-181.5"/>
<text text-anchor="start" x="46.5" y="-199.5" font-family="Helvetica,sans-Serif" font-size="10.00">std::basic_string&lt;</text>
<text text-anchor="middle" x="90.5" y="-188.5" font-family="Helvetica,sans-Serif" font-size="10.00"> char &gt;</text>
</a>
</g>
</g>
<!-- Node4&#45;&gt;Node3 -->
<g id="edge3" class="edge">
<title>Node4&#45;&gt;Node3</title>
<path fill="none" stroke="midnightblue" d="M90.5,-171.35C90.5,-161.51 90.5,-150.78 90.5,-143.54"/>
<polygon fill="midnightblue" stroke="midnightblue" points="87,-171.47 90.5,-181.47 94,-171.47 87,-171.47"/>
</g>
</g>
</svg>
