<?xml version="1.0" encoding="UTF-8" standalone="no"?>
<!DOCTYPE svg PUBLIC "-//W3C//DTD SVG 1.1//EN"
 "http://www.w3.org/Graphics/SVG/1.1/DTD/svg11.dtd">
<!-- Generated by graphviz version 2.43.0 (0)
 -->
<!-- Title: HttpFake Pages: 1 -->
<svg width="373pt" height="826pt"
 viewBox="0.00 0.00 373.00 826.00" xmlns="http://www.w3.org/2000/svg" xmlns:xlink="http://www.w3.org/1999/xlink">
<g id="graph0" class="graph" transform="scale(1 1) rotate(0) translate(4 822)">
<title>HttpFake</title>
<polygon fill="white" stroke="transparent" points="-4,4 -4,-822 369,-822 369,4 -4,4"/>
<!-- Node1 -->
<g id="node1" class="node">
<title>Node1</title>
<g id="a_node1"><a xlink:title=" ">
<polygon fill="#bfbfbf" stroke="black" points="117,-380.5 117,-399.5 177,-399.5 177,-380.5 117,-380.5"/>
<text text-anchor="middle" x="147" y="-387.5" font-family="Helvetica,sans-Serif" font-size="10.00">HttpFake</text>
</a>
</g>
</g>
<!-- Node3 -->
<g id="node3" class="node">
<title>Node3</title>
<g id="a_node3"><a xlink:href="class_http_check_url.html" target="_top" xlink:title=" ">
<polygon fill="white" stroke="black" points="248,-798.5 248,-817.5 330,-817.5 330,-798.5 248,-798.5"/>
<text text-anchor="middle" x="289" y="-805.5" font-family="Helvetica,sans-Serif" font-size="10.00">HttpCheckUrl</text>
</a>
</g>
</g>
<!-- Node1&#45;&gt;Node3 -->
<g id="edge2" class="edge">
<title>Node1&#45;&gt;Node3</title>
<path fill="none" stroke="midnightblue" d="M148.44,-409.72C150.48,-482.19 161.22,-732.53 213,-789 221.9,-798.7 234.97,-803.76 247.72,-806.31"/>
<polygon fill="midnightblue" stroke="midnightblue" points="151.94,-409.58 148.19,-399.67 144.94,-409.76 151.94,-409.58"/>
</g>
<!-- Node4 -->
<g id="node4" class="node">
<title>Node4</title>
<g id="a_node4"><a xlink:href="class_http_custom_uri.html" target="_top" xlink:title=" ">
<polygon fill="white" stroke="black" points="244.5,-760.5 244.5,-779.5 333.5,-779.5 333.5,-760.5 244.5,-760.5"/>
<text text-anchor="middle" x="289" y="-767.5" font-family="Helvetica,sans-Serif" font-size="10.00">HttpCustomUri</text>
</a>
</g>
</g>
<!-- Node1&#45;&gt;Node4 -->
<g id="edge3" class="edge">
<title>Node1&#45;&gt;Node4</title>
<path fill="none" stroke="midnightblue" d="M148.83,-410C152.07,-478.27 166.1,-700.7 213,-751 221.15,-759.74 232.7,-764.7 244.3,-767.46"/>
<polygon fill="midnightblue" stroke="midnightblue" points="152.32,-409.59 148.37,-399.76 145.32,-409.91 152.32,-409.59"/>
</g>
<!-- Node5 -->
<g id="node5" class="node">
<title>Node5</title>
<g id="a_node5"><a xlink:href="class_http_default_uri.html" target="_top" xlink:title=" ">
<polygon fill="white" stroke="black" points="245,-722.5 245,-741.5 333,-741.5 333,-722.5 245,-722.5"/>
<text text-anchor="middle" x="289" y="-729.5" font-family="Helvetica,sans-Serif" font-size="10.00">HttpDefaultUri</text>
</a>
</g>
</g>
<!-- Node1&#45;&gt;Node5 -->
<g id="edge4" class="edge">
<title>Node1&#45;&gt;Node5</title>
<path fill="none" stroke="midnightblue" d="M149.29,-409.92C153.78,-473.29 170.87,-668.73 213,-713 221.33,-721.76 233.08,-726.71 244.8,-729.44"/>
<polygon fill="midnightblue" stroke="midnightblue" points="152.76,-409.42 148.59,-399.69 145.78,-409.9 152.76,-409.42"/>
</g>
<!-- Node6 -->
<g id="node6" class="node">
<title>Node6</title>
<g id="a_node6"><a xlink:href="class_http_download_failure.html" target="_top" xlink:title=" ">
<polygon fill="white" stroke="black" points="229.5,-684.5 229.5,-703.5 348.5,-703.5 348.5,-684.5 229.5,-684.5"/>
<text text-anchor="middle" x="289" y="-691.5" font-family="Helvetica,sans-Serif" font-size="10.00">HttpDownloadFailure</text>
</a>
</g>
</g>
<!-- Node1&#45;&gt;Node6 -->
<g id="edge5" class="edge">
<title>Node1&#45;&gt;Node6</title>
<path fill="none" stroke="midnightblue" d="M149.86,-409.82C155.7,-468.02 175.61,-636.7 213,-675 217.6,-679.71 223.18,-683.31 229.21,-686.06"/>
<polygon fill="midnightblue" stroke="midnightblue" points="153.33,-409.34 148.87,-399.73 146.36,-410.02 153.33,-409.34"/>
</g>
<!-- Node7 -->
<g id="node7" class="node">
<title>Node7</title>
<g id="a_node7"><a xlink:href="class_http_fake_campaign.html" target="_top" xlink:title=" ">
<polygon fill="white" stroke="black" points="234,-646.5 234,-665.5 344,-665.5 344,-646.5 234,-646.5"/>
<text text-anchor="middle" x="289" y="-653.5" font-family="Helvetica,sans-Serif" font-size="10.00">HttpFakeCampaign</text>
</a>
</g>
</g>
<!-- Node1&#45;&gt;Node7 -->
<g id="edge6" class="edge">
<title>Node1&#45;&gt;Node7</title>
<path fill="none" stroke="midnightblue" d="M150.57,-409.56C157.86,-462.1 180.28,-604.58 213,-637 218.82,-642.77 226.13,-646.86 233.88,-649.76"/>
<polygon fill="midnightblue" stroke="midnightblue" points="154.02,-408.96 149.21,-399.52 147.08,-409.9 154.02,-408.96"/>
</g>
<!-- Node8 -->
<g id="node8" class="node">
<title>Node8</title>
<g id="a_node8"><a xlink:href="class_http_fake_delegation.html" target="_top" xlink:title=" ">
<polygon fill="white" stroke="black" points="232.5,-608.5 232.5,-627.5 345.5,-627.5 345.5,-608.5 232.5,-608.5"/>
<text text-anchor="middle" x="289" y="-615.5" font-family="Helvetica,sans-Serif" font-size="10.00">HttpFakeDelegation</text>
</a>
</g>
</g>
<!-- Node1&#45;&gt;Node8 -->
<g id="edge7" class="edge">
<title>Node1&#45;&gt;Node8</title>
<path fill="none" stroke="midnightblue" d="M148.1,-409.7C149.43,-451.07 158.55,-547.39 213,-599 218.46,-604.17 225.12,-608 232.19,-610.81"/>
<polygon fill="midnightblue" stroke="midnightblue" points="151.6,-409.51 147.9,-399.58 144.6,-409.64 151.6,-409.51"/>
</g>
<!-- Node9 -->
<g id="node9" class="node">
<title>Node9</title>
<g id="a_node9"><a xlink:href="class_http_fake_device_registration.html" target="_top" xlink:title=" ">
<polygon fill="white" stroke="black" points="213,-570.5 213,-589.5 365,-589.5 365,-570.5 213,-570.5"/>
<text text-anchor="middle" x="289" y="-577.5" font-family="Helvetica,sans-Serif" font-size="10.00">HttpFakeDeviceRegistration</text>
</a>
</g>
</g>
<!-- Node1&#45;&gt;Node9 -->
<g id="edge8" class="edge">
<title>Node1&#45;&gt;Node9</title>
<path fill="none" stroke="midnightblue" d="M149.72,-410.01C153.91,-445.8 167.85,-520.77 213,-561 217.31,-564.84 222.29,-567.93 227.59,-570.41"/>
<polygon fill="midnightblue" stroke="midnightblue" points="153.18,-409.45 148.68,-399.86 146.22,-410.17 153.18,-409.45"/>
</g>
<!-- Node10 -->
<g id="node10" class="node">
<title>Node10</title>
<g id="a_node10"><a xlink:href="class_http_fake_ecu_registration.html" target="_top" xlink:title=" ">
<polygon fill="white" stroke="black" points="221,-532.5 221,-551.5 357,-551.5 357,-532.5 221,-532.5"/>
<text text-anchor="middle" x="289" y="-539.5" font-family="Helvetica,sans-Serif" font-size="10.00">HttpFakeEcuRegistration</text>
</a>
</g>
</g>
<!-- Node1&#45;&gt;Node10 -->
<g id="edge9" class="edge">
<title>Node1&#45;&gt;Node10</title>
<path fill="none" stroke="midnightblue" d="M152.08,-409.63C159.2,-438.86 176.74,-493.55 213,-523 217.8,-526.9 223.29,-530 229.08,-532.48"/>
<polygon fill="midnightblue" stroke="midnightblue" points="155.47,-408.75 149.84,-399.78 148.64,-410.3 155.47,-408.75"/>
</g>
<!-- Node11 -->
<g id="node11" class="node">
<title>Node11</title>
<g id="a_node11"><a xlink:href="class_http_fake_event_counter.html" target="_top" xlink:title=" ">
<polygon fill="white" stroke="black" points="226,-494.5 226,-513.5 352,-513.5 352,-494.5 226,-494.5"/>
<text text-anchor="middle" x="289" y="-501.5" font-family="Helvetica,sans-Serif" font-size="10.00">HttpFakeEventCounter</text>
</a>
</g>
</g>
<!-- Node1&#45;&gt;Node11 -->
<g id="edge10" class="edge">
<title>Node1&#45;&gt;Node11</title>
<path fill="none" stroke="midnightblue" d="M155.79,-408.68C165.8,-430.37 185.27,-465.64 213,-485 218.51,-488.84 224.72,-491.91 231.16,-494.36"/>
<polygon fill="midnightblue" stroke="midnightblue" points="158.98,-407.25 151.75,-399.51 152.58,-410.08 158.98,-407.25"/>
</g>
<!-- Node12 -->
<g id="node12" class="node">
<title>Node12</title>
<g id="a_node12"><a xlink:href="class_http_fake_events.html" target="_top" xlink:title=" ">
<polygon fill="white" stroke="black" points="242.5,-456.5 242.5,-475.5 335.5,-475.5 335.5,-456.5 242.5,-456.5"/>
<text text-anchor="middle" x="289" y="-463.5" font-family="Helvetica,sans-Serif" font-size="10.00">HttpFakeEvents</text>
</a>
</g>
</g>
<!-- Node1&#45;&gt;Node12 -->
<g id="edge11" class="edge">
<title>Node1&#45;&gt;Node12</title>
<path fill="none" stroke="midnightblue" d="M163.36,-407.31C175.6,-420.08 193.82,-436.92 213,-447 222.04,-451.75 232.32,-455.35 242.31,-458.07"/>
<polygon fill="midnightblue" stroke="midnightblue" points="165.59,-404.57 156.23,-399.62 160.46,-409.33 165.59,-404.57"/>
</g>
<!-- Node13 -->
<g id="node13" class="node">
<title>Node13</title>
<g id="a_node13"><a xlink:href="class_http_fake_meta_counter.html" target="_top" xlink:title=" ">
<polygon fill="white" stroke="black" points="228,-418.5 228,-437.5 350,-437.5 350,-418.5 228,-418.5"/>
<text text-anchor="middle" x="289" y="-425.5" font-family="Helvetica,sans-Serif" font-size="10.00">HttpFakeMetaCounter</text>
</a>
</g>
</g>
<!-- Node1&#45;&gt;Node13 -->
<g id="edge12" class="edge">
<title>Node1&#45;&gt;Node13</title>
<path fill="none" stroke="midnightblue" d="M186.86,-401.61C195.45,-404.11 204.52,-406.69 213,-409 224.66,-412.18 237.4,-415.47 249,-418.41"/>
<polygon fill="midnightblue" stroke="midnightblue" points="187.64,-398.19 177.06,-398.74 185.67,-404.91 187.64,-398.19"/>
</g>
<!-- Node14 -->
<g id="node14" class="node">
<title>Node14</title>
<g id="a_node14"><a xlink:href="class_http_fake_no_correlation_id.html" target="_top" xlink:title=" ">
<polygon fill="white" stroke="black" points="220.5,-380.5 220.5,-399.5 357.5,-399.5 357.5,-380.5 220.5,-380.5"/>
<text text-anchor="middle" x="289" y="-387.5" font-family="Helvetica,sans-Serif" font-size="10.00">HttpFakeNoCorrelationId</text>
</a>
</g>
</g>
<!-- Node1&#45;&gt;Node14 -->
<g id="edge13" class="edge">
<title>Node1&#45;&gt;Node14</title>
<path fill="none" stroke="midnightblue" d="M187.3,-390C197.6,-390 209.01,-390 220.34,-390"/>
<polygon fill="midnightblue" stroke="midnightblue" points="187.01,-386.5 177.01,-390 187.01,-393.5 187.01,-386.5"/>
</g>
<!-- Node15 -->
<g id="node15" class="node">
<title>Node15</title>
<g id="a_node15"><a xlink:href="class_http_fake_pause_counter.html" target="_top" xlink:title=" ">
<polygon fill="white" stroke="black" points="225.5,-342.5 225.5,-361.5 352.5,-361.5 352.5,-342.5 225.5,-342.5"/>
<text text-anchor="middle" x="289" y="-349.5" font-family="Helvetica,sans-Serif" font-size="10.00">HttpFakePauseCounter</text>
</a>
</g>
</g>
<!-- Node1&#45;&gt;Node15 -->
<g id="edge14" class="edge">
<title>Node1&#45;&gt;Node15</title>
<path fill="none" stroke="midnightblue" d="M186.86,-378.39C195.45,-375.89 204.52,-373.31 213,-371 224.66,-367.82 237.4,-364.53 249,-361.59"/>
<polygon fill="midnightblue" stroke="midnightblue" points="185.67,-375.09 177.06,-381.26 187.64,-381.81 185.67,-375.09"/>
</g>
<!-- Node16 -->
<g id="node16" class="node">
<title>Node16</title>
<g id="a_node16"><a xlink:href="class_http_fake_prov.html" target="_top" xlink:title="Check that basic device info sent by aktualizr during provisioning matches our expectations.">
<polygon fill="white" stroke="black" points="248,-304.5 248,-323.5 330,-323.5 330,-304.5 248,-304.5"/>
<text text-anchor="middle" x="289" y="-311.5" font-family="Helvetica,sans-Serif" font-size="10.00">HttpFakeProv</text>
</a>
</g>
</g>
<!-- Node1&#45;&gt;Node16 -->
<g id="edge15" class="edge">
<title>Node1&#45;&gt;Node16</title>
<path fill="none" stroke="midnightblue" d="M163.36,-372.69C175.6,-359.92 193.82,-343.08 213,-333 223.7,-327.37 236.15,-323.36 247.79,-320.51"/>
<polygon fill="midnightblue" stroke="midnightblue" points="160.46,-370.67 156.23,-380.38 165.59,-375.43 160.46,-370.67"/>
</g>
<!-- Node17 -->
<g id="node17" class="node">
<title>Node17</title>
<g id="a_node17"><a xlink:href="class_http_fake_put_counter.html" target="_top" xlink:title=" ">
<polygon fill="white" stroke="black" points="232,-266.5 232,-285.5 346,-285.5 346,-266.5 232,-266.5"/>
<text text-anchor="middle" x="289" y="-273.5" font-family="Helvetica,sans-Serif" font-size="10.00">HttpFakePutCounter</text>
</a>
</g>
</g>
<!-- Node1&#45;&gt;Node17 -->
<g id="edge16" class="edge">
<title>Node1&#45;&gt;Node17</title>
<path fill="none" stroke="midnightblue" d="M155.79,-371.32C165.8,-349.63 185.27,-314.36 213,-295 218.73,-291 225.22,-287.84 231.94,-285.35"/>
<polygon fill="midnightblue" stroke="midnightblue" points="152.58,-369.92 151.75,-380.49 158.98,-372.75 152.58,-369.92"/>
</g>
<!-- Node18 -->
<g id="node18" class="node">
<title>Node18</title>
<g id="a_node18"><a xlink:href="class_http_fake_rq.html" target="_top" xlink:title=" ">
<polygon fill="white" stroke="black" points="252.5,-228.5 252.5,-247.5 325.5,-247.5 325.5,-228.5 252.5,-228.5"/>
<text text-anchor="middle" x="289" y="-235.5" font-family="Helvetica,sans-Serif" font-size="10.00">HttpFakeRq</text>
</a>
</g>
</g>
<!-- Node1&#45;&gt;Node18 -->
<g id="edge17" class="edge">
<title>Node1&#45;&gt;Node18</title>
<path fill="none" stroke="midnightblue" d="M152.08,-370.37C159.2,-341.14 176.74,-286.45 213,-257 224.05,-248.02 238.81,-243.22 252.31,-240.68"/>
<polygon fill="midnightblue" stroke="midnightblue" points="148.64,-369.7 149.84,-380.22 155.47,-371.25 148.64,-369.7"/>
</g>
<!-- Node19 -->
<g id="node19" class="node">
<title>Node19</title>
<g id="a_node19"><a xlink:href="class_http_fake_split.html" target="_top" xlink:title=" ">
<polygon fill="white" stroke="black" points="248,-190.5 248,-209.5 330,-209.5 330,-190.5 248,-190.5"/>
<text text-anchor="middle" x="289" y="-197.5" font-family="Helvetica,sans-Serif" font-size="10.00">HttpFakeSplit</text>
</a>
</g>
</g>
<!-- Node1&#45;&gt;Node19 -->
<g id="edge18" class="edge">
<title>Node1&#45;&gt;Node19</title>
<path fill="none" stroke="midnightblue" d="M149.72,-369.99C153.91,-334.2 167.85,-259.23 213,-219 222.53,-210.51 235.31,-205.71 247.62,-203.02"/>
<polygon fill="midnightblue" stroke="midnightblue" points="146.22,-369.83 148.68,-380.14 153.18,-370.55 146.22,-369.83"/>
</g>
<!-- Node20 -->
<g id="node20" class="node">
<title>Node20</title>
<g id="a_node20"><a xlink:href="class_http_fake_unstable.html" target="_top" xlink:title=" ">
<polygon fill="white" stroke="black" points="237,-152.5 237,-171.5 341,-171.5 341,-152.5 237,-152.5"/>
<text text-anchor="middle" x="289" y="-159.5" font-family="Helvetica,sans-Serif" font-size="10.00">HttpFakeUnstable</text>
</a>
</g>
</g>
<!-- Node1&#45;&gt;Node20 -->
<g id="edge19" class="edge">
<title>Node1&#45;&gt;Node20</title>
<path fill="none" stroke="midnightblue" d="M148.1,-370.3C149.43,-328.93 158.55,-232.61 213,-181 219.63,-174.72 228.03,-170.43 236.79,-167.52"/>
<polygon fill="midnightblue" stroke="midnightblue" points="144.6,-370.36 147.9,-380.42 151.6,-370.49 144.6,-370.36"/>
</g>
<!-- Node21 -->
<g id="node21" class="node">
<title>Node21</title>
<g id="a_node21"><a xlink:href="class_http_put_manifest_fail.html" target="_top" xlink:title=" ">
<polygon fill="white" stroke="black" points="233,-114.5 233,-133.5 345,-133.5 345,-114.5 233,-114.5"/>
<text text-anchor="middle" x="289" y="-121.5" font-family="Helvetica,sans-Serif" font-size="10.00">HttpPutManifestFail</text>
</a>
</g>
</g>
<!-- Node1&#45;&gt;Node21 -->
<g id="edge20" class="edge">
<title>Node1&#45;&gt;Node21</title>
<path fill="none" stroke="midnightblue" d="M150.06,-370.32C156.76,-315.96 179.48,-167.22 213,-134 218.53,-128.52 225.41,-124.54 232.74,-121.78"/>
<polygon fill="midnightblue" stroke="midnightblue" points="146.56,-370.08 148.87,-380.42 153.52,-370.89 146.56,-370.08"/>
</g>
<!-- Node1&#45;&gt;Node21 -->
<g id="edge21" class="edge">
<title>Node1&#45;&gt;Node21</title>
<path fill="none" stroke="midnightblue" d="M151.24,-370.25C159.16,-318.74 181.23,-183.48 213,-152 223.59,-141.51 239.1,-136.54 253.27,-133.55"/>
<polygon fill="midnightblue" stroke="midnightblue" points="147.74,-370.01 149.69,-380.43 154.66,-371.07 147.74,-370.01"/>
</g>
<!-- Node22 -->
<g id="node22" class="node">
<title>Node22</title>
<g id="a_node22"><a xlink:href="class_http_reject_empty_corr_id.html" target="_top" xlink:title=" ">
<polygon fill="white" stroke="black" points="225,-76.5 225,-95.5 353,-95.5 353,-76.5 225,-76.5"/>
<text text-anchor="middle" x="289" y="-83.5" font-family="Helvetica,sans-Serif" font-size="10.00">HttpRejectEmptyCorrId</text>
</a>
</g>
</g>
<!-- Node1&#45;&gt;Node22 -->
<g id="edge22" class="edge">
<title>Node1&#45;&gt;Node22</title>
<path fill="none" stroke="midnightblue" d="M149.86,-370.18C155.7,-311.98 175.61,-143.3 213,-105 216.75,-101.16 221.17,-98.05 225.94,-95.54"/>
<polygon fill="midnightblue" stroke="midnightblue" points="146.36,-369.98 148.87,-380.27 153.33,-370.66 146.36,-369.98"/>
</g>
<!-- Node23 -->
<g id="node23" class="node">
<title>Node23</title>
<g id="a_node23"><a xlink:href="class_http_unstable.html" target="_top" xlink:title=" ">
<polygon fill="white" stroke="black" points="248.5,-38.5 248.5,-57.5 329.5,-57.5 329.5,-38.5 248.5,-38.5"/>
<text text-anchor="middle" x="289" y="-45.5" font-family="Helvetica,sans-Serif" font-size="10.00">HttpUnstable</text>
</a>
</g>
</g>
<!-- Node1&#45;&gt;Node23 -->
<g id="edge23" class="edge">
<title>Node1&#45;&gt;Node23</title>
<path fill="none" stroke="midnightblue" d="M149.29,-370.08C153.78,-306.71 170.87,-111.27 213,-67 222.17,-57.37 235.46,-52.34 248.32,-49.8"/>
<polygon fill="midnightblue" stroke="midnightblue" points="145.78,-370.1 148.59,-380.31 152.76,-370.58 145.78,-370.1"/>
</g>
<!-- Node24 -->
<g id="node24" class="node">
<title>Node24</title>
<g id="a_node24"><a xlink:href="class_http_zero_length.html" target="_top" xlink:title=" ">
<polygon fill="white" stroke="black" points="242.5,-0.5 242.5,-19.5 335.5,-19.5 335.5,-0.5 242.5,-0.5"/>
<text text-anchor="middle" x="289" y="-7.5" font-family="Helvetica,sans-Serif" font-size="10.00">HttpZeroLength</text>
</a>
</g>
</g>
<!-- Node1&#45;&gt;Node24 -->
<g id="edge24" class="edge">
<title>Node1&#45;&gt;Node24</title>
<path fill="none" stroke="midnightblue" d="M148.83,-370C152.07,-301.73 166.1,-79.3 213,-29 220.69,-20.75 231.41,-15.87 242.35,-13.03"/>
<polygon fill="midnightblue" stroke="midnightblue" points="145.32,-370.09 148.37,-380.24 152.32,-370.41 145.32,-370.09"/>
</g>
<!-- Node2 -->
<g id="node2" class="node">
<title>Node2</title>
<g id="a_node2"><a xlink:href="class_http_interface.html" target="_top" xlink:title=" ">
<polygon fill="white" stroke="black" points="0,-380.5 0,-399.5 81,-399.5 81,-380.5 0,-380.5"/>
<text text-anchor="middle" x="40.5" y="-387.5" font-family="Helvetica,sans-Serif" font-size="10.00">HttpInterface</text>
</a>
</g>
</g>
<!-- Node2&#45;&gt;Node1 -->
<g id="edge1" class="edge">
<title>Node2&#45;&gt;Node1</title>
<path fill="none" stroke="midnightblue" d="M91.22,-390C100,-390 108.88,-390 116.86,-390"/>
<polygon fill="midnightblue" stroke="midnightblue" points="91.01,-386.5 81.01,-390 91.01,-393.5 91.01,-386.5"/>
</g>
</g>
</svg>
