<?xml version="1.0" encoding="UTF-8" standalone="no"?>
<!DOCTYPE svg PUBLIC "-//W3C//DTD SVG 1.1//EN"
 "http://www.w3.org/Graphics/SVG/1.1/DTD/svg11.dtd">
<!-- Generated by graphviz version 2.40.1 (20161225.0304)
 -->
<!-- Title: AktualizrSecondaryCommon Pages: 1 -->
<svg width="1566pt" height="728pt"
 viewBox="0.00 0.00 1566.00 728.00" xmlns="http://www.w3.org/2000/svg" xmlns:xlink="http://www.w3.org/1999/xlink">
<g id="graph0" class="graph" transform="scale(1 1) rotate(0) translate(4 724)">
<title>AktualizrSecondaryCommon</title>
<polygon fill="#ffffff" stroke="transparent" points="-4,4 -4,-724 1562,-724 1562,4 -4,4"/>
<!-- Node2 -->
<g id="node1" class="node">
<title>Node2</title>
<polygon fill="#bfbfbf" stroke="#000000" points="1417,-251 1417,-270 1558,-270 1558,-251 1417,-251"/>
<text text-anchor="middle" x="1487.5" y="-258" font-family="Helvetica,sans-Serif" font-size="10.00" fill="#000000">AktualizrSecondaryCommon</text>
</g>
<!-- Node3 -->
<g id="node2" class="node">
<title>Node3</title>
<polygon fill="#ffffff" stroke="#bfbfbf" points="1041,-342.5 1041,-372.5 1163,-372.5 1163,-342.5 1041,-342.5"/>
<text text-anchor="start" x="1049" y="-360.5" font-family="Helvetica,sans-Serif" font-size="10.00" fill="#000000">std::unique_ptr&lt; Uptane</text>
<text text-anchor="middle" x="1102" y="-349.5" font-family="Helvetica,sans-Serif" font-size="10.00" fill="#000000">::Target &gt;</text>
</g>
<!-- Node3&#45;&gt;Node2 -->
<g id="edge1" class="edge">
<title>Node3&#45;&gt;Node2</title>
<path fill="none" stroke="#9a32cd" stroke-dasharray="5,2" d="M1172.8957,-341.6242C1233.2273,-327.858 1322.0812,-306.9785 1399,-286.5 1418.1888,-281.3913 1439.5523,-275.1315 1456.4816,-270.0344"/>
<polygon fill="#9a32cd" stroke="#9a32cd" points="1172.0656,-338.2236 1163.0919,-343.8559 1173.6193,-345.049 1172.0656,-338.2236"/>
<text text-anchor="middle" x="1248" y="-342.5" font-family="Helvetica,sans-Serif" font-size="10.00" fill="#000000"> target_</text>
</g>
<!-- Node4 -->
<g id="node3" class="node">
<title>Node4</title>
<g id="a_node3"><a xlink:href="class_uptane_1_1_target.html" target="_top" xlink:title="Uptane::Target">
<polygon fill="#ffffff" stroke="#000000" points="633.5,-327 633.5,-346 715.5,-346 715.5,-327 633.5,-327"/>
<text text-anchor="middle" x="674.5" y="-334" font-family="Helvetica,sans-Serif" font-size="10.00" fill="#000000">Uptane::Target</text>
</a>
</g>
</g>
<!-- Node4&#45;&gt;Node3 -->
<g id="edge2" class="edge">
<title>Node4&#45;&gt;Node3</title>
<path fill="none" stroke="#9a32cd" stroke-dasharray="5,2" d="M725.7849,-341.7048C737.3578,-342.7507 749.593,-343.7556 761,-344.5 858.8414,-350.8848 972.6951,-354.4475 1040.9658,-356.1685"/>
<polygon fill="#9a32cd" stroke="#9a32cd" points="726.1033,-338.2194 715.8227,-340.7807 725.4566,-345.1895 726.1033,-338.2194"/>
<text text-anchor="middle" x="823.5" y="-353.5" font-family="Helvetica,sans-Serif" font-size="10.00" fill="#000000"> ptr</text>
</g>
<!-- Node27 -->
<g id="node26" class="node">
<title>Node27</title>
<polygon fill="#ffffff" stroke="#bfbfbf" points="911.5,-307.5 911.5,-337.5 1015.5,-337.5 1015.5,-307.5 911.5,-307.5"/>
<text text-anchor="start" x="919.5" y="-325.5" font-family="Helvetica,sans-Serif" font-size="10.00" fill="#000000">std::vector&lt; Uptane</text>
<text text-anchor="middle" x="963.5" y="-314.5" font-family="Helvetica,sans-Serif" font-size="10.00" fill="#000000">::Target &gt;</text>
</g>
<!-- Node4&#45;&gt;Node27 -->
<g id="edge30" class="edge">
<title>Node4&#45;&gt;Node27</title>
<path fill="none" stroke="#9a32cd" stroke-dasharray="5,2" d="M725.6553,-334.0219C777.9153,-331.4903 858.6523,-327.5791 911.2911,-325.0291"/>
<polygon fill="#9a32cd" stroke="#9a32cd" points="725.4186,-330.5292 715.5997,-334.509 725.7574,-337.521 725.4186,-330.5292"/>
<text text-anchor="middle" x="823.5" y="-334.5" font-family="Helvetica,sans-Serif" font-size="10.00" fill="#000000"> elements</text>
</g>
<!-- Node5 -->
<g id="node4" class="node">
<title>Node5</title>
<g id="a_node4"><a xlink:href="class_aktualizr_secondary_config.html" target="_top" xlink:title="AktualizrSecondaryConfig">
<polygon fill="#ffffff" stroke="#000000" points="609.5,-487 609.5,-506 739.5,-506 739.5,-487 609.5,-487"/>
<text text-anchor="middle" x="674.5" y="-494" font-family="Helvetica,sans-Serif" font-size="10.00" fill="#000000">AktualizrSecondaryConfig</text>
</a>
</g>
</g>
<!-- Node5&#45;&gt;Node2 -->
<g id="edge3" class="edge">
<title>Node5&#45;&gt;Node2</title>
<path fill="none" stroke="#9a32cd" stroke-dasharray="5,2" d="M737.3434,-507.609C871.3902,-527.7601 1190.1541,-556.4452 1399,-418.5 1454.3545,-381.9377 1478.5819,-298.3109 1485.3889,-270.0406"/>
<polygon fill="#9a32cd" stroke="#9a32cd" points="737.6643,-504.1172 727.2481,-506.0545 736.5989,-511.0357 737.6643,-504.1172"/>
<text text-anchor="middle" x="1102" y="-524.5" font-family="Helvetica,sans-Serif" font-size="10.00" fill="#000000"> config_</text>
</g>
<!-- Node6 -->
<g id="node5" class="node">
<title>Node6</title>
<g id="a_node5"><a xlink:href="class_base_config.html" target="_top" xlink:title="BaseConfig">
<polygon fill="#ffffff" stroke="#000000" points="418.5,-649 418.5,-668 486.5,-668 486.5,-649 418.5,-649"/>
<text text-anchor="middle" x="452.5" y="-656" font-family="Helvetica,sans-Serif" font-size="10.00" fill="#000000">BaseConfig</text>
</a>
</g>
</g>
<!-- Node6&#45;&gt;Node5 -->
<g id="edge4" class="edge">
<title>Node6&#45;&gt;Node5</title>
<path fill="none" stroke="#191970" d="M482.2855,-644.4905C495.9777,-637.9524 512.3881,-629.9778 527,-622.5 554.4396,-608.4574 563.6255,-608.3682 588,-589.5 621.4779,-563.5849 653.3952,-524.23 667.2615,-506.1722"/>
<polygon fill="#191970" stroke="#191970" points="480.39,-641.5162 472.8604,-648.9698 483.3947,-647.8385 480.39,-641.5162"/>
</g>
<!-- Node7 -->
<g id="node6" class="node">
<title>Node7</title>
<polygon fill="#ffffff" stroke="#bfbfbf" points="132,-689.5 132,-719.5 233,-719.5 233,-689.5 132,-689.5"/>
<text text-anchor="start" x="140" y="-707.5" font-family="Helvetica,sans-Serif" font-size="10.00" fill="#000000">std::vector&lt; boost</text>
<text text-anchor="middle" x="182.5" y="-696.5" font-family="Helvetica,sans-Serif" font-size="10.00" fill="#000000">::filesystem::path &gt;</text>
</g>
<!-- Node7&#45;&gt;Node6 -->
<g id="edge5" class="edge">
<title>Node7&#45;&gt;Node6</title>
<path fill="none" stroke="#9a32cd" stroke-dasharray="5,2" d="M243.6241,-698.9139C277.9905,-695.2763 321.578,-689.8331 360,-682.5 380.0448,-678.6743 402.1815,-672.9845 419.7725,-668.105"/>
<polygon fill="#9a32cd" stroke="#9a32cd" points="242.8573,-695.4745 233.2706,-699.985 243.5777,-702.4373 242.8573,-695.4745"/>
<text text-anchor="middle" x="305.5" y="-700.5" font-family="Helvetica,sans-Serif" font-size="10.00" fill="#000000"> config_dirs_</text>
</g>
<!-- Node8 -->
<g id="node7" class="node">
<title>Node8</title>
<g id="a_node7"><a xlink:href="struct_storage_config.html" target="_top" xlink:title="StorageConfig">
<polygon fill="#ffffff" stroke="#000000" points="413,-594 413,-613 492,-613 492,-594 413,-594"/>
<text text-anchor="middle" x="452.5" y="-601" font-family="Helvetica,sans-Serif" font-size="10.00" fill="#000000">StorageConfig</text>
</a>
</g>
</g>
<!-- Node8&#45;&gt;Node5 -->
<g id="edge6" class="edge">
<title>Node8&#45;&gt;Node5</title>
<path fill="none" stroke="#9a32cd" stroke-dasharray="5,2" d="M502.0594,-592.9968C510.5189,-590.6017 519.115,-587.7764 527,-584.5 579.8695,-562.5315 636.4035,-524.0157 661.3662,-506.1309"/>
<polygon fill="#9a32cd" stroke="#9a32cd" points="501.0042,-589.6558 492.2422,-595.6121 502.8062,-596.4199 501.0042,-589.6558"/>
<text text-anchor="middle" x="566.5" y="-577.5" font-family="Helvetica,sans-Serif" font-size="10.00" fill="#000000"> storage</text>
</g>
<!-- Node9 -->
<g id="node8" class="node">
<title>Node9</title>
<g id="a_node8"><a xlink:href="class_based_path.html" target="_top" xlink:title="BasedPath">
<polygon fill="#ffffff" stroke="#000000" points="150,-584 150,-603 215,-603 215,-584 150,-584"/>
<text text-anchor="middle" x="182.5" y="-591" font-family="Helvetica,sans-Serif" font-size="10.00" fill="#000000">BasedPath</text>
</a>
</g>
</g>
<!-- Node9&#45;&gt;Node8 -->
<g id="edge7" class="edge">
<title>Node9&#45;&gt;Node8</title>
<path fill="none" stroke="#9a32cd" stroke-dasharray="5,2" d="M225.3801,-592.6462C261.3496,-592.1927 314.0622,-592.1407 360,-594.5 377.4027,-595.3938 396.5849,-597.1352 412.9478,-598.8501"/>
<polygon fill="#9a32cd" stroke="#9a32cd" points="225.1894,-589.1485 215.2402,-592.7903 225.289,-596.1477 225.1894,-589.1485"/>
<text text-anchor="middle" x="305.5" y="-674.5" font-family="Helvetica,sans-Serif" font-size="10.00" fill="#000000"> uptane_public_key_path</text>
<text text-anchor="middle" x="305.5" y="-663.5" font-family="Helvetica,sans-Serif" font-size="10.00" fill="#000000">tls_pkey_path</text>
<text text-anchor="middle" x="305.5" y="-652.5" font-family="Helvetica,sans-Serif" font-size="10.00" fill="#000000">uptane_metadata_path</text>
<text text-anchor="middle" x="305.5" y="-641.5" font-family="Helvetica,sans-Serif" font-size="10.00" fill="#000000">sqldb_path</text>
<text text-anchor="start" x="251" y="-630.5" font-family="Helvetica,sans-Serif" font-size="10.00" fill="#000000">uptane_private_key</text>
<text text-anchor="middle" x="305.5" y="-619.5" font-family="Helvetica,sans-Serif" font-size="10.00" fill="#000000">_path</text>
<text text-anchor="middle" x="305.5" y="-608.5" font-family="Helvetica,sans-Serif" font-size="10.00" fill="#000000">tls_cacert_path</text>
<text text-anchor="middle" x="305.5" y="-597.5" font-family="Helvetica,sans-Serif" font-size="10.00" fill="#000000">tls_clientcert_path</text>
</g>
<!-- Node10 -->
<g id="node9" class="node">
<title>Node10</title>
<g id="a_node9"><a xlink:href="struct_aktualizr_secondary_uptane_config.html" target="_top" xlink:title="AktualizrSecondaryUptane\lConfig">
<polygon fill="#ffffff" stroke="#000000" points="386,-544.5 386,-574.5 519,-574.5 519,-544.5 386,-544.5"/>
<text text-anchor="start" x="394" y="-562.5" font-family="Helvetica,sans-Serif" font-size="10.00" fill="#000000">AktualizrSecondaryUptane</text>
<text text-anchor="middle" x="452.5" y="-551.5" font-family="Helvetica,sans-Serif" font-size="10.00" fill="#000000">Config</text>
</a>
</g>
</g>
<!-- Node10&#45;&gt;Node5 -->
<g id="edge8" class="edge">
<title>Node10&#45;&gt;Node5</title>
<path fill="none" stroke="#9a32cd" stroke-dasharray="5,2" d="M516.4236,-541.6854C539.0451,-535.3514 564.6654,-528.1439 588,-521.5 605.7407,-516.4488 625.5047,-510.7426 641.6576,-506.0584"/>
<polygon fill="#9a32cd" stroke="#9a32cd" points="515.2821,-538.3703 506.595,-544.4353 517.1682,-545.1114 515.2821,-538.3703"/>
<text text-anchor="middle" x="566.5" y="-535.5" font-family="Helvetica,sans-Serif" font-size="10.00" fill="#000000"> uptane</text>
</g>
<!-- Node11 -->
<g id="node10" class="node">
<title>Node11</title>
<g id="a_node10"><a xlink:title="STL class. ">
<polygon fill="#ffffff" stroke="#bfbfbf" points="152.5,-354 152.5,-373 212.5,-373 212.5,-354 152.5,-354"/>
<text text-anchor="middle" x="182.5" y="-361" font-family="Helvetica,sans-Serif" font-size="10.00" fill="#000000">std::string</text>
</a>
</g>
</g>
<!-- Node11&#45;&gt;Node2 -->
<g id="edge40" class="edge">
<title>Node11&#45;&gt;Node2</title>
<path fill="none" stroke="#9a32cd" stroke-dasharray="5,2" d="M223.1935,-365.4865C384.0854,-373.155 976.1241,-399.5687 1163,-382.5 1231.4074,-376.2519 1250.2528,-377.4439 1315,-354.5 1377.6867,-332.2863 1444.9613,-289.3735 1473.4626,-270.1842"/>
<polygon fill="#9a32cd" stroke="#9a32cd" points="222.9522,-361.971 212.7961,-364.9884 222.6171,-368.963 222.9522,-361.971"/>
<text text-anchor="middle" x="823.5" y="-390.5" font-family="Helvetica,sans-Serif" font-size="10.00" fill="#000000"> detected_attack_</text>
</g>
<!-- Node11&#45;&gt;Node10 -->
<g id="edge9" class="edge">
<title>Node11&#45;&gt;Node10</title>
<path fill="none" stroke="#9a32cd" stroke-dasharray="5,2" d="M189.5165,-382.8568C199.5697,-408.1558 220.3112,-452.4187 251,-479.5 289.0993,-513.1207 343.0512,-533.5294 385.541,-545.311"/>
<polygon fill="#9a32cd" stroke="#9a32cd" points="192.6982,-381.3773 185.8646,-373.2809 186.1577,-383.8716 192.6982,-381.3773"/>
<text text-anchor="middle" x="305.5" y="-550.5" font-family="Helvetica,sans-Serif" font-size="10.00" fill="#000000"> ecu_hardware_id</text>
<text text-anchor="middle" x="305.5" y="-539.5" font-family="Helvetica,sans-Serif" font-size="10.00" fill="#000000">ecu_serial</text>
</g>
<!-- Node14 -->
<g id="node13" class="node">
<title>Node14</title>
<g id="a_node13"><a xlink:href="struct_package_config.html" target="_top" xlink:title="PackageConfig">
<polygon fill="#ffffff" stroke="#000000" points="411,-430 411,-449 494,-449 494,-430 411,-430"/>
<text text-anchor="middle" x="452.5" y="-437" font-family="Helvetica,sans-Serif" font-size="10.00" fill="#000000">PackageConfig</text>
</a>
</g>
</g>
<!-- Node11&#45;&gt;Node14 -->
<g id="edge13" class="edge">
<title>Node11&#45;&gt;Node14</title>
<path fill="none" stroke="#9a32cd" stroke-dasharray="5,2" d="M191.3428,-382.1138C202.1807,-402.4871 222.6606,-434.0424 251,-447.5 278.277,-460.4531 360.2839,-452.3175 410.8787,-445.6323"/>
<polygon fill="#9a32cd" stroke="#9a32cd" points="194.4405,-380.4836 186.8047,-373.1389 188.1937,-383.6423 194.4405,-380.4836"/>
<text text-anchor="middle" x="305.5" y="-467.5" font-family="Helvetica,sans-Serif" font-size="10.00" fill="#000000"> os</text>
<text text-anchor="middle" x="305.5" y="-456.5" font-family="Helvetica,sans-Serif" font-size="10.00" fill="#000000">ostree_server</text>
</g>
<!-- Node16 -->
<g id="node15" class="node">
<title>Node16</title>
<g id="a_node15"><a xlink:href="struct_p11_config.html" target="_top" xlink:title="P11Config">
<polygon fill="#ffffff" stroke="#000000" points="421.5,-392 421.5,-411 483.5,-411 483.5,-392 421.5,-392"/>
<text text-anchor="middle" x="452.5" y="-399" font-family="Helvetica,sans-Serif" font-size="10.00" fill="#000000">P11Config</text>
</a>
</g>
</g>
<!-- Node11&#45;&gt;Node16 -->
<g id="edge16" class="edge">
<title>Node11&#45;&gt;Node16</title>
<path fill="none" stroke="#9a32cd" stroke-dasharray="5,2" d="M222.9362,-370.1724C232.1534,-371.6435 241.9092,-373.1613 251,-374.5 311.2347,-383.3704 381.7837,-392.5458 421.3976,-397.5875"/>
<polygon fill="#9a32cd" stroke="#9a32cd" points="223.2521,-366.6783 212.8227,-368.5433 222.1388,-373.5892 223.2521,-366.6783"/>
<text text-anchor="middle" x="305.5" y="-435.5" font-family="Helvetica,sans-Serif" font-size="10.00" fill="#000000"> tls_pkey_id</text>
<text text-anchor="middle" x="305.5" y="-424.5" font-family="Helvetica,sans-Serif" font-size="10.00" fill="#000000">tls_clientcert_id</text>
<text text-anchor="middle" x="305.5" y="-413.5" font-family="Helvetica,sans-Serif" font-size="10.00" fill="#000000">pass</text>
<text text-anchor="middle" x="305.5" y="-402.5" font-family="Helvetica,sans-Serif" font-size="10.00" fill="#000000">uptane_key_id</text>
<text text-anchor="middle" x="305.5" y="-391.5" font-family="Helvetica,sans-Serif" font-size="10.00" fill="#000000">tls_cacert_id</text>
</g>
<!-- Node23 -->
<g id="node22" class="node">
<title>Node23</title>
<polygon fill="#ffffff" stroke="#bfbfbf" points="378,-59 378,-78 527,-78 527,-59 378,-59"/>
<text text-anchor="middle" x="452.5" y="-66" font-family="Helvetica,sans-Serif" font-size="10.00" fill="#000000">std::map&lt; KeyId, PublicKey &gt;</text>
</g>
<!-- Node11&#45;&gt;Node23 -->
<g id="edge25" class="edge">
<title>Node11&#45;&gt;Node23</title>
<path fill="none" stroke="#9a32cd" stroke-dasharray="5,2" d="M187.8893,-344.008C197.2333,-312.4518 218.6009,-249.1162 251,-203.5 295.2666,-141.1749 310.7278,-123.8098 378,-87.5 385.1652,-83.6326 393.1457,-80.5295 401.1461,-78.046"/>
<polygon fill="#9a32cd" stroke="#9a32cd" points="184.484,-343.1856 185.0873,-353.7633 191.212,-345.1182 184.484,-343.1856"/>
<text text-anchor="middle" x="305.5" y="-206.5" font-family="Helvetica,sans-Serif" font-size="10.00" fill="#000000"> keys</text>
</g>
<!-- Node26 -->
<g id="node25" class="node">
<title>Node26</title>
<g id="a_node25"><a xlink:href="class_uptane_1_1_role.html" target="_top" xlink:title="TUF Roles. ">
<polygon fill="#ffffff" stroke="#000000" points="415.5,-198 415.5,-217 489.5,-217 489.5,-198 415.5,-198"/>
<text text-anchor="middle" x="452.5" y="-205" font-family="Helvetica,sans-Serif" font-size="10.00" fill="#000000">Uptane::Role</text>
</a>
</g>
</g>
<!-- Node11&#45;&gt;Node26 -->
<g id="edge28" class="edge">
<title>Node11&#45;&gt;Node26</title>
<path fill="none" stroke="#9a32cd" stroke-dasharray="5,2" d="M190.4229,-344.3926C200.9042,-321.4834 221.5552,-283.5499 251,-262.5 300.7066,-226.9652 372.2752,-214.3809 415.3921,-209.9297"/>
<polygon fill="#9a32cd" stroke="#9a32cd" points="187.132,-343.1824 186.3277,-353.7466 193.5444,-345.9898 187.132,-343.1824"/>
<text text-anchor="middle" x="305.5" y="-298.5" font-family="Helvetica,sans-Serif" font-size="10.00" fill="#000000"> ROOT</text>
<text text-anchor="middle" x="305.5" y="-287.5" font-family="Helvetica,sans-Serif" font-size="10.00" fill="#000000">TIMESTAMP</text>
<text text-anchor="middle" x="305.5" y="-276.5" font-family="Helvetica,sans-Serif" font-size="10.00" fill="#000000">SNAPSHOT</text>
<text text-anchor="middle" x="305.5" y="-265.5" font-family="Helvetica,sans-Serif" font-size="10.00" fill="#000000">TARGETS</text>
</g>
<!-- Node30 -->
<g id="node29" class="node">
<title>Node30</title>
<polygon fill="#ffffff" stroke="#bfbfbf" points="390,-279 390,-298 515,-298 515,-279 390,-279"/>
<text text-anchor="middle" x="452.5" y="-286" font-family="Helvetica,sans-Serif" font-size="10.00" fill="#000000">std::vector&lt; std::string &gt;</text>
</g>
<!-- Node11&#45;&gt;Node30 -->
<g id="edge36" class="edge">
<title>Node11&#45;&gt;Node30</title>
<path fill="none" stroke="#9a32cd" stroke-dasharray="5,2" d="M216.3434,-350.337C227.3161,-346.288 239.5987,-341.9842 251,-338.5 304.4283,-322.1724 367.0267,-307.2869 408.1043,-298.0828"/>
<polygon fill="#9a32cd" stroke="#9a32cd" points="214.8327,-347.1654 206.6976,-353.9529 217.2899,-353.72 214.8327,-347.1654"/>
<text text-anchor="middle" x="305.5" y="-341.5" font-family="Helvetica,sans-Serif" font-size="10.00" fill="#000000"> elements</text>
</g>
<!-- Node12 -->
<g id="node11" class="node">
<title>Node12</title>
<g id="a_node11"><a xlink:title="STL class. ">
<polygon fill="#ffffff" stroke="#bfbfbf" points="0,-348.5 0,-378.5 95,-378.5 95,-348.5 0,-348.5"/>
<text text-anchor="start" x="8" y="-366.5" font-family="Helvetica,sans-Serif" font-size="10.00" fill="#000000">std::basic_string&lt;</text>
<text text-anchor="middle" x="47.5" y="-355.5" font-family="Helvetica,sans-Serif" font-size="10.00" fill="#000000"> char &gt;</text>
</a>
</g>
</g>
<!-- Node12&#45;&gt;Node11 -->
<g id="edge10" class="edge">
<title>Node12&#45;&gt;Node11</title>
<path fill="none" stroke="#191970" d="M105.5104,-363.5C121.5786,-363.5 138.3787,-363.5 152.1705,-363.5"/>
<polygon fill="#191970" stroke="#191970" points="105.096,-360.0001 95.0959,-363.5 105.0959,-367.0001 105.096,-360.0001"/>
</g>
<!-- Node13 -->
<g id="node12" class="node">
<title>Node13</title>
<g id="a_node12"><a xlink:href="struct_logger_config.html" target="_top" xlink:title="LoggerConfig">
<polygon fill="#ffffff" stroke="#000000" points="415.5,-506 415.5,-525 489.5,-525 489.5,-506 415.5,-506"/>
<text text-anchor="middle" x="452.5" y="-513" font-family="Helvetica,sans-Serif" font-size="10.00" fill="#000000">LoggerConfig</text>
</a>
</g>
</g>
<!-- Node13&#45;&gt;Node5 -->
<g id="edge11" class="edge">
<title>Node13&#45;&gt;Node5</title>
<path fill="none" stroke="#9a32cd" stroke-dasharray="5,2" d="M499.6262,-511.4667C531.5565,-508.7339 574.176,-505.0863 609.346,-502.0762"/>
<polygon fill="#9a32cd" stroke="#9a32cd" points="499.3229,-507.9797 489.6578,-512.3198 499.9199,-514.9542 499.3229,-507.9797"/>
<text text-anchor="middle" x="566.5" y="-509.5" font-family="Helvetica,sans-Serif" font-size="10.00" fill="#000000"> logger</text>
</g>
<!-- Node14&#45;&gt;Node5 -->
<g id="edge12" class="edge">
<title>Node14&#45;&gt;Node5</title>
<path fill="none" stroke="#9a32cd" stroke-dasharray="5,2" d="M504.0313,-449.8367C529.4354,-455.2045 560.4572,-462.1665 588,-469.5 607.4589,-474.6811 629.0839,-481.4311 645.8442,-486.8858"/>
<polygon fill="#9a32cd" stroke="#9a32cd" points="504.7378,-446.4088 494.2329,-447.7862 503.3039,-453.2604 504.7378,-446.4088"/>
<text text-anchor="middle" x="566.5" y="-472.5" font-family="Helvetica,sans-Serif" font-size="10.00" fill="#000000"> pacman</text>
</g>
<!-- Node15 -->
<g id="node14" class="node">
<title>Node15</title>
<g id="a_node14"><a xlink:href="struct_aktualizr_secondary_net_config.html" target="_top" xlink:title="AktualizrSecondaryNetConfig">
<polygon fill="#ffffff" stroke="#000000" points="379.5,-468 379.5,-487 525.5,-487 525.5,-468 379.5,-468"/>
<text text-anchor="middle" x="452.5" y="-475" font-family="Helvetica,sans-Serif" font-size="10.00" fill="#000000">AktualizrSecondaryNetConfig</text>
</a>
</g>
</g>
<!-- Node15&#45;&gt;Node5 -->
<g id="edge14" class="edge">
<title>Node15&#45;&gt;Node5</title>
<path fill="none" stroke="#9a32cd" stroke-dasharray="5,2" d="M535.7157,-484.1073C553.0006,-485.5214 571.0962,-487.0322 588,-488.5 594.9115,-489.1001 602.132,-489.7429 609.3274,-490.3936"/>
<polygon fill="#9a32cd" stroke="#9a32cd" points="535.8986,-480.6107 525.6474,-483.287 535.3301,-487.5876 535.8986,-480.6107"/>
<text text-anchor="middle" x="566.5" y="-491.5" font-family="Helvetica,sans-Serif" font-size="10.00" fill="#000000"> network</text>
</g>
<!-- Node16&#45;&gt;Node5 -->
<g id="edge15" class="edge">
<title>Node16&#45;&gt;Node5</title>
<path fill="none" stroke="#9a32cd" stroke-dasharray="5,2" d="M493.3351,-411.046C504.334,-413.8529 516.1803,-417.0921 527,-420.5 554.6358,-429.2046 561.9754,-430.7632 588,-443.5 614.7344,-456.5842 643.8683,-475.4909 660.5826,-486.8304"/>
<polygon fill="#9a32cd" stroke="#9a32cd" points="494.0761,-407.6237 483.5261,-408.5974 492.3806,-414.4153 494.0761,-407.6237"/>
<text text-anchor="middle" x="566.5" y="-446.5" font-family="Helvetica,sans-Serif" font-size="10.00" fill="#000000"> p11</text>
</g>
<!-- Node17 -->
<g id="node16" class="node">
<title>Node17</title>
<g id="a_node16"><a xlink:href="class_uptane_1_1_hardware_identifier.html" target="_top" xlink:title="Uptane::HardwareIdentifier">
<polygon fill="#ffffff" stroke="#000000" points="1181,-193 1181,-212 1315,-212 1315,-193 1181,-193"/>
<text text-anchor="middle" x="1248" y="-200" font-family="Helvetica,sans-Serif" font-size="10.00" fill="#000000">Uptane::HardwareIdentifier</text>
</a>
</g>
</g>
<!-- Node17&#45;&gt;Node2 -->
<g id="edge17" class="edge">
<title>Node17&#45;&gt;Node2</title>
<path fill="none" stroke="#9a32cd" stroke-dasharray="5,2" d="M1316.9291,-213.8345C1342.8263,-218.5905 1372.4208,-224.6226 1399,-231.5 1420.288,-237.0083 1443.9345,-244.8486 1461.4256,-250.9886"/>
<polygon fill="#9a32cd" stroke="#9a32cd" points="1317.2902,-210.3432 1306.8272,-212.009 1316.0454,-217.2316 1317.2902,-210.3432"/>
<text text-anchor="middle" x="1366" y="-234.5" font-family="Helvetica,sans-Serif" font-size="10.00" fill="#000000"> hardware_id_</text>
</g>
<!-- Node18 -->
<g id="node17" class="node">
<title>Node18</title>
<g id="a_node17"><a xlink:href="class_uptane_1_1_targets.html" target="_top" xlink:title="Uptane::Targets">
<polygon fill="#ffffff" stroke="#000000" points="1204.5,-269 1204.5,-288 1291.5,-288 1291.5,-269 1204.5,-269"/>
<text text-anchor="middle" x="1248" y="-276" font-family="Helvetica,sans-Serif" font-size="10.00" fill="#000000">Uptane::Targets</text>
</a>
</g>
</g>
<!-- Node18&#45;&gt;Node2 -->
<g id="edge18" class="edge">
<title>Node18&#45;&gt;Node2</title>
<path fill="none" stroke="#9a32cd" stroke-dasharray="5,2" d="M1301.8473,-274.453C1335.8343,-271.8987 1380.1072,-268.5713 1416.8939,-265.8065"/>
<polygon fill="#9a32cd" stroke="#9a32cd" points="1301.359,-270.9798 1291.6495,-275.2195 1301.8837,-277.9601 1301.359,-270.9798"/>
<text text-anchor="middle" x="1366" y="-274.5" font-family="Helvetica,sans-Serif" font-size="10.00" fill="#000000"> meta_targets_</text>
</g>
<!-- Node19 -->
<g id="node18" class="node">
<title>Node19</title>
<g id="a_node18"><a xlink:href="class_uptane_1_1_meta_with_keys.html" target="_top" xlink:title="Uptane::MetaWithKeys">
<polygon fill="#ffffff" stroke="#000000" points="904,-104 904,-123 1023,-123 1023,-104 904,-104"/>
<text text-anchor="middle" x="963.5" y="-111" font-family="Helvetica,sans-Serif" font-size="10.00" fill="#000000">Uptane::MetaWithKeys</text>
</a>
</g>
</g>
<!-- Node19&#45;&gt;Node18 -->
<g id="edge19" class="edge">
<title>Node19&#45;&gt;Node18</title>
<path fill="none" stroke="#191970" d="M1001.5124,-126.3729C1014.0716,-130.5939 1028.1233,-135.2821 1041,-139.5 1095.0971,-157.22 1124.6147,-136.4636 1163,-178.5 1187.8673,-205.7326 1155.6857,-232.6824 1181,-259.5 1187.2245,-266.0942 1195.5525,-270.4554 1204.2172,-273.326"/>
<polygon fill="#191970" stroke="#191970" points="1002.4051,-122.9805 991.8111,-123.1058 1000.171,-129.6144 1002.4051,-122.9805"/>
</g>
<!-- Node33 -->
<g id="node32" class="node">
<title>Node33</title>
<g id="a_node32"><a xlink:href="class_uptane_1_1_root.html" target="_top" xlink:title="Uptane::Root">
<polygon fill="#ffffff" stroke="#000000" points="1210.5,-231 1210.5,-250 1285.5,-250 1285.5,-231 1210.5,-231"/>
<text text-anchor="middle" x="1248" y="-238" font-family="Helvetica,sans-Serif" font-size="10.00" fill="#000000">Uptane::Root</text>
</a>
</g>
</g>
<!-- Node19&#45;&gt;Node33 -->
<g id="edge42" class="edge">
<title>Node19&#45;&gt;Node33</title>
<path fill="none" stroke="#191970" d="M1033.434,-106.1442C1076.0566,-105.641 1128.7354,-112.729 1163,-144.5 1188.7712,-168.3957 1156.7356,-196.0756 1181,-221.5 1188.6797,-229.5468 1199.4927,-234.2639 1210.1951,-237.0051"/>
<polygon fill="#191970" stroke="#191970" points="1033.2981,-102.6465 1023.3916,-106.4028 1033.4784,-109.6442 1033.2981,-102.6465"/>
</g>
<!-- Node20 -->
<g id="node19" class="node">
<title>Node20</title>
<g id="a_node19"><a xlink:href="class_uptane_1_1_base_meta.html" target="_top" xlink:title="Uptane::BaseMeta">
<polygon fill="#ffffff" stroke="#000000" points="625.5,-97 625.5,-116 723.5,-116 723.5,-97 625.5,-97"/>
<text text-anchor="middle" x="674.5" y="-104" font-family="Helvetica,sans-Serif" font-size="10.00" fill="#000000">Uptane::BaseMeta</text>
</a>
</g>
</g>
<!-- Node20&#45;&gt;Node19 -->
<g id="edge20" class="edge">
<title>Node20&#45;&gt;Node19</title>
<path fill="none" stroke="#191970" d="M733.8023,-107.9364C783.5244,-109.1407 854.1816,-110.8522 903.9681,-112.058"/>
<polygon fill="#191970" stroke="#191970" points="733.6068,-104.4307 723.5249,-107.6875 733.4372,-111.4287 733.6068,-104.4307"/>
</g>
<!-- Node21 -->
<g id="node20" class="node">
<title>Node21</title>
<g id="a_node20"><a xlink:href="class_time_stamp.html" target="_top" xlink:title="TimeStamp">
<polygon fill="#ffffff" stroke="#000000" points="419,-97 419,-116 486,-116 486,-97 419,-97"/>
<text text-anchor="middle" x="452.5" y="-104" font-family="Helvetica,sans-Serif" font-size="10.00" fill="#000000">TimeStamp</text>
</a>
</g>
</g>
<!-- Node21&#45;&gt;Node20 -->
<g id="edge21" class="edge">
<title>Node21&#45;&gt;Node20</title>
<path fill="none" stroke="#9a32cd" stroke-dasharray="5,2" d="M496.2332,-106.5C533.35,-106.5 586.5769,-106.5 625.1987,-106.5"/>
<polygon fill="#9a32cd" stroke="#9a32cd" points="496.2171,-103.0001 486.217,-106.5 496.217,-110.0001 496.2171,-103.0001"/>
<text text-anchor="middle" x="566.5" y="-109.5" font-family="Helvetica,sans-Serif" font-size="10.00" fill="#000000"> expiry_</text>
</g>
<!-- Node22 -->
<g id="node21" class="node">
<title>Node22</title>
<polygon fill="#ffffff" stroke="#bfbfbf" points="608,-.5 608,-30.5 741,-30.5 741,-.5 608,-.5"/>
<text text-anchor="start" x="616" y="-18.5" font-family="Helvetica,sans-Serif" font-size="10.00" fill="#000000">std::set&lt; std::pair</text>
<text text-anchor="middle" x="674.5" y="-7.5" font-family="Helvetica,sans-Serif" font-size="10.00" fill="#000000">&lt; Uptane::Role, KeyId &gt; &gt;</text>
</g>
<!-- Node22&#45;&gt;Node19 -->
<g id="edge22" class="edge">
<title>Node22&#45;&gt;Node19</title>
<path fill="none" stroke="#9a32cd" stroke-dasharray="5,2" d="M751.2759,-14.1927C792.8485,-16.1674 844.12,-23.0739 886,-42.5 916.9549,-56.8585 944.0394,-88.1246 956.3909,-103.9359"/>
<polygon fill="#9a32cd" stroke="#9a32cd" points="751.3297,-10.6922 741.2011,-13.8006 751.0573,-17.6869 751.3297,-10.6922"/>
<text text-anchor="middle" x="823.5" y="-45.5" font-family="Helvetica,sans-Serif" font-size="10.00" fill="#000000"> keys_for_role_</text>
</g>
<!-- Node23&#45;&gt;Node19 -->
<g id="edge23" class="edge">
<title>Node23&#45;&gt;Node19</title>
<path fill="none" stroke="#9a32cd" stroke-dasharray="5,2" d="M537.232,-67.7416C595.2778,-67.9792 673.955,-69.7891 743,-76.5 804.0423,-82.4331 873.7285,-95.1366 918.1365,-103.9932"/>
<polygon fill="#9a32cd" stroke="#9a32cd" points="537.0153,-64.2411 527.0062,-67.7151 536.9971,-71.2411 537.0153,-64.2411"/>
<text text-anchor="middle" x="674.5" y="-79.5" font-family="Helvetica,sans-Serif" font-size="10.00" fill="#000000"> keys_</text>
</g>
<!-- Node24 -->
<g id="node23" class="node">
<title>Node24</title>
<g id="a_node23"><a xlink:href="class_public_key.html" target="_top" xlink:title="PublicKey">
<polygon fill="#ffffff" stroke="#000000" points="152,-59 152,-78 213,-78 213,-59 152,-59"/>
<text text-anchor="middle" x="182.5" y="-66" font-family="Helvetica,sans-Serif" font-size="10.00" fill="#000000">PublicKey</text>
</a>
</g>
</g>
<!-- Node24&#45;&gt;Node23 -->
<g id="edge24" class="edge">
<title>Node24&#45;&gt;Node23</title>
<path fill="none" stroke="#9a32cd" stroke-dasharray="5,2" d="M223.3246,-68.5C264.1428,-68.5 327.8509,-68.5 377.7461,-68.5"/>
<polygon fill="#9a32cd" stroke="#9a32cd" points="223.2096,-65.0001 213.2096,-68.5 223.2095,-72.0001 223.2096,-65.0001"/>
<text text-anchor="middle" x="305.5" y="-71.5" font-family="Helvetica,sans-Serif" font-size="10.00" fill="#000000"> elements</text>
</g>
<!-- Node25 -->
<g id="node24" class="node">
<title>Node25</title>
<polygon fill="#ffffff" stroke="#bfbfbf" points="612,-135.5 612,-165.5 737,-165.5 737,-135.5 612,-135.5"/>
<text text-anchor="start" x="620" y="-153.5" font-family="Helvetica,sans-Serif" font-size="10.00" fill="#000000">std::map&lt; Uptane::Role,</text>
<text text-anchor="middle" x="674.5" y="-142.5" font-family="Helvetica,sans-Serif" font-size="10.00" fill="#000000"> int64_t &gt;</text>
</g>
<!-- Node25&#45;&gt;Node19 -->
<g id="edge26" class="edge">
<title>Node25&#45;&gt;Node19</title>
<path fill="none" stroke="#9a32cd" stroke-dasharray="5,2" d="M747.5479,-141.1994C788.2953,-136.0052 839.9678,-129.408 886,-123.5 891.7861,-122.7574 897.815,-121.9821 903.8418,-121.2061"/>
<polygon fill="#9a32cd" stroke="#9a32cd" points="746.9111,-137.7522 737.4339,-142.4885 747.7962,-144.696 746.9111,-137.7522"/>
<text text-anchor="middle" x="823.5" y="-142.5" font-family="Helvetica,sans-Serif" font-size="10.00" fill="#000000"> thresholds_for_role_</text>
</g>
<!-- Node26&#45;&gt;Node25 -->
<g id="edge27" class="edge">
<title>Node26&#45;&gt;Node25</title>
<path fill="none" stroke="#9a32cd" stroke-dasharray="5,2" d="M476.1979,-192.582C494.3122,-181.9722 520.2925,-168.4208 545,-161.5 566.2928,-155.5357 590.2609,-152.5258 611.7357,-151.0824"/>
<polygon fill="#9a32cd" stroke="#9a32cd" points="474.2614,-189.6622 467.4907,-197.8113 477.8655,-195.6631 474.2614,-189.6622"/>
<text text-anchor="middle" x="566.5" y="-164.5" font-family="Helvetica,sans-Serif" font-size="10.00" fill="#000000"> keys</text>
</g>
<!-- Node28 -->
<g id="node27" class="node">
<title>Node28</title>
<polygon fill="#ffffff" stroke="#bfbfbf" points="761,-178.5 761,-208.5 886,-208.5 886,-178.5 761,-178.5"/>
<text text-anchor="start" x="769" y="-196.5" font-family="Helvetica,sans-Serif" font-size="10.00" fill="#000000">std::map&lt; Uptane::Role,</text>
<text text-anchor="middle" x="823.5" y="-185.5" font-family="Helvetica,sans-Serif" font-size="10.00" fill="#000000"> bool &gt;</text>
</g>
<!-- Node26&#45;&gt;Node28 -->
<g id="edge32" class="edge">
<title>Node26&#45;&gt;Node28</title>
<path fill="none" stroke="#9a32cd" stroke-dasharray="5,2" d="M499.9405,-205.7098C566.3032,-203.2055 686.9744,-198.6519 760.7178,-195.8691"/>
<polygon fill="#9a32cd" stroke="#9a32cd" points="499.6324,-202.2188 489.7715,-206.0935 499.8964,-209.2139 499.6324,-202.2188"/>
<text text-anchor="middle" x="566.5" y="-206.5" font-family="Helvetica,sans-Serif" font-size="10.00" fill="#000000"> keys</text>
</g>
<!-- Node29 -->
<g id="node28" class="node">
<title>Node29</title>
<polygon fill="#ffffff" stroke="#bfbfbf" points="606,-224.5 606,-254.5 743,-254.5 743,-224.5 606,-224.5"/>
<text text-anchor="start" x="614" y="-242.5" font-family="Helvetica,sans-Serif" font-size="10.00" fill="#000000">std::map&lt; Uptane::Role,</text>
<text text-anchor="middle" x="674.5" y="-231.5" font-family="Helvetica,sans-Serif" font-size="10.00" fill="#000000"> std::vector&lt; std::string &gt; &gt;</text>
</g>
<!-- Node26&#45;&gt;Node29 -->
<g id="edge34" class="edge">
<title>Node26&#45;&gt;Node29</title>
<path fill="none" stroke="#9a32cd" stroke-dasharray="5,2" d="M499.7142,-214.3056C530.5618,-218.7522 571.3583,-224.6327 605.7781,-229.5941"/>
<polygon fill="#9a32cd" stroke="#9a32cd" points="500.0549,-210.8187 489.6578,-212.8561 499.0561,-217.7471 500.0549,-210.8187"/>
<text text-anchor="middle" x="566.5" y="-228.5" font-family="Helvetica,sans-Serif" font-size="10.00" fill="#000000"> keys</text>
</g>
<!-- Node27&#45;&gt;Node18 -->
<g id="edge29" class="edge">
<title>Node27&#45;&gt;Node18</title>
<path fill="none" stroke="#9a32cd" stroke-dasharray="5,2" d="M1025.6035,-313.3894C1064.9901,-307.5548 1117.0091,-299.7451 1163,-292.5 1176.444,-290.3821 1191.0705,-288.0009 1204.3402,-285.8112"/>
<polygon fill="#9a32cd" stroke="#9a32cd" points="1024.9975,-309.9408 1015.6173,-314.8664 1026.0218,-316.8655 1024.9975,-309.9408"/>
<text text-anchor="middle" x="1102" y="-313.5" font-family="Helvetica,sans-Serif" font-size="10.00" fill="#000000"> targets</text>
</g>
<!-- Node28&#45;&gt;Node18 -->
<g id="edge31" class="edge">
<title>Node28&#45;&gt;Node18</title>
<path fill="none" stroke="#9a32cd" stroke-dasharray="5,2" d="M896.2076,-180.9761C970.1328,-172.3601 1084.6435,-170.8059 1163,-225.5 1177.0204,-235.2865 1167.7062,-248.7473 1181,-259.5 1187.7683,-264.9746 1196.0293,-268.8726 1204.4079,-271.6479"/>
<polygon fill="#9a32cd" stroke="#9a32cd" points="895.5477,-177.531 886.0538,-182.2336 896.4081,-184.4779 895.5477,-177.531"/>
<text text-anchor="middle" x="963.5" y="-183.5" font-family="Helvetica,sans-Serif" font-size="10.00" fill="#000000"> terminating_role_</text>
</g>
<!-- Node29&#45;&gt;Node18 -->
<g id="edge33" class="edge">
<title>Node29&#45;&gt;Node18</title>
<path fill="none" stroke="#9a32cd" stroke-dasharray="5,2" d="M753.4125,-240.1622C850.2319,-241.7512 1019.2365,-247.0447 1163,-264.5 1176.5105,-266.1404 1191.1563,-268.3836 1204.4232,-270.5938"/>
<polygon fill="#9a32cd" stroke="#9a32cd" points="753.1742,-236.6582 743.1212,-240.0029 753.0658,-243.6574 753.1742,-236.6582"/>
<text text-anchor="middle" x="963.5" y="-253.5" font-family="Helvetica,sans-Serif" font-size="10.00" fill="#000000"> paths_for_role_</text>
</g>
<!-- Node30&#45;&gt;Node18 -->
<g id="edge37" class="edge">
<title>Node30&#45;&gt;Node18</title>
<path fill="none" stroke="#9a32cd" stroke-dasharray="5,2" d="M525.6138,-287.5809C687.8933,-285.5409 1074.0958,-280.6861 1204.2886,-279.0495"/>
<polygon fill="#9a32cd" stroke="#9a32cd" points="525.2088,-284.0856 515.2536,-287.7111 525.2969,-291.0851 525.2088,-284.0856"/>
<text text-anchor="middle" x="823.5" y="-287.5" font-family="Helvetica,sans-Serif" font-size="10.00" fill="#000000"> delegated_role_names_</text>
</g>
<!-- Node30&#45;&gt;Node29 -->
<g id="edge35" class="edge">
<title>Node30&#45;&gt;Node29</title>
<path fill="none" stroke="#9a32cd" stroke-dasharray="5,2" d="M495.1959,-276.1881C510.7987,-271.8936 528.6332,-267.222 545,-263.5 564.6207,-259.0381 586.0544,-254.8078 605.7362,-251.1771"/>
<polygon fill="#9a32cd" stroke="#9a32cd" points="493.9979,-272.8884 485.3028,-278.9419 495.8751,-279.632 493.9979,-272.8884"/>
<text text-anchor="middle" x="566.5" y="-266.5" font-family="Helvetica,sans-Serif" font-size="10.00" fill="#000000"> elements</text>
</g>
<!-- Node31 -->
<g id="node30" class="node">
<title>Node31</title>
<g id="a_node30"><a xlink:href="class_key_manager.html" target="_top" xlink:title="KeyManager">
<polygon fill="#ffffff" stroke="#000000" points="1212.5,-155 1212.5,-174 1283.5,-174 1283.5,-155 1212.5,-155"/>
<text text-anchor="middle" x="1248" y="-162" font-family="Helvetica,sans-Serif" font-size="10.00" fill="#000000">KeyManager</text>
</a>
</g>
</g>
<!-- Node31&#45;&gt;Node2 -->
<g id="edge38" class="edge">
<title>Node31&#45;&gt;Node2</title>
<path fill="none" stroke="#9a32cd" stroke-dasharray="5,2" d="M1293.5986,-171.4047C1324.2767,-177.0679 1365.1458,-186.6186 1399,-201.5 1428.9215,-214.6527 1459.7739,-237.8222 1475.9663,-250.8696"/>
<polygon fill="#9a32cd" stroke="#9a32cd" points="1294.0683,-167.9334 1283.6103,-169.631 1292.8443,-174.8256 1294.0683,-167.9334"/>
<text text-anchor="middle" x="1366" y="-204.5" font-family="Helvetica,sans-Serif" font-size="10.00" fill="#000000"> keys_</text>
</g>
<!-- Node32 -->
<g id="node31" class="node">
<title>Node32</title>
<g id="a_node31"><a xlink:href="class_uptane_1_1_ecu_serial.html" target="_top" xlink:title="Uptane::EcuSerial">
<polygon fill="#ffffff" stroke="#000000" points="1200,-117 1200,-136 1296,-136 1296,-117 1200,-117"/>
<text text-anchor="middle" x="1248" y="-124" font-family="Helvetica,sans-Serif" font-size="10.00" fill="#000000">Uptane::EcuSerial</text>
</a>
</g>
</g>
<!-- Node32&#45;&gt;Node2 -->
<g id="edge39" class="edge">
<title>Node32&#45;&gt;Node2</title>
<path fill="none" stroke="#9a32cd" stroke-dasharray="5,2" d="M1306.3728,-133.6537C1335.7114,-139.1558 1370.9016,-148.7797 1399,-165.5 1436.7729,-187.9772 1468.3502,-231.3323 1481.2541,-250.7174"/>
<polygon fill="#9a32cd" stroke="#9a32cd" points="1306.7158,-130.1604 1296.2606,-131.8746 1305.5028,-137.0545 1306.7158,-130.1604"/>
<text text-anchor="middle" x="1366" y="-168.5" font-family="Helvetica,sans-Serif" font-size="10.00" fill="#000000"> ecu_serial_</text>
</g>
<!-- Node33&#45;&gt;Node2 -->
<g id="edge41" class="edge">
<title>Node33&#45;&gt;Node2</title>
<path fill="none" stroke="#9a32cd" stroke-dasharray="5,2" d="M1295.6719,-243.6221C1325.4029,-245.6562 1364.4503,-248.4854 1399,-251.5 1404.8464,-252.0101 1410.9072,-252.5671 1416.9898,-253.1458"/>
<polygon fill="#9a32cd" stroke="#9a32cd" points="1295.7808,-240.1216 1285.5668,-242.9368 1295.307,-247.1055 1295.7808,-240.1216"/>
<text text-anchor="middle" x="1366" y="-254.5" font-family="Helvetica,sans-Serif" font-size="10.00" fill="#000000"> root_</text>
</g>
</g>
</svg>
