<?xml version="1.0" encoding="UTF-8" standalone="no"?>
<!DOCTYPE svg PUBLIC "-//W3C//DTD SVG 1.1//EN"
 "http://www.w3.org/Graphics/SVG/1.1/DTD/svg11.dtd">
<!-- Generated by graphviz version 2.40.1 (20161225.0304)
 -->
<!-- Title: HttpFakePutCounter Pages: 1 -->
<svg width="300pt" height="252pt"
 viewBox="0.00 0.00 299.50 252.00" xmlns="http://www.w3.org/2000/svg" xmlns:xlink="http://www.w3.org/1999/xlink">
<g id="graph0" class="graph" transform="scale(1 1) rotate(0) translate(4 248)">
<title>HttpFakePutCounter</title>
<polygon fill="#ffffff" stroke="transparent" points="-4,4 -4,-248 295.5,-248 295.5,4 -4,4"/>
<!-- Node3 -->
<g id="node1" class="node">
<title>Node3</title>
<polygon fill="#bfbfbf" stroke="#000000" points="138.5,-.5 138.5,-19.5 245.5,-19.5 245.5,-.5 138.5,-.5"/>
<text text-anchor="middle" x="192" y="-7.5" font-family="Helvetica,sans-Serif" font-size="10.00" fill="#000000">HttpFakePutCounter</text>
</g>
<!-- Node4 -->
<g id="node2" class="node">
<title>Node4</title>
<g id="a_node2"><a xlink:href="class_http_fake.html" target="_top" xlink:title="HttpFake">
<polygon fill="#ffffff" stroke="#000000" points="115.5,-73 115.5,-92 172.5,-92 172.5,-73 115.5,-73"/>
<text text-anchor="middle" x="144" y="-80" font-family="Helvetica,sans-Serif" font-size="10.00" fill="#000000">HttpFake</text>
</a>
</g>
</g>
<!-- Node4&#45;&gt;Node3 -->
<g id="edge1" class="edge">
<title>Node4&#45;&gt;Node3</title>
<path fill="none" stroke="#191970" d="M156.085,-64.2466C165.4724,-50.0677 178.1185,-30.9668 185.6291,-19.6228"/>
<polygon fill="#191970" stroke="#191970" points="153.0756,-62.452 150.4735,-72.7223 158.9123,-66.3163 153.0756,-62.452"/>
</g>
<!-- Node5 -->
<g id="node3" class="node">
<title>Node5</title>
<g id="a_node3"><a xlink:href="class_http_interface.html" target="_top" xlink:title="HttpInterface">
<polygon fill="#ffffff" stroke="#000000" points="0,-156.5 0,-175.5 74,-175.5 74,-156.5 0,-156.5"/>
<text text-anchor="middle" x="37" y="-163.5" font-family="Helvetica,sans-Serif" font-size="10.00" fill="#000000">HttpInterface</text>
</a>
</g>
</g>
<!-- Node5&#45;&gt;Node4 -->
<g id="edge2" class="edge">
<title>Node5&#45;&gt;Node4</title>
<path fill="none" stroke="#191970" d="M57.2726,-150.1798C79.1523,-133.1055 113.3059,-106.4529 131.5393,-92.224"/>
<polygon fill="#191970" stroke="#191970" points="55.0046,-147.51 49.2743,-156.4215 59.3111,-153.0286 55.0046,-147.51"/>
</g>
<!-- Node6 -->
<g id="node4" class="node">
<title>Node6</title>
<g id="a_node4"><a xlink:href="class_temporary_directory.html" target="_top" xlink:title="TemporaryDirectory">
<polygon fill="#ffffff" stroke="#000000" points="92.5,-156.5 92.5,-175.5 195.5,-175.5 195.5,-156.5 92.5,-156.5"/>
<text text-anchor="middle" x="144" y="-163.5" font-family="Helvetica,sans-Serif" font-size="10.00" fill="#000000">TemporaryDirectory</text>
</a>
</g>
</g>
<!-- Node6&#45;&gt;Node4 -->
<g id="edge3" class="edge">
<title>Node6&#45;&gt;Node4</title>
<path fill="none" stroke="#9a32cd" stroke-dasharray="5,2" d="M144,-146.4172C144,-129.3939 144,-105.4456 144,-92.224"/>
<polygon fill="#9a32cd" stroke="#9a32cd" points="140.5001,-146.4215 144,-156.4215 147.5001,-146.4215 140.5001,-146.4215"/>
<text text-anchor="middle" x="178" y="-124.5" font-family="Helvetica,sans-Serif" font-size="10.00" fill="#000000"> temp_meta_dir</text>
</g>
<!-- Node7 -->
<g id="node5" class="node">
<title>Node7</title>
<g id="a_node5"><a xlink:title="STL class. ">
<polygon fill="#ffffff" stroke="#bfbfbf" points="214,-156.5 214,-175.5 274,-175.5 274,-156.5 214,-156.5"/>
<text text-anchor="middle" x="244" y="-163.5" font-family="Helvetica,sans-Serif" font-size="10.00" fill="#000000">std::string</text>
</a>
</g>
</g>
<!-- Node7&#45;&gt;Node4 -->
<g id="edge4" class="edge">
<title>Node7&#45;&gt;Node4</title>
<path fill="none" stroke="#9a32cd" stroke-dasharray="5,2" d="M236.7816,-147.0096C232.1168,-136.7712 225.1902,-124.5255 216,-116 212.0329,-112.3198 185.8515,-100.5538 166.1951,-92.0039"/>
<polygon fill="#9a32cd" stroke="#9a32cd" points="233.607,-148.4902 240.6927,-156.3669 240.0655,-145.7907 233.607,-148.4902"/>
<text text-anchor="middle" x="254" y="-130" font-family="Helvetica,sans-Serif" font-size="10.00" fill="#000000"> tls_server</text>
<text text-anchor="middle" x="254" y="-119" font-family="Helvetica,sans-Serif" font-size="10.00" fill="#000000">flavor_</text>
</g>
<!-- Node8 -->
<g id="node6" class="node">
<title>Node8</title>
<g id="a_node6"><a xlink:title="STL class. ">
<polygon fill="#ffffff" stroke="#bfbfbf" points="196.5,-213.5 196.5,-243.5 291.5,-243.5 291.5,-213.5 196.5,-213.5"/>
<text text-anchor="start" x="204.5" y="-231.5" font-family="Helvetica,sans-Serif" font-size="10.00" fill="#000000">std::basic_string&lt;</text>
<text text-anchor="middle" x="244" y="-220.5" font-family="Helvetica,sans-Serif" font-size="10.00" fill="#000000"> char &gt;</text>
</a>
</g>
</g>
<!-- Node8&#45;&gt;Node7 -->
<g id="edge5" class="edge">
<title>Node8&#45;&gt;Node7</title>
<path fill="none" stroke="#191970" d="M244,-203.3498C244,-193.6481 244,-183.1303 244,-175.7356"/>
<polygon fill="#191970" stroke="#191970" points="240.5001,-203.3705 244,-213.3705 247.5001,-203.3705 240.5001,-203.3705"/>
</g>
<!-- Node9 -->
<g id="node7" class="node">
<title>Node9</title>
<polygon fill="#ffffff" stroke="#bfbfbf" points="190.5,-67.5 190.5,-97.5 289.5,-97.5 289.5,-67.5 190.5,-67.5"/>
<text text-anchor="start" x="198.5" y="-85.5" font-family="Helvetica,sans-Serif" font-size="10.00" fill="#000000">std::vector&lt; Json::</text>
<text text-anchor="middle" x="240" y="-74.5" font-family="Helvetica,sans-Serif" font-size="10.00" fill="#000000">Value &gt;</text>
</g>
<!-- Node9&#45;&gt;Node3 -->
<g id="edge6" class="edge">
<title>Node9&#45;&gt;Node3</title>
<path fill="none" stroke="#9a32cd" stroke-dasharray="5,2" d="M224.3357,-58.8403C215.5881,-45.6278 205.1534,-29.8672 198.5516,-19.8957"/>
<polygon fill="#9a32cd" stroke="#9a32cd" points="221.6155,-61.0719 230.0544,-67.478 227.4523,-57.2076 221.6155,-61.0719"/>
<text text-anchor="middle" x="233.5" y="-41" font-family="Helvetica,sans-Serif" font-size="10.00" fill="#000000"> events</text>
</g>
</g>
</svg>
