<?xml version="1.0" encoding="UTF-8" standalone="no"?>
<!DOCTYPE svg PUBLIC "-//W3C//DTD SVG 1.1//EN"
 "http://www.w3.org/Graphics/SVG/1.1/DTD/svg11.dtd">
<!-- Generated by graphviz version 2.40.1 (20161225.0304)
 -->
<!-- Title: EphemeralStorage Pages: 1 -->
<svg width="267pt" height="364pt"
 viewBox="0.00 0.00 266.50 364.00" xmlns="http://www.w3.org/2000/svg" xmlns:xlink="http://www.w3.org/1999/xlink">
<g id="graph0" class="graph" transform="scale(1 1) rotate(0) translate(4 360)">
<title>EphemeralStorage</title>
<polygon fill="#ffffff" stroke="transparent" points="-4,4 -4,-360 262.5,-360 262.5,4 -4,4"/>
<!-- Node4 -->
<g id="node1" class="node">
<title>Node4</title>
<polygon fill="#bfbfbf" stroke="#000000" points="49,-.5 49,-19.5 146,-19.5 146,-.5 49,-.5"/>
<text text-anchor="middle" x="97.5" y="-7.5" font-family="Helvetica,sans-Serif" font-size="10.00" fill="#000000">EphemeralStorage</text>
</g>
<!-- Node5 -->
<g id="node2" class="node">
<title>Node5</title>
<g id="a_node2"><a xlink:href="class_s_q_l_storage.html" target="_top" xlink:title="SQLStorage">
<polygon fill="#ffffff" stroke="#000000" points="62.5,-57.5 62.5,-76.5 132.5,-76.5 132.5,-57.5 62.5,-57.5"/>
<text text-anchor="middle" x="97.5" y="-64.5" font-family="Helvetica,sans-Serif" font-size="10.00" fill="#000000">SQLStorage</text>
</a>
</g>
</g>
<!-- Node5&#45;&gt;Node4 -->
<g id="edge1" class="edge">
<title>Node5&#45;&gt;Node4</title>
<path fill="none" stroke="#191970" d="M97.5,-47.2342C97.5,-37.8491 97.5,-27.0651 97.5,-19.5265"/>
<polygon fill="#191970" stroke="#191970" points="94.0001,-47.3307 97.5,-57.3307 101.0001,-47.3308 94.0001,-47.3307"/>
</g>
<!-- Node6 -->
<g id="node3" class="node">
<title>Node6</title>
<g id="a_node3"><a xlink:href="class_s_q_l_storage_base.html" target="_top" xlink:title="SQLStorageBase">
<polygon fill="#ffffff" stroke="#000000" points="3.5,-114.5 3.5,-133.5 95.5,-133.5 95.5,-114.5 3.5,-114.5"/>
<text text-anchor="middle" x="49.5" y="-121.5" font-family="Helvetica,sans-Serif" font-size="10.00" fill="#000000">SQLStorageBase</text>
</a>
</g>
</g>
<!-- Node6&#45;&gt;Node5 -->
<g id="edge2" class="edge">
<title>Node6&#45;&gt;Node5</title>
<path fill="none" stroke="#191970" d="M64.1124,-106.6477C72.4482,-96.7491 82.5774,-84.7206 89.4777,-76.5265"/>
<polygon fill="#191970" stroke="#191970" points="61.4067,-104.4271 57.6425,-114.3307 66.7611,-108.9361 61.4067,-104.4271"/>
</g>
<!-- Node7 -->
<g id="node4" class="node">
<title>Node7</title>
<g id="a_node4"><a xlink:title="STL class. ">
<polygon fill="#ffffff" stroke="#bfbfbf" points="17.5,-181.5 17.5,-200.5 77.5,-200.5 77.5,-181.5 17.5,-181.5"/>
<text text-anchor="middle" x="47.5" y="-188.5" font-family="Helvetica,sans-Serif" font-size="10.00" fill="#000000">std::string</text>
</a>
</g>
</g>
<!-- Node7&#45;&gt;Node6 -->
<g id="edge3" class="edge">
<title>Node7&#45;&gt;Node6</title>
<path fill="none" stroke="#9a32cd" stroke-dasharray="5,2" d="M47.9676,-171.2587C48.1241,-165.0907 48.3079,-158.2621 48.5,-152 48.6879,-145.874 48.9331,-138.9953 49.1337,-133.5889"/>
<polygon fill="#9a32cd" stroke="#9a32cd" points="44.4656,-171.3001 47.7197,-181.3828 51.4635,-171.4716 44.4656,-171.3001"/>
<text text-anchor="middle" x="88" y="-155" font-family="Helvetica,sans-Serif" font-size="10.00" fill="#000000"> current_schema_</text>
</g>
<!-- Node8 -->
<g id="node5" class="node">
<title>Node8</title>
<g id="a_node5"><a xlink:title="STL class. ">
<polygon fill="#ffffff" stroke="#bfbfbf" points="0,-325.5 0,-355.5 95,-355.5 95,-325.5 0,-325.5"/>
<text text-anchor="start" x="8" y="-343.5" font-family="Helvetica,sans-Serif" font-size="10.00" fill="#000000">std::basic_string&lt;</text>
<text text-anchor="middle" x="47.5" y="-332.5" font-family="Helvetica,sans-Serif" font-size="10.00" fill="#000000"> char &gt;</text>
</a>
</g>
</g>
<!-- Node8&#45;&gt;Node7 -->
<g id="edge4" class="edge">
<title>Node8&#45;&gt;Node7</title>
<path fill="none" stroke="#191970" d="M47.5,-315.3238C47.5,-281.5752 47.5,-223.2768 47.5,-200.5035"/>
<polygon fill="#191970" stroke="#191970" points="44.0001,-315.3424 47.5,-325.3424 51.0001,-315.3425 44.0001,-315.3424"/>
</g>
<!-- Node9 -->
<g id="node6" class="node">
<title>Node9</title>
<g id="a_node6"><a xlink:href="class_i_nv_storage.html" target="_top" xlink:title="INvStorage">
<polygon fill="#ffffff" stroke="#000000" points="114.5,-114.5 114.5,-133.5 180.5,-133.5 180.5,-114.5 114.5,-114.5"/>
<text text-anchor="middle" x="147.5" y="-121.5" font-family="Helvetica,sans-Serif" font-size="10.00" fill="#000000">INvStorage</text>
</a>
</g>
</g>
<!-- Node9&#45;&gt;Node5 -->
<g id="edge5" class="edge">
<title>Node9&#45;&gt;Node5</title>
<path fill="none" stroke="#191970" d="M132.2787,-106.6477C123.5957,-96.7491 113.0444,-84.7206 105.8566,-76.5265"/>
<polygon fill="#191970" stroke="#191970" points="129.7926,-109.1212 139.0182,-114.3307 135.0549,-104.5051 129.7926,-109.1212"/>
</g>
<!-- Node10 -->
<g id="node7" class="node">
<title>Node10</title>
<g id="a_node7"><a xlink:href="struct_storage_config.html" target="_top" xlink:title="StorageConfig">
<polygon fill="#ffffff" stroke="#000000" points="110,-181.5 110,-200.5 189,-200.5 189,-181.5 110,-181.5"/>
<text text-anchor="middle" x="149.5" y="-188.5" font-family="Helvetica,sans-Serif" font-size="10.00" fill="#000000">StorageConfig</text>
</a>
</g>
</g>
<!-- Node10&#45;&gt;Node9 -->
<g id="edge6" class="edge">
<title>Node10&#45;&gt;Node9</title>
<path fill="none" stroke="#9a32cd" stroke-dasharray="5,2" d="M148.9062,-171.1079C148.5362,-158.714 148.0769,-143.3263 147.786,-133.5817"/>
<polygon fill="#9a32cd" stroke="#9a32cd" points="145.4165,-171.5094 149.2134,-181.4005 152.4134,-171.3005 145.4165,-171.5094"/>
<text text-anchor="middle" x="166" y="-155" font-family="Helvetica,sans-Serif" font-size="10.00" fill="#000000"> config_</text>
</g>
<!-- Node11 -->
<g id="node8" class="node">
<title>Node11</title>
<g id="a_node8"><a xlink:href="class_based_path.html" target="_top" xlink:title="BasedPath">
<polygon fill="#ffffff" stroke="#000000" points="117,-331 117,-350 182,-350 182,-331 117,-331"/>
<text text-anchor="middle" x="149.5" y="-338" font-family="Helvetica,sans-Serif" font-size="10.00" fill="#000000">BasedPath</text>
</a>
</g>
</g>
<!-- Node11&#45;&gt;Node10 -->
<g id="edge7" class="edge">
<title>Node11&#45;&gt;Node10</title>
<path fill="none" stroke="#9a32cd" stroke-dasharray="5,2" d="M149.5,-320.5865C149.5,-288.0669 149.5,-224.7701 149.5,-200.6509"/>
<polygon fill="#9a32cd" stroke="#9a32cd" points="146.0001,-320.6909 149.5,-330.6909 153.0001,-320.6909 146.0001,-320.6909"/>
<text text-anchor="middle" x="204" y="-299" font-family="Helvetica,sans-Serif" font-size="10.00" fill="#000000"> uptane_public_key_path</text>
<text text-anchor="middle" x="204" y="-288" font-family="Helvetica,sans-Serif" font-size="10.00" fill="#000000">tls_pkey_path</text>
<text text-anchor="middle" x="204" y="-277" font-family="Helvetica,sans-Serif" font-size="10.00" fill="#000000">uptane_metadata_path</text>
<text text-anchor="middle" x="204" y="-266" font-family="Helvetica,sans-Serif" font-size="10.00" fill="#000000">sqldb_path</text>
<text text-anchor="start" x="149.5" y="-255" font-family="Helvetica,sans-Serif" font-size="10.00" fill="#000000">uptane_private_key</text>
<text text-anchor="middle" x="204" y="-244" font-family="Helvetica,sans-Serif" font-size="10.00" fill="#000000">_path</text>
<text text-anchor="middle" x="204" y="-233" font-family="Helvetica,sans-Serif" font-size="10.00" fill="#000000">tls_cacert_path</text>
<text text-anchor="middle" x="204" y="-222" font-family="Helvetica,sans-Serif" font-size="10.00" fill="#000000">tls_clientcert_path</text>
</g>
</g>
</svg>
