<?xml version="1.0" encoding="UTF-8" standalone="no"?>
<!DOCTYPE svg PUBLIC "-//W3C//DTD SVG 1.1//EN"
 "http://www.w3.org/Graphics/SVG/1.1/DTD/svg11.dtd">
<!-- Generated by graphviz version 2.40.1 (20161225.0304)
 -->
<!-- Title: Graphical Class Hierarchy Pages: 1 -->
<svg width="208pt" height="78pt"
 viewBox="0.00 0.00 208.00 77.50" xmlns="http://www.w3.org/2000/svg" xmlns:xlink="http://www.w3.org/1999/xlink">
<g id="graph0" class="graph" transform="scale(1 1) rotate(0) translate(4 73.5)">
<title>Graphical Class Hierarchy</title>
<polygon fill="#ffffff" stroke="transparent" points="-4,4 -4,-73.5 204,-73.5 204,4 -4,4"/>
<!-- Node0 -->
<g id="node1" class="node">
<title>Node0</title>
<g id="a_node1"><a xlink:href="class_process.html" target="_top" xlink:title="Process">
<polygon fill="#ffffff" stroke="#000000" points="0,-22.5 0,-41.5 53,-41.5 53,-22.5 0,-22.5"/>
<text text-anchor="middle" x="26.5" y="-29.5" font-family="Helvetica,sans-Serif" font-size="10.00" fill="#000000">Process</text>
</a>
</g>
</g>
<!-- Node1 -->
<g id="node2" class="node">
<title>Node1</title>
<g id="a_node2"><a xlink:href="class_aktualizr_info_test_1_1_aktualizr_info_process.html" target="_top" xlink:title="AktualizrInfoTest::\lAktualizrInfoProcess">
<polygon fill="#ffffff" stroke="#000000" points="91,-39 91,-69 198,-69 198,-39 91,-39"/>
<text text-anchor="start" x="99" y="-57" font-family="Helvetica,sans-Serif" font-size="10.00" fill="#000000">AktualizrInfoTest::</text>
<text text-anchor="middle" x="144.5" y="-46" font-family="Helvetica,sans-Serif" font-size="10.00" fill="#000000">AktualizrInfoProcess</text>
</a>
</g>
</g>
<!-- Node0&#45;&gt;Node1 -->
<g id="edge1" class="edge">
<title>Node0&#45;&gt;Node1</title>
<path fill="none" stroke="#191970" d="M63.154,-38.8338C71.9192,-40.468 81.4566,-42.2461 90.8142,-43.9908"/>
<polygon fill="#191970" stroke="#191970" points="63.7481,-35.3843 53.276,-36.9921 62.4651,-42.2658 63.7481,-35.3843"/>
</g>
<!-- Node2 -->
<g id="node3" class="node">
<title>Node2</title>
<g id="a_node3"><a xlink:href="class_device_cred_generator.html" target="_top" xlink:title="DeviceCredGenerator">
<polygon fill="#ffffff" stroke="#000000" points="89,-.5 89,-19.5 200,-19.5 200,-.5 89,-.5"/>
<text text-anchor="middle" x="144.5" y="-7.5" font-family="Helvetica,sans-Serif" font-size="10.00" fill="#000000">DeviceCredGenerator</text>
</a>
</g>
</g>
<!-- Node0&#45;&gt;Node2 -->
<g id="edge2" class="edge">
<title>Node0&#45;&gt;Node2</title>
<path fill="none" stroke="#191970" d="M63.1749,-25.1623C72.6781,-23.3905 83.0878,-21.4497 93.1913,-19.566"/>
<polygon fill="#191970" stroke="#191970" points="62.4651,-21.7342 53.276,-27.0079 63.7481,-28.6157 62.4651,-21.7342"/>
</g>
</g>
</svg>
