<?xml version="1.0" encoding="UTF-8" standalone="no"?>
<!DOCTYPE svg PUBLIC "-//W3C//DTD SVG 1.1//EN"
 "http://www.w3.org/Graphics/SVG/1.1/DTD/svg11.dtd">
<!-- Generated by graphviz version 2.40.1 (20161225.0304)
 -->
<!-- Title: SQLStorage Pages: 1 -->
<svg width="337pt" height="307pt"
 viewBox="0.00 0.00 336.50 307.00" xmlns="http://www.w3.org/2000/svg" xmlns:xlink="http://www.w3.org/1999/xlink">
<g id="graph0" class="graph" transform="scale(1 1) rotate(0) translate(4 303)">
<title>SQLStorage</title>
<polygon fill="#ffffff" stroke="transparent" points="-4,4 -4,-303 332.5,-303 332.5,4 -4,4"/>
<!-- Node4 -->
<g id="node1" class="node">
<title>Node4</title>
<polygon fill="#bfbfbf" stroke="#000000" points="130.5,-.5 130.5,-19.5 200.5,-19.5 200.5,-.5 130.5,-.5"/>
<text text-anchor="middle" x="165.5" y="-7.5" font-family="Helvetica,sans-Serif" font-size="10.00" fill="#000000">SQLStorage</text>
</g>
<!-- Node5 -->
<g id="node2" class="node">
<title>Node5</title>
<g id="a_node2"><a xlink:href="class_s_q_l_storage_base.html" target="_top" xlink:title="SQLStorageBase">
<polygon fill="#ffffff" stroke="#000000" points="71.5,-57.5 71.5,-76.5 163.5,-76.5 163.5,-57.5 71.5,-57.5"/>
<text text-anchor="middle" x="117.5" y="-64.5" font-family="Helvetica,sans-Serif" font-size="10.00" fill="#000000">SQLStorageBase</text>
</a>
</g>
</g>
<!-- Node5&#45;&gt;Node4 -->
<g id="edge1" class="edge">
<title>Node5&#45;&gt;Node4</title>
<path fill="none" stroke="#191970" d="M132.1124,-49.6477C140.4482,-39.7491 150.5774,-27.7206 157.4777,-19.5265"/>
<polygon fill="#191970" stroke="#191970" points="129.4067,-47.4271 125.6425,-57.3307 134.7611,-51.9361 129.4067,-47.4271"/>
</g>
<!-- Node6 -->
<g id="node3" class="node">
<title>Node6</title>
<g id="a_node3"><a xlink:href="class_storage_lock.html" target="_top" xlink:title="StorageLock">
<polygon fill="#ffffff" stroke="#000000" points="0,-124.5 0,-143.5 71,-143.5 71,-124.5 0,-124.5"/>
<text text-anchor="middle" x="35.5" y="-131.5" font-family="Helvetica,sans-Serif" font-size="10.00" fill="#000000">StorageLock</text>
</a>
</g>
</g>
<!-- Node6&#45;&gt;Node5 -->
<g id="edge2" class="edge">
<title>Node6&#45;&gt;Node5</title>
<path fill="none" stroke="#9a32cd" stroke-dasharray="5,2" d="M55.3279,-117.7992C71.0989,-104.9131 92.6299,-87.3207 105.7732,-76.5817"/>
<polygon fill="#9a32cd" stroke="#9a32cd" points="52.7779,-115.3629 47.2486,-124.4005 57.2069,-120.7836 52.7779,-115.3629"/>
<text text-anchor="middle" x="92.5" y="-98" font-family="Helvetica,sans-Serif" font-size="10.00" fill="#000000"> lock</text>
</g>
<!-- Node7 -->
<g id="node4" class="node">
<title>Node7</title>
<g id="a_node4"><a xlink:title="STL class. ">
<polygon fill="#ffffff" stroke="#bfbfbf" points="89.5,-124.5 89.5,-143.5 149.5,-143.5 149.5,-124.5 89.5,-124.5"/>
<text text-anchor="middle" x="119.5" y="-131.5" font-family="Helvetica,sans-Serif" font-size="10.00" fill="#000000">std::string</text>
</a>
</g>
</g>
<!-- Node7&#45;&gt;Node5 -->
<g id="edge3" class="edge">
<title>Node7&#45;&gt;Node5</title>
<path fill="none" stroke="#9a32cd" stroke-dasharray="5,2" d="M118.771,-114.2863C118.6754,-111.5043 118.5822,-108.6801 118.5,-106 118.1926,-95.9806 117.9064,-84.5112 117.7197,-76.6172"/>
<polygon fill="#9a32cd" stroke="#9a32cd" points="115.2779,-114.5428 119.1337,-124.4111 122.2734,-114.2922 115.2779,-114.5428"/>
<text text-anchor="middle" x="158" y="-98" font-family="Helvetica,sans-Serif" font-size="10.00" fill="#000000"> current_schema_</text>
</g>
<!-- Node8 -->
<g id="node5" class="node">
<title>Node8</title>
<g id="a_node5"><a xlink:title="STL class. ">
<polygon fill="#ffffff" stroke="#bfbfbf" points="72,-268.5 72,-298.5 167,-298.5 167,-268.5 72,-268.5"/>
<text text-anchor="start" x="80" y="-286.5" font-family="Helvetica,sans-Serif" font-size="10.00" fill="#000000">std::basic_string&lt;</text>
<text text-anchor="middle" x="119.5" y="-275.5" font-family="Helvetica,sans-Serif" font-size="10.00" fill="#000000"> char &gt;</text>
</a>
</g>
</g>
<!-- Node8&#45;&gt;Node7 -->
<g id="edge4" class="edge">
<title>Node8&#45;&gt;Node7</title>
<path fill="none" stroke="#191970" d="M119.5,-258.3238C119.5,-224.5752 119.5,-166.2768 119.5,-143.5035"/>
<polygon fill="#191970" stroke="#191970" points="116.0001,-258.3424 119.5,-268.3424 123.0001,-258.3425 116.0001,-258.3424"/>
</g>
<!-- Node9 -->
<g id="node6" class="node">
<title>Node9</title>
<g id="a_node6"><a xlink:href="class_i_nv_storage.html" target="_top" xlink:title="INvStorage">
<polygon fill="#ffffff" stroke="#000000" points="183.5,-57.5 183.5,-76.5 249.5,-76.5 249.5,-57.5 183.5,-57.5"/>
<text text-anchor="middle" x="216.5" y="-64.5" font-family="Helvetica,sans-Serif" font-size="10.00" fill="#000000">INvStorage</text>
</a>
</g>
</g>
<!-- Node9&#45;&gt;Node4 -->
<g id="edge5" class="edge">
<title>Node9&#45;&gt;Node4</title>
<path fill="none" stroke="#191970" d="M200.9743,-49.6477C192.1176,-39.7491 181.3553,-27.7206 174.0237,-19.5265"/>
<polygon fill="#191970" stroke="#191970" points="198.5722,-52.2121 207.8485,-57.3307 203.7889,-47.5445 198.5722,-52.2121"/>
</g>
<!-- Node10 -->
<g id="node7" class="node">
<title>Node10</title>
<g id="a_node7"><a xlink:href="struct_storage_config.html" target="_top" xlink:title="StorageConfig">
<polygon fill="#ffffff" stroke="#000000" points="180,-124.5 180,-143.5 259,-143.5 259,-124.5 180,-124.5"/>
<text text-anchor="middle" x="219.5" y="-131.5" font-family="Helvetica,sans-Serif" font-size="10.00" fill="#000000">StorageConfig</text>
</a>
</g>
</g>
<!-- Node10&#45;&gt;Node9 -->
<g id="edge6" class="edge">
<title>Node10&#45;&gt;Node9</title>
<path fill="none" stroke="#9a32cd" stroke-dasharray="5,2" d="M218.6093,-114.1079C218.0544,-101.714 217.3654,-86.3263 216.929,-76.5817"/>
<polygon fill="#9a32cd" stroke="#9a32cd" points="215.1263,-114.5671 219.0702,-124.4005 222.1193,-114.254 215.1263,-114.5671"/>
<text text-anchor="middle" x="236" y="-98" font-family="Helvetica,sans-Serif" font-size="10.00" fill="#000000"> config_</text>
</g>
<!-- Node11 -->
<g id="node8" class="node">
<title>Node11</title>
<g id="a_node8"><a xlink:href="class_based_path.html" target="_top" xlink:title="BasedPath">
<polygon fill="#ffffff" stroke="#000000" points="187,-274 187,-293 252,-293 252,-274 187,-274"/>
<text text-anchor="middle" x="219.5" y="-281" font-family="Helvetica,sans-Serif" font-size="10.00" fill="#000000">BasedPath</text>
</a>
</g>
</g>
<!-- Node11&#45;&gt;Node10 -->
<g id="edge7" class="edge">
<title>Node11&#45;&gt;Node10</title>
<path fill="none" stroke="#9a32cd" stroke-dasharray="5,2" d="M219.5,-263.5865C219.5,-231.0669 219.5,-167.7701 219.5,-143.6509"/>
<polygon fill="#9a32cd" stroke="#9a32cd" points="216.0001,-263.6909 219.5,-273.6909 223.0001,-263.6909 216.0001,-263.6909"/>
<text text-anchor="middle" x="274" y="-242" font-family="Helvetica,sans-Serif" font-size="10.00" fill="#000000"> uptane_public_key_path</text>
<text text-anchor="middle" x="274" y="-231" font-family="Helvetica,sans-Serif" font-size="10.00" fill="#000000">tls_pkey_path</text>
<text text-anchor="middle" x="274" y="-220" font-family="Helvetica,sans-Serif" font-size="10.00" fill="#000000">uptane_metadata_path</text>
<text text-anchor="middle" x="274" y="-209" font-family="Helvetica,sans-Serif" font-size="10.00" fill="#000000">sqldb_path</text>
<text text-anchor="start" x="219.5" y="-198" font-family="Helvetica,sans-Serif" font-size="10.00" fill="#000000">uptane_private_key</text>
<text text-anchor="middle" x="274" y="-187" font-family="Helvetica,sans-Serif" font-size="10.00" fill="#000000">_path</text>
<text text-anchor="middle" x="274" y="-176" font-family="Helvetica,sans-Serif" font-size="10.00" fill="#000000">tls_cacert_path</text>
<text text-anchor="middle" x="274" y="-165" font-family="Helvetica,sans-Serif" font-size="10.00" fill="#000000">tls_clientcert_path</text>
</g>
</g>
</svg>
