<?xml version="1.0" encoding="UTF-8" standalone="no"?>
<!DOCTYPE svg PUBLIC "-//W3C//DTD SVG 1.1//EN"
 "http://www.w3.org/Graphics/SVG/1.1/DTD/svg11.dtd">
<!-- Generated by graphviz version 2.40.1 (20161225.0304)
 -->
<!-- Title: event::SendDeviceDataComplete Pages: 1 -->
<svg width="171pt" height="220pt"
 viewBox="0.00 0.00 171.00 220.00" xmlns="http://www.w3.org/2000/svg" xmlns:xlink="http://www.w3.org/1999/xlink">
<g id="graph0" class="graph" transform="scale(1 1) rotate(0) translate(4 216)">
<title>event::SendDeviceDataComplete</title>
<polygon fill="#ffffff" stroke="transparent" points="-4,4 -4,-216 167,-216 167,4 -4,4"/>
<!-- Node2 -->
<g id="node1" class="node">
<title>Node2</title>
<polygon fill="#bfbfbf" stroke="#000000" points="0,-.5 0,-19.5 163,-19.5 163,-.5 0,-.5"/>
<text text-anchor="middle" x="81.5" y="-7.5" font-family="Helvetica,sans-Serif" font-size="10.00" fill="#000000">event::SendDeviceDataComplete</text>
</g>
<!-- Node3 -->
<g id="node2" class="node">
<title>Node3</title>
<g id="a_node2"><a xlink:href="classevent_1_1_base_event.html" target="_top" xlink:title="Base class for all event objects. ">
<polygon fill="#ffffff" stroke="#000000" points="34,-57.5 34,-76.5 129,-76.5 129,-57.5 34,-57.5"/>
<text text-anchor="middle" x="81.5" y="-64.5" font-family="Helvetica,sans-Serif" font-size="10.00" fill="#000000">event::BaseEvent</text>
</a>
</g>
</g>
<!-- Node3&#45;&gt;Node2 -->
<g id="edge1" class="edge">
<title>Node3&#45;&gt;Node2</title>
<path fill="none" stroke="#191970" d="M81.5,-47.2342C81.5,-37.8491 81.5,-27.0651 81.5,-19.5265"/>
<polygon fill="#191970" stroke="#191970" points="78.0001,-47.3307 81.5,-57.3307 85.0001,-47.3308 78.0001,-47.3307"/>
</g>
<!-- Node4 -->
<g id="node3" class="node">
<title>Node4</title>
<g id="a_node3"><a xlink:title="STL class. ">
<polygon fill="#ffffff" stroke="#bfbfbf" points="51.5,-124.5 51.5,-143.5 111.5,-143.5 111.5,-124.5 51.5,-124.5"/>
<text text-anchor="middle" x="81.5" y="-131.5" font-family="Helvetica,sans-Serif" font-size="10.00" fill="#000000">std::string</text>
</a>
</g>
</g>
<!-- Node4&#45;&gt;Node3 -->
<g id="edge2" class="edge">
<title>Node4&#45;&gt;Node3</title>
<path fill="none" stroke="#9a32cd" stroke-dasharray="5,2" d="M81.5,-114.1079C81.5,-101.714 81.5,-86.3263 81.5,-76.5817"/>
<polygon fill="#9a32cd" stroke="#9a32cd" points="78.0001,-114.4005 81.5,-124.4005 85.0001,-114.4006 78.0001,-114.4005"/>
<text text-anchor="middle" x="98" y="-98" font-family="Helvetica,sans-Serif" font-size="10.00" fill="#000000"> variant</text>
</g>
<!-- Node5 -->
<g id="node4" class="node">
<title>Node5</title>
<g id="a_node4"><a xlink:title="STL class. ">
<polygon fill="#ffffff" stroke="#bfbfbf" points="34,-181.5 34,-211.5 129,-211.5 129,-181.5 34,-181.5"/>
<text text-anchor="start" x="42" y="-199.5" font-family="Helvetica,sans-Serif" font-size="10.00" fill="#000000">std::basic_string&lt;</text>
<text text-anchor="middle" x="81.5" y="-188.5" font-family="Helvetica,sans-Serif" font-size="10.00" fill="#000000"> char &gt;</text>
</a>
</g>
</g>
<!-- Node5&#45;&gt;Node4 -->
<g id="edge3" class="edge">
<title>Node5&#45;&gt;Node4</title>
<path fill="none" stroke="#191970" d="M81.5,-171.3498C81.5,-161.6481 81.5,-151.1303 81.5,-143.7356"/>
<polygon fill="#191970" stroke="#191970" points="78.0001,-171.3705 81.5,-181.3705 85.0001,-171.3705 78.0001,-171.3705"/>
</g>
</g>
</svg>
