<?xml version="1.0" encoding="UTF-8" standalone="no"?>
<!DOCTYPE svg PUBLIC "-//W3C//DTD SVG 1.1//EN"
 "http://www.w3.org/Graphics/SVG/1.1/DTD/svg11.dtd">
<!-- Generated by graphviz version 2.40.1 (20161225.0304)
 -->
<!-- Title: event::DownloadTargetComplete Pages: 1 -->
<svg width="204pt" height="230pt"
 viewBox="0.00 0.00 203.50 230.00" xmlns="http://www.w3.org/2000/svg" xmlns:xlink="http://www.w3.org/1999/xlink">
<g id="graph0" class="graph" transform="scale(1 1) rotate(0) translate(4 226)">
<title>event::DownloadTargetComplete</title>
<polygon fill="#ffffff" stroke="transparent" points="-4,4 -4,-226 199.5,-226 199.5,4 -4,4"/>
<!-- Node2 -->
<g id="node1" class="node">
<title>Node2</title>
<polygon fill="#bfbfbf" stroke="#000000" points="20.5,-.5 20.5,-19.5 180.5,-19.5 180.5,-.5 20.5,-.5"/>
<text text-anchor="middle" x="100.5" y="-7.5" font-family="Helvetica,sans-Serif" font-size="10.00" fill="#000000">event::DownloadTargetComplete</text>
</g>
<!-- Node3 -->
<g id="node2" class="node">
<title>Node3</title>
<g id="a_node2"><a xlink:href="classevent_1_1_base_event.html" target="_top" xlink:title="Base class for all event objects. ">
<polygon fill="#ffffff" stroke="#000000" points="0,-67.5 0,-86.5 95,-86.5 95,-67.5 0,-67.5"/>
<text text-anchor="middle" x="47.5" y="-74.5" font-family="Helvetica,sans-Serif" font-size="10.00" fill="#000000">event::BaseEvent</text>
</a>
</g>
</g>
<!-- Node3&#45;&gt;Node2 -->
<g id="edge1" class="edge">
<title>Node3&#45;&gt;Node2</title>
<path fill="none" stroke="#191970" d="M61.463,-59.3486C71.5324,-46.6194 84.7401,-29.9229 92.9205,-19.5817"/>
<polygon fill="#191970" stroke="#191970" points="58.5527,-57.3863 55.0936,-67.4005 64.0427,-61.7291 58.5527,-57.3863"/>
</g>
<!-- Node4 -->
<g id="node3" class="node">
<title>Node4</title>
<g id="a_node3"><a xlink:title="STL class. ">
<polygon fill="#ffffff" stroke="#bfbfbf" points="17.5,-134.5 17.5,-153.5 77.5,-153.5 77.5,-134.5 17.5,-134.5"/>
<text text-anchor="middle" x="47.5" y="-141.5" font-family="Helvetica,sans-Serif" font-size="10.00" fill="#000000">std::string</text>
</a>
</g>
</g>
<!-- Node4&#45;&gt;Node3 -->
<g id="edge2" class="edge">
<title>Node4&#45;&gt;Node3</title>
<path fill="none" stroke="#9a32cd" stroke-dasharray="5,2" d="M47.5,-124.1079C47.5,-111.714 47.5,-96.3263 47.5,-86.5817"/>
<polygon fill="#9a32cd" stroke="#9a32cd" points="44.0001,-124.4005 47.5,-134.4005 51.0001,-124.4006 44.0001,-124.4005"/>
<text text-anchor="middle" x="64" y="-108" font-family="Helvetica,sans-Serif" font-size="10.00" fill="#000000"> variant</text>
</g>
<!-- Node5 -->
<g id="node4" class="node">
<title>Node5</title>
<g id="a_node4"><a xlink:title="STL class. ">
<polygon fill="#ffffff" stroke="#bfbfbf" points="0,-191.5 0,-221.5 95,-221.5 95,-191.5 0,-191.5"/>
<text text-anchor="start" x="8" y="-209.5" font-family="Helvetica,sans-Serif" font-size="10.00" fill="#000000">std::basic_string&lt;</text>
<text text-anchor="middle" x="47.5" y="-198.5" font-family="Helvetica,sans-Serif" font-size="10.00" fill="#000000"> char &gt;</text>
</a>
</g>
</g>
<!-- Node5&#45;&gt;Node4 -->
<g id="edge3" class="edge">
<title>Node5&#45;&gt;Node4</title>
<path fill="none" stroke="#191970" d="M47.5,-181.3498C47.5,-171.6481 47.5,-161.1303 47.5,-153.7356"/>
<polygon fill="#191970" stroke="#191970" points="44.0001,-181.3705 47.5,-191.3705 51.0001,-181.3705 44.0001,-181.3705"/>
</g>
<!-- Node6 -->
<g id="node5" class="node">
<title>Node6</title>
<g id="a_node5"><a xlink:href="class_uptane_1_1_target.html" target="_top" xlink:title="Uptane::Target">
<polygon fill="#ffffff" stroke="#000000" points="113.5,-67.5 113.5,-86.5 195.5,-86.5 195.5,-67.5 113.5,-67.5"/>
<text text-anchor="middle" x="154.5" y="-74.5" font-family="Helvetica,sans-Serif" font-size="10.00" fill="#000000">Uptane::Target</text>
</a>
</g>
</g>
<!-- Node6&#45;&gt;Node2 -->
<g id="edge4" class="edge">
<title>Node6&#45;&gt;Node2</title>
<path fill="none" stroke="#9a32cd" stroke-dasharray="5,2" d="M140.2735,-59.3486C130.0141,-46.6194 116.5573,-29.9229 108.2225,-19.5817"/>
<polygon fill="#9a32cd" stroke="#9a32cd" points="137.7627,-61.8109 146.7631,-67.4005 143.2129,-57.4182 137.7627,-61.8109"/>
<text text-anchor="middle" x="147" y="-41" font-family="Helvetica,sans-Serif" font-size="10.00" fill="#000000"> update</text>
</g>
</g>
</svg>
