<?xml version="1.0" encoding="UTF-8" standalone="no"?>
<!DOCTYPE svg PUBLIC "-//W3C//DTD SVG 1.1//EN"
 "http://www.w3.org/Graphics/SVG/1.1/DTD/svg11.dtd">
<!-- Generated by graphviz version 2.40.1 (20161225.0304)
 -->
<!-- Title: HttpFake Pages: 1 -->
<svg width="300pt" height="174pt"
 viewBox="0.00 0.00 299.50 174.00" xmlns="http://www.w3.org/2000/svg" xmlns:xlink="http://www.w3.org/1999/xlink">
<g id="graph0" class="graph" transform="scale(1 1) rotate(0) translate(4 170)">
<title>HttpFake</title>
<polygon fill="#ffffff" stroke="transparent" points="-4,4 -4,-170 295.5,-170 295.5,4 -4,4"/>
<!-- Node19 -->
<g id="node1" class="node">
<title>Node19</title>
<polygon fill="#bfbfbf" stroke="#000000" points="115.5,-.5 115.5,-19.5 172.5,-19.5 172.5,-.5 115.5,-.5"/>
<text text-anchor="middle" x="144" y="-7.5" font-family="Helvetica,sans-Serif" font-size="10.00" fill="#000000">HttpFake</text>
</g>
<!-- Node20 -->
<g id="node2" class="node">
<title>Node20</title>
<g id="a_node2"><a xlink:href="class_http_interface.html" target="_top" xlink:title="HttpInterface">
<polygon fill="#ffffff" stroke="#000000" points="0,-78.5 0,-97.5 74,-97.5 74,-78.5 0,-78.5"/>
<text text-anchor="middle" x="37" y="-85.5" font-family="Helvetica,sans-Serif" font-size="10.00" fill="#000000">HttpInterface</text>
</a>
</g>
</g>
<!-- Node20&#45;&gt;Node19 -->
<g id="edge1" class="edge">
<title>Node20&#45;&gt;Node19</title>
<path fill="none" stroke="#191970" d="M58.3483,-72.4377C79.9489,-56.6914 112.6651,-32.8423 130.7724,-19.6426"/>
<polygon fill="#191970" stroke="#191970" points="56.1394,-69.7166 50.1203,-78.4357 60.2629,-75.3732 56.1394,-69.7166"/>
</g>
<!-- Node21 -->
<g id="node3" class="node">
<title>Node21</title>
<g id="a_node3"><a xlink:href="class_temporary_directory.html" target="_top" xlink:title="TemporaryDirectory">
<polygon fill="#ffffff" stroke="#000000" points="92.5,-78.5 92.5,-97.5 195.5,-97.5 195.5,-78.5 92.5,-78.5"/>
<text text-anchor="middle" x="144" y="-85.5" font-family="Helvetica,sans-Serif" font-size="10.00" fill="#000000">TemporaryDirectory</text>
</a>
</g>
</g>
<!-- Node21&#45;&gt;Node19 -->
<g id="edge2" class="edge">
<title>Node21&#45;&gt;Node19</title>
<path fill="none" stroke="#9a32cd" stroke-dasharray="5,2" d="M144,-68.2866C144,-52.7395 144,-31.7276 144,-19.6426"/>
<polygon fill="#9a32cd" stroke="#9a32cd" points="140.5001,-68.4356 144,-78.4357 147.5001,-68.4357 140.5001,-68.4356"/>
<text text-anchor="middle" x="178" y="-46.5" font-family="Helvetica,sans-Serif" font-size="10.00" fill="#000000"> temp_meta_dir</text>
</g>
<!-- Node22 -->
<g id="node4" class="node">
<title>Node22</title>
<g id="a_node4"><a xlink:title="STL class. ">
<polygon fill="#ffffff" stroke="#bfbfbf" points="214,-78.5 214,-97.5 274,-97.5 274,-78.5 214,-78.5"/>
<text text-anchor="middle" x="244" y="-85.5" font-family="Helvetica,sans-Serif" font-size="10.00" fill="#000000">std::string</text>
</a>
</g>
</g>
<!-- Node22&#45;&gt;Node19 -->
<g id="edge3" class="edge">
<title>Node22&#45;&gt;Node19</title>
<path fill="none" stroke="#9a32cd" stroke-dasharray="5,2" d="M236.9909,-68.7766C232.3915,-58.4652 225.4607,-46.2243 216,-38 203.7524,-27.353 186.9975,-20.5154 172.7323,-16.2648"/>
<polygon fill="#9a32cd" stroke="#9a32cd" points="233.8203,-70.2718 240.8205,-78.2246 240.3076,-67.6421 233.8203,-70.2718"/>
<text text-anchor="middle" x="255" y="-52" font-family="Helvetica,sans-Serif" font-size="10.00" fill="#000000"> tls_server</text>
<text text-anchor="middle" x="255" y="-41" font-family="Helvetica,sans-Serif" font-size="10.00" fill="#000000">flavor_</text>
</g>
<!-- Node23 -->
<g id="node5" class="node">
<title>Node23</title>
<g id="a_node5"><a xlink:title="STL class. ">
<polygon fill="#ffffff" stroke="#bfbfbf" points="196.5,-135.5 196.5,-165.5 291.5,-165.5 291.5,-135.5 196.5,-135.5"/>
<text text-anchor="start" x="204.5" y="-153.5" font-family="Helvetica,sans-Serif" font-size="10.00" fill="#000000">std::basic_string&lt;</text>
<text text-anchor="middle" x="244" y="-142.5" font-family="Helvetica,sans-Serif" font-size="10.00" fill="#000000"> char &gt;</text>
</a>
</g>
</g>
<!-- Node23&#45;&gt;Node22 -->
<g id="edge4" class="edge">
<title>Node23&#45;&gt;Node22</title>
<path fill="none" stroke="#191970" d="M244,-125.3498C244,-115.6481 244,-105.1303 244,-97.7356"/>
<polygon fill="#191970" stroke="#191970" points="240.5001,-125.3705 244,-135.3705 247.5001,-125.3705 240.5001,-125.3705"/>
</g>
</g>
</svg>
