<?xml version="1.0" encoding="UTF-8" standalone="no"?>
<!DOCTYPE svg PUBLIC "-//W3C//DTD SVG 1.1//EN"
 "http://www.w3.org/Graphics/SVG/1.1/DTD/svg11.dtd">
<!-- Generated by graphviz version 2.40.1 (20161225.0304)
 -->
<!-- Title: Graphical Class Hierarchy Pages: 1 -->
<svg width="158pt" height="66pt"
 viewBox="0.00 0.00 158.00 66.00" xmlns="http://www.w3.org/2000/svg" xmlns:xlink="http://www.w3.org/1999/xlink">
<g id="graph0" class="graph" transform="scale(1 1) rotate(0) translate(4 62)">
<title>Graphical Class Hierarchy</title>
<polygon fill="#ffffff" stroke="transparent" points="-4,4 -4,-62 154,-62 154,4 -4,4"/>
<!-- Node0 -->
<g id="node1" class="node">
<title>Node0</title>
<g id="a_node1"><a xlink:href="class_repo.html" target="_top" xlink:title="Repo">
<polygon fill="#ffffff" stroke="#000000" points="0,-19.5 0,-38.5 40,-38.5 40,-19.5 0,-19.5"/>
<text text-anchor="middle" x="20" y="-26.5" font-family="Helvetica,sans-Serif" font-size="10.00" fill="#000000">Repo</text>
</a>
</g>
</g>
<!-- Node1 -->
<g id="node2" class="node">
<title>Node1</title>
<g id="a_node2"><a xlink:href="class_director_repo.html" target="_top" xlink:title="DirectorRepo">
<polygon fill="#ffffff" stroke="#000000" points="76,-38.5 76,-57.5 150,-57.5 150,-38.5 76,-38.5"/>
<text text-anchor="middle" x="113" y="-45.5" font-family="Helvetica,sans-Serif" font-size="10.00" fill="#000000">DirectorRepo</text>
</a>
</g>
</g>
<!-- Node0&#45;&gt;Node1 -->
<g id="edge1" class="edge">
<title>Node0&#45;&gt;Node1</title>
<path fill="none" stroke="#191970" d="M50.1137,-35.1523C58.3632,-36.8376 67.4017,-38.6842 75.9892,-40.4387"/>
<polygon fill="#191970" stroke="#191970" points="50.6778,-31.6953 40.1796,-33.1227 49.2766,-38.5536 50.6778,-31.6953"/>
</g>
<!-- Node2 -->
<g id="node3" class="node">
<title>Node2</title>
<g id="a_node3"><a xlink:href="class_image_repo.html" target="_top" xlink:title="ImageRepo">
<polygon fill="#ffffff" stroke="#000000" points="79.5,-.5 79.5,-19.5 146.5,-19.5 146.5,-.5 79.5,-.5"/>
<text text-anchor="middle" x="113" y="-7.5" font-family="Helvetica,sans-Serif" font-size="10.00" fill="#000000">ImageRepo</text>
</a>
</g>
</g>
<!-- Node0&#45;&gt;Node2 -->
<g id="edge2" class="edge">
<title>Node0&#45;&gt;Node2</title>
<path fill="none" stroke="#191970" d="M50.1726,-22.8357C59.4842,-20.9333 69.7964,-18.8265 79.3283,-16.8792"/>
<polygon fill="#191970" stroke="#191970" points="49.2766,-19.4464 40.1796,-24.8773 50.6778,-26.3047 49.2766,-19.4464"/>
</g>
</g>
</svg>
