<?xml version="1.0" encoding="UTF-8" standalone="no"?>
<!DOCTYPE svg PUBLIC "-//W3C//DTD SVG 1.1//EN"
 "http://www.w3.org/Graphics/SVG/1.1/DTD/svg11.dtd">
<!-- Generated by graphviz version 2.40.1 (20161225.0304)
 -->
<!-- Title: src/libaktualizr/primary/results.h Pages: 1 -->
<svg width="2248pt" height="385pt"
 viewBox="0.00 0.00 2247.72 385.00" xmlns="http://www.w3.org/2000/svg" xmlns:xlink="http://www.w3.org/1999/xlink">
<g id="graph0" class="graph" transform="scale(1 1) rotate(0) translate(4 381)">
<title>src/libaktualizr/primary/results.h</title>
<polygon fill="#ffffff" stroke="transparent" points="-4,4 -4,-381 2243.7184,-381 2243.7184,4 -4,4"/>
<!-- Node57 -->
<g id="node1" class="node">
<title>Node57</title>
<polygon fill="#bfbfbf" stroke="#000000" points="916,-346.5 916,-376.5 1031,-376.5 1031,-346.5 916,-346.5"/>
<text text-anchor="start" x="924" y="-364.5" font-family="Helvetica,sans-Serif" font-size="10.00" fill="#000000">src/libaktualizr/primary</text>
<text text-anchor="middle" x="973.5" y="-353.5" font-family="Helvetica,sans-Serif" font-size="10.00" fill="#000000">/results.h</text>
</g>
<!-- Node58 -->
<g id="node2" class="node">
<title>Node58</title>
<g id="a_node2"><a xlink:href="sotauptaneclient_8h_source.html" target="_top" xlink:title="src/libaktualizr/primary\l/sotauptaneclient.h">
<polygon fill="#ffffff" stroke="#000000" points="1357,-212.5 1357,-242.5 1472,-242.5 1472,-212.5 1357,-212.5"/>
<text text-anchor="start" x="1365" y="-230.5" font-family="Helvetica,sans-Serif" font-size="10.00" fill="#000000">src/libaktualizr/primary</text>
<text text-anchor="middle" x="1414.5" y="-219.5" font-family="Helvetica,sans-Serif" font-size="10.00" fill="#000000">/sotauptaneclient.h</text>
</a>
</g>
</g>
<!-- Node57&#45;&gt;Node58 -->
<g id="edge1" class="edge">
<title>Node57&#45;&gt;Node58</title>
<path fill="none" stroke="#191970" d="M1033.0362,-343.4096C1120.7992,-316.7424 1283.2992,-267.366 1364.9507,-242.5558"/>
<polygon fill="#191970" stroke="#191970" points="1031.7815,-340.1328 1023.2311,-346.389 1033.8167,-346.8304 1031.7815,-340.1328"/>
</g>
<!-- Node86 -->
<g id="node30" class="node">
<title>Node86</title>
<g id="a_node30"><a xlink:href="events_8h.html" target="_top" xlink:title="src/libaktualizr/primary\l/events.h">
<polygon fill="#ffffff" stroke="#000000" points="873,-279.5 873,-309.5 988,-309.5 988,-279.5 873,-279.5"/>
<text text-anchor="start" x="881" y="-297.5" font-family="Helvetica,sans-Serif" font-size="10.00" fill="#000000">src/libaktualizr/primary</text>
<text text-anchor="middle" x="930.5" y="-286.5" font-family="Helvetica,sans-Serif" font-size="10.00" fill="#000000">/events.h</text>
</a>
</g>
</g>
<!-- Node57&#45;&gt;Node86 -->
<g id="edge46" class="edge">
<title>Node57&#45;&gt;Node86</title>
<path fill="none" stroke="#191970" d="M958.2725,-337.7735C952.2666,-328.4154 945.5449,-317.9421 940.2188,-309.6432"/>
<polygon fill="#191970" stroke="#191970" points="955.3958,-339.7712 963.7426,-346.2967 961.2869,-335.9903 955.3958,-339.7712"/>
</g>
<!-- Node59 -->
<g id="node3" class="node">
<title>Node59</title>
<g id="a_node3"><a xlink:href="uptane__test__common_8h_source.html" target="_top" xlink:title="tests/uptane_test_common.h">
<polygon fill="#ffffff" stroke="#000000" points="1186,-73 1186,-92 1329,-92 1329,-73 1186,-73"/>
<text text-anchor="middle" x="1257.5" y="-80" font-family="Helvetica,sans-Serif" font-size="10.00" fill="#000000">tests/uptane_test_common.h</text>
</a>
</g>
</g>
<!-- Node58&#45;&gt;Node59 -->
<g id="edge2" class="edge">
<title>Node58&#45;&gt;Node59</title>
<path fill="none" stroke="#191970" d="M1382.7991,-206.5419C1370.1379,-197.6581 1355.6988,-186.8588 1343.5,-176 1312.0352,-147.9915 1279.6494,-109.7296 1265.2319,-92.1054"/>
<polygon fill="#191970" stroke="#191970" points="1381.0133,-209.5621 1391.2311,-212.3634 1384.9904,-203.8016 1381.0133,-209.5621"/>
</g>
<!-- Node60 -->
<g id="node4" class="node">
<title>Node60</title>
<g id="a_node4"><a xlink:href="aktualizr__secondary_2uptane__test_8cc_source.html" target="_top" xlink:title="src/aktualizr_secondary\l/uptane_test.cc">
<polygon fill="#ffffff" stroke="#000000" points="1734.5,-.5 1734.5,-30.5 1854.5,-30.5 1854.5,-.5 1734.5,-.5"/>
<text text-anchor="start" x="1742.5" y="-18.5" font-family="Helvetica,sans-Serif" font-size="10.00" fill="#000000">src/aktualizr_secondary</text>
<text text-anchor="middle" x="1794.5" y="-7.5" font-family="Helvetica,sans-Serif" font-size="10.00" fill="#000000">/uptane_test.cc</text>
</a>
</g>
</g>
<!-- Node58&#45;&gt;Node60 -->
<g id="edge16" class="edge">
<title>Node58&#45;&gt;Node60</title>
<path fill="none" stroke="#191970" d="M1482.0716,-221.4356C1576.2186,-212.3766 1737.6174,-194.3978 1757.5,-176 1799.0573,-137.5462 1798.4643,-62.5636 1796.0624,-30.561"/>
<polygon fill="#191970" stroke="#191970" points="1481.681,-217.9569 1472.0582,-222.3899 1482.3452,-224.9253 1481.681,-217.9569"/>
</g>
<!-- Node62 -->
<g id="node6" class="node">
<title>Node62</title>
<g id="a_node6"><a xlink:href="aktualizr__test_8cc_source.html" target="_top" xlink:title="src/libaktualizr/primary\l/aktualizr_test.cc">
<polygon fill="#ffffff" stroke="#000000" points="1067,-.5 1067,-30.5 1182,-30.5 1182,-.5 1067,-.5"/>
<text text-anchor="start" x="1075" y="-18.5" font-family="Helvetica,sans-Serif" font-size="10.00" fill="#000000">src/libaktualizr/primary</text>
<text text-anchor="middle" x="1124.5" y="-7.5" font-family="Helvetica,sans-Serif" font-size="10.00" fill="#000000">/aktualizr_test.cc</text>
</a>
</g>
</g>
<!-- Node58&#45;&gt;Node62 -->
<g id="edge35" class="edge">
<title>Node58&#45;&gt;Node62</title>
<path fill="none" stroke="#191970" d="M1360.6871,-208.7026C1308.3565,-188.2086 1229.2488,-151.0898 1176.5,-98 1156.333,-77.7026 1140.1308,-48.2501 1131.4476,-30.5758"/>
<polygon fill="#191970" stroke="#191970" points="1359.5445,-212.013 1370.1344,-212.3359 1362.0572,-205.4795 1359.5445,-212.013"/>
</g>
<!-- Node66 -->
<g id="node10" class="node">
<title>Node66</title>
<g id="a_node10"><a xlink:href="uptane__key__test_8cc_source.html" target="_top" xlink:title="src/libaktualizr/primary\l/uptane_key_test.cc">
<polygon fill="#ffffff" stroke="#000000" points="2030,-.5 2030,-30.5 2145,-30.5 2145,-.5 2030,-.5"/>
<text text-anchor="start" x="2038" y="-18.5" font-family="Helvetica,sans-Serif" font-size="10.00" fill="#000000">src/libaktualizr/primary</text>
<text text-anchor="middle" x="2087.5" y="-7.5" font-family="Helvetica,sans-Serif" font-size="10.00" fill="#000000">/uptane_key_test.cc</text>
</a>
</g>
</g>
<!-- Node58&#45;&gt;Node66 -->
<g id="edge38" class="edge">
<title>Node58&#45;&gt;Node66</title>
<path fill="none" stroke="#191970" d="M1482.2436,-225.7005C1672.7775,-220.3122 2201.1673,-202.9903 2226.5,-176 2275.0615,-124.261 2171.9958,-59.5805 2117.8777,-30.6763"/>
<polygon fill="#191970" stroke="#191970" points="1481.973,-222.2066 1472.0752,-225.9858 1482.1694,-229.2039 1481.973,-222.2066"/>
</g>
<!-- Node67 -->
<g id="node11" class="node">
<title>Node67</title>
<g id="a_node11"><a xlink:href="uptane__ci__test_8cc_source.html" target="_top" xlink:title="src/libaktualizr/uptane\l/uptane_ci_test.cc">
<polygon fill="#ffffff" stroke="#000000" points="1200.5,-.5 1200.5,-30.5 1312.5,-30.5 1312.5,-.5 1200.5,-.5"/>
<text text-anchor="start" x="1208.5" y="-18.5" font-family="Helvetica,sans-Serif" font-size="10.00" fill="#000000">src/libaktualizr/uptane</text>
<text text-anchor="middle" x="1256.5" y="-7.5" font-family="Helvetica,sans-Serif" font-size="10.00" fill="#000000">/uptane_ci_test.cc</text>
</a>
</g>
</g>
<!-- Node58&#45;&gt;Node67 -->
<g id="edge39" class="edge">
<title>Node58&#45;&gt;Node67</title>
<path fill="none" stroke="#191970" d="M1407.3504,-202.607C1396.6475,-168.7824 1373.7539,-107.8474 1337.5,-67 1324.0047,-51.7948 1304.976,-39.3858 1288.753,-30.5612"/>
<polygon fill="#191970" stroke="#191970" points="1404.0076,-203.6445 1410.2819,-212.1817 1410.7009,-201.5952 1404.0076,-203.6445"/>
</g>
<!-- Node69 -->
<g id="node13" class="node">
<title>Node69</title>
<g id="a_node13"><a xlink:href="uptane__network__test_8cc.html" target="_top" xlink:title="Check that aktualizr can complete provisioning after encountering various network issues...">
<polygon fill="#ffffff" stroke="#000000" points="1330.5,-.5 1330.5,-30.5 1454.5,-30.5 1454.5,-.5 1330.5,-.5"/>
<text text-anchor="start" x="1338.5" y="-18.5" font-family="Helvetica,sans-Serif" font-size="10.00" fill="#000000">src/libaktualizr/uptane</text>
<text text-anchor="middle" x="1392.5" y="-7.5" font-family="Helvetica,sans-Serif" font-size="10.00" fill="#000000">/uptane_network_test.cc</text>
</a>
</g>
</g>
<!-- Node58&#45;&gt;Node69 -->
<g id="edge41" class="edge">
<title>Node58&#45;&gt;Node69</title>
<path fill="none" stroke="#191970" d="M1411.8797,-202.2501C1407.2602,-157.7351 1397.8032,-66.6038 1394.0678,-30.6084"/>
<polygon fill="#191970" stroke="#191970" points="1408.4042,-202.6682 1412.9178,-212.2535 1415.3668,-201.9456 1408.4042,-202.6682"/>
</g>
<!-- Node70 -->
<g id="node14" class="node">
<title>Node70</title>
<g id="a_node14"><a xlink:href="uptane__serial__test_8cc_source.html" target="_top" xlink:title="src/libaktualizr/uptane\l/uptane_serial_test.cc">
<polygon fill="#ffffff" stroke="#000000" points="1473,-.5 1473,-30.5 1586,-30.5 1586,-.5 1473,-.5"/>
<text text-anchor="start" x="1481" y="-18.5" font-family="Helvetica,sans-Serif" font-size="10.00" fill="#000000">src/libaktualizr/uptane</text>
<text text-anchor="middle" x="1529.5" y="-7.5" font-family="Helvetica,sans-Serif" font-size="10.00" fill="#000000">/uptane_serial_test.cc</text>
</a>
</g>
</g>
<!-- Node58&#45;&gt;Node70 -->
<g id="edge42" class="edge">
<title>Node58&#45;&gt;Node70</title>
<path fill="none" stroke="#191970" d="M1423.1129,-202.6916C1430.1202,-183.5087 1440.7463,-156.5147 1452.5,-134 1472.8238,-95.0687 1502.3719,-52.6449 1518.3082,-30.6465"/>
<polygon fill="#191970" stroke="#191970" points="1419.782,-201.6116 1419.7,-212.2061 1426.3709,-203.9752 1419.782,-201.6116"/>
</g>
<!-- Node71 -->
<g id="node15" class="node">
<title>Node71</title>
<g id="a_node15"><a xlink:href="libaktualizr_2uptane_2uptane__test_8cc_source.html" target="_top" xlink:title="src/libaktualizr/uptane\l/uptane_test.cc">
<polygon fill="#ffffff" stroke="#000000" points="1604.5,-.5 1604.5,-30.5 1716.5,-30.5 1716.5,-.5 1604.5,-.5"/>
<text text-anchor="start" x="1612.5" y="-18.5" font-family="Helvetica,sans-Serif" font-size="10.00" fill="#000000">src/libaktualizr/uptane</text>
<text text-anchor="middle" x="1660.5" y="-7.5" font-family="Helvetica,sans-Serif" font-size="10.00" fill="#000000">/uptane_test.cc</text>
</a>
</g>
</g>
<!-- Node58&#45;&gt;Node71 -->
<g id="edge43" class="edge">
<title>Node58&#45;&gt;Node71</title>
<path fill="none" stroke="#191970" d="M1482.2971,-221.3215C1571.8485,-212.4645 1720.207,-195.106 1736.5,-176 1775.51,-130.255 1710.9943,-61.0751 1678.0337,-30.7038"/>
<polygon fill="#191970" stroke="#191970" points="1481.8281,-217.8506 1472.2163,-222.3072 1482.5094,-224.8173 1481.8281,-217.8506"/>
</g>
<!-- Node72 -->
<g id="node16" class="node">
<title>Node72</title>
<g id="a_node16"><a xlink:href="uptane__vector__tests_8cc_source.html" target="_top" xlink:title="tests/uptane_vector\l_tests.cc">
<polygon fill="#ffffff" stroke="#000000" points="1462,-140 1462,-170 1565,-170 1565,-140 1462,-140"/>
<text text-anchor="start" x="1470" y="-158" font-family="Helvetica,sans-Serif" font-size="10.00" fill="#000000">tests/uptane_vector</text>
<text text-anchor="middle" x="1513.5" y="-147" font-family="Helvetica,sans-Serif" font-size="10.00" fill="#000000">_tests.cc</text>
</a>
</g>
</g>
<!-- Node58&#45;&gt;Node72 -->
<g id="edge15" class="edge">
<title>Node58&#45;&gt;Node72</title>
<path fill="none" stroke="#191970" d="M1443.4389,-206.3074C1459.3399,-194.6627 1478.6835,-180.4969 1493.0134,-170.0028"/>
<polygon fill="#191970" stroke="#191970" points="1441.0129,-203.7458 1435.0129,-212.478 1445.1487,-209.3934 1441.0129,-203.7458"/>
</g>
<!-- Node73 -->
<g id="node17" class="node">
<title>Node73</title>
<g id="a_node17"><a xlink:href="dockerappmanager__test_8cc_source.html" target="_top" xlink:title="src/libaktualizr/package\l_manager/dockerappmanager\l_test.cc">
<polygon fill="#ffffff" stroke="#000000" points="1583,-134.5 1583,-175.5 1728,-175.5 1728,-134.5 1583,-134.5"/>
<text text-anchor="start" x="1591" y="-163.5" font-family="Helvetica,sans-Serif" font-size="10.00" fill="#000000">src/libaktualizr/package</text>
<text text-anchor="start" x="1591" y="-152.5" font-family="Helvetica,sans-Serif" font-size="10.00" fill="#000000">_manager/dockerappmanager</text>
<text text-anchor="middle" x="1655.5" y="-141.5" font-family="Helvetica,sans-Serif" font-size="10.00" fill="#000000">_test.cc</text>
</a>
</g>
</g>
<!-- Node58&#45;&gt;Node73 -->
<g id="edge17" class="edge">
<title>Node58&#45;&gt;Node73</title>
<path fill="none" stroke="#191970" d="M1474.3138,-209.5062C1508.6003,-199.1918 1551.7573,-186.2089 1587.3502,-175.5015"/>
<polygon fill="#191970" stroke="#191970" points="1473.0031,-206.2455 1464.4354,-212.478 1475.0197,-212.9487 1473.0031,-206.2455"/>
</g>
<!-- Node74 -->
<g id="node18" class="node">
<title>Node74</title>
<g id="a_node18"><a xlink:href="aktualizr_8h_source.html" target="_top" xlink:title="src/libaktualizr/primary\l/aktualizr.h">
<polygon fill="#ffffff" stroke="#000000" points="637,-140 637,-170 752,-170 752,-140 637,-140"/>
<text text-anchor="start" x="645" y="-158" font-family="Helvetica,sans-Serif" font-size="10.00" fill="#000000">src/libaktualizr/primary</text>
<text text-anchor="middle" x="694.5" y="-147" font-family="Helvetica,sans-Serif" font-size="10.00" fill="#000000">/aktualizr.h</text>
</a>
</g>
</g>
<!-- Node58&#45;&gt;Node74 -->
<g id="edge18" class="edge">
<title>Node58&#45;&gt;Node74</title>
<path fill="none" stroke="#191970" d="M1346.5713,-220.66C1205.7723,-206.4823 884.2651,-174.1083 752.4783,-160.8381"/>
<polygon fill="#191970" stroke="#191970" points="1346.4961,-224.17 1356.7965,-221.6896 1347.1975,-217.2052 1346.4961,-224.17"/>
</g>
<!-- Node81 -->
<g id="node25" class="node">
<title>Node81</title>
<g id="a_node25"><a xlink:href="load__tests_2check_8cc_source.html" target="_top" xlink:title="src/load_tests/check.cc">
<polygon fill="#ffffff" stroke="#000000" points="970,-73 970,-92 1091,-92 1091,-73 970,-73"/>
<text text-anchor="middle" x="1030.5" y="-80" font-family="Helvetica,sans-Serif" font-size="10.00" fill="#000000">src/load_tests/check.cc</text>
</a>
</g>
</g>
<!-- Node58&#45;&gt;Node81 -->
<g id="edge44" class="edge">
<title>Node58&#45;&gt;Node81</title>
<path fill="none" stroke="#191970" d="M1346.7365,-218.5613C1278.5998,-208.8753 1178.7454,-192.5723 1143.5,-176 1098.3359,-154.764 1056.0908,-111.2376 1038.7693,-92.0012"/>
<polygon fill="#191970" stroke="#191970" points="1346.5761,-222.0731 1356.966,-219.9999 1347.5509,-215.1413 1346.5761,-222.0731"/>
</g>
<!-- Node82 -->
<g id="node26" class="node">
<title>Node82</title>
<g id="a_node26"><a xlink:href="provision_8cc_source.html" target="_top" xlink:title="src/load_tests/provision.cc">
<polygon fill="#ffffff" stroke="#000000" points="817.5,-73 817.5,-92 951.5,-92 951.5,-73 817.5,-73"/>
<text text-anchor="middle" x="884.5" y="-80" font-family="Helvetica,sans-Serif" font-size="10.00" fill="#000000">src/load_tests/provision.cc</text>
</a>
</g>
</g>
<!-- Node58&#45;&gt;Node82 -->
<g id="edge45" class="edge">
<title>Node58&#45;&gt;Node82</title>
<path fill="none" stroke="#191970" d="M1346.7102,-222.8766C1278.2964,-216.8653 1170.2272,-203.6625 1080.5,-176 1010.0653,-154.2853 932.9024,-111.2077 900.3648,-92.0596"/>
<polygon fill="#191970" stroke="#191970" points="1346.664,-226.3852 1356.9249,-223.7465 1347.258,-219.4104 1346.664,-226.3852"/>
</g>
<!-- Node83 -->
<g id="node27" class="node">
<title>Node83</title>
<g id="a_node27"><a xlink:href="device__cred__prov__test_8cc.html" target="_top" xlink:title="src/libaktualizr/primary\l/device_cred_prov_test.cc">
<polygon fill="#ffffff" stroke="#000000" points="1823,-140 1823,-170 1954,-170 1954,-140 1823,-140"/>
<text text-anchor="start" x="1831" y="-158" font-family="Helvetica,sans-Serif" font-size="10.00" fill="#000000">src/libaktualizr/primary</text>
<text text-anchor="middle" x="1888.5" y="-147" font-family="Helvetica,sans-Serif" font-size="10.00" fill="#000000">/device_cred_prov_test.cc</text>
</a>
</g>
</g>
<!-- Node58&#45;&gt;Node83 -->
<g id="edge36" class="edge">
<title>Node58&#45;&gt;Node83</title>
<path fill="none" stroke="#191970" d="M1482.5766,-221.2483C1561.4551,-213.3941 1695.1169,-198.1989 1808.5,-176 1817.0961,-174.317 1826.1378,-172.2437 1834.9247,-170.0617"/>
<polygon fill="#191970" stroke="#191970" points="1481.8988,-217.798 1472.2902,-222.2618 1482.5853,-224.7643 1481.8988,-217.798"/>
</g>
<!-- Node84 -->
<g id="node28" class="node">
<title>Node84</title>
<g id="a_node28"><a xlink:href="sotauptaneclient_8cc_source.html" target="_top" xlink:title="src/libaktualizr/primary\l/sotauptaneclient.cc">
<polygon fill="#ffffff" stroke="#000000" points="1972,-140 1972,-170 2087,-170 2087,-140 1972,-140"/>
<text text-anchor="start" x="1980" y="-158" font-family="Helvetica,sans-Serif" font-size="10.00" fill="#000000">src/libaktualizr/primary</text>
<text text-anchor="middle" x="2029.5" y="-147" font-family="Helvetica,sans-Serif" font-size="10.00" fill="#000000">/sotauptaneclient.cc</text>
</a>
</g>
</g>
<!-- Node58&#45;&gt;Node84 -->
<g id="edge37" class="edge">
<title>Node58&#45;&gt;Node84</title>
<path fill="none" stroke="#191970" d="M1482.3433,-225.6961C1586.5437,-221.9019 1791.8351,-210.3679 1962.5,-176 1970.2675,-174.4358 1978.41,-172.3121 1986.2362,-170.0138"/>
<polygon fill="#191970" stroke="#191970" points="1482.146,-222.2007 1472.2751,-226.0499 1482.3919,-229.1964 1482.146,-222.2007"/>
</g>
<!-- Node85 -->
<g id="node29" class="node">
<title>Node85</title>
<g id="a_node29"><a xlink:href="uptane__init__test_8cc_source.html" target="_top" xlink:title="src/libaktualizr/uptane\l/uptane_init_test.cc">
<polygon fill="#ffffff" stroke="#000000" points="2105.5,-140 2105.5,-170 2217.5,-170 2217.5,-140 2105.5,-140"/>
<text text-anchor="start" x="2113.5" y="-158" font-family="Helvetica,sans-Serif" font-size="10.00" fill="#000000">src/libaktualizr/uptane</text>
<text text-anchor="middle" x="2161.5" y="-147" font-family="Helvetica,sans-Serif" font-size="10.00" fill="#000000">/uptane_init_test.cc</text>
</a>
</g>
</g>
<!-- Node58&#45;&gt;Node85 -->
<g id="edge40" class="edge">
<title>Node58&#45;&gt;Node85</title>
<path fill="none" stroke="#191970" d="M1482.489,-224.3716C1630.8077,-217.2192 1979.4193,-198.5374 2095.5,-176 2103.2906,-174.4874 2111.451,-172.359 2119.2727,-170.0327"/>
<polygon fill="#191970" stroke="#191970" points="1481.9831,-220.8918 1472.1621,-224.8666 1482.3182,-227.8837 1481.9831,-220.8918"/>
</g>
<!-- Node59&#45;&gt;Node60 -->
<g id="edge3" class="edge">
<title>Node59&#45;&gt;Node60</title>
<path fill="none" stroke="#191970" d="M1339.1802,-76.2868C1432.8757,-68.5178 1590.92,-53.449 1725.5,-31 1728.4065,-30.5152 1731.3745,-29.985 1734.3668,-29.4223"/>
<polygon fill="#191970" stroke="#191970" points="1338.8785,-72.7997 1329.1987,-77.107 1339.4518,-79.7762 1338.8785,-72.7997"/>
</g>
<!-- Node61 -->
<g id="node5" class="node">
<title>Node61</title>
<g id="a_node5"><a xlink:href="aktualizr__fullostree__test_8cc_source.html" target="_top" xlink:title="src/libaktualizr/primary\l/aktualizr_fullostree_test.cc">
<polygon fill="#ffffff" stroke="#000000" points="497,-.5 497,-30.5 634,-30.5 634,-.5 497,-.5"/>
<text text-anchor="start" x="505" y="-18.5" font-family="Helvetica,sans-Serif" font-size="10.00" fill="#000000">src/libaktualizr/primary</text>
<text text-anchor="middle" x="565.5" y="-7.5" font-family="Helvetica,sans-Serif" font-size="10.00" fill="#000000">/aktualizr_fullostree_test.cc</text>
</a>
</g>
</g>
<!-- Node59&#45;&gt;Node61 -->
<g id="edge4" class="edge">
<title>Node59&#45;&gt;Node61</title>
<path fill="none" stroke="#191970" d="M1175.9524,-74.1988C1151.3883,-71.7796 1124.3544,-69.1979 1099.5,-67 896.5516,-49.0533 844.2858,-59.1538 642.5,-31 639.7989,-30.6231 637.0499,-30.2106 634.277,-29.7701"/>
<polygon fill="#191970" stroke="#191970" points="1175.6567,-77.6865 1185.9527,-75.188 1176.3458,-70.7205 1175.6567,-77.6865"/>
</g>
<!-- Node59&#45;&gt;Node62 -->
<g id="edge5" class="edge">
<title>Node59&#45;&gt;Node62</title>
<path fill="none" stroke="#191970" d="M1229.2791,-68.2834C1207.2561,-57.1892 1176.74,-41.8164 1154.3193,-30.5218"/>
<polygon fill="#191970" stroke="#191970" points="1227.9389,-71.5273 1238.4443,-72.9005 1231.0882,-65.2757 1227.9389,-71.5273"/>
</g>
<!-- Node63 -->
<g id="node7" class="node">
<title>Node63</title>
<g id="a_node7"><a xlink:href="custom__url__test_8cc_source.html" target="_top" xlink:title="src/libaktualizr/primary\l/custom_url_test.cc">
<polygon fill="#ffffff" stroke="#000000" points="652,-.5 652,-30.5 767,-30.5 767,-.5 652,-.5"/>
<text text-anchor="start" x="660" y="-18.5" font-family="Helvetica,sans-Serif" font-size="10.00" fill="#000000">src/libaktualizr/primary</text>
<text text-anchor="middle" x="709.5" y="-7.5" font-family="Helvetica,sans-Serif" font-size="10.00" fill="#000000">/custom_url_test.cc</text>
</a>
</g>
</g>
<!-- Node59&#45;&gt;Node63 -->
<g id="edge6" class="edge">
<title>Node59&#45;&gt;Node63</title>
<path fill="none" stroke="#191970" d="M1175.6738,-74.318C1048.475,-61.5143 813.8689,-37.5292 775.5,-31 772.7152,-30.5261 769.8725,-30.0048 767.0072,-29.4493"/>
<polygon fill="#191970" stroke="#191970" points="1175.4654,-77.8146 1185.7655,-75.333 1176.166,-70.8497 1175.4654,-77.8146"/>
</g>
<!-- Node64 -->
<g id="node8" class="node">
<title>Node64</title>
<g id="a_node8"><a xlink:href="empty__targets__test_8cc_source.html" target="_top" xlink:title="src/libaktualizr/primary\l/empty_targets_test.cc">
<polygon fill="#ffffff" stroke="#000000" points="785,-.5 785,-30.5 902,-30.5 902,-.5 785,-.5"/>
<text text-anchor="start" x="793" y="-18.5" font-family="Helvetica,sans-Serif" font-size="10.00" fill="#000000">src/libaktualizr/primary</text>
<text text-anchor="middle" x="843.5" y="-7.5" font-family="Helvetica,sans-Serif" font-size="10.00" fill="#000000">/empty_targets_test.cc</text>
</a>
</g>
</g>
<!-- Node59&#45;&gt;Node64 -->
<g id="edge7" class="edge">
<title>Node59&#45;&gt;Node64</title>
<path fill="none" stroke="#191970" d="M1175.8762,-72.1404C1105.5765,-62.7913 1001.5232,-47.9341 911.5,-31 908.4061,-30.418 905.2392,-29.7944 902.0461,-29.1435"/>
<polygon fill="#191970" stroke="#191970" points="1175.6251,-75.6376 1185.9977,-73.4794 1176.5432,-68.6981 1175.6251,-75.6376"/>
</g>
<!-- Node65 -->
<g id="node9" class="node">
<title>Node65</title>
<g id="a_node9"><a xlink:href="target__mismatch__test_8cc_source.html" target="_top" xlink:title="src/libaktualizr/primary\l/target_mismatch_test.cc">
<polygon fill="#ffffff" stroke="#000000" points="920.5,-.5 920.5,-30.5 1048.5,-30.5 1048.5,-.5 920.5,-.5"/>
<text text-anchor="start" x="928.5" y="-18.5" font-family="Helvetica,sans-Serif" font-size="10.00" fill="#000000">src/libaktualizr/primary</text>
<text text-anchor="middle" x="984.5" y="-7.5" font-family="Helvetica,sans-Serif" font-size="10.00" fill="#000000">/target_mismatch_test.cc</text>
</a>
</g>
</g>
<!-- Node59&#45;&gt;Node65 -->
<g id="edge8" class="edge">
<title>Node59&#45;&gt;Node65</title>
<path fill="none" stroke="#191970" d="M1208.7498,-70.5357C1163.2129,-59.3599 1095.06,-42.6338 1045.8449,-30.5553"/>
<polygon fill="#191970" stroke="#191970" points="1208.1296,-73.9873 1218.6757,-72.9717 1209.7981,-67.189 1208.1296,-73.9873"/>
</g>
<!-- Node59&#45;&gt;Node66 -->
<g id="edge9" class="edge">
<title>Node59&#45;&gt;Node66</title>
<path fill="none" stroke="#191970" d="M1339.3423,-75.8935C1506.8535,-62.3715 1885.1735,-31.8324 2029.7964,-20.158"/>
<polygon fill="#191970" stroke="#191970" points="1339.03,-72.4072 1329.344,-76.7005 1339.5932,-79.3845 1339.03,-72.4072"/>
</g>
<!-- Node59&#45;&gt;Node67 -->
<g id="edge10" class="edge">
<title>Node59&#45;&gt;Node67</title>
<path fill="none" stroke="#191970" d="M1257.2056,-62.7758C1257.0517,-52.4641 1256.8663,-40.0437 1256.7242,-30.5218"/>
<polygon fill="#191970" stroke="#191970" points="1253.7078,-62.9539 1257.3567,-72.9005 1260.707,-62.8494 1253.7078,-62.9539"/>
</g>
<!-- Node68 -->
<g id="node12" class="node">
<title>Node68</title>
<g id="a_node12"><a xlink:href="uptane__delegation__test_8cc_source.html" target="_top" xlink:title="src/libaktualizr/uptane\l/uptane_delegation_test.cc">
<polygon fill="#ffffff" stroke="#000000" points="319.5,-.5 319.5,-30.5 453.5,-30.5 453.5,-.5 319.5,-.5"/>
<text text-anchor="start" x="327.5" y="-18.5" font-family="Helvetica,sans-Serif" font-size="10.00" fill="#000000">src/libaktualizr/uptane</text>
<text text-anchor="middle" x="386.5" y="-7.5" font-family="Helvetica,sans-Serif" font-size="10.00" fill="#000000">/uptane_delegation_test.cc</text>
</a>
</g>
</g>
<!-- Node59&#45;&gt;Node68 -->
<g id="edge11" class="edge">
<title>Node59&#45;&gt;Node68</title>
<path fill="none" stroke="#191970" d="M1175.9782,-73.8894C1151.415,-71.4604 1124.375,-68.951 1099.5,-67 827.864,-45.695 758.4548,-59.6968 487.5,-31 476.5624,-29.8416 464.9985,-28.3351 453.7533,-26.7172"/>
<polygon fill="#191970" stroke="#191970" points="1175.6797,-77.3769 1185.9778,-74.8871 1176.3747,-70.4114 1175.6797,-77.3769"/>
</g>
<!-- Node59&#45;&gt;Node69 -->
<g id="edge12" class="edge">
<title>Node59&#45;&gt;Node69</title>
<path fill="none" stroke="#191970" d="M1285.8451,-68.4324C1308.2214,-57.3271 1339.3724,-41.867 1362.2323,-30.5218"/>
<polygon fill="#191970" stroke="#191970" points="1284.2438,-65.3198 1276.8422,-72.9005 1287.3557,-71.59 1284.2438,-65.3198"/>
</g>
<!-- Node59&#45;&gt;Node70 -->
<g id="edge13" class="edge">
<title>Node59&#45;&gt;Node70</title>
<path fill="none" stroke="#191970" d="M1306.08,-70.5336C1352.8856,-59.0043 1423.6669,-41.5692 1472.9756,-29.4233"/>
<polygon fill="#191970" stroke="#191970" points="1305.0547,-67.1814 1296.1821,-72.9717 1306.729,-73.9783 1305.0547,-67.1814"/>
</g>
<!-- Node59&#45;&gt;Node71 -->
<g id="edge14" class="edge">
<title>Node59&#45;&gt;Node71</title>
<path fill="none" stroke="#191970" d="M1339.3962,-71.8295C1407.8323,-62.4714 1507.863,-47.766 1594.5,-31 1597.7356,-30.3738 1601.0529,-29.6992 1604.3955,-28.9943"/>
<polygon fill="#191970" stroke="#191970" points="1338.5497,-68.4123 1329.1126,-73.2279 1339.493,-75.3484 1338.5497,-68.4123"/>
</g>
<!-- Node74&#45;&gt;Node59 -->
<g id="edge20" class="edge">
<title>Node74&#45;&gt;Node59</title>
<path fill="none" stroke="#191970" d="M762.1398,-146.2897C869.1386,-132.511 1076.4972,-105.8085 1185.9094,-91.719"/>
<polygon fill="#191970" stroke="#191970" points="761.5761,-142.8333 752.1051,-147.5819 762.4702,-149.776 761.5761,-142.8333"/>
</g>
<!-- Node74&#45;&gt;Node61 -->
<g id="edge27" class="edge">
<title>Node74&#45;&gt;Node61</title>
<path fill="none" stroke="#191970" d="M675.5656,-131.9811C660.5023,-113.9403 638.6766,-88.3969 618.5,-67 606.7053,-54.4919 592.7368,-40.9679 582.1019,-30.9186"/>
<polygon fill="#191970" stroke="#191970" points="672.8973,-134.2464 681.9805,-139.7003 678.2809,-129.7724 672.8973,-134.2464"/>
</g>
<!-- Node74&#45;&gt;Node62 -->
<g id="edge28" class="edge">
<title>Node74&#45;&gt;Node62</title>
<path fill="none" stroke="#191970" d="M723.8053,-133.9439C738.3105,-123.3612 755.9921,-110.2185 771.5,-98 788.3513,-84.723 788.9154,-75.7574 808.5,-67 910.5769,-21.3556 947.6003,-51.6194 1057.5,-31 1060.5509,-30.4276 1063.6733,-29.8116 1066.821,-29.1667"/>
<polygon fill="#191970" stroke="#191970" points="721.7054,-131.1433 715.6723,-139.8527 725.8198,-136.8065 721.7054,-131.1433"/>
</g>
<!-- Node74&#45;&gt;Node63 -->
<g id="edge29" class="edge">
<title>Node74&#45;&gt;Node63</title>
<path fill="none" stroke="#191970" d="M695.0248,-129.9314C695.6137,-112.2796 696.8611,-88.1253 699.5,-67 701.0354,-54.7087 703.7617,-40.9422 705.9802,-30.7369"/>
<polygon fill="#191970" stroke="#191970" points="691.5244,-129.9005 694.7366,-139.9966 698.5215,-130.1009 691.5244,-129.9005"/>
</g>
<!-- Node74&#45;&gt;Node64 -->
<g id="edge30" class="edge">
<title>Node74&#45;&gt;Node64</title>
<path fill="none" stroke="#191970" d="M701.6726,-130.187C708.3094,-110.9227 719.848,-84.6123 737.5,-67 753.794,-50.7427 776.2377,-38.8284 796.2794,-30.5796"/>
<polygon fill="#191970" stroke="#191970" points="698.3109,-129.2076 698.5621,-139.7995 704.9709,-131.3627 698.3109,-129.2076"/>
</g>
<!-- Node74&#45;&gt;Node65 -->
<g id="edge31" class="edge">
<title>Node74&#45;&gt;Node65</title>
<path fill="none" stroke="#191970" d="M710.1663,-131.3614C724.7367,-111.2429 748.2564,-83.1165 775.5,-67 788.1041,-59.5438 863.6308,-41.9103 920.2989,-29.3582"/>
<polygon fill="#191970" stroke="#191970" points="707.1907,-129.5083 704.3027,-139.7019 712.9172,-133.5342 707.1907,-129.5083"/>
</g>
<!-- Node74&#45;&gt;Node68 -->
<g id="edge32" class="edge">
<title>Node74&#45;&gt;Node68</title>
<path fill="none" stroke="#191970" d="M626.9509,-153.2157C540.3389,-149.3383 397.3711,-137.0356 364.5,-98 348.2682,-78.7241 363.2958,-48.6683 375.2243,-30.6498"/>
<polygon fill="#191970" stroke="#191970" points="626.8249,-156.7134 636.9634,-153.6377 627.1197,-149.7196 626.8249,-156.7134"/>
</g>
<!-- Node75 -->
<g id="node19" class="node">
<title>Node75</title>
<g id="a_node19"><a xlink:href="aktualizr__cycle__simple_8cc_source.html" target="_top" xlink:title="tests/aktualizr_cycle\l_simple.cc">
<polygon fill="#ffffff" stroke="#000000" points="374,-67.5 374,-97.5 481,-97.5 481,-67.5 374,-67.5"/>
<text text-anchor="start" x="382" y="-85.5" font-family="Helvetica,sans-Serif" font-size="10.00" fill="#000000">tests/aktualizr_cycle</text>
<text text-anchor="middle" x="427.5" y="-74.5" font-family="Helvetica,sans-Serif" font-size="10.00" fill="#000000">_simple.cc</text>
</a>
</g>
</g>
<!-- Node74&#45;&gt;Node75 -->
<g id="edge19" class="edge">
<title>Node74&#45;&gt;Node75</title>
<path fill="none" stroke="#191970" d="M629.4271,-137.3304C584.0139,-124.9991 524.1221,-108.7363 481.3833,-97.1312"/>
<polygon fill="#191970" stroke="#191970" points="628.6097,-140.7351 639.1774,-139.978 630.4441,-133.9797 628.6097,-140.7351"/>
</g>
<!-- Node76 -->
<g id="node20" class="node">
<title>Node76</title>
<g id="a_node20"><a xlink:href="aktualizr__primary_2main_8cc_source.html" target="_top" xlink:title="src/aktualizr_primary\l/main.cc">
<polygon fill="#ffffff" stroke="#000000" points="69,-.5 69,-30.5 176,-30.5 176,-.5 69,-.5"/>
<text text-anchor="start" x="77" y="-18.5" font-family="Helvetica,sans-Serif" font-size="10.00" fill="#000000">src/aktualizr_primary</text>
<text text-anchor="middle" x="122.5" y="-7.5" font-family="Helvetica,sans-Serif" font-size="10.00" fill="#000000">/main.cc</text>
</a>
</g>
</g>
<!-- Node74&#45;&gt;Node76 -->
<g id="edge21" class="edge">
<title>Node74&#45;&gt;Node76</title>
<path fill="none" stroke="#191970" d="M626.4488,-151.3778C491.4907,-143.6673 199.708,-124.1741 162.5,-98 139.8468,-82.0645 129.5088,-49.6784 125.2102,-30.566"/>
<polygon fill="#191970" stroke="#191970" points="626.4882,-154.8856 636.67,-151.9564 626.8838,-147.8967 626.4882,-154.8856"/>
</g>
<!-- Node77 -->
<g id="node21" class="node">
<title>Node77</title>
<g id="a_node21"><a xlink:href="secondary_8h_source.html" target="_top" xlink:title="src/aktualizr_primary\l/secondary.h">
<polygon fill="#ffffff" stroke="#000000" points="172,-67.5 172,-97.5 279,-97.5 279,-67.5 172,-67.5"/>
<text text-anchor="start" x="180" y="-85.5" font-family="Helvetica,sans-Serif" font-size="10.00" fill="#000000">src/aktualizr_primary</text>
<text text-anchor="middle" x="225.5" y="-74.5" font-family="Helvetica,sans-Serif" font-size="10.00" fill="#000000">/secondary.h</text>
</a>
</g>
</g>
<!-- Node74&#45;&gt;Node77 -->
<g id="edge22" class="edge">
<title>Node74&#45;&gt;Node77</title>
<path fill="none" stroke="#191970" d="M627.032,-144.5705C533.146,-130.0572 364.9835,-104.0619 279.1289,-90.7902"/>
<polygon fill="#191970" stroke="#191970" points="626.5741,-148.0412 636.9914,-146.1101 627.6435,-141.1234 626.5741,-148.0412"/>
</g>
<!-- Node79 -->
<g id="node23" class="node">
<title>Node79</title>
<g id="a_node23"><a xlink:href="hmi__stub_2main_8cc_source.html" target="_top" xlink:title="src/hmi_stub/main.cc">
<polygon fill="#ffffff" stroke="#000000" points="499.5,-73 499.5,-92 609.5,-92 609.5,-73 499.5,-73"/>
<text text-anchor="middle" x="554.5" y="-80" font-family="Helvetica,sans-Serif" font-size="10.00" fill="#000000">src/hmi_stub/main.cc</text>
</a>
</g>
</g>
<!-- Node74&#45;&gt;Node79 -->
<g id="edge25" class="edge">
<title>Node74&#45;&gt;Node79</title>
<path fill="none" stroke="#191970" d="M656.318,-135.2272C629.3358,-121.2543 594.3418,-103.1324 573.1972,-92.1825"/>
<polygon fill="#191970" stroke="#191970" points="655.0024,-138.4873 665.4919,-139.978 658.2215,-132.2714 655.0024,-138.4873"/>
</g>
<!-- Node80 -->
<g id="node24" class="node">
<title>Node80</title>
<g id="a_node24"><a xlink:href="aktualizr_8cc_source.html" target="_top" xlink:title="src/libaktualizr/primary\l/aktualizr.cc">
<polygon fill="#ffffff" stroke="#000000" points="0,-67.5 0,-97.5 115,-97.5 115,-67.5 0,-67.5"/>
<text text-anchor="start" x="8" y="-85.5" font-family="Helvetica,sans-Serif" font-size="10.00" fill="#000000">src/libaktualizr/primary</text>
<text text-anchor="middle" x="57.5" y="-74.5" font-family="Helvetica,sans-Serif" font-size="10.00" fill="#000000">/aktualizr.cc</text>
</a>
</g>
</g>
<!-- Node74&#45;&gt;Node80 -->
<g id="edge26" class="edge">
<title>Node74&#45;&gt;Node80</title>
<path fill="none" stroke="#191970" d="M626.6125,-150.6077C520.2058,-143.1715 307.8645,-126.1064 129.5,-98 124.8267,-97.2636 120.0003,-96.4163 115.1626,-95.5055"/>
<polygon fill="#191970" stroke="#191970" points="626.6671,-154.1198 636.8849,-151.3186 627.1504,-147.1365 626.6671,-154.1198"/>
</g>
<!-- Node74&#45;&gt;Node81 -->
<g id="edge33" class="edge">
<title>Node74&#45;&gt;Node81</title>
<path fill="none" stroke="#191970" d="M762.2184,-140.622C815.9926,-129.1725 893.0868,-112.6863 960.5,-98 969.2566,-96.0923 978.6247,-94.0317 987.5677,-92.055"/>
<polygon fill="#191970" stroke="#191970" points="761.173,-137.266 752.1207,-142.7711 762.6302,-144.1126 761.173,-137.266"/>
</g>
<!-- Node74&#45;&gt;Node82 -->
<g id="edge34" class="edge">
<title>Node74&#45;&gt;Node82</title>
<path fill="none" stroke="#191970" d="M743.4917,-136.3058C780.5774,-122.1547 829.9949,-103.298 859.4027,-92.0766"/>
<polygon fill="#191970" stroke="#191970" points="741.9633,-133.1428 733.8681,-139.978 744.4589,-139.6829 741.9633,-133.1428"/>
</g>
<!-- Node77&#45;&gt;Node76 -->
<g id="edge23" class="edge">
<title>Node77&#45;&gt;Node76</title>
<path fill="none" stroke="#191970" d="M193.6701,-61.7951C178.2366,-51.7558 160.0295,-39.9124 145.8944,-30.7177"/>
<polygon fill="#191970" stroke="#191970" points="192.0937,-64.945 202.3848,-67.4639 195.9107,-59.0772 192.0937,-64.945"/>
</g>
<!-- Node78 -->
<g id="node22" class="node">
<title>Node78</title>
<g id="a_node22"><a xlink:href="secondary_8cc_source.html" target="_top" xlink:title="src/aktualizr_primary\l/secondary.cc">
<polygon fill="#ffffff" stroke="#000000" points="194,-.5 194,-30.5 301,-30.5 301,-.5 194,-.5"/>
<text text-anchor="start" x="202" y="-18.5" font-family="Helvetica,sans-Serif" font-size="10.00" fill="#000000">src/aktualizr_primary</text>
<text text-anchor="middle" x="247.5" y="-7.5" font-family="Helvetica,sans-Serif" font-size="10.00" fill="#000000">/secondary.cc</text>
</a>
</g>
</g>
<!-- Node77&#45;&gt;Node78 -->
<g id="edge24" class="edge">
<title>Node77&#45;&gt;Node78</title>
<path fill="none" stroke="#191970" d="M233.6727,-57.6103C236.646,-48.5553 239.915,-38.5998 242.5276,-30.6432"/>
<polygon fill="#191970" stroke="#191970" points="230.2866,-56.7038 230.4921,-67.2967 236.9372,-58.8877 230.2866,-56.7038"/>
</g>
<!-- Node86&#45;&gt;Node58 -->
<g id="edge48" class="edge">
<title>Node86&#45;&gt;Node58</title>
<path fill="none" stroke="#191970" d="M998.5547,-285.0792C1094.3222,-271.8221 1267.1608,-247.8961 1356.9085,-235.4724"/>
<polygon fill="#191970" stroke="#191970" points="997.8265,-281.6465 988.401,-286.4848 998.7865,-288.5804 997.8265,-281.6465"/>
</g>
<!-- Node86&#45;&gt;Node62 -->
<g id="edge50" class="edge">
<title>Node86&#45;&gt;Node62</title>
<path fill="none" stroke="#191970" d="M955.3082,-272.3632C991.9688,-238.3529 1060.4731,-169.6316 1099.5,-98 1111.4575,-76.0526 1118.453,-47.6317 1121.8718,-30.5229"/>
<polygon fill="#191970" stroke="#191970" points="952.5647,-270.1304 947.5632,-279.4704 957.2976,-275.288 952.5647,-270.1304"/>
</g>
<!-- Node86&#45;&gt;Node68 -->
<g id="edge51" class="edge">
<title>Node86&#45;&gt;Node68</title>
<path fill="none" stroke="#191970" d="M862.4962,-281.5343C723.368,-253.4801 414.1943,-182.7871 353.5,-98 338.4148,-76.9267 357.3409,-47.9823 372.135,-30.5732"/>
<polygon fill="#191970" stroke="#191970" points="862.1227,-285.0289 872.6152,-283.5599 863.4968,-278.1651 862.1227,-285.0289"/>
</g>
<!-- Node86&#45;&gt;Node74 -->
<g id="edge47" class="edge">
<title>Node86&#45;&gt;Node74</title>
<path fill="none" stroke="#191970" d="M896.0374,-274.1291C848.211,-245.8588 762.8005,-195.3726 720.1737,-170.1758"/>
<polygon fill="#191970" stroke="#191970" points="894.4051,-277.2299 904.7946,-279.3055 897.9671,-271.2039 894.4051,-277.2299"/>
</g>
<!-- Node86&#45;&gt;Node80 -->
<g id="edge49" class="edge">
<title>Node86&#45;&gt;Node80</title>
<path fill="none" stroke="#191970" d="M862.4832,-293.3766C720.4428,-290.3215 396.9236,-279.463 293.5,-243 200.273,-210.1319 109.0254,-131.0196 73.2892,-97.6999"/>
<polygon fill="#191970" stroke="#191970" points="862.7289,-296.8823 872.7997,-293.5915 862.8748,-289.8839 862.7289,-296.8823"/>
</g>
<!-- Node86&#45;&gt;Node81 -->
<g id="edge52" class="edge">
<title>Node86&#45;&gt;Node81</title>
<path fill="none" stroke="#191970" d="M941.9676,-270.1888C963.8847,-223.7244 1010.8727,-124.1098 1025.8276,-92.4056"/>
<polygon fill="#191970" stroke="#191970" points="938.7925,-268.716 937.6918,-279.2535 945.1235,-271.7023 938.7925,-268.716"/>
</g>
<!-- Node86&#45;&gt;Node82 -->
<g id="edge53" class="edge">
<title>Node86&#45;&gt;Node82</title>
<path fill="none" stroke="#191970" d="M925.0337,-269.3077C914.8723,-222.4766 893.4854,-123.9108 886.6493,-92.4056"/>
<polygon fill="#191970" stroke="#191970" points="921.6508,-270.2231 927.1918,-279.2535 928.4917,-268.7387 921.6508,-270.2231"/>
</g>
</g>
</svg>
