<?xml version="1.0" encoding="UTF-8" standalone="no"?>
<!DOCTYPE svg PUBLIC "-//W3C//DTD SVG 1.1//EN"
 "http://www.w3.org/Graphics/SVG/1.1/DTD/svg11.dtd">
<!-- Generated by graphviz version 2.40.1 (20161225.0304)
 -->
<!-- Title: event::UpdateCheckComplete Pages: 1 -->
<svg width="235pt" height="251pt"
 viewBox="0.00 0.00 234.50 251.00" xmlns="http://www.w3.org/2000/svg" xmlns:xlink="http://www.w3.org/1999/xlink">
<g id="graph0" class="graph" transform="scale(1 1) rotate(0) translate(4 247)">
<title>event::UpdateCheckComplete</title>
<polygon fill="#ffffff" stroke="transparent" points="-4,4 -4,-247 230.5,-247 230.5,4 -4,4"/>
<!-- Node2 -->
<g id="node1" class="node">
<title>Node2</title>
<polygon fill="#bfbfbf" stroke="#000000" points="44.5,-.5 44.5,-19.5 193.5,-19.5 193.5,-.5 44.5,-.5"/>
<text text-anchor="middle" x="119" y="-7.5" font-family="Helvetica,sans-Serif" font-size="10.00" fill="#000000">event::UpdateCheckComplete</text>
</g>
<!-- Node3 -->
<g id="node2" class="node">
<title>Node3</title>
<g id="a_node2"><a xlink:href="classevent_1_1_base_event.html" target="_top" xlink:title="Base class for all event objects. ">
<polygon fill="#ffffff" stroke="#000000" points="131.5,-67.5 131.5,-86.5 226.5,-86.5 226.5,-67.5 131.5,-67.5"/>
<text text-anchor="middle" x="179" y="-74.5" font-family="Helvetica,sans-Serif" font-size="10.00" fill="#000000">event::BaseEvent</text>
</a>
</g>
</g>
<!-- Node3&#45;&gt;Node2 -->
<g id="edge1" class="edge">
<title>Node3&#45;&gt;Node2</title>
<path fill="none" stroke="#191970" d="M163.5206,-59.7147C152.0815,-46.941 136.9305,-30.0224 127.5806,-19.5817"/>
<polygon fill="#191970" stroke="#191970" points="161.1249,-62.2859 170.4035,-67.4005 166.3396,-57.6161 161.1249,-62.2859"/>
</g>
<!-- Node4 -->
<g id="node3" class="node">
<title>Node4</title>
<g id="a_node3"><a xlink:title="STL class. ">
<polygon fill="#ffffff" stroke="#bfbfbf" points="139,-140 139,-159 199,-159 199,-140 139,-140"/>
<text text-anchor="middle" x="169" y="-147" font-family="Helvetica,sans-Serif" font-size="10.00" fill="#000000">std::string</text>
</a>
</g>
</g>
<!-- Node4&#45;&gt;Node3 -->
<g id="edge2" class="edge">
<title>Node4&#45;&gt;Node3</title>
<path fill="none" stroke="#9a32cd" stroke-dasharray="5,2" d="M171.7441,-129.6054C173.6726,-115.6237 176.1676,-97.5346 177.6727,-86.6228"/>
<polygon fill="#9a32cd" stroke="#9a32cd" points="168.2479,-129.3379 170.3486,-139.7223 175.1823,-130.2944 168.2479,-129.3379"/>
<text text-anchor="middle" x="190.5" y="-108" font-family="Helvetica,sans-Serif" font-size="10.00" fill="#000000"> variant</text>
</g>
<!-- Node6 -->
<g id="node5" class="node">
<title>Node6</title>
<g id="a_node5"><a xlink:href="classresult_1_1_update_check.html" target="_top" xlink:title="Container for information about available updates. ">
<polygon fill="#ffffff" stroke="#000000" points="6.5,-67.5 6.5,-86.5 113.5,-86.5 113.5,-67.5 6.5,-67.5"/>
<text text-anchor="middle" x="60" y="-74.5" font-family="Helvetica,sans-Serif" font-size="10.00" fill="#000000">result::UpdateCheck</text>
</a>
</g>
</g>
<!-- Node4&#45;&gt;Node6 -->
<g id="edge7" class="edge">
<title>Node4&#45;&gt;Node6</title>
<path fill="none" stroke="#9a32cd" stroke-dasharray="5,2" d="M145.716,-134.0129C124.1205,-119.649 92.6595,-98.7231 74.4673,-86.6228"/>
<polygon fill="#9a32cd" stroke="#9a32cd" points="144.035,-137.0983 154.2998,-139.7223 147.9118,-131.2699 144.035,-137.0983"/>
<text text-anchor="middle" x="139.5" y="-108" font-family="Helvetica,sans-Serif" font-size="10.00" fill="#000000"> message</text>
</g>
<!-- Node5 -->
<g id="node4" class="node">
<title>Node5</title>
<g id="a_node4"><a xlink:title="STL class. ">
<polygon fill="#ffffff" stroke="#bfbfbf" points="121.5,-212.5 121.5,-242.5 216.5,-242.5 216.5,-212.5 121.5,-212.5"/>
<text text-anchor="start" x="129.5" y="-230.5" font-family="Helvetica,sans-Serif" font-size="10.00" fill="#000000">std::basic_string&lt;</text>
<text text-anchor="middle" x="169" y="-219.5" font-family="Helvetica,sans-Serif" font-size="10.00" fill="#000000"> char &gt;</text>
</a>
</g>
</g>
<!-- Node5&#45;&gt;Node4 -->
<g id="edge3" class="edge">
<title>Node5&#45;&gt;Node4</title>
<path fill="none" stroke="#191970" d="M169,-202.3962C169,-187.6331 169,-169.8138 169,-159.0839"/>
<polygon fill="#191970" stroke="#191970" points="165.5001,-202.4608 169,-212.4608 172.5001,-202.4609 165.5001,-202.4608"/>
</g>
<!-- Node6&#45;&gt;Node2 -->
<g id="edge4" class="edge">
<title>Node6&#45;&gt;Node2</title>
<path fill="none" stroke="#9a32cd" stroke-dasharray="5,2" d="M75.2214,-59.7147C86.4698,-46.941 101.3684,-30.0224 110.5624,-19.5817"/>
<polygon fill="#9a32cd" stroke="#9a32cd" points="72.4354,-57.5825 68.4533,-67.4005 77.6888,-62.2087 72.4354,-57.5825"/>
<text text-anchor="middle" x="108" y="-41" font-family="Helvetica,sans-Serif" font-size="10.00" fill="#000000"> result</text>
</g>
<!-- Node7 -->
<g id="node6" class="node">
<title>Node7</title>
<polygon fill="#ffffff" stroke="#bfbfbf" points="0,-134.5 0,-164.5 104,-164.5 104,-134.5 0,-134.5"/>
<text text-anchor="start" x="8" y="-152.5" font-family="Helvetica,sans-Serif" font-size="10.00" fill="#000000">std::vector&lt; Uptane</text>
<text text-anchor="middle" x="52" y="-141.5" font-family="Helvetica,sans-Serif" font-size="10.00" fill="#000000">::Target &gt;</text>
</g>
<!-- Node7&#45;&gt;Node6 -->
<g id="edge5" class="edge">
<title>Node7&#45;&gt;Node6</title>
<path fill="none" stroke="#9a32cd" stroke-dasharray="5,2" d="M51.5948,-124.1769C51.7617,-117.8896 52.1684,-111.182 53,-105 53.8284,-98.8422 55.4966,-92.0804 56.9967,-86.7445"/>
<polygon fill="#9a32cd" stroke="#9a32cd" points="48.0949,-124.1637 51.5074,-134.1939 55.0946,-124.2249 48.0949,-124.1637"/>
<text text-anchor="middle" x="72" y="-108" font-family="Helvetica,sans-Serif" font-size="10.00" fill="#000000"> updates</text>
</g>
<!-- Node8 -->
<g id="node7" class="node">
<title>Node8</title>
<g id="a_node7"><a xlink:href="class_uptane_1_1_target.html" target="_top" xlink:title="Uptane::Target">
<polygon fill="#ffffff" stroke="#000000" points="11,-218 11,-237 93,-237 93,-218 11,-218"/>
<text text-anchor="middle" x="52" y="-225" font-family="Helvetica,sans-Serif" font-size="10.00" fill="#000000">Uptane::Target</text>
</a>
</g>
</g>
<!-- Node8&#45;&gt;Node7 -->
<g id="edge6" class="edge">
<title>Node8&#45;&gt;Node7</title>
<path fill="none" stroke="#9a32cd" stroke-dasharray="5,2" d="M52,-207.8751C52,-194.5215 52,-177.1052 52,-164.7824"/>
<polygon fill="#9a32cd" stroke="#9a32cd" points="48.5001,-207.9356 52,-217.9357 55.5001,-207.9357 48.5001,-207.9356"/>
<text text-anchor="middle" x="73.5" y="-186" font-family="Helvetica,sans-Serif" font-size="10.00" fill="#000000"> elements</text>
</g>
</g>
</svg>
