<?xml version="1.0" encoding="UTF-8" standalone="no"?>
<!DOCTYPE svg PUBLIC "-//W3C//DTD SVG 1.1//EN"
 "http://www.w3.org/Graphics/SVG/1.1/DTD/svg11.dtd">
<!-- Generated by graphviz version 2.40.1 (20161225.0304)
 -->
<!-- Title: test_fixtures.UptaneRepo.Handler Pages: 1 -->
<svg width="306pt" height="162pt"
 viewBox="0.00 0.00 306.00 162.00" xmlns="http://www.w3.org/2000/svg" xmlns:xlink="http://www.w3.org/1999/xlink">
<g id="graph0" class="graph" transform="scale(1 1) rotate(0) translate(4 158)">
<title>test_fixtures.UptaneRepo.Handler</title>
<polygon fill="#ffffff" stroke="transparent" points="-4,4 -4,-158 302,-158 302,4 -4,4"/>
<!-- Node0 -->
<g id="node1" class="node">
<title>Node0</title>
<polygon fill="#bfbfbf" stroke="#000000" points="80.5,-67.5 80.5,-97.5 211.5,-97.5 211.5,-67.5 80.5,-67.5"/>
<text text-anchor="start" x="88.5" y="-85.5" font-family="Helvetica,sans-Serif" font-size="10.00" fill="#000000">test_fixtures.UptaneRepo.</text>
<text text-anchor="middle" x="146" y="-74.5" font-family="Helvetica,sans-Serif" font-size="10.00" fill="#000000">Handler</text>
</g>
<!-- Node2 -->
<g id="node3" class="node">
<title>Node2</title>
<g id="a_node3"><a xlink:href="classtest__fixtures_1_1_director_repo_1_1_handler.html" target="_top" xlink:title="test_fixtures.DirectorRepo.\lHandler">
<polygon fill="#ffffff" stroke="#000000" points="0,-.5 0,-30.5 134,-30.5 134,-.5 0,-.5"/>
<text text-anchor="start" x="8" y="-18.5" font-family="Helvetica,sans-Serif" font-size="10.00" fill="#000000">test_fixtures.DirectorRepo.</text>
<text text-anchor="middle" x="67" y="-7.5" font-family="Helvetica,sans-Serif" font-size="10.00" fill="#000000">Handler</text>
</a>
</g>
</g>
<!-- Node0&#45;&gt;Node2 -->
<g id="edge2" class="edge">
<title>Node0&#45;&gt;Node2</title>
<path fill="none" stroke="#191970" d="M120.3908,-60.7808C108.7854,-50.9383 95.3468,-39.541 84.8554,-30.6432"/>
<polygon fill="#191970" stroke="#191970" points="118.1833,-63.4978 128.0737,-67.2967 122.711,-58.1593 118.1833,-63.4978"/>
</g>
<!-- Node3 -->
<g id="node4" class="node">
<title>Node3</title>
<g id="a_node4"><a xlink:href="classtest__fixtures_1_1_treehub_1_1_handler.html" target="_top" xlink:title="test_fixtures.Treehub.Handler">
<polygon fill="#ffffff" stroke="#000000" points="152,-6 152,-25 298,-25 298,-6 152,-6"/>
<text text-anchor="middle" x="225" y="-13" font-family="Helvetica,sans-Serif" font-size="10.00" fill="#000000">test_fixtures.Treehub.Handler</text>
</a>
</g>
</g>
<!-- Node0&#45;&gt;Node3 -->
<g id="edge3" class="edge">
<title>Node0&#45;&gt;Node3</title>
<path fill="none" stroke="#191970" d="M171.8924,-60.5406C186.0547,-48.5296 202.8756,-34.2637 213.7337,-25.055"/>
<polygon fill="#191970" stroke="#191970" points="169.289,-58.1593 163.9263,-67.2967 173.8167,-63.4979 169.289,-58.1593"/>
</g>
<!-- Node1 -->
<g id="node2" class="node">
<title>Node1</title>
<polygon fill="#ffffff" stroke="#bfbfbf" points="74.5,-134.5 74.5,-153.5 217.5,-153.5 217.5,-134.5 74.5,-134.5"/>
<text text-anchor="middle" x="146" y="-141.5" font-family="Helvetica,sans-Serif" font-size="10.00" fill="#000000">SimpleHTTPRequestHandler</text>
</g>
<!-- Node1&#45;&gt;Node0 -->
<g id="edge1" class="edge">
<title>Node1&#45;&gt;Node0</title>
<path fill="none" stroke="#191970" d="M146,-124.3693C146,-115.681 146,-105.6241 146,-97.5446"/>
<polygon fill="#191970" stroke="#191970" points="142.5001,-124.3906 146,-134.3906 149.5001,-124.3907 142.5001,-124.3906"/>
</g>
</g>
</svg>
