<?xml version="1.0" encoding="UTF-8" standalone="no"?>
<!DOCTYPE svg PUBLIC "-//W3C//DTD SVG 1.1//EN"
 "http://www.w3.org/Graphics/SVG/1.1/DTD/svg11.dtd">
<!-- Generated by graphviz version 2.40.1 (20161225.0304)
 -->
<!-- Title: src/libaktualizr/primary/events.h Pages: 1 -->
<svg width="2225pt" height="318pt"
 viewBox="0.00 0.00 2224.50 318.00" xmlns="http://www.w3.org/2000/svg" xmlns:xlink="http://www.w3.org/1999/xlink">
<g id="graph0" class="graph" transform="scale(1 1) rotate(0) translate(4 314)">
<title>src/libaktualizr/primary/events.h</title>
<polygon fill="#ffffff" stroke="transparent" points="-4,4 -4,-314 2220.5,-314 2220.5,4 -4,4"/>
<!-- Node59 -->
<g id="node1" class="node">
<title>Node59</title>
<polygon fill="#bfbfbf" stroke="#000000" points="671.5,-279.5 671.5,-309.5 786.5,-309.5 786.5,-279.5 671.5,-279.5"/>
<text text-anchor="start" x="679.5" y="-297.5" font-family="Helvetica,sans-Serif" font-size="10.00" fill="#000000">src/libaktualizr/primary</text>
<text text-anchor="middle" x="729" y="-286.5" font-family="Helvetica,sans-Serif" font-size="10.00" fill="#000000">/events.h</text>
</g>
<!-- Node60 -->
<g id="node2" class="node">
<title>Node60</title>
<g id="a_node2"><a xlink:href="aktualizr_8h_source.html" target="_top" xlink:title="src/libaktualizr/primary\l/aktualizr.h">
<polygon fill="#ffffff" stroke="#000000" points="671.5,-140 671.5,-170 786.5,-170 786.5,-140 671.5,-140"/>
<text text-anchor="start" x="679.5" y="-158" font-family="Helvetica,sans-Serif" font-size="10.00" fill="#000000">src/libaktualizr/primary</text>
<text text-anchor="middle" x="729" y="-147" font-family="Helvetica,sans-Serif" font-size="10.00" fill="#000000">/aktualizr.h</text>
</a>
</g>
</g>
<!-- Node59&#45;&gt;Node60 -->
<g id="edge1" class="edge">
<title>Node59&#45;&gt;Node60</title>
<path fill="none" stroke="#191970" d="M729,-269.1668C729,-240.2706 729,-193.9582 729,-170.1758"/>
<polygon fill="#191970" stroke="#191970" points="725.5001,-269.3055 729,-279.3055 732.5001,-269.3055 725.5001,-269.3055"/>
</g>
<!-- Node65 -->
<g id="node7" class="node">
<title>Node65</title>
<g id="a_node7"><a xlink:href="aktualizr__test_8cc_source.html" target="_top" xlink:title="src/libaktualizr/primary\l/aktualizr_test.cc">
<polygon fill="#ffffff" stroke="#000000" points="152.5,-.5 152.5,-30.5 267.5,-30.5 267.5,-.5 152.5,-.5"/>
<text text-anchor="start" x="160.5" y="-18.5" font-family="Helvetica,sans-Serif" font-size="10.00" fill="#000000">src/libaktualizr/primary</text>
<text text-anchor="middle" x="210" y="-7.5" font-family="Helvetica,sans-Serif" font-size="10.00" fill="#000000">/aktualizr_test.cc</text>
</a>
</g>
</g>
<!-- Node59&#45;&gt;Node65 -->
<g id="edge57" class="edge">
<title>Node59&#45;&gt;Node65</title>
<path fill="none" stroke="#191970" d="M661.1169,-285.0892C505.9469,-262.0105 133.2611,-197.1581 63,-98 55.0344,-86.7583 55.0293,-78.2381 63,-67 68.847,-58.7562 117.9974,-42.5774 157.8802,-30.543"/>
<polygon fill="#191970" stroke="#191970" points="661.0587,-288.6183 671.4621,-286.6137 662.0793,-281.6931 661.0587,-288.6183"/>
</g>
<!-- Node72 -->
<g id="node14" class="node">
<title>Node72</title>
<g id="a_node14"><a xlink:href="uptane__delegation__test_8cc_source.html" target="_top" xlink:title="src/libaktualizr/uptane\l/uptane_delegation_test.cc">
<polygon fill="#ffffff" stroke="#000000" points="0,-.5 0,-30.5 134,-30.5 134,-.5 0,-.5"/>
<text text-anchor="start" x="8" y="-18.5" font-family="Helvetica,sans-Serif" font-size="10.00" fill="#000000">src/libaktualizr/uptane</text>
<text text-anchor="middle" x="67" y="-7.5" font-family="Helvetica,sans-Serif" font-size="10.00" fill="#000000">/uptane_delegation_test.cc</text>
</a>
</g>
</g>
<!-- Node59&#45;&gt;Node72 -->
<g id="edge58" class="edge">
<title>Node59&#45;&gt;Node72</title>
<path fill="none" stroke="#191970" d="M661.4396,-289.7906C517.1562,-278.4888 185.0511,-245.4594 99,-176 67.6831,-150.7214 63.5961,-136.8262 53,-98 46.689,-74.875 54.3291,-47.2874 60.5583,-30.5963"/>
<polygon fill="#191970" stroke="#191970" points="661.2577,-293.2868 671.4974,-290.5669 661.7965,-286.3076 661.2577,-293.2868"/>
</g>
<!-- Node79 -->
<g id="node21" class="node">
<title>Node79</title>
<g id="a_node21"><a xlink:href="aktualizr_8cc_source.html" target="_top" xlink:title="src/libaktualizr/primary\l/aktualizr.cc">
<polygon fill="#ffffff" stroke="#000000" points="83.5,-67.5 83.5,-97.5 198.5,-97.5 198.5,-67.5 83.5,-67.5"/>
<text text-anchor="start" x="91.5" y="-85.5" font-family="Helvetica,sans-Serif" font-size="10.00" fill="#000000">src/libaktualizr/primary</text>
<text text-anchor="middle" x="141" y="-74.5" font-family="Helvetica,sans-Serif" font-size="10.00" fill="#000000">/aktualizr.cc</text>
</a>
</g>
</g>
<!-- Node59&#45;&gt;Node79 -->
<g id="edge56" class="edge">
<title>Node59&#45;&gt;Node79</title>
<path fill="none" stroke="#191970" d="M677.5756,-275.9592C562.9302,-234.6245 288.2255,-135.5813 182.9963,-97.6415"/>
<polygon fill="#191970" stroke="#191970" points="676.5895,-279.3242 687.1839,-279.4234 678.9637,-272.7391 676.5895,-279.3242"/>
</g>
<!-- Node82 -->
<g id="node24" class="node">
<title>Node82</title>
<g id="a_node24"><a xlink:href="load__tests_2check_8cc_source.html" target="_top" xlink:title="src/load_tests/check.cc">
<polygon fill="#ffffff" stroke="#000000" points="906.5,-73 906.5,-92 1027.5,-92 1027.5,-73 906.5,-73"/>
<text text-anchor="middle" x="967" y="-80" font-family="Helvetica,sans-Serif" font-size="10.00" fill="#000000">src/load_tests/check.cc</text>
</a>
</g>
</g>
<!-- Node59&#45;&gt;Node82 -->
<g id="edge59" class="edge">
<title>Node59&#45;&gt;Node82</title>
<path fill="none" stroke="#191970" d="M747.0728,-271.2452C773.5826,-238.1146 825.6726,-176.6273 879,-134 900.5703,-116.7578 928.5295,-101.4056 947.0813,-92.0427"/>
<polygon fill="#191970" stroke="#191970" points="744.0664,-269.4036 740.5962,-279.414 749.5515,-273.7525 744.0664,-269.4036"/>
</g>
<!-- Node83 -->
<g id="node25" class="node">
<title>Node83</title>
<g id="a_node25"><a xlink:href="provision_8cc_source.html" target="_top" xlink:title="src/load_tests/provision.cc">
<polygon fill="#ffffff" stroke="#000000" points="1046,-73 1046,-92 1180,-92 1180,-73 1046,-73"/>
<text text-anchor="middle" x="1113" y="-80" font-family="Helvetica,sans-Serif" font-size="10.00" fill="#000000">src/load_tests/provision.cc</text>
</a>
</g>
</g>
<!-- Node59&#45;&gt;Node83 -->
<g id="edge60" class="edge">
<title>Node59&#45;&gt;Node83</title>
<path fill="none" stroke="#191970" d="M762.8952,-274.0316C815.0015,-242.788 918.1839,-181.7936 1008,-134 1036.8577,-118.644 1070.9478,-102.2335 1092.275,-92.1686"/>
<polygon fill="#191970" stroke="#191970" points="760.8467,-271.1792 754.076,-279.3283 764.4507,-277.1801 760.8467,-271.1792"/>
</g>
<!-- Node84 -->
<g id="node26" class="node">
<title>Node84</title>
<g id="a_node26"><a xlink:href="sotauptaneclient_8h_source.html" target="_top" xlink:title="src/libaktualizr/primary\l/sotauptaneclient.h">
<polygon fill="#ffffff" stroke="#000000" points="1295.5,-212.5 1295.5,-242.5 1410.5,-242.5 1410.5,-212.5 1295.5,-212.5"/>
<text text-anchor="start" x="1303.5" y="-230.5" font-family="Helvetica,sans-Serif" font-size="10.00" fill="#000000">src/libaktualizr/primary</text>
<text text-anchor="middle" x="1353" y="-219.5" font-family="Helvetica,sans-Serif" font-size="10.00" fill="#000000">/sotauptaneclient.h</text>
</a>
</g>
</g>
<!-- Node59&#45;&gt;Node84 -->
<g id="edge35" class="edge">
<title>Node59&#45;&gt;Node84</title>
<path fill="none" stroke="#191970" d="M796.6599,-287.2352C920.0055,-273.9914 1179.363,-246.1437 1295.1004,-233.7168"/>
<polygon fill="#191970" stroke="#191970" points="796.1551,-283.7692 786.5859,-288.3169 796.9025,-290.7292 796.1551,-283.7692"/>
</g>
<!-- Node61 -->
<g id="node3" class="node">
<title>Node61</title>
<g id="a_node3"><a xlink:href="aktualizr__cycle__simple_8cc_source.html" target="_top" xlink:title="tests/aktualizr_cycle\l_simple.cc">
<polygon fill="#ffffff" stroke="#000000" points="426.5,-67.5 426.5,-97.5 533.5,-97.5 533.5,-67.5 426.5,-67.5"/>
<text text-anchor="start" x="434.5" y="-85.5" font-family="Helvetica,sans-Serif" font-size="10.00" fill="#000000">tests/aktualizr_cycle</text>
<text text-anchor="middle" x="480" y="-74.5" font-family="Helvetica,sans-Serif" font-size="10.00" fill="#000000">_simple.cc</text>
</a>
</g>
</g>
<!-- Node60&#45;&gt;Node61 -->
<g id="edge2" class="edge">
<title>Node60&#45;&gt;Node61</title>
<path fill="none" stroke="#191970" d="M667.614,-137.1266C625.8001,-124.9518 571.0728,-109.0172 531.5269,-97.5028"/>
<polygon fill="#191970" stroke="#191970" points="666.8273,-140.5428 677.407,-139.978 668.7842,-133.8219 666.8273,-140.5428"/>
</g>
<!-- Node62 -->
<g id="node4" class="node">
<title>Node62</title>
<g id="a_node4"><a xlink:href="uptane__test__common_8h_source.html" target="_top" xlink:title="tests/uptane_test_common.h">
<polygon fill="#ffffff" stroke="#000000" points="1198.5,-73 1198.5,-92 1341.5,-92 1341.5,-73 1198.5,-73"/>
<text text-anchor="middle" x="1270" y="-80" font-family="Helvetica,sans-Serif" font-size="10.00" fill="#000000">tests/uptane_test_common.h</text>
</a>
</g>
</g>
<!-- Node60&#45;&gt;Node62 -->
<g id="edge3" class="edge">
<title>Node60&#45;&gt;Node62</title>
<path fill="none" stroke="#191970" d="M796.5955,-148.0319C886.4509,-138.4476 1050.0753,-119.8752 1189,-98 1200.0318,-96.2629 1211.8608,-94.1454 1222.9769,-92.0406"/>
<polygon fill="#191970" stroke="#191970" points="796.1154,-144.5632 786.5409,-149.0997 796.8546,-151.524 796.1154,-144.5632"/>
</g>
<!-- Node64 -->
<g id="node6" class="node">
<title>Node64</title>
<g id="a_node6"><a xlink:href="aktualizr__fullostree__test_8cc_source.html" target="_top" xlink:title="src/libaktualizr/primary\l/aktualizr_fullostree_test.cc">
<polygon fill="#ffffff" stroke="#000000" points="815.5,-.5 815.5,-30.5 952.5,-30.5 952.5,-.5 815.5,-.5"/>
<text text-anchor="start" x="823.5" y="-18.5" font-family="Helvetica,sans-Serif" font-size="10.00" fill="#000000">src/libaktualizr/primary</text>
<text text-anchor="middle" x="884" y="-7.5" font-family="Helvetica,sans-Serif" font-size="10.00" fill="#000000">/aktualizr_fullostree_test.cc</text>
</a>
</g>
</g>
<!-- Node60&#45;&gt;Node64 -->
<g id="edge22" class="edge">
<title>Node60&#45;&gt;Node64</title>
<path fill="none" stroke="#191970" d="M740.8729,-130.988C751.2619,-111.8354 767.8293,-85.2806 788,-67 804.9573,-51.6317 827.3315,-39.2859 846.2135,-30.5388"/>
<polygon fill="#191970" stroke="#191970" points="737.6984,-129.5051 736.1487,-139.986 743.8961,-132.7591 737.6984,-129.5051"/>
</g>
<!-- Node60&#45;&gt;Node65 -->
<g id="edge27" class="edge">
<title>Node60&#45;&gt;Node65</title>
<path fill="none" stroke="#191970" d="M661.099,-151.9917C553.3692,-146.2757 348.9303,-131.3097 285,-98 255.1303,-82.437 231.2166,-49.917 218.9615,-30.6806"/>
<polygon fill="#191970" stroke="#191970" points="661.0467,-155.4936 671.2146,-152.5163 661.4093,-148.503 661.0467,-155.4936"/>
</g>
<!-- Node66 -->
<g id="node8" class="node">
<title>Node66</title>
<g id="a_node8"><a xlink:href="custom__url__test_8cc_source.html" target="_top" xlink:title="src/libaktualizr/primary\l/custom_url_test.cc">
<polygon fill="#ffffff" stroke="#000000" points="970.5,-.5 970.5,-30.5 1085.5,-30.5 1085.5,-.5 970.5,-.5"/>
<text text-anchor="start" x="978.5" y="-18.5" font-family="Helvetica,sans-Serif" font-size="10.00" fill="#000000">src/libaktualizr/primary</text>
<text text-anchor="middle" x="1028" y="-7.5" font-family="Helvetica,sans-Serif" font-size="10.00" fill="#000000">/custom_url_test.cc</text>
</a>
</g>
</g>
<!-- Node60&#45;&gt;Node66 -->
<g id="edge28" class="edge">
<title>Node60&#45;&gt;Node66</title>
<path fill="none" stroke="#191970" d="M752.2639,-132.8026C778.1801,-108.2516 817.5602,-71.5366 826,-67 832.515,-63.498 913.1043,-43.4623 970.492,-29.4406"/>
<polygon fill="#191970" stroke="#191970" points="749.5442,-130.5585 744.7024,-139.9823 754.3642,-135.6348 749.5442,-130.5585"/>
</g>
<!-- Node67 -->
<g id="node9" class="node">
<title>Node67</title>
<g id="a_node9"><a xlink:href="download__nonostree__test_8cc_source.html" target="_top" xlink:title="src/libaktualizr/primary\l/download_nonostree_test.cc">
<polygon fill="#ffffff" stroke="#000000" points="1104,-.5 1104,-30.5 1248,-30.5 1248,-.5 1104,-.5"/>
<text text-anchor="start" x="1112" y="-18.5" font-family="Helvetica,sans-Serif" font-size="10.00" fill="#000000">src/libaktualizr/primary</text>
<text text-anchor="middle" x="1176" y="-7.5" font-family="Helvetica,sans-Serif" font-size="10.00" fill="#000000">/download_nonostree_test.cc</text>
</a>
</g>
</g>
<!-- Node60&#45;&gt;Node67 -->
<g id="edge29" class="edge">
<title>Node60&#45;&gt;Node67</title>
<path fill="none" stroke="#191970" d="M763.8656,-134.6003C781.5155,-124.0303 803.1422,-110.7042 822,-98 841.2416,-85.0372 842.5878,-75.9325 864,-67 959.896,-26.9951 992.6243,-48.7671 1095,-31 1097.8214,-30.5104 1100.6963,-30.0026 1103.5991,-29.4826"/>
<polygon fill="#191970" stroke="#191970" points="761.8358,-131.7353 755.034,-139.8585 765.4169,-137.75 761.8358,-131.7353"/>
</g>
<!-- Node68 -->
<g id="node10" class="node">
<title>Node68</title>
<g id="a_node10"><a xlink:href="empty__targets__test_8cc_source.html" target="_top" xlink:title="src/libaktualizr/primary\l/empty_targets_test.cc">
<polygon fill="#ffffff" stroke="#000000" points="1266.5,-.5 1266.5,-30.5 1383.5,-30.5 1383.5,-.5 1266.5,-.5"/>
<text text-anchor="start" x="1274.5" y="-18.5" font-family="Helvetica,sans-Serif" font-size="10.00" fill="#000000">src/libaktualizr/primary</text>
<text text-anchor="middle" x="1325" y="-7.5" font-family="Helvetica,sans-Serif" font-size="10.00" fill="#000000">/empty_targets_test.cc</text>
</a>
</g>
</g>
<!-- Node60&#45;&gt;Node68 -->
<g id="edge30" class="edge">
<title>Node60&#45;&gt;Node68</title>
<path fill="none" stroke="#191970" d="M778.4803,-136.0739C802.7883,-126.0056 832.1249,-112.6809 857,-98 876.6738,-86.3888 876.7318,-75.339 898,-67 1047.2904,-8.4648 1098.7445,-56.8686 1257,-31 1260.1069,-30.4921 1263.2842,-29.9275 1266.4854,-29.323"/>
<polygon fill="#191970" stroke="#191970" points="777.0244,-132.8877 769.0881,-139.9068 779.6693,-139.3688 777.0244,-132.8877"/>
</g>
<!-- Node69 -->
<g id="node11" class="node">
<title>Node69</title>
<g id="a_node11"><a xlink:href="target__mismatch__test_8cc_source.html" target="_top" xlink:title="src/libaktualizr/primary\l/target_mismatch_test.cc">
<polygon fill="#ffffff" stroke="#000000" points="669,-.5 669,-30.5 797,-30.5 797,-.5 669,-.5"/>
<text text-anchor="start" x="677" y="-18.5" font-family="Helvetica,sans-Serif" font-size="10.00" fill="#000000">src/libaktualizr/primary</text>
<text text-anchor="middle" x="733" y="-7.5" font-family="Helvetica,sans-Serif" font-size="10.00" fill="#000000">/target_mismatch_test.cc</text>
</a>
</g>
</g>
<!-- Node60&#45;&gt;Node69 -->
<g id="edge31" class="edge">
<title>Node60&#45;&gt;Node69</title>
<path fill="none" stroke="#191970" d="M729.7264,-129.6668C730.555,-100.7706 731.8829,-54.4582 732.5649,-30.6758"/>
<polygon fill="#191970" stroke="#191970" points="726.2238,-129.7093 729.4357,-139.8055 733.221,-129.91 726.2238,-129.7093"/>
</g>
<!-- Node60&#45;&gt;Node72 -->
<g id="edge32" class="edge">
<title>Node60&#45;&gt;Node72</title>
<path fill="none" stroke="#191970" d="M661.2511,-152.0513C545.7725,-146.2019 316.2003,-130.7602 243,-98 224.033,-89.5115 225.8494,-77.6396 208,-67 181.5849,-51.2546 149.5639,-39.0826 122.7171,-30.5351"/>
<polygon fill="#191970" stroke="#191970" points="661.2263,-155.5543 671.3877,-152.5549 661.5737,-148.5629 661.2263,-155.5543"/>
</g>
<!-- Node76 -->
<g id="node18" class="node">
<title>Node76</title>
<g id="a_node18"><a xlink:href="aktualizr__primary_2main_8cc_source.html" target="_top" xlink:title="src/aktualizr_primary\l/main.cc">
<polygon fill="#ffffff" stroke="#000000" points="418.5,-.5 418.5,-30.5 525.5,-30.5 525.5,-.5 418.5,-.5"/>
<text text-anchor="start" x="426.5" y="-18.5" font-family="Helvetica,sans-Serif" font-size="10.00" fill="#000000">src/aktualizr_primary</text>
<text text-anchor="middle" x="472" y="-7.5" font-family="Helvetica,sans-Serif" font-size="10.00" fill="#000000">/main.cc</text>
</a>
</g>
</g>
<!-- Node60&#45;&gt;Node76 -->
<g id="edge17" class="edge">
<title>Node60&#45;&gt;Node76</title>
<path fill="none" stroke="#191970" d="M669.7933,-136.6382C642.2181,-126.9461 609.5053,-113.7761 582,-98 562.793,-86.9835 560.6327,-80.3925 543,-67 526.5081,-54.4739 507.5007,-40.7221 493.3051,-30.5821"/>
<polygon fill="#191970" stroke="#191970" points="668.7211,-139.9706 679.3158,-139.9199 671.0019,-133.3526 668.7211,-139.9706"/>
</g>
<!-- Node77 -->
<g id="node19" class="node">
<title>Node77</title>
<g id="a_node19"><a xlink:href="secondary_8h_source.html" target="_top" xlink:title="src/aktualizr_primary\l/secondary.h">
<polygon fill="#ffffff" stroke="#000000" points="590.5,-67.5 590.5,-97.5 697.5,-97.5 697.5,-67.5 590.5,-67.5"/>
<text text-anchor="start" x="598.5" y="-85.5" font-family="Helvetica,sans-Serif" font-size="10.00" fill="#000000">src/aktualizr_primary</text>
<text text-anchor="middle" x="644" y="-74.5" font-family="Helvetica,sans-Serif" font-size="10.00" fill="#000000">/secondary.h</text>
</a>
</g>
</g>
<!-- Node60&#45;&gt;Node77 -->
<g id="edge18" class="edge">
<title>Node60&#45;&gt;Node77</title>
<path fill="none" stroke="#191970" d="M703.7735,-133.4833C690.1939,-121.9007 673.779,-107.8998 661.5895,-97.5028"/>
<polygon fill="#191970" stroke="#191970" points="701.5083,-136.1514 711.3879,-139.978 706.0509,-130.8255 701.5083,-136.1514"/>
</g>
<!-- Node60&#45;&gt;Node79 -->
<g id="edge21" class="edge">
<title>Node60&#45;&gt;Node79</title>
<path fill="none" stroke="#191970" d="M661.3201,-149.7405C562.4263,-141.5542 372.814,-123.9597 213,-98 208.3302,-97.2415 203.5063,-96.3784 198.6703,-95.4569"/>
<polygon fill="#191970" stroke="#191970" points="661.2203,-153.244 671.4732,-150.5743 661.7932,-146.2675 661.2203,-153.244"/>
</g>
<!-- Node80 -->
<g id="node22" class="node">
<title>Node80</title>
<g id="a_node22"><a xlink:href="aktualizr__helpers_8h_source.html" target="_top" xlink:title="src/libaktualizr/primary\l/aktualizr_helpers.h">
<polygon fill="#ffffff" stroke="#000000" points="293.5,-67.5 293.5,-97.5 408.5,-97.5 408.5,-67.5 293.5,-67.5"/>
<text text-anchor="start" x="301.5" y="-85.5" font-family="Helvetica,sans-Serif" font-size="10.00" fill="#000000">src/libaktualizr/primary</text>
<text text-anchor="middle" x="351" y="-74.5" font-family="Helvetica,sans-Serif" font-size="10.00" fill="#000000">/aktualizr_helpers.h</text>
</a>
</g>
</g>
<!-- Node60&#45;&gt;Node80 -->
<g id="edge23" class="edge">
<title>Node60&#45;&gt;Node80</title>
<path fill="none" stroke="#191970" d="M661.0161,-143.469C597.8927,-132.5424 501.3754,-115.2751 418,-98 414.9604,-97.3702 411.8471,-96.7084 408.7064,-96.0277"/>
<polygon fill="#191970" stroke="#191970" points="660.7902,-146.9817 671.2399,-145.2338 661.981,-140.0837 660.7902,-146.9817"/>
</g>
<!-- Node60&#45;&gt;Node82 -->
<g id="edge33" class="edge">
<title>Node60&#45;&gt;Node82</title>
<path fill="none" stroke="#191970" d="M788.0101,-137.0242C834.7087,-122.7988 898.0982,-103.489 935.5624,-92.0766"/>
<polygon fill="#191970" stroke="#191970" points="786.8598,-133.7158 778.3138,-139.978 788.8997,-140.412 786.8598,-133.7158"/>
</g>
<!-- Node60&#45;&gt;Node83 -->
<g id="edge34" class="edge">
<title>Node60&#45;&gt;Node83</title>
<path fill="none" stroke="#191970" d="M796.7942,-142.8195C859.2453,-131.5122 954.4526,-114.0546 1037,-98 1046.6494,-96.1233 1056.9755,-94.0565 1066.8078,-92.0607"/>
<polygon fill="#191970" stroke="#191970" points="795.894,-139.4255 786.6766,-144.6495 797.1399,-146.3137 795.894,-139.4255"/>
</g>
<!-- Node63 -->
<g id="node5" class="node">
<title>Node63</title>
<g id="a_node5"><a xlink:href="aktualizr__secondary_2uptane__test_8cc_source.html" target="_top" xlink:title="src/aktualizr_secondary\l/uptane_test.cc">
<polygon fill="#ffffff" stroke="#000000" points="1955,-.5 1955,-30.5 2075,-30.5 2075,-.5 1955,-.5"/>
<text text-anchor="start" x="1963" y="-18.5" font-family="Helvetica,sans-Serif" font-size="10.00" fill="#000000">src/aktualizr_secondary</text>
<text text-anchor="middle" x="2015" y="-7.5" font-family="Helvetica,sans-Serif" font-size="10.00" fill="#000000">/uptane_test.cc</text>
</a>
</g>
</g>
<!-- Node62&#45;&gt;Node63 -->
<g id="edge4" class="edge">
<title>Node62&#45;&gt;Node63</title>
<path fill="none" stroke="#191970" d="M1351.9276,-78.8801C1477.1281,-72.7254 1723.4095,-58.1637 1931,-31 1938.6462,-29.9995 1946.6519,-28.7659 1954.5557,-27.4352"/>
<polygon fill="#191970" stroke="#191970" points="1351.4773,-75.3978 1341.6591,-79.3794 1351.8173,-82.3895 1351.4773,-75.3978"/>
</g>
<!-- Node62&#45;&gt;Node64 -->
<g id="edge5" class="edge">
<title>Node62&#45;&gt;Node64</title>
<path fill="none" stroke="#191970" d="M1211.7047,-71.1149C1204.0743,-69.6921 1196.3548,-68.2866 1189,-67 1088.3782,-49.3984 1062.5588,-48.9582 962,-31 959.0099,-30.466 955.9577,-29.9093 952.8761,-29.3378"/>
<polygon fill="#191970" stroke="#191970" points="1211.1714,-74.5759 1221.6463,-72.9865 1212.4665,-67.6967 1211.1714,-74.5759"/>
</g>
<!-- Node62&#45;&gt;Node65 -->
<g id="edge6" class="edge">
<title>Node62&#45;&gt;Node65</title>
<path fill="none" stroke="#191970" d="M1216.3572,-71.068C1207.2627,-69.4655 1197.888,-68.02 1189,-67 785.9962,-20.7502 679.0451,-84.9526 277,-31 273.9234,-30.5871 270.7806,-30.0982 267.6169,-29.553"/>
<polygon fill="#191970" stroke="#191970" points="1215.9966,-74.5604 1226.4651,-72.9297 1217.2645,-67.6762 1215.9966,-74.5604"/>
</g>
<!-- Node62&#45;&gt;Node66 -->
<g id="edge7" class="edge">
<title>Node62&#45;&gt;Node66</title>
<path fill="none" stroke="#191970" d="M1225.7637,-70.2528C1185.4053,-59.0792 1125.6389,-42.5323 1082.379,-30.5553"/>
<polygon fill="#191970" stroke="#191970" points="1225.0129,-73.6765 1235.5843,-72.9717 1226.8807,-66.9303 1225.0129,-73.6765"/>
</g>
<!-- Node62&#45;&gt;Node67 -->
<g id="edge8" class="edge">
<title>Node62&#45;&gt;Node67</title>
<path fill="none" stroke="#191970" d="M1248.1413,-66.9198C1232.7577,-55.955 1212.2819,-41.3605 1197.0753,-30.5218"/>
<polygon fill="#191970" stroke="#191970" points="1246.3574,-69.9464 1256.5321,-72.9005 1250.4204,-64.2462 1246.3574,-69.9464"/>
</g>
<!-- Node62&#45;&gt;Node68 -->
<g id="edge9" class="edge">
<title>Node62&#45;&gt;Node68</title>
<path fill="none" stroke="#191970" d="M1284.3309,-65.0423C1293.1246,-54.33 1304.2701,-40.7528 1312.6687,-30.5218"/>
<polygon fill="#191970" stroke="#191970" points="1281.5199,-62.9505 1277.8802,-72.9005 1286.9304,-67.392 1281.5199,-62.9505"/>
</g>
<!-- Node62&#45;&gt;Node69 -->
<g id="edge10" class="edge">
<title>Node62&#45;&gt;Node69</title>
<path fill="none" stroke="#191970" d="M1214.4391,-71.1456C1205.9403,-69.6183 1197.2522,-68.1757 1189,-67 1020.1747,-42.9474 975.6096,-56.5206 807,-31 803.7554,-30.5089 800.4389,-29.9659 797.0953,-29.3858"/>
<polygon fill="#191970" stroke="#191970" points="1213.822,-74.5907 1224.2916,-72.9664 1215.0942,-67.7073 1213.822,-74.5907"/>
</g>
<!-- Node70 -->
<g id="node12" class="node">
<title>Node70</title>
<g id="a_node12"><a xlink:href="uptane__key__test_8cc_source.html" target="_top" xlink:title="src/libaktualizr/primary\l/uptane_key_test.cc">
<polygon fill="#ffffff" stroke="#000000" points="2101.5,-.5 2101.5,-30.5 2216.5,-30.5 2216.5,-.5 2101.5,-.5"/>
<text text-anchor="start" x="2109.5" y="-18.5" font-family="Helvetica,sans-Serif" font-size="10.00" fill="#000000">src/libaktualizr/primary</text>
<text text-anchor="middle" x="2159" y="-7.5" font-family="Helvetica,sans-Serif" font-size="10.00" fill="#000000">/uptane_key_test.cc</text>
</a>
</g>
</g>
<!-- Node62&#45;&gt;Node70 -->
<g id="edge11" class="edge">
<title>Node62&#45;&gt;Node70</title>
<path fill="none" stroke="#191970" d="M1351.9484,-81.1202C1499.14,-77.7968 1817.7747,-66.7512 2084,-31 2089.6664,-30.2391 2095.5453,-29.2964 2101.4054,-28.2546"/>
<polygon fill="#191970" stroke="#191970" points="1351.5706,-77.6276 1341.6499,-81.3464 1351.7244,-84.6259 1351.5706,-77.6276"/>
</g>
<!-- Node71 -->
<g id="node13" class="node">
<title>Node71</title>
<g id="a_node13"><a xlink:href="uptane__ci__test_8cc_source.html" target="_top" xlink:title="src/libaktualizr/uptane\l/uptane_ci_test.cc">
<polygon fill="#ffffff" stroke="#000000" points="1402,-.5 1402,-30.5 1514,-30.5 1514,-.5 1402,-.5"/>
<text text-anchor="start" x="1410" y="-18.5" font-family="Helvetica,sans-Serif" font-size="10.00" fill="#000000">src/libaktualizr/uptane</text>
<text text-anchor="middle" x="1458" y="-7.5" font-family="Helvetica,sans-Serif" font-size="10.00" fill="#000000">/uptane_ci_test.cc</text>
</a>
</g>
</g>
<!-- Node62&#45;&gt;Node71 -->
<g id="edge12" class="edge">
<title>Node62&#45;&gt;Node71</title>
<path fill="none" stroke="#191970" d="M1306.5883,-69.4605C1337.9117,-58.2974 1383.0201,-42.2216 1415.8494,-30.5218"/>
<polygon fill="#191970" stroke="#191970" points="1305.1805,-66.2466 1296.9358,-72.9005 1307.5305,-72.8403 1305.1805,-66.2466"/>
</g>
<!-- Node62&#45;&gt;Node72 -->
<g id="edge13" class="edge">
<title>Node62&#45;&gt;Node72</title>
<path fill="none" stroke="#191970" d="M1216.9752,-71.1379C1207.6888,-69.4966 1198.0906,-68.0202 1189,-67 727.179,-15.1736 605.5677,-85.036 144,-31 140.7495,-30.6195 137.4317,-30.174 134.0878,-29.6793"/>
<polygon fill="#191970" stroke="#191970" points="1216.4211,-74.5947 1226.8906,-72.9699 1217.693,-67.7112 1216.4211,-74.5947"/>
</g>
<!-- Node73 -->
<g id="node15" class="node">
<title>Node73</title>
<g id="a_node15"><a xlink:href="uptane__network__test_8cc.html" target="_top" xlink:title="Check that aktualizr can complete provisioning after encountering various network issues...">
<polygon fill="#ffffff" stroke="#000000" points="1532,-.5 1532,-30.5 1656,-30.5 1656,-.5 1532,-.5"/>
<text text-anchor="start" x="1540" y="-18.5" font-family="Helvetica,sans-Serif" font-size="10.00" fill="#000000">src/libaktualizr/uptane</text>
<text text-anchor="middle" x="1594" y="-7.5" font-family="Helvetica,sans-Serif" font-size="10.00" fill="#000000">/uptane_network_test.cc</text>
</a>
</g>
</g>
<!-- Node62&#45;&gt;Node73 -->
<g id="edge14" class="edge">
<title>Node62&#45;&gt;Node73</title>
<path fill="none" stroke="#191970" d="M1327.9835,-70.9391C1379.2944,-60.6509 1456.183,-45.0932 1523,-31 1525.8394,-30.4011 1528.7416,-29.7847 1531.6726,-29.1588"/>
<polygon fill="#191970" stroke="#191970" points="1327.1906,-67.5283 1318.0729,-72.9245 1328.5656,-74.3919 1327.1906,-67.5283"/>
</g>
<!-- Node74 -->
<g id="node16" class="node">
<title>Node74</title>
<g id="a_node16"><a xlink:href="uptane__serial__test_8cc_source.html" target="_top" xlink:title="src/libaktualizr/uptane\l/uptane_serial_test.cc">
<polygon fill="#ffffff" stroke="#000000" points="1674.5,-.5 1674.5,-30.5 1787.5,-30.5 1787.5,-.5 1674.5,-.5"/>
<text text-anchor="start" x="1682.5" y="-18.5" font-family="Helvetica,sans-Serif" font-size="10.00" fill="#000000">src/libaktualizr/uptane</text>
<text text-anchor="middle" x="1731" y="-7.5" font-family="Helvetica,sans-Serif" font-size="10.00" fill="#000000">/uptane_serial_test.cc</text>
</a>
</g>
</g>
<!-- Node62&#45;&gt;Node74 -->
<g id="edge15" class="edge">
<title>Node62&#45;&gt;Node74</title>
<path fill="none" stroke="#191970" d="M1351.7238,-74.2828C1431.8637,-65.6519 1557.3426,-50.608 1665,-31 1668.0107,-30.4517 1671.0906,-29.8548 1674.1947,-29.225"/>
<polygon fill="#191970" stroke="#191970" points="1351.2661,-70.8117 1341.6948,-75.3548 1352.0102,-77.772 1351.2661,-70.8117"/>
</g>
<!-- Node75 -->
<g id="node17" class="node">
<title>Node75</title>
<g id="a_node17"><a xlink:href="libaktualizr_2uptane_2uptane__test_8cc_source.html" target="_top" xlink:title="src/libaktualizr/uptane\l/uptane_test.cc">
<polygon fill="#ffffff" stroke="#000000" points="1810,-.5 1810,-30.5 1922,-30.5 1922,-.5 1810,-.5"/>
<text text-anchor="start" x="1818" y="-18.5" font-family="Helvetica,sans-Serif" font-size="10.00" fill="#000000">src/libaktualizr/uptane</text>
<text text-anchor="middle" x="1866" y="-7.5" font-family="Helvetica,sans-Serif" font-size="10.00" fill="#000000">/uptane_test.cc</text>
</a>
</g>
</g>
<!-- Node62&#45;&gt;Node75 -->
<g id="edge16" class="edge">
<title>Node62&#45;&gt;Node75</title>
<path fill="none" stroke="#191970" d="M1351.6425,-77.6609C1455.5677,-70.7827 1640.4227,-56.1385 1797,-31 1801.1216,-30.3383 1805.3656,-29.5789 1809.6266,-28.7595"/>
<polygon fill="#191970" stroke="#191970" points="1351.2839,-74.1768 1341.5337,-78.3223 1351.7409,-81.1619 1351.2839,-74.1768"/>
</g>
<!-- Node77&#45;&gt;Node76 -->
<g id="edge19" class="edge">
<title>Node77&#45;&gt;Node76</title>
<path fill="none" stroke="#191970" d="M595.8078,-63.7275C568.9477,-53.2645 535.9441,-40.4084 510.7685,-30.6017"/>
<polygon fill="#191970" stroke="#191970" points="594.8114,-67.0954 605.3998,-67.4639 597.3522,-60.5728 594.8114,-67.0954"/>
</g>
<!-- Node78 -->
<g id="node20" class="node">
<title>Node78</title>
<g id="a_node20"><a xlink:href="secondary_8cc_source.html" target="_top" xlink:title="src/aktualizr_primary\l/secondary.cc">
<polygon fill="#ffffff" stroke="#000000" points="543.5,-.5 543.5,-30.5 650.5,-30.5 650.5,-.5 543.5,-.5"/>
<text text-anchor="start" x="551.5" y="-18.5" font-family="Helvetica,sans-Serif" font-size="10.00" fill="#000000">src/aktualizr_primary</text>
<text text-anchor="middle" x="597" y="-7.5" font-family="Helvetica,sans-Serif" font-size="10.00" fill="#000000">/secondary.cc</text>
</a>
</g>
</g>
<!-- Node77&#45;&gt;Node78 -->
<g id="edge20" class="edge">
<title>Node77&#45;&gt;Node78</title>
<path fill="none" stroke="#191970" d="M627.5588,-59.0626C620.943,-49.6315 613.5045,-39.0276 607.6228,-30.6432"/>
<polygon fill="#191970" stroke="#191970" points="624.7268,-61.1201 633.335,-67.2967 630.4574,-57.1001 624.7268,-61.1201"/>
</g>
<!-- Node80&#45;&gt;Node65 -->
<g id="edge26" class="edge">
<title>Node80&#45;&gt;Node65</title>
<path fill="none" stroke="#191970" d="M310.0717,-63.0518C288.4059,-52.7567 262.1892,-40.2991 242.0254,-30.7177"/>
<polygon fill="#191970" stroke="#191970" points="308.8225,-66.3332 319.3568,-67.4639 311.8269,-60.0107 308.8225,-66.3332"/>
</g>
<!-- Node80&#45;&gt;Node76 -->
<g id="edge24" class="edge">
<title>Node80&#45;&gt;Node76</title>
<path fill="none" stroke="#191970" d="M387.1271,-62.4958C405.5209,-52.3107 427.5239,-40.1272 444.5172,-30.7177"/>
<polygon fill="#191970" stroke="#191970" points="385.2077,-59.5578 378.1548,-67.4639 388.5986,-65.6816 385.2077,-59.5578"/>
</g>
<!-- Node81 -->
<g id="node23" class="node">
<title>Node81</title>
<g id="a_node23"><a xlink:href="aktualizr__helpers_8cc_source.html" target="_top" xlink:title="src/libaktualizr/primary\l/aktualizr_helpers.cc">
<polygon fill="#ffffff" stroke="#000000" points="285.5,-.5 285.5,-30.5 400.5,-30.5 400.5,-.5 285.5,-.5"/>
<text text-anchor="start" x="293.5" y="-18.5" font-family="Helvetica,sans-Serif" font-size="10.00" fill="#000000">src/libaktualizr/primary</text>
<text text-anchor="middle" x="343" y="-7.5" font-family="Helvetica,sans-Serif" font-size="10.00" fill="#000000">/aktualizr_helpers.cc</text>
</a>
</g>
</g>
<!-- Node80&#45;&gt;Node81 -->
<g id="edge25" class="edge">
<title>Node80&#45;&gt;Node81</title>
<path fill="none" stroke="#191970" d="M347.9932,-57.3179C346.9214,-48.3414 345.748,-38.5143 344.8081,-30.6432"/>
<polygon fill="#191970" stroke="#191970" points="344.5237,-57.7822 349.1847,-67.2967 351.4743,-56.9522 344.5237,-57.7822"/>
</g>
<!-- Node84&#45;&gt;Node60 -->
<g id="edge44" class="edge">
<title>Node84&#45;&gt;Node60</title>
<path fill="none" stroke="#191970" d="M1285.3401,-219.6389C1161.9945,-205.3079 902.637,-175.1742 786.8996,-161.7271"/>
<polygon fill="#191970" stroke="#191970" points="1285.0769,-223.1318 1295.4141,-220.8093 1285.8848,-216.1785 1285.0769,-223.1318"/>
</g>
<!-- Node84&#45;&gt;Node62 -->
<g id="edge36" class="edge">
<title>Node84&#45;&gt;Node62</title>
<path fill="none" stroke="#191970" d="M1285.4702,-221.2394C1196.7127,-212.3179 1050.1093,-194.9185 1034,-176 1021.8981,-161.7877 1022.292,-148.5385 1034,-134 1036.9879,-130.2898 1154.6877,-105.8895 1222.7115,-92.0475"/>
<polygon fill="#191970" stroke="#191970" points="1285.1665,-224.7264 1295.4637,-222.2328 1285.859,-217.7607 1285.1665,-224.7264"/>
</g>
<!-- Node84&#45;&gt;Node63 -->
<g id="edge42" class="edge">
<title>Node84&#45;&gt;Node63</title>
<path fill="none" stroke="#191970" d="M1420.7996,-224.9689C1578.158,-218.6996 1958.7729,-201.1194 2011,-176 2063.5438,-150.7283 2110.1355,-119.1195 2084,-67 2076.0935,-51.2327 2060.8158,-39.0591 2046.6421,-30.5161"/>
<polygon fill="#191970" stroke="#191970" points="1420.6174,-221.4733 1410.7634,-225.3655 1420.8938,-228.4679 1420.6174,-221.4733"/>
</g>
<!-- Node84&#45;&gt;Node65 -->
<g id="edge45" class="edge">
<title>Node84&#45;&gt;Node65</title>
<path fill="none" stroke="#191970" d="M1285.1215,-225.9074C1032.2625,-219.2758 155.4019,-189.7717 75,-98 46.5824,-65.5637 103.7961,-41.8832 152.2973,-28.4186"/>
<polygon fill="#191970" stroke="#191970" points="1285.1857,-229.4101 1295.2729,-226.1701 1285.3668,-222.4125 1285.1857,-229.4101"/>
</g>
<!-- Node84&#45;&gt;Node70 -->
<g id="edge48" class="edge">
<title>Node84&#45;&gt;Node70</title>
<path fill="none" stroke="#191970" d="M1420.7493,-225.9601C1586.3885,-221.7133 2002.2719,-207.9647 2056,-176 2112.7658,-142.2281 2143.609,-63.6206 2154.4584,-30.5678"/>
<polygon fill="#191970" stroke="#191970" points="1420.5883,-222.463 1410.6799,-226.2145 1420.7651,-229.4608 1420.5883,-222.463"/>
</g>
<!-- Node84&#45;&gt;Node71 -->
<g id="edge49" class="edge">
<title>Node84&#45;&gt;Node71</title>
<path fill="none" stroke="#191970" d="M1285.3151,-213.897C1247.3039,-204.7337 1205.2796,-191.51 1194,-176 1183.021,-160.9034 1182.3688,-148.6 1194,-134 1238.6067,-78.0073 1286.264,-128.5645 1351,-98 1387.4839,-80.7744 1423.2441,-49.4539 1442.7836,-30.7544"/>
<polygon fill="#191970" stroke="#191970" points="1284.8497,-217.3826 1295.3844,-216.255 1286.4458,-210.567 1284.8497,-217.3826"/>
</g>
<!-- Node84&#45;&gt;Node73 -->
<g id="edge51" class="edge">
<title>Node84&#45;&gt;Node73</title>
<path fill="none" stroke="#191970" d="M1420.8735,-223.942C1532.8775,-217.3699 1746.3627,-201.6125 1769,-176 1781.3619,-162.0133 1777.7486,-150.4896 1769,-134 1767.936,-131.9945 1663.8319,-62.2039 1616.7143,-30.683"/>
<polygon fill="#191970" stroke="#191970" points="1420.4706,-220.4594 1410.6893,-224.5307 1420.8746,-227.4477 1420.4706,-220.4594"/>
</g>
<!-- Node84&#45;&gt;Node74 -->
<g id="edge52" class="edge">
<title>Node84&#45;&gt;Node74</title>
<path fill="none" stroke="#191970" d="M1421.0438,-224.2877C1536.8733,-218.1165 1762.2113,-202.7857 1786,-176 1798.3954,-162.043 1793.1434,-151.2458 1786,-134 1777.3409,-113.095 1760.9647,-117.7933 1750,-98 1738.1059,-76.5289 1733.6444,-47.9628 1731.9798,-30.6955"/>
<polygon fill="#191970" stroke="#191970" points="1420.667,-220.8026 1410.864,-224.8215 1421.0336,-227.793 1420.667,-220.8026"/>
</g>
<!-- Node84&#45;&gt;Node75 -->
<g id="edge53" class="edge">
<title>Node84&#45;&gt;Node75</title>
<path fill="none" stroke="#191970" d="M1421.2355,-225.9628C1557.0893,-222.1988 1856.6052,-210.1857 1953,-176 2011.2066,-155.3574 2039.0763,-152.5669 2068,-98 2074.4526,-85.8266 2076.4537,-77.8794 2068,-67 2058.9094,-55.3009 1978.8,-37.4972 1922.2454,-26.1852"/>
<polygon fill="#191970" stroke="#191970" points="1420.8592,-222.4716 1410.9574,-226.2405 1421.0483,-229.4691 1420.8592,-222.4716"/>
</g>
<!-- Node84&#45;&gt;Node82 -->
<g id="edge54" class="edge">
<title>Node84&#45;&gt;Node82</title>
<path fill="none" stroke="#191970" d="M1285.07,-225.0237C1197.1729,-220.5458 1050.2821,-208.3345 1008,-176 980.404,-154.8965 971.0309,-111.2997 968.1532,-92.023"/>
<polygon fill="#191970" stroke="#191970" points="1285.064,-228.5275 1295.223,-225.52 1285.4058,-221.5358 1285.064,-228.5275"/>
</g>
<!-- Node84&#45;&gt;Node83 -->
<g id="edge55" class="edge">
<title>Node84&#45;&gt;Node83</title>
<path fill="none" stroke="#191970" d="M1285.2576,-221.6756C1193.1817,-213.0631 1037.9642,-195.7986 1021,-176 1008.8544,-161.8251 1011.5596,-150.1035 1021,-134 1033.4047,-112.84 1058.03,-99.7216 1078.6838,-92.0237"/>
<polygon fill="#191970" stroke="#191970" points="1285.056,-225.1718 1295.3358,-222.6074 1285.7005,-218.2015 1285.056,-225.1718"/>
</g>
<!-- Node85 -->
<g id="node27" class="node">
<title>Node85</title>
<g id="a_node27"><a xlink:href="uptane__vector__tests_8cc_source.html" target="_top" xlink:title="tests/uptane_vector\l_tests.cc">
<polygon fill="#ffffff" stroke="#000000" points="1042.5,-140 1042.5,-170 1145.5,-170 1145.5,-140 1042.5,-140"/>
<text text-anchor="start" x="1050.5" y="-158" font-family="Helvetica,sans-Serif" font-size="10.00" fill="#000000">tests/uptane_vector</text>
<text text-anchor="middle" x="1094" y="-147" font-family="Helvetica,sans-Serif" font-size="10.00" fill="#000000">_tests.cc</text>
</a>
</g>
</g>
<!-- Node84&#45;&gt;Node85 -->
<g id="edge37" class="edge">
<title>Node84&#45;&gt;Node85</title>
<path fill="none" stroke="#191970" d="M1285.6542,-210.3637C1248.4802,-200.6955 1201.5557,-188.1481 1160,-176 1153.6523,-174.1443 1146.9857,-172.1167 1140.4302,-170.0767"/>
<polygon fill="#191970" stroke="#191970" points="1284.8173,-213.7624 1295.3756,-212.8843 1286.5742,-206.9864 1284.8173,-213.7624"/>
</g>
<!-- Node86 -->
<g id="node28" class="node">
<title>Node86</title>
<g id="a_node28"><a xlink:href="helpers_8h_source.html" target="_top" xlink:title="src/aktualizr_lite\l/helpers.h">
<polygon fill="#ffffff" stroke="#000000" points="1856,-140 1856,-170 1944,-170 1944,-140 1856,-140"/>
<text text-anchor="start" x="1864" y="-158" font-family="Helvetica,sans-Serif" font-size="10.00" fill="#000000">src/aktualizr_lite</text>
<text text-anchor="middle" x="1900" y="-147" font-family="Helvetica,sans-Serif" font-size="10.00" fill="#000000">/helpers.h</text>
</a>
</g>
</g>
<!-- Node84&#45;&gt;Node86 -->
<g id="edge38" class="edge">
<title>Node84&#45;&gt;Node86</title>
<path fill="none" stroke="#191970" d="M1420.7081,-225.2768C1515.5144,-221.0518 1692.7344,-209.0887 1840,-176 1846.8914,-174.4516 1854.0871,-172.3649 1861.0042,-170.1058"/>
<polygon fill="#191970" stroke="#191970" points="1420.5185,-221.7816 1410.6783,-225.7085 1420.8196,-228.7752 1420.5185,-221.7816"/>
</g>
<!-- Node90 -->
<g id="node32" class="node">
<title>Node90</title>
<g id="a_node32"><a xlink:href="dockerappmanager__test_8cc_source.html" target="_top" xlink:title="src/libaktualizr/package\l_manager/dockerappmanager\l_test.cc">
<polygon fill="#ffffff" stroke="#000000" points="1202.5,-134.5 1202.5,-175.5 1347.5,-175.5 1347.5,-134.5 1202.5,-134.5"/>
<text text-anchor="start" x="1210.5" y="-163.5" font-family="Helvetica,sans-Serif" font-size="10.00" fill="#000000">src/libaktualizr/package</text>
<text text-anchor="start" x="1210.5" y="-152.5" font-family="Helvetica,sans-Serif" font-size="10.00" fill="#000000">_manager/dockerappmanager</text>
<text text-anchor="middle" x="1275" y="-141.5" font-family="Helvetica,sans-Serif" font-size="10.00" fill="#000000">_test.cc</text>
</a>
</g>
</g>
<!-- Node84&#45;&gt;Node90 -->
<g id="edge43" class="edge">
<title>Node84&#45;&gt;Node90</title>
<path fill="none" stroke="#191970" d="M1329.3746,-205.5405C1319.1053,-195.9953 1307.1427,-184.8762 1297.0568,-175.5015"/>
<polygon fill="#191970" stroke="#191970" points="1327.1309,-208.2334 1336.8383,-212.478 1331.8966,-203.1062 1327.1309,-208.2334"/>
</g>
<!-- Node91 -->
<g id="node33" class="node">
<title>Node91</title>
<g id="a_node33"><a xlink:href="device__cred__prov__test_8cc.html" target="_top" xlink:title="src/libaktualizr/primary\l/device_cred_prov_test.cc">
<polygon fill="#ffffff" stroke="#000000" points="1365.5,-140 1365.5,-170 1496.5,-170 1496.5,-140 1365.5,-140"/>
<text text-anchor="start" x="1373.5" y="-158" font-family="Helvetica,sans-Serif" font-size="10.00" fill="#000000">src/libaktualizr/primary</text>
<text text-anchor="middle" x="1431" y="-147" font-family="Helvetica,sans-Serif" font-size="10.00" fill="#000000">/device_cred_prov_test.cc</text>
</a>
</g>
</g>
<!-- Node84&#45;&gt;Node91 -->
<g id="edge46" class="edge">
<title>Node84&#45;&gt;Node91</title>
<path fill="none" stroke="#191970" d="M1376.4991,-205.6579C1388.8915,-194.1393 1403.7779,-180.3026 1414.8591,-170.0028"/>
<polygon fill="#191970" stroke="#191970" points="1374.1034,-203.1062 1369.1617,-212.478 1378.8691,-208.2334 1374.1034,-203.1062"/>
</g>
<!-- Node92 -->
<g id="node34" class="node">
<title>Node92</title>
<g id="a_node34"><a xlink:href="sotauptaneclient_8cc_source.html" target="_top" xlink:title="src/libaktualizr/primary\l/sotauptaneclient.cc">
<polygon fill="#ffffff" stroke="#000000" points="1514.5,-140 1514.5,-170 1629.5,-170 1629.5,-140 1514.5,-140"/>
<text text-anchor="start" x="1522.5" y="-158" font-family="Helvetica,sans-Serif" font-size="10.00" fill="#000000">src/libaktualizr/primary</text>
<text text-anchor="middle" x="1572" y="-147" font-family="Helvetica,sans-Serif" font-size="10.00" fill="#000000">/sotauptaneclient.cc</text>
</a>
</g>
</g>
<!-- Node84&#45;&gt;Node92 -->
<g id="edge47" class="edge">
<title>Node84&#45;&gt;Node92</title>
<path fill="none" stroke="#191970" d="M1407.9236,-209.3175C1444.5776,-197.1832 1492.1933,-181.42 1526.6812,-170.0028"/>
<polygon fill="#191970" stroke="#191970" points="1406.7703,-206.0125 1398.3769,-212.478 1408.9703,-212.6578 1406.7703,-206.0125"/>
</g>
<!-- Node93 -->
<g id="node35" class="node">
<title>Node93</title>
<g id="a_node35"><a xlink:href="uptane__init__test_8cc_source.html" target="_top" xlink:title="src/libaktualizr/uptane\l/uptane_init_test.cc">
<polygon fill="#ffffff" stroke="#000000" points="1648,-140 1648,-170 1760,-170 1760,-140 1648,-140"/>
<text text-anchor="start" x="1656" y="-158" font-family="Helvetica,sans-Serif" font-size="10.00" fill="#000000">src/libaktualizr/uptane</text>
<text text-anchor="middle" x="1704" y="-147" font-family="Helvetica,sans-Serif" font-size="10.00" fill="#000000">/uptane_init_test.cc</text>
</a>
</g>
</g>
<!-- Node84&#45;&gt;Node93 -->
<g id="edge50" class="edge">
<title>Node84&#45;&gt;Node93</title>
<path fill="none" stroke="#191970" d="M1420.9213,-217.901C1479.2153,-209.0377 1565.2455,-194.4659 1639,-176 1645.9024,-174.2719 1653.1398,-172.2002 1660.1761,-170.041"/>
<polygon fill="#191970" stroke="#191970" points="1420.0972,-214.4856 1410.7298,-219.4354 1421.1394,-221.4076 1420.0972,-214.4856"/>
</g>
<!-- Node87 -->
<g id="node29" class="node">
<title>Node87</title>
<g id="a_node29"><a xlink:href="helpers_8cc_source.html" target="_top" xlink:title="src/aktualizr_lite\l/helpers.cc">
<polygon fill="#ffffff" stroke="#000000" points="1759,-67.5 1759,-97.5 1847,-97.5 1847,-67.5 1759,-67.5"/>
<text text-anchor="start" x="1767" y="-85.5" font-family="Helvetica,sans-Serif" font-size="10.00" fill="#000000">src/aktualizr_lite</text>
<text text-anchor="middle" x="1803" y="-74.5" font-family="Helvetica,sans-Serif" font-size="10.00" fill="#000000">/helpers.cc</text>
</a>
</g>
</g>
<!-- Node86&#45;&gt;Node87 -->
<g id="edge39" class="edge">
<title>Node86&#45;&gt;Node87</title>
<path fill="none" stroke="#191970" d="M1871.6457,-133.8074C1856.0659,-122.1627 1837.1131,-107.9969 1823.0727,-97.5028"/>
<polygon fill="#191970" stroke="#191970" points="1869.7962,-136.7946 1879.9015,-139.978 1873.987,-131.1877 1869.7962,-136.7946"/>
</g>
<!-- Node88 -->
<g id="node30" class="node">
<title>Node88</title>
<g id="a_node30"><a xlink:href="helpers__test_8cc_source.html" target="_top" xlink:title="src/aktualizr_lite\l/helpers_test.cc">
<polygon fill="#ffffff" stroke="#000000" points="1865,-67.5 1865,-97.5 1953,-97.5 1953,-67.5 1865,-67.5"/>
<text text-anchor="start" x="1873" y="-85.5" font-family="Helvetica,sans-Serif" font-size="10.00" fill="#000000">src/aktualizr_lite</text>
<text text-anchor="middle" x="1909" y="-74.5" font-family="Helvetica,sans-Serif" font-size="10.00" fill="#000000">/helpers_test.cc</text>
</a>
</g>
</g>
<!-- Node86&#45;&gt;Node88 -->
<g id="edge40" class="edge">
<title>Node86&#45;&gt;Node88</title>
<path fill="none" stroke="#191970" d="M1903.1232,-129.8409C1904.4615,-119.0601 1905.9796,-106.8309 1907.1376,-97.5028"/>
<polygon fill="#191970" stroke="#191970" points="1899.6235,-129.6229 1901.8648,-139.978 1906.5702,-130.4853 1899.6235,-129.6229"/>
</g>
<!-- Node89 -->
<g id="node31" class="node">
<title>Node89</title>
<g id="a_node31"><a xlink:href="aktualizr__lite_2main_8cc_source.html" target="_top" xlink:title="src/aktualizr_lite\l/main.cc">
<polygon fill="#ffffff" stroke="#000000" points="1971,-67.5 1971,-97.5 2059,-97.5 2059,-67.5 1971,-67.5"/>
<text text-anchor="start" x="1979" y="-85.5" font-family="Helvetica,sans-Serif" font-size="10.00" fill="#000000">src/aktualizr_lite</text>
<text text-anchor="middle" x="2015" y="-74.5" font-family="Helvetica,sans-Serif" font-size="10.00" fill="#000000">/main.cc</text>
</a>
</g>
</g>
<!-- Node86&#45;&gt;Node89 -->
<g id="edge41" class="edge">
<title>Node86&#45;&gt;Node89</title>
<path fill="none" stroke="#191970" d="M1932.3397,-134.6119C1951.0434,-122.8205 1974.1713,-108.2398 1991.2025,-97.5028"/>
<polygon fill="#191970" stroke="#191970" points="1930.4208,-131.6842 1923.8281,-139.978 1934.1539,-137.6056 1930.4208,-131.6842"/>
</g>
</g>
</svg>
