<?xml version="1.0" encoding="UTF-8" standalone="no"?>
<!DOCTYPE svg PUBLIC "-//W3C//DTD SVG 1.1//EN"
 "http://www.w3.org/Graphics/SVG/1.1/DTD/svg11.dtd">
<!-- Generated by graphviz version 2.40.1 (20161225.0304)
 -->
<!-- Title: ProvisionConfig Pages: 1 -->
<svg width="155pt" height="251pt"
 viewBox="0.00 0.00 154.50 251.00" xmlns="http://www.w3.org/2000/svg" xmlns:xlink="http://www.w3.org/1999/xlink">
<g id="graph0" class="graph" transform="scale(1 1) rotate(0) translate(4 247)">
<title>ProvisionConfig</title>
<polygon fill="#ffffff" stroke="transparent" points="-4,4 -4,-247 150.5,-247 150.5,4 -4,4"/>
<!-- Node1 -->
<g id="node1" class="node">
<title>Node1</title>
<polygon fill="#bfbfbf" stroke="#000000" points="4.5,-.5 4.5,-19.5 90.5,-19.5 90.5,-.5 4.5,-.5"/>
<text text-anchor="middle" x="47.5" y="-7.5" font-family="Helvetica,sans-Serif" font-size="10.00" fill="#000000">ProvisionConfig</text>
</g>
<!-- Node2 -->
<g id="node2" class="node">
<title>Node2</title>
<g id="a_node2"><a xlink:title="STL class. ">
<polygon fill="#ffffff" stroke="#bfbfbf" points="17.5,-155.5 17.5,-174.5 77.5,-174.5 77.5,-155.5 17.5,-155.5"/>
<text text-anchor="middle" x="47.5" y="-162.5" font-family="Helvetica,sans-Serif" font-size="10.00" fill="#000000">std::string</text>
</a>
</g>
</g>
<!-- Node2&#45;&gt;Node1 -->
<g id="edge1" class="edge">
<title>Node2&#45;&gt;Node1</title>
<path fill="none" stroke="#9a32cd" stroke-dasharray="5,2" d="M47.5,-144.88C47.5,-111.1845 47.5,-44.5883 47.5,-19.6923"/>
<polygon fill="#9a32cd" stroke="#9a32cd" points="44.0001,-145.304 47.5,-155.3041 51.0001,-145.3041 44.0001,-145.304"/>
<text text-anchor="middle" x="97" y="-129" font-family="Helvetica,sans-Serif" font-size="10.00" fill="#000000"> server</text>
<text text-anchor="middle" x="97" y="-118" font-family="Helvetica,sans-Serif" font-size="10.00" fill="#000000">p12_password</text>
<text text-anchor="start" x="47.5" y="-107" font-family="Helvetica,sans-Serif" font-size="10.00" fill="#000000">primary_ecu_hardware</text>
<text text-anchor="middle" x="97" y="-96" font-family="Helvetica,sans-Serif" font-size="10.00" fill="#000000">_id</text>
<text text-anchor="middle" x="97" y="-85" font-family="Helvetica,sans-Serif" font-size="10.00" fill="#000000">expiry_days</text>
<text text-anchor="middle" x="97" y="-74" font-family="Helvetica,sans-Serif" font-size="10.00" fill="#000000">device_id</text>
<text text-anchor="start" x="47.5" y="-63" font-family="Helvetica,sans-Serif" font-size="10.00" fill="#000000">ecu_registration</text>
<text text-anchor="middle" x="97" y="-52" font-family="Helvetica,sans-Serif" font-size="10.00" fill="#000000">_endpoint</text>
<text text-anchor="middle" x="97" y="-41" font-family="Helvetica,sans-Serif" font-size="10.00" fill="#000000">primary_ecu_serial</text>
</g>
<!-- Node3 -->
<g id="node3" class="node">
<title>Node3</title>
<g id="a_node3"><a xlink:title="STL class. ">
<polygon fill="#ffffff" stroke="#bfbfbf" points="0,-212.5 0,-242.5 95,-242.5 95,-212.5 0,-212.5"/>
<text text-anchor="start" x="8" y="-230.5" font-family="Helvetica,sans-Serif" font-size="10.00" fill="#000000">std::basic_string&lt;</text>
<text text-anchor="middle" x="47.5" y="-219.5" font-family="Helvetica,sans-Serif" font-size="10.00" fill="#000000"> char &gt;</text>
</a>
</g>
</g>
<!-- Node3&#45;&gt;Node2 -->
<g id="edge2" class="edge">
<title>Node3&#45;&gt;Node2</title>
<path fill="none" stroke="#191970" d="M47.5,-202.3498C47.5,-192.6481 47.5,-182.1303 47.5,-174.7356"/>
<polygon fill="#191970" stroke="#191970" points="44.0001,-202.3705 47.5,-212.3705 51.0001,-202.3705 44.0001,-202.3705"/>
</g>
</g>
</svg>
