<?xml version="1.0" encoding="UTF-8" standalone="no"?>
<!DOCTYPE svg PUBLIC "-//W3C//DTD SVG 1.1//EN"
 "http://www.w3.org/Graphics/SVG/1.1/DTD/svg11.dtd">
<!-- Generated by graphviz version 2.40.1 (20161225.0304)
 -->
<!-- Title: OstreeDeploymentInfo Pages: 1 -->
<svg width="139pt" height="106pt"
 viewBox="0.00 0.00 139.00 106.00" xmlns="http://www.w3.org/2000/svg" xmlns:xlink="http://www.w3.org/1999/xlink">
<g id="graph0" class="graph" transform="scale(1 1) rotate(0) translate(4 102)">
<title>OstreeDeploymentInfo</title>
<polygon fill="#ffffff" stroke="transparent" points="-4,4 -4,-102 135,-102 135,4 -4,4"/>
<!-- Node1 -->
<g id="node1" class="node">
<title>Node1</title>
<polygon fill="#bfbfbf" stroke="#000000" points="8,-.5 8,-19.5 123,-19.5 123,-.5 8,-.5"/>
<text text-anchor="middle" x="65.5" y="-7.5" font-family="Helvetica,sans-Serif" font-size="10.00" fill="#000000">OstreeDeploymentInfo</text>
</g>
<!-- Node2 -->
<g id="node2" class="node">
<title>Node2</title>
<g id="a_node2"><a xlink:href="struct_ostree_deployment_version.html" target="_top" xlink:title="OstreeDeploymentVersion">
<polygon fill="#ffffff" stroke="#000000" points="0,-78.5 0,-97.5 131,-97.5 131,-78.5 0,-78.5"/>
<text text-anchor="middle" x="65.5" y="-85.5" font-family="Helvetica,sans-Serif" font-size="10.00" fill="#000000">OstreeDeploymentVersion</text>
</a>
</g>
</g>
<!-- Node2&#45;&gt;Node1 -->
<g id="edge1" class="edge">
<title>Node2&#45;&gt;Node1</title>
<path fill="none" stroke="#9a32cd" stroke-dasharray="5,2" d="M65.5,-68.2866C65.5,-52.7395 65.5,-31.7276 65.5,-19.6426"/>
<polygon fill="#9a32cd" stroke="#9a32cd" points="62.0001,-68.4356 65.5,-78.4357 69.0001,-68.4357 62.0001,-68.4356"/>
<text text-anchor="middle" x="85.5" y="-52" font-family="Helvetica,sans-Serif" font-size="10.00" fill="#000000"> booted</text>
<text text-anchor="middle" x="85.5" y="-41" font-family="Helvetica,sans-Serif" font-size="10.00" fill="#000000">deployed</text>
</g>
</g>
</svg>
