<?xml version="1.0" encoding="UTF-8" standalone="no"?>
<!DOCTYPE svg PUBLIC "-//W3C//DTD SVG 1.1//EN"
 "http://www.w3.org/Graphics/SVG/1.1/DTD/svg11.dtd">
<!-- Generated by graphviz version 2.40.1 (20161225.0304)
 -->
<!-- Title: SecondaryInterfaceMock Pages: 1 -->
<svg width="237pt" height="352pt"
 viewBox="0.00 0.00 236.50 352.00" xmlns="http://www.w3.org/2000/svg" xmlns:xlink="http://www.w3.org/1999/xlink">
<g id="graph0" class="graph" transform="scale(1 1) rotate(0) translate(4 348)">
<title>SecondaryInterfaceMock</title>
<polygon fill="#ffffff" stroke="transparent" points="-4,4 -4,-348 232.5,-348 232.5,4 -4,4"/>
<!-- Node2 -->
<g id="node1" class="node">
<title>Node2</title>
<polygon fill="#bfbfbf" stroke="#000000" points="95,-.5 95,-19.5 220,-19.5 220,-.5 95,-.5"/>
<text text-anchor="middle" x="157.5" y="-7.5" font-family="Helvetica,sans-Serif" font-size="10.00" fill="#000000">SecondaryInterfaceMock</text>
</g>
<!-- Node3 -->
<g id="node2" class="node">
<title>Node3</title>
<g id="a_node2"><a xlink:href="class_uptane_1_1_secondary_interface.html" target="_top" xlink:title="Uptane::SecondaryInterface">
<polygon fill="#ffffff" stroke="#000000" points="0,-67.5 0,-86.5 139,-86.5 139,-67.5 0,-67.5"/>
<text text-anchor="middle" x="69.5" y="-74.5" font-family="Helvetica,sans-Serif" font-size="10.00" fill="#000000">Uptane::SecondaryInterface</text>
</a>
</g>
</g>
<!-- Node3&#45;&gt;Node2 -->
<g id="edge1" class="edge">
<title>Node3&#45;&gt;Node2</title>
<path fill="none" stroke="#191970" d="M90.3101,-61.1559C107.275,-48.2395 130.6796,-30.4201 144.9151,-19.5817"/>
<polygon fill="#191970" stroke="#191970" points="87.9445,-58.558 82.1083,-67.4005 92.1849,-64.1275 87.9445,-58.558"/>
</g>
<!-- Node4 -->
<g id="node3" class="node">
<title>Node4</title>
<g id="a_node3"><a xlink:href="class_uptane_1_1_secondary_config.html" target="_top" xlink:title="Uptane::SecondaryConfig">
<polygon fill="#ffffff" stroke="#000000" points="5,-134.5 5,-153.5 134,-153.5 134,-134.5 5,-134.5"/>
<text text-anchor="middle" x="69.5" y="-141.5" font-family="Helvetica,sans-Serif" font-size="10.00" fill="#000000">Uptane::SecondaryConfig</text>
</a>
</g>
</g>
<!-- Node4&#45;&gt;Node3 -->
<g id="edge2" class="edge">
<title>Node4&#45;&gt;Node3</title>
<path fill="none" stroke="#9a32cd" stroke-dasharray="5,2" d="M69.5,-124.1079C69.5,-111.714 69.5,-96.3263 69.5,-86.5817"/>
<polygon fill="#9a32cd" stroke="#9a32cd" points="66.0001,-124.4005 69.5,-134.4005 73.0001,-124.4006 66.0001,-124.4005"/>
<text text-anchor="middle" x="87" y="-108" font-family="Helvetica,sans-Serif" font-size="10.00" fill="#000000"> sconfig</text>
</g>
<!-- Node5 -->
<g id="node4" class="node">
<title>Node5</title>
<g id="a_node4"><a xlink:title="STL class. ">
<polygon fill="#ffffff" stroke="#bfbfbf" points="39.5,-256.5 39.5,-275.5 99.5,-275.5 99.5,-256.5 39.5,-256.5"/>
<text text-anchor="middle" x="69.5" y="-263.5" font-family="Helvetica,sans-Serif" font-size="10.00" fill="#000000">std::string</text>
</a>
</g>
</g>
<!-- Node5&#45;&gt;Node4 -->
<g id="edge3" class="edge">
<title>Node5&#45;&gt;Node4</title>
<path fill="none" stroke="#9a32cd" stroke-dasharray="5,2" d="M69.5,-246.3912C69.5,-219.8282 69.5,-173.4446 69.5,-153.5287"/>
<polygon fill="#9a32cd" stroke="#9a32cd" points="66.0001,-246.4268 69.5,-256.4269 73.0001,-246.4269 66.0001,-246.4268"/>
<text text-anchor="middle" x="107" y="-230" font-family="Helvetica,sans-Serif" font-size="10.00" fill="#000000"> ecu_private_key</text>
<text text-anchor="middle" x="107" y="-219" font-family="Helvetica,sans-Serif" font-size="10.00" fill="#000000">can_iface</text>
<text text-anchor="middle" x="107" y="-208" font-family="Helvetica,sans-Serif" font-size="10.00" fill="#000000">ecu_hardware_id</text>
<text text-anchor="middle" x="107" y="-197" font-family="Helvetica,sans-Serif" font-size="10.00" fill="#000000">ecu_serial</text>
<text text-anchor="middle" x="107" y="-186" font-family="Helvetica,sans-Serif" font-size="10.00" fill="#000000">opcua_lds_url</text>
<text text-anchor="middle" x="107" y="-175" font-family="Helvetica,sans-Serif" font-size="10.00" fill="#000000">ecu_public_key</text>
</g>
<!-- Node6 -->
<g id="node5" class="node">
<title>Node6</title>
<g id="a_node5"><a xlink:title="STL class. ">
<polygon fill="#ffffff" stroke="#bfbfbf" points="22,-313.5 22,-343.5 117,-343.5 117,-313.5 22,-313.5"/>
<text text-anchor="start" x="30" y="-331.5" font-family="Helvetica,sans-Serif" font-size="10.00" fill="#000000">std::basic_string&lt;</text>
<text text-anchor="middle" x="69.5" y="-320.5" font-family="Helvetica,sans-Serif" font-size="10.00" fill="#000000"> char &gt;</text>
</a>
</g>
</g>
<!-- Node6&#45;&gt;Node5 -->
<g id="edge4" class="edge">
<title>Node6&#45;&gt;Node5</title>
<path fill="none" stroke="#191970" d="M69.5,-303.3498C69.5,-293.6481 69.5,-283.1303 69.5,-275.7356"/>
<polygon fill="#191970" stroke="#191970" points="66.0001,-303.3705 69.5,-313.3705 73.0001,-303.3705 66.0001,-303.3705"/>
</g>
<!-- Node7 -->
<g id="node6" class="node">
<title>Node7</title>
<g id="a_node6"><a xlink:href="class_public_key.html" target="_top" xlink:title="PublicKey">
<polygon fill="#ffffff" stroke="#000000" points="157,-67.5 157,-86.5 218,-86.5 218,-67.5 157,-67.5"/>
<text text-anchor="middle" x="187.5" y="-74.5" font-family="Helvetica,sans-Serif" font-size="10.00" fill="#000000">PublicKey</text>
</a>
</g>
</g>
<!-- Node7&#45;&gt;Node2 -->
<g id="edge5" class="edge">
<title>Node7&#45;&gt;Node2</title>
<path fill="none" stroke="#9a32cd" stroke-dasharray="5,2" d="M179.0988,-58.2374C173.4678,-45.6614 166.2871,-29.6246 161.7903,-19.5817"/>
<polygon fill="#9a32cd" stroke="#9a32cd" points="175.9206,-59.704 183.2017,-67.4005 182.3094,-56.8433 175.9206,-59.704"/>
<text text-anchor="middle" x="201" y="-41" font-family="Helvetica,sans-Serif" font-size="10.00" fill="#000000"> public_key_</text>
</g>
</g>
</svg>
