<?xml version="1.0" encoding="UTF-8" standalone="no"?>
<!DOCTYPE svg PUBLIC "-//W3C//DTD SVG 1.1//EN"
 "http://www.w3.org/Graphics/SVG/1.1/DTD/svg11.dtd">
<!-- Generated by graphviz version 2.40.1 (20161225.0304)
 -->
<!-- Title: Uptane::SecondaryInterface Pages: 1 -->
<svg width="487pt" height="306pt"
 viewBox="0.00 0.00 487.00 305.50" xmlns="http://www.w3.org/2000/svg" xmlns:xlink="http://www.w3.org/1999/xlink">
<g id="graph0" class="graph" transform="scale(1 1) rotate(0) translate(4 301.5)">
<title>Uptane::SecondaryInterface</title>
<polygon fill="#ffffff" stroke="transparent" points="-4,4 -4,-301.5 483,-301.5 483,4 -4,4"/>
<!-- Node0 -->
<g id="node1" class="node">
<title>Node0</title>
<polygon fill="#bfbfbf" stroke="#000000" points="0,-145 0,-164 139,-164 139,-145 0,-145"/>
<text text-anchor="middle" x="69.5" y="-152" font-family="Helvetica,sans-Serif" font-size="10.00" fill="#000000">Uptane::SecondaryInterface</text>
</g>
<!-- Node1 -->
<g id="node2" class="node">
<title>Node1</title>
<g id="a_node2"><a xlink:href="class_secondary_adapter.html" target="_top" xlink:title="SecondaryAdapter">
<polygon fill="#ffffff" stroke="#000000" points="196.5,-278 196.5,-297 293.5,-297 293.5,-278 196.5,-278"/>
<text text-anchor="middle" x="245" y="-285" font-family="Helvetica,sans-Serif" font-size="10.00" fill="#000000">SecondaryAdapter</text>
</a>
</g>
</g>
<!-- Node0&#45;&gt;Node1 -->
<g id="edge1" class="edge">
<title>Node0&#45;&gt;Node1</title>
<path fill="none" stroke="#191970" d="M81.1816,-172.4428C98.5772,-197.7138 133.7089,-243.4915 175,-268.5 181.5703,-272.4794 188.9839,-275.6411 196.4658,-278.1489"/>
<polygon fill="#191970" stroke="#191970" points="84.081,-170.4822 75.5966,-164.1367 78.2721,-174.3882 84.081,-170.4822"/>
</g>
<!-- Node2 -->
<g id="node3" class="node">
<title>Node2</title>
<g id="a_node3"><a xlink:href="class_secondary_interface_mock.html" target="_top" xlink:title="SecondaryInterfaceMock">
<polygon fill="#ffffff" stroke="#000000" points="182.5,-240 182.5,-259 307.5,-259 307.5,-240 182.5,-240"/>
<text text-anchor="middle" x="245" y="-247" font-family="Helvetica,sans-Serif" font-size="10.00" fill="#000000">SecondaryInterfaceMock</text>
</a>
</g>
</g>
<!-- Node0&#45;&gt;Node2 -->
<g id="edge2" class="edge">
<title>Node0&#45;&gt;Node2</title>
<path fill="none" stroke="#191970" d="M87.7717,-170.8393C107.8366,-187.986 141.6557,-214.612 175,-230.5 182.9576,-234.2917 191.7971,-237.4303 200.4413,-239.9897"/>
<polygon fill="#191970" stroke="#191970" points="89.8987,-168.0507 80.056,-164.13 85.3055,-173.3329 89.8987,-168.0507"/>
</g>
<!-- Node3 -->
<g id="node4" class="node">
<title>Node3</title>
<g id="a_node4"><a xlink:href="class_short_circuit_secondary.html" target="_top" xlink:title="ShortCircuitSecondary">
<polygon fill="#ffffff" stroke="#000000" points="187.5,-202 187.5,-221 302.5,-221 302.5,-202 187.5,-202"/>
<text text-anchor="middle" x="245" y="-209" font-family="Helvetica,sans-Serif" font-size="10.00" fill="#000000">ShortCircuitSecondary</text>
</a>
</g>
</g>
<!-- Node0&#45;&gt;Node3 -->
<g id="edge3" class="edge">
<title>Node0&#45;&gt;Node3</title>
<path fill="none" stroke="#191970" d="M103.9924,-167.7192C124.4855,-175.3733 151.0658,-184.9549 175,-192.5 185.5687,-195.8317 197.1429,-199.118 207.7825,-201.9964"/>
<polygon fill="#191970" stroke="#191970" points="105.0515,-164.3782 94.4595,-164.134 102.5873,-170.9302 105.0515,-164.3782"/>
</g>
<!-- Node4 -->
<g id="node5" class="node">
<title>Node4</title>
<g id="a_node5"><a xlink:href="class_uptane_1_1_ip_uptane_secondary.html" target="_top" xlink:title="Uptane::IpUptaneSecondary">
<polygon fill="#ffffff" stroke="#000000" points="175,-164 175,-183 315,-183 315,-164 175,-164"/>
<text text-anchor="middle" x="245" y="-171" font-family="Helvetica,sans-Serif" font-size="10.00" fill="#000000">Uptane::IpUptaneSecondary</text>
</a>
</g>
</g>
<!-- Node0&#45;&gt;Node4 -->
<g id="edge4" class="edge">
<title>Node0&#45;&gt;Node4</title>
<path fill="none" stroke="#191970" d="M149.1343,-163.1214C157.7278,-164.0517 166.426,-164.9934 174.8954,-165.9103"/>
<polygon fill="#191970" stroke="#191970" points="149.433,-159.6333 139.1143,-162.0366 148.6795,-166.5927 149.433,-159.6333"/>
</g>
<!-- Node5 -->
<g id="node6" class="node">
<title>Node5</title>
<g id="a_node6"><a xlink:href="class_uptane_1_1_iso_tp_secondary.html" target="_top" xlink:title="Uptane::IsoTpSecondary">
<polygon fill="#ffffff" stroke="#000000" points="182.5,-126 182.5,-145 307.5,-145 307.5,-126 182.5,-126"/>
<text text-anchor="middle" x="245" y="-133" font-family="Helvetica,sans-Serif" font-size="10.00" fill="#000000">Uptane::IsoTpSecondary</text>
</a>
</g>
</g>
<!-- Node0&#45;&gt;Node5 -->
<g id="edge5" class="edge">
<title>Node0&#45;&gt;Node5</title>
<path fill="none" stroke="#191970" d="M149.23,-145.8683C160.3199,-144.6676 171.5821,-143.4484 182.3001,-142.288"/>
<polygon fill="#191970" stroke="#191970" points="148.6795,-142.4073 139.1143,-146.9634 149.433,-149.3667 148.6795,-142.4073"/>
</g>
<!-- Node6 -->
<g id="node7" class="node">
<title>Node6</title>
<g id="a_node7"><a xlink:href="class_uptane_1_1_managed_secondary.html" target="_top" xlink:title="Uptane::ManagedSecondary">
<polygon fill="#ffffff" stroke="#000000" points="175,-88 175,-107 315,-107 315,-88 175,-88"/>
<text text-anchor="middle" x="245" y="-95" font-family="Helvetica,sans-Serif" font-size="10.00" fill="#000000">Uptane::ManagedSecondary</text>
</a>
</g>
</g>
<!-- Node0&#45;&gt;Node6 -->
<g id="edge6" class="edge">
<title>Node0&#45;&gt;Node6</title>
<path fill="none" stroke="#191970" d="M103.9924,-141.2808C124.4855,-133.6267 151.0658,-124.0451 175,-116.5 185.5687,-113.1683 197.1429,-109.882 207.7825,-107.0036"/>
<polygon fill="#191970" stroke="#191970" points="102.5873,-138.0698 94.4595,-144.866 105.0515,-144.6218 102.5873,-138.0698"/>
</g>
<!-- Node8 -->
<g id="node9" class="node">
<title>Node8</title>
<g id="a_node9"><a xlink:href="class_uptane_1_1_opcua_secondary.html" target="_top" xlink:title="Uptane::OpcuaSecondary">
<polygon fill="#ffffff" stroke="#000000" points="180.5,-50 180.5,-69 309.5,-69 309.5,-50 180.5,-50"/>
<text text-anchor="middle" x="245" y="-57" font-family="Helvetica,sans-Serif" font-size="10.00" fill="#000000">Uptane::OpcuaSecondary</text>
</a>
</g>
</g>
<!-- Node0&#45;&gt;Node8 -->
<g id="edge8" class="edge">
<title>Node0&#45;&gt;Node8</title>
<path fill="none" stroke="#191970" d="M87.7717,-138.1607C107.8366,-121.014 141.6557,-94.388 175,-78.5 182.9576,-74.7083 191.7971,-71.5697 200.4413,-69.0103"/>
<polygon fill="#191970" stroke="#191970" points="85.3055,-135.6671 80.056,-144.87 89.8987,-140.9493 85.3055,-135.6671"/>
</g>
<!-- Node9 -->
<g id="node10" class="node">
<title>Node9</title>
<g id="a_node10"><a xlink:href="class_uptane_1_1_partial_verification_secondary.html" target="_top" xlink:title="Uptane::PartialVerification\lSecondary">
<polygon fill="#ffffff" stroke="#000000" points="179.5,-.5 179.5,-30.5 310.5,-30.5 310.5,-.5 179.5,-.5"/>
<text text-anchor="start" x="187.5" y="-18.5" font-family="Helvetica,sans-Serif" font-size="10.00" fill="#000000">Uptane::PartialVerification</text>
<text text-anchor="middle" x="245" y="-7.5" font-family="Helvetica,sans-Serif" font-size="10.00" fill="#000000">Secondary</text>
</a>
</g>
</g>
<!-- Node0&#45;&gt;Node9 -->
<g id="edge9" class="edge">
<title>Node0&#45;&gt;Node9</title>
<path fill="none" stroke="#191970" d="M81.9559,-136.2901C99.8465,-111.4012 135.0914,-66.8506 175,-40.5 180.7075,-36.7315 187.0521,-33.4518 193.5254,-30.6201"/>
<polygon fill="#191970" stroke="#191970" points="78.8688,-134.5953 75.9754,-144.7874 84.5932,-138.6242 78.8688,-134.5953"/>
</g>
<!-- Node7 -->
<g id="node8" class="node">
<title>Node7</title>
<g id="a_node8"><a xlink:href="class_uptane_1_1_virtual_secondary.html" target="_top" xlink:title="Uptane::VirtualSecondary">
<polygon fill="#ffffff" stroke="#000000" points="351,-88 351,-107 479,-107 479,-88 351,-88"/>
<text text-anchor="middle" x="415" y="-95" font-family="Helvetica,sans-Serif" font-size="10.00" fill="#000000">Uptane::VirtualSecondary</text>
</a>
</g>
</g>
<!-- Node6&#45;&gt;Node7 -->
<g id="edge7" class="edge">
<title>Node6&#45;&gt;Node7</title>
<path fill="none" stroke="#191970" d="M325.1546,-97.5C333.7405,-97.5 342.3925,-97.5 350.7587,-97.5"/>
<polygon fill="#191970" stroke="#191970" points="325.127,-94.0001 315.127,-97.5 325.127,-101.0001 325.127,-94.0001"/>
</g>
</g>
</svg>
