<?xml version="1.0" encoding="UTF-8" standalone="no"?>
<!DOCTYPE svg PUBLIC "-//W3C//DTD SVG 1.1//EN"
 "http://www.w3.org/Graphics/SVG/1.1/DTD/svg11.dtd">
<!-- Generated by graphviz version 2.40.1 (20161225.0304)
 -->
<!-- Title: opcuabridge::CurrentTime Pages: 1 -->
<svg width="1042pt" height="198pt"
 viewBox="0.00 0.00 1042.00 198.00" xmlns="http://www.w3.org/2000/svg" xmlns:xlink="http://www.w3.org/1999/xlink">
<g id="graph0" class="graph" transform="scale(1 1) rotate(0) translate(4 194)">
<title>opcuabridge::CurrentTime</title>
<polygon fill="#ffffff" stroke="transparent" points="-4,4 -4,-194 1038,-194 1038,4 -4,4"/>
<!-- Node1 -->
<g id="node1" class="node">
<title>Node1</title>
<polygon fill="#bfbfbf" stroke="#000000" points="905,-81.5 905,-100.5 1034,-100.5 1034,-81.5 905,-81.5"/>
<text text-anchor="middle" x="969.5" y="-88.5" font-family="Helvetica,sans-Serif" font-size="10.00" fill="#000000">opcuabridge::CurrentTime</text>
</g>
<!-- Node2 -->
<g id="node2" class="node">
<title>Node2</title>
<g id="a_node2"><a xlink:href="structopcuabridge_1_1_message_on_before_read_callback.html" target="_top" xlink:title="opcuabridge::MessageOnBefore\lReadCallback\&lt; opcuabridge\l::CurrentTime \&gt;">
<polygon fill="#ffffff" stroke="#000000" points="622,-148.5 622,-189.5 778,-189.5 778,-148.5 622,-148.5"/>
<text text-anchor="start" x="630" y="-177.5" font-family="Helvetica,sans-Serif" font-size="10.00" fill="#000000">opcuabridge::MessageOnBefore</text>
<text text-anchor="start" x="630" y="-166.5" font-family="Helvetica,sans-Serif" font-size="10.00" fill="#000000">ReadCallback&lt; opcuabridge</text>
<text text-anchor="middle" x="700" y="-155.5" font-family="Helvetica,sans-Serif" font-size="10.00" fill="#000000">::CurrentTime &gt;</text>
</a>
</g>
</g>
<!-- Node2&#45;&gt;Node1 -->
<g id="edge1" class="edge">
<title>Node2&#45;&gt;Node1</title>
<path fill="none" stroke="#9a32cd" stroke-dasharray="5,2" d="M785.8657,-145.7829C817.7003,-137.0017 854.0623,-126.7667 887,-117 904.7092,-111.7489 924.4461,-105.5416 940.1741,-100.5093"/>
<polygon fill="#9a32cd" stroke="#9a32cd" points="784.853,-142.4314 776.1401,-148.4593 786.7104,-149.1805 784.853,-142.4314"/>
<text text-anchor="middle" x="841.5" y="-144" font-family="Helvetica,sans-Serif" font-size="10.00" fill="#000000"> on_before_read_cb_</text>
</g>
<!-- Node3 -->
<g id="node3" class="node">
<title>Node3</title>
<g id="a_node3"><a xlink:href="structopcuabridge_1_1_message_on_after_write_callback.html" target="_top" xlink:title="opcuabridge::MessageOnAfter\lWriteCallback\&lt; opcuabridge\l::CurrentTime \&gt;">
<polygon fill="#ffffff" stroke="#000000" points="625.5,-88.5 625.5,-129.5 774.5,-129.5 774.5,-88.5 625.5,-88.5"/>
<text text-anchor="start" x="633.5" y="-117.5" font-family="Helvetica,sans-Serif" font-size="10.00" fill="#000000">opcuabridge::MessageOnAfter</text>
<text text-anchor="start" x="633.5" y="-106.5" font-family="Helvetica,sans-Serif" font-size="10.00" fill="#000000">WriteCallback&lt; opcuabridge</text>
<text text-anchor="middle" x="700" y="-95.5" font-family="Helvetica,sans-Serif" font-size="10.00" fill="#000000">::CurrentTime &gt;</text>
</a>
</g>
</g>
<!-- Node3&#45;&gt;Node1 -->
<g id="edge2" class="edge">
<title>Node3&#45;&gt;Node1</title>
<path fill="none" stroke="#9a32cd" stroke-dasharray="5,2" d="M784.9321,-103.3274C823.664,-100.7404 868.7869,-97.7267 904.7217,-95.3266"/>
<polygon fill="#9a32cd" stroke="#9a32cd" points="784.4574,-99.8512 774.7129,-104.0099 784.9239,-106.8356 784.4574,-99.8512"/>
<text text-anchor="middle" x="841.5" y="-105" font-family="Helvetica,sans-Serif" font-size="10.00" fill="#000000"> on_after_write_cb_</text>
</g>
<!-- Node4 -->
<g id="node4" class="node">
<title>Node4</title>
<polygon fill="#ffffff" stroke="#bfbfbf" points="637.5,-39 637.5,-69 762.5,-69 762.5,-39 637.5,-39"/>
<text text-anchor="start" x="645.5" y="-57" font-family="Helvetica,sans-Serif" font-size="10.00" fill="#000000">std::vector&lt; opcuabridge</text>
<text text-anchor="middle" x="700" y="-46" font-family="Helvetica,sans-Serif" font-size="10.00" fill="#000000">::Signature &gt;</text>
</g>
<!-- Node4&#45;&gt;Node1 -->
<g id="edge3" class="edge">
<title>Node4&#45;&gt;Node1</title>
<path fill="none" stroke="#9a32cd" stroke-dasharray="5,2" d="M772.5055,-63.9544C813.8032,-69.6242 865.0976,-76.6665 904.9909,-82.1435"/>
<polygon fill="#9a32cd" stroke="#9a32cd" points="772.8893,-60.4743 762.5061,-62.5815 771.9371,-67.4093 772.8893,-60.4743"/>
<text text-anchor="middle" x="841.5" y="-82" font-family="Helvetica,sans-Serif" font-size="10.00" fill="#000000"> signatures_</text>
</g>
<!-- Node5 -->
<g id="node5" class="node">
<title>Node5</title>
<g id="a_node5"><a xlink:href="classopcuabridge_1_1_signature.html" target="_top" xlink:title="opcuabridge::Signature">
<polygon fill="#ffffff" stroke="#000000" points="427,-44.5 427,-63.5 543,-63.5 543,-44.5 427,-44.5"/>
<text text-anchor="middle" x="485" y="-51.5" font-family="Helvetica,sans-Serif" font-size="10.00" fill="#000000">opcuabridge::Signature</text>
</a>
</g>
</g>
<!-- Node5&#45;&gt;Node4 -->
<g id="edge4" class="edge">
<title>Node5&#45;&gt;Node4</title>
<path fill="none" stroke="#9a32cd" stroke-dasharray="5,2" d="M553.2917,-54C580.1993,-54 610.9046,-54 637.2464,-54"/>
<polygon fill="#9a32cd" stroke="#9a32cd" points="553.1821,-50.5001 543.1821,-54 553.1821,-57.5001 553.1821,-50.5001"/>
<text text-anchor="middle" x="582.5" y="-57" font-family="Helvetica,sans-Serif" font-size="10.00" fill="#000000"> elements</text>
</g>
<!-- Node6 -->
<g id="node6" class="node">
<title>Node6</title>
<g id="a_node6"><a xlink:href="classopcuabridge_1_1_hash.html" target="_top" xlink:title="opcuabridge::Hash">
<polygon fill="#ffffff" stroke="#000000" points="263,-16.5 263,-35.5 361,-35.5 361,-16.5 263,-16.5"/>
<text text-anchor="middle" x="312" y="-23.5" font-family="Helvetica,sans-Serif" font-size="10.00" fill="#000000">opcuabridge::Hash</text>
</a>
</g>
</g>
<!-- Node6&#45;&gt;Node5 -->
<g id="edge5" class="edge">
<title>Node6&#45;&gt;Node5</title>
<path fill="none" stroke="#9a32cd" stroke-dasharray="5,2" d="M371.1929,-35.5804C389.1926,-38.4936 408.95,-41.6913 426.8784,-44.593"/>
<polygon fill="#9a32cd" stroke="#9a32cd" points="371.5429,-32.0915 361.1121,-33.9488 370.4244,-39.0016 371.5429,-32.0915"/>
<text text-anchor="middle" x="394" y="-44" font-family="Helvetica,sans-Serif" font-size="10.00" fill="#000000"> hash_</text>
</g>
<!-- Node7 -->
<g id="node7" class="node">
<title>Node7</title>
<g id="a_node7"><a xlink:title="STL class. ">
<polygon fill="#ffffff" stroke="#bfbfbf" points="132,-39.5 132,-58.5 192,-58.5 192,-39.5 132,-39.5"/>
<text text-anchor="middle" x="162" y="-46.5" font-family="Helvetica,sans-Serif" font-size="10.00" fill="#000000">std::string</text>
</a>
</g>
</g>
<!-- Node7&#45;&gt;Node5 -->
<g id="edge8" class="edge">
<title>Node7&#45;&gt;Node5</title>
<path fill="none" stroke="#9a32cd" stroke-dasharray="5,2" d="M202.2365,-55.3017C204.8594,-55.5782 207.4644,-55.8161 210,-56 298.2127,-62.3983 320.5632,-57.1634 409,-56 414.8071,-55.9236 420.8631,-55.8144 426.9109,-55.6859"/>
<polygon fill="#9a32cd" stroke="#9a32cd" points="202.4903,-51.8068 192.1412,-54.0756 201.6463,-58.7558 202.4903,-51.8068"/>
<text text-anchor="middle" x="312" y="-73" font-family="Helvetica,sans-Serif" font-size="10.00" fill="#000000"> keyid_</text>
<text text-anchor="middle" x="312" y="-62" font-family="Helvetica,sans-Serif" font-size="10.00" fill="#000000">value_</text>
</g>
<!-- Node7&#45;&gt;Node6 -->
<g id="edge6" class="edge">
<title>Node7&#45;&gt;Node6</title>
<path fill="none" stroke="#9a32cd" stroke-dasharray="5,2" d="M202.2824,-42.8234C220.9031,-39.9682 243.1872,-36.5513 262.7935,-33.545"/>
<polygon fill="#9a32cd" stroke="#9a32cd" points="201.7087,-39.3703 192.3547,-44.3456 202.7697,-46.2895 201.7087,-39.3703"/>
<text text-anchor="middle" x="227.5" y="-44" font-family="Helvetica,sans-Serif" font-size="10.00" fill="#000000"> digest_</text>
</g>
<!-- Node8 -->
<g id="node8" class="node">
<title>Node8</title>
<g id="a_node8"><a xlink:title="STL class. ">
<polygon fill="#ffffff" stroke="#bfbfbf" points="0,-34 0,-64 95,-64 95,-34 0,-34"/>
<text text-anchor="start" x="8" y="-52" font-family="Helvetica,sans-Serif" font-size="10.00" fill="#000000">std::basic_string&lt;</text>
<text text-anchor="middle" x="47.5" y="-41" font-family="Helvetica,sans-Serif" font-size="10.00" fill="#000000"> char &gt;</text>
</a>
</g>
</g>
<!-- Node8&#45;&gt;Node7 -->
<g id="edge7" class="edge">
<title>Node8&#45;&gt;Node7</title>
<path fill="none" stroke="#191970" d="M105.3356,-49C114.4701,-49 123.5847,-49 131.7491,-49"/>
<polygon fill="#191970" stroke="#191970" points="105.0636,-45.5001 95.0636,-49 105.0636,-52.5001 105.0636,-45.5001"/>
</g>
<!-- Node9 -->
<g id="node9" class="node">
<title>Node9</title>
<g id="a_node9"><a xlink:href="classopcuabridge_1_1_signed.html" target="_top" xlink:title="opcuabridge::Signed">
<polygon fill="#ffffff" stroke="#000000" points="647.5,-.5 647.5,-19.5 752.5,-19.5 752.5,-.5 647.5,-.5"/>
<text text-anchor="middle" x="700" y="-7.5" font-family="Helvetica,sans-Serif" font-size="10.00" fill="#000000">opcuabridge::Signed</text>
</a>
</g>
</g>
<!-- Node9&#45;&gt;Node1 -->
<g id="edge9" class="edge">
<title>Node9&#45;&gt;Node1</title>
<path fill="none" stroke="#9a32cd" stroke-dasharray="5,2" d="M762.8679,-21.0997C799.5835,-28.4086 846.5103,-39.1843 887,-53 909.9835,-60.8423 935.1699,-73.0007 951.5916,-81.4444"/>
<polygon fill="#9a32cd" stroke="#9a32cd" points="763.2827,-17.6146 752.7968,-19.1306 761.9393,-24.4845 763.2827,-17.6146"/>
<text text-anchor="middle" x="841.5" y="-56" font-family="Helvetica,sans-Serif" font-size="10.00" fill="#000000"> signed_</text>
</g>
<!-- Node10 -->
<g id="node10" class="node">
<title>Node10</title>
<polygon fill="#ffffff" stroke="#bfbfbf" points="439,-.5 439,-19.5 531,-19.5 531,-.5 439,-.5"/>
<text text-anchor="middle" x="485" y="-7.5" font-family="Helvetica,sans-Serif" font-size="10.00" fill="#000000">std::vector&lt; int &gt;</text>
</g>
<!-- Node10&#45;&gt;Node9 -->
<g id="edge10" class="edge">
<title>Node10&#45;&gt;Node9</title>
<path fill="none" stroke="#9a32cd" stroke-dasharray="5,2" d="M541.4318,-10C574.1392,-10 615.0627,-10 647.1426,-10"/>
<polygon fill="#9a32cd" stroke="#9a32cd" points="541.1229,-6.5001 531.1229,-10 541.1229,-13.5001 541.1229,-6.5001"/>
<text text-anchor="middle" x="582.5" y="-13" font-family="Helvetica,sans-Serif" font-size="10.00" fill="#000000"> tokens_</text>
</g>
</g>
</svg>
