<?xml version="1.0" encoding="UTF-8" standalone="no"?>
<!DOCTYPE svg PUBLIC "-//W3C//DTD SVG 1.1//EN"
 "http://www.w3.org/Graphics/SVG/1.1/DTD/svg11.dtd">
<!-- Generated by graphviz version 2.40.1 (20161225.0304)
 -->
<!-- Title: Repo Pages: 1 -->
<svg width="414pt" height="352pt"
 viewBox="0.00 0.00 414.00 352.00" xmlns="http://www.w3.org/2000/svg" xmlns:xlink="http://www.w3.org/1999/xlink">
<g id="graph0" class="graph" transform="scale(1 1) rotate(0) translate(4 348)">
<title>Repo</title>
<polygon fill="#ffffff" stroke="transparent" points="-4,4 -4,-348 410,-348 410,4 -4,4"/>
<!-- Node3 -->
<g id="node1" class="node">
<title>Node3</title>
<polygon fill="#bfbfbf" stroke="#000000" points="234.5,-.5 234.5,-19.5 274.5,-19.5 274.5,-.5 234.5,-.5"/>
<text text-anchor="middle" x="254.5" y="-7.5" font-family="Helvetica,sans-Serif" font-size="10.00" fill="#000000">Repo</text>
</g>
<!-- Node4 -->
<g id="node2" class="node">
<title>Node4</title>
<polygon fill="#ffffff" stroke="#bfbfbf" points="101,-67.5 101,-97.5 226,-97.5 226,-67.5 101,-67.5"/>
<text text-anchor="start" x="109" y="-85.5" font-family="Helvetica,sans-Serif" font-size="10.00" fill="#000000">std::map&lt; Uptane::Role,</text>
<text text-anchor="middle" x="163.5" y="-74.5" font-family="Helvetica,sans-Serif" font-size="10.00" fill="#000000"> KeyPair &gt;</text>
</g>
<!-- Node4&#45;&gt;Node3 -->
<g id="edge1" class="edge">
<title>Node4&#45;&gt;Node3</title>
<path fill="none" stroke="#9a32cd" stroke-dasharray="5,2" d="M185.3056,-60.1967C192.985,-52.7985 201.8611,-44.7381 210.5,-38 219.0675,-31.3176 229.2709,-24.7477 237.6941,-19.653"/>
<polygon fill="#9a32cd" stroke="#9a32cd" points="182.7565,-57.7946 178.0782,-67.3006 187.6634,-62.7869 182.7565,-57.7946"/>
<text text-anchor="middle" x="225.5" y="-41" font-family="Helvetica,sans-Serif" font-size="10.00" fill="#000000"> keys_</text>
</g>
<!-- Node5 -->
<g id="node3" class="node">
<title>Node5</title>
<g id="a_node3"><a xlink:href="struct_key_pair.html" target="_top" xlink:title="KeyPair">
<polygon fill="#ffffff" stroke="#000000" points="74,-156.5 74,-175.5 125,-175.5 125,-156.5 74,-156.5"/>
<text text-anchor="middle" x="99.5" y="-163.5" font-family="Helvetica,sans-Serif" font-size="10.00" fill="#000000">KeyPair</text>
</a>
</g>
</g>
<!-- Node5&#45;&gt;Node4 -->
<g id="edge2" class="edge">
<title>Node5&#45;&gt;Node4</title>
<path fill="none" stroke="#9a32cd" stroke-dasharray="5,2" d="M106.2984,-147.1574C110.3899,-137.2993 116.2214,-125.3675 123.5,-116 128.7243,-109.2764 135.5051,-102.9737 141.9949,-97.6894"/>
<polygon fill="#9a32cd" stroke="#9a32cd" points="103.0334,-145.8968 102.6769,-156.4857 109.5589,-148.4303 103.0334,-145.8968"/>
<text text-anchor="middle" x="145" y="-124.5" font-family="Helvetica,sans-Serif" font-size="10.00" fill="#000000"> elements</text>
</g>
<!-- Node6 -->
<g id="node4" class="node">
<title>Node6</title>
<g id="a_node4"><a xlink:title="STL class. ">
<polygon fill="#ffffff" stroke="#bfbfbf" points="150.5,-256.5 150.5,-275.5 210.5,-275.5 210.5,-256.5 150.5,-256.5"/>
<text text-anchor="middle" x="180.5" y="-263.5" font-family="Helvetica,sans-Serif" font-size="10.00" fill="#000000">std::string</text>
</a>
</g>
</g>
<!-- Node6&#45;&gt;Node3 -->
<g id="edge9" class="edge">
<title>Node6&#45;&gt;Node3</title>
<path fill="none" stroke="#9a32cd" stroke-dasharray="5,2" d="M220.2037,-254.792C228.1238,-250.7515 235.5248,-245.3076 240.5,-238 288.7085,-167.1921 265.532,-53.5561 257.1123,-19.7736"/>
<polygon fill="#9a32cd" stroke="#9a32cd" points="218.5379,-251.7006 210.7818,-258.9182 221.346,-258.1126 218.5379,-251.7006"/>
<text text-anchor="middle" x="307" y="-130" font-family="Helvetica,sans-Serif" font-size="10.00" fill="#000000"> expiration_time_</text>
<text text-anchor="middle" x="307" y="-119" font-family="Helvetica,sans-Serif" font-size="10.00" fill="#000000">correlation_id_</text>
</g>
<!-- Node6&#45;&gt;Node5 -->
<g id="edge3" class="edge">
<title>Node6&#45;&gt;Node5</title>
<path fill="none" stroke="#9a32cd" stroke-dasharray="5,2" d="M140.8927,-252.2892C134.0568,-248.51 127.5406,-243.804 122.5,-238 106.668,-219.7701 101.7126,-190.5504 100.1776,-175.5563"/>
<polygon fill="#9a32cd" stroke="#9a32cd" points="139.7821,-255.6418 150.3038,-256.8842 142.8533,-249.3515 139.7821,-255.6418"/>
<text text-anchor="middle" x="149.5" y="-213.5" font-family="Helvetica,sans-Serif" font-size="10.00" fill="#000000"> private_key</text>
</g>
<!-- Node9 -->
<g id="node7" class="node">
<title>Node9</title>
<g id="a_node7"><a xlink:href="class_uptane_1_1_role.html" target="_top" xlink:title="TUF Roles. ">
<polygon fill="#ffffff" stroke="#000000" points="143.5,-156.5 143.5,-175.5 217.5,-175.5 217.5,-156.5 143.5,-156.5"/>
<text text-anchor="middle" x="180.5" y="-163.5" font-family="Helvetica,sans-Serif" font-size="10.00" fill="#000000">Uptane::Role</text>
</a>
</g>
</g>
<!-- Node6&#45;&gt;Node9 -->
<g id="edge7" class="edge">
<title>Node6&#45;&gt;Node9</title>
<path fill="none" stroke="#9a32cd" stroke-dasharray="5,2" d="M180.5,-246.2332C180.5,-224.9448 180.5,-191.9485 180.5,-175.7063"/>
<polygon fill="#9a32cd" stroke="#9a32cd" points="177.0001,-246.4115 180.5,-256.4116 184.0001,-246.4116 177.0001,-246.4115"/>
<text text-anchor="middle" x="210" y="-230" font-family="Helvetica,sans-Serif" font-size="10.00" fill="#000000"> ROOT</text>
<text text-anchor="middle" x="210" y="-219" font-family="Helvetica,sans-Serif" font-size="10.00" fill="#000000">TIMESTAMP</text>
<text text-anchor="middle" x="210" y="-208" font-family="Helvetica,sans-Serif" font-size="10.00" fill="#000000">SNAPSHOT</text>
<text text-anchor="middle" x="210" y="-197" font-family="Helvetica,sans-Serif" font-size="10.00" fill="#000000">TARGETS</text>
</g>
<!-- Node7 -->
<g id="node5" class="node">
<title>Node7</title>
<g id="a_node5"><a xlink:title="STL class. ">
<polygon fill="#ffffff" stroke="#bfbfbf" points="133,-313.5 133,-343.5 228,-343.5 228,-313.5 133,-313.5"/>
<text text-anchor="start" x="141" y="-331.5" font-family="Helvetica,sans-Serif" font-size="10.00" fill="#000000">std::basic_string&lt;</text>
<text text-anchor="middle" x="180.5" y="-320.5" font-family="Helvetica,sans-Serif" font-size="10.00" fill="#000000"> char &gt;</text>
</a>
</g>
</g>
<!-- Node7&#45;&gt;Node6 -->
<g id="edge4" class="edge">
<title>Node7&#45;&gt;Node6</title>
<path fill="none" stroke="#191970" d="M180.5,-303.3498C180.5,-293.6481 180.5,-283.1303 180.5,-275.7356"/>
<polygon fill="#191970" stroke="#191970" points="177.0001,-303.3705 180.5,-313.3705 184.0001,-303.3705 177.0001,-303.3705"/>
</g>
<!-- Node8 -->
<g id="node6" class="node">
<title>Node8</title>
<g id="a_node6"><a xlink:href="class_public_key.html" target="_top" xlink:title="PublicKey">
<polygon fill="#ffffff" stroke="#000000" points="0,-256.5 0,-275.5 61,-275.5 61,-256.5 0,-256.5"/>
<text text-anchor="middle" x="30.5" y="-263.5" font-family="Helvetica,sans-Serif" font-size="10.00" fill="#000000">PublicKey</text>
</a>
</g>
</g>
<!-- Node8&#45;&gt;Node5 -->
<g id="edge5" class="edge">
<title>Node8&#45;&gt;Node5</title>
<path fill="none" stroke="#9a32cd" stroke-dasharray="5,2" d="M25.2383,-246.0486C22.3637,-230.5224 21.2071,-209.1411 31.5,-194 40.9745,-180.0627 58.7575,-173.0539 73.7619,-169.5341"/>
<polygon fill="#9a32cd" stroke="#9a32cd" points="21.8983,-247.151 27.496,-256.1464 28.7296,-245.6236 21.8983,-247.151"/>
<text text-anchor="middle" x="56.5" y="-213.5" font-family="Helvetica,sans-Serif" font-size="10.00" fill="#000000"> public_key</text>
</g>
<!-- Node9&#45;&gt;Node4 -->
<g id="edge6" class="edge">
<title>Node9&#45;&gt;Node4</title>
<path fill="none" stroke="#9a32cd" stroke-dasharray="5,2" d="M176.4775,-146.2427C173.4445,-131.345 169.3469,-111.2186 166.5736,-97.597"/>
<polygon fill="#9a32cd" stroke="#9a32cd" points="173.1252,-147.3208 178.5499,-156.4215 179.9844,-145.9242 173.1252,-147.3208"/>
<text text-anchor="middle" x="188" y="-124.5" font-family="Helvetica,sans-Serif" font-size="10.00" fill="#000000"> keys</text>
</g>
<!-- Node10 -->
<g id="node8" class="node">
<title>Node10</title>
<g id="a_node8"><a xlink:href="class_uptane_1_1_repository_type.html" target="_top" xlink:title="Uptane::RepositoryType">
<polygon fill="#ffffff" stroke="#000000" points="283,-73 283,-92 406,-92 406,-73 283,-73"/>
<text text-anchor="middle" x="344.5" y="-80" font-family="Helvetica,sans-Serif" font-size="10.00" fill="#000000">Uptane::RepositoryType</text>
</a>
</g>
</g>
<!-- Node10&#45;&gt;Node3 -->
<g id="edge8" class="edge">
<title>Node10&#45;&gt;Node3</title>
<path fill="none" stroke="#9a32cd" stroke-dasharray="5,2" d="M324.3118,-66.2373C306.5193,-51.9044 281.1983,-31.507 266.4455,-19.6228"/>
<polygon fill="#9a32cd" stroke="#9a32cd" points="322.379,-69.1746 332.3622,-72.7223 326.7703,-63.7233 322.379,-69.1746"/>
<text text-anchor="middle" x="327.5" y="-41" font-family="Helvetica,sans-Serif" font-size="10.00" fill="#000000"> repo_type_</text>
</g>
</g>
</svg>
