<?xml version="1.0" encoding="UTF-8" standalone="no"?>
<!DOCTYPE svg PUBLIC "-//W3C//DTD SVG 1.1//EN"
 "http://www.w3.org/Graphics/SVG/1.1/DTD/svg11.dtd">
<!-- Generated by graphviz version 2.40.1 (20161225.0304)
 -->
<!-- Title: opcuabridge::Configuration Pages: 1 -->
<svg width="556pt" height="224pt"
 viewBox="0.00 0.00 556.00 224.00" xmlns="http://www.w3.org/2000/svg" xmlns:xlink="http://www.w3.org/1999/xlink">
<g id="graph0" class="graph" transform="scale(1 1) rotate(0) translate(4 220)">
<title>opcuabridge::Configuration</title>
<polygon fill="#ffffff" stroke="transparent" points="-4,4 -4,-220 552,-220 552,4 -4,4"/>
<!-- Node1 -->
<g id="node1" class="node">
<title>Node1</title>
<polygon fill="#bfbfbf" stroke="#000000" points="415,-98.5 415,-117.5 548,-117.5 548,-98.5 415,-98.5"/>
<text text-anchor="middle" x="481.5" y="-105.5" font-family="Helvetica,sans-Serif" font-size="10.00" fill="#000000">opcuabridge::Configuration</text>
</g>
<!-- Node2 -->
<g id="node2" class="node">
<title>Node2</title>
<g id="a_node2"><a xlink:href="structopcuabridge_1_1_message_on_after_write_callback.html" target="_top" xlink:title="opcuabridge::MessageOnAfter\lWriteCallback\&lt; opcuabridge\l::Configuration \&gt;">
<polygon fill="#ffffff" stroke="#000000" points="135.5,-174.5 135.5,-215.5 284.5,-215.5 284.5,-174.5 135.5,-174.5"/>
<text text-anchor="start" x="143.5" y="-203.5" font-family="Helvetica,sans-Serif" font-size="10.00" fill="#000000">opcuabridge::MessageOnAfter</text>
<text text-anchor="start" x="143.5" y="-192.5" font-family="Helvetica,sans-Serif" font-size="10.00" fill="#000000">WriteCallback&lt; opcuabridge</text>
<text text-anchor="middle" x="210" y="-181.5" font-family="Helvetica,sans-Serif" font-size="10.00" fill="#000000">::Configuration &gt;</text>
</a>
</g>
</g>
<!-- Node2&#45;&gt;Node1 -->
<g id="edge1" class="edge">
<title>Node2&#45;&gt;Node1</title>
<path fill="none" stroke="#9a32cd" stroke-dasharray="5,2" d="M294.6957,-178.1419C327.1458,-170.6543 364.227,-160.8322 397,-149 421.2323,-140.2513 447.7406,-126.684 464.4849,-117.5787"/>
<polygon fill="#9a32cd" stroke="#9a32cd" points="293.7616,-174.7648 284.7836,-180.3904 295.3102,-181.5914 293.7616,-174.7648"/>
<text text-anchor="middle" x="351.5" y="-178" font-family="Helvetica,sans-Serif" font-size="10.00" fill="#000000"> on_after_write_cb_</text>
</g>
<!-- Node3 -->
<g id="node3" class="node">
<title>Node3</title>
<g id="a_node3"><a xlink:href="class_uptane_1_1_hardware_identifier.html" target="_top" xlink:title="Uptane::HardwareIdentifier">
<polygon fill="#ffffff" stroke="#000000" points="143,-136.5 143,-155.5 277,-155.5 277,-136.5 143,-136.5"/>
<text text-anchor="middle" x="210" y="-143.5" font-family="Helvetica,sans-Serif" font-size="10.00" fill="#000000">Uptane::HardwareIdentifier</text>
</a>
</g>
</g>
<!-- Node3&#45;&gt;Node1 -->
<g id="edge2" class="edge">
<title>Node3&#45;&gt;Node1</title>
<path fill="none" stroke="#9a32cd" stroke-dasharray="5,2" d="M287.446,-137.4128C321.1578,-133.4326 361.0894,-128.3918 397,-123 407.7561,-121.385 419.2488,-119.4714 430.1836,-117.5607"/>
<polygon fill="#9a32cd" stroke="#9a32cd" points="286.7197,-133.9738 277.1947,-138.6131 287.5339,-140.9263 286.7197,-133.9738"/>
<text text-anchor="middle" x="351.5" y="-137" font-family="Helvetica,sans-Serif" font-size="10.00" fill="#000000"> hwid_</text>
</g>
<!-- Node4 -->
<g id="node4" class="node">
<title>Node4</title>
<g id="a_node4"><a xlink:href="class_uptane_1_1_ecu_serial.html" target="_top" xlink:title="Uptane::EcuSerial">
<polygon fill="#ffffff" stroke="#000000" points="162,-98.5 162,-117.5 258,-117.5 258,-98.5 162,-98.5"/>
<text text-anchor="middle" x="210" y="-105.5" font-family="Helvetica,sans-Serif" font-size="10.00" fill="#000000">Uptane::EcuSerial</text>
</a>
</g>
</g>
<!-- Node4&#45;&gt;Node1 -->
<g id="edge3" class="edge">
<title>Node4&#45;&gt;Node1</title>
<path fill="none" stroke="#9a32cd" stroke-dasharray="5,2" d="M268.2609,-108C311.3012,-108 369.9667,-108 414.8704,-108"/>
<polygon fill="#9a32cd" stroke="#9a32cd" points="268.2259,-104.5001 258.2259,-108 268.2259,-111.5001 268.2259,-104.5001"/>
<text text-anchor="middle" x="351.5" y="-111" font-family="Helvetica,sans-Serif" font-size="10.00" fill="#000000"> serial_</text>
</g>
<!-- Node5 -->
<g id="node5" class="node">
<title>Node5</title>
<g id="a_node5"><a xlink:title="STL class. ">
<polygon fill="#ffffff" stroke="#bfbfbf" points="180,-60.5 180,-79.5 240,-79.5 240,-60.5 180,-60.5"/>
<text text-anchor="middle" x="210" y="-67.5" font-family="Helvetica,sans-Serif" font-size="10.00" fill="#000000">std::string</text>
</a>
</g>
</g>
<!-- Node5&#45;&gt;Node1 -->
<g id="edge4" class="edge">
<title>Node5&#45;&gt;Node1</title>
<path fill="none" stroke="#9a32cd" stroke-dasharray="5,2" d="M250.3212,-74.3308C288.2506,-78.5534 346.5874,-85.4308 397,-93 407.7561,-94.615 419.2488,-96.5286 430.1836,-98.4393"/>
<polygon fill="#9a32cd" stroke="#9a32cd" points="250.5117,-70.8307 240.1879,-73.2119 249.7433,-77.7884 250.5117,-70.8307"/>
<text text-anchor="middle" x="351.5" y="-96" font-family="Helvetica,sans-Serif" font-size="10.00" fill="#000000"> public_key_</text>
</g>
<!-- Node6 -->
<g id="node6" class="node">
<title>Node6</title>
<g id="a_node6"><a xlink:title="STL class. ">
<polygon fill="#ffffff" stroke="#bfbfbf" points="0,-55 0,-85 95,-85 95,-55 0,-55"/>
<text text-anchor="start" x="8" y="-73" font-family="Helvetica,sans-Serif" font-size="10.00" fill="#000000">std::basic_string&lt;</text>
<text text-anchor="middle" x="47.5" y="-62" font-family="Helvetica,sans-Serif" font-size="10.00" fill="#000000"> char &gt;</text>
</a>
</g>
</g>
<!-- Node6&#45;&gt;Node5 -->
<g id="edge5" class="edge">
<title>Node6&#45;&gt;Node5</title>
<path fill="none" stroke="#191970" d="M105.5477,-70C130.6688,-70 159.0198,-70 179.8396,-70"/>
<polygon fill="#191970" stroke="#191970" points="105.3765,-66.5001 95.3765,-70 105.3764,-73.5001 105.3765,-66.5001"/>
</g>
<!-- Node7 -->
<g id="node7" class="node">
<title>Node7</title>
<g id="a_node7"><a xlink:href="structopcuabridge_1_1_message_on_before_read_callback.html" target="_top" xlink:title="opcuabridge::MessageOnBefore\lReadCallback\&lt; opcuabridge\l::Configuration \&gt;">
<polygon fill="#ffffff" stroke="#000000" points="132,-.5 132,-41.5 288,-41.5 288,-.5 132,-.5"/>
<text text-anchor="start" x="140" y="-29.5" font-family="Helvetica,sans-Serif" font-size="10.00" fill="#000000">opcuabridge::MessageOnBefore</text>
<text text-anchor="start" x="140" y="-18.5" font-family="Helvetica,sans-Serif" font-size="10.00" fill="#000000">ReadCallback&lt; opcuabridge</text>
<text text-anchor="middle" x="210" y="-7.5" font-family="Helvetica,sans-Serif" font-size="10.00" fill="#000000">::Configuration &gt;</text>
</a>
</g>
</g>
<!-- Node7&#45;&gt;Node1 -->
<g id="edge6" class="edge">
<title>Node7&#45;&gt;Node1</title>
<path fill="none" stroke="#9a32cd" stroke-dasharray="5,2" d="M298.153,-37.9231C329.786,-45.1135 365.4259,-54.5205 397,-66 421.6341,-74.9563 448.4834,-89.1235 465.1562,-98.4894"/>
<polygon fill="#9a32cd" stroke="#9a32cd" points="298.5556,-34.427 288.0336,-35.6667 297.0321,-41.2592 298.5556,-34.427"/>
<text text-anchor="middle" x="351.5" y="-69" font-family="Helvetica,sans-Serif" font-size="10.00" fill="#000000"> on_before_read_cb_</text>
</g>
</g>
</svg>
