<?xml version="1.0" encoding="UTF-8" standalone="no"?>
<!DOCTYPE svg PUBLIC "-//W3C//DTD SVG 1.1//EN"
 "http://www.w3.org/Graphics/SVG/1.1/DTD/svg11.dtd">
<!-- Generated by graphviz version 2.40.1 (20161225.0304)
 -->
<!-- Title: opcuabridge::Configuration Pages: 1 -->
<!--zoomable 224 -->
<svg id="main" version="1.1" xmlns="http://www.w3.org/2000/svg" xmlns:xlink="http://www.w3.org/1999/xlink" xml:space="preserve" onload="init(evt)">
<style type="text/css"><![CDATA[
.edge:hover path { stroke: red; }
.edge:hover polygon { stroke: red; fill: red; }
]]></style>
<script type="text/javascript"><![CDATA[
var edges = document.getElementsByTagName('g');
if (edges && edges.length) {
  for (var i=0;i<edges.length;i++) {
    if (edges[i].id.substr(0,4)=='edge') {
      edges[i].setAttribute('class','edge');
    }
  }
}
]]></script>
        <defs>
                <circle id="rim" cx="0" cy="0" r="7"/>
                <circle id="rim2" cx="0" cy="0" r="3.5"/>
                <g id="zoomPlus">
                        <use xlink:href="#rim" fill="#404040">
                                <set attributeName="fill" to="#808080" begin="zoomplus.mouseover" end="zoomplus.mouseout"/>
                        </use>
                        <path d="M-4,0h8M0,-4v8" fill="none" stroke="white" stroke-width="1.5" pointer-events="none"/>
                </g>
                <g id="zoomMin">
                        <use xlink:href="#rim" fill="#404040">
                                <set attributeName="fill" to="#808080" begin="zoomminus.mouseover" end="zoomminus.mouseout"/>
                        </use>
                        <path d="M-4,0h8" fill="none" stroke="white" stroke-width="1.5" pointer-events="none"/>
                </g>
                <g id="dirArrow">
                        <path fill="none" stroke="white" stroke-width="1.5" d="M0,-3.0v7 M-2.5,-0.5L0,-3.0L2.5,-0.5"/>
                </g>
               <g id="resetDef">
                       <use xlink:href="#rim2" fill="#404040">
                               <set attributeName="fill" to="#808080" begin="reset.mouseover" end="reset.mouseout"/>
                       </use>
               </g>
        </defs>

<script type="text/javascript">
var viewWidth = 556;
var viewHeight = 224;
var sectionId = 'dynsection-0';
</script>
<script xlink:href="svgpan.js"/>
<svg id="graph" class="graph">
<g id="viewport">
<title>opcuabridge::Configuration</title>
<polygon fill="#ffffff" stroke="transparent" points="-4,4 -4,-220 552,-220 552,4 -4,4"/>
<!-- Node1 -->
<g id="node1" class="node">
<title>Node1</title>
<polygon fill="#bfbfbf" stroke="#000000" points="415,-98.5 415,-117.5 548,-117.5 548,-98.5 415,-98.5"/>
<text text-anchor="middle" x="481.5" y="-105.5" font-family="Helvetica,sans-Serif" font-size="10.00" fill="#000000">opcuabridge::Configuration</text>
</g>
<!-- Node2 -->
<g id="node2" class="node">
<title>Node2</title>
<g id="a_node2"><a xlink:href="structopcuabridge_1_1_message_on_after_write_callback.html" target="_top" xlink:title="opcuabridge::MessageOnAfter\lWriteCallback\&lt; opcuabridge\l::Configuration \&gt;">
<polygon fill="#ffffff" stroke="#000000" points="135.5,-174.5 135.5,-215.5 284.5,-215.5 284.5,-174.5 135.5,-174.5"/>
<text text-anchor="start" x="143.5" y="-203.5" font-family="Helvetica,sans-Serif" font-size="10.00" fill="#000000">opcuabridge::MessageOnAfter</text>
<text text-anchor="start" x="143.5" y="-192.5" font-family="Helvetica,sans-Serif" font-size="10.00" fill="#000000">WriteCallback&lt; opcuabridge</text>
<text text-anchor="middle" x="210" y="-181.5" font-family="Helvetica,sans-Serif" font-size="10.00" fill="#000000">::Configuration &gt;</text>
</a>
</g>
</g>
<!-- Node2&#45;&gt;Node1 -->
<g id="edge1" class="edge">
<title>Node2&#45;&gt;Node1</title>
<path fill="none" stroke="#9a32cd" stroke-dasharray="5,2" d="M294.6957,-178.1419C327.1458,-170.6543 364.227,-160.8322 397,-149 421.2323,-140.2513 447.7406,-126.684 464.4849,-117.5787"/>
<polygon fill="#9a32cd" stroke="#9a32cd" points="293.7616,-174.7648 284.7836,-180.3904 295.3102,-181.5914 293.7616,-174.7648"/>
<text text-anchor="middle" x="351.5" y="-178" font-family="Helvetica,sans-Serif" font-size="10.00" fill="#000000"> on_after_write_cb_</text>
</g>
<!-- Node3 -->
<g id="node3" class="node">
<title>Node3</title>
<g id="a_node3"><a xlink:href="class_uptane_1_1_hardware_identifier.html" target="_top" xlink:title="Uptane::HardwareIdentifier">
<polygon fill="#ffffff" stroke="#000000" points="143,-136.5 143,-155.5 277,-155.5 277,-136.5 143,-136.5"/>
<text text-anchor="middle" x="210" y="-143.5" font-family="Helvetica,sans-Serif" font-size="10.00" fill="#000000">Uptane::HardwareIdentifier</text>
</a>
</g>
</g>
<!-- Node3&#45;&gt;Node1 -->
<g id="edge2" class="edge">
<title>Node3&#45;&gt;Node1</title>
<path fill="none" stroke="#9a32cd" stroke-dasharray="5,2" d="M287.446,-137.4128C321.1578,-133.4326 361.0894,-128.3918 397,-123 407.7561,-121.385 419.2488,-119.4714 430.1836,-117.5607"/>
<polygon fill="#9a32cd" stroke="#9a32cd" points="286.7197,-133.9738 277.1947,-138.6131 287.5339,-140.9263 286.7197,-133.9738"/>
<text text-anchor="middle" x="351.5" y="-137" font-family="Helvetica,sans-Serif" font-size="10.00" fill="#000000"> hwid_</text>
</g>
<!-- Node4 -->
<g id="node4" class="node">
<title>Node4</title>
<g id="a_node4"><a xlink:href="class_uptane_1_1_ecu_serial.html" target="_top" xlink:title="Uptane::EcuSerial">
<polygon fill="#ffffff" stroke="#000000" points="162,-98.5 162,-117.5 258,-117.5 258,-98.5 162,-98.5"/>
<text text-anchor="middle" x="210" y="-105.5" font-family="Helvetica,sans-Serif" font-size="10.00" fill="#000000">Uptane::EcuSerial</text>
</a>
</g>
</g>
<!-- Node4&#45;&gt;Node1 -->
<g id="edge3" class="edge">
<title>Node4&#45;&gt;Node1</title>
<path fill="none" stroke="#9a32cd" stroke-dasharray="5,2" d="M268.2609,-108C311.3012,-108 369.9667,-108 414.8704,-108"/>
<polygon fill="#9a32cd" stroke="#9a32cd" points="268.2259,-104.5001 258.2259,-108 268.2259,-111.5001 268.2259,-104.5001"/>
<text text-anchor="middle" x="351.5" y="-111" font-family="Helvetica,sans-Serif" font-size="10.00" fill="#000000"> serial_</text>
</g>
<!-- Node5 -->
<g id="node5" class="node">
<title>Node5</title>
<g id="a_node5"><a xlink:title="STL class. ">
<polygon fill="#ffffff" stroke="#bfbfbf" points="180,-60.5 180,-79.5 240,-79.5 240,-60.5 180,-60.5"/>
<text text-anchor="middle" x="210" y="-67.5" font-family="Helvetica,sans-Serif" font-size="10.00" fill="#000000">std::string</text>
</a>
</g>
</g>
<!-- Node5&#45;&gt;Node1 -->
<g id="edge4" class="edge">
<title>Node5&#45;&gt;Node1</title>
<path fill="none" stroke="#9a32cd" stroke-dasharray="5,2" d="M250.3212,-74.3308C288.2506,-78.5534 346.5874,-85.4308 397,-93 407.7561,-94.615 419.2488,-96.5286 430.1836,-98.4393"/>
<polygon fill="#9a32cd" stroke="#9a32cd" points="250.5117,-70.8307 240.1879,-73.2119 249.7433,-77.7884 250.5117,-70.8307"/>
<text text-anchor="middle" x="351.5" y="-96" font-family="Helvetica,sans-Serif" font-size="10.00" fill="#000000"> public_key_</text>
</g>
<!-- Node6 -->
<g id="node6" class="node">
<title>Node6</title>
<g id="a_node6"><a xlink:title="STL class. ">
<polygon fill="#ffffff" stroke="#bfbfbf" points="0,-55 0,-85 95,-85 95,-55 0,-55"/>
<text text-anchor="start" x="8" y="-73" font-family="Helvetica,sans-Serif" font-size="10.00" fill="#000000">std::basic_string&lt;</text>
<text text-anchor="middle" x="47.5" y="-62" font-family="Helvetica,sans-Serif" font-size="10.00" fill="#000000"> char &gt;</text>
</a>
</g>
</g>
<!-- Node6&#45;&gt;Node5 -->
<g id="edge5" class="edge">
<title>Node6&#45;&gt;Node5</title>
<path fill="none" stroke="#191970" d="M105.5477,-70C130.6688,-70 159.0198,-70 179.8396,-70"/>
<polygon fill="#191970" stroke="#191970" points="105.3765,-66.5001 95.3765,-70 105.3764,-73.5001 105.3765,-66.5001"/>
</g>
<!-- Node7 -->
<g id="node7" class="node">
<title>Node7</title>
<g id="a_node7"><a xlink:href="structopcuabridge_1_1_message_on_before_read_callback.html" target="_top" xlink:title="opcuabridge::MessageOnBefore\lReadCallback\&lt; opcuabridge\l::Configuration \&gt;">
<polygon fill="#ffffff" stroke="#000000" points="132,-.5 132,-41.5 288,-41.5 288,-.5 132,-.5"/>
<text text-anchor="start" x="140" y="-29.5" font-family="Helvetica,sans-Serif" font-size="10.00" fill="#000000">opcuabridge::MessageOnBefore</text>
<text text-anchor="start" x="140" y="-18.5" font-family="Helvetica,sans-Serif" font-size="10.00" fill="#000000">ReadCallback&lt; opcuabridge</text>
<text text-anchor="middle" x="210" y="-7.5" font-family="Helvetica,sans-Serif" font-size="10.00" fill="#000000">::Configuration &gt;</text>
</a>
</g>
</g>
<!-- Node7&#45;&gt;Node1 -->
<g id="edge6" class="edge">
<title>Node7&#45;&gt;Node1</title>
<path fill="none" stroke="#9a32cd" stroke-dasharray="5,2" d="M298.153,-37.9231C329.786,-45.1135 365.4259,-54.5205 397,-66 421.6341,-74.9563 448.4834,-89.1235 465.1562,-98.4894"/>
<polygon fill="#9a32cd" stroke="#9a32cd" points="298.5556,-34.427 288.0336,-35.6667 297.0321,-41.2592 298.5556,-34.427"/>
<text text-anchor="middle" x="351.5" y="-69" font-family="Helvetica,sans-Serif" font-size="10.00" fill="#000000"> on_before_read_cb_</text>
</g>
</g>
</svg>
        <g id="navigator" transform="translate(0 0)" fill="#404254">
                <rect fill="#f2f5e9" fill-opacity="0.5" stroke="#606060" stroke-width=".5" x="0" y="0" width="60" height="60"/>
                <use id="zoomplus" xlink:href="#zoomPlus" x="17" y="9" onmousedown="handleZoom(evt,'in')"/>
                <use id="zoomminus" xlink:href="#zoomMin" x="42" y="9" onmousedown="handleZoom(evt,'out')"/>
                <use id="reset" xlink:href="#resetDef" x="30" y="36" onmousedown="handleReset()"/>
                <g id="arrowUp" xlink:href="#dirArrow" transform="translate(30 24)" onmousedown="handlePan(0,-1)">
                  <use xlink:href="#rim" fill="#404040">
                        <set attributeName="fill" to="#808080" begin="arrowUp.mouseover" end="arrowUp.mouseout"/>
                  </use>
                  <path fill="none" stroke="white" stroke-width="1.5" d="M0,-3.0v7 M-2.5,-0.5L0,-3.0L2.5,-0.5"/>
                </g>
                <g id="arrowRight" xlink:href="#dirArrow" transform="rotate(90) translate(36 -43)" onmousedown="handlePan(1,0)">
                  <use xlink:href="#rim" fill="#404040">
                        <set attributeName="fill" to="#808080" begin="arrowRight.mouseover" end="arrowRight.mouseout"/>
                  </use>
                  <path fill="none" stroke="white" stroke-width="1.5" d="M0,-3.0v7 M-2.5,-0.5L0,-3.0L2.5,-0.5"/>
                </g>
                <g id="arrowDown" xlink:href="#dirArrow" transform="rotate(180) translate(-30 -48)" onmousedown="handlePan(0,1)">
                  <use xlink:href="#rim" fill="#404040">
                        <set attributeName="fill" to="#808080" begin="arrowDown.mouseover" end="arrowDown.mouseout"/>
                  </use>
                  <path fill="none" stroke="white" stroke-width="1.5" d="M0,-3.0v7 M-2.5,-0.5L0,-3.0L2.5,-0.5"/>
                </g>
                <g id="arrowLeft" xlink:href="#dirArrow" transform="rotate(270) translate(-36 17)" onmousedown="handlePan(-1,0)">
                  <use xlink:href="#rim" fill="#404040">
                        <set attributeName="fill" to="#808080" begin="arrowLeft.mouseover" end="arrowLeft.mouseout"/>
                  </use>
                  <path fill="none" stroke="white" stroke-width="1.5" d="M0,-3.0v7 M-2.5,-0.5L0,-3.0L2.5,-0.5"/>
                </g>
        </g>
        <svg viewBox="0 0 15 15" width="100%" height="30px" preserveAspectRatio="xMaxYMin meet">
         <g id="arrow_out" transform="scale(0.3 0.3)">
          <a xlink:href="classopcuabridge_1_1_configuration__coll__graph_org.svg" target="_base">
           <rect id="button" ry="5" rx="5" y="6" x="6" height="38" width="38"
                fill="#f2f5e9" fill-opacity="0.5" stroke="#606060" stroke-width="1.0"/>
           <path id="arrow"
             d="M 11.500037,31.436501 C 11.940474,20.09759 22.043105,11.32322 32.158766,21.979434 L 37.068811,17.246167 C 37.068811,17.246167 37.088388,32 37.088388,32 L 22.160133,31.978069 C 22.160133,31.978069 26.997745,27.140456 26.997745,27.140456 C 18.528582,18.264221 13.291696,25.230495 11.500037,31.436501 z"
             style="fill:#404040;"/>
          </a>
         </g>
        </svg>
</svg>
