<?xml version="1.0" encoding="UTF-8" standalone="no"?>
<!DOCTYPE svg PUBLIC "-//W3C//DTD SVG 1.1//EN"
 "http://www.w3.org/Graphics/SVG/1.1/DTD/svg11.dtd">
<!-- Generated by graphviz version 2.40.1 (20161225.0304)
 -->
<!-- Title: Config Pages: 1 -->
<!--zoomable 592 -->
<svg id="main" version="1.1" xmlns="http://www.w3.org/2000/svg" xmlns:xlink="http://www.w3.org/1999/xlink" xml:space="preserve" onload="init(evt)">
<style type="text/css"><![CDATA[
.edge:hover path { stroke: red; }
.edge:hover polygon { stroke: red; fill: red; }
]]></style>
<script type="text/javascript"><![CDATA[
var edges = document.getElementsByTagName('g');
if (edges && edges.length) {
  for (var i=0;i<edges.length;i++) {
    if (edges[i].id.substr(0,4)=='edge') {
      edges[i].setAttribute('class','edge');
    }
  }
}
]]></script>
        <defs>
                <circle id="rim" cx="0" cy="0" r="7"/>
                <circle id="rim2" cx="0" cy="0" r="3.5"/>
                <g id="zoomPlus">
                        <use xlink:href="#rim" fill="#404040">
                                <set attributeName="fill" to="#808080" begin="zoomplus.mouseover" end="zoomplus.mouseout"/>
                        </use>
                        <path d="M-4,0h8M0,-4v8" fill="none" stroke="white" stroke-width="1.5" pointer-events="none"/>
                </g>
                <g id="zoomMin">
                        <use xlink:href="#rim" fill="#404040">
                                <set attributeName="fill" to="#808080" begin="zoomminus.mouseover" end="zoomminus.mouseout"/>
                        </use>
                        <path d="M-4,0h8" fill="none" stroke="white" stroke-width="1.5" pointer-events="none"/>
                </g>
                <g id="dirArrow">
                        <path fill="none" stroke="white" stroke-width="1.5" d="M0,-3.0v7 M-2.5,-0.5L0,-3.0L2.5,-0.5"/>
                </g>
               <g id="resetDef">
                       <use xlink:href="#rim2" fill="#404040">
                               <set attributeName="fill" to="#808080" begin="reset.mouseover" end="reset.mouseout"/>
                       </use>
               </g>
        </defs>

<script type="text/javascript">
var viewWidth = 1060;
var viewHeight = 592;
var sectionId = 'dynsection-1';
</script>
<script xlink:href="svgpan.js"/>
<svg id="graph" class="graph">
<g id="viewport">
<title>Config</title>
<polygon fill="#ffffff" stroke="transparent" points="-4,4 -4,-587.5281 1056,-587.5281 1056,4 -4,4"/>
<!-- Node2 -->
<g id="node1" class="node">
<title>Node2</title>
<polygon fill="#bfbfbf" stroke="#000000" points="1007,-239.5281 1007,-258.5281 1052,-258.5281 1052,-239.5281 1007,-239.5281"/>
<text text-anchor="middle" x="1029.5" y="-246.5281" font-family="Helvetica,sans-Serif" font-size="10.00" fill="#000000">Config</text>
</g>
<!-- Node3 -->
<g id="node2" class="node">
<title>Node3</title>
<g id="a_node2"><a xlink:href="class_base_config.html" target="_top" xlink:title="BaseConfig">
<polygon fill="#ffffff" stroke="#000000" points="842,-519.5281 842,-538.5281 910,-538.5281 910,-519.5281 842,-519.5281"/>
<text text-anchor="middle" x="876" y="-526.5281" font-family="Helvetica,sans-Serif" font-size="10.00" fill="#000000">BaseConfig</text>
</a>
</g>
</g>
<!-- Node3&#45;&gt;Node2 -->
<g id="edge1" class="edge">
<title>Node3&#45;&gt;Node2</title>
<path fill="none" stroke="#191970" d="M913.7119,-515.4706C938.95,-504.4289 970.77,-486.328 989,-460.0281 1012.3214,-426.3831 1025.4247,-295.3127 1028.6871,-258.6211"/>
<polygon fill="#191970" stroke="#191970" points="912.2816,-512.2749 904.4035,-519.3591 914.9799,-518.734 912.2816,-512.2749"/>
</g>
<!-- Node4 -->
<g id="node3" class="node">
<title>Node4</title>
<polygon fill="#ffffff" stroke="#bfbfbf" points="581,-553.0281 581,-583.0281 682,-583.0281 682,-553.0281 581,-553.0281"/>
<text text-anchor="start" x="589" y="-571.0281" font-family="Helvetica,sans-Serif" font-size="10.00" fill="#000000">std::vector&lt; boost</text>
<text text-anchor="middle" x="631.5" y="-560.0281" font-family="Helvetica,sans-Serif" font-size="10.00" fill="#000000">::filesystem::path &gt;</text>
</g>
<!-- Node4&#45;&gt;Node3 -->
<g id="edge2" class="edge">
<title>Node4&#45;&gt;Node3</title>
<path fill="none" stroke="#9a32cd" stroke-dasharray="5,2" d="M692.271,-558.3346C739.4897,-550.8028 803.2511,-540.6323 841.9028,-534.4669"/>
<polygon fill="#9a32cd" stroke="#9a32cd" points="691.4844,-554.9157 682.1606,-559.9473 692.5871,-561.8284 691.4844,-554.9157"/>
<text text-anchor="middle" x="757.5" y="-559.0281" font-family="Helvetica,sans-Serif" font-size="10.00" fill="#000000"> config_dirs_</text>
</g>
<!-- Node5 -->
<g id="node4" class="node">
<title>Node5</title>
<g id="a_node4"><a xlink:href="struct_storage_config.html" target="_top" xlink:title="StorageConfig">
<polygon fill="#ffffff" stroke="#000000" points="836.5,-442.5281 836.5,-461.5281 915.5,-461.5281 915.5,-442.5281 836.5,-442.5281"/>
<text text-anchor="middle" x="876" y="-449.5281" font-family="Helvetica,sans-Serif" font-size="10.00" fill="#000000">StorageConfig</text>
</a>
</g>
</g>
<!-- Node5&#45;&gt;Node2 -->
<g id="edge3" class="edge">
<title>Node5&#45;&gt;Node2</title>
<path fill="none" stroke="#9a32cd" stroke-dasharray="5,2" d="M925.6103,-449.6156C947.7975,-446.0014 972.5924,-438.0457 989,-421.0281 1011.9964,-397.1767 1025.0189,-291.1253 1028.527,-258.5666"/>
<polygon fill="#9a32cd" stroke="#9a32cd" points="925.0686,-446.1571 915.6391,-450.9876 926.0229,-453.0917 925.0686,-446.1571"/>
<text text-anchor="middle" x="964.5" y="-448.0281" font-family="Helvetica,sans-Serif" font-size="10.00" fill="#000000"> storage</text>
</g>
<!-- Node6 -->
<g id="node5" class="node">
<title>Node6</title>
<g id="a_node5"><a xlink:href="class_based_path.html" target="_top" xlink:title="BasedPath">
<polygon fill="#ffffff" stroke="#000000" points="599,-420.5281 599,-439.5281 664,-439.5281 664,-420.5281 599,-420.5281"/>
<text text-anchor="middle" x="631.5" y="-427.5281" font-family="Helvetica,sans-Serif" font-size="10.00" fill="#000000">BasedPath</text>
</a>
</g>
</g>
<!-- Node6&#45;&gt;Node5 -->
<g id="edge4" class="edge">
<title>Node6&#45;&gt;Node5</title>
<path fill="none" stroke="#9a32cd" stroke-dasharray="5,2" d="M674.3925,-433.8876C720.0546,-437.9962 791.728,-444.4454 836.1801,-448.4452"/>
<polygon fill="#9a32cd" stroke="#9a32cd" points="674.4941,-430.3827 664.2207,-432.9723 673.8667,-437.3545 674.4941,-430.3827"/>
<text text-anchor="middle" x="757.5" y="-526.0281" font-family="Helvetica,sans-Serif" font-size="10.00" fill="#000000"> uptane_public_key_path</text>
<text text-anchor="middle" x="757.5" y="-515.0281" font-family="Helvetica,sans-Serif" font-size="10.00" fill="#000000">tls_pkey_path</text>
<text text-anchor="middle" x="757.5" y="-504.0281" font-family="Helvetica,sans-Serif" font-size="10.00" fill="#000000">uptane_metadata_path</text>
<text text-anchor="middle" x="757.5" y="-493.0281" font-family="Helvetica,sans-Serif" font-size="10.00" fill="#000000">sqldb_path</text>
<text text-anchor="start" x="703" y="-482.0281" font-family="Helvetica,sans-Serif" font-size="10.00" fill="#000000">uptane_private_key</text>
<text text-anchor="middle" x="757.5" y="-471.0281" font-family="Helvetica,sans-Serif" font-size="10.00" fill="#000000">_path</text>
<text text-anchor="middle" x="757.5" y="-460.0281" font-family="Helvetica,sans-Serif" font-size="10.00" fill="#000000">tls_cacert_path</text>
<text text-anchor="middle" x="757.5" y="-449.0281" font-family="Helvetica,sans-Serif" font-size="10.00" fill="#000000">tls_clientcert_path</text>
</g>
<!-- Node20 -->
<g id="node19" class="node">
<title>Node20</title>
<g id="a_node19"><a xlink:href="struct_import_config.html" target="_top" xlink:title="ImportConfig">
<polygon fill="#ffffff" stroke="#000000" points="839.5,-400.5281 839.5,-419.5281 912.5,-419.5281 912.5,-400.5281 839.5,-400.5281"/>
<text text-anchor="middle" x="876" y="-407.5281" font-family="Helvetica,sans-Serif" font-size="10.00" fill="#000000">ImportConfig</text>
</a>
</g>
</g>
<!-- Node6&#45;&gt;Node20 -->
<g id="edge25" class="edge">
<title>Node6&#45;&gt;Node20</title>
<path fill="none" stroke="#9a32cd" stroke-dasharray="5,2" d="M645.7549,-412.2938C658.8472,-397.5395 679.7074,-377.6141 703,-369.0281 748.4547,-352.273 768.2222,-348.2828 812,-369.0281 823.4165,-374.4382 819.8546,-383.4999 830,-391.0281 834.996,-394.7353 840.8204,-397.8602 846.6121,-400.437"/>
<polygon fill="#9a32cd" stroke="#9a32cd" points="642.7945,-410.3725 638.9844,-420.2585 648.1279,-414.9062 642.7945,-410.3725"/>
<text text-anchor="middle" x="757.5" y="-427.0281" font-family="Helvetica,sans-Serif" font-size="10.00" fill="#000000"> uptane_public_key_path</text>
<text text-anchor="middle" x="757.5" y="-416.0281" font-family="Helvetica,sans-Serif" font-size="10.00" fill="#000000">tls_pkey_path</text>
<text text-anchor="start" x="703" y="-405.0281" font-family="Helvetica,sans-Serif" font-size="10.00" fill="#000000">uptane_private_key</text>
<text text-anchor="middle" x="757.5" y="-394.0281" font-family="Helvetica,sans-Serif" font-size="10.00" fill="#000000">_path</text>
<text text-anchor="middle" x="757.5" y="-383.0281" font-family="Helvetica,sans-Serif" font-size="10.00" fill="#000000">tls_cacert_path</text>
<text text-anchor="middle" x="757.5" y="-372.0281" font-family="Helvetica,sans-Serif" font-size="10.00" fill="#000000">tls_clientcert_path</text>
</g>
<!-- Node7 -->
<g id="node6" class="node">
<title>Node7</title>
<g id="a_node6"><a xlink:href="struct_discovery_config.html" target="_top" xlink:title="DiscoveryConfig">
<polygon fill="#ffffff" stroke="#000000" points="831.5,-362.5281 831.5,-381.5281 920.5,-381.5281 920.5,-362.5281 831.5,-362.5281"/>
<text text-anchor="middle" x="876" y="-369.5281" font-family="Helvetica,sans-Serif" font-size="10.00" fill="#000000">DiscoveryConfig</text>
</a>
</g>
</g>
<!-- Node7&#45;&gt;Node2 -->
<g id="edge5" class="edge">
<title>Node7&#45;&gt;Node2</title>
<path fill="none" stroke="#9a32cd" stroke-dasharray="5,2" d="M930.814,-370.9017C951.0095,-367.9658 972.8694,-361.5015 989,-348.0281 1017.0772,-324.5762 1025.9251,-278.5926 1028.512,-258.6427"/>
<polygon fill="#9a32cd" stroke="#9a32cd" points="930.2697,-367.4417 920.756,-372.1044 931.1009,-374.3922 930.2697,-367.4417"/>
<text text-anchor="middle" x="964.5" y="-372.0281" font-family="Helvetica,sans-Serif" font-size="10.00" fill="#000000"> discovery</text>
</g>
<!-- Node8 -->
<g id="node7" class="node">
<title>Node8</title>
<g id="a_node7"><a xlink:href="struct_tls_config.html" target="_top" xlink:title="TlsConfig">
<polygon fill="#ffffff" stroke="#000000" points="487.5,-336.5281 487.5,-355.5281 546.5,-355.5281 546.5,-336.5281 487.5,-336.5281"/>
<text text-anchor="middle" x="517" y="-343.5281" font-family="Helvetica,sans-Serif" font-size="10.00" fill="#000000">TlsConfig</text>
</a>
</g>
</g>
<!-- Node8&#45;&gt;Node2 -->
<g id="edge6" class="edge">
<title>Node8&#45;&gt;Node2</title>
<path fill="none" stroke="#9a32cd" stroke-dasharray="5,2" d="M556.764,-345.1951C629.9268,-342.9606 790.4364,-334.7842 922,-305.0281 952.8513,-298.0504 961.3381,-296.368 989,-281.0281 1000.1283,-274.857 1011.3721,-265.6862 1019.1793,-258.7423"/>
<polygon fill="#9a32cd" stroke="#9a32cd" points="556.5136,-341.7007 546.6172,-345.4835 556.7126,-348.6979 556.5136,-341.7007"/>
<text text-anchor="middle" x="757.5" y="-339.0281" font-family="Helvetica,sans-Serif" font-size="10.00" fill="#000000"> tls</text>
</g>
<!-- Node9 -->
<g id="node8" class="node">
<title>Node9</title>
<g id="a_node8"><a xlink:title="STL class. ">
<polygon fill="#ffffff" stroke="#bfbfbf" points="132,-194.5281 132,-213.5281 192,-213.5281 192,-194.5281 132,-194.5281"/>
<text text-anchor="middle" x="162" y="-201.5281" font-family="Helvetica,sans-Serif" font-size="10.00" fill="#000000">std::string</text>
</a>
</g>
</g>
<!-- Node9&#45;&gt;Node8 -->
<g id="edge7" class="edge">
<title>Node9&#45;&gt;Node8</title>
<path fill="none" stroke="#9a32cd" stroke-dasharray="5,2" d="M165.0748,-223.965C171.4861,-262.6138 187.5716,-345.4013 210,-362.0281 297.6784,-427.0268 441.1816,-377.9699 495.3709,-355.6017"/>
<polygon fill="#9a32cd" stroke="#9a32cd" points="168.5025,-223.235 163.4622,-213.916 161.591,-224.3442 168.5025,-223.235"/>
<text text-anchor="middle" x="259.5" y="-397.0281" font-family="Helvetica,sans-Serif" font-size="10.00" fill="#000000"> server</text>
</g>
<!-- Node12 -->
<g id="node11" class="node">
<title>Node12</title>
<g id="a_node11"><a xlink:href="struct_package_config.html" target="_top" xlink:title="PackageConfig">
<polygon fill="#ffffff" stroke="#000000" points="716,-288.5281 716,-307.5281 799,-307.5281 799,-288.5281 716,-288.5281"/>
<text text-anchor="middle" x="757.5" y="-295.5281" font-family="Helvetica,sans-Serif" font-size="10.00" fill="#000000">PackageConfig</text>
</a>
</g>
</g>
<!-- Node9&#45;&gt;Node12 -->
<g id="edge11" class="edge">
<title>Node9&#45;&gt;Node12</title>
<path fill="none" stroke="#9a32cd" stroke-dasharray="5,2" d="M166.6593,-223.8699C174.681,-256.1297 191.9823,-317.6112 210,-330.0281 230.7515,-344.3291 591.7594,-313.0784 715.941,-301.8477"/>
<polygon fill="#9a32cd" stroke="#9a32cd" points="169.9777,-222.7018 164.2229,-213.8062 163.1742,-224.349 169.9777,-222.7018"/>
<text text-anchor="middle" x="391.5" y="-345.0281" font-family="Helvetica,sans-Serif" font-size="10.00" fill="#000000"> os</text>
<text text-anchor="middle" x="391.5" y="-334.0281" font-family="Helvetica,sans-Serif" font-size="10.00" fill="#000000">ostree_server</text>
</g>
<!-- Node13 -->
<g id="node12" class="node">
<title>Node13</title>
<g id="a_node12"><a xlink:href="struct_provision_config.html" target="_top" xlink:title="ProvisionConfig">
<polygon fill="#ffffff" stroke="#000000" points="474,-235.5281 474,-254.5281 560,-254.5281 560,-235.5281 474,-235.5281"/>
<text text-anchor="middle" x="517" y="-242.5281" font-family="Helvetica,sans-Serif" font-size="10.00" fill="#000000">ProvisionConfig</text>
</a>
</g>
</g>
<!-- Node9&#45;&gt;Node13 -->
<g id="edge13" class="edge">
<title>Node9&#45;&gt;Node13</title>
<path fill="none" stroke="#9a32cd" stroke-dasharray="5,2" d="M201.9273,-213.5832C204.6519,-214.1101 207.3617,-214.5987 210,-215.0281 303.4247,-230.2338 414.1878,-238.7434 473.8125,-242.5548"/>
<polygon fill="#9a32cd" stroke="#9a32cd" points="202.6007,-210.1485 192.0983,-211.5446 201.1791,-217.0026 202.6007,-210.1485"/>
<text text-anchor="middle" x="259.5" y="-318.0281" font-family="Helvetica,sans-Serif" font-size="10.00" fill="#000000"> server</text>
<text text-anchor="middle" x="259.5" y="-307.0281" font-family="Helvetica,sans-Serif" font-size="10.00" fill="#000000">p12_password</text>
<text text-anchor="start" x="210" y="-296.0281" font-family="Helvetica,sans-Serif" font-size="10.00" fill="#000000">primary_ecu_hardware</text>
<text text-anchor="middle" x="259.5" y="-285.0281" font-family="Helvetica,sans-Serif" font-size="10.00" fill="#000000">_id</text>
<text text-anchor="middle" x="259.5" y="-274.0281" font-family="Helvetica,sans-Serif" font-size="10.00" fill="#000000">expiry_days</text>
<text text-anchor="middle" x="259.5" y="-263.0281" font-family="Helvetica,sans-Serif" font-size="10.00" fill="#000000">device_id</text>
<text text-anchor="start" x="210" y="-252.0281" font-family="Helvetica,sans-Serif" font-size="10.00" fill="#000000">ecu_registration</text>
<text text-anchor="middle" x="259.5" y="-241.0281" font-family="Helvetica,sans-Serif" font-size="10.00" fill="#000000">_endpoint</text>
<text text-anchor="middle" x="259.5" y="-230.0281" font-family="Helvetica,sans-Serif" font-size="10.00" fill="#000000">primary_ecu_serial</text>
</g>
<!-- Node14 -->
<g id="node13" class="node">
<title>Node14</title>
<g id="a_node13"><a xlink:href="struct_network_config.html" target="_top" xlink:title="NetworkConfig">
<polygon fill="#ffffff" stroke="#000000" points="716.5,-200.5281 716.5,-219.5281 798.5,-219.5281 798.5,-200.5281 716.5,-200.5281"/>
<text text-anchor="middle" x="757.5" y="-207.5281" font-family="Helvetica,sans-Serif" font-size="10.00" fill="#000000">NetworkConfig</text>
</a>
</g>
</g>
<!-- Node9&#45;&gt;Node14 -->
<g id="edge15" class="edge">
<title>Node9&#45;&gt;Node14</title>
<path fill="none" stroke="#9a32cd" stroke-dasharray="5,2" d="M202.5445,-204.4366C310.9748,-205.5291 606.8017,-208.5098 716.1518,-209.6115"/>
<polygon fill="#9a32cd" stroke="#9a32cd" points="202.3844,-200.935 192.3496,-204.3339 202.3138,-207.9346 202.3844,-200.935"/>
<text text-anchor="middle" x="391.5" y="-209.0281" font-family="Helvetica,sans-Serif" font-size="10.00" fill="#000000"> ipdiscovery_host</text>
</g>
<!-- Node15 -->
<g id="node14" class="node">
<title>Node15</title>
<g id="a_node14"><a xlink:href="struct_p11_config.html" target="_top" xlink:title="P11Config">
<polygon fill="#ffffff" stroke="#000000" points="360.5,-139.5281 360.5,-158.5281 422.5,-158.5281 422.5,-139.5281 360.5,-139.5281"/>
<text text-anchor="middle" x="391.5" y="-146.5281" font-family="Helvetica,sans-Serif" font-size="10.00" fill="#000000">P11Config</text>
</a>
</g>
</g>
<!-- Node9&#45;&gt;Node15 -->
<g id="edge17" class="edge">
<title>Node9&#45;&gt;Node15</title>
<path fill="none" stroke="#9a32cd" stroke-dasharray="5,2" d="M169.1779,-185.1285C176.6096,-168.5464 189.9713,-145.4934 210,-135.0281 260.9795,-108.3906 331.2085,-126.7043 367.5499,-139.5178"/>
<polygon fill="#9a32cd" stroke="#9a32cd" points="165.9113,-183.8687 165.3104,-194.4465 172.3765,-186.5522 165.9113,-183.8687"/>
<text text-anchor="middle" x="259.5" y="-182.0281" font-family="Helvetica,sans-Serif" font-size="10.00" fill="#000000"> tls_pkey_id</text>
<text text-anchor="middle" x="259.5" y="-171.0281" font-family="Helvetica,sans-Serif" font-size="10.00" fill="#000000">tls_clientcert_id</text>
<text text-anchor="middle" x="259.5" y="-160.0281" font-family="Helvetica,sans-Serif" font-size="10.00" fill="#000000">pass</text>
<text text-anchor="middle" x="259.5" y="-149.0281" font-family="Helvetica,sans-Serif" font-size="10.00" fill="#000000">uptane_key_id</text>
<text text-anchor="middle" x="259.5" y="-138.0281" font-family="Helvetica,sans-Serif" font-size="10.00" fill="#000000">tls_cacert_id</text>
</g>
<!-- Node16 -->
<g id="node15" class="node">
<title>Node16</title>
<g id="a_node15"><a xlink:href="struct_uptane_config.html" target="_top" xlink:title="UptaneConfig">
<polygon fill="#ffffff" stroke="#000000" points="837.5,-116.5281 837.5,-135.5281 914.5,-135.5281 914.5,-116.5281 837.5,-116.5281"/>
<text text-anchor="middle" x="876" y="-123.5281" font-family="Helvetica,sans-Serif" font-size="10.00" fill="#000000">UptaneConfig</text>
</a>
</g>
</g>
<!-- Node9&#45;&gt;Node16 -->
<g id="edge19" class="edge">
<title>Node9&#45;&gt;Node16</title>
<path fill="none" stroke="#9a32cd" stroke-dasharray="5,2" d="M166.4772,-184.7488C172.4705,-163.8666 185.3328,-131.5911 210,-117.0281 316.6717,-54.0514 711.2765,-102.7907 837.1483,-120.3631"/>
<polygon fill="#9a32cd" stroke="#9a32cd" points="163.0773,-183.9167 163.9432,-194.4761 169.8512,-185.6815 163.0773,-183.9167"/>
<text text-anchor="middle" x="517" y="-105.0281" font-family="Helvetica,sans-Serif" font-size="10.00" fill="#000000"> repo_server</text>
<text text-anchor="middle" x="517" y="-94.0281" font-family="Helvetica,sans-Serif" font-size="10.00" fill="#000000">director_server</text>
</g>
<!-- Node18 -->
<g id="node17" class="node">
<title>Node18</title>
<g id="a_node17"><a xlink:href="class_uptane_1_1_secondary_config.html" target="_top" xlink:title="Uptane::SecondaryConfig">
<polygon fill="#ffffff" stroke="#000000" points="327,-15.5281 327,-34.5281 456,-34.5281 456,-15.5281 327,-15.5281"/>
<text text-anchor="middle" x="391.5" y="-22.5281" font-family="Helvetica,sans-Serif" font-size="10.00" fill="#000000">Uptane::SecondaryConfig</text>
</a>
</g>
</g>
<!-- Node9&#45;&gt;Node18 -->
<g id="edge22" class="edge">
<title>Node9&#45;&gt;Node18</title>
<path fill="none" stroke="#9a32cd" stroke-dasharray="5,2" d="M164.2152,-183.9501C169.4435,-140.6977 184.0989,-41.0117 210,-21.0281 255.4166,14.0123 327.9924,-2.7921 366.1554,-15.4351"/>
<polygon fill="#9a32cd" stroke="#9a32cd" points="160.7139,-183.7596 163.0381,-194.0964 167.6672,-184.5664 160.7139,-183.7596"/>
<text text-anchor="middle" x="259.5" y="-79.0281" font-family="Helvetica,sans-Serif" font-size="10.00" fill="#000000"> ecu_private_key</text>
<text text-anchor="middle" x="259.5" y="-68.0281" font-family="Helvetica,sans-Serif" font-size="10.00" fill="#000000">can_iface</text>
<text text-anchor="middle" x="259.5" y="-57.0281" font-family="Helvetica,sans-Serif" font-size="10.00" fill="#000000">ecu_hardware_id</text>
<text text-anchor="middle" x="259.5" y="-46.0281" font-family="Helvetica,sans-Serif" font-size="10.00" fill="#000000">ecu_serial</text>
<text text-anchor="middle" x="259.5" y="-35.0281" font-family="Helvetica,sans-Serif" font-size="10.00" fill="#000000">opcua_lds_url</text>
<text text-anchor="middle" x="259.5" y="-24.0281" font-family="Helvetica,sans-Serif" font-size="10.00" fill="#000000">ecu_public_key</text>
</g>
<!-- Node10 -->
<g id="node9" class="node">
<title>Node10</title>
<g id="a_node9"><a xlink:title="STL class. ">
<polygon fill="#ffffff" stroke="#bfbfbf" points="0,-189.0281 0,-219.0281 95,-219.0281 95,-189.0281 0,-189.0281"/>
<text text-anchor="start" x="8" y="-207.0281" font-family="Helvetica,sans-Serif" font-size="10.00" fill="#000000">std::basic_string&lt;</text>
<text text-anchor="middle" x="47.5" y="-196.0281" font-family="Helvetica,sans-Serif" font-size="10.00" fill="#000000"> char &gt;</text>
</a>
</g>
</g>
<!-- Node10&#45;&gt;Node9 -->
<g id="edge8" class="edge">
<title>Node10&#45;&gt;Node9</title>
<path fill="none" stroke="#191970" d="M105.3356,-204.0281C114.4701,-204.0281 123.5847,-204.0281 131.7491,-204.0281"/>
<polygon fill="#191970" stroke="#191970" points="105.0636,-200.5282 95.0636,-204.0281 105.0636,-207.5282 105.0636,-200.5282"/>
</g>
<!-- Node11 -->
<g id="node10" class="node">
<title>Node11</title>
<g id="a_node10"><a xlink:href="struct_logger_config.html" target="_top" xlink:title="LoggerConfig">
<polygon fill="#ffffff" stroke="#000000" points="839,-78.5281 839,-97.5281 913,-97.5281 913,-78.5281 839,-78.5281"/>
<text text-anchor="middle" x="876" y="-85.5281" font-family="Helvetica,sans-Serif" font-size="10.00" fill="#000000">LoggerConfig</text>
</a>
</g>
</g>
<!-- Node11&#45;&gt;Node2 -->
<g id="edge9" class="edge">
<title>Node11&#45;&gt;Node2</title>
<path fill="none" stroke="#9a32cd" stroke-dasharray="5,2" d="M923.1307,-84.4809C945.565,-85.3139 971.292,-90.2958 989,-106.0281 1009.4471,-124.1939 1023.8032,-210.3407 1028.1341,-239.4171"/>
<polygon fill="#9a32cd" stroke="#9a32cd" points="923.1347,-80.9808 913.0954,-84.3664 923.0548,-87.9804 923.1347,-80.9808"/>
<text text-anchor="middle" x="964.5" y="-109.0281" font-family="Helvetica,sans-Serif" font-size="10.00" fill="#000000"> logger</text>
</g>
<!-- Node12&#45;&gt;Node2 -->
<g id="edge10" class="edge">
<title>Node12&#45;&gt;Node2</title>
<path fill="none" stroke="#9a32cd" stroke-dasharray="5,2" d="M809.348,-292.9341C856.6168,-287.6439 928.1445,-278.0131 989,-263.0281 994.779,-261.6051 1000.9012,-259.7043 1006.5877,-257.7633"/>
<polygon fill="#9a32cd" stroke="#9a32cd" points="808.9082,-289.4613 799.3485,-294.029 809.6701,-296.4197 808.9082,-289.4613"/>
<text text-anchor="middle" x="876" y="-293.0281" font-family="Helvetica,sans-Serif" font-size="10.00" fill="#000000"> pacman</text>
</g>
<!-- Node13&#45;&gt;Node2 -->
<g id="edge12" class="edge">
<title>Node13&#45;&gt;Node2</title>
<path fill="none" stroke="#9a32cd" stroke-dasharray="5,2" d="M570.5049,-245.4457C681.0263,-246.3083 930.5729,-248.256 1006.8958,-248.8517"/>
<polygon fill="#9a32cd" stroke="#9a32cd" points="570.2808,-241.944 560.2538,-245.3657 570.2261,-248.9438 570.2808,-241.944"/>
<text text-anchor="middle" x="757.5" y="-250.0281" font-family="Helvetica,sans-Serif" font-size="10.00" fill="#000000"> provision</text>
</g>
<!-- Node14&#45;&gt;Node2 -->
<g id="edge14" class="edge">
<title>Node14&#45;&gt;Node2</title>
<path fill="none" stroke="#9a32cd" stroke-dasharray="5,2" d="M808.6952,-211.4508C856.0926,-213.729 928.209,-219.6497 989,-235.0281 994.7698,-236.4877 1000.8886,-238.4023 1006.5748,-240.3449"/>
<polygon fill="#9a32cd" stroke="#9a32cd" points="808.8207,-207.953 798.6753,-211.0058 808.5101,-214.9461 808.8207,-207.953"/>
<text text-anchor="middle" x="876" y="-224.0281" font-family="Helvetica,sans-Serif" font-size="10.00" fill="#000000"> network</text>
</g>
<!-- Node15&#45;&gt;Node2 -->
<g id="edge16" class="edge">
<title>Node15&#45;&gt;Node2</title>
<path fill="none" stroke="#9a32cd" stroke-dasharray="5,2" d="M432.5795,-150.0315C508.0896,-152.3243 673.8734,-159.4458 812,-180.0281 891.7697,-191.9147 915.4195,-187.0069 989,-220.0281 999.888,-224.9144 1010.8062,-232.9597 1018.5581,-239.3384"/>
<polygon fill="#9a32cd" stroke="#9a32cd" points="432.6338,-146.5317 422.5362,-149.7391 432.43,-153.5287 432.6338,-146.5317"/>
<text text-anchor="middle" x="757.5" y="-183.0281" font-family="Helvetica,sans-Serif" font-size="10.00" fill="#000000"> p11</text>
</g>
<!-- Node16&#45;&gt;Node2 -->
<g id="edge18" class="edge">
<title>Node16&#45;&gt;Node2</title>
<path fill="none" stroke="#9a32cd" stroke-dasharray="5,2" d="M924.6901,-120.7398C946.4249,-120.9258 971.1089,-124.9619 989,-139.0281 1005.398,-151.9205 1021.5042,-214.7025 1027.2708,-239.2055"/>
<polygon fill="#9a32cd" stroke="#9a32cd" points="924.5613,-117.2415 914.6243,-120.9166 924.6842,-124.2404 924.5613,-117.2415"/>
<text text-anchor="middle" x="964.5" y="-142.0281" font-family="Helvetica,sans-Serif" font-size="10.00" fill="#000000"> uptane</text>
</g>
<!-- Node17 -->
<g id="node16" class="node">
<title>Node17</title>
<polygon fill="#ffffff" stroke="#bfbfbf" points="578,-37.0281 578,-67.0281 685,-67.0281 685,-37.0281 578,-37.0281"/>
<text text-anchor="start" x="586" y="-55.0281" font-family="Helvetica,sans-Serif" font-size="10.00" fill="#000000">std::vector&lt; Uptane</text>
<text text-anchor="middle" x="631.5" y="-44.0281" font-family="Helvetica,sans-Serif" font-size="10.00" fill="#000000">::SecondaryConfig &gt;</text>
</g>
<!-- Node17&#45;&gt;Node16 -->
<g id="edge20" class="edge">
<title>Node17&#45;&gt;Node16</title>
<path fill="none" stroke="#9a32cd" stroke-dasharray="5,2" d="M695.3565,-47.1723C732.2711,-47.4435 777.9897,-53.3322 812,-76.0281 825.2521,-84.8716 818.0035,-96.5442 830,-107.0281 834.2941,-110.7808 839.4315,-113.8614 844.692,-116.367"/>
<polygon fill="#9a32cd" stroke="#9a32cd" points="695.1733,-43.6732 685.1952,-47.2354 695.2168,-50.6731 695.1733,-43.6732"/>
<text text-anchor="middle" x="757.5" y="-79.0281" font-family="Helvetica,sans-Serif" font-size="10.00" fill="#000000"> secondary_configs</text>
</g>
<!-- Node18&#45;&gt;Node17 -->
<g id="edge21" class="edge">
<title>Node18&#45;&gt;Node17</title>
<path fill="none" stroke="#9a32cd" stroke-dasharray="5,2" d="M466.1361,-33.4247C502.2597,-37.4886 544.8146,-42.276 577.7082,-45.9766"/>
<polygon fill="#9a32cd" stroke="#9a32cd" points="466.4599,-29.9391 456.1313,-32.2992 465.6773,-36.8953 466.4599,-29.9391"/>
<text text-anchor="middle" x="517" y="-47.0281" font-family="Helvetica,sans-Serif" font-size="10.00" fill="#000000"> elements</text>
</g>
<!-- Node19 -->
<g id="node18" class="node">
<title>Node19</title>
<g id="a_node18"><a xlink:href="struct_telemetry_config.html" target="_top" xlink:title="TelemetryConfig">
<polygon fill="#ffffff" stroke="#000000" points="831.5,-40.5281 831.5,-59.5281 920.5,-59.5281 920.5,-40.5281 831.5,-40.5281"/>
<text text-anchor="middle" x="876" y="-47.5281" font-family="Helvetica,sans-Serif" font-size="10.00" fill="#000000">TelemetryConfig</text>
</a>
</g>
</g>
<!-- Node19&#45;&gt;Node2 -->
<g id="edge23" class="edge">
<title>Node19&#45;&gt;Node2</title>
<path fill="none" stroke="#9a32cd" stroke-dasharray="5,2" d="M930.6672,-48.5964C951.3746,-50.8727 973.6344,-57.1563 989,-72.0281 1013.4634,-95.7055 1025.4773,-205.4361 1028.6344,-239.1489"/>
<polygon fill="#9a32cd" stroke="#9a32cd" points="930.9149,-45.105 920.6635,-47.7807 930.3459,-52.0819 930.9149,-45.105"/>
<text text-anchor="middle" x="964.5" y="-75.0281" font-family="Helvetica,sans-Serif" font-size="10.00" fill="#000000"> telemetry</text>
</g>
<!-- Node20&#45;&gt;Node2 -->
<g id="edge24" class="edge">
<title>Node20&#45;&gt;Node2</title>
<path fill="none" stroke="#9a32cd" stroke-dasharray="5,2" d="M922.8035,-409.8002C945.3935,-407.2997 971.3545,-400.5573 989,-384.0281 1007.7511,-366.4633 1022.9916,-286.8726 1027.8633,-258.8368"/>
<polygon fill="#9a32cd" stroke="#9a32cd" points="922.3661,-406.3248 912.7036,-410.6705 922.9671,-413.299 922.3661,-406.3248"/>
<text text-anchor="middle" x="964.5" y="-409.0281" font-family="Helvetica,sans-Serif" font-size="10.00" fill="#000000"> import</text>
</g>
<!-- Node21 -->
<g id="node20" class="node">
<title>Node21</title>
<g id="a_node20"><a xlink:href="struct_bootloader_config.html" target="_top" xlink:title="BootloaderConfig">
<polygon fill="#ffffff" stroke="#000000" points="830,-2.5281 830,-21.5281 922,-21.5281 922,-2.5281 830,-2.5281"/>
<text text-anchor="middle" x="876" y="-9.5281" font-family="Helvetica,sans-Serif" font-size="10.00" fill="#000000">BootloaderConfig</text>
</a>
</g>
</g>
<!-- Node21&#45;&gt;Node2 -->
<g id="edge26" class="edge">
<title>Node21&#45;&gt;Node2</title>
<path fill="none" stroke="#9a32cd" stroke-dasharray="5,2" d="M932.3094,-11.5364C952.6974,-14.264 974.2982,-21.0086 989,-36.0281 1017.9637,-65.6178 1027.0563,-201.6561 1029.0408,-239.3318"/>
<polygon fill="#9a32cd" stroke="#9a32cd" points="932.4269,-8.0299 922.1187,-10.4774 931.7033,-14.9924 932.4269,-8.0299"/>
<text text-anchor="middle" x="964.5" y="-39.0281" font-family="Helvetica,sans-Serif" font-size="10.00" fill="#000000"> bootloader</text>
</g>
</g>
</svg>
        <g id="navigator" transform="translate(0 0)" fill="#404254">
                <rect fill="#f2f5e9" fill-opacity="0.5" stroke="#606060" stroke-width=".5" x="0" y="0" width="60" height="60"/>
                <use id="zoomplus" xlink:href="#zoomPlus" x="17" y="9" onmousedown="handleZoom(evt,'in')"/>
                <use id="zoomminus" xlink:href="#zoomMin" x="42" y="9" onmousedown="handleZoom(evt,'out')"/>
                <use id="reset" xlink:href="#resetDef" x="30" y="36" onmousedown="handleReset()"/>
                <g id="arrowUp" xlink:href="#dirArrow" transform="translate(30 24)" onmousedown="handlePan(0,-1)">
                  <use xlink:href="#rim" fill="#404040">
                        <set attributeName="fill" to="#808080" begin="arrowUp.mouseover" end="arrowUp.mouseout"/>
                  </use>
                  <path fill="none" stroke="white" stroke-width="1.5" d="M0,-3.0v7 M-2.5,-0.5L0,-3.0L2.5,-0.5"/>
                </g>
                <g id="arrowRight" xlink:href="#dirArrow" transform="rotate(90) translate(36 -43)" onmousedown="handlePan(1,0)">
                  <use xlink:href="#rim" fill="#404040">
                        <set attributeName="fill" to="#808080" begin="arrowRight.mouseover" end="arrowRight.mouseout"/>
                  </use>
                  <path fill="none" stroke="white" stroke-width="1.5" d="M0,-3.0v7 M-2.5,-0.5L0,-3.0L2.5,-0.5"/>
                </g>
                <g id="arrowDown" xlink:href="#dirArrow" transform="rotate(180) translate(-30 -48)" onmousedown="handlePan(0,1)">
                  <use xlink:href="#rim" fill="#404040">
                        <set attributeName="fill" to="#808080" begin="arrowDown.mouseover" end="arrowDown.mouseout"/>
                  </use>
                  <path fill="none" stroke="white" stroke-width="1.5" d="M0,-3.0v7 M-2.5,-0.5L0,-3.0L2.5,-0.5"/>
                </g>
                <g id="arrowLeft" xlink:href="#dirArrow" transform="rotate(270) translate(-36 17)" onmousedown="handlePan(-1,0)">
                  <use xlink:href="#rim" fill="#404040">
                        <set attributeName="fill" to="#808080" begin="arrowLeft.mouseover" end="arrowLeft.mouseout"/>
                  </use>
                  <path fill="none" stroke="white" stroke-width="1.5" d="M0,-3.0v7 M-2.5,-0.5L0,-3.0L2.5,-0.5"/>
                </g>
        </g>
        <svg viewBox="0 0 15 15" width="100%" height="30px" preserveAspectRatio="xMaxYMin meet">
         <g id="arrow_out" transform="scale(0.3 0.3)">
          <a xlink:href="class_config__coll__graph_org.svg" target="_base">
           <rect id="button" ry="5" rx="5" y="6" x="6" height="38" width="38"
                fill="#f2f5e9" fill-opacity="0.5" stroke="#606060" stroke-width="1.0"/>
           <path id="arrow"
             d="M 11.500037,31.436501 C 11.940474,20.09759 22.043105,11.32322 32.158766,21.979434 L 37.068811,17.246167 C 37.068811,17.246167 37.088388,32 37.088388,32 L 22.160133,31.978069 C 22.160133,31.978069 26.997745,27.140456 26.997745,27.140456 C 18.528582,18.264221 13.291696,25.230495 11.500037,31.436501 z"
             style="fill:#404040;"/>
          </a>
         </g>
        </svg>
</svg>
