<?xml version="1.0" encoding="UTF-8" standalone="no"?>
<!DOCTYPE svg PUBLIC "-//W3C//DTD SVG 1.1//EN"
 "http://www.w3.org/Graphics/SVG/1.1/DTD/svg11.dtd">
<!-- Generated by graphviz version 2.40.1 (20161225.0304)
 -->
<!-- Title: opcuabridge::FileData Pages: 1 -->
<svg width="403pt" height="148pt"
 viewBox="0.00 0.00 403.00 148.00" xmlns="http://www.w3.org/2000/svg" xmlns:xlink="http://www.w3.org/1999/xlink">
<g id="graph0" class="graph" transform="scale(1 1) rotate(0) translate(4 144)">
<title>opcuabridge::FileData</title>
<polygon fill="#ffffff" stroke="transparent" points="-4,4 -4,-144 399,-144 399,4 -4,4"/>
<!-- Node2 -->
<g id="node1" class="node">
<title>Node2</title>
<polygon fill="#bfbfbf" stroke="#000000" points="283,-71.5 283,-90.5 395,-90.5 395,-71.5 283,-71.5"/>
<text text-anchor="middle" x="339" y="-78.5" font-family="Helvetica,sans-Serif" font-size="10.00" fill="#000000">opcuabridge::FileData</text>
</g>
<!-- Node3 -->
<g id="node2" class="node">
<title>Node3</title>
<g id="a_node2"><a xlink:href="structopcuabridge_1_1_message_file_data.html" target="_top" xlink:title="opcuabridge::MessageFileData">
<polygon fill="#ffffff" stroke="#000000" points="2,-120.5 2,-139.5 154,-139.5 154,-120.5 2,-120.5"/>
<text text-anchor="middle" x="78" y="-127.5" font-family="Helvetica,sans-Serif" font-size="10.00" fill="#000000">opcuabridge::MessageFileData</text>
</a>
</g>
</g>
<!-- Node3&#45;&gt;Node2 -->
<g id="edge1" class="edge">
<title>Node3&#45;&gt;Node2</title>
<path fill="none" stroke="#191970" d="M141.9839,-118.6954C178.1297,-112.2268 224.1251,-103.8578 265,-96 274.011,-94.2677 283.6269,-92.3613 292.8432,-90.5054"/>
<polygon fill="#191970" stroke="#191970" points="141.2914,-115.2636 132.0626,-120.4675 142.5222,-122.1546 141.2914,-115.2636"/>
</g>
<!-- Node4 -->
<g id="node3" class="node">
<title>Node4</title>
<g id="a_node3"><a xlink:href="structopcuabridge_1_1_message_on_after_write_callback.html" target="_top" xlink:title="opcuabridge::MessageOnAfter\lWriteCallback\&lt; opcuabridge\l::FileData \&gt;">
<polygon fill="#ffffff" stroke="#000000" points="3.5,-60.5 3.5,-101.5 152.5,-101.5 152.5,-60.5 3.5,-60.5"/>
<text text-anchor="start" x="11.5" y="-89.5" font-family="Helvetica,sans-Serif" font-size="10.00" fill="#000000">opcuabridge::MessageOnAfter</text>
<text text-anchor="start" x="11.5" y="-78.5" font-family="Helvetica,sans-Serif" font-size="10.00" fill="#000000">WriteCallback&lt; opcuabridge</text>
<text text-anchor="middle" x="78" y="-67.5" font-family="Helvetica,sans-Serif" font-size="10.00" fill="#000000">::FileData &gt;</text>
</a>
</g>
</g>
<!-- Node4&#45;&gt;Node2 -->
<g id="edge2" class="edge">
<title>Node4&#45;&gt;Node2</title>
<path fill="none" stroke="#9a32cd" stroke-dasharray="5,2" d="M162.9099,-81C202.2466,-81 247.9044,-81 282.87,-81"/>
<polygon fill="#9a32cd" stroke="#9a32cd" points="162.7922,-77.5001 152.7921,-81 162.7921,-84.5001 162.7922,-77.5001"/>
<text text-anchor="middle" x="219.5" y="-84" font-family="Helvetica,sans-Serif" font-size="10.00" fill="#000000"> on_after_write_cb_</text>
</g>
<!-- Node5 -->
<g id="node4" class="node">
<title>Node5</title>
<g id="a_node4"><a xlink:href="structopcuabridge_1_1_message_on_before_read_callback.html" target="_top" xlink:title="opcuabridge::MessageOnBefore\lReadCallback\&lt; opcuabridge\l::FileData \&gt;">
<polygon fill="#ffffff" stroke="#000000" points="0,-.5 0,-41.5 156,-41.5 156,-.5 0,-.5"/>
<text text-anchor="start" x="8" y="-29.5" font-family="Helvetica,sans-Serif" font-size="10.00" fill="#000000">opcuabridge::MessageOnBefore</text>
<text text-anchor="start" x="8" y="-18.5" font-family="Helvetica,sans-Serif" font-size="10.00" fill="#000000">ReadCallback&lt; opcuabridge</text>
<text text-anchor="middle" x="78" y="-7.5" font-family="Helvetica,sans-Serif" font-size="10.00" fill="#000000">::FileData &gt;</text>
</a>
</g>
</g>
<!-- Node5&#45;&gt;Node2 -->
<g id="edge3" class="edge">
<title>Node5&#45;&gt;Node2</title>
<path fill="none" stroke="#9a32cd" stroke-dasharray="5,2" d="M166.2416,-41.2854C210.6187,-51.4871 262.3042,-63.3688 297.4973,-71.4592"/>
<polygon fill="#9a32cd" stroke="#9a32cd" points="166.8386,-37.8314 156.3086,-39.002 165.2702,-44.6535 166.8386,-37.8314"/>
<text text-anchor="middle" x="219.5" y="-66" font-family="Helvetica,sans-Serif" font-size="10.00" fill="#000000"> on_before_read_cb_</text>
</g>
</g>
</svg>
