<?xml version="1.0" encoding="UTF-8" standalone="no"?>
<!DOCTYPE svg PUBLIC "-//W3C//DTD SVG 1.1//EN"
 "http://www.w3.org/Graphics/SVG/1.1/DTD/svg11.dtd">
<!-- Generated by graphviz version 2.40.1 (20161225.0304)
 -->
<!-- Title: Uptane::IsoTpSecondary Pages: 1 -->
<svg width="153pt" height="342pt"
 viewBox="0.00 0.00 152.50 342.00" xmlns="http://www.w3.org/2000/svg" xmlns:xlink="http://www.w3.org/1999/xlink">
<g id="graph0" class="graph" transform="scale(1 1) rotate(0) translate(4 338)">
<title>Uptane::IsoTpSecondary</title>
<polygon fill="#ffffff" stroke="transparent" points="-4,4 -4,-338 148.5,-338 148.5,4 -4,4"/>
<!-- Node2 -->
<g id="node1" class="node">
<title>Node2</title>
<polygon fill="#bfbfbf" stroke="#000000" points="7,-.5 7,-19.5 132,-19.5 132,-.5 7,-.5"/>
<text text-anchor="middle" x="69.5" y="-7.5" font-family="Helvetica,sans-Serif" font-size="10.00" fill="#000000">Uptane::IsoTpSecondary</text>
</g>
<!-- Node3 -->
<g id="node2" class="node">
<title>Node3</title>
<g id="a_node2"><a xlink:href="class_uptane_1_1_secondary_interface.html" target="_top" xlink:title="Uptane::SecondaryInterface">
<polygon fill="#ffffff" stroke="#000000" points="0,-57.5 0,-76.5 139,-76.5 139,-57.5 0,-57.5"/>
<text text-anchor="middle" x="69.5" y="-64.5" font-family="Helvetica,sans-Serif" font-size="10.00" fill="#000000">Uptane::SecondaryInterface</text>
</a>
</g>
</g>
<!-- Node3&#45;&gt;Node2 -->
<g id="edge1" class="edge">
<title>Node3&#45;&gt;Node2</title>
<path fill="none" stroke="#191970" d="M69.5,-47.2342C69.5,-37.8491 69.5,-27.0651 69.5,-19.5265"/>
<polygon fill="#191970" stroke="#191970" points="66.0001,-47.3307 69.5,-57.3307 73.0001,-47.3308 66.0001,-47.3307"/>
</g>
<!-- Node4 -->
<g id="node3" class="node">
<title>Node4</title>
<g id="a_node3"><a xlink:href="class_uptane_1_1_secondary_config.html" target="_top" xlink:title="Uptane::SecondaryConfig">
<polygon fill="#ffffff" stroke="#000000" points="5,-124.5 5,-143.5 134,-143.5 134,-124.5 5,-124.5"/>
<text text-anchor="middle" x="69.5" y="-131.5" font-family="Helvetica,sans-Serif" font-size="10.00" fill="#000000">Uptane::SecondaryConfig</text>
</a>
</g>
</g>
<!-- Node4&#45;&gt;Node3 -->
<g id="edge2" class="edge">
<title>Node4&#45;&gt;Node3</title>
<path fill="none" stroke="#9a32cd" stroke-dasharray="5,2" d="M69.5,-114.1079C69.5,-101.714 69.5,-86.3263 69.5,-76.5817"/>
<polygon fill="#9a32cd" stroke="#9a32cd" points="66.0001,-114.4005 69.5,-124.4005 73.0001,-114.4006 66.0001,-114.4005"/>
<text text-anchor="middle" x="87" y="-98" font-family="Helvetica,sans-Serif" font-size="10.00" fill="#000000"> sconfig</text>
</g>
<!-- Node5 -->
<g id="node4" class="node">
<title>Node5</title>
<g id="a_node4"><a xlink:title="STL class. ">
<polygon fill="#ffffff" stroke="#bfbfbf" points="39.5,-246.5 39.5,-265.5 99.5,-265.5 99.5,-246.5 39.5,-246.5"/>
<text text-anchor="middle" x="69.5" y="-253.5" font-family="Helvetica,sans-Serif" font-size="10.00" fill="#000000">std::string</text>
</a>
</g>
</g>
<!-- Node5&#45;&gt;Node4 -->
<g id="edge3" class="edge">
<title>Node5&#45;&gt;Node4</title>
<path fill="none" stroke="#9a32cd" stroke-dasharray="5,2" d="M69.5,-236.3912C69.5,-209.8282 69.5,-163.4446 69.5,-143.5287"/>
<polygon fill="#9a32cd" stroke="#9a32cd" points="66.0001,-236.4268 69.5,-246.4269 73.0001,-236.4269 66.0001,-236.4268"/>
<text text-anchor="middle" x="107" y="-220" font-family="Helvetica,sans-Serif" font-size="10.00" fill="#000000"> ecu_private_key</text>
<text text-anchor="middle" x="107" y="-209" font-family="Helvetica,sans-Serif" font-size="10.00" fill="#000000">can_iface</text>
<text text-anchor="middle" x="107" y="-198" font-family="Helvetica,sans-Serif" font-size="10.00" fill="#000000">ecu_hardware_id</text>
<text text-anchor="middle" x="107" y="-187" font-family="Helvetica,sans-Serif" font-size="10.00" fill="#000000">ecu_serial</text>
<text text-anchor="middle" x="107" y="-176" font-family="Helvetica,sans-Serif" font-size="10.00" fill="#000000">opcua_lds_url</text>
<text text-anchor="middle" x="107" y="-165" font-family="Helvetica,sans-Serif" font-size="10.00" fill="#000000">ecu_public_key</text>
</g>
<!-- Node6 -->
<g id="node5" class="node">
<title>Node6</title>
<g id="a_node5"><a xlink:title="STL class. ">
<polygon fill="#ffffff" stroke="#bfbfbf" points="22,-303.5 22,-333.5 117,-333.5 117,-303.5 22,-303.5"/>
<text text-anchor="start" x="30" y="-321.5" font-family="Helvetica,sans-Serif" font-size="10.00" fill="#000000">std::basic_string&lt;</text>
<text text-anchor="middle" x="69.5" y="-310.5" font-family="Helvetica,sans-Serif" font-size="10.00" fill="#000000"> char &gt;</text>
</a>
</g>
</g>
<!-- Node6&#45;&gt;Node5 -->
<g id="edge4" class="edge">
<title>Node6&#45;&gt;Node5</title>
<path fill="none" stroke="#191970" d="M69.5,-293.3498C69.5,-283.6481 69.5,-273.1303 69.5,-265.7356"/>
<polygon fill="#191970" stroke="#191970" points="66.0001,-293.3705 69.5,-303.3705 73.0001,-293.3705 66.0001,-293.3705"/>
</g>
</g>
</svg>
