<?xml version="1.0" encoding="UTF-8" standalone="no"?>
<!DOCTYPE svg PUBLIC "-//W3C//DTD SVG 1.1//EN"
 "http://www.w3.org/Graphics/SVG/1.1/DTD/svg11.dtd">
<!-- Generated by graphviz version 2.40.1 (20161225.0304)
 -->
<!-- Title: EphemeralStorage Pages: 1 -->
<svg width="413pt" height="443pt"
 viewBox="0.00 0.00 412.51 443.00" xmlns="http://www.w3.org/2000/svg" xmlns:xlink="http://www.w3.org/1999/xlink">
<g id="graph0" class="graph" transform="scale(1 1) rotate(0) translate(4 439)">
<title>EphemeralStorage</title>
<polygon fill="#ffffff" stroke="transparent" points="-4,4 -4,-439 408.5084,-439 408.5084,4 -4,4"/>
<!-- Node4 -->
<g id="node1" class="node">
<title>Node4</title>
<polygon fill="#bfbfbf" stroke="#000000" points="145.0084,-.5 145.0084,-19.5 242.0084,-19.5 242.0084,-.5 145.0084,-.5"/>
<text text-anchor="middle" x="193.5084" y="-7.5" font-family="Helvetica,sans-Serif" font-size="10.00" fill="#000000">EphemeralStorage</text>
</g>
<!-- Node5 -->
<g id="node2" class="node">
<title>Node5</title>
<g id="a_node2"><a xlink:href="class_s_q_l_storage.html" target="_top" xlink:title="SQLStorage">
<polygon fill="#ffffff" stroke="#000000" points="158.5084,-57.5 158.5084,-76.5 228.5084,-76.5 228.5084,-57.5 158.5084,-57.5"/>
<text text-anchor="middle" x="193.5084" y="-64.5" font-family="Helvetica,sans-Serif" font-size="10.00" fill="#000000">SQLStorage</text>
</a>
</g>
</g>
<!-- Node5&#45;&gt;Node4 -->
<g id="edge1" class="edge">
<title>Node5&#45;&gt;Node4</title>
<path fill="none" stroke="#191970" d="M193.5084,-47.2342C193.5084,-37.8491 193.5084,-27.0651 193.5084,-19.5265"/>
<polygon fill="#191970" stroke="#191970" points="190.0085,-47.3307 193.5084,-57.3307 197.0085,-47.3308 190.0085,-47.3307"/>
</g>
<!-- Node6 -->
<g id="node3" class="node">
<title>Node6</title>
<g id="a_node3"><a xlink:href="class_s_q_l_storage_base.html" target="_top" xlink:title="SQLStorageBase">
<polygon fill="#ffffff" stroke="#000000" points="99.5084,-114.5 99.5084,-133.5 191.5084,-133.5 191.5084,-114.5 99.5084,-114.5"/>
<text text-anchor="middle" x="145.5084" y="-121.5" font-family="Helvetica,sans-Serif" font-size="10.00" fill="#000000">SQLStorageBase</text>
</a>
</g>
</g>
<!-- Node6&#45;&gt;Node5 -->
<g id="edge2" class="edge">
<title>Node6&#45;&gt;Node5</title>
<path fill="none" stroke="#191970" d="M160.1209,-106.6477C168.4566,-96.7491 178.5858,-84.7206 185.4861,-76.5265"/>
<polygon fill="#191970" stroke="#191970" points="157.4152,-104.4271 153.651,-114.3307 162.7695,-108.9361 157.4152,-104.4271"/>
</g>
<!-- Node7 -->
<g id="node4" class="node">
<title>Node7</title>
<g id="a_node4"><a xlink:title="STL class. ">
<polygon fill="#ffffff" stroke="#bfbfbf" points="19.5084,-347.5 19.5084,-366.5 79.5084,-366.5 79.5084,-347.5 19.5084,-347.5"/>
<text text-anchor="middle" x="49.5084" y="-354.5" font-family="Helvetica,sans-Serif" font-size="10.00" fill="#000000">std::string</text>
</a>
</g>
</g>
<!-- Node7&#45;&gt;Node6 -->
<g id="edge3" class="edge">
<title>Node7&#45;&gt;Node6</title>
<path fill="none" stroke="#9a32cd" stroke-dasharray="5,2" d="M36.3852,-338.6853C16.5661,-308.5707 -16.1062,-247.5016 9.5084,-203 30.9623,-165.7271 77.4956,-144.4148 110.1284,-133.5323"/>
<polygon fill="#9a32cd" stroke="#9a32cd" points="33.7484,-341.0305 42.2782,-347.3149 39.5292,-337.0829 33.7484,-341.0305"/>
<text text-anchor="middle" x="49.0084" y="-210.5" font-family="Helvetica,sans-Serif" font-size="10.00" fill="#000000"> current_schema_</text>
</g>
<!-- Node9 -->
<g id="node6" class="node">
<title>Node9</title>
<polygon fill="#ffffff" stroke="#bfbfbf" points="98.0084,-203.5 98.0084,-222.5 223.0084,-222.5 223.0084,-203.5 98.0084,-203.5"/>
<text text-anchor="middle" x="160.5084" y="-210.5" font-family="Helvetica,sans-Serif" font-size="10.00" fill="#000000">std::vector&lt; std::string &gt;</text>
</g>
<!-- Node7&#45;&gt;Node9 -->
<g id="edge6" class="edge">
<title>Node7&#45;&gt;Node9</title>
<path fill="none" stroke="#9a32cd" stroke-dasharray="5,2" d="M63.4294,-338.9404C87.2017,-308.1006 134.8253,-246.3187 153.1179,-222.5877"/>
<polygon fill="#9a32cd" stroke="#9a32cd" points="60.471,-337.0454 57.1379,-347.1023 66.015,-341.319 60.471,-337.0454"/>
<text text-anchor="middle" x="159.0084" y="-282.5" font-family="Helvetica,sans-Serif" font-size="10.00" fill="#000000"> elements</text>
</g>
<!-- Node8 -->
<g id="node5" class="node">
<title>Node8</title>
<g id="a_node5"><a xlink:title="STL class. ">
<polygon fill="#ffffff" stroke="#bfbfbf" points="2.0084,-404.5 2.0084,-434.5 97.0084,-434.5 97.0084,-404.5 2.0084,-404.5"/>
<text text-anchor="start" x="10.0084" y="-422.5" font-family="Helvetica,sans-Serif" font-size="10.00" fill="#000000">std::basic_string&lt;</text>
<text text-anchor="middle" x="49.5084" y="-411.5" font-family="Helvetica,sans-Serif" font-size="10.00" fill="#000000"> char &gt;</text>
</a>
</g>
</g>
<!-- Node8&#45;&gt;Node7 -->
<g id="edge4" class="edge">
<title>Node8&#45;&gt;Node7</title>
<path fill="none" stroke="#191970" d="M49.5084,-394.3498C49.5084,-384.6481 49.5084,-374.1303 49.5084,-366.7356"/>
<polygon fill="#191970" stroke="#191970" points="46.0085,-394.3705 49.5084,-404.3705 53.0085,-394.3705 46.0085,-394.3705"/>
</g>
<!-- Node9&#45;&gt;Node6 -->
<g id="edge5" class="edge">
<title>Node9&#45;&gt;Node6</title>
<path fill="none" stroke="#9a32cd" stroke-dasharray="5,2" d="M149.757,-194.3239C148.4289,-191.291 147.2719,-188.1196 146.5084,-185 142.1777,-167.3045 143.2149,-145.851 144.3619,-133.6773"/>
<polygon fill="#9a32cd" stroke="#9a32cd" points="146.669,-195.9731 154.3122,-203.3102 152.9126,-192.8082 146.669,-195.9731"/>
<text text-anchor="start" x="146.5084" y="-177" font-family="Helvetica,sans-Serif" font-size="10.00" fill="#000000"> schema_rollback_migrations</text>
<text text-anchor="middle" x="210.0084" y="-166" font-family="Helvetica,sans-Serif" font-size="10.00" fill="#000000">_</text>
<text text-anchor="middle" x="210.0084" y="-155" font-family="Helvetica,sans-Serif" font-size="10.00" fill="#000000">schema_migrations_</text>
</g>
<!-- Node10 -->
<g id="node7" class="node">
<title>Node10</title>
<g id="a_node7"><a xlink:href="class_i_nv_storage.html" target="_top" xlink:title="INvStorage">
<polygon fill="#ffffff" stroke="#000000" points="235.5084,-114.5 235.5084,-133.5 301.5084,-133.5 301.5084,-114.5 235.5084,-114.5"/>
<text text-anchor="middle" x="268.5084" y="-121.5" font-family="Helvetica,sans-Serif" font-size="10.00" fill="#000000">INvStorage</text>
</a>
</g>
</g>
<!-- Node10&#45;&gt;Node5 -->
<g id="edge7" class="edge">
<title>Node10&#45;&gt;Node5</title>
<path fill="none" stroke="#191970" d="M247.6081,-108.1158C234.2472,-97.9615 217.3641,-85.1303 206.0432,-76.5265"/>
<polygon fill="#191970" stroke="#191970" points="245.7062,-111.0664 255.7857,-114.3307 249.9418,-105.4933 245.7062,-111.0664"/>
</g>
<!-- Node11 -->
<g id="node8" class="node">
<title>Node11</title>
<g id="a_node8"><a xlink:href="struct_storage_config.html" target="_top" xlink:title="StorageConfig">
<polygon fill="#ffffff" stroke="#000000" points="256.0084,-203.5 256.0084,-222.5 335.0084,-222.5 335.0084,-203.5 256.0084,-203.5"/>
<text text-anchor="middle" x="295.5084" y="-210.5" font-family="Helvetica,sans-Serif" font-size="10.00" fill="#000000">StorageConfig</text>
</a>
</g>
</g>
<!-- Node11&#45;&gt;Node10 -->
<g id="edge8" class="edge">
<title>Node11&#45;&gt;Node10</title>
<path fill="none" stroke="#9a32cd" stroke-dasharray="5,2" d="M289.6711,-193.7584C284.0629,-175.2723 275.817,-148.0912 271.459,-133.7259"/>
<polygon fill="#9a32cd" stroke="#9a32cd" points="286.3665,-194.9222 292.6189,-203.4754 293.0651,-192.89 286.3665,-194.9222"/>
<text text-anchor="middle" x="305.0084" y="-166" font-family="Helvetica,sans-Serif" font-size="10.00" fill="#000000"> config_</text>
</g>
<!-- Node12 -->
<g id="node9" class="node">
<title>Node12</title>
<g id="a_node9"><a xlink:href="class_based_path.html" target="_top" xlink:title="BasedPath">
<polygon fill="#ffffff" stroke="#000000" points="263.0084,-347.5 263.0084,-366.5 328.0084,-366.5 328.0084,-347.5 263.0084,-347.5"/>
<text text-anchor="middle" x="295.5084" y="-354.5" font-family="Helvetica,sans-Serif" font-size="10.00" fill="#000000">BasedPath</text>
</a>
</g>
</g>
<!-- Node12&#45;&gt;Node11 -->
<g id="edge9" class="edge">
<title>Node12&#45;&gt;Node11</title>
<path fill="none" stroke="#9a32cd" stroke-dasharray="5,2" d="M295.5084,-336.9129C295.5084,-305.4665 295.5084,-245.8094 295.5084,-222.5877"/>
<polygon fill="#9a32cd" stroke="#9a32cd" points="292.0085,-337.1023 295.5084,-347.1023 299.0085,-337.1023 292.0085,-337.1023"/>
<text text-anchor="middle" x="350.0084" y="-321" font-family="Helvetica,sans-Serif" font-size="10.00" fill="#000000"> uptane_public_key_path</text>
<text text-anchor="middle" x="350.0084" y="-310" font-family="Helvetica,sans-Serif" font-size="10.00" fill="#000000">tls_pkey_path</text>
<text text-anchor="middle" x="350.0084" y="-299" font-family="Helvetica,sans-Serif" font-size="10.00" fill="#000000">uptane_metadata_path</text>
<text text-anchor="middle" x="350.0084" y="-288" font-family="Helvetica,sans-Serif" font-size="10.00" fill="#000000">sqldb_path</text>
<text text-anchor="start" x="295.5084" y="-277" font-family="Helvetica,sans-Serif" font-size="10.00" fill="#000000">uptane_private_key</text>
<text text-anchor="middle" x="350.0084" y="-266" font-family="Helvetica,sans-Serif" font-size="10.00" fill="#000000">_path</text>
<text text-anchor="middle" x="350.0084" y="-255" font-family="Helvetica,sans-Serif" font-size="10.00" fill="#000000">tls_cacert_path</text>
<text text-anchor="middle" x="350.0084" y="-244" font-family="Helvetica,sans-Serif" font-size="10.00" fill="#000000">tls_clientcert_path</text>
</g>
</g>
</svg>
