<?xml version="1.0" encoding="UTF-8" standalone="no"?>
<!DOCTYPE svg PUBLIC "-//W3C//DTD SVG 1.1//EN"
 "http://www.w3.org/Graphics/SVG/1.1/DTD/svg11.dtd">
<!-- Generated by graphviz version 2.40.1 (20161225.0304)
 -->
<!-- Title: opcuabridge::ECUVersionManifestSigned Pages: 1 -->
<svg width="326pt" height="386pt"
 viewBox="0.00 0.00 326.00 386.00" xmlns="http://www.w3.org/2000/svg" xmlns:xlink="http://www.w3.org/1999/xlink">
<g id="graph0" class="graph" transform="scale(1 1) rotate(0) translate(4 382)">
<title>opcuabridge::ECUVersionManifestSigned</title>
<polygon fill="#ffffff" stroke="transparent" points="-4,4 -4,-382 322,-382 322,4 -4,4"/>
<!-- Node1 -->
<g id="node1" class="node">
<title>Node1</title>
<polygon fill="#bfbfbf" stroke="#000000" points="0,-.5 0,-30.5 167,-30.5 167,-.5 0,-.5"/>
<text text-anchor="start" x="8" y="-18.5" font-family="Helvetica,sans-Serif" font-size="10.00" fill="#000000">opcuabridge::ECUVersionManifest</text>
<text text-anchor="middle" x="83.5" y="-7.5" font-family="Helvetica,sans-Serif" font-size="10.00" fill="#000000">Signed</text>
</g>
<!-- Node2 -->
<g id="node2" class="node">
<title>Node2</title>
<g id="a_node2"><a xlink:title="STL class. ">
<polygon fill="#ffffff" stroke="#bfbfbf" points="134.5,-290.5 134.5,-309.5 194.5,-309.5 194.5,-290.5 134.5,-290.5"/>
<text text-anchor="middle" x="164.5" y="-297.5" font-family="Helvetica,sans-Serif" font-size="10.00" fill="#000000">std::string</text>
</a>
</g>
</g>
<!-- Node2&#45;&gt;Node1 -->
<g id="edge1" class="edge">
<title>Node2&#45;&gt;Node1</title>
<path fill="none" stroke="#9a32cd" stroke-dasharray="5,2" d="M124.7053,-289.5488C97.9322,-279.8392 67.5,-262.3477 67.5,-233 67.5,-233 67.5,-233 67.5,-88 67.5,-67.7632 73.5178,-45.0799 78.1722,-30.5621"/>
<polygon fill="#9a32cd" stroke="#9a32cd" points="123.7464,-292.9188 134.3403,-292.7815 125.973,-286.2823 123.7464,-292.9188"/>
<text text-anchor="middle" x="102" y="-163.5" font-family="Helvetica,sans-Serif" font-size="10.00" fill="#000000"> ecuIdentifier_</text>
<text text-anchor="middle" x="102" y="-152.5" font-family="Helvetica,sans-Serif" font-size="10.00" fill="#000000">securityAttack_</text>
</g>
<!-- Node4 -->
<g id="node4" class="node">
<title>Node4</title>
<g id="a_node4"><a xlink:href="classopcuabridge_1_1_image.html" target="_top" xlink:title="opcuabridge::Image">
<polygon fill="#ffffff" stroke="#000000" points="113.5,-78.5 113.5,-97.5 215.5,-97.5 215.5,-78.5 113.5,-78.5"/>
<text text-anchor="middle" x="164.5" y="-85.5" font-family="Helvetica,sans-Serif" font-size="10.00" fill="#000000">opcuabridge::Image</text>
</a>
</g>
</g>
<!-- Node2&#45;&gt;Node4 -->
<g id="edge4" class="edge">
<title>Node2&#45;&gt;Node4</title>
<path fill="none" stroke="#9a32cd" stroke-dasharray="5,2" d="M164.5,-280.2788C164.5,-236.0549 164.5,-130.291 164.5,-97.7168"/>
<polygon fill="#9a32cd" stroke="#9a32cd" points="161.0001,-280.3399 164.5,-290.3399 168.0001,-280.3399 161.0001,-280.3399"/>
<text text-anchor="middle" x="187.5" y="-197" font-family="Helvetica,sans-Serif" font-size="10.00" fill="#000000"> filename_</text>
</g>
<!-- Node6 -->
<g id="node6" class="node">
<title>Node6</title>
<g id="a_node6"><a xlink:href="classopcuabridge_1_1_hash.html" target="_top" xlink:title="opcuabridge::Hash">
<polygon fill="#ffffff" stroke="#000000" points="199.5,-223.5 199.5,-242.5 297.5,-242.5 297.5,-223.5 199.5,-223.5"/>
<text text-anchor="middle" x="248.5" y="-230.5" font-family="Helvetica,sans-Serif" font-size="10.00" fill="#000000">opcuabridge::Hash</text>
</a>
</g>
</g>
<!-- Node2&#45;&gt;Node6 -->
<g id="edge7" class="edge">
<title>Node2&#45;&gt;Node6</title>
<path fill="none" stroke="#9a32cd" stroke-dasharray="5,2" d="M184.3642,-284.1559C200.558,-271.2395 222.8987,-253.4201 236.4872,-242.5817"/>
<polygon fill="#9a32cd" stroke="#9a32cd" points="182.1705,-281.4287 176.5352,-290.4005 186.5354,-286.9011 182.1705,-281.4287"/>
<text text-anchor="middle" x="230" y="-264" font-family="Helvetica,sans-Serif" font-size="10.00" fill="#000000"> digest_</text>
</g>
<!-- Node3 -->
<g id="node3" class="node">
<title>Node3</title>
<g id="a_node3"><a xlink:title="STL class. ">
<polygon fill="#ffffff" stroke="#bfbfbf" points="117,-347.5 117,-377.5 212,-377.5 212,-347.5 117,-347.5"/>
<text text-anchor="start" x="125" y="-365.5" font-family="Helvetica,sans-Serif" font-size="10.00" fill="#000000">std::basic_string&lt;</text>
<text text-anchor="middle" x="164.5" y="-354.5" font-family="Helvetica,sans-Serif" font-size="10.00" fill="#000000"> char &gt;</text>
</a>
</g>
</g>
<!-- Node3&#45;&gt;Node2 -->
<g id="edge2" class="edge">
<title>Node3&#45;&gt;Node2</title>
<path fill="none" stroke="#191970" d="M164.5,-337.3498C164.5,-327.6481 164.5,-317.1303 164.5,-309.7356"/>
<polygon fill="#191970" stroke="#191970" points="161.0001,-337.3705 164.5,-347.3705 168.0001,-337.3705 161.0001,-337.3705"/>
</g>
<!-- Node4&#45;&gt;Node1 -->
<g id="edge3" class="edge">
<title>Node4&#45;&gt;Node1</title>
<path fill="none" stroke="#9a32cd" stroke-dasharray="5,2" d="M145.7551,-71.2222C132.0755,-58.9781 113.687,-42.5193 100.4463,-30.668"/>
<polygon fill="#9a32cd" stroke="#9a32cd" points="143.7905,-74.1609 153.576,-78.2223 148.459,-68.9451 143.7905,-74.1609"/>
<text text-anchor="middle" x="167.5" y="-52" font-family="Helvetica,sans-Serif" font-size="10.00" fill="#000000"> installedImage_</text>
</g>
<!-- Node5 -->
<g id="node5" class="node">
<title>Node5</title>
<polygon fill="#ffffff" stroke="#bfbfbf" points="193,-145.5 193,-175.5 318,-175.5 318,-145.5 193,-145.5"/>
<text text-anchor="start" x="201" y="-163.5" font-family="Helvetica,sans-Serif" font-size="10.00" fill="#000000">std::vector&lt; opcuabridge</text>
<text text-anchor="middle" x="255.5" y="-152.5" font-family="Helvetica,sans-Serif" font-size="10.00" fill="#000000">::Hash &gt;</text>
</g>
<!-- Node5&#45;&gt;Node4 -->
<g id="edge5" class="edge">
<title>Node5&#45;&gt;Node4</title>
<path fill="none" stroke="#9a32cd" stroke-dasharray="5,2" d="M228.5906,-139.0612C211.3693,-125.3409 189.857,-108.202 176.6532,-97.6825"/>
<polygon fill="#9a32cd" stroke="#9a32cd" points="226.6425,-141.9841 236.6447,-145.478 231.0044,-136.5093 226.6425,-141.9841"/>
<text text-anchor="middle" x="233.5" y="-119" font-family="Helvetica,sans-Serif" font-size="10.00" fill="#000000"> hashes_</text>
</g>
<!-- Node6&#45;&gt;Node5 -->
<g id="edge6" class="edge">
<title>Node6&#45;&gt;Node5</title>
<path fill="none" stroke="#9a32cd" stroke-dasharray="5,2" d="M250.4293,-213.0177C251.5688,-201.2164 252.9884,-186.513 254.0355,-175.668"/>
<polygon fill="#9a32cd" stroke="#9a32cd" points="246.9214,-212.9322 249.4441,-223.2223 253.889,-213.605 246.9214,-212.9322"/>
<text text-anchor="middle" x="273" y="-197" font-family="Helvetica,sans-Serif" font-size="10.00" fill="#000000"> elements</text>
</g>
</g>
</svg>
