<?xml version="1.0" encoding="UTF-8" standalone="no"?>
<!DOCTYPE svg PUBLIC "-//W3C//DTD SVG 1.1//EN"
 "http://www.w3.org/Graphics/SVG/1.1/DTD/svg11.dtd">
<!-- Generated by graphviz version 2.40.1 (20161225.0304)
 -->
<!-- Title: InstallReport Pages: 1 -->
<svg width="334pt" height="241pt"
 viewBox="0.00 0.00 334.00 241.00" xmlns="http://www.w3.org/2000/svg" xmlns:xlink="http://www.w3.org/1999/xlink">
<g id="graph0" class="graph" transform="scale(1 1) rotate(0) translate(4 237)">
<title>InstallReport</title>
<polygon fill="#ffffff" stroke="transparent" points="-4,4 -4,-237 330,-237 330,4 -4,4"/>
<!-- Node1 -->
<g id="node1" class="node">
<title>Node1</title>
<polygon fill="#bfbfbf" stroke="#000000" points="120,-.5 120,-19.5 192,-19.5 192,-.5 120,-.5"/>
<text text-anchor="middle" x="156" y="-7.5" font-family="Helvetica,sans-Serif" font-size="10.00" fill="#000000">InstallReport</text>
</g>
<!-- Node2 -->
<g id="node2" class="node">
<title>Node2</title>
<g id="a_node2"><a xlink:href="class_uptane_1_1_target.html" target="_top" xlink:title="Uptane::Target">
<polygon fill="#ffffff" stroke="#000000" points="0,-67.5 0,-86.5 82,-86.5 82,-67.5 0,-67.5"/>
<text text-anchor="middle" x="41" y="-74.5" font-family="Helvetica,sans-Serif" font-size="10.00" fill="#000000">Uptane::Target</text>
</a>
</g>
</g>
<!-- Node2&#45;&gt;Node1 -->
<g id="edge1" class="edge">
<title>Node2&#45;&gt;Node1</title>
<path fill="none" stroke="#9a32cd" stroke-dasharray="5,2" d="M66.3841,-62.211C88.6724,-49.2256 120.4385,-30.7184 139.5539,-19.5817"/>
<polygon fill="#9a32cd" stroke="#9a32cd" points="64.3553,-59.3423 57.4767,-67.4005 67.8792,-65.3906 64.3553,-59.3423"/>
<text text-anchor="middle" x="122.5" y="-41" font-family="Helvetica,sans-Serif" font-size="10.00" fill="#000000"> update</text>
</g>
<!-- Node3 -->
<g id="node3" class="node">
<title>Node3</title>
<g id="a_node3"><a xlink:href="structdata_1_1_operation_result.html" target="_top" xlink:title="data::OperationResult">
<polygon fill="#ffffff" stroke="#000000" points="100,-67.5 100,-86.5 212,-86.5 212,-67.5 100,-67.5"/>
<text text-anchor="middle" x="156" y="-74.5" font-family="Helvetica,sans-Serif" font-size="10.00" fill="#000000">data::OperationResult</text>
</a>
</g>
</g>
<!-- Node3&#45;&gt;Node1 -->
<g id="edge2" class="edge">
<title>Node3&#45;&gt;Node1</title>
<path fill="none" stroke="#9a32cd" stroke-dasharray="5,2" d="M156,-57.1079C156,-44.714 156,-29.3263 156,-19.5817"/>
<polygon fill="#9a32cd" stroke="#9a32cd" points="152.5001,-57.4005 156,-67.4005 159.5001,-57.4006 152.5001,-57.4005"/>
<text text-anchor="middle" x="171.5" y="-41" font-family="Helvetica,sans-Serif" font-size="10.00" fill="#000000"> status</text>
</g>
<!-- Node4 -->
<g id="node4" class="node">
<title>Node4</title>
<g id="a_node4"><a xlink:title="STL class. ">
<polygon fill="#ffffff" stroke="#bfbfbf" points="126,-145.5 126,-164.5 186,-164.5 186,-145.5 126,-145.5"/>
<text text-anchor="middle" x="156" y="-152.5" font-family="Helvetica,sans-Serif" font-size="10.00" fill="#000000">std::string</text>
</a>
</g>
</g>
<!-- Node4&#45;&gt;Node3 -->
<g id="edge3" class="edge">
<title>Node4&#45;&gt;Node3</title>
<path fill="none" stroke="#9a32cd" stroke-dasharray="5,2" d="M156,-135.2866C156,-119.7395 156,-98.7276 156,-86.6426"/>
<polygon fill="#9a32cd" stroke="#9a32cd" points="152.5001,-135.4356 156,-145.4357 159.5001,-135.4357 152.5001,-135.4356"/>
<text text-anchor="middle" x="180.5" y="-119" font-family="Helvetica,sans-Serif" font-size="10.00" fill="#000000"> result_text</text>
<text text-anchor="middle" x="180.5" y="-108" font-family="Helvetica,sans-Serif" font-size="10.00" fill="#000000">id</text>
</g>
<!-- Node5 -->
<g id="node5" class="node">
<title>Node5</title>
<g id="a_node5"><a xlink:title="STL class. ">
<polygon fill="#ffffff" stroke="#bfbfbf" points="108.5,-202.5 108.5,-232.5 203.5,-232.5 203.5,-202.5 108.5,-202.5"/>
<text text-anchor="start" x="116.5" y="-220.5" font-family="Helvetica,sans-Serif" font-size="10.00" fill="#000000">std::basic_string&lt;</text>
<text text-anchor="middle" x="156" y="-209.5" font-family="Helvetica,sans-Serif" font-size="10.00" fill="#000000"> char &gt;</text>
</a>
</g>
</g>
<!-- Node5&#45;&gt;Node4 -->
<g id="edge4" class="edge">
<title>Node5&#45;&gt;Node4</title>
<path fill="none" stroke="#191970" d="M156,-192.3498C156,-182.6481 156,-172.1303 156,-164.7356"/>
<polygon fill="#191970" stroke="#191970" points="152.5001,-192.3705 156,-202.3705 159.5001,-192.3705 152.5001,-192.3705"/>
</g>
<!-- Node6 -->
<g id="node6" class="node">
<title>Node6</title>
<g id="a_node6"><a xlink:href="class_uptane_1_1_ecu_serial.html" target="_top" xlink:title="Uptane::EcuSerial">
<polygon fill="#ffffff" stroke="#000000" points="230,-67.5 230,-86.5 326,-86.5 326,-67.5 230,-67.5"/>
<text text-anchor="middle" x="278" y="-74.5" font-family="Helvetica,sans-Serif" font-size="10.00" fill="#000000">Uptane::EcuSerial</text>
</a>
</g>
</g>
<!-- Node6&#45;&gt;Node1 -->
<g id="edge5" class="edge">
<title>Node6&#45;&gt;Node1</title>
<path fill="none" stroke="#9a32cd" stroke-dasharray="5,2" d="M251.7018,-62.5575C228.0286,-49.5567 193.9071,-30.8179 173.4472,-19.5817"/>
<polygon fill="#9a32cd" stroke="#9a32cd" points="250.0704,-65.6546 260.5204,-67.4005 253.44,-59.519 250.0704,-65.6546"/>
<text text-anchor="middle" x="238.5" y="-41" font-family="Helvetica,sans-Serif" font-size="10.00" fill="#000000"> serial</text>
</g>
</g>
</svg>
