<?xml version="1.0" encoding="UTF-8" standalone="no"?>
<!DOCTYPE svg PUBLIC "-//W3C//DTD SVG 1.1//EN"
 "http://www.w3.org/Graphics/SVG/1.1/DTD/svg11.dtd">
<!-- Generated by graphviz version 2.40.1 (20161225.0304)
 -->
<!-- Title: SQLStorageBase Pages: 1 -->
<svg width="280pt" height="252pt"
 viewBox="0.00 0.00 279.50 252.00" xmlns="http://www.w3.org/2000/svg" xmlns:xlink="http://www.w3.org/1999/xlink">
<g id="graph0" class="graph" transform="scale(1 1) rotate(0) translate(4 248)">
<title>SQLStorageBase</title>
<polygon fill="#ffffff" stroke="transparent" points="-4,4 -4,-248 275.5,-248 275.5,4 -4,4"/>
<!-- Node3 -->
<g id="node1" class="node">
<title>Node3</title>
<polygon fill="#bfbfbf" stroke="#000000" points="1.5,-.5 1.5,-19.5 93.5,-19.5 93.5,-.5 1.5,-.5"/>
<text text-anchor="middle" x="47.5" y="-7.5" font-family="Helvetica,sans-Serif" font-size="10.00" fill="#000000">SQLStorageBase</text>
</g>
<!-- Node4 -->
<g id="node2" class="node">
<title>Node4</title>
<g id="a_node2"><a xlink:title="STL class. ">
<polygon fill="#ffffff" stroke="#bfbfbf" points="17.5,-156.5 17.5,-175.5 77.5,-175.5 77.5,-156.5 17.5,-156.5"/>
<text text-anchor="middle" x="47.5" y="-163.5" font-family="Helvetica,sans-Serif" font-size="10.00" fill="#000000">std::string</text>
</a>
</g>
</g>
<!-- Node4&#45;&gt;Node3 -->
<g id="edge1" class="edge">
<title>Node4&#45;&gt;Node3</title>
<path fill="none" stroke="#9a32cd" stroke-dasharray="5,2" d="M44.8969,-146.1736C43.5905,-135.2326 42.1503,-121.39 41.5,-109 39.7762,-76.1568 43.9646,-37.2129 46.2026,-19.554"/>
<polygon fill="#9a32cd" stroke="#9a32cd" points="41.4548,-146.8551 46.1711,-156.3423 48.4005,-145.9847 41.4548,-146.8551"/>
<text text-anchor="middle" x="81" y="-96.5" font-family="Helvetica,sans-Serif" font-size="10.00" fill="#000000"> current_schema_</text>
</g>
<!-- Node6 -->
<g id="node4" class="node">
<title>Node6</title>
<polygon fill="#ffffff" stroke="#bfbfbf" points="129,-89.5 129,-108.5 254,-108.5 254,-89.5 129,-89.5"/>
<text text-anchor="middle" x="191.5" y="-96.5" font-family="Helvetica,sans-Serif" font-size="10.00" fill="#000000">std::vector&lt; std::string &gt;</text>
</g>
<!-- Node4&#45;&gt;Node6 -->
<g id="edge4" class="edge">
<title>Node4&#45;&gt;Node6</title>
<path fill="none" stroke="#9a32cd" stroke-dasharray="5,2" d="M77.4344,-152.0722C105.4105,-139.0555 146.4366,-119.967 170.9066,-108.5817"/>
<polygon fill="#9a32cd" stroke="#9a32cd" points="75.7219,-149.0086 68.1317,-156.4005 78.6748,-155.3553 75.7219,-149.0086"/>
<text text-anchor="middle" x="149" y="-130" font-family="Helvetica,sans-Serif" font-size="10.00" fill="#000000"> elements</text>
</g>
<!-- Node5 -->
<g id="node3" class="node">
<title>Node5</title>
<g id="a_node3"><a xlink:title="STL class. ">
<polygon fill="#ffffff" stroke="#bfbfbf" points="0,-213.5 0,-243.5 95,-243.5 95,-213.5 0,-213.5"/>
<text text-anchor="start" x="8" y="-231.5" font-family="Helvetica,sans-Serif" font-size="10.00" fill="#000000">std::basic_string&lt;</text>
<text text-anchor="middle" x="47.5" y="-220.5" font-family="Helvetica,sans-Serif" font-size="10.00" fill="#000000"> char &gt;</text>
</a>
</g>
</g>
<!-- Node5&#45;&gt;Node4 -->
<g id="edge2" class="edge">
<title>Node5&#45;&gt;Node4</title>
<path fill="none" stroke="#191970" d="M47.5,-203.3498C47.5,-193.6481 47.5,-183.1303 47.5,-175.7356"/>
<polygon fill="#191970" stroke="#191970" points="44.0001,-203.3705 47.5,-213.3705 51.0001,-203.3705 44.0001,-203.3705"/>
</g>
<!-- Node6&#45;&gt;Node3 -->
<g id="edge3" class="edge">
<title>Node6&#45;&gt;Node3</title>
<path fill="none" stroke="#9a32cd" stroke-dasharray="5,2" d="M167.2119,-83.9886C137.5755,-65.6717 88.3255,-35.2324 63.2363,-19.7259"/>
<polygon fill="#9a32cd" stroke="#9a32cd" points="165.7429,-87.1952 176.0895,-89.4754 169.4232,-81.2407 165.7429,-87.1952"/>
<text text-anchor="start" x="144.5" y="-63" font-family="Helvetica,sans-Serif" font-size="10.00" fill="#000000"> schema_rollback_migrations</text>
<text text-anchor="middle" x="208" y="-52" font-family="Helvetica,sans-Serif" font-size="10.00" fill="#000000">_</text>
<text text-anchor="middle" x="208" y="-41" font-family="Helvetica,sans-Serif" font-size="10.00" fill="#000000">schema_migrations_</text>
</g>
</g>
</svg>
