<?xml version="1.0" encoding="UTF-8" standalone="no"?>
<!DOCTYPE svg PUBLIC "-//W3C//DTD SVG 1.1//EN"
 "http://www.w3.org/Graphics/SVG/1.1/DTD/svg11.dtd">
<!-- Generated by graphviz version 2.40.1 (20161225.0304)
 -->
<!-- Title: opcuabridge::ImageBlock Pages: 1 -->
<svg width="592pt" height="186pt"
 viewBox="0.00 0.00 592.00 186.00" xmlns="http://www.w3.org/2000/svg" xmlns:xlink="http://www.w3.org/1999/xlink">
<g id="graph0" class="graph" transform="scale(1 1) rotate(0) translate(4 182)">
<title>opcuabridge::ImageBlock</title>
<polygon fill="#ffffff" stroke="transparent" points="-4,4 -4,-182 588,-182 588,4 -4,4"/>
<!-- Node1 -->
<g id="node1" class="node">
<title>Node1</title>
<polygon fill="#bfbfbf" stroke="#000000" points="457,-73.5 457,-92.5 584,-92.5 584,-73.5 457,-73.5"/>
<text text-anchor="middle" x="520.5" y="-80.5" font-family="Helvetica,sans-Serif" font-size="10.00" fill="#000000">opcuabridge::ImageBlock</text>
</g>
<!-- Node2 -->
<g id="node2" class="node">
<title>Node2</title>
<g id="a_node2"><a xlink:href="structopcuabridge_1_1_message_on_after_write_callback.html" target="_top" xlink:title="opcuabridge::MessageOnAfter\lWriteCallback\&lt; opcuabridge\l::ImageBlock \&gt;">
<polygon fill="#ffffff" stroke="#000000" points="177.5,-136.5 177.5,-177.5 326.5,-177.5 326.5,-136.5 177.5,-136.5"/>
<text text-anchor="start" x="185.5" y="-165.5" font-family="Helvetica,sans-Serif" font-size="10.00" fill="#000000">opcuabridge::MessageOnAfter</text>
<text text-anchor="start" x="185.5" y="-154.5" font-family="Helvetica,sans-Serif" font-size="10.00" fill="#000000">WriteCallback&lt; opcuabridge</text>
<text text-anchor="middle" x="252" y="-143.5" font-family="Helvetica,sans-Serif" font-size="10.00" fill="#000000">::ImageBlock &gt;</text>
</a>
</g>
</g>
<!-- Node2&#45;&gt;Node1 -->
<g id="edge1" class="edge">
<title>Node2&#45;&gt;Node1</title>
<path fill="none" stroke="#9a32cd" stroke-dasharray="5,2" d="M336.5747,-139.3922C368.8576,-132.0737 405.8562,-122.9591 439,-113 458.7823,-107.0558 480.7324,-98.882 496.8645,-92.5673"/>
<polygon fill="#9a32cd" stroke="#9a32cd" points="335.7075,-135.9996 326.7168,-141.6047 337.2405,-142.8297 335.7075,-135.9996"/>
<text text-anchor="middle" x="393.5" y="-138" font-family="Helvetica,sans-Serif" font-size="10.00" fill="#000000"> on_after_write_cb_</text>
</g>
<!-- Node3 -->
<g id="node3" class="node">
<title>Node3</title>
<g id="a_node3"><a xlink:title="STL class. ">
<polygon fill="#ffffff" stroke="#bfbfbf" points="222,-98.5 222,-117.5 282,-117.5 282,-98.5 222,-98.5"/>
<text text-anchor="middle" x="252" y="-105.5" font-family="Helvetica,sans-Serif" font-size="10.00" fill="#000000">std::string</text>
</a>
</g>
</g>
<!-- Node3&#45;&gt;Node1 -->
<g id="edge2" class="edge">
<title>Node3&#45;&gt;Node1</title>
<path fill="none" stroke="#9a32cd" stroke-dasharray="5,2" d="M292.2266,-104.2545C335.784,-100.1989 405.8619,-93.6739 456.8948,-88.9223"/>
<polygon fill="#9a32cd" stroke="#9a32cd" points="291.6512,-100.7928 282.0188,-105.205 292.3003,-107.7627 291.6512,-100.7928"/>
<text text-anchor="middle" x="393.5" y="-101" font-family="Helvetica,sans-Serif" font-size="10.00" fill="#000000"> filename_</text>
</g>
<!-- Node4 -->
<g id="node4" class="node">
<title>Node4</title>
<g id="a_node4"><a xlink:title="STL class. ">
<polygon fill="#ffffff" stroke="#bfbfbf" points="0,-93 0,-123 95,-123 95,-93 0,-93"/>
<text text-anchor="start" x="8" y="-111" font-family="Helvetica,sans-Serif" font-size="10.00" fill="#000000">std::basic_string&lt;</text>
<text text-anchor="middle" x="47.5" y="-100" font-family="Helvetica,sans-Serif" font-size="10.00" fill="#000000"> char &gt;</text>
</a>
</g>
</g>
<!-- Node4&#45;&gt;Node3 -->
<g id="edge3" class="edge">
<title>Node4&#45;&gt;Node3</title>
<path fill="none" stroke="#191970" d="M105.57,-108C143.3981,-108 191.2143,-108 221.7106,-108"/>
<polygon fill="#191970" stroke="#191970" points="105.1881,-104.5001 95.1881,-108 105.188,-111.5001 105.1881,-104.5001"/>
</g>
<!-- Node5 -->
<g id="node5" class="node">
<title>Node5</title>
<g id="a_node5"><a xlink:href="structopcuabridge_1_1_message_on_before_read_callback.html" target="_top" xlink:title="opcuabridge::MessageOnBefore\lReadCallback\&lt; opcuabridge\l::ImageBlock \&gt;">
<polygon fill="#ffffff" stroke="#000000" points="174,-38.5 174,-79.5 330,-79.5 330,-38.5 174,-38.5"/>
<text text-anchor="start" x="182" y="-67.5" font-family="Helvetica,sans-Serif" font-size="10.00" fill="#000000">opcuabridge::MessageOnBefore</text>
<text text-anchor="start" x="182" y="-56.5" font-family="Helvetica,sans-Serif" font-size="10.00" fill="#000000">ReadCallback&lt; opcuabridge</text>
<text text-anchor="middle" x="252" y="-45.5" font-family="Helvetica,sans-Serif" font-size="10.00" fill="#000000">::ImageBlock &gt;</text>
</a>
</g>
</g>
<!-- Node5&#45;&gt;Node1 -->
<g id="edge4" class="edge">
<title>Node5&#45;&gt;Node1</title>
<path fill="none" stroke="#9a32cd" stroke-dasharray="5,2" d="M340.8265,-60.8418C371.9489,-62.1308 407.0904,-64.3125 439,-68 450.5764,-69.3378 462.9863,-71.3307 474.5433,-73.4302"/>
<polygon fill="#9a32cd" stroke="#9a32cd" points="340.5649,-57.3291 330.4365,-60.438 340.293,-64.3238 340.5649,-57.3291"/>
<text text-anchor="middle" x="393.5" y="-71" font-family="Helvetica,sans-Serif" font-size="10.00" fill="#000000"> on_before_read_cb_</text>
</g>
<!-- Node6 -->
<g id="node6" class="node">
<title>Node6</title>
<g id="a_node6"><a xlink:title="STL class. ">
<polygon fill="#ffffff" stroke="#bfbfbf" points="208.5,-.5 208.5,-19.5 295.5,-19.5 295.5,-.5 208.5,-.5"/>
<text text-anchor="middle" x="252" y="-7.5" font-family="Helvetica,sans-Serif" font-size="10.00" fill="#000000">std::vector&lt; T &gt;</text>
</a>
</g>
</g>
<!-- Node6&#45;&gt;Node1 -->
<g id="edge5" class="edge">
<title>Node6&#45;&gt;Node1</title>
<path fill="none" stroke="#9a32cd" stroke-dasharray="5,2" d="M306.0875,-16.9583C343.8887,-22.6538 395.2294,-32.067 439,-46 461.6548,-53.2114 486.3413,-65.0191 502.5388,-73.3532"/>
<polygon fill="#9a32cd" stroke="#9a32cd" points="306.2043,-13.4381 295.8022,-15.4498 305.1884,-20.364 306.2043,-13.4381"/>
<text text-anchor="middle" x="393.5" y="-49" font-family="Helvetica,sans-Serif" font-size="10.00" fill="#000000"> block_</text>
</g>
<!-- Node7 -->
<g id="node7" class="node">
<title>Node7</title>
<polygon fill="#ffffff" stroke="#bfbfbf" points="33,-.5 33,-19.5 62,-19.5 62,-.5 33,-.5"/>
<text text-anchor="middle" x="47.5" y="-7.5" font-family="Helvetica,sans-Serif" font-size="10.00" fill="#000000">T</text>
</g>
<!-- Node7&#45;&gt;Node6 -->
<g id="edge6" class="edge">
<title>Node7&#45;&gt;Node6</title>
<path fill="none" stroke="#9a32cd" stroke-dasharray="5,2" d="M72.5479,-10C106.2657,-10 166.7873,-10 208.1414,-10"/>
<polygon fill="#9a32cd" stroke="#9a32cd" points="72.2072,-6.5001 62.2071,-10 72.2071,-13.5001 72.2072,-6.5001"/>
<text text-anchor="middle" x="134.5" y="-13" font-family="Helvetica,sans-Serif" font-size="10.00" fill="#000000"> elements</text>
</g>
</g>
</svg>
