<?xml version="1.0" encoding="UTF-8" standalone="no"?>
<!DOCTYPE svg PUBLIC "-//W3C//DTD SVG 1.1//EN"
 "http://www.w3.org/Graphics/SVG/1.1/DTD/svg11.dtd">
<!-- Generated by graphviz version 2.40.1 (20161225.0304)
 -->
<!-- Title: src/libaktualizr/primary/events.h Pages: 1 -->
<svg width="2021pt" height="240pt"
 viewBox="0.00 0.00 2021.46 240.00" xmlns="http://www.w3.org/2000/svg" xmlns:xlink="http://www.w3.org/1999/xlink">
<g id="graph0" class="graph" transform="scale(1 1) rotate(0) translate(4 236)">
<title>src/libaktualizr/primary/events.h</title>
<polygon fill="#ffffff" stroke="transparent" points="-4,4 -4,-236 2017.4581,-236 2017.4581,4 -4,4"/>
<!-- Node68 -->
<g id="node1" class="node">
<title>Node68</title>
<polygon fill="#bfbfbf" stroke="#000000" points="1443,-201.5 1443,-231.5 1558,-231.5 1558,-201.5 1443,-201.5"/>
<text text-anchor="start" x="1451" y="-219.5" font-family="Helvetica,sans-Serif" font-size="10.00" fill="#000000">src/libaktualizr/primary</text>
<text text-anchor="middle" x="1500.5" y="-208.5" font-family="Helvetica,sans-Serif" font-size="10.00" fill="#000000">/events.h</text>
</g>
<!-- Node69 -->
<g id="node2" class="node">
<title>Node69</title>
<g id="a_node2"><a xlink:href="aktualizr_8h_source.html" target="_top" xlink:title="src/libaktualizr/primary\l/aktualizr.h">
<polygon fill="#ffffff" stroke="#000000" points="188,-67.5 188,-97.5 303,-97.5 303,-67.5 188,-67.5"/>
<text text-anchor="start" x="196" y="-85.5" font-family="Helvetica,sans-Serif" font-size="10.00" fill="#000000">src/libaktualizr/primary</text>
<text text-anchor="middle" x="245.5" y="-74.5" font-family="Helvetica,sans-Serif" font-size="10.00" fill="#000000">/aktualizr.h</text>
</a>
</g>
</g>
<!-- Node68&#45;&gt;Node69 -->
<g id="edge1" class="edge">
<title>Node68&#45;&gt;Node69</title>
<path fill="none" stroke="#191970" d="M1432.5304,-215.0188C1188.4447,-209.5083 367.9236,-189.2567 317.5,-165 287.5203,-150.578 264.8829,-117.3213 253.5589,-97.7199"/>
<polygon fill="#191970" stroke="#191970" points="1432.6113,-218.5214 1442.6875,-215.2471 1432.7687,-211.5232 1432.6113,-218.5214"/>
</g>
<!-- Node73 -->
<g id="node6" class="node">
<title>Node73</title>
<g id="a_node6"><a xlink:href="aktualizr__test_8cc_source.html" target="_top" xlink:title="src/libaktualizr/primary\l/aktualizr_test.cc">
<polygon fill="#ffffff" stroke="#000000" points="387,-.5 387,-30.5 502,-30.5 502,-.5 387,-.5"/>
<text text-anchor="start" x="395" y="-18.5" font-family="Helvetica,sans-Serif" font-size="10.00" fill="#000000">src/libaktualizr/primary</text>
<text text-anchor="middle" x="444.5" y="-7.5" font-family="Helvetica,sans-Serif" font-size="10.00" fill="#000000">/aktualizr_test.cc</text>
</a>
</g>
</g>
<!-- Node68&#45;&gt;Node73 -->
<g id="edge22" class="edge">
<title>Node68&#45;&gt;Node73</title>
<path fill="none" stroke="#191970" d="M1432.5151,-214.6827C1196.5532,-207.6843 423.3246,-178.7143 350.5,-98 327.1544,-72.1252 370.0306,-46.2667 405.2691,-30.5746"/>
<polygon fill="#191970" stroke="#191970" points="1432.5802,-218.186 1442.6784,-214.9804 1432.7852,-211.189 1432.5802,-218.186"/>
</g>
<!-- Node74 -->
<g id="node7" class="node">
<title>Node74</title>
<g id="a_node7"><a xlink:href="uptane__delegation__test_8cc_source.html" target="_top" xlink:title="src/libaktualizr/uptane\l/uptane_delegation_test.cc">
<polygon fill="#ffffff" stroke="#000000" points="1206.5,-.5 1206.5,-30.5 1340.5,-30.5 1340.5,-.5 1206.5,-.5"/>
<text text-anchor="start" x="1214.5" y="-18.5" font-family="Helvetica,sans-Serif" font-size="10.00" fill="#000000">src/libaktualizr/uptane</text>
<text text-anchor="middle" x="1273.5" y="-7.5" font-family="Helvetica,sans-Serif" font-size="10.00" fill="#000000">/uptane_delegation_test.cc</text>
</a>
</g>
</g>
<!-- Node68&#45;&gt;Node74 -->
<g id="edge23" class="edge">
<title>Node68&#45;&gt;Node74</title>
<path fill="none" stroke="#191970" d="M1568.245,-208.1825C1719.8153,-188.2452 2068.2721,-134.3436 2005.5,-67 1982.9965,-42.8577 1517.1735,-24.0519 1340.5766,-17.765"/>
<polygon fill="#191970" stroke="#191970" points="1567.58,-204.7395 1558.1163,-209.5028 1568.4849,-211.6808 1567.58,-204.7395"/>
</g>
<!-- Node75 -->
<g id="node8" class="node">
<title>Node75</title>
<g id="a_node8"><a xlink:href="sotauptaneclient_8h_source.html" target="_top" xlink:title="src/libaktualizr/primary\l/sotauptaneclient.h">
<polygon fill="#ffffff" stroke="#000000" points="1160,-134.5 1160,-164.5 1275,-164.5 1275,-134.5 1160,-134.5"/>
<text text-anchor="start" x="1168" y="-152.5" font-family="Helvetica,sans-Serif" font-size="10.00" fill="#000000">src/libaktualizr/primary</text>
<text text-anchor="middle" x="1217.5" y="-141.5" font-family="Helvetica,sans-Serif" font-size="10.00" fill="#000000">/sotauptaneclient.h</text>
</a>
</g>
</g>
<!-- Node68&#45;&gt;Node75 -->
<g id="edge7" class="edge">
<title>Node68&#45;&gt;Node75</title>
<path fill="none" stroke="#191970" d="M1432.869,-200.4884C1384.7242,-189.0902 1320.7246,-173.9383 1275.0297,-163.1201"/>
<polygon fill="#191970" stroke="#191970" points="1432.3522,-203.9628 1442.8896,-202.8608 1433.965,-197.1511 1432.3522,-203.9628"/>
</g>
<!-- Node86 -->
<g id="node19" class="node">
<title>Node86</title>
<g id="a_node19"><a xlink:href="check_8cc_source.html" target="_top" xlink:title="src/load_tests/check.cc">
<polygon fill="#ffffff" stroke="#000000" points="1723,-73 1723,-92 1844,-92 1844,-73 1723,-73"/>
<text text-anchor="middle" x="1783.5" y="-80" font-family="Helvetica,sans-Serif" font-size="10.00" fill="#000000">src/load_tests/check.cc</text>
</a>
</g>
</g>
<!-- Node68&#45;&gt;Node86 -->
<g id="edge24" class="edge">
<title>Node68&#45;&gt;Node86</title>
<path fill="none" stroke="#191970" d="M1541.4579,-197.1065C1602.9841,-167.974 1716.9715,-114.0011 1763.2166,-92.1042"/>
<polygon fill="#191970" stroke="#191970" points="1539.9538,-193.9461 1532.4136,-201.389 1542.9495,-200.2727 1539.9538,-193.9461"/>
</g>
<!-- Node87 -->
<g id="node20" class="node">
<title>Node87</title>
<g id="a_node20"><a xlink:href="provision_8cc_source.html" target="_top" xlink:title="src/load_tests/provision.cc">
<polygon fill="#ffffff" stroke="#000000" points="1862.5,-73 1862.5,-92 1996.5,-92 1996.5,-73 1862.5,-73"/>
<text text-anchor="middle" x="1929.5" y="-80" font-family="Helvetica,sans-Serif" font-size="10.00" fill="#000000">src/load_tests/provision.cc</text>
</a>
</g>
</g>
<!-- Node68&#45;&gt;Node87 -->
<g id="edge25" class="edge">
<title>Node68&#45;&gt;Node87</title>
<path fill="none" stroke="#191970" d="M1558.6285,-198.3433C1651.0008,-169.4904 1828.0963,-114.1739 1899.0241,-92.0193"/>
<polygon fill="#191970" stroke="#191970" points="1557.3795,-195.0666 1548.8778,-201.389 1559.4666,-201.7482 1557.3795,-195.0666"/>
</g>
<!-- Node70 -->
<g id="node3" class="node">
<title>Node70</title>
<g id="a_node3"><a xlink:href="aktualizr__primary_2main_8cc_source.html" target="_top" xlink:title="src/aktualizr_primary\l/main.cc">
<polygon fill="#ffffff" stroke="#000000" points="0,-.5 0,-30.5 107,-30.5 107,-.5 0,-.5"/>
<text text-anchor="start" x="8" y="-18.5" font-family="Helvetica,sans-Serif" font-size="10.00" fill="#000000">src/aktualizr_primary</text>
<text text-anchor="middle" x="53.5" y="-7.5" font-family="Helvetica,sans-Serif" font-size="10.00" fill="#000000">/main.cc</text>
</a>
</g>
</g>
<!-- Node69&#45;&gt;Node70 -->
<g id="edge2" class="edge">
<title>Node69&#45;&gt;Node70</title>
<path fill="none" stroke="#191970" d="M192.884,-64.1392C162.6917,-53.6033 125.2492,-40.5375 96.7765,-30.6017"/>
<polygon fill="#191970" stroke="#191970" points="191.8166,-67.4737 202.4115,-67.4639 194.123,-60.8645 191.8166,-67.4737"/>
</g>
<!-- Node71 -->
<g id="node4" class="node">
<title>Node71</title>
<g id="a_node4"><a xlink:href="hmi__stub_2main_8cc_source.html" target="_top" xlink:title="src/hmi_stub/main.cc">
<polygon fill="#ffffff" stroke="#000000" points="125.5,-6 125.5,-25 235.5,-25 235.5,-6 125.5,-6"/>
<text text-anchor="middle" x="180.5" y="-13" font-family="Helvetica,sans-Serif" font-size="10.00" fill="#000000">src/hmi_stub/main.cc</text>
</a>
</g>
</g>
<!-- Node69&#45;&gt;Node71 -->
<g id="edge3" class="edge">
<title>Node69&#45;&gt;Node71</title>
<path fill="none" stroke="#191970" d="M223.5404,-59.8648C212.0279,-47.998 198.5366,-34.0916 189.7697,-25.055"/>
<polygon fill="#191970" stroke="#191970" points="221.2752,-62.5564 230.7505,-67.2967 226.2994,-57.6821 221.2752,-62.5564"/>
</g>
<!-- Node72 -->
<g id="node5" class="node">
<title>Node72</title>
<g id="a_node5"><a xlink:href="aktualizr_8cc_source.html" target="_top" xlink:title="src/libaktualizr/primary\l/aktualizr.cc">
<polygon fill="#ffffff" stroke="#000000" points="254,-.5 254,-30.5 369,-30.5 369,-.5 254,-.5"/>
<text text-anchor="start" x="262" y="-18.5" font-family="Helvetica,sans-Serif" font-size="10.00" fill="#000000">src/libaktualizr/primary</text>
<text text-anchor="middle" x="311.5" y="-7.5" font-family="Helvetica,sans-Serif" font-size="10.00" fill="#000000">/aktualizr.cc</text>
</a>
</g>
</g>
<!-- Node69&#45;&gt;Node72 -->
<g id="edge4" class="edge">
<title>Node69&#45;&gt;Node72</title>
<path fill="none" stroke="#191970" d="M267.7378,-59.9253C277.2363,-50.2828 288.0707,-39.2843 296.5828,-30.6432"/>
<polygon fill="#191970" stroke="#191970" points="265.0007,-57.7164 260.4764,-67.2967 269.9876,-62.6288 265.0007,-57.7164"/>
</g>
<!-- Node69&#45;&gt;Node73 -->
<g id="edge5" class="edge">
<title>Node69&#45;&gt;Node73</title>
<path fill="none" stroke="#191970" d="M300.0342,-64.1392C331.3274,-53.6033 370.135,-40.5375 399.6457,-30.6017"/>
<polygon fill="#191970" stroke="#191970" points="298.5199,-60.9559 290.1595,-67.4639 300.7536,-67.59 298.5199,-60.9559"/>
</g>
<!-- Node69&#45;&gt;Node74 -->
<g id="edge6" class="edge">
<title>Node69&#45;&gt;Node74</title>
<path fill="none" stroke="#191970" d="M313.378,-71.5593C325.7067,-69.8347 338.4693,-68.2211 350.5,-67 670.0436,-34.5676 1054.0472,-21.3701 1206.4513,-17.1541"/>
<polygon fill="#191970" stroke="#191970" points="312.5506,-68.1421 303.1496,-73.028 313.5455,-75.0711 312.5506,-68.1421"/>
</g>
<!-- Node75&#45;&gt;Node69 -->
<g id="edge10" class="edge">
<title>Node75&#45;&gt;Node69</title>
<path fill="none" stroke="#191970" d="M1149.6118,-147.4829C1003.2652,-142.6922 647.2899,-128.6616 350.5,-98 335.1035,-96.4094 318.506,-94.1938 303.1534,-91.9346"/>
<polygon fill="#191970" stroke="#191970" points="1149.6748,-150.9866 1159.7828,-147.8119 1149.9012,-143.9903 1149.6748,-150.9866"/>
</g>
<!-- Node75&#45;&gt;Node73 -->
<g id="edge11" class="edge">
<title>Node75&#45;&gt;Node73</title>
<path fill="none" stroke="#191970" d="M1252.0762,-128.5071C1276.2102,-111.3242 1301.0495,-86.7245 1282.5,-67 1255.7726,-38.5796 687.4846,-21.6725 502.2852,-16.9018"/>
<polygon fill="#191970" stroke="#191970" points="1249.9339,-125.7316 1243.6414,-134.2554 1253.876,-131.516 1249.9339,-125.7316"/>
</g>
<!-- Node76 -->
<g id="node9" class="node">
<title>Node76</title>
<g id="a_node9"><a xlink:href="uptane__vector__tests_8cc_source.html" target="_top" xlink:title="tests/uptane_vector\l_tests.cc">
<polygon fill="#ffffff" stroke="#000000" points="1330,-67.5 1330,-97.5 1433,-97.5 1433,-67.5 1330,-67.5"/>
<text text-anchor="start" x="1338" y="-85.5" font-family="Helvetica,sans-Serif" font-size="10.00" fill="#000000">tests/uptane_vector</text>
<text text-anchor="middle" x="1381.5" y="-74.5" font-family="Helvetica,sans-Serif" font-size="10.00" fill="#000000">_tests.cc</text>
</a>
</g>
</g>
<!-- Node75&#45;&gt;Node76 -->
<g id="edge8" class="edge">
<title>Node75&#45;&gt;Node76</title>
<path fill="none" stroke="#191970" d="M1263.788,-130.5897C1289.3374,-120.1518 1320.6354,-107.3654 1344.5347,-97.6017"/>
<polygon fill="#191970" stroke="#191970" points="1262.2384,-127.4419 1254.3048,-134.4639 1264.8858,-133.9219 1262.2384,-127.4419"/>
</g>
<!-- Node77 -->
<g id="node10" class="node">
<title>Node77</title>
<g id="a_node10"><a xlink:href="aktualizr__secondary_2uptane__test_8cc_source.html" target="_top" xlink:title="src/aktualizr_secondary\l/uptane_test.cc">
<polygon fill="#ffffff" stroke="#000000" points="1451.5,-67.5 1451.5,-97.5 1571.5,-97.5 1571.5,-67.5 1451.5,-67.5"/>
<text text-anchor="start" x="1459.5" y="-85.5" font-family="Helvetica,sans-Serif" font-size="10.00" fill="#000000">src/aktualizr_secondary</text>
<text text-anchor="middle" x="1511.5" y="-74.5" font-family="Helvetica,sans-Serif" font-size="10.00" fill="#000000">/uptane_test.cc</text>
</a>
</g>
</g>
<!-- Node75&#45;&gt;Node77 -->
<g id="edge9" class="edge">
<title>Node75&#45;&gt;Node77</title>
<path fill="none" stroke="#191970" d="M1285.0238,-134.1119C1335.2047,-122.6761 1403.0536,-107.214 1451.373,-96.2024"/>
<polygon fill="#191970" stroke="#191970" points="1284.2065,-130.7084 1275.2342,-136.3429 1285.7619,-137.5334 1284.2065,-130.7084"/>
</g>
<!-- Node78 -->
<g id="node11" class="node">
<title>Node78</title>
<g id="a_node11"><a xlink:href="sotauptaneclient_8cc_source.html" target="_top" xlink:title="src/libaktualizr/primary\l/sotauptaneclient.cc">
<polygon fill="#ffffff" stroke="#000000" points="1590,-67.5 1590,-97.5 1705,-97.5 1705,-67.5 1590,-67.5"/>
<text text-anchor="start" x="1598" y="-85.5" font-family="Helvetica,sans-Serif" font-size="10.00" fill="#000000">src/libaktualizr/primary</text>
<text text-anchor="middle" x="1647.5" y="-74.5" font-family="Helvetica,sans-Serif" font-size="10.00" fill="#000000">/sotauptaneclient.cc</text>
</a>
</g>
</g>
<!-- Node75&#45;&gt;Node78 -->
<g id="edge12" class="edge">
<title>Node75&#45;&gt;Node78</title>
<path fill="none" stroke="#191970" d="M1285.2797,-141.6605C1358.412,-132.7884 1478.1527,-117.062 1580.5,-98 1583.5517,-97.4316 1586.6746,-96.8188 1589.8228,-96.1765"/>
<polygon fill="#191970" stroke="#191970" points="1284.7856,-138.1947 1275.2765,-142.8666 1285.6235,-145.1443 1284.7856,-138.1947"/>
</g>
<!-- Node79 -->
<g id="node12" class="node">
<title>Node79</title>
<g id="a_node12"><a xlink:href="uptane__ci__test_8cc_source.html" target="_top" xlink:title="src/libaktualizr/uptane\l/uptane_ci_test.cc">
<polygon fill="#ffffff" stroke="#000000" points="359.5,-67.5 359.5,-97.5 471.5,-97.5 471.5,-67.5 359.5,-67.5"/>
<text text-anchor="start" x="367.5" y="-85.5" font-family="Helvetica,sans-Serif" font-size="10.00" fill="#000000">src/libaktualizr/uptane</text>
<text text-anchor="middle" x="415.5" y="-74.5" font-family="Helvetica,sans-Serif" font-size="10.00" fill="#000000">/uptane_ci_test.cc</text>
</a>
</g>
</g>
<!-- Node75&#45;&gt;Node79 -->
<g id="edge13" class="edge">
<title>Node75&#45;&gt;Node79</title>
<path fill="none" stroke="#191970" d="M1149.5764,-148.4756C1019.1551,-145.6875 724.9171,-135.422 480.5,-98 477.6331,-97.5611 474.7063,-97.06 471.7586,-96.5132"/>
<polygon fill="#191970" stroke="#191970" points="1149.7377,-151.9795 1159.8076,-148.686 1149.8817,-144.981 1149.7377,-151.9795"/>
</g>
<!-- Node80 -->
<g id="node13" class="node">
<title>Node80</title>
<g id="a_node13"><a xlink:href="uptane__implicit__test_8cc.html" target="_top" xlink:title="src/libaktualizr/uptane\l/uptane_implicit_test.cc">
<polygon fill="#ffffff" stroke="#000000" points="489.5,-67.5 489.5,-97.5 609.5,-97.5 609.5,-67.5 489.5,-67.5"/>
<text text-anchor="start" x="497.5" y="-85.5" font-family="Helvetica,sans-Serif" font-size="10.00" fill="#000000">src/libaktualizr/uptane</text>
<text text-anchor="middle" x="549.5" y="-74.5" font-family="Helvetica,sans-Serif" font-size="10.00" fill="#000000">/uptane_implicit_test.cc</text>
</a>
</g>
</g>
<!-- Node75&#45;&gt;Node80 -->
<g id="edge14" class="edge">
<title>Node75&#45;&gt;Node80</title>
<path fill="none" stroke="#191970" d="M1149.6999,-146.6602C1038.302,-141.326 809.8051,-127.5722 618.5,-98 615.5879,-97.5498 612.6154,-97.0479 609.6194,-96.5077"/>
<polygon fill="#191970" stroke="#191970" points="1149.6322,-150.1608 1159.7858,-147.1354 1149.9617,-143.1686 1149.6322,-150.1608"/>
</g>
<!-- Node81 -->
<g id="node14" class="node">
<title>Node81</title>
<g id="a_node14"><a xlink:href="uptane__init__test_8cc_source.html" target="_top" xlink:title="src/libaktualizr/uptane\l/uptane_init_test.cc">
<polygon fill="#ffffff" stroke="#000000" points="627.5,-67.5 627.5,-97.5 739.5,-97.5 739.5,-67.5 627.5,-67.5"/>
<text text-anchor="start" x="635.5" y="-85.5" font-family="Helvetica,sans-Serif" font-size="10.00" fill="#000000">src/libaktualizr/uptane</text>
<text text-anchor="middle" x="683.5" y="-74.5" font-family="Helvetica,sans-Serif" font-size="10.00" fill="#000000">/uptane_init_test.cc</text>
</a>
</g>
</g>
<!-- Node75&#45;&gt;Node81 -->
<g id="edge15" class="edge">
<title>Node75&#45;&gt;Node81</title>
<path fill="none" stroke="#191970" d="M1149.5369,-144.7113C1057.9729,-137.6513 890.1322,-122.5644 748.5,-98 745.6424,-97.5044 742.723,-96.9577 739.7812,-96.3748"/>
<polygon fill="#191970" stroke="#191970" points="1149.5406,-148.2217 1159.7777,-145.4919 1150.0727,-141.2419 1149.5406,-148.2217"/>
</g>
<!-- Node82 -->
<g id="node15" class="node">
<title>Node82</title>
<g id="a_node15"><a xlink:href="uptane__key__test_8cc_source.html" target="_top" xlink:title="src/libaktualizr/uptane\l/uptane_key_test.cc">
<polygon fill="#ffffff" stroke="#000000" points="757.5,-67.5 757.5,-97.5 869.5,-97.5 869.5,-67.5 757.5,-67.5"/>
<text text-anchor="start" x="765.5" y="-85.5" font-family="Helvetica,sans-Serif" font-size="10.00" fill="#000000">src/libaktualizr/uptane</text>
<text text-anchor="middle" x="813.5" y="-74.5" font-family="Helvetica,sans-Serif" font-size="10.00" fill="#000000">/uptane_key_test.cc</text>
</a>
</g>
</g>
<!-- Node75&#45;&gt;Node82 -->
<g id="edge16" class="edge">
<title>Node75&#45;&gt;Node82</title>
<path fill="none" stroke="#191970" d="M1149.7236,-140.8956C1081.086,-131.7854 972.0094,-116.2192 878.5,-98 875.6532,-97.4453 872.7426,-96.8512 869.8077,-96.2306"/>
<polygon fill="#191970" stroke="#191970" points="1149.5949,-144.4088 1159.9668,-142.247 1150.5106,-137.469 1149.5949,-144.4088"/>
</g>
<!-- Node83 -->
<g id="node16" class="node">
<title>Node83</title>
<g id="a_node16"><a xlink:href="uptane__network__test_8cc.html" target="_top" xlink:title="Check that aktualizr can complete provisioning after encountering various network issues...">
<polygon fill="#ffffff" stroke="#000000" points="887.5,-67.5 887.5,-97.5 1011.5,-97.5 1011.5,-67.5 887.5,-67.5"/>
<text text-anchor="start" x="895.5" y="-85.5" font-family="Helvetica,sans-Serif" font-size="10.00" fill="#000000">src/libaktualizr/uptane</text>
<text text-anchor="middle" x="949.5" y="-74.5" font-family="Helvetica,sans-Serif" font-size="10.00" fill="#000000">/uptane_network_test.cc</text>
</a>
</g>
</g>
<!-- Node75&#45;&gt;Node83 -->
<g id="edge17" class="edge">
<title>Node75&#45;&gt;Node83</title>
<path fill="none" stroke="#191970" d="M1149.8219,-132.5805C1106.6347,-121.7837 1051.1577,-107.9144 1009.5401,-97.51"/>
<polygon fill="#191970" stroke="#191970" points="1149.1276,-136.0146 1159.6779,-135.0445 1150.8254,-129.2236 1149.1276,-136.0146"/>
</g>
<!-- Node84 -->
<g id="node17" class="node">
<title>Node84</title>
<g id="a_node17"><a xlink:href="uptane__serial__test_8cc_source.html" target="_top" xlink:title="src/libaktualizr/uptane\l/uptane_serial_test.cc">
<polygon fill="#ffffff" stroke="#000000" points="1030,-67.5 1030,-97.5 1143,-97.5 1143,-67.5 1030,-67.5"/>
<text text-anchor="start" x="1038" y="-85.5" font-family="Helvetica,sans-Serif" font-size="10.00" fill="#000000">src/libaktualizr/uptane</text>
<text text-anchor="middle" x="1086.5" y="-74.5" font-family="Helvetica,sans-Serif" font-size="10.00" fill="#000000">/uptane_serial_test.cc</text>
</a>
</g>
</g>
<!-- Node75&#45;&gt;Node84 -->
<g id="edge18" class="edge">
<title>Node75&#45;&gt;Node84</title>
<path fill="none" stroke="#191970" d="M1178.9318,-129.7743C1158.9087,-119.5335 1134.8198,-107.2132 1116.2541,-97.7177"/>
<polygon fill="#191970" stroke="#191970" points="1177.6042,-133.0264 1188.101,-134.4639 1180.7917,-126.7942 1177.6042,-133.0264"/>
</g>
<!-- Node85 -->
<g id="node18" class="node">
<title>Node85</title>
<g id="a_node18"><a xlink:href="libaktualizr_2uptane_2uptane__test_8cc_source.html" target="_top" xlink:title="src/libaktualizr/uptane\l/uptane_test.cc">
<polygon fill="#ffffff" stroke="#000000" points="1161.5,-67.5 1161.5,-97.5 1273.5,-97.5 1273.5,-67.5 1161.5,-67.5"/>
<text text-anchor="start" x="1169.5" y="-85.5" font-family="Helvetica,sans-Serif" font-size="10.00" fill="#000000">src/libaktualizr/uptane</text>
<text text-anchor="middle" x="1217.5" y="-74.5" font-family="Helvetica,sans-Serif" font-size="10.00" fill="#000000">/uptane_test.cc</text>
</a>
</g>
</g>
<!-- Node75&#45;&gt;Node85 -->
<g id="edge19" class="edge">
<title>Node75&#45;&gt;Node85</title>
<path fill="none" stroke="#191970" d="M1217.5,-124.0249C1217.5,-115.128 1217.5,-105.4287 1217.5,-97.6432"/>
<polygon fill="#191970" stroke="#191970" points="1214.0001,-124.2966 1217.5,-134.2967 1221.0001,-124.2967 1214.0001,-124.2966"/>
</g>
<!-- Node75&#45;&gt;Node86 -->
<g id="edge20" class="edge">
<title>Node75&#45;&gt;Node86</title>
<path fill="none" stroke="#191970" d="M1285.1914,-144.9388C1380.9803,-137.925 1561.3717,-122.6575 1713.5,-98 1723.4523,-96.3869 1734.1146,-94.2428 1744.0412,-92.0653"/>
<polygon fill="#191970" stroke="#191970" points="1284.7839,-141.459 1275.063,-145.6726 1285.2898,-148.4407 1284.7839,-141.459"/>
</g>
<!-- Node75&#45;&gt;Node87 -->
<g id="edge21" class="edge">
<title>Node75&#45;&gt;Node87</title>
<path fill="none" stroke="#191970" d="M1285.2884,-146.6256C1401.7278,-141.1034 1647.0416,-126.9085 1852.5,-98 1863.7077,-96.4231 1875.7419,-94.2393 1886.8887,-92.0081"/>
<polygon fill="#191970" stroke="#191970" points="1284.9279,-143.1386 1275.1024,-147.1021 1285.2551,-150.1309 1284.9279,-143.1386"/>
</g>
</g>
</svg>
