<?xml version="1.0" encoding="UTF-8" standalone="no"?>
<!DOCTYPE svg PUBLIC "-//W3C//DTD SVG 1.1//EN"
 "http://www.w3.org/Graphics/SVG/1.1/DTD/svg11.dtd">
<!-- Generated by graphviz version 2.40.1 (20161225.0304)
 -->
<!-- Title: Graphical Class Hierarchy Pages: 1 -->
<svg width="609pt" height="583pt"
 viewBox="0.00 0.00 609.00 582.50" xmlns="http://www.w3.org/2000/svg" xmlns:xlink="http://www.w3.org/1999/xlink">
<g id="graph0" class="graph" transform="scale(1 1) rotate(0) translate(4 578.5)">
<title>Graphical Class Hierarchy</title>
<polygon fill="#ffffff" stroke="transparent" points="-4,4 -4,-578.5 605,-578.5 605,4 -4,4"/>
<!-- Node212 -->
<g id="node1" class="node">
<title>Node212</title>
<g id="a_node1"><a xlink:title="STL class. ">
<polygon fill="#ffffff" stroke="#bfbfbf" points="0,-365 0,-384 78,-384 78,-365 0,-365"/>
<text text-anchor="middle" x="39" y="-372" font-family="Helvetica,sans-Serif" font-size="10.00" fill="#000000">std::exception</text>
</a>
</g>
</g>
<!-- Node0 -->
<g id="node2" class="node">
<title>Node0</title>
<g id="a_node2"><a xlink:href="classdeserialization__error.html" target="_top" xlink:title="deserialization_error">
<polygon fill="#ffffff" stroke="#000000" points="127.5,-441 127.5,-460 231.5,-460 231.5,-441 127.5,-441"/>
<text text-anchor="middle" x="179.5" y="-448" font-family="Helvetica,sans-Serif" font-size="10.00" fill="#000000">deserialization_error</text>
</a>
</g>
</g>
<!-- Node212&#45;&gt;Node0 -->
<g id="edge1" class="edge">
<title>Node212&#45;&gt;Node0</title>
<path fill="none" stroke="#191970" d="M56.9898,-391.2266C71.4351,-403.8662 92.7494,-420.8095 114,-431.5 121.5099,-435.278 129.8923,-438.4218 138.0857,-440.9927"/>
<polygon fill="#191970" stroke="#191970" points="59.1134,-388.4299 49.3307,-384.3618 54.4413,-393.6426 59.1134,-388.4299"/>
</g>
<!-- Node214 -->
<g id="node3" class="node">
<title>Node214</title>
<g id="a_node3"><a xlink:href="class_o_s_tree_commit_parse_error.html" target="_top" xlink:title="OSTreeCommitParseError">
<polygon fill="#ffffff" stroke="#000000" points="114,-403 114,-422 245,-422 245,-403 114,-403"/>
<text text-anchor="middle" x="179.5" y="-410" font-family="Helvetica,sans-Serif" font-size="10.00" fill="#000000">OSTreeCommitParseError</text>
</a>
</g>
</g>
<!-- Node212&#45;&gt;Node214 -->
<g id="edge2" class="edge">
<title>Node212&#45;&gt;Node214</title>
<path fill="none" stroke="#8b1a1a" d="M84.2787,-386.7462C103.6449,-391.984 125.9218,-398.0091 144.0573,-402.9141"/>
<polygon fill="#8b1a1a" stroke="#8b1a1a" points="85.0211,-383.3213 74.4541,-384.089 83.1934,-390.0785 85.0211,-383.3213"/>
</g>
<!-- Node215 -->
<g id="node4" class="node">
<title>Node215</title>
<g id="a_node4"><a xlink:href="class_o_s_tree_object_missing.html" target="_top" xlink:title="Thrown by GetObject when the object requested is not present in the repository. ">
<polygon fill="#ffffff" stroke="#000000" points="123,-365 123,-384 236,-384 236,-365 123,-365"/>
<text text-anchor="middle" x="179.5" y="-372" font-family="Helvetica,sans-Serif" font-size="10.00" fill="#000000">OSTreeObjectMissing</text>
</a>
</g>
</g>
<!-- Node212&#45;&gt;Node215 -->
<g id="edge3" class="edge">
<title>Node212&#45;&gt;Node215</title>
<path fill="none" stroke="#8b1a1a" d="M88.1972,-374.5C99.4347,-374.5 111.4641,-374.5 122.9811,-374.5"/>
<polygon fill="#8b1a1a" stroke="#8b1a1a" points="88.1371,-371.0001 78.1371,-374.5 88.137,-378.0001 88.1371,-371.0001"/>
</g>
<!-- Node216 -->
<g id="node5" class="node">
<title>Node216</title>
<g id="a_node5"><a xlink:title="STL class. ">
<polygon fill="#ffffff" stroke="#bfbfbf" points="139,-327 139,-346 220,-346 220,-327 139,-327"/>
<text text-anchor="middle" x="179.5" y="-334" font-family="Helvetica,sans-Serif" font-size="10.00" fill="#000000">std::logic_error</text>
</a>
</g>
</g>
<!-- Node212&#45;&gt;Node216 -->
<g id="edge4" class="edge">
<title>Node212&#45;&gt;Node216</title>
<path fill="none" stroke="#191970" d="M84.2787,-362.2538C103.6449,-357.016 125.9218,-350.9909 144.0573,-346.0859"/>
<polygon fill="#191970" stroke="#191970" points="83.1934,-358.9215 74.4541,-364.911 85.0211,-365.6787 83.1934,-358.9215"/>
</g>
<!-- Node236 -->
<g id="node25" class="node">
<title>Node236</title>
<g id="a_node25"><a xlink:title="STL class. ">
<polygon fill="#ffffff" stroke="#bfbfbf" points="133,-156 133,-175 226,-175 226,-156 133,-156"/>
<text text-anchor="middle" x="179.5" y="-163" font-family="Helvetica,sans-Serif" font-size="10.00" fill="#000000">std::runtime_error</text>
</a>
</g>
</g>
<!-- Node212&#45;&gt;Node236 -->
<g id="edge24" class="edge">
<title>Node212&#45;&gt;Node236</title>
<path fill="none" stroke="#191970" d="M51.1504,-356.4257C79.8851,-313.6816 151.243,-207.5335 173.0603,-175.0793"/>
<polygon fill="#191970" stroke="#191970" points="48.0765,-354.7249 45.4021,-364.9766 53.8858,-358.6302 48.0765,-354.7249"/>
</g>
<!-- Node217 -->
<g id="node6" class="node">
<title>Node217</title>
<g id="a_node6"><a xlink:href="class_fatal_exception.html" target="_top" xlink:title="FatalException">
<polygon fill="#ffffff" stroke="#000000" points="306,-403 306,-422 388,-422 388,-403 306,-403"/>
<text text-anchor="middle" x="347" y="-410" font-family="Helvetica,sans-Serif" font-size="10.00" fill="#000000">FatalException</text>
</a>
</g>
</g>
<!-- Node216&#45;&gt;Node217 -->
<g id="edge5" class="edge">
<title>Node216&#45;&gt;Node217</title>
<path fill="none" stroke="#191970" d="M229.7283,-348.0395C235.061,-350.1437 240.2608,-352.6115 245,-355.5 264.8654,-367.6079 261.1223,-381.4123 281,-393.5 288.539,-398.0845 297.2343,-401.6062 305.7875,-404.2964"/>
<polygon fill="#191970" stroke="#191970" points="230.6514,-344.6539 220.0566,-344.6322 228.3254,-351.2562 230.6514,-344.6539"/>
</g>
<!-- Node218 -->
<g id="node7" class="node">
<title>Node218</title>
<g id="a_node7"><a xlink:href="class_not_implemented_exception.html" target="_top" xlink:title="NotImplementedException">
<polygon fill="#ffffff" stroke="#000000" points="281,-365 281,-384 413,-384 413,-365 281,-365"/>
<text text-anchor="middle" x="347" y="-372" font-family="Helvetica,sans-Serif" font-size="10.00" fill="#000000">NotImplementedException</text>
</a>
</g>
</g>
<!-- Node216&#45;&gt;Node218 -->
<g id="edge6" class="edge">
<title>Node216&#45;&gt;Node218</title>
<path fill="none" stroke="#191970" d="M230.028,-347.9631C254.0032,-353.4022 282.3135,-359.8248 305.0771,-364.9891"/>
<polygon fill="#191970" stroke="#191970" points="230.5736,-344.498 220.0471,-345.6987 229.0249,-351.3245 230.5736,-344.498"/>
</g>
<!-- Node219 -->
<g id="node8" class="node">
<title>Node219</title>
<g id="a_node8"><a xlink:title="STL class. ">
<polygon fill="#ffffff" stroke="#bfbfbf" points="301,-327 301,-346 393,-346 393,-327 301,-327"/>
<text text-anchor="middle" x="347" y="-334" font-family="Helvetica,sans-Serif" font-size="10.00" fill="#000000">std::domain_error</text>
</a>
</g>
</g>
<!-- Node216&#45;&gt;Node219 -->
<g id="edge7" class="edge">
<title>Node216&#45;&gt;Node219</title>
<path fill="none" stroke="#191970" d="M230.0956,-336.5C252.6138,-336.5 278.9454,-336.5 300.9113,-336.5"/>
<polygon fill="#191970" stroke="#191970" points="230.0471,-333.0001 220.0471,-336.5 230.047,-340.0001 230.0471,-333.0001"/>
</g>
<!-- Node221 -->
<g id="node10" class="node">
<title>Node221</title>
<g id="a_node10"><a xlink:href="class_uptane_1_1_exception.html" target="_top" xlink:title="Uptane::Exception">
<polygon fill="#ffffff" stroke="#000000" points="298,-289 298,-308 396,-308 396,-289 298,-289"/>
<text text-anchor="middle" x="347" y="-296" font-family="Helvetica,sans-Serif" font-size="10.00" fill="#000000">Uptane::Exception</text>
</a>
</g>
</g>
<!-- Node216&#45;&gt;Node221 -->
<g id="edge9" class="edge">
<title>Node216&#45;&gt;Node221</title>
<path fill="none" stroke="#191970" d="M230.028,-325.0369C254.0032,-319.5978 282.3135,-313.1752 305.0771,-308.0109"/>
<polygon fill="#191970" stroke="#191970" points="229.0249,-321.6755 220.0471,-327.3013 230.5736,-328.502 229.0249,-321.6755"/>
</g>
<!-- Node220 -->
<g id="node9" class="node">
<title>Node220</title>
<g id="a_node9"><a xlink:href="class_time_stamp_1_1_invalid_time_stamp.html" target="_top" xlink:title="TimeStamp::InvalidTimeStamp">
<polygon fill="#ffffff" stroke="#000000" points="449,-555 449,-574 601,-574 601,-555 449,-555"/>
<text text-anchor="middle" x="525" y="-562" font-family="Helvetica,sans-Serif" font-size="10.00" fill="#000000">TimeStamp::InvalidTimeStamp</text>
</a>
</g>
</g>
<!-- Node219&#45;&gt;Node220 -->
<g id="edge8" class="edge">
<title>Node219&#45;&gt;Node220</title>
<path fill="none" stroke="#191970" d="M402.2032,-346.9492C406.2095,-349.2699 409.8896,-352.0858 413,-355.5 470.8815,-419.0342 390.0055,-482.9979 449,-545.5 452.5475,-549.2584 456.7164,-552.3197 461.244,-554.808"/>
<polygon fill="#191970" stroke="#191970" points="403.5449,-343.7124 393.0065,-342.6202 400.5636,-350.0459 403.5449,-343.7124"/>
</g>
<!-- Node222 -->
<g id="node11" class="node">
<title>Node222</title>
<g id="a_node11"><a xlink:href="class_uptane_1_1_bad_ecu_id.html" target="_top" xlink:title="Uptane::BadEcuId">
<polygon fill="#ffffff" stroke="#000000" points="476.5,-517 476.5,-536 573.5,-536 573.5,-517 476.5,-517"/>
<text text-anchor="middle" x="525" y="-524" font-family="Helvetica,sans-Serif" font-size="10.00" fill="#000000">Uptane::BadEcuId</text>
</a>
</g>
</g>
<!-- Node221&#45;&gt;Node222 -->
<g id="edge10" class="edge">
<title>Node221&#45;&gt;Node222</title>
<path fill="none" stroke="#191970" d="M404.8888,-310.6144C407.8574,-312.5845 410.5985,-314.864 413,-317.5 470.8815,-381.0342 390.0055,-444.9979 449,-507.5 456.2817,-515.2146 466.1815,-519.992 476.4281,-522.9058"/>
<polygon fill="#191970" stroke="#191970" points="406.4783,-307.4952 396.0133,-305.8415 403.1629,-313.6603 406.4783,-307.4952"/>
</g>
<!-- Node223 -->
<g id="node12" class="node">
<title>Node223</title>
<g id="a_node12"><a xlink:href="class_uptane_1_1_bad_hardware_id.html" target="_top" xlink:title="Uptane::BadHardwareId">
<polygon fill="#ffffff" stroke="#000000" points="464,-479 464,-498 586,-498 586,-479 464,-479"/>
<text text-anchor="middle" x="525" y="-486" font-family="Helvetica,sans-Serif" font-size="10.00" fill="#000000">Uptane::BadHardwareId</text>
</a>
</g>
</g>
<!-- Node221&#45;&gt;Node223 -->
<g id="edge11" class="edge">
<title>Node221&#45;&gt;Node223</title>
<path fill="none" stroke="#191970" d="M405.1726,-311.0187C408.0143,-312.893 410.6551,-315.0404 413,-317.5 460.9048,-367.7483 400.2153,-420.1056 449,-469.5 453.3007,-473.8545 458.4378,-477.2651 463.9843,-479.9293"/>
<polygon fill="#191970" stroke="#191970" points="406.6066,-307.8163 396.1395,-306.1762 403.2993,-313.9857 406.6066,-307.8163"/>
</g>
<!-- Node224 -->
<g id="node13" class="node">
<title>Node224</title>
<g id="a_node13"><a xlink:href="class_uptane_1_1_bad_key_id.html" target="_top" xlink:title="Uptane::BadKeyId">
<polygon fill="#ffffff" stroke="#000000" points="476.5,-441 476.5,-460 573.5,-460 573.5,-441 476.5,-441"/>
<text text-anchor="middle" x="525" y="-448" font-family="Helvetica,sans-Serif" font-size="10.00" fill="#000000">Uptane::BadKeyId</text>
</a>
</g>
</g>
<!-- Node221&#45;&gt;Node224 -->
<g id="edge12" class="edge">
<title>Node221&#45;&gt;Node224</title>
<path fill="none" stroke="#191970" d="M405.1149,-311.3224C407.9519,-313.1217 410.6092,-315.1696 413,-317.5 451.0481,-354.5871 410.3029,-395.0906 449,-431.5 456.5281,-438.583 466.2846,-443.1351 476.2829,-446.0346"/>
<polygon fill="#191970" stroke="#191970" points="406.6354,-308.1679 396.1518,-306.6361 403.392,-314.3711 406.6354,-308.1679"/>
</g>
<!-- Node225 -->
<g id="node14" class="node">
<title>Node225</title>
<g id="a_node14"><a xlink:href="class_uptane_1_1_expired_metadata.html" target="_top" xlink:title="Uptane::ExpiredMetadata">
<polygon fill="#ffffff" stroke="#000000" points="461,-403 461,-422 589,-422 589,-403 461,-403"/>
<text text-anchor="middle" x="525" y="-410" font-family="Helvetica,sans-Serif" font-size="10.00" fill="#000000">Uptane::ExpiredMetadata</text>
</a>
</g>
</g>
<!-- Node221&#45;&gt;Node225 -->
<g id="edge13" class="edge">
<title>Node221&#45;&gt;Node225</title>
<path fill="none" stroke="#191970" d="M405.3265,-312.0616C408.0435,-313.6752 410.6234,-315.4804 413,-317.5 441.4812,-341.7025 420.0958,-369.8043 449,-393.5 453.733,-397.3802 459.1504,-400.4833 464.8654,-402.9627"/>
<polygon fill="#191970" stroke="#191970" points="406.7741,-308.8723 396.2643,-307.5326 403.6447,-315.1339 406.7741,-308.8723"/>
</g>
<!-- Node226 -->
<g id="node15" class="node">
<title>Node226</title>
<g id="a_node15"><a xlink:href="class_uptane_1_1_illegal_rsa_key_size.html" target="_top" xlink:title="Uptane::IllegalRsaKeySize">
<polygon fill="#ffffff" stroke="#000000" points="458,-365 458,-384 592,-384 592,-365 458,-365"/>
<text text-anchor="middle" x="525" y="-372" font-family="Helvetica,sans-Serif" font-size="10.00" fill="#000000">Uptane::IllegalRsaKeySize</text>
</a>
</g>
</g>
<!-- Node221&#45;&gt;Node226 -->
<g id="edge14" class="edge">
<title>Node221&#45;&gt;Node226</title>
<path fill="none" stroke="#191970" d="M401.7064,-311.7021C405.6372,-313.4148 409.447,-315.3394 413,-317.5 432.8777,-329.5877 428.912,-343.7652 449,-355.5 455.6938,-359.4103 463.1746,-362.5213 470.76,-364.995"/>
<polygon fill="#191970" stroke="#191970" points="402.968,-308.4375 392.3792,-308.0789 400.4332,-314.9624 402.968,-308.4375"/>
</g>
<!-- Node227 -->
<g id="node16" class="node">
<title>Node227</title>
<g id="a_node16"><a xlink:href="class_uptane_1_1_illegal_threshold.html" target="_top" xlink:title="Uptane::IllegalThreshold">
<polygon fill="#ffffff" stroke="#000000" points="464,-327 464,-346 586,-346 586,-327 464,-327"/>
<text text-anchor="middle" x="525" y="-334" font-family="Helvetica,sans-Serif" font-size="10.00" fill="#000000">Uptane::IllegalThreshold</text>
</a>
</g>
</g>
<!-- Node221&#45;&gt;Node227 -->
<g id="edge15" class="edge">
<title>Node221&#45;&gt;Node227</title>
<path fill="none" stroke="#191970" d="M401.7162,-310.181C426.959,-315.5699 456.5452,-321.8861 480.4061,-326.9799"/>
<polygon fill="#191970" stroke="#191970" points="402.4273,-306.754 391.9169,-308.089 400.9658,-313.5997 402.4273,-306.754"/>
</g>
<!-- Node228 -->
<g id="node17" class="node">
<title>Node228</title>
<g id="a_node17"><a xlink:href="class_uptane_1_1_invalid_metadata.html" target="_top" xlink:title="Uptane::InvalidMetadata">
<polygon fill="#ffffff" stroke="#000000" points="463.5,-289 463.5,-308 586.5,-308 586.5,-289 463.5,-289"/>
<text text-anchor="middle" x="525" y="-296" font-family="Helvetica,sans-Serif" font-size="10.00" fill="#000000">Uptane::InvalidMetadata</text>
</a>
</g>
</g>
<!-- Node221&#45;&gt;Node228 -->
<g id="edge16" class="edge">
<title>Node221&#45;&gt;Node228</title>
<path fill="none" stroke="#191970" d="M406.3543,-298.5C424.6646,-298.5 444.8649,-298.5 463.3276,-298.5"/>
<polygon fill="#191970" stroke="#191970" points="406.1105,-295.0001 396.1105,-298.5 406.1104,-302.0001 406.1105,-295.0001"/>
</g>
<!-- Node229 -->
<g id="node18" class="node">
<title>Node229</title>
<g id="a_node18"><a xlink:href="class_uptane_1_1_missing_repo.html" target="_top" xlink:title="Uptane::MissingRepo">
<polygon fill="#ffffff" stroke="#000000" points="469.5,-251 469.5,-270 580.5,-270 580.5,-251 469.5,-251"/>
<text text-anchor="middle" x="525" y="-258" font-family="Helvetica,sans-Serif" font-size="10.00" fill="#000000">Uptane::MissingRepo</text>
</a>
</g>
</g>
<!-- Node221&#45;&gt;Node229 -->
<g id="edge17" class="edge">
<title>Node221&#45;&gt;Node229</title>
<path fill="none" stroke="#191970" d="M401.7162,-286.819C426.959,-281.4301 456.5452,-275.1139 480.4061,-270.0201"/>
<polygon fill="#191970" stroke="#191970" points="400.9658,-283.4003 391.9169,-288.911 402.4273,-290.246 400.9658,-283.4003"/>
</g>
<!-- Node230 -->
<g id="node19" class="node">
<title>Node230</title>
<g id="a_node19"><a xlink:href="class_uptane_1_1_miss_match_target.html" target="_top" xlink:title="Uptane::MissMatchTarget">
<polygon fill="#ffffff" stroke="#000000" points="460,-213 460,-232 590,-232 590,-213 460,-213"/>
<text text-anchor="middle" x="525" y="-220" font-family="Helvetica,sans-Serif" font-size="10.00" fill="#000000">Uptane::MissMatchTarget</text>
</a>
</g>
</g>
<!-- Node221&#45;&gt;Node230 -->
<g id="edge18" class="edge">
<title>Node221&#45;&gt;Node230</title>
<path fill="none" stroke="#191970" d="M401.7064,-285.2979C405.6372,-283.5852 409.447,-281.6606 413,-279.5 432.8777,-267.4123 428.912,-253.2348 449,-241.5 455.6938,-237.5897 463.1746,-234.4787 470.76,-232.005"/>
<polygon fill="#191970" stroke="#191970" points="400.4332,-282.0376 392.3792,-288.9211 402.968,-288.5625 400.4332,-282.0376"/>
</g>
<!-- Node231 -->
<g id="node20" class="node">
<title>Node231</title>
<g id="a_node20"><a xlink:href="class_uptane_1_1_non_unique_signatures.html" target="_top" xlink:title="Uptane::NonUniqueSignatures">
<polygon fill="#ffffff" stroke="#000000" points="450.5,-175 450.5,-194 599.5,-194 599.5,-175 450.5,-175"/>
<text text-anchor="middle" x="525" y="-182" font-family="Helvetica,sans-Serif" font-size="10.00" fill="#000000">Uptane::NonUniqueSignatures</text>
</a>
</g>
</g>
<!-- Node221&#45;&gt;Node231 -->
<g id="edge19" class="edge">
<title>Node221&#45;&gt;Node231</title>
<path fill="none" stroke="#191970" d="M405.3265,-284.9384C408.0435,-283.3248 410.6234,-281.5196 413,-279.5 441.4812,-255.2975 420.0958,-227.1957 449,-203.5 453.733,-199.6198 459.1504,-196.5167 464.8654,-194.0373"/>
<polygon fill="#191970" stroke="#191970" points="403.6447,-281.8661 396.2643,-289.4674 406.7741,-288.1277 403.6447,-281.8661"/>
</g>
<!-- Node232 -->
<g id="node21" class="node">
<title>Node232</title>
<g id="a_node21"><a xlink:href="class_uptane_1_1_oversized_target.html" target="_top" xlink:title="Uptane::OversizedTarget">
<polygon fill="#ffffff" stroke="#000000" points="462,-137 462,-156 588,-156 588,-137 462,-137"/>
<text text-anchor="middle" x="525" y="-144" font-family="Helvetica,sans-Serif" font-size="10.00" fill="#000000">Uptane::OversizedTarget</text>
</a>
</g>
</g>
<!-- Node221&#45;&gt;Node232 -->
<g id="edge20" class="edge">
<title>Node221&#45;&gt;Node232</title>
<path fill="none" stroke="#191970" d="M405.1149,-285.6776C407.9519,-283.8783 410.6092,-281.8304 413,-279.5 451.0481,-242.4129 410.3029,-201.9094 449,-165.5 453.0612,-161.6789 457.7709,-158.5944 462.8173,-156.1085"/>
<polygon fill="#191970" stroke="#191970" points="403.392,-282.6289 396.1518,-290.3639 406.6354,-288.8321 403.392,-282.6289"/>
</g>
<!-- Node233 -->
<g id="node22" class="node">
<title>Node233</title>
<g id="a_node22"><a xlink:href="class_uptane_1_1_security_exception.html" target="_top" xlink:title="Uptane::SecurityException">
<polygon fill="#ffffff" stroke="#000000" points="458,-99 458,-118 592,-118 592,-99 458,-99"/>
<text text-anchor="middle" x="525" y="-106" font-family="Helvetica,sans-Serif" font-size="10.00" fill="#000000">Uptane::SecurityException</text>
</a>
</g>
</g>
<!-- Node221&#45;&gt;Node233 -->
<g id="edge21" class="edge">
<title>Node221&#45;&gt;Node233</title>
<path fill="none" stroke="#191970" d="M405.1726,-285.9813C408.0143,-284.107 410.6551,-281.9596 413,-279.5 460.9048,-229.2517 400.2153,-176.8944 449,-127.5 452.7273,-123.7261 457.0827,-120.6612 461.7885,-118.1767"/>
<polygon fill="#191970" stroke="#191970" points="403.2993,-283.0143 396.1395,-290.8238 406.6066,-289.1837 403.2993,-283.0143"/>
</g>
<!-- Node234 -->
<g id="node23" class="node">
<title>Node234</title>
<g id="a_node23"><a xlink:href="class_uptane_1_1_target_hash_mismatch.html" target="_top" xlink:title="Uptane::TargetHashMismatch">
<polygon fill="#ffffff" stroke="#000000" points="451,-61 451,-80 599,-80 599,-61 451,-61"/>
<text text-anchor="middle" x="525" y="-68" font-family="Helvetica,sans-Serif" font-size="10.00" fill="#000000">Uptane::TargetHashMismatch</text>
</a>
</g>
</g>
<!-- Node221&#45;&gt;Node234 -->
<g id="edge22" class="edge">
<title>Node221&#45;&gt;Node234</title>
<path fill="none" stroke="#191970" d="M404.8888,-286.3856C407.8574,-284.4155 410.5985,-282.136 413,-279.5 470.8815,-215.9658 390.0055,-152.0021 449,-89.5 452.5475,-85.7416 456.7164,-82.6803 461.244,-80.192"/>
<polygon fill="#191970" stroke="#191970" points="403.1629,-283.3397 396.0133,-291.1585 406.4783,-289.5048 403.1629,-283.3397"/>
</g>
<!-- Node235 -->
<g id="node24" class="node">
<title>Node235</title>
<g id="a_node24"><a xlink:href="class_uptane_1_1_unmet_threshold.html" target="_top" xlink:title="Uptane::UnmetThreshold">
<polygon fill="#ffffff" stroke="#000000" points="462,-23 462,-42 588,-42 588,-23 462,-23"/>
<text text-anchor="middle" x="525" y="-30" font-family="Helvetica,sans-Serif" font-size="10.00" fill="#000000">Uptane::UnmetThreshold</text>
</a>
</g>
</g>
<!-- Node221&#45;&gt;Node235 -->
<g id="edge23" class="edge">
<title>Node221&#45;&gt;Node235</title>
<path fill="none" stroke="#191970" d="M404.984,-286.471C407.9292,-284.4799 410.6392,-282.1725 413,-279.5 480.9187,-202.6138 379.7341,-127.1748 449,-51.5 452.6731,-47.487 457.0539,-44.2642 461.8314,-41.6827"/>
<polygon fill="#191970" stroke="#191970" points="403.2588,-283.4252 396.1549,-291.2855 406.6101,-289.5708 403.2588,-283.4252"/>
</g>
<!-- Node237 -->
<g id="node26" class="node">
<title>Node237</title>
<g id="a_node26"><a xlink:href="class_bad_credentials_archive.html" target="_top" xlink:title="BadCredentialsArchive">
<polygon fill="#ffffff" stroke="#000000" points="289,-251 289,-270 405,-270 405,-251 289,-251"/>
<text text-anchor="middle" x="347" y="-258" font-family="Helvetica,sans-Serif" font-size="10.00" fill="#000000">BadCredentialsArchive</text>
</a>
</g>
</g>
<!-- Node236&#45;&gt;Node237 -->
<g id="edge25" class="edge">
<title>Node236&#45;&gt;Node237</title>
<path fill="none" stroke="#191970" d="M197.2704,-182.0095C216.5492,-199.1137 248.8921,-225.5319 281,-241.5 288.5801,-245.2698 297.0324,-248.41 305.2899,-250.9799"/>
<polygon fill="#191970" stroke="#191970" points="199.3798,-179.1984 189.613,-175.0922 194.6874,-184.3928 199.3798,-179.1984"/>
</g>
<!-- Node238 -->
<g id="node27" class="node">
<title>Node238</title>
<g id="a_node27"><a xlink:href="class_bad_credentials_content.html" target="_top" xlink:title="BadCredentialsContent">
<polygon fill="#ffffff" stroke="#000000" points="288,-213 288,-232 406,-232 406,-213 288,-213"/>
<text text-anchor="middle" x="347" y="-220" font-family="Helvetica,sans-Serif" font-size="10.00" fill="#000000">BadCredentialsContent</text>
</a>
</g>
</g>
<!-- Node236&#45;&gt;Node238 -->
<g id="edge26" class="edge">
<title>Node236&#45;&gt;Node238</title>
<path fill="none" stroke="#191970" d="M212.952,-178.7734C232.6306,-186.3931 258.0754,-195.9217 281,-203.5 290.9626,-206.7934 301.8747,-210.0677 311.9064,-212.9469"/>
<polygon fill="#191970" stroke="#191970" points="214.1,-175.4644 203.5116,-175.0934 211.5576,-181.9864 214.1,-175.4644"/>
</g>
<!-- Node239 -->
<g id="node28" class="node">
<title>Node239</title>
<g id="a_node28"><a xlink:href="class_bad_credentials_json.html" target="_top" xlink:title="BadCredentialsJson">
<polygon fill="#ffffff" stroke="#000000" points="295,-175 295,-194 399,-194 399,-175 295,-175"/>
<text text-anchor="middle" x="347" y="-182" font-family="Helvetica,sans-Serif" font-size="10.00" fill="#000000">BadCredentialsJson</text>
</a>
</g>
</g>
<!-- Node236&#45;&gt;Node239 -->
<g id="edge27" class="edge">
<title>Node236&#45;&gt;Node239</title>
<path fill="none" stroke="#191970" d="M236.1906,-171.9306C255.2224,-174.0894 276.3429,-176.4852 294.9971,-178.6012"/>
<polygon fill="#191970" stroke="#191970" points="236.4889,-168.442 226.1581,-170.7926 235.6999,-175.3974 236.4889,-168.442"/>
</g>
<!-- Node240 -->
<g id="node29" class="node">
<title>Node240</title>
<g id="a_node29"><a xlink:href="class_s_q_l_exception.html" target="_top" xlink:title="SQLException">
<polygon fill="#ffffff" stroke="#000000" points="307,-137 307,-156 387,-156 387,-137 307,-137"/>
<text text-anchor="middle" x="347" y="-144" font-family="Helvetica,sans-Serif" font-size="10.00" fill="#000000">SQLException</text>
</a>
</g>
</g>
<!-- Node236&#45;&gt;Node240 -->
<g id="edge28" class="edge">
<title>Node236&#45;&gt;Node240</title>
<path fill="none" stroke="#191970" d="M236.2228,-159.0658C259.412,-156.4354 285.6977,-153.4537 306.843,-151.0551"/>
<polygon fill="#191970" stroke="#191970" points="235.6999,-155.6026 226.1581,-160.2074 236.4889,-162.558 235.6999,-155.6026"/>
</g>
<!-- Node241 -->
<g id="node30" class="node">
<title>Node241</title>
<g id="a_node30"><a xlink:href="class_storage_exception.html" target="_top" xlink:title="StorageException">
<polygon fill="#ffffff" stroke="#000000" points="300,-99 300,-118 394,-118 394,-99 300,-99"/>
<text text-anchor="middle" x="347" y="-106" font-family="Helvetica,sans-Serif" font-size="10.00" fill="#000000">StorageException</text>
</a>
</g>
</g>
<!-- Node236&#45;&gt;Node241 -->
<g id="edge29" class="edge">
<title>Node236&#45;&gt;Node241</title>
<path fill="none" stroke="#191970" d="M212.952,-152.2266C232.6306,-144.6069 258.0754,-135.0783 281,-127.5 290.9626,-124.2066 301.8747,-120.9323 311.9064,-118.0531"/>
<polygon fill="#191970" stroke="#191970" points="211.5576,-149.0136 203.5116,-155.9066 214.1,-155.5356 211.5576,-149.0136"/>
</g>
<!-- Node242 -->
<g id="node31" class="node">
<title>Node242</title>
<g id="a_node31"><a xlink:href="class_storage_target_r_handle_1_1_read_error.html" target="_top" xlink:title="StorageTargetRHandle\l::ReadError">
<polygon fill="#ffffff" stroke="#000000" points="289,-49.5 289,-79.5 405,-79.5 405,-49.5 289,-49.5"/>
<text text-anchor="start" x="297" y="-67.5" font-family="Helvetica,sans-Serif" font-size="10.00" fill="#000000">StorageTargetRHandle</text>
<text text-anchor="middle" x="347" y="-56.5" font-family="Helvetica,sans-Serif" font-size="10.00" fill="#000000">::ReadError</text>
</a>
</g>
</g>
<!-- Node236&#45;&gt;Node242 -->
<g id="edge30" class="edge">
<title>Node236&#45;&gt;Node242</title>
<path fill="none" stroke="#191970" d="M197.8541,-149.2377C217.3914,-132.5529 249.7398,-106.6751 281,-89.5 287.658,-85.8419 294.9623,-82.4894 302.2092,-79.5089"/>
<polygon fill="#191970" stroke="#191970" points="195.3342,-146.79 190.0673,-155.983 199.9174,-152.081 195.3342,-146.79"/>
</g>
<!-- Node243 -->
<g id="node32" class="node">
<title>Node243</title>
<g id="a_node32"><a xlink:href="class_storage_target_w_handle_1_1_write_error.html" target="_top" xlink:title="StorageTargetWHandle\l::WriteError">
<polygon fill="#ffffff" stroke="#000000" points="287.5,-.5 287.5,-30.5 406.5,-30.5 406.5,-.5 287.5,-.5"/>
<text text-anchor="start" x="295.5" y="-18.5" font-family="Helvetica,sans-Serif" font-size="10.00" fill="#000000">StorageTargetWHandle</text>
<text text-anchor="middle" x="347" y="-7.5" font-family="Helvetica,sans-Serif" font-size="10.00" fill="#000000">::WriteError</text>
</a>
</g>
</g>
<!-- Node236&#45;&gt;Node243 -->
<g id="edge31" class="edge">
<title>Node236&#45;&gt;Node243</title>
<path fill="none" stroke="#191970" d="M190.0233,-147.1369C206.3013,-120.231 240.0257,-70.0894 281,-40.5 286.2647,-36.6981 292.1784,-33.3989 298.2467,-30.5571"/>
<polygon fill="#191970" stroke="#191970" points="186.9089,-145.5275 184.8343,-155.9172 192.9352,-149.0889 186.9089,-145.5275"/>
</g>
</g>
</svg>
