<?xml version="1.0" encoding="UTF-8" standalone="no"?>
<!DOCTYPE svg PUBLIC "-//W3C//DTD SVG 1.1//EN"
 "http://www.w3.org/Graphics/SVG/1.1/DTD/svg11.dtd">
<!-- Generated by graphviz version 2.40.1 (20161225.0304)
 -->
<!-- Title: Uptane::DownloadMetaStruct Pages: 1 -->
<svg width="338pt" height="173pt"
 viewBox="0.00 0.00 337.50 173.00" xmlns="http://www.w3.org/2000/svg" xmlns:xlink="http://www.w3.org/1999/xlink">
<g id="graph0" class="graph" transform="scale(1 1) rotate(0) translate(4 169)">
<title>Uptane::DownloadMetaStruct</title>
<polygon fill="#ffffff" stroke="transparent" points="-4,4 -4,-169 333.5,-169 333.5,4 -4,4"/>
<!-- Node1 -->
<g id="node1" class="node">
<title>Node1</title>
<polygon fill="#bfbfbf" stroke="#000000" points="89,-.5 89,-19.5 235,-19.5 235,-.5 89,-.5"/>
<text text-anchor="middle" x="162" y="-7.5" font-family="Helvetica,sans-Serif" font-size="10.00" fill="#000000">Uptane::DownloadMetaStruct</text>
</g>
<!-- Node2 -->
<g id="node2" class="node">
<title>Node2</title>
<g id="a_node2"><a xlink:href="class_uptane_1_1_target.html" target="_top" xlink:title="Uptane::Target">
<polygon fill="#ffffff" stroke="#000000" points="0,-73 0,-92 82,-92 82,-73 0,-73"/>
<text text-anchor="middle" x="41" y="-80" font-family="Helvetica,sans-Serif" font-size="10.00" fill="#000000">Uptane::Target</text>
</a>
</g>
</g>
<!-- Node2&#45;&gt;Node1 -->
<g id="edge1" class="edge">
<title>Node2&#45;&gt;Node1</title>
<path fill="none" stroke="#9a32cd" stroke-dasharray="5,2" d="M66.2079,-67.3961C90.1955,-53.0233 125.5646,-31.8311 145.9399,-19.6228"/>
<polygon fill="#9a32cd" stroke="#9a32cd" points="64.0977,-64.5802 57.3186,-72.7223 67.6956,-70.5849 64.0977,-64.5802"/>
<text text-anchor="middle" x="127" y="-41" font-family="Helvetica,sans-Serif" font-size="10.00" fill="#000000"> target</text>
</g>
<!-- Node3 -->
<g id="node3" class="node">
<title>Node3</title>
<polygon fill="#ffffff" stroke="#bfbfbf" points="100,-67.5 100,-97.5 224,-97.5 224,-67.5 100,-67.5"/>
<text text-anchor="start" x="108" y="-85.5" font-family="Helvetica,sans-Serif" font-size="10.00" fill="#000000">std::unique_ptr&lt; Storage</text>
<text text-anchor="middle" x="162" y="-74.5" font-family="Helvetica,sans-Serif" font-size="10.00" fill="#000000">TargetWHandle &gt;</text>
</g>
<!-- Node3&#45;&gt;Node1 -->
<g id="edge2" class="edge">
<title>Node3&#45;&gt;Node1</title>
<path fill="none" stroke="#9a32cd" stroke-dasharray="5,2" d="M162,-57.305C162,-44.424 162,-29.4836 162,-19.8957"/>
<polygon fill="#9a32cd" stroke="#9a32cd" points="158.5001,-57.4779 162,-67.478 165.5001,-57.478 158.5001,-57.4779"/>
<text text-anchor="middle" x="179.5" y="-41" font-family="Helvetica,sans-Serif" font-size="10.00" fill="#000000"> fhandle</text>
</g>
<!-- Node4 -->
<g id="node4" class="node">
<title>Node4</title>
<g id="a_node4"><a xlink:href="class_storage_target_w_handle.html" target="_top" xlink:title="StorageTargetWHandle">
<polygon fill="#ffffff" stroke="#000000" points="102.5,-145.5 102.5,-164.5 221.5,-164.5 221.5,-145.5 102.5,-145.5"/>
<text text-anchor="middle" x="162" y="-152.5" font-family="Helvetica,sans-Serif" font-size="10.00" fill="#000000">StorageTargetWHandle</text>
</a>
</g>
</g>
<!-- Node4&#45;&gt;Node3 -->
<g id="edge3" class="edge">
<title>Node4&#45;&gt;Node3</title>
<path fill="none" stroke="#9a32cd" stroke-dasharray="5,2" d="M162,-135.0177C162,-123.2164 162,-108.513 162,-97.668"/>
<polygon fill="#9a32cd" stroke="#9a32cd" points="158.5001,-135.2223 162,-145.2223 165.5001,-135.2224 158.5001,-135.2223"/>
<text text-anchor="middle" x="169.5" y="-119" font-family="Helvetica,sans-Serif" font-size="10.00" fill="#000000"> ptr</text>
</g>
<!-- Node5 -->
<g id="node5" class="node">
<title>Node5</title>
<g id="a_node5"><a xlink:href="class_uptane_1_1_fetcher.html" target="_top" xlink:title="Uptane::Fetcher">
<polygon fill="#ffffff" stroke="#000000" points="242.5,-73 242.5,-92 329.5,-92 329.5,-73 242.5,-73"/>
<text text-anchor="middle" x="286" y="-80" font-family="Helvetica,sans-Serif" font-size="10.00" fill="#000000">Uptane::Fetcher</text>
</a>
</g>
</g>
<!-- Node5&#45;&gt;Node1 -->
<g id="edge4" class="edge">
<title>Node5&#45;&gt;Node1</title>
<path fill="none" stroke="#9a32cd" stroke-dasharray="5,2" d="M260.7686,-67.7478C236.209,-53.3883 199.598,-31.9827 178.5343,-19.6673"/>
<polygon fill="#9a32cd" stroke="#9a32cd" points="259.1344,-70.8466 269.5338,-72.8726 262.6676,-64.8037 259.1344,-70.8466"/>
<text text-anchor="middle" x="244" y="-41" font-family="Helvetica,sans-Serif" font-size="10.00" fill="#000000"> fetcher</text>
</g>
</g>
</svg>
