<?xml version="1.0" encoding="UTF-8" standalone="no"?>
<!DOCTYPE svg PUBLIC "-//W3C//DTD SVG 1.1//EN"
 "http://www.w3.org/Graphics/SVG/1.1/DTD/svg11.dtd">
<!-- Generated by graphviz version 2.40.1 (20161225.0304)
 -->
<!-- Title: opcuabridge::discovery::Client::discovered_endpoint Pages: 1 -->
<svg width="151pt" height="174pt"
 viewBox="0.00 0.00 151.00 174.00" xmlns="http://www.w3.org/2000/svg" xmlns:xlink="http://www.w3.org/1999/xlink">
<g id="graph0" class="graph" transform="scale(1 1) rotate(0) translate(4 170)">
<title>opcuabridge::discovery::Client::discovered_endpoint</title>
<polygon fill="#ffffff" stroke="transparent" points="-4,4 -4,-170 147,-170 147,4 -4,4"/>
<!-- Node1 -->
<g id="node1" class="node">
<title>Node1</title>
<polygon fill="#bfbfbf" stroke="#000000" points="0,-.5 0,-30.5 143,-30.5 143,-.5 0,-.5"/>
<text text-anchor="start" x="8" y="-18.5" font-family="Helvetica,sans-Serif" font-size="10.00" fill="#000000">opcuabridge::discovery</text>
<text text-anchor="middle" x="71.5" y="-7.5" font-family="Helvetica,sans-Serif" font-size="10.00" fill="#000000">::Client::discovered_endpoint</text>
</g>
<!-- Node2 -->
<g id="node2" class="node">
<title>Node2</title>
<g id="a_node2"><a xlink:title="STL class. ">
<polygon fill="#ffffff" stroke="#bfbfbf" points="41.5,-78.5 41.5,-97.5 101.5,-97.5 101.5,-78.5 41.5,-78.5"/>
<text text-anchor="middle" x="71.5" y="-85.5" font-family="Helvetica,sans-Serif" font-size="10.00" fill="#000000">std::string</text>
</a>
</g>
</g>
<!-- Node2&#45;&gt;Node1 -->
<g id="edge1" class="edge">
<title>Node2&#45;&gt;Node1</title>
<path fill="none" stroke="#9a32cd" stroke-dasharray="5,2" d="M71.5,-68.0177C71.5,-56.2164 71.5,-41.513 71.5,-30.668"/>
<polygon fill="#9a32cd" stroke="#9a32cd" points="68.0001,-68.2223 71.5,-78.2223 75.0001,-68.2224 68.0001,-68.2223"/>
<text text-anchor="middle" x="90.5" y="-52" font-family="Helvetica,sans-Serif" font-size="10.00" fill="#000000"> address</text>
</g>
<!-- Node3 -->
<g id="node3" class="node">
<title>Node3</title>
<g id="a_node3"><a xlink:title="STL class. ">
<polygon fill="#ffffff" stroke="#bfbfbf" points="24,-135.5 24,-165.5 119,-165.5 119,-135.5 24,-135.5"/>
<text text-anchor="start" x="32" y="-153.5" font-family="Helvetica,sans-Serif" font-size="10.00" fill="#000000">std::basic_string&lt;</text>
<text text-anchor="middle" x="71.5" y="-142.5" font-family="Helvetica,sans-Serif" font-size="10.00" fill="#000000"> char &gt;</text>
</a>
</g>
</g>
<!-- Node3&#45;&gt;Node2 -->
<g id="edge2" class="edge">
<title>Node3&#45;&gt;Node2</title>
<path fill="none" stroke="#191970" d="M71.5,-125.3498C71.5,-115.6481 71.5,-105.1303 71.5,-97.7356"/>
<polygon fill="#191970" stroke="#191970" points="68.0001,-125.3705 71.5,-135.3705 75.0001,-125.3705 68.0001,-125.3705"/>
</g>
</g>
</svg>
