<?xml version="1.0" encoding="UTF-8" standalone="no"?>
<!DOCTYPE svg PUBLIC "-//W3C//DTD SVG 1.1//EN"
 "http://www.w3.org/Graphics/SVG/1.1/DTD/svg11.dtd">
<!-- Generated by graphviz version 2.40.1 (20161225.0304)
 -->
<!-- Title: Primary::IPSecondariesConfig Pages: 1 -->
<svg width="286pt" height="308pt"
 viewBox="0.00 0.00 286.00 308.00" xmlns="http://www.w3.org/2000/svg" xmlns:xlink="http://www.w3.org/1999/xlink">
<g id="graph0" class="graph" transform="scale(1 1) rotate(0) translate(4 304)">
<title>Primary::IPSecondariesConfig</title>
<polygon fill="#ffffff" stroke="transparent" points="-4,4 -4,-304 282,-304 282,4 -4,4"/>
<!-- Node2 -->
<g id="node1" class="node">
<title>Node2</title>
<polygon fill="#bfbfbf" stroke="#000000" points="7,-.5 7,-19.5 156,-19.5 156,-.5 7,-.5"/>
<text text-anchor="middle" x="81.5" y="-7.5" font-family="Helvetica,sans-Serif" font-size="10.00" fill="#000000">Primary::IPSecondariesConfig</text>
</g>
<!-- Node3 -->
<g id="node2" class="node">
<title>Node3</title>
<g id="a_node2"><a xlink:href="class_primary_1_1_secondary_config.html" target="_top" xlink:title="Primary::SecondaryConfig">
<polygon fill="#ffffff" stroke="#000000" points="0,-73 0,-92 131,-92 131,-73 0,-73"/>
<text text-anchor="middle" x="65.5" y="-80" font-family="Helvetica,sans-Serif" font-size="10.00" fill="#000000">Primary::SecondaryConfig</text>
</a>
</g>
</g>
<!-- Node3&#45;&gt;Node2 -->
<g id="edge1" class="edge">
<title>Node3&#45;&gt;Node2</title>
<path fill="none" stroke="#191970" d="M69.8905,-62.6054C72.9762,-48.6237 76.9682,-30.5346 79.3764,-19.6228"/>
<polygon fill="#191970" stroke="#191970" points="66.3952,-62.203 67.6578,-72.7223 73.2307,-63.7116 66.3952,-62.203"/>
</g>
<!-- Node4 -->
<g id="node3" class="node">
<title>Node4</title>
<polygon fill="#ffffff" stroke="#bfbfbf" points="149.5,-67.5 149.5,-97.5 265.5,-97.5 265.5,-67.5 149.5,-67.5"/>
<text text-anchor="start" x="157.5" y="-85.5" font-family="Helvetica,sans-Serif" font-size="10.00" fill="#000000">std::vector&lt; Primary</text>
<text text-anchor="middle" x="207.5" y="-74.5" font-family="Helvetica,sans-Serif" font-size="10.00" fill="#000000">::IPSecondaryConfig &gt;</text>
</g>
<!-- Node4&#45;&gt;Node2 -->
<g id="edge2" class="edge">
<title>Node4&#45;&gt;Node2</title>
<path fill="none" stroke="#9a32cd" stroke-dasharray="5,2" d="M172.4983,-62.3601C148.3031,-48.4383 117.1914,-30.5367 98.3275,-19.6825"/>
<polygon fill="#9a32cd" stroke="#9a32cd" points="170.9796,-65.5243 181.3927,-67.478 174.4707,-59.457 170.9796,-65.5243"/>
<text text-anchor="middle" x="185" y="-41" font-family="Helvetica,sans-Serif" font-size="10.00" fill="#000000"> secondaries_cfg</text>
</g>
<!-- Node5 -->
<g id="node4" class="node">
<title>Node5</title>
<g id="a_node4"><a xlink:href="class_primary_1_1_i_p_secondary_config.html" target="_top" xlink:title="Primary::IPSecondaryConfig">
<polygon fill="#ffffff" stroke="#000000" points="137,-145.5 137,-164.5 278,-164.5 278,-145.5 137,-145.5"/>
<text text-anchor="middle" x="207.5" y="-152.5" font-family="Helvetica,sans-Serif" font-size="10.00" fill="#000000">Primary::IPSecondaryConfig</text>
</a>
</g>
</g>
<!-- Node5&#45;&gt;Node4 -->
<g id="edge3" class="edge">
<title>Node5&#45;&gt;Node4</title>
<path fill="none" stroke="#9a32cd" stroke-dasharray="5,2" d="M207.5,-135.0177C207.5,-123.2164 207.5,-108.513 207.5,-97.668"/>
<polygon fill="#9a32cd" stroke="#9a32cd" points="204.0001,-135.2223 207.5,-145.2223 211.0001,-135.2224 204.0001,-135.2223"/>
<text text-anchor="middle" x="229" y="-119" font-family="Helvetica,sans-Serif" font-size="10.00" fill="#000000"> elements</text>
</g>
<!-- Node6 -->
<g id="node5" class="node">
<title>Node6</title>
<g id="a_node5"><a xlink:title="STL class. ">
<polygon fill="#ffffff" stroke="#bfbfbf" points="177.5,-212.5 177.5,-231.5 237.5,-231.5 237.5,-212.5 177.5,-212.5"/>
<text text-anchor="middle" x="207.5" y="-219.5" font-family="Helvetica,sans-Serif" font-size="10.00" fill="#000000">std::string</text>
</a>
</g>
</g>
<!-- Node6&#45;&gt;Node5 -->
<g id="edge4" class="edge">
<title>Node6&#45;&gt;Node5</title>
<path fill="none" stroke="#9a32cd" stroke-dasharray="5,2" d="M207.5,-202.1079C207.5,-189.714 207.5,-174.3263 207.5,-164.5817"/>
<polygon fill="#9a32cd" stroke="#9a32cd" points="204.0001,-202.4005 207.5,-212.4005 211.0001,-202.4006 204.0001,-202.4005"/>
<text text-anchor="middle" x="213" y="-186" font-family="Helvetica,sans-Serif" font-size="10.00" fill="#000000"> ip</text>
</g>
<!-- Node7 -->
<g id="node6" class="node">
<title>Node7</title>
<g id="a_node6"><a xlink:title="STL class. ">
<polygon fill="#ffffff" stroke="#bfbfbf" points="160,-269.5 160,-299.5 255,-299.5 255,-269.5 160,-269.5"/>
<text text-anchor="start" x="168" y="-287.5" font-family="Helvetica,sans-Serif" font-size="10.00" fill="#000000">std::basic_string&lt;</text>
<text text-anchor="middle" x="207.5" y="-276.5" font-family="Helvetica,sans-Serif" font-size="10.00" fill="#000000"> char &gt;</text>
</a>
</g>
</g>
<!-- Node7&#45;&gt;Node6 -->
<g id="edge5" class="edge">
<title>Node7&#45;&gt;Node6</title>
<path fill="none" stroke="#191970" d="M207.5,-259.3498C207.5,-249.6481 207.5,-239.1303 207.5,-231.7356"/>
<polygon fill="#191970" stroke="#191970" points="204.0001,-259.3705 207.5,-269.3705 211.0001,-259.3705 204.0001,-259.3705"/>
</g>
</g>
</svg>
