<?xml version="1.0" encoding="UTF-8" standalone="no"?>
<!DOCTYPE svg PUBLIC "-//W3C//DTD SVG 1.1//EN"
 "http://www.w3.org/Graphics/SVG/1.1/DTD/svg11.dtd">
<!-- Generated by graphviz version 2.40.1 (20161225.0304)
 -->
<!-- Title: PackageManagerFake Pages: 1 -->
<svg width="139pt" height="298pt"
 viewBox="0.00 0.00 139.00 298.00" xmlns="http://www.w3.org/2000/svg" xmlns:xlink="http://www.w3.org/1999/xlink">
<g id="graph0" class="graph" transform="scale(1 1) rotate(0) translate(4 294)">
<title>PackageManagerFake</title>
<polygon fill="#ffffff" stroke="transparent" points="-4,4 -4,-294 135,-294 135,4 -4,4"/>
<!-- Node2 -->
<g id="node1" class="node">
<title>Node2</title>
<polygon fill="#bfbfbf" stroke="#000000" points="8.5,-.5 8.5,-19.5 122.5,-19.5 122.5,-.5 8.5,-.5"/>
<text text-anchor="middle" x="65.5" y="-7.5" font-family="Helvetica,sans-Serif" font-size="10.00" fill="#000000">PackageManagerFake</text>
</g>
<!-- Node3 -->
<g id="node2" class="node">
<title>Node3</title>
<g id="a_node2"><a xlink:href="class_package_manager_interface.html" target="_top" xlink:title="PackageManagerInterface">
<polygon fill="#ffffff" stroke="#000000" points="0,-57.5 0,-76.5 131,-76.5 131,-57.5 0,-57.5"/>
<text text-anchor="middle" x="65.5" y="-64.5" font-family="Helvetica,sans-Serif" font-size="10.00" fill="#000000">PackageManagerInterface</text>
</a>
</g>
</g>
<!-- Node3&#45;&gt;Node2 -->
<g id="edge1" class="edge">
<title>Node3&#45;&gt;Node2</title>
<path fill="none" stroke="#191970" d="M65.5,-47.2342C65.5,-37.8491 65.5,-27.0651 65.5,-19.5265"/>
<polygon fill="#191970" stroke="#191970" points="62.0001,-47.3307 65.5,-57.3307 69.0001,-47.3308 62.0001,-47.3307"/>
</g>
<!-- Node4 -->
<g id="node3" class="node">
<title>Node4</title>
<g id="a_node3"><a xlink:href="struct_package_config.html" target="_top" xlink:title="PackageConfig">
<polygon fill="#ffffff" stroke="#000000" points="24,-124.5 24,-143.5 107,-143.5 107,-124.5 24,-124.5"/>
<text text-anchor="middle" x="65.5" y="-131.5" font-family="Helvetica,sans-Serif" font-size="10.00" fill="#000000">PackageConfig</text>
</a>
</g>
</g>
<!-- Node4&#45;&gt;Node3 -->
<g id="edge2" class="edge">
<title>Node4&#45;&gt;Node3</title>
<path fill="none" stroke="#9a32cd" stroke-dasharray="5,2" d="M65.5,-114.1079C65.5,-101.714 65.5,-86.3263 65.5,-76.5817"/>
<polygon fill="#9a32cd" stroke="#9a32cd" points="62.0001,-114.4005 65.5,-124.4005 69.0001,-114.4006 62.0001,-114.4005"/>
<text text-anchor="middle" x="80.5" y="-98" font-family="Helvetica,sans-Serif" font-size="10.00" fill="#000000"> config</text>
</g>
<!-- Node5 -->
<g id="node4" class="node">
<title>Node5</title>
<g id="a_node4"><a xlink:title="STL class. ">
<polygon fill="#ffffff" stroke="#bfbfbf" points="35.5,-202.5 35.5,-221.5 95.5,-221.5 95.5,-202.5 35.5,-202.5"/>
<text text-anchor="middle" x="65.5" y="-209.5" font-family="Helvetica,sans-Serif" font-size="10.00" fill="#000000">std::string</text>
</a>
</g>
</g>
<!-- Node5&#45;&gt;Node4 -->
<g id="edge3" class="edge">
<title>Node5&#45;&gt;Node4</title>
<path fill="none" stroke="#9a32cd" stroke-dasharray="5,2" d="M65.5,-192.2866C65.5,-176.7395 65.5,-155.7276 65.5,-143.6426"/>
<polygon fill="#9a32cd" stroke="#9a32cd" points="62.0001,-192.4356 65.5,-202.4357 69.0001,-192.4357 62.0001,-192.4356"/>
<text text-anchor="middle" x="95.5" y="-176" font-family="Helvetica,sans-Serif" font-size="10.00" fill="#000000"> os</text>
<text text-anchor="middle" x="95.5" y="-165" font-family="Helvetica,sans-Serif" font-size="10.00" fill="#000000">ostree_server</text>
</g>
<!-- Node6 -->
<g id="node5" class="node">
<title>Node6</title>
<g id="a_node5"><a xlink:title="STL class. ">
<polygon fill="#ffffff" stroke="#bfbfbf" points="18,-259.5 18,-289.5 113,-289.5 113,-259.5 18,-259.5"/>
<text text-anchor="start" x="26" y="-277.5" font-family="Helvetica,sans-Serif" font-size="10.00" fill="#000000">std::basic_string&lt;</text>
<text text-anchor="middle" x="65.5" y="-266.5" font-family="Helvetica,sans-Serif" font-size="10.00" fill="#000000"> char &gt;</text>
</a>
</g>
</g>
<!-- Node6&#45;&gt;Node5 -->
<g id="edge4" class="edge">
<title>Node6&#45;&gt;Node5</title>
<path fill="none" stroke="#191970" d="M65.5,-249.3498C65.5,-239.6481 65.5,-229.1303 65.5,-221.7356"/>
<polygon fill="#191970" stroke="#191970" points="62.0001,-249.3705 65.5,-259.3705 69.0001,-249.3705 62.0001,-249.3705"/>
</g>
</g>
</svg>
