<?xml version="1.0" encoding="UTF-8" standalone="no"?>
<!DOCTYPE svg PUBLIC "-//W3C//DTD SVG 1.1//EN"
 "http://www.w3.org/Graphics/SVG/1.1/DTD/svg11.dtd">
<!-- Generated by graphviz version 2.40.1 (20161225.0304)
 -->
<!-- Title: ReportEvent Pages: 1 -->
<svg width="269pt" height="382pt"
 viewBox="0.00 0.00 269.00 382.00" xmlns="http://www.w3.org/2000/svg" xmlns:xlink="http://www.w3.org/1999/xlink">
<g id="graph0" class="graph" transform="scale(1 1) rotate(0) translate(4 378)">
<title>ReportEvent</title>
<polygon fill="#ffffff" stroke="transparent" points="-4,4 -4,-378 265,-378 265,4 -4,4"/>
<!-- Node0 -->
<g id="node1" class="node">
<title>Node0</title>
<polygon fill="#bfbfbf" stroke="#000000" points="0,-183.5 0,-202.5 71,-202.5 71,-183.5 0,-183.5"/>
<text text-anchor="middle" x="35.5" y="-190.5" font-family="Helvetica,sans-Serif" font-size="10.00" fill="#000000">ReportEvent</text>
</g>
<!-- Node1 -->
<g id="node2" class="node">
<title>Node1</title>
<g id="a_node2"><a xlink:href="class_campaign_accepted_report.html" target="_top" xlink:title="CampaignAcceptedReport">
<polygon fill="#ffffff" stroke="#000000" points="118.5,-354.5 118.5,-373.5 249.5,-373.5 249.5,-354.5 118.5,-354.5"/>
<text text-anchor="middle" x="184" y="-361.5" font-family="Helvetica,sans-Serif" font-size="10.00" fill="#000000">CampaignAcceptedReport</text>
</a>
</g>
</g>
<!-- Node0&#45;&gt;Node1 -->
<g id="edge1" class="edge">
<title>Node0&#45;&gt;Node1</title>
<path fill="none" stroke="#191970" d="M39.0949,-212.6636C46.1197,-245.2917 64.8298,-310.4416 107,-345 111.6859,-348.8401 117.0357,-351.9214 122.6827,-354.3914"/>
<polygon fill="#191970" stroke="#191970" points="42.4718,-211.7015 37.0781,-202.5824 35.6078,-213.0747 42.4718,-211.7015"/>
</g>
<!-- Node2 -->
<g id="node3" class="node">
<title>Node2</title>
<g id="a_node3"><a xlink:href="class_campaign_declined_report.html" target="_top" xlink:title="CampaignDeclinedReport">
<polygon fill="#ffffff" stroke="#000000" points="120,-316.5 120,-335.5 248,-335.5 248,-316.5 120,-316.5"/>
<text text-anchor="middle" x="184" y="-323.5" font-family="Helvetica,sans-Serif" font-size="10.00" fill="#000000">CampaignDeclinedReport</text>
</a>
</g>
</g>
<!-- Node0&#45;&gt;Node2 -->
<g id="edge2" class="edge">
<title>Node0&#45;&gt;Node2</title>
<path fill="none" stroke="#191970" d="M42.2105,-212.0917C52.224,-237.7179 73.5607,-282.8094 107,-307 112.3548,-310.8738 118.4086,-313.9629 124.711,-316.4253"/>
<polygon fill="#191970" stroke="#191970" points="45.4871,-210.8611 38.7143,-202.7137 38.928,-213.3064 45.4871,-210.8611"/>
</g>
<!-- Node3 -->
<g id="node4" class="node">
<title>Node3</title>
<g id="a_node4"><a xlink:href="class_campaign_postponed_report.html" target="_top" xlink:title="CampaignPostponedReport">
<polygon fill="#ffffff" stroke="#000000" points="115.5,-278.5 115.5,-297.5 252.5,-297.5 252.5,-278.5 115.5,-278.5"/>
<text text-anchor="middle" x="184" y="-285.5" font-family="Helvetica,sans-Serif" font-size="10.00" fill="#000000">CampaignPostponedReport</text>
</a>
</g>
</g>
<!-- Node0&#45;&gt;Node3 -->
<g id="edge3" class="edge">
<title>Node0&#45;&gt;Node3</title>
<path fill="none" stroke="#191970" d="M47.5434,-210.846C60.2764,-228.3127 81.9607,-254.3657 107,-269 113.6571,-272.8907 121.0862,-275.9884 128.6311,-278.4539"/>
<polygon fill="#191970" stroke="#191970" points="50.3531,-208.757 41.7304,-202.6006 44.6319,-212.7904 50.3531,-208.757"/>
</g>
<!-- Node4 -->
<g id="node5" class="node">
<title>Node4</title>
<g id="a_node5"><a xlink:href="class_device_paused_report.html" target="_top" xlink:title="DevicePausedReport">
<polygon fill="#ffffff" stroke="#000000" points="129,-240.5 129,-259.5 239,-259.5 239,-240.5 129,-240.5"/>
<text text-anchor="middle" x="184" y="-247.5" font-family="Helvetica,sans-Serif" font-size="10.00" fill="#000000">DevicePausedReport</text>
</a>
</g>
</g>
<!-- Node0&#45;&gt;Node4 -->
<g id="edge4" class="edge">
<title>Node0&#45;&gt;Node4</title>
<path fill="none" stroke="#191970" d="M59.5726,-207.7145C73.1207,-215.4989 90.5707,-224.718 107,-231 116.6457,-234.6882 127.2486,-237.8461 137.4199,-240.4679"/>
<polygon fill="#191970" stroke="#191970" points="61.2725,-204.6539 50.877,-202.6083 57.7279,-210.6902 61.2725,-204.6539"/>
</g>
<!-- Node5 -->
<g id="node6" class="node">
<title>Node5</title>
<g id="a_node6"><a xlink:href="class_device_resumed_report.html" target="_top" xlink:title="DeviceResumedReport">
<polygon fill="#ffffff" stroke="#000000" points="124.5,-202.5 124.5,-221.5 243.5,-221.5 243.5,-202.5 124.5,-202.5"/>
<text text-anchor="middle" x="184" y="-209.5" font-family="Helvetica,sans-Serif" font-size="10.00" fill="#000000">DeviceResumedReport</text>
</a>
</g>
</g>
<!-- Node0&#45;&gt;Node5 -->
<g id="edge5" class="edge">
<title>Node0&#45;&gt;Node5</title>
<path fill="none" stroke="#191970" d="M81.1666,-198.8429C94.8072,-200.5881 109.9668,-202.5277 124.3632,-204.3697"/>
<polygon fill="#191970" stroke="#191970" points="81.4328,-195.3485 71.0694,-197.551 80.5444,-202.2919 81.4328,-195.3485"/>
</g>
<!-- Node6 -->
<g id="node7" class="node">
<title>Node6</title>
<g id="a_node7"><a xlink:href="class_ecu_download_completed_report.html" target="_top" xlink:title="EcuDownloadCompletedReport">
<polygon fill="#ffffff" stroke="#000000" points="107,-164.5 107,-183.5 261,-183.5 261,-164.5 107,-164.5"/>
<text text-anchor="middle" x="184" y="-171.5" font-family="Helvetica,sans-Serif" font-size="10.00" fill="#000000">EcuDownloadCompletedReport</text>
</a>
</g>
</g>
<!-- Node0&#45;&gt;Node6 -->
<g id="edge6" class="edge">
<title>Node0&#45;&gt;Node6</title>
<path fill="none" stroke="#191970" d="M81.0028,-187.1781C90.0884,-186.0156 99.8531,-184.7663 109.6208,-183.5165"/>
<polygon fill="#191970" stroke="#191970" points="80.5444,-183.7081 71.0694,-188.449 81.4328,-190.6515 80.5444,-183.7081"/>
</g>
<!-- Node7 -->
<g id="node8" class="node">
<title>Node7</title>
<g id="a_node8"><a xlink:href="class_ecu_download_started_report.html" target="_top" xlink:title="EcuDownloadStartedReport">
<polygon fill="#ffffff" stroke="#000000" points="115,-126.5 115,-145.5 253,-145.5 253,-126.5 115,-126.5"/>
<text text-anchor="middle" x="184" y="-133.5" font-family="Helvetica,sans-Serif" font-size="10.00" fill="#000000">EcuDownloadStartedReport</text>
</a>
</g>
</g>
<!-- Node0&#45;&gt;Node7 -->
<g id="edge7" class="edge">
<title>Node0&#45;&gt;Node7</title>
<path fill="none" stroke="#191970" d="M59.5726,-178.2855C73.1207,-170.5011 90.5707,-161.282 107,-155 116.6457,-151.3118 127.2486,-148.1539 137.4199,-145.5321"/>
<polygon fill="#191970" stroke="#191970" points="57.7279,-175.3098 50.877,-183.3917 61.2725,-181.3461 57.7279,-175.3098"/>
</g>
<!-- Node8 -->
<g id="node9" class="node">
<title>Node8</title>
<g id="a_node9"><a xlink:href="class_ecu_installation_applied_report.html" target="_top" xlink:title="EcuInstallationAppliedReport">
<polygon fill="#ffffff" stroke="#000000" points="112.5,-88.5 112.5,-107.5 255.5,-107.5 255.5,-88.5 112.5,-88.5"/>
<text text-anchor="middle" x="184" y="-95.5" font-family="Helvetica,sans-Serif" font-size="10.00" fill="#000000">EcuInstallationAppliedReport</text>
</a>
</g>
</g>
<!-- Node0&#45;&gt;Node8 -->
<g id="edge8" class="edge">
<title>Node0&#45;&gt;Node8</title>
<path fill="none" stroke="#191970" d="M47.5434,-175.154C60.2764,-157.6873 81.9607,-131.6343 107,-117 113.6571,-113.1093 121.0862,-110.0116 128.6311,-107.5461"/>
<polygon fill="#191970" stroke="#191970" points="44.6319,-173.2096 41.7304,-183.3994 50.3531,-177.243 44.6319,-173.2096"/>
</g>
<!-- Node9 -->
<g id="node10" class="node">
<title>Node9</title>
<g id="a_node10"><a xlink:href="class_ecu_installation_completed_report.html" target="_top" xlink:title="EcuInstallationCompleted\lReport">
<polygon fill="#ffffff" stroke="#000000" points="120,-39 120,-69 248,-69 248,-39 120,-39"/>
<text text-anchor="start" x="128" y="-57" font-family="Helvetica,sans-Serif" font-size="10.00" fill="#000000">EcuInstallationCompleted</text>
<text text-anchor="middle" x="184" y="-46" font-family="Helvetica,sans-Serif" font-size="10.00" fill="#000000">Report</text>
</a>
</g>
</g>
<!-- Node0&#45;&gt;Node9 -->
<g id="edge9" class="edge">
<title>Node0&#45;&gt;Node9</title>
<path fill="none" stroke="#191970" d="M42.6058,-173.9131C52.9701,-148.6222 74.598,-104.266 107,-79 111.9876,-75.1108 117.6011,-71.8164 123.4661,-69.0279"/>
<polygon fill="#191970" stroke="#191970" points="39.2491,-172.886 38.855,-183.4735 45.7655,-175.4426 39.2491,-172.886"/>
</g>
<!-- Node10 -->
<g id="node11" class="node">
<title>Node10</title>
<g id="a_node11"><a xlink:href="class_ecu_installation_started_report.html" target="_top" xlink:title="EcuInstallationStartedReport">
<polygon fill="#ffffff" stroke="#000000" points="113,-.5 113,-19.5 255,-19.5 255,-.5 113,-.5"/>
<text text-anchor="middle" x="184" y="-7.5" font-family="Helvetica,sans-Serif" font-size="10.00" fill="#000000">EcuInstallationStartedReport</text>
</a>
</g>
</g>
<!-- Node0&#45;&gt;Node10 -->
<g id="edge10" class="edge">
<title>Node0&#45;&gt;Node10</title>
<path fill="none" stroke="#191970" d="M38.5274,-172.9538C44.8224,-138.4278 62.6255,-67.8162 107,-30 112.0458,-25.6999 117.9065,-22.3092 124.0991,-19.6381"/>
<polygon fill="#191970" stroke="#191970" points="35.0147,-172.7385 36.8119,-183.1798 41.9182,-173.8966 35.0147,-172.7385"/>
</g>
</g>
</svg>
