<?xml version="1.0" encoding="UTF-8" standalone="no"?>
<!DOCTYPE svg PUBLIC "-//W3C//DTD SVG 1.1//EN"
 "http://www.w3.org/Graphics/SVG/1.1/DTD/svg11.dtd">
<!-- Generated by graphviz version 2.40.1 (20161225.0304)
 -->
<!-- Title: Uptane::ImagesRepository Pages: 1 -->
<svg width="1425pt" height="180pt"
 viewBox="0.00 0.00 1425.00 180.19" xmlns="http://www.w3.org/2000/svg" xmlns:xlink="http://www.w3.org/1999/xlink">
<g id="graph0" class="graph" transform="scale(1 1) rotate(0) translate(4 176.1852)">
<title>Uptane::ImagesRepository</title>
<polygon fill="#ffffff" stroke="transparent" points="-4,4 -4,-176.1852 1421,-176.1852 1421,4 -4,4"/>
<!-- Node2 -->
<g id="node1" class="node">
<title>Node2</title>
<polygon fill="#bfbfbf" stroke="#000000" points="1283,-103.6852 1283,-122.6852 1417,-122.6852 1417,-103.6852 1283,-103.6852"/>
<text text-anchor="middle" x="1350" y="-110.6852" font-family="Helvetica,sans-Serif" font-size="10.00" fill="#000000">Uptane::ImagesRepository</text>
</g>
<!-- Node3 -->
<g id="node2" class="node">
<title>Node3</title>
<g id="a_node2"><a xlink:href="class_uptane_1_1_repository_common.html" target="_top" xlink:title="Uptane::RepositoryCommon">
<polygon fill="#ffffff" stroke="#000000" points="1105,-103.6852 1105,-122.6852 1246,-122.6852 1246,-103.6852 1105,-103.6852"/>
<text text-anchor="middle" x="1175.5" y="-110.6852" font-family="Helvetica,sans-Serif" font-size="10.00" fill="#000000">Uptane::RepositoryCommon</text>
</a>
</g>
</g>
<!-- Node3&#45;&gt;Node2 -->
<g id="edge1" class="edge">
<title>Node3&#45;&gt;Node2</title>
<path fill="none" stroke="#191970" d="M1256.5101,-113.1852C1265.3241,-113.1852 1274.2233,-113.1852 1282.8457,-113.1852"/>
<polygon fill="#191970" stroke="#191970" points="1256.2243,-109.6853 1246.2243,-113.1852 1256.2242,-116.6853 1256.2243,-109.6853"/>
</g>
<!-- Node4 -->
<g id="node3" class="node">
<title>Node4</title>
<g id="a_node3"><a xlink:href="class_uptane_1_1_repository_type.html" target="_top" xlink:title="Uptane::RepositoryType">
<polygon fill="#ffffff" stroke="#000000" points="924,-122.6852 924,-141.6852 1047,-141.6852 1047,-122.6852 924,-122.6852"/>
<text text-anchor="middle" x="985.5" y="-129.6852" font-family="Helvetica,sans-Serif" font-size="10.00" fill="#000000">Uptane::RepositoryType</text>
</a>
</g>
</g>
<!-- Node4&#45;&gt;Node3 -->
<g id="edge2" class="edge">
<title>Node4&#45;&gt;Node3</title>
<path fill="none" stroke="#9a32cd" stroke-dasharray="5,2" d="M1057.2836,-125.0068C1072.8709,-123.4481 1089.3466,-121.8005 1104.8881,-120.2464"/>
<polygon fill="#9a32cd" stroke="#9a32cd" points="1056.7896,-121.5387 1047.1876,-126.0164 1057.4862,-128.5039 1056.7896,-121.5387"/>
<text text-anchor="middle" x="1076" y="-126.1852" font-family="Helvetica,sans-Serif" font-size="10.00" fill="#000000"> type</text>
</g>
<!-- Node5 -->
<g id="node4" class="node">
<title>Node5</title>
<g id="a_node4"><a xlink:href="class_uptane_1_1_root.html" target="_top" xlink:title="Uptane::Root">
<polygon fill="#ffffff" stroke="#000000" points="948,-84.6852 948,-103.6852 1023,-103.6852 1023,-84.6852 948,-84.6852"/>
<text text-anchor="middle" x="985.5" y="-91.6852" font-family="Helvetica,sans-Serif" font-size="10.00" fill="#000000">Uptane::Root</text>
</a>
</g>
</g>
<!-- Node5&#45;&gt;Node3 -->
<g id="edge3" class="edge">
<title>Node5&#45;&gt;Node3</title>
<path fill="none" stroke="#9a32cd" stroke-dasharray="5,2" d="M1033.0089,-98.9361C1054.7596,-101.1111 1080.9819,-103.7334 1104.9704,-106.1322"/>
<polygon fill="#9a32cd" stroke="#9a32cd" points="1033.3366,-95.4515 1023.0379,-97.939 1032.64,-102.4167 1033.3366,-95.4515"/>
<text text-anchor="middle" x="1076" y="-107.1852" font-family="Helvetica,sans-Serif" font-size="10.00" fill="#000000"> root</text>
</g>
<!-- Node6 -->
<g id="node5" class="node">
<title>Node6</title>
<g id="a_node5"><a xlink:href="class_uptane_1_1_meta_with_keys.html" target="_top" xlink:title="Uptane::MetaWithKeys">
<polygon fill="#ffffff" stroke="#000000" points="768,-84.6852 768,-103.6852 887,-103.6852 887,-84.6852 768,-84.6852"/>
<text text-anchor="middle" x="827.5" y="-91.6852" font-family="Helvetica,sans-Serif" font-size="10.00" fill="#000000">Uptane::MetaWithKeys</text>
</a>
</g>
</g>
<!-- Node6&#45;&gt;Node5 -->
<g id="edge4" class="edge">
<title>Node6&#45;&gt;Node5</title>
<path fill="none" stroke="#191970" d="M897.3317,-94.1852C914.6437,-94.1852 932.551,-94.1852 947.6676,-94.1852"/>
<polygon fill="#191970" stroke="#191970" points="897.2331,-90.6853 887.233,-94.1852 897.233,-97.6853 897.2331,-90.6853"/>
</g>
<!-- Node7 -->
<g id="node6" class="node">
<title>Node7</title>
<g id="a_node6"><a xlink:href="class_uptane_1_1_base_meta.html" target="_top" xlink:title="Uptane::BaseMeta">
<polygon fill="#ffffff" stroke="#000000" points="525.5,-151.6852 525.5,-170.6852 623.5,-170.6852 623.5,-151.6852 525.5,-151.6852"/>
<text text-anchor="middle" x="574.5" y="-158.6852" font-family="Helvetica,sans-Serif" font-size="10.00" fill="#000000">Uptane::BaseMeta</text>
</a>
</g>
</g>
<!-- Node7&#45;&gt;Node6 -->
<g id="edge5" class="edge">
<title>Node7&#45;&gt;Node6</title>
<path fill="none" stroke="#191970" d="M633.6338,-150.5989C667.9225,-143.911 711.75,-134.4184 750,-123.1852 768.7461,-117.6798 789.447,-109.8394 804.7351,-103.6986"/>
<polygon fill="#191970" stroke="#191970" points="632.9315,-147.1698 623.7731,-152.4965 634.2543,-154.0436 632.9315,-147.1698"/>
</g>
<!-- Node8 -->
<g id="node7" class="node">
<title>Node8</title>
<g id="a_node7"><a xlink:href="class_time_stamp.html" target="_top" xlink:title="TimeStamp">
<polygon fill="#ffffff" stroke="#000000" points="329,-151.6852 329,-170.6852 396,-170.6852 396,-151.6852 329,-151.6852"/>
<text text-anchor="middle" x="362.5" y="-158.6852" font-family="Helvetica,sans-Serif" font-size="10.00" fill="#000000">TimeStamp</text>
</a>
</g>
</g>
<!-- Node8&#45;&gt;Node7 -->
<g id="edge6" class="edge">
<title>Node8&#45;&gt;Node7</title>
<path fill="none" stroke="#9a32cd" stroke-dasharray="5,2" d="M406.3743,-161.1852C441.0143,-161.1852 489.3335,-161.1852 525.2863,-161.1852"/>
<polygon fill="#9a32cd" stroke="#9a32cd" points="406.0921,-157.6853 396.092,-161.1852 406.092,-164.6853 406.0921,-157.6853"/>
<text text-anchor="middle" x="472.5" y="-164.1852" font-family="Helvetica,sans-Serif" font-size="10.00" fill="#000000"> expiry_</text>
</g>
<!-- Node9 -->
<g id="node8" class="node">
<title>Node9</title>
<polygon fill="#ffffff" stroke="#bfbfbf" points="508,-102.1852 508,-132.1852 641,-132.1852 641,-102.1852 508,-102.1852"/>
<text text-anchor="start" x="516" y="-120.1852" font-family="Helvetica,sans-Serif" font-size="10.00" fill="#000000">std::set&lt; std::pair</text>
<text text-anchor="middle" x="574.5" y="-109.1852" font-family="Helvetica,sans-Serif" font-size="10.00" fill="#000000">&lt; Uptane::Role, KeyId &gt; &gt;</text>
</g>
<!-- Node9&#45;&gt;Node6 -->
<g id="edge7" class="edge">
<title>Node9&#45;&gt;Node6</title>
<path fill="none" stroke="#9a32cd" stroke-dasharray="5,2" d="M651.6258,-110.1737C688.9081,-106.7844 732.9772,-102.7782 767.6753,-99.6238"/>
<polygon fill="#9a32cd" stroke="#9a32cd" points="650.9457,-106.721 641.3037,-111.1121 651.5796,-113.6923 650.9457,-106.721"/>
<text text-anchor="middle" x="704.5" y="-111.1852" font-family="Helvetica,sans-Serif" font-size="10.00" fill="#000000"> keys_for_role_</text>
</g>
<!-- Node10 -->
<g id="node9" class="node">
<title>Node10</title>
<polygon fill="#ffffff" stroke="#bfbfbf" points="288,-63.6852 288,-82.6852 437,-82.6852 437,-63.6852 288,-63.6852"/>
<text text-anchor="middle" x="362.5" y="-70.6852" font-family="Helvetica,sans-Serif" font-size="10.00" fill="#000000">std::map&lt; KeyId, PublicKey &gt;</text>
</g>
<!-- Node10&#45;&gt;Node6 -->
<g id="edge8" class="edge">
<title>Node10&#45;&gt;Node6</title>
<path fill="none" stroke="#9a32cd" stroke-dasharray="5,2" d="M447.3752,-75.2245C502.5596,-76.7241 576.0654,-79.0477 641,-82.1852 683.454,-84.2364 731.2951,-87.3306 767.8932,-89.8632"/>
<polygon fill="#9a32cd" stroke="#9a32cd" points="447.3808,-71.7235 437.2905,-74.9541 447.1931,-78.721 447.3808,-71.7235"/>
<text text-anchor="middle" x="574.5" y="-85.1852" font-family="Helvetica,sans-Serif" font-size="10.00" fill="#000000"> keys_</text>
</g>
<!-- Node11 -->
<g id="node10" class="node">
<title>Node11</title>
<g id="a_node10"><a xlink:href="class_public_key.html" target="_top" xlink:title="PublicKey">
<polygon fill="#ffffff" stroke="#000000" points="132,-97.6852 132,-116.6852 193,-116.6852 193,-97.6852 132,-97.6852"/>
<text text-anchor="middle" x="162.5" y="-104.6852" font-family="Helvetica,sans-Serif" font-size="10.00" fill="#000000">PublicKey</text>
</a>
</g>
</g>
<!-- Node11&#45;&gt;Node10 -->
<g id="edge9" class="edge">
<title>Node11&#45;&gt;Node10</title>
<path fill="none" stroke="#9a32cd" stroke-dasharray="5,2" d="M203.3252,-100.2449C233.0019,-95.1998 273.5379,-88.3087 306.2753,-82.7434"/>
<polygon fill="#9a32cd" stroke="#9a32cd" points="202.5836,-96.8206 193.3117,-101.9472 203.7569,-103.7216 202.5836,-96.8206"/>
<text text-anchor="middle" x="240.5" y="-100.1852" font-family="Helvetica,sans-Serif" font-size="10.00" fill="#000000"> elements</text>
</g>
<!-- Node12 -->
<g id="node11" class="node">
<title>Node12</title>
<g id="a_node11"><a xlink:title="STL class. ">
<polygon fill="#ffffff" stroke="#bfbfbf" points="132.5,-28.6852 132.5,-47.6852 192.5,-47.6852 192.5,-28.6852 132.5,-28.6852"/>
<text text-anchor="middle" x="162.5" y="-35.6852" font-family="Helvetica,sans-Serif" font-size="10.00" fill="#000000">std::string</text>
</a>
</g>
</g>
<!-- Node12&#45;&gt;Node10 -->
<g id="edge10" class="edge">
<title>Node12&#45;&gt;Node10</title>
<path fill="none" stroke="#9a32cd" stroke-dasharray="5,2" d="M202.4255,-49.2839C205.3182,-49.9658 208.1984,-50.6084 211,-51.1852 235.8605,-56.3035 263.2561,-60.6647 287.8357,-64.1214"/>
<polygon fill="#9a32cd" stroke="#9a32cd" points="203.188,-45.867 192.639,-46.852 201.4998,-52.6604 203.188,-45.867"/>
<text text-anchor="middle" x="240.5" y="-65.1852" font-family="Helvetica,sans-Serif" font-size="10.00" fill="#000000"> keys</text>
</g>
<!-- Node15 -->
<g id="node14" class="node">
<title>Node15</title>
<g id="a_node14"><a xlink:href="class_uptane_1_1_role.html" target="_top" xlink:title="TUF Roles. ">
<polygon fill="#ffffff" stroke="#000000" points="325.5,-3.6852 325.5,-22.6852 399.5,-22.6852 399.5,-3.6852 325.5,-3.6852"/>
<text text-anchor="middle" x="362.5" y="-10.6852" font-family="Helvetica,sans-Serif" font-size="10.00" fill="#000000">Uptane::Role</text>
</a>
</g>
</g>
<!-- Node12&#45;&gt;Node15 -->
<g id="edge14" class="edge">
<title>Node12&#45;&gt;Node15</title>
<path fill="none" stroke="#9a32cd" stroke-dasharray="5,2" d="M181.5722,-22.4207C190.0402,-16.4089 200.4639,-10.2647 211,-7.1852 248.7721,3.855 294.0948,-.0456 325.2675,-5.2018"/>
<polygon fill="#9a32cd" stroke="#9a32cd" points="179.3954,-19.6788 173.5329,-28.5039 183.6192,-25.2609 179.3954,-19.6788"/>
<text text-anchor="middle" x="240.5" y="-43.1852" font-family="Helvetica,sans-Serif" font-size="10.00" fill="#000000"> ROOT</text>
<text text-anchor="middle" x="240.5" y="-32.1852" font-family="Helvetica,sans-Serif" font-size="10.00" fill="#000000">TIMESTAMP</text>
<text text-anchor="middle" x="240.5" y="-21.1852" font-family="Helvetica,sans-Serif" font-size="10.00" fill="#000000">SNAPSHOT</text>
<text text-anchor="middle" x="240.5" y="-10.1852" font-family="Helvetica,sans-Serif" font-size="10.00" fill="#000000">TARGETS</text>
</g>
<!-- Node13 -->
<g id="node12" class="node">
<title>Node13</title>
<g id="a_node12"><a xlink:title="STL class. ">
<polygon fill="#ffffff" stroke="#bfbfbf" points="0,-23.1852 0,-53.1852 95,-53.1852 95,-23.1852 0,-23.1852"/>
<text text-anchor="start" x="8" y="-41.1852" font-family="Helvetica,sans-Serif" font-size="10.00" fill="#000000">std::basic_string&lt;</text>
<text text-anchor="middle" x="47.5" y="-30.1852" font-family="Helvetica,sans-Serif" font-size="10.00" fill="#000000"> char &gt;</text>
</a>
</g>
</g>
<!-- Node13&#45;&gt;Node12 -->
<g id="edge11" class="edge">
<title>Node13&#45;&gt;Node12</title>
<path fill="none" stroke="#191970" d="M105.3918,-38.1852C114.7569,-38.1852 124.1081,-38.1852 132.4517,-38.1852"/>
<polygon fill="#191970" stroke="#191970" points="105.2713,-34.6853 95.2713,-38.1852 105.2713,-41.6853 105.2713,-34.6853"/>
</g>
<!-- Node14 -->
<g id="node13" class="node">
<title>Node14</title>
<polygon fill="#ffffff" stroke="#bfbfbf" points="512,-4.1852 512,-34.1852 637,-34.1852 637,-4.1852 512,-4.1852"/>
<text text-anchor="start" x="520" y="-22.1852" font-family="Helvetica,sans-Serif" font-size="10.00" fill="#000000">std::map&lt; Uptane::Role,</text>
<text text-anchor="middle" x="574.5" y="-11.1852" font-family="Helvetica,sans-Serif" font-size="10.00" fill="#000000"> int64_t &gt;</text>
</g>
<!-- Node14&#45;&gt;Node6 -->
<g id="edge12" class="edge">
<title>Node14&#45;&gt;Node6</title>
<path fill="none" stroke="#9a32cd" stroke-dasharray="5,2" d="M647.5297,-24.4611C679.6816,-28.3922 717.4594,-35.2449 750,-47.1852 774.8181,-56.2918 800.4389,-73.6872 815.1206,-84.5704"/>
<polygon fill="#9a32cd" stroke="#9a32cd" points="647.6367,-20.9504 637.3022,-23.2847 646.8367,-27.9046 647.6367,-20.9504"/>
<text text-anchor="middle" x="704.5" y="-50.1852" font-family="Helvetica,sans-Serif" font-size="10.00" fill="#000000"> thresholds_for_role_</text>
</g>
<!-- Node15&#45;&gt;Node14 -->
<g id="edge13" class="edge">
<title>Node15&#45;&gt;Node14</title>
<path fill="none" stroke="#9a32cd" stroke-dasharray="5,2" d="M410.1215,-14.5329C440.1231,-15.3821 479.1921,-16.4878 511.7132,-17.4082"/>
<polygon fill="#9a32cd" stroke="#9a32cd" points="410.0084,-11.0284 399.9133,-14.244 409.8103,-18.0256 410.0084,-11.0284"/>
<text text-anchor="middle" x="472.5" y="-20.1852" font-family="Helvetica,sans-Serif" font-size="10.00" fill="#000000"> keys</text>
</g>
</g>
</svg>
