<?xml version="1.0" encoding="UTF-8" standalone="no"?>
<!DOCTYPE svg PUBLIC "-//W3C//DTD SVG 1.1//EN"
 "http://www.w3.org/Graphics/SVG/1.1/DTD/svg11.dtd">
<!-- Generated by graphviz version 2.40.1 (20161225.0304)
 -->
<!-- Title: Primary::ManagedSecondary Pages: 1 -->
<svg width="369pt" height="274pt"
 viewBox="0.00 0.00 368.50 274.00" xmlns="http://www.w3.org/2000/svg" xmlns:xlink="http://www.w3.org/1999/xlink">
<g id="graph0" class="graph" transform="scale(1 1) rotate(0) translate(4 270)">
<title>Primary::ManagedSecondary</title>
<polygon fill="#ffffff" stroke="transparent" points="-4,4 -4,-270 364.5,-270 364.5,4 -4,4"/>
<!-- Node3 -->
<g id="node1" class="node">
<title>Node3</title>
<polygon fill="#bfbfbf" stroke="#000000" points="14,-.5 14,-19.5 157,-19.5 157,-.5 14,-.5"/>
<text text-anchor="middle" x="85.5" y="-7.5" font-family="Helvetica,sans-Serif" font-size="10.00" fill="#000000">Primary::ManagedSecondary</text>
</g>
<!-- Node4 -->
<g id="node2" class="node">
<title>Node4</title>
<g id="a_node2"><a xlink:href="class_uptane_1_1_secondary_interface.html" target="_top" xlink:title="Uptane::SecondaryInterface">
<polygon fill="#ffffff" stroke="#000000" points="0,-73 0,-92 139,-92 139,-73 0,-73"/>
<text text-anchor="middle" x="69.5" y="-80" font-family="Helvetica,sans-Serif" font-size="10.00" fill="#000000">Uptane::SecondaryInterface</text>
</a>
</g>
</g>
<!-- Node4&#45;&gt;Node3 -->
<g id="edge1" class="edge">
<title>Node4&#45;&gt;Node3</title>
<path fill="none" stroke="#191970" d="M73.8905,-62.6054C76.9762,-48.6237 80.9682,-30.5346 83.3764,-19.6228"/>
<polygon fill="#191970" stroke="#191970" points="70.3952,-62.203 71.6578,-72.7223 77.2307,-63.7116 70.3952,-62.203"/>
</g>
<!-- Node5 -->
<g id="node3" class="node">
<title>Node5</title>
<g id="a_node3"><a xlink:href="class_primary_1_1_managed_secondary_config.html" target="_top" xlink:title="Primary::ManagedSecondary\lConfig">
<polygon fill="#ffffff" stroke="#000000" points="157,-67.5 157,-97.5 300,-97.5 300,-67.5 157,-67.5"/>
<text text-anchor="start" x="165" y="-85.5" font-family="Helvetica,sans-Serif" font-size="10.00" fill="#000000">Primary::ManagedSecondary</text>
<text text-anchor="middle" x="228.5" y="-74.5" font-family="Helvetica,sans-Serif" font-size="10.00" fill="#000000">Config</text>
</a>
</g>
</g>
<!-- Node5&#45;&gt;Node3 -->
<g id="edge2" class="edge">
<title>Node5&#45;&gt;Node3</title>
<path fill="none" stroke="#9a32cd" stroke-dasharray="5,2" d="M189.8604,-62.91C162.2519,-48.9127 126.2898,-30.6802 104.5979,-19.6825"/>
<polygon fill="#9a32cd" stroke="#9a32cd" points="188.3684,-66.0777 198.8703,-67.478 191.5338,-59.8342 188.3684,-66.0777"/>
<text text-anchor="middle" x="179" y="-41" font-family="Helvetica,sans-Serif" font-size="10.00" fill="#000000"> sconfig</text>
</g>
<!-- Node6 -->
<g id="node4" class="node">
<title>Node6</title>
<g id="a_node4"><a xlink:href="class_primary_1_1_secondary_config.html" target="_top" xlink:title="Primary::SecondaryConfig">
<polygon fill="#ffffff" stroke="#000000" points="127,-178.5 127,-197.5 258,-197.5 258,-178.5 127,-178.5"/>
<text text-anchor="middle" x="192.5" y="-185.5" font-family="Helvetica,sans-Serif" font-size="10.00" fill="#000000">Primary::SecondaryConfig</text>
</a>
</g>
</g>
<!-- Node6&#45;&gt;Node5 -->
<g id="edge3" class="edge">
<title>Node6&#45;&gt;Node5</title>
<path fill="none" stroke="#191970" d="M199.0744,-168.7333C206.0613,-148.258 216.9633,-116.309 223.3516,-97.5875"/>
<polygon fill="#191970" stroke="#191970" points="195.7394,-167.6694 195.8223,-178.2639 202.3643,-169.9301 195.7394,-167.6694"/>
</g>
<!-- Node7 -->
<g id="node5" class="node">
<title>Node7</title>
<g id="a_node5"><a xlink:title="STL class. ">
<polygon fill="#ffffff" stroke="#bfbfbf" points="276.5,-178.5 276.5,-197.5 336.5,-197.5 336.5,-178.5 276.5,-178.5"/>
<text text-anchor="middle" x="306.5" y="-185.5" font-family="Helvetica,sans-Serif" font-size="10.00" fill="#000000">std::string</text>
</a>
</g>
</g>
<!-- Node7&#45;&gt;Node5 -->
<g id="edge4" class="edge">
<title>Node7&#45;&gt;Node5</title>
<path fill="none" stroke="#9a32cd" stroke-dasharray="5,2" d="M293.2835,-170.1238C278.206,-149.7305 253.8137,-116.7384 239.6548,-97.5875"/>
<polygon fill="#9a32cd" stroke="#9a32cd" points="290.5424,-172.3037 299.3018,-178.2639 296.1711,-168.1422 290.5424,-172.3037"/>
<text text-anchor="middle" x="323" y="-152" font-family="Helvetica,sans-Serif" font-size="10.00" fill="#000000"> ecu_private_key</text>
<text text-anchor="middle" x="323" y="-141" font-family="Helvetica,sans-Serif" font-size="10.00" fill="#000000">ecu_hardware_id</text>
<text text-anchor="middle" x="323" y="-130" font-family="Helvetica,sans-Serif" font-size="10.00" fill="#000000">ecu_serial</text>
<text text-anchor="middle" x="323" y="-119" font-family="Helvetica,sans-Serif" font-size="10.00" fill="#000000">ecu_public_key</text>
</g>
<!-- Node8 -->
<g id="node6" class="node">
<title>Node8</title>
<g id="a_node6"><a xlink:title="STL class. ">
<polygon fill="#ffffff" stroke="#bfbfbf" points="259,-235.5 259,-265.5 354,-265.5 354,-235.5 259,-235.5"/>
<text text-anchor="start" x="267" y="-253.5" font-family="Helvetica,sans-Serif" font-size="10.00" fill="#000000">std::basic_string&lt;</text>
<text text-anchor="middle" x="306.5" y="-242.5" font-family="Helvetica,sans-Serif" font-size="10.00" fill="#000000"> char &gt;</text>
</a>
</g>
</g>
<!-- Node8&#45;&gt;Node7 -->
<g id="edge5" class="edge">
<title>Node8&#45;&gt;Node7</title>
<path fill="none" stroke="#191970" d="M306.5,-225.3498C306.5,-215.6481 306.5,-205.1303 306.5,-197.7356"/>
<polygon fill="#191970" stroke="#191970" points="303.0001,-225.3705 306.5,-235.3705 310.0001,-225.3705 303.0001,-225.3705"/>
</g>
</g>
</svg>
