<?xml version="1.0" encoding="UTF-8" standalone="no"?>
<!DOCTYPE svg PUBLIC "-//W3C//DTD SVG 1.1//EN"
 "http://www.w3.org/Graphics/SVG/1.1/DTD/svg11.dtd">
<!-- Generated by graphviz version 2.40.1 (20161225.0304)
 -->
<!-- Title: result::Install::EcuReport Pages: 1 -->
<svg width="340pt" height="297pt"
 viewBox="0.00 0.00 340.00 297.00" xmlns="http://www.w3.org/2000/svg" xmlns:xlink="http://www.w3.org/1999/xlink">
<g id="graph0" class="graph" transform="scale(1 1) rotate(0) translate(4 293)">
<title>result::Install::EcuReport</title>
<polygon fill="#ffffff" stroke="transparent" points="-4,4 -4,-293 336,-293 336,4 -4,4"/>
<!-- Node1 -->
<g id="node1" class="node">
<title>Node1</title>
<polygon fill="#bfbfbf" stroke="#000000" points="96.5,-.5 96.5,-19.5 221.5,-19.5 221.5,-.5 96.5,-.5"/>
<text text-anchor="middle" x="159" y="-7.5" font-family="Helvetica,sans-Serif" font-size="10.00" fill="#000000">result::Install::EcuReport</text>
</g>
<!-- Node2 -->
<g id="node2" class="node">
<title>Node2</title>
<g id="a_node2"><a xlink:href="class_uptane_1_1_target.html" target="_top" xlink:title="Uptane::Target">
<polygon fill="#ffffff" stroke="#000000" points="0,-67.5 0,-86.5 82,-86.5 82,-67.5 0,-67.5"/>
<text text-anchor="middle" x="41" y="-74.5" font-family="Helvetica,sans-Serif" font-size="10.00" fill="#000000">Uptane::Target</text>
</a>
</g>
</g>
<!-- Node2&#45;&gt;Node1 -->
<g id="edge1" class="edge">
<title>Node2&#45;&gt;Node1</title>
<path fill="none" stroke="#9a32cd" stroke-dasharray="5,2" d="M66.7405,-62.3846C89.6247,-49.391 122.4233,-30.7681 142.1248,-19.5817"/>
<polygon fill="#9a32cd" stroke="#9a32cd" points="64.8744,-59.4193 57.9065,-67.4005 68.3307,-65.5065 64.8744,-59.4193"/>
<text text-anchor="middle" x="124.5" y="-41" font-family="Helvetica,sans-Serif" font-size="10.00" fill="#000000"> update</text>
</g>
<!-- Node3 -->
<g id="node3" class="node">
<title>Node3</title>
<g id="a_node3"><a xlink:href="structdata_1_1_installation_result.html" target="_top" xlink:title="data::InstallationResult">
<polygon fill="#ffffff" stroke="#000000" points="100.5,-67.5 100.5,-86.5 217.5,-86.5 217.5,-67.5 100.5,-67.5"/>
<text text-anchor="middle" x="159" y="-74.5" font-family="Helvetica,sans-Serif" font-size="10.00" fill="#000000">data::InstallationResult</text>
</a>
</g>
</g>
<!-- Node3&#45;&gt;Node1 -->
<g id="edge2" class="edge">
<title>Node3&#45;&gt;Node1</title>
<path fill="none" stroke="#9a32cd" stroke-dasharray="5,2" d="M159,-57.1079C159,-44.714 159,-29.3263 159,-19.5817"/>
<polygon fill="#9a32cd" stroke="#9a32cd" points="155.5001,-57.4005 159,-67.4005 162.5001,-57.4006 155.5001,-57.4005"/>
<text text-anchor="middle" x="183" y="-41" font-family="Helvetica,sans-Serif" font-size="10.00" fill="#000000"> install_res</text>
</g>
<!-- Node4 -->
<g id="node4" class="node">
<title>Node4</title>
<g id="a_node4"><a xlink:href="structdata_1_1_result_code.html" target="_top" xlink:title="data::ResultCode">
<polygon fill="#ffffff" stroke="#000000" points="191.5,-134.5 191.5,-153.5 284.5,-153.5 284.5,-134.5 191.5,-134.5"/>
<text text-anchor="middle" x="238" y="-141.5" font-family="Helvetica,sans-Serif" font-size="10.00" fill="#000000">data::ResultCode</text>
</a>
</g>
</g>
<!-- Node4&#45;&gt;Node3 -->
<g id="edge3" class="edge">
<title>Node4&#45;&gt;Node3</title>
<path fill="none" stroke="#9a32cd" stroke-dasharray="5,2" d="M218.8976,-127.7992C203.7035,-114.9131 182.9602,-97.3207 170.2978,-86.5817"/>
<polygon fill="#9a32cd" stroke="#9a32cd" points="216.7908,-130.6017 226.6812,-134.4005 221.3185,-125.2631 216.7908,-130.6017"/>
<text text-anchor="middle" x="230" y="-108" font-family="Helvetica,sans-Serif" font-size="10.00" fill="#000000"> result_code</text>
</g>
<!-- Node5 -->
<g id="node5" class="node">
<title>Node5</title>
<g id="a_node5"><a xlink:title="STL class. ">
<polygon fill="#ffffff" stroke="#bfbfbf" points="108,-201.5 108,-220.5 168,-220.5 168,-201.5 108,-201.5"/>
<text text-anchor="middle" x="138" y="-208.5" font-family="Helvetica,sans-Serif" font-size="10.00" fill="#000000">std::string</text>
</a>
</g>
</g>
<!-- Node5&#45;&gt;Node3 -->
<g id="edge6" class="edge">
<title>Node5&#45;&gt;Node3</title>
<path fill="none" stroke="#9a32cd" stroke-dasharray="5,2" d="M133.2776,-191.2926C130.2766,-175.5973 127.6918,-153.1589 132,-134 135.9878,-116.266 146.1566,-97.5639 152.8137,-86.6059"/>
<polygon fill="#9a32cd" stroke="#9a32cd" points="129.9233,-192.3432 135.4438,-201.3862 136.7675,-190.8743 129.9233,-192.3432"/>
<text text-anchor="middle" x="157.5" y="-141.5" font-family="Helvetica,sans-Serif" font-size="10.00" fill="#000000"> description</text>
</g>
<!-- Node5&#45;&gt;Node4 -->
<g id="edge4" class="edge">
<title>Node5&#45;&gt;Node4</title>
<path fill="none" stroke="#9a32cd" stroke-dasharray="5,2" d="M160.8562,-195.6864C180.1922,-182.7312 207.2996,-164.5693 223.699,-153.5817"/>
<polygon fill="#9a32cd" stroke="#9a32cd" points="158.6871,-192.9266 152.3276,-201.4005 162.5834,-198.742 158.6871,-192.9266"/>
<text text-anchor="middle" x="216" y="-175" font-family="Helvetica,sans-Serif" font-size="10.00" fill="#000000"> text_code</text>
</g>
<!-- Node6 -->
<g id="node6" class="node">
<title>Node6</title>
<g id="a_node6"><a xlink:title="STL class. ">
<polygon fill="#ffffff" stroke="#bfbfbf" points="90.5,-258.5 90.5,-288.5 185.5,-288.5 185.5,-258.5 90.5,-258.5"/>
<text text-anchor="start" x="98.5" y="-276.5" font-family="Helvetica,sans-Serif" font-size="10.00" fill="#000000">std::basic_string&lt;</text>
<text text-anchor="middle" x="138" y="-265.5" font-family="Helvetica,sans-Serif" font-size="10.00" fill="#000000"> char &gt;</text>
</a>
</g>
</g>
<!-- Node6&#45;&gt;Node5 -->
<g id="edge5" class="edge">
<title>Node6&#45;&gt;Node5</title>
<path fill="none" stroke="#191970" d="M138,-248.3498C138,-238.6481 138,-228.1303 138,-220.7356"/>
<polygon fill="#191970" stroke="#191970" points="134.5001,-248.3705 138,-258.3705 141.5001,-248.3705 134.5001,-248.3705"/>
</g>
<!-- Node7 -->
<g id="node7" class="node">
<title>Node7</title>
<g id="a_node7"><a xlink:href="class_uptane_1_1_ecu_serial.html" target="_top" xlink:title="Uptane::EcuSerial">
<polygon fill="#ffffff" stroke="#000000" points="236,-67.5 236,-86.5 332,-86.5 332,-67.5 236,-67.5"/>
<text text-anchor="middle" x="284" y="-74.5" font-family="Helvetica,sans-Serif" font-size="10.00" fill="#000000">Uptane::EcuSerial</text>
</a>
</g>
</g>
<!-- Node7&#45;&gt;Node1 -->
<g id="edge7" class="edge">
<title>Node7&#45;&gt;Node1</title>
<path fill="none" stroke="#9a32cd" stroke-dasharray="5,2" d="M257.0551,-62.5575C232.7998,-49.5567 197.8393,-30.8179 176.8762,-19.5817"/>
<polygon fill="#9a32cd" stroke="#9a32cd" points="255.6233,-65.7611 266.0905,-67.4005 258.9303,-59.5915 255.6233,-65.7611"/>
<text text-anchor="middle" x="241.5" y="-41" font-family="Helvetica,sans-Serif" font-size="10.00" fill="#000000"> serial</text>
</g>
</g>
</svg>
