<?xml version="1.0" encoding="UTF-8" standalone="no"?>
<!DOCTYPE svg PUBLIC "-//W3C//DTD SVG 1.1//EN"
 "http://www.w3.org/Graphics/SVG/1.1/DTD/svg11.dtd">
<!-- Generated by graphviz version 2.40.1 (20161225.0304)
 -->
<!-- Title: Primary::ManagedSecondaryConfig Pages: 1 -->
<svg width="290pt" height="162pt"
 viewBox="0.00 0.00 290.00 162.00" xmlns="http://www.w3.org/2000/svg" xmlns:xlink="http://www.w3.org/1999/xlink">
<g id="graph0" class="graph" transform="scale(1 1) rotate(0) translate(4 158)">
<title>Primary::ManagedSecondaryConfig</title>
<polygon fill="#ffffff" stroke="transparent" points="-4,4 -4,-158 286,-158 286,4 -4,4"/>
<!-- Node0 -->
<g id="node1" class="node">
<title>Node0</title>
<polygon fill="#bfbfbf" stroke="#000000" points="70,-67.5 70,-97.5 213,-97.5 213,-67.5 70,-67.5"/>
<text text-anchor="start" x="78" y="-85.5" font-family="Helvetica,sans-Serif" font-size="10.00" fill="#000000">Primary::ManagedSecondary</text>
<text text-anchor="middle" x="141.5" y="-74.5" font-family="Helvetica,sans-Serif" font-size="10.00" fill="#000000">Config</text>
</g>
<!-- Node2 -->
<g id="node3" class="node">
<title>Node2</title>
<g id="a_node3"><a xlink:href="class_primary_1_1_partial_verification_secondary_config.html" target="_top" xlink:title="Primary::PartialVerification\lSecondaryConfig">
<polygon fill="#ffffff" stroke="#000000" points="0,-.5 0,-30.5 133,-30.5 133,-.5 0,-.5"/>
<text text-anchor="start" x="8" y="-18.5" font-family="Helvetica,sans-Serif" font-size="10.00" fill="#000000">Primary::PartialVerification</text>
<text text-anchor="middle" x="66.5" y="-7.5" font-family="Helvetica,sans-Serif" font-size="10.00" fill="#000000">SecondaryConfig</text>
</a>
</g>
</g>
<!-- Node0&#45;&gt;Node2 -->
<g id="edge2" class="edge">
<title>Node0&#45;&gt;Node2</title>
<path fill="none" stroke="#191970" d="M116.8692,-60.4965C105.9246,-50.7193 93.3157,-39.4554 83.4513,-30.6432"/>
<polygon fill="#191970" stroke="#191970" points="114.6919,-63.2447 124.4813,-67.2967 119.3555,-58.0243 114.6919,-63.2447"/>
</g>
<!-- Node3 -->
<g id="node4" class="node">
<title>Node3</title>
<g id="a_node4"><a xlink:href="class_primary_1_1_virtual_secondary_config.html" target="_top" xlink:title="Primary::VirtualSecondary\lConfig">
<polygon fill="#ffffff" stroke="#000000" points="151,-.5 151,-30.5 282,-30.5 282,-.5 151,-.5"/>
<text text-anchor="start" x="159" y="-18.5" font-family="Helvetica,sans-Serif" font-size="10.00" fill="#000000">Primary::VirtualSecondary</text>
<text text-anchor="middle" x="216.5" y="-7.5" font-family="Helvetica,sans-Serif" font-size="10.00" fill="#000000">Config</text>
</a>
</g>
</g>
<!-- Node0&#45;&gt;Node3 -->
<g id="edge3" class="edge">
<title>Node0&#45;&gt;Node3</title>
<path fill="none" stroke="#191970" d="M166.1308,-60.4965C177.0754,-50.7193 189.6843,-39.4554 199.5487,-30.6432"/>
<polygon fill="#191970" stroke="#191970" points="163.6445,-58.0243 158.5187,-67.2967 168.3081,-63.2447 163.6445,-58.0243"/>
</g>
<!-- Node1 -->
<g id="node2" class="node">
<title>Node1</title>
<g id="a_node2"><a xlink:href="class_primary_1_1_secondary_config.html" target="_top" xlink:title="Primary::SecondaryConfig">
<polygon fill="#ffffff" stroke="#000000" points="76,-134.5 76,-153.5 207,-153.5 207,-134.5 76,-134.5"/>
<text text-anchor="middle" x="141.5" y="-141.5" font-family="Helvetica,sans-Serif" font-size="10.00" fill="#000000">Primary::SecondaryConfig</text>
</a>
</g>
</g>
<!-- Node1&#45;&gt;Node0 -->
<g id="edge1" class="edge">
<title>Node1&#45;&gt;Node0</title>
<path fill="none" stroke="#191970" d="M141.5,-124.3693C141.5,-115.681 141.5,-105.6241 141.5,-97.5446"/>
<polygon fill="#191970" stroke="#191970" points="138.0001,-124.3906 141.5,-134.3906 145.0001,-124.3907 138.0001,-124.3906"/>
</g>
</g>
</svg>
