<?xml version="1.0" encoding="UTF-8" standalone="no"?>
<!DOCTYPE svg PUBLIC "-//W3C//DTD SVG 1.1//EN"
 "http://www.w3.org/Graphics/SVG/1.1/DTD/svg11.dtd">
<!-- Generated by graphviz version 2.40.1 (20161225.0304)
 -->
<!-- Title: src/libaktualizr Pages: 1 -->
<!--zoomable 255 -->
<svg id="main" version="1.1" xmlns="http://www.w3.org/2000/svg" xmlns:xlink="http://www.w3.org/1999/xlink" xml:space="preserve" onload="init(evt)">
<style type="text/css"><![CDATA[
.edge:hover path { stroke: red; }
.edge:hover polygon { stroke: red; fill: red; }
]]></style>
<script type="text/javascript"><![CDATA[
var edges = document.getElementsByTagName('g');
if (edges && edges.length) {
  for (var i=0;i<edges.length;i++) {
    if (edges[i].id.substr(0,4)=='edge') {
      edges[i].setAttribute('class','edge');
    }
  }
}
]]></script>
        <defs>
                <circle id="rim" cx="0" cy="0" r="7"/>
                <circle id="rim2" cx="0" cy="0" r="3.5"/>
                <g id="zoomPlus">
                        <use xlink:href="#rim" fill="#404040">
                                <set attributeName="fill" to="#808080" begin="zoomplus.mouseover" end="zoomplus.mouseout"/>
                        </use>
                        <path d="M-4,0h8M0,-4v8" fill="none" stroke="white" stroke-width="1.5" pointer-events="none"/>
                </g>
                <g id="zoomMin">
                        <use xlink:href="#rim" fill="#404040">
                                <set attributeName="fill" to="#808080" begin="zoomminus.mouseover" end="zoomminus.mouseout"/>
                        </use>
                        <path d="M-4,0h8" fill="none" stroke="white" stroke-width="1.5" pointer-events="none"/>
                </g>
                <g id="dirArrow">
                        <path fill="none" stroke="white" stroke-width="1.5" d="M0,-3.0v7 M-2.5,-0.5L0,-3.0L2.5,-0.5"/>
                </g>
               <g id="resetDef">
                       <use xlink:href="#rim2" fill="#404040">
                               <set attributeName="fill" to="#808080" begin="reset.mouseover" end="reset.mouseout"/>
                       </use>
               </g>
        </defs>

<script type="text/javascript">
var viewWidth = 689;
var viewHeight = 255;
var sectionId = 'dynsection-0';
</script>
<script xlink:href="svgpan.js"/>
<svg id="graph" class="graph">
<g id="viewport">
<title>src/libaktualizr</title>
<polygon fill="#ffffff" stroke="transparent" points="-4,4 -4,-251 685,-251 685,4 -4,4"/>
<g id="clust1" class="cluster">
<title>clusterdir_68267d1309a1af8e8297ef4c3efbcdba</title>
<g id="a_clust1"><a xlink:href="dir_68267d1309a1af8e8297ef4c3efbcdba.html" target="_top" xlink:title="src">
<polygon fill="#ddddee" stroke="#000000" points="8,-8 8,-239 673,-239 673,-8 8,-8"/>
<text text-anchor="middle" x="340.5" y="-227" font-family="Helvetica,sans-Serif" font-size="10.00" fill="#000000">src</text>
</a>
</g>
</g>
<g id="clust2" class="cluster">
<title>clusterdir_25fe10002fe19a6f872ae0406361d164</title>
<g id="a_clust2"><a xlink:href="dir_25fe10002fe19a6f872ae0406361d164.html" target="_top">
<polygon fill="#eeeeff" stroke="#000000" points="16,-16 16,-212 665,-212 665,-16 16,-16"/>
</a>
</g>
</g>
<!-- dir_25fe10002fe19a6f872ae0406361d164 -->
<g id="node1" class="node">
<title>dir_25fe10002fe19a6f872ae0406361d164</title>
<text text-anchor="middle" x="625" y="-183.5" font-family="Helvetica,sans-Serif" font-size="10.00" fill="#000000">libaktualizr</text>
</g>
<!-- dir_3bbf2a60e3198d81ff0b6cec96712616 -->
<g id="node2" class="node">
<title>dir_3bbf2a60e3198d81ff0b6cec96712616</title>
<g id="a_node2"><a xlink:href="dir_3bbf2a60e3198d81ff0b6cec96712616.html" target="_top" xlink:title="bootloader">
<polygon fill="#ffffff" stroke="#000000" points="575,-204 513,-204 513,-168 575,-168 575,-204"/>
<text text-anchor="middle" x="544" y="-183.5" font-family="Helvetica,sans-Serif" font-size="10.00" fill="#000000">bootloader</text>
</a>
</g>
</g>
<!-- dir_fdb732a55413cc8dc0ae0a60dab491c8 -->
<g id="node3" class="node">
<title>dir_fdb732a55413cc8dc0ae0a60dab491c8</title>
<g id="a_node3"><a xlink:href="dir_fdb732a55413cc8dc0ae0a60dab491c8.html" target="_top" xlink:title="bootstrap">
<polygon fill="#ffffff" stroke="#000000" points="494.5,-204 437.5,-204 437.5,-168 494.5,-168 494.5,-204"/>
<text text-anchor="middle" x="466" y="-183.5" font-family="Helvetica,sans-Serif" font-size="10.00" fill="#000000">bootstrap</text>
</a>
</g>
</g>
<!-- dir_f0ba1877fd64ced1506d18266e138852 -->
<g id="node4" class="node">
<title>dir_f0ba1877fd64ced1506d18266e138852</title>
<g id="a_node4"><a xlink:href="dir_f0ba1877fd64ced1506d18266e138852.html" target="_top" xlink:title="config">
<polygon fill="#ffffff" stroke="#000000" points="500,-132 446,-132 446,-96 500,-96 500,-132"/>
<text text-anchor="middle" x="473" y="-111.5" font-family="Helvetica,sans-Serif" font-size="10.00" fill="#000000">config</text>
</a>
</g>
</g>
<!-- dir_21695240ac6697d59c3c2f5e3a3e7e03 -->
<g id="node15" class="node">
<title>dir_21695240ac6697d59c3c2f5e3a3e7e03</title>
<g id="a_node15"><a xlink:href="dir_21695240ac6697d59c3c2f5e3a3e7e03.html" target="_top" xlink:title="utilities">
<polygon fill="#ffffff" stroke="#000000" points="263,-60 209,-60 209,-24 263,-24 263,-60"/>
<text text-anchor="middle" x="236" y="-39.5" font-family="Helvetica,sans-Serif" font-size="10.00" fill="#000000">utilities</text>
</a>
</g>
</g>
<!-- dir_f0ba1877fd64ced1506d18266e138852&#45;&gt;dir_21695240ac6697d59c3c2f5e3a3e7e03 -->
<g id="edge2" class="edge">
<title>dir_f0ba1877fd64ced1506d18266e138852&#45;&gt;dir_21695240ac6697d59c3c2f5e3a3e7e03</title>
<path fill="none" stroke="#000000" d="M445.7381,-99.6588C442.8238,-98.3402 439.8742,-97.0919 437,-96 381.2611,-74.8252 313.8646,-58.5117 272.9988,-49.5904"/>
<polygon fill="#000000" stroke="#000000" points="273.7165,-46.1648 263.204,-47.4831 272.2441,-53.0083 273.7165,-46.1648"/>
<g id="a_edge2&#45;headlabel"><a xlink:href="dir_000017_000026.html" target="_top" xlink:title="1">
<text text-anchor="middle" x="277.8278" y="-41.6451" font-family="Helvetica,sans-Serif" font-size="10.00" fill="#000000">1</text>
</a>
</g>
</g>
<!-- dir_ed4129733881d178d939d6d6430e282d -->
<g id="node5" class="node">
<title>dir_ed4129733881d178d939d6d6430e282d</title>
<g id="a_node5"><a xlink:href="dir_ed4129733881d178d939d6d6430e282d.html" target="_top" xlink:title="crypto">
<polygon fill="#ffffff" stroke="#000000" points="428,-132 374,-132 374,-96 428,-96 428,-132"/>
<text text-anchor="middle" x="401" y="-111.5" font-family="Helvetica,sans-Serif" font-size="10.00" fill="#000000">crypto</text>
</a>
</g>
</g>
<!-- dir_ed4129733881d178d939d6d6430e282d&#45;&gt;dir_21695240ac6697d59c3c2f5e3a3e7e03 -->
<g id="edge8" class="edge">
<title>dir_ed4129733881d178d939d6d6430e282d&#45;&gt;dir_21695240ac6697d59c3c2f5e3a3e7e03</title>
<path fill="none" stroke="#000000" d="M373.9674,-100.24C370.9557,-98.7798 367.9217,-97.3401 365,-96 334.1799,-81.8636 298.5948,-67.08 272.6162,-56.5625"/>
<polygon fill="#000000" stroke="#000000" points="273.7434,-53.2433 263.16,-52.7507 271.1263,-59.7357 273.7434,-53.2433"/>
<g id="a_edge8&#45;headlabel"><a xlink:href="dir_000018_000026.html" target="_top" xlink:title="3">
<text text-anchor="middle" x="278.1388" y="-49.4537" font-family="Helvetica,sans-Serif" font-size="10.00" fill="#000000">3</text>
</a>
</g>
</g>
<!-- dir_8c99f36ebfebd11057eb6fd485d463fb -->
<g id="node6" class="node">
<title>dir_8c99f36ebfebd11057eb6fd485d463fb</title>
<g id="a_node6"><a xlink:href="dir_8c99f36ebfebd11057eb6fd485d463fb.html" target="_top" xlink:title="http">
<polygon fill="#ffffff" stroke="#000000" points="356,-132 302,-132 302,-96 356,-96 356,-132"/>
<text text-anchor="middle" x="329" y="-111.5" font-family="Helvetica,sans-Serif" font-size="10.00" fill="#000000">http</text>
</a>
</g>
</g>
<!-- dir_8c99f36ebfebd11057eb6fd485d463fb&#45;&gt;dir_21695240ac6697d59c3c2f5e3a3e7e03 -->
<g id="edge7" class="edge">
<title>dir_8c99f36ebfebd11057eb6fd485d463fb&#45;&gt;dir_21695240ac6697d59c3c2f5e3a3e7e03</title>
<path fill="none" stroke="#000000" d="M305.5322,-95.8314C293.9673,-86.8779 279.8596,-75.9558 267.3817,-66.2955"/>
<polygon fill="#000000" stroke="#000000" points="269.5102,-63.5171 259.4603,-60.1628 265.225,-69.0521 269.5102,-63.5171"/>
<g id="a_edge7&#45;headlabel"><a xlink:href="dir_000019_000026.html" target="_top" xlink:title="2">
<text text-anchor="middle" x="274.0906" y="-60.9725" font-family="Helvetica,sans-Serif" font-size="10.00" fill="#000000">2</text>
</a>
</g>
</g>
<!-- dir_f9f2d1b88e0ecd707fcd5e180f73bfc9 -->
<g id="node7" class="node">
<title>dir_f9f2d1b88e0ecd707fcd5e180f73bfc9</title>
<g id="a_node7"><a xlink:href="dir_f9f2d1b88e0ecd707fcd5e180f73bfc9.html" target="_top" xlink:title="isotp_conn">
<polygon fill="#ffffff" stroke="#000000" points="419,-204 355,-204 355,-168 419,-168 419,-204"/>
<text text-anchor="middle" x="387" y="-183.5" font-family="Helvetica,sans-Serif" font-size="10.00" fill="#000000">isotp_conn</text>
</a>
</g>
</g>
<!-- dir_5cb196101d78eeefc53a27ffd5907672 -->
<g id="node8" class="node">
<title>dir_5cb196101d78eeefc53a27ffd5907672</title>
<g id="a_node8"><a xlink:href="dir_5cb196101d78eeefc53a27ffd5907672.html" target="_top" xlink:title="logging">
<polygon fill="#ffffff" stroke="#000000" points="337,-204 283,-204 283,-168 337,-168 337,-204"/>
<text text-anchor="middle" x="310" y="-183.5" font-family="Helvetica,sans-Serif" font-size="10.00" fill="#000000">logging</text>
</a>
</g>
</g>
<!-- dir_188ad9b20b5803d1e0842e8b7679686b -->
<g id="node9" class="node">
<title>dir_188ad9b20b5803d1e0842e8b7679686b</title>
<g id="a_node9"><a xlink:href="dir_188ad9b20b5803d1e0842e8b7679686b.html" target="_top" xlink:title="package_manager">
<polygon fill="#ffffff" stroke="#000000" points="284,-132 188,-132 188,-96 284,-96 284,-132"/>
<text text-anchor="middle" x="236" y="-111.5" font-family="Helvetica,sans-Serif" font-size="10.00" fill="#000000">package_manager</text>
</a>
</g>
</g>
<!-- dir_188ad9b20b5803d1e0842e8b7679686b&#45;&gt;dir_21695240ac6697d59c3c2f5e3a3e7e03 -->
<g id="edge5" class="edge">
<title>dir_188ad9b20b5803d1e0842e8b7679686b&#45;&gt;dir_21695240ac6697d59c3c2f5e3a3e7e03</title>
<path fill="none" stroke="#000000" d="M236,-95.8314C236,-88.131 236,-78.9743 236,-70.4166"/>
<polygon fill="#000000" stroke="#000000" points="239.5001,-70.4132 236,-60.4133 232.5001,-70.4133 239.5001,-70.4132"/>
<g id="a_edge5&#45;headlabel"><a xlink:href="dir_000022_000026.html" target="_top" xlink:title="3">
<text text-anchor="middle" x="242.3393" y="-71.5079" font-family="Helvetica,sans-Serif" font-size="10.00" fill="#000000">3</text>
</a>
</g>
</g>
<!-- dir_8bc6f38a0dcbed3d98be2fc5c9211590 -->
<g id="node10" class="node">
<title>dir_8bc6f38a0dcbed3d98be2fc5c9211590</title>
<g id="a_node10"><a xlink:href="dir_8bc6f38a0dcbed3d98be2fc5c9211590.html" target="_top" xlink:title="primary">
<polygon fill="#ffffff" stroke="#000000" points="78,-132 24,-132 24,-96 78,-96 78,-132"/>
<text text-anchor="middle" x="51" y="-111.5" font-family="Helvetica,sans-Serif" font-size="10.00" fill="#000000">primary</text>
</a>
</g>
</g>
<!-- dir_8bc6f38a0dcbed3d98be2fc5c9211590&#45;&gt;dir_21695240ac6697d59c3c2f5e3a3e7e03 -->
<g id="edge1" class="edge">
<title>dir_8bc6f38a0dcbed3d98be2fc5c9211590&#45;&gt;dir_21695240ac6697d59c3c2f5e3a3e7e03</title>
<path fill="none" stroke="#000000" d="M78.2583,-101.784C82.8283,-99.8076 87.5353,-97.8156 92,-96 128.0631,-81.3348 169.7598,-65.8573 198.9738,-55.2503"/>
<polygon fill="#000000" stroke="#000000" points="200.544,-58.4043 208.7568,-51.7109 198.1625,-51.8219 200.544,-58.4043"/>
<g id="a_edge1&#45;headlabel"><a xlink:href="dir_000010_000026.html" target="_top" xlink:title="2">
<text text-anchor="middle" x="198.1298" y="-59.7971" font-family="Helvetica,sans-Serif" font-size="10.00" fill="#000000">2</text>
</a>
</g>
</g>
<!-- dir_38063aa54f0538fd32ab0bbc35a1c31a -->
<g id="node11" class="node">
<title>dir_38063aa54f0538fd32ab0bbc35a1c31a</title>
<g id="a_node11"><a xlink:href="dir_38063aa54f0538fd32ab0bbc35a1c31a.html" target="_top" xlink:title="socket_activation">
<polygon fill="#ffffff" stroke="#000000" points="264.5,-204 171.5,-204 171.5,-168 264.5,-168 264.5,-204"/>
<text text-anchor="middle" x="218" y="-183.5" font-family="Helvetica,sans-Serif" font-size="10.00" fill="#000000">socket_activation</text>
</a>
</g>
</g>
<!-- dir_6222101bbb5850141d4035d76d1fca79 -->
<g id="node12" class="node">
<title>dir_6222101bbb5850141d4035d76d1fca79</title>
<g id="a_node12"><a xlink:href="dir_6222101bbb5850141d4035d76d1fca79.html" target="_top" xlink:title="storage">
<polygon fill="#ffffff" stroke="#000000" points="170,-132 116,-132 116,-96 170,-96 170,-132"/>
<text text-anchor="middle" x="143" y="-111.5" font-family="Helvetica,sans-Serif" font-size="10.00" fill="#000000">storage</text>
</a>
</g>
</g>
<!-- dir_6222101bbb5850141d4035d76d1fca79&#45;&gt;dir_21695240ac6697d59c3c2f5e3a3e7e03 -->
<g id="edge6" class="edge">
<title>dir_6222101bbb5850141d4035d76d1fca79&#45;&gt;dir_21695240ac6697d59c3c2f5e3a3e7e03</title>
<path fill="none" stroke="#000000" d="M166.4678,-95.8314C178.0327,-86.8779 192.1404,-75.9558 204.6183,-66.2955"/>
<polygon fill="#000000" stroke="#000000" points="206.775,-69.0521 212.5397,-60.1628 202.4898,-63.5171 206.775,-69.0521"/>
<g id="a_edge6&#45;headlabel"><a xlink:href="dir_000024_000026.html" target="_top" xlink:title="2">
<text text-anchor="middle" x="205.6708" y="-70.9977" font-family="Helvetica,sans-Serif" font-size="10.00" fill="#000000">2</text>
</a>
</g>
</g>
<!-- dir_99d301fce191cbab027d1141c58ff40d -->
<g id="node13" class="node">
<title>dir_99d301fce191cbab027d1141c58ff40d</title>
<g id="a_node13"><a xlink:href="dir_99d301fce191cbab027d1141c58ff40d.html" target="_top" xlink:title="telemetry">
<polygon fill="#ffffff" stroke="#000000" points="153.5,-204 96.5,-204 96.5,-168 153.5,-168 153.5,-204"/>
<text text-anchor="middle" x="125" y="-183.5" font-family="Helvetica,sans-Serif" font-size="10.00" fill="#000000">telemetry</text>
</a>
</g>
</g>
<!-- dir_01ad008a1a3fdffc18398ed2b9cdb1e4 -->
<g id="node14" class="node">
<title>dir_01ad008a1a3fdffc18398ed2b9cdb1e4</title>
<g id="a_node14"><a xlink:href="dir_01ad008a1a3fdffc18398ed2b9cdb1e4.html" target="_top" xlink:title="uptane">
<polygon fill="#ffffff" stroke="#000000" points="78,-204 24,-204 24,-168 78,-168 78,-204"/>
<text text-anchor="middle" x="51" y="-183.5" font-family="Helvetica,sans-Serif" font-size="10.00" fill="#000000">uptane</text>
</a>
</g>
</g>
<!-- dir_01ad008a1a3fdffc18398ed2b9cdb1e4&#45;&gt;dir_8bc6f38a0dcbed3d98be2fc5c9211590 -->
<g id="edge3" class="edge">
<title>dir_01ad008a1a3fdffc18398ed2b9cdb1e4&#45;&gt;dir_8bc6f38a0dcbed3d98be2fc5c9211590</title>
<path fill="none" stroke="#000000" d="M51,-167.8314C51,-160.131 51,-150.9743 51,-142.4166"/>
<polygon fill="#000000" stroke="#000000" points="54.5001,-142.4132 51,-132.4133 47.5001,-142.4133 54.5001,-142.4132"/>
<g id="a_edge3&#45;headlabel"><a xlink:href="dir_000011_000010.html" target="_top" xlink:title="1">
<text text-anchor="middle" x="57.3393" y="-143.5079" font-family="Helvetica,sans-Serif" font-size="10.00" fill="#000000">1</text>
</a>
</g>
</g>
<!-- dir_01ad008a1a3fdffc18398ed2b9cdb1e4&#45;&gt;dir_21695240ac6697d59c3c2f5e3a3e7e03 -->
<g id="edge4" class="edge">
<title>dir_01ad008a1a3fdffc18398ed2b9cdb1e4&#45;&gt;dir_21695240ac6697d59c3c2f5e3a3e7e03</title>
<path fill="none" stroke="#000000" d="M63.7041,-167.7445C70.7727,-157.3921 79.6092,-144.1213 87,-132 96.5287,-116.3726 93.3617,-108.2069 107,-96 133.2629,-72.4936 171.223,-58.282 199.1684,-50.3825"/>
<polygon fill="#000000" stroke="#000000" points="200.2194,-53.7243 208.9707,-47.7522 198.4052,-46.9635 200.2194,-53.7243"/>
<g id="a_edge4&#45;headlabel"><a xlink:href="dir_000011_000026.html" target="_top" xlink:title="1">
<text text-anchor="middle" x="197.4834" y="-54.8981" font-family="Helvetica,sans-Serif" font-size="10.00" fill="#000000">1</text>
</a>
</g>
</g>
</g>
</svg>
        <g id="navigator" transform="translate(0 0)" fill="#404254">
                <rect fill="#f2f5e9" fill-opacity="0.5" stroke="#606060" stroke-width=".5" x="0" y="0" width="60" height="60"/>
                <use id="zoomplus" xlink:href="#zoomPlus" x="17" y="9" onmousedown="handleZoom(evt,'in')"/>
                <use id="zoomminus" xlink:href="#zoomMin" x="42" y="9" onmousedown="handleZoom(evt,'out')"/>
                <use id="reset" xlink:href="#resetDef" x="30" y="36" onmousedown="handleReset()"/>
                <g id="arrowUp" xlink:href="#dirArrow" transform="translate(30 24)" onmousedown="handlePan(0,-1)">
                  <use xlink:href="#rim" fill="#404040">
                        <set attributeName="fill" to="#808080" begin="arrowUp.mouseover" end="arrowUp.mouseout"/>
                  </use>
                  <path fill="none" stroke="white" stroke-width="1.5" d="M0,-3.0v7 M-2.5,-0.5L0,-3.0L2.5,-0.5"/>
                </g>
                <g id="arrowRight" xlink:href="#dirArrow" transform="rotate(90) translate(36 -43)" onmousedown="handlePan(1,0)">
                  <use xlink:href="#rim" fill="#404040">
                        <set attributeName="fill" to="#808080" begin="arrowRight.mouseover" end="arrowRight.mouseout"/>
                  </use>
                  <path fill="none" stroke="white" stroke-width="1.5" d="M0,-3.0v7 M-2.5,-0.5L0,-3.0L2.5,-0.5"/>
                </g>
                <g id="arrowDown" xlink:href="#dirArrow" transform="rotate(180) translate(-30 -48)" onmousedown="handlePan(0,1)">
                  <use xlink:href="#rim" fill="#404040">
                        <set attributeName="fill" to="#808080" begin="arrowDown.mouseover" end="arrowDown.mouseout"/>
                  </use>
                  <path fill="none" stroke="white" stroke-width="1.5" d="M0,-3.0v7 M-2.5,-0.5L0,-3.0L2.5,-0.5"/>
                </g>
                <g id="arrowLeft" xlink:href="#dirArrow" transform="rotate(270) translate(-36 17)" onmousedown="handlePan(-1,0)">
                  <use xlink:href="#rim" fill="#404040">
                        <set attributeName="fill" to="#808080" begin="arrowLeft.mouseover" end="arrowLeft.mouseout"/>
                  </use>
                  <path fill="none" stroke="white" stroke-width="1.5" d="M0,-3.0v7 M-2.5,-0.5L0,-3.0L2.5,-0.5"/>
                </g>
        </g>
        <svg viewBox="0 0 15 15" width="100%" height="30px" preserveAspectRatio="xMaxYMin meet">
         <g id="arrow_out" transform="scale(0.3 0.3)">
          <a xlink:href="dir_25fe10002fe19a6f872ae0406361d164_dep_org.svg" target="_base">
           <rect id="button" ry="5" rx="5" y="6" x="6" height="38" width="38"
                fill="#f2f5e9" fill-opacity="0.5" stroke="#606060" stroke-width="1.0"/>
           <path id="arrow"
             d="M 11.500037,31.436501 C 11.940474,20.09759 22.043105,11.32322 32.158766,21.979434 L 37.068811,17.246167 C 37.068811,17.246167 37.088388,32 37.088388,32 L 22.160133,31.978069 C 22.160133,31.978069 26.997745,27.140456 26.997745,27.140456 C 18.528582,18.264221 13.291696,25.230495 11.500037,31.436501 z"
             style="fill:#404040;"/>
          </a>
         </g>
        </svg>
</svg>
