<?xml version="1.0" encoding="UTF-8" standalone="no"?>
<!DOCTYPE svg PUBLIC "-//W3C//DTD SVG 1.1//EN"
 "http://www.w3.org/Graphics/SVG/1.1/DTD/svg11.dtd">
<!-- Generated by graphviz version 2.40.1 (20161225.0304)
 -->
<!-- Title: Graphical Class Hierarchy Pages: 1 -->
<svg width="313pt" height="484pt"
 viewBox="0.00 0.00 313.00 484.00" xmlns="http://www.w3.org/2000/svg" xmlns:xlink="http://www.w3.org/1999/xlink">
<g id="graph0" class="graph" transform="scale(1 1) rotate(0) translate(4 480)">
<title>Graphical Class Hierarchy</title>
<polygon fill="#ffffff" stroke="transparent" points="-4,4 -4,-480 309,-480 309,4 -4,4"/>
<!-- Node0 -->
<g id="node1" class="node">
<title>Node0</title>
<g id="a_node1"><a xlink:href="classevent_1_1_base_event.html" target="_top" xlink:title="Base class for all event objects. ">
<polygon fill="#ffffff" stroke="#000000" points="0,-228.5 0,-247.5 95,-247.5 95,-228.5 0,-228.5"/>
<text text-anchor="middle" x="47.5" y="-235.5" font-family="Helvetica,sans-Serif" font-size="10.00" fill="#000000">event::BaseEvent</text>
</a>
</g>
</g>
<!-- Node1 -->
<g id="node2" class="node">
<title>Node1</title>
<g id="a_node2"><a xlink:href="classevent_1_1_all_downloads_complete.html" target="_top" xlink:title="All targets for an update have been downloaded. ">
<polygon fill="#ffffff" stroke="#000000" points="143.5,-456.5 143.5,-475.5 292.5,-475.5 292.5,-456.5 143.5,-456.5"/>
<text text-anchor="middle" x="218" y="-463.5" font-family="Helvetica,sans-Serif" font-size="10.00" fill="#000000">event::AllDownloadsComplete</text>
</a>
</g>
</g>
<!-- Node0&#45;&gt;Node1 -->
<g id="edge1" class="edge">
<title>Node0&#45;&gt;Node1</title>
<path fill="none" stroke="#191970" d="M49.3367,-257.711C54.3272,-299.4534 72.0124,-397.0265 131,-447 135.4825,-450.7975 140.5512,-453.8863 145.9333,-456.3931"/>
<polygon fill="#191970" stroke="#191970" points="52.8113,-257.2858 48.2622,-247.7173 45.8514,-258.0342 52.8113,-257.2858"/>
</g>
<!-- Node2 -->
<g id="node3" class="node">
<title>Node2</title>
<g id="a_node3"><a xlink:href="classevent_1_1_all_installs_complete.html" target="_top" xlink:title="All ECU installation attempts for an update have completed. ">
<polygon fill="#ffffff" stroke="#000000" points="152.5,-418.5 152.5,-437.5 283.5,-437.5 283.5,-418.5 152.5,-418.5"/>
<text text-anchor="middle" x="218" y="-425.5" font-family="Helvetica,sans-Serif" font-size="10.00" fill="#000000">event::AllInstallsComplete</text>
</a>
</g>
</g>
<!-- Node0&#45;&gt;Node2 -->
<g id="edge2" class="edge">
<title>Node0&#45;&gt;Node2</title>
<path fill="none" stroke="#191970" d="M51.2806,-257.7679C59.2502,-293.7827 81.2971,-369.9628 131,-409 137.3224,-413.9657 144.6659,-417.698 152.3548,-420.4931"/>
<polygon fill="#191970" stroke="#191970" points="54.6267,-256.666 49.1706,-247.5841 47.7723,-258.0862 54.6267,-256.666"/>
</g>
<!-- Node3 -->
<g id="node4" class="node">
<title>Node3</title>
<g id="a_node4"><a xlink:href="classevent_1_1_campaign_accept_complete.html" target="_top" xlink:title="A campaign has been accepted. ">
<polygon fill="#ffffff" stroke="#000000" points="136,-380.5 136,-399.5 300,-399.5 300,-380.5 136,-380.5"/>
<text text-anchor="middle" x="218" y="-387.5" font-family="Helvetica,sans-Serif" font-size="10.00" fill="#000000">event::CampaignAcceptComplete</text>
</a>
</g>
</g>
<!-- Node0&#45;&gt;Node3 -->
<g id="edge3" class="edge">
<title>Node0&#45;&gt;Node3</title>
<path fill="none" stroke="#191970" d="M53.9548,-257.053C64.9225,-286.3906 90.0753,-342.2387 131,-371 136.439,-374.8225 142.5054,-377.8969 148.835,-380.3667"/>
<polygon fill="#191970" stroke="#191970" points="57.2167,-255.7799 50.553,-247.5431 50.6257,-258.1377 57.2167,-255.7799"/>
</g>
<!-- Node4 -->
<g id="node5" class="node">
<title>Node4</title>
<g id="a_node5"><a xlink:href="classevent_1_1_campaign_check_complete.html" target="_top" xlink:title="The server has been queried for available campaigns. ">
<polygon fill="#ffffff" stroke="#000000" points="137.5,-342.5 137.5,-361.5 298.5,-361.5 298.5,-342.5 137.5,-342.5"/>
<text text-anchor="middle" x="218" y="-349.5" font-family="Helvetica,sans-Serif" font-size="10.00" fill="#000000">event::CampaignCheckComplete</text>
</a>
</g>
</g>
<!-- Node0&#45;&gt;Node4 -->
<g id="edge4" class="edge">
<title>Node0&#45;&gt;Node4</title>
<path fill="none" stroke="#191970" d="M58.3685,-256.263C72.3419,-278.068 98.698,-313.9705 131,-333 137.5271,-336.8452 144.7428,-339.9145 152.1446,-342.364"/>
<polygon fill="#191970" stroke="#191970" points="61.2456,-254.2615 52.9994,-247.6093 55.2974,-257.9519 61.2456,-254.2615"/>
</g>
<!-- Node5 -->
<g id="node6" class="node">
<title>Node5</title>
<g id="a_node6"><a xlink:href="classevent_1_1_campaign_decline_complete.html" target="_top" xlink:title="event::CampaignDeclineComplete">
<polygon fill="#ffffff" stroke="#000000" points="135,-304.5 135,-323.5 301,-323.5 301,-304.5 135,-304.5"/>
<text text-anchor="middle" x="218" y="-311.5" font-family="Helvetica,sans-Serif" font-size="10.00" fill="#000000">event::CampaignDeclineComplete</text>
</a>
</g>
</g>
<!-- Node0&#45;&gt;Node5 -->
<g id="edge5" class="edge">
<title>Node0&#45;&gt;Node5</title>
<path fill="none" stroke="#191970" d="M66.6439,-254.2537C82.8007,-267.1547 107.0642,-284.6822 131,-295 139.9443,-298.8556 149.7552,-301.9641 159.4646,-304.4599"/>
<polygon fill="#191970" stroke="#191970" points="68.5118,-251.2599 58.5554,-247.6376 64.0799,-256.6782 68.5118,-251.2599"/>
</g>
<!-- Node6 -->
<g id="node7" class="node">
<title>Node6</title>
<g id="a_node7"><a xlink:href="classevent_1_1_campaign_postpone_complete.html" target="_top" xlink:title="event::CampaignPostponeComplete">
<polygon fill="#ffffff" stroke="#000000" points="131,-266.5 131,-285.5 305,-285.5 305,-266.5 131,-266.5"/>
<text text-anchor="middle" x="218" y="-273.5" font-family="Helvetica,sans-Serif" font-size="10.00" fill="#000000">event::CampaignPostponeComplete</text>
</a>
</g>
</g>
<!-- Node0&#45;&gt;Node6 -->
<g id="edge6" class="edge">
<title>Node0&#45;&gt;Node6</title>
<path fill="none" stroke="#191970" d="M99.0489,-249.8037C109.614,-252.2021 120.6633,-254.6953 131,-257 144.8825,-260.0953 160.023,-263.4197 173.7244,-266.4088"/>
<polygon fill="#191970" stroke="#191970" points="99.6341,-246.3475 89.1069,-247.5425 98.0816,-253.1732 99.6341,-246.3475"/>
</g>
<!-- Node7 -->
<g id="node8" class="node">
<title>Node7</title>
<g id="a_node8"><a xlink:href="classevent_1_1_download_progress_report.html" target="_top" xlink:title="A report for a download in progress. ">
<polygon fill="#ffffff" stroke="#000000" points="139,-228.5 139,-247.5 297,-247.5 297,-228.5 139,-228.5"/>
<text text-anchor="middle" x="218" y="-235.5" font-family="Helvetica,sans-Serif" font-size="10.00" fill="#000000">event::DownloadProgressReport</text>
</a>
</g>
</g>
<!-- Node0&#45;&gt;Node7 -->
<g id="edge7" class="edge">
<title>Node0&#45;&gt;Node7</title>
<path fill="none" stroke="#191970" d="M105.4994,-238C116.2155,-238 127.5735,-238 138.7913,-238"/>
<polygon fill="#191970" stroke="#191970" points="105.4475,-234.5001 95.4475,-238 105.4475,-241.5001 105.4475,-234.5001"/>
</g>
<!-- Node8 -->
<g id="node9" class="node">
<title>Node8</title>
<g id="a_node9"><a xlink:href="classevent_1_1_download_target_complete.html" target="_top" xlink:title="A target has been downloaded. ">
<polygon fill="#ffffff" stroke="#000000" points="138,-190.5 138,-209.5 298,-209.5 298,-190.5 138,-190.5"/>
<text text-anchor="middle" x="218" y="-197.5" font-family="Helvetica,sans-Serif" font-size="10.00" fill="#000000">event::DownloadTargetComplete</text>
</a>
</g>
</g>
<!-- Node0&#45;&gt;Node8 -->
<g id="edge8" class="edge">
<title>Node0&#45;&gt;Node8</title>
<path fill="none" stroke="#191970" d="M99.0489,-226.1963C109.614,-223.7979 120.6633,-221.3047 131,-219 144.8825,-215.9047 160.023,-212.5803 173.7244,-209.5912"/>
<polygon fill="#191970" stroke="#191970" points="98.0816,-222.8268 89.1069,-228.4575 99.6341,-229.6525 98.0816,-222.8268"/>
</g>
<!-- Node9 -->
<g id="node10" class="node">
<title>Node9</title>
<g id="a_node10"><a xlink:href="classevent_1_1_install_started.html" target="_top" xlink:title="An ECU has begun installation of an update. ">
<polygon fill="#ffffff" stroke="#000000" points="166,-152.5 166,-171.5 270,-171.5 270,-152.5 166,-152.5"/>
<text text-anchor="middle" x="218" y="-159.5" font-family="Helvetica,sans-Serif" font-size="10.00" fill="#000000">event::InstallStarted</text>
</a>
</g>
</g>
<!-- Node0&#45;&gt;Node9 -->
<g id="edge9" class="edge">
<title>Node0&#45;&gt;Node9</title>
<path fill="none" stroke="#191970" d="M66.6439,-221.7463C82.8007,-208.8453 107.0642,-191.3178 131,-181 141.9319,-176.2876 154.1584,-172.6912 165.9118,-169.9656"/>
<polygon fill="#191970" stroke="#191970" points="64.0799,-219.3218 58.5554,-228.3624 68.5118,-224.7401 64.0799,-219.3218"/>
</g>
<!-- Node10 -->
<g id="node11" class="node">
<title>Node10</title>
<g id="a_node11"><a xlink:href="classevent_1_1_install_target_complete.html" target="_top" xlink:title="An installation attempt on an ECU has completed. ">
<polygon fill="#ffffff" stroke="#000000" points="146.5,-114.5 146.5,-133.5 289.5,-133.5 289.5,-114.5 146.5,-114.5"/>
<text text-anchor="middle" x="218" y="-121.5" font-family="Helvetica,sans-Serif" font-size="10.00" fill="#000000">event::InstallTargetComplete</text>
</a>
</g>
</g>
<!-- Node0&#45;&gt;Node10 -->
<g id="edge10" class="edge">
<title>Node0&#45;&gt;Node10</title>
<path fill="none" stroke="#191970" d="M58.3685,-219.737C72.3419,-197.932 98.698,-162.0295 131,-143 137.5271,-139.1548 144.7428,-136.0855 152.1446,-133.636"/>
<polygon fill="#191970" stroke="#191970" points="55.2974,-218.0481 52.9994,-228.3907 61.2456,-221.7385 55.2974,-218.0481"/>
</g>
<!-- Node11 -->
<g id="node12" class="node">
<title>Node11</title>
<g id="a_node12"><a xlink:href="classevent_1_1_put_manifest_complete.html" target="_top" xlink:title="A manifest has been sent to the server. ">
<polygon fill="#ffffff" stroke="#000000" points="147.5,-76.5 147.5,-95.5 288.5,-95.5 288.5,-76.5 147.5,-76.5"/>
<text text-anchor="middle" x="218" y="-83.5" font-family="Helvetica,sans-Serif" font-size="10.00" fill="#000000">event::PutManifestComplete</text>
</a>
</g>
</g>
<!-- Node0&#45;&gt;Node11 -->
<g id="edge11" class="edge">
<title>Node0&#45;&gt;Node11</title>
<path fill="none" stroke="#191970" d="M53.9548,-218.947C64.9225,-189.6094 90.0753,-133.7613 131,-105 136.439,-101.1775 142.5054,-98.1031 148.835,-95.6333"/>
<polygon fill="#191970" stroke="#191970" points="50.6257,-217.8623 50.553,-228.4569 57.2167,-220.2201 50.6257,-217.8623"/>
</g>
<!-- Node12 -->
<g id="node13" class="node">
<title>Node12</title>
<g id="a_node13"><a xlink:href="classevent_1_1_send_device_data_complete.html" target="_top" xlink:title="Device data has been sent to the server. ">
<polygon fill="#ffffff" stroke="#000000" points="136.5,-38.5 136.5,-57.5 299.5,-57.5 299.5,-38.5 136.5,-38.5"/>
<text text-anchor="middle" x="218" y="-45.5" font-family="Helvetica,sans-Serif" font-size="10.00" fill="#000000">event::SendDeviceDataComplete</text>
</a>
</g>
</g>
<!-- Node0&#45;&gt;Node12 -->
<g id="edge12" class="edge">
<title>Node0&#45;&gt;Node12</title>
<path fill="none" stroke="#191970" d="M51.2806,-218.2321C59.2502,-182.2173 81.2971,-106.0372 131,-67 135.8634,-63.1803 141.3309,-60.0903 147.0952,-57.5954"/>
<polygon fill="#191970" stroke="#191970" points="47.7723,-217.9138 49.1706,-228.4159 54.6267,-219.334 47.7723,-217.9138"/>
</g>
<!-- Node13 -->
<g id="node14" class="node">
<title>Node13</title>
<g id="a_node14"><a xlink:href="classevent_1_1_update_check_complete.html" target="_top" xlink:title="An update is available for download from the server. ">
<polygon fill="#ffffff" stroke="#000000" points="143.5,-.5 143.5,-19.5 292.5,-19.5 292.5,-.5 143.5,-.5"/>
<text text-anchor="middle" x="218" y="-7.5" font-family="Helvetica,sans-Serif" font-size="10.00" fill="#000000">event::UpdateCheckComplete</text>
</a>
</g>
</g>
<!-- Node0&#45;&gt;Node13 -->
<g id="edge13" class="edge">
<title>Node0&#45;&gt;Node13</title>
<path fill="none" stroke="#191970" d="M49.3367,-218.289C54.3272,-176.5466 72.0124,-78.9735 131,-29 135.4825,-25.2025 140.5512,-22.1137 145.9333,-19.6069"/>
<polygon fill="#191970" stroke="#191970" points="45.8514,-217.9658 48.2622,-228.2827 52.8113,-218.7142 45.8514,-217.9658"/>
</g>
</g>
</svg>
