<?xml version="1.0" encoding="UTF-8" standalone="no"?>
<!DOCTYPE svg PUBLIC "-//W3C//DTD SVG 1.1//EN"
 "http://www.w3.org/Graphics/SVG/1.1/DTD/svg11.dtd">
<!-- Generated by graphviz version 2.40.1 (20161225.0304)
 -->
<!-- Title: Graphical Class Hierarchy Pages: 1 -->
<svg width="493pt" height="102pt"
 viewBox="0.00 0.00 493.00 101.50" xmlns="http://www.w3.org/2000/svg" xmlns:xlink="http://www.w3.org/1999/xlink">
<g id="graph0" class="graph" transform="scale(1 1) rotate(0) translate(4 97.5)">
<title>Graphical Class Hierarchy</title>
<polygon fill="#ffffff" stroke="transparent" points="-4,4 -4,-97.5 489,-97.5 489,4 -4,4"/>
<!-- Node0 -->
<g id="node1" class="node">
<title>Node0</title>
<g id="a_node1"><a xlink:href="class_primary_1_1_secondary_config.html" target="_top" xlink:title="Primary::SecondaryConfig">
<polygon fill="#ffffff" stroke="#000000" points="0,-52 0,-71 131,-71 131,-52 0,-52"/>
<text text-anchor="middle" x="65.5" y="-59" font-family="Helvetica,sans-Serif" font-size="10.00" fill="#000000">Primary::SecondaryConfig</text>
</a>
</g>
</g>
<!-- Node1 -->
<g id="node2" class="node">
<title>Node1</title>
<g id="a_node2"><a xlink:href="class_primary_1_1_i_p_secondaries_config.html" target="_top" xlink:title="Primary::IPSecondariesConfig">
<polygon fill="#ffffff" stroke="#000000" points="167,-74 167,-93 316,-93 316,-74 167,-74"/>
<text text-anchor="middle" x="241.5" y="-81" font-family="Helvetica,sans-Serif" font-size="10.00" fill="#000000">Primary::IPSecondariesConfig</text>
</a>
</g>
</g>
<!-- Node0&#45;&gt;Node1 -->
<g id="edge1" class="edge">
<title>Node0&#45;&gt;Node1</title>
<path fill="none" stroke="#191970" d="M140.9623,-70.9328C149.4978,-71.9997 158.1939,-73.0867 166.7206,-74.1526"/>
<polygon fill="#191970" stroke="#191970" points="141.3928,-67.4595 131.0359,-69.692 140.5245,-74.4054 141.3928,-67.4595"/>
</g>
<!-- Node2 -->
<g id="node3" class="node">
<title>Node2</title>
<g id="a_node3"><a xlink:href="class_primary_1_1_managed_secondary_config.html" target="_top" xlink:title="Primary::ManagedSecondary\lConfig">
<polygon fill="#ffffff" stroke="#000000" points="170,-24.5 170,-54.5 313,-54.5 313,-24.5 170,-24.5"/>
<text text-anchor="start" x="178" y="-42.5" font-family="Helvetica,sans-Serif" font-size="10.00" fill="#000000">Primary::ManagedSecondary</text>
<text text-anchor="middle" x="241.5" y="-31.5" font-family="Helvetica,sans-Serif" font-size="10.00" fill="#000000">Config</text>
</a>
</g>
</g>
<!-- Node0&#45;&gt;Node2 -->
<g id="edge2" class="edge">
<title>Node0&#45;&gt;Node2</title>
<path fill="none" stroke="#191970" d="M141.2009,-52.0374C150.6581,-50.8552 160.3086,-49.6489 169.7039,-48.4745"/>
<polygon fill="#191970" stroke="#191970" points="140.5245,-48.5946 131.0359,-53.308 141.3928,-55.5406 140.5245,-48.5946"/>
</g>
<!-- Node3 -->
<g id="node4" class="node">
<title>Node3</title>
<g id="a_node4"><a xlink:href="class_primary_1_1_partial_verification_secondary_config.html" target="_top" xlink:title="Primary::PartialVerification\lSecondaryConfig">
<polygon fill="#ffffff" stroke="#000000" points="352,-49.5 352,-79.5 485,-79.5 485,-49.5 352,-49.5"/>
<text text-anchor="start" x="360" y="-67.5" font-family="Helvetica,sans-Serif" font-size="10.00" fill="#000000">Primary::PartialVerification</text>
<text text-anchor="middle" x="418.5" y="-56.5" font-family="Helvetica,sans-Serif" font-size="10.00" fill="#000000">SecondaryConfig</text>
</a>
</g>
</g>
<!-- Node2&#45;&gt;Node3 -->
<g id="edge3" class="edge">
<title>Node2&#45;&gt;Node3</title>
<path fill="none" stroke="#191970" d="M323.172,-51.0356C332.7608,-52.3899 342.4571,-53.7595 351.807,-55.0801"/>
<polygon fill="#191970" stroke="#191970" points="323.6288,-47.5654 313.2375,-49.6324 322.6497,-54.4967 323.6288,-47.5654"/>
</g>
<!-- Node4 -->
<g id="node5" class="node">
<title>Node4</title>
<g id="a_node5"><a xlink:href="class_primary_1_1_virtual_secondary_config.html" target="_top" xlink:title="Primary::VirtualSecondary\lConfig">
<polygon fill="#ffffff" stroke="#000000" points="353,-.5 353,-30.5 484,-30.5 484,-.5 353,-.5"/>
<text text-anchor="start" x="361" y="-18.5" font-family="Helvetica,sans-Serif" font-size="10.00" fill="#000000">Primary::VirtualSecondary</text>
<text text-anchor="middle" x="418.5" y="-7.5" font-family="Helvetica,sans-Serif" font-size="10.00" fill="#000000">Config</text>
</a>
</g>
</g>
<!-- Node2&#45;&gt;Node4 -->
<g id="edge4" class="edge">
<title>Node2&#45;&gt;Node4</title>
<path fill="none" stroke="#191970" d="M323.1607,-28.4274C333.1417,-27.074 343.2394,-25.7048 352.942,-24.3892"/>
<polygon fill="#191970" stroke="#191970" points="322.6765,-24.9609 313.2375,-29.7729 323.6171,-31.8974 322.6765,-24.9609"/>
</g>
</g>
</svg>
