<?xml version="1.0" encoding="UTF-8" standalone="no"?>
<!DOCTYPE svg PUBLIC "-//W3C//DTD SVG 1.1//EN"
 "http://www.w3.org/Graphics/SVG/1.1/DTD/svg11.dtd">
<!-- Generated by graphviz version 2.40.1 (20161225.0304)
 -->
<!-- Title: Graphical Class Hierarchy Pages: 1 -->
<svg width="410pt" height="104pt"
 viewBox="0.00 0.00 410.00 104.00" xmlns="http://www.w3.org/2000/svg" xmlns:xlink="http://www.w3.org/1999/xlink">
<g id="graph0" class="graph" transform="scale(1 1) rotate(0) translate(4 100)">
<title>Graphical Class Hierarchy</title>
<polygon fill="#ffffff" stroke="transparent" points="-4,4 -4,-100 406,-100 406,4 -4,4"/>
<!-- Node312 -->
<g id="node1" class="node">
<title>Node312</title>
<polygon fill="#ffffff" stroke="#bfbfbf" points="0,-38.5 0,-57.5 71,-57.5 71,-38.5 0,-38.5"/>
<text text-anchor="middle" x="35.5" y="-45.5" font-family="Helvetica,sans-Serif" font-size="10.00" fill="#000000">HTTPServer</text>
</g>
<!-- Node0 -->
<g id="node2" class="node">
<title>Node0</title>
<g id="a_node2"><a xlink:href="classtest__fixtures_1_1_uptane_repo.html" target="_top" xlink:title="test_fixtures.UptaneRepo">
<polygon fill="#ffffff" stroke="#000000" points="107,-38.5 107,-57.5 235,-57.5 235,-38.5 107,-38.5"/>
<text text-anchor="middle" x="171" y="-45.5" font-family="Helvetica,sans-Serif" font-size="10.00" fill="#000000">test_fixtures.UptaneRepo</text>
</a>
</g>
</g>
<!-- Node312&#45;&gt;Node0 -->
<g id="edge1" class="edge">
<title>Node312&#45;&gt;Node0</title>
<path fill="none" stroke="#191970" d="M81.223,-48C89.453,-48 98.1697,-48 106.8089,-48"/>
<polygon fill="#191970" stroke="#191970" points="81.1011,-44.5001 71.101,-48 81.101,-51.5001 81.1011,-44.5001"/>
</g>
<!-- Node1 -->
<g id="node3" class="node">
<title>Node1</title>
<g id="a_node3"><a xlink:href="classtest__fixtures_1_1_custom_repo.html" target="_top" xlink:title="test_fixtures.CustomRepo">
<polygon fill="#ffffff" stroke="#000000" points="271,-76.5 271,-95.5 402,-95.5 402,-76.5 271,-76.5"/>
<text text-anchor="middle" x="336.5" y="-83.5" font-family="Helvetica,sans-Serif" font-size="10.00" fill="#000000">test_fixtures.CustomRepo</text>
</a>
</g>
</g>
<!-- Node0&#45;&gt;Node1 -->
<g id="edge2" class="edge">
<title>Node0&#45;&gt;Node1</title>
<path fill="none" stroke="#191970" d="M222.8105,-59.8961C246.0733,-65.2374 273.1469,-71.4537 295.0377,-76.4799"/>
<polygon fill="#191970" stroke="#191970" points="223.2923,-56.4157 212.7626,-57.589 221.7258,-63.2382 223.2923,-56.4157"/>
</g>
<!-- Node2 -->
<g id="node4" class="node">
<title>Node2</title>
<g id="a_node4"><a xlink:href="classtest__fixtures_1_1_director_repo.html" target="_top" xlink:title="test_fixtures.DirectorRepo">
<polygon fill="#ffffff" stroke="#000000" points="271,-38.5 271,-57.5 402,-57.5 402,-38.5 271,-38.5"/>
<text text-anchor="middle" x="336.5" y="-45.5" font-family="Helvetica,sans-Serif" font-size="10.00" fill="#000000">test_fixtures.DirectorRepo</text>
</a>
</g>
</g>
<!-- Node0&#45;&gt;Node2 -->
<g id="edge3" class="edge">
<title>Node0&#45;&gt;Node2</title>
<path fill="none" stroke="#191970" d="M245.6382,-48C254.0474,-48 262.5694,-48 270.8523,-48"/>
<polygon fill="#191970" stroke="#191970" points="245.4606,-44.5001 235.4605,-48 245.4605,-51.5001 245.4606,-44.5001"/>
</g>
<!-- Node3 -->
<g id="node5" class="node">
<title>Node3</title>
<g id="a_node5"><a xlink:href="classtest__fixtures_1_1_image_repo.html" target="_top" xlink:title="test_fixtures.ImageRepo">
<polygon fill="#ffffff" stroke="#000000" points="274.5,-.5 274.5,-19.5 398.5,-19.5 398.5,-.5 274.5,-.5"/>
<text text-anchor="middle" x="336.5" y="-7.5" font-family="Helvetica,sans-Serif" font-size="10.00" fill="#000000">test_fixtures.ImageRepo</text>
</a>
</g>
</g>
<!-- Node0&#45;&gt;Node3 -->
<g id="edge4" class="edge">
<title>Node0&#45;&gt;Node3</title>
<path fill="none" stroke="#191970" d="M222.8105,-36.1039C246.0733,-30.7626 273.1469,-24.5463 295.0377,-19.5201"/>
<polygon fill="#191970" stroke="#191970" points="221.7258,-32.7618 212.7626,-38.411 223.2923,-39.5843 221.7258,-32.7618"/>
</g>
</g>
</svg>
