<?xml version="1.0" encoding="UTF-8" standalone="no"?>
<!DOCTYPE svg PUBLIC "-//W3C//DTD SVG 1.1//EN"
 "http://www.w3.org/Graphics/SVG/1.1/DTD/svg11.dtd">
<!-- Generated by graphviz version 2.40.1 (20161225.0304)
 -->
<!-- Title: src/libaktualizr/primary/results.h Pages: 1 -->
<svg width="2470pt" height="385pt"
 viewBox="0.00 0.00 2469.50 385.00" xmlns="http://www.w3.org/2000/svg" xmlns:xlink="http://www.w3.org/1999/xlink">
<g id="graph0" class="graph" transform="scale(1 1) rotate(0) translate(4 381)">
<title>src/libaktualizr/primary/results.h</title>
<polygon fill="#ffffff" stroke="transparent" points="-4,4 -4,-381 2465.5,-381 2465.5,4 -4,4"/>
<!-- Node57 -->
<g id="node1" class="node">
<title>Node57</title>
<polygon fill="#bfbfbf" stroke="#000000" points="892,-346.5 892,-376.5 1007,-376.5 1007,-346.5 892,-346.5"/>
<text text-anchor="start" x="900" y="-364.5" font-family="Helvetica,sans-Serif" font-size="10.00" fill="#000000">src/libaktualizr/primary</text>
<text text-anchor="middle" x="949.5" y="-353.5" font-family="Helvetica,sans-Serif" font-size="10.00" fill="#000000">/results.h</text>
</g>
<!-- Node58 -->
<g id="node2" class="node">
<title>Node58</title>
<g id="a_node2"><a xlink:href="sotauptaneclient_8h_source.html" target="_top" xlink:title="src/libaktualizr/primary\l/sotauptaneclient.h">
<polygon fill="#ffffff" stroke="#000000" points="1476,-212.5 1476,-242.5 1591,-242.5 1591,-212.5 1476,-212.5"/>
<text text-anchor="start" x="1484" y="-230.5" font-family="Helvetica,sans-Serif" font-size="10.00" fill="#000000">src/libaktualizr/primary</text>
<text text-anchor="middle" x="1533.5" y="-219.5" font-family="Helvetica,sans-Serif" font-size="10.00" fill="#000000">/sotauptaneclient.h</text>
</a>
</g>
</g>
<!-- Node57&#45;&gt;Node58 -->
<g id="edge1" class="edge">
<title>Node57&#45;&gt;Node58</title>
<path fill="none" stroke="#191970" d="M1016.9077,-346.0332C1132.6726,-319.4707 1367.2769,-265.6402 1475.9061,-240.715"/>
<polygon fill="#191970" stroke="#191970" points="1016.0584,-342.637 1007.0944,-348.2848 1017.6239,-349.4597 1016.0584,-342.637"/>
</g>
<!-- Node89 -->
<g id="node33" class="node">
<title>Node89</title>
<g id="a_node33"><a xlink:href="events_8h.html" target="_top" xlink:title="src/libaktualizr/primary\l/events.h">
<polygon fill="#ffffff" stroke="#000000" points="849,-279.5 849,-309.5 964,-309.5 964,-279.5 849,-279.5"/>
<text text-anchor="start" x="857" y="-297.5" font-family="Helvetica,sans-Serif" font-size="10.00" fill="#000000">src/libaktualizr/primary</text>
<text text-anchor="middle" x="906.5" y="-286.5" font-family="Helvetica,sans-Serif" font-size="10.00" fill="#000000">/events.h</text>
</a>
</g>
</g>
<!-- Node57&#45;&gt;Node89 -->
<g id="edge52" class="edge">
<title>Node57&#45;&gt;Node89</title>
<path fill="none" stroke="#191970" d="M934.2725,-337.7735C928.2666,-328.4154 921.5449,-317.9421 916.2188,-309.6432"/>
<polygon fill="#191970" stroke="#191970" points="931.3958,-339.7712 939.7426,-346.2967 937.2869,-335.9903 931.3958,-339.7712"/>
</g>
<!-- Node59 -->
<g id="node3" class="node">
<title>Node59</title>
<g id="a_node3"><a xlink:href="uptane__test__common_8h_source.html" target="_top" xlink:title="tests/uptane_test_common.h">
<polygon fill="#ffffff" stroke="#000000" points="1286,-73 1286,-92 1429,-92 1429,-73 1286,-73"/>
<text text-anchor="middle" x="1357.5" y="-80" font-family="Helvetica,sans-Serif" font-size="10.00" fill="#000000">tests/uptane_test_common.h</text>
</a>
</g>
</g>
<!-- Node58&#45;&gt;Node59 -->
<g id="edge2" class="edge">
<title>Node58&#45;&gt;Node59</title>
<path fill="none" stroke="#191970" d="M1492.45,-207.475C1476.466,-198.8102 1458.4393,-187.9199 1443.5,-176 1410.3996,-149.5897 1378.5748,-110.2011 1364.7312,-92.1574"/>
<polygon fill="#191970" stroke="#191970" points="1491.1107,-210.7261 1501.5864,-212.3105 1494.3852,-204.5392 1491.1107,-210.7261"/>
</g>
<!-- Node60 -->
<g id="node4" class="node">
<title>Node60</title>
<g id="a_node4"><a xlink:href="aktualizr__secondary_2uptane__test_8cc_source.html" target="_top" xlink:title="src/aktualizr_secondary\l/uptane_test.cc">
<polygon fill="#ffffff" stroke="#000000" points="1935.5,-.5 1935.5,-30.5 2055.5,-30.5 2055.5,-.5 1935.5,-.5"/>
<text text-anchor="start" x="1943.5" y="-18.5" font-family="Helvetica,sans-Serif" font-size="10.00" fill="#000000">src/aktualizr_secondary</text>
<text text-anchor="middle" x="1995.5" y="-7.5" font-family="Helvetica,sans-Serif" font-size="10.00" fill="#000000">/uptane_test.cc</text>
</a>
</g>
</g>
<!-- Node58&#45;&gt;Node60 -->
<g id="edge18" class="edge">
<title>Node58&#45;&gt;Node60</title>
<path fill="none" stroke="#191970" d="M1601.2499,-222.7967C1674.7794,-216.4116 1786.0568,-202.6083 1818.5,-176 1858.7671,-142.9749 1824.5132,-103.6617 1861.5,-67 1873.7135,-54.8938 1911.6982,-40.8743 1944.1204,-30.5222"/>
<polygon fill="#191970" stroke="#191970" points="1600.8079,-219.3215 1591.1372,-223.649 1601.3958,-226.2967 1600.8079,-219.3215"/>
</g>
<!-- Node62 -->
<g id="node6" class="node">
<title>Node62</title>
<g id="a_node6"><a xlink:href="aktualizr__test_8cc_source.html" target="_top" xlink:title="src/libaktualizr/primary\l/aktualizr_test.cc">
<polygon fill="#ffffff" stroke="#000000" points="383,-.5 383,-30.5 498,-30.5 498,-.5 383,-.5"/>
<text text-anchor="start" x="391" y="-18.5" font-family="Helvetica,sans-Serif" font-size="10.00" fill="#000000">src/libaktualizr/primary</text>
<text text-anchor="middle" x="440.5" y="-7.5" font-family="Helvetica,sans-Serif" font-size="10.00" fill="#000000">/aktualizr_test.cc</text>
</a>
</g>
</g>
<!-- Node58&#45;&gt;Node62 -->
<g id="edge41" class="edge">
<title>Node58&#45;&gt;Node62</title>
<path fill="none" stroke="#191970" d="M1476.8578,-209.0658C1451.9935,-200.2115 1422.7719,-188.7512 1397.5,-176 1340.3764,-147.1777 1328.2587,-135.6147 1276.5,-98 1258.8683,-85.1865 1258.8464,-74.8157 1238.5,-67 1086.6748,-8.6793 668.5889,-53.4178 507.5,-31 504.4254,-30.5721 501.2843,-30.0713 498.1218,-29.5167"/>
<polygon fill="#191970" stroke="#191970" points="1475.915,-212.4441 1486.5098,-212.4511 1478.2318,-205.8386 1475.915,-212.4441"/>
</g>
<!-- Node67 -->
<g id="node11" class="node">
<title>Node67</title>
<g id="a_node11"><a xlink:href="uptane__key__test_8cc_source.html" target="_top" xlink:title="src/libaktualizr/primary\l/uptane_key_test.cc">
<polygon fill="#ffffff" stroke="#000000" points="2074,-.5 2074,-30.5 2189,-30.5 2189,-.5 2074,-.5"/>
<text text-anchor="start" x="2082" y="-18.5" font-family="Helvetica,sans-Serif" font-size="10.00" fill="#000000">src/libaktualizr/primary</text>
<text text-anchor="middle" x="2131.5" y="-7.5" font-family="Helvetica,sans-Serif" font-size="10.00" fill="#000000">/uptane_key_test.cc</text>
</a>
</g>
</g>
<!-- Node58&#45;&gt;Node67 -->
<g id="edge44" class="edge">
<title>Node58&#45;&gt;Node67</title>
<path fill="none" stroke="#191970" d="M1601.4895,-220.373C1679.308,-211.4906 1801.4363,-195.1274 1843.5,-176 1870.2299,-163.8453 1869.8788,-150.0006 1894.5,-134 1961.8093,-90.2575 2047.4754,-51.0892 2095.1985,-30.5834"/>
<polygon fill="#191970" stroke="#191970" points="1600.8317,-216.9249 1591.2871,-221.5237 1601.6164,-223.8808 1600.8317,-216.9249"/>
</g>
<!-- Node68 -->
<g id="node12" class="node">
<title>Node68</title>
<g id="a_node12"><a xlink:href="uptane__ci__test_8cc_source.html" target="_top" xlink:title="src/libaktualizr/uptane\l/uptane_ci_test.cc">
<polygon fill="#ffffff" stroke="#000000" points="1401.5,-.5 1401.5,-30.5 1513.5,-30.5 1513.5,-.5 1401.5,-.5"/>
<text text-anchor="start" x="1409.5" y="-18.5" font-family="Helvetica,sans-Serif" font-size="10.00" fill="#000000">src/libaktualizr/uptane</text>
<text text-anchor="middle" x="1457.5" y="-7.5" font-family="Helvetica,sans-Serif" font-size="10.00" fill="#000000">/uptane_ci_test.cc</text>
</a>
</g>
</g>
<!-- Node58&#45;&gt;Node68 -->
<g id="edge45" class="edge">
<title>Node58&#45;&gt;Node68</title>
<path fill="none" stroke="#191970" d="M1518.5194,-203.5577C1513.6134,-195.066 1508.4216,-185.3049 1504.5,-176 1482.8497,-124.6292 1467.2374,-60.0333 1460.7843,-30.9461"/>
<polygon fill="#191970" stroke="#191970" points="1515.5357,-205.3881 1523.6571,-212.1921 1521.5514,-201.8086 1515.5357,-205.3881"/>
</g>
<!-- Node70 -->
<g id="node14" class="node">
<title>Node70</title>
<g id="a_node14"><a xlink:href="uptane__network__test_8cc.html" target="_top" xlink:title="Check that aktualizr can complete provisioning after encountering various network issues...">
<polygon fill="#ffffff" stroke="#000000" points="1531.5,-.5 1531.5,-30.5 1655.5,-30.5 1655.5,-.5 1531.5,-.5"/>
<text text-anchor="start" x="1539.5" y="-18.5" font-family="Helvetica,sans-Serif" font-size="10.00" fill="#000000">src/libaktualizr/uptane</text>
<text text-anchor="middle" x="1593.5" y="-7.5" font-family="Helvetica,sans-Serif" font-size="10.00" fill="#000000">/uptane_network_test.cc</text>
</a>
</g>
</g>
<!-- Node58&#45;&gt;Node70 -->
<g id="edge47" class="edge">
<title>Node58&#45;&gt;Node70</title>
<path fill="none" stroke="#191970" d="M1523.3863,-202.5249C1511.7095,-169.4933 1496.829,-110.3987 1519.5,-67 1527.8344,-51.0457 1543.6138,-39.0327 1558.4676,-30.6397"/>
<polygon fill="#191970" stroke="#191970" points="1520.2478,-204.1272 1527.0132,-212.2808 1526.8091,-201.6879 1520.2478,-204.1272"/>
</g>
<!-- Node71 -->
<g id="node15" class="node">
<title>Node71</title>
<g id="a_node15"><a xlink:href="uptane__serial__test_8cc_source.html" target="_top" xlink:title="src/libaktualizr/uptane\l/uptane_serial_test.cc">
<polygon fill="#ffffff" stroke="#000000" points="1674,-.5 1674,-30.5 1787,-30.5 1787,-.5 1674,-.5"/>
<text text-anchor="start" x="1682" y="-18.5" font-family="Helvetica,sans-Serif" font-size="10.00" fill="#000000">src/libaktualizr/uptane</text>
<text text-anchor="middle" x="1730.5" y="-7.5" font-family="Helvetica,sans-Serif" font-size="10.00" fill="#000000">/uptane_serial_test.cc</text>
</a>
</g>
</g>
<!-- Node58&#45;&gt;Node71 -->
<g id="edge48" class="edge">
<title>Node58&#45;&gt;Node71</title>
<path fill="none" stroke="#191970" d="M1529.597,-201.7552C1525.8478,-166.8684 1524.8332,-104.6273 1557.5,-67 1565.4095,-57.8895 1626.4076,-41.1034 1673.7599,-29.1733"/>
<polygon fill="#191970" stroke="#191970" points="1526.1699,-202.5604 1530.8712,-212.055 1533.1169,-201.701 1526.1699,-202.5604"/>
</g>
<!-- Node72 -->
<g id="node16" class="node">
<title>Node72</title>
<g id="a_node16"><a xlink:href="libaktualizr_2uptane_2uptane__test_8cc_source.html" target="_top" xlink:title="src/libaktualizr/uptane\l/uptane_test.cc">
<polygon fill="#ffffff" stroke="#000000" points="1805.5,-.5 1805.5,-30.5 1917.5,-30.5 1917.5,-.5 1805.5,-.5"/>
<text text-anchor="start" x="1813.5" y="-18.5" font-family="Helvetica,sans-Serif" font-size="10.00" fill="#000000">src/libaktualizr/uptane</text>
<text text-anchor="middle" x="1861.5" y="-7.5" font-family="Helvetica,sans-Serif" font-size="10.00" fill="#000000">/uptane_test.cc</text>
</a>
</g>
</g>
<!-- Node58&#45;&gt;Node72 -->
<g id="edge49" class="edge">
<title>Node58&#45;&gt;Node72</title>
<path fill="none" stroke="#191970" d="M1543.4408,-202.8467C1552.8775,-182.1148 1568.8401,-152.9121 1590.5,-134 1653.6459,-78.8651 1746.4597,-45.8601 1805.4246,-29.1816"/>
<polygon fill="#191970" stroke="#191970" points="1540.1244,-201.696 1539.3361,-212.2615 1546.541,-204.4936 1540.1244,-201.696"/>
</g>
<!-- Node73 -->
<g id="node17" class="node">
<title>Node73</title>
<g id="a_node17"><a xlink:href="uptane__vector__tests_8cc_source.html" target="_top" xlink:title="tests/uptane_vector\l_tests.cc">
<polygon fill="#ffffff" stroke="#000000" points="1600,-140 1600,-170 1703,-170 1703,-140 1600,-140"/>
<text text-anchor="start" x="1608" y="-158" font-family="Helvetica,sans-Serif" font-size="10.00" fill="#000000">tests/uptane_vector</text>
<text text-anchor="middle" x="1651.5" y="-147" font-family="Helvetica,sans-Serif" font-size="10.00" fill="#000000">_tests.cc</text>
</a>
</g>
</g>
<!-- Node58&#45;&gt;Node73 -->
<g id="edge16" class="edge">
<title>Node58&#45;&gt;Node73</title>
<path fill="none" stroke="#191970" d="M1566.6834,-207.1119C1585.875,-195.3205 1609.6062,-180.7398 1627.0816,-170.0028"/>
<polygon fill="#191970" stroke="#191970" points="1564.6377,-204.2609 1557.9497,-212.478 1568.3022,-210.2251 1564.6377,-204.2609"/>
</g>
<!-- Node74 -->
<g id="node18" class="node">
<title>Node74</title>
<g id="a_node18"><a xlink:href="aktualizr__lite_2main_8cc_source.html" target="_top" xlink:title="src/aktualizr_lite\l/main.cc">
<polygon fill="#ffffff" stroke="#000000" points="1721.5,-140 1721.5,-170 1809.5,-170 1809.5,-140 1721.5,-140"/>
<text text-anchor="start" x="1729.5" y="-158" font-family="Helvetica,sans-Serif" font-size="10.00" fill="#000000">src/aktualizr_lite</text>
<text text-anchor="middle" x="1765.5" y="-147" font-family="Helvetica,sans-Serif" font-size="10.00" fill="#000000">/main.cc</text>
</a>
</g>
</g>
<!-- Node58&#45;&gt;Node74 -->
<g id="edge17" class="edge">
<title>Node58&#45;&gt;Node74</title>
<path fill="none" stroke="#191970" d="M1600.1365,-209.7414C1633.7524,-200.3987 1675.0281,-188.3405 1711.5,-176 1716.9311,-174.1623 1722.6208,-172.1019 1728.1847,-170.0091"/>
<polygon fill="#191970" stroke="#191970" points="1599.1244,-206.3898 1590.4175,-212.4263 1600.9885,-213.137 1599.1244,-206.3898"/>
</g>
<!-- Node75 -->
<g id="node19" class="node">
<title>Node75</title>
<g id="a_node19"><a xlink:href="dockerappmanager__test_8cc_source.html" target="_top" xlink:title="src/libaktualizr/package\l_manager/dockerappmanager\l_test.cc">
<polygon fill="#ffffff" stroke="#000000" points="1904,-134.5 1904,-175.5 2049,-175.5 2049,-134.5 1904,-134.5"/>
<text text-anchor="start" x="1912" y="-163.5" font-family="Helvetica,sans-Serif" font-size="10.00" fill="#000000">src/libaktualizr/package</text>
<text text-anchor="start" x="1912" y="-152.5" font-family="Helvetica,sans-Serif" font-size="10.00" fill="#000000">_manager/dockerappmanager</text>
<text text-anchor="middle" x="1976.5" y="-141.5" font-family="Helvetica,sans-Serif" font-size="10.00" fill="#000000">_test.cc</text>
</a>
</g>
</g>
<!-- Node58&#45;&gt;Node75 -->
<g id="edge19" class="edge">
<title>Node58&#45;&gt;Node75</title>
<path fill="none" stroke="#191970" d="M1601.3893,-219.5898C1673.2566,-210.7707 1789.8469,-195.1919 1889.5,-176 1894.2298,-175.0891 1899.0899,-174.0909 1903.9793,-173.0398"/>
<polygon fill="#191970" stroke="#191970" points="1600.621,-216.1575 1591.1178,-220.8416 1601.4678,-223.1061 1600.621,-216.1575"/>
</g>
<!-- Node76 -->
<g id="node20" class="node">
<title>Node76</title>
<g id="a_node20"><a xlink:href="aktualizr_8h_source.html" target="_top" xlink:title="src/libaktualizr/primary\l/aktualizr.h">
<polygon fill="#ffffff" stroke="#000000" points="756,-140 756,-170 871,-170 871,-140 756,-140"/>
<text text-anchor="start" x="764" y="-158" font-family="Helvetica,sans-Serif" font-size="10.00" fill="#000000">src/libaktualizr/primary</text>
<text text-anchor="middle" x="813.5" y="-147" font-family="Helvetica,sans-Serif" font-size="10.00" fill="#000000">/aktualizr.h</text>
</a>
</g>
</g>
<!-- Node58&#45;&gt;Node76 -->
<g id="edge20" class="edge">
<title>Node58&#45;&gt;Node76</title>
<path fill="none" stroke="#191970" d="M1465.5713,-220.66C1324.7723,-206.4823 1003.2651,-174.1083 871.4783,-160.8381"/>
<polygon fill="#191970" stroke="#191970" points="1465.4961,-224.17 1475.7965,-221.6896 1466.1975,-217.2052 1465.4961,-224.17"/>
</g>
<!-- Node84 -->
<g id="node28" class="node">
<title>Node84</title>
<g id="a_node28"><a xlink:href="load__tests_2check_8cc_source.html" target="_top" xlink:title="src/load_tests/check.cc">
<polygon fill="#ffffff" stroke="#000000" points="956,-73 956,-92 1077,-92 1077,-73 956,-73"/>
<text text-anchor="middle" x="1016.5" y="-80" font-family="Helvetica,sans-Serif" font-size="10.00" fill="#000000">src/load_tests/check.cc</text>
</a>
</g>
</g>
<!-- Node58&#45;&gt;Node84 -->
<g id="edge50" class="edge">
<title>Node58&#45;&gt;Node84</title>
<path fill="none" stroke="#191970" d="M1465.3897,-223.8133C1395.8202,-218.5178 1285.4181,-205.8486 1194.5,-176 1129.828,-154.768 1060.4014,-111.6315 1030.9872,-92.2797"/>
<polygon fill="#191970" stroke="#191970" points="1465.5443,-227.3338 1475.7728,-224.5718 1466.0544,-220.3524 1465.5443,-227.3338"/>
</g>
<!-- Node85 -->
<g id="node29" class="node">
<title>Node85</title>
<g id="a_node29"><a xlink:href="provision_8cc_source.html" target="_top" xlink:title="src/load_tests/provision.cc">
<polygon fill="#ffffff" stroke="#000000" points="1095.5,-73 1095.5,-92 1229.5,-92 1229.5,-73 1095.5,-73"/>
<text text-anchor="middle" x="1162.5" y="-80" font-family="Helvetica,sans-Serif" font-size="10.00" fill="#000000">src/load_tests/provision.cc</text>
</a>
</g>
</g>
<!-- Node58&#45;&gt;Node85 -->
<g id="edge51" class="edge">
<title>Node58&#45;&gt;Node85</title>
<path fill="none" stroke="#191970" d="M1465.7349,-220.7476C1392.2735,-212.5099 1280.5561,-197.0368 1243.5,-176 1206.8931,-155.2182 1178.8598,-111.4506 1167.7301,-92.076"/>
<polygon fill="#191970" stroke="#191970" points="1465.5114,-224.2441 1475.8349,-221.8617 1466.279,-217.2863 1465.5114,-224.2441"/>
</g>
<!-- Node86 -->
<g id="node30" class="node">
<title>Node86</title>
<g id="a_node30"><a xlink:href="device__cred__prov__test_8cc.html" target="_top" xlink:title="src/libaktualizr/primary\l/device_cred_prov_test.cc">
<polygon fill="#ffffff" stroke="#000000" points="2067,-140 2067,-170 2198,-170 2198,-140 2067,-140"/>
<text text-anchor="start" x="2075" y="-158" font-family="Helvetica,sans-Serif" font-size="10.00" fill="#000000">src/libaktualizr/primary</text>
<text text-anchor="middle" x="2132.5" y="-147" font-family="Helvetica,sans-Serif" font-size="10.00" fill="#000000">/device_cred_prov_test.cc</text>
</a>
</g>
</g>
<!-- Node58&#45;&gt;Node86 -->
<g id="edge42" class="edge">
<title>Node58&#45;&gt;Node86</title>
<path fill="none" stroke="#191970" d="M1601.3537,-224.6278C1701.7622,-219.5232 1895.5071,-206.3972 2057.5,-176 2066.0054,-174.404 2074.9456,-172.2935 2083.5716,-170.0255"/>
<polygon fill="#191970" stroke="#191970" points="1601.1576,-221.1331 1591.3439,-225.1257 1601.5054,-228.1245 1601.1576,-221.1331"/>
</g>
<!-- Node87 -->
<g id="node31" class="node">
<title>Node87</title>
<g id="a_node31"><a xlink:href="sotauptaneclient_8cc_source.html" target="_top" xlink:title="src/libaktualizr/primary\l/sotauptaneclient.cc">
<polygon fill="#ffffff" stroke="#000000" points="2216,-140 2216,-170 2331,-170 2331,-140 2216,-140"/>
<text text-anchor="start" x="2224" y="-158" font-family="Helvetica,sans-Serif" font-size="10.00" fill="#000000">src/libaktualizr/primary</text>
<text text-anchor="middle" x="2273.5" y="-147" font-family="Helvetica,sans-Serif" font-size="10.00" fill="#000000">/sotauptaneclient.cc</text>
</a>
</g>
</g>
<!-- Node58&#45;&gt;Node87 -->
<g id="edge43" class="edge">
<title>Node58&#45;&gt;Node87</title>
<path fill="none" stroke="#191970" d="M1601.4928,-224.2641C1748.5106,-216.9466 2091.9478,-198.0371 2206.5,-176 2214.4005,-174.4801 2222.6806,-172.3481 2230.6195,-170.0207"/>
<polygon fill="#191970" stroke="#191970" points="1601.0676,-220.7808 1591.2528,-224.7708 1601.4136,-227.7722 1601.0676,-220.7808"/>
</g>
<!-- Node88 -->
<g id="node32" class="node">
<title>Node88</title>
<g id="a_node32"><a xlink:href="uptane__init__test_8cc_source.html" target="_top" xlink:title="src/libaktualizr/uptane\l/uptane_init_test.cc">
<polygon fill="#ffffff" stroke="#000000" points="2349.5,-140 2349.5,-170 2461.5,-170 2461.5,-140 2349.5,-140"/>
<text text-anchor="start" x="2357.5" y="-158" font-family="Helvetica,sans-Serif" font-size="10.00" fill="#000000">src/libaktualizr/uptane</text>
<text text-anchor="middle" x="2405.5" y="-147" font-family="Helvetica,sans-Serif" font-size="10.00" fill="#000000">/uptane_init_test.cc</text>
</a>
</g>
</g>
<!-- Node58&#45;&gt;Node88 -->
<g id="edge46" class="edge">
<title>Node58&#45;&gt;Node88</title>
<path fill="none" stroke="#191970" d="M1601.2022,-225.3011C1768.6104,-219.522 2198.6216,-202.4997 2339.5,-176 2347.4175,-174.5107 2355.7114,-172.3625 2363.6425,-170.0024"/>
<polygon fill="#191970" stroke="#191970" points="1600.9117,-221.8089 1591.0374,-225.6493 1601.1514,-228.8048 1600.9117,-221.8089"/>
</g>
<!-- Node59&#45;&gt;Node60 -->
<g id="edge3" class="edge">
<title>Node59&#45;&gt;Node60</title>
<path fill="none" stroke="#191970" d="M1439.3925,-78.457C1550.3199,-72.214 1754.27,-58.0203 1926.5,-31 1929.411,-30.5433 1932.3827,-30.036 1935.378,-29.4916"/>
<polygon fill="#191970" stroke="#191970" points="1439.0698,-74.9694 1429.2793,-79.0186 1439.458,-81.9587 1439.0698,-74.9694"/>
</g>
<!-- Node61 -->
<g id="node5" class="node">
<title>Node61</title>
<g id="a_node5"><a xlink:href="aktualizr__fullostree__test_8cc_source.html" target="_top" xlink:title="src/libaktualizr/primary\l/aktualizr_fullostree_test.cc">
<polygon fill="#ffffff" stroke="#000000" points="966,-.5 966,-30.5 1103,-30.5 1103,-.5 966,-.5"/>
<text text-anchor="start" x="974" y="-18.5" font-family="Helvetica,sans-Serif" font-size="10.00" fill="#000000">src/libaktualizr/primary</text>
<text text-anchor="middle" x="1034.5" y="-7.5" font-family="Helvetica,sans-Serif" font-size="10.00" fill="#000000">/aktualizr_fullostree_test.cc</text>
</a>
</g>
</g>
<!-- Node59&#45;&gt;Node61 -->
<g id="edge4" class="edge">
<title>Node59&#45;&gt;Node61</title>
<path fill="none" stroke="#191970" d="M1301.632,-70.9113C1246.5469,-59.485 1162.2545,-42.0002 1103.1246,-29.7348"/>
<polygon fill="#191970" stroke="#191970" points="1301.0625,-74.3676 1311.565,-72.9717 1302.4843,-67.5135 1301.0625,-74.3676"/>
</g>
<!-- Node59&#45;&gt;Node62 -->
<g id="edge5" class="edge">
<title>Node59&#45;&gt;Node62</title>
<path fill="none" stroke="#191970" d="M1300.7952,-71.1936C1291.0557,-69.5635 1281.0101,-68.0764 1271.5,-67 933.7243,-28.77 844.2372,-77.4975 507.5,-31 504.425,-30.5754 501.2835,-30.0772 498.1207,-29.5246"/>
<polygon fill="#191970" stroke="#191970" points="1300.347,-74.6681 1310.7988,-72.9329 1301.5462,-67.7716 1300.347,-74.6681"/>
</g>
<!-- Node63 -->
<g id="node7" class="node">
<title>Node63</title>
<g id="a_node7"><a xlink:href="custom__url__test_8cc_source.html" target="_top" xlink:title="src/libaktualizr/primary\l/custom_url_test.cc">
<polygon fill="#ffffff" stroke="#000000" points="1268,-.5 1268,-30.5 1383,-30.5 1383,-.5 1268,-.5"/>
<text text-anchor="start" x="1276" y="-18.5" font-family="Helvetica,sans-Serif" font-size="10.00" fill="#000000">src/libaktualizr/primary</text>
<text text-anchor="middle" x="1325.5" y="-7.5" font-family="Helvetica,sans-Serif" font-size="10.00" fill="#000000">/custom_url_test.cc</text>
</a>
</g>
</g>
<!-- Node59&#45;&gt;Node63 -->
<g id="edge6" class="edge">
<title>Node59&#45;&gt;Node63</title>
<path fill="none" stroke="#191970" d="M1348.5479,-63.7565C1343.5346,-53.2598 1337.3675,-40.3476 1332.6746,-30.5218"/>
<polygon fill="#191970" stroke="#191970" points="1345.4471,-65.3853 1352.9152,-72.9005 1351.7636,-62.3685 1345.4471,-65.3853"/>
</g>
<!-- Node64 -->
<g id="node8" class="node">
<title>Node64</title>
<g id="a_node8"><a xlink:href="download__nonostree__test_8cc_source.html" target="_top" xlink:title="src/libaktualizr/primary\l/download_nonostree_test.cc">
<polygon fill="#ffffff" stroke="#000000" points="668.5,-.5 668.5,-30.5 812.5,-30.5 812.5,-.5 668.5,-.5"/>
<text text-anchor="start" x="676.5" y="-18.5" font-family="Helvetica,sans-Serif" font-size="10.00" fill="#000000">src/libaktualizr/primary</text>
<text text-anchor="middle" x="740.5" y="-7.5" font-family="Helvetica,sans-Serif" font-size="10.00" fill="#000000">/download_nonostree_test.cc</text>
</a>
</g>
</g>
<!-- Node59&#45;&gt;Node64 -->
<g id="edge7" class="edge">
<title>Node59&#45;&gt;Node64</title>
<path fill="none" stroke="#191970" d="M1299.4338,-71.2328C1290.1161,-69.6563 1280.5599,-68.1759 1271.5,-67 1072.53,-41.1746 1020.3282,-57.8949 821.5,-31 818.6623,-30.6162 815.7736,-30.1977 812.8592,-29.7523"/>
<polygon fill="#191970" stroke="#191970" points="1298.9639,-74.7036 1309.4161,-72.9714 1300.165,-67.8074 1298.9639,-74.7036"/>
</g>
<!-- Node65 -->
<g id="node9" class="node">
<title>Node65</title>
<g id="a_node9"><a xlink:href="empty__targets__test_8cc_source.html" target="_top" xlink:title="src/libaktualizr/primary\l/empty_targets_test.cc">
<polygon fill="#ffffff" stroke="#000000" points="831,-.5 831,-30.5 948,-30.5 948,-.5 831,-.5"/>
<text text-anchor="start" x="839" y="-18.5" font-family="Helvetica,sans-Serif" font-size="10.00" fill="#000000">src/libaktualizr/primary</text>
<text text-anchor="middle" x="889.5" y="-7.5" font-family="Helvetica,sans-Serif" font-size="10.00" fill="#000000">/empty_targets_test.cc</text>
</a>
</g>
</g>
<!-- Node59&#45;&gt;Node65 -->
<g id="edge8" class="edge">
<title>Node59&#45;&gt;Node65</title>
<path fill="none" stroke="#191970" d="M1297.4651,-71.1696C1288.7684,-69.6769 1279.9148,-68.2378 1271.5,-67 1132.089,-46.4923 1095.3665,-54.9186 956.5,-31 953.7938,-30.5339 951.0331,-30.0264 948.2495,-29.4888"/>
<polygon fill="#191970" stroke="#191970" points="1297.1127,-74.6611 1307.5665,-72.9378 1298.3197,-67.7659 1297.1127,-74.6611"/>
</g>
<!-- Node66 -->
<g id="node10" class="node">
<title>Node66</title>
<g id="a_node10"><a xlink:href="target__mismatch__test_8cc_source.html" target="_top" xlink:title="src/libaktualizr/primary\l/target_mismatch_test.cc">
<polygon fill="#ffffff" stroke="#000000" points="1121.5,-.5 1121.5,-30.5 1249.5,-30.5 1249.5,-.5 1121.5,-.5"/>
<text text-anchor="start" x="1129.5" y="-18.5" font-family="Helvetica,sans-Serif" font-size="10.00" fill="#000000">src/libaktualizr/primary</text>
<text text-anchor="middle" x="1185.5" y="-7.5" font-family="Helvetica,sans-Serif" font-size="10.00" fill="#000000">/target_mismatch_test.cc</text>
</a>
</g>
</g>
<!-- Node59&#45;&gt;Node66 -->
<g id="edge9" class="edge">
<title>Node59&#45;&gt;Node66</title>
<path fill="none" stroke="#191970" d="M1323.2784,-69.1695C1294.6542,-58.0194 1253.8386,-42.1203 1224.0633,-30.5218"/>
<polygon fill="#191970" stroke="#191970" points="1322.2682,-72.5321 1332.8566,-72.9005 1324.809,-66.0095 1322.2682,-72.5321"/>
</g>
<!-- Node59&#45;&gt;Node67 -->
<g id="edge10" class="edge">
<title>Node59&#45;&gt;Node67</title>
<path fill="none" stroke="#191970" d="M1439.2006,-80.6462C1571.3171,-76.7314 1839.7603,-64.9728 2064.5,-31 2067.5693,-30.536 2070.7063,-30.0064 2073.8655,-29.4293"/>
<polygon fill="#191970" stroke="#191970" points="1439.0503,-77.149 1429.1556,-80.9365 1439.2525,-84.1461 1439.0503,-77.149"/>
</g>
<!-- Node59&#45;&gt;Node68 -->
<g id="edge11" class="edge">
<title>Node59&#45;&gt;Node68</title>
<path fill="none" stroke="#191970" d="M1380.2966,-67.2263C1396.7118,-56.2281 1418.751,-41.4618 1435.0795,-30.5218"/>
<polygon fill="#191970" stroke="#191970" points="1378.1871,-64.4266 1371.8276,-72.9005 1382.0834,-70.242 1378.1871,-64.4266"/>
</g>
<!-- Node69 -->
<g id="node13" class="node">
<title>Node69</title>
<g id="a_node13"><a xlink:href="uptane__delegation__test_8cc_source.html" target="_top" xlink:title="src/libaktualizr/uptane\l/uptane_delegation_test.cc">
<polygon fill="#ffffff" stroke="#000000" points="516.5,-.5 516.5,-30.5 650.5,-30.5 650.5,-.5 516.5,-.5"/>
<text text-anchor="start" x="524.5" y="-18.5" font-family="Helvetica,sans-Serif" font-size="10.00" fill="#000000">src/libaktualizr/uptane</text>
<text text-anchor="middle" x="583.5" y="-7.5" font-family="Helvetica,sans-Serif" font-size="10.00" fill="#000000">/uptane_delegation_test.cc</text>
</a>
</g>
</g>
<!-- Node59&#45;&gt;Node69 -->
<g id="edge12" class="edge">
<title>Node59&#45;&gt;Node69</title>
<path fill="none" stroke="#191970" d="M1300.4404,-71.2303C1290.8097,-69.6115 1280.8919,-68.1185 1271.5,-67 1000.9418,-34.7778 929.672,-66.3139 659.5,-31 656.5625,-30.616 653.5685,-30.1836 650.5496,-29.7138"/>
<polygon fill="#191970" stroke="#191970" points="1299.8866,-74.6864 1310.3385,-72.9523 1301.0864,-67.79 1299.8866,-74.6864"/>
</g>
<!-- Node59&#45;&gt;Node70 -->
<g id="edge13" class="edge">
<title>Node59&#45;&gt;Node70</title>
<path fill="none" stroke="#191970" d="M1400.8899,-70.1817C1440.2442,-59.0091 1498.3712,-42.5069 1540.4692,-30.5553"/>
<polygon fill="#191970" stroke="#191970" points="1399.7264,-66.8736 1391.0624,-72.9717 1401.6382,-73.6075 1399.7264,-66.8736"/>
</g>
<!-- Node59&#45;&gt;Node71 -->
<g id="edge14" class="edge">
<title>Node59&#45;&gt;Node71</title>
<path fill="none" stroke="#191970" d="M1431.649,-71.4332C1493.981,-61.802 1585.3272,-46.9203 1664.5,-31 1667.5002,-30.3967 1670.5717,-29.7561 1673.6692,-29.0919"/>
<polygon fill="#191970" stroke="#191970" points="1430.8673,-68.0122 1421.5158,-72.9922 1431.9318,-74.9308 1430.8673,-68.0122"/>
</g>
<!-- Node59&#45;&gt;Node72 -->
<g id="edge15" class="edge">
<title>Node59&#45;&gt;Node72</title>
<path fill="none" stroke="#191970" d="M1439.395,-75.673C1527.6925,-67.6604 1672.1834,-52.6579 1795.5,-31 1798.7459,-30.4299 1802.0714,-29.7991 1805.4201,-29.1277"/>
<polygon fill="#191970" stroke="#191970" points="1438.8223,-72.2103 1429.176,-76.5919 1439.4493,-79.1822 1438.8223,-72.2103"/>
</g>
<!-- Node76&#45;&gt;Node59 -->
<g id="edge22" class="edge">
<title>Node76&#45;&gt;Node59</title>
<path fill="none" stroke="#191970" d="M881.2001,-145.9775C984.4288,-132.22 1180.2937,-106.1166 1285.8374,-92.0506"/>
<polygon fill="#191970" stroke="#191970" points="880.6525,-142.5194 871.2025,-147.3099 881.5773,-149.4581 880.6525,-142.5194"/>
</g>
<!-- Node76&#45;&gt;Node61 -->
<g id="edge28" class="edge">
<title>Node76&#45;&gt;Node61</title>
<path fill="none" stroke="#191970" d="M824.8973,-130.941C835.4354,-111.128 852.8747,-83.6749 875.5,-67 891.6752,-55.0788 936.8873,-40.9828 974.983,-30.5545"/>
<polygon fill="#191970" stroke="#191970" points="821.716,-129.475 820.2859,-139.9729 827.9504,-132.6581 821.716,-129.475"/>
</g>
<!-- Node76&#45;&gt;Node62 -->
<g id="edge33" class="edge">
<title>Node76&#45;&gt;Node62</title>
<path fill="none" stroke="#191970" d="M745.7723,-140.4826C703.8188,-130.568 649.2172,-115.9822 602.5,-98 552.426,-78.7257 497.4179,-48.6693 466.1104,-30.6504"/>
<polygon fill="#191970" stroke="#191970" points="745.0743,-143.9136 755.6079,-142.7763 746.6642,-137.0966 745.0743,-143.9136"/>
</g>
<!-- Node76&#45;&gt;Node63 -->
<g id="edge34" class="edge">
<title>Node76&#45;&gt;Node63</title>
<path fill="none" stroke="#191970" d="M851.3061,-134.8737C869.6622,-124.5829 891.7473,-111.4187 910.5,-98 927.6713,-85.7129 927.1598,-75.4725 946.5,-67 1074.3564,-10.9893 1120.9518,-54.7683 1258.5,-31 1261.5588,-30.4714 1264.6875,-29.8903 1267.8401,-29.2729"/>
<polygon fill="#191970" stroke="#191970" points="849.4078,-131.9241 842.3558,-139.831 852.7994,-138.0476 849.4078,-131.9241"/>
</g>
<!-- Node76&#45;&gt;Node64 -->
<g id="edge35" class="edge">
<title>Node76&#45;&gt;Node64</title>
<path fill="none" stroke="#191970" d="M800.8379,-130.8032C785.7645,-101.9987 761.0512,-54.7725 748.4414,-30.6758"/>
<polygon fill="#191970" stroke="#191970" points="797.8111,-132.5681 805.5488,-139.8055 804.0133,-129.3225 797.8111,-132.5681"/>
</g>
<!-- Node76&#45;&gt;Node65 -->
<g id="edge36" class="edge">
<title>Node76&#45;&gt;Node65</title>
<path fill="none" stroke="#191970" d="M816.7891,-129.7866C820.0122,-111.4116 826.1576,-86.4367 837.5,-67 845.6971,-52.9532 858.6971,-40.0782 869.6478,-30.7149"/>
<polygon fill="#191970" stroke="#191970" points="813.3184,-129.3268 815.2119,-139.7511 820.2324,-130.4212 813.3184,-129.3268"/>
</g>
<!-- Node76&#45;&gt;Node66 -->
<g id="edge37" class="edge">
<title>Node76&#45;&gt;Node66</title>
<path fill="none" stroke="#191970" d="M837.1141,-133.0188C863.8021,-108.3707 904.6901,-71.2639 913.5,-67 994.0091,-28.0348 1023.7208,-48.1699 1111.5,-31 1114.7205,-30.3701 1118.0177,-29.7153 1121.3459,-29.0467"/>
<polygon fill="#191970" stroke="#191970" points="834.6307,-130.5483 829.6704,-139.9103 839.3862,-135.6849 834.6307,-130.5483"/>
</g>
<!-- Node76&#45;&gt;Node69 -->
<g id="edge38" class="edge">
<title>Node76&#45;&gt;Node69</title>
<path fill="none" stroke="#191970" d="M745.6569,-146.2723C708.4368,-138.6345 663.3242,-124.4057 630.5,-98 608.4084,-80.2282 594.7858,-49.0954 588.2245,-30.578"/>
<polygon fill="#191970" stroke="#191970" points="745.4465,-149.7962 755.9288,-148.2564 746.7741,-142.9233 745.4465,-149.7962"/>
</g>
<!-- Node77 -->
<g id="node21" class="node">
<title>Node77</title>
<g id="a_node21"><a xlink:href="aktualizr__cycle__simple_8cc_source.html" target="_top" xlink:title="tests/aktualizr_cycle\l_simple.cc">
<polygon fill="#ffffff" stroke="#000000" points="640,-67.5 640,-97.5 747,-97.5 747,-67.5 640,-67.5"/>
<text text-anchor="start" x="648" y="-85.5" font-family="Helvetica,sans-Serif" font-size="10.00" fill="#000000">tests/aktualizr_cycle</text>
<text text-anchor="middle" x="693.5" y="-74.5" font-family="Helvetica,sans-Serif" font-size="10.00" fill="#000000">_simple.cc</text>
</a>
</g>
</g>
<!-- Node76&#45;&gt;Node77 -->
<g id="edge21" class="edge">
<title>Node76&#45;&gt;Node77</title>
<path fill="none" stroke="#191970" d="M780.0188,-134.7718C760.4559,-122.9525 736.1843,-108.2884 718.3322,-97.5028"/>
<polygon fill="#191970" stroke="#191970" points="778.2668,-137.8025 788.6359,-139.978 781.8867,-131.811 778.2668,-137.8025"/>
</g>
<!-- Node78 -->
<g id="node22" class="node">
<title>Node78</title>
<g id="a_node22"><a xlink:href="aktualizr__primary_2main_8cc_source.html" target="_top" xlink:title="src/aktualizr_primary\l/main.cc">
<polygon fill="#ffffff" stroke="#000000" points="125,-.5 125,-30.5 232,-30.5 232,-.5 125,-.5"/>
<text text-anchor="start" x="133" y="-18.5" font-family="Helvetica,sans-Serif" font-size="10.00" fill="#000000">src/aktualizr_primary</text>
<text text-anchor="middle" x="178.5" y="-7.5" font-family="Helvetica,sans-Serif" font-size="10.00" fill="#000000">/main.cc</text>
</a>
</g>
</g>
<!-- Node76&#45;&gt;Node78 -->
<g id="edge23" class="edge">
<title>Node76&#45;&gt;Node78</title>
<path fill="none" stroke="#191970" d="M745.789,-151.305C633.8198,-144.4431 415.3993,-127.6649 344.5,-98 324.0738,-89.4535 324.6219,-78.1635 305.5,-67 280.0215,-52.1255 249.4286,-39.5777 224.6537,-30.5926"/>
<polygon fill="#191970" stroke="#191970" points="745.7638,-154.8097 755.9565,-151.9187 746.1856,-147.8225 745.7638,-154.8097"/>
</g>
<!-- Node79 -->
<g id="node23" class="node">
<title>Node79</title>
<g id="a_node23"><a xlink:href="secondary_8h_source.html" target="_top" xlink:title="src/aktualizr_primary\l/secondary.h">
<polygon fill="#ffffff" stroke="#000000" points="190,-67.5 190,-97.5 297,-97.5 297,-67.5 190,-67.5"/>
<text text-anchor="start" x="198" y="-85.5" font-family="Helvetica,sans-Serif" font-size="10.00" fill="#000000">src/aktualizr_primary</text>
<text text-anchor="middle" x="243.5" y="-74.5" font-family="Helvetica,sans-Serif" font-size="10.00" fill="#000000">/secondary.h</text>
</a>
</g>
</g>
<!-- Node76&#45;&gt;Node79 -->
<g id="edge24" class="edge">
<title>Node76&#45;&gt;Node79</title>
<path fill="none" stroke="#191970" d="M745.7646,-149.7135C649.0067,-141.6173 465.8443,-124.2698 311.5,-98 306.8447,-97.2077 302.0296,-96.297 297.2115,-95.3225"/>
<polygon fill="#191970" stroke="#191970" points="745.7366,-153.2231 755.9917,-150.5616 746.3152,-146.247 745.7366,-153.2231"/>
</g>
<!-- Node81 -->
<g id="node25" class="node">
<title>Node81</title>
<g id="a_node25"><a xlink:href="aktualizr_8cc_source.html" target="_top" xlink:title="src/libaktualizr/primary\l/aktualizr.cc">
<polygon fill="#ffffff" stroke="#000000" points="57,-67.5 57,-97.5 172,-97.5 172,-67.5 57,-67.5"/>
<text text-anchor="start" x="65" y="-85.5" font-family="Helvetica,sans-Serif" font-size="10.00" fill="#000000">src/libaktualizr/primary</text>
<text text-anchor="middle" x="114.5" y="-74.5" font-family="Helvetica,sans-Serif" font-size="10.00" fill="#000000">/aktualizr.cc</text>
</a>
</g>
</g>
<!-- Node76&#45;&gt;Node81 -->
<g id="edge27" class="edge">
<title>Node76&#45;&gt;Node81</title>
<path fill="none" stroke="#191970" d="M745.8229,-152.0392C629.5976,-146.2568 384.8343,-131.025 180.5,-98 177.8276,-97.5681 175.1026,-97.0886 172.3561,-96.5737"/>
<polygon fill="#191970" stroke="#191970" points="745.8312,-155.5437 755.9904,-152.5371 746.1737,-148.5521 745.8312,-155.5437"/>
</g>
<!-- Node82 -->
<g id="node26" class="node">
<title>Node82</title>
<g id="a_node26"><a xlink:href="aktualizr__helpers_8h_source.html" target="_top" xlink:title="src/libaktualizr/primary\l/aktualizr_helpers.h">
<polygon fill="#ffffff" stroke="#000000" points="354,-67.5 354,-97.5 469,-97.5 469,-67.5 354,-67.5"/>
<text text-anchor="start" x="362" y="-85.5" font-family="Helvetica,sans-Serif" font-size="10.00" fill="#000000">src/libaktualizr/primary</text>
<text text-anchor="middle" x="411.5" y="-74.5" font-family="Helvetica,sans-Serif" font-size="10.00" fill="#000000">/aktualizr_helpers.h</text>
</a>
</g>
</g>
<!-- Node76&#45;&gt;Node82 -->
<g id="edge29" class="edge">
<title>Node76&#45;&gt;Node82</title>
<path fill="none" stroke="#191970" d="M745.7566,-142.7826C668.1945,-128.7944 542.4535,-106.1172 469.3157,-92.927"/>
<polygon fill="#191970" stroke="#191970" points="745.4407,-146.282 755.9032,-144.6125 746.6832,-139.3932 745.4407,-146.282"/>
</g>
<!-- Node76&#45;&gt;Node84 -->
<g id="edge39" class="edge">
<title>Node76&#45;&gt;Node84</title>
<path fill="none" stroke="#191970" d="M865.0867,-136.5762C904.792,-122.3957 958.0651,-103.3696 989.6855,-92.0766"/>
<polygon fill="#191970" stroke="#191970" points="863.802,-133.3184 855.5617,-139.978 866.1564,-139.9106 863.802,-133.3184"/>
</g>
<!-- Node76&#45;&gt;Node85 -->
<g id="edge40" class="edge">
<title>Node76&#45;&gt;Node85</title>
<path fill="none" stroke="#191970" d="M881.0951,-140.958C950.5068,-126.5387 1056.6332,-104.4924 1116.7651,-92.0008"/>
<polygon fill="#191970" stroke="#191970" points="880.2093,-137.5672 871.1303,-143.0281 881.6331,-144.4209 880.2093,-137.5672"/>
</g>
<!-- Node79&#45;&gt;Node78 -->
<g id="edge25" class="edge">
<title>Node79&#45;&gt;Node78</title>
<path fill="none" stroke="#191970" d="M221.5992,-59.9253C212.2445,-50.2828 201.5743,-39.2843 193.1911,-30.6432"/>
<polygon fill="#191970" stroke="#191970" points="219.2752,-62.5564 228.7505,-67.2967 224.2994,-57.6821 219.2752,-62.5564"/>
</g>
<!-- Node80 -->
<g id="node24" class="node">
<title>Node80</title>
<g id="a_node24"><a xlink:href="secondary_8cc_source.html" target="_top" xlink:title="src/aktualizr_primary\l/secondary.cc">
<polygon fill="#ffffff" stroke="#000000" points="0,-.5 0,-30.5 107,-30.5 107,-.5 0,-.5"/>
<text text-anchor="start" x="8" y="-18.5" font-family="Helvetica,sans-Serif" font-size="10.00" fill="#000000">src/aktualizr_primary</text>
<text text-anchor="middle" x="53.5" y="-7.5" font-family="Helvetica,sans-Serif" font-size="10.00" fill="#000000">/secondary.cc</text>
</a>
</g>
</g>
<!-- Node79&#45;&gt;Node80 -->
<g id="edge26" class="edge">
<title>Node79&#45;&gt;Node80</title>
<path fill="none" stroke="#191970" d="M191.0437,-64.0023C161.2336,-53.4903 124.3798,-40.4945 96.3257,-30.6017"/>
<polygon fill="#191970" stroke="#191970" points="190.2655,-67.439 200.8603,-67.4639 192.5935,-60.8374 190.2655,-67.439"/>
</g>
<!-- Node82&#45;&gt;Node62 -->
<g id="edge32" class="edge">
<title>Node82&#45;&gt;Node62</title>
<path fill="none" stroke="#191970" d="M422.1468,-57.9021C426.0997,-48.7696 430.4645,-38.6854 433.9455,-30.6432"/>
<polygon fill="#191970" stroke="#191970" points="418.8408,-56.7291 418.0805,-67.2967 425.2649,-59.5097 418.8408,-56.7291"/>
</g>
<!-- Node82&#45;&gt;Node78 -->
<g id="edge30" class="edge">
<title>Node82&#45;&gt;Node78</title>
<path fill="none" stroke="#191970" d="M349.5437,-64.6842C312.5855,-54.0568 266.1689,-40.7095 231.0178,-30.6017"/>
<polygon fill="#191970" stroke="#191970" points="348.6324,-68.064 359.2103,-67.4639 350.567,-61.3366 348.6324,-68.064"/>
</g>
<!-- Node83 -->
<g id="node27" class="node">
<title>Node83</title>
<g id="a_node27"><a xlink:href="aktualizr__helpers_8cc_source.html" target="_top" xlink:title="src/libaktualizr/primary\l/aktualizr_helpers.cc">
<polygon fill="#ffffff" stroke="#000000" points="250,-.5 250,-30.5 365,-30.5 365,-.5 250,-.5"/>
<text text-anchor="start" x="258" y="-18.5" font-family="Helvetica,sans-Serif" font-size="10.00" fill="#000000">src/libaktualizr/primary</text>
<text text-anchor="middle" x="307.5" y="-7.5" font-family="Helvetica,sans-Serif" font-size="10.00" fill="#000000">/aktualizr_helpers.cc</text>
</a>
</g>
</g>
<!-- Node82&#45;&gt;Node83 -->
<g id="edge31" class="edge">
<title>Node82&#45;&gt;Node83</title>
<path fill="none" stroke="#191970" d="M379.361,-61.7951C363.7777,-51.7558 345.3939,-39.9124 331.1216,-30.7177"/>
<polygon fill="#191970" stroke="#191970" points="377.8583,-64.9904 388.1604,-67.4639 381.6494,-59.1058 377.8583,-64.9904"/>
</g>
<!-- Node89&#45;&gt;Node58 -->
<g id="edge54" class="edge">
<title>Node89&#45;&gt;Node58</title>
<path fill="none" stroke="#191970" d="M974.2061,-287.2651C1098.1708,-274.0184 1359.5256,-246.0906 1475.7126,-233.675"/>
<polygon fill="#191970" stroke="#191970" points="973.6547,-283.804 964.0832,-288.3468 974.3985,-290.7643 973.6547,-283.804"/>
</g>
<!-- Node89&#45;&gt;Node62 -->
<g id="edge56" class="edge">
<title>Node89&#45;&gt;Node62</title>
<path fill="none" stroke="#191970" d="M838.856,-280.4564C804.5476,-271.9966 762.7841,-259.6073 727.5,-243 607.8416,-186.6798 493.1633,-71.6944 454.3656,-30.5548"/>
<polygon fill="#191970" stroke="#191970" points="838.2432,-283.9088 848.7847,-282.8471 839.8819,-277.1033 838.2432,-283.9088"/>
</g>
<!-- Node89&#45;&gt;Node69 -->
<g id="edge57" class="edge">
<title>Node89&#45;&gt;Node69</title>
<path fill="none" stroke="#191970" d="M855.1262,-275.6681C786.497,-247.773 666.175,-188.7831 602.5,-98 588.2365,-77.6641 584.525,-48.224 583.6496,-30.5625"/>
<polygon fill="#191970" stroke="#191970" points="853.871,-278.9356 864.4557,-279.3979 856.4696,-272.4357 853.871,-278.9356"/>
</g>
<!-- Node89&#45;&gt;Node76 -->
<g id="edge53" class="edge">
<title>Node89&#45;&gt;Node76</title>
<path fill="none" stroke="#191970" d="M890.6186,-270.6779C871.4398,-241.9098 839.7515,-194.3773 823.6172,-170.1758"/>
<polygon fill="#191970" stroke="#191970" points="887.9111,-272.9264 896.3703,-279.3055 893.7355,-269.0435 887.9111,-272.9264"/>
</g>
<!-- Node89&#45;&gt;Node81 -->
<g id="edge55" class="edge">
<title>Node89&#45;&gt;Node81</title>
<path fill="none" stroke="#191970" d="M838.4617,-292.2503C753.9044,-288.0874 605.8177,-276.2888 483.5,-243 349.6943,-206.5848 201.5379,-130.1441 141.7336,-97.6426"/>
<polygon fill="#191970" stroke="#191970" points="838.5506,-295.7583 848.7041,-292.7324 838.8798,-288.7661 838.5506,-295.7583"/>
</g>
<!-- Node89&#45;&gt;Node84 -->
<g id="edge58" class="edge">
<title>Node89&#45;&gt;Node84</title>
<path fill="none" stroke="#191970" d="M919.1143,-270.1888C943.2232,-223.7244 994.91,-124.1098 1011.3603,-92.4056"/>
<polygon fill="#191970" stroke="#191970" points="915.9099,-268.7652 914.4109,-279.2535 922.1233,-271.9892 915.9099,-268.7652"/>
</g>
<!-- Node89&#45;&gt;Node85 -->
<g id="edge59" class="edge">
<title>Node89&#45;&gt;Node85</title>
<path fill="none" stroke="#191970" d="M932.7764,-272.7399C987.5687,-227.365 1112.1425,-124.2023 1150.8218,-92.171"/>
<polygon fill="#191970" stroke="#191970" points="930.3805,-270.1796 924.9109,-279.2535 934.8452,-275.571 930.3805,-270.1796"/>
</g>
</g>
</svg>
