<?xml version="1.0" encoding="UTF-8" standalone="no"?>
<!DOCTYPE svg PUBLIC "-//W3C//DTD SVG 1.1//EN"
 "http://www.w3.org/Graphics/SVG/1.1/DTD/svg11.dtd">
<!-- Generated by graphviz version 2.40.1 (20161225.0304)
 -->
<!-- Title: BadCredentialsArchive Pages: 1 -->
<svg width="126pt" height="137pt"
 viewBox="0.00 0.00 125.72 137.00" xmlns="http://www.w3.org/2000/svg" xmlns:xlink="http://www.w3.org/1999/xlink">
<g id="graph0" class="graph" transform="scale(1 1) rotate(0) translate(4 133)">
<title>BadCredentialsArchive</title>
<polygon fill="#ffffff" stroke="transparent" points="-4,4 -4,-133 121.7188,-133 121.7188,4 -4,4"/>
<!-- Node0 -->
<g id="node1" class="node">
<title>Node0</title>
<polygon fill="#bfbfbf" stroke="#000000" points="0,-.5 0,-18.5 117.7188,-18.5 117.7188,-.5 0,-.5"/>
<text text-anchor="middle" x="58.8594" y="-6.5" font-family="Helvetica,sans-Serif" font-size="10.00" fill="#000000">BadCredentialsArchive</text>
</g>
<!-- Node1 -->
<g id="node2" class="node">
<title>Node1</title>
<g id="a_node2"><a xlink:title="STL class. ">
<polygon fill="#ffffff" stroke="#bfbfbf" points="11.4014,-55.5 11.4014,-73.5 106.3174,-73.5 106.3174,-55.5 11.4014,-55.5"/>
<text text-anchor="middle" x="58.8594" y="-61.5" font-family="Helvetica,sans-Serif" font-size="10.00" fill="#000000">std::runtime_error</text>
</a>
</g>
</g>
<!-- Node1&#45;&gt;Node0 -->
<g id="edge1" class="edge">
<title>Node1&#45;&gt;Node0</title>
<path fill="none" stroke="#191970" d="M58.8594,-45.383C58.8594,-36.3738 58.8594,-26.0373 58.8594,-18.7795"/>
<polygon fill="#191970" stroke="#191970" points="55.3595,-45.4178 58.8594,-55.4179 62.3595,-45.4179 55.3595,-45.4178"/>
</g>
<!-- Node2 -->
<g id="node3" class="node">
<title>Node2</title>
<g id="a_node3"><a xlink:title="STL class. ">
<polygon fill="#ffffff" stroke="#bfbfbf" points="20.0073,-110.5 20.0073,-128.5 97.7114,-128.5 97.7114,-110.5 20.0073,-110.5"/>
<text text-anchor="middle" x="58.8594" y="-116.5" font-family="Helvetica,sans-Serif" font-size="10.00" fill="#000000">std::exception</text>
</a>
</g>
</g>
<!-- Node2&#45;&gt;Node1 -->
<g id="edge2" class="edge">
<title>Node2&#45;&gt;Node1</title>
<path fill="none" stroke="#191970" d="M58.8594,-100.383C58.8594,-91.3738 58.8594,-81.0373 58.8594,-73.7795"/>
<polygon fill="#191970" stroke="#191970" points="55.3595,-100.4178 58.8594,-110.4179 62.3595,-100.4179 55.3595,-100.4178"/>
</g>
</g>
</svg>
