<?xml version="1.0" encoding="UTF-8" standalone="no"?>
<!DOCTYPE svg PUBLIC "-//W3C//DTD SVG 1.1//EN"
 "http://www.w3.org/Graphics/SVG/1.1/DTD/svg11.dtd">
<!-- Generated by graphviz version 2.40.1 (20161225.0304)
 -->
<!-- Title: event::CampaignCheckComplete Pages: 1 -->
<svg width="238pt" height="233pt"
 viewBox="0.00 0.00 238.33 233.00" xmlns="http://www.w3.org/2000/svg" xmlns:xlink="http://www.w3.org/1999/xlink">
<g id="graph0" class="graph" transform="scale(1 1) rotate(0) translate(4 229)">
<title>event::CampaignCheckComplete</title>
<polygon fill="#ffffff" stroke="transparent" points="-4,4 -4,-229 234.3271,-229 234.3271,4 -4,4"/>
<!-- Node2 -->
<g id="node1" class="node">
<title>Node2</title>
<polygon fill="#bfbfbf" stroke="#000000" points="26.8203,-.5 26.8203,-18.5 189.5635,-18.5 189.5635,-.5 26.8203,-.5"/>
<text text-anchor="middle" x="108.1919" y="-6.5" font-family="Helvetica,sans-Serif" font-size="10.00" fill="#000000">event::CampaignCheckComplete</text>
</g>
<!-- Node3 -->
<g id="node2" class="node">
<title>Node3</title>
<g id="a_node2"><a xlink:href="classevent_1_1_base_event.html" target="_top" xlink:title="Base class for all event objects. ">
<polygon fill="#ffffff" stroke="#000000" points="0,-65.5 0,-83.5 94.3838,-83.5 94.3838,-65.5 0,-65.5"/>
<text text-anchor="middle" x="47.1919" y="-71.5" font-family="Helvetica,sans-Serif" font-size="10.00" fill="#000000">event::BaseEvent</text>
</a>
</g>
</g>
<!-- Node3&#45;&gt;Node2 -->
<g id="edge1" class="edge">
<title>Node3&#45;&gt;Node2</title>
<path fill="none" stroke="#191970" d="M62.6519,-58.0262C74.2802,-45.6354 89.799,-29.0989 99.3871,-18.8821"/>
<polygon fill="#191970" stroke="#191970" points="59.9647,-55.775 55.6737,-65.462 65.069,-60.5652 59.9647,-55.775"/>
</g>
<!-- Node4 -->
<g id="node3" class="node">
<title>Node4</title>
<g id="a_node3"><a xlink:title="STL class. ">
<polygon fill="#ffffff" stroke="#bfbfbf" points="17.5171,-135.5 17.5171,-153.5 76.8667,-153.5 76.8667,-135.5 17.5171,-135.5"/>
<text text-anchor="middle" x="47.1919" y="-141.5" font-family="Helvetica,sans-Serif" font-size="10.00" fill="#000000">std::string</text>
</a>
</g>
</g>
<!-- Node4&#45;&gt;Node3 -->
<g id="edge2" class="edge">
<title>Node4&#45;&gt;Node3</title>
<path fill="none" stroke="#9a32cd" stroke-dasharray="5,2" d="M47.1919,-125.2039C47.1919,-111.7531 47.1919,-94.3986 47.1919,-83.8769"/>
<polygon fill="#9a32cd" stroke="#9a32cd" points="43.692,-125.3487 47.1919,-135.3487 50.692,-125.3488 43.692,-125.3487"/>
<text text-anchor="middle" x="63.5884" y="-104" font-family="Helvetica,sans-Serif" font-size="10.00" fill="#000000"> variant</text>
</g>
<!-- Node5 -->
<g id="node4" class="node">
<title>Node5</title>
<g id="a_node4"><a xlink:title="STL class. ">
<polygon fill="#ffffff" stroke="#bfbfbf" points=".144,-196.5 .144,-224.5 94.2397,-224.5 94.2397,-196.5 .144,-196.5"/>
<text text-anchor="start" x="8.144" y="-212.5" font-family="Helvetica,sans-Serif" font-size="10.00" fill="#000000">std::basic_string&lt;</text>
<text text-anchor="middle" x="47.1919" y="-202.5" font-family="Helvetica,sans-Serif" font-size="10.00" fill="#000000"> char &gt;</text>
</a>
</g>
</g>
<!-- Node5&#45;&gt;Node4 -->
<g id="edge3" class="edge">
<title>Node5&#45;&gt;Node4</title>
<path fill="none" stroke="#191970" d="M47.1919,-186.0035C47.1919,-174.7414 47.1919,-162.0613 47.1919,-153.7139"/>
<polygon fill="#191970" stroke="#191970" points="43.692,-186.1789 47.1919,-196.179 50.692,-186.179 43.692,-186.1789"/>
</g>
<!-- Node6 -->
<g id="node5" class="node">
<title>Node6</title>
<g id="a_node5"><a xlink:href="class_campaign_check_result.html" target="_top" xlink:title="Container for information about available campaigns. ">
<polygon fill="#ffffff" stroke="#000000" points="112.0566,-65.5 112.0566,-83.5 230.3271,-83.5 230.3271,-65.5 112.0566,-65.5"/>
<text text-anchor="middle" x="171.1919" y="-71.5" font-family="Helvetica,sans-Serif" font-size="10.00" fill="#000000">CampaignCheckResult</text>
</a>
</g>
</g>
<!-- Node6&#45;&gt;Node2 -->
<g id="edge4" class="edge">
<title>Node6&#45;&gt;Node2</title>
<path fill="none" stroke="#9a32cd" stroke-dasharray="5,2" d="M155.225,-58.0262C143.2154,-45.6354 127.1878,-29.0989 117.2854,-18.8821"/>
<polygon fill="#9a32cd" stroke="#9a32cd" points="152.959,-60.7172 162.432,-65.462 157.9855,-55.8454 152.959,-60.7172"/>
<text text-anchor="middle" x="157.8076" y="-39" font-family="Helvetica,sans-Serif" font-size="10.00" fill="#000000"> result</text>
</g>
<!-- Node7 -->
<g id="node6" class="node">
<title>Node7</title>
<polygon fill="#ffffff" stroke="#bfbfbf" points="114.1392,-130.5 114.1392,-158.5 228.2446,-158.5 228.2446,-130.5 114.1392,-130.5"/>
<text text-anchor="start" x="122.1392" y="-146.5" font-family="Helvetica,sans-Serif" font-size="10.00" fill="#000000">std::vector&lt; campaign</text>
<text text-anchor="middle" x="171.1919" y="-136.5" font-family="Helvetica,sans-Serif" font-size="10.00" fill="#000000">::Campaign &gt;</text>
</g>
<!-- Node7&#45;&gt;Node6 -->
<g id="edge5" class="edge">
<title>Node7&#45;&gt;Node6</title>
<path fill="none" stroke="#9a32cd" stroke-dasharray="5,2" d="M171.1919,-120.007C171.1919,-107.4648 171.1919,-92.9386 171.1919,-83.7368"/>
<polygon fill="#9a32cd" stroke="#9a32cd" points="167.692,-120.3344 171.1919,-130.3345 174.692,-120.3345 167.692,-120.3344"/>
<text text-anchor="middle" x="196.7607" y="-104" font-family="Helvetica,sans-Serif" font-size="10.00" fill="#000000"> campaigns</text>
</g>
</g>
</svg>
