<?xml version="1.0" encoding="UTF-8" standalone="no"?>
<!DOCTYPE svg PUBLIC "-//W3C//DTD SVG 1.1//EN"
 "http://www.w3.org/Graphics/SVG/1.1/DTD/svg11.dtd">
<!-- Generated by graphviz version 2.40.1 (20161225.0304)
 -->
<!-- Title: Uptane::Exception Pages: 1 -->
<!--zoomable 508 -->
<svg id="main" version="1.1" xmlns="http://www.w3.org/2000/svg" xmlns:xlink="http://www.w3.org/1999/xlink" xml:space="preserve" onload="init(evt)">
<style type="text/css"><![CDATA[
.edge:hover path { stroke: red; }
.edge:hover polygon { stroke: red; fill: red; }
]]></style>
<script type="text/javascript"><![CDATA[
var edges = document.getElementsByTagName('g');
if (edges && edges.length) {
  for (var i=0;i<edges.length;i++) {
    if (edges[i].id.substr(0,4)=='edge') {
      edges[i].setAttribute('class','edge');
    }
  }
}
]]></script>
        <defs>
                <circle id="rim" cx="0" cy="0" r="7"/>
                <circle id="rim2" cx="0" cy="0" r="3.5"/>
                <g id="zoomPlus">
                        <use xlink:href="#rim" fill="#404040">
                                <set attributeName="fill" to="#808080" begin="zoomplus.mouseover" end="zoomplus.mouseout"/>
                        </use>
                        <path d="M-4,0h8M0,-4v8" fill="none" stroke="white" stroke-width="1.5" pointer-events="none"/>
                </g>
                <g id="zoomMin">
                        <use xlink:href="#rim" fill="#404040">
                                <set attributeName="fill" to="#808080" begin="zoomminus.mouseover" end="zoomminus.mouseout"/>
                        </use>
                        <path d="M-4,0h8" fill="none" stroke="white" stroke-width="1.5" pointer-events="none"/>
                </g>
                <g id="dirArrow">
                        <path fill="none" stroke="white" stroke-width="1.5" d="M0,-3.0v7 M-2.5,-0.5L0,-3.0L2.5,-0.5"/>
                </g>
               <g id="resetDef">
                       <use xlink:href="#rim2" fill="#404040">
                               <set attributeName="fill" to="#808080" begin="reset.mouseover" end="reset.mouseout"/>
                       </use>
               </g>
        </defs>

<script type="text/javascript">
var viewWidth = 525;
var viewHeight = 508;
var sectionId = 'dynsection-0';
</script>
<script xlink:href="svgpan.js"/>
<svg id="graph" class="graph">
<g id="viewport">
<title>Uptane::Exception</title>
<polygon fill="#ffffff" stroke="transparent" points="-4,4 -4,-504 521.2051,-504 521.2051,4 -4,4"/>
<!-- Node0 -->
<g id="node1" class="node">
<title>Node0</title>
<polygon fill="#bfbfbf" stroke="#000000" points="231.8418,-240.5 231.8418,-258.5 329.5605,-258.5 329.5605,-240.5 231.8418,-240.5"/>
<text text-anchor="middle" x="280.7012" y="-246.5" font-family="Helvetica,sans-Serif" font-size="10.00" fill="#000000">Uptane::Exception</text>
</g>
<!-- Node3 -->
<g id="node4" class="node">
<title>Node3</title>
<g id="a_node4"><a xlink:href="class_uptane_1_1_bad_ecu_id.html" target="_top" xlink:title="Uptane::BadEcuId">
<polygon fill="#ffffff" stroke="#000000" points="392.7993,-481.5 392.7993,-499.5 489.9663,-499.5 489.9663,-481.5 392.7993,-481.5"/>
<text text-anchor="middle" x="441.3828" y="-487.5" font-family="Helvetica,sans-Serif" font-size="10.00" fill="#000000">Uptane::BadEcuId</text>
</a>
</g>
</g>
<!-- Node0&#45;&gt;Node3 -->
<g id="edge3" class="edge">
<title>Node0&#45;&gt;Node3</title>
<path fill="none" stroke="#191970" d="M282.1587,-268.9245C286.5003,-312.3646 303.2462,-417.8315 365.5605,-472.5 373.1883,-479.1918 382.8545,-483.5076 392.7101,-486.2652"/>
<polygon fill="#191970" stroke="#191970" points="285.6348,-268.4984 281.2682,-258.8453 278.6619,-269.1145 285.6348,-268.4984"/>
</g>
<!-- Node4 -->
<g id="node5" class="node">
<title>Node4</title>
<g id="a_node5"><a xlink:href="class_uptane_1_1_bad_hardware_id.html" target="_top" xlink:title="Uptane::BadHardwareId">
<polygon fill="#ffffff" stroke="#000000" points="379.7402,-444.5 379.7402,-462.5 503.0254,-462.5 503.0254,-444.5 379.7402,-444.5"/>
<text text-anchor="middle" x="441.3828" y="-450.5" font-family="Helvetica,sans-Serif" font-size="10.00" fill="#000000">Uptane::BadHardwareId</text>
</a>
</g>
</g>
<!-- Node0&#45;&gt;Node4 -->
<g id="edge4" class="edge">
<title>Node0&#45;&gt;Node4</title>
<path fill="none" stroke="#191970" d="M283.7686,-268.7552C290.8755,-306.7731 312.1322,-391.5896 365.5605,-435.5 369.9505,-439.1079 374.9409,-442.0165 380.2166,-444.3581"/>
<polygon fill="#191970" stroke="#191970" points="287.1568,-267.8097 281.9973,-258.5561 280.2601,-269.0075 287.1568,-267.8097"/>
</g>
<!-- Node5 -->
<g id="node6" class="node">
<title>Node5</title>
<g id="a_node6"><a xlink:href="class_uptane_1_1_bad_key_id.html" target="_top" xlink:title="Uptane::BadKeyId">
<polygon fill="#ffffff" stroke="#000000" points="392.7993,-407.5 392.7993,-425.5 489.9663,-425.5 489.9663,-407.5 392.7993,-407.5"/>
<text text-anchor="middle" x="441.3828" y="-413.5" font-family="Helvetica,sans-Serif" font-size="10.00" fill="#000000">Uptane::BadKeyId</text>
</a>
</g>
</g>
<!-- Node0&#45;&gt;Node5 -->
<g id="edge5" class="edge">
<title>Node0&#45;&gt;Node5</title>
<path fill="none" stroke="#191970" d="M286.0262,-268.4257C296.0414,-300.4161 320.8091,-364.9655 365.5605,-398.5 373.4642,-404.4226 383.0257,-408.4311 392.6569,-411.1356"/>
<polygon fill="#191970" stroke="#191970" points="289.3002,-267.1566 283.0904,-258.5724 282.5917,-269.1555 289.3002,-267.1566"/>
</g>
<!-- Node6 -->
<g id="node7" class="node">
<title>Node6</title>
<g id="a_node7"><a xlink:href="class_uptane_1_1_expired_metadata.html" target="_top" xlink:title="Uptane::ExpiredMetadata">
<polygon fill="#ffffff" stroke="#000000" points="376.6812,-370.5 376.6812,-388.5 506.0845,-388.5 506.0845,-370.5 376.6812,-370.5"/>
<text text-anchor="middle" x="441.3828" y="-376.5" font-family="Helvetica,sans-Serif" font-size="10.00" fill="#000000">Uptane::ExpiredMetadata</text>
</a>
</g>
</g>
<!-- Node0&#45;&gt;Node6 -->
<g id="edge6" class="edge">
<title>Node0&#45;&gt;Node6</title>
<path fill="none" stroke="#191970" d="M289.5044,-267.9474C302.5068,-293.1334 329.2788,-337.8462 365.5605,-361.5 371.2273,-365.1944 377.5729,-368.1324 384.116,-370.4684"/>
<polygon fill="#191970" stroke="#191970" points="292.5171,-266.1456 284.9253,-258.7554 286.2515,-269.2669 292.5171,-266.1456"/>
</g>
<!-- Node7 -->
<g id="node8" class="node">
<title>Node7</title>
<g id="a_node8"><a xlink:href="class_uptane_1_1_illegal_rsa_key_size.html" target="_top" xlink:title="Uptane::IllegalRsaKeySize">
<polygon fill="#ffffff" stroke="#000000" points="374.1836,-333.5 374.1836,-351.5 508.582,-351.5 508.582,-333.5 374.1836,-333.5"/>
<text text-anchor="middle" x="441.3828" y="-339.5" font-family="Helvetica,sans-Serif" font-size="10.00" fill="#000000">Uptane::IllegalRsaKeySize</text>
</a>
</g>
</g>
<!-- Node0&#45;&gt;Node7 -->
<g id="edge7" class="edge">
<title>Node0&#45;&gt;Node7</title>
<path fill="none" stroke="#191970" d="M295.0641,-266.3441C310.6757,-283.5605 337.2112,-309.7971 365.5605,-324.5 372.6466,-328.1751 380.4938,-331.1122 388.3749,-333.4564"/>
<polygon fill="#191970" stroke="#191970" points="297.5613,-263.8844 288.3176,-258.707 292.3151,-268.5188 297.5613,-263.8844"/>
</g>
<!-- Node8 -->
<g id="node9" class="node">
<title>Node8</title>
<g id="a_node9"><a xlink:href="class_uptane_1_1_illegal_threshold.html" target="_top" xlink:title="Uptane::IllegalThreshold">
<polygon fill="#ffffff" stroke="#000000" points="379.1836,-296.5 379.1836,-314.5 503.582,-314.5 503.582,-296.5 379.1836,-296.5"/>
<text text-anchor="middle" x="441.3828" y="-302.5" font-family="Helvetica,sans-Serif" font-size="10.00" fill="#000000">Uptane::IllegalThreshold</text>
</a>
</g>
</g>
<!-- Node0&#45;&gt;Node8 -->
<g id="edge8" class="edge">
<title>Node0&#45;&gt;Node8</title>
<path fill="none" stroke="#191970" d="M307.2249,-262.9292C323.7031,-270.8792 345.4981,-280.6941 365.5605,-287.5 375.5541,-290.8902 386.4968,-293.8855 396.8824,-296.4118"/>
<polygon fill="#191970" stroke="#191970" points="308.7103,-259.7594 298.1905,-258.5007 305.6292,-266.0449 308.7103,-259.7594"/>
</g>
<!-- Node9 -->
<g id="node10" class="node">
<title>Node9</title>
<g id="a_node10"><a xlink:href="class_uptane_1_1_invalid_metadata.html" target="_top" xlink:title="Uptane::InvalidMetadata">
<polygon fill="#ffffff" stroke="#000000" points="379.1812,-259.5 379.1812,-277.5 503.5845,-277.5 503.5845,-259.5 379.1812,-259.5"/>
<text text-anchor="middle" x="441.3828" y="-265.5" font-family="Helvetica,sans-Serif" font-size="10.00" fill="#000000">Uptane::InvalidMetadata</text>
</a>
</g>
</g>
<!-- Node0&#45;&gt;Node9 -->
<g id="edge9" class="edge">
<title>Node0&#45;&gt;Node9</title>
<path fill="none" stroke="#191970" d="M339.8145,-256.4899C352.5605,-257.9971 366.0744,-259.5951 378.9428,-261.1167"/>
<polygon fill="#191970" stroke="#191970" points="340.1259,-253.0025 329.7841,-255.3039 339.3038,-259.954 340.1259,-253.0025"/>
</g>
<!-- Node10 -->
<g id="node11" class="node">
<title>Node10</title>
<g id="a_node11"><a xlink:href="class_uptane_1_1_missing_repo.html" target="_top" xlink:title="Uptane::MissingRepo">
<polygon fill="#ffffff" stroke="#000000" points="385.5801,-222.5 385.5801,-240.5 497.1855,-240.5 497.1855,-222.5 385.5801,-222.5"/>
<text text-anchor="middle" x="441.3828" y="-228.5" font-family="Helvetica,sans-Serif" font-size="10.00" fill="#000000">Uptane::MissingRepo</text>
</a>
</g>
</g>
<!-- Node0&#45;&gt;Node10 -->
<g id="edge10" class="edge">
<title>Node0&#45;&gt;Node10</title>
<path fill="none" stroke="#191970" d="M339.9227,-242.8658C354.8492,-241.1937 370.8226,-239.4043 385.5753,-237.7517"/>
<polygon fill="#191970" stroke="#191970" points="339.3322,-239.41 329.7841,-244.0016 340.1116,-246.3665 339.3322,-239.41"/>
</g>
<!-- Node11 -->
<g id="node12" class="node">
<title>Node11</title>
<g id="a_node12"><a xlink:href="class_uptane_1_1_miss_match_target.html" target="_top" xlink:title="Uptane::MissMatchTarget">
<polygon fill="#ffffff" stroke="#000000" points="376.6934,-185.5 376.6934,-203.5 506.0723,-203.5 506.0723,-185.5 376.6934,-185.5"/>
<text text-anchor="middle" x="441.3828" y="-191.5" font-family="Helvetica,sans-Serif" font-size="10.00" fill="#000000">Uptane::MissMatchTarget</text>
</a>
</g>
</g>
<!-- Node0&#45;&gt;Node11 -->
<g id="edge11" class="edge">
<title>Node0&#45;&gt;Node11</title>
<path fill="none" stroke="#191970" d="M308.3578,-235.9487C324.7125,-228.3147 345.9917,-219.0311 365.5605,-212.5 375.6991,-209.1163 386.8008,-206.1068 397.3057,-203.5629"/>
<polygon fill="#191970" stroke="#191970" points="306.4052,-233.0011 298.8704,-240.4494 309.4055,-239.3256 306.4052,-233.0011"/>
</g>
<!-- Node12 -->
<g id="node13" class="node">
<title>Node12</title>
<g id="a_node13"><a xlink:href="class_uptane_1_1_non_unique_signatures.html" target="_top" xlink:title="Uptane::NonUniqueSignatures">
<polygon fill="#ffffff" stroke="#000000" points="365.5605,-148.5 365.5605,-166.5 517.2051,-166.5 517.2051,-148.5 365.5605,-148.5"/>
<text text-anchor="middle" x="441.3828" y="-154.5" font-family="Helvetica,sans-Serif" font-size="10.00" fill="#000000">Uptane::NonUniqueSignatures</text>
</a>
</g>
</g>
<!-- Node0&#45;&gt;Node12 -->
<g id="edge12" class="edge">
<title>Node0&#45;&gt;Node12</title>
<path fill="none" stroke="#191970" d="M295.3602,-232.6168C311.0421,-215.6321 337.4773,-189.9465 365.5605,-175.5 372.6588,-171.8485 380.5126,-168.9241 388.3966,-166.5855"/>
<polygon fill="#191970" stroke="#191970" points="292.6523,-230.3936 288.5654,-240.1685 297.856,-235.0757 292.6523,-230.3936"/>
</g>
<!-- Node13 -->
<g id="node14" class="node">
<title>Node13</title>
<g id="a_node14"><a xlink:href="class_uptane_1_1_oversized_target.html" target="_top" xlink:title="Uptane::OversizedTarget">
<polygon fill="#ffffff" stroke="#000000" points="378.0776,-111.5 378.0776,-129.5 504.688,-129.5 504.688,-111.5 378.0776,-111.5"/>
<text text-anchor="middle" x="441.3828" y="-117.5" font-family="Helvetica,sans-Serif" font-size="10.00" fill="#000000">Uptane::OversizedTarget</text>
</a>
</g>
</g>
<!-- Node0&#45;&gt;Node13 -->
<g id="edge13" class="edge">
<title>Node0&#45;&gt;Node13</title>
<path fill="none" stroke="#191970" d="M289.548,-231.2171C302.6017,-206.2557 329.4335,-161.9418 365.5605,-138.5 371.2353,-134.8178 377.5858,-131.8873 384.1315,-129.5554"/>
<polygon fill="#191970" stroke="#191970" points="286.3311,-229.8228 284.9488,-240.3271 292.58,-232.9776 286.3311,-229.8228"/>
</g>
<!-- Node14 -->
<g id="node15" class="node">
<title>Node14</title>
<g id="a_node15"><a xlink:href="class_uptane_1_1_security_exception.html" target="_top" xlink:title="Uptane::SecurityException">
<polygon fill="#ffffff" stroke="#000000" points="374.4619,-74.5 374.4619,-92.5 508.3037,-92.5 508.3037,-74.5 374.4619,-74.5"/>
<text text-anchor="middle" x="441.3828" y="-80.5" font-family="Helvetica,sans-Serif" font-size="10.00" fill="#000000">Uptane::SecurityException</text>
</a>
</g>
</g>
<!-- Node0&#45;&gt;Node14 -->
<g id="edge14" class="edge">
<title>Node0&#45;&gt;Node14</title>
<path fill="none" stroke="#191970" d="M286.0641,-230.6993C296.1363,-198.9207 320.9873,-134.8 365.5605,-101.5 370.438,-97.8562 375.9435,-94.9372 381.7056,-92.6008"/>
<polygon fill="#191970" stroke="#191970" points="282.6487,-229.9026 283.1097,-240.4874 289.3501,-231.9254 282.6487,-229.9026"/>
</g>
<!-- Node15 -->
<g id="node16" class="node">
<title>Node15</title>
<g id="a_node16"><a xlink:href="class_uptane_1_1_target_hash_mismatch.html" target="_top" xlink:title="Uptane::TargetHashMismatch">
<polygon fill="#ffffff" stroke="#000000" points="367.521,-37.5 367.521,-55.5 515.2446,-55.5 515.2446,-37.5 367.521,-37.5"/>
<text text-anchor="middle" x="441.3828" y="-43.5" font-family="Helvetica,sans-Serif" font-size="10.00" fill="#000000">Uptane::TargetHashMismatch</text>
</a>
</g>
</g>
<!-- Node0&#45;&gt;Node15 -->
<g id="edge15" class="edge">
<title>Node0&#45;&gt;Node15</title>
<path fill="none" stroke="#191970" d="M283.8016,-230.346C290.9678,-192.5283 312.3253,-108.1609 365.5605,-64.5 369.9542,-60.8965 374.9471,-57.991 380.2243,-55.6513"/>
<polygon fill="#191970" stroke="#191970" points="280.3024,-230.0357 282.0137,-240.4915 287.1962,-231.2507 280.3024,-230.0357"/>
</g>
<!-- Node16 -->
<g id="node17" class="node">
<title>Node16</title>
<g id="a_node17"><a xlink:href="class_uptane_1_1_unmet_threshold.html" target="_top" xlink:title="Uptane::UnmetThreshold">
<polygon fill="#ffffff" stroke="#000000" points="377.521,-.5 377.521,-18.5 505.2446,-18.5 505.2446,-.5 377.521,-.5"/>
<text text-anchor="middle" x="441.3828" y="-6.5" font-family="Helvetica,sans-Serif" font-size="10.00" fill="#000000">Uptane::UnmetThreshold</text>
</a>
</g>
</g>
<!-- Node0&#45;&gt;Node16 -->
<g id="edge16" class="edge">
<title>Node0&#45;&gt;Node16</title>
<path fill="none" stroke="#191970" d="M282.1877,-230.1604C286.589,-186.9106 303.4495,-81.908 365.5605,-27.5 369.7331,-23.8449 374.514,-20.8989 379.6013,-18.5286"/>
<polygon fill="#191970" stroke="#191970" points="278.6952,-229.9216 281.2829,-240.1955 285.6669,-230.5503 278.6952,-229.9216"/>
</g>
<!-- Node1 -->
<g id="node2" class="node">
<title>Node1</title>
<g id="a_node2"><a xlink:title="STL class. ">
<polygon fill="#ffffff" stroke="#bfbfbf" points="113.7041,-240.5 113.7041,-258.5 195.8418,-258.5 195.8418,-240.5 113.7041,-240.5"/>
<text text-anchor="middle" x="154.7729" y="-246.5" font-family="Helvetica,sans-Serif" font-size="10.00" fill="#000000">std::logic_error</text>
</a>
</g>
</g>
<!-- Node1&#45;&gt;Node0 -->
<g id="edge1" class="edge">
<title>Node1&#45;&gt;Node0</title>
<path fill="none" stroke="#191970" d="M206.0611,-249.5C214.4551,-249.5 223.1361,-249.5 231.4786,-249.5"/>
<polygon fill="#191970" stroke="#191970" points="206.0066,-246.0001 196.0066,-249.5 206.0065,-253.0001 206.0066,-246.0001"/>
</g>
<!-- Node2 -->
<g id="node3" class="node">
<title>Node2</title>
<g id="a_node3"><a xlink:title="STL class. ">
<polygon fill="#ffffff" stroke="#bfbfbf" points="0,-240.5 0,-258.5 77.7041,-258.5 77.7041,-240.5 0,-240.5"/>
<text text-anchor="middle" x="38.8521" y="-246.5" font-family="Helvetica,sans-Serif" font-size="10.00" fill="#000000">std::exception</text>
</a>
</g>
</g>
<!-- Node2&#45;&gt;Node1 -->
<g id="edge2" class="edge">
<title>Node2&#45;&gt;Node1</title>
<path fill="none" stroke="#191970" d="M87.9282,-249.5C96.399,-249.5 105.1292,-249.5 113.3716,-249.5"/>
<polygon fill="#191970" stroke="#191970" points="87.7745,-246.0001 77.7745,-249.5 87.7745,-253.0001 87.7745,-246.0001"/>
</g>
</g>
</svg>
        <g id="navigator" transform="translate(0 0)" fill="#404254">
                <rect fill="#f2f5e9" fill-opacity="0.5" stroke="#606060" stroke-width=".5" x="0" y="0" width="60" height="60"/>
                <use id="zoomplus" xlink:href="#zoomPlus" x="17" y="9" onmousedown="handleZoom(evt,'in')"/>
                <use id="zoomminus" xlink:href="#zoomMin" x="42" y="9" onmousedown="handleZoom(evt,'out')"/>
                <use id="reset" xlink:href="#resetDef" x="30" y="36" onmousedown="handleReset()"/>
                <g id="arrowUp" xlink:href="#dirArrow" transform="translate(30 24)" onmousedown="handlePan(0,-1)">
                  <use xlink:href="#rim" fill="#404040">
                        <set attributeName="fill" to="#808080" begin="arrowUp.mouseover" end="arrowUp.mouseout"/>
                  </use>
                  <path fill="none" stroke="white" stroke-width="1.5" d="M0,-3.0v7 M-2.5,-0.5L0,-3.0L2.5,-0.5"/>
                </g>
                <g id="arrowRight" xlink:href="#dirArrow" transform="rotate(90) translate(36 -43)" onmousedown="handlePan(1,0)">
                  <use xlink:href="#rim" fill="#404040">
                        <set attributeName="fill" to="#808080" begin="arrowRight.mouseover" end="arrowRight.mouseout"/>
                  </use>
                  <path fill="none" stroke="white" stroke-width="1.5" d="M0,-3.0v7 M-2.5,-0.5L0,-3.0L2.5,-0.5"/>
                </g>
                <g id="arrowDown" xlink:href="#dirArrow" transform="rotate(180) translate(-30 -48)" onmousedown="handlePan(0,1)">
                  <use xlink:href="#rim" fill="#404040">
                        <set attributeName="fill" to="#808080" begin="arrowDown.mouseover" end="arrowDown.mouseout"/>
                  </use>
                  <path fill="none" stroke="white" stroke-width="1.5" d="M0,-3.0v7 M-2.5,-0.5L0,-3.0L2.5,-0.5"/>
                </g>
                <g id="arrowLeft" xlink:href="#dirArrow" transform="rotate(270) translate(-36 17)" onmousedown="handlePan(-1,0)">
                  <use xlink:href="#rim" fill="#404040">
                        <set attributeName="fill" to="#808080" begin="arrowLeft.mouseover" end="arrowLeft.mouseout"/>
                  </use>
                  <path fill="none" stroke="white" stroke-width="1.5" d="M0,-3.0v7 M-2.5,-0.5L0,-3.0L2.5,-0.5"/>
                </g>
        </g>
        <svg viewBox="0 0 15 15" width="100%" height="30px" preserveAspectRatio="xMaxYMin meet">
         <g id="arrow_out" transform="scale(0.3 0.3)">
          <a xlink:href="class_uptane_1_1_exception__inherit__graph_org.svg" target="_base">
           <rect id="button" ry="5" rx="5" y="6" x="6" height="38" width="38"
                fill="#f2f5e9" fill-opacity="0.5" stroke="#606060" stroke-width="1.0"/>
           <path id="arrow"
             d="M 11.500037,31.436501 C 11.940474,20.09759 22.043105,11.32322 32.158766,21.979434 L 37.068811,17.246167 C 37.068811,17.246167 37.088388,32 37.088388,32 L 22.160133,31.978069 C 22.160133,31.978069 26.997745,27.140456 26.997745,27.140456 C 18.528582,18.264221 13.291696,25.230495 11.500037,31.436501 z"
             style="fill:#404040;"/>
          </a>
         </g>
        </svg>
</svg>
