<?xml version="1.0" encoding="UTF-8" standalone="no"?>
<!DOCTYPE svg PUBLIC "-//W3C//DTD SVG 1.1//EN"
 "http://www.w3.org/Graphics/SVG/1.1/DTD/svg11.dtd">
<!-- Generated by graphviz version 2.40.1 (20161225.0304)
 -->
<!-- Title: TimeStamp::InvalidTimeStamp Pages: 1 -->
<svg width="160pt" height="192pt"
 viewBox="0.00 0.00 159.98 192.00" xmlns="http://www.w3.org/2000/svg" xmlns:xlink="http://www.w3.org/1999/xlink">
<g id="graph0" class="graph" transform="scale(1 1) rotate(0) translate(4 188)">
<title>TimeStamp::InvalidTimeStamp</title>
<polygon fill="#ffffff" stroke="transparent" points="-4,4 -4,-188 155.9766,-188 155.9766,4 -4,4"/>
<!-- Node4 -->
<g id="node1" class="node">
<title>Node4</title>
<polygon fill="#bfbfbf" stroke="#000000" points="0,-.5 0,-18.5 151.9766,-18.5 151.9766,-.5 0,-.5"/>
<text text-anchor="middle" x="75.9883" y="-6.5" font-family="Helvetica,sans-Serif" font-size="10.00" fill="#000000">TimeStamp::InvalidTimeStamp</text>
</g>
<!-- Node5 -->
<g id="node2" class="node">
<title>Node5</title>
<g id="a_node2"><a xlink:title="STL class. ">
<polygon fill="#ffffff" stroke="#bfbfbf" points="28.8037,-55.5 28.8037,-73.5 123.1729,-73.5 123.1729,-55.5 28.8037,-55.5"/>
<text text-anchor="middle" x="75.9883" y="-61.5" font-family="Helvetica,sans-Serif" font-size="10.00" fill="#000000">std::domain_error</text>
</a>
</g>
</g>
<!-- Node5&#45;&gt;Node4 -->
<g id="edge1" class="edge">
<title>Node5&#45;&gt;Node4</title>
<path fill="none" stroke="#191970" d="M75.9883,-45.383C75.9883,-36.3738 75.9883,-26.0373 75.9883,-18.7795"/>
<polygon fill="#191970" stroke="#191970" points="72.4884,-45.4178 75.9883,-55.4179 79.4884,-45.4179 72.4884,-45.4178"/>
</g>
<!-- Node6 -->
<g id="node3" class="node">
<title>Node6</title>
<g id="a_node3"><a xlink:title="STL class. ">
<polygon fill="#ffffff" stroke="#bfbfbf" points="34.9194,-110.5 34.9194,-128.5 117.0571,-128.5 117.0571,-110.5 34.9194,-110.5"/>
<text text-anchor="middle" x="75.9883" y="-116.5" font-family="Helvetica,sans-Serif" font-size="10.00" fill="#000000">std::logic_error</text>
</a>
</g>
</g>
<!-- Node6&#45;&gt;Node5 -->
<g id="edge2" class="edge">
<title>Node6&#45;&gt;Node5</title>
<path fill="none" stroke="#191970" d="M75.9883,-100.383C75.9883,-91.3738 75.9883,-81.0373 75.9883,-73.7795"/>
<polygon fill="#191970" stroke="#191970" points="72.4884,-100.4178 75.9883,-110.4179 79.4884,-100.4179 72.4884,-100.4178"/>
</g>
<!-- Node7 -->
<g id="node4" class="node">
<title>Node7</title>
<g id="a_node4"><a xlink:title="STL class. ">
<polygon fill="#ffffff" stroke="#bfbfbf" points="37.1362,-165.5 37.1362,-183.5 114.8403,-183.5 114.8403,-165.5 37.1362,-165.5"/>
<text text-anchor="middle" x="75.9883" y="-171.5" font-family="Helvetica,sans-Serif" font-size="10.00" fill="#000000">std::exception</text>
</a>
</g>
</g>
<!-- Node7&#45;&gt;Node6 -->
<g id="edge3" class="edge">
<title>Node7&#45;&gt;Node6</title>
<path fill="none" stroke="#191970" d="M75.9883,-155.383C75.9883,-146.3738 75.9883,-136.0373 75.9883,-128.7795"/>
<polygon fill="#191970" stroke="#191970" points="72.4884,-155.4178 75.9883,-165.4179 79.4884,-155.4179 72.4884,-155.4178"/>
</g>
</g>
</svg>
