<?xml version="1.0" encoding="UTF-8" standalone="no"?>
<!DOCTYPE svg PUBLIC "-//W3C//DTD SVG 1.1//EN"
 "http://www.w3.org/Graphics/SVG/1.1/DTD/svg11.dtd">
<!-- Generated by graphviz version 2.40.1 (20161225.0304)
 -->
<!-- Title: event::DownloadPaused Pages: 1 -->
<svg width="132pt" height="214pt"
 viewBox="0.00 0.00 132.41 214.00" xmlns="http://www.w3.org/2000/svg" xmlns:xlink="http://www.w3.org/1999/xlink">
<g id="graph0" class="graph" transform="scale(1 1) rotate(0) translate(4 210)">
<title>event::DownloadPaused</title>
<polygon fill="#ffffff" stroke="transparent" points="-4,4 -4,-210 128.4082,-210 128.4082,4 -4,4"/>
<!-- Node2 -->
<g id="node1" class="node">
<title>Node2</title>
<polygon fill="#bfbfbf" stroke="#000000" points="0,-.5 0,-18.5 124.4082,-18.5 124.4082,-.5 0,-.5"/>
<text text-anchor="middle" x="62.2041" y="-6.5" font-family="Helvetica,sans-Serif" font-size="10.00" fill="#000000">event::DownloadPaused</text>
</g>
<!-- Node3 -->
<g id="node2" class="node">
<title>Node3</title>
<g id="a_node2"><a xlink:href="classevent_1_1_base_event.html" target="_top" xlink:title="Base class for all event objects. ">
<polygon fill="#ffffff" stroke="#000000" points="15.0122,-56.5 15.0122,-74.5 109.396,-74.5 109.396,-56.5 15.0122,-56.5"/>
<text text-anchor="middle" x="62.2041" y="-62.5" font-family="Helvetica,sans-Serif" font-size="10.00" fill="#000000">event::BaseEvent</text>
</a>
</g>
</g>
<!-- Node3&#45;&gt;Node2 -->
<g id="edge1" class="edge">
<title>Node3&#45;&gt;Node2</title>
<path fill="none" stroke="#191970" d="M62.2041,-46.2065C62.2041,-36.8384 62.2041,-26.0262 62.2041,-18.5752"/>
<polygon fill="#191970" stroke="#191970" points="58.7042,-46.2527 62.2041,-56.2527 65.7042,-46.2528 58.7042,-46.2527"/>
</g>
<!-- Node4 -->
<g id="node3" class="node">
<title>Node4</title>
<g id="a_node3"><a xlink:title="STL class. ">
<polygon fill="#ffffff" stroke="#bfbfbf" points="32.5293,-121.5 32.5293,-139.5 91.8789,-139.5 91.8789,-121.5 32.5293,-121.5"/>
<text text-anchor="middle" x="62.2041" y="-127.5" font-family="Helvetica,sans-Serif" font-size="10.00" fill="#000000">std::string</text>
</a>
</g>
</g>
<!-- Node4&#45;&gt;Node3 -->
<g id="edge2" class="edge">
<title>Node4&#45;&gt;Node3</title>
<path fill="none" stroke="#9a32cd" stroke-dasharray="5,2" d="M62.2041,-111.1265C62.2041,-99.1522 62.2041,-84.3205 62.2041,-74.8821"/>
<polygon fill="#9a32cd" stroke="#9a32cd" points="58.7042,-111.462 62.2041,-121.462 65.7042,-111.4621 58.7042,-111.462"/>
<text text-anchor="middle" x="78.6006" y="-95" font-family="Helvetica,sans-Serif" font-size="10.00" fill="#000000"> variant</text>
</g>
<!-- Node5 -->
<g id="node4" class="node">
<title>Node5</title>
<g id="a_node4"><a xlink:title="STL class. ">
<polygon fill="#ffffff" stroke="#bfbfbf" points="15.1563,-177.5 15.1563,-205.5 109.252,-205.5 109.252,-177.5 15.1563,-177.5"/>
<text text-anchor="start" x="23.1563" y="-193.5" font-family="Helvetica,sans-Serif" font-size="10.00" fill="#000000">std::basic_string&lt;</text>
<text text-anchor="middle" x="62.2041" y="-183.5" font-family="Helvetica,sans-Serif" font-size="10.00" fill="#000000"> char &gt;</text>
</a>
</g>
</g>
<!-- Node5&#45;&gt;Node4 -->
<g id="edge3" class="edge">
<title>Node5&#45;&gt;Node4</title>
<path fill="none" stroke="#191970" d="M62.2041,-167.1001C62.2041,-157.5157 62.2041,-147.0935 62.2041,-139.831"/>
<polygon fill="#191970" stroke="#191970" points="58.7042,-167.352 62.2041,-177.3521 65.7042,-167.3521 58.7042,-167.352"/>
</g>
</g>
</svg>
