<?xml version="1.0" encoding="UTF-8" standalone="no"?>
<!DOCTYPE svg PUBLIC "-//W3C//DTD SVG 1.1//EN"
 "http://www.w3.org/Graphics/SVG/1.1/DTD/svg11.dtd">
<!-- Generated by graphviz version 2.40.1 (20161225.0304)
 -->
<!-- Title: EcuDownloadStartedReport Pages: 1 -->
<svg width="169pt" height="224pt"
 viewBox="0.00 0.00 169.43 224.00" xmlns="http://www.w3.org/2000/svg" xmlns:xlink="http://www.w3.org/1999/xlink">
<g id="graph0" class="graph" transform="scale(1 1) rotate(0) translate(4 220)">
<title>EcuDownloadStartedReport</title>
<polygon fill="#ffffff" stroke="transparent" points="-4,4 -4,-220 165.4263,-220 165.4263,4 -4,4"/>
<!-- Node2 -->
<g id="node1" class="node">
<title>Node2</title>
<polygon fill="#bfbfbf" stroke="#000000" points="17.0679,-.5 17.0679,-18.5 157.0278,-18.5 157.0278,-.5 17.0679,-.5"/>
<text text-anchor="middle" x="87.0479" y="-6.5" font-family="Helvetica,sans-Serif" font-size="10.00" fill="#000000">EcuDownloadStartedReport</text>
</g>
<!-- Node3 -->
<g id="node2" class="node">
<title>Node3</title>
<g id="a_node2"><a xlink:href="class_report_event.html" target="_top" xlink:title="ReportEvent">
<polygon fill="#ffffff" stroke="#000000" points="51.2549,-56.5 51.2549,-74.5 122.8408,-74.5 122.8408,-56.5 51.2549,-56.5"/>
<text text-anchor="middle" x="87.0479" y="-62.5" font-family="Helvetica,sans-Serif" font-size="10.00" fill="#000000">ReportEvent</text>
</a>
</g>
</g>
<!-- Node3&#45;&gt;Node2 -->
<g id="edge1" class="edge">
<title>Node3&#45;&gt;Node2</title>
<path fill="none" stroke="#191970" d="M87.0479,-46.2065C87.0479,-36.8384 87.0479,-26.0262 87.0479,-18.5752"/>
<polygon fill="#191970" stroke="#191970" points="83.548,-46.2527 87.0479,-56.2527 90.548,-46.2528 83.548,-46.2527"/>
</g>
<!-- Node4 -->
<g id="node3" class="node">
<title>Node4</title>
<g id="a_node3"><a xlink:title="STL class. ">
<polygon fill="#ffffff" stroke="#bfbfbf" points="17.373,-131.5 17.373,-149.5 76.7227,-149.5 76.7227,-131.5 17.373,-131.5"/>
<text text-anchor="middle" x="47.0479" y="-137.5" font-family="Helvetica,sans-Serif" font-size="10.00" fill="#000000">std::string</text>
</a>
</g>
</g>
<!-- Node4&#45;&gt;Node3 -->
<g id="edge2" class="edge">
<title>Node4&#45;&gt;Node3</title>
<path fill="none" stroke="#9a32cd" stroke-dasharray="5,2" d="M56.6961,-122.4096C64.71,-107.3835 75.7851,-86.6176 82.1029,-74.7717"/>
<polygon fill="#9a32cd" stroke="#9a32cd" points="53.5703,-120.8329 51.9526,-131.3035 59.7468,-124.1271 53.5703,-120.8329"/>
<text text-anchor="middle" x="82.8877" y="-105" font-family="Helvetica,sans-Serif" font-size="10.00" fill="#000000"> type</text>
<text text-anchor="middle" x="82.8877" y="-95" font-family="Helvetica,sans-Serif" font-size="10.00" fill="#000000">id</text>
</g>
<!-- Node5 -->
<g id="node4" class="node">
<title>Node5</title>
<g id="a_node4"><a xlink:title="STL class. ">
<polygon fill="#ffffff" stroke="#bfbfbf" points="0,-187.5 0,-215.5 94.0957,-215.5 94.0957,-187.5 0,-187.5"/>
<text text-anchor="start" x="8" y="-203.5" font-family="Helvetica,sans-Serif" font-size="10.00" fill="#000000">std::basic_string&lt;</text>
<text text-anchor="middle" x="47.0479" y="-193.5" font-family="Helvetica,sans-Serif" font-size="10.00" fill="#000000"> char &gt;</text>
</a>
</g>
</g>
<!-- Node5&#45;&gt;Node4 -->
<g id="edge3" class="edge">
<title>Node5&#45;&gt;Node4</title>
<path fill="none" stroke="#191970" d="M47.0479,-177.1001C47.0479,-167.5157 47.0479,-157.0935 47.0479,-149.831"/>
<polygon fill="#191970" stroke="#191970" points="43.5479,-177.352 47.0479,-187.3521 50.5479,-177.3521 43.5479,-177.352"/>
</g>
<!-- Node6 -->
<g id="node5" class="node">
<title>Node6</title>
<g id="a_node5"><a xlink:href="class_time_stamp.html" target="_top" xlink:title="TimeStamp">
<polygon fill="#ffffff" stroke="#000000" points="94.6694,-131.5 94.6694,-149.5 161.4263,-149.5 161.4263,-131.5 94.6694,-131.5"/>
<text text-anchor="middle" x="128.0479" y="-137.5" font-family="Helvetica,sans-Serif" font-size="10.00" fill="#000000">TimeStamp</text>
</a>
</g>
</g>
<!-- Node6&#45;&gt;Node3 -->
<g id="edge4" class="edge">
<title>Node6&#45;&gt;Node3</title>
<path fill="none" stroke="#9a32cd" stroke-dasharray="5,2" d="M118.1584,-122.4096C109.9442,-107.3835 98.5921,-86.6176 92.1164,-74.7717"/>
<polygon fill="#9a32cd" stroke="#9a32cd" points="115.1526,-124.2079 123.0204,-131.3035 121.2948,-120.8502 115.1526,-124.2079"/>
<text text-anchor="middle" x="136.4985" y="-100" font-family="Helvetica,sans-Serif" font-size="10.00" fill="#000000"> timestamp</text>
</g>
</g>
</svg>
