<?xml version="1.0" encoding="UTF-8" standalone="no"?>
<!DOCTYPE svg PUBLIC "-//W3C//DTD SVG 1.1//EN"
 "http://www.w3.org/Graphics/SVG/1.1/DTD/svg11.dtd">
<!-- Generated by graphviz version 2.40.1 (20161225.0304)
 -->
<!-- Title: event::AllInstallsComplete Pages: 1 -->
<svg width="393pt" height="437pt"
 viewBox="0.00 0.00 393.49 437.00" xmlns="http://www.w3.org/2000/svg" xmlns:xlink="http://www.w3.org/1999/xlink">
<g id="graph0" class="graph" transform="scale(1 1) rotate(0) translate(4 433)">
<title>event::AllInstallsComplete</title>
<polygon fill="#ffffff" stroke="transparent" points="-4,4 -4,-433 389.4922,-433 389.4922,4 -4,4"/>
<!-- Node2 -->
<g id="node1" class="node">
<title>Node2</title>
<polygon fill="#bfbfbf" stroke="#000000" points="193.7734,-.5 193.7734,-18.5 324.8271,-18.5 324.8271,-.5 193.7734,-.5"/>
<text text-anchor="middle" x="259.3003" y="-6.5" font-family="Helvetica,sans-Serif" font-size="10.00" fill="#000000">event::AllInstallsComplete</text>
</g>
<!-- Node3 -->
<g id="node2" class="node">
<title>Node3</title>
<g id="a_node2"><a xlink:href="classevent_1_1_base_event.html" target="_top" xlink:title="Base class for all event objects. ">
<polygon fill="#ffffff" stroke="#000000" points="291.1084,-232.5 291.1084,-250.5 385.4922,-250.5 385.4922,-232.5 291.1084,-232.5"/>
<text text-anchor="middle" x="338.3003" y="-238.5" font-family="Helvetica,sans-Serif" font-size="10.00" fill="#000000">event::BaseEvent</text>
</a>
</g>
</g>
<!-- Node3&#45;&gt;Node2 -->
<g id="edge1" class="edge">
<title>Node3&#45;&gt;Node2</title>
<path fill="none" stroke="#191970" d="M318.7163,-225.2982C305.4417,-212.408 290.3003,-193.084 290.3003,-172 290.3003,-172 290.3003,-172 290.3003,-74.5 290.3003,-52.7458 275.9791,-30.5353 266.8045,-18.5387"/>
<polygon fill="#191970" stroke="#191970" points="316.4396,-227.9588 326.1879,-232.1089 321.1553,-222.7856 316.4396,-227.9588"/>
</g>
<!-- Node4 -->
<g id="node3" class="node">
<title>Node4</title>
<g id="a_node3"><a xlink:title="STL class. ">
<polygon fill="#ffffff" stroke="#bfbfbf" points="283.6255,-344.5 283.6255,-362.5 342.9751,-362.5 342.9751,-344.5 283.6255,-344.5"/>
<text text-anchor="middle" x="313.3003" y="-350.5" font-family="Helvetica,sans-Serif" font-size="10.00" fill="#000000">std::string</text>
</a>
</g>
</g>
<!-- Node4&#45;&gt;Node3 -->
<g id="edge2" class="edge">
<title>Node4&#45;&gt;Node3</title>
<path fill="none" stroke="#9a32cd" stroke-dasharray="5,2" d="M328.1769,-335.9539C330.2126,-332.8032 332.0348,-329.4265 333.3003,-326 342.8722,-300.083 341.0819,-266.6602 339.4554,-250.7329"/>
<polygon fill="#9a32cd" stroke="#9a32cd" points="325.2922,-333.9683 322.1585,-344.0891 330.9197,-338.1314 325.2922,-333.9683"/>
<text text-anchor="middle" x="353.6968" y="-313" font-family="Helvetica,sans-Serif" font-size="10.00" fill="#000000"> variant</text>
</g>
<!-- Node10 -->
<g id="node9" class="node">
<title>Node10</title>
<g id="a_node9"><a xlink:href="structdata_1_1_operation_result.html" target="_top" xlink:title="data::OperationResult">
<polygon fill="#ffffff" stroke="#000000" points="213.6602,-269.5 213.6602,-287.5 326.9404,-287.5 326.9404,-269.5 213.6602,-269.5"/>
<text text-anchor="middle" x="270.3003" y="-275.5" font-family="Helvetica,sans-Serif" font-size="10.00" fill="#000000">data::OperationResult</text>
</a>
</g>
</g>
<!-- Node4&#45;&gt;Node10 -->
<g id="edge9" class="edge">
<title>Node4&#45;&gt;Node10</title>
<path fill="none" stroke="#9a32cd" stroke-dasharray="5,2" d="M293.6088,-337.4987C290.171,-333.9954 286.8985,-330.0986 284.3892,-326 277.0233,-313.9691 273.3129,-297.8588 271.5973,-287.8333"/>
<polygon fill="#9a32cd" stroke="#9a32cd" points="291.4413,-340.2609 301.1663,-344.4652 296.1857,-335.114 291.4413,-340.2609"/>
<text text-anchor="middle" x="308.7559" y="-318" font-family="Helvetica,sans-Serif" font-size="10.00" fill="#000000"> result_text</text>
<text text-anchor="middle" x="308.7559" y="-308" font-family="Helvetica,sans-Serif" font-size="10.00" fill="#000000">id</text>
</g>
<!-- Node5 -->
<g id="node4" class="node">
<title>Node5</title>
<g id="a_node4"><a xlink:title="STL class. ">
<polygon fill="#ffffff" stroke="#bfbfbf" points="266.2524,-400.5 266.2524,-428.5 360.3481,-428.5 360.3481,-400.5 266.2524,-400.5"/>
<text text-anchor="start" x="274.2524" y="-416.5" font-family="Helvetica,sans-Serif" font-size="10.00" fill="#000000">std::basic_string&lt;</text>
<text text-anchor="middle" x="313.3003" y="-406.5" font-family="Helvetica,sans-Serif" font-size="10.00" fill="#000000"> char &gt;</text>
</a>
</g>
</g>
<!-- Node5&#45;&gt;Node4 -->
<g id="edge3" class="edge">
<title>Node5&#45;&gt;Node4</title>
<path fill="none" stroke="#191970" d="M313.3003,-390.1001C313.3003,-380.5157 313.3003,-370.0935 313.3003,-362.831"/>
<polygon fill="#191970" stroke="#191970" points="309.8004,-390.352 313.3003,-400.3521 316.8004,-390.3521 309.8004,-390.352"/>
</g>
<!-- Node6 -->
<g id="node5" class="node">
<title>Node6</title>
<g id="a_node5"><a xlink:href="class_install_result.html" target="_top" xlink:title="Container for information about installing an update. ">
<polygon fill="#ffffff" stroke="#000000" points="184.0664,-65.5 184.0664,-83.5 254.5342,-83.5 254.5342,-65.5 184.0664,-65.5"/>
<text text-anchor="middle" x="219.3003" y="-71.5" font-family="Helvetica,sans-Serif" font-size="10.00" fill="#000000">InstallResult</text>
</a>
</g>
</g>
<!-- Node6&#45;&gt;Node2 -->
<g id="edge4" class="edge">
<title>Node6&#45;&gt;Node2</title>
<path fill="none" stroke="#9a32cd" stroke-dasharray="5,2" d="M230.3202,-56.5926C237.8328,-44.3846 247.4789,-28.7097 253.5267,-18.8821"/>
<polygon fill="#9a32cd" stroke="#9a32cd" points="227.1223,-55.1111 224.8621,-65.462 233.084,-58.7798 227.1223,-55.1111"/>
<text text-anchor="middle" x="254.916" y="-39" font-family="Helvetica,sans-Serif" font-size="10.00" fill="#000000"> result</text>
</g>
<!-- Node7 -->
<g id="node6" class="node">
<title>Node7</title>
<polygon fill="#ffffff" stroke="#bfbfbf" points="121.5493,-130.5 121.5493,-148.5 257.0513,-148.5 257.0513,-130.5 121.5493,-130.5"/>
<text text-anchor="middle" x="189.3003" y="-136.5" font-family="Helvetica,sans-Serif" font-size="10.00" fill="#000000">std::vector&lt; InstallReport &gt;</text>
</g>
<!-- Node7&#45;&gt;Node6 -->
<g id="edge5" class="edge">
<title>Node7&#45;&gt;Node6</title>
<path fill="none" stroke="#9a32cd" stroke-dasharray="5,2" d="M197.7331,-121.229C203.3427,-109.0748 210.4792,-93.6124 214.9701,-83.8821"/>
<polygon fill="#9a32cd" stroke="#9a32cd" points="194.4844,-119.9157 193.4717,-130.462 200.8402,-122.8491 194.4844,-119.9157"/>
<text text-anchor="middle" x="222.251" y="-104" font-family="Helvetica,sans-Serif" font-size="10.00" fill="#000000"> reports</text>
</g>
<!-- Node8 -->
<g id="node7" class="node">
<title>Node8</title>
<g id="a_node7"><a xlink:href="class_install_report.html" target="_top" xlink:title="Installation report for a given target on a given ECU. ">
<polygon fill="#ffffff" stroke="#000000" points="122.2314,-195.5 122.2314,-213.5 194.3691,-213.5 194.3691,-195.5 122.2314,-195.5"/>
<text text-anchor="middle" x="158.3003" y="-201.5" font-family="Helvetica,sans-Serif" font-size="10.00" fill="#000000">InstallReport</text>
</a>
</g>
</g>
<!-- Node8&#45;&gt;Node7 -->
<g id="edge6" class="edge">
<title>Node8&#45;&gt;Node7</title>
<path fill="none" stroke="#9a32cd" stroke-dasharray="5,2" d="M167.0141,-186.229C172.8108,-174.0748 180.1851,-158.6124 184.8257,-148.8821"/>
<polygon fill="#9a32cd" stroke="#9a32cd" points="163.7564,-184.9293 162.6107,-195.462 170.0746,-187.9427 163.7564,-184.9293"/>
<text text-anchor="middle" x="196.9775" y="-169" font-family="Helvetica,sans-Serif" font-size="10.00" fill="#000000"> elements</text>
</g>
<!-- Node9 -->
<g id="node8" class="node">
<title>Node9</title>
<g id="a_node8"><a xlink:href="class_uptane_1_1_target.html" target="_top" xlink:title="Uptane::Target">
<polygon fill="#ffffff" stroke="#000000" points="114.5024,-269.5 114.5024,-287.5 196.0981,-287.5 196.0981,-269.5 114.5024,-269.5"/>
<text text-anchor="middle" x="155.3003" y="-275.5" font-family="Helvetica,sans-Serif" font-size="10.00" fill="#000000">Uptane::Target</text>
</a>
</g>
</g>
<!-- Node9&#45;&gt;Node8 -->
<g id="edge7" class="edge">
<title>Node9&#45;&gt;Node8</title>
<path fill="none" stroke="#9a32cd" stroke-dasharray="5,2" d="M156.076,-259.3665C156.6721,-244.6615 157.4691,-225.0021 157.9294,-213.6481"/>
<polygon fill="#9a32cd" stroke="#9a32cd" points="152.5762,-259.2925 155.6682,-269.4261 159.5704,-259.5762 152.5762,-259.2925"/>
<text text-anchor="middle" x="172.9824" y="-238.5" font-family="Helvetica,sans-Serif" font-size="10.00" fill="#000000"> update</text>
</g>
<!-- Node10&#45;&gt;Node8 -->
<g id="edge8" class="edge">
<title>Node10&#45;&gt;Node8</title>
<path fill="none" stroke="#9a32cd" stroke-dasharray="5,2" d="M247.9544,-263.7358C225.3444,-248.797 191.0995,-226.1709 172.146,-213.6481"/>
<polygon fill="#9a32cd" stroke="#9a32cd" points="246.2941,-266.8337 256.5669,-269.4261 250.1529,-260.9934 246.2941,-266.8337"/>
<text text-anchor="middle" x="242.0293" y="-238.5" font-family="Helvetica,sans-Serif" font-size="10.00" fill="#000000"> status</text>
</g>
<!-- Node11 -->
<g id="node10" class="node">
<title>Node11</title>
<g id="a_node10"><a xlink:href="class_uptane_1_1_ecu_serial.html" target="_top" xlink:title="Uptane::EcuSerial">
<polygon fill="#ffffff" stroke="#000000" points="0,-269.5 0,-287.5 96.6006,-287.5 96.6006,-269.5 0,-269.5"/>
<text text-anchor="middle" x="48.3003" y="-275.5" font-family="Helvetica,sans-Serif" font-size="10.00" fill="#000000">Uptane::EcuSerial</text>
</a>
</g>
</g>
<!-- Node11&#45;&gt;Node8 -->
<g id="edge10" class="edge">
<title>Node11&#45;&gt;Node8</title>
<path fill="none" stroke="#9a32cd" stroke-dasharray="5,2" d="M70.2471,-263.7358C92.4534,-248.797 126.0868,-226.1709 144.7018,-213.6481"/>
<polygon fill="#9a32cd" stroke="#9a32cd" points="68.1321,-260.9403 61.7885,-269.4261 72.0393,-266.7484 68.1321,-260.9403"/>
<text text-anchor="middle" x="129.6377" y="-238.5" font-family="Helvetica,sans-Serif" font-size="10.00" fill="#000000"> serial</text>
</g>
</g>
</svg>
