<?xml version="1.0" encoding="UTF-8" standalone="no"?>
<!DOCTYPE svg PUBLIC "-//W3C//DTD SVG 1.1//EN"
 "http://www.w3.org/Graphics/SVG/1.1/DTD/svg11.dtd">
<!-- Generated by graphviz version 2.40.1 (20161225.0304)
 -->
<!-- Title: AktualizrSecondaryConfig Pages: 1 -->
<svg width="738pt" height="331pt"
 viewBox="0.00 0.00 737.98 331.00" xmlns="http://www.w3.org/2000/svg" xmlns:xlink="http://www.w3.org/1999/xlink">
<g id="graph0" class="graph" transform="scale(1 1) rotate(0) translate(4 327)">
<title>AktualizrSecondaryConfig</title>
<polygon fill="#ffffff" stroke="transparent" points="-4,4 -4,-327 733.9775,-327 733.9775,4 -4,4"/>
<!-- Node2 -->
<g id="node1" class="node">
<title>Node2</title>
<polygon fill="#bfbfbf" stroke="#000000" points="598.9189,-111.5 598.9189,-129.5 729.9775,-129.5 729.9775,-111.5 598.9189,-111.5"/>
<text text-anchor="middle" x="664.4482" y="-117.5" font-family="Helvetica,sans-Serif" font-size="10.00" fill="#000000">AktualizrSecondaryConfig</text>
</g>
<!-- Node3 -->
<g id="node2" class="node">
<title>Node3</title>
<g id="a_node2"><a xlink:href="class_base_config.html" target="_top" xlink:title="BaseConfig">
<polygon fill="#ffffff" stroke="#000000" points="417.4048,-278.5 417.4048,-296.5 485.104,-296.5 485.104,-278.5 417.4048,-278.5"/>
<text text-anchor="middle" x="451.2544" y="-284.5" font-family="Helvetica,sans-Serif" font-size="10.00" fill="#000000">BaseConfig</text>
</a>
</g>
</g>
<!-- Node3&#45;&gt;Node2 -->
<g id="edge1" class="edge">
<title>Node3&#45;&gt;Node2</title>
<path fill="none" stroke="#191970" d="M472.7692,-272.5247C498.8132,-254.2182 543.7969,-222.0225 580.9189,-192.5 608.1907,-170.8113 638.9038,-143.5701 654.3811,-129.6335"/>
<polygon fill="#191970" stroke="#191970" points="470.5733,-269.7896 464.3909,-278.3936 474.5894,-275.5229 470.5733,-269.7896"/>
</g>
<!-- Node4 -->
<g id="node3" class="node">
<title>Node4</title>
<polygon fill="#ffffff" stroke="#bfbfbf" points="131.0957,-294.5 131.0957,-322.5 230.7432,-322.5 230.7432,-294.5 131.0957,-294.5"/>
<text text-anchor="start" x="139.0957" y="-310.5" font-family="Helvetica,sans-Serif" font-size="10.00" fill="#000000">std::vector&lt; boost</text>
<text text-anchor="middle" x="180.9194" y="-300.5" font-family="Helvetica,sans-Serif" font-size="10.00" fill="#000000">::filesystem::path &gt;</text>
</g>
<!-- Node4&#45;&gt;Node3 -->
<g id="edge2" class="edge">
<title>Node4&#45;&gt;Node3</title>
<path fill="none" stroke="#9a32cd" stroke-dasharray="5,2" d="M240.9799,-303.8344C295.1349,-299.6276 372.8562,-293.5901 417.0618,-290.1561"/>
<polygon fill="#9a32cd" stroke="#9a32cd" points="240.5169,-300.3597 230.8181,-304.6238 241.0591,-307.3387 240.5169,-300.3597"/>
<text text-anchor="middle" x="304.3438" y="-304.5" font-family="Helvetica,sans-Serif" font-size="10.00" fill="#000000"> config_dirs_</text>
</g>
<!-- Node5 -->
<g id="node4" class="node">
<title>Node5</title>
<g id="a_node4"><a xlink:href="struct_storage_config.html" target="_top" xlink:title="StorageConfig">
<polygon fill="#ffffff" stroke="#000000" points="411.2891,-196.5 411.2891,-214.5 491.2197,-214.5 491.2197,-196.5 411.2891,-196.5"/>
<text text-anchor="middle" x="451.2544" y="-202.5" font-family="Helvetica,sans-Serif" font-size="10.00" fill="#000000">StorageConfig</text>
</a>
</g>
</g>
<!-- Node5&#45;&gt;Node2 -->
<g id="edge3" class="edge">
<title>Node5&#45;&gt;Node2</title>
<path fill="none" stroke="#9a32cd" stroke-dasharray="5,2" d="M501.1421,-193.9143C509.0541,-191.6928 517.0885,-189.2054 524.5645,-186.5 570.5199,-169.8695 621.8342,-143.5269 647.6604,-129.6873"/>
<polygon fill="#9a32cd" stroke="#9a32cd" points="499.9826,-190.6018 491.2371,-196.5823 501.8032,-197.3609 499.9826,-190.6018"/>
<text text-anchor="middle" x="561.7417" y="-180.5" font-family="Helvetica,sans-Serif" font-size="10.00" fill="#000000"> storage</text>
</g>
<!-- Node6 -->
<g id="node5" class="node">
<title>Node6</title>
<g id="a_node5"><a xlink:href="class_based_path.html" target="_top" xlink:title="BasedPath">
<polygon fill="#ffffff" stroke="#000000" points="148.4565,-196.5 148.4565,-214.5 213.3823,-214.5 213.3823,-196.5 148.4565,-196.5"/>
<text text-anchor="middle" x="180.9194" y="-202.5" font-family="Helvetica,sans-Serif" font-size="10.00" fill="#000000">BasedPath</text>
</a>
</g>
</g>
<!-- Node6&#45;&gt;Node5 -->
<g id="edge4" class="edge">
<title>Node6&#45;&gt;Node5</title>
<path fill="none" stroke="#9a32cd" stroke-dasharray="5,2" d="M223.647,-205.5C275.0777,-205.5 360.7829,-205.5 411.0573,-205.5"/>
<polygon fill="#9a32cd" stroke="#9a32cd" points="223.5282,-202.0001 213.5281,-205.5 223.5281,-209.0001 223.5282,-202.0001"/>
<text text-anchor="middle" x="304.3438" y="-277.5" font-family="Helvetica,sans-Serif" font-size="10.00" fill="#000000"> uptane_public_key_path</text>
<text text-anchor="middle" x="304.3438" y="-267.5" font-family="Helvetica,sans-Serif" font-size="10.00" fill="#000000">tls_pkey_path</text>
<text text-anchor="middle" x="304.3438" y="-257.5" font-family="Helvetica,sans-Serif" font-size="10.00" fill="#000000">uptane_metadata_path</text>
<text text-anchor="middle" x="304.3438" y="-247.5" font-family="Helvetica,sans-Serif" font-size="10.00" fill="#000000">sqldb_path</text>
<text text-anchor="start" x="248.7432" y="-237.5" font-family="Helvetica,sans-Serif" font-size="10.00" fill="#000000">uptane_private_key</text>
<text text-anchor="middle" x="304.3438" y="-227.5" font-family="Helvetica,sans-Serif" font-size="10.00" fill="#000000">_path</text>
<text text-anchor="middle" x="304.3438" y="-217.5" font-family="Helvetica,sans-Serif" font-size="10.00" fill="#000000">tls_cacert_path</text>
<text text-anchor="middle" x="304.3438" y="-207.5" font-family="Helvetica,sans-Serif" font-size="10.00" fill="#000000">tls_clientcert_path</text>
</g>
<!-- Node7 -->
<g id="node6" class="node">
<title>Node7</title>
<g id="a_node6"><a xlink:href="struct_aktualizr_secondary_uptane_config.html" target="_top" xlink:title="AktualizrSecondaryUptane\lConfig">
<polygon fill="#ffffff" stroke="#000000" points="384.0552,-148.5 384.0552,-176.5 518.4536,-176.5 518.4536,-148.5 384.0552,-148.5"/>
<text text-anchor="start" x="392.0552" y="-164.5" font-family="Helvetica,sans-Serif" font-size="10.00" fill="#000000">AktualizrSecondaryUptane</text>
<text text-anchor="middle" x="451.2544" y="-154.5" font-family="Helvetica,sans-Serif" font-size="10.00" fill="#000000">Config</text>
</a>
</g>
</g>
<!-- Node7&#45;&gt;Node2 -->
<g id="edge5" class="edge">
<title>Node7&#45;&gt;Node2</title>
<path fill="none" stroke="#9a32cd" stroke-dasharray="5,2" d="M528.7941,-147.2244C558.954,-141.2828 592.4738,-134.6792 618.6474,-129.5229"/>
<polygon fill="#9a32cd" stroke="#9a32cd" points="527.8451,-143.844 518.7103,-149.2109 529.1982,-150.712 527.8451,-143.844"/>
<text text-anchor="middle" x="561.7417" y="-145.5" font-family="Helvetica,sans-Serif" font-size="10.00" fill="#000000"> uptane</text>
</g>
<!-- Node8 -->
<g id="node7" class="node">
<title>Node8</title>
<g id="a_node7"><a xlink:title="STL class. ">
<polygon fill="#ffffff" stroke="#bfbfbf" points="151.2446,-110.5 151.2446,-128.5 210.5942,-128.5 210.5942,-110.5 151.2446,-110.5"/>
<text text-anchor="middle" x="180.9194" y="-116.5" font-family="Helvetica,sans-Serif" font-size="10.00" fill="#000000">std::string</text>
</a>
</g>
</g>
<!-- Node8&#45;&gt;Node7 -->
<g id="edge6" class="edge">
<title>Node8&#45;&gt;Node7</title>
<path fill="none" stroke="#9a32cd" stroke-dasharray="5,2" d="M215.7232,-131.6805C226.2258,-134.9734 237.8582,-138.2454 248.7432,-140.5 293.2427,-149.717 344.093,-155.2241 383.7065,-158.4233"/>
<polygon fill="#9a32cd" stroke="#9a32cd" points="216.6531,-128.3027 206.0612,-128.5495 214.4952,-134.9618 216.6531,-128.3027"/>
<text text-anchor="middle" x="304.3438" y="-167.5" font-family="Helvetica,sans-Serif" font-size="10.00" fill="#000000"> ecu_hardware_id</text>
<text text-anchor="middle" x="304.3438" y="-157.5" font-family="Helvetica,sans-Serif" font-size="10.00" fill="#000000">ecu_serial</text>
</g>
<!-- Node11 -->
<g id="node10" class="node">
<title>Node11</title>
<g id="a_node10"><a xlink:href="struct_package_config.html" target="_top" xlink:title="PackageConfig">
<polygon fill="#ffffff" stroke="#000000" points="409.3433,-111.5 409.3433,-129.5 493.1655,-129.5 493.1655,-111.5 409.3433,-111.5"/>
<text text-anchor="middle" x="451.2544" y="-117.5" font-family="Helvetica,sans-Serif" font-size="10.00" fill="#000000">PackageConfig</text>
</a>
</g>
</g>
<!-- Node8&#45;&gt;Node11 -->
<g id="edge10" class="edge">
<title>Node8&#45;&gt;Node11</title>
<path fill="none" stroke="#9a32cd" stroke-dasharray="5,2" d="M220.8116,-119.6476C271.2365,-119.8341 357.652,-120.1538 409.1183,-120.3441"/>
<polygon fill="#9a32cd" stroke="#9a32cd" points="220.6362,-116.147 210.6233,-119.6099 220.6103,-123.1469 220.6362,-116.147"/>
<text text-anchor="middle" x="304.3438" y="-131.5" font-family="Helvetica,sans-Serif" font-size="10.00" fill="#000000"> os</text>
<text text-anchor="middle" x="304.3438" y="-121.5" font-family="Helvetica,sans-Serif" font-size="10.00" fill="#000000">ostree_server</text>
</g>
<!-- Node13 -->
<g id="node12" class="node">
<title>Node13</title>
<g id="a_node12"><a xlink:href="struct_p11_config.html" target="_top" xlink:title="P11Config">
<polygon fill="#ffffff" stroke="#000000" points="420.2734,-74.5 420.2734,-92.5 482.2354,-92.5 482.2354,-74.5 420.2734,-74.5"/>
<text text-anchor="middle" x="451.2544" y="-80.5" font-family="Helvetica,sans-Serif" font-size="10.00" fill="#000000">P11Config</text>
</a>
</g>
</g>
<!-- Node8&#45;&gt;Node13 -->
<g id="edge13" class="edge">
<title>Node8&#45;&gt;Node13</title>
<path fill="none" stroke="#9a32cd" stroke-dasharray="5,2" d="M195.4493,-102.9788C208.0533,-89.9922 227.5635,-72.9017 248.7432,-65.5 295.3989,-49.1951 310.7554,-60.6979 359.9443,-65.5 380.2065,-67.4781 402.6428,-71.8695 420.2046,-75.8194"/>
<polygon fill="#9a32cd" stroke="#9a32cd" points="192.7855,-100.7038 188.5408,-110.4112 197.9127,-105.4696 192.7855,-100.7038"/>
<text text-anchor="middle" x="304.3438" y="-107.5" font-family="Helvetica,sans-Serif" font-size="10.00" fill="#000000"> tls_pkey_id</text>
<text text-anchor="middle" x="304.3438" y="-97.5" font-family="Helvetica,sans-Serif" font-size="10.00" fill="#000000">tls_clientcert_id</text>
<text text-anchor="middle" x="304.3438" y="-87.5" font-family="Helvetica,sans-Serif" font-size="10.00" fill="#000000">pass</text>
<text text-anchor="middle" x="304.3438" y="-77.5" font-family="Helvetica,sans-Serif" font-size="10.00" fill="#000000">uptane_key_id</text>
<text text-anchor="middle" x="304.3438" y="-67.5" font-family="Helvetica,sans-Serif" font-size="10.00" fill="#000000">tls_cacert_id</text>
</g>
<!-- Node9 -->
<g id="node8" class="node">
<title>Node9</title>
<g id="a_node8"><a xlink:title="STL class. ">
<polygon fill="#ffffff" stroke="#bfbfbf" points="0,-105.5 0,-133.5 94.0957,-133.5 94.0957,-105.5 0,-105.5"/>
<text text-anchor="start" x="8" y="-121.5" font-family="Helvetica,sans-Serif" font-size="10.00" fill="#000000">std::basic_string&lt;</text>
<text text-anchor="middle" x="47.0479" y="-111.5" font-family="Helvetica,sans-Serif" font-size="10.00" fill="#000000"> char &gt;</text>
</a>
</g>
</g>
<!-- Node9&#45;&gt;Node8 -->
<g id="edge7" class="edge">
<title>Node9&#45;&gt;Node8</title>
<path fill="none" stroke="#191970" d="M104.6571,-119.5C120.721,-119.5 137.5158,-119.5 151.2427,-119.5"/>
<polygon fill="#191970" stroke="#191970" points="104.246,-116.0001 94.246,-119.5 104.2459,-123.0001 104.246,-116.0001"/>
</g>
<!-- Node10 -->
<g id="node9" class="node">
<title>Node10</title>
<g id="a_node9"><a xlink:href="struct_logger_config.html" target="_top" xlink:title="LoggerConfig">
<polygon fill="#ffffff" stroke="#000000" points="413.2324,-37.5 413.2324,-55.5 489.2764,-55.5 489.2764,-37.5 413.2324,-37.5"/>
<text text-anchor="middle" x="451.2544" y="-43.5" font-family="Helvetica,sans-Serif" font-size="10.00" fill="#000000">LoggerConfig</text>
</a>
</g>
</g>
<!-- Node10&#45;&gt;Node2 -->
<g id="edge8" class="edge">
<title>Node10&#45;&gt;Node2</title>
<path fill="none" stroke="#9a32cd" stroke-dasharray="5,2" d="M498.4171,-58.0734C507.1485,-60.3999 516.1614,-62.9254 524.5645,-65.5 568.2274,-78.878 617.5627,-99.6673 644.4114,-111.4837"/>
<polygon fill="#9a32cd" stroke="#9a32cd" points="499.2863,-54.6831 488.7262,-55.5393 497.5154,-61.4554 499.2863,-54.6831"/>
<text text-anchor="middle" x="561.7417" y="-86.5" font-family="Helvetica,sans-Serif" font-size="10.00" fill="#000000"> logger</text>
</g>
<!-- Node11&#45;&gt;Node2 -->
<g id="edge9" class="edge">
<title>Node11&#45;&gt;Node2</title>
<path fill="none" stroke="#9a32cd" stroke-dasharray="5,2" d="M503.6205,-120.5C532.3748,-120.5 568.3052,-120.5 598.907,-120.5"/>
<polygon fill="#9a32cd" stroke="#9a32cd" points="503.3747,-117.0001 493.3746,-120.5 503.3746,-124.0001 503.3747,-117.0001"/>
<text text-anchor="middle" x="561.7417" y="-122.5" font-family="Helvetica,sans-Serif" font-size="10.00" fill="#000000"> pacman</text>
</g>
<!-- Node12 -->
<g id="node11" class="node">
<title>Node12</title>
<g id="a_node11"><a xlink:href="struct_aktualizr_secondary_net_config.html" target="_top" xlink:title="AktualizrSecondaryNetConfig">
<polygon fill="#ffffff" stroke="#000000" points="377.9443,-.5 377.9443,-18.5 524.5645,-18.5 524.5645,-.5 377.9443,-.5"/>
<text text-anchor="middle" x="451.2544" y="-6.5" font-family="Helvetica,sans-Serif" font-size="10.00" fill="#000000">AktualizrSecondaryNetConfig</text>
</a>
</g>
</g>
<!-- Node12&#45;&gt;Node2 -->
<g id="edge11" class="edge">
<title>Node12&#45;&gt;Node2</title>
<path fill="none" stroke="#9a32cd" stroke-dasharray="5,2" d="M502.5801,-21.2498C510.0397,-23.404 517.5604,-25.8282 524.5645,-28.5 578.066,-48.9089 632.0615,-92.3877 654.1082,-111.3446"/>
<polygon fill="#9a32cd" stroke="#9a32cd" points="503.4275,-17.8529 492.8573,-18.5751 501.5708,-24.6022 503.4275,-17.8529"/>
<text text-anchor="middle" x="561.7417" y="-56.5" font-family="Helvetica,sans-Serif" font-size="10.00" fill="#000000"> network</text>
</g>
<!-- Node13&#45;&gt;Node2 -->
<g id="edge12" class="edge">
<title>Node13&#45;&gt;Node2</title>
<path fill="none" stroke="#9a32cd" stroke-dasharray="5,2" d="M492.3665,-90.635C526.5627,-96.5698 575.4367,-105.052 612.3666,-111.4612"/>
<polygon fill="#9a32cd" stroke="#9a32cd" points="492.7058,-87.1417 482.2546,-88.8801 491.5088,-94.0386 492.7058,-87.1417"/>
<text text-anchor="middle" x="561.7417" y="-106.5" font-family="Helvetica,sans-Serif" font-size="10.00" fill="#000000"> p11</text>
</g>
</g>
</svg>
