<?xml version="1.0" encoding="UTF-8" standalone="no"?>
<!DOCTYPE svg PUBLIC "-//W3C//DTD SVG 1.1//EN"
 "http://www.w3.org/Graphics/SVG/1.1/DTD/svg11.dtd">
<!-- Generated by graphviz version 2.40.1 (20161225.0304)
 -->
<!-- Title: HttpFakeCampaign Pages: 1 -->
<svg width="110pt" height="137pt"
 viewBox="0.00 0.00 110.15 137.00" xmlns="http://www.w3.org/2000/svg" xmlns:xlink="http://www.w3.org/1999/xlink">
<g id="graph0" class="graph" transform="scale(1 1) rotate(0) translate(4 133)">
<title>HttpFakeCampaign</title>
<polygon fill="#ffffff" stroke="transparent" points="-4,4 -4,-133 106.1523,-133 106.1523,4 -4,4"/>
<!-- Node0 -->
<g id="node1" class="node">
<title>Node0</title>
<polygon fill="#bfbfbf" stroke="#000000" points="0,-.5 0,-18.5 102.1523,-18.5 102.1523,-.5 0,-.5"/>
<text text-anchor="middle" x="51.0762" y="-6.5" font-family="Helvetica,sans-Serif" font-size="10.00" fill="#000000">HttpFakeCampaign</text>
</g>
<!-- Node1 -->
<g id="node2" class="node">
<title>Node1</title>
<g id="a_node2"><a xlink:href="class_http_fake.html" target="_top" xlink:title="HttpFake">
<polygon fill="#ffffff" stroke="#000000" points="22.7905,-55.5 22.7905,-73.5 79.3618,-73.5 79.3618,-55.5 22.7905,-55.5"/>
<text text-anchor="middle" x="51.0762" y="-61.5" font-family="Helvetica,sans-Serif" font-size="10.00" fill="#000000">HttpFake</text>
</a>
</g>
</g>
<!-- Node1&#45;&gt;Node0 -->
<g id="edge1" class="edge">
<title>Node1&#45;&gt;Node0</title>
<path fill="none" stroke="#191970" d="M51.0762,-45.383C51.0762,-36.3738 51.0762,-26.0373 51.0762,-18.7795"/>
<polygon fill="#191970" stroke="#191970" points="47.5763,-45.4178 51.0762,-55.4179 54.5763,-45.4179 47.5763,-45.4178"/>
</g>
<!-- Node2 -->
<g id="node3" class="node">
<title>Node2</title>
<g id="a_node3"><a xlink:href="class_http_interface.html" target="_top" xlink:title="HttpInterface">
<polygon fill="#ffffff" stroke="#000000" points="14.4507,-110.5 14.4507,-128.5 87.7017,-128.5 87.7017,-110.5 14.4507,-110.5"/>
<text text-anchor="middle" x="51.0762" y="-116.5" font-family="Helvetica,sans-Serif" font-size="10.00" fill="#000000">HttpInterface</text>
</a>
</g>
</g>
<!-- Node2&#45;&gt;Node1 -->
<g id="edge2" class="edge">
<title>Node2&#45;&gt;Node1</title>
<path fill="none" stroke="#191970" d="M51.0762,-100.383C51.0762,-91.3738 51.0762,-81.0373 51.0762,-73.7795"/>
<polygon fill="#191970" stroke="#191970" points="47.5763,-100.4178 51.0762,-110.4179 54.5763,-100.4179 47.5763,-100.4178"/>
</g>
</g>
</svg>
