<?xml version="1.0" encoding="UTF-8" standalone="no"?>
<!DOCTYPE svg PUBLIC "-//W3C//DTD SVG 1.1//EN"
 "http://www.w3.org/Graphics/SVG/1.1/DTD/svg11.dtd">
<!-- Generated by graphviz version 2.40.1 (20161225.0304)
 -->
<!-- Title: event::BaseEvent Pages: 1 -->
<!--zoomable 471 -->
<svg id="main" version="1.1" xmlns="http://www.w3.org/2000/svg" xmlns:xlink="http://www.w3.org/1999/xlink" xml:space="preserve" onload="init(evt)">
<style type="text/css"><![CDATA[
.edge:hover path { stroke: red; }
.edge:hover polygon { stroke: red; fill: red; }
]]></style>
<script type="text/javascript"><![CDATA[
var edges = document.getElementsByTagName('g');
if (edges && edges.length) {
  for (var i=0;i<edges.length;i++) {
    if (edges[i].id.substr(0,4)=='edge') {
      edges[i].setAttribute('class','edge');
    }
  }
}
]]></script>
        <defs>
                <circle id="rim" cx="0" cy="0" r="7"/>
                <circle id="rim2" cx="0" cy="0" r="3.5"/>
                <g id="zoomPlus">
                        <use xlink:href="#rim" fill="#404040">
                                <set attributeName="fill" to="#808080" begin="zoomplus.mouseover" end="zoomplus.mouseout"/>
                        </use>
                        <path d="M-4,0h8M0,-4v8" fill="none" stroke="white" stroke-width="1.5" pointer-events="none"/>
                </g>
                <g id="zoomMin">
                        <use xlink:href="#rim" fill="#404040">
                                <set attributeName="fill" to="#808080" begin="zoomminus.mouseover" end="zoomminus.mouseout"/>
                        </use>
                        <path d="M-4,0h8" fill="none" stroke="white" stroke-width="1.5" pointer-events="none"/>
                </g>
                <g id="dirArrow">
                        <path fill="none" stroke="white" stroke-width="1.5" d="M0,-3.0v7 M-2.5,-0.5L0,-3.0L2.5,-0.5"/>
                </g>
               <g id="resetDef">
                       <use xlink:href="#rim2" fill="#404040">
                               <set attributeName="fill" to="#808080" begin="reset.mouseover" end="reset.mouseout"/>
                       </use>
               </g>
        </defs>

<script type="text/javascript">
var viewWidth = 303;
var viewHeight = 471;
var sectionId = 'dynsection-0';
</script>
<script xlink:href="svgpan.js"/>
<svg id="graph" class="graph">
<g id="viewport">
<title>event::BaseEvent</title>
<polygon fill="#ffffff" stroke="transparent" points="-4,4 -4,-467 299.3535,-467 299.3535,4 -4,4"/>
<!-- Node0 -->
<g id="node1" class="node">
<title>Node0</title>
<polygon fill="#bfbfbf" stroke="#000000" points="0,-222.5 0,-240.5 94.3838,-240.5 94.3838,-222.5 0,-222.5"/>
<text text-anchor="middle" x="47.1919" y="-228.5" font-family="Helvetica,sans-Serif" font-size="10.00" fill="#000000">event::BaseEvent</text>
</g>
<!-- Node1 -->
<g id="node2" class="node">
<title>Node1</title>
<g id="a_node2"><a xlink:href="classevent_1_1_all_downloads_complete.html" target="_top" xlink:title="All targets for an update have been downloaded. ">
<polygon fill="#ffffff" stroke="#000000" points="138.167,-444.5 138.167,-462.5 287.5703,-462.5 287.5703,-444.5 138.167,-444.5"/>
<text text-anchor="middle" x="212.8687" y="-450.5" font-family="Helvetica,sans-Serif" font-size="10.00" fill="#000000">event::AllDownloadsComplete</text>
</a>
</g>
</g>
<!-- Node0&#45;&gt;Node1 -->
<g id="edge1" class="edge">
<title>Node0&#45;&gt;Node1</title>
<path fill="none" stroke="#191970" d="M49.148,-250.7081C54.3675,-291.4493 72.4438,-386.7753 130.3838,-435.5 134.6466,-439.0848 139.4613,-442.002 144.5702,-444.3707"/>
<polygon fill="#191970" stroke="#191970" points="52.598,-250.0738 47.9731,-240.5417 45.6443,-250.8774 52.598,-250.0738"/>
</g>
<!-- Node2 -->
<g id="node3" class="node">
<title>Node2</title>
<g id="a_node3"><a xlink:href="classevent_1_1_all_installs_complete.html" target="_top" xlink:title="All ECU installation attempts for an update have completed. ">
<polygon fill="#ffffff" stroke="#000000" points="147.3418,-407.5 147.3418,-425.5 278.3955,-425.5 278.3955,-407.5 147.3418,-407.5"/>
<text text-anchor="middle" x="212.8687" y="-413.5" font-family="Helvetica,sans-Serif" font-size="10.00" fill="#000000">event::AllInstallsComplete</text>
</a>
</g>
</g>
<!-- Node0&#45;&gt;Node2 -->
<g id="edge2" class="edge">
<title>Node0&#45;&gt;Node2</title>
<path fill="none" stroke="#191970" d="M51.0803,-250.8147C59.2196,-286.0021 81.4992,-360.424 130.3838,-398.5 135.4717,-402.463 141.2474,-405.5954 147.324,-408.0658"/>
<polygon fill="#191970" stroke="#191970" points="54.4619,-249.8936 48.9187,-240.8646 47.6214,-251.3797 54.4619,-249.8936"/>
</g>
<!-- Node3 -->
<g id="node4" class="node">
<title>Node3</title>
<g id="a_node4"><a xlink:href="classevent_1_1_campaign_accept_complete.html" target="_top" xlink:title="A campaign has been accepted. ">
<polygon fill="#ffffff" stroke="#000000" points="130.3838,-370.5 130.3838,-388.5 295.3535,-388.5 295.3535,-370.5 130.3838,-370.5"/>
<text text-anchor="middle" x="212.8687" y="-376.5" font-family="Helvetica,sans-Serif" font-size="10.00" fill="#000000">event::CampaignAcceptComplete</text>
</a>
</g>
</g>
<!-- Node0&#45;&gt;Node3 -->
<g id="edge3" class="edge">
<title>Node0&#45;&gt;Node3</title>
<path fill="none" stroke="#191970" d="M53.8725,-250.5076C65.0145,-279.2905 90.2153,-333.5336 130.3838,-361.5 135.6765,-365.185 141.5866,-368.135 147.7454,-370.4938"/>
<polygon fill="#191970" stroke="#191970" points="57.0438,-248.9928 50.2886,-240.8308 50.4795,-251.4239 57.0438,-248.9928"/>
</g>
<!-- Node4 -->
<g id="node5" class="node">
<title>Node4</title>
<g id="a_node5"><a xlink:href="classevent_1_1_campaign_check_complete.html" target="_top" xlink:title="The server has been queried for available campaigns. ">
<polygon fill="#ffffff" stroke="#000000" points="131.4971,-333.5 131.4971,-351.5 294.2402,-351.5 294.2402,-333.5 131.4971,-333.5"/>
<text text-anchor="middle" x="212.8687" y="-339.5" font-family="Helvetica,sans-Serif" font-size="10.00" fill="#000000">event::CampaignCheckComplete</text>
</a>
</g>
</g>
<!-- Node0&#45;&gt;Node4 -->
<g id="edge4" class="edge">
<title>Node0&#45;&gt;Node4</title>
<path fill="none" stroke="#191970" d="M58.0725,-249.3395C72.0654,-270.6807 98.4141,-305.8572 130.3838,-324.5 136.7147,-328.1918 143.7191,-331.1281 150.8924,-333.4632"/>
<polygon fill="#191970" stroke="#191970" points="60.8504,-247.1847 52.537,-240.6167 54.9401,-250.9355 60.8504,-247.1847"/>
</g>
<!-- Node5 -->
<g id="node6" class="node">
<title>Node5</title>
<g id="a_node6"><a xlink:href="classevent_1_1_download_paused.html" target="_top" xlink:title="A download in progress has been paused. ">
<polygon fill="#ffffff" stroke="#000000" points="150.6646,-296.5 150.6646,-314.5 275.0728,-314.5 275.0728,-296.5 150.6646,-296.5"/>
<text text-anchor="middle" x="212.8687" y="-302.5" font-family="Helvetica,sans-Serif" font-size="10.00" fill="#000000">event::DownloadPaused</text>
</a>
</g>
</g>
<!-- Node0&#45;&gt;Node5 -->
<g id="edge5" class="edge">
<title>Node0&#45;&gt;Node5</title>
<path fill="none" stroke="#191970" d="M65.7563,-247.0286C81.8722,-259.7354 106.3371,-277.2292 130.3838,-287.5 138.8757,-291.1271 148.1835,-294.059 157.3913,-296.4184"/>
<polygon fill="#191970" stroke="#191970" points="67.6968,-244.097 57.7176,-240.5381 63.2993,-249.5433 67.6968,-244.097"/>
</g>
<!-- Node6 -->
<g id="node7" class="node">
<title>Node6</title>
<g id="a_node7"><a xlink:href="classevent_1_1_download_progress_report.html" target="_top" xlink:title="A report for a download in progress. ">
<polygon fill="#ffffff" stroke="#000000" points="132.6079,-259.5 132.6079,-277.5 293.1294,-277.5 293.1294,-259.5 132.6079,-259.5"/>
<text text-anchor="middle" x="212.8687" y="-265.5" font-family="Helvetica,sans-Serif" font-size="10.00" fill="#000000">event::DownloadProgressReport</text>
</a>
</g>
</g>
<!-- Node0&#45;&gt;Node6 -->
<g id="edge6" class="edge">
<title>Node0&#45;&gt;Node6</title>
<path fill="none" stroke="#191970" d="M96.5324,-242.8517C107.6619,-245.3891 119.4244,-248.0528 130.3838,-250.5 143.5444,-253.4388 157.8988,-256.59 170.8892,-259.4214"/>
<polygon fill="#191970" stroke="#191970" points="97.0591,-239.3819 86.5307,-240.5667 95.5,-246.2061 97.0591,-239.3819"/>
</g>
<!-- Node7 -->
<g id="node8" class="node">
<title>Node7</title>
<g id="a_node8"><a xlink:href="classevent_1_1_download_resumed.html" target="_top" xlink:title="A paused download has been resumed. ">
<polygon fill="#ffffff" stroke="#000000" points="146.2236,-222.5 146.2236,-240.5 279.5137,-240.5 279.5137,-222.5 146.2236,-222.5"/>
<text text-anchor="middle" x="212.8687" y="-228.5" font-family="Helvetica,sans-Serif" font-size="10.00" fill="#000000">event::DownloadResumed</text>
</a>
</g>
</g>
<!-- Node0&#45;&gt;Node7 -->
<g id="edge7" class="edge">
<title>Node0&#45;&gt;Node7</title>
<path fill="none" stroke="#191970" d="M105.0322,-231.5C118.2416,-231.5 132.3868,-231.5 145.9414,-231.5"/>
<polygon fill="#191970" stroke="#191970" points="104.6682,-228.0001 94.6682,-231.5 104.6682,-235.0001 104.6682,-228.0001"/>
</g>
<!-- Node8 -->
<g id="node9" class="node">
<title>Node8</title>
<g id="a_node9"><a xlink:href="classevent_1_1_download_target_complete.html" target="_top" xlink:title="A target has been downloaded. ">
<polygon fill="#ffffff" stroke="#000000" points="132.3271,-185.5 132.3271,-203.5 293.4102,-203.5 293.4102,-185.5 132.3271,-185.5"/>
<text text-anchor="middle" x="212.8687" y="-191.5" font-family="Helvetica,sans-Serif" font-size="10.00" fill="#000000">event::DownloadTargetComplete</text>
</a>
</g>
</g>
<!-- Node0&#45;&gt;Node8 -->
<g id="edge8" class="edge">
<title>Node0&#45;&gt;Node8</title>
<path fill="none" stroke="#191970" d="M97.7054,-220.219C121.6826,-214.8643 149.9451,-208.5525 172.4712,-203.5218"/>
<polygon fill="#191970" stroke="#191970" points="96.7177,-216.8533 87.721,-222.4488 98.2435,-223.685 96.7177,-216.8533"/>
</g>
<!-- Node9 -->
<g id="node10" class="node">
<title>Node9</title>
<g id="a_node10"><a xlink:href="classevent_1_1_install_started.html" target="_top" xlink:title="An ECU has begun installation of an update. ">
<polygon fill="#ffffff" stroke="#000000" points="160.6768,-148.5 160.6768,-166.5 265.0605,-166.5 265.0605,-148.5 160.6768,-148.5"/>
<text text-anchor="middle" x="212.8687" y="-154.5" font-family="Helvetica,sans-Serif" font-size="10.00" fill="#000000">event::InstallStarted</text>
</a>
</g>
</g>
<!-- Node0&#45;&gt;Node9 -->
<g id="edge9" class="edge">
<title>Node0&#45;&gt;Node9</title>
<path fill="none" stroke="#191970" d="M66.1061,-216.1234C82.271,-203.7128 106.6209,-186.6949 130.3838,-176.5 139.8372,-172.4442 150.288,-169.1859 160.484,-166.5921"/>
<polygon fill="#191970" stroke="#191970" points="63.7259,-213.5423 58.0234,-222.4716 68.0497,-219.0474 63.7259,-213.5423"/>
</g>
<!-- Node10 -->
<g id="node11" class="node">
<title>Node10</title>
<g id="a_node11"><a xlink:href="classevent_1_1_install_target_complete.html" target="_top" xlink:title="An installation attempt on an ECU has completed. ">
<polygon fill="#ffffff" stroke="#000000" points="141.502,-111.5 141.502,-129.5 284.2354,-129.5 284.2354,-111.5 141.502,-111.5"/>
<text text-anchor="middle" x="212.8687" y="-117.5" font-family="Helvetica,sans-Serif" font-size="10.00" fill="#000000">event::InstallTargetComplete</text>
</a>
</g>
</g>
<!-- Node0&#45;&gt;Node10 -->
<g id="edge10" class="edge">
<title>Node0&#45;&gt;Node10</title>
<path fill="none" stroke="#191970" d="M58.3701,-213.5929C72.4987,-192.5129 98.8229,-158.0351 130.3838,-139.5 137.4799,-135.3326 145.4185,-132.0792 153.4914,-129.5395"/>
<polygon fill="#191970" stroke="#191970" points="55.2722,-211.937 52.7617,-222.2301 61.1432,-215.7491 55.2722,-211.937"/>
</g>
<!-- Node11 -->
<g id="node12" class="node">
<title>Node11</title>
<g id="a_node12"><a xlink:href="classevent_1_1_put_manifest_complete.html" target="_top" xlink:title="A manifest has been sent to the server. ">
<polygon fill="#ffffff" stroke="#000000" points="142.0586,-74.5 142.0586,-92.5 283.6787,-92.5 283.6787,-74.5 142.0586,-74.5"/>
<text text-anchor="middle" x="212.8687" y="-80.5" font-family="Helvetica,sans-Serif" font-size="10.00" fill="#000000">event::PutManifestComplete</text>
</a>
</g>
</g>
<!-- Node0&#45;&gt;Node11 -->
<g id="edge11" class="edge">
<title>Node0&#45;&gt;Node11</title>
<path fill="none" stroke="#191970" d="M53.9539,-212.6935C65.2042,-184.2049 90.5463,-130.4742 130.3838,-102.5 136.2767,-98.3619 142.9357,-95.1119 149.8516,-92.5615"/>
<polygon fill="#191970" stroke="#191970" points="50.596,-211.6782 50.3313,-222.2698 57.1432,-214.155 50.596,-211.6782"/>
</g>
<!-- Node12 -->
<g id="node13" class="node">
<title>Node12</title>
<g id="a_node13"><a xlink:href="classevent_1_1_send_device_data_complete.html" target="_top" xlink:title="Device data has been sent to the server. ">
<polygon fill="#ffffff" stroke="#000000" points="130.938,-37.5 130.938,-55.5 294.7993,-55.5 294.7993,-37.5 130.938,-37.5"/>
<text text-anchor="middle" x="212.8687" y="-43.5" font-family="Helvetica,sans-Serif" font-size="10.00" fill="#000000">event::SendDeviceDataComplete</text>
</a>
</g>
</g>
<!-- Node0&#45;&gt;Node12 -->
<g id="edge12" class="edge">
<title>Node0&#45;&gt;Node12</title>
<path fill="none" stroke="#191970" d="M51.1585,-212.3522C59.4259,-177.4594 81.9073,-103.6154 130.3838,-65.5 135.5822,-61.4126 141.5018,-58.1752 147.7283,-55.6151"/>
<polygon fill="#191970" stroke="#191970" points="47.719,-211.6957 48.9587,-222.2177 54.5512,-213.2191 47.719,-211.6957"/>
</g>
<!-- Node13 -->
<g id="node14" class="node">
<title>Node13</title>
<g id="a_node14"><a xlink:href="classevent_1_1_update_check_complete.html" target="_top" xlink:title="An update is available for download from the server. ">
<polygon fill="#ffffff" stroke="#000000" points="138.1646,-.5 138.1646,-18.5 287.5728,-18.5 287.5728,-.5 138.1646,-.5"/>
<text text-anchor="middle" x="212.8687" y="-6.5" font-family="Helvetica,sans-Serif" font-size="10.00" fill="#000000">event::UpdateCheckComplete</text>
</a>
</g>
</g>
<!-- Node0&#45;&gt;Node13 -->
<g id="edge13" class="edge">
<title>Node0&#45;&gt;Node13</title>
<path fill="none" stroke="#191970" d="M49.2625,-212.1334C54.6775,-171.5196 73.0686,-77.1818 130.3838,-28.5 135.2,-24.4093 140.7254,-21.1567 146.5859,-18.5762"/>
<polygon fill="#191970" stroke="#191970" points="45.7855,-211.7331 48.0578,-222.0814 52.7348,-212.5748 45.7855,-211.7331"/>
</g>
</g>
</svg>
        <g id="navigator" transform="translate(0 0)" fill="#404254">
                <rect fill="#f2f5e9" fill-opacity="0.5" stroke="#606060" stroke-width=".5" x="0" y="0" width="60" height="60"/>
                <use id="zoomplus" xlink:href="#zoomPlus" x="17" y="9" onmousedown="handleZoom(evt,'in')"/>
                <use id="zoomminus" xlink:href="#zoomMin" x="42" y="9" onmousedown="handleZoom(evt,'out')"/>
                <use id="reset" xlink:href="#resetDef" x="30" y="36" onmousedown="handleReset()"/>
                <g id="arrowUp" xlink:href="#dirArrow" transform="translate(30 24)" onmousedown="handlePan(0,-1)">
                  <use xlink:href="#rim" fill="#404040">
                        <set attributeName="fill" to="#808080" begin="arrowUp.mouseover" end="arrowUp.mouseout"/>
                  </use>
                  <path fill="none" stroke="white" stroke-width="1.5" d="M0,-3.0v7 M-2.5,-0.5L0,-3.0L2.5,-0.5"/>
                </g>
                <g id="arrowRight" xlink:href="#dirArrow" transform="rotate(90) translate(36 -43)" onmousedown="handlePan(1,0)">
                  <use xlink:href="#rim" fill="#404040">
                        <set attributeName="fill" to="#808080" begin="arrowRight.mouseover" end="arrowRight.mouseout"/>
                  </use>
                  <path fill="none" stroke="white" stroke-width="1.5" d="M0,-3.0v7 M-2.5,-0.5L0,-3.0L2.5,-0.5"/>
                </g>
                <g id="arrowDown" xlink:href="#dirArrow" transform="rotate(180) translate(-30 -48)" onmousedown="handlePan(0,1)">
                  <use xlink:href="#rim" fill="#404040">
                        <set attributeName="fill" to="#808080" begin="arrowDown.mouseover" end="arrowDown.mouseout"/>
                  </use>
                  <path fill="none" stroke="white" stroke-width="1.5" d="M0,-3.0v7 M-2.5,-0.5L0,-3.0L2.5,-0.5"/>
                </g>
                <g id="arrowLeft" xlink:href="#dirArrow" transform="rotate(270) translate(-36 17)" onmousedown="handlePan(-1,0)">
                  <use xlink:href="#rim" fill="#404040">
                        <set attributeName="fill" to="#808080" begin="arrowLeft.mouseover" end="arrowLeft.mouseout"/>
                  </use>
                  <path fill="none" stroke="white" stroke-width="1.5" d="M0,-3.0v7 M-2.5,-0.5L0,-3.0L2.5,-0.5"/>
                </g>
        </g>
        <svg viewBox="0 0 15 15" width="100%" height="30px" preserveAspectRatio="xMaxYMin meet">
         <g id="arrow_out" transform="scale(0.3 0.3)">
          <a xlink:href="classevent_1_1_base_event__inherit__graph_org.svg" target="_base">
           <rect id="button" ry="5" rx="5" y="6" x="6" height="38" width="38"
                fill="#f2f5e9" fill-opacity="0.5" stroke="#606060" stroke-width="1.0"/>
           <path id="arrow"
             d="M 11.500037,31.436501 C 11.940474,20.09759 22.043105,11.32322 32.158766,21.979434 L 37.068811,17.246167 C 37.068811,17.246167 37.088388,32 37.088388,32 L 22.160133,31.978069 C 22.160133,31.978069 26.997745,27.140456 26.997745,27.140456 C 18.528582,18.264221 13.291696,25.230495 11.500037,31.436501 z"
             style="fill:#404040;"/>
          </a>
         </g>
        </svg>
</svg>
