<?xml version="1.0" encoding="UTF-8" standalone="no"?>
<!DOCTYPE svg PUBLIC "-//W3C//DTD SVG 1.1//EN"
 "http://www.w3.org/Graphics/SVG/1.1/DTD/svg11.dtd">
<!-- Generated by graphviz version 2.40.1 (20161225.0304)
 -->
<!-- Title: Config Pages: 1 -->
<!--zoomable 568 -->
<svg id="main" version="1.1" xmlns="http://www.w3.org/2000/svg" xmlns:xlink="http://www.w3.org/1999/xlink" xml:space="preserve" onload="init(evt)">
<style type="text/css"><![CDATA[
.edge:hover path { stroke: red; }
.edge:hover polygon { stroke: red; fill: red; }
]]></style>
<script type="text/javascript"><![CDATA[
var edges = document.getElementsByTagName('g');
if (edges && edges.length) {
  for (var i=0;i<edges.length;i++) {
    if (edges[i].id.substr(0,4)=='edge') {
      edges[i].setAttribute('class','edge');
    }
  }
}
]]></script>
        <defs>
                <circle id="rim" cx="0" cy="0" r="7"/>
                <circle id="rim2" cx="0" cy="0" r="3.5"/>
                <g id="zoomPlus">
                        <use xlink:href="#rim" fill="#404040">
                                <set attributeName="fill" to="#808080" begin="zoomplus.mouseover" end="zoomplus.mouseout"/>
                        </use>
                        <path d="M-4,0h8M0,-4v8" fill="none" stroke="white" stroke-width="1.5" pointer-events="none"/>
                </g>
                <g id="zoomMin">
                        <use xlink:href="#rim" fill="#404040">
                                <set attributeName="fill" to="#808080" begin="zoomminus.mouseover" end="zoomminus.mouseout"/>
                        </use>
                        <path d="M-4,0h8" fill="none" stroke="white" stroke-width="1.5" pointer-events="none"/>
                </g>
                <g id="dirArrow">
                        <path fill="none" stroke="white" stroke-width="1.5" d="M0,-3.0v7 M-2.5,-0.5L0,-3.0L2.5,-0.5"/>
                </g>
               <g id="resetDef">
                       <use xlink:href="#rim2" fill="#404040">
                               <set attributeName="fill" to="#808080" begin="reset.mouseover" end="reset.mouseout"/>
                       </use>
               </g>
        </defs>

<script type="text/javascript">
var viewWidth = 1068;
var viewHeight = 568;
var sectionId = 'dynsection-1';
</script>
<script xlink:href="svgpan.js"/>
<svg id="graph" class="graph">
<g id="viewport">
<title>Config</title>
<polygon fill="#ffffff" stroke="transparent" points="-4,4 -4,-564 1063.5771,-564 1063.5771,4 -4,4"/>
<!-- Node2 -->
<g id="node1" class="node">
<title>Node2</title>
<polygon fill="#bfbfbf" stroke="#000000" points="1014.6709,-233.5 1014.6709,-251.5 1059.5771,-251.5 1059.5771,-233.5 1014.6709,-233.5"/>
<text text-anchor="middle" x="1037.124" y="-239.5" font-family="Helvetica,sans-Serif" font-size="10.00" fill="#000000">Config</text>
</g>
<!-- Node3 -->
<g id="node2" class="node">
<title>Node3</title>
<g id="a_node2"><a xlink:href="class_base_config.html" target="_top" xlink:title="BaseConfig">
<polygon fill="#ffffff" stroke="#000000" points="848.1445,-502.5 848.1445,-520.5 915.8438,-520.5 915.8438,-502.5 848.1445,-502.5"/>
<text text-anchor="middle" x="881.9941" y="-508.5" font-family="Helvetica,sans-Serif" font-size="10.00" fill="#000000">BaseConfig</text>
</a>
</g>
</g>
<!-- Node3&#45;&gt;Node2 -->
<g id="edge1" class="edge">
<title>Node3&#45;&gt;Node2</title>
<path fill="none" stroke="#191970" d="M923.95,-498.9848C948.8445,-489.4002 978.9153,-473.6448 996.6709,-449.5 1020.5336,-417.0504 1033.2579,-287.4988 1036.3648,-251.7041"/>
<polygon fill="#191970" stroke="#191970" points="922.5494,-495.77 914.3508,-502.4807 924.9448,-502.3474 922.5494,-495.77"/>
</g>
<!-- Node4 -->
<g id="node3" class="node">
<title>Node4</title>
<polygon fill="#ffffff" stroke="#bfbfbf" points="584.8872,-531.5 584.8872,-559.5 684.5347,-559.5 684.5347,-531.5 584.8872,-531.5"/>
<text text-anchor="start" x="592.8872" y="-547.5" font-family="Helvetica,sans-Serif" font-size="10.00" fill="#000000">std::vector&lt; boost</text>
<text text-anchor="middle" x="634.7109" y="-537.5" font-family="Helvetica,sans-Serif" font-size="10.00" fill="#000000">::filesystem::path &gt;</text>
</g>
<!-- Node4&#45;&gt;Node3 -->
<g id="edge2" class="edge">
<title>Node4&#45;&gt;Node3</title>
<path fill="none" stroke="#9a32cd" stroke-dasharray="5,2" d="M694.7231,-537.2487C742.7762,-530.6417 808.4557,-521.6111 847.9025,-516.1874"/>
<polygon fill="#9a32cd" stroke="#9a32cd" points="694.1824,-533.79 684.7524,-538.6196 695.136,-540.7248 694.1824,-533.79"/>
<text text-anchor="middle" x="761.7559" y="-536.5" font-family="Helvetica,sans-Serif" font-size="10.00" fill="#000000"> config_dirs_</text>
</g>
<!-- Node5 -->
<g id="node4" class="node">
<title>Node5</title>
<g id="a_node4"><a xlink:href="struct_storage_config.html" target="_top" xlink:title="StorageConfig">
<polygon fill="#ffffff" stroke="#000000" points="842.0288,-431.5 842.0288,-449.5 921.9595,-449.5 921.9595,-431.5 842.0288,-431.5"/>
<text text-anchor="middle" x="881.9941" y="-437.5" font-family="Helvetica,sans-Serif" font-size="10.00" fill="#000000">StorageConfig</text>
</a>
</g>
</g>
<!-- Node5&#45;&gt;Node2 -->
<g id="edge3" class="edge">
<title>Node5&#45;&gt;Node2</title>
<path fill="none" stroke="#9a32cd" stroke-dasharray="5,2" d="M932.2376,-439.1927C954.7314,-436.0214 979.9048,-428.4811 996.6709,-411.5 1019.563,-388.3142 1032.6238,-283.941 1036.1465,-251.8904"/>
<polygon fill="#9a32cd" stroke="#9a32cd" points="931.6631,-435.7357 922.131,-440.3606 932.4667,-442.6894 931.6631,-435.7357"/>
<text text-anchor="middle" x="971.6514" y="-437.5" font-family="Helvetica,sans-Serif" font-size="10.00" fill="#000000"> storage</text>
</g>
<!-- Node6 -->
<g id="node5" class="node">
<title>Node6</title>
<g id="a_node5"><a xlink:href="class_based_path.html" target="_top" xlink:title="BasedPath">
<polygon fill="#ffffff" stroke="#000000" points="602.248,-402.5 602.248,-420.5 667.1738,-420.5 667.1738,-402.5 602.248,-402.5"/>
<text text-anchor="middle" x="634.7109" y="-408.5" font-family="Helvetica,sans-Serif" font-size="10.00" fill="#000000">BasedPath</text>
</a>
</g>
</g>
<!-- Node6&#45;&gt;Node5 -->
<g id="edge4" class="edge">
<title>Node6&#45;&gt;Node5</title>
<path fill="none" stroke="#9a32cd" stroke-dasharray="5,2" d="M677.4261,-416.9664C686.8838,-418.1528 696.8574,-419.3856 706.1553,-420.5 752.6771,-426.0757 806.1711,-432.1057 841.8217,-436.0702"/>
<polygon fill="#9a32cd" stroke="#9a32cd" points="677.7817,-413.4836 667.4223,-415.7049 676.9058,-420.4286 677.7817,-413.4836"/>
<text text-anchor="middle" x="761.7559" y="-504.5" font-family="Helvetica,sans-Serif" font-size="10.00" fill="#000000"> uptane_public_key_path</text>
<text text-anchor="middle" x="761.7559" y="-494.5" font-family="Helvetica,sans-Serif" font-size="10.00" fill="#000000">tls_pkey_path</text>
<text text-anchor="middle" x="761.7559" y="-484.5" font-family="Helvetica,sans-Serif" font-size="10.00" fill="#000000">uptane_metadata_path</text>
<text text-anchor="middle" x="761.7559" y="-474.5" font-family="Helvetica,sans-Serif" font-size="10.00" fill="#000000">sqldb_path</text>
<text text-anchor="start" x="706.1553" y="-464.5" font-family="Helvetica,sans-Serif" font-size="10.00" fill="#000000">uptane_private_key</text>
<text text-anchor="middle" x="761.7559" y="-454.5" font-family="Helvetica,sans-Serif" font-size="10.00" fill="#000000">_path</text>
<text text-anchor="middle" x="761.7559" y="-444.5" font-family="Helvetica,sans-Serif" font-size="10.00" fill="#000000">tls_cacert_path</text>
<text text-anchor="middle" x="761.7559" y="-434.5" font-family="Helvetica,sans-Serif" font-size="10.00" fill="#000000">tls_clientcert_path</text>
</g>
<!-- Node20 -->
<g id="node19" class="node">
<title>Node20</title>
<g id="a_node19"><a xlink:href="struct_import_config.html" target="_top" xlink:title="ImportConfig">
<polygon fill="#ffffff" stroke="#000000" points="845.3711,-392.5 845.3711,-410.5 918.6172,-410.5 918.6172,-392.5 845.3711,-392.5"/>
<text text-anchor="middle" x="881.9941" y="-398.5" font-family="Helvetica,sans-Serif" font-size="10.00" fill="#000000">ImportConfig</text>
</a>
</g>
</g>
<!-- Node6&#45;&gt;Node20 -->
<g id="edge25" class="edge">
<title>Node6&#45;&gt;Node20</title>
<path fill="none" stroke="#9a32cd" stroke-dasharray="5,2" d="M650.8229,-395.4538C664.3178,-383.2226 684.7619,-367.3524 706.1553,-360.5 753.2225,-345.4242 772.9267,-338.8527 817.3564,-360.5 829.0256,-366.1855 824.9258,-375.7737 835.3564,-383.5 840.0988,-387.0128 845.6124,-389.9295 851.1529,-392.3188"/>
<polygon fill="#9a32cd" stroke="#9a32cd" points="648.2422,-393.0768 643.372,-402.4859 653.0468,-398.1675 648.2422,-393.0768"/>
<text text-anchor="middle" x="761.7559" y="-412.5" font-family="Helvetica,sans-Serif" font-size="10.00" fill="#000000"> uptane_public_key_path</text>
<text text-anchor="middle" x="761.7559" y="-402.5" font-family="Helvetica,sans-Serif" font-size="10.00" fill="#000000">tls_pkey_path</text>
<text text-anchor="start" x="706.1553" y="-392.5" font-family="Helvetica,sans-Serif" font-size="10.00" fill="#000000">uptane_private_key</text>
<text text-anchor="middle" x="761.7559" y="-382.5" font-family="Helvetica,sans-Serif" font-size="10.00" fill="#000000">_path</text>
<text text-anchor="middle" x="761.7559" y="-372.5" font-family="Helvetica,sans-Serif" font-size="10.00" fill="#000000">tls_cacert_path</text>
<text text-anchor="middle" x="761.7559" y="-362.5" font-family="Helvetica,sans-Serif" font-size="10.00" fill="#000000">tls_clientcert_path</text>
</g>
<!-- Node7 -->
<g id="node6" class="node">
<title>Node7</title>
<g id="a_node6"><a xlink:href="struct_discovery_config.html" target="_top" xlink:title="DiscoveryConfig">
<polygon fill="#ffffff" stroke="#000000" points="837.5928,-355.5 837.5928,-373.5 926.3955,-373.5 926.3955,-355.5 837.5928,-355.5"/>
<text text-anchor="middle" x="881.9941" y="-361.5" font-family="Helvetica,sans-Serif" font-size="10.00" fill="#000000">DiscoveryConfig</text>
</a>
</g>
</g>
<!-- Node7&#45;&gt;Node2 -->
<g id="edge5" class="edge">
<title>Node7&#45;&gt;Node2</title>
<path fill="none" stroke="#9a32cd" stroke-dasharray="5,2" d="M936.553,-363.6658C957.3292,-360.8212 979.9927,-354.3441 996.6709,-340.5 1024.7134,-317.2227 1033.577,-271.3283 1036.1538,-251.7273"/>
<polygon fill="#9a32cd" stroke="#9a32cd" points="936.0885,-360.1958 926.54,-364.7867 936.8673,-367.1524 936.0885,-360.1958"/>
<text text-anchor="middle" x="971.6514" y="-363.5" font-family="Helvetica,sans-Serif" font-size="10.00" fill="#000000"> discovery</text>
</g>
<!-- Node8 -->
<g id="node7" class="node">
<title>Node8</title>
<g id="a_node7"><a xlink:href="struct_tls_config.html" target="_top" xlink:title="TlsConfig">
<polygon fill="#ffffff" stroke="#000000" points="491.1313,-325.5 491.1313,-343.5 549.3677,-343.5 549.3677,-325.5 491.1313,-325.5"/>
<text text-anchor="middle" x="520.2495" y="-331.5" font-family="Helvetica,sans-Serif" font-size="10.00" fill="#000000">TlsConfig</text>
</a>
</g>
</g>
<!-- Node8&#45;&gt;Node2 -->
<g id="edge6" class="edge">
<title>Node8&#45;&gt;Node2</title>
<path fill="none" stroke="#9a32cd" stroke-dasharray="5,2" d="M559.7058,-333.8298C633.0765,-331.9442 795.174,-324.7678 928.6318,-297.5 959.7696,-291.138 968.7576,-290.6949 996.6709,-275.5 1008.4524,-269.0866 1020.1321,-259.0591 1027.89,-251.7399"/>
<polygon fill="#9a32cd" stroke="#9a32cd" points="559.4524,-330.3347 549.5384,-334.0714 559.6188,-337.3327 559.4524,-330.3347"/>
<text text-anchor="middle" x="761.7559" y="-327.5" font-family="Helvetica,sans-Serif" font-size="10.00" fill="#000000"> tls</text>
</g>
<!-- Node9 -->
<g id="node8" class="node">
<title>Node9</title>
<g id="a_node8"><a xlink:title="STL class. ">
<polygon fill="#ffffff" stroke="#bfbfbf" points="131.0957,-189.5 131.0957,-207.5 190.4453,-207.5 190.4453,-189.5 131.0957,-189.5"/>
<text text-anchor="middle" x="160.7705" y="-195.5" font-family="Helvetica,sans-Serif" font-size="10.00" fill="#000000">std::string</text>
</a>
</g>
</g>
<!-- Node9&#45;&gt;Node8 -->
<g id="edge7" class="edge">
<title>Node9&#45;&gt;Node8</title>
<path fill="none" stroke="#9a32cd" stroke-dasharray="5,2" d="M164.0672,-217.7876C170.7703,-254.4584 187.1733,-331.9719 208.4453,-347.5 298.1548,-412.9858 444.1336,-365.2558 498.7366,-343.6393"/>
<polygon fill="#9a32cd" stroke="#9a32cd" points="167.4944,-217.0683 162.3038,-207.8321 160.6017,-218.2893 167.4944,-217.0683"/>
<text text-anchor="middle" x="259.5806" y="-381.5" font-family="Helvetica,sans-Serif" font-size="10.00" fill="#000000"> server</text>
</g>
<!-- Node12 -->
<g id="node11" class="node">
<title>Node12</title>
<g id="a_node11"><a xlink:href="struct_package_config.html" target="_top" xlink:title="PackageConfig">
<polygon fill="#ffffff" stroke="#000000" points="719.8447,-282.5 719.8447,-300.5 803.667,-300.5 803.667,-282.5 719.8447,-282.5"/>
<text text-anchor="middle" x="761.7559" y="-288.5" font-family="Helvetica,sans-Serif" font-size="10.00" fill="#000000">PackageConfig</text>
</a>
</g>
</g>
<!-- Node9&#45;&gt;Node12 -->
<g id="edge11" class="edge">
<title>Node9&#45;&gt;Node12</title>
<path fill="none" stroke="#9a32cd" stroke-dasharray="5,2" d="M162.2517,-217.771C165.4934,-244.9164 175.7949,-293.5473 208.4453,-315.5 229.5654,-329.7002 594.3076,-303.9889 719.7691,-294.6761"/>
<polygon fill="#9a32cd" stroke="#9a32cd" points="165.7128,-217.2023 161.2501,-207.5932 158.7464,-217.8879 165.7128,-217.2023"/>
<text text-anchor="middle" x="393.9741" y="-329.5" font-family="Helvetica,sans-Serif" font-size="10.00" fill="#000000"> os</text>
<text text-anchor="middle" x="393.9741" y="-319.5" font-family="Helvetica,sans-Serif" font-size="10.00" fill="#000000">ostree_server</text>
</g>
<!-- Node13 -->
<g id="node12" class="node">
<title>Node13</title>
<g id="a_node12"><a xlink:href="struct_provision_config.html" target="_top" xlink:title="ProvisionConfig">
<polygon fill="#ffffff" stroke="#000000" points="477.2324,-229.5 477.2324,-247.5 563.2666,-247.5 563.2666,-229.5 477.2324,-229.5"/>
<text text-anchor="middle" x="520.2495" y="-235.5" font-family="Helvetica,sans-Serif" font-size="10.00" fill="#000000">ProvisionConfig</text>
</a>
</g>
</g>
<!-- Node9&#45;&gt;Node13 -->
<g id="edge13" class="edge">
<title>Node9&#45;&gt;Node13</title>
<path fill="none" stroke="#9a32cd" stroke-dasharray="5,2" d="M200.7037,-208.1251C203.3163,-208.6274 205.9137,-209.0921 208.4453,-209.5 303.7168,-224.8505 416.7725,-232.8558 477.1492,-236.322"/>
<polygon fill="#9a32cd" stroke="#9a32cd" points="201.1619,-204.6457 190.6593,-206.041 199.7397,-211.4997 201.1619,-204.6457"/>
<text text-anchor="middle" x="259.5806" y="-303.5" font-family="Helvetica,sans-Serif" font-size="10.00" fill="#000000"> server</text>
<text text-anchor="middle" x="259.5806" y="-293.5" font-family="Helvetica,sans-Serif" font-size="10.00" fill="#000000">p12_password</text>
<text text-anchor="start" x="208.4453" y="-283.5" font-family="Helvetica,sans-Serif" font-size="10.00" fill="#000000">primary_ecu_hardware</text>
<text text-anchor="middle" x="259.5806" y="-273.5" font-family="Helvetica,sans-Serif" font-size="10.00" fill="#000000">_id</text>
<text text-anchor="middle" x="259.5806" y="-263.5" font-family="Helvetica,sans-Serif" font-size="10.00" fill="#000000">expiry_days</text>
<text text-anchor="middle" x="259.5806" y="-253.5" font-family="Helvetica,sans-Serif" font-size="10.00" fill="#000000">device_id</text>
<text text-anchor="start" x="208.4453" y="-243.5" font-family="Helvetica,sans-Serif" font-size="10.00" fill="#000000">ecu_registration</text>
<text text-anchor="middle" x="259.5806" y="-233.5" font-family="Helvetica,sans-Serif" font-size="10.00" fill="#000000">_endpoint</text>
<text text-anchor="middle" x="259.5806" y="-223.5" font-family="Helvetica,sans-Serif" font-size="10.00" fill="#000000">primary_ecu_serial</text>
</g>
<!-- Node14 -->
<g id="node13" class="node">
<title>Node14</title>
<g id="a_node13"><a xlink:href="struct_network_config.html" target="_top" xlink:title="NetworkConfig">
<polygon fill="#ffffff" stroke="#000000" points="720.9653,-195.5 720.9653,-213.5 802.5464,-213.5 802.5464,-195.5 720.9653,-195.5"/>
<text text-anchor="middle" x="761.7559" y="-201.5" font-family="Helvetica,sans-Serif" font-size="10.00" fill="#000000">NetworkConfig</text>
</a>
</g>
</g>
<!-- Node9&#45;&gt;Node14 -->
<g id="edge15" class="edge">
<title>Node9&#45;&gt;Node14</title>
<path fill="none" stroke="#9a32cd" stroke-dasharray="5,2" d="M200.8003,-198.8996C309.7044,-199.9869 610.5368,-202.9903 720.6704,-204.0898"/>
<polygon fill="#9a32cd" stroke="#9a32cd" points="200.6079,-195.3976 190.5735,-198.7975 200.538,-202.3973 200.6079,-195.3976"/>
<text text-anchor="middle" x="393.9741" y="-202.5" font-family="Helvetica,sans-Serif" font-size="10.00" fill="#000000"> ipdiscovery_host</text>
</g>
<!-- Node15 -->
<g id="node14" class="node">
<title>Node15</title>
<g id="a_node14"><a xlink:href="struct_p11_config.html" target="_top" xlink:title="P11Config">
<polygon fill="#ffffff" stroke="#000000" points="362.9932,-136.5 362.9932,-154.5 424.9551,-154.5 424.9551,-136.5 362.9932,-136.5"/>
<text text-anchor="middle" x="393.9741" y="-142.5" font-family="Helvetica,sans-Serif" font-size="10.00" fill="#000000">P11Config</text>
</a>
</g>
</g>
<!-- Node9&#45;&gt;Node15 -->
<g id="edge17" class="edge">
<title>Node9&#45;&gt;Node15</title>
<path fill="none" stroke="#9a32cd" stroke-dasharray="5,2" d="M168.5762,-180.2476C176.2451,-164.898 189.5527,-143.9848 208.4453,-134.5 260.6392,-108.2966 331.7723,-124.6453 368.9719,-136.4736"/>
<polygon fill="#9a32cd" stroke="#9a32cd" points="165.3844,-178.8108 164.3489,-189.3549 171.7338,-181.758 165.3844,-178.8108"/>
<text text-anchor="middle" x="259.5806" y="-176.5" font-family="Helvetica,sans-Serif" font-size="10.00" fill="#000000"> tls_pkey_id</text>
<text text-anchor="middle" x="259.5806" y="-166.5" font-family="Helvetica,sans-Serif" font-size="10.00" fill="#000000">tls_clientcert_id</text>
<text text-anchor="middle" x="259.5806" y="-156.5" font-family="Helvetica,sans-Serif" font-size="10.00" fill="#000000">pass</text>
<text text-anchor="middle" x="259.5806" y="-146.5" font-family="Helvetica,sans-Serif" font-size="10.00" fill="#000000">uptane_key_id</text>
<text text-anchor="middle" x="259.5806" y="-136.5" font-family="Helvetica,sans-Serif" font-size="10.00" fill="#000000">tls_cacert_id</text>
</g>
<!-- Node16 -->
<g id="node15" class="node">
<title>Node16</title>
<g id="a_node15"><a xlink:href="struct_uptane_config.html" target="_top" xlink:title="UptaneConfig">
<polygon fill="#ffffff" stroke="#000000" points="843.418,-111.5 843.418,-129.5 920.5703,-129.5 920.5703,-111.5 843.418,-111.5"/>
<text text-anchor="middle" x="881.9941" y="-117.5" font-family="Helvetica,sans-Serif" font-size="10.00" fill="#000000">UptaneConfig</text>
</a>
</g>
</g>
<!-- Node9&#45;&gt;Node16 -->
<g id="edge19" class="edge">
<title>Node9&#45;&gt;Node16</title>
<path fill="none" stroke="#9a32cd" stroke-dasharray="5,2" d="M165.6175,-179.5296C171.843,-159.5721 184.7823,-129.1969 208.4453,-115.5 316.9898,-52.6711 716.5096,-98.64 843.189,-115.1951"/>
<polygon fill="#9a32cd" stroke="#9a32cd" points="162.1871,-178.7975 162.8241,-189.3732 168.9212,-180.7086 162.1871,-178.7975"/>
<text text-anchor="middle" x="520.2495" y="-100.5" font-family="Helvetica,sans-Serif" font-size="10.00" fill="#000000"> repo_server</text>
<text text-anchor="middle" x="520.2495" y="-90.5" font-family="Helvetica,sans-Serif" font-size="10.00" fill="#000000">director_server</text>
</g>
<!-- Node18 -->
<g id="node17" class="node">
<title>Node18</title>
<g id="a_node17"><a xlink:href="class_uptane_1_1_secondary_config.html" target="_top" xlink:title="Uptane::SecondaryConfig">
<polygon fill="#ffffff" stroke="#000000" points="328.7158,-29.5 328.7158,-47.5 459.2324,-47.5 459.2324,-29.5 328.7158,-29.5"/>
<text text-anchor="middle" x="393.9741" y="-35.5" font-family="Helvetica,sans-Serif" font-size="10.00" fill="#000000">Uptane::SecondaryConfig</text>
</a>
</g>
</g>
<!-- Node9&#45;&gt;Node18 -->
<g id="edge22" class="edge">
<title>Node9&#45;&gt;Node18</title>
<path fill="none" stroke="#9a32cd" stroke-dasharray="5,2" d="M163.553,-179.1666C169.62,-140.0497 185.3698,-53.7631 208.4453,-36.5 255.646,-1.1885 330.1699,-17.3834 368.8338,-29.4909"/>
<polygon fill="#9a32cd" stroke="#9a32cd" points="160.0612,-178.8518 162.0417,-189.2599 166.984,-179.8885 160.0612,-178.8518"/>
<text text-anchor="middle" x="259.5806" y="-78.5" font-family="Helvetica,sans-Serif" font-size="10.00" fill="#000000"> ecu_private_key</text>
<text text-anchor="middle" x="259.5806" y="-68.5" font-family="Helvetica,sans-Serif" font-size="10.00" fill="#000000">ecu_hardware_id</text>
<text text-anchor="middle" x="259.5806" y="-58.5" font-family="Helvetica,sans-Serif" font-size="10.00" fill="#000000">ecu_serial</text>
<text text-anchor="middle" x="259.5806" y="-48.5" font-family="Helvetica,sans-Serif" font-size="10.00" fill="#000000">opcua_lds_url</text>
<text text-anchor="middle" x="259.5806" y="-38.5" font-family="Helvetica,sans-Serif" font-size="10.00" fill="#000000">ecu_public_key</text>
</g>
<!-- Node10 -->
<g id="node9" class="node">
<title>Node10</title>
<g id="a_node9"><a xlink:title="STL class. ">
<polygon fill="#ffffff" stroke="#bfbfbf" points="0,-184.5 0,-212.5 94.0957,-212.5 94.0957,-184.5 0,-184.5"/>
<text text-anchor="start" x="8" y="-200.5" font-family="Helvetica,sans-Serif" font-size="10.00" fill="#000000">std::basic_string&lt;</text>
<text text-anchor="middle" x="47.0479" y="-190.5" font-family="Helvetica,sans-Serif" font-size="10.00" fill="#000000"> char &gt;</text>
</a>
</g>
</g>
<!-- Node10&#45;&gt;Node9 -->
<g id="edge8" class="edge">
<title>Node10&#45;&gt;Node9</title>
<path fill="none" stroke="#191970" d="M104.2966,-198.5C113.5577,-198.5 122.8051,-198.5 131.056,-198.5"/>
<polygon fill="#191970" stroke="#191970" points="104.2886,-195.0001 94.2885,-198.5 104.2885,-202.0001 104.2886,-195.0001"/>
</g>
<!-- Node11 -->
<g id="node10" class="node">
<title>Node11</title>
<g id="a_node10"><a xlink:href="struct_logger_config.html" target="_top" xlink:title="LoggerConfig">
<polygon fill="#ffffff" stroke="#000000" points="843.9722,-74.5 843.9722,-92.5 920.0161,-92.5 920.0161,-74.5 843.9722,-74.5"/>
<text text-anchor="middle" x="881.9941" y="-80.5" font-family="Helvetica,sans-Serif" font-size="10.00" fill="#000000">LoggerConfig</text>
</a>
</g>
</g>
<!-- Node11&#45;&gt;Node2 -->
<g id="edge9" class="edge">
<title>Node11&#45;&gt;Node2</title>
<path fill="none" stroke="#9a32cd" stroke-dasharray="5,2" d="M930.3122,-80.3059C952.9592,-81.3696 978.8201,-86.626 996.6709,-102.5 1016.8057,-120.405 1031.4397,-205.4336 1035.7877,-233.4927"/>
<polygon fill="#9a32cd" stroke="#9a32cd" points="930.2459,-76.8038 920.1733,-80.0891 930.0961,-83.8022 930.2459,-76.8038"/>
<text text-anchor="middle" x="971.6514" y="-104.5" font-family="Helvetica,sans-Serif" font-size="10.00" fill="#000000"> logger</text>
</g>
<!-- Node12&#45;&gt;Node2 -->
<g id="edge10" class="edge">
<title>Node12&#45;&gt;Node2</title>
<path fill="none" stroke="#9a32cd" stroke-dasharray="5,2" d="M813.9376,-286.5297C861.9011,-281.3016 934.7374,-271.6916 996.6709,-256.5 1002.5895,-255.0482 1008.867,-253.0901 1014.6662,-251.0989"/>
<polygon fill="#9a32cd" stroke="#9a32cd" points="813.3684,-283.0704 803.7955,-287.6102 814.11,-290.031 813.3684,-283.0704"/>
<text text-anchor="middle" x="881.9941" y="-285.5" font-family="Helvetica,sans-Serif" font-size="10.00" fill="#000000"> pacman</text>
</g>
<!-- Node13&#45;&gt;Node2 -->
<g id="edge12" class="edge">
<title>Node13&#45;&gt;Node2</title>
<path fill="none" stroke="#9a32cd" stroke-dasharray="5,2" d="M573.7519,-238.914C685.0907,-239.7757 937.7352,-241.7308 1014.5503,-242.3253"/>
<polygon fill="#9a32cd" stroke="#9a32cd" points="573.4557,-235.4117 563.4289,-238.8342 573.4015,-242.4115 573.4557,-235.4117"/>
<text text-anchor="middle" x="761.7559" y="-242.5" font-family="Helvetica,sans-Serif" font-size="10.00" fill="#000000"> provision</text>
</g>
<!-- Node14&#45;&gt;Node2 -->
<g id="edge14" class="edge">
<title>Node14&#45;&gt;Node2</title>
<path fill="none" stroke="#9a32cd" stroke-dasharray="5,2" d="M812.8015,-205.6771C860.8537,-207.7294 934.5233,-213.3208 996.6709,-228.5 1002.591,-229.9459 1008.869,-231.902 1014.6682,-233.893"/>
<polygon fill="#9a32cd" stroke="#9a32cd" points="812.7816,-202.1737 802.6525,-205.2801 812.508,-209.1684 812.7816,-202.1737"/>
<text text-anchor="middle" x="881.9941" y="-217.5" font-family="Helvetica,sans-Serif" font-size="10.00" fill="#000000"> network</text>
</g>
<!-- Node15&#45;&gt;Node2 -->
<g id="edge16" class="edge">
<title>Node15&#45;&gt;Node2</title>
<path fill="none" stroke="#9a32cd" stroke-dasharray="5,2" d="M435.3088,-146.6647C511.2937,-149.2183 678.1472,-156.7462 817.3564,-176.5 898.0136,-187.9453 921.8648,-182.2413 996.6709,-214.5 1007.6513,-219.2351 1018.7203,-227.1652 1026.4971,-233.3796"/>
<polygon fill="#9a32cd" stroke="#9a32cd" points="435.3107,-143.163 425.2024,-146.3366 435.0836,-150.1593 435.3107,-143.163"/>
<text text-anchor="middle" x="761.7559" y="-178.5" font-family="Helvetica,sans-Serif" font-size="10.00" fill="#000000"> p11</text>
</g>
<!-- Node16&#45;&gt;Node2 -->
<g id="edge18" class="edge">
<title>Node16&#45;&gt;Node2</title>
<path fill="none" stroke="#9a32cd" stroke-dasharray="5,2" d="M930.9067,-115.5677C953.0824,-115.876 978.3728,-120.0941 996.6709,-134.5 1028.449,-159.5186 1035.2642,-212.2976 1036.7254,-233.4506"/>
<polygon fill="#9a32cd" stroke="#9a32cd" points="930.6026,-112.071 920.6453,-115.6905 930.6865,-119.0705 930.6026,-112.071"/>
<text text-anchor="middle" x="971.6514" y="-136.5" font-family="Helvetica,sans-Serif" font-size="10.00" fill="#000000"> uptane</text>
</g>
<!-- Node17 -->
<g id="node16" class="node">
<title>Node17</title>
<polygon fill="#ffffff" stroke="#bfbfbf" points="581.2666,-40.5 581.2666,-68.5 688.1553,-68.5 688.1553,-40.5 581.2666,-40.5"/>
<text text-anchor="start" x="589.2666" y="-56.5" font-family="Helvetica,sans-Serif" font-size="10.00" fill="#000000">std::vector&lt; Uptane</text>
<text text-anchor="middle" x="634.7109" y="-46.5" font-family="Helvetica,sans-Serif" font-size="10.00" fill="#000000">::SecondaryConfig &gt;</text>
</g>
<!-- Node17&#45;&gt;Node16 -->
<g id="edge20" class="edge">
<title>Node17&#45;&gt;Node16</title>
<path fill="none" stroke="#9a32cd" stroke-dasharray="5,2" d="M698.4763,-49.9042C735.5342,-50.1026 781.7842,-55.4985 817.3564,-76.5 829.1465,-83.4607 824.5978,-93.032 835.3564,-101.5 840.4404,-105.5015 846.482,-108.7772 852.503,-111.4124"/>
<polygon fill="#9a32cd" stroke="#9a32cd" points="698.2589,-46.4055 688.2843,-49.9774 698.3092,-53.4054 698.2589,-46.4055"/>
<text text-anchor="middle" x="761.7559" y="-78.5" font-family="Helvetica,sans-Serif" font-size="10.00" fill="#000000"> secondary_configs</text>
</g>
<!-- Node18&#45;&gt;Node17 -->
<g id="edge21" class="edge">
<title>Node18&#45;&gt;Node17</title>
<path fill="none" stroke="#9a32cd" stroke-dasharray="5,2" d="M469.4682,-43.5175C505.6691,-45.9235 548.1902,-48.7496 581.0325,-50.9324"/>
<polygon fill="#9a32cd" stroke="#9a32cd" points="469.6487,-40.0219 459.4385,-42.8509 469.1844,-47.0065 469.6487,-40.0219"/>
<text text-anchor="middle" x="520.2495" y="-51.5" font-family="Helvetica,sans-Serif" font-size="10.00" fill="#000000"> elements</text>
</g>
<!-- Node19 -->
<g id="node18" class="node">
<title>Node19</title>
<g id="a_node18"><a xlink:href="struct_telemetry_config.html" target="_top" xlink:title="TelemetryConfig">
<polygon fill="#ffffff" stroke="#000000" points="837.8687,-37.5 837.8687,-55.5 926.1196,-55.5 926.1196,-37.5 837.8687,-37.5"/>
<text text-anchor="middle" x="881.9941" y="-43.5" font-family="Helvetica,sans-Serif" font-size="10.00" fill="#000000">TelemetryConfig</text>
</a>
</g>
</g>
<!-- Node19&#45;&gt;Node2 -->
<g id="edge23" class="edge">
<title>Node19&#45;&gt;Node2</title>
<path fill="none" stroke="#9a32cd" stroke-dasharray="5,2" d="M936.1318,-44.7669C957.5045,-46.8964 980.7153,-53.1532 996.6709,-68.5 1020.9233,-91.8271 1033.1267,-200.6302 1036.2821,-233.2397"/>
<polygon fill="#9a32cd" stroke="#9a32cd" points="936.3779,-41.2757 926.1517,-44.0461 935.8736,-48.2575 936.3779,-41.2757"/>
<text text-anchor="middle" x="971.6514" y="-70.5" font-family="Helvetica,sans-Serif" font-size="10.00" fill="#000000"> telemetry</text>
</g>
<!-- Node20&#45;&gt;Node2 -->
<g id="edge24" class="edge">
<title>Node20&#45;&gt;Node2</title>
<path fill="none" stroke="#9a32cd" stroke-dasharray="5,2" d="M928.6468,-401.5011C951.7482,-399.1097 978.507,-392.3957 996.6709,-375.5 1015.3144,-358.1582 1030.7065,-279.0515 1035.5418,-251.7764"/>
<polygon fill="#9a32cd" stroke="#9a32cd" points="928.3607,-398.0127 918.671,-402.2978 928.918,-404.9905 928.3607,-398.0127"/>
<text text-anchor="middle" x="971.6514" y="-399.5" font-family="Helvetica,sans-Serif" font-size="10.00" fill="#000000"> import</text>
</g>
<!-- Node21 -->
<g id="node20" class="node">
<title>Node21</title>
<g id="a_node20"><a xlink:href="struct_bootloader_config.html" target="_top" xlink:title="BootloaderConfig">
<polygon fill="#ffffff" stroke="#000000" points="835.3564,-.5 835.3564,-18.5 928.6318,-18.5 928.6318,-.5 835.3564,-.5"/>
<text text-anchor="middle" x="881.9941" y="-6.5" font-family="Helvetica,sans-Serif" font-size="10.00" fill="#000000">BootloaderConfig</text>
</a>
</g>
</g>
<!-- Node21&#45;&gt;Node2 -->
<g id="edge26" class="edge">
<title>Node21&#45;&gt;Node2</title>
<path fill="none" stroke="#9a32cd" stroke-dasharray="5,2" d="M938.8157,-8.7972C959.5839,-11.4775 981.6444,-18.2446 996.6709,-33.5 1025.3292,-62.5948 1034.655,-197.2138 1036.6694,-233.4798"/>
<polygon fill="#9a32cd" stroke="#9a32cd" points="939.0596,-5.3042 928.7606,-7.7904 938.3622,-12.2694 939.0596,-5.3042"/>
<text text-anchor="middle" x="971.6514" y="-35.5" font-family="Helvetica,sans-Serif" font-size="10.00" fill="#000000"> bootloader</text>
</g>
</g>
</svg>
        <g id="navigator" transform="translate(0 0)" fill="#404254">
                <rect fill="#f2f5e9" fill-opacity="0.5" stroke="#606060" stroke-width=".5" x="0" y="0" width="60" height="60"/>
                <use id="zoomplus" xlink:href="#zoomPlus" x="17" y="9" onmousedown="handleZoom(evt,'in')"/>
                <use id="zoomminus" xlink:href="#zoomMin" x="42" y="9" onmousedown="handleZoom(evt,'out')"/>
                <use id="reset" xlink:href="#resetDef" x="30" y="36" onmousedown="handleReset()"/>
                <g id="arrowUp" xlink:href="#dirArrow" transform="translate(30 24)" onmousedown="handlePan(0,-1)">
                  <use xlink:href="#rim" fill="#404040">
                        <set attributeName="fill" to="#808080" begin="arrowUp.mouseover" end="arrowUp.mouseout"/>
                  </use>
                  <path fill="none" stroke="white" stroke-width="1.5" d="M0,-3.0v7 M-2.5,-0.5L0,-3.0L2.5,-0.5"/>
                </g>
                <g id="arrowRight" xlink:href="#dirArrow" transform="rotate(90) translate(36 -43)" onmousedown="handlePan(1,0)">
                  <use xlink:href="#rim" fill="#404040">
                        <set attributeName="fill" to="#808080" begin="arrowRight.mouseover" end="arrowRight.mouseout"/>
                  </use>
                  <path fill="none" stroke="white" stroke-width="1.5" d="M0,-3.0v7 M-2.5,-0.5L0,-3.0L2.5,-0.5"/>
                </g>
                <g id="arrowDown" xlink:href="#dirArrow" transform="rotate(180) translate(-30 -48)" onmousedown="handlePan(0,1)">
                  <use xlink:href="#rim" fill="#404040">
                        <set attributeName="fill" to="#808080" begin="arrowDown.mouseover" end="arrowDown.mouseout"/>
                  </use>
                  <path fill="none" stroke="white" stroke-width="1.5" d="M0,-3.0v7 M-2.5,-0.5L0,-3.0L2.5,-0.5"/>
                </g>
                <g id="arrowLeft" xlink:href="#dirArrow" transform="rotate(270) translate(-36 17)" onmousedown="handlePan(-1,0)">
                  <use xlink:href="#rim" fill="#404040">
                        <set attributeName="fill" to="#808080" begin="arrowLeft.mouseover" end="arrowLeft.mouseout"/>
                  </use>
                  <path fill="none" stroke="white" stroke-width="1.5" d="M0,-3.0v7 M-2.5,-0.5L0,-3.0L2.5,-0.5"/>
                </g>
        </g>
        <svg viewBox="0 0 15 15" width="100%" height="30px" preserveAspectRatio="xMaxYMin meet">
         <g id="arrow_out" transform="scale(0.3 0.3)">
          <a xlink:href="class_config__coll__graph_org.svg" target="_base">
           <rect id="button" ry="5" rx="5" y="6" x="6" height="38" width="38"
                fill="#f2f5e9" fill-opacity="0.5" stroke="#606060" stroke-width="1.0"/>
           <path id="arrow"
             d="M 11.500037,31.436501 C 11.940474,20.09759 22.043105,11.32322 32.158766,21.979434 L 37.068811,17.246167 C 37.068811,17.246167 37.088388,32 37.088388,32 L 22.160133,31.978069 C 22.160133,31.978069 26.997745,27.140456 26.997745,27.140456 C 18.528582,18.264221 13.291696,25.230495 11.500037,31.436501 z"
             style="fill:#404040;"/>
          </a>
         </g>
        </svg>
</svg>
