<?xml version="1.0" encoding="UTF-8" standalone="no"?>
<!DOCTYPE svg PUBLIC "-//W3C//DTD SVG 1.1//EN"
 "http://www.w3.org/Graphics/SVG/1.1/DTD/svg11.dtd">
<!-- Generated by graphviz version 2.40.1 (20161225.0304)
 -->
<!-- Title: EcuInstallationCompletedReport Pages: 1 -->
<svg width="169pt" height="234pt"
 viewBox="0.00 0.00 169.43 234.00" xmlns="http://www.w3.org/2000/svg" xmlns:xlink="http://www.w3.org/1999/xlink">
<g id="graph0" class="graph" transform="scale(1 1) rotate(0) translate(4 230)">
<title>EcuInstallationCompletedReport</title>
<polygon fill="#ffffff" stroke="transparent" points="-4,4 -4,-230 165.4263,-230 165.4263,4 -4,4"/>
<!-- Node2 -->
<g id="node1" class="node">
<title>Node2</title>
<polygon fill="#bfbfbf" stroke="#000000" points="22.3486,-.5 22.3486,-28.5 151.7471,-28.5 151.7471,-.5 22.3486,-.5"/>
<text text-anchor="start" x="30.3486" y="-16.5" font-family="Helvetica,sans-Serif" font-size="10.00" fill="#000000">EcuInstallationCompleted</text>
<text text-anchor="middle" x="87.0479" y="-6.5" font-family="Helvetica,sans-Serif" font-size="10.00" fill="#000000">Report</text>
</g>
<!-- Node3 -->
<g id="node2" class="node">
<title>Node3</title>
<g id="a_node2"><a xlink:href="class_report_event.html" target="_top" xlink:title="ReportEvent">
<polygon fill="#ffffff" stroke="#000000" points="51.2549,-66.5 51.2549,-84.5 122.8408,-84.5 122.8408,-66.5 51.2549,-66.5"/>
<text text-anchor="middle" x="87.0479" y="-72.5" font-family="Helvetica,sans-Serif" font-size="10.00" fill="#000000">ReportEvent</text>
</a>
</g>
</g>
<!-- Node3&#45;&gt;Node2 -->
<g id="edge1" class="edge">
<title>Node3&#45;&gt;Node2</title>
<path fill="none" stroke="#191970" d="M87.0479,-56.2842C87.0479,-47.3664 87.0479,-36.9504 87.0479,-28.7488"/>
<polygon fill="#191970" stroke="#191970" points="83.5479,-56.4992 87.0479,-66.4992 90.5479,-56.4993 83.5479,-56.4992"/>
</g>
<!-- Node4 -->
<g id="node3" class="node">
<title>Node4</title>
<g id="a_node3"><a xlink:title="STL class. ">
<polygon fill="#ffffff" stroke="#bfbfbf" points="17.373,-141.5 17.373,-159.5 76.7227,-159.5 76.7227,-141.5 17.373,-141.5"/>
<text text-anchor="middle" x="47.0479" y="-147.5" font-family="Helvetica,sans-Serif" font-size="10.00" fill="#000000">std::string</text>
</a>
</g>
</g>
<!-- Node4&#45;&gt;Node3 -->
<g id="edge2" class="edge">
<title>Node4&#45;&gt;Node3</title>
<path fill="none" stroke="#9a32cd" stroke-dasharray="5,2" d="M56.6961,-132.4096C64.71,-117.3835 75.7851,-96.6176 82.1029,-84.7717"/>
<polygon fill="#9a32cd" stroke="#9a32cd" points="53.5703,-130.8329 51.9526,-141.3035 59.7468,-134.1271 53.5703,-130.8329"/>
<text text-anchor="middle" x="82.8877" y="-115" font-family="Helvetica,sans-Serif" font-size="10.00" fill="#000000"> type</text>
<text text-anchor="middle" x="82.8877" y="-105" font-family="Helvetica,sans-Serif" font-size="10.00" fill="#000000">id</text>
</g>
<!-- Node5 -->
<g id="node4" class="node">
<title>Node5</title>
<g id="a_node4"><a xlink:title="STL class. ">
<polygon fill="#ffffff" stroke="#bfbfbf" points="0,-197.5 0,-225.5 94.0957,-225.5 94.0957,-197.5 0,-197.5"/>
<text text-anchor="start" x="8" y="-213.5" font-family="Helvetica,sans-Serif" font-size="10.00" fill="#000000">std::basic_string&lt;</text>
<text text-anchor="middle" x="47.0479" y="-203.5" font-family="Helvetica,sans-Serif" font-size="10.00" fill="#000000"> char &gt;</text>
</a>
</g>
</g>
<!-- Node5&#45;&gt;Node4 -->
<g id="edge3" class="edge">
<title>Node5&#45;&gt;Node4</title>
<path fill="none" stroke="#191970" d="M47.0479,-187.1001C47.0479,-177.5157 47.0479,-167.0935 47.0479,-159.831"/>
<polygon fill="#191970" stroke="#191970" points="43.5479,-187.352 47.0479,-197.3521 50.5479,-187.3521 43.5479,-187.352"/>
</g>
<!-- Node6 -->
<g id="node5" class="node">
<title>Node6</title>
<g id="a_node5"><a xlink:href="class_time_stamp.html" target="_top" xlink:title="TimeStamp">
<polygon fill="#ffffff" stroke="#000000" points="94.6694,-141.5 94.6694,-159.5 161.4263,-159.5 161.4263,-141.5 94.6694,-141.5"/>
<text text-anchor="middle" x="128.0479" y="-147.5" font-family="Helvetica,sans-Serif" font-size="10.00" fill="#000000">TimeStamp</text>
</a>
</g>
</g>
<!-- Node6&#45;&gt;Node3 -->
<g id="edge4" class="edge">
<title>Node6&#45;&gt;Node3</title>
<path fill="none" stroke="#9a32cd" stroke-dasharray="5,2" d="M118.1584,-132.4096C109.9442,-117.3835 98.5921,-96.6176 92.1164,-84.7717"/>
<polygon fill="#9a32cd" stroke="#9a32cd" points="115.1526,-134.2079 123.0204,-141.3035 121.2948,-130.8502 115.1526,-134.2079"/>
<text text-anchor="middle" x="136.4985" y="-110" font-family="Helvetica,sans-Serif" font-size="10.00" fill="#000000"> timestamp</text>
</g>
</g>
</svg>
