<?xml version="1.0" encoding="UTF-8" standalone="no"?>
<!DOCTYPE svg PUBLIC "-//W3C//DTD SVG 1.1//EN"
 "http://www.w3.org/Graphics/SVG/1.1/DTD/svg11.dtd">
<!-- Generated by graphviz version 2.40.1 (20161225.0304)
 -->
<!-- Title: AktualizrSecondary Pages: 1 -->
<svg width="310pt" height="82pt"
 viewBox="0.00 0.00 309.89 82.00" xmlns="http://www.w3.org/2000/svg" xmlns:xlink="http://www.w3.org/1999/xlink">
<g id="graph0" class="graph" transform="scale(1 1) rotate(0) translate(4 78)">
<title>AktualizrSecondary</title>
<polygon fill="#ffffff" stroke="transparent" points="-4,4 -4,-78 305.8911,-78 305.8911,4 -4,4"/>
<!-- Node0 -->
<g id="node1" class="node">
<title>Node0</title>
<polygon fill="#bfbfbf" stroke="#000000" points="99.4556,-.5 99.4556,-18.5 201.6079,-18.5 201.6079,-.5 99.4556,-.5"/>
<text text-anchor="middle" x="150.5317" y="-6.5" font-family="Helvetica,sans-Serif" font-size="10.00" fill="#000000">AktualizrSecondary</text>
</g>
<!-- Node1 -->
<g id="node2" class="node">
<title>Node1</title>
<g id="a_node2"><a xlink:href="class_aktualizr_secondary_interface.html" target="_top" xlink:title="AktualizrSecondaryInterface">
<polygon fill="#ffffff" stroke="#000000" points="0,-55.5 0,-73.5 141.0635,-73.5 141.0635,-55.5 0,-55.5"/>
<text text-anchor="middle" x="70.5317" y="-61.5" font-family="Helvetica,sans-Serif" font-size="10.00" fill="#000000">AktualizrSecondaryInterface</text>
</a>
</g>
</g>
<!-- Node1&#45;&gt;Node0 -->
<g id="edge1" class="edge">
<title>Node1&#45;&gt;Node0</title>
<path fill="none" stroke="#191970" d="M92.0979,-49.6733C106.5145,-39.7619 125.02,-27.0393 137.3017,-18.5956"/>
<polygon fill="#191970" stroke="#191970" points="89.9997,-46.8684 83.7421,-55.4179 93.9654,-52.6367 89.9997,-46.8684"/>
</g>
<!-- Node2 -->
<g id="node3" class="node">
<title>Node2</title>
<g id="a_node3"><a xlink:href="class_aktualizr_secondary_common.html" target="_top" xlink:title="AktualizrSecondaryCommon">
<polygon fill="#ffffff" stroke="#000000" points="159.1724,-55.5 159.1724,-73.5 301.8911,-73.5 301.8911,-55.5 159.1724,-55.5"/>
<text text-anchor="middle" x="230.5317" y="-61.5" font-family="Helvetica,sans-Serif" font-size="10.00" fill="#000000">AktualizrSecondaryCommon</text>
</a>
</g>
</g>
<!-- Node2&#45;&gt;Node0 -->
<g id="edge2" class="edge">
<title>Node2&#45;&gt;Node0</title>
<path fill="none" stroke="#8b1a1a" d="M208.9656,-49.6733C194.549,-39.7619 176.0434,-27.0393 163.7617,-18.5956"/>
<polygon fill="#8b1a1a" stroke="#8b1a1a" points="207.0981,-52.6367 217.3214,-55.4179 211.0638,-46.8684 207.0981,-52.6367"/>
</g>
</g>
</svg>
