<?xml version="1.0" encoding="UTF-8" standalone="no"?>
<!DOCTYPE svg PUBLIC "-//W3C//DTD SVG 1.1//EN"
 "http://www.w3.org/Graphics/SVG/1.1/DTD/svg11.dtd">
<!-- Generated by graphviz version 2.40.1 (20161225.0304)
 -->
<!-- Title: HttpFakeUnstable Pages: 1 -->
<svg width="104pt" height="137pt"
 viewBox="0.00 0.00 104.04 137.00" xmlns="http://www.w3.org/2000/svg" xmlns:xlink="http://www.w3.org/1999/xlink">
<g id="graph0" class="graph" transform="scale(1 1) rotate(0) translate(4 133)">
<title>HttpFakeUnstable</title>
<polygon fill="#ffffff" stroke="transparent" points="-4,4 -4,-133 100.0391,-133 100.0391,4 -4,4"/>
<!-- Node0 -->
<g id="node1" class="node">
<title>Node0</title>
<polygon fill="#bfbfbf" stroke="#000000" points="0,-.5 0,-18.5 96.0391,-18.5 96.0391,-.5 0,-.5"/>
<text text-anchor="middle" x="48.0195" y="-6.5" font-family="Helvetica,sans-Serif" font-size="10.00" fill="#000000">HttpFakeUnstable</text>
</g>
<!-- Node1 -->
<g id="node2" class="node">
<title>Node1</title>
<g id="a_node2"><a xlink:href="class_http_fake.html" target="_top" xlink:title="HttpFake">
<polygon fill="#ffffff" stroke="#000000" points="19.7339,-55.5 19.7339,-73.5 76.3052,-73.5 76.3052,-55.5 19.7339,-55.5"/>
<text text-anchor="middle" x="48.0195" y="-61.5" font-family="Helvetica,sans-Serif" font-size="10.00" fill="#000000">HttpFake</text>
</a>
</g>
</g>
<!-- Node1&#45;&gt;Node0 -->
<g id="edge1" class="edge">
<title>Node1&#45;&gt;Node0</title>
<path fill="none" stroke="#191970" d="M48.0195,-45.383C48.0195,-36.3738 48.0195,-26.0373 48.0195,-18.7795"/>
<polygon fill="#191970" stroke="#191970" points="44.5196,-45.4178 48.0195,-55.4179 51.5196,-45.4179 44.5196,-45.4178"/>
</g>
<!-- Node2 -->
<g id="node3" class="node">
<title>Node2</title>
<g id="a_node3"><a xlink:href="class_http_interface.html" target="_top" xlink:title="HttpInterface">
<polygon fill="#ffffff" stroke="#000000" points="11.394,-110.5 11.394,-128.5 84.645,-128.5 84.645,-110.5 11.394,-110.5"/>
<text text-anchor="middle" x="48.0195" y="-116.5" font-family="Helvetica,sans-Serif" font-size="10.00" fill="#000000">HttpInterface</text>
</a>
</g>
</g>
<!-- Node2&#45;&gt;Node1 -->
<g id="edge2" class="edge">
<title>Node2&#45;&gt;Node1</title>
<path fill="none" stroke="#191970" d="M48.0195,-100.383C48.0195,-91.3738 48.0195,-81.0373 48.0195,-73.7795"/>
<polygon fill="#191970" stroke="#191970" points="44.5196,-100.4178 48.0195,-110.4179 51.5196,-100.4179 44.5196,-100.4178"/>
</g>
</g>
</svg>
