<?xml version="1.0" encoding="UTF-8" standalone="no"?>
<!DOCTYPE svg PUBLIC "-//W3C//DTD SVG 1.1//EN"
 "http://www.w3.org/Graphics/SVG/1.1/DTD/svg11.dtd">
<!-- Generated by graphviz version 2.40.1 (20161225.0304)
 -->
<!-- Title: HttpFakeRq Pages: 1 -->
<svg width="81pt" height="137pt"
 viewBox="0.00 0.00 81.25 137.00" xmlns="http://www.w3.org/2000/svg" xmlns:xlink="http://www.w3.org/1999/xlink">
<g id="graph0" class="graph" transform="scale(1 1) rotate(0) translate(4 133)">
<title>HttpFakeRq</title>
<polygon fill="#ffffff" stroke="transparent" points="-4,4 -4,-133 77.251,-133 77.251,4 -4,4"/>
<!-- Node0 -->
<g id="node1" class="node">
<title>Node0</title>
<polygon fill="#bfbfbf" stroke="#000000" points="1.9482,-.5 1.9482,-18.5 71.3027,-18.5 71.3027,-.5 1.9482,-.5"/>
<text text-anchor="middle" x="36.6255" y="-6.5" font-family="Helvetica,sans-Serif" font-size="10.00" fill="#000000">HttpFakeRq</text>
</g>
<!-- Node1 -->
<g id="node2" class="node">
<title>Node1</title>
<g id="a_node2"><a xlink:href="class_http_fake.html" target="_top" xlink:title="HttpFake">
<polygon fill="#ffffff" stroke="#000000" points="8.3398,-55.5 8.3398,-73.5 64.9111,-73.5 64.9111,-55.5 8.3398,-55.5"/>
<text text-anchor="middle" x="36.6255" y="-61.5" font-family="Helvetica,sans-Serif" font-size="10.00" fill="#000000">HttpFake</text>
</a>
</g>
</g>
<!-- Node1&#45;&gt;Node0 -->
<g id="edge1" class="edge">
<title>Node1&#45;&gt;Node0</title>
<path fill="none" stroke="#191970" d="M36.6255,-45.383C36.6255,-36.3738 36.6255,-26.0373 36.6255,-18.7795"/>
<polygon fill="#191970" stroke="#191970" points="33.1256,-45.4178 36.6255,-55.4179 40.1256,-45.4179 33.1256,-45.4178"/>
</g>
<!-- Node2 -->
<g id="node3" class="node">
<title>Node2</title>
<g id="a_node3"><a xlink:href="class_http_interface.html" target="_top" xlink:title="HttpInterface">
<polygon fill="#ffffff" stroke="#000000" points="0,-110.5 0,-128.5 73.251,-128.5 73.251,-110.5 0,-110.5"/>
<text text-anchor="middle" x="36.6255" y="-116.5" font-family="Helvetica,sans-Serif" font-size="10.00" fill="#000000">HttpInterface</text>
</a>
</g>
</g>
<!-- Node2&#45;&gt;Node1 -->
<g id="edge2" class="edge">
<title>Node2&#45;&gt;Node1</title>
<path fill="none" stroke="#191970" d="M36.6255,-100.383C36.6255,-91.3738 36.6255,-81.0373 36.6255,-73.7795"/>
<polygon fill="#191970" stroke="#191970" points="33.1256,-100.4178 36.6255,-110.4179 40.1256,-100.4179 33.1256,-100.4178"/>
</g>
</g>
</svg>
