<?xml version="1.0" encoding="UTF-8" standalone="no"?>
<!DOCTYPE svg PUBLIC "-//W3C//DTD SVG 1.1//EN"
 "http://www.w3.org/Graphics/SVG/1.1/DTD/svg11.dtd">
<!-- Generated by graphviz version 2.40.1 (20161225.0304)
 -->
<!-- Title: Uptane::Targets Pages: 1 -->
<svg width="228pt" height="167pt"
 viewBox="0.00 0.00 227.91 167.00" xmlns="http://www.w3.org/2000/svg" xmlns:xlink="http://www.w3.org/1999/xlink">
<g id="graph0" class="graph" transform="scale(1 1) rotate(0) translate(4 163)">
<title>Uptane::Targets</title>
<polygon fill="#ffffff" stroke="transparent" points="-4,4 -4,-163 223.9097,-163 223.9097,4 -4,4"/>
<!-- Node2 -->
<g id="node1" class="node">
<title>Node2</title>
<polygon fill="#bfbfbf" stroke="#000000" points="65.1157,-.5 65.1157,-18.5 151.7114,-18.5 151.7114,-.5 65.1157,-.5"/>
<text text-anchor="middle" x="108.4136" y="-6.5" font-family="Helvetica,sans-Serif" font-size="10.00" fill="#000000">Uptane::Targets</text>
</g>
<!-- Node3 -->
<g id="node2" class="node">
<title>Node3</title>
<g id="a_node2"><a xlink:href="class_uptane_1_1_base_meta.html" target="_top" xlink:title="Uptane::BaseMeta">
<polygon fill="#ffffff" stroke="#000000" points="0,-70.5 0,-88.5 98.8271,-88.5 98.8271,-70.5 0,-70.5"/>
<text text-anchor="middle" x="49.4136" y="-76.5" font-family="Helvetica,sans-Serif" font-size="10.00" fill="#000000">Uptane::BaseMeta</text>
</a>
</g>
</g>
<!-- Node3&#45;&gt;Node2 -->
<g id="edge1" class="edge">
<title>Node3&#45;&gt;Node2</title>
<path fill="none" stroke="#191970" d="M63.6742,-62.5806C75.2385,-48.8603 91.1098,-30.0299 100.5101,-18.8769"/>
<polygon fill="#191970" stroke="#191970" points="60.8953,-60.4468 57.1268,-70.3487 66.2478,-64.9581 60.8953,-60.4468"/>
</g>
<!-- Node4 -->
<g id="node3" class="node">
<title>Node4</title>
<g id="a_node3"><a xlink:href="class_time_stamp.html" target="_top" xlink:title="TimeStamp">
<polygon fill="#ffffff" stroke="#000000" points="16.0352,-140.5 16.0352,-158.5 82.792,-158.5 82.792,-140.5 16.0352,-140.5"/>
<text text-anchor="middle" x="49.4136" y="-146.5" font-family="Helvetica,sans-Serif" font-size="10.00" fill="#000000">TimeStamp</text>
</a>
</g>
</g>
<!-- Node4&#45;&gt;Node3 -->
<g id="edge2" class="edge">
<title>Node4&#45;&gt;Node3</title>
<path fill="none" stroke="#9a32cd" stroke-dasharray="5,2" d="M49.4136,-130.2039C49.4136,-116.7531 49.4136,-99.3986 49.4136,-88.8769"/>
<polygon fill="#9a32cd" stroke="#9a32cd" points="45.9137,-130.3487 49.4136,-140.3487 52.9137,-130.3488 45.9137,-130.3487"/>
<text text-anchor="middle" x="66.9209" y="-114" font-family="Helvetica,sans-Serif" font-size="10.00" fill="#000000"> expiry_</text>
</g>
<!-- Node5 -->
<g id="node4" class="node">
<title>Node5</title>
<polygon fill="#ffffff" stroke="#bfbfbf" points="116.9175,-65.5 116.9175,-93.5 219.9097,-93.5 219.9097,-65.5 116.9175,-65.5"/>
<text text-anchor="start" x="124.9175" y="-81.5" font-family="Helvetica,sans-Serif" font-size="10.00" fill="#000000">std::vector&lt; Uptane</text>
<text text-anchor="middle" x="168.4136" y="-71.5" font-family="Helvetica,sans-Serif" font-size="10.00" fill="#000000">::Target &gt;</text>
</g>
<!-- Node5&#45;&gt;Node2 -->
<g id="edge3" class="edge">
<title>Node5&#45;&gt;Node2</title>
<path fill="none" stroke="#9a32cd" stroke-dasharray="5,2" d="M149.6722,-57.6351C138.4527,-44.5456 124.7758,-28.5892 116.3308,-18.7368"/>
<polygon fill="#9a32cd" stroke="#9a32cd" points="147.1063,-60.0196 156.2717,-65.3345 152.4211,-55.4641 147.1063,-60.0196"/>
<text text-anchor="middle" x="157.0884" y="-39" font-family="Helvetica,sans-Serif" font-size="10.00" fill="#000000"> targets</text>
</g>
<!-- Node6 -->
<g id="node5" class="node">
<title>Node6</title>
<g id="a_node5"><a xlink:href="class_uptane_1_1_target.html" target="_top" xlink:title="Uptane::Target">
<polygon fill="#ffffff" stroke="#000000" points="127.6157,-140.5 127.6157,-158.5 209.2114,-158.5 209.2114,-140.5 127.6157,-140.5"/>
<text text-anchor="middle" x="168.4136" y="-146.5" font-family="Helvetica,sans-Serif" font-size="10.00" fill="#000000">Uptane::Target</text>
</a>
</g>
</g>
<!-- Node6&#45;&gt;Node5 -->
<g id="edge4" class="edge">
<title>Node6&#45;&gt;Node5</title>
<path fill="none" stroke="#9a32cd" stroke-dasharray="5,2" d="M168.4136,-130.0243C168.4136,-118.5169 168.4136,-104.2016 168.4136,-93.7499"/>
<polygon fill="#9a32cd" stroke="#9a32cd" points="164.9137,-130.3487 168.4136,-140.3487 171.9137,-130.3488 164.9137,-130.3487"/>
<text text-anchor="middle" x="190.0908" y="-114" font-family="Helvetica,sans-Serif" font-size="10.00" fill="#000000"> elements</text>
</g>
</g>
</svg>
