<?xml version="1.0" encoding="UTF-8" standalone="no"?>
<!DOCTYPE svg PUBLIC "-//W3C//DTD SVG 1.1//EN"
 "http://www.w3.org/Graphics/SVG/1.1/DTD/svg11.dtd">
<!-- Generated by graphviz version 2.40.1 (20161225.0304)
 -->
<!-- Title: src/libaktualizr/utilities/events.h Pages: 1 -->
<!--zoomable 322 -->
<svg id="main" version="1.1" xmlns="http://www.w3.org/2000/svg" xmlns:xlink="http://www.w3.org/1999/xlink" xml:space="preserve" onload="init(evt)">
<style type="text/css"><![CDATA[
.edge:hover path { stroke: red; }
.edge:hover polygon { stroke: red; fill: red; }
]]></style>
<script type="text/javascript"><![CDATA[
var edges = document.getElementsByTagName('g');
if (edges && edges.length) {
  for (var i=0;i<edges.length;i++) {
    if (edges[i].id.substr(0,4)=='edge') {
      edges[i].setAttribute('class','edge');
    }
  }
}
]]></script>
        <defs>
                <circle id="rim" cx="0" cy="0" r="7"/>
                <circle id="rim2" cx="0" cy="0" r="3.5"/>
                <g id="zoomPlus">
                        <use xlink:href="#rim" fill="#404040">
                                <set attributeName="fill" to="#808080" begin="zoomplus.mouseover" end="zoomplus.mouseout"/>
                        </use>
                        <path d="M-4,0h8M0,-4v8" fill="none" stroke="white" stroke-width="1.5" pointer-events="none"/>
                </g>
                <g id="zoomMin">
                        <use xlink:href="#rim" fill="#404040">
                                <set attributeName="fill" to="#808080" begin="zoomminus.mouseover" end="zoomminus.mouseout"/>
                        </use>
                        <path d="M-4,0h8" fill="none" stroke="white" stroke-width="1.5" pointer-events="none"/>
                </g>
                <g id="dirArrow">
                        <path fill="none" stroke="white" stroke-width="1.5" d="M0,-3.0v7 M-2.5,-0.5L0,-3.0L2.5,-0.5"/>
                </g>
               <g id="resetDef">
                       <use xlink:href="#rim2" fill="#404040">
                               <set attributeName="fill" to="#808080" begin="reset.mouseover" end="reset.mouseout"/>
                       </use>
               </g>
        </defs>

<script type="text/javascript">
var viewWidth = 1889;
var viewHeight = 322;
var sectionId = 'dynsection-0';
</script>
<script xlink:href="svgpan.js"/>
<svg id="graph" class="graph">
<g id="viewport">
<title>src/libaktualizr/utilities/events.h</title>
<polygon fill="#ffffff" stroke="transparent" points="-4,4 -4,-318 1885.4706,-318 1885.4706,4 -4,4"/>
<!-- Node0 -->
<g id="node1" class="node">
<title>Node0</title>
<polygon fill="#bfbfbf" stroke="#000000" points="1441.4267,-285.5 1441.4267,-313.5 1554.121,-313.5 1554.121,-285.5 1441.4267,-285.5"/>
<text text-anchor="start" x="1449.4267" y="-301.5" font-family="Helvetica,sans-Serif" font-size="10.00" fill="#000000">src/libaktualizr/utilities</text>
<text text-anchor="middle" x="1497.7739" y="-291.5" font-family="Helvetica,sans-Serif" font-size="10.00" fill="#000000">/events.h</text>
</g>
<!-- Node1 -->
<g id="node2" class="node">
<title>Node1</title>
<polygon fill="#ffffff" stroke="#bfbfbf" points="544.7172,-.5 544.7172,-18.5 596.8305,-18.5 596.8305,-.5 544.7172,-.5"/>
<text text-anchor="middle" x="570.7739" y="-6.5" font-family="Helvetica,sans-Serif" font-size="10.00" fill="#000000">memory</text>
</g>
<!-- Node0&#45;&gt;Node1 -->
<g id="edge1" class="edge">
<title>Node0&#45;&gt;Node1</title>
<path fill="none" stroke="#191970" d="M1441.4083,-298.1753C1168.9834,-291.4102 1.7739,-258.1287 1.7739,-184.5 1.7739,-184.5 1.7739,-184.5 1.7739,-129.5 1.7739,-95.329 -5.3216,-77.0609 20.7739,-55 59.9317,-21.8963 418.1785,-12.3402 534.4897,-10.0979"/>
<polygon fill="#191970" stroke="#191970" points="534.7253,-13.5942 544.6585,-9.9087 534.5951,-6.5954 534.7253,-13.5942"/>
</g>
<!-- Node2 -->
<g id="node3" class="node">
<title>Node2</title>
<polygon fill="#ffffff" stroke="#bfbfbf" points="1672.5473,-.5 1672.5473,-18.5 1713.0004,-18.5 1713.0004,-.5 1672.5473,-.5"/>
<text text-anchor="middle" x="1692.7739" y="-6.5" font-family="Helvetica,sans-Serif" font-size="10.00" fill="#000000">string</text>
</g>
<!-- Node0&#45;&gt;Node2 -->
<g id="edge2" class="edge">
<title>Node0&#45;&gt;Node2</title>
<path fill="none" stroke="#191970" d="M1554.2711,-286.1368C1629.6603,-266.631 1753.7739,-227.9243 1753.7739,-184.5 1753.7739,-184.5 1753.7739,-184.5 1753.7739,-129.5 1753.7739,-89.0617 1725.9063,-48.4667 1707.8427,-26.4009"/>
<polygon fill="#191970" stroke="#191970" points="1710.394,-23.9979 1701.2557,-18.6368 1705.0562,-28.5266 1710.394,-23.9979"/>
</g>
<!-- Node3 -->
<g id="node4" class="node">
<title>Node3</title>
<polygon fill="#ffffff" stroke="#bfbfbf" points="1782.0771,-230.5 1782.0771,-248.5 1881.4706,-248.5 1881.4706,-230.5 1782.0771,-230.5"/>
<text text-anchor="middle" x="1831.7739" y="-236.5" font-family="Helvetica,sans-Serif" font-size="10.00" fill="#000000">boost/signals2.hpp</text>
</g>
<!-- Node0&#45;&gt;Node3 -->
<g id="edge3" class="edge">
<title>Node0&#45;&gt;Node3</title>
<path fill="none" stroke="#191970" d="M1554.4324,-289.3218C1614.9039,-278.4587 1710.3138,-261.3192 1771.9662,-250.2439"/>
<polygon fill="#191970" stroke="#191970" points="1772.7135,-253.6658 1781.937,-248.4527 1771.4757,-246.776 1772.7135,-253.6658"/>
</g>
<!-- Node4 -->
<g id="node5" class="node">
<title>Node4</title>
<g id="a_node5"><a xlink:href="tuf_8h_source.html" target="_top" xlink:title="uptane/tuf.h">
<polygon fill="#ffffff" stroke="#000000" points="1425.3627,-175.5 1425.3627,-193.5 1494.185,-193.5 1494.185,-175.5 1425.3627,-175.5"/>
<text text-anchor="middle" x="1459.7739" y="-181.5" font-family="Helvetica,sans-Serif" font-size="10.00" fill="#000000">uptane/tuf.h</text>
</a>
</g>
</g>
<!-- Node0&#45;&gt;Node4 -->
<g id="edge4" class="edge">
<title>Node0&#45;&gt;Node4</title>
<path fill="none" stroke="#191970" d="M1492.9731,-285.3635C1489.5472,-275.2452 1484.8446,-261.2947 1480.7739,-249 1475.6842,-233.628 1470.0038,-216.1615 1465.8354,-203.2851"/>
<polygon fill="#191970" stroke="#191970" points="1469.1418,-202.1341 1462.7359,-193.6952 1462.481,-204.287 1469.1418,-202.1341"/>
</g>
<!-- Node24 -->
<g id="node25" class="node">
<title>Node24</title>
<g id="a_node25"><a xlink:href="types_8h.html" target="_top" xlink:title="utilities/types.h">
<polygon fill="#ffffff" stroke="#000000" points="1435.9809,-60.5 1435.9809,-78.5 1517.5668,-78.5 1517.5668,-60.5 1435.9809,-60.5"/>
<text text-anchor="middle" x="1476.7739" y="-66.5" font-family="Helvetica,sans-Serif" font-size="10.00" fill="#000000">utilities/types.h</text>
</a>
</g>
</g>
<!-- Node0&#45;&gt;Node24 -->
<g id="edge45" class="edge">
<title>Node0&#45;&gt;Node24</title>
<path fill="none" stroke="#191970" d="M1475.4116,-285.3187C1439.0032,-260.7328 1368.2229,-206.3148 1340.7739,-139 1337.5854,-131.1807 1335.9528,-126.9329 1340.7739,-120 1346.5818,-111.648 1399.2266,-93.7242 1437.2772,-81.6368"/>
<polygon fill="#191970" stroke="#191970" points="1438.5983,-84.8902 1447.0845,-78.5471 1436.4949,-78.2137 1438.5983,-84.8902"/>
</g>
<!-- Node31 -->
<g id="node32" class="node">
<title>Node31</title>
<g id="a_node32"><a xlink:href="results_8h.html" target="_top" xlink:title="utilities/results.h">
<polygon fill="#ffffff" stroke="#000000" points="1490.205,-230.5 1490.205,-248.5 1577.3427,-248.5 1577.3427,-230.5 1490.205,-230.5"/>
<text text-anchor="middle" x="1533.7739" y="-236.5" font-family="Helvetica,sans-Serif" font-size="10.00" fill="#000000">utilities/results.h</text>
</a>
</g>
</g>
<!-- Node0&#45;&gt;Node31 -->
<g id="edge40" class="edge">
<title>Node0&#45;&gt;Node31</title>
<path fill="none" stroke="#191970" d="M1506.3054,-285.2808C1511.3137,-276.9336 1517.6893,-266.3076 1523.0371,-257.3946"/>
<polygon fill="#191970" stroke="#191970" points="1526.1796,-258.9599 1528.3233,-248.5842 1520.1771,-255.3584 1526.1796,-258.9599"/>
</g>
<!-- Node5 -->
<g id="node6" class="node">
<title>Node5</title>
<polygon fill="#ffffff" stroke="#bfbfbf" points="1349.3701,-120.5 1349.3701,-138.5 1408.1777,-138.5 1408.1777,-120.5 1349.3701,-120.5"/>
<text text-anchor="middle" x="1378.7739" y="-126.5" font-family="Helvetica,sans-Serif" font-size="10.00" fill="#000000">functional</text>
</g>
<!-- Node4&#45;&gt;Node5 -->
<g id="edge5" class="edge">
<title>Node4&#45;&gt;Node5</title>
<path fill="none" stroke="#191970" d="M1446.3984,-175.4179C1433.9699,-166.9788 1415.2341,-154.257 1400.6329,-144.3426"/>
<polygon fill="#191970" stroke="#191970" points="1402.4085,-141.3176 1392.1692,-138.5956 1398.4762,-147.1088 1402.4085,-141.3176"/>
</g>
<!-- Node6 -->
<g id="node7" class="node">
<title>Node6</title>
<polygon fill="#ffffff" stroke="#bfbfbf" points="1425.7123,-120.5 1425.7123,-138.5 1477.8354,-138.5 1477.8354,-120.5 1425.7123,-120.5"/>
<text text-anchor="middle" x="1451.7739" y="-126.5" font-family="Helvetica,sans-Serif" font-size="10.00" fill="#000000">ostream</text>
</g>
<!-- Node4&#45;&gt;Node6 -->
<g id="edge6" class="edge">
<title>Node4&#45;&gt;Node6</title>
<path fill="none" stroke="#191970" d="M1458.4528,-175.4179C1457.4053,-168.2164 1455.9042,-157.8962 1454.5903,-148.8632"/>
<polygon fill="#191970" stroke="#191970" points="1458.0266,-148.1715 1453.1236,-138.7795 1451.0995,-149.1791 1458.0266,-148.1715"/>
</g>
<!-- Node7 -->
<g id="node8" class="node">
<title>Node7</title>
<polygon fill="#ffffff" stroke="#bfbfbf" points="1496.1039,-120.5 1496.1039,-138.5 1525.4438,-138.5 1525.4438,-120.5 1496.1039,-120.5"/>
<text text-anchor="middle" x="1510.7739" y="-126.5" font-family="Helvetica,sans-Serif" font-size="10.00" fill="#000000">set</text>
</g>
<!-- Node4&#45;&gt;Node7 -->
<g id="edge7" class="edge">
<title>Node4&#45;&gt;Node7</title>
<path fill="none" stroke="#191970" d="M1468.1955,-175.4179C1475.5337,-167.5041 1486.364,-155.8243 1495.2651,-146.2251"/>
<polygon fill="#191970" stroke="#191970" points="1497.9363,-148.492 1502.1693,-138.7795 1492.8034,-143.7324 1497.9363,-148.492"/>
</g>
<!-- Node8 -->
<g id="node9" class="node">
<title>Node8</title>
<g id="a_node9"><a xlink:href="uptane_2exceptions_8h_source.html" target="_top" xlink:title="uptane/exceptions.h">
<polygon fill="#ffffff" stroke="#000000" points="1582.018,-120.5 1582.018,-138.5 1687.5297,-138.5 1687.5297,-120.5 1582.018,-120.5"/>
<text text-anchor="middle" x="1634.7739" y="-126.5" font-family="Helvetica,sans-Serif" font-size="10.00" fill="#000000">uptane/exceptions.h</text>
</a>
</g>
</g>
<!-- Node4&#45;&gt;Node8 -->
<g id="edge8" class="edge">
<title>Node4&#45;&gt;Node8</title>
<path fill="none" stroke="#191970" d="M1488.6716,-175.4179C1518.1444,-166.155 1564.0342,-151.7325 1596.5093,-141.526"/>
<polygon fill="#191970" stroke="#191970" points="1597.6336,-144.8415 1606.1241,-138.5042 1595.5347,-138.1636 1597.6336,-144.8415"/>
</g>
<!-- Node11 -->
<g id="node12" class="node">
<title>Node11</title>
<g id="a_node12"><a xlink:href="crypto_8h_source.html" target="_top" xlink:title="crypto/crypto.h">
<polygon fill="#ffffff" stroke="#000000" points="834.9833,-120.5 834.9833,-138.5 916.5644,-138.5 916.5644,-120.5 834.9833,-120.5"/>
<text text-anchor="middle" x="875.7739" y="-126.5" font-family="Helvetica,sans-Serif" font-size="10.00" fill="#000000">crypto/crypto.h</text>
</a>
</g>
</g>
<!-- Node4&#45;&gt;Node11 -->
<g id="edge12" class="edge">
<title>Node4&#45;&gt;Node11</title>
<path fill="none" stroke="#191970" d="M1424.9909,-181.2242C1326.1901,-171.9193 1043.4983,-145.296 926.9537,-134.32"/>
<polygon fill="#191970" stroke="#191970" points="927.1492,-130.823 916.865,-133.3699 926.4928,-137.7922 927.1492,-130.823"/>
</g>
<!-- Node4&#45;&gt;Node24 -->
<g id="edge39" class="edge">
<title>Node4&#45;&gt;Node24</title>
<path fill="none" stroke="#191970" d="M1487.8179,-175.4648C1504.6827,-168.4161 1524.7624,-156.7833 1534.7739,-139 1546.5937,-118.0044 1523.4544,-97.23 1502.9891,-83.9419"/>
<polygon fill="#191970" stroke="#191970" points="1504.5567,-80.7977 1494.2013,-78.5581 1500.8999,-86.7666 1504.5567,-80.7977"/>
</g>
<!-- Node8&#45;&gt;Node2 -->
<g id="edge10" class="edge">
<title>Node8&#45;&gt;Node2</title>
<path fill="none" stroke="#191970" d="M1639.1333,-120.4805C1648.6224,-100.8479 1671.3072,-53.9138 1683.9254,-27.8071"/>
<polygon fill="#191970" stroke="#191970" points="1687.1633,-29.1508 1688.3638,-18.6242 1680.8609,-26.1046 1687.1633,-29.1508"/>
</g>
<!-- Node9 -->
<g id="node10" class="node">
<title>Node9</title>
<polygon fill="#ffffff" stroke="#bfbfbf" points="1595.3725,-.5 1595.3725,-18.5 1654.1752,-18.5 1654.1752,-.5 1595.3725,-.5"/>
<text text-anchor="middle" x="1624.7739" y="-6.5" font-family="Helvetica,sans-Serif" font-size="10.00" fill="#000000">stdexcept</text>
</g>
<!-- Node8&#45;&gt;Node9 -->
<g id="edge9" class="edge">
<title>Node8&#45;&gt;Node9</title>
<path fill="none" stroke="#191970" d="M1634.0222,-120.4805C1632.4079,-101.1085 1628.5784,-55.155 1626.387,-28.8576"/>
<polygon fill="#191970" stroke="#191970" points="1629.8527,-28.2989 1625.5342,-18.6242 1622.8768,-28.8803 1629.8527,-28.2989"/>
</g>
<!-- Node10 -->
<g id="node11" class="node">
<title>Node10</title>
<polygon fill="#ffffff" stroke="#bfbfbf" points="1573.3823,-60.5 1573.3823,-78.5 1612.1655,-78.5 1612.1655,-60.5 1573.3823,-60.5"/>
<text text-anchor="middle" x="1592.7739" y="-66.5" font-family="Helvetica,sans-Serif" font-size="10.00" fill="#000000">utility</text>
</g>
<!-- Node8&#45;&gt;Node10 -->
<g id="edge11" class="edge">
<title>Node8&#45;&gt;Node10</title>
<path fill="none" stroke="#191970" d="M1628.395,-120.3873C1622.2277,-111.5769 1612.7204,-97.9951 1605.0788,-87.0784"/>
<polygon fill="#191970" stroke="#191970" points="1607.8148,-84.8837 1599.2128,-78.6985 1602.0801,-88.8979 1607.8148,-84.8837"/>
</g>
<!-- Node11&#45;&gt;Node2 -->
<g id="edge25" class="edge">
<title>Node11&#45;&gt;Node2</title>
<path fill="none" stroke="#191970" d="M916.6013,-128.0093C1050.3265,-122.9387 1469.8646,-105.4744 1526.7739,-84 1546.651,-76.4995 1546.096,-65.124 1564.7739,-55 1573.6435,-50.1924 1627.8407,-31.4843 1662.8094,-19.6056"/>
<polygon fill="#191970" stroke="#191970" points="1664.1934,-22.8321 1672.5407,-16.3074 1661.9464,-16.2025 1664.1934,-22.8321"/>
</g>
<!-- Node11&#45;&gt;Node10 -->
<g id="edge26" class="edge">
<title>Node11&#45;&gt;Node10</title>
<path fill="none" stroke="#191970" d="M916.765,-128.6324C1044.9001,-125.6285 1436.6648,-114.1543 1559.7739,-84 1561.6885,-83.531 1563.6316,-82.9579 1565.5671,-82.3134"/>
<polygon fill="#191970" stroke="#191970" points="1566.9587,-85.5278 1575.0155,-78.6474 1564.4266,-79.0018 1566.9587,-85.5278"/>
</g>
<!-- Node12 -->
<g id="node13" class="node">
<title>Node12</title>
<polygon fill="#ffffff" stroke="#bfbfbf" points="29.9662,-60.5 29.9662,-78.5 121.5815,-78.5 121.5815,-60.5 29.9662,-60.5"/>
<text text-anchor="middle" x="75.7739" y="-66.5" font-family="Helvetica,sans-Serif" font-size="10.00" fill="#000000">openssl/engine.h</text>
</g>
<!-- Node11&#45;&gt;Node12 -->
<g id="edge13" class="edge">
<title>Node11&#45;&gt;Node12</title>
<path fill="none" stroke="#191970" d="M834.6196,-128.083C699.0469,-123.2435 267.2821,-106.4201 129.7739,-84 124.9955,-83.2209 120.0294,-82.195 115.1301,-81.0481"/>
<polygon fill="#191970" stroke="#191970" points="115.8004,-77.6078 105.2488,-78.5641 114.0937,-84.3965 115.8004,-77.6078"/>
</g>
<!-- Node13 -->
<g id="node14" class="node">
<title>Node13</title>
<polygon fill="#ffffff" stroke="#bfbfbf" points="139.1435,-60.5 139.1435,-78.5 212.4042,-78.5 212.4042,-60.5 139.1435,-60.5"/>
<text text-anchor="middle" x="175.7739" y="-66.5" font-family="Helvetica,sans-Serif" font-size="10.00" fill="#000000">openssl/err.h</text>
</g>
<!-- Node11&#45;&gt;Node13 -->
<g id="edge14" class="edge">
<title>Node11&#45;&gt;Node13</title>
<path fill="none" stroke="#191970" d="M834.8915,-127.9577C710.7502,-123.0696 339.4159,-106.8831 220.7739,-84 217.2831,-83.3267 213.6854,-82.4662 210.1169,-81.5011"/>
<polygon fill="#191970" stroke="#191970" points="210.8328,-78.0627 200.2502,-78.5727 208.841,-84.7734 210.8328,-78.0627"/>
</g>
<!-- Node14 -->
<g id="node15" class="node">
<title>Node14</title>
<polygon fill="#ffffff" stroke="#bfbfbf" points="229.9194,-60.5 229.9194,-78.5 307.6284,-78.5 307.6284,-60.5 229.9194,-60.5"/>
<text text-anchor="middle" x="268.7739" y="-66.5" font-family="Helvetica,sans-Serif" font-size="10.00" fill="#000000">openssl/evp.h</text>
</g>
<!-- Node11&#45;&gt;Node14 -->
<g id="edge15" class="edge">
<title>Node11&#45;&gt;Node14</title>
<path fill="none" stroke="#191970" d="M834.6799,-127.2897C723.1112,-121.1078 416.2673,-102.8553 316.7739,-84 312.8916,-83.2643 308.877,-82.3336 304.8991,-81.3002"/>
<polygon fill="#191970" stroke="#191970" points="305.7566,-77.9057 295.1828,-78.5725 303.8646,-84.6452 305.7566,-77.9057"/>
</g>
<!-- Node15 -->
<g id="node16" class="node">
<title>Node15</title>
<polygon fill="#ffffff" stroke="#bfbfbf" points="325.6157,-60.5 325.6157,-78.5 425.9321,-78.5 425.9321,-60.5 325.6157,-60.5"/>
<text text-anchor="middle" x="375.7739" y="-66.5" font-family="Helvetica,sans-Serif" font-size="10.00" fill="#000000">openssl/opensslv.h</text>
</g>
<!-- Node11&#45;&gt;Node15 -->
<g id="edge16" class="edge">
<title>Node11&#45;&gt;Node15</title>
<path fill="none" stroke="#191970" d="M834.7796,-127.1684C756.5505,-122.3003 580.7553,-109.3442 434.7739,-84 429.6442,-83.1094 424.2993,-82.0232 419.0129,-80.85"/>
<polygon fill="#191970" stroke="#191970" points="419.5241,-77.3754 408.9907,-78.5149 417.9356,-84.1928 419.5241,-77.3754"/>
</g>
<!-- Node16 -->
<g id="node17" class="node">
<title>Node16</title>
<polygon fill="#ffffff" stroke="#bfbfbf" points="444.2543,-60.5 444.2543,-78.5 525.2934,-78.5 525.2934,-60.5 444.2543,-60.5"/>
<text text-anchor="middle" x="484.7739" y="-66.5" font-family="Helvetica,sans-Serif" font-size="10.00" fill="#000000">openssl/pem.h</text>
</g>
<!-- Node11&#45;&gt;Node16 -->
<g id="edge17" class="edge">
<title>Node11&#45;&gt;Node16</title>
<path fill="none" stroke="#191970" d="M834.8864,-126.1318C770.3807,-120.3547 641.2726,-106.911 533.7739,-84 530.0863,-83.2141 526.2726,-82.2895 522.4763,-81.2939"/>
<polygon fill="#191970" stroke="#191970" points="523.1385,-77.8453 512.5665,-78.5392 521.2638,-84.5896 523.1385,-77.8453"/>
</g>
<!-- Node17 -->
<g id="node18" class="node">
<title>Node17</title>
<polygon fill="#ffffff" stroke="#bfbfbf" points="543.1386,-60.5 543.1386,-78.5 636.4091,-78.5 636.4091,-60.5 543.1386,-60.5"/>
<text text-anchor="middle" x="589.7739" y="-66.5" font-family="Helvetica,sans-Serif" font-size="10.00" fill="#000000">openssl/pkcs12.h</text>
</g>
<!-- Node11&#45;&gt;Node17 -->
<g id="edge18" class="edge">
<title>Node11&#45;&gt;Node17</title>
<path fill="none" stroke="#191970" d="M834.7147,-122.2239C788.3966,-113.8278 710.8986,-99.2127 644.7739,-84 640.714,-83.066 636.4985,-82.046 632.289,-80.9938"/>
<polygon fill="#191970" stroke="#191970" points="633.109,-77.5909 622.5537,-78.5054 631.3754,-84.3729 633.109,-77.5909"/>
</g>
<!-- Node18 -->
<g id="node19" class="node">
<title>Node18</title>
<polygon fill="#ffffff" stroke="#bfbfbf" points="653.9736,-60.5 653.9736,-78.5 735.5742,-78.5 735.5742,-60.5 653.9736,-60.5"/>
<text text-anchor="middle" x="694.7739" y="-66.5" font-family="Helvetica,sans-Serif" font-size="10.00" fill="#000000">openssl/rand.h</text>
</g>
<!-- Node11&#45;&gt;Node18 -->
<g id="edge19" class="edge">
<title>Node11&#45;&gt;Node18</title>
<path fill="none" stroke="#191970" d="M848.2839,-120.3873C817.1405,-110.0635 766.2337,-93.1883 731.6569,-81.7264"/>
<polygon fill="#191970" stroke="#191970" points="732.5229,-78.3263 721.9295,-78.5019 730.3203,-84.9707 732.5229,-78.3263"/>
</g>
<!-- Node19 -->
<g id="node20" class="node">
<title>Node19</title>
<polygon fill="#ffffff" stroke="#bfbfbf" points="754.0351,-60.5 754.0351,-78.5 829.5126,-78.5 829.5126,-60.5 754.0351,-60.5"/>
<text text-anchor="middle" x="791.7739" y="-66.5" font-family="Helvetica,sans-Serif" font-size="10.00" fill="#000000">openssl/rsa.h</text>
</g>
<!-- Node11&#45;&gt;Node19 -->
<g id="edge20" class="edge">
<title>Node11&#45;&gt;Node19</title>
<path fill="none" stroke="#191970" d="M863.0161,-120.3873C849.6173,-110.8168 828.3362,-95.6159 812.5177,-84.3171"/>
<polygon fill="#191970" stroke="#191970" points="814.5482,-81.4662 804.3765,-78.5019 810.4795,-87.1624 814.5482,-81.4662"/>
</g>
<!-- Node20 -->
<g id="node21" class="node">
<title>Node20</title>
<polygon fill="#ffffff" stroke="#bfbfbf" points="847.4858,-60.5 847.4858,-78.5 904.0619,-78.5 904.0619,-60.5 847.4858,-60.5"/>
<text text-anchor="middle" x="875.7739" y="-66.5" font-family="Helvetica,sans-Serif" font-size="10.00" fill="#000000">sodium.h</text>
</g>
<!-- Node11&#45;&gt;Node20 -->
<g id="edge21" class="edge">
<title>Node11&#45;&gt;Node20</title>
<path fill="none" stroke="#191970" d="M875.7739,-120.3873C875.7739,-112.0174 875.7739,-99.3414 875.7739,-88.735"/>
<polygon fill="#191970" stroke="#191970" points="879.274,-88.6984 875.7739,-78.6985 872.274,-88.6985 879.274,-88.6984"/>
</g>
<!-- Node21 -->
<g id="node22" class="node">
<title>Node21</title>
<polygon fill="#ffffff" stroke="#bfbfbf" points="922.4072,-60.5 922.4072,-78.5 1045.1406,-78.5 1045.1406,-60.5 922.4072,-60.5"/>
<text text-anchor="middle" x="983.7739" y="-66.5" font-family="Helvetica,sans-Serif" font-size="10.00" fill="#000000">boost/algorithm/hex.hpp</text>
</g>
<!-- Node11&#45;&gt;Node21 -->
<g id="edge22" class="edge">
<title>Node11&#45;&gt;Node21</title>
<path fill="none" stroke="#191970" d="M892.1767,-120.3873C909.8822,-110.5509 938.2931,-94.7671 958.7814,-83.3847"/>
<polygon fill="#191970" stroke="#191970" points="960.5287,-86.4179 967.5705,-78.5019 957.1291,-80.2988 960.5287,-86.4179"/>
</g>
<!-- Node22 -->
<g id="node23" class="node">
<title>Node22</title>
<polygon fill="#ffffff" stroke="#bfbfbf" points="1063.2421,-60.5 1063.2421,-78.5 1194.3056,-78.5 1194.3056,-60.5 1063.2421,-60.5"/>
<text text-anchor="middle" x="1128.7739" y="-66.5" font-family="Helvetica,sans-Serif" font-size="10.00" fill="#000000">boost/algorithm/string.hpp</text>
</g>
<!-- Node11&#45;&gt;Node22 -->
<g id="edge23" class="edge">
<title>Node11&#45;&gt;Node22</title>
<path fill="none" stroke="#191970" d="M913.9244,-120.4524C958.5155,-109.8775 1032.36,-92.3649 1080.7966,-80.878"/>
<polygon fill="#191970" stroke="#191970" points="1081.8047,-84.2361 1090.7272,-78.5229 1080.1894,-77.425 1081.8047,-84.2361"/>
</g>
<!-- Node23 -->
<g id="node24" class="node">
<title>Node23</title>
<polygon fill="#ffffff" stroke="#bfbfbf" points="1211.9736,-55.5 1211.9736,-83.5 1323.5742,-83.5 1323.5742,-55.5 1211.9736,-55.5"/>
<text text-anchor="start" x="1219.9736" y="-71.5" font-family="Helvetica,sans-Serif" font-size="10.00" fill="#000000">boost/algorithm/string</text>
<text text-anchor="middle" x="1267.7739" y="-61.5" font-family="Helvetica,sans-Serif" font-size="10.00" fill="#000000">/case_conv.hpp</text>
</g>
<!-- Node11&#45;&gt;Node23 -->
<g id="edge24" class="edge">
<title>Node11&#45;&gt;Node23</title>
<path fill="none" stroke="#191970" d="M916.6031,-124.9668C976.9355,-118.0211 1093.6389,-103.6442 1201.5576,-84.3257"/>
<polygon fill="#191970" stroke="#191970" points="1202.4201,-87.7266 1211.6372,-82.502 1201.1738,-80.8384 1202.4201,-87.7266"/>
</g>
<!-- Node11&#45;&gt;Node24 -->
<g id="edge27" class="edge">
<title>Node11&#45;&gt;Node24</title>
<path fill="none" stroke="#191970" d="M916.5801,-128.9103C1008.4503,-126.9786 1238.2211,-118.7637 1426.7739,-84 1430.9236,-83.2349 1435.2228,-82.2666 1439.4788,-81.1947"/>
<polygon fill="#191970" stroke="#191970" points="1440.5026,-84.5436 1449.2407,-78.5522 1438.6736,-77.7867 1440.5026,-84.5436"/>
</g>
<!-- Node27 -->
<g id="node28" class="node">
<title>Node27</title>
<g id="a_node28"><a xlink:href="utils_8h_source.html" target="_top" xlink:title="utilities/utils.h">
<polygon fill="#ffffff" stroke="#000000" points="1342.04,-60.5 1342.04,-78.5 1417.5077,-78.5 1417.5077,-60.5 1342.04,-60.5"/>
<text text-anchor="middle" x="1379.7739" y="-66.5" font-family="Helvetica,sans-Serif" font-size="10.00" fill="#000000">utilities/utils.h</text>
</a>
</g>
</g>
<!-- Node11&#45;&gt;Node27 -->
<g id="edge31" class="edge">
<title>Node11&#45;&gt;Node27</title>
<path fill="none" stroke="#191970" d="M916.8371,-128.1611C997.3614,-124.9323 1181.3482,-114.5758 1332.7739,-84 1336.4202,-83.2637 1340.1865,-82.3582 1343.9264,-81.3623"/>
<polygon fill="#191970" stroke="#191970" points="1345.0164,-84.6908 1353.6637,-78.5692 1343.0863,-77.9621 1345.0164,-84.6908"/>
</g>
<!-- Node24&#45;&gt;Node9 -->
<g id="edge30" class="edge">
<title>Node24&#45;&gt;Node9</title>
<path fill="none" stroke="#191970" d="M1499.2519,-60.3873C1524.28,-50.2407 1564.9182,-33.7658 1593.1476,-22.3215"/>
<polygon fill="#191970" stroke="#191970" points="1594.6168,-25.5026 1602.5692,-18.5019 1591.9868,-19.0154 1594.6168,-25.5026"/>
</g>
<!-- Node25 -->
<g id="node26" class="node">
<title>Node25</title>
<polygon fill="#ffffff" stroke="#bfbfbf" points="1513.8701,-.5 1513.8701,-18.5 1577.6777,-18.5 1577.6777,-.5 1513.8701,-.5"/>
<text text-anchor="middle" x="1545.7739" y="-6.5" font-family="Helvetica,sans-Serif" font-size="10.00" fill="#000000">json/json.h</text>
</g>
<!-- Node24&#45;&gt;Node25 -->
<g id="edge28" class="edge">
<title>Node24&#45;&gt;Node25</title>
<path fill="none" stroke="#191970" d="M1487.2535,-60.3873C1497.892,-51.1364 1514.5801,-36.625 1527.4178,-25.4618"/>
<polygon fill="#191970" stroke="#191970" points="1529.9462,-27.9014 1535.1956,-18.6985 1525.3529,-22.6192 1529.9462,-27.9014"/>
</g>
<!-- Node26 -->
<g id="node27" class="node">
<title>Node26</title>
<polygon fill="#ffffff" stroke="#bfbfbf" points="1389.1952,-.5 1389.1952,-18.5 1496.3525,-18.5 1496.3525,-.5 1389.1952,-.5"/>
<text text-anchor="middle" x="1442.7739" y="-6.5" font-family="Helvetica,sans-Serif" font-size="10.00" fill="#000000">boost/filesystem.hpp</text>
</g>
<!-- Node24&#45;&gt;Node26 -->
<g id="edge29" class="edge">
<title>Node24&#45;&gt;Node26</title>
<path fill="none" stroke="#191970" d="M1471.61,-60.3873C1466.6674,-51.665 1459.0747,-38.2663 1452.921,-27.4067"/>
<polygon fill="#191970" stroke="#191970" points="1455.9616,-25.6731 1447.9863,-18.6985 1449.8714,-29.1243 1455.9616,-25.6731"/>
</g>
<!-- Node27&#45;&gt;Node1 -->
<g id="edge34" class="edge">
<title>Node27&#45;&gt;Node1</title>
<path fill="none" stroke="#191970" d="M1354.1919,-60.3927C1347.318,-58.2815 1339.8316,-56.2802 1332.7739,-55 1190.8786,-29.261 739.5345,-14.4013 607.4308,-10.5253"/>
<polygon fill="#191970" stroke="#191970" points="607.1578,-7.016 597.0604,-10.2244 606.9547,-14.013 607.1578,-7.016"/>
</g>
<!-- Node27&#45;&gt;Node2 -->
<g id="edge35" class="edge">
<title>Node27&#45;&gt;Node2</title>
<path fill="none" stroke="#191970" d="M1406.9268,-60.3762C1413.3824,-58.4154 1420.2816,-56.488 1426.7739,-55 1527.0634,-32.0134 1557.6033,-42.4068 1662.2155,-18.7812"/>
<polygon fill="#191970" stroke="#191970" points="1663.2782,-22.128 1672.2339,-16.467 1661.7027,-15.3076 1663.2782,-22.128"/>
</g>
<!-- Node27&#45;&gt;Node25 -->
<g id="edge38" class="edge">
<title>Node27&#45;&gt;Node25</title>
<path fill="none" stroke="#191970" d="M1404.9857,-60.3873C1433.303,-50.1521 1479.4359,-33.4776 1511.1275,-22.0228"/>
<polygon fill="#191970" stroke="#191970" points="1512.6539,-25.1928 1520.8687,-18.5019 1510.2744,-18.6096 1512.6539,-25.1928"/>
</g>
<!-- Node27&#45;&gt;Node26 -->
<g id="edge33" class="edge">
<title>Node27&#45;&gt;Node26</title>
<path fill="none" stroke="#191970" d="M1389.3422,-60.3873C1398.9631,-51.2245 1414.0029,-36.9009 1425.6781,-25.7817"/>
<polygon fill="#191970" stroke="#191970" points="1428.2879,-28.1295 1433.1155,-18.6985 1423.4603,-23.0606 1428.2879,-28.1295"/>
</g>
<!-- Node28 -->
<g id="node29" class="node">
<title>Node28</title>
<polygon fill="#ffffff" stroke="#bfbfbf" points="1251.1508,-.5 1251.1508,-18.5 1294.3969,-18.5 1294.3969,-.5 1251.1508,-.5"/>
<text text-anchor="middle" x="1272.7739" y="-6.5" font-family="Helvetica,sans-Serif" font-size="10.00" fill="#000000">glob.h</text>
</g>
<!-- Node27&#45;&gt;Node28 -->
<g id="edge32" class="edge">
<title>Node27&#45;&gt;Node28</title>
<path fill="none" stroke="#191970" d="M1363.5229,-60.3873C1346.0603,-50.5952 1318.0869,-34.9092 1297.8097,-23.5388"/>
<polygon fill="#191970" stroke="#191970" points="1299.2614,-20.3401 1288.8272,-18.5019 1295.8376,-26.4457 1299.2614,-20.3401"/>
</g>
<!-- Node29 -->
<g id="node30" class="node">
<title>Node29</title>
<polygon fill="#ffffff" stroke="#bfbfbf" points="1312.1015,-.5 1312.1015,-18.5 1371.4462,-18.5 1371.4462,-.5 1312.1015,-.5"/>
<text text-anchor="middle" x="1341.7739" y="-6.5" font-family="Helvetica,sans-Serif" font-size="10.00" fill="#000000">curl/curl.h</text>
</g>
<!-- Node27&#45;&gt;Node29 -->
<g id="edge36" class="edge">
<title>Node27&#45;&gt;Node29</title>
<path fill="none" stroke="#191970" d="M1374.0025,-60.3873C1368.4784,-51.665 1359.9925,-38.2663 1353.1148,-27.4067"/>
<polygon fill="#191970" stroke="#191970" points="1355.907,-25.274 1347.5996,-18.6985 1349.9933,-29.0194 1355.907,-25.274"/>
</g>
<!-- Node30 -->
<g id="node31" class="node">
<title>Node30</title>
<polygon fill="#ffffff" stroke="#bfbfbf" points="1168.311,-.5 1168.311,-18.5 1233.2368,-18.5 1233.2368,-.5 1168.311,-.5"/>
<text text-anchor="middle" x="1200.7739" y="-6.5" font-family="Helvetica,sans-Serif" font-size="10.00" fill="#000000">netinet/in.h</text>
</g>
<!-- Node27&#45;&gt;Node30 -->
<g id="edge37" class="edge">
<title>Node27&#45;&gt;Node30</title>
<path fill="none" stroke="#191970" d="M1352.5876,-60.3873C1321.7883,-50.0635 1271.4441,-33.1883 1237.2494,-21.7264"/>
<polygon fill="#191970" stroke="#191970" points="1238.2234,-18.3616 1227.6295,-18.5019 1235.9986,-24.9986 1238.2234,-18.3616"/>
</g>
<!-- Node31&#45;&gt;Node2 -->
<g id="edge41" class="edge">
<title>Node31&#45;&gt;Node2</title>
<path fill="none" stroke="#191970" d="M1577.3455,-233.3342C1620.5536,-226.2223 1682.3405,-213.014 1696.7739,-194 1734.1667,-144.7398 1712.8948,-64.8677 1700.1679,-28.5555"/>
<polygon fill="#191970" stroke="#191970" points="1703.3042,-26.9435 1696.5669,-18.7668 1696.7347,-29.3603 1703.3042,-26.9435"/>
</g>
<!-- Node31&#45;&gt;Node4 -->
<g id="edge44" class="edge">
<title>Node31&#45;&gt;Node4</title>
<path fill="none" stroke="#191970" d="M1521.5543,-230.4179C1510.307,-222.0584 1493.4057,-209.4966 1480.1224,-199.6239"/>
<polygon fill="#191970" stroke="#191970" points="1482.1254,-196.7518 1472.0116,-193.5956 1477.9497,-202.37 1482.1254,-196.7518"/>
</g>
<!-- Node32 -->
<g id="node33" class="node">
<title>Node32</title>
<polygon fill="#ffffff" stroke="#bfbfbf" points="1512.1581,-175.5 1512.1581,-193.5 1555.3896,-193.5 1555.3896,-175.5 1512.1581,-175.5"/>
<text text-anchor="middle" x="1533.7739" y="-181.5" font-family="Helvetica,sans-Serif" font-size="10.00" fill="#000000">vector</text>
</g>
<!-- Node31&#45;&gt;Node32 -->
<g id="edge42" class="edge">
<title>Node31&#45;&gt;Node32</title>
<path fill="none" stroke="#191970" d="M1533.7739,-230.4179C1533.7739,-223.2164 1533.7739,-212.8962 1533.7739,-203.8632"/>
<polygon fill="#191970" stroke="#191970" points="1537.274,-203.7794 1533.7739,-193.7795 1530.274,-203.7795 1537.274,-203.7794"/>
</g>
<!-- Node33 -->
<g id="node34" class="node">
<title>Node33</title>
<polygon fill="#ffffff" stroke="#bfbfbf" points="1573.8554,-175.5 1573.8554,-193.5 1687.6923,-193.5 1687.6923,-175.5 1573.8554,-175.5"/>
<text text-anchor="middle" x="1630.7739" y="-181.5" font-family="Helvetica,sans-Serif" font-size="10.00" fill="#000000">campaign/campaign.h</text>
</g>
<!-- Node31&#45;&gt;Node33 -->
<g id="edge43" class="edge">
<title>Node31&#45;&gt;Node33</title>
<path fill="none" stroke="#191970" d="M1549.7914,-230.4179C1564.9558,-221.8195 1587.9609,-208.7754 1605.5813,-198.7844"/>
<polygon fill="#191970" stroke="#191970" points="1607.7599,-201.5727 1614.7325,-193.5956 1604.3072,-195.4834 1607.7599,-201.5727"/>
</g>
</g>
</svg>
        <g id="navigator" transform="translate(0 0)" fill="#404254">
                <rect fill="#f2f5e9" fill-opacity="0.5" stroke="#606060" stroke-width=".5" x="0" y="0" width="60" height="60"/>
                <use id="zoomplus" xlink:href="#zoomPlus" x="17" y="9" onmousedown="handleZoom(evt,'in')"/>
                <use id="zoomminus" xlink:href="#zoomMin" x="42" y="9" onmousedown="handleZoom(evt,'out')"/>
                <use id="reset" xlink:href="#resetDef" x="30" y="36" onmousedown="handleReset()"/>
                <g id="arrowUp" xlink:href="#dirArrow" transform="translate(30 24)" onmousedown="handlePan(0,-1)">
                  <use xlink:href="#rim" fill="#404040">
                        <set attributeName="fill" to="#808080" begin="arrowUp.mouseover" end="arrowUp.mouseout"/>
                  </use>
                  <path fill="none" stroke="white" stroke-width="1.5" d="M0,-3.0v7 M-2.5,-0.5L0,-3.0L2.5,-0.5"/>
                </g>
                <g id="arrowRight" xlink:href="#dirArrow" transform="rotate(90) translate(36 -43)" onmousedown="handlePan(1,0)">
                  <use xlink:href="#rim" fill="#404040">
                        <set attributeName="fill" to="#808080" begin="arrowRight.mouseover" end="arrowRight.mouseout"/>
                  </use>
                  <path fill="none" stroke="white" stroke-width="1.5" d="M0,-3.0v7 M-2.5,-0.5L0,-3.0L2.5,-0.5"/>
                </g>
                <g id="arrowDown" xlink:href="#dirArrow" transform="rotate(180) translate(-30 -48)" onmousedown="handlePan(0,1)">
                  <use xlink:href="#rim" fill="#404040">
                        <set attributeName="fill" to="#808080" begin="arrowDown.mouseover" end="arrowDown.mouseout"/>
                  </use>
                  <path fill="none" stroke="white" stroke-width="1.5" d="M0,-3.0v7 M-2.5,-0.5L0,-3.0L2.5,-0.5"/>
                </g>
                <g id="arrowLeft" xlink:href="#dirArrow" transform="rotate(270) translate(-36 17)" onmousedown="handlePan(-1,0)">
                  <use xlink:href="#rim" fill="#404040">
                        <set attributeName="fill" to="#808080" begin="arrowLeft.mouseover" end="arrowLeft.mouseout"/>
                  </use>
                  <path fill="none" stroke="white" stroke-width="1.5" d="M0,-3.0v7 M-2.5,-0.5L0,-3.0L2.5,-0.5"/>
                </g>
        </g>
        <svg viewBox="0 0 15 15" width="100%" height="30px" preserveAspectRatio="xMaxYMin meet">
         <g id="arrow_out" transform="scale(0.3 0.3)">
          <a xlink:href="events_8h__incl_org.svg" target="_base">
           <rect id="button" ry="5" rx="5" y="6" x="6" height="38" width="38"
                fill="#f2f5e9" fill-opacity="0.5" stroke="#606060" stroke-width="1.0"/>
           <path id="arrow"
             d="M 11.500037,31.436501 C 11.940474,20.09759 22.043105,11.32322 32.158766,21.979434 L 37.068811,17.246167 C 37.068811,17.246167 37.088388,32 37.088388,32 L 22.160133,31.978069 C 22.160133,31.978069 26.997745,27.140456 26.997745,27.140456 C 18.528582,18.264221 13.291696,25.230495 11.500037,31.436501 z"
             style="fill:#404040;"/>
          </a>
         </g>
        </svg>
</svg>
