<?xml version="1.0" encoding="UTF-8" standalone="no"?>
<!DOCTYPE svg PUBLIC "-//W3C//DTD SVG 1.1//EN"
 "http://www.w3.org/Graphics/SVG/1.1/DTD/svg11.dtd">
<!-- Generated by graphviz version 2.40.1 (20161225.0304)
 -->
<!-- Title: Graphical Class Hierarchy Pages: 1 -->
<svg width="612pt" height="565pt"
 viewBox="0.00 0.00 612.40 565.00" xmlns="http://www.w3.org/2000/svg" xmlns:xlink="http://www.w3.org/1999/xlink">
<g id="graph0" class="graph" transform="scale(1 1) rotate(0) translate(4 561)">
<title>Graphical Class Hierarchy</title>
<polygon fill="#ffffff" stroke="transparent" points="-4,4 -4,-561 608.3975,-561 608.3975,4 -4,4"/>
<!-- Node195 -->
<g id="node1" class="node">
<title>Node195</title>
<g id="a_node1"><a xlink:title="STL class. ">
<polygon fill="#ffffff" stroke="#bfbfbf" points="0,-353.5 0,-371.5 77.7041,-371.5 77.7041,-353.5 0,-353.5"/>
<text text-anchor="middle" x="38.8521" y="-359.5" font-family="Helvetica,sans-Serif" font-size="10.00" fill="#000000">std::exception</text>
</a>
</g>
</g>
<!-- Node0 -->
<g id="node2" class="node">
<title>Node0</title>
<g id="a_node2"><a xlink:href="classdeserialization__error.html" target="_top" xlink:title="deserialization_error">
<polygon fill="#ffffff" stroke="#000000" points="127.1196,-427.5 127.1196,-445.5 233.7202,-445.5 233.7202,-427.5 127.1196,-427.5"/>
<text text-anchor="middle" x="180.4199" y="-433.5" font-family="Helvetica,sans-Serif" font-size="10.00" fill="#000000">deserialization_error</text>
</a>
</g>
</g>
<!-- Node195&#45;&gt;Node0 -->
<g id="edge1" class="edge">
<title>Node195&#45;&gt;Node0</title>
<path fill="none" stroke="#191970" d="M56.3024,-378.6016C70.7192,-391.1164 92.234,-408.0514 113.7041,-418.5 121.0394,-422.0698 129.185,-425.0131 137.193,-427.411"/>
<polygon fill="#191970" stroke="#191970" points="58.4855,-375.8592 48.6882,-371.8264 53.8322,-381.0887 58.4855,-375.8592"/>
</g>
<!-- Node197 -->
<g id="node3" class="node">
<title>Node197</title>
<g id="a_node3"><a xlink:href="class_o_s_tree_commit_parse_error.html" target="_top" xlink:title="OSTreeCommitParseError">
<polygon fill="#ffffff" stroke="#000000" points="113.7041,-390.5 113.7041,-408.5 247.1357,-408.5 247.1357,-390.5 113.7041,-390.5"/>
<text text-anchor="middle" x="180.4199" y="-396.5" font-family="Helvetica,sans-Serif" font-size="10.00" fill="#000000">OSTreeCommitParseError</text>
</a>
</g>
</g>
<!-- Node195&#45;&gt;Node197 -->
<g id="edge2" class="edge">
<title>Node195&#45;&gt;Node197</title>
<path fill="none" stroke="#8b1a1a" d="M83.3542,-374.131C103.4615,-379.3862 126.8665,-385.5033 145.6554,-390.414"/>
<polygon fill="#8b1a1a" stroke="#8b1a1a" points="84.0435,-370.6937 73.4834,-371.5512 82.2734,-377.4662 84.0435,-370.6937"/>
</g>
<!-- Node198 -->
<g id="node4" class="node">
<title>Node198</title>
<g id="a_node4"><a xlink:href="class_o_s_tree_object_missing.html" target="_top" xlink:title="Thrown by GetObject when the object requested is not present in the repository. ">
<polygon fill="#ffffff" stroke="#000000" points="123.6992,-353.5 123.6992,-371.5 237.1406,-371.5 237.1406,-353.5 123.6992,-353.5"/>
<text text-anchor="middle" x="180.4199" y="-359.5" font-family="Helvetica,sans-Serif" font-size="10.00" fill="#000000">OSTreeObjectMissing</text>
</a>
</g>
</g>
<!-- Node195&#45;&gt;Node198 -->
<g id="edge3" class="edge">
<title>Node195&#45;&gt;Node198</title>
<path fill="none" stroke="#8b1a1a" d="M88.1178,-362.5C99.5264,-362.5 111.7592,-362.5 123.4667,-362.5"/>
<polygon fill="#8b1a1a" stroke="#8b1a1a" points="87.9109,-359.0001 77.9108,-362.5 87.9108,-366.0001 87.9109,-359.0001"/>
</g>
<!-- Node199 -->
<g id="node5" class="node">
<title>Node199</title>
<g id="a_node5"><a xlink:title="STL class. ">
<polygon fill="#ffffff" stroke="#bfbfbf" points="139.3511,-316.5 139.3511,-334.5 221.4888,-334.5 221.4888,-316.5 139.3511,-316.5"/>
<text text-anchor="middle" x="180.4199" y="-322.5" font-family="Helvetica,sans-Serif" font-size="10.00" fill="#000000">std::logic_error</text>
</a>
</g>
</g>
<!-- Node195&#45;&gt;Node199 -->
<g id="edge4" class="edge">
<title>Node195&#45;&gt;Node199</title>
<path fill="none" stroke="#191970" d="M83.3542,-350.869C103.4615,-345.6138 126.8665,-339.4967 145.6554,-334.586"/>
<polygon fill="#191970" stroke="#191970" points="82.2734,-347.5338 73.4834,-353.4488 84.0435,-354.3063 82.2734,-347.5338"/>
</g>
<!-- Node219 -->
<g id="node25" class="node">
<title>Node219</title>
<g id="a_node25"><a xlink:title="STL class. ">
<polygon fill="#ffffff" stroke="#bfbfbf" points="132.9619,-150.5 132.9619,-168.5 227.8779,-168.5 227.8779,-150.5 132.9619,-150.5"/>
<text text-anchor="middle" x="180.4199" y="-156.5" font-family="Helvetica,sans-Serif" font-size="10.00" fill="#000000">std::runtime_error</text>
</a>
</g>
</g>
<!-- Node195&#45;&gt;Node219 -->
<g id="edge24" class="edge">
<title>Node195&#45;&gt;Node219</title>
<path fill="none" stroke="#191970" d="M51.0948,-344.9446C80.0479,-303.4276 151.9482,-200.3268 173.9313,-168.8043"/>
<polygon fill="#191970" stroke="#191970" points="48.1522,-343.0455 45.3028,-353.25 53.8939,-347.0497 48.1522,-343.0455"/>
</g>
<!-- Node200 -->
<g id="node6" class="node">
<title>Node200</title>
<g id="a_node6"><a xlink:href="class_fatal_exception.html" target="_top" xlink:title="FatalException">
<polygon fill="#ffffff" stroke="#000000" points="308.7046,-390.5 308.7046,-408.5 390.8521,-408.5 390.8521,-390.5 308.7046,-390.5"/>
<text text-anchor="middle" x="349.7783" y="-396.5" font-family="Helvetica,sans-Serif" font-size="10.00" fill="#000000">FatalException</text>
</a>
</g>
</g>
<!-- Node199&#45;&gt;Node200 -->
<g id="edge5" class="edge">
<title>Node199&#45;&gt;Node200</title>
<path fill="none" stroke="#191970" d="M231.541,-337.0285C236.98,-339.1347 242.2888,-341.606 247.1357,-344.5 266.8352,-356.2622 263.3565,-369.8724 283.1357,-381.5 290.8844,-386.0552 299.8128,-389.4862 308.5646,-392.0609"/>
<polygon fill="#191970" stroke="#191970" points="232.2767,-333.5796 221.6819,-333.619 229.9888,-340.1952 232.2767,-333.5796"/>
</g>
<!-- Node201 -->
<g id="node7" class="node">
<title>Node201</title>
<g id="a_node7"><a xlink:href="class_not_implemented_exception.html" target="_top" xlink:title="NotImplementedException">
<polygon fill="#ffffff" stroke="#000000" points="283.1357,-353.5 283.1357,-371.5 416.4209,-371.5 416.4209,-353.5 283.1357,-353.5"/>
<text text-anchor="middle" x="349.7783" y="-359.5" font-family="Helvetica,sans-Serif" font-size="10.00" fill="#000000">NotImplementedException</text>
</a>
</g>
</g>
<!-- Node199&#45;&gt;Node201 -->
<g id="edge6" class="edge">
<title>Node199&#45;&gt;Node201</title>
<path fill="none" stroke="#191970" d="M231.7279,-336.7093C256.3079,-342.0794 285.3537,-348.4251 308.4831,-353.4782"/>
<polygon fill="#191970" stroke="#191970" points="232.3663,-333.2663 221.8496,-334.5512 230.8722,-340.105 232.3663,-333.2663"/>
</g>
<!-- Node202 -->
<g id="node8" class="node">
<title>Node202</title>
<g id="a_node8"><a xlink:title="STL class. ">
<polygon fill="#ffffff" stroke="#bfbfbf" points="302.5938,-316.5 302.5938,-334.5 396.9629,-334.5 396.9629,-316.5 302.5938,-316.5"/>
<text text-anchor="middle" x="349.7783" y="-322.5" font-family="Helvetica,sans-Serif" font-size="10.00" fill="#000000">std::domain_error</text>
</a>
</g>
</g>
<!-- Node199&#45;&gt;Node202 -->
<g id="edge7" class="edge">
<title>Node199&#45;&gt;Node202</title>
<path fill="none" stroke="#191970" d="M231.8827,-325.5C254.3489,-325.5 280.522,-325.5 302.4926,-325.5"/>
<polygon fill="#191970" stroke="#191970" points="231.8497,-322.0001 221.8496,-325.5 231.8496,-329.0001 231.8497,-322.0001"/>
</g>
<!-- Node204 -->
<g id="node10" class="node">
<title>Node204</title>
<g id="a_node10"><a xlink:href="class_uptane_1_1_exception.html" target="_top" xlink:title="Uptane::Exception">
<polygon fill="#ffffff" stroke="#000000" points="300.9189,-279.5 300.9189,-297.5 398.6377,-297.5 398.6377,-279.5 300.9189,-279.5"/>
<text text-anchor="middle" x="349.7783" y="-285.5" font-family="Helvetica,sans-Serif" font-size="10.00" fill="#000000">Uptane::Exception</text>
</a>
</g>
</g>
<!-- Node199&#45;&gt;Node204 -->
<g id="edge9" class="edge">
<title>Node199&#45;&gt;Node204</title>
<path fill="none" stroke="#191970" d="M231.7279,-314.2907C256.3079,-308.9206 285.3537,-302.5749 308.4831,-297.5218"/>
<polygon fill="#191970" stroke="#191970" points="230.8722,-310.895 221.8496,-316.4488 232.3663,-317.7337 230.8722,-310.895"/>
</g>
<!-- Node203 -->
<g id="node9" class="node">
<title>Node203</title>
<g id="a_node9"><a xlink:href="class_time_stamp_1_1_invalid_time_stamp.html" target="_top" xlink:title="TimeStamp::InvalidTimeStamp">
<polygon fill="#ffffff" stroke="#000000" points="452.4209,-538.5 452.4209,-556.5 604.3975,-556.5 604.3975,-538.5 452.4209,-538.5"/>
<text text-anchor="middle" x="528.4092" y="-544.5" font-family="Helvetica,sans-Serif" font-size="10.00" fill="#000000">TimeStamp::InvalidTimeStamp</text>
</a>
</g>
</g>
<!-- Node202&#45;&gt;Node203 -->
<g id="edge8" class="edge">
<title>Node202&#45;&gt;Node203</title>
<path fill="none" stroke="#191970" d="M406.3489,-336.4092C410.0691,-338.6402 413.4921,-341.3093 416.4209,-344.5 473.0646,-406.2089 394.3989,-469.0853 452.4209,-529.5 455.8956,-533.118 459.9532,-536.0661 464.3527,-538.4625"/>
<polygon fill="#191970" stroke="#191970" points="407.744,-333.1956 397.2215,-331.9591 404.6762,-339.4876 407.744,-333.1956"/>
</g>
<!-- Node205 -->
<g id="node11" class="node">
<title>Node205</title>
<g id="a_node11"><a xlink:href="class_uptane_1_1_bad_ecu_id.html" target="_top" xlink:title="Uptane::BadEcuId">
<polygon fill="#ffffff" stroke="#000000" points="479.8257,-501.5 479.8257,-519.5 576.9927,-519.5 576.9927,-501.5 479.8257,-501.5"/>
<text text-anchor="middle" x="528.4092" y="-507.5" font-family="Helvetica,sans-Serif" font-size="10.00" fill="#000000">Uptane::BadEcuId</text>
</a>
</g>
</g>
<!-- Node204&#45;&gt;Node205 -->
<g id="edge10" class="edge">
<title>Node204&#45;&gt;Node205</title>
<path fill="none" stroke="#191970" d="M407.7771,-300.297C410.9463,-302.3394 413.8709,-304.722 416.4209,-307.5 473.0646,-369.2089 394.3989,-432.0853 452.4209,-492.5 459.652,-500.0293 469.4077,-504.6577 479.5152,-507.4491"/>
<polygon fill="#191970" stroke="#191970" points="409.3878,-297.1897 398.9058,-295.6476 406.1383,-303.3898 409.3878,-297.1897"/>
</g>
<!-- Node206 -->
<g id="node12" class="node">
<title>Node206</title>
<g id="a_node12"><a xlink:href="class_uptane_1_1_bad_hardware_id.html" target="_top" xlink:title="Uptane::BadHardwareId">
<polygon fill="#ffffff" stroke="#000000" points="466.7666,-464.5 466.7666,-482.5 590.0518,-482.5 590.0518,-464.5 466.7666,-464.5"/>
<text text-anchor="middle" x="528.4092" y="-470.5" font-family="Helvetica,sans-Serif" font-size="10.00" fill="#000000">Uptane::BadHardwareId</text>
</a>
</g>
</g>
<!-- Node204&#45;&gt;Node206 -->
<g id="edge11" class="edge">
<title>Node204&#45;&gt;Node206</title>
<path fill="none" stroke="#191970" d="M407.6297,-300.4355C410.8343,-302.4445 413.8071,-304.7819 416.4209,-307.5 463.3435,-356.2953 404.409,-407.7761 452.4209,-455.5 456.5555,-459.6098 461.4451,-462.8468 466.7193,-465.3883"/>
<polygon fill="#191970" stroke="#191970" points="409.1873,-297.3009 398.6925,-295.848 405.9907,-303.5284 409.1873,-297.3009"/>
</g>
<!-- Node207 -->
<g id="node13" class="node">
<title>Node207</title>
<g id="a_node13"><a xlink:href="class_uptane_1_1_bad_key_id.html" target="_top" xlink:title="Uptane::BadKeyId">
<polygon fill="#ffffff" stroke="#000000" points="479.8257,-427.5 479.8257,-445.5 576.9927,-445.5 576.9927,-427.5 479.8257,-427.5"/>
<text text-anchor="middle" x="528.4092" y="-433.5" font-family="Helvetica,sans-Serif" font-size="10.00" fill="#000000">Uptane::BadKeyId</text>
</a>
</g>
</g>
<!-- Node204&#45;&gt;Node207 -->
<g id="edge12" class="edge">
<title>Node204&#45;&gt;Node207</title>
<path fill="none" stroke="#191970" d="M407.8457,-300.9371C410.9376,-302.8281 413.8315,-305.0019 416.4209,-307.5 453.7457,-343.5088 414.2929,-383.3427 452.4209,-418.5 459.9958,-425.4847 469.7704,-429.9087 479.7708,-432.6768"/>
<polygon fill="#191970" stroke="#191970" points="409.2009,-297.7006 398.6962,-296.3215 406.0481,-303.9504 409.2009,-297.7006"/>
</g>
<!-- Node208 -->
<g id="node14" class="node">
<title>Node208</title>
<g id="a_node14"><a xlink:href="class_uptane_1_1_expired_metadata.html" target="_top" xlink:title="Uptane::ExpiredMetadata">
<polygon fill="#ffffff" stroke="#000000" points="463.7075,-390.5 463.7075,-408.5 593.1108,-408.5 593.1108,-390.5 463.7075,-390.5"/>
<text text-anchor="middle" x="528.4092" y="-396.5" font-family="Helvetica,sans-Serif" font-size="10.00" fill="#000000">Uptane::ExpiredMetadata</text>
</a>
</g>
</g>
<!-- Node204&#45;&gt;Node208 -->
<g id="edge13" class="edge">
<title>Node204&#45;&gt;Node208</title>
<path fill="none" stroke="#191970" d="M408.0615,-301.7167C411.0261,-303.4169 413.8398,-305.3353 416.4209,-307.5 444.4444,-331.0023 423.8741,-358.6361 452.4209,-381.5 456.9711,-385.1444 462.1366,-388.0723 467.5823,-390.4216"/>
<polygon fill="#191970" stroke="#191970" points="409.324,-298.4397 398.797,-297.243 406.2801,-304.7432 409.324,-298.4397"/>
</g>
<!-- Node209 -->
<g id="node15" class="node">
<title>Node209</title>
<g id="a_node15"><a xlink:href="class_uptane_1_1_illegal_rsa_key_size.html" target="_top" xlink:title="Uptane::IllegalRsaKeySize">
<polygon fill="#ffffff" stroke="#000000" points="461.21,-353.5 461.21,-371.5 595.6084,-371.5 595.6084,-353.5 461.21,-353.5"/>
<text text-anchor="middle" x="528.4092" y="-359.5" font-family="Helvetica,sans-Serif" font-size="10.00" fill="#000000">Uptane::IllegalRsaKeySize</text>
</a>
</g>
</g>
<!-- Node204&#45;&gt;Node209 -->
<g id="edge14" class="edge">
<title>Node204&#45;&gt;Node209</title>
<path fill="none" stroke="#191970" d="M403.2998,-301.0141C407.8708,-302.8956 412.312,-305.0458 416.4209,-307.5 436.1187,-319.2651 432.4626,-333.1825 452.4209,-344.5 458.9072,-348.1781 466.1139,-351.1066 473.4321,-353.4379"/>
<polygon fill="#191970" stroke="#191970" points="404.3934,-297.6871 393.8,-297.5182 401.9759,-304.2564 404.3934,-297.6871"/>
</g>
<!-- Node210 -->
<g id="node16" class="node">
<title>Node210</title>
<g id="a_node16"><a xlink:href="class_uptane_1_1_illegal_threshold.html" target="_top" xlink:title="Uptane::IllegalThreshold">
<polygon fill="#ffffff" stroke="#000000" points="466.21,-316.5 466.21,-334.5 590.6084,-334.5 590.6084,-316.5 466.21,-316.5"/>
<text text-anchor="middle" x="528.4092" y="-322.5" font-family="Helvetica,sans-Serif" font-size="10.00" fill="#000000">Uptane::IllegalThreshold</text>
</a>
</g>
</g>
<!-- Node204&#45;&gt;Node210 -->
<g id="edge15" class="edge">
<title>Node204&#45;&gt;Node210</title>
<path fill="none" stroke="#191970" d="M403.55,-299.6378C429.5488,-305.0229 460.3489,-311.4026 484.8531,-316.4782"/>
<polygon fill="#191970" stroke="#191970" points="403.9784,-296.1523 393.4763,-297.5512 402.5586,-303.0068 403.9784,-296.1523"/>
</g>
<!-- Node211 -->
<g id="node17" class="node">
<title>Node211</title>
<g id="a_node17"><a xlink:href="class_uptane_1_1_invalid_metadata.html" target="_top" xlink:title="Uptane::InvalidMetadata">
<polygon fill="#ffffff" stroke="#000000" points="466.2075,-279.5 466.2075,-297.5 590.6108,-297.5 590.6108,-279.5 466.2075,-279.5"/>
<text text-anchor="middle" x="528.4092" y="-285.5" font-family="Helvetica,sans-Serif" font-size="10.00" fill="#000000">Uptane::InvalidMetadata</text>
</a>
</g>
</g>
<!-- Node204&#45;&gt;Node211 -->
<g id="edge16" class="edge">
<title>Node204&#45;&gt;Node211</title>
<path fill="none" stroke="#191970" d="M409.291,-288.5C427.5716,-288.5 447.7336,-288.5 466.1904,-288.5"/>
<polygon fill="#191970" stroke="#191970" points="409.0629,-285.0001 399.0628,-288.5 409.0628,-292.0001 409.0629,-285.0001"/>
</g>
<!-- Node212 -->
<g id="node18" class="node">
<title>Node212</title>
<g id="a_node18"><a xlink:href="class_uptane_1_1_missing_repo.html" target="_top" xlink:title="Uptane::MissingRepo">
<polygon fill="#ffffff" stroke="#000000" points="472.6064,-242.5 472.6064,-260.5 584.2119,-260.5 584.2119,-242.5 472.6064,-242.5"/>
<text text-anchor="middle" x="528.4092" y="-248.5" font-family="Helvetica,sans-Serif" font-size="10.00" fill="#000000">Uptane::MissingRepo</text>
</a>
</g>
</g>
<!-- Node204&#45;&gt;Node212 -->
<g id="edge17" class="edge">
<title>Node204&#45;&gt;Node212</title>
<path fill="none" stroke="#191970" d="M403.55,-277.3622C429.5488,-271.9771 460.3489,-265.5974 484.8531,-260.5218"/>
<polygon fill="#191970" stroke="#191970" points="402.5586,-273.9932 393.4763,-279.4488 403.9784,-280.8477 402.5586,-273.9932"/>
</g>
<!-- Node213 -->
<g id="node19" class="node">
<title>Node213</title>
<g id="a_node19"><a xlink:href="class_uptane_1_1_miss_match_target.html" target="_top" xlink:title="Uptane::MissMatchTarget">
<polygon fill="#ffffff" stroke="#000000" points="463.7197,-205.5 463.7197,-223.5 593.0986,-223.5 593.0986,-205.5 463.7197,-205.5"/>
<text text-anchor="middle" x="528.4092" y="-211.5" font-family="Helvetica,sans-Serif" font-size="10.00" fill="#000000">Uptane::MissMatchTarget</text>
</a>
</g>
</g>
<!-- Node204&#45;&gt;Node213 -->
<g id="edge18" class="edge">
<title>Node204&#45;&gt;Node213</title>
<path fill="none" stroke="#191970" d="M405.687,-275.8556C409.415,-274.2706 413.0309,-272.4929 416.4209,-270.5 436.2002,-258.8724 432.5333,-244.9412 452.4209,-233.5 459.6111,-229.3635 467.6891,-226.1196 475.8237,-223.5776"/>
<polygon fill="#191970" stroke="#191970" points="404.3764,-272.6091 396.2535,-279.4112 406.8453,-279.1593 404.3764,-272.6091"/>
</g>
<!-- Node214 -->
<g id="node20" class="node">
<title>Node214</title>
<g id="a_node20"><a xlink:href="class_uptane_1_1_non_unique_signatures.html" target="_top" xlink:title="Uptane::NonUniqueSignatures">
<polygon fill="#ffffff" stroke="#000000" points="452.5869,-168.5 452.5869,-186.5 604.2314,-186.5 604.2314,-168.5 452.5869,-168.5"/>
<text text-anchor="middle" x="528.4092" y="-174.5" font-family="Helvetica,sans-Serif" font-size="10.00" fill="#000000">Uptane::NonUniqueSignatures</text>
</a>
</g>
</g>
<!-- Node204&#45;&gt;Node214 -->
<g id="edge19" class="edge">
<title>Node204&#45;&gt;Node214</title>
<path fill="none" stroke="#191970" d="M408.0496,-276.1874C411.0172,-274.5243 413.8348,-272.6384 416.4209,-270.5 444.6075,-247.1934 424.0166,-219.5408 452.4209,-196.5 457.4901,-192.388 463.3298,-189.15 469.4729,-186.6029"/>
<polygon fill="#191970" stroke="#191970" points="406.3445,-273.1213 398.7787,-280.538 409.3183,-279.4582 406.3445,-273.1213"/>
</g>
<!-- Node215 -->
<g id="node21" class="node">
<title>Node215</title>
<g id="a_node21"><a xlink:href="class_uptane_1_1_oversized_target.html" target="_top" xlink:title="Uptane::OversizedTarget">
<polygon fill="#ffffff" stroke="#000000" points="465.104,-131.5 465.104,-149.5 591.7144,-149.5 591.7144,-131.5 465.104,-131.5"/>
<text text-anchor="middle" x="528.4092" y="-137.5" font-family="Helvetica,sans-Serif" font-size="10.00" fill="#000000">Uptane::OversizedTarget</text>
</a>
</g>
</g>
<!-- Node204&#45;&gt;Node215 -->
<g id="edge20" class="edge">
<title>Node204&#45;&gt;Node215</title>
<path fill="none" stroke="#191970" d="M407.8287,-276.9604C410.9247,-275.1093 413.8242,-272.9704 416.4209,-270.5 453.9956,-234.752 414.512,-194.8934 452.4209,-159.5 456.7944,-155.4167 461.9093,-152.1758 467.3815,-149.6083"/>
<polygon fill="#191970" stroke="#191970" points="406.1082,-273.9059 398.6709,-281.4515 409.1904,-280.1908 406.1082,-273.9059"/>
</g>
<!-- Node216 -->
<g id="node22" class="node">
<title>Node216</title>
<g id="a_node22"><a xlink:href="class_uptane_1_1_security_exception.html" target="_top" xlink:title="Uptane::SecurityException">
<polygon fill="#ffffff" stroke="#000000" points="461.4883,-94.5 461.4883,-112.5 595.3301,-112.5 595.3301,-94.5 461.4883,-94.5"/>
<text text-anchor="middle" x="528.4092" y="-100.5" font-family="Helvetica,sans-Serif" font-size="10.00" fill="#000000">Uptane::SecurityException</text>
</a>
</g>
</g>
<!-- Node204&#45;&gt;Node216 -->
<g id="edge21" class="edge">
<title>Node204&#45;&gt;Node216</title>
<path fill="none" stroke="#191970" d="M407.8922,-277.2825C410.994,-275.3544 413.8755,-273.1103 416.4209,-270.5 463.6823,-222.0327 404.7063,-170.5212 452.4209,-122.5 456.4465,-118.4485 461.1965,-115.215 466.325,-112.6402"/>
<polygon fill="#191970" stroke="#191970" points="406.0264,-274.303 398.6634,-281.9211 409.1701,-280.5574 406.0264,-274.303"/>
</g>
<!-- Node217 -->
<g id="node23" class="node">
<title>Node217</title>
<g id="a_node23"><a xlink:href="class_uptane_1_1_target_hash_mismatch.html" target="_top" xlink:title="Uptane::TargetHashMismatch">
<polygon fill="#ffffff" stroke="#000000" points="454.5474,-57.5 454.5474,-75.5 602.271,-75.5 602.271,-57.5 454.5474,-57.5"/>
<text text-anchor="middle" x="528.4092" y="-63.5" font-family="Helvetica,sans-Serif" font-size="10.00" fill="#000000">Uptane::TargetHashMismatch</text>
</a>
</g>
</g>
<!-- Node204&#45;&gt;Node217 -->
<g id="edge22" class="edge">
<title>Node204&#45;&gt;Node217</title>
<path fill="none" stroke="#191970" d="M408.0349,-277.4185C411.102,-275.4573 413.9368,-273.1687 416.4209,-270.5 473.4931,-209.1872 394.7753,-146.274 452.4209,-85.5 456.2578,-81.4549 460.8148,-78.2181 465.7629,-75.6345"/>
<polygon fill="#191970" stroke="#191970" points="406.1714,-274.4408 398.8744,-282.1222 409.369,-280.6678 406.1714,-274.4408"/>
</g>
<!-- Node218 -->
<g id="node24" class="node">
<title>Node218</title>
<g id="a_node24"><a xlink:href="class_uptane_1_1_unmet_threshold.html" target="_top" xlink:title="Uptane::UnmetThreshold">
<polygon fill="#ffffff" stroke="#000000" points="464.5474,-20.5 464.5474,-38.5 592.271,-38.5 592.271,-20.5 464.5474,-20.5"/>
<text text-anchor="middle" x="528.4092" y="-26.5" font-family="Helvetica,sans-Serif" font-size="10.00" fill="#000000">Uptane::UnmetThreshold</text>
</a>
</g>
</g>
<!-- Node204&#45;&gt;Node218 -->
<g id="edge23" class="edge">
<title>Node204&#45;&gt;Node218</title>
<path fill="none" stroke="#191970" d="M407.6956,-277.7905C410.9079,-275.7461 413.8624,-273.3367 416.4209,-270.5 483.3666,-196.2748 384.7809,-122.0931 452.4209,-48.5 456.1938,-44.3951 460.7073,-41.1176 465.6273,-38.508"/>
<polygon fill="#191970" stroke="#191970" points="405.9987,-274.727 398.6854,-282.3929 409.183,-280.9609 405.9987,-274.727"/>
</g>
<!-- Node220 -->
<g id="node26" class="node">
<title>Node220</title>
<g id="a_node26"><a xlink:href="class_bad_credentials_archive.html" target="_top" xlink:title="BadCredentialsArchive">
<polygon fill="#ffffff" stroke="#000000" points="290.9189,-242.5 290.9189,-260.5 408.6377,-260.5 408.6377,-242.5 290.9189,-242.5"/>
<text text-anchor="middle" x="349.7783" y="-248.5" font-family="Helvetica,sans-Serif" font-size="10.00" fill="#000000">BadCredentialsArchive</text>
</a>
</g>
</g>
<!-- Node219&#45;&gt;Node220 -->
<g id="edge25" class="edge">
<title>Node219&#45;&gt;Node220</title>
<path fill="none" stroke="#191970" d="M198.1551,-175.3742C217.6809,-192.0749 250.6333,-218.0371 283.1357,-233.5 290.6031,-237.0525 298.8864,-239.9977 307.0034,-242.4048"/>
<polygon fill="#191970" stroke="#191970" points="200.2536,-172.5605 190.4138,-168.6324 195.6564,-177.8393 200.2536,-172.5605"/>
</g>
<!-- Node221 -->
<g id="node27" class="node">
<title>Node221</title>
<g id="a_node27"><a xlink:href="class_bad_credentials_content.html" target="_top" xlink:title="BadCredentialsContent">
<polygon fill="#ffffff" stroke="#000000" points="290.0791,-205.5 290.0791,-223.5 409.4775,-223.5 409.4775,-205.5 290.0791,-205.5"/>
<text text-anchor="middle" x="349.7783" y="-211.5" font-family="Helvetica,sans-Serif" font-size="10.00" fill="#000000">BadCredentialsContent</text>
</a>
</g>
</g>
<!-- Node219&#45;&gt;Node221 -->
<g id="edge26" class="edge">
<title>Node219&#45;&gt;Node221</title>
<path fill="none" stroke="#191970" d="M213.4776,-172.1874C233.4978,-179.6756 259.6251,-189.1041 283.1357,-196.5 293.0817,-199.6288 303.9644,-202.7098 313.9983,-205.4143"/>
<polygon fill="#191970" stroke="#191970" points="214.4874,-168.8277 203.8955,-168.5774 212.0194,-175.3783 214.4874,-168.8277"/>
</g>
<!-- Node222 -->
<g id="node28" class="node">
<title>Node222</title>
<g id="a_node28"><a xlink:href="class_bad_credentials_json.html" target="_top" xlink:title="BadCredentialsJson">
<polygon fill="#ffffff" stroke="#000000" points="297.0298,-168.5 297.0298,-186.5 402.5269,-186.5 402.5269,-168.5 297.0298,-168.5"/>
<text text-anchor="middle" x="349.7783" y="-174.5" font-family="Helvetica,sans-Serif" font-size="10.00" fill="#000000">BadCredentialsJson</text>
</a>
</g>
</g>
<!-- Node219&#45;&gt;Node222 -->
<g id="edge27" class="edge">
<title>Node219&#45;&gt;Node222</title>
<path fill="none" stroke="#191970" d="M238.0875,-165.6291C257.1241,-167.6524 278.1952,-169.8919 296.859,-171.8756"/>
<polygon fill="#191970" stroke="#191970" points="238.3603,-162.1385 228.0464,-164.5619 237.6204,-169.0993 238.3603,-162.1385"/>
</g>
<!-- Node223 -->
<g id="node29" class="node">
<title>Node223</title>
<g id="a_node29"><a xlink:href="class_s_q_l_exception.html" target="_top" xlink:title="SQLException">
<polygon fill="#ffffff" stroke="#000000" points="309.8154,-131.5 309.8154,-149.5 389.7412,-149.5 389.7412,-131.5 309.8154,-131.5"/>
<text text-anchor="middle" x="349.7783" y="-137.5" font-family="Helvetica,sans-Serif" font-size="10.00" fill="#000000">SQLException</text>
</a>
</g>
</g>
<!-- Node219&#45;&gt;Node223 -->
<g id="edge28" class="edge">
<title>Node219&#45;&gt;Node223</title>
<path fill="none" stroke="#191970" d="M238.2533,-153.0118C261.7614,-150.3745 288.3482,-147.3917 309.6654,-145.0002"/>
<polygon fill="#191970" stroke="#191970" points="237.5938,-149.5637 228.0464,-154.1569 238.3743,-156.5201 237.5938,-149.5637"/>
</g>
<!-- Node224 -->
<g id="node30" class="node">
<title>Node224</title>
<g id="a_node30"><a xlink:href="class_storage_exception.html" target="_top" xlink:title="StorageException">
<polygon fill="#ffffff" stroke="#000000" points="302.3081,-94.5 302.3081,-112.5 397.2485,-112.5 397.2485,-94.5 302.3081,-94.5"/>
<text text-anchor="middle" x="349.7783" y="-100.5" font-family="Helvetica,sans-Serif" font-size="10.00" fill="#000000">StorageException</text>
</a>
</g>
</g>
<!-- Node219&#45;&gt;Node224 -->
<g id="edge29" class="edge">
<title>Node219&#45;&gt;Node224</title>
<path fill="none" stroke="#191970" d="M213.9117,-146.7842C233.8927,-139.3615 259.8315,-130.0097 283.1357,-122.5 293.8997,-119.0313 305.7441,-115.5482 316.4242,-112.529"/>
<polygon fill="#191970" stroke="#191970" points="212.4778,-143.5836 204.3359,-150.363 214.9284,-150.1406 212.4778,-143.5836"/>
</g>
<!-- Node225 -->
<g id="node31" class="node">
<title>Node225</title>
<g id="a_node31"><a xlink:href="class_storage_target_r_handle_1_1_read_error.html" target="_top" xlink:title="StorageTargetRHandle\l::ReadError">
<polygon fill="#ffffff" stroke="#000000" points="290.9141,-47.5 290.9141,-75.5 408.6426,-75.5 408.6426,-47.5 290.9141,-47.5"/>
<text text-anchor="start" x="298.9141" y="-63.5" font-family="Helvetica,sans-Serif" font-size="10.00" fill="#000000">StorageTargetRHandle</text>
<text text-anchor="middle" x="349.7783" y="-53.5" font-family="Helvetica,sans-Serif" font-size="10.00" fill="#000000">::ReadError</text>
</a>
</g>
</g>
<!-- Node219&#45;&gt;Node225 -->
<g id="edge30" class="edge">
<title>Node219&#45;&gt;Node225</title>
<path fill="none" stroke="#191970" d="M198.7284,-143.8784C218.509,-127.6022 251.4627,-102.1907 283.1357,-85.5 290.0984,-81.8309 297.7449,-78.4963 305.2981,-75.5584"/>
<polygon fill="#191970" stroke="#191970" points="196.2938,-141.3514 190.8591,-150.4462 200.7792,-146.7256 196.2938,-141.3514"/>
</g>
<!-- Node226 -->
<g id="node32" class="node">
<title>Node226</title>
<g id="a_node32"><a xlink:href="class_storage_target_w_handle_1_1_write_error.html" target="_top" xlink:title="StorageTargetWHandle\l::WriteError">
<polygon fill="#ffffff" stroke="#000000" points="289.8057,-.5 289.8057,-28.5 409.751,-28.5 409.751,-.5 289.8057,-.5"/>
<text text-anchor="start" x="297.8057" y="-16.5" font-family="Helvetica,sans-Serif" font-size="10.00" fill="#000000">StorageTargetWHandle</text>
<text text-anchor="middle" x="349.7783" y="-6.5" font-family="Helvetica,sans-Serif" font-size="10.00" fill="#000000">::WriteError</text>
</a>
</g>
</g>
<!-- Node219&#45;&gt;Node226 -->
<g id="edge31" class="edge">
<title>Node219&#45;&gt;Node226</title>
<path fill="none" stroke="#191970" d="M191.2054,-141.6588C207.8512,-115.5305 242.1966,-66.8888 283.1357,-38.5 288.6937,-34.6459 294.9396,-31.3401 301.3212,-28.5248"/>
<polygon fill="#191970" stroke="#191970" points="188.2096,-139.8485 185.8941,-150.1873 194.1515,-143.549 188.2096,-139.8485"/>
</g>
</g>
</svg>
