<?xml version="1.0" encoding="UTF-8" standalone="no"?>
<!DOCTYPE svg PUBLIC "-//W3C//DTD SVG 1.1//EN"
 "http://www.w3.org/Graphics/SVG/1.1/DTD/svg11.dtd">
<!-- Generated by graphviz version 2.40.1 (20161225.0304)
 -->
<!-- Title: src/libaktualizr/utilities/results.h Pages: 1 -->
<!--zoomable 267 -->
<svg id="main" version="1.1" xmlns="http://www.w3.org/2000/svg" xmlns:xlink="http://www.w3.org/1999/xlink" xml:space="preserve" onload="init(evt)">
<style type="text/css"><![CDATA[
.edge:hover path { stroke: red; }
.edge:hover polygon { stroke: red; fill: red; }
]]></style>
<script type="text/javascript"><![CDATA[
var edges = document.getElementsByTagName('g');
if (edges && edges.length) {
  for (var i=0;i<edges.length;i++) {
    if (edges[i].id.substr(0,4)=='edge') {
      edges[i].setAttribute('class','edge');
    }
  }
}
]]></script>
        <defs>
                <circle id="rim" cx="0" cy="0" r="7"/>
                <circle id="rim2" cx="0" cy="0" r="3.5"/>
                <g id="zoomPlus">
                        <use xlink:href="#rim" fill="#404040">
                                <set attributeName="fill" to="#808080" begin="zoomplus.mouseover" end="zoomplus.mouseout"/>
                        </use>
                        <path d="M-4,0h8M0,-4v8" fill="none" stroke="white" stroke-width="1.5" pointer-events="none"/>
                </g>
                <g id="zoomMin">
                        <use xlink:href="#rim" fill="#404040">
                                <set attributeName="fill" to="#808080" begin="zoomminus.mouseover" end="zoomminus.mouseout"/>
                        </use>
                        <path d="M-4,0h8" fill="none" stroke="white" stroke-width="1.5" pointer-events="none"/>
                </g>
                <g id="dirArrow">
                        <path fill="none" stroke="white" stroke-width="1.5" d="M0,-3.0v7 M-2.5,-0.5L0,-3.0L2.5,-0.5"/>
                </g>
               <g id="resetDef">
                       <use xlink:href="#rim2" fill="#404040">
                               <set attributeName="fill" to="#808080" begin="reset.mouseover" end="reset.mouseout"/>
                       </use>
               </g>
        </defs>

<script type="text/javascript">
var viewWidth = 1670;
var viewHeight = 267;
var sectionId = 'dynsection-0';
</script>
<script xlink:href="svgpan.js"/>
<svg id="graph" class="graph">
<g id="viewport">
<title>src/libaktualizr/utilities/results.h</title>
<polygon fill="#ffffff" stroke="transparent" points="-4,4 -4,-263 1666.0195,-263 1666.0195,4 -4,4"/>
<!-- Node0 -->
<g id="node1" class="node">
<title>Node0</title>
<polygon fill="#bfbfbf" stroke="#000000" points="328.8794,-230.5 328.8794,-258.5 441.5737,-258.5 441.5737,-230.5 328.8794,-230.5"/>
<text text-anchor="start" x="336.8794" y="-246.5" font-family="Helvetica,sans-Serif" font-size="10.00" fill="#000000">src/libaktualizr/utilities</text>
<text text-anchor="middle" x="385.2266" y="-236.5" font-family="Helvetica,sans-Serif" font-size="10.00" fill="#000000">/results.h</text>
</g>
<!-- Node1 -->
<g id="node2" class="node">
<title>Node1</title>
<polygon fill="#ffffff" stroke="#bfbfbf" points="0,-.5 0,-18.5 40.4531,-18.5 40.4531,-.5 0,-.5"/>
<text text-anchor="middle" x="20.2266" y="-6.5" font-family="Helvetica,sans-Serif" font-size="10.00" fill="#000000">string</text>
</g>
<!-- Node0&#45;&gt;Node1 -->
<g id="edge1" class="edge">
<title>Node0&#45;&gt;Node1</title>
<path fill="none" stroke="#191970" d="M329.6329,-230.4758C268.2349,-213.7065 167.5715,-182.3673 88.2266,-139 53.2009,-119.8561 34.7987,-119.84 17.2266,-84 8.7892,-66.7912 11.1152,-44.5674 14.5765,-28.8862"/>
<polygon fill="#191970" stroke="#191970" points="18.0718,-29.3449 17.1599,-18.7894 11.2903,-27.6097 18.0718,-29.3449"/>
</g>
<!-- Node2 -->
<g id="node3" class="node">
<title>Node2</title>
<polygon fill="#ffffff" stroke="#bfbfbf" points="315.6108,-175.5 315.6108,-193.5 358.8423,-193.5 358.8423,-175.5 315.6108,-175.5"/>
<text text-anchor="middle" x="337.2266" y="-181.5" font-family="Helvetica,sans-Serif" font-size="10.00" fill="#000000">vector</text>
</g>
<!-- Node0&#45;&gt;Node2 -->
<g id="edge2" class="edge">
<title>Node0&#45;&gt;Node2</title>
<path fill="none" stroke="#191970" d="M373.8512,-230.2808C366.9603,-221.6672 358.1282,-210.6271 350.8638,-201.5466"/>
<polygon fill="#191970" stroke="#191970" points="353.4739,-199.2065 344.4939,-193.5842 348.0079,-203.5793 353.4739,-199.2065"/>
</g>
<!-- Node3 -->
<g id="node4" class="node">
<title>Node3</title>
<polygon fill="#ffffff" stroke="#bfbfbf" points="377.3081,-175.5 377.3081,-193.5 491.145,-193.5 491.145,-175.5 377.3081,-175.5"/>
<text text-anchor="middle" x="434.2266" y="-181.5" font-family="Helvetica,sans-Serif" font-size="10.00" fill="#000000">campaign/campaign.h</text>
</g>
<!-- Node0&#45;&gt;Node3 -->
<g id="edge3" class="edge">
<title>Node0&#45;&gt;Node3</title>
<path fill="none" stroke="#191970" d="M396.8389,-230.2808C403.8734,-221.6672 412.8894,-210.6271 420.3052,-201.5466"/>
<polygon fill="#191970" stroke="#191970" points="423.1933,-203.5434 426.8078,-193.5842 417.7716,-199.1156 423.1933,-203.5434"/>
</g>
<!-- Node4 -->
<g id="node5" class="node">
<title>Node4</title>
<g id="a_node5"><a xlink:href="tuf_8h_source.html" target="_top" xlink:title="uptane/tuf.h">
<polygon fill="#ffffff" stroke="#000000" points="820.8154,-175.5 820.8154,-193.5 889.6377,-193.5 889.6377,-175.5 820.8154,-175.5"/>
<text text-anchor="middle" x="855.2266" y="-181.5" font-family="Helvetica,sans-Serif" font-size="10.00" fill="#000000">uptane/tuf.h</text>
</a>
</g>
</g>
<!-- Node0&#45;&gt;Node4 -->
<g id="edge4" class="edge">
<title>Node0&#45;&gt;Node4</title>
<path fill="none" stroke="#191970" d="M441.9195,-237.2626C536.5865,-225.1775 724.9044,-201.1369 810.7373,-190.1795"/>
<polygon fill="#191970" stroke="#191970" points="811.2072,-193.648 820.6835,-188.9098 810.3207,-186.7043 811.2072,-193.648"/>
</g>
<!-- Node5 -->
<g id="node6" class="node">
<title>Node5</title>
<polygon fill="#ffffff" stroke="#bfbfbf" points="882.8228,-120.5 882.8228,-138.5 941.6304,-138.5 941.6304,-120.5 882.8228,-120.5"/>
<text text-anchor="middle" x="912.2266" y="-126.5" font-family="Helvetica,sans-Serif" font-size="10.00" fill="#000000">functional</text>
</g>
<!-- Node4&#45;&gt;Node5 -->
<g id="edge5" class="edge">
<title>Node4&#45;&gt;Node5</title>
<path fill="none" stroke="#191970" d="M864.639,-175.4179C872.9225,-167.425 885.1875,-155.5903 895.1911,-145.9377"/>
<polygon fill="#191970" stroke="#191970" points="897.8438,-148.2419 902.6097,-138.7795 892.9832,-143.2045 897.8438,-148.2419"/>
</g>
<!-- Node6 -->
<g id="node7" class="node">
<title>Node6</title>
<polygon fill="#ffffff" stroke="#bfbfbf" points="959.165,-120.5 959.165,-138.5 1011.2881,-138.5 1011.2881,-120.5 959.165,-120.5"/>
<text text-anchor="middle" x="985.2266" y="-126.5" font-family="Helvetica,sans-Serif" font-size="10.00" fill="#000000">ostream</text>
</g>
<!-- Node4&#45;&gt;Node6 -->
<g id="edge6" class="edge">
<title>Node4&#45;&gt;Node6</title>
<path fill="none" stroke="#191970" d="M876.6934,-175.4179C897.8636,-166.4613 930.4359,-152.6806 954.3764,-142.552"/>
<polygon fill="#191970" stroke="#191970" points="955.8819,-145.7155 963.7278,-138.5956 953.1544,-139.2687 955.8819,-145.7155"/>
</g>
<!-- Node7 -->
<g id="node8" class="node">
<title>Node7</title>
<polygon fill="#ffffff" stroke="#bfbfbf" points="1029.5566,-120.5 1029.5566,-138.5 1058.8965,-138.5 1058.8965,-120.5 1029.5566,-120.5"/>
<text text-anchor="middle" x="1044.2266" y="-126.5" font-family="Helvetica,sans-Serif" font-size="10.00" fill="#000000">set</text>
</g>
<!-- Node4&#45;&gt;Node7 -->
<g id="edge7" class="edge">
<title>Node4&#45;&gt;Node7</title>
<path fill="none" stroke="#191970" d="M889.6802,-176.1531C921.2527,-168.2505 969.4261,-155.5579 1019.6144,-138.9421"/>
<polygon fill="#191970" stroke="#191970" points="1020.9712,-142.1787 1029.3394,-135.6808 1018.7455,-135.542 1020.9712,-142.1787"/>
</g>
<!-- Node8 -->
<g id="node9" class="node">
<title>Node8</title>
<g id="a_node9"><a xlink:href="uptane_2exceptions_8h_source.html" target="_top" xlink:title="uptane/exceptions.h">
<polygon fill="#ffffff" stroke="#000000" points="97.4707,-120.5 97.4707,-138.5 202.9824,-138.5 202.9824,-120.5 97.4707,-120.5"/>
<text text-anchor="middle" x="150.2266" y="-126.5" font-family="Helvetica,sans-Serif" font-size="10.00" fill="#000000">uptane/exceptions.h</text>
</a>
</g>
</g>
<!-- Node4&#45;&gt;Node8 -->
<g id="edge8" class="edge">
<title>Node4&#45;&gt;Node8</title>
<path fill="none" stroke="#191970" d="M820.7457,-181.81C709.3827,-173.1221 358.1883,-145.724 213.4888,-134.4353"/>
<polygon fill="#191970" stroke="#191970" points="213.6754,-130.9394 203.4334,-133.6509 213.1308,-137.9182 213.6754,-130.9394"/>
</g>
<!-- Node11 -->
<g id="node12" class="node">
<title>Node11</title>
<g id="a_node12"><a xlink:href="crypto_8h_source.html" target="_top" xlink:title="crypto/crypto.h">
<polygon fill="#ffffff" stroke="#000000" points="745.436,-120.5 745.436,-138.5 827.0171,-138.5 827.0171,-120.5 745.436,-120.5"/>
<text text-anchor="middle" x="786.2266" y="-126.5" font-family="Helvetica,sans-Serif" font-size="10.00" fill="#000000">crypto/crypto.h</text>
</a>
</g>
</g>
<!-- Node4&#45;&gt;Node11 -->
<g id="edge12" class="edge">
<title>Node4&#45;&gt;Node11</title>
<path fill="none" stroke="#191970" d="M843.8326,-175.4179C833.5073,-167.1876 818.0718,-154.8839 805.7768,-145.0836"/>
<polygon fill="#191970" stroke="#191970" points="807.8694,-142.2757 797.8681,-138.7795 803.5062,-147.7495 807.8694,-142.2757"/>
</g>
<!-- Node24 -->
<g id="node25" class="node">
<title>Node24</title>
<g id="a_node25"><a xlink:href="types_8h.html" target="_top" xlink:title="utilities/types.h">
<polygon fill="#ffffff" stroke="#000000" points="1580.4336,-60.5 1580.4336,-78.5 1662.0195,-78.5 1662.0195,-60.5 1580.4336,-60.5"/>
<text text-anchor="middle" x="1621.2266" y="-66.5" font-family="Helvetica,sans-Serif" font-size="10.00" fill="#000000">utilities/types.h</text>
</a>
</g>
</g>
<!-- Node4&#45;&gt;Node24 -->
<g id="edge39" class="edge">
<title>Node4&#45;&gt;Node24</title>
<path fill="none" stroke="#191970" d="M854.8882,-175.2209C854.9256,-160.8044 857.3633,-133.3042 874.2266,-120 935.108,-71.9678 1494.7568,-96.8851 1571.2266,-84 1575.4879,-83.282 1579.9016,-82.3264 1584.262,-81.247"/>
<polygon fill="#191970" stroke="#191970" points="1585.4984,-84.5387 1594.2432,-78.5572 1583.6769,-77.7798 1585.4984,-84.5387"/>
</g>
<!-- Node8&#45;&gt;Node1 -->
<g id="edge10" class="edge">
<title>Node8&#45;&gt;Node1</title>
<path fill="none" stroke="#191970" d="M97.2998,-120.9413C74.3328,-114.5395 49.1094,-103.3886 33.2266,-84 20.6527,-68.6508 18.3939,-45.4612 18.6535,-29.0371"/>
<polygon fill="#191970" stroke="#191970" points="22.1552,-29.0837 19.1397,-18.927 15.1633,-28.7473 22.1552,-29.0837"/>
</g>
<!-- Node9 -->
<g id="node10" class="node">
<title>Node9</title>
<polygon fill="#ffffff" stroke="#bfbfbf" points="1462.8252,-.5 1462.8252,-18.5 1521.6279,-18.5 1521.6279,-.5 1462.8252,-.5"/>
<text text-anchor="middle" x="1492.2266" y="-6.5" font-family="Helvetica,sans-Serif" font-size="10.00" fill="#000000">stdexcept</text>
</g>
<!-- Node8&#45;&gt;Node9 -->
<g id="edge9" class="edge">
<title>Node8&#45;&gt;Node9</title>
<path fill="none" stroke="#191970" d="M165.1444,-120.4348C179.6741,-111.4904 202.2785,-97.2683 221.2266,-84 238.6293,-71.8138 239.2176,-62.1413 259.2266,-55 370.8426,-15.1636 1206.8361,-24.3658 1325.2266,-19 1368.6806,-17.0305 1418.4573,-14.1134 1452.2809,-12.0318"/>
<polygon fill="#191970" stroke="#191970" points="1452.9095,-15.4997 1462.6738,-11.3876 1452.4764,-8.5131 1452.9095,-15.4997"/>
</g>
<!-- Node10 -->
<g id="node11" class="node">
<title>Node10</title>
<polygon fill="#ffffff" stroke="#bfbfbf" points="41.835,-60.5 41.835,-78.5 80.6182,-78.5 80.6182,-60.5 41.835,-60.5"/>
<text text-anchor="middle" x="61.2266" y="-66.5" font-family="Helvetica,sans-Serif" font-size="10.00" fill="#000000">utility</text>
</g>
<!-- Node8&#45;&gt;Node10 -->
<g id="edge11" class="edge">
<title>Node8&#45;&gt;Node10</title>
<path fill="none" stroke="#191970" d="M136.7094,-120.3873C122.5131,-110.8168 99.9652,-95.6159 83.2052,-84.3171"/>
<polygon fill="#191970" stroke="#191970" points="84.8276,-81.1897 74.5793,-78.5019 80.9146,-86.994 84.8276,-81.1897"/>
</g>
<!-- Node11&#45;&gt;Node1 -->
<g id="edge25" class="edge">
<title>Node11&#45;&gt;Node1</title>
<path fill="none" stroke="#191970" d="M745.3694,-128.0453C610.5201,-123.0558 184.908,-105.7379 127.2266,-84 107.3463,-76.5079 106.5494,-67.2995 89.2266,-55 74.2067,-44.3356 56.8995,-32.9251 43.376,-24.1985"/>
<polygon fill="#191970" stroke="#191970" points="44.9994,-21.0817 34.6926,-18.628 41.2197,-26.9736 44.9994,-21.0817"/>
</g>
<!-- Node11&#45;&gt;Node10 -->
<g id="edge26" class="edge">
<title>Node11&#45;&gt;Node10</title>
<path fill="none" stroke="#191970" d="M745.2118,-128.6683C616.0548,-125.7569 218.927,-114.4935 94.2266,-84 92.3118,-83.5318 90.3685,-82.9592 88.4329,-82.3151"/>
<polygon fill="#191970" stroke="#191970" points="89.5733,-79.0034 78.9843,-78.6501 87.0417,-85.5297 89.5733,-79.0034"/>
</g>
<!-- Node12 -->
<g id="node13" class="node">
<title>Node12</title>
<polygon fill="#ffffff" stroke="#bfbfbf" points="547.4189,-60.5 547.4189,-78.5 639.0342,-78.5 639.0342,-60.5 547.4189,-60.5"/>
<text text-anchor="middle" x="593.2266" y="-66.5" font-family="Helvetica,sans-Serif" font-size="10.00" fill="#000000">openssl/engine.h</text>
</g>
<!-- Node11&#45;&gt;Node12 -->
<g id="edge13" class="edge">
<title>Node11&#45;&gt;Node12</title>
<path fill="none" stroke="#191970" d="M756.914,-120.3873C723.5633,-110.0192 668.9578,-93.0434 632.0812,-81.5791"/>
<polygon fill="#191970" stroke="#191970" points="632.7708,-78.1284 622.1826,-78.5019 630.6927,-84.8128 632.7708,-78.1284"/>
</g>
<!-- Node13 -->
<g id="node14" class="node">
<title>Node13</title>
<polygon fill="#ffffff" stroke="#bfbfbf" points="656.5962,-60.5 656.5962,-78.5 729.8569,-78.5 729.8569,-60.5 656.5962,-60.5"/>
<text text-anchor="middle" x="693.2266" y="-66.5" font-family="Helvetica,sans-Serif" font-size="10.00" fill="#000000">openssl/err.h</text>
</g>
<!-- Node11&#45;&gt;Node13 -->
<g id="edge14" class="edge">
<title>Node11&#45;&gt;Node13</title>
<path fill="none" stroke="#191970" d="M772.1019,-120.3873C757.1302,-110.7281 733.2692,-95.334 715.7081,-84.0042"/>
<polygon fill="#191970" stroke="#191970" points="717.4799,-80.9821 707.1795,-78.5019 713.685,-86.8642 717.4799,-80.9821"/>
</g>
<!-- Node14 -->
<g id="node15" class="node">
<title>Node14</title>
<polygon fill="#ffffff" stroke="#bfbfbf" points="747.3721,-60.5 747.3721,-78.5 825.0811,-78.5 825.0811,-60.5 747.3721,-60.5"/>
<text text-anchor="middle" x="786.2266" y="-66.5" font-family="Helvetica,sans-Serif" font-size="10.00" fill="#000000">openssl/evp.h</text>
</g>
<!-- Node11&#45;&gt;Node14 -->
<g id="edge15" class="edge">
<title>Node11&#45;&gt;Node14</title>
<path fill="none" stroke="#191970" d="M786.2266,-120.3873C786.2266,-112.0174 786.2266,-99.3414 786.2266,-88.735"/>
<polygon fill="#191970" stroke="#191970" points="789.7267,-88.6984 786.2266,-78.6985 782.7267,-88.6985 789.7267,-88.6984"/>
</g>
<!-- Node15 -->
<g id="node16" class="node">
<title>Node15</title>
<polygon fill="#ffffff" stroke="#bfbfbf" points="843.0684,-60.5 843.0684,-78.5 943.3848,-78.5 943.3848,-60.5 843.0684,-60.5"/>
<text text-anchor="middle" x="893.2266" y="-66.5" font-family="Helvetica,sans-Serif" font-size="10.00" fill="#000000">openssl/opensslv.h</text>
</g>
<!-- Node11&#45;&gt;Node15 -->
<g id="edge16" class="edge">
<title>Node11&#45;&gt;Node15</title>
<path fill="none" stroke="#191970" d="M802.4776,-120.3873C819.9401,-110.5952 847.9135,-94.9092 868.1907,-83.5388"/>
<polygon fill="#191970" stroke="#191970" points="870.1628,-86.4457 877.1732,-78.5019 866.7391,-80.3401 870.1628,-86.4457"/>
</g>
<!-- Node16 -->
<g id="node17" class="node">
<title>Node16</title>
<polygon fill="#ffffff" stroke="#bfbfbf" points="961.707,-60.5 961.707,-78.5 1042.7461,-78.5 1042.7461,-60.5 961.707,-60.5"/>
<text text-anchor="middle" x="1002.2266" y="-66.5" font-family="Helvetica,sans-Serif" font-size="10.00" fill="#000000">openssl/pem.h</text>
</g>
<!-- Node11&#45;&gt;Node16 -->
<g id="edge17" class="edge">
<title>Node11&#45;&gt;Node16</title>
<path fill="none" stroke="#191970" d="M819.6516,-120.4935C853.2035,-111.4163 906.3536,-96.9376 952.2266,-84 955.2182,-83.1563 958.3083,-82.2776 961.4166,-81.3885"/>
<polygon fill="#191970" stroke="#191970" points="962.6645,-84.6715 971.3074,-78.5437 960.7295,-77.9443 962.6645,-84.6715"/>
</g>
<!-- Node17 -->
<g id="node18" class="node">
<title>Node17</title>
<polygon fill="#ffffff" stroke="#bfbfbf" points="1060.5913,-60.5 1060.5913,-78.5 1153.8618,-78.5 1153.8618,-60.5 1060.5913,-60.5"/>
<text text-anchor="middle" x="1107.2266" y="-66.5" font-family="Helvetica,sans-Serif" font-size="10.00" fill="#000000">openssl/pkcs12.h</text>
</g>
<!-- Node11&#45;&gt;Node17 -->
<g id="edge18" class="edge">
<title>Node11&#45;&gt;Node17</title>
<path fill="none" stroke="#191970" d="M827.0721,-122.4353C831.8437,-121.6128 836.6424,-120.787 841.2266,-120 934.9879,-103.9039 959.2512,-104.1458 1052.2266,-84 1056.3523,-83.106 1060.6339,-82.1063 1064.9042,-81.061"/>
<polygon fill="#191970" stroke="#191970" points="1065.9316,-84.4115 1074.7691,-78.5678 1064.2163,-77.6249 1065.9316,-84.4115"/>
</g>
<!-- Node18 -->
<g id="node19" class="node">
<title>Node18</title>
<polygon fill="#ffffff" stroke="#bfbfbf" points="1171.4263,-60.5 1171.4263,-78.5 1253.0269,-78.5 1253.0269,-60.5 1171.4263,-60.5"/>
<text text-anchor="middle" x="1212.2266" y="-66.5" font-family="Helvetica,sans-Serif" font-size="10.00" fill="#000000">openssl/rand.h</text>
</g>
<!-- Node11&#45;&gt;Node18 -->
<g id="edge19" class="edge">
<title>Node11&#45;&gt;Node18</title>
<path fill="none" stroke="#191970" d="M827.031,-122.173C831.81,-121.3976 836.6216,-120.6545 841.2266,-120 983.7964,-99.7358 1022.0807,-112.5417 1163.2266,-84 1167.0784,-83.2211 1171.0644,-82.2776 1175.0227,-81.2498"/>
<polygon fill="#191970" stroke="#191970" points="1176.0095,-84.6084 1184.7131,-78.567 1174.1417,-77.8621 1176.0095,-84.6084"/>
</g>
<!-- Node19 -->
<g id="node20" class="node">
<title>Node19</title>
<polygon fill="#ffffff" stroke="#bfbfbf" points="1271.4878,-60.5 1271.4878,-78.5 1346.9653,-78.5 1346.9653,-60.5 1271.4878,-60.5"/>
<text text-anchor="middle" x="1309.2266" y="-66.5" font-family="Helvetica,sans-Serif" font-size="10.00" fill="#000000">openssl/rsa.h</text>
</g>
<!-- Node11&#45;&gt;Node19 -->
<g id="edge20" class="edge">
<title>Node11&#45;&gt;Node19</title>
<path fill="none" stroke="#191970" d="M827.3138,-122.0071C831.9974,-121.2707 836.7096,-120.5821 841.2266,-120 1027.4801,-95.996 1077.8933,-119.886 1262.2266,-84 1265.8779,-83.2892 1269.6475,-82.4004 1273.3895,-81.4148"/>
<polygon fill="#191970" stroke="#191970" points="1274.4738,-84.7452 1283.1296,-78.6355 1272.553,-78.0138 1274.4738,-84.7452"/>
</g>
<!-- Node20 -->
<g id="node21" class="node">
<title>Node20</title>
<polygon fill="#ffffff" stroke="#bfbfbf" points="1364.9385,-60.5 1364.9385,-78.5 1421.5146,-78.5 1421.5146,-60.5 1364.9385,-60.5"/>
<text text-anchor="middle" x="1393.2266" y="-66.5" font-family="Helvetica,sans-Serif" font-size="10.00" fill="#000000">sodium.h</text>
</g>
<!-- Node11&#45;&gt;Node20 -->
<g id="edge21" class="edge">
<title>Node11&#45;&gt;Node20</title>
<path fill="none" stroke="#191970" d="M827.305,-121.937C831.9902,-121.2135 836.7052,-120.5471 841.2266,-120 1069.0125,-92.4379 1132.392,-134.4401 1356.2266,-84 1358.7,-83.4426 1361.2258,-82.7464 1363.738,-81.9628"/>
<polygon fill="#191970" stroke="#191970" points="1364.955,-85.2449 1373.2196,-78.6157 1362.6248,-78.6442 1364.955,-85.2449"/>
</g>
<!-- Node21 -->
<g id="node22" class="node">
<title>Node21</title>
<polygon fill="#ffffff" stroke="#bfbfbf" points="1439.8599,-60.5 1439.8599,-78.5 1562.5933,-78.5 1562.5933,-60.5 1439.8599,-60.5"/>
<text text-anchor="middle" x="1501.2266" y="-66.5" font-family="Helvetica,sans-Serif" font-size="10.00" fill="#000000">boost/algorithm/hex.hpp</text>
</g>
<!-- Node11&#45;&gt;Node21 -->
<g id="edge22" class="edge">
<title>Node11&#45;&gt;Node21</title>
<path fill="none" stroke="#191970" d="M827.3003,-121.8974C831.9864,-121.1812 836.7029,-120.5273 841.2266,-120 1101.729,-89.6343 1170.216,-118.3237 1430.2266,-84 1437.3437,-83.0605 1444.8157,-81.8194 1452.1306,-80.4578"/>
<polygon fill="#191970" stroke="#191970" points="1452.8137,-83.8906 1461.9602,-78.5434 1451.4755,-77.0197 1452.8137,-83.8906"/>
</g>
<!-- Node22 -->
<g id="node23" class="node">
<title>Node22</title>
<polygon fill="#ffffff" stroke="#bfbfbf" points="268.6948,-60.5 268.6948,-78.5 399.7583,-78.5 399.7583,-60.5 268.6948,-60.5"/>
<text text-anchor="middle" x="334.2266" y="-66.5" font-family="Helvetica,sans-Serif" font-size="10.00" fill="#000000">boost/algorithm/string.hpp</text>
</g>
<!-- Node11&#45;&gt;Node22 -->
<g id="edge23" class="edge">
<title>Node11&#45;&gt;Node22</title>
<path fill="none" stroke="#191970" d="M745.2565,-125.568C675.7363,-118.6728 530.3178,-103.2829 408.2266,-84 401.5367,-82.9434 394.5285,-81.7217 387.604,-80.4447"/>
<polygon fill="#191970" stroke="#191970" points="388.0416,-76.9655 377.5654,-78.5472 386.7413,-83.8437 388.0416,-76.9655"/>
</g>
<!-- Node23 -->
<g id="node24" class="node">
<title>Node23</title>
<polygon fill="#ffffff" stroke="#bfbfbf" points="417.4263,-55.5 417.4263,-83.5 529.0269,-83.5 529.0269,-55.5 417.4263,-55.5"/>
<text text-anchor="start" x="425.4263" y="-71.5" font-family="Helvetica,sans-Serif" font-size="10.00" fill="#000000">boost/algorithm/string</text>
<text text-anchor="middle" x="473.2266" y="-61.5" font-family="Helvetica,sans-Serif" font-size="10.00" fill="#000000">/case_conv.hpp</text>
</g>
<!-- Node11&#45;&gt;Node23 -->
<g id="edge24" class="edge">
<title>Node11&#45;&gt;Node23</title>
<path fill="none" stroke="#191970" d="M745.3226,-122.4868C698.1035,-114.282 617.8622,-100.0068 539.2875,-84.1721"/>
<polygon fill="#191970" stroke="#191970" points="539.7134,-80.6873 529.2175,-82.1321 538.3235,-87.548 539.7134,-80.6873"/>
</g>
<!-- Node11&#45;&gt;Node24 -->
<g id="edge27" class="edge">
<title>Node11&#45;&gt;Node24</title>
<path fill="none" stroke="#191970" d="M827.2943,-121.8442C831.9814,-121.1377 836.6999,-120.5007 841.2266,-120 1164.0964,-84.2889 1250.8407,-137.601 1571.2266,-84 1575.4887,-83.2869 1579.9029,-82.3344 1584.2637,-81.2568"/>
<polygon fill="#191970" stroke="#191970" points="1585.4992,-84.5489 1594.2452,-78.5691 1583.6791,-77.7896 1585.4992,-84.5489"/>
</g>
<!-- Node27 -->
<g id="node28" class="node">
<title>Node27</title>
<g id="a_node28"><a xlink:href="utils_8h_source.html" target="_top" xlink:title="utilities/utils.h">
<polygon fill="#ffffff" stroke="#000000" points="136.4927,-60.5 136.4927,-78.5 211.9604,-78.5 211.9604,-60.5 136.4927,-60.5"/>
<text text-anchor="middle" x="174.2266" y="-66.5" font-family="Helvetica,sans-Serif" font-size="10.00" fill="#000000">utilities/utils.h</text>
</a>
</g>
</g>
<!-- Node11&#45;&gt;Node27 -->
<g id="edge31" class="edge">
<title>Node11&#45;&gt;Node27</title>
<path fill="none" stroke="#191970" d="M745.1034,-127.1132C656.2035,-121.6984 439.5798,-107.1283 259.2266,-84 247.1621,-82.4529 234.1936,-80.4272 222.1101,-78.3826"/>
<polygon fill="#191970" stroke="#191970" points="222.6575,-74.9254 212.2074,-76.6707 221.465,-81.8231 222.6575,-74.9254"/>
</g>
<!-- Node24&#45;&gt;Node9 -->
<g id="edge30" class="edge">
<title>Node24&#45;&gt;Node9</title>
<path fill="none" stroke="#191970" d="M1601.6342,-60.3873C1580.105,-50.3737 1545.3238,-34.1964 1520.7652,-22.7738"/>
<polygon fill="#191970" stroke="#191970" points="1522.1239,-19.5457 1511.5806,-18.5019 1519.1717,-25.8928 1522.1239,-19.5457"/>
</g>
<!-- Node25 -->
<g id="node26" class="node">
<title>Node25</title>
<polygon fill="#ffffff" stroke="#bfbfbf" points="1252.3228,-.5 1252.3228,-18.5 1316.1304,-18.5 1316.1304,-.5 1252.3228,-.5"/>
<text text-anchor="middle" x="1284.2266" y="-6.5" font-family="Helvetica,sans-Serif" font-size="10.00" fill="#000000">json/json.h</text>
</g>
<!-- Node24&#45;&gt;Node25 -->
<g id="edge28" class="edge">
<title>Node24&#45;&gt;Node25</title>
<path fill="none" stroke="#191970" d="M1592.3022,-60.4468C1585.4362,-58.4831 1578.1068,-56.5367 1571.2266,-55 1485.0143,-35.7446 1382.4679,-21.5433 1326.2659,-14.4908"/>
<polygon fill="#191970" stroke="#191970" points="1326.6803,-11.0155 1316.3254,-13.2575 1325.8184,-17.9622 1326.6803,-11.0155"/>
</g>
<!-- Node26 -->
<g id="node27" class="node">
<title>Node26</title>
<polygon fill="#ffffff" stroke="#bfbfbf" points="869.6479,-.5 869.6479,-18.5 976.8052,-18.5 976.8052,-.5 869.6479,-.5"/>
<text text-anchor="middle" x="923.2266" y="-6.5" font-family="Helvetica,sans-Serif" font-size="10.00" fill="#000000">boost/filesystem.hpp</text>
</g>
<!-- Node24&#45;&gt;Node26 -->
<g id="edge29" class="edge">
<title>Node24&#45;&gt;Node26</title>
<path fill="none" stroke="#191970" d="M1593.9661,-60.461C1586.6538,-58.3492 1578.7011,-56.3307 1571.2266,-55 1460.3334,-35.2583 1127.9708,-18.6227 987.2698,-12.2653"/>
<polygon fill="#191970" stroke="#191970" points="987.2202,-8.7597 977.0733,-11.8075 986.9062,-15.7526 987.2202,-8.7597"/>
</g>
<!-- Node27&#45;&gt;Node1 -->
<g id="edge35" class="edge">
<title>Node27&#45;&gt;Node1</title>
<path fill="none" stroke="#191970" d="M150.8373,-60.3873C123.9248,-49.9019 79.6665,-32.6584 50.2365,-21.1922"/>
<polygon fill="#191970" stroke="#191970" points="51.4592,-17.9124 40.8708,-17.5432 48.918,-24.4348 51.4592,-17.9124"/>
</g>
<!-- Node27&#45;&gt;Node25 -->
<g id="edge38" class="edge">
<title>Node27&#45;&gt;Node25</title>
<path fill="none" stroke="#191970" d="M202.0331,-60.4818C209.7858,-58.315 218.2662,-56.2639 226.2266,-55 277.1547,-46.914 1051.6094,-18.0475 1242.1293,-11.0406"/>
<polygon fill="#191970" stroke="#191970" points="1242.4353,-14.5318 1252.3,-10.6669 1242.1782,-7.5366 1242.4353,-14.5318"/>
</g>
<!-- Node27&#45;&gt;Node26 -->
<g id="edge33" class="edge">
<title>Node27&#45;&gt;Node26</title>
<path fill="none" stroke="#191970" d="M202.5944,-60.4476C210.199,-58.3359 218.4655,-56.3208 226.2266,-55 346.9106,-34.4623 710.7852,-18.0179 859.1779,-11.9852"/>
<polygon fill="#191970" stroke="#191970" points="859.633,-15.4698 869.4835,-11.569 859.3504,-8.4755 859.633,-15.4698"/>
</g>
<!-- Node28 -->
<g id="node29" class="node">
<title>Node28</title>
<polygon fill="#ffffff" stroke="#bfbfbf" points="221.6035,-.5 221.6035,-18.5 264.8496,-18.5 264.8496,-.5 221.6035,-.5"/>
<text text-anchor="middle" x="243.2266" y="-6.5" font-family="Helvetica,sans-Serif" font-size="10.00" fill="#000000">glob.h</text>
</g>
<!-- Node27&#45;&gt;Node28 -->
<g id="edge32" class="edge">
<title>Node27&#45;&gt;Node28</title>
<path fill="none" stroke="#191970" d="M184.7062,-60.3873C195.3447,-51.1364 212.0328,-36.625 224.8705,-25.4618"/>
<polygon fill="#191970" stroke="#191970" points="227.3989,-27.9014 232.6483,-18.6985 222.8056,-22.6192 227.3989,-27.9014"/>
</g>
<!-- Node29 -->
<g id="node30" class="node">
<title>Node29</title>
<polygon fill="#ffffff" stroke="#bfbfbf" points="283.1699,-.5 283.1699,-18.5 335.2832,-18.5 335.2832,-.5 283.1699,-.5"/>
<text text-anchor="middle" x="309.2266" y="-6.5" font-family="Helvetica,sans-Serif" font-size="10.00" fill="#000000">memory</text>
</g>
<!-- Node27&#45;&gt;Node29 -->
<g id="edge34" class="edge">
<title>Node27&#45;&gt;Node29</title>
<path fill="none" stroke="#191970" d="M194.7302,-60.3873C217.3605,-50.3294 253.9821,-34.0531 279.701,-22.6225"/>
<polygon fill="#191970" stroke="#191970" points="281.2557,-25.7617 288.9723,-18.5019 278.4127,-19.365 281.2557,-25.7617"/>
</g>
<!-- Node30 -->
<g id="node31" class="node">
<title>Node30</title>
<polygon fill="#ffffff" stroke="#bfbfbf" points="61.5542,-.5 61.5542,-18.5 120.8989,-18.5 120.8989,-.5 61.5542,-.5"/>
<text text-anchor="middle" x="91.2266" y="-6.5" font-family="Helvetica,sans-Serif" font-size="10.00" fill="#000000">curl/curl.h</text>
</g>
<!-- Node27&#45;&gt;Node30 -->
<g id="edge36" class="edge">
<title>Node27&#45;&gt;Node30</title>
<path fill="none" stroke="#191970" d="M161.6206,-60.3873C148.504,-50.9054 127.7424,-35.897 112.159,-24.6319"/>
<polygon fill="#191970" stroke="#191970" points="113.8339,-21.5239 103.6792,-18.5019 109.7329,-27.1969 113.8339,-21.5239"/>
</g>
<!-- Node31 -->
<g id="node32" class="node">
<title>Node31</title>
<polygon fill="#ffffff" stroke="#bfbfbf" points="138.7637,-.5 138.7637,-18.5 203.6895,-18.5 203.6895,-.5 138.7637,-.5"/>
<text text-anchor="middle" x="171.2266" y="-6.5" font-family="Helvetica,sans-Serif" font-size="10.00" fill="#000000">netinet/in.h</text>
</g>
<!-- Node27&#45;&gt;Node31 -->
<g id="edge37" class="edge">
<title>Node27&#45;&gt;Node31</title>
<path fill="none" stroke="#191970" d="M173.7709,-60.3873C173.3524,-52.0174 172.7186,-39.3414 172.1883,-28.735"/>
<polygon fill="#191970" stroke="#191970" points="175.6816,-28.5112 171.6865,-18.6985 168.6903,-28.8608 175.6816,-28.5112"/>
</g>
</g>
</svg>
        <g id="navigator" transform="translate(0 0)" fill="#404254">
                <rect fill="#f2f5e9" fill-opacity="0.5" stroke="#606060" stroke-width=".5" x="0" y="0" width="60" height="60"/>
                <use id="zoomplus" xlink:href="#zoomPlus" x="17" y="9" onmousedown="handleZoom(evt,'in')"/>
                <use id="zoomminus" xlink:href="#zoomMin" x="42" y="9" onmousedown="handleZoom(evt,'out')"/>
                <use id="reset" xlink:href="#resetDef" x="30" y="36" onmousedown="handleReset()"/>
                <g id="arrowUp" xlink:href="#dirArrow" transform="translate(30 24)" onmousedown="handlePan(0,-1)">
                  <use xlink:href="#rim" fill="#404040">
                        <set attributeName="fill" to="#808080" begin="arrowUp.mouseover" end="arrowUp.mouseout"/>
                  </use>
                  <path fill="none" stroke="white" stroke-width="1.5" d="M0,-3.0v7 M-2.5,-0.5L0,-3.0L2.5,-0.5"/>
                </g>
                <g id="arrowRight" xlink:href="#dirArrow" transform="rotate(90) translate(36 -43)" onmousedown="handlePan(1,0)">
                  <use xlink:href="#rim" fill="#404040">
                        <set attributeName="fill" to="#808080" begin="arrowRight.mouseover" end="arrowRight.mouseout"/>
                  </use>
                  <path fill="none" stroke="white" stroke-width="1.5" d="M0,-3.0v7 M-2.5,-0.5L0,-3.0L2.5,-0.5"/>
                </g>
                <g id="arrowDown" xlink:href="#dirArrow" transform="rotate(180) translate(-30 -48)" onmousedown="handlePan(0,1)">
                  <use xlink:href="#rim" fill="#404040">
                        <set attributeName="fill" to="#808080" begin="arrowDown.mouseover" end="arrowDown.mouseout"/>
                  </use>
                  <path fill="none" stroke="white" stroke-width="1.5" d="M0,-3.0v7 M-2.5,-0.5L0,-3.0L2.5,-0.5"/>
                </g>
                <g id="arrowLeft" xlink:href="#dirArrow" transform="rotate(270) translate(-36 17)" onmousedown="handlePan(-1,0)">
                  <use xlink:href="#rim" fill="#404040">
                        <set attributeName="fill" to="#808080" begin="arrowLeft.mouseover" end="arrowLeft.mouseout"/>
                  </use>
                  <path fill="none" stroke="white" stroke-width="1.5" d="M0,-3.0v7 M-2.5,-0.5L0,-3.0L2.5,-0.5"/>
                </g>
        </g>
        <svg viewBox="0 0 15 15" width="100%" height="30px" preserveAspectRatio="xMaxYMin meet">
         <g id="arrow_out" transform="scale(0.3 0.3)">
          <a xlink:href="results_8h__incl_org.svg" target="_base">
           <rect id="button" ry="5" rx="5" y="6" x="6" height="38" width="38"
                fill="#f2f5e9" fill-opacity="0.5" stroke="#606060" stroke-width="1.0"/>
           <path id="arrow"
             d="M 11.500037,31.436501 C 11.940474,20.09759 22.043105,11.32322 32.158766,21.979434 L 37.068811,17.246167 C 37.068811,17.246167 37.088388,32 37.088388,32 L 22.160133,31.978069 C 22.160133,31.978069 26.997745,27.140456 26.997745,27.140456 C 18.528582,18.264221 13.291696,25.230495 11.500037,31.436501 z"
             style="fill:#404040;"/>
          </a>
         </g>
        </svg>
</svg>
