<?xml version="1.0" encoding="UTF-8" standalone="no"?>
<!DOCTYPE svg PUBLIC "-//W3C//DTD SVG 1.1//EN"
 "http://www.w3.org/Graphics/SVG/1.1/DTD/svg11.dtd">
<!-- Generated by graphviz version 2.40.1 (20161225.0304)
 -->
<!-- Title: Uptane::RawMetaPack Pages: 1 -->
<svg width="146pt" height="208pt"
 viewBox="0.00 0.00 146.06 208.00" xmlns="http://www.w3.org/2000/svg" xmlns:xlink="http://www.w3.org/1999/xlink">
<g id="graph0" class="graph" transform="scale(1 1) rotate(0) translate(4 204)">
<title>Uptane::RawMetaPack</title>
<polygon fill="#ffffff" stroke="transparent" points="-4,4 -4,-204 142.0562,-204 142.0562,4 -4,4"/>
<!-- Node1 -->
<g id="node1" class="node">
<title>Node1</title>
<polygon fill="#bfbfbf" stroke="#000000" points="0,-.5 0,-18.5 118.2705,-18.5 118.2705,-.5 0,-.5"/>
<text text-anchor="middle" x="59.1353" y="-6.5" font-family="Helvetica,sans-Serif" font-size="10.00" fill="#000000">Uptane::RawMetaPack</text>
</g>
<!-- Node2 -->
<g id="node2" class="node">
<title>Node2</title>
<g id="a_node2"><a xlink:title="STL class. ">
<polygon fill="#ffffff" stroke="#bfbfbf" points="29.4604,-115.5 29.4604,-133.5 88.8101,-133.5 88.8101,-115.5 29.4604,-115.5"/>
<text text-anchor="middle" x="59.1353" y="-121.5" font-family="Helvetica,sans-Serif" font-size="10.00" fill="#000000">std::string</text>
</a>
</g>
</g>
<!-- Node2&#45;&gt;Node1 -->
<g id="edge1" class="edge">
<title>Node2&#45;&gt;Node1</title>
<path fill="none" stroke="#9a32cd" stroke-dasharray="5,2" d="M59.1353,-105.398C59.1353,-80.4064 59.1353,-37.591 59.1353,-18.8014"/>
<polygon fill="#9a32cd" stroke="#9a32cd" points="55.6354,-105.4761 59.1353,-115.4761 62.6354,-105.4762 55.6354,-105.4761"/>
<text text-anchor="middle" x="98.5957" y="-89" font-family="Helvetica,sans-Serif" font-size="10.00" fill="#000000"> image_root</text>
<text text-anchor="middle" x="98.5957" y="-79" font-family="Helvetica,sans-Serif" font-size="10.00" fill="#000000">director_targets</text>
<text text-anchor="middle" x="98.5957" y="-69" font-family="Helvetica,sans-Serif" font-size="10.00" fill="#000000">director_root</text>
<text text-anchor="middle" x="98.5957" y="-59" font-family="Helvetica,sans-Serif" font-size="10.00" fill="#000000">image_snapshot</text>
<text text-anchor="middle" x="98.5957" y="-49" font-family="Helvetica,sans-Serif" font-size="10.00" fill="#000000">image_targets</text>
<text text-anchor="middle" x="98.5957" y="-39" font-family="Helvetica,sans-Serif" font-size="10.00" fill="#000000">image_timestamp</text>
</g>
<!-- Node3 -->
<g id="node3" class="node">
<title>Node3</title>
<g id="a_node3"><a xlink:title="STL class. ">
<polygon fill="#ffffff" stroke="#bfbfbf" points="12.0874,-171.5 12.0874,-199.5 106.1831,-199.5 106.1831,-171.5 12.0874,-171.5"/>
<text text-anchor="start" x="20.0874" y="-187.5" font-family="Helvetica,sans-Serif" font-size="10.00" fill="#000000">std::basic_string&lt;</text>
<text text-anchor="middle" x="59.1353" y="-177.5" font-family="Helvetica,sans-Serif" font-size="10.00" fill="#000000"> char &gt;</text>
</a>
</g>
</g>
<!-- Node3&#45;&gt;Node2 -->
<g id="edge2" class="edge">
<title>Node3&#45;&gt;Node2</title>
<path fill="none" stroke="#191970" d="M59.1353,-161.1001C59.1353,-151.5157 59.1353,-141.0935 59.1353,-133.831"/>
<polygon fill="#191970" stroke="#191970" points="55.6354,-161.352 59.1353,-171.3521 62.6354,-161.3521 55.6354,-161.352"/>
</g>
</g>
</svg>
