<?xml version="1.0" encoding="UTF-8" standalone="no"?>
<!DOCTYPE svg PUBLIC "-//W3C//DTD SVG 1.1//EN"
 "http://www.w3.org/Graphics/SVG/1.1/DTD/svg11.dtd">
<!-- Generated by graphviz version 2.40.1 (20161225.0304)
 -->
<!-- Title: src/libaktualizr/utilities/types.h Pages: 1 -->
<svg width="273pt" height="92pt"
 viewBox="0.00 0.00 273.31 92.00" xmlns="http://www.w3.org/2000/svg" xmlns:xlink="http://www.w3.org/1999/xlink">
<g id="graph0" class="graph" transform="scale(1 1) rotate(0) translate(4 88)">
<title>src/libaktualizr/utilities/types.h</title>
<polygon fill="#ffffff" stroke="transparent" points="-4,4 -4,-88 269.3052,-88 269.3052,4 -4,4"/>
<!-- Node0 -->
<g id="node1" class="node">
<title>Node0</title>
<polygon fill="#bfbfbf" stroke="#000000" points="78.5566,-55.5 78.5566,-83.5 191.251,-83.5 191.251,-55.5 78.5566,-55.5"/>
<text text-anchor="start" x="86.5566" y="-71.5" font-family="Helvetica,sans-Serif" font-size="10.00" fill="#000000">src/libaktualizr/utilities</text>
<text text-anchor="middle" x="134.9038" y="-61.5" font-family="Helvetica,sans-Serif" font-size="10.00" fill="#000000">/types.h</text>
</g>
<!-- Node1 -->
<g id="node2" class="node">
<title>Node1</title>
<polygon fill="#ffffff" stroke="#bfbfbf" points="0,-.5 0,-18.5 63.8076,-18.5 63.8076,-.5 0,-.5"/>
<text text-anchor="middle" x="31.9038" y="-6.5" font-family="Helvetica,sans-Serif" font-size="10.00" fill="#000000">json/json.h</text>
</g>
<!-- Node0&#45;&gt;Node1 -->
<g id="edge1" class="edge">
<title>Node0&#45;&gt;Node1</title>
<path fill="none" stroke="#191970" d="M110.7549,-55.4327C94.4516,-45.9356 72.9966,-33.4376 56.5832,-23.8763"/>
<polygon fill="#191970" stroke="#191970" points="57.9814,-20.6403 47.5788,-18.6311 54.4579,-26.6889 57.9814,-20.6403"/>
</g>
<!-- Node2 -->
<g id="node3" class="node">
<title>Node2</title>
<polygon fill="#ffffff" stroke="#bfbfbf" points="81.3252,-.5 81.3252,-18.5 188.4824,-18.5 188.4824,-.5 81.3252,-.5"/>
<text text-anchor="middle" x="134.9038" y="-6.5" font-family="Helvetica,sans-Serif" font-size="10.00" fill="#000000">boost/filesystem.hpp</text>
</g>
<!-- Node0&#45;&gt;Node2 -->
<g id="edge2" class="edge">
<title>Node0&#45;&gt;Node2</title>
<path fill="none" stroke="#191970" d="M134.9038,-55.2808C134.9038,-47.3776 134.9038,-37.4316 134.9038,-28.8308"/>
<polygon fill="#191970" stroke="#191970" points="138.4039,-28.5842 134.9038,-18.5842 131.4039,-28.5842 138.4039,-28.5842"/>
</g>
<!-- Node3 -->
<g id="node4" class="node">
<title>Node3</title>
<polygon fill="#ffffff" stroke="#bfbfbf" points="206.5024,-.5 206.5024,-18.5 265.3052,-18.5 265.3052,-.5 206.5024,-.5"/>
<text text-anchor="middle" x="235.9038" y="-6.5" font-family="Helvetica,sans-Serif" font-size="10.00" fill="#000000">stdexcept</text>
</g>
<!-- Node0&#45;&gt;Node3 -->
<g id="edge3" class="edge">
<title>Node0&#45;&gt;Node3</title>
<path fill="none" stroke="#191970" d="M158.5838,-55.4327C174.5705,-45.9356 195.6089,-33.4376 211.7037,-23.8763"/>
<polygon fill="#191970" stroke="#191970" points="213.7234,-26.7475 220.5332,-18.6311 210.1482,-20.7294 213.7234,-26.7475"/>
</g>
</g>
</svg>
