<?xml version="1.0" encoding="UTF-8" standalone="no"?>
<!DOCTYPE svg PUBLIC "-//W3C//DTD SVG 1.1//EN"
 "http://www.w3.org/Graphics/SVG/1.1/DTD/svg11.dtd">
<!-- Generated by graphviz version 2.43.0 (0)
 -->
<!-- Title: Graphical Class Hierarchy Pages: 1 -->
<svg width="470pt" height="142pt"
 viewBox="0.00 0.00 470.00 142.00" xmlns="http://www.w3.org/2000/svg" xmlns:xlink="http://www.w3.org/1999/xlink">
<g id="graph0" class="graph" transform="scale(1 1) rotate(0) translate(4 138)">
<title>Graphical Class Hierarchy</title>
<polygon fill="white" stroke="transparent" points="-4,4 -4,-138 466,-138 466,4 -4,4"/>
<!-- Node0 -->
<g id="node1" class="node">
<title>Node0</title>
<g id="a_node1"><a xlink:href="class_package_manager_interface.html" target="_top" xlink:title=" ">
<polygon fill="white" stroke="black" points="0,-57.5 0,-76.5 143,-76.5 143,-57.5 0,-57.5"/>
<text text-anchor="middle" x="71.5" y="-64.5" font-family="Helvetica,sans-Serif" font-size="10.00">PackageManagerInterface</text>
</a>
</g>
</g>
<!-- Node1 -->
<g id="node2" class="node">
<title>Node1</title>
<g id="a_node2"><a xlink:href="class_android_manager.html" target="_top" xlink:title=" ">
<polygon fill="white" stroke="black" points="192,-114.5 192,-133.5 288,-133.5 288,-114.5 192,-114.5"/>
<text text-anchor="middle" x="240" y="-121.5" font-family="Helvetica,sans-Serif" font-size="10.00">AndroidManager</text>
</a>
</g>
</g>
<!-- Node0&#45;&gt;Node1 -->
<g id="edge1" class="edge">
<title>Node0&#45;&gt;Node1</title>
<path fill="none" stroke="midnightblue" d="M108.28,-80.13C128.9,-87.6 155.34,-97.03 179,-105 188.42,-108.17 198.73,-111.49 208.1,-114.45"/>
<polygon fill="midnightblue" stroke="midnightblue" points="109.26,-76.76 98.67,-76.63 106.87,-83.34 109.26,-76.76"/>
</g>
<!-- Node2 -->
<g id="node3" class="node">
<title>Node2</title>
<g id="a_node3"><a xlink:href="class_debian_manager.html" target="_top" xlink:title=" ">
<polygon fill="white" stroke="black" points="193.5,-76.5 193.5,-95.5 286.5,-95.5 286.5,-76.5 193.5,-76.5"/>
<text text-anchor="middle" x="240" y="-83.5" font-family="Helvetica,sans-Serif" font-size="10.00">DebianManager</text>
</a>
</g>
</g>
<!-- Node0&#45;&gt;Node2 -->
<g id="edge2" class="edge">
<title>Node0&#45;&gt;Node2</title>
<path fill="none" stroke="midnightblue" d="M153.14,-76.2C166.97,-77.78 180.9,-79.37 193.39,-80.8"/>
<polygon fill="midnightblue" stroke="midnightblue" points="153.44,-72.71 143.11,-75.06 152.65,-79.67 153.44,-72.71"/>
</g>
<!-- Node3 -->
<g id="node4" class="node">
<title>Node3</title>
<g id="a_node4"><a xlink:href="class_ostree_manager.html" target="_top" xlink:title=" ">
<polygon fill="white" stroke="black" points="194.5,-38.5 194.5,-57.5 285.5,-57.5 285.5,-38.5 194.5,-38.5"/>
<text text-anchor="middle" x="240" y="-45.5" font-family="Helvetica,sans-Serif" font-size="10.00">OstreeManager</text>
</a>
</g>
</g>
<!-- Node0&#45;&gt;Node3 -->
<g id="edge3" class="edge">
<title>Node0&#45;&gt;Node3</title>
<path fill="none" stroke="midnightblue" d="M153.35,-57.77C167.47,-56.16 181.68,-54.54 194.36,-53.09"/>
<polygon fill="midnightblue" stroke="midnightblue" points="152.65,-54.33 143.11,-58.94 153.44,-61.29 152.65,-54.33"/>
</g>
<!-- Node7 -->
<g id="node8" class="node">
<title>Node7</title>
<g id="a_node8"><a xlink:href="class_package_manager_fake.html" target="_top" xlink:title=" ">
<polygon fill="white" stroke="black" points="179,-0.5 179,-19.5 301,-19.5 301,-0.5 179,-0.5"/>
<text text-anchor="middle" x="240" y="-7.5" font-family="Helvetica,sans-Serif" font-size="10.00">PackageManagerFake</text>
</a>
</g>
</g>
<!-- Node0&#45;&gt;Node7 -->
<g id="edge7" class="edge">
<title>Node0&#45;&gt;Node7</title>
<path fill="none" stroke="midnightblue" d="M108.28,-53.87C128.9,-46.4 155.34,-36.97 179,-29 188.42,-25.83 198.73,-22.51 208.1,-19.55"/>
<polygon fill="midnightblue" stroke="midnightblue" points="106.87,-50.66 98.67,-57.37 109.26,-57.24 106.87,-50.66"/>
</g>
<!-- Node4 -->
<g id="node5" class="node">
<title>Node4</title>
<g id="a_node5"><a xlink:href="class_docker_app_bundles.html" target="_top" xlink:title=" ">
<polygon fill="white" stroke="black" points="345,-76.5 345,-95.5 454,-95.5 454,-76.5 345,-76.5"/>
<text text-anchor="middle" x="399.5" y="-83.5" font-family="Helvetica,sans-Serif" font-size="10.00">DockerAppBundles</text>
</a>
</g>
</g>
<!-- Node3&#45;&gt;Node4 -->
<g id="edge4" class="edge">
<title>Node3&#45;&gt;Node4</title>
<path fill="none" stroke="midnightblue" d="M290.6,-59.97C312.68,-65.29 338.3,-71.48 359.04,-76.48"/>
<polygon fill="midnightblue" stroke="midnightblue" points="291.29,-56.53 280.74,-57.59 289.64,-63.34 291.29,-56.53"/>
</g>
<!-- Node5 -->
<g id="node6" class="node">
<title>Node5</title>
<g id="a_node6"><a xlink:href="class_docker_app_manager.html" target="_top" xlink:title=" ">
<polygon fill="white" stroke="black" points="343.5,-38.5 343.5,-57.5 455.5,-57.5 455.5,-38.5 343.5,-38.5"/>
<text text-anchor="middle" x="399.5" y="-45.5" font-family="Helvetica,sans-Serif" font-size="10.00">DockerAppManager</text>
</a>
</g>
</g>
<!-- Node3&#45;&gt;Node5 -->
<g id="edge5" class="edge">
<title>Node3&#45;&gt;Node5</title>
<path fill="none" stroke="midnightblue" d="M296.06,-48C311.37,-48 327.99,-48 343.3,-48"/>
<polygon fill="midnightblue" stroke="midnightblue" points="295.71,-44.5 285.71,-48 295.71,-51.5 295.71,-44.5"/>
</g>
<!-- Node6 -->
<g id="node7" class="node">
<title>Node6</title>
<g id="a_node7"><a xlink:href="class_docker_app_standalone.html" target="_top" xlink:title=" ">
<polygon fill="white" stroke="black" points="337,-0.5 337,-19.5 462,-19.5 462,-0.5 337,-0.5"/>
<text text-anchor="middle" x="399.5" y="-7.5" font-family="Helvetica,sans-Serif" font-size="10.00">DockerAppStandalone</text>
</a>
</g>
</g>
<!-- Node3&#45;&gt;Node6 -->
<g id="edge6" class="edge">
<title>Node3&#45;&gt;Node6</title>
<path fill="none" stroke="midnightblue" d="M290.6,-36.03C312.68,-30.71 338.3,-24.52 359.04,-19.52"/>
<polygon fill="midnightblue" stroke="midnightblue" points="289.64,-32.66 280.74,-38.41 291.29,-39.47 289.64,-32.66"/>
</g>
</g>
</svg>
