<?xml version="1.0" encoding="UTF-8" standalone="no"?>
<!DOCTYPE svg PUBLIC "-//W3C//DTD SVG 1.1//EN"
 "http://www.w3.org/Graphics/SVG/1.1/DTD/svg11.dtd">
<!-- Generated by graphviz version 2.43.0 (0)
 -->
<!-- Title: SecondaryInterfaceMock Pages: 1 -->
<svg width="1049pt" height="165pt"
 viewBox="0.00 0.00 1049.00 165.00" xmlns="http://www.w3.org/2000/svg" xmlns:xlink="http://www.w3.org/1999/xlink">
<g id="graph0" class="graph" transform="scale(1 1) rotate(0) translate(4 161)">
<title>SecondaryInterfaceMock</title>
<polygon fill="white" stroke="transparent" points="-4,4 -4,-161 1045,-161 1045,4 -4,4"/>
<!-- Node1 -->
<g id="node1" class="node">
<title>Node1</title>
<g id="a_node1"><a xlink:title=" ">
<polygon fill="#bfbfbf" stroke="black" points="904,-72.5 904,-91.5 1041,-91.5 1041,-72.5 904,-72.5"/>
<text text-anchor="middle" x="972.5" y="-79.5" font-family="Helvetica,sans-Serif" font-size="10.00">SecondaryInterfaceMock</text>
</a>
</g>
</g>
<!-- Node2 -->
<g id="node2" class="node">
<title>Node2</title>
<g id="a_node2"><a xlink:href="class_secondary_interface.html" target="_top" xlink:title=" ">
<polygon fill="white" stroke="black" points="631.5,-137.5 631.5,-156.5 742.5,-156.5 742.5,-137.5 631.5,-137.5"/>
<text text-anchor="middle" x="687" y="-144.5" font-family="Helvetica,sans-Serif" font-size="10.00">SecondaryInterface</text>
</a>
</g>
</g>
<!-- Node2&#45;&gt;Node1 -->
<g id="edge1" class="edge">
<title>Node2&#45;&gt;Node1</title>
<path fill="none" stroke="midnightblue" d="M752.77,-137.11C791.67,-130.62 842,-121.26 886,-110 906.12,-104.85 928.42,-97.49 945.19,-91.61"/>
<polygon fill="midnightblue" stroke="midnightblue" points="751.93,-133.7 742.63,-138.78 753.06,-140.61 751.93,-133.7"/>
</g>
<!-- Node3 -->
<g id="node3" class="node">
<title>Node3</title>
<g id="a_node3"><a xlink:href="class_primary_1_1_virtual_secondary_config.html" target="_top" xlink:title=" ">
<polygon fill="white" stroke="black" points="615.5,-88 615.5,-118 758.5,-118 758.5,-88 615.5,-88"/>
<text text-anchor="start" x="623.5" y="-106" font-family="Helvetica,sans-Serif" font-size="10.00">Primary::VirtualSecondary</text>
<text text-anchor="middle" x="687" y="-95" font-family="Helvetica,sans-Serif" font-size="10.00">Config</text>
</a>
</g>
</g>
<!-- Node3&#45;&gt;Node1 -->
<g id="edge2" class="edge">
<title>Node3&#45;&gt;Node1</title>
<path fill="none" stroke="#9a32cd" stroke-dasharray="5,2" d="M768.86,-97.01C811.44,-93.86 863.06,-90.03 903.55,-87.03"/>
<polygon fill="#9a32cd" stroke="#9a32cd" points="768.52,-93.53 758.81,-97.75 769.04,-100.51 768.52,-93.53"/>
<text text-anchor="middle" x="833.5" y="-98" font-family="Helvetica,sans-Serif" font-size="10.00"> sconfig</text>
</g>
<!-- Node4 -->
<g id="node4" class="node">
<title>Node4</title>
<g id="a_node4"><a xlink:href="class_primary_1_1_managed_secondary_config.html" target="_top" xlink:title=" ">
<polygon fill="white" stroke="black" points="402,-88 402,-118 558,-118 558,-88 402,-88"/>
<text text-anchor="start" x="410" y="-106" font-family="Helvetica,sans-Serif" font-size="10.00">Primary::ManagedSecondary</text>
<text text-anchor="middle" x="480" y="-95" font-family="Helvetica,sans-Serif" font-size="10.00">Config</text>
</a>
</g>
</g>
<!-- Node4&#45;&gt;Node3 -->
<g id="edge3" class="edge">
<title>Node4&#45;&gt;Node3</title>
<path fill="none" stroke="midnightblue" d="M568.41,-103C584.05,-103 600.17,-103 615.28,-103"/>
<polygon fill="midnightblue" stroke="midnightblue" points="568.21,-99.5 558.21,-103 568.21,-106.5 568.21,-99.5"/>
</g>
<!-- Node5 -->
<g id="node5" class="node">
<title>Node5</title>
<g id="a_node5"><a xlink:href="class_primary_1_1_secondary_config.html" target="_top" xlink:title=" ">
<polygon fill="white" stroke="black" points="141,-122.5 141,-141.5 283,-141.5 283,-122.5 141,-122.5"/>
<text text-anchor="middle" x="212" y="-129.5" font-family="Helvetica,sans-Serif" font-size="10.00">Primary::SecondaryConfig</text>
</a>
</g>
</g>
<!-- Node5&#45;&gt;Node4 -->
<g id="edge4" class="edge">
<title>Node5&#45;&gt;Node4</title>
<path fill="none" stroke="midnightblue" d="M293,-126.7C321.74,-124.46 354.37,-121.55 384,-118 389.8,-117.31 395.79,-116.52 401.82,-115.68"/>
<polygon fill="midnightblue" stroke="midnightblue" points="292.71,-123.21 283.01,-127.46 293.24,-130.19 292.71,-123.21"/>
</g>
<!-- Node6 -->
<g id="node6" class="node">
<title>Node6</title>
<g id="a_node6"><a xlink:title="STL class.">
<polygon fill="white" stroke="#bfbfbf" points="179.5,-63.5 179.5,-82.5 244.5,-82.5 244.5,-63.5 179.5,-63.5"/>
<text text-anchor="middle" x="212" y="-70.5" font-family="Helvetica,sans-Serif" font-size="10.00">std::string</text>
</a>
</g>
</g>
<!-- Node6&#45;&gt;Node4 -->
<g id="edge5" class="edge">
<title>Node6&#45;&gt;Node4</title>
<path fill="none" stroke="#9a32cd" stroke-dasharray="5,2" d="M255.05,-67.98C289.86,-64.85 340.49,-62.66 384,-70 404.66,-73.49 426.82,-80.95 444.54,-87.91"/>
<polygon fill="#9a32cd" stroke="#9a32cd" points="254.39,-64.53 244.78,-68.98 255.07,-71.5 254.39,-64.53"/>
<text text-anchor="middle" x="342.5" y="-106" font-family="Helvetica,sans-Serif" font-size="10.00"> ecu_private_key</text>
<text text-anchor="middle" x="342.5" y="-95" font-family="Helvetica,sans-Serif" font-size="10.00">ecu_hardware_id</text>
<text text-anchor="middle" x="342.5" y="-84" font-family="Helvetica,sans-Serif" font-size="10.00">ecu_serial</text>
<text text-anchor="middle" x="342.5" y="-73" font-family="Helvetica,sans-Serif" font-size="10.00">ecu_public_key</text>
</g>
<!-- Node7 -->
<g id="node7" class="node">
<title>Node7</title>
<g id="a_node7"><a xlink:title="STL class.">
<polygon fill="white" stroke="#bfbfbf" points="0,-58 0,-88 104,-88 104,-58 0,-58"/>
<text text-anchor="start" x="8" y="-76" font-family="Helvetica,sans-Serif" font-size="10.00">std::basic_string&lt;</text>
<text text-anchor="middle" x="52" y="-65" font-family="Helvetica,sans-Serif" font-size="10.00"> char &gt;</text>
</a>
</g>
</g>
<!-- Node7&#45;&gt;Node6 -->
<g id="edge6" class="edge">
<title>Node7&#45;&gt;Node6</title>
<path fill="none" stroke="midnightblue" d="M114.33,-73C136.51,-73 160.66,-73 179.27,-73"/>
<polygon fill="midnightblue" stroke="midnightblue" points="114.3,-69.5 104.3,-73 114.3,-76.5 114.3,-69.5"/>
</g>
<!-- Node8 -->
<g id="node8" class="node">
<title>Node8</title>
<g id="a_node8"><a xlink:title=" ">
<polygon fill="white" stroke="#bfbfbf" points="611,-39 611,-69 763,-69 763,-39 611,-39"/>
<text text-anchor="start" x="619" y="-57" font-family="Helvetica,sans-Serif" font-size="10.00">std::shared_ptr&lt; Secondary</text>
<text text-anchor="middle" x="687" y="-46" font-family="Helvetica,sans-Serif" font-size="10.00">Provider &gt;</text>
</a>
</g>
</g>
<!-- Node8&#45;&gt;Node1 -->
<g id="edge7" class="edge">
<title>Node8&#45;&gt;Node1</title>
<path fill="none" stroke="#9a32cd" stroke-dasharray="5,2" d="M773.39,-62.02C808.31,-65.35 849.1,-69.29 886,-73 891.79,-73.58 897.8,-74.2 903.83,-74.82"/>
<polygon fill="#9a32cd" stroke="#9a32cd" points="773.52,-58.52 763.23,-61.05 772.86,-65.49 773.52,-58.52"/>
<text text-anchor="middle" x="833.5" y="-76" font-family="Helvetica,sans-Serif" font-size="10.00"> secondary_provider_</text>
</g>
<!-- Node9 -->
<g id="node9" class="node">
<title>Node9</title>
<g id="a_node9"><a xlink:href="class_secondary_provider.html" target="_top" xlink:title=" ">
<polygon fill="white" stroke="black" points="426,-44.5 426,-63.5 534,-63.5 534,-44.5 426,-44.5"/>
<text text-anchor="middle" x="480" y="-51.5" font-family="Helvetica,sans-Serif" font-size="10.00">SecondaryProvider</text>
</a>
</g>
</g>
<!-- Node9&#45;&gt;Node8 -->
<g id="edge8" class="edge">
<title>Node9&#45;&gt;Node8</title>
<path fill="none" stroke="#9a32cd" stroke-dasharray="5,2" d="M544.17,-54C565.22,-54 588.89,-54 610.77,-54"/>
<polygon fill="#9a32cd" stroke="#9a32cd" points="544.06,-50.5 534.06,-54 544.06,-57.5 544.06,-50.5"/>
<text text-anchor="middle" x="584.5" y="-57" font-family="Helvetica,sans-Serif" font-size="10.00"> ptr</text>
</g>
<!-- Node10 -->
<g id="node10" class="node">
<title>Node10</title>
<g id="a_node10"><a xlink:href="class_public_key.html" target="_top" xlink:title=" ">
<polygon fill="white" stroke="black" points="655,-0.5 655,-19.5 719,-19.5 719,-0.5 655,-0.5"/>
<text text-anchor="middle" x="687" y="-7.5" font-family="Helvetica,sans-Serif" font-size="10.00">PublicKey</text>
</a>
</g>
</g>
<!-- Node10&#45;&gt;Node1 -->
<g id="edge9" class="edge">
<title>Node10&#45;&gt;Node1</title>
<path fill="none" stroke="#9a32cd" stroke-dasharray="5,2" d="M729.32,-15.6C769.75,-21.63 832.84,-32.48 886,-48 908.69,-54.63 933.73,-64.95 950.81,-72.49"/>
<polygon fill="#9a32cd" stroke="#9a32cd" points="729.7,-12.12 719.3,-14.14 728.69,-19.05 729.7,-12.12"/>
<text text-anchor="middle" x="833.5" y="-51" font-family="Helvetica,sans-Serif" font-size="10.00"> public_key_</text>
</g>
</g>
</svg>
