<?xml version="1.0" encoding="UTF-8" standalone="no"?>
<!DOCTYPE svg PUBLIC "-//W3C//DTD SVG 1.1//EN"
 "http://www.w3.org/Graphics/SVG/1.1/DTD/svg11.dtd">
<!-- Generated by graphviz version 2.43.0 (0)
 -->
<!-- Title: asn1::Token Pages: 1 -->
<svg width="396pt" height="84pt"
 viewBox="0.00 0.00 395.50 84.00" xmlns="http://www.w3.org/2000/svg" xmlns:xlink="http://www.w3.org/1999/xlink">
<g id="graph0" class="graph" transform="scale(1 1) rotate(0) translate(4 80)">
<title>asn1::Token</title>
<polygon fill="white" stroke="transparent" points="-4,4 -4,-80 391.5,-80 391.5,4 -4,4"/>
<!-- Node1 -->
<g id="node1" class="node">
<title>Node1</title>
<g id="a_node1"><a xlink:title=" ">
<polygon fill="#bfbfbf" stroke="black" points="143.5,-56.5 143.5,-75.5 217.5,-75.5 217.5,-56.5 143.5,-56.5"/>
<text text-anchor="middle" x="180.5" y="-63.5" font-family="Helvetica,sans-Serif" font-size="10.00">asn1::Token</text>
</a>
</g>
</g>
<!-- Node2 -->
<g id="node2" class="node">
<title>Node2</title>
<g id="a_node2"><a xlink:href="classasn1_1_1_endopt_token.html" target="_top" xlink:title=" ">
<polygon fill="white" stroke="black" points="0,-0.5 0,-19.5 107,-19.5 107,-0.5 0,-0.5"/>
<text text-anchor="middle" x="53.5" y="-7.5" font-family="Helvetica,sans-Serif" font-size="10.00">asn1::EndoptToken</text>
</a>
</g>
</g>
<!-- Node1&#45;&gt;Node2 -->
<g id="edge1" class="edge">
<title>Node1&#45;&gt;Node2</title>
<path fill="none" stroke="midnightblue" d="M151.11,-52.5C127.3,-42.38 94.39,-28.39 73.53,-19.52"/>
<polygon fill="midnightblue" stroke="midnightblue" points="149.8,-55.75 160.38,-56.44 152.54,-49.31 149.8,-55.75"/>
</g>
<!-- Node3 -->
<g id="node3" class="node">
<title>Node3</title>
<g id="a_node3"><a xlink:href="classasn1_1_1_explicit_token.html" target="_top" xlink:title=" ">
<polygon fill="white" stroke="black" points="125.5,-0.5 125.5,-19.5 235.5,-19.5 235.5,-0.5 125.5,-0.5"/>
<text text-anchor="middle" x="180.5" y="-7.5" font-family="Helvetica,sans-Serif" font-size="10.00">asn1::ExplicitToken</text>
</a>
</g>
</g>
<!-- Node1&#45;&gt;Node3 -->
<g id="edge2" class="edge">
<title>Node1&#45;&gt;Node3</title>
<path fill="none" stroke="midnightblue" d="M180.5,-45.8C180.5,-36.91 180.5,-26.78 180.5,-19.75"/>
<polygon fill="midnightblue" stroke="midnightblue" points="177,-46.08 180.5,-56.08 184,-46.08 177,-46.08"/>
</g>
<!-- Node4 -->
<g id="node4" class="node">
<title>Node4</title>
<g id="a_node4"><a xlink:href="classasn1_1_1_peek_explicit_token.html" target="_top" xlink:title=" ">
<polygon fill="white" stroke="black" points="253.5,-0.5 253.5,-19.5 387.5,-19.5 387.5,-0.5 253.5,-0.5"/>
<text text-anchor="middle" x="320.5" y="-7.5" font-family="Helvetica,sans-Serif" font-size="10.00">asn1::PeekExplicitToken</text>
</a>
</g>
</g>
<!-- Node1&#45;&gt;Node4 -->
<g id="edge3" class="edge">
<title>Node1&#45;&gt;Node4</title>
<path fill="none" stroke="midnightblue" d="M212.2,-52.77C238.5,-42.63 275.22,-28.47 298.42,-19.52"/>
<polygon fill="midnightblue" stroke="midnightblue" points="210.75,-49.58 202.68,-56.44 213.27,-56.11 210.75,-49.58"/>
</g>
</g>
</svg>
