<?xml version="1.0" encoding="UTF-8" standalone="no"?>
<!DOCTYPE svg PUBLIC "-//W3C//DTD SVG 1.1//EN"
 "http://www.w3.org/Graphics/SVG/1.1/DTD/svg11.dtd">
<!-- Generated by graphviz version 2.43.0 (0)
 -->
<!-- Title: HttpFake Pages: 1 -->
<!--zoomable 902 -->
<svg id="main" version="1.1" xmlns="http://www.w3.org/2000/svg" xmlns:xlink="http://www.w3.org/1999/xlink" xml:space="preserve" onload="init(evt)">
<style type="text/css"><![CDATA[
.edge:hover path { stroke: red; }
.edge:hover polygon { stroke: red; fill: red; }
]]></style>
<script type="text/javascript"><![CDATA[
var edges = document.getElementsByTagName('g');
if (edges && edges.length) {
  for (var i=0;i<edges.length;i++) {
    if (edges[i].id.substr(0,4)=='edge') {
      edges[i].setAttribute('class','edge');
    }
  }
}
]]></script>
        <defs>
                <circle id="rim" cx="0" cy="0" r="7"/>
                <circle id="rim2" cx="0" cy="0" r="3.5"/>
                <g id="zoomPlus">
                        <use xlink:href="#rim" fill="#404040">
                                <set attributeName="fill" to="#808080" begin="zoomplus.mouseover" end="zoomplus.mouseout"/>
                        </use>
                        <path d="M-4,0h8M0,-4v8" fill="none" stroke="white" stroke-width="1.5" pointer-events="none"/>
                </g>
                <g id="zoomMin">
                        <use xlink:href="#rim" fill="#404040">
                                <set attributeName="fill" to="#808080" begin="zoomminus.mouseover" end="zoomminus.mouseout"/>
                        </use>
                        <path d="M-4,0h8" fill="none" stroke="white" stroke-width="1.5" pointer-events="none"/>
                </g>
                <g id="dirArrow">
                        <path fill="none" stroke="white" stroke-width="1.5" d="M0,-3.0v7 M-2.5,-0.5L0,-3.0L2.5,-0.5"/>
                </g>
               <g id="resetDef">
                       <use xlink:href="#rim2" fill="#404040">
                               <set attributeName="fill" to="#808080" begin="reset.mouseover" end="reset.mouseout"/>
                       </use>
               </g>
        </defs>

<script type="text/javascript">
var viewWidth = 372;
var viewHeight = 902;
var sectionId = 'dynsection-0';
</script>
<script xlink:href="svgpan.js"/>
<svg id="graph" class="graph">
<g id="viewport">
<title>HttpFake</title>
<polygon fill="white" stroke="transparent" points="-4,4 -4,-898 368,-898 368,4 -4,4"/>
<!-- Node1 -->
<g id="node1" class="node">
<title>Node1</title>
<g id="a_node1"><a xlink:title=" ">
<polygon fill="#bfbfbf" stroke="black" points="117,-437.5 117,-456.5 176,-456.5 176,-437.5 117,-437.5"/>
<text text-anchor="middle" x="146.5" y="-444.5" font-family="Helvetica,sans-Serif" font-size="10.00">HttpFake</text>
</a>
</g>
</g>
<!-- Node3 -->
<g id="node3" class="node">
<title>Node3</title>
<g id="a_node3"><a xlink:href="class_http_check_url.html" target="_top" xlink:title=" ">
<polygon fill="white" stroke="black" points="247,-874.5 247,-893.5 329,-893.5 329,-874.5 247,-874.5"/>
<text text-anchor="middle" x="288" y="-881.5" font-family="Helvetica,sans-Serif" font-size="10.00">HttpCheckUrl</text>
</a>
</g>
</g>
<!-- Node1&#45;&gt;Node3 -->
<g id="edge2" class="edge">
<title>Node1&#45;&gt;Node3</title>
<path fill="none" stroke="midnightblue" d="M147.77,-467.15C149.18,-542.39 157.96,-805.57 212,-865 220.86,-874.74 233.92,-879.81 246.68,-882.35"/>
<polygon fill="midnightblue" stroke="midnightblue" points="151.26,-466.69 147.6,-456.75 144.26,-466.81 151.26,-466.69"/>
</g>
<!-- Node4 -->
<g id="node4" class="node">
<title>Node4</title>
<g id="a_node4"><a xlink:href="class_http_custom_uri.html" target="_top" xlink:title=" ">
<polygon fill="white" stroke="black" points="243.5,-836.5 243.5,-855.5 332.5,-855.5 332.5,-836.5 243.5,-836.5"/>
<text text-anchor="middle" x="288" y="-843.5" font-family="Helvetica,sans-Serif" font-size="10.00">HttpCustomUri</text>
</a>
</g>
</g>
<!-- Node1&#45;&gt;Node4 -->
<g id="edge3" class="edge">
<title>Node1&#45;&gt;Node4</title>
<path fill="none" stroke="midnightblue" d="M148.09,-466.67C150.61,-536.84 162.66,-773.55 212,-827 220.11,-835.78 231.64,-840.76 243.24,-843.51"/>
<polygon fill="midnightblue" stroke="midnightblue" points="151.59,-466.44 147.76,-456.56 144.59,-466.67 151.59,-466.44"/>
</g>
<!-- Node5 -->
<g id="node5" class="node">
<title>Node5</title>
<g id="a_node5"><a xlink:href="class_http_default_uri.html" target="_top" xlink:title=" ">
<polygon fill="white" stroke="black" points="244,-798.5 244,-817.5 332,-817.5 332,-798.5 244,-798.5"/>
<text text-anchor="middle" x="288" y="-805.5" font-family="Helvetica,sans-Serif" font-size="10.00">HttpDefaultUri</text>
</a>
</g>
</g>
<!-- Node1&#45;&gt;Node5 -->
<g id="edge4" class="edge">
<title>Node1&#45;&gt;Node5</title>
<path fill="none" stroke="midnightblue" d="M148.51,-466.79C152.24,-532.45 167.49,-741.66 212,-789 220.28,-797.81 232.01,-802.77 243.74,-805.5"/>
<polygon fill="midnightblue" stroke="midnightblue" points="151.99,-466.37 147.95,-456.58 145,-466.75 151.99,-466.37"/>
</g>
<!-- Node6 -->
<g id="node6" class="node">
<title>Node6</title>
<g id="a_node6"><a xlink:href="class_http_download_failure.html" target="_top" xlink:title=" ">
<polygon fill="white" stroke="black" points="228.5,-760.5 228.5,-779.5 347.5,-779.5 347.5,-760.5 228.5,-760.5"/>
<text text-anchor="middle" x="288" y="-767.5" font-family="Helvetica,sans-Serif" font-size="10.00">HttpDownloadFailure</text>
</a>
</g>
</g>
<!-- Node1&#45;&gt;Node6 -->
<g id="edge5" class="edge">
<title>Node1&#45;&gt;Node6</title>
<path fill="none" stroke="midnightblue" d="M149.03,-466.93C154.09,-527.81 172.3,-709.72 212,-751 216.56,-755.74 222.13,-759.37 228.14,-762.13"/>
<polygon fill="midnightblue" stroke="midnightblue" points="152.5,-466.42 148.21,-456.74 145.52,-466.98 152.5,-466.42"/>
</g>
<!-- Node7 -->
<g id="node7" class="node">
<title>Node7</title>
<g id="a_node7"><a xlink:href="class_http_fake_campaign.html" target="_top" xlink:title=" ">
<polygon fill="white" stroke="black" points="233.5,-722.5 233.5,-741.5 342.5,-741.5 342.5,-722.5 233.5,-722.5"/>
<text text-anchor="middle" x="288" y="-729.5" font-family="Helvetica,sans-Serif" font-size="10.00">HttpFakeCampaign</text>
</a>
</g>
</g>
<!-- Node1&#45;&gt;Node7 -->
<g id="edge6" class="edge">
<title>Node1&#45;&gt;Node7</title>
<path fill="none" stroke="midnightblue" d="M149.68,-466.94C156.16,-522.56 177.05,-677.69 212,-713 217.86,-718.92 225.28,-723.09 233.16,-726"/>
<polygon fill="midnightblue" stroke="midnightblue" points="153.12,-466.2 148.52,-456.66 146.16,-466.99 153.12,-466.2"/>
</g>
<!-- Node8 -->
<g id="node8" class="node">
<title>Node8</title>
<g id="a_node8"><a xlink:href="class_http_fake_delegation.html" target="_top" xlink:title=" ">
<polygon fill="white" stroke="black" points="231.5,-684.5 231.5,-703.5 344.5,-703.5 344.5,-684.5 231.5,-684.5"/>
<text text-anchor="middle" x="288" y="-691.5" font-family="Helvetica,sans-Serif" font-size="10.00">HttpFakeDelegation</text>
</a>
</g>
</g>
<!-- Node1&#45;&gt;Node8 -->
<g id="edge7" class="edge">
<title>Node1&#45;&gt;Node8</title>
<path fill="none" stroke="midnightblue" d="M146.94,-466.97C146.86,-511.14 153.14,-617.74 212,-675 217.49,-680.34 224.25,-684.24 231.45,-687.08"/>
<polygon fill="midnightblue" stroke="midnightblue" points="150.44,-466.98 147.08,-456.93 143.44,-466.88 150.44,-466.98"/>
</g>
<!-- Node9 -->
<g id="node9" class="node">
<title>Node9</title>
<g id="a_node9"><a xlink:href="class_http_fake_device_registration.html" target="_top" xlink:title=" ">
<polygon fill="white" stroke="black" points="212,-646.5 212,-665.5 364,-665.5 364,-646.5 212,-646.5"/>
<text text-anchor="middle" x="288" y="-653.5" font-family="Helvetica,sans-Serif" font-size="10.00">HttpFakeDeviceRegistration</text>
</a>
</g>
</g>
<!-- Node1&#45;&gt;Node9 -->
<g id="edge8" class="edge">
<title>Node1&#45;&gt;Node9</title>
<path fill="none" stroke="midnightblue" d="M148.28,-467C150.92,-505.73 162.38,-591.16 212,-637 216.14,-640.83 220.95,-643.91 226.08,-646.39"/>
<polygon fill="midnightblue" stroke="midnightblue" points="151.76,-466.37 147.72,-456.58 144.77,-466.76 151.76,-466.37"/>
</g>
<!-- Node10 -->
<g id="node10" class="node">
<title>Node10</title>
<g id="a_node10"><a xlink:href="class_http_fake_ecu_registration.html" target="_top" xlink:title=" ">
<polygon fill="white" stroke="black" points="220,-608.5 220,-627.5 356,-627.5 356,-608.5 220,-608.5"/>
<text text-anchor="middle" x="288" y="-615.5" font-family="Helvetica,sans-Serif" font-size="10.00">HttpFakeEcuRegistration</text>
</a>
</g>
</g>
<!-- Node1&#45;&gt;Node10 -->
<g id="edge9" class="edge">
<title>Node1&#45;&gt;Node10</title>
<path fill="none" stroke="midnightblue" d="M150.17,-466.59C155.65,-499.12 171.31,-564.11 212,-599 216.49,-602.85 221.65,-605.93 227.12,-608.41"/>
<polygon fill="midnightblue" stroke="midnightblue" points="153.6,-465.9 148.62,-456.55 146.68,-466.96 153.6,-465.9"/>
</g>
<!-- Node11 -->
<g id="node11" class="node">
<title>Node11</title>
<g id="a_node11"><a xlink:href="class_http_fake_event_counter.html" target="_top" xlink:title=" ">
<polygon fill="white" stroke="black" points="225.5,-570.5 225.5,-589.5 350.5,-589.5 350.5,-570.5 225.5,-570.5"/>
<text text-anchor="middle" x="288" y="-577.5" font-family="Helvetica,sans-Serif" font-size="10.00">HttpFakeEventCounter</text>
</a>
</g>
</g>
<!-- Node1&#45;&gt;Node11 -->
<g id="edge10" class="edge">
<title>Node1&#45;&gt;Node11</title>
<path fill="none" stroke="midnightblue" d="M153.16,-466.38C161.66,-492 180.21,-536.73 212,-561 217.02,-564.83 222.72,-567.9 228.69,-570.35"/>
<polygon fill="midnightblue" stroke="midnightblue" points="156.45,-465.18 150.12,-456.68 149.77,-467.27 156.45,-465.18"/>
</g>
<!-- Node12 -->
<g id="node12" class="node">
<title>Node12</title>
<g id="a_node12"><a xlink:href="class_http_fake_events.html" target="_top" xlink:title=" ">
<polygon fill="white" stroke="black" points="242,-532.5 242,-551.5 334,-551.5 334,-532.5 242,-532.5"/>
<text text-anchor="middle" x="288" y="-539.5" font-family="Helvetica,sans-Serif" font-size="10.00">HttpFakeEvents</text>
</a>
</g>
</g>
<!-- Node1&#45;&gt;Node12 -->
<g id="edge11" class="edge">
<title>Node1&#45;&gt;Node12</title>
<path fill="none" stroke="midnightblue" d="M158.29,-465.32C169.52,-482.77 188.71,-508.47 212,-523 221,-528.61 231.59,-532.57 241.93,-535.36"/>
<polygon fill="midnightblue" stroke="midnightblue" points="161.13,-463.26 152.89,-456.59 155.17,-466.94 161.13,-463.26"/>
</g>
<!-- Node13 -->
<g id="node13" class="node">
<title>Node13</title>
<g id="a_node13"><a xlink:href="class_http_fake_meta_counter.html" target="_top" xlink:title=" ">
<polygon fill="white" stroke="black" points="227,-494.5 227,-513.5 349,-513.5 349,-494.5 227,-494.5"/>
<text text-anchor="middle" x="288" y="-501.5" font-family="Helvetica,sans-Serif" font-size="10.00">HttpFakeMetaCounter</text>
</a>
</g>
</g>
<!-- Node1&#45;&gt;Node13 -->
<g id="edge12" class="edge">
<title>Node1&#45;&gt;Node13</title>
<path fill="none" stroke="midnightblue" d="M169.75,-462.24C181.82,-469.95 197.25,-478.93 212,-485 221.07,-488.73 231.06,-491.88 240.72,-494.47"/>
<polygon fill="midnightblue" stroke="midnightblue" points="171.53,-459.22 161.24,-456.66 167.69,-465.07 171.53,-459.22"/>
</g>
<!-- Node14 -->
<g id="node14" class="node">
<title>Node14</title>
<g id="a_node14"><a xlink:href="class_http_fake_no_correlation_id.html" target="_top" xlink:title=" ">
<polygon fill="white" stroke="black" points="220,-456.5 220,-475.5 356,-475.5 356,-456.5 220,-456.5"/>
<text text-anchor="middle" x="288" y="-463.5" font-family="Helvetica,sans-Serif" font-size="10.00">HttpFakeNoCorrelationId</text>
</a>
</g>
</g>
<!-- Node1&#45;&gt;Node14 -->
<g id="edge13" class="edge">
<title>Node1&#45;&gt;Node14</title>
<path fill="none" stroke="midnightblue" d="M186.12,-452.26C196.62,-453.69 208.3,-455.28 219.88,-456.86"/>
<polygon fill="midnightblue" stroke="midnightblue" points="186.45,-448.77 176.07,-450.89 185.5,-455.71 186.45,-448.77"/>
</g>
<!-- Node15 -->
<g id="node15" class="node">
<title>Node15</title>
<g id="a_node15"><a xlink:href="class_http_fake_pause_counter.html" target="_top" xlink:title=" ">
<polygon fill="white" stroke="black" points="225,-418.5 225,-437.5 351,-437.5 351,-418.5 225,-418.5"/>
<text text-anchor="middle" x="288" y="-425.5" font-family="Helvetica,sans-Serif" font-size="10.00">HttpFakePauseCounter</text>
</a>
</g>
</g>
<!-- Node1&#45;&gt;Node15 -->
<g id="edge14" class="edge">
<title>Node1&#45;&gt;Node15</title>
<path fill="none" stroke="midnightblue" d="M186.15,-441.74C198.12,-440.1 211.64,-438.26 224.79,-436.47"/>
<polygon fill="midnightblue" stroke="midnightblue" points="185.5,-438.29 176.07,-443.11 186.45,-445.23 185.5,-438.29"/>
</g>
<!-- Node16 -->
<g id="node16" class="node">
<title>Node16</title>
<g id="a_node16"><a xlink:href="class_http_fake_prov.html" target="_top" xlink:title="Check that basic device info sent by aktualizr during provisioning matches our expectations.">
<polygon fill="white" stroke="black" points="247.5,-380.5 247.5,-399.5 328.5,-399.5 328.5,-380.5 247.5,-380.5"/>
<text text-anchor="middle" x="288" y="-387.5" font-family="Helvetica,sans-Serif" font-size="10.00">HttpFakeProv</text>
</a>
</g>
</g>
<!-- Node1&#45;&gt;Node16 -->
<g id="edge15" class="edge">
<title>Node1&#45;&gt;Node16</title>
<path fill="none" stroke="midnightblue" d="M169.75,-431.76C181.82,-424.05 197.25,-415.07 212,-409 223.18,-404.4 235.77,-400.69 247.39,-397.81"/>
<polygon fill="midnightblue" stroke="midnightblue" points="167.69,-428.93 161.24,-437.34 171.53,-434.78 167.69,-428.93"/>
</g>
<!-- Node17 -->
<g id="node17" class="node">
<title>Node17</title>
<g id="a_node17"><a xlink:href="class_http_fake_put_counter.html" target="_top" xlink:title=" ">
<polygon fill="white" stroke="black" points="231.5,-342.5 231.5,-361.5 344.5,-361.5 344.5,-342.5 231.5,-342.5"/>
<text text-anchor="middle" x="288" y="-349.5" font-family="Helvetica,sans-Serif" font-size="10.00">HttpFakePutCounter</text>
</a>
</g>
</g>
<!-- Node1&#45;&gt;Node17 -->
<g id="edge16" class="edge">
<title>Node1&#45;&gt;Node17</title>
<path fill="none" stroke="midnightblue" d="M158.29,-428.68C169.52,-411.23 188.71,-385.53 212,-371 218.27,-367.09 225.31,-363.98 232.49,-361.52"/>
<polygon fill="midnightblue" stroke="midnightblue" points="155.17,-427.06 152.89,-437.41 161.13,-430.74 155.17,-427.06"/>
</g>
<!-- Node18 -->
<g id="node18" class="node">
<title>Node18</title>
<g id="a_node18"><a xlink:href="class_http_fake_registration.html" target="_top" xlink:title=" ">
<polygon fill="white" stroke="black" points="228.5,-304.5 228.5,-323.5 347.5,-323.5 347.5,-304.5 228.5,-304.5"/>
<text text-anchor="middle" x="288" y="-311.5" font-family="Helvetica,sans-Serif" font-size="10.00">HttpFakeRegistration</text>
</a>
</g>
</g>
<!-- Node1&#45;&gt;Node18 -->
<g id="edge17" class="edge">
<title>Node1&#45;&gt;Node18</title>
<path fill="none" stroke="midnightblue" d="M153.16,-427.62C161.66,-402 180.21,-357.27 212,-333 217.02,-329.17 222.72,-326.1 228.69,-323.65"/>
<polygon fill="midnightblue" stroke="midnightblue" points="149.77,-426.73 150.12,-437.32 156.45,-428.82 149.77,-426.73"/>
</g>
<!-- Node19 -->
<g id="node19" class="node">
<title>Node19</title>
<g id="a_node19"><a xlink:href="class_http_fake_rq.html" target="_top" xlink:title=" ">
<polygon fill="white" stroke="black" points="252,-266.5 252,-285.5 324,-285.5 324,-266.5 252,-266.5"/>
<text text-anchor="middle" x="288" y="-273.5" font-family="Helvetica,sans-Serif" font-size="10.00">HttpFakeRq</text>
</a>
</g>
</g>
<!-- Node1&#45;&gt;Node19 -->
<g id="edge18" class="edge">
<title>Node1&#45;&gt;Node19</title>
<path fill="none" stroke="midnightblue" d="M150.17,-427.41C155.65,-394.88 171.31,-329.89 212,-295 223.01,-285.56 238.08,-280.7 251.82,-278.24"/>
<polygon fill="midnightblue" stroke="midnightblue" points="146.68,-427.04 148.62,-437.45 153.6,-428.1 146.68,-427.04"/>
</g>
<!-- Node20 -->
<g id="node20" class="node">
<title>Node20</title>
<g id="a_node20"><a xlink:href="class_http_fake_split.html" target="_top" xlink:title=" ">
<polygon fill="white" stroke="black" points="247.5,-228.5 247.5,-247.5 328.5,-247.5 328.5,-228.5 247.5,-228.5"/>
<text text-anchor="middle" x="288" y="-235.5" font-family="Helvetica,sans-Serif" font-size="10.00">HttpFakeSplit</text>
</a>
</g>
</g>
<!-- Node1&#45;&gt;Node20 -->
<g id="edge19" class="edge">
<title>Node1&#45;&gt;Node20</title>
<path fill="none" stroke="midnightblue" d="M148.28,-427C150.92,-388.27 162.38,-302.84 212,-257 221.57,-248.16 234.66,-243.29 247.22,-240.65"/>
<polygon fill="midnightblue" stroke="midnightblue" points="144.77,-427.24 147.72,-437.42 151.76,-427.63 144.77,-427.24"/>
</g>
<!-- Node21 -->
<g id="node21" class="node">
<title>Node21</title>
<g id="a_node21"><a xlink:href="class_http_fake_unstable.html" target="_top" xlink:title=" ">
<polygon fill="white" stroke="black" points="236.5,-190.5 236.5,-209.5 339.5,-209.5 339.5,-190.5 236.5,-190.5"/>
<text text-anchor="middle" x="288" y="-197.5" font-family="Helvetica,sans-Serif" font-size="10.00">HttpFakeUnstable</text>
</a>
</g>
</g>
<!-- Node1&#45;&gt;Node21 -->
<g id="edge20" class="edge">
<title>Node1&#45;&gt;Node21</title>
<path fill="none" stroke="midnightblue" d="M146.94,-427.03C146.86,-382.86 153.14,-276.26 212,-219 218.74,-212.44 227.4,-208.05 236.43,-205.13"/>
<polygon fill="midnightblue" stroke="midnightblue" points="143.44,-427.12 147.08,-437.07 150.44,-427.02 143.44,-427.12"/>
</g>
<!-- Node22 -->
<g id="node22" class="node">
<title>Node22</title>
<g id="a_node22"><a xlink:href="class_http_put_manifest_fail.html" target="_top" xlink:title=" ">
<polygon fill="white" stroke="black" points="231.5,-152.5 231.5,-171.5 344.5,-171.5 344.5,-152.5 231.5,-152.5"/>
<text text-anchor="middle" x="288" y="-159.5" font-family="Helvetica,sans-Serif" font-size="10.00">HttpPutManifestFail</text>
</a>
</g>
</g>
<!-- Node1&#45;&gt;Node22 -->
<g id="edge21" class="edge">
<title>Node1&#45;&gt;Node22</title>
<path fill="none" stroke="midnightblue" d="M149.68,-427.06C156.16,-371.44 177.05,-216.31 212,-181 217.39,-175.56 224.09,-171.6 231.26,-168.73"/>
<polygon fill="midnightblue" stroke="midnightblue" points="146.16,-427.01 148.52,-437.34 153.12,-427.8 146.16,-427.01"/>
</g>
<!-- Node23 -->
<g id="node23" class="node">
<title>Node23</title>
<g id="a_node23"><a xlink:href="class_http_reject_empty_corr_id.html" target="_top" xlink:title=" ">
<polygon fill="white" stroke="black" points="223.5,-114.5 223.5,-133.5 352.5,-133.5 352.5,-114.5 223.5,-114.5"/>
<text text-anchor="middle" x="288" y="-121.5" font-family="Helvetica,sans-Serif" font-size="10.00">HttpRejectEmptyCorrId</text>
</a>
</g>
</g>
<!-- Node1&#45;&gt;Node23 -->
<g id="edge22" class="edge">
<title>Node1&#45;&gt;Node23</title>
<path fill="none" stroke="midnightblue" d="M149.03,-427.07C154.09,-366.19 172.3,-184.28 212,-143 215.63,-139.22 219.9,-136.16 224.52,-133.67"/>
<polygon fill="midnightblue" stroke="midnightblue" points="145.52,-427.02 148.21,-437.26 152.5,-427.58 145.52,-427.02"/>
</g>
<!-- Node24 -->
<g id="node24" class="node">
<title>Node24</title>
<g id="a_node24"><a xlink:href="class_http_system_info.html" target="_top" xlink:title=" ">
<polygon fill="white" stroke="black" points="241.5,-76.5 241.5,-95.5 334.5,-95.5 334.5,-76.5 241.5,-76.5"/>
<text text-anchor="middle" x="288" y="-83.5" font-family="Helvetica,sans-Serif" font-size="10.00">HttpSystemInfo</text>
</a>
</g>
</g>
<!-- Node1&#45;&gt;Node24 -->
<g id="edge23" class="edge">
<title>Node1&#45;&gt;Node24</title>
<path fill="none" stroke="midnightblue" d="M148.51,-427.21C152.24,-361.55 167.49,-152.34 212,-105 219.73,-96.78 230.46,-91.91 241.39,-89.07"/>
<polygon fill="midnightblue" stroke="midnightblue" points="145,-427.25 147.95,-437.42 151.99,-427.63 145,-427.25"/>
</g>
<!-- Node25 -->
<g id="node25" class="node">
<title>Node25</title>
<g id="a_node25"><a xlink:href="class_http_unstable.html" target="_top" xlink:title=" ">
<polygon fill="white" stroke="black" points="247.5,-38.5 247.5,-57.5 328.5,-57.5 328.5,-38.5 247.5,-38.5"/>
<text text-anchor="middle" x="288" y="-45.5" font-family="Helvetica,sans-Serif" font-size="10.00">HttpUnstable</text>
</a>
</g>
</g>
<!-- Node1&#45;&gt;Node25 -->
<g id="edge24" class="edge">
<title>Node1&#45;&gt;Node25</title>
<path fill="none" stroke="midnightblue" d="M148.09,-427.33C150.61,-357.16 162.66,-120.45 212,-67 221.02,-57.23 234.28,-52.17 247.15,-49.65"/>
<polygon fill="midnightblue" stroke="midnightblue" points="144.59,-427.33 147.76,-437.44 151.59,-427.56 144.59,-427.33"/>
</g>
<!-- Node26 -->
<g id="node26" class="node">
<title>Node26</title>
<g id="a_node26"><a xlink:href="class_http_zero_length.html" target="_top" xlink:title=" ">
<polygon fill="white" stroke="black" points="241.5,-0.5 241.5,-19.5 334.5,-19.5 334.5,-0.5 241.5,-0.5"/>
<text text-anchor="middle" x="288" y="-7.5" font-family="Helvetica,sans-Serif" font-size="10.00">HttpZeroLength</text>
</a>
</g>
</g>
<!-- Node1&#45;&gt;Node26 -->
<g id="edge25" class="edge">
<title>Node1&#45;&gt;Node26</title>
<path fill="none" stroke="midnightblue" d="M147.77,-426.85C149.18,-351.61 157.96,-88.43 212,-29 219.59,-20.65 230.27,-15.74 241.2,-12.9"/>
<polygon fill="midnightblue" stroke="midnightblue" points="144.26,-427.19 147.6,-437.25 151.26,-427.31 144.26,-427.19"/>
</g>
<!-- Node2 -->
<g id="node2" class="node">
<title>Node2</title>
<g id="a_node2"><a xlink:href="class_http_interface.html" target="_top" xlink:title=" ">
<polygon fill="white" stroke="black" points="0,-437.5 0,-456.5 81,-456.5 81,-437.5 0,-437.5"/>
<text text-anchor="middle" x="40.5" y="-444.5" font-family="Helvetica,sans-Serif" font-size="10.00">HttpInterface</text>
</a>
</g>
</g>
<!-- Node2&#45;&gt;Node1 -->
<g id="edge1" class="edge">
<title>Node2&#45;&gt;Node1</title>
<path fill="none" stroke="midnightblue" d="M91.35,-447C100.15,-447 109.03,-447 116.99,-447"/>
<polygon fill="midnightblue" stroke="midnightblue" points="91.11,-443.5 81.11,-447 91.11,-450.5 91.11,-443.5"/>
</g>
</g>
</svg>
        <g id="navigator" transform="translate(0 0)" fill="#404254">
                <rect fill="#f2f5e9" fill-opacity="0.5" stroke="#606060" stroke-width=".5" x="0" y="0" width="60" height="60"/>
                <use id="zoomplus" xlink:href="#zoomPlus" x="17" y="9" onmousedown="handleZoom(evt,'in')"/>
                <use id="zoomminus" xlink:href="#zoomMin" x="42" y="9" onmousedown="handleZoom(evt,'out')"/>
                <use id="reset" xlink:href="#resetDef" x="30" y="36" onmousedown="handleReset()"/>
                <g id="arrowUp" xlink:href="#dirArrow" transform="translate(30 24)" onmousedown="handlePan(0,-1)">
                  <use xlink:href="#rim" fill="#404040">
                        <set attributeName="fill" to="#808080" begin="arrowUp.mouseover" end="arrowUp.mouseout"/>
                  </use>
                  <path fill="none" stroke="white" stroke-width="1.5" d="M0,-3.0v7 M-2.5,-0.5L0,-3.0L2.5,-0.5"/>
                </g>
                <g id="arrowRight" xlink:href="#dirArrow" transform="rotate(90) translate(36 -43)" onmousedown="handlePan(1,0)">
                  <use xlink:href="#rim" fill="#404040">
                        <set attributeName="fill" to="#808080" begin="arrowRight.mouseover" end="arrowRight.mouseout"/>
                  </use>
                  <path fill="none" stroke="white" stroke-width="1.5" d="M0,-3.0v7 M-2.5,-0.5L0,-3.0L2.5,-0.5"/>
                </g>
                <g id="arrowDown" xlink:href="#dirArrow" transform="rotate(180) translate(-30 -48)" onmousedown="handlePan(0,1)">
                  <use xlink:href="#rim" fill="#404040">
                        <set attributeName="fill" to="#808080" begin="arrowDown.mouseover" end="arrowDown.mouseout"/>
                  </use>
                  <path fill="none" stroke="white" stroke-width="1.5" d="M0,-3.0v7 M-2.5,-0.5L0,-3.0L2.5,-0.5"/>
                </g>
                <g id="arrowLeft" xlink:href="#dirArrow" transform="rotate(270) translate(-36 17)" onmousedown="handlePan(-1,0)">
                  <use xlink:href="#rim" fill="#404040">
                        <set attributeName="fill" to="#808080" begin="arrowLeft.mouseover" end="arrowLeft.mouseout"/>
                  </use>
                  <path fill="none" stroke="white" stroke-width="1.5" d="M0,-3.0v7 M-2.5,-0.5L0,-3.0L2.5,-0.5"/>
                </g>
        </g>
        <svg viewBox="0 0 15 15" width="100%" height="30px" preserveAspectRatio="xMaxYMin meet">
         <g id="arrow_out" transform="scale(0.3 0.3)">
          <a xlink:href="class_http_fake__inherit__graph_org.svg" target="_base">
           <rect id="button" ry="5" rx="5" y="6" x="6" height="38" width="38"
                fill="#f2f5e9" fill-opacity="0.5" stroke="#606060" stroke-width="1.0"/>
           <path id="arrow"
             d="M 11.500037,31.436501 C 11.940474,20.09759 22.043105,11.32322 32.158766,21.979434 L 37.068811,17.246167 C 37.068811,17.246167 37.088388,32 37.088388,32 L 22.160133,31.978069 C 22.160133,31.978069 26.997745,27.140456 26.997745,27.140456 C 18.528582,18.264221 13.291696,25.230495 11.500037,31.436501 z"
             style="fill:#404040;"/>
          </a>
         </g>
        </svg>
</svg>
