<?xml version="1.0" encoding="UTF-8" standalone="no"?>
<!DOCTYPE svg PUBLIC "-//W3C//DTD SVG 1.1//EN"
 "http://www.w3.org/Graphics/SVG/1.1/DTD/svg11.dtd">
<!-- Generated by graphviz version 2.43.0 (0)
 -->
<!-- Title: SecondaryRpcUpgrade Pages: 1 -->
<!--zoomable 899 -->
<svg id="main" version="1.1" xmlns="http://www.w3.org/2000/svg" xmlns:xlink="http://www.w3.org/1999/xlink" xml:space="preserve" onload="init(evt)">
<style type="text/css"><![CDATA[
.edge:hover path { stroke: red; }
.edge:hover polygon { stroke: red; fill: red; }
]]></style>
<script type="text/javascript"><![CDATA[
var edges = document.getElementsByTagName('g');
if (edges && edges.length) {
  for (var i=0;i<edges.length;i++) {
    if (edges[i].id.substr(0,4)=='edge') {
      edges[i].setAttribute('class','edge');
    }
  }
}
]]></script>
        <defs>
                <circle id="rim" cx="0" cy="0" r="7"/>
                <circle id="rim2" cx="0" cy="0" r="3.5"/>
                <g id="zoomPlus">
                        <use xlink:href="#rim" fill="#404040">
                                <set attributeName="fill" to="#808080" begin="zoomplus.mouseover" end="zoomplus.mouseout"/>
                        </use>
                        <path d="M-4,0h8M0,-4v8" fill="none" stroke="white" stroke-width="1.5" pointer-events="none"/>
                </g>
                <g id="zoomMin">
                        <use xlink:href="#rim" fill="#404040">
                                <set attributeName="fill" to="#808080" begin="zoomminus.mouseover" end="zoomminus.mouseout"/>
                        </use>
                        <path d="M-4,0h8" fill="none" stroke="white" stroke-width="1.5" pointer-events="none"/>
                </g>
                <g id="dirArrow">
                        <path fill="none" stroke="white" stroke-width="1.5" d="M0,-3.0v7 M-2.5,-0.5L0,-3.0L2.5,-0.5"/>
                </g>
               <g id="resetDef">
                       <use xlink:href="#rim2" fill="#404040">
                               <set attributeName="fill" to="#808080" begin="reset.mouseover" end="reset.mouseout"/>
                       </use>
               </g>
        </defs>

<script type="text/javascript">
var viewWidth = 1914;
var viewHeight = 899;
var sectionId = 'dynsection-1';
</script>
<script xlink:href="svgpan.js"/>
<svg id="graph" class="graph">
<g id="viewport">
<title>SecondaryRpcUpgrade</title>
<polygon fill="white" stroke="transparent" points="-4,4 -4,-894.64 1910,-894.64 1910,4 -4,4"/>
<!-- Node1 -->
<g id="node1" class="node">
<title>Node1</title>
<g id="a_node1"><a xlink:title=" ">
<polygon fill="#bfbfbf" stroke="black" points="1779,-237.14 1779,-256.14 1906,-256.14 1906,-237.14 1779,-237.14"/>
<text text-anchor="middle" x="1842.5" y="-244.14" font-family="Helvetica,sans-Serif" font-size="10.00">SecondaryRpcUpgrade</text>
</a>
</g>
</g>
<!-- Node2 -->
<g id="node2" class="node">
<title>Node2</title>
<g id="a_node2"><a xlink:href="class_secondary_rpc_common.html" target="_top" xlink:title=" ">
<polygon fill="white" stroke="black" points="1612,-237.14 1612,-256.14 1742,-256.14 1742,-237.14 1612,-237.14"/>
<text text-anchor="middle" x="1677" y="-244.14" font-family="Helvetica,sans-Serif" font-size="10.00">SecondaryRpcCommon</text>
</a>
</g>
</g>
<!-- Node2&#45;&gt;Node1 -->
<g id="edge1" class="edge">
<title>Node2&#45;&gt;Node1</title>
<path fill="none" stroke="midnightblue" d="M1752.16,-246.64C1761.08,-246.64 1770.13,-246.64 1778.87,-246.64"/>
<polygon fill="midnightblue" stroke="midnightblue" points="1752.15,-243.14 1742.15,-246.64 1752.15,-250.14 1752.15,-243.14"/>
</g>
<!-- Node3 -->
<g id="node3" class="node">
<title>Node3</title>
<g id="a_node3"><a xlink:title=" ">
<polygon fill="white" stroke="#bfbfbf" points="1350,-787.14 1350,-806.14 1386,-806.14 1386,-787.14 1350,-787.14"/>
<text text-anchor="middle" x="1368" y="-794.14" font-family="Helvetica,sans-Serif" font-size="10.00">Test</text>
</a>
</g>
</g>
<!-- Node3&#45;&gt;Node2 -->
<g id="edge2" class="edge">
<title>Node3&#45;&gt;Node2</title>
<path fill="none" stroke="midnightblue" d="M1396.28,-803.12C1443.44,-812.55 1540.3,-823.8 1594,-772.64 1672.12,-698.21 1675.95,-321.95 1676.02,-256.39"/>
<polygon fill="midnightblue" stroke="midnightblue" points="1396.71,-799.63 1386.2,-800.98 1395.26,-806.48 1396.71,-799.63"/>
</g>
<!-- Node4 -->
<g id="node4" class="node">
<title>Node4</title>
<g id="a_node4"><a xlink:href="class_config.html" target="_top" xlink:title="Configuration object for an aktualizr instance running on a Primary ECU.">
<polygon fill="white" stroke="black" points="1115,-410.14 1115,-429.14 1162,-429.14 1162,-410.14 1115,-410.14"/>
<text text-anchor="middle" x="1138.5" y="-417.14" font-family="Helvetica,sans-Serif" font-size="10.00">Config</text>
</a>
</g>
</g>
<!-- Node4&#45;&gt;Node2 -->
<g id="edge3" class="edge">
<title>Node4&#45;&gt;Node2</title>
<path fill="none" stroke="#9a32cd" stroke-dasharray="5,2" d="M1172.8,-425.07C1252.29,-436.24 1456.75,-454.21 1594,-370.64 1639.19,-343.12 1664.59,-280.16 1672.91,-256.16"/>
<polygon fill="#9a32cd" stroke="#9a32cd" points="1172.83,-421.53 1162.43,-423.55 1171.81,-428.46 1172.83,-421.53"/>
<text text-anchor="middle" x="1368" y="-437.64" font-family="Helvetica,sans-Serif" font-size="10.00"> config_</text>
</g>
<!-- Node5 -->
<g id="node5" class="node">
<title>Node5</title>
<g id="a_node5"><a xlink:href="class_base_config.html" target="_top" xlink:title="The BaseConfig class.">
<polygon fill="white" stroke="black" points="809.5,-417.14 809.5,-436.14 880.5,-436.14 880.5,-417.14 809.5,-417.14"/>
<text text-anchor="middle" x="845" y="-424.14" font-family="Helvetica,sans-Serif" font-size="10.00">BaseConfig</text>
</a>
</g>
</g>
<!-- Node5&#45;&gt;Node4 -->
<g id="edge4" class="edge">
<title>Node5&#45;&gt;Node4</title>
<path fill="none" stroke="midnightblue" d="M890.63,-425.56C953.67,-424.05 1066.47,-421.34 1114.66,-420.18"/>
<polygon fill="midnightblue" stroke="midnightblue" points="890.5,-422.07 880.58,-425.81 890.66,-429.06 890.5,-422.07"/>
</g>
<!-- Node6 -->
<g id="node6" class="node">
<title>Node6</title>
<g id="a_node6"><a xlink:title=" ">
<polygon fill="white" stroke="#bfbfbf" points="502.5,-433.64 502.5,-463.64 615.5,-463.64 615.5,-433.64 502.5,-433.64"/>
<text text-anchor="start" x="510.5" y="-451.64" font-family="Helvetica,sans-Serif" font-size="10.00">std::vector&lt; boost</text>
<text text-anchor="middle" x="559" y="-440.64" font-family="Helvetica,sans-Serif" font-size="10.00">::filesystem::path &gt;</text>
</a>
</g>
</g>
<!-- Node6&#45;&gt;Node5 -->
<g id="edge5" class="edge">
<title>Node6&#45;&gt;Node5</title>
<path fill="none" stroke="#9a32cd" stroke-dasharray="5,2" d="M625.82,-443.54C683.11,-439.1 763.88,-432.84 809.36,-429.32"/>
<polygon fill="#9a32cd" stroke="#9a32cd" points="625.47,-440.05 615.77,-444.32 626.01,-447.03 625.47,-440.05"/>
<text text-anchor="middle" x="688.5" y="-444.64" font-family="Helvetica,sans-Serif" font-size="10.00"> config_dirs_</text>
</g>
<!-- Node7 -->
<g id="node7" class="node">
<title>Node7</title>
<g id="a_node7"><a xlink:href="struct_storage_config.html" target="_top" xlink:title=" ">
<polygon fill="white" stroke="black" points="263,-147.14 263,-166.14 348,-166.14 348,-147.14 263,-147.14"/>
<text text-anchor="middle" x="305.5" y="-154.14" font-family="Helvetica,sans-Serif" font-size="10.00">StorageConfig</text>
</a>
</g>
</g>
<!-- Node7&#45;&gt;Node4 -->
<g id="edge6" class="edge">
<title>Node7&#45;&gt;Node4</title>
<path fill="none" stroke="#9a32cd" stroke-dasharray="5,2" d="M358.21,-164.24C396.71,-169.76 450.57,-177.18 498,-182.64 559.21,-189.67 1006.28,-200.25 1049,-244.64 1088.53,-285.71 1036.87,-323.24 1067,-371.64 1078.19,-389.61 1098.88,-402.48 1114.96,-410.34"/>
<polygon fill="#9a32cd" stroke="#9a32cd" points="358.67,-160.77 348.28,-162.81 357.68,-167.7 358.67,-160.77"/>
<text text-anchor="middle" x="688.5" y="-198.64" font-family="Helvetica,sans-Serif" font-size="10.00"> storage</text>
</g>
<!-- Node22 -->
<g id="node22" class="node">
<title>Node22</title>
<g id="a_node22"><a xlink:href="class_i_nv_storage.html" target="_top" xlink:title=" ">
<polygon fill="white" stroke="black" points="523.5,-116.14 523.5,-135.14 594.5,-135.14 594.5,-116.14 523.5,-116.14"/>
<text text-anchor="middle" x="559" y="-123.14" font-family="Helvetica,sans-Serif" font-size="10.00">INvStorage</text>
</a>
</g>
</g>
<!-- Node7&#45;&gt;Node22 -->
<g id="edge29" class="edge">
<title>Node7&#45;&gt;Node22</title>
<path fill="none" stroke="#9a32cd" stroke-dasharray="5,2" d="M358.18,-150.27C407.54,-144.18 480.55,-135.18 523.3,-129.91"/>
<polygon fill="#9a32cd" stroke="#9a32cd" points="357.53,-146.82 348.03,-151.52 358.38,-153.77 357.53,-146.82"/>
<text text-anchor="middle" x="424" y="-150.64" font-family="Helvetica,sans-Serif" font-size="10.00"> config_</text>
</g>
<!-- Node8 -->
<g id="node8" class="node">
<title>Node8</title>
<g id="a_node8"><a xlink:href="classutils_1_1_based_path.html" target="_top" xlink:title="The BasedPath class Can represent an absolute or relative path, only readable through the BasePath::g...">
<polygon fill="white" stroke="black" points="4.5,-201.14 4.5,-220.14 99.5,-220.14 99.5,-201.14 4.5,-201.14"/>
<text text-anchor="middle" x="52" y="-208.14" font-family="Helvetica,sans-Serif" font-size="10.00">utils::BasedPath</text>
</a>
</g>
</g>
<!-- Node8&#45;&gt;Node7 -->
<g id="edge7" class="edge">
<title>Node8&#45;&gt;Node7</title>
<path fill="none" stroke="#9a32cd" stroke-dasharray="5,2" d="M68.21,-193.37C81.04,-180.2 100.68,-163.09 122,-155.64 168.21,-139.47 225.11,-143.18 262.97,-148.67"/>
<polygon fill="#9a32cd" stroke="#9a32cd" points="65.41,-191.24 61.14,-200.94 70.53,-196.01 65.41,-191.24"/>
<text text-anchor="middle" x="182.5" y="-235.64" font-family="Helvetica,sans-Serif" font-size="10.00"> uptane_public_key_path</text>
<text text-anchor="middle" x="182.5" y="-224.64" font-family="Helvetica,sans-Serif" font-size="10.00">tls_pkey_path</text>
<text text-anchor="middle" x="182.5" y="-213.64" font-family="Helvetica,sans-Serif" font-size="10.00">uptane_metadata_path</text>
<text text-anchor="middle" x="182.5" y="-202.64" font-family="Helvetica,sans-Serif" font-size="10.00">sqldb_path</text>
<text text-anchor="start" x="122" y="-191.64" font-family="Helvetica,sans-Serif" font-size="10.00">uptane_private_key</text>
<text text-anchor="middle" x="182.5" y="-180.64" font-family="Helvetica,sans-Serif" font-size="10.00">_path</text>
<text text-anchor="middle" x="182.5" y="-169.64" font-family="Helvetica,sans-Serif" font-size="10.00">tls_cacert_path</text>
<text text-anchor="middle" x="182.5" y="-158.64" font-family="Helvetica,sans-Serif" font-size="10.00">tls_clientcert_path</text>
</g>
<!-- Node19 -->
<g id="node19" class="node">
<title>Node19</title>
<g id="a_node19"><a xlink:href="struct_import_config.html" target="_top" xlink:title=" ">
<polygon fill="white" stroke="black" points="384,-225.14 384,-244.14 464,-244.14 464,-225.14 384,-225.14"/>
<text text-anchor="middle" x="424" y="-232.14" font-family="Helvetica,sans-Serif" font-size="10.00">ImportConfig</text>
</a>
</g>
</g>
<!-- Node8&#45;&gt;Node19 -->
<g id="edge24" class="edge">
<title>Node8&#45;&gt;Node19</title>
<path fill="none" stroke="#9a32cd" stroke-dasharray="5,2" d="M76.59,-225.16C89.49,-232.25 106.06,-240.02 122,-243.64 214.03,-264.51 325.92,-251.47 383.91,-241.97"/>
<polygon fill="#9a32cd" stroke="#9a32cd" points="78.32,-222.11 67.9,-220.18 74.84,-228.19 78.32,-222.11"/>
<text text-anchor="middle" x="182.5" y="-312.64" font-family="Helvetica,sans-Serif" font-size="10.00"> uptane_public_key_path</text>
<text text-anchor="middle" x="182.5" y="-301.64" font-family="Helvetica,sans-Serif" font-size="10.00">tls_pkey_path</text>
<text text-anchor="start" x="122" y="-290.64" font-family="Helvetica,sans-Serif" font-size="10.00">uptane_private_key</text>
<text text-anchor="middle" x="182.5" y="-279.64" font-family="Helvetica,sans-Serif" font-size="10.00">_path</text>
<text text-anchor="middle" x="182.5" y="-268.64" font-family="Helvetica,sans-Serif" font-size="10.00">tls_cacert_path</text>
<text text-anchor="middle" x="182.5" y="-257.64" font-family="Helvetica,sans-Serif" font-size="10.00">tls_clientcert_path</text>
</g>
<!-- Node9 -->
<g id="node9" class="node">
<title>Node9</title>
<g id="a_node9"><a xlink:href="struct_tls_config.html" target="_top" xlink:title=" ">
<polygon fill="white" stroke="black" points="657.5,-378.14 657.5,-397.14 719.5,-397.14 719.5,-378.14 657.5,-378.14"/>
<text text-anchor="middle" x="688.5" y="-385.14" font-family="Helvetica,sans-Serif" font-size="10.00">TlsConfig</text>
</a>
</g>
</g>
<!-- Node9&#45;&gt;Node4 -->
<g id="edge8" class="edge">
<title>Node9&#45;&gt;Node4</title>
<path fill="none" stroke="#9a32cd" stroke-dasharray="5,2" d="M715.49,-373.53C727.71,-367.68 742.71,-361.58 757,-358.64 884.97,-332.31 923.82,-355.2 1049,-392.64 1071.47,-399.36 1097.09,-407.19 1114.97,-412.69"/>
<polygon fill="#9a32cd" stroke="#9a32cd" points="713.72,-370.5 706.35,-378.11 716.86,-376.76 713.72,-370.5"/>
<text text-anchor="middle" x="845" y="-361.64" font-family="Helvetica,sans-Serif" font-size="10.00"> tls</text>
</g>
<!-- Node10 -->
<g id="node10" class="node">
<title>Node10</title>
<g id="a_node10"><a xlink:title="STL class.">
<polygon fill="white" stroke="#bfbfbf" points="273,-476.14 273,-495.14 338,-495.14 338,-476.14 273,-476.14"/>
<text text-anchor="middle" x="305.5" y="-483.14" font-family="Helvetica,sans-Serif" font-size="10.00">std::string</text>
</a>
</g>
</g>
<!-- Node10&#45;&gt;Node2 -->
<g id="edge40" class="edge">
<title>Node10&#45;&gt;Node2</title>
<path fill="none" stroke="#9a32cd" stroke-dasharray="5,2" d="M308.33,-505.47C313.79,-560.04 331.9,-710.47 368,-741.64 432.18,-797.04 473.22,-758.64 558,-758.64 558,-758.64 558,-758.64 1369,-758.64 1612.56,-758.64 1667.66,-327.19 1675.06,-256.41"/>
<polygon fill="#9a32cd" stroke="#9a32cd" points="311.8,-504.97 307.35,-495.35 304.83,-505.64 311.8,-504.97"/>
<text text-anchor="middle" x="1000" y="-882.64" font-family="Helvetica,sans-Serif" font-size="10.00"> image_timestamp_</text>
<text text-anchor="middle" x="1000" y="-871.64" font-family="Helvetica,sans-Serif" font-size="10.00">image_snapshot_</text>
<text text-anchor="middle" x="1000" y="-860.64" font-family="Helvetica,sans-Serif" font-size="10.00">director_targets_</text>
<text text-anchor="middle" x="1000" y="-849.64" font-family="Helvetica,sans-Serif" font-size="10.00">director_root_</text>
<text text-anchor="middle" x="1000" y="-838.64" font-family="Helvetica,sans-Serif" font-size="10.00">server_</text>
<text text-anchor="middle" x="1000" y="-827.64" font-family="Helvetica,sans-Serif" font-size="10.00">cert_</text>
<text text-anchor="middle" x="1000" y="-816.64" font-family="Helvetica,sans-Serif" font-size="10.00">image_root_</text>
<text text-anchor="start" x="951" y="-805.64" font-family="Helvetica,sans-Serif" font-size="10.00">image_targets</text>
<text text-anchor="middle" x="1000" y="-794.64" font-family="Helvetica,sans-Serif" font-size="10.00">_</text>
<text text-anchor="middle" x="1000" y="-783.64" font-family="Helvetica,sans-Serif" font-size="10.00">pkey_</text>
<text text-anchor="middle" x="1000" y="-772.64" font-family="Helvetica,sans-Serif" font-size="10.00">ca_</text>
<text text-anchor="middle" x="1000" y="-761.64" font-family="Helvetica,sans-Serif" font-size="10.00">...</text>
</g>
<!-- Node10&#45;&gt;Node9 -->
<g id="edge9" class="edge">
<title>Node10&#45;&gt;Node9</title>
<path fill="none" stroke="#9a32cd" stroke-dasharray="5,2" d="M342.83,-472.68C381.08,-459.36 443.23,-438.66 498,-424.64 553.69,-410.38 619.81,-398.62 657.39,-392.41"/>
<polygon fill="#9a32cd" stroke="#9a32cd" points="341.45,-469.45 333.17,-476.06 343.77,-476.06 341.45,-469.45"/>
<text text-anchor="middle" x="424" y="-465.64" font-family="Helvetica,sans-Serif" font-size="10.00"> server</text>
</g>
<!-- Node13 -->
<g id="node13" class="node">
<title>Node13</title>
<g id="a_node13"><a xlink:href="struct_package_config.html" target="_top" xlink:title=" ">
<polygon fill="white" stroke="black" points="801.5,-290.14 801.5,-309.14 888.5,-309.14 888.5,-290.14 801.5,-290.14"/>
<text text-anchor="middle" x="845" y="-297.14" font-family="Helvetica,sans-Serif" font-size="10.00">PackageConfig</text>
</a>
</g>
</g>
<!-- Node10&#45;&gt;Node13 -->
<g id="edge15" class="edge">
<title>Node10&#45;&gt;Node13</title>
<path fill="none" stroke="#9a32cd" stroke-dasharray="5,2" d="M309.25,-465.62C314.66,-434.17 329.68,-373.39 368,-340.64 407,-307.3 431.88,-330.44 480,-312.64 488.39,-309.53 489.31,-305.74 498,-303.64 604.7,-277.8 735.38,-286.81 801.44,-294.08"/>
<polygon fill="#9a32cd" stroke="#9a32cd" points="305.75,-465.36 307.67,-475.78 312.67,-466.43 305.75,-465.36"/>
<text text-anchor="middle" x="559" y="-328.64" font-family="Helvetica,sans-Serif" font-size="10.00"> os</text>
<text text-anchor="middle" x="559" y="-317.64" font-family="Helvetica,sans-Serif" font-size="10.00">ostree_server</text>
<text text-anchor="middle" x="559" y="-306.64" font-family="Helvetica,sans-Serif" font-size="10.00">type</text>
</g>
<!-- Node14 -->
<g id="node14" class="node">
<title>Node14</title>
<g id="a_node14"><a xlink:title=" ">
<polygon fill="white" stroke="#bfbfbf" points="498,-345.64 498,-375.64 620,-375.64 620,-345.64 498,-345.64"/>
<text text-anchor="start" x="506" y="-363.64" font-family="Helvetica,sans-Serif" font-size="10.00">std::map&lt; std::string,</text>
<text text-anchor="middle" x="559" y="-352.64" font-family="Helvetica,sans-Serif" font-size="10.00"> std::string &gt;</text>
</a>
</g>
</g>
<!-- Node10&#45;&gt;Node14 -->
<g id="edge14" class="edge">
<title>Node10&#45;&gt;Node14</title>
<path fill="none" stroke="#9a32cd" stroke-dasharray="5,2" d="M309.68,-465.68C315.48,-436.66 330.84,-383.77 368,-360.64 407.21,-336.23 460.35,-338.52 500.47,-345.6"/>
<polygon fill="#9a32cd" stroke="#9a32cd" points="306.17,-465.39 307.84,-475.85 313.06,-466.63 306.17,-465.39"/>
<text text-anchor="middle" x="424" y="-374.64" font-family="Helvetica,sans-Serif" font-size="10.00"> keys</text>
<text text-anchor="middle" x="424" y="-363.64" font-family="Helvetica,sans-Serif" font-size="10.00">elements</text>
</g>
<!-- Node15 -->
<g id="node15" class="node">
<title>Node15</title>
<g id="a_node15"><a xlink:href="struct_provision_config.html" target="_top" xlink:title=" ">
<polygon fill="white" stroke="black" points="642.5,-639.14 642.5,-658.14 734.5,-658.14 734.5,-639.14 642.5,-639.14"/>
<text text-anchor="middle" x="688.5" y="-646.14" font-family="Helvetica,sans-Serif" font-size="10.00">ProvisionConfig</text>
</a>
</g>
</g>
<!-- Node10&#45;&gt;Node15 -->
<g id="edge17" class="edge">
<title>Node10&#45;&gt;Node15</title>
<path fill="none" stroke="#9a32cd" stroke-dasharray="5,2" d="M309.03,-505.3C314.13,-536.06 328.74,-594.9 368,-622.64 389.87,-638.09 559.51,-645 642.32,-647.48"/>
<polygon fill="#9a32cd" stroke="#9a32cd" points="312.48,-504.73 307.55,-495.35 305.56,-505.76 312.48,-504.73"/>
<text text-anchor="middle" x="424" y="-729.64" font-family="Helvetica,sans-Serif" font-size="10.00"> server</text>
<text text-anchor="middle" x="424" y="-718.64" font-family="Helvetica,sans-Serif" font-size="10.00">p12_password</text>
<text text-anchor="start" x="368" y="-707.64" font-family="Helvetica,sans-Serif" font-size="10.00">primary_ecu_hardware</text>
<text text-anchor="middle" x="424" y="-696.64" font-family="Helvetica,sans-Serif" font-size="10.00">_id</text>
<text text-anchor="middle" x="424" y="-685.64" font-family="Helvetica,sans-Serif" font-size="10.00">expiry_days</text>
<text text-anchor="middle" x="424" y="-674.64" font-family="Helvetica,sans-Serif" font-size="10.00">device_id</text>
<text text-anchor="start" x="368" y="-663.64" font-family="Helvetica,sans-Serif" font-size="10.00">ecu_registration</text>
<text text-anchor="middle" x="424" y="-652.64" font-family="Helvetica,sans-Serif" font-size="10.00">_endpoint</text>
<text text-anchor="middle" x="424" y="-641.64" font-family="Helvetica,sans-Serif" font-size="10.00">primary_ecu_serial</text>
</g>
<!-- Node16 -->
<g id="node16" class="node">
<title>Node16</title>
<g id="a_node16"><a xlink:href="struct_p11_config.html" target="_top" xlink:title=" ">
<polygon fill="white" stroke="black" points="656,-559.14 656,-578.14 721,-578.14 721,-559.14 656,-559.14"/>
<text text-anchor="middle" x="688.5" y="-566.14" font-family="Helvetica,sans-Serif" font-size="10.00">P11Config</text>
</a>
</g>
</g>
<!-- Node10&#45;&gt;Node16 -->
<g id="edge19" class="edge">
<title>Node10&#45;&gt;Node16</title>
<path fill="none" stroke="#9a32cd" stroke-dasharray="5,2" d="M321.49,-502.95C332.93,-514.9 349.79,-529.95 368,-537.64 466.33,-579.13 596.33,-575.89 655.6,-571.63"/>
<polygon fill="#9a32cd" stroke="#9a32cd" points="323.83,-500.32 314.49,-495.31 318.67,-505.05 323.83,-500.32"/>
<text text-anchor="middle" x="424" y="-612.64" font-family="Helvetica,sans-Serif" font-size="10.00"> tls_pkey_id</text>
<text text-anchor="middle" x="424" y="-601.64" font-family="Helvetica,sans-Serif" font-size="10.00">tls_clientcert_id</text>
<text text-anchor="middle" x="424" y="-590.64" font-family="Helvetica,sans-Serif" font-size="10.00">pass</text>
<text text-anchor="middle" x="424" y="-579.64" font-family="Helvetica,sans-Serif" font-size="10.00">uptane_key_id</text>
<text text-anchor="middle" x="424" y="-568.64" font-family="Helvetica,sans-Serif" font-size="10.00">tls_cacert_id</text>
</g>
<!-- Node17 -->
<g id="node17" class="node">
<title>Node17</title>
<g id="a_node17"><a xlink:href="struct_uptane_config.html" target="_top" xlink:title=" ">
<polygon fill="white" stroke="black" points="647,-474.14 647,-493.14 730,-493.14 730,-474.14 647,-474.14"/>
<text text-anchor="middle" x="688.5" y="-481.14" font-family="Helvetica,sans-Serif" font-size="10.00">UptaneConfig</text>
</a>
</g>
</g>
<!-- Node10&#45;&gt;Node17 -->
<g id="edge21" class="edge">
<title>Node10&#45;&gt;Node17</title>
<path fill="none" stroke="#9a32cd" stroke-dasharray="5,2" d="M348.29,-485.42C421.98,-485.03 574.1,-484.23 646.92,-483.85"/>
<polygon fill="#9a32cd" stroke="#9a32cd" points="347.98,-481.92 338,-485.47 348.02,-488.92 347.98,-481.92"/>
<text text-anchor="middle" x="424" y="-498.64" font-family="Helvetica,sans-Serif" font-size="10.00"> repo_server</text>
<text text-anchor="middle" x="424" y="-487.64" font-family="Helvetica,sans-Serif" font-size="10.00">director_server</text>
</g>
<!-- Node20 -->
<g id="node20" class="node">
<title>Node20</title>
<g id="a_node20"><a xlink:href="struct_bootloader_config.html" target="_top" xlink:title=" ">
<polygon fill="white" stroke="black" points="638,-515.14 638,-534.14 739,-534.14 739,-515.14 638,-515.14"/>
<text text-anchor="middle" x="688.5" y="-522.14" font-family="Helvetica,sans-Serif" font-size="10.00">BootloaderConfig</text>
</a>
</g>
</g>
<!-- Node10&#45;&gt;Node20 -->
<g id="edge26" class="edge">
<title>Node10&#45;&gt;Node20</title>
<path fill="none" stroke="#9a32cd" stroke-dasharray="5,2" d="M336.45,-498.94C346.31,-502.75 357.45,-506.45 368,-508.64 461.95,-528.07 574.59,-528.56 637.92,-526.83"/>
<polygon fill="#9a32cd" stroke="#9a32cd" points="337.67,-495.66 327.09,-495.16 335.05,-502.15 337.67,-495.66"/>
<text text-anchor="middle" x="424" y="-525.64" font-family="Helvetica,sans-Serif" font-size="10.00"> reboot_command</text>
</g>
<!-- Node28 -->
<g id="node28" class="node">
<title>Node28</title>
<g id="a_node28"><a xlink:href="class_secondary_mock.html" target="_top" xlink:title=" ">
<polygon fill="white" stroke="black" points="512,-154.14 512,-173.14 606,-173.14 606,-154.14 512,-154.14"/>
<text text-anchor="middle" x="559" y="-161.14" font-family="Helvetica,sans-Serif" font-size="10.00">SecondaryMock</text>
</a>
</g>
</g>
<!-- Node10&#45;&gt;Node28 -->
<g id="edge38" class="edge">
<title>Node10&#45;&gt;Node28</title>
<path fill="none" stroke="#9a32cd" stroke-dasharray="5,2" d="M305.8,-465.9C305.43,-423.15 310.97,-321.61 368,-268.64 405.23,-234.05 435.56,-270.29 480,-245.64 512.82,-227.43 540.08,-190.75 551.81,-173.29"/>
<polygon fill="#9a32cd" stroke="#9a32cd" points="302.3,-466.16 306.01,-476.09 309.3,-466.02 302.3,-466.16"/>
<text text-anchor="middle" x="424" y="-304.64" font-family="Helvetica,sans-Serif" font-size="10.00"> upload_data_failure</text>
<text text-anchor="middle" x="424" y="-293.64" font-family="Helvetica,sans-Serif" font-size="10.00">verification_failure</text>
<text text-anchor="middle" x="424" y="-282.64" font-family="Helvetica,sans-Serif" font-size="10.00">ostree_failure</text>
<text text-anchor="middle" x="424" y="-271.64" font-family="Helvetica,sans-Serif" font-size="10.00">installation_failure</text>
</g>
<!-- Node11 -->
<g id="node11" class="node">
<title>Node11</title>
<g id="a_node11"><a xlink:title="STL class.">
<polygon fill="white" stroke="#bfbfbf" points="0,-470.64 0,-500.64 104,-500.64 104,-470.64 0,-470.64"/>
<text text-anchor="start" x="8" y="-488.64" font-family="Helvetica,sans-Serif" font-size="10.00">std::basic_string&lt;</text>
<text text-anchor="middle" x="52" y="-477.64" font-family="Helvetica,sans-Serif" font-size="10.00"> char &gt;</text>
</a>
</g>
</g>
<!-- Node11&#45;&gt;Node10 -->
<g id="edge10" class="edge">
<title>Node11&#45;&gt;Node10</title>
<path fill="none" stroke="midnightblue" d="M114.27,-485.64C164.37,-485.64 233.2,-485.64 272.85,-485.64"/>
<polygon fill="midnightblue" stroke="midnightblue" points="114.2,-482.14 104.2,-485.64 114.2,-489.14 114.2,-482.14"/>
</g>
<!-- Node12 -->
<g id="node12" class="node">
<title>Node12</title>
<g id="a_node12"><a xlink:href="struct_logger_config.html" target="_top" xlink:title=" ">
<polygon fill="white" stroke="black" points="805,-596.14 805,-615.14 885,-615.14 885,-596.14 805,-596.14"/>
<text text-anchor="middle" x="845" y="-603.14" font-family="Helvetica,sans-Serif" font-size="10.00">LoggerConfig</text>
</a>
</g>
</g>
<!-- Node12&#45;&gt;Node4 -->
<g id="edge11" class="edge">
<title>Node12&#45;&gt;Node4</title>
<path fill="none" stroke="#9a32cd" stroke-dasharray="5,2" d="M895.31,-611.49C939.34,-614.13 1003.68,-611.33 1049,-580.64 1104.72,-542.89 1128.71,-457.99 1135.42,-429.31"/>
<polygon fill="#9a32cd" stroke="#9a32cd" points="895.36,-607.99 885.14,-610.76 894.86,-614.97 895.36,-607.99"/>
<text text-anchor="middle" x="1000" y="-612.64" font-family="Helvetica,sans-Serif" font-size="10.00"> logger</text>
</g>
<!-- Node13&#45;&gt;Node4 -->
<g id="edge12" class="edge">
<title>Node13&#45;&gt;Node4</title>
<path fill="none" stroke="#9a32cd" stroke-dasharray="5,2" d="M898.93,-292.15C943.54,-288.83 1006.7,-291.55 1049,-324.64 1066.62,-338.42 1053.12,-354.09 1067,-371.64 1080.41,-388.59 1101.46,-401.82 1117.07,-410.06"/>
<polygon fill="#9a32cd" stroke="#9a32cd" points="898.52,-288.67 888.86,-293.02 899.12,-295.64 898.52,-288.67"/>
<text text-anchor="middle" x="1000" y="-327.64" font-family="Helvetica,sans-Serif" font-size="10.00"> pacman</text>
</g>
<!-- Node34 -->
<g id="node34" class="node">
<title>Node34</title>
<g id="a_node34"><a xlink:href="class_package_manager_interface.html" target="_top" xlink:title=" ">
<polygon fill="white" stroke="black" points="1067,-155.14 1067,-174.14 1210,-174.14 1210,-155.14 1067,-155.14"/>
<text text-anchor="middle" x="1138.5" y="-162.14" font-family="Helvetica,sans-Serif" font-size="10.00">PackageManagerInterface</text>
</a>
</g>
</g>
<!-- Node13&#45;&gt;Node34 -->
<g id="edge45" class="edge">
<title>Node13&#45;&gt;Node34</title>
<path fill="none" stroke="#9a32cd" stroke-dasharray="5,2" d="M876.19,-285.66C935.52,-258.18 1065.98,-197.76 1116.73,-174.26"/>
<polygon fill="#9a32cd" stroke="#9a32cd" points="874.57,-282.55 866.96,-289.93 877.51,-288.9 874.57,-282.55"/>
<text text-anchor="middle" x="1000" y="-250.64" font-family="Helvetica,sans-Serif" font-size="10.00"> config</text>
</g>
<!-- Node14&#45;&gt;Node13 -->
<g id="edge13" class="edge">
<title>Node14&#45;&gt;Node13</title>
<path fill="none" stroke="#9a32cd" stroke-dasharray="5,2" d="M630.03,-345.6C683.72,-334.06 756.09,-318.52 801.39,-308.79"/>
<polygon fill="#9a32cd" stroke="#9a32cd" points="629.27,-342.18 620.23,-347.7 630.74,-349.02 629.27,-342.18"/>
<text text-anchor="middle" x="688.5" y="-344.64" font-family="Helvetica,sans-Serif" font-size="10.00"> extra</text>
</g>
<!-- Node15&#45;&gt;Node4 -->
<g id="edge16" class="edge">
<title>Node15&#45;&gt;Node4</title>
<path fill="none" stroke="#9a32cd" stroke-dasharray="5,2" d="M738.72,-660.2C813.25,-674.71 955.92,-690.38 1049,-624.64 1117.39,-576.33 1133.38,-463.6 1136.7,-429.55"/>
<polygon fill="#9a32cd" stroke="#9a32cd" points="739.16,-656.72 728.67,-658.17 737.77,-663.58 739.16,-656.72"/>
<text text-anchor="middle" x="845" y="-675.64" font-family="Helvetica,sans-Serif" font-size="10.00"> provision</text>
</g>
<!-- Node16&#45;&gt;Node4 -->
<g id="edge18" class="edge">
<title>Node16&#45;&gt;Node4</title>
<path fill="none" stroke="#9a32cd" stroke-dasharray="5,2" d="M731.37,-565.59C780.4,-561.3 863.73,-551.77 933,-532.64 986.78,-517.78 1000.38,-512.02 1049,-484.64 1078.73,-467.89 1110.15,-442.78 1126.37,-429.2"/>
<polygon fill="#9a32cd" stroke="#9a32cd" points="730.82,-562.12 721.15,-566.45 731.4,-569.1 730.82,-562.12"/>
<text text-anchor="middle" x="845" y="-565.64" font-family="Helvetica,sans-Serif" font-size="10.00"> p11</text>
</g>
<!-- Node17&#45;&gt;Node4 -->
<g id="edge20" class="edge">
<title>Node17&#45;&gt;Node4</title>
<path fill="none" stroke="#9a32cd" stroke-dasharray="5,2" d="M740.31,-477.96C810.08,-469.95 939.36,-454.32 1049,-436.64 1071.4,-433.02 1096.81,-428.05 1114.65,-424.42"/>
<polygon fill="#9a32cd" stroke="#9a32cd" points="739.59,-474.52 730.05,-479.14 740.38,-481.48 739.59,-474.52"/>
<text text-anchor="middle" x="845" y="-478.64" font-family="Helvetica,sans-Serif" font-size="10.00"> uptane</text>
</g>
<!-- Node18 -->
<g id="node18" class="node">
<title>Node18</title>
<g id="a_node18"><a xlink:href="struct_telemetry_config.html" target="_top" xlink:title="The TelemetryConfig struct Report device network information: IP address, hostname,...">
<polygon fill="white" stroke="black" points="797,-379.14 797,-398.14 893,-398.14 893,-379.14 797,-379.14"/>
<text text-anchor="middle" x="845" y="-386.14" font-family="Helvetica,sans-Serif" font-size="10.00">TelemetryConfig</text>
</a>
</g>
</g>
<!-- Node18&#45;&gt;Node4 -->
<g id="edge22" class="edge">
<title>Node18&#45;&gt;Node4</title>
<path fill="none" stroke="#9a32cd" stroke-dasharray="5,2" d="M903.26,-392.83C943.98,-396.03 999.92,-400.86 1049,-406.64 1071.52,-409.29 1097.14,-413.14 1114.99,-415.97"/>
<polygon fill="#9a32cd" stroke="#9a32cd" points="903.49,-389.34 893.25,-392.05 902.95,-396.32 903.49,-389.34"/>
<text text-anchor="middle" x="1000" y="-409.64" font-family="Helvetica,sans-Serif" font-size="10.00"> telemetry</text>
</g>
<!-- Node19&#45;&gt;Node4 -->
<g id="edge23" class="edge">
<title>Node19&#45;&gt;Node4</title>
<path fill="none" stroke="#9a32cd" stroke-dasharray="5,2" d="M474.35,-231.61C606.53,-224.58 964.31,-213.02 1049,-287.64 1077.65,-312.88 1045.69,-339.95 1067,-371.64 1078.82,-389.21 1099.43,-402.12 1115.33,-410.11"/>
<polygon fill="#9a32cd" stroke="#9a32cd" points="473.91,-228.12 464.11,-232.17 474.29,-235.11 473.91,-228.12"/>
<text text-anchor="middle" x="688.5" y="-229.64" font-family="Helvetica,sans-Serif" font-size="10.00"> import</text>
</g>
<!-- Node20&#45;&gt;Node4 -->
<g id="edge25" class="edge">
<title>Node20&#45;&gt;Node4</title>
<path fill="none" stroke="#9a32cd" stroke-dasharray="5,2" d="M749.53,-518.73C799.08,-513.27 871.06,-503.96 933,-490.64 985.52,-479.34 998.36,-474.58 1049,-456.64 1072.39,-448.35 1098.53,-437.17 1116.3,-429.28"/>
<polygon fill="#9a32cd" stroke="#9a32cd" points="748.87,-515.28 739.31,-519.84 749.63,-522.24 748.87,-515.28"/>
<text text-anchor="middle" x="845" y="-520.64" font-family="Helvetica,sans-Serif" font-size="10.00"> bootloader</text>
</g>
<!-- Node21 -->
<g id="node21" class="node">
<title>Node21</title>
<g id="a_node21"><a xlink:title=" ">
<polygon fill="white" stroke="#bfbfbf" points="762,-116.14 762,-135.14 928,-135.14 928,-116.14 762,-116.14"/>
<text text-anchor="middle" x="845" y="-123.14" font-family="Helvetica,sans-Serif" font-size="10.00">std::shared_ptr&lt; INvStorage &gt;</text>
</a>
</g>
</g>
<!-- Node21&#45;&gt;Node2 -->
<g id="edge27" class="edge">
<title>Node21&#45;&gt;Node2</title>
<path fill="none" stroke="#9a32cd" stroke-dasharray="5,2" d="M901.8,-114.1C1055.4,-83.63 1480.54,-8.27 1594,-82.64 1650.44,-119.63 1669.64,-207.82 1674.57,-237.05"/>
<polygon fill="#9a32cd" stroke="#9a32cd" points="900.77,-110.74 891.65,-116.13 902.14,-117.6 900.77,-110.74"/>
<text text-anchor="middle" x="1251" y="-65.64" font-family="Helvetica,sans-Serif" font-size="10.00"> storage_</text>
</g>
<!-- Node21&#45;&gt;Node34 -->
<g id="edge44" class="edge">
<title>Node21&#45;&gt;Node34</title>
<path fill="none" stroke="#9a32cd" stroke-dasharray="5,2" d="M938.63,-127.24C973.44,-128.98 1013.23,-132.32 1049,-138.64 1070.13,-142.37 1093.39,-149.32 1110.76,-155.09"/>
<polygon fill="#9a32cd" stroke="#9a32cd" points="938.62,-123.74 928.47,-126.78 938.3,-130.73 938.62,-123.74"/>
<text text-anchor="middle" x="1000" y="-141.64" font-family="Helvetica,sans-Serif" font-size="10.00"> storage_</text>
</g>
<!-- Node22&#45;&gt;Node21 -->
<g id="edge28" class="edge">
<title>Node22&#45;&gt;Node21</title>
<path fill="none" stroke="#9a32cd" stroke-dasharray="5,2" d="M604.74,-125.64C646.79,-125.64 710.74,-125.64 761.96,-125.64"/>
<polygon fill="#9a32cd" stroke="#9a32cd" points="604.54,-122.14 594.54,-125.64 604.54,-129.14 604.54,-122.14"/>
<text text-anchor="middle" x="688.5" y="-128.64" font-family="Helvetica,sans-Serif" font-size="10.00"> ptr</text>
</g>
<!-- Node23 -->
<g id="node23" class="node">
<title>Node23</title>
<g id="a_node23"><a xlink:title=" ">
<polygon fill="white" stroke="#bfbfbf" points="1292,-297.64 1292,-327.64 1444,-327.64 1444,-297.64 1292,-297.64"/>
<text text-anchor="start" x="1300" y="-315.64" font-family="Helvetica,sans-Serif" font-size="10.00">std::shared_ptr&lt; Secondary</text>
<text text-anchor="middle" x="1368" y="-304.64" font-family="Helvetica,sans-Serif" font-size="10.00">Provider &gt;</text>
</a>
</g>
</g>
<!-- Node23&#45;&gt;Node2 -->
<g id="edge30" class="edge">
<title>Node23&#45;&gt;Node2</title>
<path fill="none" stroke="#9a32cd" stroke-dasharray="5,2" d="M1454.18,-302.25C1496.58,-296.17 1548.39,-287.35 1594,-275.64 1614.04,-270.49 1636.11,-262.55 1652.31,-256.27"/>
<polygon fill="#9a32cd" stroke="#9a32cd" points="1453.59,-298.8 1444.18,-303.66 1454.57,-305.73 1453.59,-298.8"/>
<text text-anchor="middle" x="1528" y="-302.64" font-family="Helvetica,sans-Serif" font-size="10.00"> secondary_provider_</text>
</g>
<!-- Node24 -->
<g id="node24" class="node">
<title>Node24</title>
<g id="a_node24"><a xlink:href="class_secondary_provider.html" target="_top" xlink:title=" ">
<polygon fill="white" stroke="black" points="1084.5,-301.14 1084.5,-320.14 1192.5,-320.14 1192.5,-301.14 1084.5,-301.14"/>
<text text-anchor="middle" x="1138.5" y="-308.14" font-family="Helvetica,sans-Serif" font-size="10.00">SecondaryProvider</text>
</a>
</g>
</g>
<!-- Node24&#45;&gt;Node23 -->
<g id="edge31" class="edge">
<title>Node24&#45;&gt;Node23</title>
<path fill="none" stroke="#9a32cd" stroke-dasharray="5,2" d="M1202.87,-311.19C1230.48,-311.44 1263.04,-311.72 1291.86,-311.98"/>
<polygon fill="#9a32cd" stroke="#9a32cd" points="1202.58,-307.69 1192.55,-311.1 1202.52,-314.69 1202.58,-307.69"/>
<text text-anchor="middle" x="1251" y="-314.64" font-family="Helvetica,sans-Serif" font-size="10.00"> ptr</text>
</g>
<!-- Node25 -->
<g id="node25" class="node">
<title>Node25</title>
<g id="a_node25"><a xlink:href="class_secondary_tcp_server.html" target="_top" xlink:title="Listens on a socket, decodes calls (ASN.1) and forwards them to an Uptane Secondary implementation.">
<polygon fill="white" stroke="black" points="1310.5,-259.14 1310.5,-278.14 1425.5,-278.14 1425.5,-259.14 1310.5,-259.14"/>
<text text-anchor="middle" x="1368" y="-266.14" font-family="Helvetica,sans-Serif" font-size="10.00">SecondaryTcpServer</text>
</a>
</g>
</g>
<!-- Node25&#45;&gt;Node2 -->
<g id="edge32" class="edge">
<title>Node25&#45;&gt;Node2</title>
<path fill="none" stroke="#9a32cd" stroke-dasharray="5,2" d="M1435.85,-263.85C1488.15,-260.1 1560.41,-254.92 1611.97,-251.22"/>
<polygon fill="#9a32cd" stroke="#9a32cd" points="1435.39,-260.37 1425.67,-264.58 1435.89,-267.35 1435.39,-260.37"/>
<text text-anchor="middle" x="1528" y="-263.64" font-family="Helvetica,sans-Serif" font-size="10.00"> secondary_server_</text>
</g>
<!-- Node26 -->
<g id="node26" class="node">
<title>Node26</title>
<g id="a_node26"><a xlink:title=" ">
<polygon fill="white" stroke="#bfbfbf" points="1292,-209.64 1292,-239.64 1444,-239.64 1444,-209.64 1292,-209.64"/>
<text text-anchor="start" x="1300" y="-227.64" font-family="Helvetica,sans-Serif" font-size="10.00">std::shared_ptr&lt; Secondary</text>
<text text-anchor="middle" x="1368" y="-216.64" font-family="Helvetica,sans-Serif" font-size="10.00">Interface &gt;</text>
</a>
</g>
</g>
<!-- Node26&#45;&gt;Node2 -->
<g id="edge33" class="edge">
<title>Node26&#45;&gt;Node2</title>
<path fill="none" stroke="#9a32cd" stroke-dasharray="5,2" d="M1454.3,-227.82C1496.4,-229.73 1547.92,-232.6 1594,-236.64 1599.71,-237.14 1605.65,-237.72 1611.59,-238.36"/>
<polygon fill="#9a32cd" stroke="#9a32cd" points="1454.24,-224.31 1444.09,-227.36 1453.92,-231.3 1454.24,-224.31"/>
<text text-anchor="middle" x="1528" y="-239.64" font-family="Helvetica,sans-Serif" font-size="10.00"> ip_secondary_</text>
</g>
<!-- Node27 -->
<g id="node27" class="node">
<title>Node27</title>
<g id="a_node27"><a xlink:href="class_secondary_interface.html" target="_top" xlink:title=" ">
<polygon fill="white" stroke="black" points="1083,-215.14 1083,-234.14 1194,-234.14 1194,-215.14 1083,-215.14"/>
<text text-anchor="middle" x="1138.5" y="-222.14" font-family="Helvetica,sans-Serif" font-size="10.00">SecondaryInterface</text>
</a>
</g>
</g>
<!-- Node27&#45;&gt;Node26 -->
<g id="edge34" class="edge">
<title>Node27&#45;&gt;Node26</title>
<path fill="none" stroke="#9a32cd" stroke-dasharray="5,2" d="M1204.46,-224.64C1231.65,-224.64 1263.42,-224.64 1291.63,-224.64"/>
<polygon fill="#9a32cd" stroke="#9a32cd" points="1204.28,-221.14 1194.28,-224.64 1204.28,-228.14 1204.28,-221.14"/>
<text text-anchor="middle" x="1251" y="-227.64" font-family="Helvetica,sans-Serif" font-size="10.00"> ptr</text>
</g>
<!-- Node28&#45;&gt;Node2 -->
<g id="edge35" class="edge">
<title>Node28&#45;&gt;Node2</title>
<path fill="none" stroke="#9a32cd" stroke-dasharray="5,2" d="M616.59,-168.09C689.68,-173.86 820.85,-184.29 933,-193.64 984.57,-197.93 1011.4,-168.08 1049,-203.64 1090.1,-242.5 1024.93,-291.82 1067,-329.64 1141.42,-396.53 1191.95,-335.86 1292,-337.64 1426.59,-340.03 1471.21,-369.8 1594,-314.64 1625.04,-300.69 1653.82,-271.66 1667.56,-256.44"/>
<polygon fill="#9a32cd" stroke="#9a32cd" points="616.48,-164.57 606.24,-167.27 615.93,-171.54 616.48,-164.57"/>
<text text-anchor="middle" x="1138.5" y="-363.64" font-family="Helvetica,sans-Serif" font-size="10.00"> secondary_</text>
</g>
<!-- Node29 -->
<g id="node29" class="node">
<title>Node29</title>
<g id="a_node29"><a xlink:href="class_msg_dispatcher.html" target="_top" xlink:title=" ">
<polygon fill="white" stroke="black" points="261,-109.14 261,-128.14 350,-128.14 350,-109.14 261,-109.14"/>
<text text-anchor="middle" x="305.5" y="-116.14" font-family="Helvetica,sans-Serif" font-size="10.00">MsgDispatcher</text>
</a>
</g>
</g>
<!-- Node29&#45;&gt;Node28 -->
<g id="edge36" class="edge">
<title>Node29&#45;&gt;Node28</title>
<path fill="none" stroke="midnightblue" d="M360.67,-117.92C395.46,-118.85 441.23,-122.66 480,-134.64 488.74,-137.34 489.6,-141.01 498,-144.64 506.13,-148.14 515.12,-151.33 523.61,-154.05"/>
<polygon fill="midnightblue" stroke="midnightblue" points="360.31,-114.42 350.24,-117.72 360.18,-121.41 360.31,-114.42"/>
</g>
<!-- Node30 -->
<g id="node30" class="node">
<title>Node30</title>
<g id="a_node30"><a xlink:href="class_msg_handler.html" target="_top" xlink:title=" ">
<polygon fill="white" stroke="black" points="14.5,-109.14 14.5,-128.14 89.5,-128.14 89.5,-109.14 14.5,-109.14"/>
<text text-anchor="middle" x="52" y="-116.14" font-family="Helvetica,sans-Serif" font-size="10.00">MsgHandler</text>
</a>
</g>
</g>
<!-- Node30&#45;&gt;Node29 -->
<g id="edge37" class="edge">
<title>Node30&#45;&gt;Node29</title>
<path fill="none" stroke="midnightblue" d="M99.59,-118.64C145.66,-118.64 215.62,-118.64 260.69,-118.64"/>
<polygon fill="midnightblue" stroke="midnightblue" points="99.57,-115.14 89.57,-118.64 99.57,-122.14 99.57,-115.14"/>
</g>
<!-- Node31 -->
<g id="node31" class="node">
<title>Node31</title>
<g id="a_node31"><a xlink:href="class_temporary_directory.html" target="_top" xlink:title=" ">
<polygon fill="white" stroke="black" points="1311.5,-122.14 1311.5,-141.14 1424.5,-141.14 1424.5,-122.14 1311.5,-122.14"/>
<text text-anchor="middle" x="1368" y="-129.14" font-family="Helvetica,sans-Serif" font-size="10.00">TemporaryDirectory</text>
</a>
</g>
</g>
<!-- Node31&#45;&gt;Node2 -->
<g id="edge39" class="edge">
<title>Node31&#45;&gt;Node2</title>
<path fill="none" stroke="#9a32cd" stroke-dasharray="5,2" d="M1435.13,-133.7C1481.64,-137.41 1544.22,-147.07 1594,-171.64 1626.53,-187.69 1655.5,-220.61 1668.6,-236.97"/>
<polygon fill="#9a32cd" stroke="#9a32cd" points="1435.09,-130.19 1424.86,-132.95 1434.58,-137.17 1435.09,-130.19"/>
<text text-anchor="middle" x="1528" y="-174.64" font-family="Helvetica,sans-Serif" font-size="10.00"> temp_dir_</text>
</g>
<!-- Node32 -->
<g id="node32" class="node">
<title>Node32</title>
<g id="a_node32"><a xlink:href="class_target_file.html" target="_top" xlink:title=" ">
<polygon fill="white" stroke="black" points="1336,-84.14 1336,-103.14 1400,-103.14 1400,-84.14 1336,-84.14"/>
<text text-anchor="middle" x="1368" y="-91.14" font-family="Helvetica,sans-Serif" font-size="10.00">TargetFile</text>
</a>
</g>
</g>
<!-- Node32&#45;&gt;Node2 -->
<g id="edge41" class="edge">
<title>Node32&#45;&gt;Node2</title>
<path fill="none" stroke="#9a32cd" stroke-dasharray="5,2" d="M1410.05,-88.68C1457.93,-85 1537.67,-85.58 1594,-120.64 1639.43,-148.9 1664.68,-212.7 1672.94,-236.99"/>
<polygon fill="#9a32cd" stroke="#9a32cd" points="1409.71,-85.19 1400.05,-89.54 1410.32,-92.17 1409.71,-85.19"/>
<text text-anchor="middle" x="1528" y="-123.64" font-family="Helvetica,sans-Serif" font-size="10.00"> image_file_</text>
</g>
<!-- Node33 -->
<g id="node33" class="node">
<title>Node33</title>
<g id="a_node33"><a xlink:title=" ">
<polygon fill="white" stroke="#bfbfbf" points="1298,-160.64 1298,-190.64 1438,-190.64 1438,-160.64 1298,-160.64"/>
<text text-anchor="start" x="1306" y="-178.64" font-family="Helvetica,sans-Serif" font-size="10.00">std::shared_ptr&lt; Package</text>
<text text-anchor="middle" x="1368" y="-167.64" font-family="Helvetica,sans-Serif" font-size="10.00">ManagerInterface &gt;</text>
</a>
</g>
</g>
<!-- Node33&#45;&gt;Node2 -->
<g id="edge42" class="edge">
<title>Node33&#45;&gt;Node2</title>
<path fill="none" stroke="#9a32cd" stroke-dasharray="5,2" d="M1448.06,-184.12C1491.65,-189.91 1546.41,-199.05 1594,-212.64 1616.08,-218.94 1640.24,-229.42 1656.57,-237.09"/>
<polygon fill="#9a32cd" stroke="#9a32cd" points="1448.46,-180.64 1438.09,-182.82 1447.55,-187.58 1448.46,-180.64"/>
<text text-anchor="middle" x="1528" y="-215.64" font-family="Helvetica,sans-Serif" font-size="10.00"> package_manager_</text>
</g>
<!-- Node34&#45;&gt;Node33 -->
<g id="edge43" class="edge">
<title>Node34&#45;&gt;Node33</title>
<path fill="none" stroke="#9a32cd" stroke-dasharray="5,2" d="M1220.54,-168.55C1245.83,-169.78 1273.48,-171.11 1297.87,-172.29"/>
<polygon fill="#9a32cd" stroke="#9a32cd" points="1220.39,-165.04 1210.24,-168.06 1220.05,-172.04 1220.39,-165.04"/>
<text text-anchor="middle" x="1251" y="-173.64" font-family="Helvetica,sans-Serif" font-size="10.00"> ptr</text>
</g>
<!-- Node35 -->
<g id="node35" class="node">
<title>Node35</title>
<g id="a_node35"><a xlink:title=" ">
<polygon fill="white" stroke="#bfbfbf" points="757,-20.14 757,-39.14 933,-39.14 933,-20.14 757,-20.14"/>
<text text-anchor="middle" x="845" y="-27.14" font-family="Helvetica,sans-Serif" font-size="10.00">std::shared_ptr&lt; HttpInterface &gt;</text>
</a>
</g>
</g>
<!-- Node35&#45;&gt;Node34 -->
<g id="edge46" class="edge">
<title>Node35&#45;&gt;Node34</title>
<path fill="none" stroke="#9a32cd" stroke-dasharray="5,2" d="M882.41,-42.72C923.58,-57.93 992.26,-84.55 1049,-112.64 1075.83,-125.92 1105.56,-144.16 1122.83,-155.14"/>
<polygon fill="#9a32cd" stroke="#9a32cd" points="883.4,-39.36 872.81,-39.2 880.99,-45.93 883.4,-39.36"/>
<text text-anchor="middle" x="1000" y="-115.64" font-family="Helvetica,sans-Serif" font-size="10.00"> http_</text>
</g>
<!-- Node36 -->
<g id="node36" class="node">
<title>Node36</title>
<g id="a_node36"><a xlink:href="class_http_interface.html" target="_top" xlink:title=" ">
<polygon fill="white" stroke="black" points="518.5,-20.14 518.5,-39.14 599.5,-39.14 599.5,-20.14 518.5,-20.14"/>
<text text-anchor="middle" x="559" y="-27.14" font-family="Helvetica,sans-Serif" font-size="10.00">HttpInterface</text>
</a>
</g>
</g>
<!-- Node36&#45;&gt;Node35 -->
<g id="edge47" class="edge">
<title>Node36&#45;&gt;Node35</title>
<path fill="none" stroke="#9a32cd" stroke-dasharray="5,2" d="M609.96,-29.64C650.52,-29.64 708.68,-29.64 756.87,-29.64"/>
<polygon fill="#9a32cd" stroke="#9a32cd" points="609.79,-26.14 599.79,-29.64 609.79,-33.14 609.79,-26.14"/>
<text text-anchor="middle" x="688.5" y="-32.64" font-family="Helvetica,sans-Serif" font-size="10.00"> ptr</text>
</g>
<!-- Node37 -->
<g id="node37" class="node">
<title>Node37</title>
<g id="a_node37"><a xlink:title="STL class.">
<polygon fill="white" stroke="#bfbfbf" points="1333.5,-8.14 1333.5,-27.14 1402.5,-27.14 1402.5,-8.14 1333.5,-8.14"/>
<text text-anchor="middle" x="1368" y="-15.14" font-family="Helvetica,sans-Serif" font-size="10.00">std::thread</text>
</a>
</g>
</g>
<!-- Node37&#45;&gt;Node2 -->
<g id="edge48" class="edge">
<title>Node37&#45;&gt;Node2</title>
<path fill="none" stroke="#9a32cd" stroke-dasharray="5,2" d="M1412.88,-7.19C1461.95,1.79 1541.42,7.93 1594,-30.64 1664.19,-82.12 1674.3,-201.52 1675.76,-236.71"/>
<polygon fill="#9a32cd" stroke="#9a32cd" points="1412.04,-3.79 1402.89,-9.13 1413.38,-10.66 1412.04,-3.79"/>
<text text-anchor="middle" x="1528" y="-33.64" font-family="Helvetica,sans-Serif" font-size="10.00"> secondary_server_thread_</text>
</g>
</g>
</svg>
        <g id="navigator" transform="translate(0 0)" fill="#404254">
                <rect fill="#f2f5e9" fill-opacity="0.5" stroke="#606060" stroke-width=".5" x="0" y="0" width="60" height="60"/>
                <use id="zoomplus" xlink:href="#zoomPlus" x="17" y="9" onmousedown="handleZoom(evt,'in')"/>
                <use id="zoomminus" xlink:href="#zoomMin" x="42" y="9" onmousedown="handleZoom(evt,'out')"/>
                <use id="reset" xlink:href="#resetDef" x="30" y="36" onmousedown="handleReset()"/>
                <g id="arrowUp" xlink:href="#dirArrow" transform="translate(30 24)" onmousedown="handlePan(0,-1)">
                  <use xlink:href="#rim" fill="#404040">
                        <set attributeName="fill" to="#808080" begin="arrowUp.mouseover" end="arrowUp.mouseout"/>
                  </use>
                  <path fill="none" stroke="white" stroke-width="1.5" d="M0,-3.0v7 M-2.5,-0.5L0,-3.0L2.5,-0.5"/>
                </g>
                <g id="arrowRight" xlink:href="#dirArrow" transform="rotate(90) translate(36 -43)" onmousedown="handlePan(1,0)">
                  <use xlink:href="#rim" fill="#404040">
                        <set attributeName="fill" to="#808080" begin="arrowRight.mouseover" end="arrowRight.mouseout"/>
                  </use>
                  <path fill="none" stroke="white" stroke-width="1.5" d="M0,-3.0v7 M-2.5,-0.5L0,-3.0L2.5,-0.5"/>
                </g>
                <g id="arrowDown" xlink:href="#dirArrow" transform="rotate(180) translate(-30 -48)" onmousedown="handlePan(0,1)">
                  <use xlink:href="#rim" fill="#404040">
                        <set attributeName="fill" to="#808080" begin="arrowDown.mouseover" end="arrowDown.mouseout"/>
                  </use>
                  <path fill="none" stroke="white" stroke-width="1.5" d="M0,-3.0v7 M-2.5,-0.5L0,-3.0L2.5,-0.5"/>
                </g>
                <g id="arrowLeft" xlink:href="#dirArrow" transform="rotate(270) translate(-36 17)" onmousedown="handlePan(-1,0)">
                  <use xlink:href="#rim" fill="#404040">
                        <set attributeName="fill" to="#808080" begin="arrowLeft.mouseover" end="arrowLeft.mouseout"/>
                  </use>
                  <path fill="none" stroke="white" stroke-width="1.5" d="M0,-3.0v7 M-2.5,-0.5L0,-3.0L2.5,-0.5"/>
                </g>
        </g>
        <svg viewBox="0 0 15 15" width="100%" height="30px" preserveAspectRatio="xMaxYMin meet">
         <g id="arrow_out" transform="scale(0.3 0.3)">
          <a xlink:href="class_secondary_rpc_upgrade__coll__graph_org.svg" target="_base">
           <rect id="button" ry="5" rx="5" y="6" x="6" height="38" width="38"
                fill="#f2f5e9" fill-opacity="0.5" stroke="#606060" stroke-width="1.0"/>
           <path id="arrow"
             d="M 11.500037,31.436501 C 11.940474,20.09759 22.043105,11.32322 32.158766,21.979434 L 37.068811,17.246167 C 37.068811,17.246167 37.088388,32 37.088388,32 L 22.160133,31.978069 C 22.160133,31.978069 26.997745,27.140456 26.997745,27.140456 C 18.528582,18.264221 13.291696,25.230495 11.500037,31.436501 z"
             style="fill:#404040;"/>
          </a>
         </g>
        </svg>
</svg>
