<?xml version="1.0" encoding="UTF-8" standalone="no"?>
<!DOCTYPE svg PUBLIC "-//W3C//DTD SVG 1.1//EN"
 "http://www.w3.org/Graphics/SVG/1.1/DTD/svg11.dtd">
<!-- Generated by graphviz version 2.43.0 (0)
 -->
<!-- Title: Graphical Class Hierarchy Pages: 1 -->
<svg width="703pt" height="1021pt"
 viewBox="0.00 0.00 703.00 1020.50" xmlns="http://www.w3.org/2000/svg" xmlns:xlink="http://www.w3.org/1999/xlink">
<g id="graph0" class="graph" transform="scale(1 1) rotate(0) translate(4 1016.5)">
<title>Graphical Class Hierarchy</title>
<polygon fill="white" stroke="transparent" points="-4,4 -4,-1016.5 699,-1016.5 699,4 -4,4"/>
<!-- Node224 -->
<g id="node1" class="node">
<title>Node224</title>
<g id="a_node1"><a xlink:title="STL class.">
<polygon fill="white" stroke="#bfbfbf" points="0,-689 0,-708 86,-708 86,-689 0,-689"/>
<text text-anchor="middle" x="43" y="-696" font-family="Helvetica,sans-Serif" font-size="10.00">std::exception</text>
</a>
</g>
</g>
<!-- Node0 -->
<g id="node2" class="node">
<title>Node0</title>
<g id="a_node2"><a xlink:href="classcampaign_1_1_campaign_parse_error.html" target="_top" xlink:title=" ">
<polygon fill="white" stroke="black" points="122,-784 122,-803 292,-803 292,-784 122,-784"/>
<text text-anchor="middle" x="207" y="-791" font-family="Helvetica,sans-Serif" font-size="10.00">campaign::CampaignParseError</text>
</a>
</g>
</g>
<!-- Node224&#45;&gt;Node0 -->
<g id="edge1" class="edge">
<title>Node224&#45;&gt;Node0</title>
<path fill="none" stroke="#8b1a1a" d="M57.44,-716.43C71.56,-733.96 95.4,-760.06 122,-774.5 129.1,-778.35 136.94,-781.43 144.89,-783.88"/>
<polygon fill="#8b1a1a" stroke="#8b1a1a" points="59.89,-713.88 50.97,-708.15 54.37,-718.18 59.89,-713.88"/>
</g>
<!-- Node226 -->
<g id="node3" class="node">
<title>Node226</title>
<g id="a_node3"><a xlink:href="classdeserialization__error.html" target="_top" xlink:title=" ">
<polygon fill="white" stroke="black" points="148.5,-746 148.5,-765 265.5,-765 265.5,-746 148.5,-746"/>
<text text-anchor="middle" x="207" y="-753" font-family="Helvetica,sans-Serif" font-size="10.00">deserialization_error</text>
</a>
</g>
</g>
<!-- Node224&#45;&gt;Node226 -->
<g id="edge2" class="edge">
<title>Node224&#45;&gt;Node226</title>
<path fill="none" stroke="midnightblue" d="M69.95,-713.02C84.82,-720.86 104.05,-730.19 122,-736.5 132.44,-740.17 143.86,-743.3 154.83,-745.91"/>
<polygon fill="midnightblue" stroke="midnightblue" points="71.32,-709.78 60.86,-708.13 68.01,-715.95 71.32,-709.78"/>
</g>
<!-- Node227 -->
<g id="node4" class="node">
<title>Node227</title>
<g id="a_node4"><a xlink:href="class_o_s_tree_commit_parse_error.html" target="_top" xlink:title=" ">
<polygon fill="white" stroke="black" points="137.5,-708 137.5,-727 276.5,-727 276.5,-708 137.5,-708"/>
<text text-anchor="middle" x="207" y="-715" font-family="Helvetica,sans-Serif" font-size="10.00">OSTreeCommitParseError</text>
</a>
</g>
</g>
<!-- Node224&#45;&gt;Node227 -->
<g id="edge3" class="edge">
<title>Node224&#45;&gt;Node227</title>
<path fill="none" stroke="#8b1a1a" d="M96.36,-704.64C109.44,-706.17 123.66,-707.84 137.4,-709.45"/>
<polygon fill="#8b1a1a" stroke="#8b1a1a" points="96.48,-701.13 86.14,-703.44 95.66,-708.08 96.48,-701.13"/>
</g>
<!-- Node228 -->
<g id="node5" class="node">
<title>Node228</title>
<g id="a_node5"><a xlink:href="class_o_s_tree_object_missing.html" target="_top" xlink:title="Thrown by GetObject when the object requested is not present in the repository.">
<polygon fill="white" stroke="black" points="147.5,-670 147.5,-689 266.5,-689 266.5,-670 147.5,-670"/>
<text text-anchor="middle" x="207" y="-677" font-family="Helvetica,sans-Serif" font-size="10.00">OSTreeObjectMissing</text>
</a>
</g>
</g>
<!-- Node224&#45;&gt;Node228 -->
<g id="edge4" class="edge">
<title>Node224&#45;&gt;Node228</title>
<path fill="none" stroke="#8b1a1a" d="M96.51,-692.34C112.73,-690.44 130.7,-688.33 147.3,-686.38"/>
<polygon fill="#8b1a1a" stroke="#8b1a1a" points="95.66,-688.92 86.14,-693.56 96.48,-695.87 95.66,-688.92"/>
</g>
<!-- Node229 -->
<g id="node6" class="node">
<title>Node229</title>
<g id="a_node6"><a xlink:title="STL class.">
<polygon fill="white" stroke="#bfbfbf" points="162.5,-632 162.5,-651 251.5,-651 251.5,-632 162.5,-632"/>
<text text-anchor="middle" x="207" y="-639" font-family="Helvetica,sans-Serif" font-size="10.00">std::logic_error</text>
</a>
</g>
</g>
<!-- Node224&#45;&gt;Node229 -->
<g id="edge5" class="edge">
<title>Node224&#45;&gt;Node229</title>
<path fill="none" stroke="midnightblue" d="M69.95,-683.98C84.82,-676.14 104.05,-666.81 122,-660.5 134.84,-655.99 149.16,-652.28 162.29,-649.38"/>
<polygon fill="midnightblue" stroke="midnightblue" points="68.01,-681.05 60.86,-688.87 71.32,-687.22 68.01,-681.05"/>
</g>
<!-- Node255 -->
<g id="node32" class="node">
<title>Node255</title>
<g id="a_node32"><a xlink:title="STL class.">
<polygon fill="white" stroke="#bfbfbf" points="155,-145 155,-164 259,-164 259,-145 155,-145"/>
<text text-anchor="middle" x="207" y="-152" font-family="Helvetica,sans-Serif" font-size="10.00">std::runtime_error</text>
</a>
</g>
</g>
<!-- Node224&#45;&gt;Node255 -->
<g id="edge31" class="edge">
<title>Node224&#45;&gt;Node255</title>
<path fill="none" stroke="midnightblue" d="M49.81,-678.99C76.18,-590.45 184.08,-228.1 203.12,-164.16"/>
<polygon fill="midnightblue" stroke="midnightblue" points="46.45,-678.01 46.95,-688.59 53.16,-680.01 46.45,-678.01"/>
</g>
<!-- Node230 -->
<g id="node7" class="node">
<title>Node230</title>
<g id="a_node7"><a xlink:href="class_fatal_exception.html" target="_top" xlink:title=" ">
<polygon fill="white" stroke="black" points="357.5,-708 357.5,-727 445.5,-727 445.5,-708 357.5,-708"/>
<text text-anchor="middle" x="401.5" y="-715" font-family="Helvetica,sans-Serif" font-size="10.00">FatalException</text>
</a>
</g>
</g>
<!-- Node229&#45;&gt;Node230 -->
<g id="edge6" class="edge">
<title>Node229&#45;&gt;Node230</title>
<path fill="none" stroke="midnightblue" d="M261.64,-648.67C272.13,-651.42 282.74,-655.23 292,-660.5 312.22,-672.01 307.98,-686.65 328,-698.5 336.85,-703.74 347.14,-707.55 357.14,-710.32"/>
<polygon fill="midnightblue" stroke="midnightblue" points="262.2,-645.21 251.67,-646.34 260.61,-652.03 262.2,-645.21"/>
</g>
<!-- Node231 -->
<g id="node8" class="node">
<title>Node231</title>
<g id="a_node8"><a xlink:href="class_not_implemented_exception.html" target="_top" xlink:title=" ">
<polygon fill="white" stroke="black" points="328,-670 328,-689 475,-689 475,-670 328,-670"/>
<text text-anchor="middle" x="401.5" y="-677" font-family="Helvetica,sans-Serif" font-size="10.00">NotImplementedException</text>
</a>
</g>
</g>
<!-- Node229&#45;&gt;Node231 -->
<g id="edge7" class="edge">
<title>Node229&#45;&gt;Node231</title>
<path fill="none" stroke="midnightblue" d="M261.84,-652.13C290.22,-657.73 324.76,-664.55 352.26,-669.98"/>
<polygon fill="midnightblue" stroke="midnightblue" points="262.17,-648.63 251.68,-650.12 260.81,-655.49 262.17,-648.63"/>
</g>
<!-- Node232 -->
<g id="node9" class="node">
<title>Node232</title>
<g id="a_node9"><a xlink:title="STL class.">
<polygon fill="white" stroke="#bfbfbf" points="350,-632 350,-651 453,-651 453,-632 350,-632"/>
<text text-anchor="middle" x="401.5" y="-639" font-family="Helvetica,sans-Serif" font-size="10.00">std::domain_error</text>
</a>
</g>
</g>
<!-- Node229&#45;&gt;Node232 -->
<g id="edge8" class="edge">
<title>Node229&#45;&gt;Node232</title>
<path fill="none" stroke="midnightblue" d="M261.93,-641.5C289.47,-641.5 322.78,-641.5 349.84,-641.5"/>
<polygon fill="midnightblue" stroke="midnightblue" points="261.68,-638 251.68,-641.5 261.68,-645 261.68,-638"/>
</g>
<!-- Node234 -->
<g id="node11" class="node">
<title>Node234</title>
<g id="a_node11"><a xlink:href="class_uptane_1_1_exception.html" target="_top" xlink:title=" ">
<polygon fill="white" stroke="black" points="348.5,-594 348.5,-613 454.5,-613 454.5,-594 348.5,-594"/>
<text text-anchor="middle" x="401.5" y="-601" font-family="Helvetica,sans-Serif" font-size="10.00">Uptane::Exception</text>
</a>
</g>
</g>
<!-- Node229&#45;&gt;Node234 -->
<g id="edge10" class="edge">
<title>Node229&#45;&gt;Node234</title>
<path fill="none" stroke="midnightblue" d="M261.84,-630.87C290.22,-625.27 324.76,-618.45 352.26,-613.02"/>
<polygon fill="midnightblue" stroke="midnightblue" points="260.81,-627.51 251.68,-632.88 262.17,-634.37 260.81,-627.51"/>
</g>
<!-- Node233 -->
<g id="node10" class="node">
<title>Node233</title>
<g id="a_node10"><a xlink:href="class_time_stamp_1_1_invalid_time_stamp.html" target="_top" xlink:title=" ">
<polygon fill="white" stroke="black" points="519,-993 519,-1012 687,-1012 687,-993 519,-993"/>
<text text-anchor="middle" x="603" y="-1000" font-family="Helvetica,sans-Serif" font-size="10.00">TimeStamp::InvalidTimeStamp</text>
</a>
</g>
</g>
<!-- Node232&#45;&gt;Node233 -->
<g id="edge9" class="edge">
<title>Node232&#45;&gt;Node233</title>
<path fill="none" stroke="midnightblue" d="M462.49,-650.57C467.19,-653.16 471.47,-656.42 475,-660.5 569.45,-769.78 413.82,-876.64 511,-983.5 514.37,-987.2 518.25,-990.29 522.48,-992.85"/>
<polygon fill="midnightblue" stroke="midnightblue" points="463.57,-647.22 453.01,-646.36 460.73,-653.62 463.57,-647.22"/>
</g>
<!-- Node235 -->
<g id="node12" class="node">
<title>Node235</title>
<g id="a_node12"><a xlink:href="class_uptane_1_1_bad_ecu_id.html" target="_top" xlink:title=" ">
<polygon fill="white" stroke="black" points="551.5,-955 551.5,-974 654.5,-974 654.5,-955 551.5,-955"/>
<text text-anchor="middle" x="603" y="-962" font-family="Helvetica,sans-Serif" font-size="10.00">Uptane::BadEcuId</text>
</a>
</g>
</g>
<!-- Node234&#45;&gt;Node235 -->
<g id="edge11" class="edge">
<title>Node234&#45;&gt;Node235</title>
<path fill="none" stroke="midnightblue" d="M464.18,-613.54C468.22,-615.96 471.9,-618.91 475,-622.5 569.45,-731.78 413.82,-838.64 511,-945.5 521.21,-956.72 536.19,-962.27 551.06,-964.79"/>
<polygon fill="midnightblue" stroke="midnightblue" points="465.38,-610.24 454.85,-609.04 462.33,-616.54 465.38,-610.24"/>
</g>
<!-- Node236 -->
<g id="node13" class="node">
<title>Node236</title>
<g id="a_node13"><a xlink:href="class_uptane_1_1_bad_hardware_id.html" target="_top" xlink:title=" ">
<polygon fill="white" stroke="black" points="536.5,-917 536.5,-936 669.5,-936 669.5,-917 536.5,-917"/>
<text text-anchor="middle" x="603" y="-924" font-family="Helvetica,sans-Serif" font-size="10.00">Uptane::BadHardwareId</text>
</a>
</g>
</g>
<!-- Node234&#45;&gt;Node236 -->
<g id="edge12" class="edge">
<title>Node234&#45;&gt;Node236</title>
<path fill="none" stroke="midnightblue" d="M464.12,-613.59C468.17,-616 471.87,-618.94 475,-622.5 559.19,-718.48 424.41,-813.68 511,-907.5 517.79,-914.85 526.62,-919.76 536.12,-922.97"/>
<polygon fill="midnightblue" stroke="midnightblue" points="465.3,-610.28 454.77,-609.11 462.27,-616.59 465.3,-610.28"/>
</g>
<!-- Node237 -->
<g id="node14" class="node">
<title>Node237</title>
<g id="a_node14"><a xlink:href="class_uptane_1_1_bad_key_id.html" target="_top" xlink:title=" ">
<polygon fill="white" stroke="black" points="551,-879 551,-898 655,-898 655,-879 551,-879"/>
<text text-anchor="middle" x="603" y="-886" font-family="Helvetica,sans-Serif" font-size="10.00">Uptane::BadKeyId</text>
</a>
</g>
</g>
<!-- Node234&#45;&gt;Node237 -->
<g id="edge13" class="edge">
<title>Node234&#45;&gt;Node237</title>
<path fill="none" stroke="midnightblue" d="M464.04,-613.66C468.11,-616.06 471.84,-618.97 475,-622.5 548.95,-705.2 434.99,-788.7 511,-869.5 521.28,-880.43 536.11,-885.93 550.81,-888.5"/>
<polygon fill="midnightblue" stroke="midnightblue" points="465.2,-610.34 454.67,-609.19 462.19,-616.66 465.2,-610.34"/>
</g>
<!-- Node238 -->
<g id="node15" class="node">
<title>Node238</title>
<g id="a_node15"><a xlink:href="class_uptane_1_1_delegation_hash_mismatch.html" target="_top" xlink:title=" ">
<polygon fill="white" stroke="black" points="511,-841 511,-860 695,-860 695,-841 511,-841"/>
<text text-anchor="middle" x="603" y="-848" font-family="Helvetica,sans-Serif" font-size="10.00">Uptane::DelegationHashMismatch</text>
</a>
</g>
</g>
<!-- Node234&#45;&gt;Node238 -->
<g id="edge14" class="edge">
<title>Node234&#45;&gt;Node238</title>
<path fill="none" stroke="midnightblue" d="M463.61,-613.56C467.83,-615.97 471.71,-618.91 475,-622.5 538.73,-691.94 445.54,-763.69 511,-831.5 514.59,-835.22 518.7,-838.3 523.15,-840.85"/>
<polygon fill="midnightblue" stroke="midnightblue" points="465.08,-610.38 454.54,-609.32 462.11,-616.72 465.08,-610.38"/>
</g>
<!-- Node239 -->
<g id="node16" class="node">
<title>Node239</title>
<g id="a_node16"><a xlink:href="class_uptane_1_1_delegation_missing.html" target="_top" xlink:title=" ">
<polygon fill="white" stroke="black" points="528.5,-803 528.5,-822 677.5,-822 677.5,-803 528.5,-803"/>
<text text-anchor="middle" x="603" y="-810" font-family="Helvetica,sans-Serif" font-size="10.00">Uptane::DelegationMissing</text>
</a>
</g>
</g>
<!-- Node234&#45;&gt;Node239 -->
<g id="edge15" class="edge">
<title>Node234&#45;&gt;Node239</title>
<path fill="none" stroke="midnightblue" d="M464,-613.99C468.05,-616.32 471.78,-619.12 475,-622.5 528.56,-678.74 456.04,-738.63 511,-793.5 516.03,-798.52 522.01,-802.37 528.48,-805.31"/>
<polygon fill="midnightblue" stroke="midnightblue" points="465.26,-610.72 454.72,-609.63 462.28,-617.05 465.26,-610.72"/>
</g>
<!-- Node240 -->
<g id="node17" class="node">
<title>Node240</title>
<g id="a_node17"><a xlink:href="class_uptane_1_1_expired_metadata.html" target="_top" xlink:title=" ">
<polygon fill="white" stroke="black" points="532.5,-765 532.5,-784 673.5,-784 673.5,-765 532.5,-765"/>
<text text-anchor="middle" x="603" y="-772" font-family="Helvetica,sans-Serif" font-size="10.00">Uptane::ExpiredMetadata</text>
</a>
</g>
</g>
<!-- Node234&#45;&gt;Node240 -->
<g id="edge16" class="edge">
<title>Node234&#45;&gt;Node240</title>
<path fill="none" stroke="midnightblue" d="M463.99,-614.31C468.01,-616.57 471.74,-619.27 475,-622.5 518.48,-665.63 466.45,-713.48 511,-755.5 517.11,-761.26 524.49,-765.46 532.37,-768.5"/>
<polygon fill="midnightblue" stroke="midnightblue" points="465.35,-611.08 454.8,-610.05 462.4,-617.43 465.35,-611.08"/>
</g>
<!-- Node241 -->
<g id="node18" class="node">
<title>Node241</title>
<g id="a_node18"><a xlink:href="class_uptane_1_1_illegal_threshold.html" target="_top" xlink:title=" ">
<polygon fill="white" stroke="black" points="535,-727 535,-746 671,-746 671,-727 535,-727"/>
<text text-anchor="middle" x="603" y="-734" font-family="Helvetica,sans-Serif" font-size="10.00">Uptane::IllegalThreshold</text>
</a>
</g>
</g>
<!-- Node234&#45;&gt;Node241 -->
<g id="edge17" class="edge">
<title>Node234&#45;&gt;Node241</title>
<path fill="none" stroke="midnightblue" d="M463.84,-614.78C467.87,-616.93 471.64,-619.48 475,-622.5 508.57,-652.69 476.68,-688.16 511,-717.5 517.87,-723.37 526.09,-727.58 534.74,-730.58"/>
<polygon fill="midnightblue" stroke="midnightblue" points="465.27,-611.58 454.71,-610.68 462.4,-617.97 465.27,-611.58"/>
</g>
<!-- Node242 -->
<g id="node19" class="node">
<title>Node242</title>
<g id="a_node19"><a xlink:href="class_uptane_1_1_invalid_metadata.html" target="_top" xlink:title=" ">
<polygon fill="white" stroke="black" points="534.5,-689 534.5,-708 671.5,-708 671.5,-689 534.5,-689"/>
<text text-anchor="middle" x="603" y="-696" font-family="Helvetica,sans-Serif" font-size="10.00">Uptane::InvalidMetadata</text>
</a>
</g>
</g>
<!-- Node234&#45;&gt;Node242 -->
<g id="edge18" class="edge">
<title>Node234&#45;&gt;Node242</title>
<path fill="none" stroke="midnightblue" d="M463.94,-615.93C467.84,-617.82 471.57,-619.99 475,-622.5 499.18,-640.2 486.38,-662.42 511,-679.5 518.03,-684.38 526.05,-688.05 534.34,-690.81"/>
<polygon fill="midnightblue" stroke="midnightblue" points="465.17,-612.64 454.59,-612.02 462.47,-619.1 465.17,-612.64"/>
</g>
<!-- Node243 -->
<g id="node20" class="node">
<title>Node243</title>
<g id="a_node20"><a xlink:href="class_uptane_1_1_invalid_target.html" target="_top" xlink:title=" ">
<polygon fill="white" stroke="black" points="542.5,-651 542.5,-670 663.5,-670 663.5,-651 542.5,-651"/>
<text text-anchor="middle" x="603" y="-658" font-family="Helvetica,sans-Serif" font-size="10.00">Uptane::InvalidTarget</text>
</a>
</g>
</g>
<!-- Node234&#45;&gt;Node243 -->
<g id="edge19" class="edge">
<title>Node234&#45;&gt;Node243</title>
<path fill="none" stroke="midnightblue" d="M455.33,-615.82C462.03,-617.83 468.73,-620.06 475,-622.5 491.86,-629.06 493.98,-635.37 511,-641.5 521.48,-645.27 532.92,-648.39 544.04,-650.94"/>
<polygon fill="midnightblue" stroke="midnightblue" points="456.15,-612.42 445.57,-613.05 454.23,-619.15 456.15,-612.42"/>
</g>
<!-- Node244 -->
<g id="node21" class="node">
<title>Node244</title>
<g id="a_node21"><a xlink:href="class_uptane_1_1_metadata_fetch_failure.html" target="_top" xlink:title=" ">
<polygon fill="white" stroke="black" points="521.5,-613 521.5,-632 684.5,-632 684.5,-613 521.5,-613"/>
<text text-anchor="middle" x="603" y="-620" font-family="Helvetica,sans-Serif" font-size="10.00">Uptane::MetadataFetchFailure</text>
</a>
</g>
</g>
<!-- Node234&#45;&gt;Node244 -->
<g id="edge20" class="edge">
<title>Node234&#45;&gt;Node244</title>
<path fill="none" stroke="midnightblue" d="M464.66,-609.42C482.55,-611.12 502.33,-613.01 521.17,-614.8"/>
<polygon fill="midnightblue" stroke="midnightblue" points="464.94,-605.93 454.66,-608.47 464.28,-612.9 464.94,-605.93"/>
</g>
<!-- Node245 -->
<g id="node22" class="node">
<title>Node245</title>
<g id="a_node22"><a xlink:href="class_uptane_1_1_missing_repo.html" target="_top" xlink:title=" ">
<polygon fill="white" stroke="black" points="543,-575 543,-594 663,-594 663,-575 543,-575"/>
<text text-anchor="middle" x="603" y="-582" font-family="Helvetica,sans-Serif" font-size="10.00">Uptane::MissingRepo</text>
</a>
</g>
</g>
<!-- Node234&#45;&gt;Node245 -->
<g id="edge21" class="edge">
<title>Node234&#45;&gt;Node245</title>
<path fill="none" stroke="midnightblue" d="M464.72,-597.57C489.61,-595.2 518.16,-592.49 542.75,-590.14"/>
<polygon fill="midnightblue" stroke="midnightblue" points="464.28,-594.1 454.66,-598.53 464.94,-601.07 464.28,-594.1"/>
</g>
<!-- Node246 -->
<g id="node23" class="node">
<title>Node246</title>
<g id="a_node23"><a xlink:href="class_uptane_1_1_non_unique_signatures.html" target="_top" xlink:title=" ">
<polygon fill="white" stroke="black" points="521,-537 521,-556 685,-556 685,-537 521,-537"/>
<text text-anchor="middle" x="603" y="-544" font-family="Helvetica,sans-Serif" font-size="10.00">Uptane::NonUniqueSignatures</text>
</a>
</g>
</g>
<!-- Node234&#45;&gt;Node246 -->
<g id="edge22" class="edge">
<title>Node234&#45;&gt;Node246</title>
<path fill="none" stroke="midnightblue" d="M436.3,-590.38C457.53,-582.46 485.6,-572.57 511,-565.5 523.59,-562 537.33,-558.81 550.22,-556.08"/>
<polygon fill="midnightblue" stroke="midnightblue" points="434.89,-587.17 426.77,-593.97 437.36,-593.72 434.89,-587.17"/>
</g>
<!-- Node247 -->
<g id="node24" class="node">
<title>Node247</title>
<g id="a_node24"><a xlink:href="class_uptane_1_1_oversized_target.html" target="_top" xlink:title=" ">
<polygon fill="white" stroke="black" points="534.5,-499 534.5,-518 671.5,-518 671.5,-499 534.5,-499"/>
<text text-anchor="middle" x="603" y="-506" font-family="Helvetica,sans-Serif" font-size="10.00">Uptane::OversizedTarget</text>
</a>
</g>
</g>
<!-- Node234&#45;&gt;Node247 -->
<g id="edge23" class="edge">
<title>Node234&#45;&gt;Node247</title>
<path fill="none" stroke="midnightblue" d="M420.59,-587.31C441.07,-569.86 476.12,-542.59 511,-527.5 519.89,-523.65 529.61,-520.57 539.28,-518.09"/>
<polygon fill="midnightblue" stroke="midnightblue" points="418.26,-584.7 413,-593.9 422.85,-589.98 418.26,-584.7"/>
</g>
<!-- Node248 -->
<g id="node25" class="node">
<title>Node248</title>
<g id="a_node25"><a xlink:href="class_uptane_1_1_root_rotation_error.html" target="_top" xlink:title=" ">
<polygon fill="white" stroke="black" points="530.5,-461 530.5,-480 675.5,-480 675.5,-461 530.5,-461"/>
<text text-anchor="middle" x="603" y="-468" font-family="Helvetica,sans-Serif" font-size="10.00">Uptane::RootRotationError</text>
</a>
</g>
</g>
<!-- Node234&#45;&gt;Node248 -->
<g id="edge24" class="edge">
<title>Node234&#45;&gt;Node248</title>
<path fill="none" stroke="midnightblue" d="M414.44,-585.23C432.24,-559.55 468.26,-513.29 511,-489.5 517.91,-485.65 525.51,-482.58 533.28,-480.13"/>
<polygon fill="midnightblue" stroke="midnightblue" points="411.43,-583.43 408.73,-593.67 417.23,-587.35 411.43,-583.43"/>
</g>
<!-- Node249 -->
<g id="node26" class="node">
<title>Node249</title>
<g id="a_node26"><a xlink:href="class_uptane_1_1_security_exception.html" target="_top" xlink:title=" ">
<polygon fill="white" stroke="black" points="530,-423 530,-442 676,-442 676,-423 530,-423"/>
<text text-anchor="middle" x="603" y="-430" font-family="Helvetica,sans-Serif" font-size="10.00">Uptane::SecurityException</text>
</a>
</g>
</g>
<!-- Node234&#45;&gt;Node249 -->
<g id="edge25" class="edge">
<title>Node234&#45;&gt;Node249</title>
<path fill="none" stroke="midnightblue" d="M410.46,-584.39C425.15,-551.59 459.8,-484.92 511,-451.5 516.95,-447.62 523.54,-444.51 530.37,-442.02"/>
<polygon fill="midnightblue" stroke="midnightblue" points="407.16,-583.19 406.39,-593.76 413.58,-585.98 407.16,-583.19"/>
</g>
<!-- Node250 -->
<g id="node27" class="node">
<title>Node250</title>
<g id="a_node27"><a xlink:href="class_uptane_1_1_target_content_mismatch.html" target="_top" xlink:title=" ">
<polygon fill="white" stroke="black" points="516,-385 516,-404 690,-404 690,-385 516,-385"/>
<text text-anchor="middle" x="603" y="-392" font-family="Helvetica,sans-Serif" font-size="10.00">Uptane::TargetContentMismatch</text>
</a>
</g>
</g>
<!-- Node234&#45;&gt;Node250 -->
<g id="edge26" class="edge">
<title>Node234&#45;&gt;Node250</title>
<path fill="none" stroke="midnightblue" d="M407.73,-584.07C419.3,-545.05 450.91,-457.21 511,-413.5 516.22,-409.7 522.03,-406.63 528.12,-404.14"/>
<polygon fill="midnightblue" stroke="midnightblue" points="404.36,-583.12 404.99,-593.7 411.1,-585.04 404.36,-583.12"/>
</g>
<!-- Node251 -->
<g id="node28" class="node">
<title>Node251</title>
<g id="a_node28"><a xlink:href="class_uptane_1_1_target_hash_mismatch.html" target="_top" xlink:title=" ">
<polygon fill="white" stroke="black" points="522.5,-347 522.5,-366 683.5,-366 683.5,-347 522.5,-347"/>
<text text-anchor="middle" x="603" y="-354" font-family="Helvetica,sans-Serif" font-size="10.00">Uptane::TargetHashMismatch</text>
</a>
</g>
</g>
<!-- Node234&#45;&gt;Node251 -->
<g id="edge27" class="edge">
<title>Node234&#45;&gt;Node251</title>
<path fill="none" stroke="midnightblue" d="M405.78,-583.97C414.36,-539.42 441.74,-429.95 511,-375.5 515.82,-371.71 521.22,-368.63 526.91,-366.12"/>
<polygon fill="midnightblue" stroke="midnightblue" points="402.34,-583.36 404,-593.82 409.23,-584.61 402.34,-583.36"/>
</g>
<!-- Node252 -->
<g id="node29" class="node">
<title>Node252</title>
<g id="a_node29"><a xlink:href="class_uptane_1_1_target_mismatch.html" target="_top" xlink:title=" ">
<polygon fill="white" stroke="black" points="535,-309 535,-328 671,-328 671,-309 535,-309"/>
<text text-anchor="middle" x="603" y="-316" font-family="Helvetica,sans-Serif" font-size="10.00">Uptane::TargetMismatch</text>
</a>
</g>
</g>
<!-- Node234&#45;&gt;Node252 -->
<g id="edge28" class="edge">
<title>Node234&#45;&gt;Node252</title>
<path fill="none" stroke="midnightblue" d="M404.35,-583.85C410.12,-534.19 432.44,-402.96 511,-337.5 517.94,-331.71 526.2,-327.55 534.87,-324.58"/>
<polygon fill="midnightblue" stroke="midnightblue" points="400.86,-583.59 403.28,-593.9 407.82,-584.33 400.86,-583.59"/>
</g>
<!-- Node253 -->
<g id="node30" class="node">
<title>Node253</title>
<g id="a_node30"><a xlink:href="class_uptane_1_1_unmet_threshold.html" target="_top" xlink:title=" ">
<polygon fill="white" stroke="black" points="533.5,-271 533.5,-290 672.5,-290 672.5,-271 533.5,-271"/>
<text text-anchor="middle" x="603" y="-278" font-family="Helvetica,sans-Serif" font-size="10.00">Uptane::UnmetThreshold</text>
</a>
</g>
</g>
<!-- Node234&#45;&gt;Node253 -->
<g id="edge29" class="edge">
<title>Node234&#45;&gt;Node253</title>
<path fill="none" stroke="midnightblue" d="M403.24,-583.67C406.39,-529.19 423.05,-376.16 511,-299.5 517.45,-293.88 525.13,-289.77 533.25,-286.79"/>
<polygon fill="midnightblue" stroke="midnightblue" points="399.74,-583.58 402.75,-593.74 406.73,-583.92 399.74,-583.58"/>
</g>
<!-- Node254 -->
<g id="node31" class="node">
<title>Node254</title>
<g id="a_node31"><a xlink:href="class_uptane_1_1_version_mismatch.html" target="_top" xlink:title=" ">
<polygon fill="white" stroke="black" points="532,-233 532,-252 674,-252 674,-233 532,-233"/>
<text text-anchor="middle" x="603" y="-240" font-family="Helvetica,sans-Serif" font-size="10.00">Uptane::VersionMismatch</text>
</a>
</g>
</g>
<!-- Node234&#45;&gt;Node254 -->
<g id="edge30" class="edge">
<title>Node234&#45;&gt;Node254</title>
<path fill="none" stroke="midnightblue" d="M402.34,-583.63C403.01,-524.71 413.5,-349.58 511,-261.5 516.99,-256.09 524.11,-252.07 531.69,-249.1"/>
<polygon fill="midnightblue" stroke="midnightblue" points="398.84,-583.79 402.31,-593.8 405.84,-583.81 398.84,-583.79"/>
</g>
<!-- Node256 -->
<g id="node33" class="node">
<title>Node256</title>
<g id="a_node33"><a xlink:href="class_bad_credentials_archive.html" target="_top" xlink:title=" ">
<polygon fill="white" stroke="black" points="337.5,-240 337.5,-259 465.5,-259 465.5,-240 337.5,-240"/>
<text text-anchor="middle" x="401.5" y="-247" font-family="Helvetica,sans-Serif" font-size="10.00">BadCredentialsArchive</text>
</a>
</g>
</g>
<!-- Node255&#45;&gt;Node256 -->
<g id="edge32" class="edge">
<title>Node255&#45;&gt;Node256</title>
<path fill="none" stroke="midnightblue" d="M228.53,-170.3C251.58,-187.36 290.67,-214.26 328,-230.5 336.59,-234.24 346.08,-237.38 355.29,-239.96"/>
<polygon fill="midnightblue" stroke="midnightblue" points="230.34,-167.28 220.24,-164.08 226.13,-172.88 230.34,-167.28"/>
</g>
<!-- Node257 -->
<g id="node34" class="node">
<title>Node257</title>
<g id="a_node34"><a xlink:href="class_bad_credentials_content.html" target="_top" xlink:title=" ">
<polygon fill="white" stroke="black" points="337,-202 337,-221 466,-221 466,-202 337,-202"/>
<text text-anchor="middle" x="401.5" y="-209" font-family="Helvetica,sans-Serif" font-size="10.00">BadCredentialsContent</text>
</a>
</g>
</g>
<!-- Node255&#45;&gt;Node257 -->
<g id="edge33" class="edge">
<title>Node255&#45;&gt;Node257</title>
<path fill="none" stroke="midnightblue" d="M246.56,-167.25C270.01,-174.88 300.63,-184.59 328,-192.5 339.25,-195.75 351.55,-199.07 362.77,-202"/>
<polygon fill="midnightblue" stroke="midnightblue" points="247.57,-163.9 236.97,-164.13 245.39,-170.56 247.57,-163.9"/>
</g>
<!-- Node258 -->
<g id="node35" class="node">
<title>Node258</title>
<g id="a_node35"><a xlink:href="class_bad_credentials_json.html" target="_top" xlink:title=" ">
<polygon fill="white" stroke="black" points="346,-164 346,-183 457,-183 457,-164 346,-164"/>
<text text-anchor="middle" x="401.5" y="-171" font-family="Helvetica,sans-Serif" font-size="10.00">BadCredentialsJson</text>
</a>
</g>
</g>
<!-- Node255&#45;&gt;Node258 -->
<g id="edge34" class="edge">
<title>Node255&#45;&gt;Node258</title>
<path fill="none" stroke="midnightblue" d="M269.04,-160.52C293.66,-162.96 321.86,-165.74 345.8,-168.1"/>
<polygon fill="midnightblue" stroke="midnightblue" points="269.38,-157.04 259.08,-159.54 268.69,-164.01 269.38,-157.04"/>
</g>
<!-- Node259 -->
<g id="node36" class="node">
<title>Node259</title>
<g id="a_node36"><a xlink:href="class_initializer_1_1_error.html" target="_top" xlink:title=" ">
<polygon fill="white" stroke="black" points="355.5,-126 355.5,-145 447.5,-145 447.5,-126 355.5,-126"/>
<text text-anchor="middle" x="401.5" y="-133" font-family="Helvetica,sans-Serif" font-size="10.00">Initializer::Error</text>
</a>
</g>
</g>
<!-- Node255&#45;&gt;Node259 -->
<g id="edge35" class="edge">
<title>Node255&#45;&gt;Node259</title>
<path fill="none" stroke="midnightblue" d="M269.16,-148.46C297.15,-145.7 329.72,-142.49 355.42,-139.95"/>
<polygon fill="midnightblue" stroke="midnightblue" points="268.69,-144.99 259.08,-149.46 269.38,-151.96 268.69,-144.99"/>
</g>
<!-- Node264 -->
<g id="node41" class="node">
<title>Node264</title>
<g id="a_node41"><a xlink:href="class_s_q_l_exception.html" target="_top" xlink:title=" ">
<polygon fill="white" stroke="black" points="360,-88 360,-107 443,-107 443,-88 360,-88"/>
<text text-anchor="middle" x="401.5" y="-95" font-family="Helvetica,sans-Serif" font-size="10.00">SQLException</text>
</a>
</g>
</g>
<!-- Node255&#45;&gt;Node264 -->
<g id="edge40" class="edge">
<title>Node255&#45;&gt;Node264</title>
<path fill="none" stroke="midnightblue" d="M246.56,-141.75C270.01,-134.12 300.63,-124.41 328,-116.5 339.25,-113.25 351.55,-109.93 362.77,-107"/>
<polygon fill="midnightblue" stroke="midnightblue" points="245.39,-138.44 236.97,-144.87 247.57,-145.1 245.39,-138.44"/>
</g>
<!-- Node266 -->
<g id="node43" class="node">
<title>Node266</title>
<g id="a_node43"><a xlink:href="class_storage_exception.html" target="_top" xlink:title=" ">
<polygon fill="white" stroke="black" points="350.5,-50 350.5,-69 452.5,-69 452.5,-50 350.5,-50"/>
<text text-anchor="middle" x="401.5" y="-57" font-family="Helvetica,sans-Serif" font-size="10.00">StorageException</text>
</a>
</g>
</g>
<!-- Node255&#45;&gt;Node266 -->
<g id="edge42" class="edge">
<title>Node255&#45;&gt;Node266</title>
<path fill="none" stroke="midnightblue" d="M228.53,-138.7C251.58,-121.64 290.67,-94.74 328,-78.5 336.59,-74.76 346.08,-71.62 355.29,-69.04"/>
<polygon fill="midnightblue" stroke="midnightblue" points="226.13,-136.12 220.24,-144.92 230.34,-141.72 226.13,-136.12"/>
</g>
<!-- Node267 -->
<g id="node44" class="node">
<title>Node267</title>
<g id="a_node44"><a xlink:href="class_storage_lock_1_1locked__exception.html" target="_top" xlink:title=" ">
<polygon fill="white" stroke="black" points="344.5,-0.5 344.5,-30.5 458.5,-30.5 458.5,-0.5 344.5,-0.5"/>
<text text-anchor="start" x="352.5" y="-18.5" font-family="Helvetica,sans-Serif" font-size="10.00">StorageLock::locked</text>
<text text-anchor="middle" x="401.5" y="-7.5" font-family="Helvetica,sans-Serif" font-size="10.00">_exception</text>
</a>
</g>
</g>
<!-- Node255&#45;&gt;Node267 -->
<g id="edge43" class="edge">
<title>Node255&#45;&gt;Node267</title>
<path fill="none" stroke="#8b1a1a" d="M222.14,-136.97C242.93,-112.25 284.06,-67.19 328,-40.5 334.26,-36.7 341.17,-33.38 348.18,-30.5"/>
<polygon fill="#8b1a1a" stroke="#8b1a1a" points="219.34,-134.87 215.66,-144.8 224.73,-139.33 219.34,-134.87"/>
</g>
<!-- Node260 -->
<g id="node37" class="node">
<title>Node260</title>
<g id="a_node37"><a xlink:href="class_initializer_1_1_key_generation_error.html" target="_top" xlink:title=" ">
<polygon fill="white" stroke="black" points="533,-183.5 533,-213.5 673,-213.5 673,-183.5 533,-183.5"/>
<text text-anchor="start" x="541" y="-201.5" font-family="Helvetica,sans-Serif" font-size="10.00">Initializer::KeyGeneration</text>
<text text-anchor="middle" x="603" y="-190.5" font-family="Helvetica,sans-Serif" font-size="10.00">Error</text>
</a>
</g>
</g>
<!-- Node259&#45;&gt;Node260 -->
<g id="edge36" class="edge">
<title>Node259&#45;&gt;Node260</title>
<path fill="none" stroke="midnightblue" d="M455.33,-147.82C462.03,-149.83 468.73,-152.06 475,-154.5 491.86,-161.06 494.18,-166.84 511,-173.5 520.29,-177.18 530.32,-180.52 540.21,-183.48"/>
<polygon fill="midnightblue" stroke="midnightblue" points="456.15,-144.42 445.57,-145.05 454.23,-151.15 456.15,-144.42"/>
</g>
<!-- Node261 -->
<g id="node38" class="node">
<title>Node261</title>
<g id="a_node38"><a xlink:href="class_initializer_1_1_server_error.html" target="_top" xlink:title=" ">
<polygon fill="white" stroke="black" points="541.5,-145 541.5,-164 664.5,-164 664.5,-145 541.5,-145"/>
<text text-anchor="middle" x="603" y="-152" font-family="Helvetica,sans-Serif" font-size="10.00">Initializer::ServerError</text>
</a>
</g>
</g>
<!-- Node259&#45;&gt;Node261 -->
<g id="edge37" class="edge">
<title>Node259&#45;&gt;Node261</title>
<path fill="none" stroke="midnightblue" d="M457.82,-140.77C483.79,-143.24 514.8,-146.2 541.4,-148.73"/>
<polygon fill="midnightblue" stroke="midnightblue" points="458.06,-137.28 447.77,-139.81 457.39,-144.24 458.06,-137.28"/>
</g>
<!-- Node262 -->
<g id="node39" class="node">
<title>Node262</title>
<g id="a_node39"><a xlink:href="class_initializer_1_1_server_occupied.html" target="_top" xlink:title=" ">
<polygon fill="white" stroke="black" points="530.5,-107 530.5,-126 675.5,-126 675.5,-107 530.5,-107"/>
<text text-anchor="middle" x="603" y="-114" font-family="Helvetica,sans-Serif" font-size="10.00">Initializer::ServerOccupied</text>
</a>
</g>
</g>
<!-- Node259&#45;&gt;Node262 -->
<g id="edge38" class="edge">
<title>Node259&#45;&gt;Node262</title>
<path fill="none" stroke="midnightblue" d="M457.79,-130.23C480.22,-128.1 506.43,-125.6 530.3,-123.33"/>
<polygon fill="midnightblue" stroke="midnightblue" points="457.39,-126.76 447.77,-131.19 458.06,-133.72 457.39,-126.76"/>
</g>
<!-- Node263 -->
<g id="node40" class="node">
<title>Node263</title>
<g id="a_node40"><a xlink:href="class_initializer_1_1_storage_error.html" target="_top" xlink:title=" ">
<polygon fill="white" stroke="black" points="538.5,-69 538.5,-88 667.5,-88 667.5,-69 538.5,-69"/>
<text text-anchor="middle" x="603" y="-76" font-family="Helvetica,sans-Serif" font-size="10.00">Initializer::StorageError</text>
</a>
</g>
</g>
<!-- Node259&#45;&gt;Node263 -->
<g id="edge39" class="edge">
<title>Node259&#45;&gt;Node263</title>
<path fill="none" stroke="midnightblue" d="M455.33,-123.18C462.03,-121.17 468.73,-118.94 475,-116.5 491.86,-109.94 493.98,-103.63 511,-97.5 521.48,-93.73 532.92,-90.61 544.04,-88.06"/>
<polygon fill="midnightblue" stroke="midnightblue" points="454.23,-119.85 445.57,-125.95 456.15,-126.58 454.23,-119.85"/>
</g>
<!-- Node265 -->
<g id="node42" class="node">
<title>Node265</title>
<g id="a_node42"><a xlink:href="class_s_q_l_internal_exception.html" target="_top" xlink:title=" ">
<polygon fill="white" stroke="black" points="542.5,-31 542.5,-50 663.5,-50 663.5,-31 542.5,-31"/>
<text text-anchor="middle" x="603" y="-38" font-family="Helvetica,sans-Serif" font-size="10.00">SQLInternalException</text>
</a>
</g>
</g>
<!-- Node264&#45;&gt;Node265 -->
<g id="edge41" class="edge">
<title>Node264&#45;&gt;Node265</title>
<path fill="none" stroke="midnightblue" d="M453.01,-85.86C460.47,-83.68 468,-81.22 475,-78.5 491.86,-71.94 493.98,-65.63 511,-59.5 521.48,-55.73 532.92,-52.61 544.04,-50.06"/>
<polygon fill="midnightblue" stroke="midnightblue" points="451.99,-82.51 443.29,-88.56 453.86,-89.26 451.99,-82.51"/>
</g>
</g>
</svg>
