<?xml version="1.0" encoding="UTF-8" standalone="no"?>
<!DOCTYPE svg PUBLIC "-//W3C//DTD SVG 1.1//EN"
 "http://www.w3.org/Graphics/SVG/1.1/DTD/svg11.dtd">
<!-- Generated by graphviz version 2.40.1 (20161225.0304)
 -->
<!-- Title: SecondaryAdapter Pages: 1 -->
<svg width="155pt" height="319pt"
 viewBox="0.00 0.00 154.98 319.00" xmlns="http://www.w3.org/2000/svg" xmlns:xlink="http://www.w3.org/1999/xlink">
<g id="graph0" class="graph" transform="scale(1 1) rotate(0) translate(4 315)">
<title>SecondaryAdapter</title>
<polygon fill="#ffffff" stroke="transparent" points="-4,4 -4,-315 150.9795,-315 150.9795,4 -4,4"/>
<!-- Node2 -->
<g id="node1" class="node">
<title>Node2</title>
<polygon fill="#bfbfbf" stroke="#000000" points="20.8447,-.5 20.8447,-18.5 119.6768,-18.5 119.6768,-.5 20.8447,-.5"/>
<text text-anchor="middle" x="70.2607" y="-6.5" font-family="Helvetica,sans-Serif" font-size="10.00" fill="#000000">SecondaryAdapter</text>
</g>
<!-- Node3 -->
<g id="node2" class="node">
<title>Node3</title>
<g id="a_node2"><a xlink:href="class_uptane_1_1_secondary_interface.html" target="_top" xlink:title="Uptane::SecondaryInterface">
<polygon fill="#ffffff" stroke="#000000" points="0,-56.5 0,-74.5 140.5215,-74.5 140.5215,-56.5 0,-56.5"/>
<text text-anchor="middle" x="70.2607" y="-62.5" font-family="Helvetica,sans-Serif" font-size="10.00" fill="#000000">Uptane::SecondaryInterface</text>
</a>
</g>
</g>
<!-- Node3&#45;&gt;Node2 -->
<g id="edge1" class="edge">
<title>Node3&#45;&gt;Node2</title>
<path fill="none" stroke="#191970" d="M70.2607,-46.2065C70.2607,-36.8384 70.2607,-26.0262 70.2607,-18.5752"/>
<polygon fill="#191970" stroke="#191970" points="66.7608,-46.2527 70.2607,-56.2527 73.7608,-46.2528 66.7608,-46.2527"/>
</g>
<!-- Node4 -->
<g id="node3" class="node">
<title>Node4</title>
<g id="a_node3"><a xlink:href="class_uptane_1_1_secondary_config.html" target="_top" xlink:title="Uptane::SecondaryConfig">
<polygon fill="#ffffff" stroke="#000000" points="5.0024,-121.5 5.0024,-139.5 135.519,-139.5 135.519,-121.5 5.0024,-121.5"/>
<text text-anchor="middle" x="70.2607" y="-127.5" font-family="Helvetica,sans-Serif" font-size="10.00" fill="#000000">Uptane::SecondaryConfig</text>
</a>
</g>
</g>
<!-- Node4&#45;&gt;Node3 -->
<g id="edge2" class="edge">
<title>Node4&#45;&gt;Node3</title>
<path fill="none" stroke="#9a32cd" stroke-dasharray="5,2" d="M70.2607,-111.1265C70.2607,-99.1522 70.2607,-84.3205 70.2607,-74.8821"/>
<polygon fill="#9a32cd" stroke="#9a32cd" points="66.7608,-111.462 70.2607,-121.462 73.7608,-111.4621 66.7608,-111.462"/>
<text text-anchor="middle" x="87.4922" y="-95" font-family="Helvetica,sans-Serif" font-size="10.00" fill="#000000"> sconfig</text>
</g>
<!-- Node5 -->
<g id="node4" class="node">
<title>Node5</title>
<g id="a_node4"><a xlink:title="STL class. ">
<polygon fill="#ffffff" stroke="#bfbfbf" points="40.5859,-226.5 40.5859,-244.5 99.9355,-244.5 99.9355,-226.5 40.5859,-226.5"/>
<text text-anchor="middle" x="70.2607" y="-232.5" font-family="Helvetica,sans-Serif" font-size="10.00" fill="#000000">std::string</text>
</a>
</g>
</g>
<!-- Node5&#45;&gt;Node4 -->
<g id="edge3" class="edge">
<title>Node5&#45;&gt;Node4</title>
<path fill="none" stroke="#9a32cd" stroke-dasharray="5,2" d="M70.2607,-216.0056C70.2607,-193.2586 70.2607,-156.6045 70.2607,-139.6472"/>
<polygon fill="#9a32cd" stroke="#9a32cd" points="66.7608,-216.1819 70.2607,-226.182 73.7608,-216.182 66.7608,-216.1819"/>
<text text-anchor="middle" x="108.6201" y="-200" font-family="Helvetica,sans-Serif" font-size="10.00" fill="#000000"> ecu_private_key</text>
<text text-anchor="middle" x="108.6201" y="-190" font-family="Helvetica,sans-Serif" font-size="10.00" fill="#000000">ecu_hardware_id</text>
<text text-anchor="middle" x="108.6201" y="-180" font-family="Helvetica,sans-Serif" font-size="10.00" fill="#000000">ecu_serial</text>
<text text-anchor="middle" x="108.6201" y="-170" font-family="Helvetica,sans-Serif" font-size="10.00" fill="#000000">opcua_lds_url</text>
<text text-anchor="middle" x="108.6201" y="-160" font-family="Helvetica,sans-Serif" font-size="10.00" fill="#000000">ecu_public_key</text>
</g>
<!-- Node6 -->
<g id="node5" class="node">
<title>Node6</title>
<g id="a_node5"><a xlink:title="STL class. ">
<polygon fill="#ffffff" stroke="#bfbfbf" points="23.2129,-282.5 23.2129,-310.5 117.3086,-310.5 117.3086,-282.5 23.2129,-282.5"/>
<text text-anchor="start" x="31.2129" y="-298.5" font-family="Helvetica,sans-Serif" font-size="10.00" fill="#000000">std::basic_string&lt;</text>
<text text-anchor="middle" x="70.2607" y="-288.5" font-family="Helvetica,sans-Serif" font-size="10.00" fill="#000000"> char &gt;</text>
</a>
</g>
</g>
<!-- Node6&#45;&gt;Node5 -->
<g id="edge4" class="edge">
<title>Node6&#45;&gt;Node5</title>
<path fill="none" stroke="#191970" d="M70.2607,-272.1001C70.2607,-262.5157 70.2607,-252.0935 70.2607,-244.831"/>
<polygon fill="#191970" stroke="#191970" points="66.7608,-272.352 70.2607,-282.3521 73.7608,-272.3521 66.7608,-272.352"/>
</g>
</g>
</svg>
