<?xml version="1.0" encoding="UTF-8" standalone="no"?>
<!DOCTYPE svg PUBLIC "-//W3C//DTD SVG 1.1//EN"
 "http://www.w3.org/Graphics/SVG/1.1/DTD/svg11.dtd">
<!-- Generated by graphviz version 2.40.1 (20161225.0304)
 -->
<!-- Title: event::BaseEvent Pages: 1 -->
<svg width="102pt" height="158pt"
 viewBox="0.00 0.00 102.38 158.00" xmlns="http://www.w3.org/2000/svg" xmlns:xlink="http://www.w3.org/1999/xlink">
<g id="graph0" class="graph" transform="scale(1 1) rotate(0) translate(4 154)">
<title>event::BaseEvent</title>
<polygon fill="#ffffff" stroke="transparent" points="-4,4 -4,-154 98.3838,-154 98.3838,4 -4,4"/>
<!-- Node16 -->
<g id="node1" class="node">
<title>Node16</title>
<polygon fill="#bfbfbf" stroke="#000000" points="0,-.5 0,-18.5 94.3838,-18.5 94.3838,-.5 0,-.5"/>
<text text-anchor="middle" x="47.1919" y="-6.5" font-family="Helvetica,sans-Serif" font-size="10.00" fill="#000000">event::BaseEvent</text>
</g>
<!-- Node17 -->
<g id="node2" class="node">
<title>Node17</title>
<g id="a_node2"><a xlink:title="STL class. ">
<polygon fill="#ffffff" stroke="#bfbfbf" points="17.5171,-65.5 17.5171,-83.5 76.8667,-83.5 76.8667,-65.5 17.5171,-65.5"/>
<text text-anchor="middle" x="47.1919" y="-71.5" font-family="Helvetica,sans-Serif" font-size="10.00" fill="#000000">std::string</text>
</a>
</g>
</g>
<!-- Node17&#45;&gt;Node16 -->
<g id="edge1" class="edge">
<title>Node17&#45;&gt;Node16</title>
<path fill="none" stroke="#9a32cd" stroke-dasharray="5,2" d="M47.1919,-55.1265C47.1919,-43.1522 47.1919,-28.3205 47.1919,-18.8821"/>
<polygon fill="#9a32cd" stroke="#9a32cd" points="43.692,-55.462 47.1919,-65.462 50.692,-55.4621 43.692,-55.462"/>
<text text-anchor="middle" x="63.5884" y="-39" font-family="Helvetica,sans-Serif" font-size="10.00" fill="#000000"> variant</text>
</g>
<!-- Node18 -->
<g id="node3" class="node">
<title>Node18</title>
<g id="a_node3"><a xlink:title="STL class. ">
<polygon fill="#ffffff" stroke="#bfbfbf" points=".144,-121.5 .144,-149.5 94.2397,-149.5 94.2397,-121.5 .144,-121.5"/>
<text text-anchor="start" x="8.144" y="-137.5" font-family="Helvetica,sans-Serif" font-size="10.00" fill="#000000">std::basic_string&lt;</text>
<text text-anchor="middle" x="47.1919" y="-127.5" font-family="Helvetica,sans-Serif" font-size="10.00" fill="#000000"> char &gt;</text>
</a>
</g>
</g>
<!-- Node18&#45;&gt;Node17 -->
<g id="edge2" class="edge">
<title>Node18&#45;&gt;Node17</title>
<path fill="none" stroke="#191970" d="M47.1919,-111.1001C47.1919,-101.5157 47.1919,-91.0935 47.1919,-83.831"/>
<polygon fill="#191970" stroke="#191970" points="43.692,-111.352 47.1919,-121.3521 50.692,-111.3521 43.692,-111.352"/>
</g>
</g>
</svg>
