<?xml version="1.0" encoding="UTF-8" standalone="no"?>
<!DOCTYPE svg PUBLIC "-//W3C//DTD SVG 1.1//EN"
 "http://www.w3.org/Graphics/SVG/1.1/DTD/svg11.dtd">
<!-- Generated by graphviz version 2.40.1 (20161225.0304)
 -->
<!-- Title: Uptane::OversizedTarget Pages: 1 -->
<svg width="135pt" height="192pt"
 viewBox="0.00 0.00 134.61 192.00" xmlns="http://www.w3.org/2000/svg" xmlns:xlink="http://www.w3.org/1999/xlink">
<g id="graph0" class="graph" transform="scale(1 1) rotate(0) translate(4 188)">
<title>Uptane::OversizedTarget</title>
<polygon fill="#ffffff" stroke="transparent" points="-4,4 -4,-188 130.6104,-188 130.6104,4 -4,4"/>
<!-- Node0 -->
<g id="node1" class="node">
<title>Node0</title>
<polygon fill="#bfbfbf" stroke="#000000" points="0,-.5 0,-18.5 126.6104,-18.5 126.6104,-.5 0,-.5"/>
<text text-anchor="middle" x="63.3052" y="-6.5" font-family="Helvetica,sans-Serif" font-size="10.00" fill="#000000">Uptane::OversizedTarget</text>
</g>
<!-- Node1 -->
<g id="node2" class="node">
<title>Node1</title>
<g id="a_node2"><a xlink:href="class_uptane_1_1_exception.html" target="_top" xlink:title="Uptane::Exception">
<polygon fill="#ffffff" stroke="#000000" points="14.4458,-55.5 14.4458,-73.5 112.1646,-73.5 112.1646,-55.5 14.4458,-55.5"/>
<text text-anchor="middle" x="63.3052" y="-61.5" font-family="Helvetica,sans-Serif" font-size="10.00" fill="#000000">Uptane::Exception</text>
</a>
</g>
</g>
<!-- Node1&#45;&gt;Node0 -->
<g id="edge1" class="edge">
<title>Node1&#45;&gt;Node0</title>
<path fill="none" stroke="#191970" d="M63.3052,-45.383C63.3052,-36.3738 63.3052,-26.0373 63.3052,-18.7795"/>
<polygon fill="#191970" stroke="#191970" points="59.8053,-45.4178 63.3052,-55.4179 66.8053,-45.4179 59.8053,-45.4178"/>
</g>
<!-- Node2 -->
<g id="node3" class="node">
<title>Node2</title>
<g id="a_node3"><a xlink:title="STL class. ">
<polygon fill="#ffffff" stroke="#bfbfbf" points="22.2363,-110.5 22.2363,-128.5 104.374,-128.5 104.374,-110.5 22.2363,-110.5"/>
<text text-anchor="middle" x="63.3052" y="-116.5" font-family="Helvetica,sans-Serif" font-size="10.00" fill="#000000">std::logic_error</text>
</a>
</g>
</g>
<!-- Node2&#45;&gt;Node1 -->
<g id="edge2" class="edge">
<title>Node2&#45;&gt;Node1</title>
<path fill="none" stroke="#191970" d="M63.3052,-100.383C63.3052,-91.3738 63.3052,-81.0373 63.3052,-73.7795"/>
<polygon fill="#191970" stroke="#191970" points="59.8053,-100.4178 63.3052,-110.4179 66.8053,-100.4179 59.8053,-100.4178"/>
</g>
<!-- Node3 -->
<g id="node4" class="node">
<title>Node3</title>
<g id="a_node4"><a xlink:title="STL class. ">
<polygon fill="#ffffff" stroke="#bfbfbf" points="24.4531,-165.5 24.4531,-183.5 102.1572,-183.5 102.1572,-165.5 24.4531,-165.5"/>
<text text-anchor="middle" x="63.3052" y="-171.5" font-family="Helvetica,sans-Serif" font-size="10.00" fill="#000000">std::exception</text>
</a>
</g>
</g>
<!-- Node3&#45;&gt;Node2 -->
<g id="edge3" class="edge">
<title>Node3&#45;&gt;Node2</title>
<path fill="none" stroke="#191970" d="M63.3052,-155.383C63.3052,-146.3738 63.3052,-136.0373 63.3052,-128.7795"/>
<polygon fill="#191970" stroke="#191970" points="59.8053,-155.4178 63.3052,-165.4179 66.8053,-155.4179 59.8053,-155.4178"/>
</g>
</g>
</svg>
