<?xml version="1.0" encoding="UTF-8" standalone="no"?>
<!DOCTYPE svg PUBLIC "-//W3C//DTD SVG 1.1//EN"
 "http://www.w3.org/Graphics/SVG/1.1/DTD/svg11.dtd">
<!-- Generated by graphviz version 2.40.1 (20161225.0304)
 -->
<!-- Title: opcuabridge::MetadataFile Pages: 1 -->
<svg width="607pt" height="182pt"
 viewBox="0.00 0.00 606.92 182.00" xmlns="http://www.w3.org/2000/svg" xmlns:xlink="http://www.w3.org/1999/xlink">
<g id="graph0" class="graph" transform="scale(1 1) rotate(0) translate(4 178)">
<title>opcuabridge::MetadataFile</title>
<polygon fill="#ffffff" stroke="transparent" points="-4,4 -4,-178 602.916,-178 602.916,4 -4,4"/>
<!-- Node1 -->
<g id="node1" class="node">
<title>Node1</title>
<polygon fill="#bfbfbf" stroke="#000000" points="464.5078,-67.5 464.5078,-85.5 598.916,-85.5 598.916,-67.5 464.5078,-67.5"/>
<text text-anchor="middle" x="531.7119" y="-73.5" font-family="Helvetica,sans-Serif" font-size="10.00" fill="#000000">opcuabridge::MetadataFile</text>
</g>
<!-- Node2 -->
<g id="node2" class="node">
<title>Node2</title>
<g id="a_node2"><a xlink:href="structopcuabridge_1_1_message_on_before_read_callback.html" target="_top" xlink:title="opcuabridge::MessageOnBefore\lReadCallback\&lt; opcuabridge\l::MetadataFile \&gt;">
<polygon fill="#ffffff" stroke="#000000" points="173.4502,-135.5 173.4502,-173.5 333.4297,-173.5 333.4297,-135.5 173.4502,-135.5"/>
<text text-anchor="start" x="181.4502" y="-161.5" font-family="Helvetica,sans-Serif" font-size="10.00" fill="#000000">opcuabridge::MessageOnBefore</text>
<text text-anchor="start" x="181.4502" y="-151.5" font-family="Helvetica,sans-Serif" font-size="10.00" fill="#000000">ReadCallback&lt; opcuabridge</text>
<text text-anchor="middle" x="253.4399" y="-141.5" font-family="Helvetica,sans-Serif" font-size="10.00" fill="#000000">::MetadataFile &gt;</text>
</a>
</g>
</g>
<!-- Node2&#45;&gt;Node1 -->
<g id="edge1" class="edge">
<title>Node2&#45;&gt;Node1</title>
<path fill="none" stroke="#9a32cd" stroke-dasharray="5,2" d="M336.4233,-132.794C370.59,-123.6896 410.5227,-112.8334 446.5078,-102.5 465.3864,-97.0789 486.5034,-90.6377 502.9917,-85.5227"/>
<polygon fill="#9a32cd" stroke="#9a32cd" points="335.2481,-129.4848 326.4831,-135.4367 337.0467,-136.2497 335.2481,-129.4848"/>
<text text-anchor="middle" x="398.9688" y="-130.5" font-family="Helvetica,sans-Serif" font-size="10.00" fill="#000000"> on_before_read_cb_</text>
</g>
<!-- Node3 -->
<g id="node3" class="node">
<title>Node3</title>
<g id="a_node3"><a xlink:href="structopcuabridge_1_1_message_on_after_write_callback.html" target="_top" xlink:title="opcuabridge::MessageOnAfter\lWriteCallback\&lt; opcuabridge\l::MetadataFile \&gt;">
<polygon fill="#ffffff" stroke="#000000" points="177.6226,-78.5 177.6226,-116.5 329.2573,-116.5 329.2573,-78.5 177.6226,-78.5"/>
<text text-anchor="start" x="185.6226" y="-104.5" font-family="Helvetica,sans-Serif" font-size="10.00" fill="#000000">opcuabridge::MessageOnAfter</text>
<text text-anchor="start" x="185.6226" y="-94.5" font-family="Helvetica,sans-Serif" font-size="10.00" fill="#000000">WriteCallback&lt; opcuabridge</text>
<text text-anchor="middle" x="253.4399" y="-84.5" font-family="Helvetica,sans-Serif" font-size="10.00" fill="#000000">::MetadataFile &gt;</text>
</a>
</g>
</g>
<!-- Node3&#45;&gt;Node1 -->
<g id="edge2" class="edge">
<title>Node3&#45;&gt;Node1</title>
<path fill="none" stroke="#9a32cd" stroke-dasharray="5,2" d="M339.53,-91.0031C379.6913,-87.9723 426.7874,-84.4182 464.3057,-81.5869"/>
<polygon fill="#9a32cd" stroke="#9a32cd" points="339.1872,-87.519 329.479,-91.7617 339.714,-94.4991 339.1872,-87.519"/>
<text text-anchor="middle" x="398.9688" y="-90.5" font-family="Helvetica,sans-Serif" font-size="10.00" fill="#000000"> on_after_write_cb_</text>
</g>
<!-- Node4 -->
<g id="node4" class="node">
<title>Node4</title>
<g id="a_node4"><a xlink:title="STL class. ">
<polygon fill="#ffffff" stroke="#bfbfbf" points="223.7651,-41.5 223.7651,-59.5 283.1147,-59.5 283.1147,-41.5 223.7651,-41.5"/>
<text text-anchor="middle" x="253.4399" y="-47.5" font-family="Helvetica,sans-Serif" font-size="10.00" fill="#000000">std::string</text>
</a>
</g>
</g>
<!-- Node4&#45;&gt;Node1 -->
<g id="edge3" class="edge">
<title>Node4&#45;&gt;Node1</title>
<path fill="none" stroke="#9a32cd" stroke-dasharray="5,2" d="M293.616,-54.2379C332.6692,-57.8733 393.6585,-63.5553 446.5078,-68.5 452.277,-69.0398 458.2659,-69.6008 464.2736,-70.164"/>
<polygon fill="#9a32cd" stroke="#9a32cd" points="293.489,-50.7111 283.2076,-53.2692 292.8402,-57.681 293.489,-50.7111"/>
<text text-anchor="middle" x="398.9688" y="-70.5" font-family="Helvetica,sans-Serif" font-size="10.00" fill="#000000"> filename_</text>
</g>
<!-- Node5 -->
<g id="node5" class="node">
<title>Node5</title>
<g id="a_node5"><a xlink:title="STL class. ">
<polygon fill="#ffffff" stroke="#bfbfbf" points="0,-37.5 0,-65.5 94.0957,-65.5 94.0957,-37.5 0,-37.5"/>
<text text-anchor="start" x="8" y="-53.5" font-family="Helvetica,sans-Serif" font-size="10.00" fill="#000000">std::basic_string&lt;</text>
<text text-anchor="middle" x="47.0479" y="-43.5" font-family="Helvetica,sans-Serif" font-size="10.00" fill="#000000"> char &gt;</text>
</a>
</g>
</g>
<!-- Node5&#45;&gt;Node4 -->
<g id="edge4" class="edge">
<title>Node5&#45;&gt;Node4</title>
<path fill="none" stroke="#191970" d="M104.2198,-51.223C142.8659,-51.0357 192.3421,-50.796 223.4744,-50.6452"/>
<polygon fill="#191970" stroke="#191970" points="104.1226,-47.7233 94.1397,-51.2718 104.1565,-54.7232 104.1226,-47.7233"/>
</g>
<!-- Node6 -->
<g id="node6" class="node">
<title>Node6</title>
<g id="a_node6"><a xlink:title="STL class. ">
<polygon fill="#ffffff" stroke="#bfbfbf" points="210.8794,-2.5 210.8794,-20.5 296.0005,-20.5 296.0005,-2.5 210.8794,-2.5"/>
<text text-anchor="middle" x="253.4399" y="-8.5" font-family="Helvetica,sans-Serif" font-size="10.00" fill="#000000">std::vector&lt; T &gt;</text>
</a>
</g>
</g>
<!-- Node6&#45;&gt;Node1 -->
<g id="edge5" class="edge">
<title>Node6&#45;&gt;Node1</title>
<path fill="none" stroke="#9a32cd" stroke-dasharray="5,2" d="M306.1911,-18.2515C345.3087,-23.8691 399.7297,-32.9743 446.5078,-45.5 468.5556,-51.4037 492.9622,-60.5649 509.9823,-67.3995"/>
<polygon fill="#9a32cd" stroke="#9a32cd" points="306.4775,-14.7574 296.0872,-16.8291 305.5017,-21.6891 306.4775,-14.7574"/>
<text text-anchor="middle" x="398.9688" y="-47.5" font-family="Helvetica,sans-Serif" font-size="10.00" fill="#000000"> metadata_</text>
</g>
<!-- Node7 -->
<g id="node7" class="node">
<title>Node7</title>
<polygon fill="#ffffff" stroke="#bfbfbf" points="32.5479,-.5 32.5479,-18.5 61.5479,-18.5 61.5479,-.5 32.5479,-.5"/>
<text text-anchor="middle" x="47.0479" y="-6.5" font-family="Helvetica,sans-Serif" font-size="10.00" fill="#000000">T</text>
</g>
<!-- Node7&#45;&gt;Node6 -->
<g id="edge6" class="edge">
<title>Node7&#45;&gt;Node6</title>
<path fill="none" stroke="#9a32cd" stroke-dasharray="5,2" d="M71.6354,-9.7383C105.9315,-10.0706 168.6418,-10.6783 210.6842,-11.0857"/>
<polygon fill="#9a32cd" stroke="#9a32cd" points="71.5944,-6.2378 61.5609,-9.6406 71.5265,-13.2375 71.5944,-6.2378"/>
<text text-anchor="middle" x="133.7729" y="-12.5" font-family="Helvetica,sans-Serif" font-size="10.00" fill="#000000"> elements</text>
</g>
</g>
</svg>
