<?xml version="1.0" encoding="UTF-8" standalone="no"?>
<!DOCTYPE svg PUBLIC "-//W3C//DTD SVG 1.1//EN"
 "http://www.w3.org/Graphics/SVG/1.1/DTD/svg11.dtd">
<!-- Generated by graphviz version 2.40.1 (20161225.0304)
 -->
<!-- Title: event::BaseEvent Pages: 1 -->
<svg width="303pt" height="545pt"
 viewBox="0.00 0.00 303.35 545.00" xmlns="http://www.w3.org/2000/svg" xmlns:xlink="http://www.w3.org/1999/xlink">
<g id="graph0" class="graph" transform="scale(1 1) rotate(0) translate(4 541)">
<title>event::BaseEvent</title>
<polygon fill="#ffffff" stroke="transparent" points="-4,4 -4,-541 299.3535,-541 299.3535,4 -4,4"/>
<!-- Node0 -->
<g id="node1" class="node">
<title>Node0</title>
<polygon fill="#bfbfbf" stroke="#000000" points="0,-259.5 0,-277.5 94.3838,-277.5 94.3838,-259.5 0,-259.5"/>
<text text-anchor="middle" x="47.1919" y="-265.5" font-family="Helvetica,sans-Serif" font-size="10.00" fill="#000000">event::BaseEvent</text>
</g>
<!-- Node1 -->
<g id="node2" class="node">
<title>Node1</title>
<g id="a_node2"><a xlink:href="classevent_1_1_all_downloads_complete.html" target="_top" xlink:title="An update has been successfully downloaded. ">
<polygon fill="#ffffff" stroke="#000000" points="138.167,-518.5 138.167,-536.5 287.5703,-536.5 287.5703,-518.5 138.167,-518.5"/>
<text text-anchor="middle" x="212.8687" y="-524.5" font-family="Helvetica,sans-Serif" font-size="10.00" fill="#000000">event::AllDownloadsComplete</text>
</a>
</g>
</g>
<!-- Node0&#45;&gt;Node1 -->
<g id="edge1" class="edge">
<title>Node0&#45;&gt;Node1</title>
<path fill="none" stroke="#191970" d="M51.2044,-287.3511C62.4906,-338.6354 95.9409,-478.8848 130.3838,-509.5 134.4372,-513.1029 139.0419,-516.0404 143.954,-518.4295"/>
<polygon fill="#191970" stroke="#191970" points="54.625,-286.6094 49.0863,-277.5775 47.7838,-288.092 54.625,-286.6094"/>
</g>
<!-- Node2 -->
<g id="node3" class="node">
<title>Node2</title>
<g id="a_node3"><a xlink:href="classevent_1_1_all_installs_complete.html" target="_top" xlink:title="All ECU update attempts have completed. ">
<polygon fill="#ffffff" stroke="#000000" points="147.3418,-481.5 147.3418,-499.5 278.3955,-499.5 278.3955,-481.5 147.3418,-481.5"/>
<text text-anchor="middle" x="212.8687" y="-487.5" font-family="Helvetica,sans-Serif" font-size="10.00" fill="#000000">event::AllInstallsComplete</text>
</a>
</g>
</g>
<!-- Node0&#45;&gt;Node2 -->
<g id="edge2" class="edge">
<title>Node0&#45;&gt;Node2</title>
<path fill="none" stroke="#191970" d="M49.148,-287.7081C54.3675,-328.4493 72.4438,-423.7753 130.3838,-472.5 135.3197,-476.6508 140.9955,-479.9066 147.0112,-482.4522"/>
<polygon fill="#191970" stroke="#191970" points="52.598,-287.0738 47.9731,-277.5417 45.6443,-287.8774 52.598,-287.0738"/>
</g>
<!-- Node3 -->
<g id="node4" class="node">
<title>Node3</title>
<g id="a_node4"><a xlink:href="classevent_1_1_campaign_accept_complete.html" target="_top" xlink:title="A campaign has been successfully accepted. ">
<polygon fill="#ffffff" stroke="#000000" points="130.3838,-444.5 130.3838,-462.5 295.3535,-462.5 295.3535,-444.5 130.3838,-444.5"/>
<text text-anchor="middle" x="212.8687" y="-450.5" font-family="Helvetica,sans-Serif" font-size="10.00" fill="#000000">event::CampaignAcceptComplete</text>
</a>
</g>
</g>
<!-- Node0&#45;&gt;Node3 -->
<g id="edge3" class="edge">
<title>Node0&#45;&gt;Node3</title>
<path fill="none" stroke="#191970" d="M51.0803,-287.8147C59.2196,-323.0021 81.4992,-397.424 130.3838,-435.5 135.0092,-439.1027 140.2029,-442.019 145.6745,-444.3755"/>
<polygon fill="#191970" stroke="#191970" points="54.4619,-286.8936 48.9187,-277.8646 47.6214,-288.3797 54.4619,-286.8936"/>
</g>
<!-- Node4 -->
<g id="node5" class="node">
<title>Node4</title>
<g id="a_node5"><a xlink:href="classevent_1_1_campaign_check_complete.html" target="_top" xlink:title="The server has been successfully queried for available campaigns. ">
<polygon fill="#ffffff" stroke="#000000" points="131.4971,-407.5 131.4971,-425.5 294.2402,-425.5 294.2402,-407.5 131.4971,-407.5"/>
<text text-anchor="middle" x="212.8687" y="-413.5" font-family="Helvetica,sans-Serif" font-size="10.00" fill="#000000">event::CampaignCheckComplete</text>
</a>
</g>
</g>
<!-- Node0&#45;&gt;Node4 -->
<g id="edge4" class="edge">
<title>Node0&#45;&gt;Node4</title>
<path fill="none" stroke="#191970" d="M53.8725,-287.5076C65.0145,-316.2905 90.2153,-370.5336 130.3838,-398.5 135.6765,-402.185 141.5866,-405.135 147.7454,-407.4938"/>
<polygon fill="#191970" stroke="#191970" points="57.0438,-285.9928 50.2886,-277.8308 50.4795,-288.4239 57.0438,-285.9928"/>
</g>
<!-- Node5 -->
<g id="node6" class="node">
<title>Node5</title>
<g id="a_node6"><a xlink:href="classevent_1_1_download_progress_report.html" target="_top" xlink:title="A report for a download in progress. ">
<polygon fill="#ffffff" stroke="#000000" points="132.6079,-370.5 132.6079,-388.5 293.1294,-388.5 293.1294,-370.5 132.6079,-370.5"/>
<text text-anchor="middle" x="212.8687" y="-376.5" font-family="Helvetica,sans-Serif" font-size="10.00" fill="#000000">event::DownloadProgressReport</text>
</a>
</g>
</g>
<!-- Node0&#45;&gt;Node5 -->
<g id="edge5" class="edge">
<title>Node0&#45;&gt;Node5</title>
<path fill="none" stroke="#191970" d="M58.0725,-286.3395C72.0654,-307.6807 98.4141,-342.8572 130.3838,-361.5 136.7147,-365.1918 143.7191,-368.1281 150.8924,-370.4632"/>
<polygon fill="#191970" stroke="#191970" points="60.8504,-284.1847 52.537,-277.6167 54.9401,-287.9355 60.8504,-284.1847"/>
</g>
<!-- Node6 -->
<g id="node7" class="node">
<title>Node6</title>
<g id="a_node7"><a xlink:href="classevent_1_1_download_target_complete.html" target="_top" xlink:title="A target has been successfully downloaded. ">
<polygon fill="#ffffff" stroke="#000000" points="132.3271,-333.5 132.3271,-351.5 293.4102,-351.5 293.4102,-333.5 132.3271,-333.5"/>
<text text-anchor="middle" x="212.8687" y="-339.5" font-family="Helvetica,sans-Serif" font-size="10.00" fill="#000000">event::DownloadTargetComplete</text>
</a>
</g>
</g>
<!-- Node0&#45;&gt;Node6 -->
<g id="edge6" class="edge">
<title>Node0&#45;&gt;Node6</title>
<path fill="none" stroke="#191970" d="M65.7563,-284.0286C81.8722,-296.7354 106.3371,-314.2292 130.3838,-324.5 138.8757,-328.1271 148.1835,-331.059 157.3913,-333.4184"/>
<polygon fill="#191970" stroke="#191970" points="67.6968,-281.097 57.7176,-277.5381 63.2993,-286.5433 67.6968,-281.097"/>
</g>
<!-- Node7 -->
<g id="node8" class="node">
<title>Node7</title>
<g id="a_node8"><a xlink:href="classevent_1_1_error.html" target="_top" xlink:title="An error occurred processing a command. ">
<polygon fill="#ffffff" stroke="#000000" points="178.748,-296.5 178.748,-314.5 246.9893,-314.5 246.9893,-296.5 178.748,-296.5"/>
<text text-anchor="middle" x="212.8687" y="-302.5" font-family="Helvetica,sans-Serif" font-size="10.00" fill="#000000">event::Error</text>
</a>
</g>
</g>
<!-- Node0&#45;&gt;Node7 -->
<g id="edge7" class="edge">
<title>Node0&#45;&gt;Node7</title>
<path fill="none" stroke="#191970" d="M96.5324,-279.8517C107.6619,-282.3891 119.4244,-285.0528 130.3838,-287.5 146.2623,-291.0457 163.8786,-294.9006 178.7405,-298.1301"/>
<polygon fill="#191970" stroke="#191970" points="97.0591,-276.3819 86.5307,-277.5667 95.5,-283.2061 97.0591,-276.3819"/>
</g>
<!-- Node8 -->
<g id="node9" class="node">
<title>Node8</title>
<g id="a_node9"><a xlink:href="classevent_1_1_fetch_meta_complete.html" target="_top" xlink:title="Metadata has been successfully fetched from the server. ">
<polygon fill="#ffffff" stroke="#000000" points="144.8394,-259.5 144.8394,-277.5 280.8979,-277.5 280.8979,-259.5 144.8394,-259.5"/>
<text text-anchor="middle" x="212.8687" y="-265.5" font-family="Helvetica,sans-Serif" font-size="10.00" fill="#000000">event::FetchMetaComplete</text>
</a>
</g>
</g>
<!-- Node0&#45;&gt;Node8 -->
<g id="edge8" class="edge">
<title>Node0&#45;&gt;Node8</title>
<path fill="none" stroke="#191970" d="M104.7785,-268.5C117.6599,-268.5 131.4419,-268.5 144.7055,-268.5"/>
<polygon fill="#191970" stroke="#191970" points="104.6682,-265.0001 94.6682,-268.5 104.6682,-272.0001 104.6682,-265.0001"/>
</g>
<!-- Node9 -->
<g id="node10" class="node">
<title>Node9</title>
<g id="a_node10"><a xlink:href="classevent_1_1_install_started.html" target="_top" xlink:title="An ECU has begun installation of an update. ">
<polygon fill="#ffffff" stroke="#000000" points="160.6768,-222.5 160.6768,-240.5 265.0605,-240.5 265.0605,-222.5 160.6768,-222.5"/>
<text text-anchor="middle" x="212.8687" y="-228.5" font-family="Helvetica,sans-Serif" font-size="10.00" fill="#000000">event::InstallStarted</text>
</a>
</g>
</g>
<!-- Node0&#45;&gt;Node9 -->
<g id="edge9" class="edge">
<title>Node0&#45;&gt;Node9</title>
<path fill="none" stroke="#191970" d="M97.7054,-257.219C121.6826,-251.8643 149.9451,-245.5525 172.4712,-240.5218"/>
<polygon fill="#191970" stroke="#191970" points="96.7177,-253.8533 87.721,-259.4488 98.2435,-260.685 96.7177,-253.8533"/>
</g>
<!-- Node10 -->
<g id="node11" class="node">
<title>Node10</title>
<g id="a_node11"><a xlink:href="classevent_1_1_install_target_complete.html" target="_top" xlink:title="An update attempt on an ECU is finished. ">
<polygon fill="#ffffff" stroke="#000000" points="141.502,-185.5 141.502,-203.5 284.2354,-203.5 284.2354,-185.5 141.502,-185.5"/>
<text text-anchor="middle" x="212.8687" y="-191.5" font-family="Helvetica,sans-Serif" font-size="10.00" fill="#000000">event::InstallTargetComplete</text>
</a>
</g>
</g>
<!-- Node0&#45;&gt;Node10 -->
<g id="edge10" class="edge">
<title>Node0&#45;&gt;Node10</title>
<path fill="none" stroke="#191970" d="M66.1061,-253.1234C82.271,-240.7128 106.6209,-223.6949 130.3838,-213.5 139.8372,-209.4442 150.288,-206.1859 160.484,-203.5921"/>
<polygon fill="#191970" stroke="#191970" points="63.7259,-250.5423 58.0234,-259.4716 68.0497,-256.0474 63.7259,-250.5423"/>
</g>
<!-- Node11 -->
<g id="node12" class="node">
<title>Node11</title>
<g id="a_node12"><a xlink:href="classevent_1_1_nothing_to_download.html" target="_top" xlink:title="Nothing to download from the server. ">
<polygon fill="#ffffff" stroke="#000000" points="145.1079,-148.5 145.1079,-166.5 280.6294,-166.5 280.6294,-148.5 145.1079,-148.5"/>
<text text-anchor="middle" x="212.8687" y="-154.5" font-family="Helvetica,sans-Serif" font-size="10.00" fill="#000000">event::NothingToDownload</text>
</a>
</g>
</g>
<!-- Node0&#45;&gt;Node11 -->
<g id="edge11" class="edge">
<title>Node0&#45;&gt;Node11</title>
<path fill="none" stroke="#191970" d="M58.3701,-250.5929C72.4987,-229.5129 98.8229,-195.0351 130.3838,-176.5 137.4799,-172.3326 145.4185,-169.0792 153.4914,-166.5395"/>
<polygon fill="#191970" stroke="#191970" points="55.2722,-248.937 52.7617,-259.2301 61.1432,-252.7491 55.2722,-248.937"/>
</g>
<!-- Node12 -->
<g id="node13" class="node">
<title>Node12</title>
<g id="a_node13"><a xlink:href="classevent_1_1_no_update_available.html" target="_top" xlink:title="No update is available for download from the server. ">
<polygon fill="#ffffff" stroke="#000000" points="147.1416,-111.5 147.1416,-129.5 278.5957,-129.5 278.5957,-111.5 147.1416,-111.5"/>
<text text-anchor="middle" x="212.8687" y="-117.5" font-family="Helvetica,sans-Serif" font-size="10.00" fill="#000000">event::NoUpdateAvailable</text>
</a>
</g>
</g>
<!-- Node0&#45;&gt;Node12 -->
<g id="edge12" class="edge">
<title>Node0&#45;&gt;Node12</title>
<path fill="none" stroke="#191970" d="M53.9539,-249.6935C65.2042,-221.2049 90.5463,-167.4742 130.3838,-139.5 136.2767,-135.3619 142.9357,-132.1119 149.8516,-129.5615"/>
<polygon fill="#191970" stroke="#191970" points="50.596,-248.6782 50.3313,-259.2698 57.1432,-251.155 50.596,-248.6782"/>
</g>
<!-- Node13 -->
<g id="node14" class="node">
<title>Node13</title>
<g id="a_node14"><a xlink:href="classevent_1_1_put_manifest_complete.html" target="_top" xlink:title="A manifest has been successfully sent to the server. ">
<polygon fill="#ffffff" stroke="#000000" points="142.0586,-74.5 142.0586,-92.5 283.6787,-92.5 283.6787,-74.5 142.0586,-74.5"/>
<text text-anchor="middle" x="212.8687" y="-80.5" font-family="Helvetica,sans-Serif" font-size="10.00" fill="#000000">event::PutManifestComplete</text>
</a>
</g>
</g>
<!-- Node0&#45;&gt;Node13 -->
<g id="edge13" class="edge">
<title>Node0&#45;&gt;Node13</title>
<path fill="none" stroke="#191970" d="M51.1585,-249.3522C59.4259,-214.4594 81.9073,-140.6154 130.3838,-102.5 135.5822,-98.4126 141.5018,-95.1752 147.7283,-92.6151"/>
<polygon fill="#191970" stroke="#191970" points="47.719,-248.6957 48.9587,-259.2177 54.5512,-250.2191 47.719,-248.6957"/>
</g>
<!-- Node14 -->
<g id="node15" class="node">
<title>Node14</title>
<g id="a_node15"><a xlink:href="classevent_1_1_send_device_data_complete.html" target="_top" xlink:title="Device data has been successfully sent to the server. ">
<polygon fill="#ffffff" stroke="#000000" points="130.938,-37.5 130.938,-55.5 294.7993,-55.5 294.7993,-37.5 130.938,-37.5"/>
<text text-anchor="middle" x="212.8687" y="-43.5" font-family="Helvetica,sans-Serif" font-size="10.00" fill="#000000">event::SendDeviceDataComplete</text>
</a>
</g>
</g>
<!-- Node0&#45;&gt;Node14 -->
<g id="edge14" class="edge">
<title>Node0&#45;&gt;Node14</title>
<path fill="none" stroke="#191970" d="M49.2625,-249.1334C54.6775,-208.5196 73.0686,-114.1818 130.3838,-65.5 135.2,-61.4093 140.7254,-58.1567 146.5859,-55.5762"/>
<polygon fill="#191970" stroke="#191970" points="45.7855,-248.7331 48.0578,-259.0814 52.7348,-249.5748 45.7855,-248.7331"/>
</g>
<!-- Node15 -->
<g id="node16" class="node">
<title>Node15</title>
<g id="a_node16"><a xlink:href="classevent_1_1_update_available.html" target="_top" xlink:title="An update is available for download from the server. ">
<polygon fill="#ffffff" stroke="#000000" points="153.5332,-.5 153.5332,-18.5 272.2041,-18.5 272.2041,-.5 153.5332,-.5"/>
<text text-anchor="middle" x="212.8687" y="-6.5" font-family="Helvetica,sans-Serif" font-size="10.00" fill="#000000">event::UpdateAvailable</text>
</a>
</g>
</g>
<!-- Node0&#45;&gt;Node15 -->
<g id="edge15" class="edge">
<title>Node0&#45;&gt;Node15</title>
<path fill="none" stroke="#191970" d="M51.3059,-249.4248C62.7378,-198.1416 96.2971,-59.113 130.3838,-28.5 136.9438,-22.6085 144.9598,-18.435 153.389,-15.4977"/>
<polygon fill="#191970" stroke="#191970" points="47.8264,-248.9521 49.1011,-259.47 54.6636,-250.4528 47.8264,-248.9521"/>
</g>
</g>
</svg>
