<?xml version="1.0" encoding="UTF-8" standalone="no"?>
<!DOCTYPE svg PUBLIC "-//W3C//DTD SVG 1.1//EN"
 "http://www.w3.org/Graphics/SVG/1.1/DTD/svg11.dtd">
<!-- Generated by graphviz version 2.40.1 (20161225.0304)
 -->
<!-- Title: HttpInterface Pages: 1 -->
<svg width="142pt" height="82pt"
 viewBox="0.00 0.00 142.24 82.00" xmlns="http://www.w3.org/2000/svg" xmlns:xlink="http://www.w3.org/1999/xlink">
<g id="graph0" class="graph" transform="scale(1 1) rotate(0) translate(4 78)">
<title>HttpInterface</title>
<polygon fill="#ffffff" stroke="transparent" points="-4,4 -4,-78 138.2388,-78 138.2388,4 -4,4"/>
<!-- Node0 -->
<g id="node1" class="node">
<title>Node0</title>
<polygon fill="#bfbfbf" stroke="#000000" points="31.3276,-55.5 31.3276,-73.5 104.5786,-73.5 104.5786,-55.5 31.3276,-55.5"/>
<text text-anchor="middle" x="67.9531" y="-61.5" font-family="Helvetica,sans-Serif" font-size="10.00" fill="#000000">HttpInterface</text>
</g>
<!-- Node1 -->
<g id="node2" class="node">
<title>Node1</title>
<g id="a_node2"><a xlink:href="class_http_client.html" target="_top" xlink:title="HttpClient">
<polygon fill="#ffffff" stroke="#000000" points="0,-.5 0,-18.5 59.9063,-18.5 59.9063,-.5 0,-.5"/>
<text text-anchor="middle" x="29.9531" y="-6.5" font-family="Helvetica,sans-Serif" font-size="10.00" fill="#000000">HttpClient</text>
</a>
</g>
</g>
<!-- Node0&#45;&gt;Node1 -->
<g id="edge1" class="edge">
<title>Node0&#45;&gt;Node1</title>
<path fill="none" stroke="#191970" d="M55.9634,-47.1465C49.4715,-37.7503 41.7096,-26.5159 36.3644,-18.7795"/>
<polygon fill="#191970" stroke="#191970" points="53.1143,-49.1801 61.6782,-55.4179 58.8734,-45.201 53.1143,-49.1801"/>
</g>
<!-- Node2 -->
<g id="node3" class="node">
<title>Node2</title>
<g id="a_node3"><a xlink:href="class_http_fake.html" target="_top" xlink:title="HttpFake">
<polygon fill="#ffffff" stroke="#000000" points="77.6675,-.5 77.6675,-18.5 134.2388,-18.5 134.2388,-.5 77.6675,-.5"/>
<text text-anchor="middle" x="105.9531" y="-6.5" font-family="Helvetica,sans-Serif" font-size="10.00" fill="#000000">HttpFake</text>
</a>
</g>
</g>
<!-- Node0&#45;&gt;Node2 -->
<g id="edge2" class="edge">
<title>Node0&#45;&gt;Node2</title>
<path fill="none" stroke="#191970" d="M79.9428,-47.1465C86.4348,-37.7503 94.1967,-26.5159 99.5419,-18.7795"/>
<polygon fill="#191970" stroke="#191970" points="77.0329,-45.201 74.2281,-55.4179 82.792,-49.1801 77.0329,-45.201"/>
</g>
</g>
</svg>
