<?xml version="1.0" encoding="UTF-8" standalone="no"?>
<!DOCTYPE svg PUBLIC "-//W3C//DTD SVG 1.1//EN"
 "http://www.w3.org/Graphics/SVG/1.1/DTD/svg11.dtd">
<!-- Generated by graphviz version 2.40.1 (20161225.0304)
 -->
<!-- Title: event::CampaignCheckComplete Pages: 1 -->
<svg width="234pt" height="233pt"
 viewBox="0.00 0.00 234.24 233.00" xmlns="http://www.w3.org/2000/svg" xmlns:xlink="http://www.w3.org/1999/xlink">
<g id="graph0" class="graph" transform="scale(1 1) rotate(0) translate(4 229)">
<title>event::CampaignCheckComplete</title>
<polygon fill="#ffffff" stroke="transparent" points="-4,4 -4,-229 230.2446,-229 230.2446,4 -4,4"/>
<!-- Node2 -->
<g id="node1" class="node">
<title>Node2</title>
<polygon fill="#bfbfbf" stroke="#000000" points="56.8203,-.5 56.8203,-18.5 219.5635,-18.5 219.5635,-.5 56.8203,-.5"/>
<text text-anchor="middle" x="138.1919" y="-6.5" font-family="Helvetica,sans-Serif" font-size="10.00" fill="#000000">event::CampaignCheckComplete</text>
</g>
<!-- Node3 -->
<g id="node2" class="node">
<title>Node3</title>
<g id="a_node2"><a xlink:href="classevent_1_1_base_event.html" target="_top" xlink:title="Base class for all event objects. ">
<polygon fill="#ffffff" stroke="#000000" points="0,-70.5 0,-88.5 94.3838,-88.5 94.3838,-70.5 0,-70.5"/>
<text text-anchor="middle" x="47.1919" y="-76.5" font-family="Helvetica,sans-Serif" font-size="10.00" fill="#000000">event::BaseEvent</text>
</a>
</g>
</g>
<!-- Node3&#45;&gt;Node2 -->
<g id="edge1" class="edge">
<title>Node3&#45;&gt;Node2</title>
<path fill="none" stroke="#191970" d="M67.2462,-64.0736C85.3249,-50.1669 111.3033,-30.1835 126.2923,-18.6535"/>
<polygon fill="#191970" stroke="#191970" points="64.8808,-61.4774 59.0886,-70.3487 69.1488,-67.0258 64.8808,-61.4774"/>
</g>
<!-- Node4 -->
<g id="node3" class="node">
<title>Node4</title>
<g id="a_node3"><a xlink:title="STL class. ">
<polygon fill="#ffffff" stroke="#bfbfbf" points="17.5171,-140.5 17.5171,-158.5 76.8667,-158.5 76.8667,-140.5 17.5171,-140.5"/>
<text text-anchor="middle" x="47.1919" y="-146.5" font-family="Helvetica,sans-Serif" font-size="10.00" fill="#000000">std::string</text>
</a>
</g>
</g>
<!-- Node4&#45;&gt;Node3 -->
<g id="edge2" class="edge">
<title>Node4&#45;&gt;Node3</title>
<path fill="none" stroke="#9a32cd" stroke-dasharray="5,2" d="M47.1919,-130.2039C47.1919,-116.7531 47.1919,-99.3986 47.1919,-88.8769"/>
<polygon fill="#9a32cd" stroke="#9a32cd" points="43.692,-130.3487 47.1919,-140.3487 50.692,-130.3488 43.692,-130.3487"/>
<text text-anchor="middle" x="63.5884" y="-114" font-family="Helvetica,sans-Serif" font-size="10.00" fill="#000000"> variant</text>
</g>
<!-- Node5 -->
<g id="node4" class="node">
<title>Node5</title>
<g id="a_node4"><a xlink:title="STL class. ">
<polygon fill="#ffffff" stroke="#bfbfbf" points=".144,-196.5 .144,-224.5 94.2397,-224.5 94.2397,-196.5 .144,-196.5"/>
<text text-anchor="start" x="8.144" y="-212.5" font-family="Helvetica,sans-Serif" font-size="10.00" fill="#000000">std::basic_string&lt;</text>
<text text-anchor="middle" x="47.1919" y="-202.5" font-family="Helvetica,sans-Serif" font-size="10.00" fill="#000000"> char &gt;</text>
</a>
</g>
</g>
<!-- Node5&#45;&gt;Node4 -->
<g id="edge3" class="edge">
<title>Node5&#45;&gt;Node4</title>
<path fill="none" stroke="#191970" d="M47.1919,-186.1001C47.1919,-176.5157 47.1919,-166.0935 47.1919,-158.831"/>
<polygon fill="#191970" stroke="#191970" points="43.692,-186.352 47.1919,-196.3521 50.692,-186.3521 43.692,-186.352"/>
</g>
<!-- Node6 -->
<g id="node5" class="node">
<title>Node6</title>
<polygon fill="#ffffff" stroke="#bfbfbf" points="112.1392,-65.5 112.1392,-93.5 226.2446,-93.5 226.2446,-65.5 112.1392,-65.5"/>
<text text-anchor="start" x="120.1392" y="-81.5" font-family="Helvetica,sans-Serif" font-size="10.00" fill="#000000">std::vector&lt; campaign</text>
<text text-anchor="middle" x="169.1919" y="-71.5" font-family="Helvetica,sans-Serif" font-size="10.00" fill="#000000">::Campaign &gt;</text>
</g>
<!-- Node6&#45;&gt;Node2 -->
<g id="edge4" class="edge">
<title>Node6&#45;&gt;Node2</title>
<path fill="none" stroke="#9a32cd" stroke-dasharray="5,2" d="M158.8474,-56.1415C153.1826,-43.3501 146.481,-28.2174 142.2825,-18.7368"/>
<polygon fill="#9a32cd" stroke="#9a32cd" points="155.669,-57.6082 162.9186,-65.3345 162.0695,-54.7737 155.669,-57.6082"/>
<text text-anchor="middle" x="179.7607" y="-39" font-family="Helvetica,sans-Serif" font-size="10.00" fill="#000000"> campaigns</text>
</g>
</g>
</svg>
