<?xml version="1.0" encoding="UTF-8" standalone="no"?>
<!DOCTYPE svg PUBLIC "-//W3C//DTD SVG 1.1//EN"
 "http://www.w3.org/Graphics/SVG/1.1/DTD/svg11.dtd">
<!-- Generated by graphviz version 2.40.1 (20161225.0304)
 -->
<!-- Title: event::NothingToDownload Pages: 1 -->
<svg width="144pt" height="214pt"
 viewBox="0.00 0.00 143.52 214.00" xmlns="http://www.w3.org/2000/svg" xmlns:xlink="http://www.w3.org/1999/xlink">
<g id="graph0" class="graph" transform="scale(1 1) rotate(0) translate(4 210)">
<title>event::NothingToDownload</title>
<polygon fill="#ffffff" stroke="transparent" points="-4,4 -4,-210 139.5215,-210 139.5215,4 -4,4"/>
<!-- Node2 -->
<g id="node1" class="node">
<title>Node2</title>
<polygon fill="#bfbfbf" stroke="#000000" points="0,-.5 0,-18.5 135.5215,-18.5 135.5215,-.5 0,-.5"/>
<text text-anchor="middle" x="67.7607" y="-6.5" font-family="Helvetica,sans-Serif" font-size="10.00" fill="#000000">event::NothingToDownload</text>
</g>
<!-- Node3 -->
<g id="node2" class="node">
<title>Node3</title>
<g id="a_node2"><a xlink:href="classevent_1_1_base_event.html" target="_top" xlink:title="Base class for all event objects. ">
<polygon fill="#ffffff" stroke="#000000" points="20.5688,-56.5 20.5688,-74.5 114.9526,-74.5 114.9526,-56.5 20.5688,-56.5"/>
<text text-anchor="middle" x="67.7607" y="-62.5" font-family="Helvetica,sans-Serif" font-size="10.00" fill="#000000">event::BaseEvent</text>
</a>
</g>
</g>
<!-- Node3&#45;&gt;Node2 -->
<g id="edge1" class="edge">
<title>Node3&#45;&gt;Node2</title>
<path fill="none" stroke="#191970" d="M67.7607,-46.2065C67.7607,-36.8384 67.7607,-26.0262 67.7607,-18.5752"/>
<polygon fill="#191970" stroke="#191970" points="64.2608,-46.2527 67.7607,-56.2527 71.2608,-46.2528 64.2608,-46.2527"/>
</g>
<!-- Node4 -->
<g id="node3" class="node">
<title>Node4</title>
<g id="a_node3"><a xlink:title="STL class. ">
<polygon fill="#ffffff" stroke="#bfbfbf" points="38.0859,-121.5 38.0859,-139.5 97.4355,-139.5 97.4355,-121.5 38.0859,-121.5"/>
<text text-anchor="middle" x="67.7607" y="-127.5" font-family="Helvetica,sans-Serif" font-size="10.00" fill="#000000">std::string</text>
</a>
</g>
</g>
<!-- Node4&#45;&gt;Node3 -->
<g id="edge2" class="edge">
<title>Node4&#45;&gt;Node3</title>
<path fill="none" stroke="#9a32cd" stroke-dasharray="5,2" d="M67.7607,-111.1265C67.7607,-99.1522 67.7607,-84.3205 67.7607,-74.8821"/>
<polygon fill="#9a32cd" stroke="#9a32cd" points="64.2608,-111.462 67.7607,-121.462 71.2608,-111.4621 64.2608,-111.462"/>
<text text-anchor="middle" x="84.1572" y="-95" font-family="Helvetica,sans-Serif" font-size="10.00" fill="#000000"> variant</text>
</g>
<!-- Node5 -->
<g id="node4" class="node">
<title>Node5</title>
<g id="a_node4"><a xlink:title="STL class. ">
<polygon fill="#ffffff" stroke="#bfbfbf" points="20.7129,-177.5 20.7129,-205.5 114.8086,-205.5 114.8086,-177.5 20.7129,-177.5"/>
<text text-anchor="start" x="28.7129" y="-193.5" font-family="Helvetica,sans-Serif" font-size="10.00" fill="#000000">std::basic_string&lt;</text>
<text text-anchor="middle" x="67.7607" y="-183.5" font-family="Helvetica,sans-Serif" font-size="10.00" fill="#000000"> char &gt;</text>
</a>
</g>
</g>
<!-- Node5&#45;&gt;Node4 -->
<g id="edge3" class="edge">
<title>Node5&#45;&gt;Node4</title>
<path fill="none" stroke="#191970" d="M67.7607,-167.1001C67.7607,-157.5157 67.7607,-147.0935 67.7607,-139.831"/>
<polygon fill="#191970" stroke="#191970" points="64.2608,-167.352 67.7607,-177.3521 71.2608,-167.3521 64.2608,-167.352"/>
</g>
</g>
</svg>
