<?xml version="1.0" encoding="UTF-8" standalone="no"?>
<!DOCTYPE svg PUBLIC "-//W3C//DTD SVG 1.1//EN"
 "http://www.w3.org/Graphics/SVG/1.1/DTD/svg11.dtd">
<!-- Generated by graphviz version 2.40.1 (20161225.0304)
 -->
<!-- Title: OSTreeRepo Pages: 1 -->
<svg width="206pt" height="82pt"
 viewBox="0.00 0.00 206.11 82.00" xmlns="http://www.w3.org/2000/svg" xmlns:xlink="http://www.w3.org/1999/xlink">
<g id="graph0" class="graph" transform="scale(1 1) rotate(0) translate(4 78)">
<title>OSTreeRepo</title>
<polygon fill="#ffffff" stroke="transparent" points="-4,4 -4,-78 202.1064,-78 202.1064,4 -4,4"/>
<!-- Node0 -->
<g id="node1" class="node">
<title>Node0</title>
<polygon fill="#bfbfbf" stroke="#000000" points="60.3867,-55.5 60.3867,-73.5 134.9365,-73.5 134.9365,-55.5 60.3867,-55.5"/>
<text text-anchor="middle" x="97.6616" y="-61.5" font-family="Helvetica,sans-Serif" font-size="10.00" fill="#000000">OSTreeRepo</text>
</g>
<!-- Node1 -->
<g id="node2" class="node">
<title>Node1</title>
<g id="a_node2"><a xlink:href="class_o_s_tree_dir_repo.html" target="_top" xlink:title="OSTreeDirRepo">
<polygon fill="#ffffff" stroke="#000000" points="0,-.5 0,-18.5 87.3232,-18.5 87.3232,-.5 0,-.5"/>
<text text-anchor="middle" x="43.6616" y="-6.5" font-family="Helvetica,sans-Serif" font-size="10.00" fill="#000000">OSTreeDirRepo</text>
</a>
</g>
</g>
<!-- Node0&#45;&gt;Node1 -->
<g id="edge1" class="edge">
<title>Node0&#45;&gt;Node1</title>
<path fill="none" stroke="#191970" d="M81.4743,-48.0129C72.0838,-38.4485 60.6031,-26.7552 52.7724,-18.7795"/>
<polygon fill="#191970" stroke="#191970" points="79.2412,-50.7343 88.7446,-55.4179 84.2362,-45.8301 79.2412,-50.7343"/>
</g>
<!-- Node2 -->
<g id="node3" class="node">
<title>Node2</title>
<g id="a_node3"><a xlink:href="class_o_s_tree_http_repo.html" target="_top" xlink:title="OSTreeHttpRepo">
<polygon fill="#ffffff" stroke="#000000" points="105.2168,-.5 105.2168,-18.5 198.1064,-18.5 198.1064,-.5 105.2168,-.5"/>
<text text-anchor="middle" x="151.6616" y="-6.5" font-family="Helvetica,sans-Serif" font-size="10.00" fill="#000000">OSTreeHttpRepo</text>
</a>
</g>
</g>
<!-- Node0&#45;&gt;Node2 -->
<g id="edge2" class="edge">
<title>Node0&#45;&gt;Node2</title>
<path fill="none" stroke="#191970" d="M113.849,-48.0129C123.2394,-38.4485 134.7202,-26.7552 142.5509,-18.7795"/>
<polygon fill="#191970" stroke="#191970" points="111.0871,-45.8301 106.5786,-55.4179 116.082,-50.7343 111.0871,-45.8301"/>
</g>
</g>
</svg>
