<?xml version="1.0" encoding="UTF-8" standalone="no"?>
<!DOCTYPE svg PUBLIC "-//W3C//DTD SVG 1.1//EN"
 "http://www.w3.org/Graphics/SVG/1.1/DTD/svg11.dtd">
<!-- Generated by graphviz version 2.40.1 (20161225.0304)
 -->
<!-- Title: event::NoUpdateAvailable Pages: 1 -->
<svg width="139pt" height="214pt"
 viewBox="0.00 0.00 139.45 214.00" xmlns="http://www.w3.org/2000/svg" xmlns:xlink="http://www.w3.org/1999/xlink">
<g id="graph0" class="graph" transform="scale(1 1) rotate(0) translate(4 210)">
<title>event::NoUpdateAvailable</title>
<polygon fill="#ffffff" stroke="transparent" points="-4,4 -4,-210 135.4541,-210 135.4541,4 -4,4"/>
<!-- Node2 -->
<g id="node1" class="node">
<title>Node2</title>
<polygon fill="#bfbfbf" stroke="#000000" points="0,-.5 0,-18.5 131.4541,-18.5 131.4541,-.5 0,-.5"/>
<text text-anchor="middle" x="65.7271" y="-6.5" font-family="Helvetica,sans-Serif" font-size="10.00" fill="#000000">event::NoUpdateAvailable</text>
</g>
<!-- Node3 -->
<g id="node2" class="node">
<title>Node3</title>
<g id="a_node2"><a xlink:href="classevent_1_1_base_event.html" target="_top" xlink:title="Base class for all event objects. ">
<polygon fill="#ffffff" stroke="#000000" points="18.5352,-56.5 18.5352,-74.5 112.9189,-74.5 112.9189,-56.5 18.5352,-56.5"/>
<text text-anchor="middle" x="65.7271" y="-62.5" font-family="Helvetica,sans-Serif" font-size="10.00" fill="#000000">event::BaseEvent</text>
</a>
</g>
</g>
<!-- Node3&#45;&gt;Node2 -->
<g id="edge1" class="edge">
<title>Node3&#45;&gt;Node2</title>
<path fill="none" stroke="#191970" d="M65.7271,-46.2065C65.7271,-36.8384 65.7271,-26.0262 65.7271,-18.5752"/>
<polygon fill="#191970" stroke="#191970" points="62.2272,-46.2527 65.7271,-56.2527 69.2272,-46.2528 62.2272,-46.2527"/>
</g>
<!-- Node4 -->
<g id="node3" class="node">
<title>Node4</title>
<g id="a_node3"><a xlink:title="STL class. ">
<polygon fill="#ffffff" stroke="#bfbfbf" points="36.0522,-121.5 36.0522,-139.5 95.4019,-139.5 95.4019,-121.5 36.0522,-121.5"/>
<text text-anchor="middle" x="65.7271" y="-127.5" font-family="Helvetica,sans-Serif" font-size="10.00" fill="#000000">std::string</text>
</a>
</g>
</g>
<!-- Node4&#45;&gt;Node3 -->
<g id="edge2" class="edge">
<title>Node4&#45;&gt;Node3</title>
<path fill="none" stroke="#9a32cd" stroke-dasharray="5,2" d="M65.7271,-111.1265C65.7271,-99.1522 65.7271,-84.3205 65.7271,-74.8821"/>
<polygon fill="#9a32cd" stroke="#9a32cd" points="62.2271,-111.462 65.7271,-121.462 69.2271,-111.4621 62.2271,-111.462"/>
<text text-anchor="middle" x="82.1235" y="-95" font-family="Helvetica,sans-Serif" font-size="10.00" fill="#000000"> variant</text>
</g>
<!-- Node5 -->
<g id="node4" class="node">
<title>Node5</title>
<g id="a_node4"><a xlink:title="STL class. ">
<polygon fill="#ffffff" stroke="#bfbfbf" points="18.6792,-177.5 18.6792,-205.5 112.7749,-205.5 112.7749,-177.5 18.6792,-177.5"/>
<text text-anchor="start" x="26.6792" y="-193.5" font-family="Helvetica,sans-Serif" font-size="10.00" fill="#000000">std::basic_string&lt;</text>
<text text-anchor="middle" x="65.7271" y="-183.5" font-family="Helvetica,sans-Serif" font-size="10.00" fill="#000000"> char &gt;</text>
</a>
</g>
</g>
<!-- Node5&#45;&gt;Node4 -->
<g id="edge3" class="edge">
<title>Node5&#45;&gt;Node4</title>
<path fill="none" stroke="#191970" d="M65.7271,-167.1001C65.7271,-157.5157 65.7271,-147.0935 65.7271,-139.831"/>
<polygon fill="#191970" stroke="#191970" points="62.2271,-167.352 65.7271,-177.3521 69.2271,-167.3521 62.2271,-167.352"/>
</g>
</g>
</svg>
