<?xml version="1.0" encoding="UTF-8" standalone="no"?>
<!DOCTYPE svg PUBLIC "-//W3C//DTD SVG 1.1//EN"
 "http://www.w3.org/Graphics/SVG/1.1/DTD/svg11.dtd">
<!-- Generated by graphviz version 2.40.1 (20161225.0304)
 -->
<!-- Title: event::PutManifestComplete Pages: 1 -->
<svg width="150pt" height="214pt"
 viewBox="0.00 0.00 149.62 214.00" xmlns="http://www.w3.org/2000/svg" xmlns:xlink="http://www.w3.org/1999/xlink">
<g id="graph0" class="graph" transform="scale(1 1) rotate(0) translate(4 210)">
<title>event::PutManifestComplete</title>
<polygon fill="#ffffff" stroke="transparent" points="-4,4 -4,-210 145.6201,-210 145.6201,4 -4,4"/>
<!-- Node2 -->
<g id="node1" class="node">
<title>Node2</title>
<polygon fill="#bfbfbf" stroke="#000000" points="0,-.5 0,-18.5 141.6201,-18.5 141.6201,-.5 0,-.5"/>
<text text-anchor="middle" x="70.8101" y="-6.5" font-family="Helvetica,sans-Serif" font-size="10.00" fill="#000000">event::PutManifestComplete</text>
</g>
<!-- Node3 -->
<g id="node2" class="node">
<title>Node3</title>
<g id="a_node2"><a xlink:href="classevent_1_1_base_event.html" target="_top" xlink:title="Base class for all event objects. ">
<polygon fill="#ffffff" stroke="#000000" points="23.6182,-56.5 23.6182,-74.5 118.002,-74.5 118.002,-56.5 23.6182,-56.5"/>
<text text-anchor="middle" x="70.8101" y="-62.5" font-family="Helvetica,sans-Serif" font-size="10.00" fill="#000000">event::BaseEvent</text>
</a>
</g>
</g>
<!-- Node3&#45;&gt;Node2 -->
<g id="edge1" class="edge">
<title>Node3&#45;&gt;Node2</title>
<path fill="none" stroke="#191970" d="M70.8101,-46.2065C70.8101,-36.8384 70.8101,-26.0262 70.8101,-18.5752"/>
<polygon fill="#191970" stroke="#191970" points="67.3102,-46.2527 70.8101,-56.2527 74.3102,-46.2528 67.3102,-46.2527"/>
</g>
<!-- Node4 -->
<g id="node3" class="node">
<title>Node4</title>
<g id="a_node3"><a xlink:title="STL class. ">
<polygon fill="#ffffff" stroke="#bfbfbf" points="41.1353,-121.5 41.1353,-139.5 100.4849,-139.5 100.4849,-121.5 41.1353,-121.5"/>
<text text-anchor="middle" x="70.8101" y="-127.5" font-family="Helvetica,sans-Serif" font-size="10.00" fill="#000000">std::string</text>
</a>
</g>
</g>
<!-- Node4&#45;&gt;Node3 -->
<g id="edge2" class="edge">
<title>Node4&#45;&gt;Node3</title>
<path fill="none" stroke="#9a32cd" stroke-dasharray="5,2" d="M70.8101,-111.1265C70.8101,-99.1522 70.8101,-84.3205 70.8101,-74.8821"/>
<polygon fill="#9a32cd" stroke="#9a32cd" points="67.3102,-111.462 70.8101,-121.462 74.3102,-111.4621 67.3102,-111.462"/>
<text text-anchor="middle" x="87.2065" y="-95" font-family="Helvetica,sans-Serif" font-size="10.00" fill="#000000"> variant</text>
</g>
<!-- Node5 -->
<g id="node4" class="node">
<title>Node5</title>
<g id="a_node4"><a xlink:title="STL class. ">
<polygon fill="#ffffff" stroke="#bfbfbf" points="23.7622,-177.5 23.7622,-205.5 117.8579,-205.5 117.8579,-177.5 23.7622,-177.5"/>
<text text-anchor="start" x="31.7622" y="-193.5" font-family="Helvetica,sans-Serif" font-size="10.00" fill="#000000">std::basic_string&lt;</text>
<text text-anchor="middle" x="70.8101" y="-183.5" font-family="Helvetica,sans-Serif" font-size="10.00" fill="#000000"> char &gt;</text>
</a>
</g>
</g>
<!-- Node5&#45;&gt;Node4 -->
<g id="edge3" class="edge">
<title>Node5&#45;&gt;Node4</title>
<path fill="none" stroke="#191970" d="M70.8101,-167.1001C70.8101,-157.5157 70.8101,-147.0935 70.8101,-139.831"/>
<polygon fill="#191970" stroke="#191970" points="67.3102,-167.352 70.8101,-177.3521 74.3102,-167.3521 67.3102,-167.352"/>
</g>
</g>
</svg>
