<?xml version="1.0" encoding="UTF-8" standalone="no"?>
<!DOCTYPE svg PUBLIC "-//W3C//DTD SVG 1.1//EN"
 "http://www.w3.org/Graphics/SVG/1.1/DTD/svg11.dtd">
<!-- Generated by graphviz version 2.40.1 (20161225.0304)
 -->
<!-- Title: Uptane::ManagedSecondary Pages: 1 -->
<svg width="151pt" height="137pt"
 viewBox="0.00 0.00 151.31 137.00" xmlns="http://www.w3.org/2000/svg" xmlns:xlink="http://www.w3.org/1999/xlink">
<g id="graph0" class="graph" transform="scale(1 1) rotate(0) translate(4 133)">
<title>Uptane::ManagedSecondary</title>
<polygon fill="#ffffff" stroke="transparent" points="-4,4 -4,-133 147.3096,-133 147.3096,4 -4,4"/>
<!-- Node0 -->
<g id="node1" class="node">
<title>Node0</title>
<polygon fill="#bfbfbf" stroke="#000000" points="0,-55.5 0,-73.5 143.3096,-73.5 143.3096,-55.5 0,-55.5"/>
<text text-anchor="middle" x="71.6548" y="-61.5" font-family="Helvetica,sans-Serif" font-size="10.00" fill="#000000">Uptane::ManagedSecondary</text>
</g>
<!-- Node2 -->
<g id="node3" class="node">
<title>Node2</title>
<g id="a_node3"><a xlink:href="class_uptane_1_1_virtual_secondary.html" target="_top" xlink:title="Uptane::VirtualSecondary">
<polygon fill="#ffffff" stroke="#000000" points="6.7651,-.5 6.7651,-18.5 136.5444,-18.5 136.5444,-.5 6.7651,-.5"/>
<text text-anchor="middle" x="71.6548" y="-6.5" font-family="Helvetica,sans-Serif" font-size="10.00" fill="#000000">Uptane::VirtualSecondary</text>
</a>
</g>
</g>
<!-- Node0&#45;&gt;Node2 -->
<g id="edge2" class="edge">
<title>Node0&#45;&gt;Node2</title>
<path fill="none" stroke="#191970" d="M71.6548,-45.383C71.6548,-36.3738 71.6548,-26.0373 71.6548,-18.7795"/>
<polygon fill="#191970" stroke="#191970" points="68.1549,-45.4178 71.6548,-55.4179 75.1549,-45.4179 68.1549,-45.4178"/>
</g>
<!-- Node1 -->
<g id="node2" class="node">
<title>Node1</title>
<g id="a_node2"><a xlink:href="class_uptane_1_1_secondary_interface.html" target="_top" xlink:title="Uptane::SecondaryInterface">
<polygon fill="#ffffff" stroke="#000000" points="1.394,-110.5 1.394,-128.5 141.9155,-128.5 141.9155,-110.5 1.394,-110.5"/>
<text text-anchor="middle" x="71.6548" y="-116.5" font-family="Helvetica,sans-Serif" font-size="10.00" fill="#000000">Uptane::SecondaryInterface</text>
</a>
</g>
</g>
<!-- Node1&#45;&gt;Node0 -->
<g id="edge1" class="edge">
<title>Node1&#45;&gt;Node0</title>
<path fill="none" stroke="#191970" d="M71.6548,-100.383C71.6548,-91.3738 71.6548,-81.0373 71.6548,-73.7795"/>
<polygon fill="#191970" stroke="#191970" points="68.1549,-100.4178 71.6548,-110.4179 75.1549,-100.4179 68.1549,-100.4178"/>
</g>
</g>
</svg>
