<?xml version="1.0" encoding="UTF-8" standalone="no"?>
<!DOCTYPE svg PUBLIC "-//W3C//DTD SVG 1.1//EN"
 "http://www.w3.org/Graphics/SVG/1.1/DTD/svg11.dtd">
<!-- Generated by graphviz version 2.40.1 (20161225.0304)
 -->
<!-- Title: Graphical Class Hierarchy Pages: 1 -->
<svg width="612pt" height="546pt"
 viewBox="0.00 0.00 612.07 546.00" xmlns="http://www.w3.org/2000/svg" xmlns:xlink="http://www.w3.org/1999/xlink">
<g id="graph0" class="graph" transform="scale(1 1) rotate(0) translate(4 542)">
<title>Graphical Class Hierarchy</title>
<polygon fill="#ffffff" stroke="transparent" points="-4,4 -4,-542 608.0654,-542 608.0654,4 -4,4"/>
<!-- Node179 -->
<g id="node1" class="node">
<title>Node179</title>
<g id="a_node1"><a xlink:title="STL class. ">
<polygon fill="#ffffff" stroke="#bfbfbf" points="0,-334.5 0,-352.5 77.7041,-352.5 77.7041,-334.5 0,-334.5"/>
<text text-anchor="middle" x="38.8521" y="-340.5" font-family="Helvetica,sans-Serif" font-size="10.00" fill="#000000">std::exception</text>
</a>
</g>
</g>
<!-- Node0 -->
<g id="node2" class="node">
<title>Node0</title>
<g id="a_node2"><a xlink:href="classdeserialization__error.html" target="_top" xlink:title="deserialization_error">
<polygon fill="#ffffff" stroke="#000000" points="127.1196,-408.5 127.1196,-426.5 233.7202,-426.5 233.7202,-408.5 127.1196,-408.5"/>
<text text-anchor="middle" x="180.4199" y="-414.5" font-family="Helvetica,sans-Serif" font-size="10.00" fill="#000000">deserialization_error</text>
</a>
</g>
</g>
<!-- Node179&#45;&gt;Node0 -->
<g id="edge1" class="edge">
<title>Node179&#45;&gt;Node0</title>
<path fill="none" stroke="#191970" d="M56.3024,-359.6016C70.7192,-372.1164 92.234,-389.0514 113.7041,-399.5 121.0394,-403.0698 129.185,-406.0131 137.193,-408.411"/>
<polygon fill="#191970" stroke="#191970" points="58.4855,-356.8592 48.6882,-352.8264 53.8322,-362.0887 58.4855,-356.8592"/>
</g>
<!-- Node181 -->
<g id="node3" class="node">
<title>Node181</title>
<g id="a_node3"><a xlink:href="class_o_s_tree_commit_parse_error.html" target="_top" xlink:title="OSTreeCommitParseError">
<polygon fill="#ffffff" stroke="#000000" points="113.7041,-371.5 113.7041,-389.5 247.1357,-389.5 247.1357,-371.5 113.7041,-371.5"/>
<text text-anchor="middle" x="180.4199" y="-377.5" font-family="Helvetica,sans-Serif" font-size="10.00" fill="#000000">OSTreeCommitParseError</text>
</a>
</g>
</g>
<!-- Node179&#45;&gt;Node181 -->
<g id="edge2" class="edge">
<title>Node179&#45;&gt;Node181</title>
<path fill="none" stroke="#8b1a1a" d="M83.3542,-355.131C103.4615,-360.3862 126.8665,-366.5033 145.6554,-371.414"/>
<polygon fill="#8b1a1a" stroke="#8b1a1a" points="84.0435,-351.6937 73.4834,-352.5512 82.2734,-358.4662 84.0435,-351.6937"/>
</g>
<!-- Node182 -->
<g id="node4" class="node">
<title>Node182</title>
<g id="a_node4"><a xlink:href="class_o_s_tree_object_missing.html" target="_top" xlink:title="Thrown by GetObject when the object requested is not present in the repository. ">
<polygon fill="#ffffff" stroke="#000000" points="123.6992,-334.5 123.6992,-352.5 237.1406,-352.5 237.1406,-334.5 123.6992,-334.5"/>
<text text-anchor="middle" x="180.4199" y="-340.5" font-family="Helvetica,sans-Serif" font-size="10.00" fill="#000000">OSTreeObjectMissing</text>
</a>
</g>
</g>
<!-- Node179&#45;&gt;Node182 -->
<g id="edge3" class="edge">
<title>Node179&#45;&gt;Node182</title>
<path fill="none" stroke="#8b1a1a" d="M88.1178,-343.5C99.5264,-343.5 111.7592,-343.5 123.4667,-343.5"/>
<polygon fill="#8b1a1a" stroke="#8b1a1a" points="87.9109,-340.0001 77.9108,-343.5 87.9108,-347.0001 87.9109,-340.0001"/>
</g>
<!-- Node183 -->
<g id="node5" class="node">
<title>Node183</title>
<g id="a_node5"><a xlink:title="STL class. ">
<polygon fill="#ffffff" stroke="#bfbfbf" points="139.3511,-297.5 139.3511,-315.5 221.4888,-315.5 221.4888,-297.5 139.3511,-297.5"/>
<text text-anchor="middle" x="180.4199" y="-303.5" font-family="Helvetica,sans-Serif" font-size="10.00" fill="#000000">std::logic_error</text>
</a>
</g>
</g>
<!-- Node179&#45;&gt;Node183 -->
<g id="edge4" class="edge">
<title>Node179&#45;&gt;Node183</title>
<path fill="none" stroke="#191970" d="M83.3542,-331.869C103.4615,-326.6138 126.8665,-320.4967 145.6554,-315.586"/>
<polygon fill="#191970" stroke="#191970" points="82.2734,-328.5338 73.4834,-334.4488 84.0435,-335.3063 82.2734,-328.5338"/>
</g>
<!-- Node201 -->
<g id="node23" class="node">
<title>Node201</title>
<g id="a_node23"><a xlink:title="STL class. ">
<polygon fill="#ffffff" stroke="#bfbfbf" points="132.9619,-150.5 132.9619,-168.5 227.8779,-168.5 227.8779,-150.5 132.9619,-150.5"/>
<text text-anchor="middle" x="180.4199" y="-156.5" font-family="Helvetica,sans-Serif" font-size="10.00" fill="#000000">std::runtime_error</text>
</a>
</g>
</g>
<!-- Node179&#45;&gt;Node201 -->
<g id="edge22" class="edge">
<title>Node179&#45;&gt;Node201</title>
<path fill="none" stroke="#191970" d="M52.1046,-326.2752C81.4299,-288.1602 150.9842,-197.7585 173.3572,-168.6797"/>
<polygon fill="#191970" stroke="#191970" points="49.1964,-324.3155 45.8724,-334.3754 54.7443,-328.584 49.1964,-324.3155"/>
</g>
<!-- Node184 -->
<g id="node6" class="node">
<title>Node184</title>
<g id="a_node6"><a xlink:href="class_fatal_exception.html" target="_top" xlink:title="FatalException">
<polygon fill="#ffffff" stroke="#000000" points="308.7046,-353.5 308.7046,-371.5 390.8521,-371.5 390.8521,-353.5 308.7046,-353.5"/>
<text text-anchor="middle" x="349.7783" y="-359.5" font-family="Helvetica,sans-Serif" font-size="10.00" fill="#000000">FatalException</text>
</a>
</g>
</g>
<!-- Node183&#45;&gt;Node184 -->
<g id="edge5" class="edge">
<title>Node183&#45;&gt;Node184</title>
<path fill="none" stroke="#191970" d="M227.0978,-318.4479C233.8971,-320.5752 240.7525,-322.9391 247.1357,-325.5 263.9265,-332.2363 266.2994,-337.8784 283.1357,-344.5 291.835,-347.9214 301.4199,-350.9289 310.5431,-353.4571"/>
<polygon fill="#191970" stroke="#191970" points="227.8211,-315.0113 217.2377,-315.5051 225.819,-321.7189 227.8211,-315.0113"/>
</g>
<!-- Node185 -->
<g id="node7" class="node">
<title>Node185</title>
<g id="a_node7"><a xlink:href="class_not_implemented_exception.html" target="_top" xlink:title="NotImplementedException">
<polygon fill="#ffffff" stroke="#000000" points="283.1357,-316.5 283.1357,-334.5 416.4209,-334.5 416.4209,-316.5 283.1357,-316.5"/>
<text text-anchor="middle" x="349.7783" y="-322.5" font-family="Helvetica,sans-Serif" font-size="10.00" fill="#000000">NotImplementedException</text>
</a>
</g>
</g>
<!-- Node183&#45;&gt;Node185 -->
<g id="edge6" class="edge">
<title>Node183&#45;&gt;Node185</title>
<path fill="none" stroke="#191970" d="M232.1047,-312.2984C248.1676,-314.1005 266.1081,-316.1132 283.0447,-318.0133"/>
<polygon fill="#191970" stroke="#191970" points="232.1775,-308.7847 221.8496,-311.1479 231.3971,-315.7411 232.1775,-308.7847"/>
</g>
<!-- Node186 -->
<g id="node8" class="node">
<title>Node186</title>
<g id="a_node8"><a xlink:href="class_uptane_1_1_exception.html" target="_top" xlink:title="Uptane::Exception">
<polygon fill="#ffffff" stroke="#000000" points="300.9189,-279.5 300.9189,-297.5 398.6377,-297.5 398.6377,-279.5 300.9189,-279.5"/>
<text text-anchor="middle" x="349.7783" y="-285.5" font-family="Helvetica,sans-Serif" font-size="10.00" fill="#000000">Uptane::Exception</text>
</a>
</g>
</g>
<!-- Node183&#45;&gt;Node186 -->
<g id="edge7" class="edge">
<title>Node183&#45;&gt;Node186</title>
<path fill="none" stroke="#191970" d="M231.9302,-301.0253C253.7614,-298.705 279.086,-296.0134 300.6516,-293.7214"/>
<polygon fill="#191970" stroke="#191970" points="231.4237,-297.5593 221.8496,-302.0967 232.1636,-304.5201 231.4237,-297.5593"/>
</g>
<!-- Node187 -->
<g id="node9" class="node">
<title>Node187</title>
<g id="a_node9"><a xlink:href="class_uptane_1_1_bad_ecu_id.html" target="_top" xlink:title="Uptane::BadEcuId">
<polygon fill="#ffffff" stroke="#000000" points="479.6597,-519.5 479.6597,-537.5 576.8267,-537.5 576.8267,-519.5 479.6597,-519.5"/>
<text text-anchor="middle" x="528.2432" y="-525.5" font-family="Helvetica,sans-Serif" font-size="10.00" fill="#000000">Uptane::BadEcuId</text>
</a>
</g>
</g>
<!-- Node186&#45;&gt;Node187 -->
<g id="edge8" class="edge">
<title>Node186&#45;&gt;Node187</title>
<path fill="none" stroke="#191970" d="M407.6701,-300.144C410.8884,-302.221 413.8513,-304.6534 416.4209,-307.5 477.8184,-375.5176 389.5203,-443.87 452.4209,-510.5 459.5722,-518.0754 469.2812,-522.7221 479.3622,-525.5167"/>
<polygon fill="#191970" stroke="#191970" points="409.1333,-296.9597 398.6487,-295.4352 405.8942,-303.1652 409.1333,-296.9597"/>
</g>
<!-- Node188 -->
<g id="node10" class="node">
<title>Node188</title>
<g id="a_node10"><a xlink:href="class_uptane_1_1_bad_hardware_id.html" target="_top" xlink:title="Uptane::BadHardwareId">
<polygon fill="#ffffff" stroke="#000000" points="466.6006,-482.5 466.6006,-500.5 589.8857,-500.5 589.8857,-482.5 466.6006,-482.5"/>
<text text-anchor="middle" x="528.2432" y="-488.5" font-family="Helvetica,sans-Serif" font-size="10.00" fill="#000000">Uptane::BadHardwareId</text>
</a>
</g>
</g>
<!-- Node186&#45;&gt;Node188 -->
<g id="edge9" class="edge">
<title>Node186&#45;&gt;Node188</title>
<path fill="none" stroke="#191970" d="M407.7088,-300.3603C410.8945,-302.3875 413.8414,-304.7494 416.4209,-307.5 468.0623,-362.5665 399.563,-419.6 452.4209,-473.5 456.4943,-477.6537 461.3384,-480.9198 466.5796,-483.4794"/>
<polygon fill="#191970" stroke="#191970" points="409.295,-297.2403 398.807,-295.7393 406.0698,-303.4531 409.295,-297.2403"/>
</g>
<!-- Node189 -->
<g id="node11" class="node">
<title>Node189</title>
<g id="a_node11"><a xlink:href="class_uptane_1_1_bad_key_id.html" target="_top" xlink:title="Uptane::BadKeyId">
<polygon fill="#ffffff" stroke="#000000" points="479.6597,-445.5 479.6597,-463.5 576.8267,-463.5 576.8267,-445.5 479.6597,-445.5"/>
<text text-anchor="middle" x="528.2432" y="-451.5" font-family="Helvetica,sans-Serif" font-size="10.00" fill="#000000">Uptane::BadKeyId</text>
</a>
</g>
</g>
<!-- Node186&#45;&gt;Node189 -->
<g id="edge10" class="edge">
<title>Node186&#45;&gt;Node189</title>
<path fill="none" stroke="#191970" d="M407.9682,-300.8127C411.0301,-302.7342 413.8838,-304.9487 416.4209,-307.5 458.393,-349.7073 409.517,-395.2402 452.4209,-436.5 459.8322,-443.6273 469.5257,-448.1093 479.493,-450.8883"/>
<polygon fill="#191970" stroke="#191970" points="409.3719,-297.5988 398.8784,-296.1365 406.1696,-303.8234 409.3719,-297.5988"/>
</g>
<!-- Node190 -->
<g id="node12" class="node">
<title>Node190</title>
<g id="a_node12"><a xlink:href="class_uptane_1_1_expired_metadata.html" target="_top" xlink:title="Uptane::ExpiredMetadata">
<polygon fill="#ffffff" stroke="#000000" points="463.5415,-408.5 463.5415,-426.5 592.9448,-426.5 592.9448,-408.5 463.5415,-408.5"/>
<text text-anchor="middle" x="528.2432" y="-414.5" font-family="Helvetica,sans-Serif" font-size="10.00" fill="#000000">Uptane::ExpiredMetadata</text>
</a>
</g>
</g>
<!-- Node186&#45;&gt;Node190 -->
<g id="edge11" class="edge">
<title>Node186&#45;&gt;Node190</title>
<path fill="none" stroke="#191970" d="M407.8368,-301.2152C410.9103,-303.0388 413.8044,-305.1216 416.4209,-307.5 448.9114,-337.0342 419.2792,-370.6985 452.4209,-399.5 456.6078,-403.1386 461.3985,-406.0734 466.4921,-408.4366"/>
<polygon fill="#191970" stroke="#191970" points="409.2964,-298.0324 398.7817,-296.7317 406.1903,-304.3056 409.2964,-298.0324"/>
</g>
<!-- Node191 -->
<g id="node13" class="node">
<title>Node191</title>
<g id="a_node13"><a xlink:href="class_uptane_1_1_illegal_rsa_key_size.html" target="_top" xlink:title="Uptane::IllegalRsaKeySize">
<polygon fill="#ffffff" stroke="#000000" points="461.0439,-371.5 461.0439,-389.5 595.4424,-389.5 595.4424,-371.5 461.0439,-371.5"/>
<text text-anchor="middle" x="528.2432" y="-377.5" font-family="Helvetica,sans-Serif" font-size="10.00" fill="#000000">Uptane::IllegalRsaKeySize</text>
</a>
</g>
</g>
<!-- Node186&#45;&gt;Node191 -->
<g id="edge12" class="edge">
<title>Node186&#45;&gt;Node191</title>
<path fill="none" stroke="#191970" d="M406.8266,-301.6397C410.203,-303.3589 413.4353,-305.3026 416.4209,-307.5 439.9502,-324.8177 428.5108,-345.7119 452.4209,-362.5 457.625,-366.154 463.474,-369.073 469.5556,-371.4038"/>
<polygon fill="#191970" stroke="#191970" points="408.186,-298.4141 397.623,-297.5931 405.3685,-304.8221 408.186,-298.4141"/>
</g>
<!-- Node192 -->
<g id="node14" class="node">
<title>Node192</title>
<g id="a_node14"><a xlink:href="class_uptane_1_1_illegal_threshold.html" target="_top" xlink:title="Uptane::IllegalThreshold">
<polygon fill="#ffffff" stroke="#000000" points="466.0439,-334.5 466.0439,-352.5 590.4424,-352.5 590.4424,-334.5 466.0439,-334.5"/>
<text text-anchor="middle" x="528.2432" y="-340.5" font-family="Helvetica,sans-Serif" font-size="10.00" fill="#000000">Uptane::IllegalThreshold</text>
</a>
</g>
</g>
<!-- Node186&#45;&gt;Node192 -->
<g id="edge13" class="edge">
<title>Node186&#45;&gt;Node192</title>
<path fill="none" stroke="#191970" d="M396.1145,-300.5038C402.9919,-302.6323 409.9415,-304.9817 416.4209,-307.5 433.0944,-313.9803 435.6069,-319.3935 452.4209,-325.5 461.9585,-328.9638 472.4155,-331.943 482.4346,-334.4242"/>
<polygon fill="#191970" stroke="#191970" points="396.7356,-297.0374 386.1532,-297.5494 394.7452,-303.7484 396.7356,-297.0374"/>
</g>
<!-- Node193 -->
<g id="node15" class="node">
<title>Node193</title>
<g id="a_node15"><a xlink:href="class_uptane_1_1_invalid_metadata.html" target="_top" xlink:title="Uptane::InvalidMetadata">
<polygon fill="#ffffff" stroke="#000000" points="466.0415,-297.5 466.0415,-315.5 590.4448,-315.5 590.4448,-297.5 466.0415,-297.5"/>
<text text-anchor="middle" x="528.2432" y="-303.5" font-family="Helvetica,sans-Serif" font-size="10.00" fill="#000000">Uptane::InvalidMetadata</text>
</a>
</g>
</g>
<!-- Node186&#45;&gt;Node193 -->
<g id="edge14" class="edge">
<title>Node186&#45;&gt;Node193</title>
<path fill="none" stroke="#191970" d="M409.1837,-294.4916C427.3529,-296.3242 447.3865,-298.3448 465.7543,-300.1974"/>
<polygon fill="#191970" stroke="#191970" points="409.3178,-290.9875 399.017,-293.4662 408.6153,-297.9522 409.3178,-290.9875"/>
</g>
<!-- Node194 -->
<g id="node16" class="node">
<title>Node194</title>
<g id="a_node16"><a xlink:href="class_uptane_1_1_missing_repo.html" target="_top" xlink:title="Uptane::MissingRepo">
<polygon fill="#ffffff" stroke="#000000" points="472.4404,-260.5 472.4404,-278.5 584.0459,-278.5 584.0459,-260.5 472.4404,-260.5"/>
<text text-anchor="middle" x="528.2432" y="-266.5" font-family="Helvetica,sans-Serif" font-size="10.00" fill="#000000">Uptane::MissingRepo</text>
</a>
</g>
</g>
<!-- Node186&#45;&gt;Node194 -->
<g id="edge15" class="edge">
<title>Node186&#45;&gt;Node194</title>
<path fill="none" stroke="#191970" d="M409.1076,-282.1836C429.4598,-280.0168 452.1587,-277.6002 472.2387,-275.4624"/>
<polygon fill="#191970" stroke="#191970" points="408.5903,-278.7188 399.017,-283.2579 409.3314,-285.6795 408.5903,-278.7188"/>
</g>
<!-- Node195 -->
<g id="node17" class="node">
<title>Node195</title>
<g id="a_node17"><a xlink:href="class_uptane_1_1_miss_match_target.html" target="_top" xlink:title="Uptane::MissMatchTarget">
<polygon fill="#ffffff" stroke="#000000" points="463.5537,-223.5 463.5537,-241.5 592.9326,-241.5 592.9326,-223.5 463.5537,-223.5"/>
<text text-anchor="middle" x="528.2432" y="-229.5" font-family="Helvetica,sans-Serif" font-size="10.00" fill="#000000">Uptane::MissMatchTarget</text>
</a>
</g>
</g>
<!-- Node186&#45;&gt;Node195 -->
<g id="edge16" class="edge">
<title>Node186&#45;&gt;Node195</title>
<path fill="none" stroke="#191970" d="M398.9658,-276.5487C404.9115,-274.7138 410.8479,-272.6918 416.4209,-270.5 433.2572,-263.8784 435.5248,-257.9675 452.4209,-251.5 462.56,-247.6189 473.7666,-244.3081 484.3835,-241.5901"/>
<polygon fill="#191970" stroke="#191970" points="397.6303,-273.2925 389.0135,-279.4571 399.5938,-280.0115 397.6303,-273.2925"/>
</g>
<!-- Node196 -->
<g id="node18" class="node">
<title>Node196</title>
<g id="a_node18"><a xlink:href="class_uptane_1_1_non_unique_signatures.html" target="_top" xlink:title="Uptane::NonUniqueSignatures">
<polygon fill="#ffffff" stroke="#000000" points="452.4209,-186.5 452.4209,-204.5 604.0654,-204.5 604.0654,-186.5 452.4209,-186.5"/>
<text text-anchor="middle" x="528.2432" y="-192.5" font-family="Helvetica,sans-Serif" font-size="10.00" fill="#000000">Uptane::NonUniqueSignatures</text>
</a>
</g>
</g>
<!-- Node186&#45;&gt;Node196 -->
<g id="edge17" class="edge">
<title>Node186&#45;&gt;Node196</title>
<path fill="none" stroke="#191970" d="M407.9217,-275.7296C410.9036,-274.1816 413.761,-272.446 416.4209,-270.5 440.3005,-253.0293 428.3827,-231.7518 452.4209,-214.5 458.154,-210.3855 464.6864,-207.1586 471.4568,-204.6284"/>
<polygon fill="#191970" stroke="#191970" points="406.3962,-272.5774 398.676,-279.8334 409.2361,-278.9755 406.3962,-272.5774"/>
</g>
<!-- Node197 -->
<g id="node19" class="node">
<title>Node197</title>
<g id="a_node19"><a xlink:href="class_uptane_1_1_oversized_target.html" target="_top" xlink:title="Uptane::OversizedTarget">
<polygon fill="#ffffff" stroke="#000000" points="464.938,-149.5 464.938,-167.5 591.5483,-167.5 591.5483,-149.5 464.938,-149.5"/>
<text text-anchor="middle" x="528.2432" y="-155.5" font-family="Helvetica,sans-Serif" font-size="10.00" fill="#000000">Uptane::OversizedTarget</text>
</a>
</g>
</g>
<!-- Node186&#45;&gt;Node197 -->
<g id="edge18" class="edge">
<title>Node186&#45;&gt;Node197</title>
<path fill="none" stroke="#191970" d="M407.832,-276.6951C410.9067,-274.908 413.8024,-272.8558 416.4209,-270.5 449.3706,-240.8561 419.2017,-206.8416 452.4209,-177.5 457.0996,-173.3674 462.545,-170.1065 468.3305,-167.5375"/>
<polygon fill="#191970" stroke="#191970" points="406.2621,-273.5664 398.7745,-281.0621 409.3023,-279.8718 406.2621,-273.5664"/>
</g>
<!-- Node198 -->
<g id="node20" class="node">
<title>Node198</title>
<g id="a_node20"><a xlink:href="class_uptane_1_1_security_exception.html" target="_top" xlink:title="Uptane::SecurityException">
<polygon fill="#ffffff" stroke="#000000" points="461.3223,-112.5 461.3223,-130.5 595.1641,-130.5 595.1641,-112.5 461.3223,-112.5"/>
<text text-anchor="middle" x="528.2432" y="-118.5" font-family="Helvetica,sans-Serif" font-size="10.00" fill="#000000">Uptane::SecurityException</text>
</a>
</g>
</g>
<!-- Node186&#45;&gt;Node198 -->
<g id="edge19" class="edge">
<title>Node186&#45;&gt;Node198</title>
<path fill="none" stroke="#191970" d="M407.9557,-277.0911C411.0207,-275.208 413.8785,-273.0263 416.4209,-270.5 458.9479,-228.2422 409.5096,-182.3675 452.4209,-140.5 456.5976,-136.4249 461.5104,-133.1827 466.7942,-130.6086"/>
<polygon fill="#191970" stroke="#191970" points="406.2343,-274.0387 398.8599,-281.6459 409.3686,-280.2979 406.2343,-274.0387"/>
</g>
<!-- Node199 -->
<g id="node21" class="node">
<title>Node199</title>
<g id="a_node21"><a xlink:href="class_uptane_1_1_target_hash_mismatch.html" target="_top" xlink:title="Uptane::TargetHashMismatch">
<polygon fill="#ffffff" stroke="#000000" points="454.3813,-75.5 454.3813,-93.5 602.105,-93.5 602.105,-75.5 454.3813,-75.5"/>
<text text-anchor="middle" x="528.2432" y="-81.5" font-family="Helvetica,sans-Serif" font-size="10.00" fill="#000000">Uptane::TargetHashMismatch</text>
</a>
</g>
</g>
<!-- Node186&#45;&gt;Node199 -->
<g id="edge20" class="edge">
<title>Node186&#45;&gt;Node199</title>
<path fill="none" stroke="#191970" d="M407.9726,-277.3599C411.0549,-275.413 413.9101,-273.1435 416.4209,-270.5 468.7099,-215.4473 399.6311,-158.0727 452.4209,-103.5 456.3837,-99.4034 461.087,-96.1395 466.1813,-93.5455"/>
<polygon fill="#191970" stroke="#191970" points="406.108,-274.3816 398.7823,-282.0356 409.2823,-280.6205 406.108,-274.3816"/>
</g>
<!-- Node200 -->
<g id="node22" class="node">
<title>Node200</title>
<g id="a_node22"><a xlink:href="class_uptane_1_1_unmet_threshold.html" target="_top" xlink:title="Uptane::UnmetThreshold">
<polygon fill="#ffffff" stroke="#000000" points="464.3813,-38.5 464.3813,-56.5 592.105,-56.5 592.105,-38.5 464.3813,-38.5"/>
<text text-anchor="middle" x="528.2432" y="-44.5" font-family="Helvetica,sans-Serif" font-size="10.00" fill="#000000">Uptane::UnmetThreshold</text>
</a>
</g>
</g>
<!-- Node186&#45;&gt;Node200 -->
<g id="edge21" class="edge">
<title>Node186&#45;&gt;Node200</title>
<path fill="none" stroke="#191970" d="M408.0895,-277.4689C411.1433,-275.4955 413.9603,-273.1903 416.4209,-270.5 478.5576,-202.5627 389.6661,-133.8668 452.4209,-66.5 456.2134,-62.4288 460.7359,-59.1743 465.6574,-56.5794"/>
<polygon fill="#191970" stroke="#191970" points="406.2273,-274.4917 398.9553,-282.1969 409.4451,-280.7083 406.2273,-274.4917"/>
</g>
<!-- Node202 -->
<g id="node24" class="node">
<title>Node202</title>
<g id="a_node24"><a xlink:href="class_bad_credentials_archive.html" target="_top" xlink:title="BadCredentialsArchive">
<polygon fill="#ffffff" stroke="#000000" points="290.9189,-242.5 290.9189,-260.5 408.6377,-260.5 408.6377,-242.5 290.9189,-242.5"/>
<text text-anchor="middle" x="349.7783" y="-248.5" font-family="Helvetica,sans-Serif" font-size="10.00" fill="#000000">BadCredentialsArchive</text>
</a>
</g>
</g>
<!-- Node201&#45;&gt;Node202 -->
<g id="edge23" class="edge">
<title>Node201&#45;&gt;Node202</title>
<path fill="none" stroke="#191970" d="M198.1551,-175.3742C217.6809,-192.0749 250.6333,-218.0371 283.1357,-233.5 290.6031,-237.0525 298.8864,-239.9977 307.0034,-242.4048"/>
<polygon fill="#191970" stroke="#191970" points="200.2536,-172.5605 190.4138,-168.6324 195.6564,-177.8393 200.2536,-172.5605"/>
</g>
<!-- Node203 -->
<g id="node25" class="node">
<title>Node203</title>
<g id="a_node25"><a xlink:href="class_bad_credentials_content.html" target="_top" xlink:title="BadCredentialsContent">
<polygon fill="#ffffff" stroke="#000000" points="290.0791,-205.5 290.0791,-223.5 409.4775,-223.5 409.4775,-205.5 290.0791,-205.5"/>
<text text-anchor="middle" x="349.7783" y="-211.5" font-family="Helvetica,sans-Serif" font-size="10.00" fill="#000000">BadCredentialsContent</text>
</a>
</g>
</g>
<!-- Node201&#45;&gt;Node203 -->
<g id="edge24" class="edge">
<title>Node201&#45;&gt;Node203</title>
<path fill="none" stroke="#191970" d="M213.4776,-172.1874C233.4978,-179.6756 259.6251,-189.1041 283.1357,-196.5 293.0817,-199.6288 303.9644,-202.7098 313.9983,-205.4143"/>
<polygon fill="#191970" stroke="#191970" points="214.4874,-168.8277 203.8955,-168.5774 212.0194,-175.3783 214.4874,-168.8277"/>
</g>
<!-- Node204 -->
<g id="node26" class="node">
<title>Node204</title>
<g id="a_node26"><a xlink:href="class_bad_credentials_json.html" target="_top" xlink:title="BadCredentialsJson">
<polygon fill="#ffffff" stroke="#000000" points="297.0298,-168.5 297.0298,-186.5 402.5269,-186.5 402.5269,-168.5 297.0298,-168.5"/>
<text text-anchor="middle" x="349.7783" y="-174.5" font-family="Helvetica,sans-Serif" font-size="10.00" fill="#000000">BadCredentialsJson</text>
</a>
</g>
</g>
<!-- Node201&#45;&gt;Node204 -->
<g id="edge25" class="edge">
<title>Node201&#45;&gt;Node204</title>
<path fill="none" stroke="#191970" d="M238.0875,-165.6291C257.1241,-167.6524 278.1952,-169.8919 296.859,-171.8756"/>
<polygon fill="#191970" stroke="#191970" points="238.3603,-162.1385 228.0464,-164.5619 237.6204,-169.0993 238.3603,-162.1385"/>
</g>
<!-- Node205 -->
<g id="node27" class="node">
<title>Node205</title>
<g id="a_node27"><a xlink:href="class_s_q_l_exception.html" target="_top" xlink:title="SQLException">
<polygon fill="#ffffff" stroke="#000000" points="309.8154,-131.5 309.8154,-149.5 389.7412,-149.5 389.7412,-131.5 309.8154,-131.5"/>
<text text-anchor="middle" x="349.7783" y="-137.5" font-family="Helvetica,sans-Serif" font-size="10.00" fill="#000000">SQLException</text>
</a>
</g>
</g>
<!-- Node201&#45;&gt;Node205 -->
<g id="edge26" class="edge">
<title>Node201&#45;&gt;Node205</title>
<path fill="none" stroke="#191970" d="M238.2533,-153.0118C261.7614,-150.3745 288.3482,-147.3917 309.6654,-145.0002"/>
<polygon fill="#191970" stroke="#191970" points="237.5938,-149.5637 228.0464,-154.1569 238.3743,-156.5201 237.5938,-149.5637"/>
</g>
<!-- Node206 -->
<g id="node28" class="node">
<title>Node206</title>
<g id="a_node28"><a xlink:href="class_storage_exception.html" target="_top" xlink:title="StorageException">
<polygon fill="#ffffff" stroke="#000000" points="302.3081,-94.5 302.3081,-112.5 397.2485,-112.5 397.2485,-94.5 302.3081,-94.5"/>
<text text-anchor="middle" x="349.7783" y="-100.5" font-family="Helvetica,sans-Serif" font-size="10.00" fill="#000000">StorageException</text>
</a>
</g>
</g>
<!-- Node201&#45;&gt;Node206 -->
<g id="edge27" class="edge">
<title>Node201&#45;&gt;Node206</title>
<path fill="none" stroke="#191970" d="M213.9117,-146.7842C233.8927,-139.3615 259.8315,-130.0097 283.1357,-122.5 293.8997,-119.0313 305.7441,-115.5482 316.4242,-112.529"/>
<polygon fill="#191970" stroke="#191970" points="212.4778,-143.5836 204.3359,-150.363 214.9284,-150.1406 212.4778,-143.5836"/>
</g>
<!-- Node207 -->
<g id="node29" class="node">
<title>Node207</title>
<g id="a_node29"><a xlink:href="class_storage_target_r_handle_1_1_read_error.html" target="_top" xlink:title="StorageTargetRHandle\l::ReadError">
<polygon fill="#ffffff" stroke="#000000" points="290.9141,-47.5 290.9141,-75.5 408.6426,-75.5 408.6426,-47.5 290.9141,-47.5"/>
<text text-anchor="start" x="298.9141" y="-63.5" font-family="Helvetica,sans-Serif" font-size="10.00" fill="#000000">StorageTargetRHandle</text>
<text text-anchor="middle" x="349.7783" y="-53.5" font-family="Helvetica,sans-Serif" font-size="10.00" fill="#000000">::ReadError</text>
</a>
</g>
</g>
<!-- Node201&#45;&gt;Node207 -->
<g id="edge28" class="edge">
<title>Node201&#45;&gt;Node207</title>
<path fill="none" stroke="#191970" d="M198.7284,-143.8784C218.509,-127.6022 251.4627,-102.1907 283.1357,-85.5 290.0984,-81.8309 297.7449,-78.4963 305.2981,-75.5584"/>
<polygon fill="#191970" stroke="#191970" points="196.2938,-141.3514 190.8591,-150.4462 200.7792,-146.7256 196.2938,-141.3514"/>
</g>
<!-- Node208 -->
<g id="node30" class="node">
<title>Node208</title>
<g id="a_node30"><a xlink:href="class_storage_target_w_handle_1_1_write_error.html" target="_top" xlink:title="StorageTargetWHandle\l::WriteError">
<polygon fill="#ffffff" stroke="#000000" points="289.8057,-.5 289.8057,-28.5 409.751,-28.5 409.751,-.5 289.8057,-.5"/>
<text text-anchor="start" x="297.8057" y="-16.5" font-family="Helvetica,sans-Serif" font-size="10.00" fill="#000000">StorageTargetWHandle</text>
<text text-anchor="middle" x="349.7783" y="-6.5" font-family="Helvetica,sans-Serif" font-size="10.00" fill="#000000">::WriteError</text>
</a>
</g>
</g>
<!-- Node201&#45;&gt;Node208 -->
<g id="edge29" class="edge">
<title>Node201&#45;&gt;Node208</title>
<path fill="none" stroke="#191970" d="M191.2054,-141.6588C207.8512,-115.5305 242.1966,-66.8888 283.1357,-38.5 288.6937,-34.6459 294.9396,-31.3401 301.3212,-28.5248"/>
<polygon fill="#191970" stroke="#191970" points="188.2096,-139.8485 185.8941,-150.1873 194.1515,-143.549 188.2096,-139.8485"/>
</g>
</g>
</svg>
