<?xml version="1.0" encoding="UTF-8" standalone="no"?>
<!DOCTYPE svg PUBLIC "-//W3C//DTD SVG 1.1//EN"
 "http://www.w3.org/Graphics/SVG/1.1/DTD/svg11.dtd">
<!-- Generated by graphviz version 2.40.1 (20161225.0304)
 -->
<!-- Title: P11Config Pages: 1 -->
<svg width="124pt" height="198pt"
 viewBox="0.00 0.00 123.97 198.00" xmlns="http://www.w3.org/2000/svg" xmlns:xlink="http://www.w3.org/1999/xlink">
<g id="graph0" class="graph" transform="scale(1 1) rotate(0) translate(4 194)">
<title>P11Config</title>
<polygon fill="#ffffff" stroke="transparent" points="-4,4 -4,-194 119.9688,-194 119.9688,4 -4,4"/>
<!-- Node1 -->
<g id="node1" class="node">
<title>Node1</title>
<polygon fill="#bfbfbf" stroke="#000000" points="16.0669,-.5 16.0669,-18.5 78.0288,-18.5 78.0288,-.5 16.0669,-.5"/>
<text text-anchor="middle" x="47.0479" y="-6.5" font-family="Helvetica,sans-Serif" font-size="10.00" fill="#000000">P11Config</text>
</g>
<!-- Node2 -->
<g id="node2" class="node">
<title>Node2</title>
<g id="a_node2"><a xlink:title="STL class. ">
<polygon fill="#ffffff" stroke="#bfbfbf" points="17.373,-105.5 17.373,-123.5 76.7227,-123.5 76.7227,-105.5 17.373,-105.5"/>
<text text-anchor="middle" x="47.0479" y="-111.5" font-family="Helvetica,sans-Serif" font-size="10.00" fill="#000000">std::string</text>
</a>
</g>
</g>
<!-- Node2&#45;&gt;Node1 -->
<g id="edge1" class="edge">
<title>Node2&#45;&gt;Node1</title>
<path fill="none" stroke="#9a32cd" stroke-dasharray="5,2" d="M47.0479,-95.0056C47.0479,-72.2586 47.0479,-35.6045 47.0479,-18.6472"/>
<polygon fill="#9a32cd" stroke="#9a32cd" points="43.5479,-95.1819 47.0479,-105.182 50.5479,-95.182 43.5479,-95.1819"/>
<text text-anchor="middle" x="81.5083" y="-79" font-family="Helvetica,sans-Serif" font-size="10.00" fill="#000000"> tls_pkey_id</text>
<text text-anchor="middle" x="81.5083" y="-69" font-family="Helvetica,sans-Serif" font-size="10.00" fill="#000000">tls_clientcert_id</text>
<text text-anchor="middle" x="81.5083" y="-59" font-family="Helvetica,sans-Serif" font-size="10.00" fill="#000000">pass</text>
<text text-anchor="middle" x="81.5083" y="-49" font-family="Helvetica,sans-Serif" font-size="10.00" fill="#000000">uptane_key_id</text>
<text text-anchor="middle" x="81.5083" y="-39" font-family="Helvetica,sans-Serif" font-size="10.00" fill="#000000">tls_cacert_id</text>
</g>
<!-- Node3 -->
<g id="node3" class="node">
<title>Node3</title>
<g id="a_node3"><a xlink:title="STL class. ">
<polygon fill="#ffffff" stroke="#bfbfbf" points="0,-161.5 0,-189.5 94.0957,-189.5 94.0957,-161.5 0,-161.5"/>
<text text-anchor="start" x="8" y="-177.5" font-family="Helvetica,sans-Serif" font-size="10.00" fill="#000000">std::basic_string&lt;</text>
<text text-anchor="middle" x="47.0479" y="-167.5" font-family="Helvetica,sans-Serif" font-size="10.00" fill="#000000"> char &gt;</text>
</a>
</g>
</g>
<!-- Node3&#45;&gt;Node2 -->
<g id="edge2" class="edge">
<title>Node3&#45;&gt;Node2</title>
<path fill="none" stroke="#191970" d="M47.0479,-151.1001C47.0479,-141.5157 47.0479,-131.0935 47.0479,-123.831"/>
<polygon fill="#191970" stroke="#191970" points="43.5479,-151.352 47.0479,-161.3521 50.5479,-151.3521 43.5479,-151.352"/>
</g>
</g>
</svg>
