<?xml version="1.0" encoding="UTF-8" standalone="no"?>
<!DOCTYPE svg PUBLIC "-//W3C//DTD SVG 1.1//EN"
 "http://www.w3.org/Graphics/SVG/1.1/DTD/svg11.dtd">
<!-- Generated by graphviz version 2.40.1 (20161225.0304)
 -->
<!-- Title: Uptane::SecondaryInterface Pages: 1 -->
<svg width="155pt" height="263pt"
 viewBox="0.00 0.00 154.98 263.00" xmlns="http://www.w3.org/2000/svg" xmlns:xlink="http://www.w3.org/1999/xlink">
<g id="graph0" class="graph" transform="scale(1 1) rotate(0) translate(4 259)">
<title>Uptane::SecondaryInterface</title>
<polygon fill="#ffffff" stroke="transparent" points="-4,4 -4,-259 150.9795,-259 150.9795,4 -4,4"/>
<!-- Node9 -->
<g id="node1" class="node">
<title>Node9</title>
<polygon fill="#bfbfbf" stroke="#000000" points="0,-.5 0,-18.5 140.5215,-18.5 140.5215,-.5 0,-.5"/>
<text text-anchor="middle" x="70.2607" y="-6.5" font-family="Helvetica,sans-Serif" font-size="10.00" fill="#000000">Uptane::SecondaryInterface</text>
</g>
<!-- Node10 -->
<g id="node2" class="node">
<title>Node10</title>
<g id="a_node2"><a xlink:href="class_uptane_1_1_secondary_config.html" target="_top" xlink:title="Uptane::SecondaryConfig">
<polygon fill="#ffffff" stroke="#000000" points="5.0024,-65.5 5.0024,-83.5 135.519,-83.5 135.519,-65.5 5.0024,-65.5"/>
<text text-anchor="middle" x="70.2607" y="-71.5" font-family="Helvetica,sans-Serif" font-size="10.00" fill="#000000">Uptane::SecondaryConfig</text>
</a>
</g>
</g>
<!-- Node10&#45;&gt;Node9 -->
<g id="edge1" class="edge">
<title>Node10&#45;&gt;Node9</title>
<path fill="none" stroke="#9a32cd" stroke-dasharray="5,2" d="M70.2607,-55.1265C70.2607,-43.1522 70.2607,-28.3205 70.2607,-18.8821"/>
<polygon fill="#9a32cd" stroke="#9a32cd" points="66.7608,-55.462 70.2607,-65.462 73.7608,-55.4621 66.7608,-55.462"/>
<text text-anchor="middle" x="87.4922" y="-39" font-family="Helvetica,sans-Serif" font-size="10.00" fill="#000000"> sconfig</text>
</g>
<!-- Node11 -->
<g id="node3" class="node">
<title>Node11</title>
<g id="a_node3"><a xlink:title="STL class. ">
<polygon fill="#ffffff" stroke="#bfbfbf" points="40.5859,-170.5 40.5859,-188.5 99.9355,-188.5 99.9355,-170.5 40.5859,-170.5"/>
<text text-anchor="middle" x="70.2607" y="-176.5" font-family="Helvetica,sans-Serif" font-size="10.00" fill="#000000">std::string</text>
</a>
</g>
</g>
<!-- Node11&#45;&gt;Node10 -->
<g id="edge2" class="edge">
<title>Node11&#45;&gt;Node10</title>
<path fill="none" stroke="#9a32cd" stroke-dasharray="5,2" d="M70.2607,-160.0056C70.2607,-137.2586 70.2607,-100.6045 70.2607,-83.6472"/>
<polygon fill="#9a32cd" stroke="#9a32cd" points="66.7608,-160.1819 70.2607,-170.182 73.7608,-160.182 66.7608,-160.1819"/>
<text text-anchor="middle" x="108.6201" y="-144" font-family="Helvetica,sans-Serif" font-size="10.00" fill="#000000"> ecu_private_key</text>
<text text-anchor="middle" x="108.6201" y="-134" font-family="Helvetica,sans-Serif" font-size="10.00" fill="#000000">ecu_hardware_id</text>
<text text-anchor="middle" x="108.6201" y="-124" font-family="Helvetica,sans-Serif" font-size="10.00" fill="#000000">ecu_serial</text>
<text text-anchor="middle" x="108.6201" y="-114" font-family="Helvetica,sans-Serif" font-size="10.00" fill="#000000">opcua_lds_url</text>
<text text-anchor="middle" x="108.6201" y="-104" font-family="Helvetica,sans-Serif" font-size="10.00" fill="#000000">ecu_public_key</text>
</g>
<!-- Node12 -->
<g id="node4" class="node">
<title>Node12</title>
<g id="a_node4"><a xlink:title="STL class. ">
<polygon fill="#ffffff" stroke="#bfbfbf" points="23.2129,-226.5 23.2129,-254.5 117.3086,-254.5 117.3086,-226.5 23.2129,-226.5"/>
<text text-anchor="start" x="31.2129" y="-242.5" font-family="Helvetica,sans-Serif" font-size="10.00" fill="#000000">std::basic_string&lt;</text>
<text text-anchor="middle" x="70.2607" y="-232.5" font-family="Helvetica,sans-Serif" font-size="10.00" fill="#000000"> char &gt;</text>
</a>
</g>
</g>
<!-- Node12&#45;&gt;Node11 -->
<g id="edge3" class="edge">
<title>Node12&#45;&gt;Node11</title>
<path fill="none" stroke="#191970" d="M70.2607,-216.1001C70.2607,-206.5157 70.2607,-196.0935 70.2607,-188.831"/>
<polygon fill="#191970" stroke="#191970" points="66.7608,-216.352 70.2607,-226.3521 73.7608,-216.3521 66.7608,-216.352"/>
</g>
</g>
</svg>
