<?xml version="1.0" encoding="UTF-8" standalone="no"?>
<!DOCTYPE svg PUBLIC "-//W3C//DTD SVG 1.1//EN"
 "http://www.w3.org/Graphics/SVG/1.1/DTD/svg11.dtd">
<!-- Generated by graphviz version 2.40.1 (20161225.0304)
 -->
<!-- Title: AktualizrSecondaryInterface Pages: 1 -->
<svg width="444pt" height="82pt"
 viewBox="0.00 0.00 444.10 82.00" xmlns="http://www.w3.org/2000/svg" xmlns:xlink="http://www.w3.org/1999/xlink">
<g id="graph0" class="graph" transform="scale(1 1) rotate(0) translate(4 78)">
<title>AktualizrSecondaryInterface</title>
<polygon fill="#ffffff" stroke="transparent" points="-4,4 -4,-78 440.1006,-78 440.1006,4 -4,4"/>
<!-- Node0 -->
<g id="node1" class="node">
<title>Node0</title>
<polygon fill="#bfbfbf" stroke="#000000" points="115.5444,-55.5 115.5444,-73.5 256.6079,-73.5 256.6079,-55.5 115.5444,-55.5"/>
<text text-anchor="middle" x="186.0762" y="-61.5" font-family="Helvetica,sans-Serif" font-size="10.00" fill="#000000">AktualizrSecondaryInterface</text>
</g>
<!-- Node1 -->
<g id="node2" class="node">
<title>Node1</title>
<g id="a_node2"><a xlink:href="class_aktualizr_secondary.html" target="_top" xlink:title="AktualizrSecondary">
<polygon fill="#ffffff" stroke="#000000" points="0,-.5 0,-18.5 102.1523,-18.5 102.1523,-.5 0,-.5"/>
<text text-anchor="middle" x="51.0762" y="-6.5" font-family="Helvetica,sans-Serif" font-size="10.00" fill="#000000">AktualizrSecondary</text>
</a>
</g>
</g>
<!-- Node0&#45;&gt;Node1 -->
<g id="edge1" class="edge">
<title>Node0&#45;&gt;Node1</title>
<path fill="none" stroke="#191970" d="M154.4077,-51.598C129.5256,-41.4609 95.4958,-27.5969 73.4018,-18.5956"/>
<polygon fill="#191970" stroke="#191970" points="153.2022,-54.8862 163.7837,-55.4179 155.8433,-48.4035 153.2022,-54.8862"/>
</g>
<!-- Node2 -->
<g id="node3" class="node">
<title>Node2</title>
<g id="a_node3"><a xlink:href="class_aktualizr_secondary_opcua.html" target="_top" xlink:title="AktualizrSecondaryOpcua">
<polygon fill="#ffffff" stroke="#000000" points="120.2686,-.5 120.2686,-18.5 251.8838,-18.5 251.8838,-.5 120.2686,-.5"/>
<text text-anchor="middle" x="186.0762" y="-6.5" font-family="Helvetica,sans-Serif" font-size="10.00" fill="#000000">AktualizrSecondaryOpcua</text>
</a>
</g>
</g>
<!-- Node0&#45;&gt;Node2 -->
<g id="edge2" class="edge">
<title>Node0&#45;&gt;Node2</title>
<path fill="none" stroke="#191970" d="M186.0762,-45.383C186.0762,-36.3738 186.0762,-26.0373 186.0762,-18.7795"/>
<polygon fill="#191970" stroke="#191970" points="182.5763,-45.4178 186.0762,-55.4179 189.5763,-45.4179 182.5763,-45.4178"/>
</g>
<!-- Node3 -->
<g id="node4" class="node">
<title>Node3</title>
<g id="a_node4"><a xlink:href="class_aktualizr_secondary_with_discovery.html" target="_top" xlink:title="AktualizrSecondaryWithDiscovery">
<polygon fill="#ffffff" stroke="#000000" points="270.0518,-.5 270.0518,-18.5 436.1006,-18.5 436.1006,-.5 270.0518,-.5"/>
<text text-anchor="middle" x="353.0762" y="-6.5" font-family="Helvetica,sans-Serif" font-size="10.00" fill="#000000">AktualizrSecondaryWithDiscovery</text>
</a>
</g>
</g>
<!-- Node0&#45;&gt;Node3 -->
<g id="edge3" class="edge">
<title>Node0&#45;&gt;Node3</title>
<path fill="none" stroke="#191970" d="M223.2553,-52.2554C254.2922,-42.0336 297.8197,-27.6983 325.7361,-18.5042"/>
<polygon fill="#191970" stroke="#191970" points="222.0561,-48.9653 213.6528,-55.4179 224.2458,-55.614 222.0561,-48.9653"/>
</g>
</g>
</svg>
