<?xml version="1.0" encoding="UTF-8" standalone="no"?>
<!DOCTYPE svg PUBLIC "-//W3C//DTD SVG 1.1//EN"
 "http://www.w3.org/Graphics/SVG/1.1/DTD/svg11.dtd">
<!-- Generated by graphviz version 2.40.1 (20161225.0304)
 -->
<!-- Title: event::SendDeviceDataComplete Pages: 1 -->
<svg width="172pt" height="214pt"
 viewBox="0.00 0.00 171.86 214.00" xmlns="http://www.w3.org/2000/svg" xmlns:xlink="http://www.w3.org/1999/xlink">
<g id="graph0" class="graph" transform="scale(1 1) rotate(0) translate(4 210)">
<title>event::SendDeviceDataComplete</title>
<polygon fill="#ffffff" stroke="transparent" points="-4,4 -4,-210 167.8613,-210 167.8613,4 -4,4"/>
<!-- Node2 -->
<g id="node1" class="node">
<title>Node2</title>
<polygon fill="#bfbfbf" stroke="#000000" points="0,-.5 0,-18.5 163.8613,-18.5 163.8613,-.5 0,-.5"/>
<text text-anchor="middle" x="81.9307" y="-6.5" font-family="Helvetica,sans-Serif" font-size="10.00" fill="#000000">event::SendDeviceDataComplete</text>
</g>
<!-- Node3 -->
<g id="node2" class="node">
<title>Node3</title>
<g id="a_node2"><a xlink:href="classevent_1_1_base_event.html" target="_top" xlink:title="Base class for all event objects. ">
<polygon fill="#ffffff" stroke="#000000" points="34.7388,-56.5 34.7388,-74.5 129.1226,-74.5 129.1226,-56.5 34.7388,-56.5"/>
<text text-anchor="middle" x="81.9307" y="-62.5" font-family="Helvetica,sans-Serif" font-size="10.00" fill="#000000">event::BaseEvent</text>
</a>
</g>
</g>
<!-- Node3&#45;&gt;Node2 -->
<g id="edge1" class="edge">
<title>Node3&#45;&gt;Node2</title>
<path fill="none" stroke="#191970" d="M81.9307,-46.2065C81.9307,-36.8384 81.9307,-26.0262 81.9307,-18.5752"/>
<polygon fill="#191970" stroke="#191970" points="78.4308,-46.2527 81.9307,-56.2527 85.4308,-46.2528 78.4308,-46.2527"/>
</g>
<!-- Node4 -->
<g id="node3" class="node">
<title>Node4</title>
<g id="a_node3"><a xlink:title="STL class. ">
<polygon fill="#ffffff" stroke="#bfbfbf" points="52.2559,-121.5 52.2559,-139.5 111.6055,-139.5 111.6055,-121.5 52.2559,-121.5"/>
<text text-anchor="middle" x="81.9307" y="-127.5" font-family="Helvetica,sans-Serif" font-size="10.00" fill="#000000">std::string</text>
</a>
</g>
</g>
<!-- Node4&#45;&gt;Node3 -->
<g id="edge2" class="edge">
<title>Node4&#45;&gt;Node3</title>
<path fill="none" stroke="#9a32cd" stroke-dasharray="5,2" d="M81.9307,-111.1265C81.9307,-99.1522 81.9307,-84.3205 81.9307,-74.8821"/>
<polygon fill="#9a32cd" stroke="#9a32cd" points="78.4308,-111.462 81.9307,-121.462 85.4308,-111.4621 78.4308,-111.462"/>
<text text-anchor="middle" x="98.3271" y="-95" font-family="Helvetica,sans-Serif" font-size="10.00" fill="#000000"> variant</text>
</g>
<!-- Node5 -->
<g id="node4" class="node">
<title>Node5</title>
<g id="a_node4"><a xlink:title="STL class. ">
<polygon fill="#ffffff" stroke="#bfbfbf" points="34.8828,-177.5 34.8828,-205.5 128.9785,-205.5 128.9785,-177.5 34.8828,-177.5"/>
<text text-anchor="start" x="42.8828" y="-193.5" font-family="Helvetica,sans-Serif" font-size="10.00" fill="#000000">std::basic_string&lt;</text>
<text text-anchor="middle" x="81.9307" y="-183.5" font-family="Helvetica,sans-Serif" font-size="10.00" fill="#000000"> char &gt;</text>
</a>
</g>
</g>
<!-- Node5&#45;&gt;Node4 -->
<g id="edge3" class="edge">
<title>Node5&#45;&gt;Node4</title>
<path fill="none" stroke="#191970" d="M81.9307,-167.1001C81.9307,-157.5157 81.9307,-147.0935 81.9307,-139.831"/>
<polygon fill="#191970" stroke="#191970" points="78.4308,-167.352 81.9307,-177.3521 85.4308,-167.3521 78.4308,-167.352"/>
</g>
</g>
</svg>
