<?xml version="1.0" encoding="UTF-8" standalone="no"?>
<!DOCTYPE svg PUBLIC "-//W3C//DTD SVG 1.1//EN"
 "http://www.w3.org/Graphics/SVG/1.1/DTD/svg11.dtd">
<!-- Generated by graphviz version 2.40.1 (20161225.0304)
 -->
<!-- Title: opcuabridge::FileData Pages: 1 -->
<svg width="413pt" height="141pt"
 viewBox="0.00 0.00 412.89 141.00" xmlns="http://www.w3.org/2000/svg" xmlns:xlink="http://www.w3.org/1999/xlink">
<g id="graph0" class="graph" transform="scale(1 1) rotate(0) translate(4 137)">
<title>opcuabridge::FileData</title>
<polygon fill="#ffffff" stroke="transparent" points="-4,4 -4,-137 408.8945,-137 408.8945,4 -4,4"/>
<!-- Node2 -->
<g id="node1" class="node">
<title>Node2</title>
<polygon fill="#bfbfbf" stroke="#000000" points="291.0576,-67.5 291.0576,-85.5 404.8945,-85.5 404.8945,-67.5 291.0576,-67.5"/>
<text text-anchor="middle" x="347.9761" y="-73.5" font-family="Helvetica,sans-Serif" font-size="10.00" fill="#000000">opcuabridge::FileData</text>
</g>
<!-- Node3 -->
<g id="node2" class="node">
<title>Node3</title>
<g id="a_node2"><a xlink:href="structopcuabridge_1_1_message_file_data.html" target="_top" xlink:title="opcuabridge::MessageFileData">
<polygon fill="#ffffff" stroke="#000000" points="2.7832,-114.5 2.7832,-132.5 157.1963,-132.5 157.1963,-114.5 2.7832,-114.5"/>
<text text-anchor="middle" x="79.9897" y="-120.5" font-family="Helvetica,sans-Serif" font-size="10.00" fill="#000000">opcuabridge::MessageFileData</text>
</a>
</g>
</g>
<!-- Node3&#45;&gt;Node2 -->
<g id="edge1" class="edge">
<title>Node3&#45;&gt;Node2</title>
<path fill="none" stroke="#191970" d="M144.4167,-112.7438C181.9682,-106.4105 230.222,-98.1627 273.0576,-90.5 281.7844,-88.9389 291.0749,-87.236 300.0364,-85.5724"/>
<polygon fill="#191970" stroke="#191970" points="143.4024,-109.3652 134.1224,-114.4772 144.5648,-116.268 143.4024,-109.3652"/>
</g>
<!-- Node4 -->
<g id="node3" class="node">
<title>Node4</title>
<g id="a_node3"><a xlink:href="structopcuabridge_1_1_message_on_after_write_callback.html" target="_top" xlink:title="opcuabridge::MessageOnAfter\lWriteCallback\&lt; opcuabridge\l::FileData \&gt;">
<polygon fill="#ffffff" stroke="#000000" points="4.1724,-57.5 4.1724,-95.5 155.8071,-95.5 155.8071,-57.5 4.1724,-57.5"/>
<text text-anchor="start" x="12.1724" y="-83.5" font-family="Helvetica,sans-Serif" font-size="10.00" fill="#000000">opcuabridge::MessageOnAfter</text>
<text text-anchor="start" x="12.1724" y="-73.5" font-family="Helvetica,sans-Serif" font-size="10.00" fill="#000000">WriteCallback&lt; opcuabridge</text>
<text text-anchor="middle" x="79.9897" y="-63.5" font-family="Helvetica,sans-Serif" font-size="10.00" fill="#000000">::FileData &gt;</text>
</a>
</g>
</g>
<!-- Node4&#45;&gt;Node2 -->
<g id="edge2" class="edge">
<title>Node4&#45;&gt;Node2</title>
<path fill="none" stroke="#9a32cd" stroke-dasharray="5,2" d="M166.2815,-76.5C207.0768,-76.5 254.6569,-76.5 290.8919,-76.5"/>
<polygon fill="#9a32cd" stroke="#9a32cd" points="166.0671,-73.0001 156.067,-76.5 166.067,-80.0001 166.0671,-73.0001"/>
<text text-anchor="middle" x="225.5186" y="-78.5" font-family="Helvetica,sans-Serif" font-size="10.00" fill="#000000"> on_after_write_cb_</text>
</g>
<!-- Node5 -->
<g id="node4" class="node">
<title>Node5</title>
<g id="a_node4"><a xlink:href="structopcuabridge_1_1_message_on_before_read_callback.html" target="_top" xlink:title="opcuabridge::MessageOnBefore\lReadCallback\&lt; opcuabridge\l::FileData \&gt;">
<polygon fill="#ffffff" stroke="#000000" points="0,-.5 0,-38.5 159.9795,-38.5 159.9795,-.5 0,-.5"/>
<text text-anchor="start" x="8" y="-26.5" font-family="Helvetica,sans-Serif" font-size="10.00" fill="#000000">opcuabridge::MessageOnBefore</text>
<text text-anchor="start" x="8" y="-16.5" font-family="Helvetica,sans-Serif" font-size="10.00" fill="#000000">ReadCallback&lt; opcuabridge</text>
<text text-anchor="middle" x="79.9897" y="-6.5" font-family="Helvetica,sans-Serif" font-size="10.00" fill="#000000">::FileData &gt;</text>
</a>
</g>
</g>
<!-- Node5&#45;&gt;Node2 -->
<g id="edge3" class="edge">
<title>Node5&#45;&gt;Node2</title>
<path fill="none" stroke="#9a32cd" stroke-dasharray="5,2" d="M169.981,-38.6409C215.7914,-48.3847 269.3207,-59.7702 305.6226,-67.4915"/>
<polygon fill="#9a32cd" stroke="#9a32cd" points="170.5409,-35.1818 160.0315,-36.5247 169.0845,-42.0286 170.5409,-35.1818"/>
<text text-anchor="middle" x="225.5186" y="-61.5" font-family="Helvetica,sans-Serif" font-size="10.00" fill="#000000"> on_before_read_cb_</text>
</g>
</g>
</svg>
