<?xml version="1.0" encoding="UTF-8" standalone="no"?>
<!DOCTYPE svg PUBLIC "-//W3C//DTD SVG 1.1//EN"
 "http://www.w3.org/Graphics/SVG/1.1/DTD/svg11.dtd">
<!-- Generated by graphviz version 2.40.1 (20161225.0304)
 -->
<!-- Title: Uptane::SecondaryConfig Pages: 1 -->
<svg width="150pt" height="198pt"
 viewBox="0.00 0.00 149.98 198.00" xmlns="http://www.w3.org/2000/svg" xmlns:xlink="http://www.w3.org/1999/xlink">
<g id="graph0" class="graph" transform="scale(1 1) rotate(0) translate(4 194)">
<title>Uptane::SecondaryConfig</title>
<polygon fill="#ffffff" stroke="transparent" points="-4,4 -4,-194 145.9771,-194 145.9771,4 -4,4"/>
<!-- Node1 -->
<g id="node1" class="node">
<title>Node1</title>
<polygon fill="#bfbfbf" stroke="#000000" points="0,-.5 0,-18.5 130.5166,-18.5 130.5166,-.5 0,-.5"/>
<text text-anchor="middle" x="65.2583" y="-6.5" font-family="Helvetica,sans-Serif" font-size="10.00" fill="#000000">Uptane::SecondaryConfig</text>
</g>
<!-- Node2 -->
<g id="node2" class="node">
<title>Node2</title>
<g id="a_node2"><a xlink:title="STL class. ">
<polygon fill="#ffffff" stroke="#bfbfbf" points="35.5835,-105.5 35.5835,-123.5 94.9331,-123.5 94.9331,-105.5 35.5835,-105.5"/>
<text text-anchor="middle" x="65.2583" y="-111.5" font-family="Helvetica,sans-Serif" font-size="10.00" fill="#000000">std::string</text>
</a>
</g>
</g>
<!-- Node2&#45;&gt;Node1 -->
<g id="edge1" class="edge">
<title>Node2&#45;&gt;Node1</title>
<path fill="none" stroke="#9a32cd" stroke-dasharray="5,2" d="M65.2583,-95.0056C65.2583,-72.2586 65.2583,-35.6045 65.2583,-18.6472"/>
<polygon fill="#9a32cd" stroke="#9a32cd" points="61.7584,-95.1819 65.2583,-105.182 68.7584,-95.182 61.7584,-95.1819"/>
<text text-anchor="middle" x="103.6177" y="-79" font-family="Helvetica,sans-Serif" font-size="10.00" fill="#000000"> ecu_private_key</text>
<text text-anchor="middle" x="103.6177" y="-69" font-family="Helvetica,sans-Serif" font-size="10.00" fill="#000000">ecu_hardware_id</text>
<text text-anchor="middle" x="103.6177" y="-59" font-family="Helvetica,sans-Serif" font-size="10.00" fill="#000000">ecu_serial</text>
<text text-anchor="middle" x="103.6177" y="-49" font-family="Helvetica,sans-Serif" font-size="10.00" fill="#000000">opcua_lds_url</text>
<text text-anchor="middle" x="103.6177" y="-39" font-family="Helvetica,sans-Serif" font-size="10.00" fill="#000000">ecu_public_key</text>
</g>
<!-- Node3 -->
<g id="node3" class="node">
<title>Node3</title>
<g id="a_node3"><a xlink:title="STL class. ">
<polygon fill="#ffffff" stroke="#bfbfbf" points="18.2104,-161.5 18.2104,-189.5 112.3062,-189.5 112.3062,-161.5 18.2104,-161.5"/>
<text text-anchor="start" x="26.2104" y="-177.5" font-family="Helvetica,sans-Serif" font-size="10.00" fill="#000000">std::basic_string&lt;</text>
<text text-anchor="middle" x="65.2583" y="-167.5" font-family="Helvetica,sans-Serif" font-size="10.00" fill="#000000"> char &gt;</text>
</a>
</g>
</g>
<!-- Node3&#45;&gt;Node2 -->
<g id="edge2" class="edge">
<title>Node3&#45;&gt;Node2</title>
<path fill="none" stroke="#191970" d="M65.2583,-151.1001C65.2583,-141.5157 65.2583,-131.0935 65.2583,-123.831"/>
<polygon fill="#191970" stroke="#191970" points="61.7584,-151.352 65.2583,-161.3521 68.7584,-151.3521 61.7584,-151.352"/>
</g>
</g>
</svg>
