<?xml version="1.0" encoding="UTF-8" standalone="no"?>
<!DOCTYPE svg PUBLIC "-//W3C//DTD SVG 1.1//EN"
 "http://www.w3.org/Graphics/SVG/1.1/DTD/svg11.dtd">
<!-- Generated by graphviz version 2.40.1 (20161225.0304)
 -->
<!-- Title: opcuabridge::ECUVersionManifest Pages: 1 -->
<svg width="429pt" height="458pt"
 viewBox="0.00 0.00 428.51 458.00" xmlns="http://www.w3.org/2000/svg" xmlns:xlink="http://www.w3.org/1999/xlink">
<g id="graph0" class="graph" transform="scale(1 1) rotate(0) translate(4 454)">
<title>opcuabridge::ECUVersionManifest</title>
<polygon fill="#ffffff" stroke="transparent" points="-4,4 -4,-454 424.5068,-454 424.5068,4 -4,4"/>
<!-- Node1 -->
<g id="node1" class="node">
<title>Node1</title>
<polygon fill="#bfbfbf" stroke="#000000" points="30.271,-.5 30.271,-18.5 199.1372,-18.5 199.1372,-.5 30.271,-.5"/>
<text text-anchor="middle" x="114.7041" y="-6.5" font-family="Helvetica,sans-Serif" font-size="10.00" fill="#000000">opcuabridge::ECUVersionManifest</text>
</g>
<!-- Node2 -->
<g id="node2" class="node">
<title>Node2</title>
<polygon fill="#ffffff" stroke="#bfbfbf" points="23.8091,-112.5 23.8091,-140.5 149.5991,-140.5 149.5991,-112.5 23.8091,-112.5"/>
<text text-anchor="start" x="31.8091" y="-128.5" font-family="Helvetica,sans-Serif" font-size="10.00" fill="#000000">std::vector&lt; opcuabridge</text>
<text text-anchor="middle" x="86.7041" y="-118.5" font-family="Helvetica,sans-Serif" font-size="10.00" fill="#000000">::Signature &gt;</text>
</g>
<!-- Node2&#45;&gt;Node1 -->
<g id="edge1" class="edge">
<title>Node2&#45;&gt;Node1</title>
<path fill="none" stroke="#9a32cd" stroke-dasharray="5,2" d="M92.495,-102.3024C98.7137,-76.317 108.2738,-36.3697 112.5303,-18.5834"/>
<polygon fill="#9a32cd" stroke="#9a32cd" points="89.0611,-101.6135 90.1375,-112.1535 95.8689,-103.2428 89.0611,-101.6135"/>
<text text-anchor="middle" x="128.9429" y="-76.5" font-family="Helvetica,sans-Serif" font-size="10.00" fill="#000000"> signatures_</text>
</g>
<!-- Node3 -->
<g id="node3" class="node">
<title>Node3</title>
<g id="a_node3"><a xlink:href="classopcuabridge_1_1_signature.html" target="_top" xlink:title="opcuabridge::Signature">
<polygon fill="#ffffff" stroke="#000000" points="0,-229.5 0,-247.5 119.4082,-247.5 119.4082,-229.5 0,-229.5"/>
<text text-anchor="middle" x="59.7041" y="-235.5" font-family="Helvetica,sans-Serif" font-size="10.00" fill="#000000">opcuabridge::Signature</text>
</a>
</g>
</g>
<!-- Node3&#45;&gt;Node2 -->
<g id="edge2" class="edge">
<title>Node3&#45;&gt;Node2</title>
<path fill="none" stroke="#9a32cd" stroke-dasharray="5,2" d="M64.3181,-219.3603C69.7064,-197.0089 78.4926,-160.5626 83.2986,-140.6264"/>
<polygon fill="#9a32cd" stroke="#9a32cd" points="60.8547,-218.7928 61.9136,-229.3346 67.6598,-220.4333 60.8547,-218.7928"/>
<text text-anchor="middle" x="92.3813" y="-198" font-family="Helvetica,sans-Serif" font-size="10.00" fill="#000000"> elements</text>
</g>
<!-- Node4 -->
<g id="node4" class="node">
<title>Node4</title>
<g id="a_node4"><a xlink:href="classopcuabridge_1_1_hash.html" target="_top" xlink:title="opcuabridge::Hash">
<polygon fill="#ffffff" stroke="#000000" points="150.7314,-300 150.7314,-318 250.6768,-318 250.6768,-300 150.7314,-300"/>
<text text-anchor="middle" x="200.7041" y="-306" font-family="Helvetica,sans-Serif" font-size="10.00" fill="#000000">opcuabridge::Hash</text>
</a>
</g>
</g>
<!-- Node4&#45;&gt;Node3 -->
<g id="edge3" class="edge">
<title>Node4&#45;&gt;Node3</title>
<path fill="none" stroke="#9a32cd" stroke-dasharray="5,2" d="M173.261,-295.2785C145.0597,-281.1778 101.9612,-259.6286 77.7791,-247.5375"/>
<polygon fill="#9a32cd" stroke="#9a32cd" points="172.0499,-298.586 182.5595,-299.9277 175.1805,-292.325 172.0499,-298.586"/>
<text text-anchor="middle" x="158.7163" y="-273" font-family="Helvetica,sans-Serif" font-size="10.00" fill="#000000"> hash_</text>
</g>
<!-- Node9 -->
<g id="node9" class="node">
<title>Node9</title>
<polygon fill="#ffffff" stroke="#bfbfbf" points="137.8091,-224.5 137.8091,-252.5 263.5991,-252.5 263.5991,-224.5 137.8091,-224.5"/>
<text text-anchor="start" x="145.8091" y="-240.5" font-family="Helvetica,sans-Serif" font-size="10.00" fill="#000000">std::vector&lt; opcuabridge</text>
<text text-anchor="middle" x="200.7041" y="-230.5" font-family="Helvetica,sans-Serif" font-size="10.00" fill="#000000">::Hash &gt;</text>
</g>
<!-- Node4&#45;&gt;Node9 -->
<g id="edge12" class="edge">
<title>Node4&#45;&gt;Node9</title>
<path fill="none" stroke="#9a32cd" stroke-dasharray="5,2" d="M200.7041,-289.6766C200.7041,-277.9419 200.7041,-263.2254 200.7041,-252.5894"/>
<polygon fill="#9a32cd" stroke="#9a32cd" points="197.2042,-289.7833 200.7041,-299.7834 204.2042,-289.7834 197.2042,-289.7833"/>
<text text-anchor="middle" x="222.3813" y="-273" font-family="Helvetica,sans-Serif" font-size="10.00" fill="#000000"> elements</text>
</g>
<!-- Node5 -->
<g id="node5" class="node">
<title>Node5</title>
<g id="a_node5"><a xlink:title="STL class. ">
<polygon fill="#ffffff" stroke="#bfbfbf" points="236.0293,-365.5 236.0293,-383.5 295.3789,-383.5 295.3789,-365.5 236.0293,-365.5"/>
<text text-anchor="middle" x="265.7041" y="-371.5" font-family="Helvetica,sans-Serif" font-size="10.00" fill="#000000">std::string</text>
</a>
</g>
</g>
<!-- Node5&#45;&gt;Node3 -->
<g id="edge6" class="edge">
<title>Node5&#45;&gt;Node3</title>
<path fill="none" stroke="#9a32cd" stroke-dasharray="5,2" d="M225.8879,-367.9028C192.1013,-360.6498 143.861,-346.216 110.0195,-319 85.4892,-299.2723 69.5544,-264.1712 63.0439,-247.6183"/>
<polygon fill="#9a32cd" stroke="#9a32cd" points="225.3811,-371.3712 235.8774,-369.9294 226.7729,-364.511 225.3811,-371.3712"/>
<text text-anchor="middle" x="126.5464" y="-311" font-family="Helvetica,sans-Serif" font-size="10.00" fill="#000000"> keyid_</text>
<text text-anchor="middle" x="126.5464" y="-301" font-family="Helvetica,sans-Serif" font-size="10.00" fill="#000000">value_</text>
</g>
<!-- Node5&#45;&gt;Node4 -->
<g id="edge4" class="edge">
<title>Node5&#45;&gt;Node4</title>
<path fill="none" stroke="#9a32cd" stroke-dasharray="5,2" d="M249.4952,-358.1664C236.9052,-345.4796 219.9158,-328.3595 209.6653,-318.0301"/>
<polygon fill="#9a32cd" stroke="#9a32cd" points="247.1378,-360.7598 256.6661,-365.3925 252.1065,-355.829 247.1378,-360.7598"/>
<text text-anchor="middle" x="255.2163" y="-339" font-family="Helvetica,sans-Serif" font-size="10.00" fill="#000000"> digest_</text>
</g>
<!-- Node7 -->
<g id="node7" class="node">
<title>Node7</title>
<g id="a_node7"><a xlink:href="classopcuabridge_1_1_e_c_u_version_manifest_signed.html" target="_top" xlink:title="opcuabridge::ECUVersionManifest\lSigned">
<polygon fill="#ffffff" stroke="#000000" points="177.271,-65.5 177.271,-93.5 346.1372,-93.5 346.1372,-65.5 177.271,-65.5"/>
<text text-anchor="start" x="185.271" y="-81.5" font-family="Helvetica,sans-Serif" font-size="10.00" fill="#000000">opcuabridge::ECUVersionManifest</text>
<text text-anchor="middle" x="261.7041" y="-71.5" font-family="Helvetica,sans-Serif" font-size="10.00" fill="#000000">Signed</text>
</a>
</g>
</g>
<!-- Node5&#45;&gt;Node7 -->
<g id="edge8" class="edge">
<title>Node5&#45;&gt;Node7</title>
<path fill="none" stroke="#9a32cd" stroke-dasharray="5,2" d="M305.0143,-361.8172C328.0671,-351.6485 352.7041,-334.7561 352.7041,-309 352.7041,-309 352.7041,-309 352.7041,-168.5 352.7041,-142.6295 355.5114,-131.6672 338.7041,-112 332.0111,-104.1681 323.1079,-98.1806 313.7351,-93.6169"/>
<polygon fill="#9a32cd" stroke="#9a32cd" points="303.5795,-358.6224 295.6446,-365.6429 306.2256,-365.103 303.5795,-358.6224"/>
<text text-anchor="middle" x="386.6055" y="-240.5" font-family="Helvetica,sans-Serif" font-size="10.00" fill="#000000"> ecuIdentifier_</text>
<text text-anchor="middle" x="386.6055" y="-230.5" font-family="Helvetica,sans-Serif" font-size="10.00" fill="#000000">securityAttack_</text>
</g>
<!-- Node8 -->
<g id="node8" class="node">
<title>Node8</title>
<g id="a_node8"><a xlink:href="classopcuabridge_1_1_image.html" target="_top" xlink:title="opcuabridge::Image">
<polygon fill="#ffffff" stroke="#000000" points="209.5073,-159.5 209.5073,-177.5 313.9009,-177.5 313.9009,-159.5 209.5073,-159.5"/>
<text text-anchor="middle" x="261.7041" y="-165.5" font-family="Helvetica,sans-Serif" font-size="10.00" fill="#000000">opcuabridge::Image</text>
</a>
</g>
</g>
<!-- Node5&#45;&gt;Node8 -->
<g id="edge10" class="edge">
<title>Node5&#45;&gt;Node8</title>
<path fill="none" stroke="#9a32cd" stroke-dasharray="5,2" d="M274.1793,-356.007C275.2187,-353.049 276.1192,-349.9802 276.7041,-347 288.7733,-285.5049 277.4819,-268.6678 277.7041,-206 277.7199,-201.5556 278.8616,-200.2911 277.7041,-196 275.9203,-189.3871 272.1107,-182.7284 268.6562,-177.6198"/>
<polygon fill="#9a32cd" stroke="#9a32cd" points="270.9059,-354.7651 270.3677,-365.3462 277.3869,-357.4102 270.9059,-354.7651"/>
<text text-anchor="middle" x="305.7729" y="-273" font-family="Helvetica,sans-Serif" font-size="10.00" fill="#000000"> filename_</text>
</g>
<!-- Node6 -->
<g id="node6" class="node">
<title>Node6</title>
<g id="a_node6"><a xlink:title="STL class. ">
<polygon fill="#ffffff" stroke="#bfbfbf" points="218.6563,-421.5 218.6563,-449.5 312.752,-449.5 312.752,-421.5 218.6563,-421.5"/>
<text text-anchor="start" x="226.6563" y="-437.5" font-family="Helvetica,sans-Serif" font-size="10.00" fill="#000000">std::basic_string&lt;</text>
<text text-anchor="middle" x="265.7041" y="-427.5" font-family="Helvetica,sans-Serif" font-size="10.00" fill="#000000"> char &gt;</text>
</a>
</g>
</g>
<!-- Node6&#45;&gt;Node5 -->
<g id="edge5" class="edge">
<title>Node6&#45;&gt;Node5</title>
<path fill="none" stroke="#191970" d="M265.7041,-411.1001C265.7041,-401.5157 265.7041,-391.0935 265.7041,-383.831"/>
<polygon fill="#191970" stroke="#191970" points="262.2042,-411.352 265.7041,-421.3521 269.2042,-411.3521 262.2042,-411.352"/>
</g>
<!-- Node7&#45;&gt;Node1 -->
<g id="edge7" class="edge">
<title>Node7&#45;&gt;Node1</title>
<path fill="none" stroke="#9a32cd" stroke-dasharray="5,2" d="M222.592,-60.8752C193.8509,-47.1889 156.0531,-29.19 133.6724,-18.5325"/>
<polygon fill="#9a32cd" stroke="#9a32cd" points="221.4231,-64.1951 231.9565,-65.3345 224.4326,-57.875 221.4231,-64.1951"/>
<text text-anchor="middle" x="256.0806" y="-39" font-family="Helvetica,sans-Serif" font-size="10.00" fill="#000000"> ecuVersionManifestSigned_</text>
</g>
<!-- Node8&#45;&gt;Node7 -->
<g id="edge9" class="edge">
<title>Node8&#45;&gt;Node7</title>
<path fill="none" stroke="#9a32cd" stroke-dasharray="5,2" d="M261.7041,-149.0673C261.7041,-132.3832 261.7041,-108.7222 261.7041,-93.7454"/>
<polygon fill="#9a32cd" stroke="#9a32cd" points="258.2042,-149.3106 261.7041,-159.3107 265.2042,-149.3107 258.2042,-149.3106"/>
<text text-anchor="middle" x="298.1152" y="-123.5" font-family="Helvetica,sans-Serif" font-size="10.00" fill="#000000"> installedImage_</text>
</g>
<!-- Node9&#45;&gt;Node8 -->
<g id="edge11" class="edge">
<title>Node9&#45;&gt;Node8</title>
<path fill="none" stroke="#9a32cd" stroke-dasharray="5,2" d="M219.5158,-216.3656C225.1483,-209.7866 231.3588,-202.5803 237.1182,-196 242.517,-189.8316 248.6635,-182.9566 253.4603,-177.6237"/>
<polygon fill="#9a32cd" stroke="#9a32cd" points="216.5993,-214.3912 212.7678,-224.269 221.9229,-218.9365 216.5993,-214.3912"/>
<text text-anchor="middle" x="257.9971" y="-198" font-family="Helvetica,sans-Serif" font-size="10.00" fill="#000000"> hashes_</text>
</g>
</g>
</svg>
