<?xml version="1.0" encoding="UTF-8" standalone="no"?>
<!DOCTYPE svg PUBLIC "-//W3C//DTD SVG 1.1//EN"
 "http://www.w3.org/Graphics/SVG/1.1/DTD/svg11.dtd">
<!-- Generated by graphviz version 2.40.1 (20161225.0304)
 -->
<!-- Title: opcuabridge::ImageBlock Pages: 1 -->
<svg width="601pt" height="178pt"
 viewBox="0.00 0.00 601.35 178.00" xmlns="http://www.w3.org/2000/svg" xmlns:xlink="http://www.w3.org/1999/xlink">
<g id="graph0" class="graph" transform="scale(1 1) rotate(0) translate(4 174)">
<title>opcuabridge::ImageBlock</title>
<polygon fill="#ffffff" stroke="transparent" points="-4,4 -4,-174 597.3545,-174 597.3545,4 -4,4"/>
<!-- Node1 -->
<g id="node1" class="node">
<title>Node1</title>
<polygon fill="#bfbfbf" stroke="#000000" points="464.5078,-70.5 464.5078,-88.5 593.3545,-88.5 593.3545,-70.5 464.5078,-70.5"/>
<text text-anchor="middle" x="528.9312" y="-76.5" font-family="Helvetica,sans-Serif" font-size="10.00" fill="#000000">opcuabridge::ImageBlock</text>
</g>
<!-- Node2 -->
<g id="node2" class="node">
<title>Node2</title>
<g id="a_node2"><a xlink:href="structopcuabridge_1_1_message_on_after_write_callback.html" target="_top" xlink:title="opcuabridge::MessageOnAfter\lWriteCallback\&lt; opcuabridge\l::ImageBlock \&gt;">
<polygon fill="#ffffff" stroke="#000000" points="177.6226,-131.5 177.6226,-169.5 329.2573,-169.5 329.2573,-131.5 177.6226,-131.5"/>
<text text-anchor="start" x="185.6226" y="-157.5" font-family="Helvetica,sans-Serif" font-size="10.00" fill="#000000">opcuabridge::MessageOnAfter</text>
<text text-anchor="start" x="185.6226" y="-147.5" font-family="Helvetica,sans-Serif" font-size="10.00" fill="#000000">WriteCallback&lt; opcuabridge</text>
<text text-anchor="middle" x="253.4399" y="-137.5" font-family="Helvetica,sans-Serif" font-size="10.00" fill="#000000">::ImageBlock &gt;</text>
</a>
</g>
</g>
<!-- Node2&#45;&gt;Node1 -->
<g id="edge1" class="edge">
<title>Node2&#45;&gt;Node1</title>
<path fill="none" stroke="#9a32cd" stroke-dasharray="5,2" d="M339.3572,-133.4511C372.9804,-126.2362 411.7485,-117.2439 446.5078,-107.5 466.2983,-101.9522 488.3234,-94.3966 504.6235,-88.5322"/>
<polygon fill="#9a32cd" stroke="#9a32cd" points="338.6125,-130.0311 329.5593,-135.5347 340.0686,-136.878 338.6125,-130.0311"/>
<text text-anchor="middle" x="398.9688" y="-132.5" font-family="Helvetica,sans-Serif" font-size="10.00" fill="#000000"> on_after_write_cb_</text>
</g>
<!-- Node3 -->
<g id="node3" class="node">
<title>Node3</title>
<g id="a_node3"><a xlink:title="STL class. ">
<polygon fill="#ffffff" stroke="#bfbfbf" points="223.7651,-94.5 223.7651,-112.5 283.1147,-112.5 283.1147,-94.5 223.7651,-94.5"/>
<text text-anchor="middle" x="253.4399" y="-100.5" font-family="Helvetica,sans-Serif" font-size="10.00" fill="#000000">std::string</text>
</a>
</g>
</g>
<!-- Node3&#45;&gt;Node1 -->
<g id="edge2" class="edge">
<title>Node3&#45;&gt;Node1</title>
<path fill="none" stroke="#9a32cd" stroke-dasharray="5,2" d="M293.3879,-100.0198C338.2063,-96.1154 411.5511,-89.7258 464.4997,-85.1131"/>
<polygon fill="#9a32cd" stroke="#9a32cd" points="292.8426,-96.554 283.1841,-100.9088 293.4501,-103.5276 292.8426,-96.554"/>
<text text-anchor="middle" x="398.9688" y="-95.5" font-family="Helvetica,sans-Serif" font-size="10.00" fill="#000000"> filename_</text>
</g>
<!-- Node4 -->
<g id="node4" class="node">
<title>Node4</title>
<g id="a_node4"><a xlink:title="STL class. ">
<polygon fill="#ffffff" stroke="#bfbfbf" points="0,-89.5 0,-117.5 94.0957,-117.5 94.0957,-89.5 0,-89.5"/>
<text text-anchor="start" x="8" y="-105.5" font-family="Helvetica,sans-Serif" font-size="10.00" fill="#000000">std::basic_string&lt;</text>
<text text-anchor="middle" x="47.0479" y="-95.5" font-family="Helvetica,sans-Serif" font-size="10.00" fill="#000000"> char &gt;</text>
</a>
</g>
</g>
<!-- Node4&#45;&gt;Node3 -->
<g id="edge3" class="edge">
<title>Node4&#45;&gt;Node3</title>
<path fill="none" stroke="#191970" d="M104.2198,-103.5C142.8659,-103.5 192.3421,-103.5 223.4744,-103.5"/>
<polygon fill="#191970" stroke="#191970" points="104.1397,-100.0001 94.1397,-103.5 104.1396,-107.0001 104.1397,-100.0001"/>
</g>
<!-- Node5 -->
<g id="node5" class="node">
<title>Node5</title>
<g id="a_node5"><a xlink:href="structopcuabridge_1_1_message_on_before_read_callback.html" target="_top" xlink:title="opcuabridge::MessageOnBefore\lReadCallback\&lt; opcuabridge\l::ImageBlock \&gt;">
<polygon fill="#ffffff" stroke="#000000" points="173.4502,-37.5 173.4502,-75.5 333.4297,-75.5 333.4297,-37.5 173.4502,-37.5"/>
<text text-anchor="start" x="181.4502" y="-63.5" font-family="Helvetica,sans-Serif" font-size="10.00" fill="#000000">opcuabridge::MessageOnBefore</text>
<text text-anchor="start" x="181.4502" y="-53.5" font-family="Helvetica,sans-Serif" font-size="10.00" fill="#000000">ReadCallback&lt; opcuabridge</text>
<text text-anchor="middle" x="253.4399" y="-43.5" font-family="Helvetica,sans-Serif" font-size="10.00" fill="#000000">::ImageBlock &gt;</text>
</a>
</g>
</g>
<!-- Node5&#45;&gt;Node1 -->
<g id="edge4" class="edge">
<title>Node5&#45;&gt;Node1</title>
<path fill="none" stroke="#9a32cd" stroke-dasharray="5,2" d="M343.8446,-57.6571C376.2946,-58.7553 413.1123,-60.7874 446.5078,-64.5 459.2287,-65.9142 472.9435,-68.1286 485.4657,-70.4259"/>
<polygon fill="#9a32cd" stroke="#9a32cd" points="343.5769,-54.1471 333.4722,-57.3323 343.3578,-61.1436 343.5769,-54.1471"/>
<text text-anchor="middle" x="398.9688" y="-66.5" font-family="Helvetica,sans-Serif" font-size="10.00" fill="#000000"> on_before_read_cb_</text>
</g>
<!-- Node6 -->
<g id="node6" class="node">
<title>Node6</title>
<g id="a_node6"><a xlink:title="STL class. ">
<polygon fill="#ffffff" stroke="#bfbfbf" points="210.8794,-.5 210.8794,-18.5 296.0005,-18.5 296.0005,-.5 210.8794,-.5"/>
<text text-anchor="middle" x="253.4399" y="-6.5" font-family="Helvetica,sans-Serif" font-size="10.00" fill="#000000">std::vector&lt; T &gt;</text>
</a>
</g>
</g>
<!-- Node6&#45;&gt;Node1 -->
<g id="edge5" class="edge">
<title>Node6&#45;&gt;Node1</title>
<path fill="none" stroke="#9a32cd" stroke-dasharray="5,2" d="M306.4377,-15.3851C345.6789,-20.5688 400.1464,-29.5107 446.5078,-43.5 469.6791,-50.4918 495.0072,-62.2143 511.3859,-70.3758"/>
<polygon fill="#9a32cd" stroke="#9a32cd" points="306.6633,-11.8855 296.2992,-14.0846 305.7726,-18.8286 306.6633,-11.8855"/>
<text text-anchor="middle" x="398.9688" y="-45.5" font-family="Helvetica,sans-Serif" font-size="10.00" fill="#000000"> block_</text>
</g>
<!-- Node7 -->
<g id="node7" class="node">
<title>Node7</title>
<polygon fill="#ffffff" stroke="#bfbfbf" points="32.5479,-.5 32.5479,-18.5 61.5479,-18.5 61.5479,-.5 32.5479,-.5"/>
<text text-anchor="middle" x="47.0479" y="-6.5" font-family="Helvetica,sans-Serif" font-size="10.00" fill="#000000">T</text>
</g>
<!-- Node7&#45;&gt;Node6 -->
<g id="edge6" class="edge">
<title>Node7&#45;&gt;Node6</title>
<path fill="none" stroke="#9a32cd" stroke-dasharray="5,2" d="M71.6354,-9.5C105.9315,-9.5 168.6418,-9.5 210.6842,-9.5"/>
<polygon fill="#9a32cd" stroke="#9a32cd" points="71.561,-6.0001 61.5609,-9.5 71.5609,-13.0001 71.561,-6.0001"/>
<text text-anchor="middle" x="133.7729" y="-11.5" font-family="Helvetica,sans-Serif" font-size="10.00" fill="#000000"> elements</text>
</g>
</g>
</svg>
