<?xml version="1.0" encoding="UTF-8" standalone="no"?>
<!DOCTYPE svg PUBLIC "-//W3C//DTD SVG 1.1//EN"
 "http://www.w3.org/Graphics/SVG/1.1/DTD/svg11.dtd">
<!-- Generated by graphviz version 2.40.1 (20161225.0304)
 -->
<!-- Title: opcuabridge::Image Pages: 1 -->
<svg width="198pt" height="298pt"
 viewBox="0.00 0.00 198.09 298.00" xmlns="http://www.w3.org/2000/svg" xmlns:xlink="http://www.w3.org/1999/xlink">
<g id="graph0" class="graph" transform="scale(1 1) rotate(0) translate(4 294)">
<title>opcuabridge::Image</title>
<polygon fill="#ffffff" stroke="transparent" points="-4,4 -4,-294 194.0918,-294 194.0918,4 -4,4"/>
<!-- Node1 -->
<g id="node1" class="node">
<title>Node1</title>
<polygon fill="#bfbfbf" stroke="#000000" points="0,-.5 0,-18.5 104.3936,-18.5 104.3936,-.5 0,-.5"/>
<text text-anchor="middle" x="52.1968" y="-6.5" font-family="Helvetica,sans-Serif" font-size="10.00" fill="#000000">opcuabridge::Image</text>
</g>
<!-- Node2 -->
<g id="node2" class="node">
<title>Node2</title>
<g id="a_node2"><a xlink:title="STL class. ">
<polygon fill="#ffffff" stroke="#bfbfbf" points="22.522,-205.5 22.522,-223.5 81.8716,-223.5 81.8716,-205.5 22.522,-205.5"/>
<text text-anchor="middle" x="52.1968" y="-211.5" font-family="Helvetica,sans-Serif" font-size="10.00" fill="#000000">std::string</text>
</a>
</g>
</g>
<!-- Node2&#45;&gt;Node1 -->
<g id="edge1" class="edge">
<title>Node2&#45;&gt;Node1</title>
<path fill="none" stroke="#9a32cd" stroke-dasharray="5,2" d="M52.1968,-195.2257C52.1968,-152.3597 52.1968,-50.4314 52.1968,-18.9362"/>
<polygon fill="#9a32cd" stroke="#9a32cd" points="48.6969,-195.4269 52.1968,-205.4269 55.6969,-195.4269 48.6969,-195.4269"/>
<text text-anchor="middle" x="75.2656" y="-114" font-family="Helvetica,sans-Serif" font-size="10.00" fill="#000000"> filename_</text>
</g>
<!-- Node5 -->
<g id="node5" class="node">
<title>Node5</title>
<g id="a_node5"><a xlink:href="classopcuabridge_1_1_hash.html" target="_top" xlink:title="opcuabridge::Hash">
<polygon fill="#ffffff" stroke="#000000" points="70.2241,-140.5 70.2241,-158.5 170.1694,-158.5 170.1694,-140.5 70.2241,-140.5"/>
<text text-anchor="middle" x="120.1968" y="-146.5" font-family="Helvetica,sans-Serif" font-size="10.00" fill="#000000">opcuabridge::Hash</text>
</a>
</g>
</g>
<!-- Node2&#45;&gt;Node5 -->
<g id="edge5" class="edge">
<title>Node2&#45;&gt;Node5</title>
<path fill="none" stroke="#9a32cd" stroke-dasharray="5,2" d="M69.0617,-198.3791C82.0635,-185.9509 99.5915,-169.1962 110.3816,-158.8821"/>
<polygon fill="#9a32cd" stroke="#9a32cd" points="66.4622,-196.0221 61.6519,-205.462 71.2991,-201.0822 66.4622,-196.0221"/>
<text text-anchor="middle" x="107.709" y="-179" font-family="Helvetica,sans-Serif" font-size="10.00" fill="#000000"> digest_</text>
</g>
<!-- Node3 -->
<g id="node3" class="node">
<title>Node3</title>
<g id="a_node3"><a xlink:title="STL class. ">
<polygon fill="#ffffff" stroke="#bfbfbf" points="5.1489,-261.5 5.1489,-289.5 99.2446,-289.5 99.2446,-261.5 5.1489,-261.5"/>
<text text-anchor="start" x="13.1489" y="-277.5" font-family="Helvetica,sans-Serif" font-size="10.00" fill="#000000">std::basic_string&lt;</text>
<text text-anchor="middle" x="52.1968" y="-267.5" font-family="Helvetica,sans-Serif" font-size="10.00" fill="#000000"> char &gt;</text>
</a>
</g>
</g>
<!-- Node3&#45;&gt;Node2 -->
<g id="edge2" class="edge">
<title>Node3&#45;&gt;Node2</title>
<path fill="none" stroke="#191970" d="M52.1968,-251.1001C52.1968,-241.5157 52.1968,-231.0935 52.1968,-223.831"/>
<polygon fill="#191970" stroke="#191970" points="48.6969,-251.352 52.1968,-261.3521 55.6969,-251.3521 48.6969,-251.352"/>
</g>
<!-- Node4 -->
<g id="node4" class="node">
<title>Node4</title>
<polygon fill="#ffffff" stroke="#bfbfbf" points="64.3018,-65.5 64.3018,-93.5 190.0918,-93.5 190.0918,-65.5 64.3018,-65.5"/>
<text text-anchor="start" x="72.3018" y="-81.5" font-family="Helvetica,sans-Serif" font-size="10.00" fill="#000000">std::vector&lt; opcuabridge</text>
<text text-anchor="middle" x="127.1968" y="-71.5" font-family="Helvetica,sans-Serif" font-size="10.00" fill="#000000">::Hash &gt;</text>
</g>
<!-- Node4&#45;&gt;Node1 -->
<g id="edge3" class="edge">
<title>Node4&#45;&gt;Node1</title>
<path fill="none" stroke="#9a32cd" stroke-dasharray="5,2" d="M104.5606,-58.3729C90.3931,-45.1499 72.8487,-28.7751 62.0933,-18.7368"/>
<polygon fill="#9a32cd" stroke="#9a32cd" points="102.3207,-61.0699 112.0194,-65.3345 107.097,-55.9525 102.3207,-61.0699"/>
<text text-anchor="middle" x="111.4897" y="-39" font-family="Helvetica,sans-Serif" font-size="10.00" fill="#000000"> hashes_</text>
</g>
<!-- Node5&#45;&gt;Node4 -->
<g id="edge4" class="edge">
<title>Node5&#45;&gt;Node4</title>
<path fill="none" stroke="#9a32cd" stroke-dasharray="5,2" d="M122.1085,-130.383C123.2652,-118.8156 124.7157,-104.3105 125.7718,-93.7499"/>
<polygon fill="#9a32cd" stroke="#9a32cd" points="118.6244,-130.0501 121.1119,-140.3487 125.5897,-130.7466 118.6244,-130.0501"/>
<text text-anchor="middle" x="144.874" y="-114" font-family="Helvetica,sans-Serif" font-size="10.00" fill="#000000"> elements</text>
</g>
</g>
</svg>
