<?xml version="1.0" encoding="UTF-8" standalone="no"?>
<!DOCTYPE svg PUBLIC "-//W3C//DTD SVG 1.1//EN"
 "http://www.w3.org/Graphics/SVG/1.1/DTD/svg11.dtd">
<!-- Generated by graphviz version 2.40.1 (20161225.0304)
 -->
<!-- Title: HttpFake Pages: 1 -->
<svg width="176pt" height="168pt"
 viewBox="0.00 0.00 175.67 168.00" xmlns="http://www.w3.org/2000/svg" xmlns:xlink="http://www.w3.org/1999/xlink">
<g id="graph0" class="graph" transform="scale(1 1) rotate(0) translate(4 164)">
<title>HttpFake</title>
<polygon fill="#ffffff" stroke="transparent" points="-4,4 -4,-164 171.6733,-164 171.6733,4 -4,4"/>
<!-- Node2 -->
<g id="node1" class="node">
<title>Node2</title>
<polygon fill="#bfbfbf" stroke="#000000" points="37.3398,-.5 37.3398,-18.5 93.9111,-18.5 93.9111,-.5 37.3398,-.5"/>
<text text-anchor="middle" x="65.6255" y="-6.5" font-family="Helvetica,sans-Serif" font-size="10.00" fill="#000000">HttpFake</text>
</g>
<!-- Node3 -->
<g id="node2" class="node">
<title>Node3</title>
<g id="a_node2"><a xlink:href="class_http_interface.html" target="_top" xlink:title="HttpInterface">
<polygon fill="#ffffff" stroke="#000000" points="0,-75.5 0,-93.5 73.251,-93.5 73.251,-75.5 0,-75.5"/>
<text text-anchor="middle" x="36.6255" y="-81.5" font-family="Helvetica,sans-Serif" font-size="10.00" fill="#000000">HttpInterface</text>
</a>
</g>
</g>
<!-- Node3&#45;&gt;Node2 -->
<g id="edge1" class="edge">
<title>Node3&#45;&gt;Node2</title>
<path fill="none" stroke="#191970" d="M43.9548,-65.5448C49.7352,-50.5957 57.5473,-30.392 62.0404,-18.7717"/>
<polygon fill="#191970" stroke="#191970" points="40.5235,-64.7142 40.1815,-75.3035 47.0524,-67.2388 40.5235,-64.7142"/>
</g>
<!-- Node4 -->
<g id="node3" class="node">
<title>Node4</title>
<g id="a_node3"><a xlink:title="STL class. ">
<polygon fill="#ffffff" stroke="#bfbfbf" points="90.9507,-75.5 90.9507,-93.5 150.3003,-93.5 150.3003,-75.5 90.9507,-75.5"/>
<text text-anchor="middle" x="120.6255" y="-81.5" font-family="Helvetica,sans-Serif" font-size="10.00" fill="#000000">std::string</text>
</a>
</g>
</g>
<!-- Node4&#45;&gt;Node2 -->
<g id="edge2" class="edge">
<title>Node4&#45;&gt;Node2</title>
<path fill="none" stroke="#9a32cd" stroke-dasharray="5,2" d="M107.6729,-66.8373C96.6307,-51.7799 81.1945,-30.7304 72.4247,-18.7717"/>
<polygon fill="#9a32cd" stroke="#9a32cd" points="105.1453,-69.3092 113.8814,-75.3035 110.7902,-65.1697 105.1453,-69.3092"/>
<text text-anchor="middle" x="129.3618" y="-49" font-family="Helvetica,sans-Serif" font-size="10.00" fill="#000000"> tls_server</text>
<text text-anchor="middle" x="129.3618" y="-39" font-family="Helvetica,sans-Serif" font-size="10.00" fill="#000000">test_manifest</text>
</g>
<!-- Node5 -->
<g id="node4" class="node">
<title>Node5</title>
<g id="a_node4"><a xlink:title="STL class. ">
<polygon fill="#ffffff" stroke="#bfbfbf" points="73.5776,-131.5 73.5776,-159.5 167.6733,-159.5 167.6733,-131.5 73.5776,-131.5"/>
<text text-anchor="start" x="81.5776" y="-147.5" font-family="Helvetica,sans-Serif" font-size="10.00" fill="#000000">std::basic_string&lt;</text>
<text text-anchor="middle" x="120.6255" y="-137.5" font-family="Helvetica,sans-Serif" font-size="10.00" fill="#000000"> char &gt;</text>
</a>
</g>
</g>
<!-- Node5&#45;&gt;Node4 -->
<g id="edge3" class="edge">
<title>Node5&#45;&gt;Node4</title>
<path fill="none" stroke="#191970" d="M120.6255,-121.1001C120.6255,-111.5157 120.6255,-101.0935 120.6255,-93.831"/>
<polygon fill="#191970" stroke="#191970" points="117.1256,-121.352 120.6255,-131.3521 124.1256,-121.3521 117.1256,-121.352"/>
</g>
</g>
</svg>
