<?xml version="1.0" encoding="UTF-8" standalone="no"?>
<!DOCTYPE svg PUBLIC "-//W3C//DTD SVG 1.1//EN"
 "http://www.w3.org/Graphics/SVG/1.1/DTD/svg11.dtd">
<!-- Generated by graphviz version 2.40.1 (20161225.0304)
 -->
<!-- Title: BadCredentialsJson Pages: 1 -->
<svg width="113pt" height="137pt"
 viewBox="0.00 0.00 113.50 137.00" xmlns="http://www.w3.org/2000/svg" xmlns:xlink="http://www.w3.org/1999/xlink">
<g id="graph0" class="graph" transform="scale(1 1) rotate(0) translate(4 133)">
<title>BadCredentialsJson</title>
<polygon fill="#ffffff" stroke="transparent" points="-4,4 -4,-133 109.4971,-133 109.4971,4 -4,4"/>
<!-- Node0 -->
<g id="node1" class="node">
<title>Node0</title>
<polygon fill="#bfbfbf" stroke="#000000" points="0,-.5 0,-18.5 105.4971,-18.5 105.4971,-.5 0,-.5"/>
<text text-anchor="middle" x="52.7485" y="-6.5" font-family="Helvetica,sans-Serif" font-size="10.00" fill="#000000">BadCredentialsJson</text>
</g>
<!-- Node1 -->
<g id="node2" class="node">
<title>Node1</title>
<g id="a_node2"><a xlink:title="STL class. ">
<polygon fill="#ffffff" stroke="#bfbfbf" points="5.2905,-55.5 5.2905,-73.5 100.2065,-73.5 100.2065,-55.5 5.2905,-55.5"/>
<text text-anchor="middle" x="52.7485" y="-61.5" font-family="Helvetica,sans-Serif" font-size="10.00" fill="#000000">std::runtime_error</text>
</a>
</g>
</g>
<!-- Node1&#45;&gt;Node0 -->
<g id="edge1" class="edge">
<title>Node1&#45;&gt;Node0</title>
<path fill="none" stroke="#191970" d="M52.7485,-45.383C52.7485,-36.3738 52.7485,-26.0373 52.7485,-18.7795"/>
<polygon fill="#191970" stroke="#191970" points="49.2486,-45.4178 52.7485,-55.4179 56.2486,-45.4179 49.2486,-45.4178"/>
</g>
<!-- Node2 -->
<g id="node3" class="node">
<title>Node2</title>
<g id="a_node3"><a xlink:title="STL class. ">
<polygon fill="#ffffff" stroke="#bfbfbf" points="13.8965,-110.5 13.8965,-128.5 91.6006,-128.5 91.6006,-110.5 13.8965,-110.5"/>
<text text-anchor="middle" x="52.7485" y="-116.5" font-family="Helvetica,sans-Serif" font-size="10.00" fill="#000000">std::exception</text>
</a>
</g>
</g>
<!-- Node2&#45;&gt;Node1 -->
<g id="edge2" class="edge">
<title>Node2&#45;&gt;Node1</title>
<path fill="none" stroke="#191970" d="M52.7485,-100.383C52.7485,-91.3738 52.7485,-81.0373 52.7485,-73.7795"/>
<polygon fill="#191970" stroke="#191970" points="49.2486,-100.4178 52.7485,-110.4179 56.2486,-100.4179 49.2486,-100.4178"/>
</g>
</g>
</svg>
