<?xml version="1.0" encoding="UTF-8" standalone="no"?>
<!DOCTYPE svg PUBLIC "-//W3C//DTD SVG 1.1//EN"
 "http://www.w3.org/Graphics/SVG/1.1/DTD/svg11.dtd">
<!-- Generated by graphviz version 2.40.1 (20161225.0304)
 -->
<!-- Title: opcuabridge::CurrentTime Pages: 1 -->
<!--zoomable 188 -->
<svg id="main" version="1.1" xmlns="http://www.w3.org/2000/svg" xmlns:xlink="http://www.w3.org/1999/xlink" xml:space="preserve" onload="init(evt)">
<style type="text/css"><![CDATA[
.edge:hover path { stroke: red; }
.edge:hover polygon { stroke: red; fill: red; }
]]></style>
<script type="text/javascript"><![CDATA[
var edges = document.getElementsByTagName('g');
if (edges && edges.length) {
  for (var i=0;i<edges.length;i++) {
    if (edges[i].id.substr(0,4)=='edge') {
      edges[i].setAttribute('class','edge');
    }
  }
}
]]></script>
        <defs>
                <circle id="rim" cx="0" cy="0" r="7"/>
                <circle id="rim2" cx="0" cy="0" r="3.5"/>
                <g id="zoomPlus">
                        <use xlink:href="#rim" fill="#404040">
                                <set attributeName="fill" to="#808080" begin="zoomplus.mouseover" end="zoomplus.mouseout"/>
                        </use>
                        <path d="M-4,0h8M0,-4v8" fill="none" stroke="white" stroke-width="1.5" pointer-events="none"/>
                </g>
                <g id="zoomMin">
                        <use xlink:href="#rim" fill="#404040">
                                <set attributeName="fill" to="#808080" begin="zoomminus.mouseover" end="zoomminus.mouseout"/>
                        </use>
                        <path d="M-4,0h8" fill="none" stroke="white" stroke-width="1.5" pointer-events="none"/>
                </g>
                <g id="dirArrow">
                        <path fill="none" stroke="white" stroke-width="1.5" d="M0,-3.0v7 M-2.5,-0.5L0,-3.0L2.5,-0.5"/>
                </g>
               <g id="resetDef">
                       <use xlink:href="#rim2" fill="#404040">
                               <set attributeName="fill" to="#808080" begin="reset.mouseover" end="reset.mouseout"/>
                       </use>
               </g>
        </defs>

<script type="text/javascript">
var viewWidth = 1057;
var viewHeight = 188;
var sectionId = 'dynsection-0';
</script>
<script xlink:href="svgpan.js"/>
<svg id="graph" class="graph">
<g id="viewport">
<title>opcuabridge::CurrentTime</title>
<polygon fill="#ffffff" stroke="transparent" points="-4,4 -4,-184 1053.0605,-184 1053.0605,4 -4,4"/>
<!-- Node1 -->
<g id="node1" class="node">
<title>Node1</title>
<polygon fill="#bfbfbf" stroke="#000000" points="917.2598,-77.5 917.2598,-95.5 1049.0605,-95.5 1049.0605,-77.5 917.2598,-77.5"/>
<text text-anchor="middle" x="983.1602" y="-83.5" font-family="Helvetica,sans-Serif" font-size="10.00" fill="#000000">opcuabridge::CurrentTime</text>
</g>
<!-- Node2 -->
<g id="node2" class="node">
<title>Node2</title>
<g id="a_node2"><a xlink:href="structopcuabridge_1_1_message_on_before_read_callback.html" target="_top" xlink:title="opcuabridge::MessageOnBefore\lReadCallback\&lt; opcuabridge\l::CurrentTime \&gt;">
<polygon fill="#ffffff" stroke="#000000" points="626.2021,-141.5 626.2021,-179.5 786.1816,-179.5 786.1816,-141.5 626.2021,-141.5"/>
<text text-anchor="start" x="634.2021" y="-167.5" font-family="Helvetica,sans-Serif" font-size="10.00" fill="#000000">opcuabridge::MessageOnBefore</text>
<text text-anchor="start" x="634.2021" y="-157.5" font-family="Helvetica,sans-Serif" font-size="10.00" fill="#000000">ReadCallback&lt; opcuabridge</text>
<text text-anchor="middle" x="706.1919" y="-147.5" font-family="Helvetica,sans-Serif" font-size="10.00" fill="#000000">::CurrentTime &gt;</text>
</a>
</g>
</g>
<!-- Node2&#45;&gt;Node1 -->
<g id="edge1" class="edge">
<title>Node2&#45;&gt;Node1</title>
<path fill="none" stroke="#9a32cd" stroke-dasharray="5,2" d="M791.2995,-138.952C824.9732,-130.2977 863.9896,-120.11 899.2598,-110.5 916.8006,-105.7207 936.3321,-100.1485 952.1337,-95.577"/>
<polygon fill="#9a32cd" stroke="#9a32cd" points="790.309,-135.5927 781.4924,-141.4681 792.0485,-142.3732 790.309,-135.5927"/>
<text text-anchor="middle" x="851.7207" y="-137.5" font-family="Helvetica,sans-Serif" font-size="10.00" fill="#000000"> on_before_read_cb_</text>
</g>
<!-- Node3 -->
<g id="node3" class="node">
<title>Node3</title>
<g id="a_node3"><a xlink:href="structopcuabridge_1_1_message_on_after_write_callback.html" target="_top" xlink:title="opcuabridge::MessageOnAfter\lWriteCallback\&lt; opcuabridge\l::CurrentTime \&gt;">
<polygon fill="#ffffff" stroke="#000000" points="630.3745,-84.5 630.3745,-122.5 782.0093,-122.5 782.0093,-84.5 630.3745,-84.5"/>
<text text-anchor="start" x="638.3745" y="-110.5" font-family="Helvetica,sans-Serif" font-size="10.00" fill="#000000">opcuabridge::MessageOnAfter</text>
<text text-anchor="start" x="638.3745" y="-100.5" font-family="Helvetica,sans-Serif" font-size="10.00" fill="#000000">WriteCallback&lt; opcuabridge</text>
<text text-anchor="middle" x="706.1919" y="-90.5" font-family="Helvetica,sans-Serif" font-size="10.00" fill="#000000">::CurrentTime &gt;</text>
</a>
</g>
</g>
<!-- Node3&#45;&gt;Node1 -->
<g id="edge2" class="edge">
<title>Node3&#45;&gt;Node1</title>
<path fill="none" stroke="#9a32cd" stroke-dasharray="5,2" d="M792.3195,-98.2136C832.5887,-95.7419 879.7839,-92.8451 917.1657,-90.5507"/>
<polygon fill="#9a32cd" stroke="#9a32cd" points="792.0078,-94.726 782.241,-98.8322 792.4367,-101.7129 792.0078,-94.726"/>
<text text-anchor="middle" x="851.7207" y="-98.5" font-family="Helvetica,sans-Serif" font-size="10.00" fill="#000000"> on_after_write_cb_</text>
</g>
<!-- Node4 -->
<g id="node4" class="node">
<title>Node4</title>
<polygon fill="#ffffff" stroke="#bfbfbf" points="643.2969,-37.5 643.2969,-65.5 769.0869,-65.5 769.0869,-37.5 643.2969,-37.5"/>
<text text-anchor="start" x="651.2969" y="-53.5" font-family="Helvetica,sans-Serif" font-size="10.00" fill="#000000">std::vector&lt; opcuabridge</text>
<text text-anchor="middle" x="706.1919" y="-43.5" font-family="Helvetica,sans-Serif" font-size="10.00" fill="#000000">::Signature &gt;</text>
</g>
<!-- Node4&#45;&gt;Node1 -->
<g id="edge3" class="edge">
<title>Node4&#45;&gt;Node1</title>
<path fill="none" stroke="#9a32cd" stroke-dasharray="5,2" d="M779.4281,-60.7547C822.0853,-66.1453 875.4495,-72.8888 916.8606,-78.1218"/>
<polygon fill="#9a32cd" stroke="#9a32cd" points="779.7468,-57.2672 769.3868,-59.4858 778.8691,-64.212 779.7468,-57.2672"/>
<text text-anchor="middle" x="851.7207" y="-76.5" font-family="Helvetica,sans-Serif" font-size="10.00" fill="#000000"> signatures_</text>
</g>
<!-- Node5 -->
<g id="node5" class="node">
<title>Node5</title>
<g id="a_node5"><a xlink:href="classopcuabridge_1_1_signature.html" target="_top" xlink:title="opcuabridge::Signature">
<polygon fill="#ffffff" stroke="#000000" points="427.4395,-42.5 427.4395,-60.5 546.8477,-60.5 546.8477,-42.5 427.4395,-42.5"/>
<text text-anchor="middle" x="487.1436" y="-48.5" font-family="Helvetica,sans-Serif" font-size="10.00" fill="#000000">opcuabridge::Signature</text>
</a>
</g>
</g>
<!-- Node5&#45;&gt;Node4 -->
<g id="edge4" class="edge">
<title>Node5&#45;&gt;Node4</title>
<path fill="none" stroke="#9a32cd" stroke-dasharray="5,2" d="M557.3376,-51.5C584.8449,-51.5 616.1689,-51.5 642.9627,-51.5"/>
<polygon fill="#9a32cd" stroke="#9a32cd" points="556.9995,-48.0001 546.9995,-51.5 556.9994,-55.0001 556.9995,-48.0001"/>
<text text-anchor="middle" x="586.5249" y="-53.5" font-family="Helvetica,sans-Serif" font-size="10.00" fill="#000000"> elements</text>
</g>
<!-- Node6 -->
<g id="node6" class="node">
<title>Node6</title>
<g id="a_node6"><a xlink:href="classopcuabridge_1_1_hash.html" target="_top" xlink:title="opcuabridge::Hash">
<polygon fill="#ffffff" stroke="#000000" points="261.4697,-13.5 261.4697,-31.5 361.415,-31.5 361.415,-13.5 261.4697,-13.5"/>
<text text-anchor="middle" x="311.4424" y="-19.5" font-family="Helvetica,sans-Serif" font-size="10.00" fill="#000000">opcuabridge::Hash</text>
</a>
</g>
</g>
<!-- Node6&#45;&gt;Node5 -->
<g id="edge5" class="edge">
<title>Node6&#45;&gt;Node5</title>
<path fill="none" stroke="#9a32cd" stroke-dasharray="5,2" d="M371.8693,-32.4736C391.5427,-35.7208 413.2554,-39.3045 432.4818,-42.4779"/>
<polygon fill="#9a32cd" stroke="#9a32cd" points="372.2278,-28.9855 361.7913,-30.8102 371.0878,-35.8921 372.2278,-28.9855"/>
<text text-anchor="middle" x="394.4272" y="-39.5" font-family="Helvetica,sans-Serif" font-size="10.00" fill="#000000"> hash_</text>
</g>
<!-- Node7 -->
<g id="node7" class="node">
<title>Node7</title>
<g id="a_node7"><a xlink:title="STL class. ">
<polygon fill="#ffffff" stroke="#bfbfbf" points="131.0957,-36.5 131.0957,-54.5 190.4453,-54.5 190.4453,-36.5 131.0957,-36.5"/>
<text text-anchor="middle" x="160.7705" y="-42.5" font-family="Helvetica,sans-Serif" font-size="10.00" fill="#000000">std::string</text>
</a>
</g>
</g>
<!-- Node7&#45;&gt;Node5 -->
<g id="edge8" class="edge">
<title>Node7&#45;&gt;Node5</title>
<path fill="none" stroke="#9a32cd" stroke-dasharray="5,2" d="M200.6331,-50.8913C203.2735,-51.1327 205.8955,-51.3402 208.4453,-51.5 283.7783,-56.2218 370.7904,-55.1889 427.2737,-53.6615"/>
<polygon fill="#9a32cd" stroke="#9a32cd" points="200.7829,-47.3878 190.4712,-49.821 200.0495,-54.3493 200.7829,-47.3878"/>
<text text-anchor="middle" x="311.4424" y="-66.5" font-family="Helvetica,sans-Serif" font-size="10.00" fill="#000000"> keyid_</text>
<text text-anchor="middle" x="311.4424" y="-56.5" font-family="Helvetica,sans-Serif" font-size="10.00" fill="#000000">value_</text>
</g>
<!-- Node7&#45;&gt;Node6 -->
<g id="edge6" class="edge">
<title>Node7&#45;&gt;Node6</title>
<path fill="none" stroke="#9a32cd" stroke-dasharray="5,2" d="M200.4556,-39.4421C219.0791,-36.5992 241.4803,-33.1797 261.2659,-30.1594"/>
<polygon fill="#9a32cd" stroke="#9a32cd" points="199.8957,-35.9869 190.5384,-40.9559 200.9521,-42.9068 199.8957,-35.9869"/>
<text text-anchor="middle" x="225.9575" y="-39.5" font-family="Helvetica,sans-Serif" font-size="10.00" fill="#000000"> digest_</text>
</g>
<!-- Node8 -->
<g id="node8" class="node">
<title>Node8</title>
<g id="a_node8"><a xlink:title="STL class. ">
<polygon fill="#ffffff" stroke="#bfbfbf" points="0,-31.5 0,-59.5 94.0957,-59.5 94.0957,-31.5 0,-31.5"/>
<text text-anchor="start" x="8" y="-47.5" font-family="Helvetica,sans-Serif" font-size="10.00" fill="#000000">std::basic_string&lt;</text>
<text text-anchor="middle" x="47.0479" y="-37.5" font-family="Helvetica,sans-Serif" font-size="10.00" fill="#000000"> char &gt;</text>
</a>
</g>
</g>
<!-- Node8&#45;&gt;Node7 -->
<g id="edge7" class="edge">
<title>Node8&#45;&gt;Node7</title>
<path fill="none" stroke="#191970" d="M104.2966,-45.5C113.5577,-45.5 122.8051,-45.5 131.056,-45.5"/>
<polygon fill="#191970" stroke="#191970" points="104.2886,-42.0001 94.2885,-45.5 104.2885,-49.0001 104.2886,-42.0001"/>
</g>
<!-- Node9 -->
<g id="node9" class="node">
<title>Node9</title>
<g id="a_node9"><a xlink:href="classopcuabridge_1_1_signed.html" target="_top" xlink:title="opcuabridge::Signed">
<polygon fill="#ffffff" stroke="#000000" points="652.3228,-.5 652.3228,-18.5 760.061,-18.5 760.061,-.5 652.3228,-.5"/>
<text text-anchor="middle" x="706.1919" y="-6.5" font-family="Helvetica,sans-Serif" font-size="10.00" fill="#000000">opcuabridge::Signed</text>
</a>
</g>
</g>
<!-- Node9&#45;&gt;Node1 -->
<g id="edge9" class="edge">
<title>Node9&#45;&gt;Node1</title>
<path fill="none" stroke="#9a32cd" stroke-dasharray="5,2" d="M770.1046,-19.8183C808.1046,-26.7541 856.9853,-37.0847 899.2598,-50.5 922.5258,-57.8832 948.1616,-69.4111 964.8965,-77.4253"/>
<polygon fill="#9a32cd" stroke="#9a32cd" points="770.6512,-16.3605 760.1904,-18.0404 769.4156,-23.2506 770.6512,-16.3605"/>
<text text-anchor="middle" x="851.7207" y="-52.5" font-family="Helvetica,sans-Serif" font-size="10.00" fill="#000000"> signed_</text>
</g>
<!-- Node10 -->
<g id="node10" class="node">
<title>Node10</title>
<polygon fill="#ffffff" stroke="#bfbfbf" points="442.1807,-.5 442.1807,-18.5 532.1064,-18.5 532.1064,-.5 442.1807,-.5"/>
<text text-anchor="middle" x="487.1436" y="-6.5" font-family="Helvetica,sans-Serif" font-size="10.00" fill="#000000">std::vector&lt; int &gt;</text>
</g>
<!-- Node10&#45;&gt;Node9 -->
<g id="edge10" class="edge">
<title>Node10&#45;&gt;Node9</title>
<path fill="none" stroke="#9a32cd" stroke-dasharray="5,2" d="M542.3918,-9.5C576.0349,-9.5 618.822,-9.5 652.2285,-9.5"/>
<polygon fill="#9a32cd" stroke="#9a32cd" points="542.2649,-6.0001 532.2649,-9.5 542.2649,-13.0001 542.2649,-6.0001"/>
<text text-anchor="middle" x="586.5249" y="-11.5" font-family="Helvetica,sans-Serif" font-size="10.00" fill="#000000"> tokens_</text>
</g>
</g>
</svg>
        <g id="navigator" transform="translate(0 0)" fill="#404254">
                <rect fill="#f2f5e9" fill-opacity="0.5" stroke="#606060" stroke-width=".5" x="0" y="0" width="60" height="60"/>
                <use id="zoomplus" xlink:href="#zoomPlus" x="17" y="9" onmousedown="handleZoom(evt,'in')"/>
                <use id="zoomminus" xlink:href="#zoomMin" x="42" y="9" onmousedown="handleZoom(evt,'out')"/>
                <use id="reset" xlink:href="#resetDef" x="30" y="36" onmousedown="handleReset()"/>
                <g id="arrowUp" xlink:href="#dirArrow" transform="translate(30 24)" onmousedown="handlePan(0,-1)">
                  <use xlink:href="#rim" fill="#404040">
                        <set attributeName="fill" to="#808080" begin="arrowUp.mouseover" end="arrowUp.mouseout"/>
                  </use>
                  <path fill="none" stroke="white" stroke-width="1.5" d="M0,-3.0v7 M-2.5,-0.5L0,-3.0L2.5,-0.5"/>
                </g>
                <g id="arrowRight" xlink:href="#dirArrow" transform="rotate(90) translate(36 -43)" onmousedown="handlePan(1,0)">
                  <use xlink:href="#rim" fill="#404040">
                        <set attributeName="fill" to="#808080" begin="arrowRight.mouseover" end="arrowRight.mouseout"/>
                  </use>
                  <path fill="none" stroke="white" stroke-width="1.5" d="M0,-3.0v7 M-2.5,-0.5L0,-3.0L2.5,-0.5"/>
                </g>
                <g id="arrowDown" xlink:href="#dirArrow" transform="rotate(180) translate(-30 -48)" onmousedown="handlePan(0,1)">
                  <use xlink:href="#rim" fill="#404040">
                        <set attributeName="fill" to="#808080" begin="arrowDown.mouseover" end="arrowDown.mouseout"/>
                  </use>
                  <path fill="none" stroke="white" stroke-width="1.5" d="M0,-3.0v7 M-2.5,-0.5L0,-3.0L2.5,-0.5"/>
                </g>
                <g id="arrowLeft" xlink:href="#dirArrow" transform="rotate(270) translate(-36 17)" onmousedown="handlePan(-1,0)">
                  <use xlink:href="#rim" fill="#404040">
                        <set attributeName="fill" to="#808080" begin="arrowLeft.mouseover" end="arrowLeft.mouseout"/>
                  </use>
                  <path fill="none" stroke="white" stroke-width="1.5" d="M0,-3.0v7 M-2.5,-0.5L0,-3.0L2.5,-0.5"/>
                </g>
        </g>
        <svg viewBox="0 0 15 15" width="100%" height="30px" preserveAspectRatio="xMaxYMin meet">
         <g id="arrow_out" transform="scale(0.3 0.3)">
          <a xlink:href="classopcuabridge_1_1_current_time__coll__graph_org.svg" target="_base">
           <rect id="button" ry="5" rx="5" y="6" x="6" height="38" width="38"
                fill="#f2f5e9" fill-opacity="0.5" stroke="#606060" stroke-width="1.0"/>
           <path id="arrow"
             d="M 11.500037,31.436501 C 11.940474,20.09759 22.043105,11.32322 32.158766,21.979434 L 37.068811,17.246167 C 37.068811,17.246167 37.088388,32 37.088388,32 L 22.160133,31.978069 C 22.160133,31.978069 26.997745,27.140456 26.997745,27.140456 C 18.528582,18.264221 13.291696,25.230495 11.500037,31.436501 z"
             style="fill:#404040;"/>
          </a>
         </g>
        </svg>
</svg>
