<?xml version="1.0" encoding="UTF-8" standalone="no"?>
<!DOCTYPE svg PUBLIC "-//W3C//DTD SVG 1.1//EN"
 "http://www.w3.org/Graphics/SVG/1.1/DTD/svg11.dtd">
<!-- Generated by graphviz version 2.40.1 (20161225.0304)
 -->
<!-- Title: NotImplementedException Pages: 1 -->
<svg width="141pt" height="137pt"
 viewBox="0.00 0.00 141.29 137.00" xmlns="http://www.w3.org/2000/svg" xmlns:xlink="http://www.w3.org/1999/xlink">
<g id="graph0" class="graph" transform="scale(1 1) rotate(0) translate(4 133)">
<title>NotImplementedException</title>
<polygon fill="#ffffff" stroke="transparent" points="-4,4 -4,-133 137.2852,-133 137.2852,4 -4,4"/>
<!-- Node3 -->
<g id="node1" class="node">
<title>Node3</title>
<polygon fill="#bfbfbf" stroke="#000000" points="0,-.5 0,-18.5 133.2852,-18.5 133.2852,-.5 0,-.5"/>
<text text-anchor="middle" x="66.6426" y="-6.5" font-family="Helvetica,sans-Serif" font-size="10.00" fill="#000000">NotImplementedException</text>
</g>
<!-- Node4 -->
<g id="node2" class="node">
<title>Node4</title>
<g id="a_node2"><a xlink:title="STL class. ">
<polygon fill="#ffffff" stroke="#bfbfbf" points="25.5737,-55.5 25.5737,-73.5 107.7114,-73.5 107.7114,-55.5 25.5737,-55.5"/>
<text text-anchor="middle" x="66.6426" y="-61.5" font-family="Helvetica,sans-Serif" font-size="10.00" fill="#000000">std::logic_error</text>
</a>
</g>
</g>
<!-- Node4&#45;&gt;Node3 -->
<g id="edge1" class="edge">
<title>Node4&#45;&gt;Node3</title>
<path fill="none" stroke="#191970" d="M66.6426,-45.383C66.6426,-36.3738 66.6426,-26.0373 66.6426,-18.7795"/>
<polygon fill="#191970" stroke="#191970" points="63.1427,-45.4178 66.6426,-55.4179 70.1427,-45.4179 63.1427,-45.4178"/>
</g>
<!-- Node5 -->
<g id="node3" class="node">
<title>Node5</title>
<g id="a_node3"><a xlink:title="STL class. ">
<polygon fill="#ffffff" stroke="#bfbfbf" points="27.7905,-110.5 27.7905,-128.5 105.4946,-128.5 105.4946,-110.5 27.7905,-110.5"/>
<text text-anchor="middle" x="66.6426" y="-116.5" font-family="Helvetica,sans-Serif" font-size="10.00" fill="#000000">std::exception</text>
</a>
</g>
</g>
<!-- Node5&#45;&gt;Node4 -->
<g id="edge2" class="edge">
<title>Node5&#45;&gt;Node4</title>
<path fill="none" stroke="#191970" d="M66.6426,-100.383C66.6426,-91.3738 66.6426,-81.0373 66.6426,-73.7795"/>
<polygon fill="#191970" stroke="#191970" points="63.1427,-100.4178 66.6426,-110.4179 70.1427,-100.4179 63.1427,-100.4178"/>
</g>
</g>
</svg>
