<?xml version="1.0" encoding="UTF-8" standalone="no"?>
<!DOCTYPE svg PUBLIC "-//W3C//DTD SVG 1.1//EN"
 "http://www.w3.org/Graphics/SVG/1.1/DTD/svg11.dtd">
<!-- Generated by graphviz version 2.40.1 (20161225.0304)
 -->
<!-- Title: ECUInterface Pages: 1 -->
<svg width="210pt" height="82pt"
 viewBox="0.00 0.00 209.59 82.00" xmlns="http://www.w3.org/2000/svg" xmlns:xlink="http://www.w3.org/1999/xlink">
<g id="graph0" class="graph" transform="scale(1 1) rotate(0) translate(4 78)">
<title>ECUInterface</title>
<polygon fill="#ffffff" stroke="transparent" points="-4,4 -4,-78 205.5908,-78 205.5908,4 -4,4"/>
<!-- Node0 -->
<g id="node1" class="node">
<title>Node0</title>
<polygon fill="#bfbfbf" stroke="#000000" points="61.1133,-55.5 61.1133,-73.5 137.1377,-73.5 137.1377,-55.5 61.1133,-55.5"/>
<text text-anchor="middle" x="99.1255" y="-61.5" font-family="Helvetica,sans-Serif" font-size="10.00" fill="#000000">ECUInterface</text>
</g>
<!-- Node1 -->
<g id="node2" class="node">
<title>Node1</title>
<g id="a_node2"><a xlink:href="class_example_flasher.html" target="_top" xlink:title="ExampleFlasher">
<polygon fill="#ffffff" stroke="#000000" points="0,-.5 0,-18.5 88.251,-18.5 88.251,-.5 0,-.5"/>
<text text-anchor="middle" x="44.1255" y="-6.5" font-family="Helvetica,sans-Serif" font-size="10.00" fill="#000000">ExampleFlasher</text>
</a>
</g>
</g>
<!-- Node0&#45;&gt;Node1 -->
<g id="edge1" class="edge">
<title>Node0&#45;&gt;Node1</title>
<path fill="none" stroke="#191970" d="M82.9247,-48.2992C73.3083,-38.6828 61.4604,-26.8349 53.4049,-18.7795"/>
<polygon fill="#191970" stroke="#191970" points="80.4974,-50.8217 90.0434,-55.4179 85.4471,-45.8719 80.4974,-50.8217"/>
</g>
<!-- Node2 -->
<g id="node3" class="node">
<title>Node2</title>
<g id="a_node3"><a xlink:href="class_test_isotp_interface.html" target="_top" xlink:title="TestIsotpInterface">
<polygon fill="#ffffff" stroke="#000000" points="106.6602,-.5 106.6602,-18.5 201.5908,-18.5 201.5908,-.5 106.6602,-.5"/>
<text text-anchor="middle" x="154.1255" y="-6.5" font-family="Helvetica,sans-Serif" font-size="10.00" fill="#000000">TestIsotpInterface</text>
</a>
</g>
</g>
<!-- Node0&#45;&gt;Node2 -->
<g id="edge2" class="edge">
<title>Node0&#45;&gt;Node2</title>
<path fill="none" stroke="#191970" d="M115.3263,-48.2992C124.9427,-38.6828 136.7906,-26.8349 144.846,-18.7795"/>
<polygon fill="#191970" stroke="#191970" points="112.8038,-45.8719 108.2076,-55.4179 117.7536,-50.8217 112.8038,-45.8719"/>
</g>
</g>
</svg>
