<?xml version="1.0" encoding="UTF-8" standalone="no"?>
<!DOCTYPE svg PUBLIC "-//W3C//DTD SVG 1.1//EN"
 "http://www.w3.org/Graphics/SVG/1.1/DTD/svg11.dtd">
<!-- Generated by graphviz version 2.40.1 (20161225.0304)
 -->
<!-- Title: SQLStorage Pages: 1 -->
<svg width="107pt" height="137pt"
 viewBox="0.00 0.00 107.38 137.00" xmlns="http://www.w3.org/2000/svg" xmlns:xlink="http://www.w3.org/1999/xlink">
<g id="graph0" class="graph" transform="scale(1 1) rotate(0) translate(4 133)">
<title>SQLStorage</title>
<polygon fill="#ffffff" stroke="transparent" points="-4,4 -4,-133 103.3838,-133 103.3838,4 -4,4"/>
<!-- Node0 -->
<g id="node1" class="node">
<title>Node0</title>
<polygon fill="#bfbfbf" stroke="#000000" points="14.1748,-55.5 14.1748,-73.5 85.209,-73.5 85.209,-55.5 14.1748,-55.5"/>
<text text-anchor="middle" x="49.6919" y="-61.5" font-family="Helvetica,sans-Serif" font-size="10.00" fill="#000000">SQLStorage</text>
</g>
<!-- Node2 -->
<g id="node3" class="node">
<title>Node2</title>
<g id="a_node3"><a xlink:href="class_ephemeral_storage.html" target="_top" xlink:title="EphemeralStorage">
<polygon fill="#ffffff" stroke="#000000" points="0,-.5 0,-18.5 99.3838,-18.5 99.3838,-.5 0,-.5"/>
<text text-anchor="middle" x="49.6919" y="-6.5" font-family="Helvetica,sans-Serif" font-size="10.00" fill="#000000">EphemeralStorage</text>
</a>
</g>
</g>
<!-- Node0&#45;&gt;Node2 -->
<g id="edge2" class="edge">
<title>Node0&#45;&gt;Node2</title>
<path fill="none" stroke="#191970" d="M49.6919,-45.383C49.6919,-36.3738 49.6919,-26.0373 49.6919,-18.7795"/>
<polygon fill="#191970" stroke="#191970" points="46.192,-45.4178 49.6919,-55.4179 53.192,-45.4179 46.192,-45.4178"/>
</g>
<!-- Node1 -->
<g id="node2" class="node">
<title>Node1</title>
<g id="a_node2"><a xlink:href="class_i_nv_storage.html" target="_top" xlink:title="INvStorage">
<polygon fill="#ffffff" stroke="#000000" points="16.6797,-110.5 16.6797,-128.5 82.7041,-128.5 82.7041,-110.5 16.6797,-110.5"/>
<text text-anchor="middle" x="49.6919" y="-116.5" font-family="Helvetica,sans-Serif" font-size="10.00" fill="#000000">INvStorage</text>
</a>
</g>
</g>
<!-- Node1&#45;&gt;Node0 -->
<g id="edge1" class="edge">
<title>Node1&#45;&gt;Node0</title>
<path fill="none" stroke="#191970" d="M49.6919,-100.383C49.6919,-91.3738 49.6919,-81.0373 49.6919,-73.7795"/>
<polygon fill="#191970" stroke="#191970" points="46.192,-100.4178 49.6919,-110.4179 53.192,-100.4179 46.192,-100.4178"/>
</g>
</g>
</svg>
