<?xml version="1.0" encoding="UTF-8" standalone="no"?>
<!DOCTYPE svg PUBLIC "-//W3C//DTD SVG 1.1//EN"
 "http://www.w3.org/Graphics/SVG/1.1/DTD/svg11.dtd">
<!-- Generated by graphviz version 2.40.1 (20161225.0304)
 -->
<!-- Title: src/libaktualizr/utilities/events.h Pages: 1 -->
<!--zoomable 267 -->
<svg id="main" version="1.1" xmlns="http://www.w3.org/2000/svg" xmlns:xlink="http://www.w3.org/1999/xlink" xml:space="preserve" onload="init(evt)">
<style type="text/css"><![CDATA[
.edge:hover path { stroke: red; }
.edge:hover polygon { stroke: red; fill: red; }
]]></style>
<script type="text/javascript"><![CDATA[
var edges = document.getElementsByTagName('g');
if (edges && edges.length) {
  for (var i=0;i<edges.length;i++) {
    if (edges[i].id.substr(0,4)=='edge') {
      edges[i].setAttribute('class','edge');
    }
  }
}
]]></script>
        <defs>
                <circle id="rim" cx="0" cy="0" r="7"/>
                <circle id="rim2" cx="0" cy="0" r="3.5"/>
                <g id="zoomPlus">
                        <use xlink:href="#rim" fill="#404040">
                                <set attributeName="fill" to="#808080" begin="zoomplus.mouseover" end="zoomplus.mouseout"/>
                        </use>
                        <path d="M-4,0h8M0,-4v8" fill="none" stroke="white" stroke-width="1.5" pointer-events="none"/>
                </g>
                <g id="zoomMin">
                        <use xlink:href="#rim" fill="#404040">
                                <set attributeName="fill" to="#808080" begin="zoomminus.mouseover" end="zoomminus.mouseout"/>
                        </use>
                        <path d="M-4,0h8" fill="none" stroke="white" stroke-width="1.5" pointer-events="none"/>
                </g>
                <g id="dirArrow">
                        <path fill="none" stroke="white" stroke-width="1.5" d="M0,-3.0v7 M-2.5,-0.5L0,-3.0L2.5,-0.5"/>
                </g>
               <g id="resetDef">
                       <use xlink:href="#rim2" fill="#404040">
                               <set attributeName="fill" to="#808080" begin="reset.mouseover" end="reset.mouseout"/>
                       </use>
               </g>
        </defs>

<script type="text/javascript">
var viewWidth = 1695;
var viewHeight = 267;
var sectionId = 'dynsection-0';
</script>
<script xlink:href="svgpan.js"/>
<svg id="graph" class="graph">
<g id="viewport">
<title>src/libaktualizr/utilities/events.h</title>
<polygon fill="#ffffff" stroke="transparent" points="-4,4 -4,-263 1691.224,-263 1691.224,4 -4,4"/>
<!-- Node0 -->
<g id="node1" class="node">
<title>Node0</title>
<polygon fill="#bfbfbf" stroke="#000000" points="1251.0563,-230.5 1251.0563,-258.5 1363.7506,-258.5 1363.7506,-230.5 1251.0563,-230.5"/>
<text text-anchor="start" x="1259.0563" y="-246.5" font-family="Helvetica,sans-Serif" font-size="10.00" fill="#000000">src/libaktualizr/utilities</text>
<text text-anchor="middle" x="1307.4035" y="-236.5" font-family="Helvetica,sans-Serif" font-size="10.00" fill="#000000">/events.h</text>
</g>
<!-- Node1 -->
<g id="node2" class="node">
<title>Node1</title>
<polygon fill="#ffffff" stroke="#bfbfbf" points="870.6769,-175.5 870.6769,-193.5 906.13,-193.5 906.13,-175.5 870.6769,-175.5"/>
<text text-anchor="middle" x="888.4035" y="-181.5" font-family="Helvetica,sans-Serif" font-size="10.00" fill="#000000">map</text>
</g>
<!-- Node0&#45;&gt;Node1 -->
<g id="edge1" class="edge">
<title>Node0&#45;&gt;Node1</title>
<path fill="none" stroke="#191970" d="M1250.9087,-240.9644C1176.1457,-235.4625 1040.3038,-222.6124 916.3022,-193.7517"/>
<polygon fill="#191970" stroke="#191970" points="916.7929,-190.2711 906.2553,-191.3715 915.1791,-197.0826 916.7929,-190.2711"/>
</g>
<!-- Node2 -->
<g id="node3" class="node">
<title>Node2</title>
<polygon fill="#ffffff" stroke="#bfbfbf" points="1600.4996,-.5 1600.4996,-18.5 1664.3073,-18.5 1664.3073,-.5 1600.4996,-.5"/>
<text text-anchor="middle" x="1632.4035" y="-6.5" font-family="Helvetica,sans-Serif" font-size="10.00" fill="#000000">json/json.h</text>
</g>
<!-- Node0&#45;&gt;Node2 -->
<g id="edge2" class="edge">
<title>Node0&#45;&gt;Node2</title>
<path fill="none" stroke="#191970" d="M1363.8822,-239.3251C1449.9937,-228.0395 1611.5676,-192.7331 1682.4035,-84 1689.4389,-73.2006 1687.6148,-66.7884 1682.4035,-55 1676.9907,-42.7558 1666.4752,-32.3899 1656.4788,-24.6592"/>
<polygon fill="#191970" stroke="#191970" points="1658.4905,-21.7949 1648.3272,-18.8019 1654.4057,-27.4796 1658.4905,-21.7949"/>
</g>
<!-- Node3 -->
<g id="node4" class="node">
<title>Node3</title>
<polygon fill="#ffffff" stroke="#bfbfbf" points="1257.7067,-175.5 1257.7067,-193.5 1357.1002,-193.5 1357.1002,-175.5 1257.7067,-175.5"/>
<text text-anchor="middle" x="1307.4035" y="-181.5" font-family="Helvetica,sans-Serif" font-size="10.00" fill="#000000">boost/signals2.hpp</text>
</g>
<!-- Node0&#45;&gt;Node3 -->
<g id="edge3" class="edge">
<title>Node0&#45;&gt;Node3</title>
<path fill="none" stroke="#191970" d="M1307.4035,-230.2808C1307.4035,-222.3776 1307.4035,-212.4316 1307.4035,-203.8308"/>
<polygon fill="#191970" stroke="#191970" points="1310.9036,-203.5842 1307.4035,-193.5842 1303.9036,-203.5842 1310.9036,-203.5842"/>
</g>
<!-- Node4 -->
<g id="node5" class="node">
<title>Node4</title>
<g id="a_node5"><a xlink:href="tuf_8h_source.html" target="_top" xlink:title="uptane/tuf.h">
<polygon fill="#ffffff" stroke="#000000" points="923.9923,-175.5 923.9923,-193.5 992.8146,-193.5 992.8146,-175.5 923.9923,-175.5"/>
<text text-anchor="middle" x="958.4035" y="-181.5" font-family="Helvetica,sans-Serif" font-size="10.00" fill="#000000">uptane/tuf.h</text>
</a>
</g>
</g>
<!-- Node0&#45;&gt;Node4 -->
<g id="edge4" class="edge">
<title>Node0&#45;&gt;Node4</title>
<path fill="none" stroke="#191970" d="M1250.9427,-234.7933C1181.8649,-222.9174 1066.3285,-203.0544 1003.1001,-192.1842"/>
<polygon fill="#191970" stroke="#191970" points="1003.4922,-188.7004 993.0437,-190.4553 1002.3061,-195.5992 1003.4922,-188.7004"/>
</g>
<!-- Node25 -->
<g id="node26" class="node">
<title>Node25</title>
<g id="a_node26"><a xlink:href="types_8h.html" target="_top" xlink:title="utilities/types.h">
<polygon fill="#ffffff" stroke="#000000" points="1591.6105,-60.5 1591.6105,-78.5 1673.1964,-78.5 1673.1964,-60.5 1591.6105,-60.5"/>
<text text-anchor="middle" x="1632.4035" y="-66.5" font-family="Helvetica,sans-Serif" font-size="10.00" fill="#000000">utilities/types.h</text>
</a>
</g>
</g>
<!-- Node0&#45;&gt;Node25 -->
<g id="edge38" class="edge">
<title>Node0&#45;&gt;Node25</title>
<path fill="none" stroke="#191970" d="M1333.4502,-230.4748C1394.359,-197.6778 1545.5314,-116.2773 1606.3987,-83.5026"/>
<polygon fill="#191970" stroke="#191970" points="1608.2192,-86.4975 1615.3645,-78.6748 1604.9004,-80.3342 1608.2192,-86.4975"/>
</g>
<!-- Node5 -->
<g id="node6" class="node">
<title>Node5</title>
<polygon fill="#ffffff" stroke="#bfbfbf" points="928.9996,-120.5 928.9996,-138.5 987.8073,-138.5 987.8073,-120.5 928.9996,-120.5"/>
<text text-anchor="middle" x="958.4035" y="-126.5" font-family="Helvetica,sans-Serif" font-size="10.00" fill="#000000">functional</text>
</g>
<!-- Node4&#45;&gt;Node5 -->
<g id="edge5" class="edge">
<title>Node4&#45;&gt;Node5</title>
<path fill="none" stroke="#191970" d="M958.4035,-175.4179C958.4035,-168.2164 958.4035,-157.8962 958.4035,-148.8632"/>
<polygon fill="#191970" stroke="#191970" points="961.9036,-148.7794 958.4035,-138.7795 954.9036,-148.7795 961.9036,-148.7794"/>
</g>
<!-- Node6 -->
<g id="node7" class="node">
<title>Node6</title>
<polygon fill="#ffffff" stroke="#bfbfbf" points="1005.3419,-120.5 1005.3419,-138.5 1057.465,-138.5 1057.465,-120.5 1005.3419,-120.5"/>
<text text-anchor="middle" x="1031.4035" y="-126.5" font-family="Helvetica,sans-Serif" font-size="10.00" fill="#000000">ostream</text>
</g>
<!-- Node4&#45;&gt;Node6 -->
<g id="edge6" class="edge">
<title>Node4&#45;&gt;Node6</title>
<path fill="none" stroke="#191970" d="M970.4579,-175.4179C981.4868,-167.1084 998.0266,-154.6469 1011.0941,-144.8015"/>
<polygon fill="#191970" stroke="#191970" points="1013.2064,-147.5924 1019.0871,-138.7795 1008.9941,-142.0016 1013.2064,-147.5924"/>
</g>
<!-- Node7 -->
<g id="node8" class="node">
<title>Node7</title>
<polygon fill="#ffffff" stroke="#bfbfbf" points="782.7335,-120.5 782.7335,-138.5 812.0734,-138.5 812.0734,-120.5 782.7335,-120.5"/>
<text text-anchor="middle" x="797.4035" y="-126.5" font-family="Helvetica,sans-Serif" font-size="10.00" fill="#000000">set</text>
</g>
<!-- Node4&#45;&gt;Node7 -->
<g id="edge7" class="edge">
<title>Node4&#45;&gt;Node7</title>
<path fill="none" stroke="#191970" d="M928.8437,-175.4433C902.7274,-167.291 863.4388,-154.6622 821.8948,-139.4005"/>
<polygon fill="#191970" stroke="#191970" points="823.028,-136.0879 812.4349,-135.8934 820.5946,-142.6513 823.028,-136.0879"/>
</g>
<!-- Node8 -->
<g id="node9" class="node">
<title>Node8</title>
<g id="a_node9"><a xlink:href="uptane_2exceptions_8h_source.html" target="_top" xlink:title="uptane/exceptions.h">
<polygon fill="#ffffff" stroke="#000000" points="24.6476,-120.5 24.6476,-138.5 130.1593,-138.5 130.1593,-120.5 24.6476,-120.5"/>
<text text-anchor="middle" x="77.4035" y="-126.5" font-family="Helvetica,sans-Serif" font-size="10.00" fill="#000000">uptane/exceptions.h</text>
</a>
</g>
</g>
<!-- Node4&#45;&gt;Node8 -->
<g id="edge8" class="edge">
<title>Node4&#45;&gt;Node8</title>
<path fill="none" stroke="#191970" d="M923.7571,-176.3366C920.9408,-175.8285 918.1304,-175.3727 915.4035,-175 765.6986,-154.5381 308.5076,-137.3658 140.3383,-131.584"/>
<polygon fill="#191970" stroke="#191970" points="140.2748,-128.0799 130.1609,-131.2359 140.0354,-135.0758 140.2748,-128.0799"/>
</g>
<!-- Node12 -->
<g id="node13" class="node">
<title>Node12</title>
<g id="a_node13"><a xlink:href="crypto_8h_source.html" target="_top" xlink:title="crypto/crypto.h">
<polygon fill="#ffffff" stroke="#000000" points="829.6129,-120.5 829.6129,-138.5 911.194,-138.5 911.194,-120.5 829.6129,-120.5"/>
<text text-anchor="middle" x="870.4035" y="-126.5" font-family="Helvetica,sans-Serif" font-size="10.00" fill="#000000">crypto/crypto.h</text>
</a>
</g>
</g>
<!-- Node4&#45;&gt;Node12 -->
<g id="edge12" class="edge">
<title>Node4&#45;&gt;Node12</title>
<path fill="none" stroke="#191970" d="M943.872,-175.4179C930.2421,-166.8992 909.63,-154.0166 893.7038,-144.0627"/>
<polygon fill="#191970" stroke="#191970" points="895.2915,-140.9277 884.9565,-138.5956 891.5814,-146.8637 895.2915,-140.9277"/>
</g>
<!-- Node9 -->
<g id="node10" class="node">
<title>Node9</title>
<polygon fill="#ffffff" stroke="#bfbfbf" points="14.0021,-60.5 14.0021,-78.5 72.8048,-78.5 72.8048,-60.5 14.0021,-60.5"/>
<text text-anchor="middle" x="43.4035" y="-66.5" font-family="Helvetica,sans-Serif" font-size="10.00" fill="#000000">stdexcept</text>
</g>
<!-- Node8&#45;&gt;Node9 -->
<g id="edge9" class="edge">
<title>Node8&#45;&gt;Node9</title>
<path fill="none" stroke="#191970" d="M72.2396,-120.3873C67.297,-111.665 59.7043,-98.2663 53.5506,-87.4067"/>
<polygon fill="#191970" stroke="#191970" points="56.5912,-85.6731 48.6159,-78.6985 50.501,-89.1243 56.5912,-85.6731"/>
</g>
<!-- Node10 -->
<g id="node11" class="node">
<title>Node10</title>
<polygon fill="#ffffff" stroke="#bfbfbf" points="137.1769,-.5 137.1769,-18.5 177.63,-18.5 177.63,-.5 137.1769,-.5"/>
<text text-anchor="middle" x="157.4035" y="-6.5" font-family="Helvetica,sans-Serif" font-size="10.00" fill="#000000">string</text>
</g>
<!-- Node8&#45;&gt;Node10 -->
<g id="edge10" class="edge">
<title>Node8&#45;&gt;Node10</title>
<path fill="none" stroke="#191970" d="M51.1713,-120.4904C34.8221,-113.3538 15.1084,-101.6133 5.4035,-84 -.8166,-72.7113 -2.2934,-65.3383 5.4035,-55 19.9374,-35.4782 86.8304,-21.2275 126.8737,-14.2726"/>
<polygon fill="#191970" stroke="#191970" points="127.6283,-17.6949 136.909,-12.5843 126.4669,-10.7919 127.6283,-17.6949"/>
</g>
<!-- Node11 -->
<g id="node12" class="node">
<title>Node11</title>
<polygon fill="#ffffff" stroke="#bfbfbf" points="91.0119,-60.5 91.0119,-78.5 129.7951,-78.5 129.7951,-60.5 91.0119,-60.5"/>
<text text-anchor="middle" x="110.4035" y="-66.5" font-family="Helvetica,sans-Serif" font-size="10.00" fill="#000000">utility</text>
</g>
<!-- Node8&#45;&gt;Node11 -->
<g id="edge11" class="edge">
<title>Node8&#45;&gt;Node11</title>
<path fill="none" stroke="#191970" d="M82.4154,-120.3873C87.1642,-111.7531 94.4334,-98.5365 100.3734,-87.7366"/>
<polygon fill="#191970" stroke="#191970" points="103.5918,-89.1474 105.3443,-78.6985 97.4583,-85.7739 103.5918,-89.1474"/>
</g>
<!-- Node12&#45;&gt;Node10 -->
<g id="edge25" class="edge">
<title>Node12&#45;&gt;Node10</title>
<path fill="none" stroke="#191970" d="M829.5627,-121.1518C826.8079,-120.7216 824.0692,-120.3313 821.4035,-120 750.1731,-111.1487 231.8342,-129.602 176.4035,-84 160.3374,-70.7827 156.7915,-46.0447 156.4758,-28.7134"/>
<polygon fill="#191970" stroke="#191970" points="159.9772,-28.6433 156.6356,-18.5893 152.9781,-28.5328 159.9772,-28.6433"/>
</g>
<!-- Node12&#45;&gt;Node11 -->
<g id="edge26" class="edge">
<title>Node12&#45;&gt;Node11</title>
<path fill="none" stroke="#191970" d="M829.5637,-121.1435C826.8087,-120.7152 824.0697,-120.3276 821.4035,-120 521.8986,-83.1946 436.9707,-153.8287 143.4035,-84 141.4401,-83.533 139.4477,-82.9535 137.4647,-82.2974"/>
<polygon fill="#191970" stroke="#191970" points="138.3953,-78.904 127.8066,-78.5428 135.8589,-85.4283 138.3953,-78.904"/>
</g>
<!-- Node13 -->
<g id="node14" class="node">
<title>Node13</title>
<polygon fill="#ffffff" stroke="#bfbfbf" points="1177.5958,-60.5 1177.5958,-78.5 1269.2111,-78.5 1269.2111,-60.5 1177.5958,-60.5"/>
<text text-anchor="middle" x="1223.4035" y="-66.5" font-family="Helvetica,sans-Serif" font-size="10.00" fill="#000000">openssl/engine.h</text>
</g>
<!-- Node12&#45;&gt;Node13 -->
<g id="edge13" class="edge">
<title>Node12&#45;&gt;Node13</title>
<path fill="none" stroke="#191970" d="M911.3074,-121.5778C914.3827,-121.0283 917.4405,-120.4963 920.4035,-120 1030.2506,-101.6007 1059.2675,-106.2324 1168.4035,-84 1172.7668,-83.1111 1177.2995,-82.0855 1181.8065,-80.9989"/>
<polygon fill="#191970" stroke="#191970" points="1182.7091,-84.381 1191.5563,-78.552 1181.0051,-77.5915 1182.7091,-84.381"/>
</g>
<!-- Node14 -->
<g id="node15" class="node">
<title>Node14</title>
<polygon fill="#ffffff" stroke="#bfbfbf" points="1286.7731,-60.5 1286.7731,-78.5 1360.0338,-78.5 1360.0338,-60.5 1286.7731,-60.5"/>
<text text-anchor="middle" x="1323.4035" y="-66.5" font-family="Helvetica,sans-Serif" font-size="10.00" fill="#000000">openssl/err.h</text>
</g>
<!-- Node12&#45;&gt;Node14 -->
<g id="edge14" class="edge">
<title>Node12&#45;&gt;Node14</title>
<path fill="none" stroke="#191970" d="M911.2844,-121.4308C914.365,-120.9152 917.4304,-120.4311 920.4035,-120 1078.6621,-97.0532 1121.87,-116.7049 1278.4035,-84 1281.8006,-83.2902 1285.3031,-82.4194 1288.7835,-81.46"/>
<polygon fill="#191970" stroke="#191970" points="1289.846,-84.7955 1298.4277,-78.5822 1287.8444,-78.0878 1289.846,-84.7955"/>
</g>
<!-- Node15 -->
<g id="node16" class="node">
<title>Node15</title>
<polygon fill="#ffffff" stroke="#bfbfbf" points="1377.549,-60.5 1377.549,-78.5 1455.258,-78.5 1455.258,-60.5 1377.549,-60.5"/>
<text text-anchor="middle" x="1416.4035" y="-66.5" font-family="Helvetica,sans-Serif" font-size="10.00" fill="#000000">openssl/evp.h</text>
</g>
<!-- Node12&#45;&gt;Node15 -->
<g id="edge15" class="edge">
<title>Node12&#45;&gt;Node15</title>
<path fill="none" stroke="#191970" d="M911.2749,-121.3629C914.3577,-120.8631 917.4262,-120.401 920.4035,-120 1118.8078,-93.2769 1172.7961,-121.7354 1369.4035,-84 1373.2558,-83.2606 1377.2391,-82.3197 1381.1821,-81.2733"/>
<polygon fill="#191970" stroke="#191970" points="1382.1581,-84.6346 1390.8034,-78.51 1380.2257,-77.9066 1382.1581,-84.6346"/>
</g>
<!-- Node16 -->
<g id="node17" class="node">
<title>Node16</title>
<polygon fill="#ffffff" stroke="#bfbfbf" points="1473.2453,-60.5 1473.2453,-78.5 1573.5617,-78.5 1573.5617,-60.5 1473.2453,-60.5"/>
<text text-anchor="middle" x="1523.4035" y="-66.5" font-family="Helvetica,sans-Serif" font-size="10.00" fill="#000000">openssl/opensslv.h</text>
</g>
<!-- Node12&#45;&gt;Node16 -->
<g id="edge16" class="edge">
<title>Node12&#45;&gt;Node16</title>
<path fill="none" stroke="#191970" d="M911.2688,-121.3161C914.353,-120.8271 917.4234,-120.3803 920.4035,-120 1160.761,-89.3287 1224.9471,-121.0562 1464.4035,-84 1469.8759,-83.1531 1475.5852,-82.0438 1481.204,-80.8152"/>
<polygon fill="#191970" stroke="#191970" points="1482.2002,-84.1771 1491.1494,-78.506 1480.6169,-77.3585 1482.2002,-84.1771"/>
</g>
<!-- Node17 -->
<g id="node18" class="node">
<title>Node17</title>
<polygon fill="#ffffff" stroke="#bfbfbf" points="185.8839,-60.5 185.8839,-78.5 266.923,-78.5 266.923,-60.5 185.8839,-60.5"/>
<text text-anchor="middle" x="226.4035" y="-66.5" font-family="Helvetica,sans-Serif" font-size="10.00" fill="#000000">openssl/pem.h</text>
</g>
<!-- Node12&#45;&gt;Node17 -->
<g id="edge17" class="edge">
<title>Node12&#45;&gt;Node17</title>
<path fill="none" stroke="#191970" d="M829.5588,-121.183C826.8049,-120.7452 824.0675,-120.3447 821.4035,-120 580.2203,-88.7945 514.8072,-126.7666 275.4035,-84 271.277,-83.2628 267.0045,-82.3039 262.7805,-81.23"/>
<polygon fill="#191970" stroke="#191970" points="263.6742,-77.8459 253.1039,-78.5663 261.8164,-84.5949 263.6742,-77.8459"/>
</g>
<!-- Node18 -->
<g id="node19" class="node">
<title>Node18</title>
<polygon fill="#ffffff" stroke="#bfbfbf" points="284.7682,-60.5 284.7682,-78.5 378.0387,-78.5 378.0387,-60.5 284.7682,-60.5"/>
<text text-anchor="middle" x="331.4035" y="-66.5" font-family="Helvetica,sans-Serif" font-size="10.00" fill="#000000">openssl/pkcs12.h</text>
</g>
<!-- Node12&#45;&gt;Node18 -->
<g id="edge18" class="edge">
<title>Node12&#45;&gt;Node18</title>
<path fill="none" stroke="#191970" d="M829.5519,-121.2346C826.7997,-120.7844 824.0645,-120.367 821.4035,-120 629.2278,-93.4989 577.5956,-116.8531 386.4035,-84 381.6073,-83.1759 376.6195,-82.1317 371.6916,-80.9827"/>
<polygon fill="#191970" stroke="#191970" points="372.2897,-77.5251 361.7411,-78.5141 370.6041,-84.3191 372.2897,-77.5251"/>
</g>
<!-- Node19 -->
<g id="node20" class="node">
<title>Node19</title>
<polygon fill="#ffffff" stroke="#bfbfbf" points="395.6032,-60.5 395.6032,-78.5 477.2038,-78.5 477.2038,-60.5 395.6032,-60.5"/>
<text text-anchor="middle" x="436.4035" y="-66.5" font-family="Helvetica,sans-Serif" font-size="10.00" fill="#000000">openssl/rand.h</text>
</g>
<!-- Node12&#45;&gt;Node19 -->
<g id="edge19" class="edge">
<title>Node12&#45;&gt;Node19</title>
<path fill="none" stroke="#191970" d="M829.541,-121.31C826.7914,-120.8416 824.0598,-120.3995 821.4035,-120 673.3227,-97.7293 633.3216,-112.965 486.4035,-84 482.3133,-83.1936 478.0739,-82.2071 473.8718,-81.1315"/>
<polygon fill="#191970" stroke="#191970" points="474.7906,-77.7544 464.2223,-78.5032 472.9509,-84.5083 474.7906,-77.7544"/>
</g>
<!-- Node20 -->
<g id="node21" class="node">
<title>Node20</title>
<polygon fill="#ffffff" stroke="#bfbfbf" points="495.6647,-60.5 495.6647,-78.5 571.1422,-78.5 571.1422,-60.5 495.6647,-60.5"/>
<text text-anchor="middle" x="533.4035" y="-66.5" font-family="Helvetica,sans-Serif" font-size="10.00" fill="#000000">openssl/rsa.h</text>
</g>
<!-- Node12&#45;&gt;Node20 -->
<g id="edge20" class="edge">
<title>Node12&#45;&gt;Node20</title>
<path fill="none" stroke="#191970" d="M829.5206,-121.4367C826.7759,-120.9377 824.051,-120.4542 821.4035,-120 714.6631,-101.6892 686.003,-108.0318 580.4035,-84 577.1562,-83.261 573.8075,-82.4106 570.4637,-81.5"/>
<polygon fill="#191970" stroke="#191970" points="571.1316,-78.0499 560.5531,-78.6383 569.1896,-84.7752 571.1316,-78.0499"/>
</g>
<!-- Node21 -->
<g id="node22" class="node">
<title>Node21</title>
<polygon fill="#ffffff" stroke="#bfbfbf" points="589.1154,-60.5 589.1154,-78.5 645.6915,-78.5 645.6915,-60.5 589.1154,-60.5"/>
<text text-anchor="middle" x="617.4035" y="-66.5" font-family="Helvetica,sans-Serif" font-size="10.00" fill="#000000">sodium.h</text>
</g>
<!-- Node12&#45;&gt;Node21 -->
<g id="edge21" class="edge">
<title>Node12&#45;&gt;Node21</title>
<path fill="none" stroke="#191970" d="M829.1619,-121.1336C771.4746,-109.3757 671.8723,-88.8525 655.4035,-84 653.2572,-83.3676 651.06,-82.6696 648.8574,-81.9319"/>
<polygon fill="#191970" stroke="#191970" points="649.9021,-78.5886 639.3074,-78.5242 647.5495,-85.1814 649.9021,-78.5886"/>
</g>
<!-- Node22 -->
<g id="node23" class="node">
<title>Node22</title>
<polygon fill="#ffffff" stroke="#bfbfbf" points="664.0368,-60.5 664.0368,-78.5 786.7702,-78.5 786.7702,-60.5 664.0368,-60.5"/>
<text text-anchor="middle" x="725.4035" y="-66.5" font-family="Helvetica,sans-Serif" font-size="10.00" fill="#000000">boost/algorithm/hex.hpp</text>
</g>
<!-- Node12&#45;&gt;Node22 -->
<g id="edge22" class="edge">
<title>Node12&#45;&gt;Node22</title>
<path fill="none" stroke="#191970" d="M848.3811,-120.3873C823.9673,-110.2851 784.3933,-93.9096 756.7517,-82.4717"/>
<polygon fill="#191970" stroke="#191970" points="757.7364,-79.0914 747.158,-78.5019 755.0599,-85.5595 757.7364,-79.0914"/>
</g>
<!-- Node23 -->
<g id="node24" class="node">
<title>Node23</title>
<polygon fill="#ffffff" stroke="#bfbfbf" points="804.8717,-60.5 804.8717,-78.5 935.9352,-78.5 935.9352,-60.5 804.8717,-60.5"/>
<text text-anchor="middle" x="870.4035" y="-66.5" font-family="Helvetica,sans-Serif" font-size="10.00" fill="#000000">boost/algorithm/string.hpp</text>
</g>
<!-- Node12&#45;&gt;Node23 -->
<g id="edge23" class="edge">
<title>Node12&#45;&gt;Node23</title>
<path fill="none" stroke="#191970" d="M870.4035,-120.3873C870.4035,-112.0174 870.4035,-99.3414 870.4035,-88.735"/>
<polygon fill="#191970" stroke="#191970" points="873.9036,-88.6984 870.4035,-78.6985 866.9036,-88.6985 873.9036,-88.6984"/>
</g>
<!-- Node24 -->
<g id="node25" class="node">
<title>Node24</title>
<polygon fill="#ffffff" stroke="#bfbfbf" points="953.6032,-55.5 953.6032,-83.5 1065.2038,-83.5 1065.2038,-55.5 953.6032,-55.5"/>
<text text-anchor="start" x="961.6032" y="-71.5" font-family="Helvetica,sans-Serif" font-size="10.00" fill="#000000">boost/algorithm/string</text>
<text text-anchor="middle" x="1009.4035" y="-61.5" font-family="Helvetica,sans-Serif" font-size="10.00" fill="#000000">/case_conv.hpp</text>
</g>
<!-- Node12&#45;&gt;Node24 -->
<g id="edge24" class="edge">
<title>Node12&#45;&gt;Node24</title>
<path fill="none" stroke="#191970" d="M891.5146,-120.3873C911.6503,-111.6956 942.5439,-98.3602 967.6545,-87.5211"/>
<polygon fill="#191970" stroke="#191970" points="969.1667,-90.6806 976.9608,-83.504 966.3925,-84.2538 969.1667,-90.6806"/>
</g>
<!-- Node12&#45;&gt;Node25 -->
<g id="edge27" class="edge">
<title>Node12&#45;&gt;Node25</title>
<path fill="none" stroke="#191970" d="M911.2639,-121.2766C914.3492,-120.7967 917.4213,-120.3628 920.4035,-120 1212.9044,-84.4204 1291.9094,-133.3547 1582.4035,-84 1586.6638,-83.2762 1591.0769,-82.3169 1595.437,-81.2355"/>
<polygon fill="#191970" stroke="#191970" points="1596.6743,-84.5269 1605.4178,-78.5434 1594.8513,-77.7684 1596.6743,-84.5269"/>
</g>
<!-- Node27 -->
<g id="node28" class="node">
<title>Node27</title>
<g id="a_node28"><a xlink:href="utils_8h_source.html" target="_top" xlink:title="utilities/utils.h">
<polygon fill="#ffffff" stroke="#000000" points="1083.6696,-60.5 1083.6696,-78.5 1159.1373,-78.5 1159.1373,-60.5 1083.6696,-60.5"/>
<text text-anchor="middle" x="1121.4035" y="-66.5" font-family="Helvetica,sans-Serif" font-size="10.00" fill="#000000">utilities/utils.h</text>
</a>
</g>
</g>
<!-- Node12&#45;&gt;Node27 -->
<g id="edge30" class="edge">
<title>Node12&#45;&gt;Node27</title>
<path fill="none" stroke="#191970" d="M911.2758,-121.3849C952.6279,-112.9403 1018.286,-98.8892 1074.4035,-84 1077.3619,-83.2151 1080.4132,-82.3657 1083.4735,-81.4853"/>
<polygon fill="#191970" stroke="#191970" points="1084.5832,-84.8069 1093.1757,-78.6085 1082.5933,-78.0957 1084.5832,-84.8069"/>
</g>
<!-- Node25&#45;&gt;Node2 -->
<g id="edge28" class="edge">
<title>Node25&#45;&gt;Node2</title>
<path fill="none" stroke="#191970" d="M1632.4035,-60.3873C1632.4035,-52.0174 1632.4035,-39.3414 1632.4035,-28.735"/>
<polygon fill="#191970" stroke="#191970" points="1635.9036,-28.6984 1632.4035,-18.6985 1628.9036,-28.6985 1635.9036,-28.6984"/>
</g>
<!-- Node26 -->
<g id="node27" class="node">
<title>Node26</title>
<polygon fill="#ffffff" stroke="#bfbfbf" points="1363.8248,-.5 1363.8248,-18.5 1470.9821,-18.5 1470.9821,-.5 1363.8248,-.5"/>
<text text-anchor="middle" x="1417.4035" y="-6.5" font-family="Helvetica,sans-Serif" font-size="10.00" fill="#000000">boost/filesystem.hpp</text>
</g>
<!-- Node25&#45;&gt;Node26 -->
<g id="edge29" class="edge">
<title>Node25&#45;&gt;Node26</title>
<path fill="none" stroke="#191970" d="M1601.4822,-60.4638C1595.174,-58.6398 1588.5783,-56.7467 1582.4035,-55 1541.073,-43.309 1493.8116,-30.3143 1460.4936,-21.2154"/>
<polygon fill="#191970" stroke="#191970" points="1461.1918,-17.778 1450.6232,-18.5224 1459.3493,-24.5312 1461.1918,-17.778"/>
</g>
<!-- Node27&#45;&gt;Node2 -->
<g id="edge37" class="edge">
<title>Node27&#45;&gt;Node2</title>
<path fill="none" stroke="#191970" d="M1147.5122,-60.4237C1154.2496,-58.3647 1161.5388,-56.3808 1168.4035,-55 1248.603,-38.8682 1491.4343,-19.8444 1590.0725,-12.5529"/>
<polygon fill="#191970" stroke="#191970" points="1590.5492,-16.0274 1600.2656,-11.8033 1590.0358,-9.0463 1590.5492,-16.0274"/>
</g>
<!-- Node27&#45;&gt;Node10 -->
<g id="edge34" class="edge">
<title>Node27&#45;&gt;Node10</title>
<path fill="none" stroke="#191970" d="M1096.32,-60.4956C1089.313,-58.3289 1081.6358,-56.2743 1074.4035,-55 898.4465,-23.996 327.4599,-12.4007 188.2302,-9.9972"/>
<polygon fill="#191970" stroke="#191970" points="187.9429,-6.4919 177.885,-9.8219 187.8242,-13.4909 187.9429,-6.4919"/>
</g>
<!-- Node27&#45;&gt;Node26 -->
<g id="edge32" class="edge">
<title>Node27&#45;&gt;Node26</title>
<path fill="none" stroke="#191970" d="M1149.0865,-60.363C1155.3964,-58.4472 1162.0997,-56.5426 1168.4035,-55 1230.7009,-39.7553 1302.8951,-27.1045 1353.4544,-19.0448"/>
<polygon fill="#191970" stroke="#191970" points="1354.2539,-22.462 1363.5856,-17.445 1353.1621,-15.5476 1354.2539,-22.462"/>
</g>
<!-- Node28 -->
<g id="node29" class="node">
<title>Node28</title>
<polygon fill="#ffffff" stroke="#bfbfbf" points="996.7804,-.5 996.7804,-18.5 1040.0265,-18.5 1040.0265,-.5 996.7804,-.5"/>
<text text-anchor="middle" x="1018.4035" y="-6.5" font-family="Helvetica,sans-Serif" font-size="10.00" fill="#000000">glob.h</text>
</g>
<!-- Node27&#45;&gt;Node28 -->
<g id="edge31" class="edge">
<title>Node27&#45;&gt;Node28</title>
<path fill="none" stroke="#191970" d="M1105.76,-60.3873C1088.9502,-50.5952 1062.0226,-34.9092 1042.5034,-23.5388"/>
<polygon fill="#191970" stroke="#191970" points="1044.2593,-20.5111 1033.8567,-18.5019 1040.7358,-26.5597 1044.2593,-20.5111"/>
</g>
<!-- Node29 -->
<g id="node30" class="node">
<title>Node29</title>
<polygon fill="#ffffff" stroke="#bfbfbf" points="1058.3468,-.5 1058.3468,-18.5 1110.4601,-18.5 1110.4601,-.5 1058.3468,-.5"/>
<text text-anchor="middle" x="1084.4035" y="-6.5" font-family="Helvetica,sans-Serif" font-size="10.00" fill="#000000">memory</text>
</g>
<!-- Node27&#45;&gt;Node29 -->
<g id="edge33" class="edge">
<title>Node27&#45;&gt;Node29</title>
<path fill="none" stroke="#191970" d="M1115.784,-60.3873C1110.4052,-51.665 1102.1427,-38.2663 1095.4459,-27.4067"/>
<polygon fill="#191970" stroke="#191970" points="1098.3039,-25.3731 1090.0758,-18.6985 1092.3457,-29.0473 1098.3039,-25.3731"/>
</g>
<!-- Node30 -->
<g id="node31" class="node">
<title>Node30</title>
<polygon fill="#ffffff" stroke="#bfbfbf" points="1128.7311,-.5 1128.7311,-18.5 1188.0758,-18.5 1188.0758,-.5 1128.7311,-.5"/>
<text text-anchor="middle" x="1158.4035" y="-6.5" font-family="Helvetica,sans-Serif" font-size="10.00" fill="#000000">curl/curl.h</text>
</g>
<!-- Node27&#45;&gt;Node30 -->
<g id="edge35" class="edge">
<title>Node27&#45;&gt;Node30</title>
<path fill="none" stroke="#191970" d="M1127.023,-60.3873C1132.4017,-51.665 1140.6643,-38.2663 1147.361,-27.4067"/>
<polygon fill="#191970" stroke="#191970" points="1150.4612,-29.0473 1152.7311,-18.6985 1144.503,-25.3731 1150.4612,-29.0473"/>
</g>
<!-- Node31 -->
<g id="node32" class="node">
<title>Node31</title>
<polygon fill="#ffffff" stroke="#bfbfbf" points="1205.9406,-.5 1205.9406,-18.5 1270.8663,-18.5 1270.8663,-.5 1205.9406,-.5"/>
<text text-anchor="middle" x="1238.4035" y="-6.5" font-family="Helvetica,sans-Serif" font-size="10.00" fill="#000000">netinet/in.h</text>
</g>
<!-- Node27&#45;&gt;Node31 -->
<g id="edge36" class="edge">
<title>Node27&#45;&gt;Node31</title>
<path fill="none" stroke="#191970" d="M1139.1732,-60.3873C1158.527,-50.4623 1189.6881,-34.4822 1211.926,-23.0782"/>
<polygon fill="#191970" stroke="#191970" points="1213.5487,-26.1795 1220.8498,-18.5019 1210.3545,-19.9507 1213.5487,-26.1795"/>
</g>
</g>
</svg>
        <g id="navigator" transform="translate(0 0)" fill="#404254">
                <rect fill="#f2f5e9" fill-opacity="0.5" stroke="#606060" stroke-width=".5" x="0" y="0" width="60" height="60"/>
                <use id="zoomplus" xlink:href="#zoomPlus" x="17" y="9" onmousedown="handleZoom(evt,'in')"/>
                <use id="zoomminus" xlink:href="#zoomMin" x="42" y="9" onmousedown="handleZoom(evt,'out')"/>
                <use id="reset" xlink:href="#resetDef" x="30" y="36" onmousedown="handleReset()"/>
                <g id="arrowUp" xlink:href="#dirArrow" transform="translate(30 24)" onmousedown="handlePan(0,-1)">
                  <use xlink:href="#rim" fill="#404040">
                        <set attributeName="fill" to="#808080" begin="arrowUp.mouseover" end="arrowUp.mouseout"/>
                  </use>
                  <path fill="none" stroke="white" stroke-width="1.5" d="M0,-3.0v7 M-2.5,-0.5L0,-3.0L2.5,-0.5"/>
                </g>
                <g id="arrowRight" xlink:href="#dirArrow" transform="rotate(90) translate(36 -43)" onmousedown="handlePan(1,0)">
                  <use xlink:href="#rim" fill="#404040">
                        <set attributeName="fill" to="#808080" begin="arrowRight.mouseover" end="arrowRight.mouseout"/>
                  </use>
                  <path fill="none" stroke="white" stroke-width="1.5" d="M0,-3.0v7 M-2.5,-0.5L0,-3.0L2.5,-0.5"/>
                </g>
                <g id="arrowDown" xlink:href="#dirArrow" transform="rotate(180) translate(-30 -48)" onmousedown="handlePan(0,1)">
                  <use xlink:href="#rim" fill="#404040">
                        <set attributeName="fill" to="#808080" begin="arrowDown.mouseover" end="arrowDown.mouseout"/>
                  </use>
                  <path fill="none" stroke="white" stroke-width="1.5" d="M0,-3.0v7 M-2.5,-0.5L0,-3.0L2.5,-0.5"/>
                </g>
                <g id="arrowLeft" xlink:href="#dirArrow" transform="rotate(270) translate(-36 17)" onmousedown="handlePan(-1,0)">
                  <use xlink:href="#rim" fill="#404040">
                        <set attributeName="fill" to="#808080" begin="arrowLeft.mouseover" end="arrowLeft.mouseout"/>
                  </use>
                  <path fill="none" stroke="white" stroke-width="1.5" d="M0,-3.0v7 M-2.5,-0.5L0,-3.0L2.5,-0.5"/>
                </g>
        </g>
        <svg viewBox="0 0 15 15" width="100%" height="30px" preserveAspectRatio="xMaxYMin meet">
         <g id="arrow_out" transform="scale(0.3 0.3)">
          <a xlink:href="events_8h__incl_org.svg" target="_base">
           <rect id="button" ry="5" rx="5" y="6" x="6" height="38" width="38"
                fill="#f2f5e9" fill-opacity="0.5" stroke="#606060" stroke-width="1.0"/>
           <path id="arrow"
             d="M 11.500037,31.436501 C 11.940474,20.09759 22.043105,11.32322 32.158766,21.979434 L 37.068811,17.246167 C 37.068811,17.246167 37.088388,32 37.088388,32 L 22.160133,31.978069 C 22.160133,31.978069 26.997745,27.140456 26.997745,27.140456 C 18.528582,18.264221 13.291696,25.230495 11.500037,31.436501 z"
             style="fill:#404040;"/>
          </a>
         </g>
        </svg>
</svg>
