<?xml version="1.0" encoding="UTF-8" standalone="no"?>
<!DOCTYPE svg PUBLIC "-//W3C//DTD SVG 1.1//EN"
 "http://www.w3.org/Graphics/SVG/1.1/DTD/svg11.dtd">
<!-- Generated by graphviz version 2.40.1 (20161225.0304)
 -->
<!-- Title: Graphical Class Hierarchy Pages: 1 -->
<svg width="303pt" height="397pt"
 viewBox="0.00 0.00 303.35 397.00" xmlns="http://www.w3.org/2000/svg" xmlns:xlink="http://www.w3.org/1999/xlink">
<g id="graph0" class="graph" transform="scale(1 1) rotate(0) translate(4 393)">
<title>Graphical Class Hierarchy</title>
<polygon fill="#ffffff" stroke="transparent" points="-4,4 -4,-393 299.3535,-393 299.3535,4 -4,4"/>
<!-- Node0 -->
<g id="node1" class="node">
<title>Node0</title>
<g id="a_node1"><a xlink:href="classevent_1_1_base_event.html" target="_top" xlink:title="Base class for all event objects. ">
<polygon fill="#ffffff" stroke="#000000" points="0,-185.5 0,-203.5 94.3838,-203.5 94.3838,-185.5 0,-185.5"/>
<text text-anchor="middle" x="47.1919" y="-191.5" font-family="Helvetica,sans-Serif" font-size="10.00" fill="#000000">event::BaseEvent</text>
</a>
</g>
</g>
<!-- Node1 -->
<g id="node2" class="node">
<title>Node1</title>
<g id="a_node2"><a xlink:href="classevent_1_1_campaign_accept_complete.html" target="_top" xlink:title="A campaign has been successfully accepted. ">
<polygon fill="#ffffff" stroke="#000000" points="130.3838,-370.5 130.3838,-388.5 295.3535,-388.5 295.3535,-370.5 130.3838,-370.5"/>
<text text-anchor="middle" x="212.8687" y="-376.5" font-family="Helvetica,sans-Serif" font-size="10.00" fill="#000000">event::CampaignAcceptComplete</text>
</a>
</g>
</g>
<!-- Node0&#45;&gt;Node1 -->
<g id="edge1" class="edge">
<title>Node0&#45;&gt;Node1</title>
<path fill="none" stroke="#191970" d="M51.0803,-213.8147C59.2196,-249.0021 81.4992,-323.424 130.3838,-361.5 135.0092,-365.1027 140.2029,-368.019 145.6745,-370.3755"/>
<polygon fill="#191970" stroke="#191970" points="54.4619,-212.8936 48.9187,-203.8646 47.6214,-214.3797 54.4619,-212.8936"/>
</g>
<!-- Node2 -->
<g id="node3" class="node">
<title>Node2</title>
<g id="a_node3"><a xlink:href="classevent_1_1_campaign_check_complete.html" target="_top" xlink:title="The server has been successfully queried for available campaigns. ">
<polygon fill="#ffffff" stroke="#000000" points="131.4971,-333.5 131.4971,-351.5 294.2402,-351.5 294.2402,-333.5 131.4971,-333.5"/>
<text text-anchor="middle" x="212.8687" y="-339.5" font-family="Helvetica,sans-Serif" font-size="10.00" fill="#000000">event::CampaignCheckComplete</text>
</a>
</g>
</g>
<!-- Node0&#45;&gt;Node2 -->
<g id="edge2" class="edge">
<title>Node0&#45;&gt;Node2</title>
<path fill="none" stroke="#191970" d="M53.8725,-213.5076C65.0145,-242.2905 90.2153,-296.5336 130.3838,-324.5 135.6765,-328.185 141.5866,-331.135 147.7454,-333.4938"/>
<polygon fill="#191970" stroke="#191970" points="57.0438,-211.9928 50.2886,-203.8308 50.4795,-214.4239 57.0438,-211.9928"/>
</g>
<!-- Node3 -->
<g id="node4" class="node">
<title>Node3</title>
<g id="a_node4"><a xlink:href="classevent_1_1_download_complete.html" target="_top" xlink:title="An update has been successfully downloaded. ">
<polygon fill="#ffffff" stroke="#000000" points="146.2236,-296.5 146.2236,-314.5 279.5137,-314.5 279.5137,-296.5 146.2236,-296.5"/>
<text text-anchor="middle" x="212.8687" y="-302.5" font-family="Helvetica,sans-Serif" font-size="10.00" fill="#000000">event::DownloadComplete</text>
</a>
</g>
</g>
<!-- Node0&#45;&gt;Node3 -->
<g id="edge3" class="edge">
<title>Node0&#45;&gt;Node3</title>
<path fill="none" stroke="#191970" d="M58.0725,-212.3395C72.0654,-233.6807 98.4141,-268.8572 130.3838,-287.5 136.7147,-291.1918 143.7191,-294.1281 150.8924,-296.4632"/>
<polygon fill="#191970" stroke="#191970" points="60.8504,-210.1847 52.537,-203.6167 54.9401,-213.9355 60.8504,-210.1847"/>
</g>
<!-- Node4 -->
<g id="node5" class="node">
<title>Node4</title>
<g id="a_node5"><a xlink:href="classevent_1_1_download_progress_report.html" target="_top" xlink:title="A report for a download in progress. ">
<polygon fill="#ffffff" stroke="#000000" points="132.6079,-259.5 132.6079,-277.5 293.1294,-277.5 293.1294,-259.5 132.6079,-259.5"/>
<text text-anchor="middle" x="212.8687" y="-265.5" font-family="Helvetica,sans-Serif" font-size="10.00" fill="#000000">event::DownloadProgressReport</text>
</a>
</g>
</g>
<!-- Node0&#45;&gt;Node4 -->
<g id="edge4" class="edge">
<title>Node0&#45;&gt;Node4</title>
<path fill="none" stroke="#191970" d="M65.7563,-210.0286C81.8722,-222.7354 106.3371,-240.2292 130.3838,-250.5 138.8757,-254.1271 148.1835,-257.059 157.3913,-259.4184"/>
<polygon fill="#191970" stroke="#191970" points="67.6968,-207.097 57.7176,-203.5381 63.2993,-212.5433 67.6968,-207.097"/>
</g>
<!-- Node5 -->
<g id="node6" class="node">
<title>Node5</title>
<g id="a_node6"><a xlink:href="classevent_1_1_error.html" target="_top" xlink:title="An error occurred processing a command. ">
<polygon fill="#ffffff" stroke="#000000" points="178.748,-222.5 178.748,-240.5 246.9893,-240.5 246.9893,-222.5 178.748,-222.5"/>
<text text-anchor="middle" x="212.8687" y="-228.5" font-family="Helvetica,sans-Serif" font-size="10.00" fill="#000000">event::Error</text>
</a>
</g>
</g>
<!-- Node0&#45;&gt;Node5 -->
<g id="edge5" class="edge">
<title>Node0&#45;&gt;Node5</title>
<path fill="none" stroke="#191970" d="M96.5324,-205.8517C107.6619,-208.3891 119.4244,-211.0528 130.3838,-213.5 146.2623,-217.0457 163.8786,-220.9006 178.7405,-224.1301"/>
<polygon fill="#191970" stroke="#191970" points="97.0591,-202.3819 86.5307,-203.5667 95.5,-209.2061 97.0591,-202.3819"/>
</g>
<!-- Node6 -->
<g id="node7" class="node">
<title>Node6</title>
<g id="a_node7"><a xlink:href="classevent_1_1_fetch_meta_complete.html" target="_top" xlink:title="Metadata has been successfully fetched from the server. ">
<polygon fill="#ffffff" stroke="#000000" points="144.8394,-185.5 144.8394,-203.5 280.8979,-203.5 280.8979,-185.5 144.8394,-185.5"/>
<text text-anchor="middle" x="212.8687" y="-191.5" font-family="Helvetica,sans-Serif" font-size="10.00" fill="#000000">event::FetchMetaComplete</text>
</a>
</g>
</g>
<!-- Node0&#45;&gt;Node6 -->
<g id="edge6" class="edge">
<title>Node0&#45;&gt;Node6</title>
<path fill="none" stroke="#191970" d="M104.7785,-194.5C117.6599,-194.5 131.4419,-194.5 144.7055,-194.5"/>
<polygon fill="#191970" stroke="#191970" points="104.6682,-191.0001 94.6682,-194.5 104.6682,-198.0001 104.6682,-191.0001"/>
</g>
<!-- Node7 -->
<g id="node8" class="node">
<title>Node7</title>
<g id="a_node8"><a xlink:href="classevent_1_1_install_complete.html" target="_top" xlink:title="An update has been successfully installed on an ECU. ">
<polygon fill="#ffffff" stroke="#000000" points="155.3984,-148.5 155.3984,-166.5 270.3389,-166.5 270.3389,-148.5 155.3984,-148.5"/>
<text text-anchor="middle" x="212.8687" y="-154.5" font-family="Helvetica,sans-Serif" font-size="10.00" fill="#000000">event::InstallComplete</text>
</a>
</g>
</g>
<!-- Node0&#45;&gt;Node7 -->
<g id="edge7" class="edge">
<title>Node0&#45;&gt;Node7</title>
<path fill="none" stroke="#191970" d="M97.7054,-183.219C121.6826,-177.8643 149.9451,-171.5525 172.4712,-166.5218"/>
<polygon fill="#191970" stroke="#191970" points="96.7177,-179.8533 87.721,-185.4488 98.2435,-186.685 96.7177,-179.8533"/>
</g>
<!-- Node8 -->
<g id="node9" class="node">
<title>Node8</title>
<g id="a_node9"><a xlink:href="classevent_1_1_install_started.html" target="_top" xlink:title="An ECU has begun installation of an update. ">
<polygon fill="#ffffff" stroke="#000000" points="160.6768,-111.5 160.6768,-129.5 265.0605,-129.5 265.0605,-111.5 160.6768,-111.5"/>
<text text-anchor="middle" x="212.8687" y="-117.5" font-family="Helvetica,sans-Serif" font-size="10.00" fill="#000000">event::InstallStarted</text>
</a>
</g>
</g>
<!-- Node0&#45;&gt;Node8 -->
<g id="edge8" class="edge">
<title>Node0&#45;&gt;Node8</title>
<path fill="none" stroke="#191970" d="M66.1061,-179.1234C82.271,-166.7128 106.6209,-149.6949 130.3838,-139.5 139.8372,-135.4442 150.288,-132.1859 160.484,-129.5921"/>
<polygon fill="#191970" stroke="#191970" points="63.7259,-176.5423 58.0234,-185.4716 68.0497,-182.0474 63.7259,-176.5423"/>
</g>
<!-- Node9 -->
<g id="node10" class="node">
<title>Node9</title>
<g id="a_node10"><a xlink:href="classevent_1_1_put_manifest_complete.html" target="_top" xlink:title="A manifest has been successfully sent to the server. ">
<polygon fill="#ffffff" stroke="#000000" points="142.0586,-74.5 142.0586,-92.5 283.6787,-92.5 283.6787,-74.5 142.0586,-74.5"/>
<text text-anchor="middle" x="212.8687" y="-80.5" font-family="Helvetica,sans-Serif" font-size="10.00" fill="#000000">event::PutManifestComplete</text>
</a>
</g>
</g>
<!-- Node0&#45;&gt;Node9 -->
<g id="edge9" class="edge">
<title>Node0&#45;&gt;Node9</title>
<path fill="none" stroke="#191970" d="M58.3701,-176.5929C72.4987,-155.5129 98.8229,-121.0351 130.3838,-102.5 137.4799,-98.3326 145.4185,-95.0792 153.4914,-92.5395"/>
<polygon fill="#191970" stroke="#191970" points="55.2722,-174.937 52.7617,-185.2301 61.1432,-178.7491 55.2722,-174.937"/>
</g>
<!-- Node10 -->
<g id="node11" class="node">
<title>Node10</title>
<g id="a_node11"><a xlink:href="classevent_1_1_send_device_data_complete.html" target="_top" xlink:title="Device data has been successfully sent to the server. ">
<polygon fill="#ffffff" stroke="#000000" points="130.938,-37.5 130.938,-55.5 294.7993,-55.5 294.7993,-37.5 130.938,-37.5"/>
<text text-anchor="middle" x="212.8687" y="-43.5" font-family="Helvetica,sans-Serif" font-size="10.00" fill="#000000">event::SendDeviceDataComplete</text>
</a>
</g>
</g>
<!-- Node0&#45;&gt;Node10 -->
<g id="edge10" class="edge">
<title>Node0&#45;&gt;Node10</title>
<path fill="none" stroke="#191970" d="M53.9539,-175.6935C65.2042,-147.2049 90.5463,-93.4742 130.3838,-65.5 136.2767,-61.3619 142.9357,-58.1119 149.8516,-55.5615"/>
<polygon fill="#191970" stroke="#191970" points="50.596,-174.6782 50.3313,-185.2698 57.1432,-177.155 50.596,-174.6782"/>
</g>
<!-- Node11 -->
<g id="node12" class="node">
<title>Node11</title>
<g id="a_node12"><a xlink:href="classevent_1_1_update_available.html" target="_top" xlink:title="An update is available for download from the server. ">
<polygon fill="#ffffff" stroke="#000000" points="153.5332,-.5 153.5332,-18.5 272.2041,-18.5 272.2041,-.5 153.5332,-.5"/>
<text text-anchor="middle" x="212.8687" y="-6.5" font-family="Helvetica,sans-Serif" font-size="10.00" fill="#000000">event::UpdateAvailable</text>
</a>
</g>
</g>
<!-- Node0&#45;&gt;Node11 -->
<g id="edge11" class="edge">
<title>Node0&#45;&gt;Node11</title>
<path fill="none" stroke="#191970" d="M51.1585,-175.3522C59.4259,-140.4594 81.9073,-66.6154 130.3838,-28.5 137.084,-23.2319 144.9822,-19.3756 153.1915,-16.5618"/>
<polygon fill="#191970" stroke="#191970" points="47.719,-174.6957 48.9587,-185.2177 54.5512,-176.2191 47.719,-174.6957"/>
</g>
</g>
</svg>
