<?xml version="1.0" encoding="UTF-8" standalone="no"?>
<!DOCTYPE svg PUBLIC "-//W3C//DTD SVG 1.1//EN"
 "http://www.w3.org/Graphics/SVG/1.1/DTD/svg11.dtd">
<!-- Generated by graphviz version 2.40.1 (20161225.0304)
 -->
<!-- Title: Graphical Class Hierarchy Pages: 1 -->
<svg width="353pt" height="101pt"
 viewBox="0.00 0.00 352.77 101.00" xmlns="http://www.w3.org/2000/svg" xmlns:xlink="http://www.w3.org/1999/xlink">
<g id="graph0" class="graph" transform="scale(1 1) rotate(0) translate(4 97)">
<title>Graphical Class Hierarchy</title>
<polygon fill="#ffffff" stroke="transparent" points="-4,4 -4,-97 348.7676,-97 348.7676,4 -4,4"/>
<!-- Node263 -->
<g id="node1" class="node">
<title>Node263</title>
<g id="a_node1"><a xlink:href="class_aktualizr_secondary_common.html" target="_top" xlink:title="AktualizrSecondaryCommon">
<polygon fill="#ffffff" stroke="#000000" points="0,-74.5 0,-92.5 142.7188,-92.5 142.7188,-74.5 0,-74.5"/>
<text text-anchor="middle" x="71.3594" y="-80.5" font-family="Helvetica,sans-Serif" font-size="10.00" fill="#000000">AktualizrSecondaryCommon</text>
</a>
</g>
</g>
<!-- Node1 -->
<g id="node2" class="node">
<title>Node1</title>
<g id="a_node2"><a xlink:href="class_aktualizr_secondary.html" target="_top" xlink:title="AktualizrSecondary">
<polygon fill="#ffffff" stroke="#000000" points="210.667,-37.5 210.667,-55.5 312.8193,-55.5 312.8193,-37.5 210.667,-37.5"/>
<text text-anchor="middle" x="261.7432" y="-43.5" font-family="Helvetica,sans-Serif" font-size="10.00" fill="#000000">AktualizrSecondary</text>
</a>
</g>
</g>
<!-- Node263&#45;&gt;Node1 -->
<g id="edge1" class="edge">
<title>Node263&#45;&gt;Node1</title>
<path fill="none" stroke="#8b1a1a" d="M127.9345,-72.5049C155.7967,-67.0901 188.9737,-60.6423 215.3213,-55.5218"/>
<polygon fill="#8b1a1a" stroke="#8b1a1a" points="127.0811,-69.1052 117.9325,-74.4488 128.4166,-75.9767 127.0811,-69.1052"/>
</g>
<!-- Node2 -->
<g id="node3" class="node">
<title>Node2</title>
<g id="a_node3"><a xlink:href="class_aktualizr_secondary_opcua.html" target="_top" xlink:title="AktualizrSecondaryOpcua">
<polygon fill="#ffffff" stroke="#000000" points="195.9355,-74.5 195.9355,-92.5 327.5508,-92.5 327.5508,-74.5 195.9355,-74.5"/>
<text text-anchor="middle" x="261.7432" y="-80.5" font-family="Helvetica,sans-Serif" font-size="10.00" fill="#000000">AktualizrSecondaryOpcua</text>
</a>
</g>
</g>
<!-- Node263&#45;&gt;Node2 -->
<g id="edge2" class="edge">
<title>Node263&#45;&gt;Node2</title>
<path fill="none" stroke="#8b1a1a" d="M153.1045,-83.5C167.3918,-83.5 182.0915,-83.5 195.8812,-83.5"/>
<polygon fill="#8b1a1a" stroke="#8b1a1a" points="152.793,-80.0001 142.7929,-83.5 152.7929,-87.0001 152.793,-80.0001"/>
</g>
<!-- Node0 -->
<g id="node4" class="node">
<title>Node0</title>
<g id="a_node4"><a xlink:href="class_aktualizr_secondary_interface.html" target="_top" xlink:title="AktualizrSecondaryInterface">
<polygon fill="#ffffff" stroke="#000000" points=".8276,-37.5 .8276,-55.5 141.8911,-55.5 141.8911,-37.5 .8276,-37.5"/>
<text text-anchor="middle" x="71.3594" y="-43.5" font-family="Helvetica,sans-Serif" font-size="10.00" fill="#000000">AktualizrSecondaryInterface</text>
</a>
</g>
</g>
<!-- Node0&#45;&gt;Node1 -->
<g id="edge3" class="edge">
<title>Node0&#45;&gt;Node1</title>
<path fill="none" stroke="#191970" d="M152.2267,-46.5C172.0026,-46.5 192.6226,-46.5 210.5668,-46.5"/>
<polygon fill="#191970" stroke="#191970" points="151.9808,-43.0001 141.9807,-46.5 151.9807,-50.0001 151.9808,-43.0001"/>
</g>
<!-- Node0&#45;&gt;Node2 -->
<g id="edge4" class="edge">
<title>Node0&#45;&gt;Node2</title>
<path fill="none" stroke="#191970" d="M127.9345,-57.4951C155.7967,-62.9099 188.9737,-69.3577 215.3213,-74.4782"/>
<polygon fill="#191970" stroke="#191970" points="128.4166,-54.0233 117.9325,-55.5512 127.0811,-60.8948 128.4166,-54.0233"/>
</g>
<!-- Node3 -->
<g id="node5" class="node">
<title>Node3</title>
<g id="a_node5"><a xlink:href="class_aktualizr_secondary_with_discovery.html" target="_top" xlink:title="AktualizrSecondaryWithDiscovery">
<polygon fill="#ffffff" stroke="#000000" points="178.7188,-.5 178.7188,-18.5 344.7676,-18.5 344.7676,-.5 178.7188,-.5"/>
<text text-anchor="middle" x="261.7432" y="-6.5" font-family="Helvetica,sans-Serif" font-size="10.00" fill="#000000">AktualizrSecondaryWithDiscovery</text>
</a>
</g>
</g>
<!-- Node0&#45;&gt;Node3 -->
<g id="edge5" class="edge">
<title>Node0&#45;&gt;Node3</title>
<path fill="none" stroke="#191970" d="M127.9345,-35.5049C155.7967,-30.0901 188.9737,-23.6423 215.3213,-18.5218"/>
<polygon fill="#191970" stroke="#191970" points="127.0811,-32.1052 117.9325,-37.4488 128.4166,-38.9767 127.0811,-32.1052"/>
</g>
</g>
</svg>
