<?xml version="1.0" encoding="UTF-8" standalone="no"?>
<!DOCTYPE svg PUBLIC "-//W3C//DTD SVG 1.1//EN"
 "http://www.w3.org/Graphics/SVG/1.1/DTD/svg11.dtd">
<!-- Generated by graphviz version 2.40.1 (20161225.0304)
 -->
<!-- Title: HttpResponse Pages: 1 -->
<svg width="122pt" height="168pt"
 viewBox="0.00 0.00 122.30 168.00" xmlns="http://www.w3.org/2000/svg" xmlns:xlink="http://www.w3.org/1999/xlink">
<g id="graph0" class="graph" transform="scale(1 1) rotate(0) translate(4 164)">
<title>HttpResponse</title>
<polygon fill="#ffffff" stroke="transparent" points="-4,4 -4,-164 118.2988,-164 118.2988,4 -4,4"/>
<!-- Node1 -->
<g id="node1" class="node">
<title>Node1</title>
<polygon fill="#bfbfbf" stroke="#000000" points="7.3633,-.5 7.3633,-18.5 86.7324,-18.5 86.7324,-.5 7.3633,-.5"/>
<text text-anchor="middle" x="47.0479" y="-6.5" font-family="Helvetica,sans-Serif" font-size="10.00" fill="#000000">HttpResponse</text>
</g>
<!-- Node2 -->
<g id="node2" class="node">
<title>Node2</title>
<g id="a_node2"><a xlink:title="STL class. ">
<polygon fill="#ffffff" stroke="#bfbfbf" points="17.373,-75.5 17.373,-93.5 76.7227,-93.5 76.7227,-75.5 17.373,-75.5"/>
<text text-anchor="middle" x="47.0479" y="-81.5" font-family="Helvetica,sans-Serif" font-size="10.00" fill="#000000">std::string</text>
</a>
</g>
</g>
<!-- Node2&#45;&gt;Node1 -->
<g id="edge1" class="edge">
<title>Node2&#45;&gt;Node1</title>
<path fill="none" stroke="#9a32cd" stroke-dasharray="5,2" d="M47.0479,-65.1079C47.0479,-50.2042 47.0479,-30.2791 47.0479,-18.7717"/>
<polygon fill="#9a32cd" stroke="#9a32cd" points="43.5479,-65.3035 47.0479,-75.3035 50.5479,-65.3036 43.5479,-65.3035"/>
<text text-anchor="middle" x="80.6733" y="-49" font-family="Helvetica,sans-Serif" font-size="10.00" fill="#000000"> body</text>
<text text-anchor="middle" x="80.6733" y="-39" font-family="Helvetica,sans-Serif" font-size="10.00" fill="#000000">error_message</text>
</g>
<!-- Node3 -->
<g id="node3" class="node">
<title>Node3</title>
<g id="a_node3"><a xlink:title="STL class. ">
<polygon fill="#ffffff" stroke="#bfbfbf" points="0,-131.5 0,-159.5 94.0957,-159.5 94.0957,-131.5 0,-131.5"/>
<text text-anchor="start" x="8" y="-147.5" font-family="Helvetica,sans-Serif" font-size="10.00" fill="#000000">std::basic_string&lt;</text>
<text text-anchor="middle" x="47.0479" y="-137.5" font-family="Helvetica,sans-Serif" font-size="10.00" fill="#000000"> char &gt;</text>
</a>
</g>
</g>
<!-- Node3&#45;&gt;Node2 -->
<g id="edge2" class="edge">
<title>Node3&#45;&gt;Node2</title>
<path fill="none" stroke="#191970" d="M47.0479,-121.1001C47.0479,-111.5157 47.0479,-101.0935 47.0479,-93.831"/>
<polygon fill="#191970" stroke="#191970" points="43.5479,-121.352 47.0479,-131.3521 50.5479,-121.3521 43.5479,-121.352"/>
</g>
</g>
</svg>
