<?xml version="1.0" encoding="UTF-8" standalone="no"?>
<!DOCTYPE svg PUBLIC "-//W3C//DTD SVG 1.1//EN"
 "http://www.w3.org/Graphics/SVG/1.1/DTD/svg11.dtd">
<!-- Generated by graphviz version 2.40.1 (20161225.0304)
 -->
<!-- Title: ReportEvent Pages: 1 -->
<svg width="194pt" height="174pt"
 viewBox="0.00 0.00 194.00 174.00" xmlns="http://www.w3.org/2000/svg" xmlns:xlink="http://www.w3.org/1999/xlink">
<g id="graph0" class="graph" transform="scale(1 1) rotate(0) translate(4 170)">
<title>ReportEvent</title>
<polygon fill="#ffffff" stroke="transparent" points="-4,4 -4,-170 190,-170 190,4 -4,4"/>
<!-- Node11 -->
<g id="node1" class="node">
<title>Node11</title>
<polygon fill="#bfbfbf" stroke="#000000" points="76,-.5 76,-19.5 152,-19.5 152,-.5 76,-.5"/>
<text text-anchor="middle" x="114" y="-7.5" font-family="Helvetica,sans-Serif" font-size="10.00" fill="#000000">ReportEvent</text>
</g>
<!-- Node12 -->
<g id="node2" class="node">
<title>Node12</title>
<g id="a_node2"><a xlink:title="STL class. ">
<polygon fill="#ffffff" stroke="#bfbfbf" points="19.5,-78.5 19.5,-97.5 84.5,-97.5 84.5,-78.5 19.5,-78.5"/>
<text text-anchor="middle" x="52" y="-85.5" font-family="Helvetica,sans-Serif" font-size="10.00" fill="#000000">std::string</text>
</a>
</g>
</g>
<!-- Node12&#45;&gt;Node11 -->
<g id="edge1" class="edge">
<title>Node12&#45;&gt;Node11</title>
<path fill="none" stroke="#9a32cd" stroke-dasharray="5,2" d="M65.9019,-70.5105C78.3893,-54.8005 96.263,-32.3143 106.3354,-19.6426"/>
<polygon fill="#9a32cd" stroke="#9a32cd" points="63.085,-68.4295 59.6024,-78.4357 68.5648,-72.7853 63.085,-68.4295"/>
<text text-anchor="middle" x="103.5" y="-52" font-family="Helvetica,sans-Serif" font-size="10.00" fill="#000000"> type</text>
<text text-anchor="middle" x="103.5" y="-41" font-family="Helvetica,sans-Serif" font-size="10.00" fill="#000000">id</text>
</g>
<!-- Node13 -->
<g id="node3" class="node">
<title>Node13</title>
<g id="a_node3"><a xlink:title="STL class. ">
<polygon fill="#ffffff" stroke="#bfbfbf" points="0,-135.5 0,-165.5 104,-165.5 104,-135.5 0,-135.5"/>
<text text-anchor="start" x="8" y="-153.5" font-family="Helvetica,sans-Serif" font-size="10.00" fill="#000000">std::basic_string&lt;</text>
<text text-anchor="middle" x="52" y="-142.5" font-family="Helvetica,sans-Serif" font-size="10.00" fill="#000000"> char &gt;</text>
</a>
</g>
</g>
<!-- Node13&#45;&gt;Node12 -->
<g id="edge2" class="edge">
<title>Node13&#45;&gt;Node12</title>
<path fill="none" stroke="#191970" d="M52,-125.3498C52,-115.6481 52,-105.1303 52,-97.7356"/>
<polygon fill="#191970" stroke="#191970" points="48.5001,-125.3705 52,-135.3705 55.5001,-125.3705 48.5001,-125.3705"/>
</g>
<!-- Node14 -->
<g id="node4" class="node">
<title>Node14</title>
<g id="a_node4"><a xlink:href="class_time_stamp.html" target="_top" xlink:title="TimeStamp">
<polygon fill="#ffffff" stroke="#000000" points="102.5,-78.5 102.5,-97.5 175.5,-97.5 175.5,-78.5 102.5,-78.5"/>
<text text-anchor="middle" x="139" y="-85.5" font-family="Helvetica,sans-Serif" font-size="10.00" fill="#000000">TimeStamp</text>
</a>
</g>
</g>
<!-- Node14&#45;&gt;Node11 -->
<g id="edge3" class="edge">
<title>Node14&#45;&gt;Node11</title>
<path fill="none" stroke="#9a32cd" stroke-dasharray="5,2" d="M132.8262,-68.7379C127.8296,-53.1484 121.0016,-31.845 117.0906,-19.6426"/>
<polygon fill="#9a32cd" stroke="#9a32cd" points="129.5493,-69.9811 135.9345,-78.4357 136.2152,-67.8446 129.5493,-69.9811"/>
<text text-anchor="middle" x="157.5" y="-46.5" font-family="Helvetica,sans-Serif" font-size="10.00" fill="#000000"> timestamp</text>
</g>
</g>
</svg>
