<?xml version="1.0" encoding="UTF-8" standalone="no"?>
<!DOCTYPE svg PUBLIC "-//W3C//DTD SVG 1.1//EN"
 "http://www.w3.org/Graphics/SVG/1.1/DTD/svg11.dtd">
<!-- Generated by graphviz version 2.40.1 (20161225.0304)
 -->
<!-- Title: Uptane::BaseMeta Pages: 1 -->
<svg width="441pt" height="140pt"
 viewBox="0.00 0.00 440.50 140.00" xmlns="http://www.w3.org/2000/svg" xmlns:xlink="http://www.w3.org/1999/xlink">
<g id="graph0" class="graph" transform="scale(1 1) rotate(0) translate(4 136)">
<title>Uptane::BaseMeta</title>
<polygon fill="#ffffff" stroke="transparent" points="-4,4 -4,-136 436.5,-136 436.5,4 -4,4"/>
<!-- Node0 -->
<g id="node1" class="node">
<title>Node0</title>
<polygon fill="#bfbfbf" stroke="#000000" points="173,-112.5 173,-131.5 279,-131.5 279,-112.5 173,-112.5"/>
<text text-anchor="middle" x="226" y="-119.5" font-family="Helvetica,sans-Serif" font-size="10.00" fill="#000000">Uptane::BaseMeta</text>
</g>
<!-- Node1 -->
<g id="node2" class="node">
<title>Node1</title>
<g id="a_node2"><a xlink:href="class_uptane_1_1_meta_with_keys.html" target="_top" xlink:title="Uptane::MetaWithKeys">
<polygon fill="#ffffff" stroke="#000000" points="28,-56.5 28,-75.5 156,-75.5 156,-56.5 28,-56.5"/>
<text text-anchor="middle" x="92" y="-63.5" font-family="Helvetica,sans-Serif" font-size="10.00" fill="#000000">Uptane::MetaWithKeys</text>
</a>
</g>
</g>
<!-- Node0&#45;&gt;Node1 -->
<g id="edge1" class="edge">
<title>Node0&#45;&gt;Node1</title>
<path fill="none" stroke="#191970" d="M193.4172,-108.3833C169.0464,-98.1985 136.3358,-84.5284 114.7348,-75.5011"/>
<polygon fill="#191970" stroke="#191970" points="192.3883,-111.7466 202.9646,-112.3733 195.0875,-105.2879 192.3883,-111.7466"/>
</g>
<!-- Node4 -->
<g id="node5" class="node">
<title>Node4</title>
<g id="a_node5"><a xlink:href="class_uptane_1_1_snapshot.html" target="_top" xlink:title="Uptane::Snapshot">
<polygon fill="#ffffff" stroke="#000000" points="174.5,-56.5 174.5,-75.5 277.5,-75.5 277.5,-56.5 174.5,-56.5"/>
<text text-anchor="middle" x="226" y="-63.5" font-family="Helvetica,sans-Serif" font-size="10.00" fill="#000000">Uptane::Snapshot</text>
</a>
</g>
</g>
<!-- Node0&#45;&gt;Node4 -->
<g id="edge4" class="edge">
<title>Node0&#45;&gt;Node4</title>
<path fill="none" stroke="#191970" d="M226,-102.1575C226,-93.155 226,-82.9199 226,-75.6427"/>
<polygon fill="#191970" stroke="#191970" points="222.5001,-102.2455 226,-112.2455 229.5001,-102.2456 222.5001,-102.2455"/>
</g>
<!-- Node5 -->
<g id="node6" class="node">
<title>Node5</title>
<g id="a_node6"><a xlink:href="class_uptane_1_1_timestamp_meta.html" target="_top" xlink:title="Uptane::TimestampMeta">
<polygon fill="#ffffff" stroke="#000000" points="295.5,-56.5 295.5,-75.5 432.5,-75.5 432.5,-56.5 295.5,-56.5"/>
<text text-anchor="middle" x="364" y="-63.5" font-family="Helvetica,sans-Serif" font-size="10.00" fill="#000000">Uptane::TimestampMeta</text>
</a>
</g>
</g>
<!-- Node0&#45;&gt;Node5 -->
<g id="edge5" class="edge">
<title>Node0&#45;&gt;Node5</title>
<path fill="none" stroke="#191970" d="M259.2213,-108.5189C284.354,-98.3201 318.2418,-84.5685 340.5865,-75.5011"/>
<polygon fill="#191970" stroke="#191970" points="257.6731,-105.3699 249.723,-112.3733 260.3053,-111.8562 257.6731,-105.3699"/>
</g>
<!-- Node2 -->
<g id="node3" class="node">
<title>Node2</title>
<g id="a_node3"><a xlink:href="class_uptane_1_1_root.html" target="_top" xlink:title="Uptane::Root">
<polygon fill="#ffffff" stroke="#000000" points="0,-.5 0,-19.5 80,-19.5 80,-.5 0,-.5"/>
<text text-anchor="middle" x="40" y="-7.5" font-family="Helvetica,sans-Serif" font-size="10.00" fill="#000000">Uptane::Root</text>
</a>
</g>
</g>
<!-- Node1&#45;&gt;Node2 -->
<g id="edge2" class="edge">
<title>Node1&#45;&gt;Node2</title>
<path fill="none" stroke="#191970" d="M76.0178,-48.7884C67.1222,-39.2085 56.3796,-27.6396 48.9539,-19.6427"/>
<polygon fill="#191970" stroke="#191970" points="73.573,-51.2992 82.9423,-56.2455 78.7025,-46.536 73.573,-51.2992"/>
</g>
<!-- Node3 -->
<g id="node4" class="node">
<title>Node3</title>
<g id="a_node4"><a xlink:href="class_uptane_1_1_targets.html" target="_top" xlink:title="Uptane::Targets">
<polygon fill="#ffffff" stroke="#000000" points="98.5,-.5 98.5,-19.5 191.5,-19.5 191.5,-.5 98.5,-.5"/>
<text text-anchor="middle" x="145" y="-7.5" font-family="Helvetica,sans-Serif" font-size="10.00" fill="#000000">Uptane::Targets</text>
</a>
</g>
</g>
<!-- Node1&#45;&gt;Node3 -->
<g id="edge3" class="edge">
<title>Node1&#45;&gt;Node3</title>
<path fill="none" stroke="#191970" d="M108.2896,-48.7884C117.3562,-39.2085 128.3054,-27.6396 135.8739,-19.6427"/>
<polygon fill="#191970" stroke="#191970" points="105.5637,-46.5767 101.2319,-56.2455 110.6478,-51.3884 105.5637,-46.5767"/>
</g>
</g>
</svg>
