<?xml version="1.0" encoding="UTF-8" standalone="no"?>
<!DOCTYPE svg PUBLIC "-//W3C//DTD SVG 1.1//EN"
 "http://www.w3.org/Graphics/SVG/1.1/DTD/svg11.dtd">
<!-- Generated by graphviz version 2.40.1 (20161225.0304)
 -->
<!-- Title: HttpSystemInfo Pages: 1 -->
<svg width="370pt" height="231pt"
 viewBox="0.00 0.00 369.50 231.00" xmlns="http://www.w3.org/2000/svg" xmlns:xlink="http://www.w3.org/1999/xlink">
<g id="graph0" class="graph" transform="scale(1 1) rotate(0) translate(4 227)">
<title>HttpSystemInfo</title>
<polygon fill="#ffffff" stroke="transparent" points="-4,4 -4,-227 365.5,-227 365.5,4 -4,4"/>
<!-- Node3 -->
<g id="node1" class="node">
<title>Node3</title>
<polygon fill="#bfbfbf" stroke="#000000" points="218,-.5 218,-19.5 311,-19.5 311,-.5 218,-.5"/>
<text text-anchor="middle" x="264.5" y="-7.5" font-family="Helvetica,sans-Serif" font-size="10.00" fill="#000000">HttpSystemInfo</text>
</g>
<!-- Node4 -->
<g id="node2" class="node">
<title>Node4</title>
<g id="a_node2"><a xlink:href="class_http_fake.html" target="_top" xlink:title="HttpFake">
<polygon fill="#ffffff" stroke="#000000" points="176.5,-57.5 176.5,-76.5 236.5,-76.5 236.5,-57.5 176.5,-57.5"/>
<text text-anchor="middle" x="206.5" y="-64.5" font-family="Helvetica,sans-Serif" font-size="10.00" fill="#000000">HttpFake</text>
</a>
</g>
</g>
<!-- Node4&#45;&gt;Node3 -->
<g id="edge1" class="edge">
<title>Node4&#45;&gt;Node3</title>
<path fill="none" stroke="#191970" d="M223.555,-50.239C233.7379,-40.2317 246.3017,-27.8845 254.8064,-19.5265"/>
<polygon fill="#191970" stroke="#191970" points="221.018,-47.8251 216.3389,-57.3307 225.9245,-52.8177 221.018,-47.8251"/>
</g>
<!-- Node5 -->
<g id="node3" class="node">
<title>Node5</title>
<g id="a_node3"><a xlink:href="class_http_interface.html" target="_top" xlink:title="HttpInterface">
<polygon fill="#ffffff" stroke="#000000" points="0,-135.5 0,-154.5 81,-154.5 81,-135.5 0,-135.5"/>
<text text-anchor="middle" x="40.5" y="-142.5" font-family="Helvetica,sans-Serif" font-size="10.00" fill="#000000">HttpInterface</text>
</a>
</g>
</g>
<!-- Node5&#45;&gt;Node4 -->
<g id="edge2" class="edge">
<title>Node5&#45;&gt;Node4</title>
<path fill="none" stroke="#191970" d="M69.9634,-131.0624C91.2245,-121.0145 120.6219,-107.1415 146.5,-95 159.6123,-88.848 174.3521,-81.9689 185.9409,-76.5687"/>
<polygon fill="#191970" stroke="#191970" points="68.3541,-127.9517 60.8092,-135.3898 71.3458,-134.2802 68.3541,-127.9517"/>
</g>
<!-- Node6 -->
<g id="node4" class="node">
<title>Node6</title>
<g id="a_node4"><a xlink:href="class_temporary_directory.html" target="_top" xlink:title="TemporaryDirectory">
<polygon fill="#ffffff" stroke="#000000" points="99,-135.5 99,-154.5 212,-154.5 212,-135.5 99,-135.5"/>
<text text-anchor="middle" x="155.5" y="-142.5" font-family="Helvetica,sans-Serif" font-size="10.00" fill="#000000">TemporaryDirectory</text>
</a>
</g>
</g>
<!-- Node6&#45;&gt;Node4 -->
<g id="edge3" class="edge">
<title>Node6&#45;&gt;Node4</title>
<path fill="none" stroke="#9a32cd" stroke-dasharray="5,2" d="M151.5245,-125.3731C150.5819,-115.5975 151.1148,-103.9808 156.5,-95 161.4118,-86.8087 169.671,-80.8234 178.0763,-76.5415"/>
<polygon fill="#9a32cd" stroke="#9a32cd" points="148.0828,-126.023 153.0356,-135.389 155.0045,-124.9787 148.0828,-126.023"/>
<text text-anchor="middle" x="195.5" y="-103.5" font-family="Helvetica,sans-Serif" font-size="10.00" fill="#000000"> temp_meta_dir</text>
</g>
<!-- Node7 -->
<g id="node5" class="node">
<title>Node7</title>
<g id="a_node5"><a xlink:title="STL class. ">
<polygon fill="#ffffff" stroke="#bfbfbf" points="261,-135.5 261,-154.5 326,-154.5 326,-135.5 261,-135.5"/>
<text text-anchor="middle" x="293.5" y="-142.5" font-family="Helvetica,sans-Serif" font-size="10.00" fill="#000000">std::string</text>
</a>
</g>
</g>
<!-- Node7&#45;&gt;Node3 -->
<g id="edge6" class="edge">
<title>Node7&#45;&gt;Node3</title>
<path fill="none" stroke="#9a32cd" stroke-dasharray="5,2" d="M305.6818,-126.7573C307.2561,-123.6184 308.6234,-120.3008 309.5,-117 312.0096,-107.5498 311.857,-104.4895 309.5,-95 302.1344,-65.3448 282.3042,-34.6521 271.5938,-19.5591"/>
<polygon fill="#9a32cd" stroke="#9a32cd" points="302.6314,-125.0403 300.621,-135.4427 308.6796,-128.5645 302.6314,-125.0403"/>
<text text-anchor="middle" x="332" y="-64.5" font-family="Helvetica,sans-Serif" font-size="10.00" fill="#000000"> hwinfo_ep_</text>
</g>
<!-- Node7&#45;&gt;Node4 -->
<g id="edge4" class="edge">
<title>Node7&#45;&gt;Node4</title>
<path fill="none" stroke="#9a32cd" stroke-dasharray="5,2" d="M272.5061,-129.3218C267.499,-125.4056 262.2359,-121.1392 257.5,-117 249.3775,-109.9009 228.7358,-89.3534 216.3456,-76.9185"/>
<polygon fill="#9a32cd" stroke="#9a32cd" points="270.4889,-132.1856 280.5529,-135.4974 274.7508,-126.6325 270.4889,-132.1856"/>
<text text-anchor="middle" x="283.5" y="-109" font-family="Helvetica,sans-Serif" font-size="10.00" fill="#000000"> tls_server</text>
<text text-anchor="middle" x="283.5" y="-98" font-family="Helvetica,sans-Serif" font-size="10.00" fill="#000000">flavor_</text>
</g>
<!-- Node8 -->
<g id="node6" class="node">
<title>Node8</title>
<g id="a_node6"><a xlink:title="STL class. ">
<polygon fill="#ffffff" stroke="#bfbfbf" points="241.5,-192.5 241.5,-222.5 345.5,-222.5 345.5,-192.5 241.5,-192.5"/>
<text text-anchor="start" x="249.5" y="-210.5" font-family="Helvetica,sans-Serif" font-size="10.00" fill="#000000">std::basic_string&lt;</text>
<text text-anchor="middle" x="293.5" y="-199.5" font-family="Helvetica,sans-Serif" font-size="10.00" fill="#000000"> char &gt;</text>
</a>
</g>
</g>
<!-- Node8&#45;&gt;Node7 -->
<g id="edge5" class="edge">
<title>Node8&#45;&gt;Node7</title>
<path fill="none" stroke="#191970" d="M293.5,-182.3498C293.5,-172.6481 293.5,-162.1303 293.5,-154.7356"/>
<polygon fill="#191970" stroke="#191970" points="290.0001,-182.3705 293.5,-192.3705 297.0001,-182.3705 290.0001,-182.3705"/>
</g>
</g>
</svg>
