<?xml version="1.0" encoding="UTF-8" standalone="no"?>
<!DOCTYPE svg PUBLIC "-//W3C//DTD SVG 1.1//EN"
 "http://www.w3.org/Graphics/SVG/1.1/DTD/svg11.dtd">
<!-- Generated by graphviz version 2.40.1 (20161225.0304)
 -->
<!-- Title: Uptane::Exception Pages: 1 -->
<!--zoomable 750 -->
<svg id="main" version="1.1" xmlns="http://www.w3.org/2000/svg" xmlns:xlink="http://www.w3.org/1999/xlink" xml:space="preserve" onload="init(evt)">
<style type="text/css"><![CDATA[
.edge:hover path { stroke: red; }
.edge:hover polygon { stroke: red; fill: red; }
]]></style>
<script type="text/javascript"><![CDATA[
var edges = document.getElementsByTagName('g');
if (edges && edges.length) {
  for (var i=0;i<edges.length;i++) {
    if (edges[i].id.substr(0,4)=='edge') {
      edges[i].setAttribute('class','edge');
    }
  }
}
]]></script>
        <defs>
                <circle id="rim" cx="0" cy="0" r="7"/>
                <circle id="rim2" cx="0" cy="0" r="3.5"/>
                <g id="zoomPlus">
                        <use xlink:href="#rim" fill="#404040">
                                <set attributeName="fill" to="#808080" begin="zoomplus.mouseover" end="zoomplus.mouseout"/>
                        </use>
                        <path d="M-4,0h8M0,-4v8" fill="none" stroke="white" stroke-width="1.5" pointer-events="none"/>
                </g>
                <g id="zoomMin">
                        <use xlink:href="#rim" fill="#404040">
                                <set attributeName="fill" to="#808080" begin="zoomminus.mouseover" end="zoomminus.mouseout"/>
                        </use>
                        <path d="M-4,0h8" fill="none" stroke="white" stroke-width="1.5" pointer-events="none"/>
                </g>
                <g id="dirArrow">
                        <path fill="none" stroke="white" stroke-width="1.5" d="M0,-3.0v7 M-2.5,-0.5L0,-3.0L2.5,-0.5"/>
                </g>
               <g id="resetDef">
                       <use xlink:href="#rim2" fill="#404040">
                               <set attributeName="fill" to="#808080" begin="reset.mouseover" end="reset.mouseout"/>
                       </use>
               </g>
        </defs>

<script type="text/javascript">
var viewWidth = 580;
var viewHeight = 750;
var sectionId = 'dynsection-0';
</script>
<script xlink:href="svgpan.js"/>
<svg id="graph" class="graph">
<g id="viewport">
<title>Uptane::Exception</title>
<polygon fill="#ffffff" stroke="transparent" points="-4,4 -4,-746 576,-746 576,4 -4,4"/>
<!-- Node0 -->
<g id="node1" class="node">
<title>Node0</title>
<polygon fill="#bfbfbf" stroke="#000000" points="247,-361.5 247,-380.5 353,-380.5 353,-361.5 247,-361.5"/>
<text text-anchor="middle" x="300" y="-368.5" font-family="Helvetica,sans-Serif" font-size="10.00" fill="#000000">Uptane::Exception</text>
</g>
<!-- Node3 -->
<g id="node4" class="node">
<title>Node3</title>
<g id="a_node4"><a xlink:href="class_uptane_1_1_bad_ecu_id.html" target="_top" xlink:title="Uptane::BadEcuId">
<polygon fill="#ffffff" stroke="#000000" points="429,-722.5 429,-741.5 532,-741.5 532,-722.5 429,-722.5"/>
<text text-anchor="middle" x="480.5" y="-729.5" font-family="Helvetica,sans-Serif" font-size="10.00" fill="#000000">Uptane::BadEcuId</text>
</a>
</g>
</g>
<!-- Node0&#45;&gt;Node3 -->
<g id="edge3" class="edge">
<title>Node0&#45;&gt;Node3</title>
<path fill="none" stroke="#191970" d="M302.4302,-390.9296C310.8949,-457.0451 341.1967,-667.522 389,-713 399.6967,-723.1764 414.3505,-728.5188 428.7965,-731.178"/>
<polygon fill="#191970" stroke="#191970" points="305.8583,-390.1363 301.1426,-380.6488 298.9125,-391.0063 305.8583,-390.1363"/>
</g>
<!-- Node4 -->
<g id="node5" class="node">
<title>Node4</title>
<g id="a_node5"><a xlink:href="class_uptane_1_1_bad_hardware_id.html" target="_top" xlink:title="Uptane::BadHardwareId">
<polygon fill="#ffffff" stroke="#000000" points="414,-684.5 414,-703.5 547,-703.5 547,-684.5 414,-684.5"/>
<text text-anchor="middle" x="480.5" y="-691.5" font-family="Helvetica,sans-Serif" font-size="10.00" fill="#000000">Uptane::BadHardwareId</text>
</a>
</g>
</g>
<!-- Node0&#45;&gt;Node4 -->
<g id="edge4" class="edge">
<title>Node0&#45;&gt;Node4</title>
<path fill="none" stroke="#191970" d="M303.0805,-390.6948C313.0046,-451.6221 346.0111,-635.3222 389,-675 396.0341,-681.4923 404.6861,-686.0013 413.8365,-689.0963"/>
<polygon fill="#191970" stroke="#191970" points="306.5349,-390.131 301.4989,-380.8095 299.6228,-391.2369 306.5349,-390.131"/>
</g>
<!-- Node5 -->
<g id="node6" class="node">
<title>Node5</title>
<g id="a_node6"><a xlink:href="class_uptane_1_1_bad_key_id.html" target="_top" xlink:title="Uptane::BadKeyId">
<polygon fill="#ffffff" stroke="#000000" points="428.5,-646.5 428.5,-665.5 532.5,-665.5 532.5,-646.5 428.5,-646.5"/>
<text text-anchor="middle" x="480.5" y="-653.5" font-family="Helvetica,sans-Serif" font-size="10.00" fill="#000000">Uptane::BadKeyId</text>
</a>
</g>
</g>
<!-- Node0&#45;&gt;Node5 -->
<g id="edge5" class="edge">
<title>Node0&#45;&gt;Node5</title>
<path fill="none" stroke="#191970" d="M303.9574,-390.7374C315.5205,-446.4562 350.8527,-603.1126 389,-637 399.7953,-646.5898 414.1436,-651.8081 428.2697,-654.5354"/>
<polygon fill="#191970" stroke="#191970" points="307.3441,-389.8286 301.9129,-380.7318 300.4859,-391.2301 307.3441,-389.8286"/>
</g>
<!-- Node6 -->
<g id="node7" class="node">
<title>Node6</title>
<g id="a_node7"><a xlink:href="class_uptane_1_1_delegation_hash_mismatch.html" target="_top" xlink:title="Uptane::DelegationHashMismatch">
<polygon fill="#ffffff" stroke="#000000" points="389,-608.5 389,-627.5 572,-627.5 572,-608.5 389,-608.5"/>
<text text-anchor="middle" x="480.5" y="-615.5" font-family="Helvetica,sans-Serif" font-size="10.00" fill="#000000">Uptane::DelegationHashMismatch</text>
</a>
</g>
</g>
<!-- Node0&#45;&gt;Node6 -->
<g id="edge6" class="edge">
<title>Node0&#45;&gt;Node6</title>
<path fill="none" stroke="#191970" d="M301.5575,-390.719C306.1855,-435.251 323.9167,-543.993 389,-599 393.4609,-602.7702 398.4766,-605.8558 403.8029,-608.3748"/>
<polygon fill="#191970" stroke="#191970" points="305.0303,-390.2623 300.6243,-380.6271 298.0601,-390.9069 305.0303,-390.2623"/>
</g>
<!-- Node7 -->
<g id="node8" class="node">
<title>Node7</title>
<g id="a_node8"><a xlink:href="class_uptane_1_1_delegation_missing.html" target="_top" xlink:title="Uptane::DelegationMissing">
<polygon fill="#ffffff" stroke="#000000" points="406.5,-570.5 406.5,-589.5 554.5,-589.5 554.5,-570.5 406.5,-570.5"/>
<text text-anchor="middle" x="480.5" y="-577.5" font-family="Helvetica,sans-Serif" font-size="10.00" fill="#000000">Uptane::DelegationMissing</text>
</a>
</g>
</g>
<!-- Node0&#45;&gt;Node7 -->
<g id="edge7" class="edge">
<title>Node0&#45;&gt;Node7</title>
<path fill="none" stroke="#191970" d="M303.2365,-390.6063C310.7576,-429.6009 333.2147,-516.9186 389,-561 394.2192,-565.1242 400.1135,-568.4147 406.333,-571.0327"/>
<polygon fill="#191970" stroke="#191970" points="306.6805,-389.9822 301.462,-380.7618 299.7916,-391.2241 306.6805,-389.9822"/>
</g>
<!-- Node8 -->
<g id="node9" class="node">
<title>Node8</title>
<g id="a_node9"><a xlink:href="class_uptane_1_1_expired_metadata.html" target="_top" xlink:title="Uptane::ExpiredMetadata">
<polygon fill="#ffffff" stroke="#000000" points="410.5,-532.5 410.5,-551.5 550.5,-551.5 550.5,-532.5 410.5,-532.5"/>
<text text-anchor="middle" x="480.5" y="-539.5" font-family="Helvetica,sans-Serif" font-size="10.00" fill="#000000">Uptane::ExpiredMetadata</text>
</a>
</g>
</g>
<!-- Node0&#45;&gt;Node8 -->
<g id="edge8" class="edge">
<title>Node0&#45;&gt;Node8</title>
<path fill="none" stroke="#191970" d="M305.6576,-390.4958C316.2594,-423.367 342.364,-489.5006 389,-523 395.4568,-527.638 402.794,-531.1966 410.4382,-533.9191"/>
<polygon fill="#191970" stroke="#191970" points="308.9354,-389.2471 302.6492,-380.7186 302.2449,-391.3057 308.9354,-389.2471"/>
</g>
<!-- Node9 -->
<g id="node10" class="node">
<title>Node9</title>
<g id="a_node10"><a xlink:href="class_uptane_1_1_illegal_threshold.html" target="_top" xlink:title="Uptane::IllegalThreshold">
<polygon fill="#ffffff" stroke="#000000" points="412.5,-494.5 412.5,-513.5 548.5,-513.5 548.5,-494.5 412.5,-494.5"/>
<text text-anchor="middle" x="480.5" y="-501.5" font-family="Helvetica,sans-Serif" font-size="10.00" fill="#000000">Uptane::IllegalThreshold</text>
</a>
</g>
</g>
<!-- Node0&#45;&gt;Node9 -->
<g id="edge9" class="edge">
<title>Node0&#45;&gt;Node9</title>
<path fill="none" stroke="#191970" d="M309.1063,-389.5848C322.7401,-415.3339 350.9763,-461.3546 389,-485 396.1643,-489.4552 404.1934,-492.8844 412.4404,-495.5206"/>
<polygon fill="#191970" stroke="#191970" points="312.1303,-387.8108 304.4601,-380.502 305.8983,-390.9988 312.1303,-387.8108"/>
</g>
<!-- Node10 -->
<g id="node11" class="node">
<title>Node10</title>
<g id="a_node11"><a xlink:href="class_uptane_1_1_invalid_metadata.html" target="_top" xlink:title="Uptane::InvalidMetadata">
<polygon fill="#ffffff" stroke="#000000" points="412,-456.5 412,-475.5 549,-475.5 549,-456.5 412,-456.5"/>
<text text-anchor="middle" x="480.5" y="-463.5" font-family="Helvetica,sans-Serif" font-size="10.00" fill="#000000">Uptane::InvalidMetadata</text>
</a>
</g>
</g>
<!-- Node0&#45;&gt;Node10 -->
<g id="edge10" class="edge">
<title>Node0&#45;&gt;Node10</title>
<path fill="none" stroke="#191970" d="M315.365,-388.4981C331.8047,-406.0698 359.5237,-432.5515 389,-447 396.8668,-450.8561 405.4861,-453.9309 414.1904,-456.3823"/>
<polygon fill="#191970" stroke="#191970" points="317.5642,-385.7149 308.2424,-380.6794 312.3894,-390.4289 317.5642,-385.7149"/>
</g>
<!-- Node11 -->
<g id="node12" class="node">
<title>Node11</title>
<g id="a_node12"><a xlink:href="class_uptane_1_1_invalid_target.html" target="_top" xlink:title="Uptane::InvalidTarget">
<polygon fill="#ffffff" stroke="#000000" points="420,-418.5 420,-437.5 541,-437.5 541,-418.5 420,-418.5"/>
<text text-anchor="middle" x="480.5" y="-425.5" font-family="Helvetica,sans-Serif" font-size="10.00" fill="#000000">Uptane::InvalidTarget</text>
</a>
</g>
</g>
<!-- Node0&#45;&gt;Node11 -->
<g id="edge11" class="edge">
<title>Node0&#45;&gt;Node11</title>
<path fill="none" stroke="#191970" d="M328.8172,-385.0342C345.9765,-392.9507 368.3642,-402.5229 389,-409 400.6098,-412.644 413.2704,-415.7837 425.3698,-418.4017"/>
<polygon fill="#191970" stroke="#191970" points="329.9106,-381.6811 319.3711,-380.6004 326.9363,-388.0178 329.9106,-381.6811"/>
</g>
<!-- Node12 -->
<g id="node13" class="node">
<title>Node12</title>
<g id="a_node13"><a xlink:href="class_uptane_1_1_metadata_fetch_failure.html" target="_top" xlink:title="Uptane::MetadataFetchFailure">
<polygon fill="#ffffff" stroke="#000000" points="400,-380.5 400,-399.5 561,-399.5 561,-380.5 400,-380.5"/>
<text text-anchor="middle" x="480.5" y="-387.5" font-family="Helvetica,sans-Serif" font-size="10.00" fill="#000000">Uptane::MetadataFetchFailure</text>
</a>
</g>
</g>
<!-- Node0&#45;&gt;Node12 -->
<g id="edge12" class="edge">
<title>Node0&#45;&gt;Node12</title>
<path fill="none" stroke="#191970" d="M363.366,-377.6701C375.1817,-378.9139 387.6739,-380.2288 399.9255,-381.5185"/>
<polygon fill="#191970" stroke="#191970" points="363.4912,-374.164 353.1797,-376.5979 362.7583,-381.1256 363.4912,-374.164"/>
</g>
<!-- Node13 -->
<g id="node14" class="node">
<title>Node13</title>
<g id="a_node14"><a xlink:href="class_uptane_1_1_missing_repo.html" target="_top" xlink:title="Uptane::MissingRepo">
<polygon fill="#ffffff" stroke="#000000" points="421,-342.5 421,-361.5 540,-361.5 540,-342.5 421,-342.5"/>
<text text-anchor="middle" x="480.5" y="-349.5" font-family="Helvetica,sans-Serif" font-size="10.00" fill="#000000">Uptane::MissingRepo</text>
</a>
</g>
</g>
<!-- Node0&#45;&gt;Node13 -->
<g id="edge13" class="edge">
<title>Node0&#45;&gt;Node13</title>
<path fill="none" stroke="#191970" d="M363.3431,-364.3323C381.9909,-362.3694 402.3255,-360.2289 420.7408,-358.2904"/>
<polygon fill="#191970" stroke="#191970" points="362.7583,-360.8744 353.1797,-365.4021 363.4912,-367.836 362.7583,-360.8744"/>
</g>
<!-- Node14 -->
<g id="node15" class="node">
<title>Node14</title>
<g id="a_node15"><a xlink:href="class_uptane_1_1_non_unique_signatures.html" target="_top" xlink:title="Uptane::NonUniqueSignatures">
<polygon fill="#ffffff" stroke="#000000" points="398.5,-304.5 398.5,-323.5 562.5,-323.5 562.5,-304.5 398.5,-304.5"/>
<text text-anchor="middle" x="480.5" y="-311.5" font-family="Helvetica,sans-Serif" font-size="10.00" fill="#000000">Uptane::NonUniqueSignatures</text>
</a>
</g>
</g>
<!-- Node0&#45;&gt;Node14 -->
<g id="edge14" class="edge">
<title>Node0&#45;&gt;Node14</title>
<path fill="none" stroke="#191970" d="M328.8172,-356.9658C345.9765,-349.0493 368.3642,-339.4771 389,-333 400.6098,-329.356 413.2704,-326.2163 425.3698,-323.5983"/>
<polygon fill="#191970" stroke="#191970" points="326.9363,-353.9822 319.3711,-361.3996 329.9106,-360.3189 326.9363,-353.9822"/>
</g>
<!-- Node15 -->
<g id="node16" class="node">
<title>Node15</title>
<g id="a_node16"><a xlink:href="class_uptane_1_1_oversized_target.html" target="_top" xlink:title="Uptane::OversizedTarget">
<polygon fill="#ffffff" stroke="#000000" points="412,-266.5 412,-285.5 549,-285.5 549,-266.5 412,-266.5"/>
<text text-anchor="middle" x="480.5" y="-273.5" font-family="Helvetica,sans-Serif" font-size="10.00" fill="#000000">Uptane::OversizedTarget</text>
</a>
</g>
</g>
<!-- Node0&#45;&gt;Node15 -->
<g id="edge15" class="edge">
<title>Node0&#45;&gt;Node15</title>
<path fill="none" stroke="#191970" d="M315.365,-353.5019C331.8047,-335.9302 359.5237,-309.4485 389,-295 396.8668,-291.1439 405.4861,-288.0691 414.1904,-285.6177"/>
<polygon fill="#191970" stroke="#191970" points="312.3894,-351.5711 308.2424,-361.3206 317.5642,-356.2851 312.3894,-351.5711"/>
</g>
<!-- Node16 -->
<g id="node17" class="node">
<title>Node16</title>
<g id="a_node17"><a xlink:href="class_uptane_1_1_root_rotation_error.html" target="_top" xlink:title="Uptane::RootRotationError">
<polygon fill="#ffffff" stroke="#000000" points="409,-228.5 409,-247.5 552,-247.5 552,-228.5 409,-228.5"/>
<text text-anchor="middle" x="480.5" y="-235.5" font-family="Helvetica,sans-Serif" font-size="10.00" fill="#000000">Uptane::RootRotationError</text>
</a>
</g>
</g>
<!-- Node0&#45;&gt;Node16 -->
<g id="edge16" class="edge">
<title>Node0&#45;&gt;Node16</title>
<path fill="none" stroke="#191970" d="M309.1063,-352.4152C322.7401,-326.6661 350.9763,-280.6454 389,-257 395.1999,-253.1445 402.0474,-250.0574 409.1233,-247.5877"/>
<polygon fill="#191970" stroke="#191970" points="305.8983,-351.0012 304.4601,-361.498 312.1303,-354.1892 305.8983,-351.0012"/>
</g>
<!-- Node17 -->
<g id="node18" class="node">
<title>Node17</title>
<g id="a_node18"><a xlink:href="class_uptane_1_1_security_exception.html" target="_top" xlink:title="Uptane::SecurityException">
<polygon fill="#ffffff" stroke="#000000" points="407.5,-190.5 407.5,-209.5 553.5,-209.5 553.5,-190.5 407.5,-190.5"/>
<text text-anchor="middle" x="480.5" y="-197.5" font-family="Helvetica,sans-Serif" font-size="10.00" fill="#000000">Uptane::SecurityException</text>
</a>
</g>
</g>
<!-- Node0&#45;&gt;Node17 -->
<g id="edge17" class="edge">
<title>Node0&#45;&gt;Node17</title>
<path fill="none" stroke="#191970" d="M305.6576,-351.5042C316.2594,-318.633 342.364,-252.4994 389,-219 394.5344,-215.0246 400.7156,-211.8422 407.1826,-209.2996"/>
<polygon fill="#191970" stroke="#191970" points="302.2449,-350.6943 302.6492,-361.2814 308.9354,-352.7529 302.2449,-350.6943"/>
</g>
<!-- Node18 -->
<g id="node19" class="node">
<title>Node18</title>
<g id="a_node19"><a xlink:href="class_uptane_1_1_target_content_mismatch.html" target="_top" xlink:title="Uptane::TargetContentMismatch">
<polygon fill="#ffffff" stroke="#000000" points="394,-152.5 394,-171.5 567,-171.5 567,-152.5 394,-152.5"/>
<text text-anchor="middle" x="480.5" y="-159.5" font-family="Helvetica,sans-Serif" font-size="10.00" fill="#000000">Uptane::TargetContentMismatch</text>
</a>
</g>
</g>
<!-- Node0&#45;&gt;Node18 -->
<g id="edge18" class="edge">
<title>Node0&#45;&gt;Node18</title>
<path fill="none" stroke="#191970" d="M303.2365,-351.3937C310.7576,-312.3991 333.2147,-225.0814 389,-181 393.8373,-177.1776 399.2546,-174.0713 404.9731,-171.5528"/>
<polygon fill="#191970" stroke="#191970" points="299.7916,-350.7759 301.462,-361.2382 306.6805,-352.0178 299.7916,-350.7759"/>
</g>
<!-- Node19 -->
<g id="node20" class="node">
<title>Node19</title>
<g id="a_node20"><a xlink:href="class_uptane_1_1_target_hash_mismatch.html" target="_top" xlink:title="Uptane::TargetHashMismatch">
<polygon fill="#ffffff" stroke="#000000" points="400.5,-114.5 400.5,-133.5 560.5,-133.5 560.5,-114.5 400.5,-114.5"/>
<text text-anchor="middle" x="480.5" y="-121.5" font-family="Helvetica,sans-Serif" font-size="10.00" fill="#000000">Uptane::TargetHashMismatch</text>
</a>
</g>
</g>
<!-- Node0&#45;&gt;Node19 -->
<g id="edge19" class="edge">
<title>Node0&#45;&gt;Node19</title>
<path fill="none" stroke="#191970" d="M301.5575,-351.281C306.1855,-306.749 323.9167,-198.007 389,-143 393.4609,-139.2298 398.4766,-136.1442 403.8029,-133.6252"/>
<polygon fill="#191970" stroke="#191970" points="298.0601,-351.0931 300.6243,-361.3729 305.0303,-351.7377 298.0601,-351.0931"/>
</g>
<!-- Node20 -->
<g id="node21" class="node">
<title>Node20</title>
<g id="a_node21"><a xlink:href="class_uptane_1_1_target_mismatch.html" target="_top" xlink:title="Uptane::TargetMismatch">
<polygon fill="#ffffff" stroke="#000000" points="413,-76.5 413,-95.5 548,-95.5 548,-76.5 413,-76.5"/>
<text text-anchor="middle" x="480.5" y="-83.5" font-family="Helvetica,sans-Serif" font-size="10.00" fill="#000000">Uptane::TargetMismatch</text>
</a>
</g>
</g>
<!-- Node0&#45;&gt;Node20 -->
<g id="edge20" class="edge">
<title>Node0&#45;&gt;Node20</title>
<path fill="none" stroke="#191970" d="M303.9574,-351.2626C315.5205,-295.5438 350.8527,-138.8874 389,-105 395.7925,-98.966 403.9918,-94.6627 412.6572,-91.6216"/>
<polygon fill="#191970" stroke="#191970" points="300.4859,-350.7699 301.9129,-361.2682 307.3441,-352.1714 300.4859,-350.7699"/>
</g>
<!-- Node21 -->
<g id="node22" class="node">
<title>Node21</title>
<g id="a_node22"><a xlink:href="class_uptane_1_1_unmet_threshold.html" target="_top" xlink:title="Uptane::UnmetThreshold">
<polygon fill="#ffffff" stroke="#000000" points="411,-38.5 411,-57.5 550,-57.5 550,-38.5 411,-38.5"/>
<text text-anchor="middle" x="480.5" y="-45.5" font-family="Helvetica,sans-Serif" font-size="10.00" fill="#000000">Uptane::UnmetThreshold</text>
</a>
</g>
</g>
<!-- Node0&#45;&gt;Node21 -->
<g id="edge21" class="edge">
<title>Node0&#45;&gt;Node21</title>
<path fill="none" stroke="#191970" d="M303.0805,-351.3052C313.0046,-290.3779 346.0111,-106.6778 389,-67 395.1996,-61.2779 402.6558,-57.0965 410.6025,-54.066"/>
<polygon fill="#191970" stroke="#191970" points="299.6228,-350.7631 301.4989,-361.1905 306.5349,-351.869 299.6228,-350.7631"/>
</g>
<!-- Node22 -->
<g id="node23" class="node">
<title>Node22</title>
<g id="a_node23"><a xlink:href="class_uptane_1_1_version_mismatch.html" target="_top" xlink:title="Uptane::VersionMismatch">
<polygon fill="#ffffff" stroke="#000000" points="410,-.5 410,-19.5 551,-19.5 551,-.5 410,-.5"/>
<text text-anchor="middle" x="480.5" y="-7.5" font-family="Helvetica,sans-Serif" font-size="10.00" fill="#000000">Uptane::VersionMismatch</text>
</a>
</g>
</g>
<!-- Node0&#45;&gt;Node22 -->
<g id="edge22" class="edge">
<title>Node0&#45;&gt;Node22</title>
<path fill="none" stroke="#191970" d="M302.4302,-351.0704C310.8949,-284.9549 341.1967,-74.478 389,-29 394.9949,-23.2968 402.2326,-19.1118 409.9801,-16.0666"/>
<polygon fill="#191970" stroke="#191970" points="298.9125,-350.9937 301.1426,-361.3512 305.8583,-351.8637 298.9125,-350.9937"/>
</g>
<!-- Node1 -->
<g id="node2" class="node">
<title>Node1</title>
<g id="a_node2"><a xlink:title="STL class. ">
<polygon fill="#ffffff" stroke="#bfbfbf" points="122,-361.5 122,-380.5 211,-380.5 211,-361.5 122,-361.5"/>
<text text-anchor="middle" x="166.5" y="-368.5" font-family="Helvetica,sans-Serif" font-size="10.00" fill="#000000">std::logic_error</text>
</a>
</g>
</g>
<!-- Node1&#45;&gt;Node0 -->
<g id="edge1" class="edge">
<title>Node1&#45;&gt;Node0</title>
<path fill="none" stroke="#191970" d="M221.3801,-371C229.7587,-371 238.3952,-371 246.7382,-371"/>
<polygon fill="#191970" stroke="#191970" points="221.325,-367.5001 211.3249,-371 221.3249,-374.5001 221.325,-367.5001"/>
</g>
<!-- Node2 -->
<g id="node3" class="node">
<title>Node2</title>
<g id="a_node3"><a xlink:title="STL class. ">
<polygon fill="#ffffff" stroke="#bfbfbf" points="0,-361.5 0,-380.5 86,-380.5 86,-361.5 0,-361.5"/>
<text text-anchor="middle" x="43" y="-368.5" font-family="Helvetica,sans-Serif" font-size="10.00" fill="#000000">std::exception</text>
</a>
</g>
</g>
<!-- Node2&#45;&gt;Node1 -->
<g id="edge2" class="edge">
<title>Node2&#45;&gt;Node1</title>
<path fill="none" stroke="#191970" d="M96.4024,-371C104.8947,-371 113.6016,-371 121.8646,-371"/>
<polygon fill="#191970" stroke="#191970" points="96.1943,-367.5001 86.1943,-371 96.1943,-374.5001 96.1943,-367.5001"/>
</g>
</g>
</svg>
        <g id="navigator" transform="translate(0 0)" fill="#404254">
                <rect fill="#f2f5e9" fill-opacity="0.5" stroke="#606060" stroke-width=".5" x="0" y="0" width="60" height="60"/>
                <use id="zoomplus" xlink:href="#zoomPlus" x="17" y="9" onmousedown="handleZoom(evt,'in')"/>
                <use id="zoomminus" xlink:href="#zoomMin" x="42" y="9" onmousedown="handleZoom(evt,'out')"/>
                <use id="reset" xlink:href="#resetDef" x="30" y="36" onmousedown="handleReset()"/>
                <g id="arrowUp" xlink:href="#dirArrow" transform="translate(30 24)" onmousedown="handlePan(0,-1)">
                  <use xlink:href="#rim" fill="#404040">
                        <set attributeName="fill" to="#808080" begin="arrowUp.mouseover" end="arrowUp.mouseout"/>
                  </use>
                  <path fill="none" stroke="white" stroke-width="1.5" d="M0,-3.0v7 M-2.5,-0.5L0,-3.0L2.5,-0.5"/>
                </g>
                <g id="arrowRight" xlink:href="#dirArrow" transform="rotate(90) translate(36 -43)" onmousedown="handlePan(1,0)">
                  <use xlink:href="#rim" fill="#404040">
                        <set attributeName="fill" to="#808080" begin="arrowRight.mouseover" end="arrowRight.mouseout"/>
                  </use>
                  <path fill="none" stroke="white" stroke-width="1.5" d="M0,-3.0v7 M-2.5,-0.5L0,-3.0L2.5,-0.5"/>
                </g>
                <g id="arrowDown" xlink:href="#dirArrow" transform="rotate(180) translate(-30 -48)" onmousedown="handlePan(0,1)">
                  <use xlink:href="#rim" fill="#404040">
                        <set attributeName="fill" to="#808080" begin="arrowDown.mouseover" end="arrowDown.mouseout"/>
                  </use>
                  <path fill="none" stroke="white" stroke-width="1.5" d="M0,-3.0v7 M-2.5,-0.5L0,-3.0L2.5,-0.5"/>
                </g>
                <g id="arrowLeft" xlink:href="#dirArrow" transform="rotate(270) translate(-36 17)" onmousedown="handlePan(-1,0)">
                  <use xlink:href="#rim" fill="#404040">
                        <set attributeName="fill" to="#808080" begin="arrowLeft.mouseover" end="arrowLeft.mouseout"/>
                  </use>
                  <path fill="none" stroke="white" stroke-width="1.5" d="M0,-3.0v7 M-2.5,-0.5L0,-3.0L2.5,-0.5"/>
                </g>
        </g>
        <svg viewBox="0 0 15 15" width="100%" height="30px" preserveAspectRatio="xMaxYMin meet">
         <g id="arrow_out" transform="scale(0.3 0.3)">
          <a xlink:href="class_uptane_1_1_exception__inherit__graph_org.svg" target="_base">
           <rect id="button" ry="5" rx="5" y="6" x="6" height="38" width="38"
                fill="#f2f5e9" fill-opacity="0.5" stroke="#606060" stroke-width="1.0"/>
           <path id="arrow"
             d="M 11.500037,31.436501 C 11.940474,20.09759 22.043105,11.32322 32.158766,21.979434 L 37.068811,17.246167 C 37.068811,17.246167 37.088388,32 37.088388,32 L 22.160133,31.978069 C 22.160133,31.978069 26.997745,27.140456 26.997745,27.140456 C 18.528582,18.264221 13.291696,25.230495 11.500037,31.436501 z"
             style="fill:#404040;"/>
          </a>
         </g>
        </svg>
</svg>
