<?xml version="1.0" encoding="UTF-8" standalone="no"?>
<!DOCTYPE svg PUBLIC "-//W3C//DTD SVG 1.1//EN"
 "http://www.w3.org/Graphics/SVG/1.1/DTD/svg11.dtd">
<!-- Generated by graphviz version 2.40.1 (20161225.0304)
 -->
<!-- Title: Uptane::MetaWithKeys Pages: 1 -->
<svg width="957pt" height="180pt"
 viewBox="0.00 0.00 957.00 180.09" xmlns="http://www.w3.org/2000/svg" xmlns:xlink="http://www.w3.org/1999/xlink">
<g id="graph0" class="graph" transform="scale(1 1) rotate(0) translate(4 176.0896)">
<title>Uptane::MetaWithKeys</title>
<polygon fill="#ffffff" stroke="transparent" points="-4,4 -4,-176.0896 953,-176.0896 953,4 -4,4"/>
<!-- Node4 -->
<g id="node1" class="node">
<title>Node4</title>
<polygon fill="#bfbfbf" stroke="#000000" points="821,-84.5896 821,-103.5896 949,-103.5896 949,-84.5896 821,-84.5896"/>
<text text-anchor="middle" x="885" y="-91.5896" font-family="Helvetica,sans-Serif" font-size="10.00" fill="#000000">Uptane::MetaWithKeys</text>
</g>
<!-- Node5 -->
<g id="node2" class="node">
<title>Node5</title>
<g id="a_node2"><a xlink:href="class_uptane_1_1_base_meta.html" target="_top" xlink:title="Uptane::BaseMeta">
<polygon fill="#ffffff" stroke="#000000" points="556,-151.5896 556,-170.5896 662,-170.5896 662,-151.5896 556,-151.5896"/>
<text text-anchor="middle" x="609" y="-158.5896" font-family="Helvetica,sans-Serif" font-size="10.00" fill="#000000">Uptane::BaseMeta</text>
</a>
</g>
</g>
<!-- Node5&#45;&gt;Node4 -->
<g id="edge1" class="edge">
<title>Node5&#45;&gt;Node4</title>
<path fill="none" stroke="#191970" d="M672.1386,-151.1334C710.3384,-144.5149 759.844,-134.8792 803,-123.0896 822.8103,-117.6777 844.7147,-109.8314 860.8973,-103.6646"/>
<polygon fill="#191970" stroke="#191970" points="671.4488,-147.7005 662.1812,-152.8349 672.6279,-154.6005 671.4488,-147.7005"/>
</g>
<!-- Node6 -->
<g id="node3" class="node">
<title>Node6</title>
<g id="a_node3"><a xlink:href="class_time_stamp.html" target="_top" xlink:title="TimeStamp">
<polygon fill="#ffffff" stroke="#000000" points="342.5,-151.5896 342.5,-170.5896 415.5,-170.5896 415.5,-151.5896 342.5,-151.5896"/>
<text text-anchor="middle" x="379" y="-158.5896" font-family="Helvetica,sans-Serif" font-size="10.00" fill="#000000">TimeStamp</text>
</a>
</g>
</g>
<!-- Node6&#45;&gt;Node5 -->
<g id="edge2" class="edge">
<title>Node6&#45;&gt;Node5</title>
<path fill="none" stroke="#9a32cd" stroke-dasharray="5,2" d="M425.8944,-161.0896C463.5614,-161.0896 516.4664,-161.0896 555.7288,-161.0896"/>
<polygon fill="#9a32cd" stroke="#9a32cd" points="425.6985,-157.5897 415.6985,-161.0896 425.6985,-164.5897 425.6985,-157.5897"/>
<text text-anchor="middle" x="498" y="-164.0896" font-family="Helvetica,sans-Serif" font-size="10.00" fill="#000000"> expiry_</text>
</g>
<!-- Node7 -->
<g id="node4" class="node">
<title>Node7</title>
<polygon fill="#ffffff" stroke="#bfbfbf" points="536,-102.0896 536,-132.0896 682,-132.0896 682,-102.0896 536,-102.0896"/>
<text text-anchor="start" x="544" y="-120.0896" font-family="Helvetica,sans-Serif" font-size="10.00" fill="#000000">std::set&lt; std::pair</text>
<text text-anchor="middle" x="609" y="-109.0896" font-family="Helvetica,sans-Serif" font-size="10.00" fill="#000000">&lt; Uptane::Role, KeyId &gt; &gt;</text>
</g>
<!-- Node7&#45;&gt;Node4 -->
<g id="edge3" class="edge">
<title>Node7&#45;&gt;Node4</title>
<path fill="none" stroke="#9a32cd" stroke-dasharray="5,2" d="M692.2712,-110.1503C733.5151,-106.7133 782.5421,-102.6277 820.8261,-99.4374"/>
<polygon fill="#9a32cd" stroke="#9a32cd" points="691.9131,-106.6679 682.2383,-110.9864 692.4945,-113.6437 691.9131,-106.6679"/>
<text text-anchor="middle" x="751.5" y="-111.0896" font-family="Helvetica,sans-Serif" font-size="10.00" fill="#000000"> keys_for_role_</text>
</g>
<!-- Node8 -->
<g id="node5" class="node">
<title>Node8</title>
<polygon fill="#ffffff" stroke="#bfbfbf" points="298,-63.5896 298,-82.5896 460,-82.5896 460,-63.5896 298,-63.5896"/>
<text text-anchor="middle" x="379" y="-70.5896" font-family="Helvetica,sans-Serif" font-size="10.00" fill="#000000">std::map&lt; KeyId, PublicKey &gt;</text>
</g>
<!-- Node8&#45;&gt;Node4 -->
<g id="edge4" class="edge">
<title>Node8&#45;&gt;Node4</title>
<path fill="none" stroke="#9a32cd" stroke-dasharray="5,2" d="M470.275,-75.1028C530.4288,-76.6016 610.9285,-78.9341 682,-82.0896 728.3798,-84.1488 780.675,-87.2588 820.5706,-89.7967"/>
<polygon fill="#9a32cd" stroke="#9a32cd" points="470.1283,-71.5982 460.0452,-74.851 469.956,-78.5961 470.1283,-71.5982"/>
<text text-anchor="middle" x="609" y="-85.0896" font-family="Helvetica,sans-Serif" font-size="10.00" fill="#000000"> keys_</text>
</g>
<!-- Node9 -->
<g id="node6" class="node">
<title>Node9</title>
<g id="a_node6"><a xlink:href="class_public_key.html" target="_top" xlink:title="PublicKey">
<polygon fill="#ffffff" stroke="#000000" points="141.5,-97.5896 141.5,-116.5896 205.5,-116.5896 205.5,-97.5896 141.5,-97.5896"/>
<text text-anchor="middle" x="173.5" y="-104.5896" font-family="Helvetica,sans-Serif" font-size="10.00" fill="#000000">PublicKey</text>
</a>
</g>
</g>
<!-- Node9&#45;&gt;Node8 -->
<g id="edge5" class="edge">
<title>Node9&#45;&gt;Node8</title>
<path fill="none" stroke="#9a32cd" stroke-dasharray="5,2" d="M215.5178,-100.1377C246.0813,-95.081 287.8273,-88.1741 321.4835,-82.6057"/>
<polygon fill="#9a32cd" stroke="#9a32cd" points="214.9039,-96.6916 205.6094,-101.7771 216.0466,-103.5977 214.9039,-96.6916"/>
<text text-anchor="middle" x="252" y="-100.0896" font-family="Helvetica,sans-Serif" font-size="10.00" fill="#000000"> elements</text>
</g>
<!-- Node10 -->
<g id="node7" class="node">
<title>Node10</title>
<g id="a_node7"><a xlink:title="STL class. ">
<polygon fill="#ffffff" stroke="#bfbfbf" points="141,-28.5896 141,-47.5896 206,-47.5896 206,-28.5896 141,-28.5896"/>
<text text-anchor="middle" x="173.5" y="-35.5896" font-family="Helvetica,sans-Serif" font-size="10.00" fill="#000000">std::string</text>
</a>
</g>
</g>
<!-- Node10&#45;&gt;Node8 -->
<g id="edge6" class="edge">
<title>Node10&#45;&gt;Node8</title>
<path fill="none" stroke="#9a32cd" stroke-dasharray="5,2" d="M216.0044,-49.39C218.703,-49.9962 221.3848,-50.5691 224,-51.0896 248.524,-55.9709 275.4397,-60.1851 299.8607,-63.5812"/>
<polygon fill="#9a32cd" stroke="#9a32cd" points="216.7854,-45.9782 206.2483,-47.0825 215.1742,-52.7903 216.7854,-45.9782"/>
<text text-anchor="middle" x="252" y="-64.0896" font-family="Helvetica,sans-Serif" font-size="10.00" fill="#000000"> keys</text>
</g>
<!-- Node13 -->
<g id="node10" class="node">
<title>Node13</title>
<g id="a_node10"><a xlink:href="class_uptane_1_1_role.html" target="_top" xlink:title="TUF Roles. ">
<polygon fill="#ffffff" stroke="#000000" points="339.5,-3.5896 339.5,-22.5896 418.5,-22.5896 418.5,-3.5896 339.5,-3.5896"/>
<text text-anchor="middle" x="379" y="-10.5896" font-family="Helvetica,sans-Serif" font-size="10.00" fill="#000000">Uptane::Role</text>
</a>
</g>
</g>
<!-- Node10&#45;&gt;Node13 -->
<g id="edge10" class="edge">
<title>Node10&#45;&gt;Node13</title>
<path fill="none" stroke="#9a32cd" stroke-dasharray="5,2" d="M193.1742,-22.5071C202.0572,-16.4338 213.0108,-10.1934 224,-7.0896 262.0965,3.6706 307.5493,.095 339.3486,-4.9005"/>
<polygon fill="#9a32cd" stroke="#9a32cd" points="191.0913,-19.6941 185.0569,-28.4025 195.2049,-25.358 191.0913,-19.6941"/>
<text text-anchor="middle" x="252" y="-43.0896" font-family="Helvetica,sans-Serif" font-size="10.00" fill="#000000"> ROOT</text>
<text text-anchor="middle" x="252" y="-32.0896" font-family="Helvetica,sans-Serif" font-size="10.00" fill="#000000">TIMESTAMP</text>
<text text-anchor="middle" x="252" y="-21.0896" font-family="Helvetica,sans-Serif" font-size="10.00" fill="#000000">SNAPSHOT</text>
<text text-anchor="middle" x="252" y="-10.0896" font-family="Helvetica,sans-Serif" font-size="10.00" fill="#000000">TARGETS</text>
</g>
<!-- Node11 -->
<g id="node8" class="node">
<title>Node11</title>
<g id="a_node8"><a xlink:title="STL class. ">
<polygon fill="#ffffff" stroke="#bfbfbf" points="0,-23.0896 0,-53.0896 104,-53.0896 104,-23.0896 0,-23.0896"/>
<text text-anchor="start" x="8" y="-41.0896" font-family="Helvetica,sans-Serif" font-size="10.00" fill="#000000">std::basic_string&lt;</text>
<text text-anchor="middle" x="52" y="-30.0896" font-family="Helvetica,sans-Serif" font-size="10.00" fill="#000000"> char &gt;</text>
</a>
</g>
</g>
<!-- Node11&#45;&gt;Node10 -->
<g id="edge7" class="edge">
<title>Node11&#45;&gt;Node10</title>
<path fill="none" stroke="#191970" d="M114.2382,-38.0896C123.4802,-38.0896 132.6763,-38.0896 140.9702,-38.0896"/>
<polygon fill="#191970" stroke="#191970" points="114.2321,-34.5897 104.2321,-38.0896 114.232,-41.5897 114.2321,-34.5897"/>
</g>
<!-- Node12 -->
<g id="node9" class="node">
<title>Node12</title>
<polygon fill="#ffffff" stroke="#bfbfbf" points="541,-4.0896 541,-34.0896 677,-34.0896 677,-4.0896 541,-4.0896"/>
<text text-anchor="start" x="549" y="-22.0896" font-family="Helvetica,sans-Serif" font-size="10.00" fill="#000000">std::map&lt; Uptane::Role,</text>
<text text-anchor="middle" x="609" y="-11.0896" font-family="Helvetica,sans-Serif" font-size="10.00" fill="#000000"> int64_t &gt;</text>
</g>
<!-- Node12&#45;&gt;Node4 -->
<g id="edge8" class="edge">
<title>Node12&#45;&gt;Node4</title>
<path fill="none" stroke="#9a32cd" stroke-dasharray="5,2" d="M687.3234,-23.6385C723.3081,-27.4273 766.0935,-34.3698 803,-47.0896 829.0623,-56.0719 856.2323,-73.5061 871.832,-84.4308"/>
<polygon fill="#9a32cd" stroke="#9a32cd" points="687.6612,-20.1549 677.3647,-22.6513 686.9707,-27.1208 687.6612,-20.1549"/>
<text text-anchor="middle" x="751.5" y="-50.0896" font-family="Helvetica,sans-Serif" font-size="10.00" fill="#000000"> thresholds_for_role_</text>
</g>
<!-- Node13&#45;&gt;Node12 -->
<g id="edge9" class="edge">
<title>Node13&#45;&gt;Node12</title>
<path fill="none" stroke="#9a32cd" stroke-dasharray="5,2" d="M428.775,-14.3881C461.5137,-15.2421 504.7891,-16.371 540.7281,-17.3086"/>
<polygon fill="#9a32cd" stroke="#9a32cd" points="428.6263,-10.8831 418.5384,-14.121 428.4437,-17.8807 428.6263,-10.8831"/>
<text text-anchor="middle" x="498" y="-20.0896" font-family="Helvetica,sans-Serif" font-size="10.00" fill="#000000"> keys</text>
</g>
</g>
</svg>
