<?xml version="1.0" encoding="UTF-8" standalone="no"?>
<!DOCTYPE svg PUBLIC "-//W3C//DTD SVG 1.1//EN"
 "http://www.w3.org/Graphics/SVG/1.1/DTD/svg11.dtd">
<!-- Generated by graphviz version 2.40.1 (20161225.0304)
 -->
<!-- Title: SQLStorage Pages: 1 -->
<svg width="194pt" height="140pt"
 viewBox="0.00 0.00 194.00 140.00" xmlns="http://www.w3.org/2000/svg" xmlns:xlink="http://www.w3.org/1999/xlink">
<g id="graph0" class="graph" transform="scale(1 1) rotate(0) translate(4 136)">
<title>SQLStorage</title>
<polygon fill="#ffffff" stroke="transparent" points="-4,4 -4,-136 190,-136 190,4 -4,4"/>
<!-- Node0 -->
<g id="node1" class="node">
<title>Node0</title>
<polygon fill="#bfbfbf" stroke="#000000" points="63,-56.5 63,-75.5 136,-75.5 136,-56.5 63,-56.5"/>
<text text-anchor="middle" x="99.5" y="-63.5" font-family="Helvetica,sans-Serif" font-size="10.00" fill="#000000">SQLStorage</text>
</g>
<!-- Node3 -->
<g id="node4" class="node">
<title>Node3</title>
<g id="a_node4"><a xlink:href="class_ephemeral_storage.html" target="_top" xlink:title="EphemeralStorage">
<polygon fill="#ffffff" stroke="#000000" points="46,-.5 46,-19.5 153,-19.5 153,-.5 46,-.5"/>
<text text-anchor="middle" x="99.5" y="-7.5" font-family="Helvetica,sans-Serif" font-size="10.00" fill="#000000">EphemeralStorage</text>
</a>
</g>
</g>
<!-- Node0&#45;&gt;Node3 -->
<g id="edge3" class="edge">
<title>Node0&#45;&gt;Node3</title>
<path fill="none" stroke="#191970" d="M99.5,-46.1575C99.5,-37.155 99.5,-26.9199 99.5,-19.6427"/>
<polygon fill="#191970" stroke="#191970" points="96.0001,-46.2455 99.5,-56.2455 103.0001,-46.2456 96.0001,-46.2455"/>
</g>
<!-- Node1 -->
<g id="node2" class="node">
<title>Node1</title>
<g id="a_node2"><a xlink:href="class_s_q_l_storage_base.html" target="_top" xlink:title="SQLStorageBase">
<polygon fill="#ffffff" stroke="#000000" points="0,-112.5 0,-131.5 97,-131.5 97,-112.5 0,-112.5"/>
<text text-anchor="middle" x="48.5" y="-119.5" font-family="Helvetica,sans-Serif" font-size="10.00" fill="#000000">SQLStorageBase</text>
</a>
</g>
</g>
<!-- Node1&#45;&gt;Node0 -->
<g id="edge1" class="edge">
<title>Node1&#45;&gt;Node0</title>
<path fill="none" stroke="#191970" d="M64.1749,-104.7884C72.8994,-95.2085 83.4354,-83.6396 90.7183,-75.6427"/>
<polygon fill="#191970" stroke="#191970" points="61.5291,-102.4954 57.3835,-112.2455 66.7046,-107.2088 61.5291,-102.4954"/>
</g>
<!-- Node2 -->
<g id="node3" class="node">
<title>Node2</title>
<g id="a_node3"><a xlink:href="class_i_nv_storage.html" target="_top" xlink:title="INvStorage">
<polygon fill="#ffffff" stroke="#000000" points="115,-112.5 115,-131.5 186,-131.5 186,-112.5 115,-112.5"/>
<text text-anchor="middle" x="150.5" y="-119.5" font-family="Helvetica,sans-Serif" font-size="10.00" fill="#000000">INvStorage</text>
</a>
</g>
</g>
<!-- Node2&#45;&gt;Node0 -->
<g id="edge2" class="edge">
<title>Node2&#45;&gt;Node0</title>
<path fill="none" stroke="#191970" d="M134.8251,-104.7884C126.1006,-95.2085 115.5646,-83.6396 108.2817,-75.6427"/>
<polygon fill="#191970" stroke="#191970" points="132.2954,-107.2088 141.6165,-112.2455 137.4709,-102.4954 132.2954,-107.2088"/>
</g>
</g>
</svg>
