<?xml version="1.0" encoding="UTF-8" standalone="no"?>
<!DOCTYPE svg PUBLIC "-//W3C//DTD SVG 1.1//EN"
 "http://www.w3.org/Graphics/SVG/1.1/DTD/svg11.dtd">
<!-- Generated by graphviz version 2.40.1 (20161225.0304)
 -->
<!-- Title: DevicePausedReport Pages: 1 -->
<svg width="194pt" height="231pt"
 viewBox="0.00 0.00 194.00 231.00" xmlns="http://www.w3.org/2000/svg" xmlns:xlink="http://www.w3.org/1999/xlink">
<g id="graph0" class="graph" transform="scale(1 1) rotate(0) translate(4 227)">
<title>DevicePausedReport</title>
<polygon fill="#ffffff" stroke="transparent" points="-4,4 -4,-227 190,-227 190,4 -4,4"/>
<!-- Node2 -->
<g id="node1" class="node">
<title>Node2</title>
<polygon fill="#bfbfbf" stroke="#000000" points="56,-.5 56,-19.5 172,-19.5 172,-.5 56,-.5"/>
<text text-anchor="middle" x="114" y="-7.5" font-family="Helvetica,sans-Serif" font-size="10.00" fill="#000000">DevicePausedReport</text>
</g>
<!-- Node3 -->
<g id="node2" class="node">
<title>Node3</title>
<g id="a_node2"><a xlink:href="class_report_event.html" target="_top" xlink:title="ReportEvent">
<polygon fill="#ffffff" stroke="#000000" points="76,-57.5 76,-76.5 152,-76.5 152,-57.5 76,-57.5"/>
<text text-anchor="middle" x="114" y="-64.5" font-family="Helvetica,sans-Serif" font-size="10.00" fill="#000000">ReportEvent</text>
</a>
</g>
</g>
<!-- Node3&#45;&gt;Node2 -->
<g id="edge1" class="edge">
<title>Node3&#45;&gt;Node2</title>
<path fill="none" stroke="#191970" d="M114,-47.2342C114,-37.8491 114,-27.0651 114,-19.5265"/>
<polygon fill="#191970" stroke="#191970" points="110.5001,-47.3307 114,-57.3307 117.5001,-47.3308 110.5001,-47.3307"/>
</g>
<!-- Node4 -->
<g id="node3" class="node">
<title>Node4</title>
<g id="a_node3"><a xlink:title="STL class. ">
<polygon fill="#ffffff" stroke="#bfbfbf" points="19.5,-135.5 19.5,-154.5 84.5,-154.5 84.5,-135.5 19.5,-135.5"/>
<text text-anchor="middle" x="52" y="-142.5" font-family="Helvetica,sans-Serif" font-size="10.00" fill="#000000">std::string</text>
</a>
</g>
</g>
<!-- Node4&#45;&gt;Node3 -->
<g id="edge2" class="edge">
<title>Node4&#45;&gt;Node3</title>
<path fill="none" stroke="#9a32cd" stroke-dasharray="5,2" d="M65.9019,-127.5105C78.3893,-111.8005 96.263,-89.3143 106.3354,-76.6426"/>
<polygon fill="#9a32cd" stroke="#9a32cd" points="63.085,-125.4295 59.6024,-135.4357 68.5648,-129.7853 63.085,-125.4295"/>
<text text-anchor="middle" x="103.5" y="-109" font-family="Helvetica,sans-Serif" font-size="10.00" fill="#000000"> type</text>
<text text-anchor="middle" x="103.5" y="-98" font-family="Helvetica,sans-Serif" font-size="10.00" fill="#000000">id</text>
</g>
<!-- Node5 -->
<g id="node4" class="node">
<title>Node5</title>
<g id="a_node4"><a xlink:title="STL class. ">
<polygon fill="#ffffff" stroke="#bfbfbf" points="0,-192.5 0,-222.5 104,-222.5 104,-192.5 0,-192.5"/>
<text text-anchor="start" x="8" y="-210.5" font-family="Helvetica,sans-Serif" font-size="10.00" fill="#000000">std::basic_string&lt;</text>
<text text-anchor="middle" x="52" y="-199.5" font-family="Helvetica,sans-Serif" font-size="10.00" fill="#000000"> char &gt;</text>
</a>
</g>
</g>
<!-- Node5&#45;&gt;Node4 -->
<g id="edge3" class="edge">
<title>Node5&#45;&gt;Node4</title>
<path fill="none" stroke="#191970" d="M52,-182.3498C52,-172.6481 52,-162.1303 52,-154.7356"/>
<polygon fill="#191970" stroke="#191970" points="48.5001,-182.3705 52,-192.3705 55.5001,-182.3705 48.5001,-182.3705"/>
</g>
<!-- Node6 -->
<g id="node5" class="node">
<title>Node6</title>
<g id="a_node5"><a xlink:href="class_time_stamp.html" target="_top" xlink:title="TimeStamp">
<polygon fill="#ffffff" stroke="#000000" points="102.5,-135.5 102.5,-154.5 175.5,-154.5 175.5,-135.5 102.5,-135.5"/>
<text text-anchor="middle" x="139" y="-142.5" font-family="Helvetica,sans-Serif" font-size="10.00" fill="#000000">TimeStamp</text>
</a>
</g>
</g>
<!-- Node6&#45;&gt;Node3 -->
<g id="edge4" class="edge">
<title>Node6&#45;&gt;Node3</title>
<path fill="none" stroke="#9a32cd" stroke-dasharray="5,2" d="M132.8262,-125.7379C127.8296,-110.1484 121.0016,-88.845 117.0906,-76.6426"/>
<polygon fill="#9a32cd" stroke="#9a32cd" points="129.5493,-126.9811 135.9345,-135.4357 136.2152,-124.8446 129.5493,-126.9811"/>
<text text-anchor="middle" x="157.5" y="-103.5" font-family="Helvetica,sans-Serif" font-size="10.00" fill="#000000"> timestamp</text>
</g>
</g>
</svg>
