<?xml version="1.0" encoding="UTF-8" standalone="no"?>
<!DOCTYPE svg PUBLIC "-//W3C//DTD SVG 1.1//EN"
 "http://www.w3.org/Graphics/SVG/1.1/DTD/svg11.dtd">
<!-- Generated by graphviz version 2.40.1 (20161225.0304)
 -->
<!-- Title: StorageTargetRHandle::ReadError Pages: 1 -->
<svg width="133pt" height="151pt"
 viewBox="0.00 0.00 133.00 151.00" xmlns="http://www.w3.org/2000/svg" xmlns:xlink="http://www.w3.org/1999/xlink">
<g id="graph0" class="graph" transform="scale(1 1) rotate(0) translate(4 147)">
<title>StorageTargetRHandle::ReadError</title>
<polygon fill="#ffffff" stroke="transparent" points="-4,4 -4,-147 129,-147 129,4 -4,4"/>
<!-- Node0 -->
<g id="node1" class="node">
<title>Node0</title>
<polygon fill="#bfbfbf" stroke="#000000" points="0,-.5 0,-30.5 125,-30.5 125,-.5 0,-.5"/>
<text text-anchor="start" x="8" y="-18.5" font-family="Helvetica,sans-Serif" font-size="10.00" fill="#000000">StorageTargetRHandle</text>
<text text-anchor="middle" x="62.5" y="-7.5" font-family="Helvetica,sans-Serif" font-size="10.00" fill="#000000">::ReadError</text>
</g>
<!-- Node1 -->
<g id="node2" class="node">
<title>Node1</title>
<g id="a_node2"><a xlink:title="STL class. ">
<polygon fill="#ffffff" stroke="#bfbfbf" points="10.5,-67.5 10.5,-86.5 114.5,-86.5 114.5,-67.5 10.5,-67.5"/>
<text text-anchor="middle" x="62.5" y="-74.5" font-family="Helvetica,sans-Serif" font-size="10.00" fill="#000000">std::runtime_error</text>
</a>
</g>
</g>
<!-- Node1&#45;&gt;Node0 -->
<g id="edge1" class="edge">
<title>Node1&#45;&gt;Node0</title>
<path fill="none" stroke="#191970" d="M62.5,-57.3693C62.5,-48.681 62.5,-38.6241 62.5,-30.5446"/>
<polygon fill="#191970" stroke="#191970" points="59.0001,-57.3906 62.5,-67.3906 66.0001,-57.3907 59.0001,-57.3906"/>
</g>
<!-- Node2 -->
<g id="node3" class="node">
<title>Node2</title>
<g id="a_node3"><a xlink:title="STL class. ">
<polygon fill="#ffffff" stroke="#bfbfbf" points="19.5,-123.5 19.5,-142.5 105.5,-142.5 105.5,-123.5 19.5,-123.5"/>
<text text-anchor="middle" x="62.5" y="-130.5" font-family="Helvetica,sans-Serif" font-size="10.00" fill="#000000">std::exception</text>
</a>
</g>
</g>
<!-- Node2&#45;&gt;Node1 -->
<g id="edge2" class="edge">
<title>Node2&#45;&gt;Node1</title>
<path fill="none" stroke="#191970" d="M62.5,-113.1575C62.5,-104.155 62.5,-93.9199 62.5,-86.6427"/>
<polygon fill="#191970" stroke="#191970" points="59.0001,-113.2455 62.5,-123.2455 66.0001,-113.2456 59.0001,-113.2455"/>
</g>
</g>
</svg>
