<?xml version="1.0" encoding="UTF-8" standalone="no"?>
<!DOCTYPE svg PUBLIC "-//W3C//DTD SVG 1.1//EN"
 "http://www.w3.org/Graphics/SVG/1.1/DTD/svg11.dtd">
<!-- Generated by graphviz version 2.40.1 (20161225.0304)
 -->
<!-- Title: HttpFake Pages: 1 -->
<!--zoomable 864 -->
<svg id="main" version="1.1" xmlns="http://www.w3.org/2000/svg" xmlns:xlink="http://www.w3.org/1999/xlink" xml:space="preserve" onload="init(evt)">
<style type="text/css"><![CDATA[
.edge:hover path { stroke: red; }
.edge:hover polygon { stroke: red; fill: red; }
]]></style>
<script type="text/javascript"><![CDATA[
var edges = document.getElementsByTagName('g');
if (edges && edges.length) {
  for (var i=0;i<edges.length;i++) {
    if (edges[i].id.substr(0,4)=='edge') {
      edges[i].setAttribute('class','edge');
    }
  }
}
]]></script>
        <defs>
                <circle id="rim" cx="0" cy="0" r="7"/>
                <circle id="rim2" cx="0" cy="0" r="3.5"/>
                <g id="zoomPlus">
                        <use xlink:href="#rim" fill="#404040">
                                <set attributeName="fill" to="#808080" begin="zoomplus.mouseover" end="zoomplus.mouseout"/>
                        </use>
                        <path d="M-4,0h8M0,-4v8" fill="none" stroke="white" stroke-width="1.5" pointer-events="none"/>
                </g>
                <g id="zoomMin">
                        <use xlink:href="#rim" fill="#404040">
                                <set attributeName="fill" to="#808080" begin="zoomminus.mouseover" end="zoomminus.mouseout"/>
                        </use>
                        <path d="M-4,0h8" fill="none" stroke="white" stroke-width="1.5" pointer-events="none"/>
                </g>
                <g id="dirArrow">
                        <path fill="none" stroke="white" stroke-width="1.5" d="M0,-3.0v7 M-2.5,-0.5L0,-3.0L2.5,-0.5"/>
                </g>
               <g id="resetDef">
                       <use xlink:href="#rim2" fill="#404040">
                               <set attributeName="fill" to="#808080" begin="reset.mouseover" end="reset.mouseout"/>
                       </use>
               </g>
        </defs>

<script type="text/javascript">
var viewWidth = 373;
var viewHeight = 864;
var sectionId = 'dynsection-0';
</script>
<script xlink:href="svgpan.js"/>
<svg id="graph" class="graph">
<g id="viewport">
<title>HttpFake</title>
<polygon fill="#ffffff" stroke="transparent" points="-4,4 -4,-860 369,-860 369,4 -4,4"/>
<!-- Node0 -->
<g id="node1" class="node">
<title>Node0</title>
<polygon fill="#bfbfbf" stroke="#000000" points="117,-399.5 117,-418.5 177,-418.5 177,-399.5 117,-399.5"/>
<text text-anchor="middle" x="147" y="-406.5" font-family="Helvetica,sans-Serif" font-size="10.00" fill="#000000">HttpFake</text>
</g>
<!-- Node2 -->
<g id="node3" class="node">
<title>Node2</title>
<g id="a_node3"><a xlink:href="class_http_check_url.html" target="_top" xlink:title="HttpCheckUrl">
<polygon fill="#ffffff" stroke="#000000" points="248,-836.5 248,-855.5 330,-855.5 330,-836.5 248,-836.5"/>
<text text-anchor="middle" x="289" y="-843.5" font-family="Helvetica,sans-Serif" font-size="10.00" fill="#000000">HttpCheckUrl</text>
</a>
</g>
</g>
<!-- Node0&#45;&gt;Node2 -->
<g id="edge2" class="edge">
<title>Node0&#45;&gt;Node2</title>
<path fill="none" stroke="#191970" d="M147.3383,-429.1634C149.0166,-504.4364 158.7339,-767.7129 213,-827 221.9073,-836.7315 234.9759,-841.8162 247.7734,-844.3783"/>
<polygon fill="#191970" stroke="#191970" points="150.8296,-428.6856 147.1324,-418.7568 143.831,-428.8241 150.8296,-428.6856"/>
</g>
<!-- Node3 -->
<g id="node4" class="node">
<title>Node3</title>
<g id="a_node4"><a xlink:href="class_http_custom_uri.html" target="_top" xlink:title="HttpCustomUri">
<polygon fill="#ffffff" stroke="#000000" points="244.5,-798.5 244.5,-817.5 333.5,-817.5 333.5,-798.5 244.5,-798.5"/>
<text text-anchor="middle" x="289" y="-805.5" font-family="Helvetica,sans-Serif" font-size="10.00" fill="#000000">HttpCustomUri</text>
</a>
</g>
</g>
<!-- Node0&#45;&gt;Node3 -->
<g id="edge3" class="edge">
<title>Node0&#45;&gt;Node3</title>
<path fill="none" stroke="#191970" d="M147.6693,-428.679C150.4592,-498.8833 163.4462,-735.6895 213,-789 221.1485,-797.7662 232.6753,-802.7508 244.2951,-805.5177"/>
<polygon fill="#191970" stroke="#191970" points="151.1624,-428.4267 147.2936,-418.5635 144.1672,-428.6865 151.1624,-428.4267"/>
</g>
<!-- Node4 -->
<g id="node5" class="node">
<title>Node4</title>
<g id="a_node5"><a xlink:href="class_http_default_uri.html" target="_top" xlink:title="HttpDefaultUri">
<polygon fill="#ffffff" stroke="#000000" points="245,-760.5 245,-779.5 333,-779.5 333,-760.5 245,-760.5"/>
<text text-anchor="middle" x="289" y="-767.5" font-family="Helvetica,sans-Serif" font-size="10.00" fill="#000000">HttpDefaultUri</text>
</a>
</g>
</g>
<!-- Node0&#45;&gt;Node4 -->
<g id="edge4" class="edge">
<title>Node0&#45;&gt;Node4</title>
<path fill="none" stroke="#191970" d="M148.0919,-428.7964C152.1167,-494.4893 168.2818,-703.7833 213,-751 221.3235,-759.7885 233.0453,-764.7627 244.7965,-767.5125"/>
<polygon fill="#191970" stroke="#191970" points="151.5726,-428.3613 147.4947,-418.5827 144.5845,-428.77 151.5726,-428.3613"/>
</g>
<!-- Node5 -->
<g id="node6" class="node">
<title>Node5</title>
<g id="a_node6"><a xlink:href="class_http_download_failure.html" target="_top" xlink:title="HttpDownloadFailure">
<polygon fill="#ffffff" stroke="#000000" points="229.5,-722.5 229.5,-741.5 348.5,-741.5 348.5,-722.5 229.5,-722.5"/>
<text text-anchor="middle" x="289" y="-729.5" font-family="Helvetica,sans-Serif" font-size="10.00" fill="#000000">HttpDownloadFailure</text>
</a>
</g>
</g>
<!-- Node0&#45;&gt;Node5 -->
<g id="edge5" class="edge">
<title>Node0&#45;&gt;Node5</title>
<path fill="none" stroke="#191970" d="M148.6238,-428.9383C153.9844,-489.847 173.0965,-671.832 213,-713 217.6383,-717.7853 223.2853,-721.4347 229.3851,-724.2079"/>
<polygon fill="#191970" stroke="#191970" points="152.0914,-428.4081 147.7568,-418.7406 145.1166,-429.0011 152.0914,-428.4081"/>
</g>
<!-- Node6 -->
<g id="node7" class="node">
<title>Node6</title>
<g id="a_node7"><a xlink:href="class_http_fake_campaign.html" target="_top" xlink:title="HttpFakeCampaign">
<polygon fill="#ffffff" stroke="#000000" points="234,-684.5 234,-703.5 344,-703.5 344,-684.5 234,-684.5"/>
<text text-anchor="middle" x="289" y="-691.5" font-family="Helvetica,sans-Serif" font-size="10.00" fill="#000000">HttpFakeCampaign</text>
</a>
</g>
</g>
<!-- Node0&#45;&gt;Node6 -->
<g id="edge6" class="edge">
<title>Node0&#45;&gt;Node6</title>
<path fill="none" stroke="#191970" d="M149.2503,-428.5995C155.9943,-483.9493 177.7778,-639.7154 213,-675 218.7651,-680.7753 226.0026,-684.8872 233.7057,-687.798"/>
<polygon fill="#191970" stroke="#191970" points="152.7252,-428.1797 148.0712,-418.6618 145.7739,-429.0046 152.7252,-428.1797"/>
</g>
<!-- Node7 -->
<g id="node8" class="node">
<title>Node7</title>
<g id="a_node8"><a xlink:href="class_http_fake_delegation.html" target="_top" xlink:title="HttpFakeDelegation">
<polygon fill="#ffffff" stroke="#000000" points="232.5,-646.5 232.5,-665.5 345.5,-665.5 345.5,-646.5 232.5,-646.5"/>
<text text-anchor="middle" x="289" y="-653.5" font-family="Helvetica,sans-Serif" font-size="10.00" fill="#000000">HttpFakeDelegation</text>
</a>
</g>
</g>
<!-- Node0&#45;&gt;Node7 -->
<g id="edge7" class="edge">
<title>Node0&#45;&gt;Node7</title>
<path fill="none" stroke="#191970" d="M150.1335,-428.6912C158.4448,-478.4964 182.5152,-607.6167 213,-637 218.4837,-642.2856 225.205,-646.1679 232.36,-649.0079"/>
<polygon fill="#191970" stroke="#191970" points="153.5485,-427.8861 148.4826,-418.5809 146.64,-429.0143 153.5485,-427.8861"/>
</g>
<!-- Node8 -->
<g id="node9" class="node">
<title>Node8</title>
<g id="a_node9"><a xlink:href="class_http_fake_device_registration.html" target="_top" xlink:title="HttpFakeDeviceRegistration">
<polygon fill="#ffffff" stroke="#000000" points="213,-608.5 213,-627.5 365,-627.5 365,-608.5 213,-608.5"/>
<text text-anchor="middle" x="289" y="-615.5" font-family="Helvetica,sans-Serif" font-size="10.00" fill="#000000">HttpFakeDeviceRegistration</text>
</a>
</g>
</g>
<!-- Node0&#45;&gt;Node8 -->
<g id="edge8" class="edge">
<title>Node0&#45;&gt;Node8</title>
<path fill="none" stroke="#191970" d="M147.9443,-429.0284C150.8896,-467.7987 163.0224,-553.2996 213,-599 217.2155,-602.8547 222.0935,-605.956 227.303,-608.4474"/>
<polygon fill="#191970" stroke="#191970" points="151.4092,-428.355 147.2934,-418.5923 144.4227,-428.7908 151.4092,-428.355"/>
</g>
<!-- Node9 -->
<g id="node10" class="node">
<title>Node9</title>
<g id="a_node10"><a xlink:href="class_http_fake_ecu_registration.html" target="_top" xlink:title="HttpFakeEcuRegistration">
<polygon fill="#ffffff" stroke="#000000" points="221,-570.5 221,-589.5 357,-589.5 357,-570.5 221,-570.5"/>
<text text-anchor="middle" x="289" y="-577.5" font-family="Helvetica,sans-Serif" font-size="10.00" fill="#000000">HttpFakeEcuRegistration</text>
</a>
</g>
</g>
<!-- Node0&#45;&gt;Node9 -->
<g id="edge9" class="edge">
<title>Node0&#45;&gt;Node9</title>
<path fill="none" stroke="#191970" d="M149.859,-428.6162C155.6673,-461.1744 171.9685,-526.2242 213,-561 217.5652,-564.8692 222.8062,-567.9696 228.3558,-570.4512"/>
<polygon fill="#191970" stroke="#191970" points="153.2827,-427.8641 148.2188,-418.5578 146.3739,-428.9908 153.2827,-427.8641"/>
</g>
<!-- Node10 -->
<g id="node11" class="node">
<title>Node10</title>
<g id="a_node11"><a xlink:href="class_http_fake_event_counter.html" target="_top" xlink:title="HttpFakeEventCounter">
<polygon fill="#ffffff" stroke="#000000" points="226,-532.5 226,-551.5 352,-551.5 352,-532.5 226,-532.5"/>
<text text-anchor="middle" x="289" y="-539.5" font-family="Helvetica,sans-Serif" font-size="10.00" fill="#000000">HttpFakeEventCounter</text>
</a>
</g>
</g>
<!-- Node0&#45;&gt;Node10 -->
<g id="edge10" class="edge">
<title>Node0&#45;&gt;Node10</title>
<path fill="none" stroke="#191970" d="M152.9069,-428.4012C161.737,-454.0471 180.871,-498.8033 213,-523 218.1062,-526.8455 223.8991,-529.9194 229.9546,-532.3754"/>
<polygon fill="#191970" stroke="#191970" points="156.1707,-427.12 149.7457,-418.6957 149.5149,-429.288 156.1707,-427.12"/>
</g>
<!-- Node11 -->
<g id="node12" class="node">
<title>Node11</title>
<g id="a_node12"><a xlink:href="class_http_fake_events.html" target="_top" xlink:title="HttpFakeEvents">
<polygon fill="#ffffff" stroke="#000000" points="242.5,-494.5 242.5,-513.5 335.5,-513.5 335.5,-494.5 242.5,-494.5"/>
<text text-anchor="middle" x="289" y="-501.5" font-family="Helvetica,sans-Serif" font-size="10.00" fill="#000000">HttpFakeEvents</text>
</a>
</g>
</g>
<!-- Node0&#45;&gt;Node11 -->
<g id="edge11" class="edge">
<title>Node0&#45;&gt;Node11</title>
<path fill="none" stroke="#191970" d="M158.1274,-427.3301C169.6857,-444.792 189.3728,-470.5029 213,-485 221.8102,-490.4057 232.0876,-494.2763 242.1845,-497.0469"/>
<polygon fill="#191970" stroke="#191970" points="160.8926,-425.1564 152.569,-418.6013 154.9881,-428.9163 160.8926,-425.1564"/>
</g>
<!-- Node12 -->
<g id="node13" class="node">
<title>Node12</title>
<g id="a_node13"><a xlink:href="class_http_fake_meta_counter.html" target="_top" xlink:title="HttpFakeMetaCounter">
<polygon fill="#ffffff" stroke="#000000" points="228,-456.5 228,-475.5 350,-475.5 350,-456.5 228,-456.5"/>
<text text-anchor="middle" x="289" y="-463.5" font-family="Helvetica,sans-Serif" font-size="10.00" fill="#000000">HttpFakeMetaCounter</text>
</a>
</g>
</g>
<!-- Node0&#45;&gt;Node12 -->
<g id="edge12" class="edge">
<title>Node0&#45;&gt;Node12</title>
<path fill="none" stroke="#191970" d="M169.8064,-424.2361C182.1668,-431.9431 197.9541,-440.926 213,-447 222.2065,-450.7166 232.3423,-453.8586 242.1287,-456.4514"/>
<polygon fill="#191970" stroke="#191970" points="171.4012,-421.1014 161.0913,-418.6604 167.6287,-426.9979 171.4012,-421.1014"/>
</g>
<!-- Node13 -->
<g id="node14" class="node">
<title>Node13</title>
<g id="a_node14"><a xlink:href="class_http_fake_no_correlation_id.html" target="_top" xlink:title="HttpFakeNoCorrelationId">
<polygon fill="#ffffff" stroke="#000000" points="220.5,-418.5 220.5,-437.5 357.5,-437.5 357.5,-418.5 220.5,-418.5"/>
<text text-anchor="middle" x="289" y="-425.5" font-family="Helvetica,sans-Serif" font-size="10.00" fill="#000000">HttpFakeNoCorrelationId</text>
</a>
</g>
</g>
<!-- Node0&#45;&gt;Node13 -->
<g id="edge13" class="edge">
<title>Node0&#45;&gt;Node13</title>
<path fill="none" stroke="#191970" d="M187.0925,-414.3645C197.4797,-415.7543 208.9634,-417.2909 220.3657,-418.8165"/>
<polygon fill="#191970" stroke="#191970" points="187.4904,-410.8866 177.1145,-413.0294 186.562,-417.8248 187.4904,-410.8866"/>
</g>
<!-- Node14 -->
<g id="node15" class="node">
<title>Node14</title>
<g id="a_node15"><a xlink:href="class_http_fake_pause_counter.html" target="_top" xlink:title="HttpFakePauseCounter">
<polygon fill="#ffffff" stroke="#000000" points="225.5,-380.5 225.5,-399.5 352.5,-399.5 352.5,-380.5 225.5,-380.5"/>
<text text-anchor="middle" x="289" y="-387.5" font-family="Helvetica,sans-Serif" font-size="10.00" fill="#000000">HttpFakePauseCounter</text>
</a>
</g>
</g>
<!-- Node0&#45;&gt;Node14 -->
<g id="edge14" class="edge">
<title>Node0&#45;&gt;Node14</title>
<path fill="none" stroke="#191970" d="M187.1445,-403.6285C199.0278,-402.0385 212.3427,-400.257 225.3272,-398.5196"/>
<polygon fill="#191970" stroke="#191970" points="186.562,-400.1752 177.1145,-404.9706 187.4904,-407.1134 186.562,-400.1752"/>
</g>
<!-- Node15 -->
<g id="node16" class="node">
<title>Node15</title>
<g id="a_node16"><a xlink:href="class_http_fake_prov.html" target="_top" xlink:title="Check that basic device info sent by aktualizr during provisioning matches our expectations. ">
<polygon fill="#ffffff" stroke="#000000" points="248,-342.5 248,-361.5 330,-361.5 330,-342.5 248,-342.5"/>
<text text-anchor="middle" x="289" y="-349.5" font-family="Helvetica,sans-Serif" font-size="10.00" fill="#000000">HttpFakeProv</text>
</a>
</g>
</g>
<!-- Node0&#45;&gt;Node15 -->
<g id="edge15" class="edge">
<title>Node0&#45;&gt;Node15</title>
<path fill="none" stroke="#191970" d="M169.8064,-393.7639C182.1668,-386.0569 197.9541,-377.074 213,-371 223.9721,-366.5706 236.2641,-362.9574 247.7117,-360.1172"/>
<polygon fill="#191970" stroke="#191970" points="167.6287,-391.0021 161.0913,-399.3396 171.4012,-396.8986 167.6287,-391.0021"/>
</g>
<!-- Node16 -->
<g id="node17" class="node">
<title>Node16</title>
<g id="a_node17"><a xlink:href="class_http_fake_put_counter.html" target="_top" xlink:title="HttpFakePutCounter">
<polygon fill="#ffffff" stroke="#000000" points="232,-304.5 232,-323.5 346,-323.5 346,-304.5 232,-304.5"/>
<text text-anchor="middle" x="289" y="-311.5" font-family="Helvetica,sans-Serif" font-size="10.00" fill="#000000">HttpFakePutCounter</text>
</a>
</g>
</g>
<!-- Node0&#45;&gt;Node16 -->
<g id="edge16" class="edge">
<title>Node0&#45;&gt;Node16</title>
<path fill="none" stroke="#191970" d="M158.1274,-390.6699C169.6857,-373.208 189.3728,-347.4971 213,-333 219.3758,-329.088 226.52,-325.9799 233.8081,-323.5109"/>
<polygon fill="#191970" stroke="#191970" points="154.9881,-389.0837 152.569,-399.3987 160.8926,-392.8436 154.9881,-389.0837"/>
</g>
<!-- Node17 -->
<g id="node18" class="node">
<title>Node17</title>
<g id="a_node18"><a xlink:href="class_http_fake_rq.html" target="_top" xlink:title="HttpFakeRq">
<polygon fill="#ffffff" stroke="#000000" points="252.5,-266.5 252.5,-285.5 325.5,-285.5 325.5,-266.5 252.5,-266.5"/>
<text text-anchor="middle" x="289" y="-273.5" font-family="Helvetica,sans-Serif" font-size="10.00" fill="#000000">HttpFakeRq</text>
</a>
</g>
</g>
<!-- Node0&#45;&gt;Node17 -->
<g id="edge17" class="edge">
<title>Node0&#45;&gt;Node17</title>
<path fill="none" stroke="#191970" d="M152.9069,-389.5988C161.737,-363.9529 180.871,-319.1967 213,-295 224.2987,-286.4908 238.9602,-281.7596 252.3875,-279.1411"/>
<polygon fill="#191970" stroke="#191970" points="149.5149,-388.712 149.7457,-399.3043 156.1707,-390.88 149.5149,-388.712"/>
</g>
<!-- Node18 -->
<g id="node19" class="node">
<title>Node18</title>
<g id="a_node19"><a xlink:href="class_http_fake_split.html" target="_top" xlink:title="HttpFakeSplit">
<polygon fill="#ffffff" stroke="#000000" points="248,-228.5 248,-247.5 330,-247.5 330,-228.5 248,-228.5"/>
<text text-anchor="middle" x="289" y="-235.5" font-family="Helvetica,sans-Serif" font-size="10.00" fill="#000000">HttpFakeSplit</text>
</a>
</g>
</g>
<!-- Node0&#45;&gt;Node18 -->
<g id="edge18" class="edge">
<title>Node0&#45;&gt;Node18</title>
<path fill="none" stroke="#191970" d="M149.859,-389.3838C155.6673,-356.8256 171.9685,-291.7758 213,-257 222.7528,-248.7341 235.5903,-243.9767 247.9321,-241.2658"/>
<polygon fill="#191970" stroke="#191970" points="146.3739,-389.0092 148.2188,-399.4422 153.2827,-390.1359 146.3739,-389.0092"/>
</g>
<!-- Node19 -->
<g id="node20" class="node">
<title>Node19</title>
<g id="a_node20"><a xlink:href="class_http_fake_unstable.html" target="_top" xlink:title="HttpFakeUnstable">
<polygon fill="#ffffff" stroke="#000000" points="237,-190.5 237,-209.5 341,-209.5 341,-190.5 237,-190.5"/>
<text text-anchor="middle" x="289" y="-197.5" font-family="Helvetica,sans-Serif" font-size="10.00" fill="#000000">HttpFakeUnstable</text>
</a>
</g>
</g>
<!-- Node0&#45;&gt;Node19 -->
<g id="edge19" class="edge">
<title>Node0&#45;&gt;Node19</title>
<path fill="none" stroke="#191970" d="M147.9443,-388.9716C150.8896,-350.2013 163.0224,-264.7004 213,-219 219.7247,-212.8508 228.1352,-208.6189 236.8885,-205.7219"/>
<polygon fill="#191970" stroke="#191970" points="144.4227,-389.2092 147.2934,-399.4077 151.4092,-389.645 144.4227,-389.2092"/>
</g>
<!-- Node20 -->
<g id="node21" class="node">
<title>Node20</title>
<g id="a_node21"><a xlink:href="class_http_put_manifest_fail.html" target="_top" xlink:title="HttpPutManifestFail">
<polygon fill="#ffffff" stroke="#000000" points="233,-152.5 233,-171.5 345,-171.5 345,-152.5 233,-152.5"/>
<text text-anchor="middle" x="289" y="-159.5" font-family="Helvetica,sans-Serif" font-size="10.00" fill="#000000">HttpPutManifestFail</text>
</a>
</g>
</g>
<!-- Node0&#45;&gt;Node20 -->
<g id="edge20" class="edge">
<title>Node0&#45;&gt;Node20</title>
<path fill="none" stroke="#191970" d="M149.4952,-389.2065C157.1502,-337.5457 181.6925,-202.1763 213,-172 218.5816,-166.6201 225.4454,-162.6939 232.7437,-159.9403"/>
<polygon fill="#191970" stroke="#191970" points="145.9871,-389.0182 148.0525,-399.4097 152.9182,-389.9983 145.9871,-389.0182"/>
</g>
<!-- Node0&#45;&gt;Node20 -->
<g id="edge21" class="edge">
<title>Node0&#45;&gt;Node20</title>
<path fill="none" stroke="#191970" d="M150.9057,-389.4667C159.863,-341.0113 183.4098,-218.521 213,-190 223.8695,-179.5233 239.6013,-174.5598 253.9355,-171.5645"/>
<polygon fill="#191970" stroke="#191970" points="147.4523,-388.8942 149.0821,-399.3629 154.3364,-390.1628 147.4523,-388.8942"/>
</g>
<!-- Node21 -->
<g id="node22" class="node">
<title>Node21</title>
<g id="a_node22"><a xlink:href="class_http_reject_empty_corr_id.html" target="_top" xlink:title="HttpRejectEmptyCorrId">
<polygon fill="#ffffff" stroke="#000000" points="225,-114.5 225,-133.5 353,-133.5 353,-114.5 225,-114.5"/>
<text text-anchor="middle" x="289" y="-121.5" font-family="Helvetica,sans-Serif" font-size="10.00" fill="#000000">HttpRejectEmptyCorrId</text>
</a>
</g>
</g>
<!-- Node0&#45;&gt;Node21 -->
<g id="edge22" class="edge">
<title>Node0&#45;&gt;Node21</title>
<path fill="none" stroke="#191970" d="M149.2503,-389.4005C155.9943,-334.0507 177.7778,-178.2846 213,-143 216.8434,-139.1498 221.3412,-136.0389 226.1951,-133.5303"/>
<polygon fill="#191970" stroke="#191970" points="145.7739,-388.9954 148.0712,-399.3382 152.7252,-389.8203 145.7739,-388.9954"/>
</g>
<!-- Node22 -->
<g id="node23" class="node">
<title>Node22</title>
<g id="a_node23"><a xlink:href="class_http_system_info.html" target="_top" xlink:title="HttpSystemInfo">
<polygon fill="#ffffff" stroke="#000000" points="242.5,-76.5 242.5,-95.5 335.5,-95.5 335.5,-76.5 242.5,-76.5"/>
<text text-anchor="middle" x="289" y="-83.5" font-family="Helvetica,sans-Serif" font-size="10.00" fill="#000000">HttpSystemInfo</text>
</a>
</g>
</g>
<!-- Node0&#45;&gt;Node22 -->
<g id="edge23" class="edge">
<title>Node0&#45;&gt;Node22</title>
<path fill="none" stroke="#191970" d="M148.6238,-389.0617C153.9844,-328.153 173.0965,-146.168 213,-105 220.762,-96.992 231.3491,-92.1648 242.1551,-89.3022"/>
<polygon fill="#191970" stroke="#191970" points="145.1166,-388.9989 147.7568,-399.2594 152.0914,-389.5919 145.1166,-388.9989"/>
</g>
<!-- Node23 -->
<g id="node24" class="node">
<title>Node23</title>
<g id="a_node24"><a xlink:href="class_http_unstable.html" target="_top" xlink:title="HttpUnstable">
<polygon fill="#ffffff" stroke="#000000" points="248.5,-38.5 248.5,-57.5 329.5,-57.5 329.5,-38.5 248.5,-38.5"/>
<text text-anchor="middle" x="289" y="-45.5" font-family="Helvetica,sans-Serif" font-size="10.00" fill="#000000">HttpUnstable</text>
</a>
</g>
</g>
<!-- Node0&#45;&gt;Node23 -->
<g id="edge24" class="edge">
<title>Node0&#45;&gt;Node23</title>
<path fill="none" stroke="#191970" d="M148.0919,-389.2036C152.1167,-323.5107 168.2818,-114.2167 213,-67 222.1652,-57.3228 235.4507,-52.2703 248.3588,-49.7199"/>
<polygon fill="#191970" stroke="#191970" points="144.5845,-389.23 147.4947,-399.4173 151.5726,-389.6387 144.5845,-389.23"/>
</g>
<!-- Node24 -->
<g id="node25" class="node">
<title>Node24</title>
<g id="a_node25"><a xlink:href="class_http_zero_length.html" target="_top" xlink:title="HttpZeroLength">
<polygon fill="#ffffff" stroke="#000000" points="242.5,-.5 242.5,-19.5 335.5,-19.5 335.5,-.5 242.5,-.5"/>
<text text-anchor="middle" x="289" y="-7.5" font-family="Helvetica,sans-Serif" font-size="10.00" fill="#000000">HttpZeroLength</text>
</a>
</g>
</g>
<!-- Node0&#45;&gt;Node24 -->
<g id="edge25" class="edge">
<title>Node0&#45;&gt;Node24</title>
<path fill="none" stroke="#191970" d="M147.6693,-389.321C150.4592,-319.1167 163.4462,-82.3105 213,-29 220.6855,-20.7319 231.3764,-15.8279 242.316,-12.9757"/>
<polygon fill="#191970" stroke="#191970" points="144.1672,-389.3135 147.2936,-399.4365 151.1624,-389.5733 144.1672,-389.3135"/>
</g>
<!-- Node1 -->
<g id="node2" class="node">
<title>Node1</title>
<g id="a_node2"><a xlink:href="class_http_interface.html" target="_top" xlink:title="HttpInterface">
<polygon fill="#ffffff" stroke="#000000" points="0,-399.5 0,-418.5 81,-418.5 81,-399.5 0,-399.5"/>
<text text-anchor="middle" x="40.5" y="-406.5" font-family="Helvetica,sans-Serif" font-size="10.00" fill="#000000">HttpInterface</text>
</a>
</g>
</g>
<!-- Node1&#45;&gt;Node0 -->
<g id="edge1" class="edge">
<title>Node1&#45;&gt;Node0</title>
<path fill="none" stroke="#191970" d="M91.2409,-409C99.9915,-409 108.8326,-409 116.8162,-409"/>
<polygon fill="#191970" stroke="#191970" points="91.0669,-405.5001 81.0669,-409 91.0669,-412.5001 91.0669,-405.5001"/>
</g>
</g>
</svg>
        <g id="navigator" transform="translate(0 0)" fill="#404254">
                <rect fill="#f2f5e9" fill-opacity="0.5" stroke="#606060" stroke-width=".5" x="0" y="0" width="60" height="60"/>
                <use id="zoomplus" xlink:href="#zoomPlus" x="17" y="9" onmousedown="handleZoom(evt,'in')"/>
                <use id="zoomminus" xlink:href="#zoomMin" x="42" y="9" onmousedown="handleZoom(evt,'out')"/>
                <use id="reset" xlink:href="#resetDef" x="30" y="36" onmousedown="handleReset()"/>
                <g id="arrowUp" xlink:href="#dirArrow" transform="translate(30 24)" onmousedown="handlePan(0,-1)">
                  <use xlink:href="#rim" fill="#404040">
                        <set attributeName="fill" to="#808080" begin="arrowUp.mouseover" end="arrowUp.mouseout"/>
                  </use>
                  <path fill="none" stroke="white" stroke-width="1.5" d="M0,-3.0v7 M-2.5,-0.5L0,-3.0L2.5,-0.5"/>
                </g>
                <g id="arrowRight" xlink:href="#dirArrow" transform="rotate(90) translate(36 -43)" onmousedown="handlePan(1,0)">
                  <use xlink:href="#rim" fill="#404040">
                        <set attributeName="fill" to="#808080" begin="arrowRight.mouseover" end="arrowRight.mouseout"/>
                  </use>
                  <path fill="none" stroke="white" stroke-width="1.5" d="M0,-3.0v7 M-2.5,-0.5L0,-3.0L2.5,-0.5"/>
                </g>
                <g id="arrowDown" xlink:href="#dirArrow" transform="rotate(180) translate(-30 -48)" onmousedown="handlePan(0,1)">
                  <use xlink:href="#rim" fill="#404040">
                        <set attributeName="fill" to="#808080" begin="arrowDown.mouseover" end="arrowDown.mouseout"/>
                  </use>
                  <path fill="none" stroke="white" stroke-width="1.5" d="M0,-3.0v7 M-2.5,-0.5L0,-3.0L2.5,-0.5"/>
                </g>
                <g id="arrowLeft" xlink:href="#dirArrow" transform="rotate(270) translate(-36 17)" onmousedown="handlePan(-1,0)">
                  <use xlink:href="#rim" fill="#404040">
                        <set attributeName="fill" to="#808080" begin="arrowLeft.mouseover" end="arrowLeft.mouseout"/>
                  </use>
                  <path fill="none" stroke="white" stroke-width="1.5" d="M0,-3.0v7 M-2.5,-0.5L0,-3.0L2.5,-0.5"/>
                </g>
        </g>
        <svg viewBox="0 0 15 15" width="100%" height="30px" preserveAspectRatio="xMaxYMin meet">
         <g id="arrow_out" transform="scale(0.3 0.3)">
          <a xlink:href="class_http_fake__inherit__graph_org.svg" target="_base">
           <rect id="button" ry="5" rx="5" y="6" x="6" height="38" width="38"
                fill="#f2f5e9" fill-opacity="0.5" stroke="#606060" stroke-width="1.0"/>
           <path id="arrow"
             d="M 11.500037,31.436501 C 11.940474,20.09759 22.043105,11.32322 32.158766,21.979434 L 37.068811,17.246167 C 37.068811,17.246167 37.088388,32 37.088388,32 L 22.160133,31.978069 C 22.160133,31.978069 26.997745,27.140456 26.997745,27.140456 C 18.528582,18.264221 13.291696,25.230495 11.500037,31.436501 z"
             style="fill:#404040;"/>
          </a>
         </g>
        </svg>
</svg>
