<?xml version="1.0" encoding="UTF-8" standalone="no"?>
<!DOCTYPE svg PUBLIC "-//W3C//DTD SVG 1.1//EN"
 "http://www.w3.org/Graphics/SVG/1.1/DTD/svg11.dtd">
<!-- Generated by graphviz version 2.40.1 (20161225.0304)
 -->
<!-- Title: src/libaktualizr/primary/events.h Pages: 1 -->
<svg width="2785pt" height="329pt"
 viewBox="0.00 0.00 2784.50 329.00" xmlns="http://www.w3.org/2000/svg" xmlns:xlink="http://www.w3.org/1999/xlink">
<g id="graph0" class="graph" transform="scale(1 1) rotate(0) translate(4 325)">
<title>src/libaktualizr/primary/events.h</title>
<polygon fill="#ffffff" stroke="transparent" points="-4,4 -4,-325 2780.5,-325 2780.5,4 -4,4"/>
<!-- Node59 -->
<g id="node1" class="node">
<title>Node59</title>
<polygon fill="#bfbfbf" stroke="#000000" points="883,-290.5 883,-320.5 1013,-320.5 1013,-290.5 883,-290.5"/>
<text text-anchor="start" x="891" y="-308.5" font-family="Helvetica,sans-Serif" font-size="10.00" fill="#000000">src/libaktualizr/primary</text>
<text text-anchor="middle" x="948" y="-297.5" font-family="Helvetica,sans-Serif" font-size="10.00" fill="#000000">/events.h</text>
</g>
<!-- Node60 -->
<g id="node2" class="node">
<title>Node60</title>
<g id="a_node2"><a xlink:href="libaktualizr-c_8cc_source.html" target="_top" xlink:title="src/libaktualizr&#45;c\l/libaktualizr&#45;c.cc">
<polygon fill="#ffffff" stroke="#000000" points="386.5,-223.5 386.5,-253.5 483.5,-253.5 483.5,-223.5 386.5,-223.5"/>
<text text-anchor="start" x="394.5" y="-241.5" font-family="Helvetica,sans-Serif" font-size="10.00" fill="#000000">src/libaktualizr&#45;c</text>
<text text-anchor="middle" x="435" y="-230.5" font-family="Helvetica,sans-Serif" font-size="10.00" fill="#000000">/libaktualizr&#45;c.cc</text>
</a>
</g>
</g>
<!-- Node59&#45;&gt;Node60 -->
<g id="edge1" class="edge">
<title>Node59&#45;&gt;Node60</title>
<path fill="none" stroke="#191970" d="M872.7088,-299.8317C782.9947,-292.399 628.793,-277.4755 498,-254 493.3437,-253.1643 488.5195,-252.1855 483.7078,-251.1332"/>
<polygon fill="#191970" stroke="#191970" points="872.5365,-303.3292 882.789,-300.6577 873.1083,-296.3526 872.5365,-303.3292"/>
</g>
<!-- Node61 -->
<g id="node3" class="node">
<title>Node61</title>
<g id="a_node3"><a xlink:href="aktualizr_8h_source.html" target="_top" xlink:title="src/libaktualizr/primary\l/aktualizr.h">
<polygon fill="#ffffff" stroke="#000000" points="991,-151 991,-181 1121,-181 1121,-151 991,-151"/>
<text text-anchor="start" x="999" y="-169" font-family="Helvetica,sans-Serif" font-size="10.00" fill="#000000">src/libaktualizr/primary</text>
<text text-anchor="middle" x="1056" y="-158" font-family="Helvetica,sans-Serif" font-size="10.00" fill="#000000">/aktualizr.h</text>
</a>
</g>
</g>
<!-- Node59&#45;&gt;Node61 -->
<g id="edge2" class="edge">
<title>Node59&#45;&gt;Node61</title>
<path fill="none" stroke="#191970" d="M966.1545,-282.0505C988.3961,-253.3217 1025.4333,-205.482 1044.251,-181.1758"/>
<polygon fill="#191970" stroke="#191970" points="963.1177,-280.2556 959.7635,-290.3055 968.6528,-284.5409 963.1177,-280.2556"/>
</g>
<!-- Node66 -->
<g id="node8" class="node">
<title>Node66</title>
<g id="a_node8"><a xlink:href="aktualizr_8cc_source.html" target="_top" xlink:title="src/libaktualizr/primary\l/aktualizr.cc">
<polygon fill="#ffffff" stroke="#000000" points="153,-78.5 153,-108.5 283,-108.5 283,-78.5 153,-78.5"/>
<text text-anchor="start" x="161" y="-96.5" font-family="Helvetica,sans-Serif" font-size="10.00" fill="#000000">src/libaktualizr/primary</text>
<text text-anchor="middle" x="218" y="-85.5" font-family="Helvetica,sans-Serif" font-size="10.00" fill="#000000">/aktualizr.cc</text>
</a>
</g>
</g>
<!-- Node59&#45;&gt;Node66 -->
<g id="edge62" class="edge">
<title>Node59&#45;&gt;Node66</title>
<path fill="none" stroke="#191970" d="M872.6263,-300.4714C770.9544,-292.9386 595.7173,-277.0978 536,-254 513.6891,-245.3705 512.6683,-235.0445 492,-223 410.4009,-175.448 308.5219,-130.9126 254.9199,-108.5421"/>
<polygon fill="#191970" stroke="#191970" points="872.6049,-303.9791 882.8336,-301.2181 873.1156,-296.9978 872.6049,-303.9791"/>
</g>
<!-- Node70 -->
<g id="node12" class="node">
<title>Node70</title>
<g id="a_node12"><a xlink:href="aktualizr__test_8cc_source.html" target="_top" xlink:title="src/libaktualizr/primary\l/aktualizr_test.cc">
<polygon fill="#ffffff" stroke="#000000" points="286,-6 286,-36 416,-36 416,-6 286,-6"/>
<text text-anchor="start" x="294" y="-24" font-family="Helvetica,sans-Serif" font-size="10.00" fill="#000000">src/libaktualizr/primary</text>
<text text-anchor="middle" x="351" y="-13" font-family="Helvetica,sans-Serif" font-size="10.00" fill="#000000">/aktualizr_test.cc</text>
</a>
</g>
</g>
<!-- Node59&#45;&gt;Node70 -->
<g id="edge63" class="edge">
<title>Node59&#45;&gt;Node70</title>
<path fill="none" stroke="#191970" d="M908.3357,-285.8211C827.6538,-245.8983 638.4671,-152.8277 478,-78 446.788,-63.4455 410.9729,-47.4328 385.3503,-36.0951"/>
<polygon fill="#191970" stroke="#191970" points="907.113,-289.1212 917.6278,-290.4214 910.2189,-282.8479 907.113,-289.1212"/>
</g>
<!-- Node77 -->
<g id="node19" class="node">
<title>Node77</title>
<g id="a_node19"><a xlink:href="uptane__delegation__test_8cc_source.html" target="_top" xlink:title="src/libaktualizr/uptane\l/uptane_delegation_test.cc">
<polygon fill="#ffffff" stroke="#000000" points="766,-6 766,-36 914,-36 914,-6 766,-6"/>
<text text-anchor="start" x="774" y="-24" font-family="Helvetica,sans-Serif" font-size="10.00" fill="#000000">src/libaktualizr/uptane</text>
<text text-anchor="middle" x="840" y="-13" font-family="Helvetica,sans-Serif" font-size="10.00" fill="#000000">/uptane_delegation_test.cc</text>
</a>
</g>
</g>
<!-- Node59&#45;&gt;Node77 -->
<g id="edge64" class="edge">
<title>Node59&#45;&gt;Node77</title>
<path fill="none" stroke="#191970" d="M938.6269,-280.8087C916.8383,-223.4121 863.2971,-82.3705 845.7042,-36.0263"/>
<polygon fill="#191970" stroke="#191970" points="935.3722,-282.0972 942.1935,-290.204 941.9165,-279.6128 935.3722,-282.0972"/>
</g>
<!-- Node78 -->
<g id="node20" class="node">
<title>Node78</title>
<g id="a_node20"><a xlink:href="load__tests_2check_8cc_source.html" target="_top" xlink:title="src/load_tests/check.cc">
<polygon fill="#ffffff" stroke="#000000" points="1567.5,-84 1567.5,-103 1696.5,-103 1696.5,-84 1567.5,-84"/>
<text text-anchor="middle" x="1632" y="-91" font-family="Helvetica,sans-Serif" font-size="10.00" fill="#000000">src/load_tests/check.cc</text>
</a>
</g>
</g>
<!-- Node59&#45;&gt;Node78 -->
<g id="edge65" class="edge">
<title>Node59&#45;&gt;Node78</title>
<path fill="none" stroke="#191970" d="M1006.3212,-287.4238C1145.86,-244.175 1495.2212,-135.8934 1601.1041,-103.0759"/>
<polygon fill="#191970" stroke="#191970" points="1005.1588,-284.1198 996.6433,-290.4234 1007.2312,-290.806 1005.1588,-284.1198"/>
</g>
<!-- Node79 -->
<g id="node21" class="node">
<title>Node79</title>
<g id="a_node21"><a xlink:href="provision_8cc_source.html" target="_top" xlink:title="src/load_tests/provision.cc">
<polygon fill="#ffffff" stroke="#000000" points="1715,-84 1715,-103 1861,-103 1861,-84 1715,-84"/>
<text text-anchor="middle" x="1788" y="-91" font-family="Helvetica,sans-Serif" font-size="10.00" fill="#000000">src/load_tests/provision.cc</text>
</a>
</g>
</g>
<!-- Node59&#45;&gt;Node79 -->
<g id="edge66" class="edge">
<title>Node59&#45;&gt;Node79</title>
<path fill="none" stroke="#191970" d="M1023.1271,-289.5359C1067.4613,-279.8464 1124.5888,-266.8945 1175,-254 1280.2189,-227.0865 1305.9514,-218.1328 1410,-187 1469.7932,-169.109 1483.6196,-160.796 1544,-145 1580.4398,-135.4671 1680.0662,-115.1012 1740.1506,-103.0325"/>
<polygon fill="#191970" stroke="#191970" points="1022.3222,-286.1291 1013.2961,-291.677 1023.8118,-292.9688 1022.3222,-286.1291"/>
</g>
<!-- Node87 -->
<g id="node29" class="node">
<title>Node87</title>
<g id="a_node29"><a xlink:href="sotauptaneclient_8h_source.html" target="_top" xlink:title="src/libaktualizr/primary\l/sotauptaneclient.h">
<polygon fill="#ffffff" stroke="#000000" points="1964,-223.5 1964,-253.5 2094,-253.5 2094,-223.5 1964,-223.5"/>
<text text-anchor="start" x="1972" y="-241.5" font-family="Helvetica,sans-Serif" font-size="10.00" fill="#000000">src/libaktualizr/primary</text>
<text text-anchor="middle" x="2029" y="-230.5" font-family="Helvetica,sans-Serif" font-size="10.00" fill="#000000">/sotauptaneclient.h</text>
</a>
</g>
</g>
<!-- Node59&#45;&gt;Node87 -->
<g id="edge42" class="edge">
<title>Node59&#45;&gt;Node87</title>
<path fill="none" stroke="#191970" d="M1023.3858,-300.8276C1225.0265,-288.33 1774.2816,-254.2874 1963.7281,-242.5455"/>
<polygon fill="#191970" stroke="#191970" points="1022.9513,-297.3477 1013.187,-301.4597 1023.3844,-304.3343 1022.9513,-297.3477"/>
</g>
<!-- Node62 -->
<g id="node4" class="node">
<title>Node62</title>
<g id="a_node4"><a xlink:href="aktualizr__primary_2main_8cc_source.html" target="_top" xlink:title="src/aktualizr_primary\l/main.cc">
<polygon fill="#ffffff" stroke="#000000" points="148,-6 148,-36 268,-36 268,-6 148,-6"/>
<text text-anchor="start" x="156" y="-24" font-family="Helvetica,sans-Serif" font-size="10.00" fill="#000000">src/aktualizr_primary</text>
<text text-anchor="middle" x="208" y="-13" font-family="Helvetica,sans-Serif" font-size="10.00" fill="#000000">/main.cc</text>
</a>
</g>
</g>
<!-- Node61&#45;&gt;Node62 -->
<g id="edge3" class="edge">
<title>Node61&#45;&gt;Node62</title>
<path fill="none" stroke="#191970" d="M980.8843,-162.645C807.4327,-154.5347 389.2901,-132.7722 330,-109 309.7696,-100.8887 309.4792,-91.0207 292,-78 272.0719,-63.155 248.6136,-47.3711 231.5592,-36.1861"/>
<polygon fill="#191970" stroke="#191970" points="980.8021,-166.1448 990.9539,-163.1133 981.1274,-159.1524 980.8021,-166.1448"/>
</g>
<!-- Node63 -->
<g id="node5" class="node">
<title>Node63</title>
<g id="a_node5"><a xlink:href="secondary_8h_source.html" target="_top" xlink:title="src/aktualizr_primary\l/secondary.h">
<polygon fill="#ffffff" stroke="#000000" points="654,-78.5 654,-108.5 774,-108.5 774,-78.5 654,-78.5"/>
<text text-anchor="start" x="662" y="-96.5" font-family="Helvetica,sans-Serif" font-size="10.00" fill="#000000">src/aktualizr_primary</text>
<text text-anchor="middle" x="714" y="-85.5" font-family="Helvetica,sans-Serif" font-size="10.00" fill="#000000">/secondary.h</text>
</a>
</g>
</g>
<!-- Node61&#45;&gt;Node63 -->
<g id="edge4" class="edge">
<title>Node61&#45;&gt;Node63</title>
<path fill="none" stroke="#191970" d="M980.7292,-150.0435C918.5836,-136.8693 831.5507,-118.4194 774.0206,-106.2237"/>
<polygon fill="#191970" stroke="#191970" points="980.359,-153.5427 990.8674,-152.1927 981.8107,-146.6949 980.359,-153.5427"/>
</g>
<!-- Node64 -->
<g id="node6" class="node">
<title>Node64</title>
<g id="a_node6"><a xlink:href="primary__secondary__registration__test_8cc_source.html" target="_top" xlink:title="src/aktualizr_primary\l/primary_secondary_registration\l_test.cc">
<polygon fill="#ffffff" stroke="#000000" points="572.5,-.5 572.5,-41.5 747.5,-41.5 747.5,-.5 572.5,-.5"/>
<text text-anchor="start" x="580.5" y="-29.5" font-family="Helvetica,sans-Serif" font-size="10.00" fill="#000000">src/aktualizr_primary</text>
<text text-anchor="start" x="580.5" y="-18.5" font-family="Helvetica,sans-Serif" font-size="10.00" fill="#000000">/primary_secondary_registration</text>
<text text-anchor="middle" x="660" y="-7.5" font-family="Helvetica,sans-Serif" font-size="10.00" fill="#000000">_test.cc</text>
</a>
</g>
</g>
<!-- Node61&#45;&gt;Node64 -->
<g id="edge8" class="edge">
<title>Node61&#45;&gt;Node64</title>
<path fill="none" stroke="#191970" d="M1005.1302,-147.3734C930.8417,-120.1718 793.1507,-69.7547 716.04,-41.5197"/>
<polygon fill="#191970" stroke="#191970" points="1004.148,-150.741 1014.7417,-150.8928 1006.5549,-144.1678 1004.148,-150.741"/>
</g>
<!-- Node61&#45;&gt;Node66 -->
<g id="edge9" class="edge">
<title>Node61&#45;&gt;Node66</title>
<path fill="none" stroke="#191970" d="M980.3847,-163.2977C843.5334,-157.7461 545.8711,-142.6384 297,-109 292.5677,-108.4009 288.0092,-107.7094 283.4251,-106.958"/>
<polygon fill="#191970" stroke="#191970" points="980.6174,-166.8097 990.7494,-163.7123 980.8973,-159.8153 980.6174,-166.8097"/>
</g>
<!-- Node67 -->
<g id="node9" class="node">
<title>Node67</title>
<g id="a_node9"><a xlink:href="aktualizr__fullostree__test_8cc_source.html" target="_top" xlink:title="src/libaktualizr/primary\l/aktualizr_fullostree_test.cc">
<polygon fill="#ffffff" stroke="#000000" points="1242,-6 1242,-36 1394,-36 1394,-6 1242,-6"/>
<text text-anchor="start" x="1250" y="-24" font-family="Helvetica,sans-Serif" font-size="10.00" fill="#000000">src/libaktualizr/primary</text>
<text text-anchor="middle" x="1318" y="-13" font-family="Helvetica,sans-Serif" font-size="10.00" fill="#000000">/aktualizr_fullostree_test.cc</text>
</a>
</g>
</g>
<!-- Node61&#45;&gt;Node67 -->
<g id="edge10" class="edge">
<title>Node61&#45;&gt;Node67</title>
<path fill="none" stroke="#191970" d="M1060.5439,-140.8989C1065.4433,-121.021 1075.2178,-94.0192 1094,-78 1095.6053,-76.6309 1191.8566,-52.4404 1257.6527,-36.0176"/>
<polygon fill="#191970" stroke="#191970" points="1057.0915,-140.3013 1058.3506,-150.8211 1063.9265,-141.8122 1057.0915,-140.3013"/>
</g>
<!-- Node68 -->
<g id="node10" class="node">
<title>Node68</title>
<g id="a_node10"><a xlink:href="aktualizr__helpers_8h_source.html" target="_top" xlink:title="src/libaktualizr/primary\l/aktualizr_helpers.h">
<polygon fill="#ffffff" stroke="#000000" points="339,-78.5 339,-108.5 469,-108.5 469,-78.5 339,-78.5"/>
<text text-anchor="start" x="347" y="-96.5" font-family="Helvetica,sans-Serif" font-size="10.00" fill="#000000">src/libaktualizr/primary</text>
<text text-anchor="middle" x="404" y="-85.5" font-family="Helvetica,sans-Serif" font-size="10.00" fill="#000000">/aktualizr_helpers.h</text>
</a>
</g>
</g>
<!-- Node61&#45;&gt;Node68 -->
<g id="edge11" class="edge">
<title>Node61&#45;&gt;Node68</title>
<path fill="none" stroke="#191970" d="M980.6128,-157.6172C851.5877,-143.2701 590.6098,-114.2503 469.0475,-100.733"/>
<polygon fill="#191970" stroke="#191970" points="980.474,-161.1233 990.7996,-158.75 981.2477,-154.1662 980.474,-161.1233"/>
</g>
<!-- Node61&#45;&gt;Node70 -->
<g id="edge15" class="edge">
<title>Node61&#45;&gt;Node70</title>
<path fill="none" stroke="#191970" d="M980.6764,-156.0202C864.1656,-140.5184 652.7357,-112.1007 645,-109 623.1316,-100.2345 623.5822,-87.4482 602,-78 528.4609,-45.8062 503.0033,-60.9716 425,-42 417.6035,-40.2011 409.8322,-38.1621 402.2196,-36.0792"/>
<polygon fill="#191970" stroke="#191970" points="980.2404,-159.493 990.6145,-157.3418 981.1632,-152.5541 980.2404,-159.493"/>
</g>
<!-- Node71 -->
<g id="node13" class="node">
<title>Node71</title>
<g id="a_node13"><a xlink:href="custom__url__test_8cc_source.html" target="_top" xlink:title="src/libaktualizr/primary\l/custom_url_test.cc">
<polygon fill="#ffffff" stroke="#000000" points="1412,-6 1412,-36 1542,-36 1542,-6 1412,-6"/>
<text text-anchor="start" x="1420" y="-24" font-family="Helvetica,sans-Serif" font-size="10.00" fill="#000000">src/libaktualizr/primary</text>
<text text-anchor="middle" x="1477" y="-13" font-family="Helvetica,sans-Serif" font-size="10.00" fill="#000000">/custom_url_test.cc</text>
</a>
</g>
</g>
<!-- Node61&#45;&gt;Node71 -->
<g id="edge16" class="edge">
<title>Node61&#45;&gt;Node71</title>
<path fill="none" stroke="#191970" d="M1126.8602,-148.1689C1159.2359,-138.6788 1197.5195,-125.5236 1230,-109 1250.9987,-98.3175 1251.7591,-88.1924 1273,-78 1327.0516,-52.0636 1345.2734,-58.1837 1403,-42 1409.8151,-40.0894 1416.9802,-38.0698 1424.0581,-36.0682"/>
<polygon fill="#191970" stroke="#191970" points="1125.6606,-144.8719 1117.0152,-150.9961 1127.5928,-151.5999 1125.6606,-144.8719"/>
</g>
<!-- Node72 -->
<g id="node14" class="node">
<title>Node72</title>
<g id="a_node14"><a xlink:href="download__nonostree__test_8cc_source.html" target="_top" xlink:title="src/libaktualizr/primary\l/download_nonostree_test.cc">
<polygon fill="#ffffff" stroke="#000000" points="1560,-6 1560,-36 1718,-36 1718,-6 1560,-6"/>
<text text-anchor="start" x="1568" y="-24" font-family="Helvetica,sans-Serif" font-size="10.00" fill="#000000">src/libaktualizr/primary</text>
<text text-anchor="middle" x="1639" y="-13" font-family="Helvetica,sans-Serif" font-size="10.00" fill="#000000">/download_nonostree_test.cc</text>
</a>
</g>
</g>
<!-- Node61&#45;&gt;Node72 -->
<g id="edge17" class="edge">
<title>Node61&#45;&gt;Node72</title>
<path fill="none" stroke="#191970" d="M1131.3072,-152.7276C1172.2201,-143.7492 1222.9039,-129.6901 1265,-109 1285.5021,-98.9233 1284.929,-86.8254 1306,-78 1407.5135,-35.4818 1442.924,-62.7936 1551,-42 1560.1001,-40.2492 1569.6798,-38.1899 1579.0347,-36.0574"/>
<polygon fill="#191970" stroke="#191970" points="1130.4443,-149.3329 1121.3967,-154.8457 1131.9074,-156.1783 1130.4443,-149.3329"/>
</g>
<!-- Node73 -->
<g id="node15" class="node">
<title>Node73</title>
<g id="a_node15"><a xlink:href="empty__targets__test_8cc_source.html" target="_top" xlink:title="src/libaktualizr/primary\l/empty_targets_test.cc">
<polygon fill="#ffffff" stroke="#000000" points="1736,-6 1736,-36 1866,-36 1866,-6 1736,-6"/>
<text text-anchor="start" x="1744" y="-24" font-family="Helvetica,sans-Serif" font-size="10.00" fill="#000000">src/libaktualizr/primary</text>
<text text-anchor="middle" x="1801" y="-13" font-family="Helvetica,sans-Serif" font-size="10.00" fill="#000000">/empty_targets_test.cc</text>
</a>
</g>
</g>
<!-- Node61&#45;&gt;Node73 -->
<g id="edge18" class="edge">
<title>Node61&#45;&gt;Node73</title>
<path fill="none" stroke="#191970" d="M1131.5285,-160.3406C1236.322,-151.7328 1419.9391,-133.7033 1482,-109 1503.8894,-100.2869 1503.3046,-87.1855 1525,-78 1608.9759,-42.446 1638.1356,-62.4736 1727,-42 1734.678,-40.231 1742.7475,-38.162 1750.6203,-36.0252"/>
<polygon fill="#191970" stroke="#191970" points="1131.0131,-156.8708 1121.3294,-161.1691 1131.5799,-163.8479 1131.0131,-156.8708"/>
</g>
<!-- Node74 -->
<g id="node16" class="node">
<title>Node74</title>
<g id="a_node16"><a xlink:href="metadata__expiration__test_8cc_source.html" target="_top" xlink:title="src/libaktualizr/primary\l/metadata_expiration_test.cc">
<polygon fill="#ffffff" stroke="#000000" points="1884.5,-6 1884.5,-36 2043.5,-36 2043.5,-6 1884.5,-6"/>
<text text-anchor="start" x="1892.5" y="-24" font-family="Helvetica,sans-Serif" font-size="10.00" fill="#000000">src/libaktualizr/primary</text>
<text text-anchor="middle" x="1964" y="-13" font-family="Helvetica,sans-Serif" font-size="10.00" fill="#000000">/metadata_expiration_test.cc</text>
</a>
</g>
</g>
<!-- Node61&#45;&gt;Node74 -->
<g id="edge19" class="edge">
<title>Node61&#45;&gt;Node74</title>
<path fill="none" stroke="#191970" d="M1131.6319,-161.3182C1243.8939,-153.5827 1448.7177,-136.2276 1517,-109 1538.5506,-100.4067 1537.4085,-86.4899 1559,-78 1690.5487,-26.2741 1735.7468,-66.2732 1875,-42 1884.5403,-40.337 1894.5873,-38.2742 1904.3579,-36.0966"/>
<polygon fill="#191970" stroke="#191970" points="1131.1349,-157.8438 1121.3956,-162.0145 1131.6101,-164.8277 1131.1349,-157.8438"/>
</g>
<!-- Node75 -->
<g id="node17" class="node">
<title>Node75</title>
<g id="a_node17"><a xlink:href="metadata__fetch__test_8cc_source.html" target="_top" xlink:title="src/libaktualizr/primary\l/metadata_fetch_test.cc">
<polygon fill="#ffffff" stroke="#000000" points="932,-6 932,-36 1066,-36 1066,-6 932,-6"/>
<text text-anchor="start" x="940" y="-24" font-family="Helvetica,sans-Serif" font-size="10.00" fill="#000000">src/libaktualizr/primary</text>
<text text-anchor="middle" x="999" y="-13" font-family="Helvetica,sans-Serif" font-size="10.00" fill="#000000">/metadata_fetch_test.cc</text>
</a>
</g>
</g>
<!-- Node61&#45;&gt;Node75 -->
<g id="edge20" class="edge">
<title>Node61&#45;&gt;Node75</title>
<path fill="none" stroke="#191970" d="M1040.2983,-142.0757C1034.2754,-132.142 1027.7223,-120.3102 1023,-109 1012.6886,-84.3037 1005.5322,-53.8633 1001.8589,-36.0256"/>
<polygon fill="#191970" stroke="#191970" points="1037.3506,-143.9632 1045.6128,-150.5955 1043.2898,-140.2584 1037.3506,-143.9632"/>
</g>
<!-- Node76 -->
<g id="node18" class="node">
<title>Node76</title>
<g id="a_node18"><a xlink:href="target__mismatch__test_8cc_source.html" target="_top" xlink:title="src/libaktualizr/primary\l/target_mismatch_test.cc">
<polygon fill="#ffffff" stroke="#000000" points="1084,-6 1084,-36 1224,-36 1224,-6 1084,-6"/>
<text text-anchor="start" x="1092" y="-24" font-family="Helvetica,sans-Serif" font-size="10.00" fill="#000000">src/libaktualizr/primary</text>
<text text-anchor="middle" x="1154" y="-13" font-family="Helvetica,sans-Serif" font-size="10.00" fill="#000000">/target_mismatch_test.cc</text>
</a>
</g>
</g>
<!-- Node61&#45;&gt;Node76 -->
<g id="edge21" class="edge">
<title>Node61&#45;&gt;Node76</title>
<path fill="none" stroke="#191970" d="M1051.4968,-140.6558C1049.527,-122.0198 1049.7753,-96.7745 1061,-78 1072.4668,-58.8206 1093.1217,-45.2118 1112.0582,-36.1131"/>
<polygon fill="#191970" stroke="#191970" points="1048.0539,-141.3171 1052.8466,-150.7659 1054.9923,-140.3906 1048.0539,-141.3171"/>
</g>
<!-- Node61&#45;&gt;Node77 -->
<g id="edge22" class="edge">
<title>Node61&#45;&gt;Node77</title>
<path fill="none" stroke="#191970" d="M1024.9735,-145.172C980.8902,-115.579 901.1837,-62.0724 862.4033,-36.0392"/>
<polygon fill="#191970" stroke="#191970" points="1023.039,-148.0888 1033.2925,-150.7565 1026.9405,-142.2769 1023.039,-148.0888"/>
</g>
<!-- Node61&#45;&gt;Node78 -->
<g id="edge23" class="edge">
<title>Node61&#45;&gt;Node78</title>
<path fill="none" stroke="#191970" d="M1131.4152,-159.2346C1229.0169,-150.0478 1404.2132,-132.0908 1553,-109 1563.911,-107.3067 1575.6111,-105.1824 1586.5741,-103.0544"/>
<polygon fill="#191970" stroke="#191970" points="1130.9794,-155.76 1121.3492,-160.1769 1131.6319,-162.7296 1130.9794,-155.76"/>
</g>
<!-- Node61&#45;&gt;Node79 -->
<g id="edge24" class="edge">
<title>Node61&#45;&gt;Node79</title>
<path fill="none" stroke="#191970" d="M1131.583,-161.8168C1253.0608,-154.5448 1499.0992,-137.5545 1706,-109 1717.6253,-107.3956 1730.1032,-105.2547 1741.7303,-103.0775"/>
<polygon fill="#191970" stroke="#191970" points="1131.0579,-158.3417 1121.2828,-162.4279 1131.4726,-165.3294 1131.0579,-158.3417"/>
</g>
<!-- Node80 -->
<g id="node22" class="node">
<title>Node80</title>
<g id="a_node22"><a xlink:href="aktualizr__cycle__simple_8cc_source.html" target="_top" xlink:title="tests/aktualizr_cycle\l_simple.cc">
<polygon fill="#ffffff" stroke="#000000" points="1103.5,-78.5 1103.5,-108.5 1220.5,-108.5 1220.5,-78.5 1103.5,-78.5"/>
<text text-anchor="start" x="1111.5" y="-96.5" font-family="Helvetica,sans-Serif" font-size="10.00" fill="#000000">tests/aktualizr_cycle</text>
<text text-anchor="middle" x="1162" y="-85.5" font-family="Helvetica,sans-Serif" font-size="10.00" fill="#000000">_simple.cc</text>
</a>
</g>
</g>
<!-- Node61&#45;&gt;Node80 -->
<g id="edge25" class="edge">
<title>Node61&#45;&gt;Node80</title>
<path fill="none" stroke="#191970" d="M1086.5131,-145.1302C1103.6264,-133.4253 1124.5797,-119.0941 1140.0649,-108.5028"/>
<polygon fill="#191970" stroke="#191970" points="1084.2414,-142.4436 1077.9633,-150.978 1088.1932,-148.2214 1084.2414,-142.4436"/>
</g>
<!-- Node81 -->
<g id="node23" class="node">
<title>Node81</title>
<g id="a_node23"><a xlink:href="uptane__test__common_8h_source.html" target="_top" xlink:title="tests/uptane_test_common.h">
<polygon fill="#ffffff" stroke="#000000" points="1315,-84 1315,-103 1473,-103 1473,-84 1315,-84"/>
<text text-anchor="middle" x="1394" y="-91" font-family="Helvetica,sans-Serif" font-size="10.00" fill="#000000">tests/uptane_test_common.h</text>
</a>
</g>
</g>
<!-- Node61&#45;&gt;Node81 -->
<g id="edge26" class="edge">
<title>Node61&#45;&gt;Node81</title>
<path fill="none" stroke="#191970" d="M1131.251,-149.8589C1198.2485,-135.4881 1294.0011,-114.9495 1349.5083,-103.0433"/>
<polygon fill="#191970" stroke="#191970" points="1130.2133,-146.5018 1121.1698,-152.0213 1131.6815,-153.3461 1130.2133,-146.5018"/>
</g>
<!-- Node63&#45;&gt;Node62 -->
<g id="edge5" class="edge">
<title>Node63&#45;&gt;Node62</title>
<path fill="none" stroke="#191970" d="M643.7192,-89.0884C556.8536,-82.7509 404.8454,-68.7651 277,-42 269.2787,-40.3835 261.179,-38.2908 253.3547,-36.0542"/>
<polygon fill="#191970" stroke="#191970" points="643.5007,-92.5816 653.7254,-89.8056 644.0012,-85.5996 643.5007,-92.5816"/>
</g>
<!-- Node63&#45;&gt;Node64 -->
<g id="edge6" class="edge">
<title>Node63&#45;&gt;Node64</title>
<path fill="none" stroke="#191970" d="M696.8022,-70.4104C689.8869,-61.1259 681.9788,-50.5086 675.2701,-41.5015"/>
<polygon fill="#191970" stroke="#191970" points="694.0307,-72.5488 702.8112,-78.478 699.6447,-68.3674 694.0307,-72.5488"/>
</g>
<!-- Node65 -->
<g id="node7" class="node">
<title>Node65</title>
<g id="a_node7"><a xlink:href="secondary_8cc_source.html" target="_top" xlink:title="src/aktualizr_primary\l/secondary.cc">
<polygon fill="#ffffff" stroke="#000000" points="434,-6 434,-36 554,-36 554,-6 434,-6"/>
<text text-anchor="start" x="442" y="-24" font-family="Helvetica,sans-Serif" font-size="10.00" fill="#000000">src/aktualizr_primary</text>
<text text-anchor="middle" x="494" y="-13" font-family="Helvetica,sans-Serif" font-size="10.00" fill="#000000">/secondary.cc</text>
</a>
</g>
</g>
<!-- Node63&#45;&gt;Node65 -->
<g id="edge7" class="edge">
<title>Node63&#45;&gt;Node65</title>
<path fill="none" stroke="#191970" d="M658.8256,-75.3175C622.0042,-63.1832 574.1711,-47.42 539.5257,-36.0028"/>
<polygon fill="#191970" stroke="#191970" points="657.8228,-78.6722 668.4159,-78.478 660.0138,-72.0239 657.8228,-78.6722"/>
</g>
<!-- Node68&#45;&gt;Node62 -->
<g id="edge12" class="edge">
<title>Node68&#45;&gt;Node62</title>
<path fill="none" stroke="#191970" d="M354.005,-75.0069C321.3156,-62.9152 279.1625,-47.3228 248.5593,-36.0028"/>
<polygon fill="#191970" stroke="#191970" points="352.7955,-78.2913 363.3887,-78.478 355.224,-71.726 352.7955,-78.2913"/>
</g>
<!-- Node69 -->
<g id="node11" class="node">
<title>Node69</title>
<g id="a_node11"><a xlink:href="aktualizr__helpers_8cc_source.html" target="_top" xlink:title="src/libaktualizr/primary\l/aktualizr_helpers.cc">
<polygon fill="#ffffff" stroke="#000000" points="0,-6 0,-36 130,-36 130,-6 0,-6"/>
<text text-anchor="start" x="8" y="-24" font-family="Helvetica,sans-Serif" font-size="10.00" fill="#000000">src/libaktualizr/primary</text>
<text text-anchor="middle" x="65" y="-13" font-family="Helvetica,sans-Serif" font-size="10.00" fill="#000000">/aktualizr_helpers.cc</text>
</a>
</g>
</g>
<!-- Node68&#45;&gt;Node69 -->
<g id="edge13" class="edge">
<title>Node68&#45;&gt;Node69</title>
<path fill="none" stroke="#191970" d="M328.8294,-80.6404C275.5797,-71.1053 202.5991,-57.1754 139,-42 131.4659,-40.2023 123.5472,-38.1412 115.8049,-36.0284"/>
<polygon fill="#191970" stroke="#191970" points="328.4126,-84.1212 338.8714,-82.4284 329.6397,-77.2295 328.4126,-84.1212"/>
</g>
<!-- Node68&#45;&gt;Node70 -->
<g id="edge14" class="edge">
<title>Node68&#45;&gt;Node70</title>
<path fill="none" stroke="#191970" d="M387.0724,-70.3443C378.8524,-59.1 369.2129,-45.9139 361.9676,-36.0028"/>
<polygon fill="#191970" stroke="#191970" points="384.2912,-72.4706 393.0184,-78.478 389.9423,-68.3395 384.2912,-72.4706"/>
</g>
<!-- Node81&#45;&gt;Node64 -->
<g id="edge27" class="edge">
<title>Node81&#45;&gt;Node64</title>
<path fill="none" stroke="#191970" d="M1304.5485,-84.7472C1280.3611,-82.462 1254.1857,-80.0631 1230,-78 1019.9327,-60.0804 965.6304,-72.3766 757,-42 753.9309,-41.5531 750.8138,-41.0653 747.6707,-40.5444"/>
<polygon fill="#191970" stroke="#191970" points="1304.4953,-88.2578 1314.7812,-85.7183 1305.1567,-81.2891 1304.4953,-88.2578"/>
</g>
<!-- Node81&#45;&gt;Node67 -->
<g id="edge28" class="edge">
<title>Node81&#45;&gt;Node67</title>
<path fill="none" stroke="#191970" d="M1376.4122,-76.7222C1363.577,-64.4781 1346.3236,-48.0193 1333.9003,-36.168"/>
<polygon fill="#191970" stroke="#191970" points="1374.0987,-79.3523 1383.7503,-83.7223 1378.9304,-74.2873 1374.0987,-79.3523"/>
</g>
<!-- Node81&#45;&gt;Node70 -->
<g id="edge29" class="edge">
<title>Node81&#45;&gt;Node70</title>
<path fill="none" stroke="#191970" d="M1304.5878,-84.2399C1280.4003,-81.9561 1254.215,-79.6847 1230,-78 872.7283,-53.1434 778.5266,-99.2704 425,-42 416.1676,-40.5692 406.8897,-38.4489 398.0044,-36.098"/>
<polygon fill="#191970" stroke="#191970" points="1304.5323,-87.7505 1314.82,-85.2178 1305.1983,-80.7822 1304.5323,-87.7505"/>
</g>
<!-- Node81&#45;&gt;Node71 -->
<g id="edge30" class="edge">
<title>Node81&#45;&gt;Node71</title>
<path fill="none" stroke="#191970" d="M1412.8123,-77.0676C1426.8691,-64.7891 1445.9396,-48.1311 1459.6352,-36.168"/>
<polygon fill="#191970" stroke="#191970" points="1410.4226,-74.5077 1405.1937,-83.7223 1415.0277,-79.7797 1410.4226,-74.5077"/>
</g>
<!-- Node81&#45;&gt;Node72 -->
<g id="edge31" class="edge">
<title>Node81&#45;&gt;Node72</title>
<path fill="none" stroke="#191970" d="M1435.9354,-81.0905C1477.9917,-68.6453 1542.8109,-49.4641 1587.8608,-36.133"/>
<polygon fill="#191970" stroke="#191970" points="1434.8772,-77.7536 1426.2814,-83.9473 1436.8635,-84.4659 1434.8772,-77.7536"/>
</g>
<!-- Node81&#45;&gt;Node73 -->
<g id="edge32" class="edge">
<title>Node81&#45;&gt;Node73</title>
<path fill="none" stroke="#191970" d="M1460.5086,-82.2803C1469.4113,-80.818 1478.4251,-79.3576 1487,-78 1593.5331,-61.1334 1621.5707,-64.7694 1727,-42 1734.8321,-40.3085 1743.0579,-38.2563 1751.0626,-36.1055"/>
<polygon fill="#191970" stroke="#191970" points="1459.8301,-78.8449 1450.5336,-83.9268 1460.9701,-85.7514 1459.8301,-78.8449"/>
</g>
<!-- Node81&#45;&gt;Node74 -->
<g id="edge33" class="edge">
<title>Node81&#45;&gt;Node74</title>
<path fill="none" stroke="#191970" d="M1483.0872,-82.7738C1497.1087,-81.1391 1511.4454,-79.4989 1525,-78 1680.4288,-60.8123 1720.8021,-68.0101 1875,-42 1884.7058,-40.3628 1894.9307,-38.2869 1904.8538,-36.0808"/>
<polygon fill="#191970" stroke="#191970" points="1482.4738,-79.3217 1472.9488,-83.9611 1483.2881,-86.2742 1482.4738,-79.3217"/>
</g>
<!-- Node81&#45;&gt;Node75 -->
<g id="edge34" class="edge">
<title>Node81&#45;&gt;Node75</title>
<path fill="none" stroke="#191970" d="M1310.5858,-82.5841C1245.95,-73.5116 1154.34,-59.3113 1075,-42 1066.9755,-40.2491 1058.5376,-38.1654 1050.321,-36.001"/>
<polygon fill="#191970" stroke="#191970" points="1310.3346,-86.0828 1320.7219,-83.9958 1311.3003,-79.1497 1310.3346,-86.0828"/>
</g>
<!-- Node81&#45;&gt;Node76 -->
<g id="edge35" class="edge">
<title>Node81&#45;&gt;Node76</title>
<path fill="none" stroke="#191970" d="M1352.3988,-80.933C1311.1532,-68.4734 1247.9337,-49.3758 1203.9844,-36.0995"/>
<polygon fill="#191970" stroke="#191970" points="1351.5449,-84.3312 1362.1299,-83.8726 1353.5692,-77.6303 1351.5449,-84.3312"/>
</g>
<!-- Node81&#45;&gt;Node77 -->
<g id="edge38" class="edge">
<title>Node81&#45;&gt;Node77</title>
<path fill="none" stroke="#191970" d="M1304.7682,-84.4196C1178.6666,-71.4836 959.5276,-48.585 923,-42 913.9306,-40.365 904.3859,-38.2902 895.128,-36.0846"/>
<polygon fill="#191970" stroke="#191970" points="1304.4982,-87.9101 1314.8029,-85.4481 1305.212,-80.9466 1304.4982,-87.9101"/>
</g>
<!-- Node82 -->
<g id="node24" class="node">
<title>Node82</title>
<g id="a_node24"><a xlink:href="uptane__key__test_8cc_source.html" target="_top" xlink:title="src/libaktualizr/primary\l/uptane_key_test.cc">
<polygon fill="#ffffff" stroke="#000000" points="2503,-6 2503,-36 2633,-36 2633,-6 2503,-6"/>
<text text-anchor="start" x="2511" y="-24" font-family="Helvetica,sans-Serif" font-size="10.00" fill="#000000">src/libaktualizr/primary</text>
<text text-anchor="middle" x="2568" y="-13" font-family="Helvetica,sans-Serif" font-size="10.00" fill="#000000">/uptane_key_test.cc</text>
</a>
</g>
</g>
<!-- Node81&#45;&gt;Node82 -->
<g id="edge36" class="edge">
<title>Node81&#45;&gt;Node82</title>
<path fill="none" stroke="#191970" d="M1483.2483,-84.209C1507.7784,-81.9028 1534.3982,-79.6279 1559,-78 1973.956,-50.5422 2083.2838,-107.2275 2494,-42 2502.9687,-40.5756 2512.3939,-38.4263 2521.4004,-36.0376"/>
<polygon fill="#191970" stroke="#191970" points="1482.8619,-80.7299 1473.2389,-85.1625 1483.5258,-87.6983 1482.8619,-80.7299"/>
</g>
<!-- Node83 -->
<g id="node25" class="node">
<title>Node83</title>
<g id="a_node25"><a xlink:href="uptane__ci__test_8cc_source.html" target="_top" xlink:title="src/libaktualizr/uptane\l/uptane_ci_test.cc">
<polygon fill="#ffffff" stroke="#000000" points="2651.5,-6 2651.5,-36 2776.5,-36 2776.5,-6 2651.5,-6"/>
<text text-anchor="start" x="2659.5" y="-24" font-family="Helvetica,sans-Serif" font-size="10.00" fill="#000000">src/libaktualizr/uptane</text>
<text text-anchor="middle" x="2714" y="-13" font-family="Helvetica,sans-Serif" font-size="10.00" fill="#000000">/uptane_ci_test.cc</text>
</a>
</g>
</g>
<!-- Node81&#45;&gt;Node83 -->
<g id="edge37" class="edge">
<title>Node81&#45;&gt;Node83</title>
<path fill="none" stroke="#191970" d="M1483.2427,-84.1232C1507.7728,-81.8167 1534.394,-79.5633 1559,-78 1799.3151,-62.7323 2404.2192,-80.0098 2642,-42 2650.7432,-40.6024 2659.9216,-38.4656 2668.6872,-36.0808"/>
<polygon fill="#191970" stroke="#191970" points="1482.8559,-80.6441 1473.2334,-85.0779 1483.5206,-87.6125 1482.8559,-80.6441"/>
</g>
<!-- Node84 -->
<g id="node26" class="node">
<title>Node84</title>
<g id="a_node26"><a xlink:href="uptane__network__test_8cc.html" target="_top" xlink:title="Check that aktualizr can complete provisioning after encountering various network issues...">
<polygon fill="#ffffff" stroke="#000000" points="2062,-6 2062,-36 2198,-36 2198,-6 2062,-6"/>
<text text-anchor="start" x="2070" y="-24" font-family="Helvetica,sans-Serif" font-size="10.00" fill="#000000">src/libaktualizr/uptane</text>
<text text-anchor="middle" x="2130" y="-13" font-family="Helvetica,sans-Serif" font-size="10.00" fill="#000000">/uptane_network_test.cc</text>
</a>
</g>
</g>
<!-- Node81&#45;&gt;Node84 -->
<g id="edge39" class="edge">
<title>Node81&#45;&gt;Node84</title>
<path fill="none" stroke="#191970" d="M1483.2901,-84.7682C1507.8203,-82.4632 1534.4296,-80.0491 1559,-78 1778.3762,-59.7045 1836.0169,-79.1347 2053,-42 2061.8775,-40.4807 2071.211,-38.3791 2080.1966,-36.0888"/>
<polygon fill="#191970" stroke="#191970" points="1482.9067,-81.2888 1473.2801,-85.7136 1483.5649,-88.2578 1482.9067,-81.2888"/>
</g>
<!-- Node85 -->
<g id="node27" class="node">
<title>Node85</title>
<g id="a_node27"><a xlink:href="uptane__serial__test_8cc_source.html" target="_top" xlink:title="src/libaktualizr/uptane\l/uptane_serial_test.cc">
<polygon fill="#ffffff" stroke="#000000" points="2216.5,-6 2216.5,-36 2341.5,-36 2341.5,-6 2216.5,-6"/>
<text text-anchor="start" x="2224.5" y="-24" font-family="Helvetica,sans-Serif" font-size="10.00" fill="#000000">src/libaktualizr/uptane</text>
<text text-anchor="middle" x="2279" y="-13" font-family="Helvetica,sans-Serif" font-size="10.00" fill="#000000">/uptane_serial_test.cc</text>
</a>
</g>
</g>
<!-- Node81&#45;&gt;Node85 -->
<g id="edge40" class="edge">
<title>Node81&#45;&gt;Node85</title>
<path fill="none" stroke="#191970" d="M1483.2679,-84.4868C1507.798,-82.1812 1534.4129,-79.8372 1559,-78 1846.6423,-56.5073 1922.6966,-90.6991 2207,-42 2215.5987,-40.5271 2224.6283,-38.3867 2233.2743,-36.0292"/>
<polygon fill="#191970" stroke="#191970" points="1482.883,-81.0075 1473.2582,-85.4362 1483.5441,-87.9762 1482.883,-81.0075"/>
</g>
<!-- Node86 -->
<g id="node28" class="node">
<title>Node86</title>
<g id="a_node28"><a xlink:href="uptane__test_8cc_source.html" target="_top" xlink:title="src/libaktualizr/uptane\l/uptane_test.cc">
<polygon fill="#ffffff" stroke="#000000" points="2359.5,-6 2359.5,-36 2484.5,-36 2484.5,-6 2359.5,-6"/>
<text text-anchor="start" x="2367.5" y="-24" font-family="Helvetica,sans-Serif" font-size="10.00" fill="#000000">src/libaktualizr/uptane</text>
<text text-anchor="middle" x="2422" y="-13" font-family="Helvetica,sans-Serif" font-size="10.00" fill="#000000">/uptane_test.cc</text>
</a>
</g>
</g>
<!-- Node81&#45;&gt;Node86 -->
<g id="edge41" class="edge">
<title>Node81&#45;&gt;Node86</title>
<path fill="none" stroke="#191970" d="M1483.256,-84.3223C1507.7861,-82.0163 1534.4039,-79.7133 1559,-78 1910.5117,-53.515 2003.5094,-100.3977 2351,-42 2359.4933,-40.5727 2368.4041,-38.454 2376.9322,-36.1037"/>
<polygon fill="#191970" stroke="#191970" points="1482.8703,-80.8431 1473.2465,-85.2741 1483.533,-87.8117 1482.8703,-80.8431"/>
</g>
<!-- Node87&#45;&gt;Node61 -->
<g id="edge48" class="edge">
<title>Node87&#45;&gt;Node61</title>
<path fill="none" stroke="#191970" d="M1953.4638,-232.8717C1768.3767,-219.0805 1294.7055,-183.7864 1121.0677,-170.8483"/>
<polygon fill="#191970" stroke="#191970" points="1953.4154,-236.3777 1963.6479,-233.6305 1953.9356,-229.397 1953.4154,-236.3777"/>
</g>
<!-- Node87&#45;&gt;Node70 -->
<g id="edge49" class="edge">
<title>Node87&#45;&gt;Node70</title>
<path fill="none" stroke="#191970" d="M1953.6214,-236.2957C1746.2521,-229.9918 1170.2083,-210.8023 982,-187 810.9524,-165.368 757.7397,-182.962 602,-109 582.3115,-99.6498 583.4438,-87.8489 564,-78 507.0707,-49.1635 486.5889,-58.7121 425,-42 418.0402,-40.1115 410.724,-38.0853 403.5114,-36.0635"/>
<polygon fill="#191970" stroke="#191970" points="1953.7035,-239.7997 1963.8048,-236.6039 1953.9153,-232.8029 1953.7035,-239.7997"/>
</g>
<!-- Node87&#45;&gt;Node78 -->
<g id="edge58" class="edge">
<title>Node87&#45;&gt;Node78</title>
<path fill="none" stroke="#191970" d="M2017.1066,-213.9489C2004.6084,-189.2051 1984.9949,-153.4939 1972,-145 1872.1398,-79.728 1823.5702,-129.242 1706,-109 1695.9102,-107.2628 1685.0991,-105.1453 1674.9429,-103.0405"/>
<polygon fill="#191970" stroke="#191970" points="2014.0879,-215.7391 2021.6755,-223.1336 2020.3553,-212.6213 2014.0879,-215.7391"/>
</g>
<!-- Node87&#45;&gt;Node79 -->
<g id="edge59" class="edge">
<title>Node87&#45;&gt;Node79</title>
<path fill="none" stroke="#191970" d="M2029.3061,-213.0484C2028.1434,-191.968 2023.0238,-162.6979 2005,-145 1998.8183,-138.93 1895.1885,-116.1698 1833.408,-103.0273"/>
<polygon fill="#191970" stroke="#191970" points="2025.8126,-213.3264 2029.6008,-223.2209 2032.8096,-213.1237 2025.8126,-213.3264"/>
</g>
<!-- Node87&#45;&gt;Node81 -->
<g id="edge60" class="edge">
<title>Node87&#45;&gt;Node81</title>
<path fill="none" stroke="#191970" d="M1953.3301,-234.6094C1836.4371,-227.9025 1617.7335,-212.387 1544,-187 1487.1308,-167.4195 1429.4153,-123.0137 1405.4851,-103.274"/>
<polygon fill="#191970" stroke="#191970" points="1953.4471,-238.1215 1963.629,-235.1926 1953.8429,-231.1327 1953.4471,-238.1215"/>
</g>
<!-- Node87&#45;&gt;Node82 -->
<g id="edge53" class="edge">
<title>Node87&#45;&gt;Node82</title>
<path fill="none" stroke="#191970" d="M2104.079,-227.0375C2162.9222,-217.1766 2239.3171,-202.1792 2267,-187 2326.7978,-154.2115 2316.4572,-112.9801 2375,-78 2378.1398,-76.124 2459.795,-52.3009 2515.8767,-36.0538"/>
<polygon fill="#191970" stroke="#191970" points="2103.3499,-223.6105 2094.0556,-228.6963 2104.4929,-230.5165 2103.3499,-223.6105"/>
</g>
<!-- Node87&#45;&gt;Node83 -->
<g id="edge54" class="edge">
<title>Node87&#45;&gt;Node83</title>
<path fill="none" stroke="#191970" d="M2104.1926,-228.4741C2159.7831,-220.0753 2236.9669,-206.3334 2303,-187 2312.601,-184.189 2577.9246,-76.3599 2677.0834,-36.0229"/>
<polygon fill="#191970" stroke="#191970" points="2103.4474,-225.0464 2094.0715,-229.9803 2104.4778,-231.9701 2103.4474,-225.0464"/>
</g>
<!-- Node87&#45;&gt;Node84 -->
<g id="edge55" class="edge">
<title>Node87&#45;&gt;Node84</title>
<path fill="none" stroke="#191970" d="M2100.7169,-220.1183C2122.4872,-212.2728 2145.5129,-201.492 2164,-187 2197.1833,-160.9876 2205.4282,-149.2458 2218,-109 2222.1081,-95.8489 2224.5813,-90.1043 2218,-78 2207.6529,-58.9699 2187.9104,-45.3153 2169.743,-36.1507"/>
<polygon fill="#191970" stroke="#191970" points="2099.4692,-216.8462 2091.1533,-223.411 2101.748,-223.4649 2099.4692,-216.8462"/>
</g>
<!-- Node87&#45;&gt;Node85 -->
<g id="edge56" class="edge">
<title>Node87&#45;&gt;Node85</title>
<path fill="none" stroke="#191970" d="M2104.4362,-228.8486C2135.9161,-221.6316 2171.1019,-209.0233 2197,-187 2245.4843,-145.7698 2268.0223,-69.0154 2275.7461,-36.3525"/>
<polygon fill="#191970" stroke="#191970" points="2103.4067,-225.4896 2094.3621,-231.0074 2104.8735,-232.3342 2103.4067,-225.4896"/>
</g>
<!-- Node87&#45;&gt;Node86 -->
<g id="edge57" class="edge">
<title>Node87&#45;&gt;Node86</title>
<path fill="none" stroke="#191970" d="M2104.337,-228.7175C2143.166,-221.3352 2190.1744,-208.6233 2228,-187 2287.4782,-152.9989 2284.0766,-121.5068 2337,-78 2356.0782,-62.3164 2379.4979,-46.8597 2396.92,-36.0073"/>
<polygon fill="#191970" stroke="#191970" points="2103.3488,-225.3396 2094.1358,-230.5714 2104.6005,-232.2268 2103.3488,-225.3396"/>
</g>
<!-- Node88 -->
<g id="node30" class="node">
<title>Node88</title>
<g id="a_node30"><a xlink:href="helpers_8h_source.html" target="_top" xlink:title="src/aktualizr_lite\l/helpers.h">
<polygon fill="#ffffff" stroke="#000000" points="2057,-151 2057,-181 2155,-181 2155,-151 2057,-151"/>
<text text-anchor="start" x="2065" y="-169" font-family="Helvetica,sans-Serif" font-size="10.00" fill="#000000">src/aktualizr_lite</text>
<text text-anchor="middle" x="2106" y="-158" font-family="Helvetica,sans-Serif" font-size="10.00" fill="#000000">/helpers.h</text>
</a>
</g>
</g>
<!-- Node87&#45;&gt;Node88 -->
<g id="edge43" class="edge">
<title>Node87&#45;&gt;Node88</title>
<path fill="none" stroke="#191970" d="M2052.5447,-216.3313C2064.7083,-204.8785 2079.2301,-191.2054 2090.066,-181.0028"/>
<polygon fill="#191970" stroke="#191970" points="2049.8358,-214.0746 2044.9544,-223.478 2054.6344,-219.171 2049.8358,-214.0746"/>
</g>
<!-- Node92 -->
<g id="node34" class="node">
<title>Node92</title>
<g id="a_node34"><a xlink:href="dockerappmanager__test_8cc_source.html" target="_top" xlink:title="src/libaktualizr/package\l_manager/dockerappmanager\l_test.cc">
<polygon fill="#ffffff" stroke="#000000" points="2417.5,-145.5 2417.5,-186.5 2580.5,-186.5 2580.5,-145.5 2417.5,-145.5"/>
<text text-anchor="start" x="2425.5" y="-174.5" font-family="Helvetica,sans-Serif" font-size="10.00" fill="#000000">src/libaktualizr/package</text>
<text text-anchor="start" x="2425.5" y="-163.5" font-family="Helvetica,sans-Serif" font-size="10.00" fill="#000000">_manager/dockerappmanager</text>
<text text-anchor="middle" x="2499" y="-152.5" font-family="Helvetica,sans-Serif" font-size="10.00" fill="#000000">_test.cc</text>
</a>
</g>
</g>
<!-- Node87&#45;&gt;Node92 -->
<g id="edge47" class="edge">
<title>Node87&#45;&gt;Node92</title>
<path fill="none" stroke="#191970" d="M2104.4922,-229.8703C2180.2253,-220.7988 2300.0765,-205.3144 2403,-187 2407.7031,-186.1631 2412.5259,-185.2581 2417.3859,-184.3098"/>
<polygon fill="#191970" stroke="#191970" points="2103.6209,-226.4493 2094.105,-231.1074 2104.4488,-233.4001 2103.6209,-226.4493"/>
</g>
<!-- Node93 -->
<g id="node35" class="node">
<title>Node93</title>
<g id="a_node35"><a xlink:href="device__cred__prov__test_8cc.html" target="_top" xlink:title="src/libaktualizr/primary\l/device_cred_prov_test.cc">
<polygon fill="#ffffff" stroke="#000000" points="2598.5,-151 2598.5,-181 2741.5,-181 2741.5,-151 2598.5,-151"/>
<text text-anchor="start" x="2606.5" y="-169" font-family="Helvetica,sans-Serif" font-size="10.00" fill="#000000">src/libaktualizr/primary</text>
<text text-anchor="middle" x="2670" y="-158" font-family="Helvetica,sans-Serif" font-size="10.00" fill="#000000">/device_cred_prov_test.cc</text>
</a>
</g>
</g>
<!-- Node87&#45;&gt;Node93 -->
<g id="edge50" class="edge">
<title>Node87&#45;&gt;Node93</title>
<path fill="none" stroke="#191970" d="M2104.4131,-235.5344C2212.6094,-230.3856 2417.8316,-217.2857 2590,-187 2599.0511,-185.4078 2608.5766,-183.2993 2617.7737,-181.032"/>
<polygon fill="#191970" stroke="#191970" points="2104.0759,-232.0462 2094.2497,-236.0081 2104.4019,-239.0386 2104.0759,-232.0462"/>
</g>
<!-- Node94 -->
<g id="node36" class="node">
<title>Node94</title>
<g id="a_node36"><a xlink:href="initializer__test_8cc_source.html" target="_top" xlink:title="src/libaktualizr/primary\l/initializer_test.cc">
<polygon fill="#ffffff" stroke="#000000" points="1553,-151 1553,-181 1683,-181 1683,-151 1553,-151"/>
<text text-anchor="start" x="1561" y="-169" font-family="Helvetica,sans-Serif" font-size="10.00" fill="#000000">src/libaktualizr/primary</text>
<text text-anchor="middle" x="1618" y="-158" font-family="Helvetica,sans-Serif" font-size="10.00" fill="#000000">/initializer_test.cc</text>
</a>
</g>
</g>
<!-- Node87&#45;&gt;Node94 -->
<g id="edge51" class="edge">
<title>Node87&#45;&gt;Node94</title>
<path fill="none" stroke="#191970" d="M1953.6722,-229.7252C1885.0484,-221.0845 1781.118,-206.3753 1692,-187 1684.1702,-185.2977 1675.9457,-183.2398 1667.9416,-181.0865"/>
<polygon fill="#191970" stroke="#191970" points="1953.5983,-233.243 1963.9546,-231.0077 1954.4647,-226.2968 1953.5983,-233.243"/>
</g>
<!-- Node95 -->
<g id="node37" class="node">
<title>Node95</title>
<g id="a_node37"><a xlink:href="sotauptaneclient_8cc_source.html" target="_top" xlink:title="src/libaktualizr/primary\l/sotauptaneclient.cc">
<polygon fill="#ffffff" stroke="#000000" points="1701,-151 1701,-181 1831,-181 1831,-151 1701,-151"/>
<text text-anchor="start" x="1709" y="-169" font-family="Helvetica,sans-Serif" font-size="10.00" fill="#000000">src/libaktualizr/primary</text>
<text text-anchor="middle" x="1766" y="-158" font-family="Helvetica,sans-Serif" font-size="10.00" fill="#000000">/sotauptaneclient.cc</text>
</a>
</g>
</g>
<!-- Node87&#45;&gt;Node95 -->
<g id="edge52" class="edge">
<title>Node87&#45;&gt;Node95</title>
<path fill="none" stroke="#191970" d="M1963.9178,-220.7685C1927.7111,-210.8797 1881.8409,-198.3115 1841,-187 1834.0935,-185.0871 1826.8321,-183.0662 1819.6588,-181.064"/>
<polygon fill="#191970" stroke="#191970" points="1963.2927,-224.2259 1973.8614,-223.4833 1965.1364,-217.473 1963.2927,-224.2259"/>
</g>
<!-- Node96 -->
<g id="node38" class="node">
<title>Node96</title>
<g id="a_node38"><a xlink:href="uptane__vector__tests_8cc_source.html" target="_top" xlink:title="tests/uptane_vector\l_tests.cc">
<polygon fill="#ffffff" stroke="#000000" points="1849.5,-151 1849.5,-181 1962.5,-181 1962.5,-151 1849.5,-151"/>
<text text-anchor="start" x="1857.5" y="-169" font-family="Helvetica,sans-Serif" font-size="10.00" fill="#000000">tests/uptane_vector</text>
<text text-anchor="middle" x="1906" y="-158" font-family="Helvetica,sans-Serif" font-size="10.00" fill="#000000">_tests.cc</text>
</a>
</g>
</g>
<!-- Node87&#45;&gt;Node96 -->
<g id="edge61" class="edge">
<title>Node87&#45;&gt;Node96</title>
<path fill="none" stroke="#191970" d="M1994.6818,-218.2718C1974.6297,-206.4525 1949.7514,-191.7884 1931.453,-181.0028"/>
<polygon fill="#191970" stroke="#191970" points="1993.1222,-221.4153 2003.5143,-223.478 1996.6767,-215.3849 1993.1222,-221.4153"/>
</g>
<!-- Node89 -->
<g id="node31" class="node">
<title>Node89</title>
<g id="a_node31"><a xlink:href="helpers_8cc_source.html" target="_top" xlink:title="src/aktualizr_lite\l/helpers.cc">
<polygon fill="#ffffff" stroke="#000000" points="2111,-78.5 2111,-108.5 2209,-108.5 2209,-78.5 2111,-78.5"/>
<text text-anchor="start" x="2119" y="-96.5" font-family="Helvetica,sans-Serif" font-size="10.00" fill="#000000">src/aktualizr_lite</text>
<text text-anchor="middle" x="2160" y="-85.5" font-family="Helvetica,sans-Serif" font-size="10.00" fill="#000000">/helpers.cc</text>
</a>
</g>
</g>
<!-- Node88&#45;&gt;Node89 -->
<g id="edge44" class="edge">
<title>Node88&#45;&gt;Node89</title>
<path fill="none" stroke="#191970" d="M2123.247,-142.8443C2131.622,-131.6 2141.4434,-118.4139 2148.8255,-108.5028"/>
<polygon fill="#191970" stroke="#191970" points="2120.3553,-140.8674 2117.1888,-150.978 2125.9693,-145.0488 2120.3553,-140.8674"/>
</g>
<!-- Node90 -->
<g id="node32" class="node">
<title>Node90</title>
<g id="a_node32"><a xlink:href="helpers__test_8cc_source.html" target="_top" xlink:title="src/aktualizr_lite\l/helpers_test.cc">
<polygon fill="#ffffff" stroke="#000000" points="1879,-78.5 1879,-108.5 1977,-108.5 1977,-78.5 1879,-78.5"/>
<text text-anchor="start" x="1887" y="-96.5" font-family="Helvetica,sans-Serif" font-size="10.00" fill="#000000">src/aktualizr_lite</text>
<text text-anchor="middle" x="1928" y="-85.5" font-family="Helvetica,sans-Serif" font-size="10.00" fill="#000000">/helpers_test.cc</text>
</a>
</g>
</g>
<!-- Node88&#45;&gt;Node90 -->
<g id="edge45" class="edge">
<title>Node88&#45;&gt;Node90</title>
<path fill="none" stroke="#191970" d="M2059.83,-147.1948C2030.2526,-135.1478 1992.3886,-119.7257 1964.8345,-108.5028"/>
<polygon fill="#191970" stroke="#191970" points="2058.5367,-150.4472 2069.1183,-150.978 2061.1773,-143.9643 2058.5367,-150.4472"/>
</g>
<!-- Node91 -->
<g id="node33" class="node">
<title>Node91</title>
<g id="a_node33"><a xlink:href="aktualizr__lite_2main_8cc_source.html" target="_top" xlink:title="src/aktualizr_lite\l/main.cc">
<polygon fill="#ffffff" stroke="#000000" points="1995,-78.5 1995,-108.5 2093,-108.5 2093,-78.5 1995,-78.5"/>
<text text-anchor="start" x="2003" y="-96.5" font-family="Helvetica,sans-Serif" font-size="10.00" fill="#000000">src/aktualizr_lite</text>
<text text-anchor="middle" x="2044" y="-85.5" font-family="Helvetica,sans-Serif" font-size="10.00" fill="#000000">/main.cc</text>
</a>
</g>
</g>
<!-- Node88&#45;&gt;Node91 -->
<g id="edge46" class="edge">
<title>Node88&#45;&gt;Node91</title>
<path fill="none" stroke="#191970" d="M2086.4802,-143.1745C2076.8035,-131.8589 2065.3888,-118.5111 2056.83,-108.5028"/>
<polygon fill="#191970" stroke="#191970" points="2083.9943,-145.6527 2093.1536,-150.978 2089.3142,-141.1032 2083.9943,-145.6527"/>
</g>
</g>
</svg>
