<?xml version="1.0" encoding="UTF-8" standalone="no"?>
<!DOCTYPE svg PUBLIC "-//W3C//DTD SVG 1.1//EN"
 "http://www.w3.org/Graphics/SVG/1.1/DTD/svg11.dtd">
<!-- Generated by graphviz version 2.40.1 (20161225.0304)
 -->
<!-- Title: Graphical Class Hierarchy Pages: 1 -->
<svg width="330pt" height="332pt"
 viewBox="0.00 0.00 330.00 332.00" xmlns="http://www.w3.org/2000/svg" xmlns:xlink="http://www.w3.org/1999/xlink">
<g id="graph0" class="graph" transform="scale(1 1) rotate(0) translate(4 328)">
<title>Graphical Class Hierarchy</title>
<polygon fill="#ffffff" stroke="transparent" points="-4,4 -4,-328 326,-328 326,4 -4,4"/>
<!-- Node35 -->
<g id="node1" class="node">
<title>Node35</title>
<polygon fill="#ffffff" stroke="#bfbfbf" points="38.5,-152.5 38.5,-171.5 74.5,-171.5 74.5,-152.5 38.5,-152.5"/>
<text text-anchor="middle" x="56.5" y="-159.5" font-family="Helvetica,sans-Serif" font-size="10.00" fill="#000000">Test</text>
</g>
<!-- Node36 -->
<g id="node2" class="node">
<title>Node36</title>
<g id="a_node2"><a xlink:href="class_aktualizr_cert_provider_test.html" target="_top" xlink:title="AktualizrCertProviderTest">
<polygon fill="#ffffff" stroke="#000000" points="165.5,-304.5 165.5,-323.5 305.5,-323.5 305.5,-304.5 165.5,-304.5"/>
<text text-anchor="middle" x="235.5" y="-311.5" font-family="Helvetica,sans-Serif" font-size="10.00" fill="#000000">AktualizrCertProviderTest</text>
</a>
</g>
</g>
<!-- Node35&#45;&gt;Node36 -->
<g id="edge1" class="edge">
<title>Node35&#45;&gt;Node36</title>
<path fill="none" stroke="#191970" d="M64.2401,-181.069C77.1875,-210.4283 106.1123,-266.3053 149,-295 154.7505,-298.8475 161.1521,-301.9294 167.7983,-304.396"/>
<polygon fill="#191970" stroke="#191970" points="67.3282,-179.3868 60.1966,-171.5517 60.8856,-182.1241 67.3282,-179.3868"/>
</g>
<!-- Node37 -->
<g id="node3" class="node">
<title>Node37</title>
<g id="a_node3"><a xlink:href="class_aktualizr_info_test.html" target="_top" xlink:title="AktualizrInfoTest">
<polygon fill="#ffffff" stroke="#000000" points="186.5,-266.5 186.5,-285.5 284.5,-285.5 284.5,-266.5 186.5,-266.5"/>
<text text-anchor="middle" x="235.5" y="-273.5" font-family="Helvetica,sans-Serif" font-size="10.00" fill="#000000">AktualizrInfoTest</text>
</a>
</g>
</g>
<!-- Node35&#45;&gt;Node37 -->
<g id="edge2" class="edge">
<title>Node35&#45;&gt;Node37</title>
<path fill="none" stroke="#191970" d="M68.8033,-179.9474C84.7086,-201.6989 114.4963,-237.8143 149,-257 160.2876,-263.2765 173.4809,-267.4797 186.1139,-270.2944"/>
<polygon fill="#191970" stroke="#191970" points="71.5116,-177.7164 62.8634,-171.596 65.8072,-181.7736 71.5116,-177.7164"/>
</g>
<!-- Node38 -->
<g id="node4" class="node">
<title>Node38</title>
<g id="a_node4"><a xlink:href="class_metadata_expiration_test.html" target="_top" xlink:title="MetadataExpirationTest">
<polygon fill="#ffffff" stroke="#000000" points="170,-228.5 170,-247.5 301,-247.5 301,-228.5 170,-228.5"/>
<text text-anchor="middle" x="235.5" y="-235.5" font-family="Helvetica,sans-Serif" font-size="10.00" fill="#000000">MetadataExpirationTest</text>
</a>
</g>
</g>
<!-- Node35&#45;&gt;Node38 -->
<g id="edge3" class="edge">
<title>Node35&#45;&gt;Node38</title>
<path fill="none" stroke="#191970" d="M77.4967,-177.8016C95.565,-190.6768 122.7902,-208.4024 149,-219 158.4078,-222.8039 168.7141,-225.9093 178.8304,-228.4235"/>
<polygon fill="#191970" stroke="#191970" points="79.0823,-174.6269 68.9367,-171.5743 74.9643,-180.2875 79.0823,-174.6269"/>
</g>
<!-- Node39 -->
<g id="node5" class="node">
<title>Node39</title>
<g id="a_node5"><a xlink:href="class_partial_verification_secondary_test.html" target="_top" xlink:title="PartialVerificationSecondaryTest">
<polygon fill="#ffffff" stroke="#000000" points="149,-190.5 149,-209.5 322,-209.5 322,-190.5 149,-190.5"/>
<text text-anchor="middle" x="235.5" y="-197.5" font-family="Helvetica,sans-Serif" font-size="10.00" fill="#000000">PartialVerificationSecondaryTest</text>
</a>
</g>
</g>
<!-- Node35&#45;&gt;Node39 -->
<g id="edge4" class="edge">
<title>Node35&#45;&gt;Node39</title>
<path fill="none" stroke="#191970" d="M84.6867,-167.9838C113.0437,-174.0037 157.2134,-183.3805 190.4364,-190.4334"/>
<polygon fill="#191970" stroke="#191970" points="85.1574,-164.5058 74.6485,-165.8528 83.7037,-171.3532 85.1574,-164.5058"/>
</g>
<!-- Node40 -->
<g id="node6" class="node">
<title>Node40</title>
<g id="a_node6"><a xlink:href="class_secondary_ostree_test.html" target="_top" xlink:title="SecondaryOstreeTest">
<polygon fill="#ffffff" stroke="#000000" points="176,-152.5 176,-171.5 295,-171.5 295,-152.5 176,-152.5"/>
<text text-anchor="middle" x="235.5" y="-159.5" font-family="Helvetica,sans-Serif" font-size="10.00" fill="#000000">SecondaryOstreeTest</text>
</a>
</g>
</g>
<!-- Node35&#45;&gt;Node40 -->
<g id="edge5" class="edge">
<title>Node35&#45;&gt;Node40</title>
<path fill="none" stroke="#191970" d="M84.963,-162C109.3049,-162 145.1515,-162 175.7586,-162"/>
<polygon fill="#191970" stroke="#191970" points="84.6486,-158.5001 74.6485,-162 84.6485,-165.5001 84.6486,-158.5001"/>
</g>
<!-- Node41 -->
<g id="node7" class="node">
<title>Node41</title>
<g id="a_node7"><a xlink:href="class_secondary_rpc_test_negative.html" target="_top" xlink:title="SecondaryRpcTestNegative">
<polygon fill="#ffffff" stroke="#000000" points="161,-114.5 161,-133.5 310,-133.5 310,-114.5 161,-114.5"/>
<text text-anchor="middle" x="235.5" y="-121.5" font-family="Helvetica,sans-Serif" font-size="10.00" fill="#000000">SecondaryRpcTestNegative</text>
</a>
</g>
</g>
<!-- Node35&#45;&gt;Node41 -->
<g id="edge6" class="edge">
<title>Node35&#45;&gt;Node41</title>
<path fill="none" stroke="#191970" d="M84.6867,-156.0162C113.0437,-149.9963 157.2134,-140.6195 190.4364,-133.5666"/>
<polygon fill="#191970" stroke="#191970" points="83.7037,-152.6468 74.6485,-158.1472 85.1574,-159.4942 83.7037,-152.6468"/>
</g>
<!-- Node42 -->
<g id="node8" class="node">
<title>Node42</title>
<g id="a_node8"><a xlink:href="class_secondary_test.html" target="_top" xlink:title="SecondaryTest">
<polygon fill="#ffffff" stroke="#000000" points="192,-76.5 192,-95.5 279,-95.5 279,-76.5 192,-76.5"/>
<text text-anchor="middle" x="235.5" y="-83.5" font-family="Helvetica,sans-Serif" font-size="10.00" fill="#000000">SecondaryTest</text>
</a>
</g>
</g>
<!-- Node35&#45;&gt;Node42 -->
<g id="edge7" class="edge">
<title>Node35&#45;&gt;Node42</title>
<path fill="none" stroke="#191970" d="M77.4967,-146.1984C95.565,-133.3232 122.7902,-115.5976 149,-105 162.5415,-99.5247 177.9447,-95.4966 191.963,-92.5956"/>
<polygon fill="#191970" stroke="#191970" points="74.9643,-143.7125 68.9367,-152.4257 79.0823,-149.3731 74.9643,-143.7125"/>
</g>
<!-- Node0 -->
<g id="node9" class="node">
<title>Node0</title>
<g id="a_node9"><a xlink:href="class_secondary_test_negative.html" target="_top" xlink:title="SecondaryTestNegative">
<polygon fill="#ffffff" stroke="#000000" points="170,-.5 170,-19.5 301,-19.5 301,-.5 170,-.5"/>
<text text-anchor="middle" x="235.5" y="-7.5" font-family="Helvetica,sans-Serif" font-size="10.00" fill="#000000">SecondaryTestNegative</text>
</a>
</g>
</g>
<!-- Node35&#45;&gt;Node0 -->
<g id="edge8" class="edge">
<title>Node35&#45;&gt;Node0</title>
<path fill="none" stroke="#191970" d="M64.2401,-142.931C77.1875,-113.5717 106.1123,-57.6947 149,-29 155.2617,-24.8105 162.2953,-21.5288 169.5761,-18.9607"/>
<polygon fill="#191970" stroke="#191970" points="60.8856,-141.8759 60.1966,-152.4483 67.3282,-144.6132 60.8856,-141.8759"/>
</g>
<!-- Node43 -->
<g id="node10" class="node">
<title>Node43</title>
<g id="a_node10"><a xlink:href="class_virtual_secondary_test.html" target="_top" xlink:title="VirtualSecondaryTest">
<polygon fill="#ffffff" stroke="#000000" points="176,-38.5 176,-57.5 295,-57.5 295,-38.5 176,-38.5"/>
<text text-anchor="middle" x="235.5" y="-45.5" font-family="Helvetica,sans-Serif" font-size="10.00" fill="#000000">VirtualSecondaryTest</text>
</a>
</g>
</g>
<!-- Node35&#45;&gt;Node43 -->
<g id="edge9" class="edge">
<title>Node35&#45;&gt;Node43</title>
<path fill="none" stroke="#191970" d="M68.8033,-144.0526C84.7086,-122.3011 114.4963,-86.1857 149,-67 157.197,-62.4421 166.3989,-58.9775 175.6614,-56.344"/>
<polygon fill="#191970" stroke="#191970" points="65.8072,-142.2264 62.8634,-152.404 71.5116,-146.2836 65.8072,-142.2264"/>
</g>
<!-- Node1 -->
<g id="node11" class="node">
<title>Node1</title>
<polygon fill="#ffffff" stroke="#bfbfbf" points="0,-.5 0,-19.5 113,-19.5 113,-.5 0,-.5"/>
<text text-anchor="middle" x="56.5" y="-7.5" font-family="Helvetica,sans-Serif" font-size="10.00" fill="#000000">WithParamInterface</text>
</g>
<!-- Node1&#45;&gt;Node0 -->
<g id="edge10" class="edge">
<title>Node1&#45;&gt;Node0</title>
<path fill="none" stroke="#191970" d="M123.4712,-10C138.6459,-10 154.7447,-10 169.8634,-10"/>
<polygon fill="#191970" stroke="#191970" points="123.1368,-6.5001 113.1367,-10 123.1367,-13.5001 123.1368,-6.5001"/>
</g>
</g>
</svg>
