<?xml version="1.0" encoding="UTF-8" standalone="no"?>
<!DOCTYPE svg PUBLIC "-//W3C//DTD SVG 1.1//EN"
 "http://www.w3.org/Graphics/SVG/1.1/DTD/svg11.dtd">
<!-- Generated by graphviz version 2.40.1 (20161225.0304)
 -->
<!-- Title: Graphical Class Hierarchy Pages: 1 -->
<svg width="165pt" height="66pt"
 viewBox="0.00 0.00 165.00 66.00" xmlns="http://www.w3.org/2000/svg" xmlns:xlink="http://www.w3.org/1999/xlink">
<g id="graph0" class="graph" transform="scale(1 1) rotate(0) translate(4 62)">
<title>Graphical Class Hierarchy</title>
<polygon fill="#ffffff" stroke="transparent" points="-4,4 -4,-62 161,-62 161,4 -4,4"/>
<!-- Node0 -->
<g id="node1" class="node">
<title>Node0</title>
<g id="a_node1"><a xlink:href="class_repo.html" target="_top" xlink:title="Repo">
<polygon fill="#ffffff" stroke="#000000" points="0,-19.5 0,-38.5 41,-38.5 41,-19.5 0,-19.5"/>
<text text-anchor="middle" x="20.5" y="-26.5" font-family="Helvetica,sans-Serif" font-size="10.00" fill="#000000">Repo</text>
</a>
</g>
</g>
<!-- Node1 -->
<g id="node2" class="node">
<title>Node1</title>
<g id="a_node2"><a xlink:href="class_director_repo.html" target="_top" xlink:title="DirectorRepo">
<polygon fill="#ffffff" stroke="#000000" points="77,-38.5 77,-57.5 157,-57.5 157,-38.5 77,-38.5"/>
<text text-anchor="middle" x="117" y="-45.5" font-family="Helvetica,sans-Serif" font-size="10.00" fill="#000000">DirectorRepo</text>
</a>
</g>
</g>
<!-- Node0&#45;&gt;Node1 -->
<g id="edge1" class="edge">
<title>Node0&#45;&gt;Node1</title>
<path fill="none" stroke="#191970" d="M51.4649,-35.0967C59.4808,-36.675 68.2302,-38.3977 76.6497,-40.0554"/>
<polygon fill="#191970" stroke="#191970" points="51.9269,-31.6205 41.4391,-33.1227 50.5745,-38.4887 51.9269,-31.6205"/>
</g>
<!-- Node2 -->
<g id="node3" class="node">
<title>Node2</title>
<g id="a_node3"><a xlink:href="class_image_repo.html" target="_top" xlink:title="ImageRepo">
<polygon fill="#ffffff" stroke="#000000" points="81.5,-.5 81.5,-19.5 152.5,-19.5 152.5,-.5 81.5,-.5"/>
<text text-anchor="middle" x="117" y="-7.5" font-family="Helvetica,sans-Serif" font-size="10.00" fill="#000000">ImageRepo</text>
</a>
</g>
</g>
<!-- Node0&#45;&gt;Node2 -->
<g id="edge2" class="edge">
<title>Node0&#45;&gt;Node2</title>
<path fill="none" stroke="#191970" d="M51.2994,-22.9359C60.846,-21.0562 71.4459,-18.9692 81.2962,-17.0298"/>
<polygon fill="#191970" stroke="#191970" points="50.5745,-19.5113 41.4391,-24.8773 51.9269,-26.3795 50.5745,-19.5113"/>
</g>
</g>
</svg>
