<?xml version="1.0" encoding="UTF-8" standalone="no"?>
<!DOCTYPE svg PUBLIC "-//W3C//DTD SVG 1.1//EN"
 "http://www.w3.org/Graphics/SVG/1.1/DTD/svg11.dtd">
<!-- Generated by graphviz version 2.40.1 (20161225.0304)
 -->
<!-- Title: Graphical Class Hierarchy Pages: 1 -->
<svg width="702pt" height="1100pt"
 viewBox="0.00 0.00 702.00 1099.50" xmlns="http://www.w3.org/2000/svg" xmlns:xlink="http://www.w3.org/1999/xlink">
<g id="graph0" class="graph" transform="scale(1 1) rotate(0) translate(4 1095.5)">
<title>Graphical Class Hierarchy</title>
<polygon fill="#ffffff" stroke="transparent" points="-4,4 -4,-1095.5 698,-1095.5 698,4 -4,4"/>
<!-- Node244 -->
<g id="node1" class="node">
<title>Node244</title>
<g id="a_node1"><a xlink:title="STL class. ">
<polygon fill="#ffffff" stroke="#bfbfbf" points="0,-768 0,-787 86,-787 86,-768 0,-768"/>
<text text-anchor="middle" x="43" y="-775" font-family="Helvetica,sans-Serif" font-size="10.00" fill="#000000">std::exception</text>
</a>
</g>
</g>
<!-- Node0 -->
<g id="node2" class="node">
<title>Node0</title>
<g id="a_node2"><a xlink:href="classcampaign_1_1_campaign_parse_error.html" target="_top" xlink:title="campaign::CampaignParseError">
<polygon fill="#ffffff" stroke="#000000" points="122,-863 122,-882 292,-882 292,-863 122,-863"/>
<text text-anchor="middle" x="207" y="-870" font-family="Helvetica,sans-Serif" font-size="10.00" fill="#000000">campaign::CampaignParseError</text>
</a>
</g>
</g>
<!-- Node244&#45;&gt;Node0 -->
<g id="edge1" class="edge">
<title>Node244&#45;&gt;Node0</title>
<path fill="none" stroke="#8b1a1a" d="M56.6542,-795.4365C70.9938,-812.9738 95.1596,-839.0807 122,-853.5 129.1931,-857.3643 137.1337,-860.4438 145.1863,-862.8975"/>
<polygon fill="#8b1a1a" stroke="#8b1a1a" points="59.0438,-792.8166 50.0891,-787.154 53.5581,-797.1649 59.0438,-792.8166"/>
</g>
<!-- Node246 -->
<g id="node3" class="node">
<title>Node246</title>
<g id="a_node3"><a xlink:href="classdeserialization__error.html" target="_top" xlink:title="deserialization_error">
<polygon fill="#ffffff" stroke="#000000" points="148.5,-825 148.5,-844 265.5,-844 265.5,-825 148.5,-825"/>
<text text-anchor="middle" x="207" y="-832" font-family="Helvetica,sans-Serif" font-size="10.00" fill="#000000">deserialization_error</text>
</a>
</g>
</g>
<!-- Node244&#45;&gt;Node246 -->
<g id="edge2" class="edge">
<title>Node244&#45;&gt;Node246</title>
<path fill="none" stroke="#191970" d="M69.2933,-792.019C84.3621,-799.8589 103.8368,-809.1948 122,-815.5 132.5708,-819.1696 144.1327,-822.3053 155.2295,-824.9091"/>
<polygon fill="#191970" stroke="#191970" points="70.5588,-788.7282 60.0852,-787.1299 67.2761,-794.9107 70.5588,-788.7282"/>
</g>
<!-- Node247 -->
<g id="node4" class="node">
<title>Node247</title>
<g id="a_node4"><a xlink:href="class_o_s_tree_commit_parse_error.html" target="_top" xlink:title="OSTreeCommitParseError">
<polygon fill="#ffffff" stroke="#000000" points="137.5,-787 137.5,-806 276.5,-806 276.5,-787 137.5,-787"/>
<text text-anchor="middle" x="207" y="-794" font-family="Helvetica,sans-Serif" font-size="10.00" fill="#000000">OSTreeCommitParseError</text>
</a>
</g>
</g>
<!-- Node244&#45;&gt;Node247 -->
<g id="edge3" class="edge">
<title>Node244&#45;&gt;Node247</title>
<path fill="none" stroke="#8b1a1a" d="M96.2971,-783.6747C109.3606,-785.1881 123.5363,-786.8304 137.2449,-788.4186"/>
<polygon fill="#8b1a1a" stroke="#8b1a1a" points="96.4255,-780.1662 86.0891,-782.492 95.6198,-787.1197 96.4255,-780.1662"/>
</g>
<!-- Node248 -->
<g id="node5" class="node">
<title>Node248</title>
<g id="a_node5"><a xlink:href="class_o_s_tree_object_missing.html" target="_top" xlink:title="Thrown by GetObject when the object requested is not present in the repository. ">
<polygon fill="#ffffff" stroke="#000000" points="147.5,-749 147.5,-768 266.5,-768 266.5,-749 147.5,-749"/>
<text text-anchor="middle" x="207" y="-756" font-family="Helvetica,sans-Serif" font-size="10.00" fill="#000000">OSTreeObjectMissing</text>
</a>
</g>
</g>
<!-- Node244&#45;&gt;Node248 -->
<g id="edge4" class="edge">
<title>Node244&#45;&gt;Node248</title>
<path fill="none" stroke="#8b1a1a" d="M96.4759,-771.3046C112.7031,-769.4246 130.6328,-767.3474 147.2449,-765.4228"/>
<polygon fill="#8b1a1a" stroke="#8b1a1a" points="95.6198,-767.8803 86.0891,-772.508 96.4255,-774.8338 95.6198,-767.8803"/>
</g>
<!-- Node249 -->
<g id="node6" class="node">
<title>Node249</title>
<g id="a_node6"><a xlink:title="STL class. ">
<polygon fill="#ffffff" stroke="#bfbfbf" points="162.5,-711 162.5,-730 251.5,-730 251.5,-711 162.5,-711"/>
<text text-anchor="middle" x="207" y="-718" font-family="Helvetica,sans-Serif" font-size="10.00" fill="#000000">std::logic_error</text>
</a>
</g>
</g>
<!-- Node244&#45;&gt;Node249 -->
<g id="edge5" class="edge">
<title>Node244&#45;&gt;Node249</title>
<path fill="none" stroke="#191970" d="M69.2933,-762.981C84.3621,-755.1411 103.8368,-745.8052 122,-739.5 134.8564,-735.037 149.1788,-731.3637 162.3474,-728.4765"/>
<polygon fill="#191970" stroke="#191970" points="67.2761,-760.0893 60.0852,-767.8701 70.5588,-766.2718 67.2761,-760.0893"/>
</g>
<!-- Node275 -->
<g id="node32" class="node">
<title>Node275</title>
<g id="a_node32"><a xlink:title="STL class. ">
<polygon fill="#ffffff" stroke="#bfbfbf" points="155,-205 155,-224 259,-224 259,-205 155,-205"/>
<text text-anchor="middle" x="207" y="-212" font-family="Helvetica,sans-Serif" font-size="10.00" fill="#000000">std::runtime_error</text>
</a>
</g>
</g>
<!-- Node244&#45;&gt;Node275 -->
<g id="edge31" class="edge">
<title>Node244&#45;&gt;Node275</title>
<path fill="none" stroke="#191970" d="M48.7046,-757.9166C75.1358,-667.1803 185.2108,-289.3007 204.203,-224.1019"/>
<polygon fill="#191970" stroke="#191970" points="45.283,-757.1482 45.8465,-767.7281 52.0037,-759.106 45.283,-757.1482"/>
</g>
<!-- Node250 -->
<g id="node7" class="node">
<title>Node250</title>
<g id="a_node7"><a xlink:href="class_fatal_exception.html" target="_top" xlink:title="FatalException">
<polygon fill="#ffffff" stroke="#000000" points="357.5,-787 357.5,-806 445.5,-806 445.5,-787 357.5,-787"/>
<text text-anchor="middle" x="401.5" y="-794" font-family="Helvetica,sans-Serif" font-size="10.00" fill="#000000">FatalException</text>
</a>
</g>
</g>
<!-- Node249&#45;&gt;Node250 -->
<g id="edge6" class="edge">
<title>Node249&#45;&gt;Node250</title>
<path fill="none" stroke="#191970" d="M261.6175,-727.6858C272.1242,-730.4366 282.7316,-734.2403 292,-739.5 312.2335,-750.9822 307.959,-765.685 328,-777.5 336.8559,-782.7209 347.1386,-786.5242 357.1564,-789.289"/>
<polygon fill="#191970" stroke="#191970" points="262.1553,-724.2175 251.622,-725.358 260.5675,-731.035 262.1553,-724.2175"/>
</g>
<!-- Node251 -->
<g id="node8" class="node">
<title>Node251</title>
<g id="a_node8"><a xlink:href="class_not_implemented_exception.html" target="_top" xlink:title="NotImplementedException">
<polygon fill="#ffffff" stroke="#000000" points="328,-749 328,-768 475,-768 475,-749 328,-749"/>
<text text-anchor="middle" x="401.5" y="-756" font-family="Helvetica,sans-Serif" font-size="10.00" fill="#000000">NotImplementedException</text>
</a>
</g>
</g>
<!-- Node249&#45;&gt;Node251 -->
<g id="edge7" class="edge">
<title>Node249&#45;&gt;Node251</title>
<path fill="none" stroke="#191970" d="M261.4691,-731.1418C290.0973,-736.7349 324.903,-743.535 352.6519,-748.9564"/>
<polygon fill="#191970" stroke="#191970" points="262.1078,-727.7005 251.6222,-729.218 260.7655,-734.5706 262.1078,-727.7005"/>
</g>
<!-- Node252 -->
<g id="node9" class="node">
<title>Node252</title>
<g id="a_node9"><a xlink:title="STL class. ">
<polygon fill="#ffffff" stroke="#bfbfbf" points="350,-711 350,-730 453,-730 453,-711 350,-711"/>
<text text-anchor="middle" x="401.5" y="-718" font-family="Helvetica,sans-Serif" font-size="10.00" fill="#000000">std::domain_error</text>
</a>
</g>
</g>
<!-- Node249&#45;&gt;Node252 -->
<g id="edge8" class="edge">
<title>Node249&#45;&gt;Node252</title>
<path fill="none" stroke="#191970" d="M261.8961,-720.5C289.4891,-720.5 322.7356,-720.5 349.8613,-720.5"/>
<polygon fill="#191970" stroke="#191970" points="261.6223,-717.0001 251.6222,-720.5 261.6222,-724.0001 261.6223,-717.0001"/>
</g>
<!-- Node254 -->
<g id="node11" class="node">
<title>Node254</title>
<g id="a_node11"><a xlink:href="class_uptane_1_1_exception.html" target="_top" xlink:title="Uptane::Exception">
<polygon fill="#ffffff" stroke="#000000" points="348.5,-673 348.5,-692 454.5,-692 454.5,-673 348.5,-673"/>
<text text-anchor="middle" x="401.5" y="-680" font-family="Helvetica,sans-Serif" font-size="10.00" fill="#000000">Uptane::Exception</text>
</a>
</g>
</g>
<!-- Node249&#45;&gt;Node254 -->
<g id="edge10" class="edge">
<title>Node249&#45;&gt;Node254</title>
<path fill="none" stroke="#191970" d="M261.4691,-709.8582C290.0973,-704.2651 324.903,-697.465 352.6519,-692.0436"/>
<polygon fill="#191970" stroke="#191970" points="260.7655,-706.4294 251.6222,-711.782 262.1078,-713.2995 260.7655,-706.4294"/>
</g>
<!-- Node253 -->
<g id="node10" class="node">
<title>Node253</title>
<g id="a_node10"><a xlink:href="class_time_stamp_1_1_invalid_time_stamp.html" target="_top" xlink:title="TimeStamp::InvalidTimeStamp">
<polygon fill="#ffffff" stroke="#000000" points="518.5,-1072 518.5,-1091 686.5,-1091 686.5,-1072 518.5,-1072"/>
<text text-anchor="middle" x="602.5" y="-1079" font-family="Helvetica,sans-Serif" font-size="10.00" fill="#000000">TimeStamp::InvalidTimeStamp</text>
</a>
</g>
</g>
<!-- Node252&#45;&gt;Node253 -->
<g id="edge9" class="edge">
<title>Node252&#45;&gt;Node253</title>
<path fill="none" stroke="#191970" d="M462.5157,-729.5884C467.2039,-732.1828 471.4744,-735.4347 475,-739.5 569.6363,-848.6245 413.7602,-955.6889 511,-1062.5 514.3859,-1066.2191 518.2935,-1069.3162 522.5468,-1071.8872"/>
<polygon fill="#191970" stroke="#191970" points="463.6292,-726.2524 453.0714,-725.3682 460.7735,-732.6434 463.6292,-726.2524"/>
</g>
<!-- Node255 -->
<g id="node12" class="node">
<title>Node255</title>
<g id="a_node12"><a xlink:href="class_uptane_1_1_bad_ecu_id.html" target="_top" xlink:title="Uptane::BadEcuId">
<polygon fill="#ffffff" stroke="#000000" points="551,-1034 551,-1053 654,-1053 654,-1034 551,-1034"/>
<text text-anchor="middle" x="602.5" y="-1041" font-family="Helvetica,sans-Serif" font-size="10.00" fill="#000000">Uptane::BadEcuId</text>
</a>
</g>
</g>
<!-- Node254&#45;&gt;Node255 -->
<g id="edge11" class="edge">
<title>Node254&#45;&gt;Node255</title>
<path fill="none" stroke="#191970" d="M463.6855,-692.2546C467.9145,-694.7336 471.7699,-697.7754 475,-701.5 569.6363,-810.6245 413.7602,-917.6889 511,-1024.5 521.1576,-1035.6574 536.0106,-1041.2158 550.807,-1043.7706"/>
<polygon fill="#191970" stroke="#191970" points="465.0951,-689.0494 454.5608,-687.9181 462.0904,-695.3718 465.0951,-689.0494"/>
</g>
<!-- Node256 -->
<g id="node13" class="node">
<title>Node256</title>
<g id="a_node13"><a xlink:href="class_uptane_1_1_bad_hardware_id.html" target="_top" xlink:title="Uptane::BadHardwareId">
<polygon fill="#ffffff" stroke="#000000" points="536,-996 536,-1015 669,-1015 669,-996 536,-996"/>
<text text-anchor="middle" x="602.5" y="-1003" font-family="Helvetica,sans-Serif" font-size="10.00" fill="#000000">Uptane::BadHardwareId</text>
</a>
</g>
</g>
<!-- Node254&#45;&gt;Node256 -->
<g id="edge12" class="edge">
<title>Node254&#45;&gt;Node256</title>
<path fill="none" stroke="#191970" d="M464.1557,-692.6188C468.1907,-695.0281 471.8788,-697.9538 475,-701.5 559.3527,-797.3388 424.3611,-892.7228 511,-986.5 517.716,-993.7693 526.4265,-998.6531 535.7998,-1001.8755"/>
<polygon fill="#191970" stroke="#191970" points="465.3807,-689.3237 454.8535,-688.1286 462.3377,-695.6277 465.3807,-689.3237"/>
</g>
<!-- Node257 -->
<g id="node14" class="node">
<title>Node257</title>
<g id="a_node14"><a xlink:href="class_uptane_1_1_bad_key_id.html" target="_top" xlink:title="Uptane::BadKeyId">
<polygon fill="#ffffff" stroke="#000000" points="550.5,-958 550.5,-977 654.5,-977 654.5,-958 550.5,-958"/>
<text text-anchor="middle" x="602.5" y="-965" font-family="Helvetica,sans-Serif" font-size="10.00" fill="#000000">Uptane::BadKeyId</text>
</a>
</g>
</g>
<!-- Node254&#45;&gt;Node257 -->
<g id="edge13" class="edge">
<title>Node254&#45;&gt;Node257</title>
<path fill="none" stroke="#191970" d="M464.0809,-692.6852C468.1328,-695.0796 471.8451,-697.9837 475,-701.5 549.0867,-784.0731 434.944,-867.7371 511,-948.5 521.1219,-959.2483 535.6095,-964.756 550.0801,-967.3908"/>
<polygon fill="#191970" stroke="#191970" points="465.2839,-689.3807 454.7531,-688.2178 462.2602,-695.694 465.2839,-689.3807"/>
</g>
<!-- Node258 -->
<g id="node15" class="node">
<title>Node258</title>
<g id="a_node15"><a xlink:href="class_uptane_1_1_delegation_hash_mismatch.html" target="_top" xlink:title="Uptane::DelegationHashMismatch">
<polygon fill="#ffffff" stroke="#000000" points="511,-920 511,-939 694,-939 694,-920 511,-920"/>
<text text-anchor="middle" x="602.5" y="-927" font-family="Helvetica,sans-Serif" font-size="10.00" fill="#000000">Uptane::DelegationHashMismatch</text>
</a>
</g>
</g>
<!-- Node254&#45;&gt;Node258 -->
<g id="edge14" class="edge">
<title>Node254&#45;&gt;Node258</title>
<path fill="none" stroke="#191970" d="M463.9807,-692.7763C468.0551,-695.1502 471.7999,-698.0248 475,-701.5 538.8482,-770.838 445.4986,-842.7216 511,-910.5 514.6079,-914.2333 518.7435,-917.3302 523.2185,-919.8914"/>
<polygon fill="#191970" stroke="#191970" points="465.154,-689.4593 454.6184,-688.3402 462.1566,-695.7851 465.154,-689.4593"/>
</g>
<!-- Node259 -->
<g id="node16" class="node">
<title>Node259</title>
<g id="a_node16"><a xlink:href="class_uptane_1_1_delegation_missing.html" target="_top" xlink:title="Uptane::DelegationMissing">
<polygon fill="#ffffff" stroke="#000000" points="528.5,-882 528.5,-901 676.5,-901 676.5,-882 528.5,-882"/>
<text text-anchor="middle" x="602.5" y="-889" font-family="Helvetica,sans-Serif" font-size="10.00" fill="#000000">Uptane::DelegationMissing</text>
</a>
</g>
</g>
<!-- Node254&#45;&gt;Node259 -->
<g id="edge15" class="edge">
<title>Node254&#45;&gt;Node259</title>
<path fill="none" stroke="#191970" d="M464.038,-693.0225C468.0678,-695.3443 471.789,-698.1395 475,-701.5 528.6555,-757.6524 456.0063,-817.6576 511,-872.5 515.9399,-877.4263 521.8018,-881.2337 528.1367,-884.1591"/>
<polygon fill="#191970" stroke="#191970" points="465.3382,-689.7659 454.8013,-688.6599 462.3487,-696.0954 465.3382,-689.7659"/>
</g>
<!-- Node260 -->
<g id="node17" class="node">
<title>Node260</title>
<g id="a_node17"><a xlink:href="class_uptane_1_1_expired_metadata.html" target="_top" xlink:title="Uptane::ExpiredMetadata">
<polygon fill="#ffffff" stroke="#000000" points="532.5,-844 532.5,-863 672.5,-863 672.5,-844 532.5,-844"/>
<text text-anchor="middle" x="602.5" y="-851" font-family="Helvetica,sans-Serif" font-size="10.00" fill="#000000">Uptane::ExpiredMetadata</text>
</a>
</g>
</g>
<!-- Node254&#45;&gt;Node260 -->
<g id="edge16" class="edge">
<title>Node254&#45;&gt;Node260</title>
<path fill="none" stroke="#191970" d="M463.8279,-693.2291C467.9053,-695.5041 471.6948,-698.2321 475,-701.5 518.5476,-744.555 466.427,-792.5075 511,-834.5 517.1407,-840.2852 524.562,-844.5041 532.4903,-847.5543"/>
<polygon fill="#191970" stroke="#191970" points="465.0646,-689.9452 454.5176,-688.9387 462.1349,-696.3027 465.0646,-689.9452"/>
</g>
<!-- Node261 -->
<g id="node18" class="node">
<title>Node261</title>
<g id="a_node18"><a xlink:href="class_uptane_1_1_illegal_threshold.html" target="_top" xlink:title="Uptane::IllegalThreshold">
<polygon fill="#ffffff" stroke="#000000" points="534.5,-806 534.5,-825 670.5,-825 670.5,-806 534.5,-806"/>
<text text-anchor="middle" x="602.5" y="-813" font-family="Helvetica,sans-Serif" font-size="10.00" fill="#000000">Uptane::IllegalThreshold</text>
</a>
</g>
</g>
<!-- Node254&#45;&gt;Node261 -->
<g id="edge17" class="edge">
<title>Node254&#45;&gt;Node261</title>
<path fill="none" stroke="#191970" d="M464.2122,-693.9902C468.0949,-696.0988 471.7428,-698.5806 475,-701.5 508.6231,-731.6364 476.6601,-767.183 511,-796.5 517.7866,-802.2939 525.8804,-806.4752 534.4067,-809.4694"/>
<polygon fill="#191970" stroke="#191970" points="465.3527,-690.6642 454.8003,-689.7172 462.4589,-697.0381 465.3527,-690.6642"/>
</g>
<!-- Node262 -->
<g id="node19" class="node">
<title>Node262</title>
<g id="a_node19"><a xlink:href="class_uptane_1_1_invalid_metadata.html" target="_top" xlink:title="Uptane::InvalidMetadata">
<polygon fill="#ffffff" stroke="#000000" points="534,-768 534,-787 671,-787 671,-768 534,-768"/>
<text text-anchor="middle" x="602.5" y="-775" font-family="Helvetica,sans-Serif" font-size="10.00" fill="#000000">Uptane::InvalidMetadata</text>
</a>
</g>
</g>
<!-- Node254&#45;&gt;Node262 -->
<g id="edge18" class="edge">
<title>Node254&#45;&gt;Node262</title>
<path fill="none" stroke="#191970" d="M463.9928,-694.9637C467.8742,-696.845 471.586,-699.0096 475,-701.5 499.2069,-719.1579 486.3744,-741.4309 511,-758.5 517.8005,-763.2137 525.5228,-766.8034 533.5299,-769.5298"/>
<polygon fill="#191970" stroke="#191970" points="465.2646,-691.7018 454.6887,-691.0678 462.5609,-698.1586 465.2646,-691.7018"/>
</g>
<!-- Node263 -->
<g id="node20" class="node">
<title>Node263</title>
<g id="a_node20"><a xlink:href="class_uptane_1_1_invalid_target.html" target="_top" xlink:title="Uptane::InvalidTarget">
<polygon fill="#ffffff" stroke="#000000" points="542,-730 542,-749 663,-749 663,-730 542,-730"/>
<text text-anchor="middle" x="602.5" y="-737" font-family="Helvetica,sans-Serif" font-size="10.00" fill="#000000">Uptane::InvalidTarget</text>
</a>
</g>
</g>
<!-- Node254&#45;&gt;Node263 -->
<g id="edge19" class="edge">
<title>Node254&#45;&gt;Node263</title>
<path fill="none" stroke="#191970" d="M455.0628,-694.7849C461.8507,-696.7964 468.6412,-699.0388 475,-701.5 491.872,-708.0303 493.9755,-714.3784 511,-720.5 521.5344,-724.2879 533.0373,-727.4142 544.2214,-729.9604"/>
<polygon fill="#191970" stroke="#191970" points="455.7441,-691.3409 445.1701,-692.0044 453.85,-698.0797 455.7441,-691.3409"/>
</g>
<!-- Node264 -->
<g id="node21" class="node">
<title>Node264</title>
<g id="a_node21"><a xlink:href="class_uptane_1_1_metadata_fetch_failure.html" target="_top" xlink:title="Uptane::MetadataFetchFailure">
<polygon fill="#ffffff" stroke="#000000" points="522,-692 522,-711 683,-711 683,-692 522,-692"/>
<text text-anchor="middle" x="602.5" y="-699" font-family="Helvetica,sans-Serif" font-size="10.00" fill="#000000">Uptane::MetadataFetchFailure</text>
</a>
</g>
</g>
<!-- Node254&#45;&gt;Node264 -->
<g id="edge20" class="edge">
<title>Node254&#45;&gt;Node264</title>
<path fill="none" stroke="#191970" d="M464.7098,-688.4751C482.8219,-690.1871 502.8169,-692.0772 521.8264,-693.8741"/>
<polygon fill="#191970" stroke="#191970" points="464.8583,-684.9736 454.5733,-687.5169 464.1995,-691.9425 464.8583,-684.9736"/>
</g>
<!-- Node265 -->
<g id="node22" class="node">
<title>Node265</title>
<g id="a_node22"><a xlink:href="class_uptane_1_1_missing_repo.html" target="_top" xlink:title="Uptane::MissingRepo">
<polygon fill="#ffffff" stroke="#000000" points="543,-654 543,-673 662,-673 662,-654 543,-654"/>
<text text-anchor="middle" x="602.5" y="-661" font-family="Helvetica,sans-Serif" font-size="10.00" fill="#000000">Uptane::MissingRepo</text>
</a>
</g>
</g>
<!-- Node254&#45;&gt;Node265 -->
<g id="edge21" class="edge">
<title>Node254&#45;&gt;Node265</title>
<path fill="none" stroke="#191970" d="M464.6613,-676.5295C489.6081,-674.1714 518.1331,-671.475 542.737,-669.1492"/>
<polygon fill="#191970" stroke="#191970" points="464.1995,-673.0575 454.5733,-677.4831 464.8583,-680.0264 464.1995,-673.0575"/>
</g>
<!-- Node266 -->
<g id="node23" class="node">
<title>Node266</title>
<g id="a_node23"><a xlink:href="class_uptane_1_1_non_unique_signatures.html" target="_top" xlink:title="Uptane::NonUniqueSignatures">
<polygon fill="#ffffff" stroke="#000000" points="520.5,-616 520.5,-635 684.5,-635 684.5,-616 520.5,-616"/>
<text text-anchor="middle" x="602.5" y="-623" font-family="Helvetica,sans-Serif" font-size="10.00" fill="#000000">Uptane::NonUniqueSignatures</text>
</a>
</g>
</g>
<!-- Node254&#45;&gt;Node266 -->
<g id="edge22" class="edge">
<title>Node254&#45;&gt;Node266</title>
<path fill="none" stroke="#191970" d="M435.623,-669.3807C457.0484,-661.4635 485.3802,-651.5735 511,-644.5 523.6677,-641.0025 537.4795,-637.8161 550.4431,-635.0941"/>
<polygon fill="#191970" stroke="#191970" points="434.1444,-666.1968 426.0014,-672.9749 436.594,-672.7542 434.1444,-666.1968"/>
</g>
<!-- Node267 -->
<g id="node24" class="node">
<title>Node267</title>
<g id="a_node24"><a xlink:href="class_uptane_1_1_oversized_target.html" target="_top" xlink:title="Uptane::OversizedTarget">
<polygon fill="#ffffff" stroke="#000000" points="534,-578 534,-597 671,-597 671,-578 534,-578"/>
<text text-anchor="middle" x="602.5" y="-585" font-family="Helvetica,sans-Serif" font-size="10.00" fill="#000000">Uptane::OversizedTarget</text>
</a>
</g>
</g>
<!-- Node254&#45;&gt;Node267 -->
<g id="edge23" class="edge">
<title>Node254&#45;&gt;Node267</title>
<path fill="none" stroke="#191970" d="M419.7851,-666.3047C440.4698,-648.8633 475.868,-621.5917 511,-606.5 519.9442,-602.6578 529.7221,-599.573 539.4515,-597.1015"/>
<polygon fill="#191970" stroke="#191970" points="417.4168,-663.725 412.1125,-672.8964 421.9785,-669.0346 417.4168,-663.725"/>
</g>
<!-- Node268 -->
<g id="node25" class="node">
<title>Node268</title>
<g id="a_node25"><a xlink:href="class_uptane_1_1_root_rotation_error.html" target="_top" xlink:title="Uptane::RootRotationError">
<polygon fill="#ffffff" stroke="#000000" points="531,-540 531,-559 674,-559 674,-540 531,-540"/>
<text text-anchor="middle" x="602.5" y="-547" font-family="Helvetica,sans-Serif" font-size="10.00" fill="#000000">Uptane::RootRotationError</text>
</a>
</g>
</g>
<!-- Node254&#45;&gt;Node268 -->
<g id="edge24" class="edge">
<title>Node254&#45;&gt;Node268</title>
<path fill="none" stroke="#191970" d="M413.588,-664.2222C431.5986,-638.5436 468.0086,-592.2738 511,-568.5 517.957,-564.6528 525.603,-561.5823 533.4194,-559.1321"/>
<polygon fill="#191970" stroke="#191970" points="410.5653,-662.4419 407.8068,-672.6714 416.3424,-666.3948 410.5653,-662.4419"/>
</g>
<!-- Node269 -->
<g id="node26" class="node">
<title>Node269</title>
<g id="a_node26"><a xlink:href="class_uptane_1_1_security_exception.html" target="_top" xlink:title="Uptane::SecurityException">
<polygon fill="#ffffff" stroke="#000000" points="529.5,-502 529.5,-521 675.5,-521 675.5,-502 529.5,-502"/>
<text text-anchor="middle" x="602.5" y="-509" font-family="Helvetica,sans-Serif" font-size="10.00" fill="#000000">Uptane::SecurityException</text>
</a>
</g>
</g>
<!-- Node254&#45;&gt;Node269 -->
<g id="edge25" class="edge">
<title>Node254&#45;&gt;Node269</title>
<path fill="none" stroke="#191970" d="M409.5763,-663.3777C424.4782,-630.5737 459.5484,-563.8888 511,-530.5 516.9883,-526.614 523.6211,-523.5025 530.5,-521.0141"/>
<polygon fill="#191970" stroke="#191970" points="406.2752,-662.1899 405.4515,-672.7527 412.6825,-665.009 406.2752,-662.1899"/>
</g>
<!-- Node270 -->
<g id="node27" class="node">
<title>Node270</title>
<g id="a_node27"><a xlink:href="class_uptane_1_1_target_content_mismatch.html" target="_top" xlink:title="Uptane::TargetContentMismatch">
<polygon fill="#ffffff" stroke="#000000" points="516,-464 516,-483 689,-483 689,-464 516,-464"/>
<text text-anchor="middle" x="602.5" y="-471" font-family="Helvetica,sans-Serif" font-size="10.00" fill="#000000">Uptane::TargetContentMismatch</text>
</a>
</g>
</g>
<!-- Node254&#45;&gt;Node270 -->
<g id="edge26" class="edge">
<title>Node254&#45;&gt;Node270</title>
<path fill="none" stroke="#191970" d="M406.833,-663.0567C418.6024,-624.0278 450.6648,-536.1556 511,-492.5 516.2578,-488.6957 522.1064,-485.6165 528.2328,-483.1285"/>
<polygon fill="#191970" stroke="#191970" points="403.4624,-662.1134 404.0449,-672.6923 410.1866,-664.0592 403.4624,-662.1134"/>
</g>
<!-- Node271 -->
<g id="node28" class="node">
<title>Node271</title>
<g id="a_node28"><a xlink:href="class_uptane_1_1_target_hash_mismatch.html" target="_top" xlink:title="Uptane::TargetHashMismatch">
<polygon fill="#ffffff" stroke="#000000" points="522.5,-426 522.5,-445 682.5,-445 682.5,-426 522.5,-426"/>
<text text-anchor="middle" x="602.5" y="-433" font-family="Helvetica,sans-Serif" font-size="10.00" fill="#000000">Uptane::TargetHashMismatch</text>
</a>
</g>
</g>
<!-- Node254&#45;&gt;Node271 -->
<g id="edge27" class="edge">
<title>Node254&#45;&gt;Node271</title>
<path fill="none" stroke="#191970" d="M404.8692,-662.9604C413.6354,-618.3905 441.4958,-508.8784 511,-454.5 515.8557,-450.701 521.2859,-447.6112 527.0132,-445.1038"/>
<polygon fill="#191970" stroke="#191970" points="401.4231,-662.3484 403.0381,-672.8194 408.3054,-663.6267 401.4231,-662.3484"/>
</g>
<!-- Node272 -->
<g id="node29" class="node">
<title>Node272</title>
<g id="a_node29"><a xlink:href="class_uptane_1_1_target_mismatch.html" target="_top" xlink:title="Uptane::TargetMismatch">
<polygon fill="#ffffff" stroke="#000000" points="535,-388 535,-407 670,-407 670,-388 535,-388"/>
<text text-anchor="middle" x="602.5" y="-395" font-family="Helvetica,sans-Serif" font-size="10.00" fill="#000000">Uptane::TargetMismatch</text>
</a>
</g>
</g>
<!-- Node254&#45;&gt;Node272 -->
<g id="edge28" class="edge">
<title>Node254&#45;&gt;Node272</title>
<path fill="none" stroke="#191970" d="M403.4218,-662.8392C409.3819,-613.1542 432.1943,-481.8747 511,-416.5 517.8678,-410.8027 526.0081,-406.6764 534.557,-403.7092"/>
<polygon fill="#191970" stroke="#191970" points="399.9302,-662.5725 402.3173,-672.8948 406.8883,-663.3368 399.9302,-662.5725"/>
</g>
<!-- Node273 -->
<g id="node30" class="node">
<title>Node273</title>
<g id="a_node30"><a xlink:href="class_uptane_1_1_unmet_threshold.html" target="_top" xlink:title="Uptane::UnmetThreshold">
<polygon fill="#ffffff" stroke="#000000" points="533,-350 533,-369 672,-369 672,-350 533,-350"/>
<text text-anchor="middle" x="602.5" y="-357" font-family="Helvetica,sans-Serif" font-size="10.00" fill="#000000">Uptane::UnmetThreshold</text>
</a>
</g>
</g>
<!-- Node254&#45;&gt;Node273 -->
<g id="edge29" class="edge">
<title>Node254&#45;&gt;Node273</title>
<path fill="none" stroke="#191970" d="M402.3028,-662.6632C405.6388,-608.1528 422.8057,-455.0607 511,-378.5 517.371,-372.9694 524.929,-368.9017 532.929,-365.9307"/>
<polygon fill="#191970" stroke="#191970" points="398.8031,-662.5679 401.7803,-672.7359 405.7937,-662.9306 398.8031,-662.5679"/>
</g>
<!-- Node274 -->
<g id="node31" class="node">
<title>Node274</title>
<g id="a_node31"><a xlink:href="class_uptane_1_1_version_mismatch.html" target="_top" xlink:title="Uptane::VersionMismatch">
<polygon fill="#ffffff" stroke="#000000" points="532,-312 532,-331 673,-331 673,-312 532,-312"/>
<text text-anchor="middle" x="602.5" y="-319" font-family="Helvetica,sans-Serif" font-size="10.00" fill="#000000">Uptane::VersionMismatch</text>
</a>
</g>
</g>
<!-- Node254&#45;&gt;Node274 -->
<g id="edge30" class="edge">
<title>Node254&#45;&gt;Node274</title>
<path fill="none" stroke="#191970" d="M405.1002,-662.9323C417.595,-597.1292 461.0624,-385.4459 511,-340.5 517.0296,-335.0731 524.1943,-331.0413 531.8208,-328.0667"/>
<polygon fill="#191970" stroke="#191970" points="401.6477,-662.354 403.2474,-672.8274 408.5281,-663.6424 401.6477,-662.354"/>
</g>
<!-- Node276 -->
<g id="node33" class="node">
<title>Node276</title>
<g id="a_node33"><a xlink:href="class_bad_credentials_archive.html" target="_top" xlink:title="BadCredentialsArchive">
<polygon fill="#ffffff" stroke="#000000" points="337.5,-338 337.5,-357 465.5,-357 465.5,-338 337.5,-338"/>
<text text-anchor="middle" x="401.5" y="-345" font-family="Helvetica,sans-Serif" font-size="10.00" fill="#000000">BadCredentialsArchive</text>
</a>
</g>
</g>
<!-- Node275&#45;&gt;Node276 -->
<g id="edge32" class="edge">
<title>Node275&#45;&gt;Node276</title>
<path fill="none" stroke="#191970" d="M220.7031,-232.1231C241.2648,-257.3379 282.5662,-303.4256 328,-328.5 335.0389,-332.3847 342.8965,-335.4969 350.783,-337.9841"/>
<polygon fill="#191970" stroke="#191970" points="223.3011,-229.7677 214.3223,-224.1434 217.834,-234.1394 223.3011,-229.7677"/>
</g>
<!-- Node277 -->
<g id="node34" class="node">
<title>Node277</title>
<g id="a_node34"><a xlink:href="class_bad_credentials_content.html" target="_top" xlink:title="BadCredentialsContent">
<polygon fill="#ffffff" stroke="#000000" points="337,-300 337,-319 466,-319 466,-300 337,-300"/>
<text text-anchor="middle" x="401.5" y="-307" font-family="Helvetica,sans-Serif" font-size="10.00" fill="#000000">BadCredentialsContent</text>
</a>
</g>
</g>
<!-- Node275&#45;&gt;Node277 -->
<g id="edge33" class="edge">
<title>Node275&#45;&gt;Node277</title>
<path fill="none" stroke="#191970" d="M227.4049,-230.0891C250.6203,-247.1452 290.2244,-274.2208 328,-290.5 336.7147,-294.2556 346.3414,-297.4016 355.6777,-299.9838"/>
<polygon fill="#191970" stroke="#191970" points="229.4579,-227.254 219.3477,-224.0861 225.2757,-232.8674 229.4579,-227.254"/>
</g>
<!-- Node278 -->
<g id="node35" class="node">
<title>Node278</title>
<g id="a_node35"><a xlink:href="class_bad_credentials_json.html" target="_top" xlink:title="BadCredentialsJson">
<polygon fill="#ffffff" stroke="#000000" points="346,-262 346,-281 457,-281 457,-262 346,-262"/>
<text text-anchor="middle" x="401.5" y="-269" font-family="Helvetica,sans-Serif" font-size="10.00" fill="#000000">BadCredentialsJson</text>
</a>
</g>
</g>
<!-- Node275&#45;&gt;Node278 -->
<g id="edge34" class="edge">
<title>Node275&#45;&gt;Node278</title>
<path fill="none" stroke="#191970" d="M245.8777,-227.2674C269.5296,-234.8952 300.4005,-244.6045 328,-252.5 339.2777,-255.7262 351.5974,-259.0057 362.8716,-261.9114"/>
<polygon fill="#191970" stroke="#191970" points="246.8057,-223.889 236.2138,-224.1371 244.6486,-230.5483 246.8057,-223.889"/>
</g>
<!-- Node279 -->
<g id="node36" class="node">
<title>Node279</title>
<g id="a_node36"><a xlink:href="class_initializer_1_1_error.html" target="_top" xlink:title="Initializer::Error">
<polygon fill="#ffffff" stroke="#000000" points="355.5,-224 355.5,-243 447.5,-243 447.5,-224 355.5,-224"/>
<text text-anchor="middle" x="401.5" y="-231" font-family="Helvetica,sans-Serif" font-size="10.00" fill="#000000">Initializer::Error</text>
</a>
</g>
</g>
<!-- Node275&#45;&gt;Node279 -->
<g id="edge35" class="edge">
<title>Node275&#45;&gt;Node279</title>
<path fill="none" stroke="#191970" d="M269.1863,-220.5748C297.1049,-223.302 329.475,-226.4641 355.2097,-228.9781"/>
<polygon fill="#191970" stroke="#191970" points="269.4154,-217.0806 259.1224,-219.5917 268.7347,-224.0474 269.4154,-217.0806"/>
</g>
<!-- Node284 -->
<g id="node41" class="node">
<title>Node284</title>
<g id="a_node41"><a xlink:href="class_s_q_l_exception.html" target="_top" xlink:title="SQLException">
<polygon fill="#ffffff" stroke="#000000" points="360,-186 360,-205 443,-205 443,-186 360,-186"/>
<text text-anchor="middle" x="401.5" y="-193" font-family="Helvetica,sans-Serif" font-size="10.00" fill="#000000">SQLException</text>
</a>
</g>
</g>
<!-- Node275&#45;&gt;Node284 -->
<g id="edge40" class="edge">
<title>Node275&#45;&gt;Node284</title>
<path fill="none" stroke="#191970" d="M269.341,-208.4101C298.8753,-205.525 333.3624,-202.1561 359.7002,-199.5833"/>
<polygon fill="#191970" stroke="#191970" points="268.7347,-204.9526 259.1224,-209.4083 269.4154,-211.9194 268.7347,-204.9526"/>
</g>
<!-- Node285 -->
<g id="node42" class="node">
<title>Node285</title>
<g id="a_node42"><a xlink:href="class_storage_exception.html" target="_top" xlink:title="StorageException">
<polygon fill="#ffffff" stroke="#000000" points="350.5,-148 350.5,-167 452.5,-167 452.5,-148 350.5,-148"/>
<text text-anchor="middle" x="401.5" y="-155" font-family="Helvetica,sans-Serif" font-size="10.00" fill="#000000">StorageException</text>
</a>
</g>
</g>
<!-- Node275&#45;&gt;Node285 -->
<g id="edge41" class="edge">
<title>Node275&#45;&gt;Node285</title>
<path fill="none" stroke="#191970" d="M245.8777,-201.7326C269.5296,-194.1048 300.4005,-184.3955 328,-176.5 339.2777,-173.2738 351.5974,-169.9943 362.8716,-167.0886"/>
<polygon fill="#191970" stroke="#191970" points="244.6486,-198.4517 236.2138,-204.8629 246.8057,-205.111 244.6486,-198.4517"/>
</g>
<!-- Node286 -->
<g id="node43" class="node">
<title>Node286</title>
<g id="a_node43"><a xlink:href="class_storage_lock_1_1locked__exception.html" target="_top" xlink:title="StorageLock::locked\l_exception">
<polygon fill="#ffffff" stroke="#000000" points="344,-98.5 344,-128.5 459,-128.5 459,-98.5 344,-98.5"/>
<text text-anchor="start" x="352" y="-116.5" font-family="Helvetica,sans-Serif" font-size="10.00" fill="#000000">StorageLock::locked</text>
<text text-anchor="middle" x="401.5" y="-105.5" font-family="Helvetica,sans-Serif" font-size="10.00" fill="#000000">_exception</text>
</a>
</g>
</g>
<!-- Node275&#45;&gt;Node286 -->
<g id="edge42" class="edge">
<title>Node275&#45;&gt;Node286</title>
<path fill="none" stroke="#8b1a1a" d="M228.3989,-198.8975C251.9193,-182.2739 291.2576,-155.9929 328,-138.5 335.5451,-134.9078 343.7467,-131.5892 351.8442,-128.6224"/>
<polygon fill="#8b1a1a" stroke="#8b1a1a" points="226.2993,-196.096 220.1974,-204.7573 230.3687,-201.7917 226.2993,-196.096"/>
</g>
<!-- Node287 -->
<g id="node44" class="node">
<title>Node287</title>
<g id="a_node44"><a xlink:href="class_storage_target_r_handle_1_1_read_error.html" target="_top" xlink:title="StorageTargetRHandle\l::ReadError">
<polygon fill="#ffffff" stroke="#000000" points="339,-49.5 339,-79.5 464,-79.5 464,-49.5 339,-49.5"/>
<text text-anchor="start" x="347" y="-67.5" font-family="Helvetica,sans-Serif" font-size="10.00" fill="#000000">StorageTargetRHandle</text>
<text text-anchor="middle" x="401.5" y="-56.5" font-family="Helvetica,sans-Serif" font-size="10.00" fill="#000000">::ReadError</text>
</a>
</g>
</g>
<!-- Node275&#45;&gt;Node287 -->
<g id="edge43" class="edge">
<title>Node275&#45;&gt;Node287</title>
<path fill="none" stroke="#191970" d="M219.6415,-196.5305C239.6422,-169.368 281.1537,-117.9112 328,-88.5 333.4569,-85.074 339.4515,-82.089 345.5903,-79.5001"/>
<polygon fill="#191970" stroke="#191970" points="216.7267,-194.5884 213.7067,-204.7438 222.4005,-198.6883 216.7267,-194.5884"/>
</g>
<!-- Node288 -->
<g id="node45" class="node">
<title>Node288</title>
<g id="a_node45"><a xlink:href="class_storage_target_w_handle_1_1_write_error.html" target="_top" xlink:title="StorageTargetWHandle\l::WriteError">
<polygon fill="#ffffff" stroke="#000000" points="337.5,-.5 337.5,-30.5 465.5,-30.5 465.5,-.5 337.5,-.5"/>
<text text-anchor="start" x="345.5" y="-18.5" font-family="Helvetica,sans-Serif" font-size="10.00" fill="#000000">StorageTargetWHandle</text>
<text text-anchor="middle" x="401.5" y="-7.5" font-family="Helvetica,sans-Serif" font-size="10.00" fill="#000000">::WriteError</text>
</a>
</g>
</g>
<!-- Node275&#45;&gt;Node288 -->
<g id="edge44" class="edge">
<title>Node275&#45;&gt;Node288</title>
<path fill="none" stroke="#191970" d="M215.0058,-195.6378C231.1178,-159.9024 270.8646,-82.1047 328,-39.5 332.6272,-36.0496 337.7737,-33.0811 343.1344,-30.5301"/>
<polygon fill="#191970" stroke="#191970" points="211.7474,-194.3532 210.9313,-204.9165 218.1567,-197.1676 211.7474,-194.3532"/>
</g>
<!-- Node280 -->
<g id="node37" class="node">
<title>Node280</title>
<g id="a_node37"><a xlink:href="class_initializer_1_1_key_generation_error.html" target="_top" xlink:title="Initializer::KeyGeneration\lError">
<polygon fill="#ffffff" stroke="#000000" points="532.5,-262.5 532.5,-292.5 672.5,-292.5 672.5,-262.5 532.5,-262.5"/>
<text text-anchor="start" x="540.5" y="-280.5" font-family="Helvetica,sans-Serif" font-size="10.00" fill="#000000">Initializer::KeyGeneration</text>
<text text-anchor="middle" x="602.5" y="-269.5" font-family="Helvetica,sans-Serif" font-size="10.00" fill="#000000">Error</text>
</a>
</g>
</g>
<!-- Node279&#45;&gt;Node280 -->
<g id="edge36" class="edge">
<title>Node279&#45;&gt;Node280</title>
<path fill="none" stroke="#191970" d="M455.1415,-245.2424C479.2538,-250.5207 508.0027,-256.814 533.6787,-262.4346"/>
<polygon fill="#191970" stroke="#191970" points="455.6312,-241.7668 445.114,-243.0473 454.1342,-248.6049 455.6312,-241.7668"/>
</g>
<!-- Node281 -->
<g id="node38" class="node">
<title>Node281</title>
<g id="a_node38"><a xlink:href="class_initializer_1_1_server_error.html" target="_top" xlink:title="Initializer::ServerError">
<polygon fill="#ffffff" stroke="#000000" points="541,-224 541,-243 664,-243 664,-224 541,-224"/>
<text text-anchor="middle" x="602.5" y="-231" font-family="Helvetica,sans-Serif" font-size="10.00" fill="#000000">Initializer::ServerError</text>
</a>
</g>
</g>
<!-- Node279&#45;&gt;Node281 -->
<g id="edge37" class="edge">
<title>Node279&#45;&gt;Node281</title>
<path fill="none" stroke="#191970" d="M457.6554,-233.5C483.5797,-233.5 514.428,-233.5 540.9804,-233.5"/>
<polygon fill="#191970" stroke="#191970" points="457.6135,-230.0001 447.6135,-233.5 457.6134,-237.0001 457.6135,-230.0001"/>
</g>
<!-- Node282 -->
<g id="node39" class="node">
<title>Node282</title>
<g id="a_node39"><a xlink:href="class_initializer_1_1_server_occupied.html" target="_top" xlink:title="Initializer::ServerOccupied">
<polygon fill="#ffffff" stroke="#000000" points="530,-186 530,-205 675,-205 675,-186 530,-186"/>
<text text-anchor="middle" x="602.5" y="-193" font-family="Helvetica,sans-Serif" font-size="10.00" fill="#000000">Initializer::ServerOccupied</text>
</a>
</g>
</g>
<!-- Node279&#45;&gt;Node282 -->
<g id="edge38" class="edge">
<title>Node279&#45;&gt;Node282</title>
<path fill="none" stroke="#191970" d="M457.7894,-222.8582C487.3743,-217.2651 523.3432,-210.465 552.0194,-205.0436"/>
<polygon fill="#191970" stroke="#191970" points="456.7892,-219.4852 447.6135,-224.782 458.0896,-226.3634 456.7892,-219.4852"/>
</g>
<!-- Node283 -->
<g id="node40" class="node">
<title>Node283</title>
<g id="a_node40"><a xlink:href="class_initializer_1_1_storage_error.html" target="_top" xlink:title="Initializer::StorageError">
<polygon fill="#ffffff" stroke="#000000" points="538,-148 538,-167 667,-167 667,-148 538,-148"/>
<text text-anchor="middle" x="602.5" y="-155" font-family="Helvetica,sans-Serif" font-size="10.00" fill="#000000">Initializer::StorageError</text>
</a>
</g>
</g>
<!-- Node279&#45;&gt;Node283 -->
<g id="edge39" class="edge">
<title>Node279&#45;&gt;Node283</title>
<path fill="none" stroke="#191970" d="M457.4599,-222.6033C463.5835,-220.3784 469.5609,-217.7066 475,-214.5 495.041,-202.685 490.68,-187.8283 511,-176.5 519.2191,-171.9179 528.4107,-168.4368 537.7122,-165.7929"/>
<polygon fill="#191970" stroke="#191970" points="456.2057,-219.3305 447.7729,-225.7444 458.3649,-225.9892 456.2057,-219.3305"/>
</g>
</g>
</svg>
