<?xml version="1.0" encoding="UTF-8" standalone="no"?>
<!DOCTYPE svg PUBLIC "-//W3C//DTD SVG 1.1//EN"
 "http://www.w3.org/Graphics/SVG/1.1/DTD/svg11.dtd">
<!-- Generated by graphviz version 2.40.1 (20161225.0304)
 -->
<!-- Title: KeyManagerConfig Pages: 1 -->
<svg width="140pt" height="274pt"
 viewBox="0.00 0.00 139.50 274.00" xmlns="http://www.w3.org/2000/svg" xmlns:xlink="http://www.w3.org/1999/xlink">
<g id="graph0" class="graph" transform="scale(1 1) rotate(0) translate(4 270)">
<title>KeyManagerConfig</title>
<polygon fill="#ffffff" stroke="transparent" points="-4,4 -4,-270 135.5,-270 135.5,4 -4,4"/>
<!-- Node1 -->
<g id="node1" class="node">
<title>Node1</title>
<polygon fill="#bfbfbf" stroke="#000000" points="0,-.5 0,-19.5 107,-19.5 107,-.5 0,-.5"/>
<text text-anchor="middle" x="53.5" y="-7.5" font-family="Helvetica,sans-Serif" font-size="10.00" fill="#000000">KeyManagerConfig</text>
</g>
<!-- Node2 -->
<g id="node2" class="node">
<title>Node2</title>
<g id="a_node2"><a xlink:href="struct_p11_config.html" target="_top" xlink:title="P11Config">
<polygon fill="#ffffff" stroke="#000000" points="21,-67.5 21,-86.5 86,-86.5 86,-67.5 21,-67.5"/>
<text text-anchor="middle" x="53.5" y="-74.5" font-family="Helvetica,sans-Serif" font-size="10.00" fill="#000000">P11Config</text>
</a>
</g>
</g>
<!-- Node2&#45;&gt;Node1 -->
<g id="edge1" class="edge">
<title>Node2&#45;&gt;Node1</title>
<path fill="none" stroke="#9a32cd" stroke-dasharray="5,2" d="M53.5,-57.1079C53.5,-44.714 53.5,-29.3263 53.5,-19.5817"/>
<polygon fill="#9a32cd" stroke="#9a32cd" points="50.0001,-57.4005 53.5,-67.4005 57.0001,-57.4006 50.0001,-57.4005"/>
<text text-anchor="middle" x="64.5" y="-41" font-family="Helvetica,sans-Serif" font-size="10.00" fill="#000000"> p11</text>
</g>
<!-- Node3 -->
<g id="node3" class="node">
<title>Node3</title>
<g id="a_node3"><a xlink:title="STL class. ">
<polygon fill="#ffffff" stroke="#bfbfbf" points="21,-178.5 21,-197.5 86,-197.5 86,-178.5 21,-178.5"/>
<text text-anchor="middle" x="53.5" y="-185.5" font-family="Helvetica,sans-Serif" font-size="10.00" fill="#000000">std::string</text>
</a>
</g>
</g>
<!-- Node3&#45;&gt;Node2 -->
<g id="edge2" class="edge">
<title>Node3&#45;&gt;Node2</title>
<path fill="none" stroke="#9a32cd" stroke-dasharray="5,2" d="M53.5,-168.0467C53.5,-144.0543 53.5,-104.7599 53.5,-86.6699"/>
<polygon fill="#9a32cd" stroke="#9a32cd" points="50.0001,-168.1495 53.5,-178.1495 57.0001,-168.1495 50.0001,-168.1495"/>
<text text-anchor="middle" x="92.5" y="-152" font-family="Helvetica,sans-Serif" font-size="10.00" fill="#000000"> tls_pkey_id</text>
<text text-anchor="middle" x="92.5" y="-141" font-family="Helvetica,sans-Serif" font-size="10.00" fill="#000000">tls_clientcert_id</text>
<text text-anchor="middle" x="92.5" y="-130" font-family="Helvetica,sans-Serif" font-size="10.00" fill="#000000">pass</text>
<text text-anchor="middle" x="92.5" y="-119" font-family="Helvetica,sans-Serif" font-size="10.00" fill="#000000">uptane_key_id</text>
<text text-anchor="middle" x="92.5" y="-108" font-family="Helvetica,sans-Serif" font-size="10.00" fill="#000000">tls_cacert_id</text>
</g>
<!-- Node4 -->
<g id="node4" class="node">
<title>Node4</title>
<g id="a_node4"><a xlink:title="STL class. ">
<polygon fill="#ffffff" stroke="#bfbfbf" points="1.5,-235.5 1.5,-265.5 105.5,-265.5 105.5,-235.5 1.5,-235.5"/>
<text text-anchor="start" x="9.5" y="-253.5" font-family="Helvetica,sans-Serif" font-size="10.00" fill="#000000">std::basic_string&lt;</text>
<text text-anchor="middle" x="53.5" y="-242.5" font-family="Helvetica,sans-Serif" font-size="10.00" fill="#000000"> char &gt;</text>
</a>
</g>
</g>
<!-- Node4&#45;&gt;Node3 -->
<g id="edge3" class="edge">
<title>Node4&#45;&gt;Node3</title>
<path fill="none" stroke="#191970" d="M53.5,-225.3498C53.5,-215.6481 53.5,-205.1303 53.5,-197.7356"/>
<polygon fill="#191970" stroke="#191970" points="50.0001,-225.3705 53.5,-235.3705 57.0001,-225.3705 50.0001,-225.3705"/>
</g>
</g>
</svg>
