<?xml version="1.0" encoding="UTF-8" standalone="no"?>
<!DOCTYPE svg PUBLIC "-//W3C//DTD SVG 1.1//EN"
 "http://www.w3.org/Graphics/SVG/1.1/DTD/svg11.dtd">
<!-- Generated by graphviz version 2.40.1 (20161225.0304)
 -->
<!-- Title: DeviceCredGenerator::OutputPath Pages: 1 -->
<svg width="139pt" height="218pt"
 viewBox="0.00 0.00 139.00 218.00" xmlns="http://www.w3.org/2000/svg" xmlns:xlink="http://www.w3.org/1999/xlink">
<g id="graph0" class="graph" transform="scale(1 1) rotate(0) translate(4 214)">
<title>DeviceCredGenerator::OutputPath</title>
<polygon fill="#ffffff" stroke="transparent" points="-4,4 -4,-214 135,-214 135,4 -4,4"/>
<!-- Node1 -->
<g id="node1" class="node">
<title>Node1</title>
<polygon fill="#bfbfbf" stroke="#000000" points="0,-.5 0,-30.5 122,-30.5 122,-.5 0,-.5"/>
<text text-anchor="start" x="8" y="-18.5" font-family="Helvetica,sans-Serif" font-size="10.00" fill="#000000">DeviceCredGenerator</text>
<text text-anchor="middle" x="61" y="-7.5" font-family="Helvetica,sans-Serif" font-size="10.00" fill="#000000">::OutputPath</text>
</g>
<!-- Node2 -->
<g id="node2" class="node">
<title>Node2</title>
<g id="a_node2"><a xlink:title="STL class. ">
<polygon fill="#ffffff" stroke="#bfbfbf" points="28.5,-122.5 28.5,-141.5 93.5,-141.5 93.5,-122.5 28.5,-122.5"/>
<text text-anchor="middle" x="61" y="-129.5" font-family="Helvetica,sans-Serif" font-size="10.00" fill="#000000">std::string</text>
</a>
</g>
</g>
<!-- Node2&#45;&gt;Node1 -->
<g id="edge1" class="edge">
<title>Node2&#45;&gt;Node1</title>
<path fill="none" stroke="#9a32cd" stroke-dasharray="5,2" d="M61,-112.1543C61,-89.0555 61,-51.4235 61,-30.5848"/>
<polygon fill="#9a32cd" stroke="#9a32cd" points="57.5001,-112.4663 61,-122.4663 64.5001,-112.4663 57.5001,-112.4663"/>
<text text-anchor="middle" x="96" y="-96" font-family="Helvetica,sans-Serif" font-size="10.00" fill="#000000"> gtwURLFile</text>
<text text-anchor="middle" x="96" y="-85" font-family="Helvetica,sans-Serif" font-size="10.00" fill="#000000">certFile</text>
<text text-anchor="middle" x="96" y="-74" font-family="Helvetica,sans-Serif" font-size="10.00" fill="#000000">serverRootCA</text>
<text text-anchor="middle" x="96" y="-63" font-family="Helvetica,sans-Serif" font-size="10.00" fill="#000000">privateKeyFile</text>
<text text-anchor="middle" x="96" y="-52" font-family="Helvetica,sans-Serif" font-size="10.00" fill="#000000">directory</text>
</g>
<!-- Node3 -->
<g id="node3" class="node">
<title>Node3</title>
<g id="a_node3"><a xlink:title="STL class. ">
<polygon fill="#ffffff" stroke="#bfbfbf" points="9,-179.5 9,-209.5 113,-209.5 113,-179.5 9,-179.5"/>
<text text-anchor="start" x="17" y="-197.5" font-family="Helvetica,sans-Serif" font-size="10.00" fill="#000000">std::basic_string&lt;</text>
<text text-anchor="middle" x="61" y="-186.5" font-family="Helvetica,sans-Serif" font-size="10.00" fill="#000000"> char &gt;</text>
</a>
</g>
</g>
<!-- Node3&#45;&gt;Node2 -->
<g id="edge2" class="edge">
<title>Node3&#45;&gt;Node2</title>
<path fill="none" stroke="#191970" d="M61,-169.3498C61,-159.6481 61,-149.1303 61,-141.7356"/>
<polygon fill="#191970" stroke="#191970" points="57.5001,-169.3705 61,-179.3705 64.5001,-169.3705 57.5001,-169.3705"/>
</g>
</g>
</svg>
