<?xml version="1.0" encoding="UTF-8" standalone="no"?>
<!DOCTYPE svg PUBLIC "-//W3C//DTD SVG 1.1//EN"
 "http://www.w3.org/Graphics/SVG/1.1/DTD/svg11.dtd">
<!-- Generated by graphviz version 2.43.0 (0)
 -->
<!-- Title: SecondaryMock Pages: 1 -->
<svg width="682pt" height="265pt"
 viewBox="0.00 0.00 682.00 265.00" xmlns="http://www.w3.org/2000/svg" xmlns:xlink="http://www.w3.org/1999/xlink">
<g id="graph0" class="graph" transform="scale(1 1) rotate(0) translate(4 261)">
<title>SecondaryMock</title>
<polygon fill="white" stroke="transparent" points="-4,4 -4,-261 678,-261 678,4 -4,4"/>
<!-- Node1 -->
<g id="node1" class="node">
<title>Node1</title>
<g id="a_node1"><a xlink:title=" ">
<polygon fill="#bfbfbf" stroke="black" points="580,-114.5 580,-133.5 674,-133.5 674,-114.5 580,-114.5"/>
<text text-anchor="middle" x="627" y="-121.5" font-family="Helvetica,sans-Serif" font-size="10.00">SecondaryMock</text>
</a>
</g>
</g>
<!-- Node2 -->
<g id="node2" class="node">
<title>Node2</title>
<g id="a_node2"><a xlink:href="class_i_aktualizr_secondary.html" target="_top" xlink:title=" ">
<polygon fill="white" stroke="black" points="354.5,-237.5 354.5,-256.5 468.5,-256.5 468.5,-237.5 354.5,-237.5"/>
<text text-anchor="middle" x="411.5" y="-244.5" font-family="Helvetica,sans-Serif" font-size="10.00">IAktualizrSecondary</text>
</a>
</g>
</g>
<!-- Node2&#45;&gt;Node1 -->
<g id="edge1" class="edge">
<title>Node2&#45;&gt;Node1</title>
<path fill="none" stroke="midnightblue" d="M478.61,-247.4C506.26,-244.79 537.58,-237.97 562,-222 595.51,-200.1 615.34,-153.87 622.71,-133.73"/>
<polygon fill="midnightblue" stroke="midnightblue" points="478.31,-243.91 468.61,-248.18 478.85,-250.89 478.31,-243.91"/>
</g>
<!-- Node3 -->
<g id="node3" class="node">
<title>Node3</title>
<g id="a_node3"><a xlink:href="struct_uptane_1_1_raw_meta_pack.html" target="_top" xlink:title=" ">
<polygon fill="white" stroke="black" points="348.5,-152.5 348.5,-171.5 474.5,-171.5 474.5,-152.5 348.5,-152.5"/>
<text text-anchor="middle" x="411.5" y="-159.5" font-family="Helvetica,sans-Serif" font-size="10.00">Uptane::RawMetaPack</text>
</a>
</g>
</g>
<!-- Node3&#45;&gt;Node1 -->
<g id="edge2" class="edge">
<title>Node3&#45;&gt;Node1</title>
<path fill="none" stroke="#9a32cd" stroke-dasharray="5,2" d="M484.79,-151.23C509.35,-147.35 536.92,-142.75 562,-138 569.15,-136.64 576.73,-135.09 584.07,-133.53"/>
<polygon fill="#9a32cd" stroke="#9a32cd" points="484.16,-147.79 474.83,-152.8 485.25,-154.7 484.16,-147.79"/>
<text text-anchor="middle" x="533" y="-151" font-family="Helvetica,sans-Serif" font-size="10.00"> metapack_</text>
</g>
<!-- Node4 -->
<g id="node4" class="node">
<title>Node4</title>
<g id="a_node4"><a xlink:title="STL class.">
<polygon fill="white" stroke="#bfbfbf" points="143.5,-157.5 143.5,-176.5 208.5,-176.5 208.5,-157.5 143.5,-157.5"/>
<text text-anchor="middle" x="176" y="-164.5" font-family="Helvetica,sans-Serif" font-size="10.00">std::string</text>
</a>
</g>
</g>
<!-- Node4&#45;&gt;Node1 -->
<g id="edge7" class="edge">
<title>Node4&#45;&gt;Node1</title>
<path fill="none" stroke="#9a32cd" stroke-dasharray="5,2" d="M199.66,-181.77C208.45,-186.68 218.84,-191.52 229,-194 277.26,-205.78 476.47,-182.49 486,-181 520.3,-175.64 529.89,-176.19 562,-163 580.77,-155.28 600.43,-142.49 612.93,-133.67"/>
<polygon fill="#9a32cd" stroke="#9a32cd" points="201.22,-178.62 190.83,-176.53 197.64,-184.64 201.22,-178.62"/>
<text text-anchor="middle" x="411.5" y="-197" font-family="Helvetica,sans-Serif" font-size="10.00"> data_</text>
</g>
<!-- Node4&#45;&gt;Node3 -->
<g id="edge3" class="edge">
<title>Node4&#45;&gt;Node3</title>
<path fill="none" stroke="#9a32cd" stroke-dasharray="5,2" d="M193.33,-150.38C202.85,-141.91 215.59,-132.47 229,-128 266.95,-115.35 281.39,-114.38 319,-128 328.79,-131.55 327.73,-138.25 337,-143 344.51,-146.85 352.85,-149.96 361.15,-152.46"/>
<polygon fill="#9a32cd" stroke="#9a32cd" points="190.74,-148.02 185.87,-157.43 195.54,-153.11 190.74,-148.02"/>
<text text-anchor="middle" x="274" y="-186" font-family="Helvetica,sans-Serif" font-size="10.00"> image_root</text>
<text text-anchor="middle" x="274" y="-175" font-family="Helvetica,sans-Serif" font-size="10.00">director_targets</text>
<text text-anchor="middle" x="274" y="-164" font-family="Helvetica,sans-Serif" font-size="10.00">director_root</text>
<text text-anchor="middle" x="274" y="-153" font-family="Helvetica,sans-Serif" font-size="10.00">image_snapshot</text>
<text text-anchor="middle" x="274" y="-142" font-family="Helvetica,sans-Serif" font-size="10.00">image_targets</text>
<text text-anchor="middle" x="274" y="-131" font-family="Helvetica,sans-Serif" font-size="10.00">image_timestamp</text>
</g>
<!-- Node5 -->
<g id="node5" class="node">
<title>Node5</title>
<g id="a_node5"><a xlink:title="STL class.">
<polygon fill="white" stroke="#bfbfbf" points="0,-152 0,-182 104,-182 104,-152 0,-152"/>
<text text-anchor="start" x="8" y="-170" font-family="Helvetica,sans-Serif" font-size="10.00">std::basic_string&lt;</text>
<text text-anchor="middle" x="52" y="-159" font-family="Helvetica,sans-Serif" font-size="10.00"> char &gt;</text>
</a>
</g>
</g>
<!-- Node5&#45;&gt;Node4 -->
<g id="edge4" class="edge">
<title>Node5&#45;&gt;Node4</title>
<path fill="none" stroke="midnightblue" d="M114.1,-167C124.21,-167 134.32,-167 143.31,-167"/>
<polygon fill="midnightblue" stroke="midnightblue" points="114.03,-163.5 104.03,-167 114.03,-170.5 114.03,-163.5"/>
</g>
<!-- Node6 -->
<g id="node6" class="node">
<title>Node6</title>
<g id="a_node6"><a xlink:href="class_uptane_1_1_hardware_identifier.html" target="_top" xlink:title=" ">
<polygon fill="white" stroke="black" points="337,-114.5 337,-133.5 486,-133.5 486,-114.5 337,-114.5"/>
<text text-anchor="middle" x="411.5" y="-121.5" font-family="Helvetica,sans-Serif" font-size="10.00">Uptane::HardwareIdentifier</text>
</a>
</g>
</g>
<!-- Node6&#45;&gt;Node1 -->
<g id="edge5" class="edge">
<title>Node6&#45;&gt;Node1</title>
<path fill="none" stroke="#9a32cd" stroke-dasharray="5,2" d="M496.61,-124C524.98,-124 555.59,-124 579.91,-124"/>
<polygon fill="#9a32cd" stroke="#9a32cd" points="496.27,-120.5 486.27,-124 496.27,-127.5 496.27,-120.5"/>
<text text-anchor="middle" x="533" y="-127" font-family="Helvetica,sans-Serif" font-size="10.00"> hdw_id_</text>
</g>
<!-- Node7 -->
<g id="node7" class="node">
<title>Node7</title>
<g id="a_node7"><a xlink:href="class_uptane_1_1_ecu_serial.html" target="_top" xlink:title=" ">
<polygon fill="white" stroke="black" points="360,-76.5 360,-95.5 463,-95.5 463,-76.5 360,-76.5"/>
<text text-anchor="middle" x="411.5" y="-83.5" font-family="Helvetica,sans-Serif" font-size="10.00">Uptane::EcuSerial</text>
</a>
</g>
</g>
<!-- Node7&#45;&gt;Node1 -->
<g id="edge6" class="edge">
<title>Node7&#45;&gt;Node1</title>
<path fill="none" stroke="#9a32cd" stroke-dasharray="5,2" d="M473.34,-94.27C500.55,-98.25 532.97,-103.37 562,-109 570.29,-110.61 579.14,-112.54 587.52,-114.47"/>
<polygon fill="#9a32cd" stroke="#9a32cd" points="473.58,-90.77 463.18,-92.8 472.58,-97.69 473.58,-90.77"/>
<text text-anchor="middle" x="533" y="-112" font-family="Helvetica,sans-Serif" font-size="10.00"> serial_</text>
</g>
<!-- Node8 -->
<g id="node8" class="node">
<title>Node8</title>
<g id="a_node8"><a xlink:href="class_public_key.html" target="_top" xlink:title=" ">
<polygon fill="white" stroke="black" points="379.5,-38.5 379.5,-57.5 443.5,-57.5 443.5,-38.5 379.5,-38.5"/>
<text text-anchor="middle" x="411.5" y="-45.5" font-family="Helvetica,sans-Serif" font-size="10.00">PublicKey</text>
</a>
</g>
</g>
<!-- Node8&#45;&gt;Node1 -->
<g id="edge8" class="edge">
<title>Node8&#45;&gt;Node1</title>
<path fill="none" stroke="#9a32cd" stroke-dasharray="5,2" d="M453.69,-54.23C484.36,-59.74 526.84,-69.24 562,-84 581.09,-92.01 600.99,-105.37 613.44,-114.43"/>
<polygon fill="#9a32cd" stroke="#9a32cd" points="454.22,-50.77 443.77,-52.51 453.02,-57.67 454.22,-50.77"/>
<text text-anchor="middle" x="533" y="-87" font-family="Helvetica,sans-Serif" font-size="10.00"> pub_key_</text>
</g>
<!-- Node9 -->
<g id="node9" class="node">
<title>Node9</title>
<g id="a_node9"><a xlink:href="class_uptane_1_1_manifest.html" target="_top" xlink:title=" ">
<polygon fill="white" stroke="black" points="361,-0.5 361,-19.5 462,-19.5 462,-0.5 361,-0.5"/>
<text text-anchor="middle" x="411.5" y="-7.5" font-family="Helvetica,sans-Serif" font-size="10.00">Uptane::Manifest</text>
</a>
</g>
</g>
<!-- Node9&#45;&gt;Node1 -->
<g id="edge9" class="edge">
<title>Node9&#45;&gt;Node1</title>
<path fill="none" stroke="#9a32cd" stroke-dasharray="5,2" d="M472.25,-17.5C501.04,-23.15 535.08,-32.99 562,-50 588.85,-66.97 610.62,-98.63 620.41,-114.47"/>
<polygon fill="#9a32cd" stroke="#9a32cd" points="472.77,-14.03 462.3,-15.67 471.5,-20.92 472.77,-14.03"/>
<text text-anchor="middle" x="533" y="-53" font-family="Helvetica,sans-Serif" font-size="10.00"> manifest_</text>
</g>
<!-- Node10 -->
<g id="node10" class="node">
<title>Node10</title>
<g id="a_node10"><a xlink:title=" ">
<polygon fill="white" stroke="#bfbfbf" points="141,-0.5 141,-19.5 211,-19.5 211,-0.5 141,-0.5"/>
<text text-anchor="middle" x="176" y="-7.5" font-family="Helvetica,sans-Serif" font-size="10.00">Json::Value</text>
</a>
</g>
</g>
<!-- Node10&#45;&gt;Node9 -->
<g id="edge10" class="edge">
<title>Node10&#45;&gt;Node9</title>
<path fill="none" stroke="midnightblue" d="M221.65,-10C261.43,-10 319.56,-10 360.8,-10"/>
<polygon fill="midnightblue" stroke="midnightblue" points="221.45,-6.5 211.45,-10 221.45,-13.5 221.45,-6.5"/>
</g>
</g>
</svg>
