<?xml version="1.0" encoding="UTF-8" standalone="no"?>
<!DOCTYPE svg PUBLIC "-//W3C//DTD SVG 1.1//EN"
 "http://www.w3.org/Graphics/SVG/1.1/DTD/svg11.dtd">
<!-- Generated by graphviz version 2.43.0 (0)
 -->
<!-- Title: AndroidManager Pages: 1 -->
<svg width="491pt" height="465pt"
 viewBox="0.00 0.00 491.00 465.00" xmlns="http://www.w3.org/2000/svg" xmlns:xlink="http://www.w3.org/1999/xlink">
<g id="graph0" class="graph" transform="scale(1 1) rotate(0) translate(4 461)">
<title>AndroidManager</title>
<polygon fill="white" stroke="transparent" points="-4,4 -4,-461 487,-461 487,4 -4,4"/>
<!-- Node1 -->
<g id="node1" class="node">
<title>Node1</title>
<g id="a_node1"><a xlink:title=" ">
<polygon fill="#bfbfbf" stroke="black" points="190.5,-0.5 190.5,-19.5 287.5,-19.5 287.5,-0.5 190.5,-0.5"/>
<text text-anchor="middle" x="239" y="-7.5" font-family="Helvetica,sans-Serif" font-size="10.00">AndroidManager</text>
</a>
</g>
</g>
<!-- Node2 -->
<g id="node2" class="node">
<title>Node2</title>
<g id="a_node2"><a xlink:href="class_package_manager_interface.html" target="_top" xlink:title=" ">
<polygon fill="white" stroke="black" points="167.5,-57.5 167.5,-76.5 310.5,-76.5 310.5,-57.5 167.5,-57.5"/>
<text text-anchor="middle" x="239" y="-64.5" font-family="Helvetica,sans-Serif" font-size="10.00">PackageManagerInterface</text>
</a>
</g>
</g>
<!-- Node2&#45;&gt;Node1 -->
<g id="edge1" class="edge">
<title>Node2&#45;&gt;Node1</title>
<path fill="none" stroke="midnightblue" d="M239,-47.12C239,-37.82 239,-27.06 239,-19.71"/>
<polygon fill="midnightblue" stroke="midnightblue" points="235.5,-47.41 239,-57.41 242.5,-47.41 235.5,-47.41"/>
</g>
<!-- Node3 -->
<g id="node3" class="node">
<title>Node3</title>
<g id="a_node3"><a xlink:title=" ">
<polygon fill="white" stroke="#bfbfbf" points="0,-124.5 0,-143.5 166,-143.5 166,-124.5 0,-124.5"/>
<text text-anchor="middle" x="83" y="-131.5" font-family="Helvetica,sans-Serif" font-size="10.00">std::shared_ptr&lt; INvStorage &gt;</text>
</a>
</g>
</g>
<!-- Node3&#45;&gt;Node2 -->
<g id="edge2" class="edge">
<title>Node3&#45;&gt;Node2</title>
<path fill="none" stroke="#9a32cd" stroke-dasharray="5,2" d="M113.12,-120.45C144.01,-107.58 191.23,-87.9 218.2,-76.67"/>
<polygon fill="#9a32cd" stroke="#9a32cd" points="111.6,-117.29 103.72,-124.37 114.29,-123.75 111.6,-117.29"/>
<text text-anchor="middle" x="194" y="-98" font-family="Helvetica,sans-Serif" font-size="10.00"> storage_</text>
</g>
<!-- Node4 -->
<g id="node4" class="node">
<title>Node4</title>
<g id="a_node4"><a xlink:href="class_i_nv_storage.html" target="_top" xlink:title=" ">
<polygon fill="white" stroke="black" points="24.5,-198 24.5,-217 95.5,-217 95.5,-198 24.5,-198"/>
<text text-anchor="middle" x="60" y="-205" font-family="Helvetica,sans-Serif" font-size="10.00">INvStorage</text>
</a>
</g>
</g>
<!-- Node4&#45;&gt;Node3 -->
<g id="edge3" class="edge">
<title>Node4&#45;&gt;Node3</title>
<path fill="none" stroke="#9a32cd" stroke-dasharray="5,2" d="M65.95,-188.01C70.52,-173.8 76.63,-154.81 80.16,-143.84"/>
<polygon fill="#9a32cd" stroke="#9a32cd" points="62.55,-187.14 62.82,-197.73 69.21,-189.28 62.55,-187.14"/>
<text text-anchor="middle" x="83.5" y="-165" font-family="Helvetica,sans-Serif" font-size="10.00"> ptr</text>
</g>
<!-- Node5 -->
<g id="node5" class="node">
<title>Node5</title>
<g id="a_node5"><a xlink:href="struct_storage_config.html" target="_top" xlink:title=" ">
<polygon fill="white" stroke="black" points="17.5,-282.5 17.5,-301.5 102.5,-301.5 102.5,-282.5 17.5,-282.5"/>
<text text-anchor="middle" x="60" y="-289.5" font-family="Helvetica,sans-Serif" font-size="10.00">StorageConfig</text>
</a>
</g>
</g>
<!-- Node5&#45;&gt;Node4 -->
<g id="edge4" class="edge">
<title>Node5&#45;&gt;Node4</title>
<path fill="none" stroke="#9a32cd" stroke-dasharray="5,2" d="M60,-272.43C60,-255.13 60,-230.11 60,-217.1"/>
<polygon fill="#9a32cd" stroke="#9a32cd" points="56.5,-272.48 60,-282.48 63.5,-272.48 56.5,-272.48"/>
<text text-anchor="middle" x="79" y="-250.5" font-family="Helvetica,sans-Serif" font-size="10.00"> config_</text>
</g>
<!-- Node6 -->
<g id="node6" class="node">
<title>Node6</title>
<g id="a_node6"><a xlink:href="class_based_path.html" target="_top" xlink:title=" ">
<polygon fill="white" stroke="black" points="26,-432 26,-451 94,-451 94,-432 26,-432"/>
<text text-anchor="middle" x="60" y="-439" font-family="Helvetica,sans-Serif" font-size="10.00">BasedPath</text>
</a>
</g>
</g>
<!-- Node6&#45;&gt;Node5 -->
<g id="edge5" class="edge">
<title>Node6&#45;&gt;Node5</title>
<path fill="none" stroke="#9a32cd" stroke-dasharray="5,2" d="M60,-421.37C60,-389 60,-324.7 60,-301.55"/>
<polygon fill="#9a32cd" stroke="#9a32cd" points="56.5,-421.71 60,-431.71 63.5,-421.71 56.5,-421.71"/>
<text text-anchor="middle" x="120.5" y="-400" font-family="Helvetica,sans-Serif" font-size="10.00"> uptane_public_key_path</text>
<text text-anchor="middle" x="120.5" y="-389" font-family="Helvetica,sans-Serif" font-size="10.00">tls_pkey_path</text>
<text text-anchor="middle" x="120.5" y="-378" font-family="Helvetica,sans-Serif" font-size="10.00">uptane_metadata_path</text>
<text text-anchor="middle" x="120.5" y="-367" font-family="Helvetica,sans-Serif" font-size="10.00">sqldb_path</text>
<text text-anchor="start" x="60" y="-356" font-family="Helvetica,sans-Serif" font-size="10.00">uptane_private_key</text>
<text text-anchor="middle" x="120.5" y="-345" font-family="Helvetica,sans-Serif" font-size="10.00">_path</text>
<text text-anchor="middle" x="120.5" y="-334" font-family="Helvetica,sans-Serif" font-size="10.00">tls_cacert_path</text>
<text text-anchor="middle" x="120.5" y="-323" font-family="Helvetica,sans-Serif" font-size="10.00">tls_clientcert_path</text>
</g>
<!-- Node7 -->
<g id="node7" class="node">
<title>Node7</title>
<g id="a_node7"><a xlink:href="struct_package_config.html" target="_top" xlink:title=" ">
<polygon fill="white" stroke="black" points="195.5,-124.5 195.5,-143.5 282.5,-143.5 282.5,-124.5 195.5,-124.5"/>
<text text-anchor="middle" x="239" y="-131.5" font-family="Helvetica,sans-Serif" font-size="10.00">PackageConfig</text>
</a>
</g>
</g>
<!-- Node7&#45;&gt;Node2 -->
<g id="edge6" class="edge">
<title>Node7&#45;&gt;Node2</title>
<path fill="none" stroke="#9a32cd" stroke-dasharray="5,2" d="M239,-114.04C239,-101.67 239,-86.12 239,-76.63"/>
<polygon fill="#9a32cd" stroke="#9a32cd" points="235.5,-114.23 239,-124.23 242.5,-114.23 235.5,-114.23"/>
<text text-anchor="middle" x="255.5" y="-98" font-family="Helvetica,sans-Serif" font-size="10.00"> config</text>
</g>
<!-- Node8 -->
<g id="node8" class="node">
<title>Node8</title>
<g id="a_node8"><a xlink:title=" ">
<polygon fill="white" stroke="#bfbfbf" points="217,-192.5 217,-222.5 339,-222.5 339,-192.5 217,-192.5"/>
<text text-anchor="start" x="225" y="-210.5" font-family="Helvetica,sans-Serif" font-size="10.00">std::map&lt; std::string,</text>
<text text-anchor="middle" x="278" y="-199.5" font-family="Helvetica,sans-Serif" font-size="10.00"> std::string &gt;</text>
</a>
</g>
</g>
<!-- Node8&#45;&gt;Node7 -->
<g id="edge7" class="edge">
<title>Node8&#45;&gt;Node7</title>
<path fill="none" stroke="#9a32cd" stroke-dasharray="5,2" d="M265.48,-183.54C258.07,-169.96 249.11,-153.54 243.74,-143.7"/>
<polygon fill="#9a32cd" stroke="#9a32cd" points="262.43,-185.27 270.29,-192.37 268.58,-181.92 262.43,-185.27"/>
<text text-anchor="middle" x="274.5" y="-165" font-family="Helvetica,sans-Serif" font-size="10.00"> extra</text>
</g>
<!-- Node9 -->
<g id="node9" class="node">
<title>Node9</title>
<g id="a_node9"><a xlink:title="STL class.">
<polygon fill="white" stroke="#bfbfbf" points="204.5,-282.5 204.5,-301.5 269.5,-301.5 269.5,-282.5 204.5,-282.5"/>
<text text-anchor="middle" x="237" y="-289.5" font-family="Helvetica,sans-Serif" font-size="10.00">std::string</text>
</a>
</g>
</g>
<!-- Node9&#45;&gt;Node7 -->
<g id="edge10" class="edge">
<title>Node9&#45;&gt;Node7</title>
<path fill="none" stroke="#9a32cd" stroke-dasharray="5,2" d="M207.37,-277.98C171.96,-260.45 119.97,-227.25 141,-191 155.26,-166.42 184.81,-151.72 207.75,-143.59"/>
<polygon fill="#9a32cd" stroke="#9a32cd" points="206.31,-281.35 216.84,-282.5 209.32,-275.03 206.31,-281.35"/>
<text text-anchor="middle" x="174.5" y="-216" font-family="Helvetica,sans-Serif" font-size="10.00"> os</text>
<text text-anchor="middle" x="174.5" y="-205" font-family="Helvetica,sans-Serif" font-size="10.00">ostree_server</text>
<text text-anchor="middle" x="174.5" y="-194" font-family="Helvetica,sans-Serif" font-size="10.00">type</text>
</g>
<!-- Node9&#45;&gt;Node8 -->
<g id="edge8" class="edge">
<title>Node9&#45;&gt;Node8</title>
<path fill="none" stroke="#9a32cd" stroke-dasharray="5,2" d="M245.86,-273.17C253.39,-258.02 264.05,-236.57 271,-222.59"/>
<polygon fill="#9a32cd" stroke="#9a32cd" points="242.55,-271.97 241.23,-282.48 248.82,-275.08 242.55,-271.97"/>
<text text-anchor="middle" x="285" y="-256" font-family="Helvetica,sans-Serif" font-size="10.00"> keys</text>
<text text-anchor="middle" x="285" y="-245" font-family="Helvetica,sans-Serif" font-size="10.00">elements</text>
</g>
<!-- Node10 -->
<g id="node10" class="node">
<title>Node10</title>
<g id="a_node10"><a xlink:title="STL class.">
<polygon fill="white" stroke="#bfbfbf" points="185,-426.5 185,-456.5 289,-456.5 289,-426.5 185,-426.5"/>
<text text-anchor="start" x="193" y="-444.5" font-family="Helvetica,sans-Serif" font-size="10.00">std::basic_string&lt;</text>
<text text-anchor="middle" x="237" y="-433.5" font-family="Helvetica,sans-Serif" font-size="10.00"> char &gt;</text>
</a>
</g>
</g>
<!-- Node10&#45;&gt;Node9 -->
<g id="edge9" class="edge">
<title>Node10&#45;&gt;Node9</title>
<path fill="none" stroke="midnightblue" d="M237,-416.04C237,-382.5 237,-323.9 237,-301.79"/>
<polygon fill="midnightblue" stroke="midnightblue" points="233.5,-416.36 237,-426.36 240.5,-416.36 233.5,-416.36"/>
</g>
<!-- Node11 -->
<g id="node11" class="node">
<title>Node11</title>
<g id="a_node11"><a xlink:title=" ">
<polygon fill="white" stroke="#bfbfbf" points="307,-124.5 307,-143.5 483,-143.5 483,-124.5 307,-124.5"/>
<text text-anchor="middle" x="395" y="-131.5" font-family="Helvetica,sans-Serif" font-size="10.00">std::shared_ptr&lt; HttpInterface &gt;</text>
</a>
</g>
</g>
<!-- Node11&#45;&gt;Node2 -->
<g id="edge11" class="edge">
<title>Node11&#45;&gt;Node2</title>
<path fill="none" stroke="#9a32cd" stroke-dasharray="5,2" d="M364.88,-120.45C333.99,-107.58 286.77,-87.9 259.8,-76.67"/>
<polygon fill="#9a32cd" stroke="#9a32cd" points="363.71,-123.75 374.28,-124.37 366.4,-117.29 363.71,-123.75"/>
<text text-anchor="middle" x="341" y="-98" font-family="Helvetica,sans-Serif" font-size="10.00"> http_</text>
</g>
<!-- Node12 -->
<g id="node12" class="node">
<title>Node12</title>
<g id="a_node12"><a xlink:href="class_http_interface.html" target="_top" xlink:title=" ">
<polygon fill="white" stroke="black" points="357.5,-198 357.5,-217 438.5,-217 438.5,-198 357.5,-198"/>
<text text-anchor="middle" x="398" y="-205" font-family="Helvetica,sans-Serif" font-size="10.00">HttpInterface</text>
</a>
</g>
</g>
<!-- Node12&#45;&gt;Node11 -->
<g id="edge12" class="edge">
<title>Node12&#45;&gt;Node11</title>
<path fill="none" stroke="#9a32cd" stroke-dasharray="5,2" d="M397.21,-187.59C396.61,-173.43 395.83,-154.7 395.37,-143.84"/>
<polygon fill="#9a32cd" stroke="#9a32cd" points="393.72,-187.89 397.63,-197.73 400.71,-187.59 393.72,-187.89"/>
<text text-anchor="middle" x="405.5" y="-165" font-family="Helvetica,sans-Serif" font-size="10.00"> ptr</text>
</g>
</g>
</svg>
