<?xml version="1.0" encoding="UTF-8" standalone="no"?>
<!DOCTYPE svg PUBLIC "-//W3C//DTD SVG 1.1//EN"
 "http://www.w3.org/Graphics/SVG/1.1/DTD/svg11.dtd">
<!-- Generated by graphviz version 2.43.0 (0)
 -->
<!-- Title: PackageManagerInterface Pages: 1 -->
<svg width="480pt" height="140pt"
 viewBox="0.00 0.00 479.50 140.00" xmlns="http://www.w3.org/2000/svg" xmlns:xlink="http://www.w3.org/1999/xlink">
<g id="graph0" class="graph" transform="scale(1 1) rotate(0) translate(4 136)">
<title>PackageManagerInterface</title>
<polygon fill="white" stroke="transparent" points="-4,4 -4,-136 475.5,-136 475.5,4 -4,4"/>
<!-- Node1 -->
<g id="node1" class="node">
<title>Node1</title>
<g id="a_node1"><a xlink:title=" ">
<polygon fill="#bfbfbf" stroke="black" points="146,-112.5 146,-131.5 289,-131.5 289,-112.5 146,-112.5"/>
<text text-anchor="middle" x="217.5" y="-119.5" font-family="Helvetica,sans-Serif" font-size="10.00">PackageManagerInterface</text>
</a>
</g>
</g>
<!-- Node2 -->
<g id="node2" class="node">
<title>Node2</title>
<g id="a_node2"><a xlink:href="class_android_manager.html" target="_top" xlink:title=" ">
<polygon fill="white" stroke="black" points="0,-56.5 0,-75.5 97,-75.5 97,-56.5 0,-56.5"/>
<text text-anchor="middle" x="48.5" y="-63.5" font-family="Helvetica,sans-Serif" font-size="10.00">AndroidManager</text>
</a>
</g>
</g>
<!-- Node1&#45;&gt;Node2 -->
<g id="edge1" class="edge">
<title>Node1&#45;&gt;Node2</title>
<path fill="none" stroke="midnightblue" d="M180.9,-109.3C149.05,-99.13 103.66,-84.62 75.15,-75.52"/>
<polygon fill="midnightblue" stroke="midnightblue" points="180.13,-112.73 190.72,-112.44 182.26,-106.07 180.13,-112.73"/>
</g>
<!-- Node3 -->
<g id="node3" class="node">
<title>Node3</title>
<g id="a_node3"><a xlink:href="class_debian_manager.html" target="_top" xlink:title=" ">
<polygon fill="white" stroke="black" points="115.5,-56.5 115.5,-75.5 209.5,-75.5 209.5,-56.5 115.5,-56.5"/>
<text text-anchor="middle" x="162.5" y="-63.5" font-family="Helvetica,sans-Serif" font-size="10.00">DebianManager</text>
</a>
</g>
</g>
<!-- Node1&#45;&gt;Node3 -->
<g id="edge2" class="edge">
<title>Node1&#45;&gt;Node3</title>
<path fill="none" stroke="midnightblue" d="M201.21,-105C191.46,-95.43 179.45,-83.64 171.41,-75.75"/>
<polygon fill="midnightblue" stroke="midnightblue" points="198.83,-107.57 208.42,-112.08 203.73,-102.58 198.83,-107.57"/>
</g>
<!-- Node4 -->
<g id="node4" class="node">
<title>Node4</title>
<g id="a_node4"><a xlink:href="class_ostree_manager.html" target="_top" xlink:title=" ">
<polygon fill="white" stroke="black" points="227.5,-56.5 227.5,-75.5 319.5,-75.5 319.5,-56.5 227.5,-56.5"/>
<text text-anchor="middle" x="273.5" y="-63.5" font-family="Helvetica,sans-Serif" font-size="10.00">OstreeManager</text>
</a>
</g>
</g>
<!-- Node1&#45;&gt;Node4 -->
<g id="edge3" class="edge">
<title>Node1&#45;&gt;Node4</title>
<path fill="none" stroke="midnightblue" d="M233.83,-105.25C243.76,-95.67 256.09,-83.79 264.34,-75.83"/>
<polygon fill="midnightblue" stroke="midnightblue" points="231.27,-102.86 226.5,-112.32 236.13,-107.9 231.27,-102.86"/>
</g>
<!-- Node8 -->
<g id="node8" class="node">
<title>Node8</title>
<g id="a_node8"><a xlink:href="class_package_manager_fake.html" target="_top" xlink:title=" ">
<polygon fill="white" stroke="black" points="338,-56.5 338,-75.5 459,-75.5 459,-56.5 338,-56.5"/>
<text text-anchor="middle" x="398.5" y="-63.5" font-family="Helvetica,sans-Serif" font-size="10.00">PackageManagerFake</text>
</a>
</g>
</g>
<!-- Node1&#45;&gt;Node8 -->
<g id="edge7" class="edge">
<title>Node1&#45;&gt;Node8</title>
<path fill="none" stroke="midnightblue" d="M255.82,-109.57C289.96,-99.38 339.16,-84.7 369.95,-75.52"/>
<polygon fill="midnightblue" stroke="midnightblue" points="254.76,-106.23 246.18,-112.44 256.76,-112.94 254.76,-106.23"/>
</g>
<!-- Node5 -->
<g id="node5" class="node">
<title>Node5</title>
<g id="a_node5"><a xlink:href="class_docker_app_bundles.html" target="_top" xlink:title=" ">
<polygon fill="white" stroke="black" points="91.5,-0.5 91.5,-19.5 199.5,-19.5 199.5,-0.5 91.5,-0.5"/>
<text text-anchor="middle" x="145.5" y="-7.5" font-family="Helvetica,sans-Serif" font-size="10.00">DockerAppBundles</text>
</a>
</g>
</g>
<!-- Node4&#45;&gt;Node5 -->
<g id="edge4" class="edge">
<title>Node4&#45;&gt;Node5</title>
<path fill="none" stroke="midnightblue" d="M243.88,-52.5C219.88,-42.38 186.72,-28.39 165.69,-19.52"/>
<polygon fill="midnightblue" stroke="midnightblue" points="242.64,-55.78 253.22,-56.44 245.36,-49.33 242.64,-55.78"/>
</g>
<!-- Node6 -->
<g id="node6" class="node">
<title>Node6</title>
<g id="a_node6"><a xlink:href="class_docker_app_manager.html" target="_top" xlink:title=" ">
<polygon fill="white" stroke="black" points="217.5,-0.5 217.5,-19.5 329.5,-19.5 329.5,-0.5 217.5,-0.5"/>
<text text-anchor="middle" x="273.5" y="-7.5" font-family="Helvetica,sans-Serif" font-size="10.00">DockerAppManager</text>
</a>
</g>
</g>
<!-- Node4&#45;&gt;Node6 -->
<g id="edge5" class="edge">
<title>Node4&#45;&gt;Node6</title>
<path fill="none" stroke="midnightblue" d="M273.5,-45.8C273.5,-36.91 273.5,-26.78 273.5,-19.75"/>
<polygon fill="midnightblue" stroke="midnightblue" points="270,-46.08 273.5,-56.08 277,-46.08 270,-46.08"/>
</g>
<!-- Node7 -->
<g id="node7" class="node">
<title>Node7</title>
<g id="a_node7"><a xlink:href="class_docker_app_standalone.html" target="_top" xlink:title=" ">
<polygon fill="white" stroke="black" points="347.5,-0.5 347.5,-19.5 471.5,-19.5 471.5,-0.5 347.5,-0.5"/>
<text text-anchor="middle" x="409.5" y="-7.5" font-family="Helvetica,sans-Serif" font-size="10.00">DockerAppStandalone</text>
</a>
</g>
</g>
<!-- Node4&#45;&gt;Node7 -->
<g id="edge6" class="edge">
<title>Node4&#45;&gt;Node7</title>
<path fill="none" stroke="midnightblue" d="M304.63,-52.64C330.16,-42.5 365.61,-28.43 388.05,-19.52"/>
<polygon fill="midnightblue" stroke="midnightblue" points="303.05,-49.5 295.05,-56.44 305.64,-56.01 303.05,-49.5"/>
</g>
</g>
</svg>
