<?xml version="1.0" encoding="UTF-8" standalone="no"?>
<!DOCTYPE svg PUBLIC "-//W3C//DTD SVG 1.1//EN"
 "http://www.w3.org/Graphics/SVG/1.1/DTD/svg11.dtd">
<!-- Generated by graphviz version 2.43.0 (0)
 -->
<!-- Title: Primary::VirtualSecondary Pages: 1 -->
<svg width="1061pt" height="170pt"
 viewBox="0.00 0.00 1061.00 169.50" xmlns="http://www.w3.org/2000/svg" xmlns:xlink="http://www.w3.org/1999/xlink">
<g id="graph0" class="graph" transform="scale(1 1) rotate(0) translate(4 165.5)">
<title>Primary::VirtualSecondary</title>
<polygon fill="white" stroke="transparent" points="-4,4 -4,-165.5 1057,-165.5 1057,4 -4,4"/>
<!-- Node1 -->
<g id="node1" class="node">
<title>Node1</title>
<g id="a_node1"><a xlink:title=" ">
<polygon fill="#bfbfbf" stroke="black" points="910,-84 910,-103 1053,-103 1053,-84 910,-84"/>
<text text-anchor="middle" x="981.5" y="-91" font-family="Helvetica,sans-Serif" font-size="10.00">Primary::VirtualSecondary</text>
</a>
</g>
</g>
<!-- Node2 -->
<g id="node2" class="node">
<title>Node2</title>
<g id="a_node2"><a xlink:href="class_primary_1_1_managed_secondary.html" target="_top" xlink:title=" ">
<polygon fill="white" stroke="black" points="717,-84 717,-103 873,-103 873,-84 717,-84"/>
<text text-anchor="middle" x="795" y="-91" font-family="Helvetica,sans-Serif" font-size="10.00">Primary::ManagedSecondary</text>
</a>
</g>
</g>
<!-- Node2&#45;&gt;Node1 -->
<g id="edge1" class="edge">
<title>Node2&#45;&gt;Node1</title>
<path fill="none" stroke="midnightblue" d="M883.2,-93.5C892.12,-93.5 901.1,-93.5 909.81,-93.5"/>
<polygon fill="midnightblue" stroke="midnightblue" points="883.18,-90 873.18,-93.5 883.18,-97 883.18,-90"/>
</g>
<!-- Node3 -->
<g id="node3" class="node">
<title>Node3</title>
<g id="a_node3"><a xlink:href="class_uptane_1_1_secondary_interface.html" target="_top" xlink:title=" ">
<polygon fill="white" stroke="black" points="404,-142 404,-161 556,-161 556,-142 404,-142"/>
<text text-anchor="middle" x="480" y="-149" font-family="Helvetica,sans-Serif" font-size="10.00">Uptane::SecondaryInterface</text>
</a>
</g>
</g>
<!-- Node3&#45;&gt;Node2 -->
<g id="edge2" class="edge">
<title>Node3&#45;&gt;Node2</title>
<path fill="none" stroke="midnightblue" d="M566.25,-142.77C606.72,-137.86 655.61,-130.82 699,-121.5 721.69,-116.62 746.87,-109.1 765.6,-103.08"/>
<polygon fill="midnightblue" stroke="midnightblue" points="565.66,-139.32 556.15,-143.97 566.49,-146.27 565.66,-139.32"/>
</g>
<!-- Node4 -->
<g id="node4" class="node">
<title>Node4</title>
<g id="a_node4"><a xlink:title=" ">
<polygon fill="white" stroke="#bfbfbf" points="422,-104 422,-123 538,-123 538,-104 422,-104"/>
<text text-anchor="middle" x="480" y="-111" font-family="Helvetica,sans-Serif" font-size="10.00">std::vector&lt; Hash &gt;</text>
</a>
</g>
</g>
<!-- Node4&#45;&gt;Node2 -->
<g id="edge3" class="edge">
<title>Node4&#45;&gt;Node2</title>
<path fill="none" stroke="#9a32cd" stroke-dasharray="5,2" d="M548.32,-109.2C597.77,-106.04 665.07,-101.74 716.73,-98.44"/>
<polygon fill="#9a32cd" stroke="#9a32cd" points="547.8,-105.72 538.05,-109.85 548.25,-112.71 547.8,-105.72"/>
<text text-anchor="middle" x="637.5" y="-109.5" font-family="Helvetica,sans-Serif" font-size="10.00"> expected_target_hashes</text>
</g>
<!-- Node5 -->
<g id="node5" class="node">
<title>Node5</title>
<g id="a_node5"><a xlink:href="class_hash.html" target="_top" xlink:title="The hash of a file or Uptane metadata.">
<polygon fill="white" stroke="black" points="191.5,-119 191.5,-138 232.5,-138 232.5,-119 191.5,-119"/>
<text text-anchor="middle" x="212" y="-126" font-family="Helvetica,sans-Serif" font-size="10.00">Hash</text>
</a>
</g>
</g>
<!-- Node5&#45;&gt;Node4 -->
<g id="edge4" class="edge">
<title>Node5&#45;&gt;Node4</title>
<path fill="none" stroke="#9a32cd" stroke-dasharray="5,2" d="M242.69,-126.83C285.89,-124.39 366.92,-119.82 421.91,-116.72"/>
<polygon fill="#9a32cd" stroke="#9a32cd" points="242.35,-123.34 232.56,-127.4 242.74,-130.33 242.35,-123.34"/>
<text text-anchor="middle" x="342.5" y="-125.5" font-family="Helvetica,sans-Serif" font-size="10.00"> elements</text>
</g>
<!-- Node6 -->
<g id="node6" class="node">
<title>Node6</title>
<g id="a_node6"><a xlink:href="class_primary_1_1_managed_secondary_config.html" target="_top" xlink:title=" ">
<polygon fill="white" stroke="black" points="402,-54.5 402,-84.5 558,-84.5 558,-54.5 402,-54.5"/>
<text text-anchor="start" x="410" y="-72.5" font-family="Helvetica,sans-Serif" font-size="10.00">Primary::ManagedSecondary</text>
<text text-anchor="middle" x="480" y="-61.5" font-family="Helvetica,sans-Serif" font-size="10.00">Config</text>
</a>
</g>
</g>
<!-- Node6&#45;&gt;Node2 -->
<g id="edge5" class="edge">
<title>Node6&#45;&gt;Node2</title>
<path fill="none" stroke="#9a32cd" stroke-dasharray="5,2" d="M568.43,-75C608.28,-77.64 656.04,-80.99 699,-84.5 704.78,-84.97 710.75,-85.48 716.76,-86.02"/>
<polygon fill="#9a32cd" stroke="#9a32cd" points="568.43,-71.49 558.22,-74.33 567.97,-78.48 568.43,-71.49"/>
<text text-anchor="middle" x="637.5" y="-87.5" font-family="Helvetica,sans-Serif" font-size="10.00"> sconfig</text>
</g>
<!-- Node7 -->
<g id="node7" class="node">
<title>Node7</title>
<g id="a_node7"><a xlink:href="class_primary_1_1_secondary_config.html" target="_top" xlink:title=" ">
<polygon fill="white" stroke="black" points="141,-81 141,-100 283,-100 283,-81 141,-81"/>
<text text-anchor="middle" x="212" y="-88" font-family="Helvetica,sans-Serif" font-size="10.00">Primary::SecondaryConfig</text>
</a>
</g>
</g>
<!-- Node7&#45;&gt;Node6 -->
<g id="edge6" class="edge">
<title>Node7&#45;&gt;Node6</title>
<path fill="none" stroke="midnightblue" d="M293.26,-84.16C327.68,-81.45 367.73,-78.28 401.81,-75.59"/>
<polygon fill="midnightblue" stroke="midnightblue" points="292.93,-80.68 283.24,-84.96 293.48,-87.66 292.93,-80.68"/>
</g>
<!-- Node8 -->
<g id="node8" class="node">
<title>Node8</title>
<g id="a_node8"><a xlink:title="STL class.">
<polygon fill="white" stroke="#bfbfbf" points="179.5,-6 179.5,-25 244.5,-25 244.5,-6 179.5,-6"/>
<text text-anchor="middle" x="212" y="-13" font-family="Helvetica,sans-Serif" font-size="10.00">std::string</text>
</a>
</g>
</g>
<!-- Node8&#45;&gt;Node2 -->
<g id="edge9" class="edge">
<title>Node8&#45;&gt;Node2</title>
<path fill="none" stroke="#9a32cd" stroke-dasharray="5,2" d="M254.73,-14.52C289.36,-13.88 339.89,-13.36 384,-14.5 461.41,-16.5 481.68,-10.4 558,-23.5 636.77,-37.02 726.39,-68.14 768.97,-83.93"/>
<polygon fill="#9a32cd" stroke="#9a32cd" points="254.45,-11.02 244.52,-14.72 254.59,-18.02 254.45,-11.02"/>
<text text-anchor="middle" x="480" y="-37.5" font-family="Helvetica,sans-Serif" font-size="10.00"> expected_target_name</text>
<text text-anchor="middle" x="480" y="-26.5" font-family="Helvetica,sans-Serif" font-size="10.00">detected_attack</text>
</g>
<!-- Node8&#45;&gt;Node6 -->
<g id="edge7" class="edge">
<title>Node8&#45;&gt;Node6</title>
<path fill="none" stroke="#9a32cd" stroke-dasharray="5,2" d="M255,-15.26C289.98,-15.93 340.87,-18.94 384,-29.5 406.94,-35.12 431.48,-45.58 449.88,-54.39"/>
<polygon fill="#9a32cd" stroke="#9a32cd" points="254.73,-11.76 244.68,-15.12 254.63,-18.76 254.73,-11.76"/>
<text text-anchor="middle" x="342.5" y="-65.5" font-family="Helvetica,sans-Serif" font-size="10.00"> ecu_private_key</text>
<text text-anchor="middle" x="342.5" y="-54.5" font-family="Helvetica,sans-Serif" font-size="10.00">ecu_hardware_id</text>
<text text-anchor="middle" x="342.5" y="-43.5" font-family="Helvetica,sans-Serif" font-size="10.00">ecu_serial</text>
<text text-anchor="middle" x="342.5" y="-32.5" font-family="Helvetica,sans-Serif" font-size="10.00">ecu_public_key</text>
</g>
<!-- Node9 -->
<g id="node9" class="node">
<title>Node9</title>
<g id="a_node9"><a xlink:title="STL class.">
<polygon fill="white" stroke="#bfbfbf" points="0,-0.5 0,-30.5 104,-30.5 104,-0.5 0,-0.5"/>
<text text-anchor="start" x="8" y="-18.5" font-family="Helvetica,sans-Serif" font-size="10.00">std::basic_string&lt;</text>
<text text-anchor="middle" x="52" y="-7.5" font-family="Helvetica,sans-Serif" font-size="10.00"> char &gt;</text>
</a>
</g>
</g>
<!-- Node9&#45;&gt;Node8 -->
<g id="edge8" class="edge">
<title>Node9&#45;&gt;Node8</title>
<path fill="none" stroke="midnightblue" d="M114.33,-15.5C136.51,-15.5 160.66,-15.5 179.27,-15.5"/>
<polygon fill="midnightblue" stroke="midnightblue" points="114.3,-12 104.3,-15.5 114.3,-19 114.3,-12"/>
</g>
</g>
</svg>
