<?xml version="1.0" encoding="UTF-8" standalone="no"?>
<!DOCTYPE svg PUBLIC "-//W3C//DTD SVG 1.1//EN"
 "http://www.w3.org/Graphics/SVG/1.1/DTD/svg11.dtd">
<!-- Generated by graphviz version 2.43.0 (0)
 -->
<!-- Title: src/libaktualizr Pages: 1 -->
<!--zoomable 255 -->
<svg id="main" version="1.1" xmlns="http://www.w3.org/2000/svg" xmlns:xlink="http://www.w3.org/1999/xlink" xml:space="preserve" onload="init(evt)">
<style type="text/css"><![CDATA[
.edge:hover path { stroke: red; }
.edge:hover polygon { stroke: red; fill: red; }
]]></style>
<script type="text/javascript"><![CDATA[
var edges = document.getElementsByTagName('g');
if (edges && edges.length) {
  for (var i=0;i<edges.length;i++) {
    if (edges[i].id.substr(0,4)=='edge') {
      edges[i].setAttribute('class','edge');
    }
  }
}
]]></script>
        <defs>
                <circle id="rim" cx="0" cy="0" r="7"/>
                <circle id="rim2" cx="0" cy="0" r="3.5"/>
                <g id="zoomPlus">
                        <use xlink:href="#rim" fill="#404040">
                                <set attributeName="fill" to="#808080" begin="zoomplus.mouseover" end="zoomplus.mouseout"/>
                        </use>
                        <path d="M-4,0h8M0,-4v8" fill="none" stroke="white" stroke-width="1.5" pointer-events="none"/>
                </g>
                <g id="zoomMin">
                        <use xlink:href="#rim" fill="#404040">
                                <set attributeName="fill" to="#808080" begin="zoomminus.mouseover" end="zoomminus.mouseout"/>
                        </use>
                        <path d="M-4,0h8" fill="none" stroke="white" stroke-width="1.5" pointer-events="none"/>
                </g>
                <g id="dirArrow">
                        <path fill="none" stroke="white" stroke-width="1.5" d="M0,-3.0v7 M-2.5,-0.5L0,-3.0L2.5,-0.5"/>
                </g>
               <g id="resetDef">
                       <use xlink:href="#rim2" fill="#404040">
                               <set attributeName="fill" to="#808080" begin="reset.mouseover" end="reset.mouseout"/>
                       </use>
               </g>
        </defs>

<script type="text/javascript">
var viewWidth = 607;
var viewHeight = 255;
var sectionId = 'dynsection-0';
</script>
<script xlink:href="svgpan.js"/>
<svg id="graph" class="graph">
<g id="viewport">
<title>src/libaktualizr</title>
<polygon fill="white" stroke="transparent" points="-4,4 -4,-251 603,-251 603,4 -4,4"/>
<g id="clust1" class="cluster">
<title>clusterdir_68267d1309a1af8e8297ef4c3efbcdba</title>
<g id="a_clust1"><a xlink:href="dir_68267d1309a1af8e8297ef4c3efbcdba.html" target="_top" xlink:title="src">
<polygon fill="#ddddee" stroke="black" points="8,-8 8,-239 591,-239 591,-8 8,-8"/>
<text text-anchor="middle" x="299.5" y="-227" font-family="Helvetica,sans-Serif" font-size="10.00">src</text>
</a>
</g>
</g>
<g id="clust2" class="cluster">
<title>clusterdir_25fe10002fe19a6f872ae0406361d164</title>
<g id="a_clust2"><a xlink:href="dir_25fe10002fe19a6f872ae0406361d164.html" target="_top">
<polygon fill="#eeeeff" stroke="black" points="16,-16 16,-212 583,-212 583,-16 16,-16"/>
</a>
</g>
</g>
<!-- dir_25fe10002fe19a6f872ae0406361d164 -->
<g id="node1" class="node">
<title>dir_25fe10002fe19a6f872ae0406361d164</title>
<text text-anchor="middle" x="539" y="-183.5" font-family="Helvetica,sans-Serif" font-size="10.00">libaktualizr</text>
</g>
<!-- dir_3bbf2a60e3198d81ff0b6cec96712616 -->
<g id="node2" class="node">
<title>dir_3bbf2a60e3198d81ff0b6cec96712616</title>
<g id="a_node2"><a xlink:href="dir_3bbf2a60e3198d81ff0b6cec96712616.html" target="_top" xlink:title="bootloader">
<polygon fill="white" stroke="black" points="485.5,-204 416.5,-204 416.5,-168 485.5,-168 485.5,-204"/>
<text text-anchor="middle" x="451" y="-183.5" font-family="Helvetica,sans-Serif" font-size="10.00">bootloader</text>
</a>
</g>
</g>
<!-- dir_fdb732a55413cc8dc0ae0a60dab491c8 -->
<g id="node3" class="node">
<title>dir_fdb732a55413cc8dc0ae0a60dab491c8</title>
<g id="a_node3"><a xlink:href="dir_fdb732a55413cc8dc0ae0a60dab491c8.html" target="_top" xlink:title="bootstrap">
<polygon fill="white" stroke="black" points="398.5,-204 335.5,-204 335.5,-168 398.5,-168 398.5,-204"/>
<text text-anchor="middle" x="367" y="-183.5" font-family="Helvetica,sans-Serif" font-size="10.00">bootstrap</text>
</a>
</g>
</g>
<!-- dir_75341968ef19bf2dc3be3feeebd59037 -->
<g id="node4" class="node">
<title>dir_75341968ef19bf2dc3be3feeebd59037</title>
<g id="a_node4"><a xlink:href="dir_75341968ef19bf2dc3be3feeebd59037.html" target="_top" xlink:title="campaign">
<polygon fill="white" stroke="black" points="317.5,-204 252.5,-204 252.5,-168 317.5,-168 317.5,-204"/>
<text text-anchor="middle" x="285" y="-183.5" font-family="Helvetica,sans-Serif" font-size="10.00">campaign</text>
</a>
</g>
</g>
<!-- dir_f0ba1877fd64ced1506d18266e138852 -->
<g id="node5" class="node">
<title>dir_f0ba1877fd64ced1506d18266e138852</title>
<g id="a_node5"><a xlink:href="dir_f0ba1877fd64ced1506d18266e138852.html" target="_top" xlink:title="config">
<polygon fill="white" stroke="black" points="512,-132 458,-132 458,-96 512,-96 512,-132"/>
<text text-anchor="middle" x="485" y="-111.5" font-family="Helvetica,sans-Serif" font-size="10.00">config</text>
</a>
</g>
</g>
<!-- dir_21695240ac6697d59c3c2f5e3a3e7e03 -->
<g id="node14" class="node">
<title>dir_21695240ac6697d59c3c2f5e3a3e7e03</title>
<g id="a_node14"><a xlink:href="dir_21695240ac6697d59c3c2f5e3a3e7e03.html" target="_top" xlink:title="utilities">
<polygon fill="white" stroke="black" points="270,-60 216,-60 216,-24 270,-24 270,-60"/>
<text text-anchor="middle" x="243" y="-39.5" font-family="Helvetica,sans-Serif" font-size="10.00">utilities</text>
</a>
</g>
</g>
<!-- dir_f0ba1877fd64ced1506d18266e138852&#45;&gt;dir_21695240ac6697d59c3c2f5e3a3e7e03 -->
<g id="edge2" class="edge">
<title>dir_f0ba1877fd64ced1506d18266e138852&#45;&gt;dir_21695240ac6697d59c3c2f5e3a3e7e03</title>
<path fill="none" stroke="black" d="M457.71,-99.46C454.8,-98.21 451.86,-97.03 449,-96 391.36,-75.19 321.89,-59.09 280.15,-50.34"/>
<polygon fill="black" stroke="black" points="280.66,-46.87 270.16,-48.27 279.24,-53.72 280.66,-46.87"/>
<g id="a_edge2&#45;headlabel"><a xlink:href="dir_000021_000029.html" target="_top" xlink:title="1">
<text text-anchor="middle" x="284.75" y="-42.31" font-family="Helvetica,sans-Serif" font-size="10.00">1</text>
</a>
</g>
</g>
<!-- dir_ed4129733881d178d939d6d6430e282d -->
<g id="node6" class="node">
<title>dir_ed4129733881d178d939d6d6430e282d</title>
<g id="a_node6"><a xlink:href="dir_ed4129733881d178d939d6d6430e282d.html" target="_top" xlink:title="crypto">
<polygon fill="white" stroke="black" points="440,-132 386,-132 386,-96 440,-96 440,-132"/>
<text text-anchor="middle" x="413" y="-111.5" font-family="Helvetica,sans-Serif" font-size="10.00">crypto</text>
</a>
</g>
</g>
<!-- dir_ed4129733881d178d939d6d6430e282d&#45;&gt;dir_21695240ac6697d59c3c2f5e3a3e7e03 -->
<g id="edge8" class="edge">
<title>dir_ed4129733881d178d939d6d6430e282d&#45;&gt;dir_21695240ac6697d59c3c2f5e3a3e7e03</title>
<path fill="none" stroke="black" d="M385.96,-100C382.95,-98.62 379.92,-97.26 377,-96 344.39,-81.87 306.71,-67.1 279.63,-56.75"/>
<polygon fill="black" stroke="black" points="280.75,-53.44 270.16,-53.15 278.26,-59.98 280.75,-53.44"/>
<g id="a_edge8&#45;headlabel"><a xlink:href="dir_000022_000029.html" target="_top" xlink:title="3">
<text text-anchor="middle" x="285.12" y="-49.56" font-family="Helvetica,sans-Serif" font-size="10.00">3</text>
</a>
</g>
</g>
<!-- dir_8c99f36ebfebd11057eb6fd485d463fb -->
<g id="node7" class="node">
<title>dir_8c99f36ebfebd11057eb6fd485d463fb</title>
<g id="a_node7"><a xlink:href="dir_8c99f36ebfebd11057eb6fd485d463fb.html" target="_top" xlink:title="http">
<polygon fill="white" stroke="black" points="368,-132 314,-132 314,-96 368,-96 368,-132"/>
<text text-anchor="middle" x="341" y="-111.5" font-family="Helvetica,sans-Serif" font-size="10.00">http</text>
</a>
</g>
</g>
<!-- dir_8c99f36ebfebd11057eb6fd485d463fb&#45;&gt;dir_21695240ac6697d59c3c2f5e3a3e7e03 -->
<g id="edge7" class="edge">
<title>dir_8c99f36ebfebd11057eb6fd485d463fb&#45;&gt;dir_21695240ac6697d59c3c2f5e3a3e7e03</title>
<path fill="none" stroke="black" d="M317.03,-95.88C304.45,-86.89 288.87,-75.76 275.25,-66.03"/>
<polygon fill="black" stroke="black" points="277.24,-63.15 267.07,-60.19 273.17,-68.85 277.24,-63.15"/>
<g id="a_edge7&#45;headlabel"><a xlink:href="dir_000023_000029.html" target="_top" xlink:title="2">
<text text-anchor="middle" x="281.81" y="-60.43" font-family="Helvetica,sans-Serif" font-size="10.00">2</text>
</a>
</g>
</g>
<!-- dir_5cb196101d78eeefc53a27ffd5907672 -->
<g id="node8" class="node">
<title>dir_5cb196101d78eeefc53a27ffd5907672</title>
<g id="a_node8"><a xlink:href="dir_5cb196101d78eeefc53a27ffd5907672.html" target="_top" xlink:title="logging">
<polygon fill="white" stroke="black" points="234,-204 180,-204 180,-168 234,-168 234,-204"/>
<text text-anchor="middle" x="207" y="-183.5" font-family="Helvetica,sans-Serif" font-size="10.00">logging</text>
</a>
</g>
</g>
<!-- dir_188ad9b20b5803d1e0842e8b7679686b -->
<g id="node9" class="node">
<title>dir_188ad9b20b5803d1e0842e8b7679686b</title>
<g id="a_node9"><a xlink:href="dir_188ad9b20b5803d1e0842e8b7679686b.html" target="_top" xlink:title="package_manager">
<polygon fill="white" stroke="black" points="296,-132 190,-132 190,-96 296,-96 296,-132"/>
<text text-anchor="middle" x="243" y="-111.5" font-family="Helvetica,sans-Serif" font-size="10.00">package_manager</text>
</a>
</g>
</g>
<!-- dir_188ad9b20b5803d1e0842e8b7679686b&#45;&gt;dir_21695240ac6697d59c3c2f5e3a3e7e03 -->
<g id="edge5" class="edge">
<title>dir_188ad9b20b5803d1e0842e8b7679686b&#45;&gt;dir_21695240ac6697d59c3c2f5e3a3e7e03</title>
<path fill="none" stroke="black" d="M243,-95.7C243,-87.98 243,-78.71 243,-70.11"/>
<polygon fill="black" stroke="black" points="246.5,-70.1 243,-60.1 239.5,-70.1 246.5,-70.1"/>
<g id="a_edge5&#45;headlabel"><a xlink:href="dir_000025_000029.html" target="_top" xlink:title="3">
<text text-anchor="middle" x="249.34" y="-71.2" font-family="Helvetica,sans-Serif" font-size="10.00">3</text>
</a>
</g>
</g>
<!-- dir_8bc6f38a0dcbed3d98be2fc5c9211590 -->
<g id="node10" class="node">
<title>dir_8bc6f38a0dcbed3d98be2fc5c9211590</title>
<g id="a_node10"><a xlink:href="dir_8bc6f38a0dcbed3d98be2fc5c9211590.html" target="_top" xlink:title="primary">
<polygon fill="white" stroke="black" points="79.5,-132 24.5,-132 24.5,-96 79.5,-96 79.5,-132"/>
<text text-anchor="middle" x="52" y="-111.5" font-family="Helvetica,sans-Serif" font-size="10.00">primary</text>
</a>
</g>
</g>
<!-- dir_8bc6f38a0dcbed3d98be2fc5c9211590&#45;&gt;dir_21695240ac6697d59c3c2f5e3a3e7e03 -->
<g id="edge1" class="edge">
<title>dir_8bc6f38a0dcbed3d98be2fc5c9211590&#45;&gt;dir_21695240ac6697d59c3c2f5e3a3e7e03</title>
<path fill="none" stroke="black" d="M79.95,-101.49C84.63,-99.62 89.44,-97.73 94,-96 132.05,-81.54 175.99,-66.06 206.25,-55.58"/>
<polygon fill="black" stroke="black" points="207.65,-58.8 215.96,-52.23 205.36,-52.18 207.65,-58.8"/>
<g id="a_edge1&#45;headlabel"><a xlink:href="dir_000013_000029.html" target="_top" xlink:title="2">
<text text-anchor="middle" x="205.17" y="-60.16" font-family="Helvetica,sans-Serif" font-size="10.00">2</text>
</a>
</g>
</g>
<!-- dir_6222101bbb5850141d4035d76d1fca79 -->
<g id="node11" class="node">
<title>dir_6222101bbb5850141d4035d76d1fca79</title>
<g id="a_node11"><a xlink:href="dir_6222101bbb5850141d4035d76d1fca79.html" target="_top" xlink:title="storage">
<polygon fill="white" stroke="black" points="172,-132 118,-132 118,-96 172,-96 172,-132"/>
<text text-anchor="middle" x="145" y="-111.5" font-family="Helvetica,sans-Serif" font-size="10.00">storage</text>
</a>
</g>
</g>
<!-- dir_6222101bbb5850141d4035d76d1fca79&#45;&gt;dir_21695240ac6697d59c3c2f5e3a3e7e03 -->
<g id="edge6" class="edge">
<title>dir_6222101bbb5850141d4035d76d1fca79&#45;&gt;dir_21695240ac6697d59c3c2f5e3a3e7e03</title>
<path fill="none" stroke="black" d="M168.97,-95.88C181.55,-86.89 197.13,-75.76 210.75,-66.03"/>
<polygon fill="black" stroke="black" points="212.83,-68.85 218.93,-60.19 208.76,-63.15 212.83,-68.85"/>
<g id="a_edge6&#45;headlabel"><a xlink:href="dir_000026_000029.html" target="_top" xlink:title="2">
<text text-anchor="middle" x="211.56" y="-70.75" font-family="Helvetica,sans-Serif" font-size="10.00">2</text>
</a>
</g>
</g>
<!-- dir_99d301fce191cbab027d1141c58ff40d -->
<g id="node12" class="node">
<title>dir_99d301fce191cbab027d1141c58ff40d</title>
<g id="a_node12"><a xlink:href="dir_99d301fce191cbab027d1141c58ff40d.html" target="_top" xlink:title="telemetry">
<polygon fill="white" stroke="black" points="161.5,-204 96.5,-204 96.5,-168 161.5,-168 161.5,-204"/>
<text text-anchor="middle" x="129" y="-183.5" font-family="Helvetica,sans-Serif" font-size="10.00">telemetry</text>
</a>
</g>
</g>
<!-- dir_01ad008a1a3fdffc18398ed2b9cdb1e4 -->
<g id="node13" class="node">
<title>dir_01ad008a1a3fdffc18398ed2b9cdb1e4</title>
<g id="a_node13"><a xlink:href="dir_01ad008a1a3fdffc18398ed2b9cdb1e4.html" target="_top" xlink:title="uptane">
<polygon fill="white" stroke="black" points="78,-204 24,-204 24,-168 78,-168 78,-204"/>
<text text-anchor="middle" x="51" y="-183.5" font-family="Helvetica,sans-Serif" font-size="10.00">uptane</text>
</a>
</g>
</g>
<!-- dir_01ad008a1a3fdffc18398ed2b9cdb1e4&#45;&gt;dir_8bc6f38a0dcbed3d98be2fc5c9211590 -->
<g id="edge3" class="edge">
<title>dir_01ad008a1a3fdffc18398ed2b9cdb1e4&#45;&gt;dir_8bc6f38a0dcbed3d98be2fc5c9211590</title>
<path fill="none" stroke="black" d="M51.25,-167.7C51.36,-159.98 51.49,-150.71 51.61,-142.11"/>
<polygon fill="black" stroke="black" points="55.11,-142.15 51.76,-132.1 48.11,-142.05 55.11,-142.15"/>
<g id="a_edge3&#45;headlabel"><a xlink:href="dir_000028_000013.html" target="_top" xlink:title="1">
<text text-anchor="middle" x="57.9" y="-143.29" font-family="Helvetica,sans-Serif" font-size="10.00">1</text>
</a>
</g>
</g>
<!-- dir_01ad008a1a3fdffc18398ed2b9cdb1e4&#45;&gt;dir_21695240ac6697d59c3c2f5e3a3e7e03 -->
<g id="edge4" class="edge">
<title>dir_01ad008a1a3fdffc18398ed2b9cdb1e4&#45;&gt;dir_21695240ac6697d59c3c2f5e3a3e7e03</title>
<path fill="none" stroke="black" d="M64.18,-167.68C71.75,-157.49 81.25,-144.24 89,-132 98.79,-116.54 95.24,-108.07 109,-96 136.67,-71.72 176.81,-57.84 205.93,-50.43"/>
<polygon fill="black" stroke="black" points="206.83,-53.81 215.74,-48.07 205.2,-47.01 206.83,-53.81"/>
<g id="a_edge4&#45;headlabel"><a xlink:href="dir_000028_000029.html" target="_top" xlink:title="1">
<text text-anchor="middle" x="204" y="-54.91" font-family="Helvetica,sans-Serif" font-size="10.00">1</text>
</a>
</g>
</g>
</g>
</svg>
        <g id="navigator" transform="translate(0 0)" fill="#404254">
                <rect fill="#f2f5e9" fill-opacity="0.5" stroke="#606060" stroke-width=".5" x="0" y="0" width="60" height="60"/>
                <use id="zoomplus" xlink:href="#zoomPlus" x="17" y="9" onmousedown="handleZoom(evt,'in')"/>
                <use id="zoomminus" xlink:href="#zoomMin" x="42" y="9" onmousedown="handleZoom(evt,'out')"/>
                <use id="reset" xlink:href="#resetDef" x="30" y="36" onmousedown="handleReset()"/>
                <g id="arrowUp" xlink:href="#dirArrow" transform="translate(30 24)" onmousedown="handlePan(0,-1)">
                  <use xlink:href="#rim" fill="#404040">
                        <set attributeName="fill" to="#808080" begin="arrowUp.mouseover" end="arrowUp.mouseout"/>
                  </use>
                  <path fill="none" stroke="white" stroke-width="1.5" d="M0,-3.0v7 M-2.5,-0.5L0,-3.0L2.5,-0.5"/>
                </g>
                <g id="arrowRight" xlink:href="#dirArrow" transform="rotate(90) translate(36 -43)" onmousedown="handlePan(1,0)">
                  <use xlink:href="#rim" fill="#404040">
                        <set attributeName="fill" to="#808080" begin="arrowRight.mouseover" end="arrowRight.mouseout"/>
                  </use>
                  <path fill="none" stroke="white" stroke-width="1.5" d="M0,-3.0v7 M-2.5,-0.5L0,-3.0L2.5,-0.5"/>
                </g>
                <g id="arrowDown" xlink:href="#dirArrow" transform="rotate(180) translate(-30 -48)" onmousedown="handlePan(0,1)">
                  <use xlink:href="#rim" fill="#404040">
                        <set attributeName="fill" to="#808080" begin="arrowDown.mouseover" end="arrowDown.mouseout"/>
                  </use>
                  <path fill="none" stroke="white" stroke-width="1.5" d="M0,-3.0v7 M-2.5,-0.5L0,-3.0L2.5,-0.5"/>
                </g>
                <g id="arrowLeft" xlink:href="#dirArrow" transform="rotate(270) translate(-36 17)" onmousedown="handlePan(-1,0)">
                  <use xlink:href="#rim" fill="#404040">
                        <set attributeName="fill" to="#808080" begin="arrowLeft.mouseover" end="arrowLeft.mouseout"/>
                  </use>
                  <path fill="none" stroke="white" stroke-width="1.5" d="M0,-3.0v7 M-2.5,-0.5L0,-3.0L2.5,-0.5"/>
                </g>
        </g>
        <svg viewBox="0 0 15 15" width="100%" height="30px" preserveAspectRatio="xMaxYMin meet">
         <g id="arrow_out" transform="scale(0.3 0.3)">
          <a xlink:href="dir_25fe10002fe19a6f872ae0406361d164_dep_org.svg" target="_base">
           <rect id="button" ry="5" rx="5" y="6" x="6" height="38" width="38"
                fill="#f2f5e9" fill-opacity="0.5" stroke="#606060" stroke-width="1.0"/>
           <path id="arrow"
             d="M 11.500037,31.436501 C 11.940474,20.09759 22.043105,11.32322 32.158766,21.979434 L 37.068811,17.246167 C 37.068811,17.246167 37.088388,32 37.088388,32 L 22.160133,31.978069 C 22.160133,31.978069 26.997745,27.140456 26.997745,27.140456 C 18.528582,18.264221 13.291696,25.230495 11.500037,31.436501 z"
             style="fill:#404040;"/>
          </a>
         </g>
        </svg>
</svg>
