<?xml version="1.0" encoding="UTF-8" standalone="no"?>
<!DOCTYPE svg PUBLIC "-//W3C//DTD SVG 1.1//EN"
 "http://www.w3.org/Graphics/SVG/1.1/DTD/svg11.dtd">
<!-- Generated by graphviz version 2.40.1 (20161225.0304)
 -->
<!-- Title: opcuabridge::ImageRequest Pages: 1 -->
<svg width="562pt" height="154pt"
 viewBox="0.00 0.00 562.00 153.50" xmlns="http://www.w3.org/2000/svg" xmlns:xlink="http://www.w3.org/1999/xlink">
<g id="graph0" class="graph" transform="scale(1 1) rotate(0) translate(4 149.5)">
<title>opcuabridge::ImageRequest</title>
<polygon fill="#ffffff" stroke="transparent" points="-4,4 -4,-149.5 558,-149.5 558,4 -4,4"/>
<!-- Node1 -->
<g id="node1" class="node">
<title>Node1</title>
<polygon fill="#bfbfbf" stroke="#000000" points="415,-55 415,-74 554,-74 554,-55 415,-55"/>
<text text-anchor="middle" x="484.5" y="-62" font-family="Helvetica,sans-Serif" font-size="10.00" fill="#000000">opcuabridge::ImageRequest</text>
</g>
<!-- Node2 -->
<g id="node2" class="node">
<title>Node2</title>
<g id="a_node2"><a xlink:href="structopcuabridge_1_1_message_on_after_write_callback.html" target="_top" xlink:title="opcuabridge::MessageOnAfter\lWriteCallback\&lt; opcuabridge\l::ImageRequest \&gt;">
<polygon fill="#ffffff" stroke="#000000" points="135.5,-104 135.5,-145 284.5,-145 284.5,-104 135.5,-104"/>
<text text-anchor="start" x="143.5" y="-133" font-family="Helvetica,sans-Serif" font-size="10.00" fill="#000000">opcuabridge::MessageOnAfter</text>
<text text-anchor="start" x="143.5" y="-122" font-family="Helvetica,sans-Serif" font-size="10.00" fill="#000000">WriteCallback&lt; opcuabridge</text>
<text text-anchor="middle" x="210" y="-111" font-family="Helvetica,sans-Serif" font-size="10.00" fill="#000000">::ImageRequest &gt;</text>
</a>
</g>
</g>
<!-- Node2&#45;&gt;Node1 -->
<g id="edge1" class="edge">
<title>Node2&#45;&gt;Node1</title>
<path fill="none" stroke="#9a32cd" stroke-dasharray="5,2" d="M294.4817,-106.0341C342.8286,-95.4664 401.4801,-82.6464 440.7172,-74.07"/>
<polygon fill="#9a32cd" stroke="#9a32cd" points="293.6677,-102.6293 284.6457,-108.184 295.1625,-109.4678 293.6677,-102.6293"/>
<text text-anchor="middle" x="351.5" y="-105.5" font-family="Helvetica,sans-Serif" font-size="10.00" fill="#000000"> on_after_write_cb_</text>
</g>
<!-- Node3 -->
<g id="node3" class="node">
<title>Node3</title>
<g id="a_node3"><a xlink:href="structopcuabridge_1_1_message_on_before_read_callback.html" target="_top" xlink:title="opcuabridge::MessageOnBefore\lReadCallback\&lt; opcuabridge\l::ImageRequest \&gt;">
<polygon fill="#ffffff" stroke="#000000" points="132,-44 132,-85 288,-85 288,-44 132,-44"/>
<text text-anchor="start" x="140" y="-73" font-family="Helvetica,sans-Serif" font-size="10.00" fill="#000000">opcuabridge::MessageOnBefore</text>
<text text-anchor="start" x="140" y="-62" font-family="Helvetica,sans-Serif" font-size="10.00" fill="#000000">ReadCallback&lt; opcuabridge</text>
<text text-anchor="middle" x="210" y="-51" font-family="Helvetica,sans-Serif" font-size="10.00" fill="#000000">::ImageRequest &gt;</text>
</a>
</g>
</g>
<!-- Node3&#45;&gt;Node1 -->
<g id="edge2" class="edge">
<title>Node3&#45;&gt;Node1</title>
<path fill="none" stroke="#9a32cd" stroke-dasharray="5,2" d="M298.7596,-64.5C336.4329,-64.5 379.6996,-64.5 414.9909,-64.5"/>
<polygon fill="#9a32cd" stroke="#9a32cd" points="298.2934,-61.0001 288.2933,-64.5 298.2933,-68.0001 298.2934,-61.0001"/>
<text text-anchor="middle" x="351.5" y="-67.5" font-family="Helvetica,sans-Serif" font-size="10.00" fill="#000000"> on_before_read_cb_</text>
</g>
<!-- Node4 -->
<g id="node4" class="node">
<title>Node4</title>
<g id="a_node4"><a xlink:title="STL class. ">
<polygon fill="#ffffff" stroke="#bfbfbf" points="180,-6 180,-25 240,-25 240,-6 180,-6"/>
<text text-anchor="middle" x="210" y="-13" font-family="Helvetica,sans-Serif" font-size="10.00" fill="#000000">std::string</text>
</a>
</g>
</g>
<!-- Node4&#45;&gt;Node1 -->
<g id="edge3" class="edge">
<title>Node4&#45;&gt;Node1</title>
<path fill="none" stroke="#9a32cd" stroke-dasharray="5,2" d="M250.1558,-22.6681C298.0363,-31.215 378.2298,-45.5301 431.2494,-54.9944"/>
<polygon fill="#9a32cd" stroke="#9a32cd" points="250.621,-19.1959 240.1615,-20.884 249.3908,-26.0869 250.621,-19.1959"/>
<text text-anchor="middle" x="351.5" y="-51.5" font-family="Helvetica,sans-Serif" font-size="10.00" fill="#000000"> filename_</text>
</g>
<!-- Node5 -->
<g id="node5" class="node">
<title>Node5</title>
<g id="a_node5"><a xlink:title="STL class. ">
<polygon fill="#ffffff" stroke="#bfbfbf" points="0,-.5 0,-30.5 95,-30.5 95,-.5 0,-.5"/>
<text text-anchor="start" x="8" y="-18.5" font-family="Helvetica,sans-Serif" font-size="10.00" fill="#000000">std::basic_string&lt;</text>
<text text-anchor="middle" x="47.5" y="-7.5" font-family="Helvetica,sans-Serif" font-size="10.00" fill="#000000"> char &gt;</text>
</a>
</g>
</g>
<!-- Node5&#45;&gt;Node4 -->
<g id="edge4" class="edge">
<title>Node5&#45;&gt;Node4</title>
<path fill="none" stroke="#191970" d="M105.5477,-15.5C130.6688,-15.5 159.0198,-15.5 179.8396,-15.5"/>
<polygon fill="#191970" stroke="#191970" points="105.3765,-12.0001 95.3765,-15.5 105.3764,-19.0001 105.3765,-12.0001"/>
</g>
</g>
</svg>
