<?xml version="1.0" encoding="UTF-8" standalone="no"?>
<!DOCTYPE svg PUBLIC "-//W3C//DTD SVG 1.1//EN"
 "http://www.w3.org/Graphics/SVG/1.1/DTD/svg11.dtd">
<!-- Generated by graphviz version 2.40.1 (20161225.0304)
 -->
<!-- Title: DebianManager Pages: 1 -->
<svg width="259pt" height="241pt"
 viewBox="0.00 0.00 258.50 241.00" xmlns="http://www.w3.org/2000/svg" xmlns:xlink="http://www.w3.org/1999/xlink">
<g id="graph0" class="graph" transform="scale(1 1) rotate(0) translate(4 237)">
<title>DebianManager</title>
<polygon fill="#ffffff" stroke="transparent" points="-4,4 -4,-237 254.5,-237 254.5,4 -4,4"/>
<!-- Node2 -->
<g id="node1" class="node">
<title>Node2</title>
<polygon fill="#bfbfbf" stroke="#000000" points="62,-.5 62,-19.5 147,-19.5 147,-.5 62,-.5"/>
<text text-anchor="middle" x="104.5" y="-7.5" font-family="Helvetica,sans-Serif" font-size="10.00" fill="#000000">DebianManager</text>
</g>
<!-- Node3 -->
<g id="node2" class="node">
<title>Node3</title>
<g id="a_node2"><a xlink:href="class_package_manager_interface.html" target="_top" xlink:title="PackageManagerInterface">
<polygon fill="#ffffff" stroke="#000000" points="0,-67.5 0,-86.5 131,-86.5 131,-67.5 0,-67.5"/>
<text text-anchor="middle" x="65.5" y="-74.5" font-family="Helvetica,sans-Serif" font-size="10.00" fill="#000000">PackageManagerInterface</text>
</a>
</g>
</g>
<!-- Node3&#45;&gt;Node2 -->
<g id="edge1" class="edge">
<title>Node3&#45;&gt;Node2</title>
<path fill="none" stroke="#191970" d="M76.2047,-58.6099C83.5567,-45.9795 93.0188,-29.7241 98.9226,-19.5817"/>
<polygon fill="#191970" stroke="#191970" points="73.0936,-56.9973 71.0877,-67.4005 79.1434,-60.5188 73.0936,-56.9973"/>
</g>
<!-- Node4 -->
<g id="node3" class="node">
<title>Node4</title>
<g id="a_node3"><a xlink:href="struct_package_config.html" target="_top" xlink:title="PackageConfig">
<polygon fill="#ffffff" stroke="#000000" points="149,-67.5 149,-86.5 232,-86.5 232,-67.5 149,-67.5"/>
<text text-anchor="middle" x="190.5" y="-74.5" font-family="Helvetica,sans-Serif" font-size="10.00" fill="#000000">PackageConfig</text>
</a>
</g>
</g>
<!-- Node4&#45;&gt;Node2 -->
<g id="edge2" class="edge">
<title>Node4&#45;&gt;Node2</title>
<path fill="none" stroke="#9a32cd" stroke-dasharray="5,2" d="M170.1628,-61.1559C153.5835,-48.2395 130.7109,-30.4201 116.7988,-19.5817"/>
<polygon fill="#9a32cd" stroke="#9a32cd" points="168.1387,-64.0158 178.1783,-67.4005 172.4407,-58.4937 168.1387,-64.0158"/>
<text text-anchor="middle" x="170" y="-41" font-family="Helvetica,sans-Serif" font-size="10.00" fill="#000000"> config_</text>
</g>
<!-- Node5 -->
<g id="node4" class="node">
<title>Node5</title>
<g id="a_node4"><a xlink:title="STL class. ">
<polygon fill="#ffffff" stroke="#bfbfbf" points="160.5,-145.5 160.5,-164.5 220.5,-164.5 220.5,-145.5 160.5,-145.5"/>
<text text-anchor="middle" x="190.5" y="-152.5" font-family="Helvetica,sans-Serif" font-size="10.00" fill="#000000">std::string</text>
</a>
</g>
</g>
<!-- Node5&#45;&gt;Node4 -->
<g id="edge3" class="edge">
<title>Node5&#45;&gt;Node4</title>
<path fill="none" stroke="#9a32cd" stroke-dasharray="5,2" d="M190.5,-135.2866C190.5,-119.7395 190.5,-98.7276 190.5,-86.6426"/>
<polygon fill="#9a32cd" stroke="#9a32cd" points="187.0001,-135.4356 190.5,-145.4357 194.0001,-135.4357 187.0001,-135.4356"/>
<text text-anchor="middle" x="220.5" y="-119" font-family="Helvetica,sans-Serif" font-size="10.00" fill="#000000"> os</text>
<text text-anchor="middle" x="220.5" y="-108" font-family="Helvetica,sans-Serif" font-size="10.00" fill="#000000">ostree_server</text>
</g>
<!-- Node6 -->
<g id="node5" class="node">
<title>Node6</title>
<g id="a_node5"><a xlink:title="STL class. ">
<polygon fill="#ffffff" stroke="#bfbfbf" points="143,-202.5 143,-232.5 238,-232.5 238,-202.5 143,-202.5"/>
<text text-anchor="start" x="151" y="-220.5" font-family="Helvetica,sans-Serif" font-size="10.00" fill="#000000">std::basic_string&lt;</text>
<text text-anchor="middle" x="190.5" y="-209.5" font-family="Helvetica,sans-Serif" font-size="10.00" fill="#000000"> char &gt;</text>
</a>
</g>
</g>
<!-- Node6&#45;&gt;Node5 -->
<g id="edge4" class="edge">
<title>Node6&#45;&gt;Node5</title>
<path fill="none" stroke="#191970" d="M190.5,-192.3498C190.5,-182.6481 190.5,-172.1303 190.5,-164.7356"/>
<polygon fill="#191970" stroke="#191970" points="187.0001,-192.3705 190.5,-202.3705 194.0001,-192.3705 187.0001,-192.3705"/>
</g>
</g>
</svg>
