<?xml version="1.0" encoding="UTF-8" standalone="no"?>
<!DOCTYPE svg PUBLIC "-//W3C//DTD SVG 1.1//EN"
 "http://www.w3.org/Graphics/SVG/1.1/DTD/svg11.dtd">
<!-- Generated by graphviz version 2.40.1 (20161225.0304)
 -->
<!-- Title: event::AllInstallsComplete Pages: 1 -->
<svg width="395pt" height="462pt"
 viewBox="0.00 0.00 394.50 462.00" xmlns="http://www.w3.org/2000/svg" xmlns:xlink="http://www.w3.org/1999/xlink">
<g id="graph0" class="graph" transform="scale(1 1) rotate(0) translate(4 458)">
<title>event::AllInstallsComplete</title>
<polygon fill="#ffffff" stroke="transparent" points="-4,4 -4,-458 390.5,-458 390.5,4 -4,4"/>
<!-- Node2 -->
<g id="node1" class="node">
<title>Node2</title>
<polygon fill="#bfbfbf" stroke="#000000" points="179.5,-.5 179.5,-19.5 310.5,-19.5 310.5,-.5 179.5,-.5"/>
<text text-anchor="middle" x="245" y="-7.5" font-family="Helvetica,sans-Serif" font-size="10.00" fill="#000000">event::AllInstallsComplete</text>
</g>
<!-- Node3 -->
<g id="node2" class="node">
<title>Node3</title>
<g id="a_node2"><a xlink:href="classevent_1_1_base_event.html" target="_top" xlink:title="Base class for all event objects. ">
<polygon fill="#ffffff" stroke="#000000" points="291.5,-250.5 291.5,-269.5 386.5,-269.5 386.5,-250.5 291.5,-250.5"/>
<text text-anchor="middle" x="339" y="-257.5" font-family="Helvetica,sans-Serif" font-size="10.00" fill="#000000">event::BaseEvent</text>
</a>
</g>
</g>
<!-- Node3&#45;&gt;Node2 -->
<g id="edge1" class="edge">
<title>Node3&#45;&gt;Node2</title>
<path fill="none" stroke="#191970" d="M314.1587,-244.3875C297.2778,-231.6588 278,-211.9823 278,-188.5 278,-188.5 278,-188.5 278,-77 278,-54.6979 263.1033,-32.1194 253.3273,-19.7034"/>
<polygon fill="#191970" stroke="#191970" points="312.4674,-247.4781 322.6531,-250.3937 316.5088,-241.7625 312.4674,-247.4781"/>
</g>
<!-- Node4 -->
<g id="node3" class="node">
<title>Node4</title>
<g id="a_node3"><a xlink:title="STL class. ">
<polygon fill="#ffffff" stroke="#bfbfbf" points="282,-366.5 282,-385.5 342,-385.5 342,-366.5 282,-366.5"/>
<text text-anchor="middle" x="312" y="-373.5" font-family="Helvetica,sans-Serif" font-size="10.00" fill="#000000">std::string</text>
</a>
</g>
</g>
<!-- Node4&#45;&gt;Node3 -->
<g id="edge2" class="edge">
<title>Node4&#45;&gt;Node3</title>
<path fill="none" stroke="#9a32cd" stroke-dasharray="5,2" d="M326.8744,-358.1066C328.9104,-354.902 330.7332,-351.4725 332,-348 341.8749,-320.9321 341.0212,-286.1612 339.8709,-269.599"/>
<polygon fill="#9a32cd" stroke="#9a32cd" points="323.9018,-356.2435 320.8561,-366.3911 329.5652,-360.3577 323.9018,-356.2435"/>
<text text-anchor="middle" x="353.5" y="-334.5" font-family="Helvetica,sans-Serif" font-size="10.00" fill="#000000"> variant</text>
</g>
<!-- Node10 -->
<g id="node9" class="node">
<title>Node10</title>
<g id="a_node9"><a xlink:href="structdata_1_1_operation_result.html" target="_top" xlink:title="data::OperationResult">
<polygon fill="#ffffff" stroke="#000000" points="214,-288.5 214,-307.5 326,-307.5 326,-288.5 214,-288.5"/>
<text text-anchor="middle" x="270" y="-295.5" font-family="Helvetica,sans-Serif" font-size="10.00" fill="#000000">data::OperationResult</text>
</a>
</g>
</g>
<!-- Node4&#45;&gt;Node10 -->
<g id="edge9" class="edge">
<title>Node4&#45;&gt;Node10</title>
<path fill="none" stroke="#9a32cd" stroke-dasharray="5,2" d="M291.7959,-359.3802C288.4843,-355.9035 285.3672,-352.0527 283,-348 275.581,-335.2986 272.3324,-318.3509 270.9556,-307.81"/>
<polygon fill="#9a32cd" stroke="#9a32cd" points="289.4703,-361.9981 299.1407,-366.3265 294.2802,-356.9123 289.4703,-361.9981"/>
<text text-anchor="middle" x="307.5" y="-340" font-family="Helvetica,sans-Serif" font-size="10.00" fill="#000000"> result_text</text>
<text text-anchor="middle" x="307.5" y="-329" font-family="Helvetica,sans-Serif" font-size="10.00" fill="#000000">id</text>
</g>
<!-- Node5 -->
<g id="node4" class="node">
<title>Node5</title>
<g id="a_node4"><a xlink:title="STL class. ">
<polygon fill="#ffffff" stroke="#bfbfbf" points="264.5,-423.5 264.5,-453.5 359.5,-453.5 359.5,-423.5 264.5,-423.5"/>
<text text-anchor="start" x="272.5" y="-441.5" font-family="Helvetica,sans-Serif" font-size="10.00" fill="#000000">std::basic_string&lt;</text>
<text text-anchor="middle" x="312" y="-430.5" font-family="Helvetica,sans-Serif" font-size="10.00" fill="#000000"> char &gt;</text>
</a>
</g>
</g>
<!-- Node5&#45;&gt;Node4 -->
<g id="edge3" class="edge">
<title>Node5&#45;&gt;Node4</title>
<path fill="none" stroke="#191970" d="M312,-413.3498C312,-403.6481 312,-393.1303 312,-385.7356"/>
<polygon fill="#191970" stroke="#191970" points="308.5001,-413.3705 312,-423.3705 315.5001,-413.3705 308.5001,-413.3705"/>
</g>
<!-- Node6 -->
<g id="node5" class="node">
<title>Node6</title>
<g id="a_node5"><a xlink:href="classresult_1_1_install.html" target="_top" xlink:title="Container for information about installing an update. ">
<polygon fill="#ffffff" stroke="#000000" points="173.5,-67.5 173.5,-86.5 246.5,-86.5 246.5,-67.5 173.5,-67.5"/>
<text text-anchor="middle" x="210" y="-74.5" font-family="Helvetica,sans-Serif" font-size="10.00" fill="#000000">result::Install</text>
</a>
</g>
</g>
<!-- Node6&#45;&gt;Node2 -->
<g id="edge4" class="edge">
<title>Node6&#45;&gt;Node2</title>
<path fill="none" stroke="#9a32cd" stroke-dasharray="5,2" d="M219.8014,-58.2374C226.3709,-45.6614 234.7483,-29.6246 239.9947,-19.5817"/>
<polygon fill="#9a32cd" stroke="#9a32cd" points="216.5427,-56.9165 215.0146,-67.4005 222.7471,-60.1576 216.5427,-56.9165"/>
<text text-anchor="middle" x="243" y="-41" font-family="Helvetica,sans-Serif" font-size="10.00" fill="#000000"> result</text>
</g>
<!-- Node7 -->
<g id="node6" class="node">
<title>Node7</title>
<polygon fill="#ffffff" stroke="#bfbfbf" points="153,-134.5 153,-164.5 249,-164.5 249,-134.5 153,-134.5"/>
<text text-anchor="start" x="161" y="-152.5" font-family="Helvetica,sans-Serif" font-size="10.00" fill="#000000">std::vector&lt; result</text>
<text text-anchor="middle" x="201" y="-141.5" font-family="Helvetica,sans-Serif" font-size="10.00" fill="#000000">::InstallReport &gt;</text>
</g>
<!-- Node7&#45;&gt;Node6 -->
<g id="edge5" class="edge">
<title>Node7&#45;&gt;Node6</title>
<path fill="none" stroke="#9a32cd" stroke-dasharray="5,2" d="M204.1277,-124.305C205.7267,-111.424 207.5813,-96.4836 208.7716,-86.8957"/>
<polygon fill="#9a32cd" stroke="#9a32cd" points="200.6235,-124.1229 202.8648,-134.478 207.5702,-124.9853 200.6235,-124.1229"/>
<text text-anchor="middle" x="223" y="-108" font-family="Helvetica,sans-Serif" font-size="10.00" fill="#000000"> reports</text>
</g>
<!-- Node8 -->
<g id="node7" class="node">
<title>Node8</title>
<g id="a_node7"><a xlink:href="classresult_1_1_install_report.html" target="_top" xlink:title="Installation report for a given target on a given ECU. ">
<polygon fill="#ffffff" stroke="#000000" points="132,-212.5 132,-231.5 234,-231.5 234,-212.5 132,-212.5"/>
<text text-anchor="middle" x="183" y="-219.5" font-family="Helvetica,sans-Serif" font-size="10.00" fill="#000000">result::InstallReport</text>
</a>
</g>
</g>
<!-- Node8&#45;&gt;Node7 -->
<g id="edge6" class="edge">
<title>Node8&#45;&gt;Node7</title>
<path fill="none" stroke="#9a32cd" stroke-dasharray="5,2" d="M187.8707,-202.3817C190.8157,-190.52 194.5138,-175.6248 197.2341,-164.668"/>
<polygon fill="#9a32cd" stroke="#9a32cd" points="184.4404,-201.6736 185.4276,-212.2223 191.2341,-203.3604 184.4404,-201.6736"/>
<text text-anchor="middle" x="213.5" y="-186" font-family="Helvetica,sans-Serif" font-size="10.00" fill="#000000"> elements</text>
</g>
<!-- Node9 -->
<g id="node8" class="node">
<title>Node9</title>
<g id="a_node8"><a xlink:href="class_uptane_1_1_target.html" target="_top" xlink:title="Uptane::Target">
<polygon fill="#ffffff" stroke="#000000" points="114,-288.5 114,-307.5 196,-307.5 196,-288.5 114,-288.5"/>
<text text-anchor="middle" x="155" y="-295.5" font-family="Helvetica,sans-Serif" font-size="10.00" fill="#000000">Uptane::Target</text>
</a>
</g>
</g>
<!-- Node9&#45;&gt;Node8 -->
<g id="edge7" class="edge">
<title>Node9&#45;&gt;Node8</title>
<path fill="none" stroke="#9a32cd" stroke-dasharray="5,2" d="M162.1572,-278.5733C167.6684,-263.6144 175.0557,-243.5631 179.3941,-231.7874"/>
<polygon fill="#9a32cd" stroke="#9a32cd" points="158.7191,-277.7811 158.5462,-288.3745 165.2875,-280.2011 158.7191,-277.7811"/>
<text text-anchor="middle" x="188.5" y="-257.5" font-family="Helvetica,sans-Serif" font-size="10.00" fill="#000000"> update</text>
</g>
<!-- Node10&#45;&gt;Node8 -->
<g id="edge8" class="edge">
<title>Node10&#45;&gt;Node8</title>
<path fill="none" stroke="#9a32cd" stroke-dasharray="5,2" d="M251.1204,-281.5075C233.6447,-266.2413 208.2648,-244.0704 193.9291,-231.5473"/>
<polygon fill="#9a32cd" stroke="#9a32cd" points="249.1476,-284.4315 258.9814,-288.3745 253.7529,-279.1597 249.1476,-284.4315"/>
<text text-anchor="middle" x="251.5" y="-257.5" font-family="Helvetica,sans-Serif" font-size="10.00" fill="#000000"> status</text>
</g>
<!-- Node11 -->
<g id="node10" class="node">
<title>Node11</title>
<g id="a_node10"><a xlink:href="class_uptane_1_1_ecu_serial.html" target="_top" xlink:title="Uptane::EcuSerial">
<polygon fill="#ffffff" stroke="#000000" points="0,-288.5 0,-307.5 96,-307.5 96,-288.5 0,-288.5"/>
<text text-anchor="middle" x="48" y="-295.5" font-family="Helvetica,sans-Serif" font-size="10.00" fill="#000000">Uptane::EcuSerial</text>
</a>
</g>
</g>
<!-- Node11&#45;&gt;Node8 -->
<g id="edge10" class="edge">
<title>Node11&#45;&gt;Node8</title>
<path fill="none" stroke="#9a32cd" stroke-dasharray="5,2" d="M74.0315,-283.3452C101.1625,-268.0715 142.8859,-244.5828 166.041,-231.5473"/>
<polygon fill="#9a32cd" stroke="#9a32cd" points="72.0949,-280.4189 65.0978,-288.3745 75.5289,-286.5187 72.0949,-280.4189"/>
<text text-anchor="middle" x="144.5" y="-257.5" font-family="Helvetica,sans-Serif" font-size="10.00" fill="#000000"> serial</text>
</g>
</g>
</svg>
