<?xml version="1.0" encoding="UTF-8" standalone="no"?>
<!DOCTYPE svg PUBLIC "-//W3C//DTD SVG 1.1//EN"
 "http://www.w3.org/Graphics/SVG/1.1/DTD/svg11.dtd">
<!-- Generated by graphviz version 2.40.1 (20161225.0304)
 -->
<!-- Title: HttpPutManifestFail Pages: 1 -->
<svg width="303pt" height="242pt"
 viewBox="0.00 0.00 303.00 242.00" xmlns="http://www.w3.org/2000/svg" xmlns:xlink="http://www.w3.org/1999/xlink">
<g id="graph0" class="graph" transform="scale(1 1) rotate(0) translate(4 238)">
<title>HttpPutManifestFail</title>
<polygon fill="#ffffff" stroke="transparent" points="-4,4 -4,-238 299,-238 299,4 -4,4"/>
<!-- Node3 -->
<g id="node1" class="node">
<title>Node3</title>
<polygon fill="#bfbfbf" stroke="#000000" points="92,-.5 92,-19.5 196,-19.5 196,-.5 92,-.5"/>
<text text-anchor="middle" x="144" y="-7.5" font-family="Helvetica,sans-Serif" font-size="10.00" fill="#000000">HttpPutManifestFail</text>
</g>
<!-- Node4 -->
<g id="node2" class="node">
<title>Node4</title>
<g id="a_node2"><a xlink:href="class_http_fake.html" target="_top" xlink:title="HttpFake">
<polygon fill="#ffffff" stroke="#000000" points="115.5,-57.5 115.5,-76.5 172.5,-76.5 172.5,-57.5 115.5,-57.5"/>
<text text-anchor="middle" x="144" y="-64.5" font-family="Helvetica,sans-Serif" font-size="10.00" fill="#000000">HttpFake</text>
</a>
</g>
</g>
<!-- Node4&#45;&gt;Node3 -->
<g id="edge1" class="edge">
<title>Node4&#45;&gt;Node3</title>
<path fill="none" stroke="#191970" d="M144,-47.2342C144,-37.8491 144,-27.0651 144,-19.5265"/>
<polygon fill="#191970" stroke="#191970" points="140.5001,-47.3307 144,-57.3307 147.5001,-47.3308 140.5001,-47.3307"/>
</g>
<!-- Node5 -->
<g id="node3" class="node">
<title>Node5</title>
<g id="a_node3"><a xlink:href="class_http_interface.html" target="_top" xlink:title="HttpInterface">
<polygon fill="#ffffff" stroke="#000000" points="0,-146.5 0,-165.5 74,-165.5 74,-146.5 0,-146.5"/>
<text text-anchor="middle" x="37" y="-153.5" font-family="Helvetica,sans-Serif" font-size="10.00" fill="#000000">HttpInterface</text>
</a>
</g>
</g>
<!-- Node5&#45;&gt;Node4 -->
<g id="edge2" class="edge">
<title>Node5&#45;&gt;Node4</title>
<path fill="none" stroke="#191970" d="M56.2043,-140.0263C78.3309,-121.622 113.9872,-91.9639 132.3071,-76.7259"/>
<polygon fill="#191970" stroke="#191970" points="53.9008,-137.3898 48.4509,-146.4754 58.3772,-142.7715 53.9008,-137.3898"/>
</g>
<!-- Node6 -->
<g id="node4" class="node">
<title>Node6</title>
<g id="a_node4"><a xlink:href="class_temporary_directory.html" target="_top" xlink:title="TemporaryDirectory">
<polygon fill="#ffffff" stroke="#000000" points="92.5,-146.5 92.5,-165.5 195.5,-165.5 195.5,-146.5 92.5,-146.5"/>
<text text-anchor="middle" x="144" y="-153.5" font-family="Helvetica,sans-Serif" font-size="10.00" fill="#000000">TemporaryDirectory</text>
</a>
</g>
</g>
<!-- Node6&#45;&gt;Node4 -->
<g id="edge3" class="edge">
<title>Node6&#45;&gt;Node4</title>
<path fill="none" stroke="#9a32cd" stroke-dasharray="5,2" d="M144,-136.2379C144,-117.7654 144,-90.957 144,-76.7259"/>
<polygon fill="#9a32cd" stroke="#9a32cd" points="140.5001,-136.4754 144,-146.4754 147.5001,-136.4755 140.5001,-136.4754"/>
<text text-anchor="middle" x="178" y="-109" font-family="Helvetica,sans-Serif" font-size="10.00" fill="#000000"> metadata_path</text>
</g>
<!-- Node7 -->
<g id="node5" class="node">
<title>Node7</title>
<g id="a_node5"><a xlink:title="STL class. ">
<polygon fill="#ffffff" stroke="#bfbfbf" points="214,-146.5 214,-165.5 274,-165.5 274,-146.5 214,-146.5"/>
<text text-anchor="middle" x="244" y="-153.5" font-family="Helvetica,sans-Serif" font-size="10.00" fill="#000000">std::string</text>
</a>
</g>
</g>
<!-- Node7&#45;&gt;Node4 -->
<g id="edge4" class="edge">
<title>Node7&#45;&gt;Node4</title>
<path fill="none" stroke="#9a32cd" stroke-dasharray="5,2" d="M239.1928,-136.4003C235.0367,-123.1522 227.7937,-106.1128 216,-95 204.0912,-83.7788 187.181,-76.8937 172.7409,-72.7603"/>
<polygon fill="#9a32cd" stroke="#9a32cd" points="235.9308,-137.7326 241.9902,-146.4237 242.6732,-135.8509 235.9308,-137.7326"/>
<text text-anchor="middle" x="265" y="-120" font-family="Helvetica,sans-Serif" font-size="10.00" fill="#000000"> tls_server</text>
<text text-anchor="middle" x="265" y="-109" font-family="Helvetica,sans-Serif" font-size="10.00" fill="#000000">test_manifest</text>
<text text-anchor="middle" x="265" y="-98" font-family="Helvetica,sans-Serif" font-size="10.00" fill="#000000">flavor_</text>
</g>
<!-- Node8 -->
<g id="node6" class="node">
<title>Node8</title>
<g id="a_node6"><a xlink:title="STL class. ">
<polygon fill="#ffffff" stroke="#bfbfbf" points="196.5,-203.5 196.5,-233.5 291.5,-233.5 291.5,-203.5 196.5,-203.5"/>
<text text-anchor="start" x="204.5" y="-221.5" font-family="Helvetica,sans-Serif" font-size="10.00" fill="#000000">std::basic_string&lt;</text>
<text text-anchor="middle" x="244" y="-210.5" font-family="Helvetica,sans-Serif" font-size="10.00" fill="#000000"> char &gt;</text>
</a>
</g>
</g>
<!-- Node8&#45;&gt;Node7 -->
<g id="edge5" class="edge">
<title>Node8&#45;&gt;Node7</title>
<path fill="none" stroke="#191970" d="M244,-193.3498C244,-183.6481 244,-173.1303 244,-165.7356"/>
<polygon fill="#191970" stroke="#191970" points="240.5001,-193.3705 244,-203.3705 247.5001,-193.3705 240.5001,-193.3705"/>
</g>
</g>
</svg>
