<?xml version="1.0" encoding="UTF-8" standalone="no"?>
<!DOCTYPE svg PUBLIC "-//W3C//DTD SVG 1.1//EN"
 "http://www.w3.org/Graphics/SVG/1.1/DTD/svg11.dtd">
<!-- Generated by graphviz version 2.40.1 (20161225.0304)
 -->
<!-- Title: Uptane::DirectorRepository Pages: 1 -->
<svg width="236pt" height="276pt"
 viewBox="0.00 0.00 235.50 276.00" xmlns="http://www.w3.org/2000/svg" xmlns:xlink="http://www.w3.org/1999/xlink">
<g id="graph0" class="graph" transform="scale(1 1) rotate(0) translate(4 272)">
<title>Uptane::DirectorRepository</title>
<polygon fill="#ffffff" stroke="transparent" points="-4,4 -4,-272 231.5,-272 231.5,4 -4,4"/>
<!-- Node2 -->
<g id="node1" class="node">
<title>Node2</title>
<polygon fill="#bfbfbf" stroke="#000000" points="33.5,-.5 33.5,-19.5 169.5,-19.5 169.5,-.5 33.5,-.5"/>
<text text-anchor="middle" x="101.5" y="-7.5" font-family="Helvetica,sans-Serif" font-size="10.00" fill="#000000">Uptane::DirectorRepository</text>
</g>
<!-- Node3 -->
<g id="node2" class="node">
<title>Node3</title>
<g id="a_node2"><a xlink:href="class_uptane_1_1_repository_common.html" target="_top" xlink:title="Uptane::RepositoryCommon">
<polygon fill="#ffffff" stroke="#000000" points="31,-57.5 31,-76.5 172,-76.5 172,-57.5 31,-57.5"/>
<text text-anchor="middle" x="101.5" y="-64.5" font-family="Helvetica,sans-Serif" font-size="10.00" fill="#000000">Uptane::RepositoryCommon</text>
</a>
</g>
</g>
<!-- Node3&#45;&gt;Node2 -->
<g id="edge1" class="edge">
<title>Node3&#45;&gt;Node2</title>
<path fill="none" stroke="#191970" d="M101.5,-47.2342C101.5,-37.8491 101.5,-27.0651 101.5,-19.5265"/>
<polygon fill="#191970" stroke="#191970" points="98.0001,-47.3307 101.5,-57.3307 105.0001,-47.3308 98.0001,-47.3307"/>
</g>
<!-- Node4 -->
<g id="node3" class="node">
<title>Node4</title>
<g id="a_node3"><a xlink:href="class_uptane_1_1_repository_type.html" target="_top" xlink:title="Uptane::RepositoryType">
<polygon fill="#ffffff" stroke="#000000" points="0,-124.5 0,-143.5 123,-143.5 123,-124.5 0,-124.5"/>
<text text-anchor="middle" x="61.5" y="-131.5" font-family="Helvetica,sans-Serif" font-size="10.00" fill="#000000">Uptane::RepositoryType</text>
</a>
</g>
</g>
<!-- Node4&#45;&gt;Node3 -->
<g id="edge2" class="edge">
<title>Node4&#45;&gt;Node3</title>
<path fill="none" stroke="#9a32cd" stroke-dasharray="5,2" d="M72.4792,-115.6099C80.0197,-102.9795 89.7244,-86.7241 95.7796,-76.5817"/>
<polygon fill="#9a32cd" stroke="#9a32cd" points="69.352,-114.0202 67.231,-124.4005 75.3624,-117.6085 69.352,-114.0202"/>
<text text-anchor="middle" x="94.5" y="-98" font-family="Helvetica,sans-Serif" font-size="10.00" fill="#000000"> type</text>
</g>
<!-- Node5 -->
<g id="node4" class="node">
<title>Node5</title>
<g id="a_node4"><a xlink:href="class_uptane_1_1_root.html" target="_top" xlink:title="Uptane::Root">
<polygon fill="#ffffff" stroke="#000000" points="141,-124.5 141,-143.5 216,-143.5 216,-124.5 141,-124.5"/>
<text text-anchor="middle" x="178.5" y="-131.5" font-family="Helvetica,sans-Serif" font-size="10.00" fill="#000000">Uptane::Root</text>
</a>
</g>
</g>
<!-- Node5&#45;&gt;Node3 -->
<g id="edge3" class="edge">
<title>Node5&#45;&gt;Node3</title>
<path fill="none" stroke="#9a32cd" stroke-dasharray="5,2" d="M159.8812,-117.7992C145.0718,-104.9131 124.8536,-87.3207 112.5118,-76.5817"/>
<polygon fill="#9a32cd" stroke="#9a32cd" points="157.6263,-120.4767 167.4678,-124.4005 162.2213,-115.1959 157.6263,-120.4767"/>
<text text-anchor="middle" x="154.5" y="-98" font-family="Helvetica,sans-Serif" font-size="10.00" fill="#000000"> root</text>
</g>
<!-- Node6 -->
<g id="node5" class="node">
<title>Node6</title>
<g id="a_node5"><a xlink:href="class_uptane_1_1_base_meta.html" target="_top" xlink:title="Uptane::BaseMeta">
<polygon fill="#ffffff" stroke="#000000" points="129.5,-181.5 129.5,-200.5 227.5,-200.5 227.5,-181.5 129.5,-181.5"/>
<text text-anchor="middle" x="178.5" y="-188.5" font-family="Helvetica,sans-Serif" font-size="10.00" fill="#000000">Uptane::BaseMeta</text>
</a>
</g>
</g>
<!-- Node6&#45;&gt;Node5 -->
<g id="edge4" class="edge">
<title>Node6&#45;&gt;Node5</title>
<path fill="none" stroke="#191970" d="M178.5,-171.2342C178.5,-161.8491 178.5,-151.0651 178.5,-143.5265"/>
<polygon fill="#191970" stroke="#191970" points="175.0001,-171.3307 178.5,-181.3307 182.0001,-171.3308 175.0001,-171.3307"/>
</g>
<!-- Node7 -->
<g id="node6" class="node">
<title>Node7</title>
<g id="a_node6"><a xlink:href="class_time_stamp.html" target="_top" xlink:title="TimeStamp">
<polygon fill="#ffffff" stroke="#000000" points="145,-248.5 145,-267.5 212,-267.5 212,-248.5 145,-248.5"/>
<text text-anchor="middle" x="178.5" y="-255.5" font-family="Helvetica,sans-Serif" font-size="10.00" fill="#000000">TimeStamp</text>
</a>
</g>
</g>
<!-- Node7&#45;&gt;Node6 -->
<g id="edge5" class="edge">
<title>Node7&#45;&gt;Node6</title>
<path fill="none" stroke="#9a32cd" stroke-dasharray="5,2" d="M178.5,-238.1079C178.5,-225.714 178.5,-210.3263 178.5,-200.5817"/>
<polygon fill="#9a32cd" stroke="#9a32cd" points="175.0001,-238.4005 178.5,-248.4005 182.0001,-238.4006 175.0001,-238.4005"/>
<text text-anchor="middle" x="196" y="-222" font-family="Helvetica,sans-Serif" font-size="10.00" fill="#000000"> expiry_</text>
</g>
</g>
</svg>
