<?xml version="1.0" encoding="UTF-8" standalone="no"?>
<!DOCTYPE svg PUBLIC "-//W3C//DTD SVG 1.1//EN"
 "http://www.w3.org/Graphics/SVG/1.1/DTD/svg11.dtd">
<!-- Generated by graphviz version 2.40.1 (20161225.0304)
 -->
<!-- Title: Uptane::RepositoryCommon Pages: 1 -->
<svg width="236pt" height="219pt"
 viewBox="0.00 0.00 235.50 219.00" xmlns="http://www.w3.org/2000/svg" xmlns:xlink="http://www.w3.org/1999/xlink">
<g id="graph0" class="graph" transform="scale(1 1) rotate(0) translate(4 215)">
<title>Uptane::RepositoryCommon</title>
<polygon fill="#ffffff" stroke="transparent" points="-4,4 -4,-215 231.5,-215 231.5,4 -4,4"/>
<!-- Node3 -->
<g id="node1" class="node">
<title>Node3</title>
<polygon fill="#bfbfbf" stroke="#000000" points="31,-.5 31,-19.5 172,-19.5 172,-.5 31,-.5"/>
<text text-anchor="middle" x="101.5" y="-7.5" font-family="Helvetica,sans-Serif" font-size="10.00" fill="#000000">Uptane::RepositoryCommon</text>
</g>
<!-- Node4 -->
<g id="node2" class="node">
<title>Node4</title>
<g id="a_node2"><a xlink:href="class_uptane_1_1_repository_type.html" target="_top" xlink:title="Uptane::RepositoryType">
<polygon fill="#ffffff" stroke="#000000" points="0,-67.5 0,-86.5 123,-86.5 123,-67.5 0,-67.5"/>
<text text-anchor="middle" x="61.5" y="-74.5" font-family="Helvetica,sans-Serif" font-size="10.00" fill="#000000">Uptane::RepositoryType</text>
</a>
</g>
</g>
<!-- Node4&#45;&gt;Node3 -->
<g id="edge1" class="edge">
<title>Node4&#45;&gt;Node3</title>
<path fill="none" stroke="#9a32cd" stroke-dasharray="5,2" d="M72.4792,-58.6099C80.0197,-45.9795 89.7244,-29.7241 95.7796,-19.5817"/>
<polygon fill="#9a32cd" stroke="#9a32cd" points="69.352,-57.0202 67.231,-67.4005 75.3624,-60.6085 69.352,-57.0202"/>
<text text-anchor="middle" x="94.5" y="-41" font-family="Helvetica,sans-Serif" font-size="10.00" fill="#000000"> type</text>
</g>
<!-- Node5 -->
<g id="node3" class="node">
<title>Node5</title>
<g id="a_node3"><a xlink:href="class_uptane_1_1_root.html" target="_top" xlink:title="Uptane::Root">
<polygon fill="#ffffff" stroke="#000000" points="141,-67.5 141,-86.5 216,-86.5 216,-67.5 141,-67.5"/>
<text text-anchor="middle" x="178.5" y="-74.5" font-family="Helvetica,sans-Serif" font-size="10.00" fill="#000000">Uptane::Root</text>
</a>
</g>
</g>
<!-- Node5&#45;&gt;Node3 -->
<g id="edge2" class="edge">
<title>Node5&#45;&gt;Node3</title>
<path fill="none" stroke="#9a32cd" stroke-dasharray="5,2" d="M159.8812,-60.7992C145.0718,-47.9131 124.8536,-30.3207 112.5118,-19.5817"/>
<polygon fill="#9a32cd" stroke="#9a32cd" points="157.6263,-63.4767 167.4678,-67.4005 162.2213,-58.1959 157.6263,-63.4767"/>
<text text-anchor="middle" x="154.5" y="-41" font-family="Helvetica,sans-Serif" font-size="10.00" fill="#000000"> root</text>
</g>
<!-- Node6 -->
<g id="node4" class="node">
<title>Node6</title>
<g id="a_node4"><a xlink:href="class_uptane_1_1_base_meta.html" target="_top" xlink:title="Uptane::BaseMeta">
<polygon fill="#ffffff" stroke="#000000" points="129.5,-124.5 129.5,-143.5 227.5,-143.5 227.5,-124.5 129.5,-124.5"/>
<text text-anchor="middle" x="178.5" y="-131.5" font-family="Helvetica,sans-Serif" font-size="10.00" fill="#000000">Uptane::BaseMeta</text>
</a>
</g>
</g>
<!-- Node6&#45;&gt;Node5 -->
<g id="edge3" class="edge">
<title>Node6&#45;&gt;Node5</title>
<path fill="none" stroke="#191970" d="M178.5,-114.2342C178.5,-104.8491 178.5,-94.0651 178.5,-86.5265"/>
<polygon fill="#191970" stroke="#191970" points="175.0001,-114.3307 178.5,-124.3307 182.0001,-114.3308 175.0001,-114.3307"/>
</g>
<!-- Node7 -->
<g id="node5" class="node">
<title>Node7</title>
<g id="a_node5"><a xlink:href="class_time_stamp.html" target="_top" xlink:title="TimeStamp">
<polygon fill="#ffffff" stroke="#000000" points="145,-191.5 145,-210.5 212,-210.5 212,-191.5 145,-191.5"/>
<text text-anchor="middle" x="178.5" y="-198.5" font-family="Helvetica,sans-Serif" font-size="10.00" fill="#000000">TimeStamp</text>
</a>
</g>
</g>
<!-- Node7&#45;&gt;Node6 -->
<g id="edge4" class="edge">
<title>Node7&#45;&gt;Node6</title>
<path fill="none" stroke="#9a32cd" stroke-dasharray="5,2" d="M178.5,-181.1079C178.5,-168.714 178.5,-153.3263 178.5,-143.5817"/>
<polygon fill="#9a32cd" stroke="#9a32cd" points="175.0001,-181.4005 178.5,-191.4005 182.0001,-181.4006 175.0001,-181.4005"/>
<text text-anchor="middle" x="196" y="-165" font-family="Helvetica,sans-Serif" font-size="10.00" fill="#000000"> expiry_</text>
</g>
</g>
</svg>
