<?xml version="1.0" encoding="UTF-8" standalone="no"?>
<!DOCTYPE svg PUBLIC "-//W3C//DTD SVG 1.1//EN"
 "http://www.w3.org/Graphics/SVG/1.1/DTD/svg11.dtd">
<!-- Generated by graphviz version 2.40.1 (20161225.0304)
 -->
<!-- Title: AktualizrSecondaryOpcua Pages: 1 -->
<svg width="1234pt" height="514pt"
 viewBox="0.00 0.00 1234.00 514.00" xmlns="http://www.w3.org/2000/svg" xmlns:xlink="http://www.w3.org/1999/xlink">
<g id="graph0" class="graph" transform="scale(1 1) rotate(0) translate(4 510)">
<title>AktualizrSecondaryOpcua</title>
<polygon fill="#ffffff" stroke="transparent" points="-4,4 -4,-510 1230,-510 1230,4 -4,4"/>
<!-- Node3 -->
<g id="node1" class="node">
<title>Node3</title>
<polygon fill="#bfbfbf" stroke="#000000" points="1096,-341.5 1096,-360.5 1226,-360.5 1226,-341.5 1096,-341.5"/>
<text text-anchor="middle" x="1161" y="-348.5" font-family="Helvetica,sans-Serif" font-size="10.00" fill="#000000">AktualizrSecondaryOpcua</text>
</g>
<!-- Node4 -->
<g id="node2" class="node">
<title>Node4</title>
<g id="a_node2"><a xlink:href="class_aktualizr_secondary_interface.html" target="_top" xlink:title="AktualizrSecondaryInterface">
<polygon fill="#ffffff" stroke="#000000" points="918.5,-360.5 918.5,-379.5 1058.5,-379.5 1058.5,-360.5 918.5,-360.5"/>
<text text-anchor="middle" x="988.5" y="-367.5" font-family="Helvetica,sans-Serif" font-size="10.00" fill="#000000">AktualizrSecondaryInterface</text>
</a>
</g>
</g>
<!-- Node4&#45;&gt;Node3 -->
<g id="edge1" class="edge">
<title>Node4&#45;&gt;Node3</title>
<path fill="none" stroke="#191970" d="M1068.8427,-361.1507C1077.9115,-360.1518 1087.0678,-359.1433 1095.9081,-358.1695"/>
<polygon fill="#191970" stroke="#191970" points="1068.219,-357.6981 1058.6624,-362.272 1068.9855,-364.656 1068.219,-357.6981"/>
</g>
<!-- Node5 -->
<g id="node3" class="node">
<title>Node5</title>
<g id="a_node3"><a xlink:href="class_aktualizr_secondary_common.html" target="_top" xlink:title="AktualizrSecondaryCommon">
<polygon fill="#ffffff" stroke="#000000" points="918,-322.5 918,-341.5 1059,-341.5 1059,-322.5 918,-322.5"/>
<text text-anchor="middle" x="988.5" y="-329.5" font-family="Helvetica,sans-Serif" font-size="10.00" fill="#000000">AktualizrSecondaryCommon</text>
</a>
</g>
</g>
<!-- Node5&#45;&gt;Node3 -->
<g id="edge2" class="edge">
<title>Node5&#45;&gt;Node3</title>
<path fill="none" stroke="#8b1a1a" d="M1069.2342,-340.8925C1078.2054,-341.8806 1087.2566,-342.8775 1095.9974,-343.8403"/>
<polygon fill="#8b1a1a" stroke="#8b1a1a" points="1069.4832,-337.3988 1059.1601,-339.7828 1068.7167,-344.3567 1069.4832,-337.3988"/>
</g>
<!-- Node6 -->
<g id="node4" class="node">
<title>Node6</title>
<polygon fill="#ffffff" stroke="#bfbfbf" points="542,-467 542,-497 664,-497 664,-467 542,-467"/>
<text text-anchor="start" x="550" y="-485" font-family="Helvetica,sans-Serif" font-size="10.00" fill="#000000">std::unique_ptr&lt; Uptane</text>
<text text-anchor="middle" x="603" y="-474" font-family="Helvetica,sans-Serif" font-size="10.00" fill="#000000">::Target &gt;</text>
</g>
<!-- Node6&#45;&gt;Node5 -->
<g id="edge3" class="edge">
<title>Node6&#45;&gt;Node5</title>
<path fill="none" stroke="#9a32cd" stroke-dasharray="5,2" d="M674.3623,-493.4019C741.4532,-499.7703 840.2524,-497.254 900,-441 929.6996,-413.037 890.1208,-380.7784 918,-351 921.5521,-347.206 925.7747,-344.1399 930.3619,-341.6659"/>
<polygon fill="#9a32cd" stroke="#9a32cd" points="674.5981,-489.9077 664.2903,-492.357 673.8757,-496.8703 674.5981,-489.9077"/>
<text text-anchor="middle" x="749" y="-498" font-family="Helvetica,sans-Serif" font-size="10.00" fill="#000000"> target_</text>
</g>
<!-- Node7 -->
<g id="node5" class="node">
<title>Node7</title>
<g id="a_node5"><a xlink:href="class_uptane_1_1_target.html" target="_top" xlink:title="Uptane::Target">
<polygon fill="#ffffff" stroke="#000000" points="141.5,-458.5 141.5,-477.5 223.5,-477.5 223.5,-458.5 141.5,-458.5"/>
<text text-anchor="middle" x="182.5" y="-465.5" font-family="Helvetica,sans-Serif" font-size="10.00" fill="#000000">Uptane::Target</text>
</a>
</g>
</g>
<!-- Node7&#45;&gt;Node6 -->
<g id="edge4" class="edge">
<title>Node7&#45;&gt;Node6</title>
<path fill="none" stroke="#9a32cd" stroke-dasharray="5,2" d="M233.6079,-469.7016C311.2429,-472.2863 458.6341,-477.1935 541.8443,-479.9639"/>
<polygon fill="#9a32cd" stroke="#9a32cd" points="233.6959,-466.2027 223.5849,-469.3679 233.4629,-473.1988 233.6959,-466.2027"/>
<text text-anchor="middle" x="305.5" y="-476" font-family="Helvetica,sans-Serif" font-size="10.00" fill="#000000"> ptr</text>
</g>
<!-- Node24 -->
<g id="node22" class="node">
<title>Node24</title>
<polygon fill="#ffffff" stroke="#bfbfbf" points="399,-429 399,-459 503,-459 503,-429 399,-429"/>
<text text-anchor="start" x="407" y="-447" font-family="Helvetica,sans-Serif" font-size="10.00" fill="#000000">std::vector&lt; Uptane</text>
<text text-anchor="middle" x="451" y="-436" font-family="Helvetica,sans-Serif" font-size="10.00" fill="#000000">::Target &gt;</text>
</g>
<!-- Node7&#45;&gt;Node24 -->
<g id="edge24" class="edge">
<title>Node7&#45;&gt;Node24</title>
<path fill="none" stroke="#9a32cd" stroke-dasharray="5,2" d="M233.9084,-457.4833C239.6576,-456.5339 245.4427,-455.6771 251,-455 300.8805,-448.9223 358.1721,-446.2011 398.616,-444.9836"/>
<polygon fill="#9a32cd" stroke="#9a32cd" points="232.9045,-454.1056 223.6556,-459.2735 234.1086,-461.0012 232.9045,-454.1056"/>
<text text-anchor="middle" x="305.5" y="-458" font-family="Helvetica,sans-Serif" font-size="10.00" fill="#000000"> elements</text>
</g>
<!-- Node8 -->
<g id="node6" class="node">
<title>Node8</title>
<g id="a_node6"><a xlink:href="class_aktualizr_secondary_config.html" target="_top" xlink:title="AktualizrSecondaryConfig">
<polygon fill="#ffffff" stroke="#000000" points="684,-268.5 684,-287.5 814,-287.5 814,-268.5 684,-268.5"/>
<text text-anchor="middle" x="749" y="-275.5" font-family="Helvetica,sans-Serif" font-size="10.00" fill="#000000">AktualizrSecondaryConfig</text>
</a>
</g>
</g>
<!-- Node8&#45;&gt;Node5 -->
<g id="edge5" class="edge">
<title>Node8&#45;&gt;Node5</title>
<path fill="none" stroke="#9a32cd" stroke-dasharray="5,2" d="M801.0872,-289.7441C844.5704,-299.5482 905.7711,-313.3471 946.2539,-322.4748"/>
<polygon fill="#9a32cd" stroke="#9a32cd" points="801.7914,-286.3151 791.2665,-287.5298 800.2518,-293.1437 801.7914,-286.3151"/>
<text text-anchor="middle" x="867" y="-314" font-family="Helvetica,sans-Serif" font-size="10.00" fill="#000000"> config_</text>
</g>
<!-- Node9 -->
<g id="node7" class="node">
<title>Node9</title>
<g id="a_node7"><a xlink:href="class_base_config.html" target="_top" xlink:title="BaseConfig">
<polygon fill="#ffffff" stroke="#000000" points="417,-110.5 417,-129.5 485,-129.5 485,-110.5 417,-110.5"/>
<text text-anchor="middle" x="451" y="-117.5" font-family="Helvetica,sans-Serif" font-size="10.00" fill="#000000">BaseConfig</text>
</a>
</g>
</g>
<!-- Node9&#45;&gt;Node8 -->
<g id="edge6" class="edge">
<title>Node9&#45;&gt;Node8</title>
<path fill="none" stroke="#191970" d="M495.4235,-110.1339C543.5504,-102.2991 619.4119,-98.7188 664,-141 702.4955,-177.5037 646.9025,-219.2183 682,-259 685.3595,-262.8079 689.4201,-265.8778 693.8613,-268.3492"/>
<polygon fill="#191970" stroke="#191970" points="494.5451,-106.7345 485.3008,-111.9108 495.7554,-113.629 494.5451,-106.7345"/>
</g>
<!-- Node10 -->
<g id="node8" class="node">
<title>Node10</title>
<polygon fill="#ffffff" stroke="#bfbfbf" points="132,-106 132,-136 233,-136 233,-106 132,-106"/>
<text text-anchor="start" x="140" y="-124" font-family="Helvetica,sans-Serif" font-size="10.00" fill="#000000">std::vector&lt; boost</text>
<text text-anchor="middle" x="182.5" y="-113" font-family="Helvetica,sans-Serif" font-size="10.00" fill="#000000">::filesystem::path &gt;</text>
</g>
<!-- Node10&#45;&gt;Node9 -->
<g id="edge7" class="edge">
<title>Node10&#45;&gt;Node9</title>
<path fill="none" stroke="#9a32cd" stroke-dasharray="5,2" d="M243.0841,-120.7744C296.7693,-120.5744 373.2196,-120.2897 416.8964,-120.127"/>
<polygon fill="#9a32cd" stroke="#9a32cd" points="242.9897,-117.2746 233.0028,-120.8119 243.0158,-124.2745 242.9897,-117.2746"/>
<text text-anchor="middle" x="305.5" y="-124" font-family="Helvetica,sans-Serif" font-size="10.00" fill="#000000"> config_dirs_</text>
</g>
<!-- Node11 -->
<g id="node9" class="node">
<title>Node11</title>
<g id="a_node9"><a xlink:href="struct_storage_config.html" target="_top" xlink:title="StorageConfig">
<polygon fill="#ffffff" stroke="#000000" points="411.5,-38.5 411.5,-57.5 490.5,-57.5 490.5,-38.5 411.5,-38.5"/>
<text text-anchor="middle" x="451" y="-45.5" font-family="Helvetica,sans-Serif" font-size="10.00" fill="#000000">StorageConfig</text>
</a>
</g>
</g>
<!-- Node11&#45;&gt;Node8 -->
<g id="edge8" class="edge">
<title>Node11&#45;&gt;Node8</title>
<path fill="none" stroke="#9a32cd" stroke-dasharray="5,2" d="M500.709,-42.8088C549.7714,-40.7068 623.1901,-46.2307 664,-91 714.5887,-146.4968 633.5885,-201.5941 682,-259 685.1958,-262.7895 689.0864,-265.8526 693.3675,-268.3246"/>
<polygon fill="#9a32cd" stroke="#9a32cd" points="500.423,-39.3192 490.6298,-43.3618 500.8065,-46.3086 500.423,-39.3192"/>
<text text-anchor="middle" x="603" y="-94" font-family="Helvetica,sans-Serif" font-size="10.00" fill="#000000"> storage</text>
</g>
<!-- Node12 -->
<g id="node10" class="node">
<title>Node12</title>
<g id="a_node10"><a xlink:href="class_based_path.html" target="_top" xlink:title="BasedPath">
<polygon fill="#ffffff" stroke="#000000" points="150,-.5 150,-19.5 215,-19.5 215,-.5 150,-.5"/>
<text text-anchor="middle" x="182.5" y="-7.5" font-family="Helvetica,sans-Serif" font-size="10.00" fill="#000000">BasedPath</text>
</a>
</g>
</g>
<!-- Node12&#45;&gt;Node11 -->
<g id="edge9" class="edge">
<title>Node12&#45;&gt;Node11</title>
<path fill="none" stroke="#9a32cd" stroke-dasharray="5,2" d="M225.1765,-13.3719C261.2287,-16.5063 314.1637,-21.7799 360,-29 376.8993,-31.662 395.4056,-35.377 411.2908,-38.8166"/>
<polygon fill="#9a32cd" stroke="#9a32cd" points="225.2776,-9.8679 215.0166,-12.5064 224.6834,-16.8427 225.2776,-9.8679"/>
<text text-anchor="middle" x="305.5" y="-109" font-family="Helvetica,sans-Serif" font-size="10.00" fill="#000000"> uptane_public_key_path</text>
<text text-anchor="middle" x="305.5" y="-98" font-family="Helvetica,sans-Serif" font-size="10.00" fill="#000000">tls_pkey_path</text>
<text text-anchor="middle" x="305.5" y="-87" font-family="Helvetica,sans-Serif" font-size="10.00" fill="#000000">uptane_metadata_path</text>
<text text-anchor="middle" x="305.5" y="-76" font-family="Helvetica,sans-Serif" font-size="10.00" fill="#000000">sqldb_path</text>
<text text-anchor="start" x="251" y="-65" font-family="Helvetica,sans-Serif" font-size="10.00" fill="#000000">uptane_private_key</text>
<text text-anchor="middle" x="305.5" y="-54" font-family="Helvetica,sans-Serif" font-size="10.00" fill="#000000">_path</text>
<text text-anchor="middle" x="305.5" y="-43" font-family="Helvetica,sans-Serif" font-size="10.00" fill="#000000">tls_cacert_path</text>
<text text-anchor="middle" x="305.5" y="-32" font-family="Helvetica,sans-Serif" font-size="10.00" fill="#000000">tls_clientcert_path</text>
</g>
<!-- Node13 -->
<g id="node11" class="node">
<title>Node13</title>
<g id="a_node11"><a xlink:href="struct_aktualizr_secondary_uptane_config.html" target="_top" xlink:title="AktualizrSecondaryUptane\lConfig">
<polygon fill="#ffffff" stroke="#000000" points="384.5,-263 384.5,-293 517.5,-293 517.5,-263 384.5,-263"/>
<text text-anchor="start" x="392.5" y="-281" font-family="Helvetica,sans-Serif" font-size="10.00" fill="#000000">AktualizrSecondaryUptane</text>
<text text-anchor="middle" x="451" y="-270" font-family="Helvetica,sans-Serif" font-size="10.00" fill="#000000">Config</text>
</a>
</g>
</g>
<!-- Node13&#45;&gt;Node8 -->
<g id="edge10" class="edge">
<title>Node13&#45;&gt;Node8</title>
<path fill="none" stroke="#9a32cd" stroke-dasharray="5,2" d="M527.625,-278C576.0525,-278 637.9527,-278 683.9784,-278"/>
<polygon fill="#9a32cd" stroke="#9a32cd" points="527.5061,-274.5001 517.5061,-278 527.5061,-281.5001 527.5061,-274.5001"/>
<text text-anchor="middle" x="603" y="-281" font-family="Helvetica,sans-Serif" font-size="10.00" fill="#000000"> uptane</text>
</g>
<!-- Node14 -->
<g id="node12" class="node">
<title>Node14</title>
<g id="a_node12"><a xlink:title="STL class. ">
<polygon fill="#ffffff" stroke="#bfbfbf" points="152.5,-247.5 152.5,-266.5 212.5,-266.5 212.5,-247.5 152.5,-247.5"/>
<text text-anchor="middle" x="182.5" y="-254.5" font-family="Helvetica,sans-Serif" font-size="10.00" fill="#000000">std::string</text>
</a>
</g>
</g>
<!-- Node14&#45;&gt;Node5 -->
<g id="edge27" class="edge">
<title>Node14&#45;&gt;Node5</title>
<path fill="none" stroke="#9a32cd" stroke-dasharray="5,2" d="M206.3246,-271.9498C219.251,-279.7033 235.6788,-288.991 251,-296 305.4553,-320.9118 318.9829,-330.8533 378,-341 571.0052,-374.1831 803.3961,-354.7837 917.8037,-341.4147"/>
<polygon fill="#9a32cd" stroke="#9a32cd" points="207.9573,-268.8461 197.5968,-266.6297 204.3138,-274.8232 207.9573,-268.8461"/>
<text text-anchor="middle" x="603" y="-362" font-family="Helvetica,sans-Serif" font-size="10.00" fill="#000000"> detected_attack_</text>
</g>
<!-- Node14&#45;&gt;Node13 -->
<g id="edge11" class="edge">
<title>Node14&#45;&gt;Node13</title>
<path fill="none" stroke="#9a32cd" stroke-dasharray="5,2" d="M222.5341,-260.1312C265.2355,-263.4709 333.582,-268.8165 384.4096,-272.7918"/>
<polygon fill="#9a32cd" stroke="#9a32cd" points="222.7613,-256.6383 212.5188,-259.3478 222.2154,-263.617 222.7613,-256.6383"/>
<text text-anchor="middle" x="305.5" y="-284" font-family="Helvetica,sans-Serif" font-size="10.00" fill="#000000"> ecu_hardware_id</text>
<text text-anchor="middle" x="305.5" y="-273" font-family="Helvetica,sans-Serif" font-size="10.00" fill="#000000">ecu_serial</text>
</g>
<!-- Node17 -->
<g id="node15" class="node">
<title>Node17</title>
<g id="a_node15"><a xlink:href="struct_package_config.html" target="_top" xlink:title="PackageConfig">
<polygon fill="#ffffff" stroke="#000000" points="409.5,-224.5 409.5,-243.5 492.5,-243.5 492.5,-224.5 409.5,-224.5"/>
<text text-anchor="middle" x="451" y="-231.5" font-family="Helvetica,sans-Serif" font-size="10.00" fill="#000000">PackageConfig</text>
</a>
</g>
</g>
<!-- Node14&#45;&gt;Node17 -->
<g id="edge15" class="edge">
<title>Node14&#45;&gt;Node17</title>
<path fill="none" stroke="#9a32cd" stroke-dasharray="5,2" d="M217.2687,-244.2273C227.9418,-240.8835 239.822,-237.7321 251,-236 305.2168,-227.5986 368.6938,-228.8059 409.3482,-230.9613"/>
<polygon fill="#9a32cd" stroke="#9a32cd" points="215.873,-241.0019 207.4679,-247.4522 218.0609,-247.6512 215.873,-241.0019"/>
<text text-anchor="middle" x="305.5" y="-250" font-family="Helvetica,sans-Serif" font-size="10.00" fill="#000000"> os</text>
<text text-anchor="middle" x="305.5" y="-239" font-family="Helvetica,sans-Serif" font-size="10.00" fill="#000000">ostree_server</text>
</g>
<!-- Node19 -->
<g id="node17" class="node">
<title>Node19</title>
<g id="a_node17"><a xlink:href="struct_p11_config.html" target="_top" xlink:title="P11Config">
<polygon fill="#ffffff" stroke="#000000" points="420,-148.5 420,-167.5 482,-167.5 482,-148.5 420,-148.5"/>
<text text-anchor="middle" x="451" y="-155.5" font-family="Helvetica,sans-Serif" font-size="10.00" fill="#000000">P11Config</text>
</a>
</g>
</g>
<!-- Node14&#45;&gt;Node19 -->
<g id="edge18" class="edge">
<title>Node14&#45;&gt;Node19</title>
<path fill="none" stroke="#9a32cd" stroke-dasharray="5,2" d="M191.154,-238.3759C201.9274,-217.5933 222.4531,-184.9298 251,-170 304.9415,-141.7891 378.5949,-146.5402 419.8035,-152.371"/>
<polygon fill="#9a32cd" stroke="#9a32cd" points="187.9411,-236.9776 186.6562,-247.4942 194.2189,-240.0743 187.9411,-236.9776"/>
<text text-anchor="middle" x="305.5" y="-217" font-family="Helvetica,sans-Serif" font-size="10.00" fill="#000000"> tls_pkey_id</text>
<text text-anchor="middle" x="305.5" y="-206" font-family="Helvetica,sans-Serif" font-size="10.00" fill="#000000">tls_clientcert_id</text>
<text text-anchor="middle" x="305.5" y="-195" font-family="Helvetica,sans-Serif" font-size="10.00" fill="#000000">pass</text>
<text text-anchor="middle" x="305.5" y="-184" font-family="Helvetica,sans-Serif" font-size="10.00" fill="#000000">uptane_key_id</text>
<text text-anchor="middle" x="305.5" y="-173" font-family="Helvetica,sans-Serif" font-size="10.00" fill="#000000">tls_cacert_id</text>
</g>
<!-- Node15 -->
<g id="node13" class="node">
<title>Node15</title>
<g id="a_node13"><a xlink:title="STL class. ">
<polygon fill="#ffffff" stroke="#bfbfbf" points="0,-242 0,-272 95,-272 95,-242 0,-242"/>
<text text-anchor="start" x="8" y="-260" font-family="Helvetica,sans-Serif" font-size="10.00" fill="#000000">std::basic_string&lt;</text>
<text text-anchor="middle" x="47.5" y="-249" font-family="Helvetica,sans-Serif" font-size="10.00" fill="#000000"> char &gt;</text>
</a>
</g>
</g>
<!-- Node15&#45;&gt;Node14 -->
<g id="edge12" class="edge">
<title>Node15&#45;&gt;Node14</title>
<path fill="none" stroke="#191970" d="M105.5104,-257C121.5786,-257 138.3787,-257 152.1705,-257"/>
<polygon fill="#191970" stroke="#191970" points="105.096,-253.5001 95.0959,-257 105.0959,-260.5001 105.096,-253.5001"/>
</g>
<!-- Node16 -->
<g id="node14" class="node">
<title>Node16</title>
<g id="a_node14"><a xlink:href="struct_logger_config.html" target="_top" xlink:title="LoggerConfig">
<polygon fill="#ffffff" stroke="#000000" points="414,-186.5 414,-205.5 488,-205.5 488,-186.5 414,-186.5"/>
<text text-anchor="middle" x="451" y="-193.5" font-family="Helvetica,sans-Serif" font-size="10.00" fill="#000000">LoggerConfig</text>
</a>
</g>
</g>
<!-- Node16&#45;&gt;Node8 -->
<g id="edge13" class="edge">
<title>Node16&#45;&gt;Node8</title>
<path fill="none" stroke="#9a32cd" stroke-dasharray="5,2" d="M498.2323,-192.7451C544.2812,-191.9024 614.4262,-197.0371 664,-230 676.6322,-238.3995 669.8852,-249.8701 682,-259 687.1175,-262.8567 692.9878,-265.9308 699.0798,-268.3811"/>
<polygon fill="#9a32cd" stroke="#9a32cd" points="498.1136,-189.2469 488.217,-193.0294 498.3123,-196.2441 498.1136,-189.2469"/>
<text text-anchor="middle" x="603" y="-233" font-family="Helvetica,sans-Serif" font-size="10.00" fill="#000000"> logger</text>
</g>
<!-- Node17&#45;&gt;Node8 -->
<g id="edge14" class="edge">
<title>Node17&#45;&gt;Node8</title>
<path fill="none" stroke="#9a32cd" stroke-dasharray="5,2" d="M502.688,-240.459C545.874,-245.9942 609.0406,-254.4127 664,-263 674.6598,-264.6656 686.0471,-266.5808 696.9095,-268.4735"/>
<polygon fill="#9a32cd" stroke="#9a32cd" points="503.0638,-236.9786 492.7012,-239.1847 502.1778,-243.9223 503.0638,-236.9786"/>
<text text-anchor="middle" x="603" y="-266" font-family="Helvetica,sans-Serif" font-size="10.00" fill="#000000"> pacman</text>
</g>
<!-- Node18 -->
<g id="node16" class="node">
<title>Node18</title>
<g id="a_node16"><a xlink:href="struct_aktualizr_secondary_net_config.html" target="_top" xlink:title="AktualizrSecondaryNetConfig">
<polygon fill="#ffffff" stroke="#000000" points="378,-312.5 378,-331.5 524,-331.5 524,-312.5 378,-312.5"/>
<text text-anchor="middle" x="451" y="-319.5" font-family="Helvetica,sans-Serif" font-size="10.00" fill="#000000">AktualizrSecondaryNetConfig</text>
</a>
</g>
</g>
<!-- Node18&#45;&gt;Node8 -->
<g id="edge16" class="edge">
<title>Node18&#45;&gt;Node8</title>
<path fill="none" stroke="#9a32cd" stroke-dasharray="5,2" d="M534.148,-311.4511C573.5578,-306.2539 621.2605,-299.678 664,-293 674.6598,-291.3344 686.0471,-289.4192 696.9095,-287.5265"/>
<polygon fill="#9a32cd" stroke="#9a32cd" points="533.5129,-308.0043 524.0535,-312.7761 534.424,-314.9448 533.5129,-308.0043"/>
<text text-anchor="middle" x="603" y="-313" font-family="Helvetica,sans-Serif" font-size="10.00" fill="#000000"> network</text>
</g>
<!-- Node19&#45;&gt;Node8 -->
<g id="edge17" class="edge">
<title>Node19&#45;&gt;Node8</title>
<path fill="none" stroke="#9a32cd" stroke-dasharray="5,2" d="M492.0987,-149.4139C539.549,-142.083 617.0713,-138.4362 664,-180 690.9578,-203.876 657.2109,-232.8793 682,-259 685.6621,-262.8588 690.0445,-265.9524 694.7916,-268.4299"/>
<polygon fill="#9a32cd" stroke="#9a32cd" points="491.4514,-145.9735 482.1633,-151.0708 492.6028,-152.8781 491.4514,-145.9735"/>
<text text-anchor="middle" x="603" y="-183" font-family="Helvetica,sans-Serif" font-size="10.00" fill="#000000"> p11</text>
</g>
<!-- Node20 -->
<g id="node18" class="node">
<title>Node20</title>
<g id="a_node18"><a xlink:href="class_uptane_1_1_hardware_identifier.html" target="_top" xlink:title="Uptane::HardwareIdentifier">
<polygon fill="#ffffff" stroke="#000000" points="682,-230.5 682,-249.5 816,-249.5 816,-230.5 682,-230.5"/>
<text text-anchor="middle" x="749" y="-237.5" font-family="Helvetica,sans-Serif" font-size="10.00" fill="#000000">Uptane::HardwareIdentifier</text>
</a>
</g>
</g>
<!-- Node20&#45;&gt;Node5 -->
<g id="edge19" class="edge">
<title>Node20&#45;&gt;Node5</title>
<path fill="none" stroke="#9a32cd" stroke-dasharray="5,2" d="M792.4722,-252.3145C800.3051,-254.5371 808.3959,-256.8355 816,-259 853.3438,-269.6298 864.1176,-268.1673 900,-283 927.1048,-294.2043 956.5077,-311.6426 973.6759,-322.4134"/>
<polygon fill="#9a32cd" stroke="#9a32cd" points="793.3202,-248.917 782.7446,-249.5554 791.4101,-255.6513 793.3202,-248.917"/>
<text text-anchor="middle" x="867" y="-286" font-family="Helvetica,sans-Serif" font-size="10.00" fill="#000000"> hardware_id_</text>
</g>
<!-- Node21 -->
<g id="node19" class="node">
<title>Node21</title>
<g id="a_node19"><a xlink:href="class_uptane_1_1_targets.html" target="_top" xlink:title="Uptane::Targets">
<polygon fill="#ffffff" stroke="#000000" points="705.5,-418.5 705.5,-437.5 792.5,-437.5 792.5,-418.5 705.5,-418.5"/>
<text text-anchor="middle" x="749" y="-425.5" font-family="Helvetica,sans-Serif" font-size="10.00" fill="#000000">Uptane::Targets</text>
</a>
</g>
</g>
<!-- Node21&#45;&gt;Node5 -->
<g id="edge20" class="edge">
<title>Node21&#45;&gt;Node5</title>
<path fill="none" stroke="#9a32cd" stroke-dasharray="5,2" d="M802.5194,-430.15C834.1869,-428.6483 873.2143,-421.6018 900,-399 917.4132,-384.3067 901.1385,-366.3232 918,-351 922.2215,-347.1636 927.1373,-344.0889 932.3729,-341.6265"/>
<polygon fill="#9a32cd" stroke="#9a32cd" points="802.4096,-426.6516 792.5212,-430.4554 802.6234,-433.6483 802.4096,-426.6516"/>
<text text-anchor="middle" x="867" y="-429" font-family="Helvetica,sans-Serif" font-size="10.00" fill="#000000"> meta_targets_</text>
</g>
<!-- Node22 -->
<g id="node20" class="node">
<title>Node22</title>
<g id="a_node20"><a xlink:href="class_uptane_1_1_base_meta.html" target="_top" xlink:title="Uptane::BaseMeta">
<polygon fill="#ffffff" stroke="#000000" points="402,-389.5 402,-408.5 500,-408.5 500,-389.5 402,-389.5"/>
<text text-anchor="middle" x="451" y="-396.5" font-family="Helvetica,sans-Serif" font-size="10.00" fill="#000000">Uptane::BaseMeta</text>
</a>
</g>
</g>
<!-- Node22&#45;&gt;Node21 -->
<g id="edge21" class="edge">
<title>Node22&#45;&gt;Node21</title>
<path fill="none" stroke="#191970" d="M510.2337,-404.7644C567.6687,-410.3537 653.4737,-418.7038 705.0641,-423.7244"/>
<polygon fill="#191970" stroke="#191970" points="510.5007,-401.2739 500.2086,-403.7888 509.8226,-408.241 510.5007,-401.2739"/>
</g>
<!-- Node27 -->
<g id="node25" class="node">
<title>Node27</title>
<g id="a_node25"><a xlink:href="class_uptane_1_1_root.html" target="_top" xlink:title="Uptane::Root">
<polygon fill="#ffffff" stroke="#000000" points="711.5,-380.5 711.5,-399.5 786.5,-399.5 786.5,-380.5 711.5,-380.5"/>
<text text-anchor="middle" x="749" y="-387.5" font-family="Helvetica,sans-Serif" font-size="10.00" fill="#000000">Uptane::Root</text>
</a>
</g>
</g>
<!-- Node22&#45;&gt;Node27 -->
<g id="edge29" class="edge">
<title>Node22&#45;&gt;Node27</title>
<path fill="none" stroke="#191970" d="M510.2534,-397.2105C569.9827,-395.4066 660.3792,-392.6765 711.0785,-391.1453"/>
<polygon fill="#191970" stroke="#191970" points="510.0984,-393.7135 500.2086,-397.5138 510.3098,-400.7103 510.0984,-393.7135"/>
</g>
<!-- Node23 -->
<g id="node21" class="node">
<title>Node23</title>
<g id="a_node21"><a xlink:href="class_time_stamp.html" target="_top" xlink:title="TimeStamp">
<polygon fill="#ffffff" stroke="#000000" points="149,-389.5 149,-408.5 216,-408.5 216,-389.5 149,-389.5"/>
<text text-anchor="middle" x="182.5" y="-396.5" font-family="Helvetica,sans-Serif" font-size="10.00" fill="#000000">TimeStamp</text>
</a>
</g>
</g>
<!-- Node23&#45;&gt;Node22 -->
<g id="edge22" class="edge">
<title>Node23&#45;&gt;Node22</title>
<path fill="none" stroke="#9a32cd" stroke-dasharray="5,2" d="M226.3352,-399C274.4482,-399 351.5075,-399 401.6919,-399"/>
<polygon fill="#9a32cd" stroke="#9a32cd" points="226.2339,-395.5001 216.2338,-399 226.2338,-402.5001 226.2339,-395.5001"/>
<text text-anchor="middle" x="305.5" y="-402" font-family="Helvetica,sans-Serif" font-size="10.00" fill="#000000"> expiry_</text>
</g>
<!-- Node24&#45;&gt;Node21 -->
<g id="edge23" class="edge">
<title>Node24&#45;&gt;Node21</title>
<path fill="none" stroke="#9a32cd" stroke-dasharray="5,2" d="M513.2879,-440.6557C570.6744,-437.5745 654.381,-433.0802 705.0647,-430.3589"/>
<polygon fill="#9a32cd" stroke="#9a32cd" points="513.0466,-437.1635 503.2486,-441.1947 513.4219,-444.1534 513.0466,-437.1635"/>
<text text-anchor="middle" x="603" y="-441" font-family="Helvetica,sans-Serif" font-size="10.00" fill="#000000"> targets</text>
</g>
<!-- Node25 -->
<g id="node23" class="node">
<title>Node25</title>
<g id="a_node23"><a xlink:href="class_key_manager.html" target="_top" xlink:title="KeyManager">
<polygon fill="#ffffff" stroke="#000000" points="713.5,-192.5 713.5,-211.5 784.5,-211.5 784.5,-192.5 713.5,-192.5"/>
<text text-anchor="middle" x="749" y="-199.5" font-family="Helvetica,sans-Serif" font-size="10.00" fill="#000000">KeyManager</text>
</a>
</g>
</g>
<!-- Node25&#45;&gt;Node5 -->
<g id="edge25" class="edge">
<title>Node25&#45;&gt;Node5</title>
<path fill="none" stroke="#9a32cd" stroke-dasharray="5,2" d="M794.6827,-210.331C825.9029,-217.3945 867.3698,-229.5492 900,-249 934.378,-269.4926 966.4757,-305.2864 980.7411,-322.3805"/>
<polygon fill="#9a32cd" stroke="#9a32cd" points="795.0298,-206.8251 784.5153,-208.1276 793.5471,-213.6662 795.0298,-206.8251"/>
<text text-anchor="middle" x="867" y="-252" font-family="Helvetica,sans-Serif" font-size="10.00" fill="#000000"> keys_</text>
</g>
<!-- Node26 -->
<g id="node24" class="node">
<title>Node26</title>
<g id="a_node24"><a xlink:href="class_uptane_1_1_ecu_serial.html" target="_top" xlink:title="Uptane::EcuSerial">
<polygon fill="#ffffff" stroke="#000000" points="701,-154.5 701,-173.5 797,-173.5 797,-154.5 701,-154.5"/>
<text text-anchor="middle" x="749" y="-161.5" font-family="Helvetica,sans-Serif" font-size="10.00" fill="#000000">Uptane::EcuSerial</text>
</a>
</g>
</g>
<!-- Node26&#45;&gt;Node5 -->
<g id="edge26" class="edge">
<title>Node26&#45;&gt;Node5</title>
<path fill="none" stroke="#9a32cd" stroke-dasharray="5,2" d="M807.0499,-170.6465C836.9471,-176.305 872.742,-186.7501 900,-206 944.5446,-237.4578 974.2946,-298.791 984.5427,-322.4096"/>
<polygon fill="#9a32cd" stroke="#9a32cd" points="807.6131,-167.1919 797.1578,-168.9052 806.3995,-174.0859 807.6131,-167.1919"/>
<text text-anchor="middle" x="867" y="-209" font-family="Helvetica,sans-Serif" font-size="10.00" fill="#000000"> ecu_serial_</text>
</g>
<!-- Node27&#45;&gt;Node5 -->
<g id="edge28" class="edge">
<title>Node27&#45;&gt;Node5</title>
<path fill="none" stroke="#9a32cd" stroke-dasharray="5,2" d="M796.6042,-388.9002C827.3027,-386.6576 867.4272,-380.7883 900,-366 909.4822,-361.695 908.7583,-355.7995 918,-351 925.3123,-347.2025 933.4563,-344.1085 941.5383,-341.6056"/>
<polygon fill="#9a32cd" stroke="#9a32cd" points="796.3404,-385.4098 786.5793,-389.5294 796.7789,-392.3961 796.3404,-385.4098"/>
<text text-anchor="middle" x="867" y="-387" font-family="Helvetica,sans-Serif" font-size="10.00" fill="#000000"> root_</text>
</g>
</g>
</svg>
