<?xml version="1.0" encoding="UTF-8" standalone="no"?>
<!DOCTYPE svg PUBLIC "-//W3C//DTD SVG 1.1//EN"
 "http://www.w3.org/Graphics/SVG/1.1/DTD/svg11.dtd">
<!-- Generated by graphviz version 2.40.1 (20161225.0304)
 -->
<!-- Title: SQLStorage Pages: 1 -->
<svg width="157pt" height="296pt"
 viewBox="0.00 0.00 156.50 296.00" xmlns="http://www.w3.org/2000/svg" xmlns:xlink="http://www.w3.org/1999/xlink">
<g id="graph0" class="graph" transform="scale(1 1) rotate(0) translate(4 292)">
<title>SQLStorage</title>
<polygon fill="#ffffff" stroke="transparent" points="-4,4 -4,-292 152.5,-292 152.5,4 -4,4"/>
<!-- Node3 -->
<g id="node1" class="node">
<title>Node3</title>
<polygon fill="#bfbfbf" stroke="#000000" points="4.5,-.5 4.5,-19.5 74.5,-19.5 74.5,-.5 4.5,-.5"/>
<text text-anchor="middle" x="39.5" y="-7.5" font-family="Helvetica,sans-Serif" font-size="10.00" fill="#000000">SQLStorage</text>
</g>
<!-- Node4 -->
<g id="node2" class="node">
<title>Node4</title>
<g id="a_node2"><a xlink:href="class_i_nv_storage.html" target="_top" xlink:title="INvStorage">
<polygon fill="#ffffff" stroke="#000000" points="6.5,-57.5 6.5,-76.5 72.5,-76.5 72.5,-57.5 6.5,-57.5"/>
<text text-anchor="middle" x="39.5" y="-64.5" font-family="Helvetica,sans-Serif" font-size="10.00" fill="#000000">INvStorage</text>
</a>
</g>
</g>
<!-- Node4&#45;&gt;Node3 -->
<g id="edge1" class="edge">
<title>Node4&#45;&gt;Node3</title>
<path fill="none" stroke="#191970" d="M39.5,-47.2342C39.5,-37.8491 39.5,-27.0651 39.5,-19.5265"/>
<polygon fill="#191970" stroke="#191970" points="36.0001,-47.3307 39.5,-57.3307 43.0001,-47.3308 36.0001,-47.3307"/>
</g>
<!-- Node5 -->
<g id="node3" class="node">
<title>Node5</title>
<g id="a_node3"><a xlink:href="struct_storage_config.html" target="_top" xlink:title="StorageConfig">
<polygon fill="#ffffff" stroke="#000000" points="0,-124.5 0,-143.5 79,-143.5 79,-124.5 0,-124.5"/>
<text text-anchor="middle" x="39.5" y="-131.5" font-family="Helvetica,sans-Serif" font-size="10.00" fill="#000000">StorageConfig</text>
</a>
</g>
</g>
<!-- Node5&#45;&gt;Node4 -->
<g id="edge2" class="edge">
<title>Node5&#45;&gt;Node4</title>
<path fill="none" stroke="#9a32cd" stroke-dasharray="5,2" d="M39.5,-114.1079C39.5,-101.714 39.5,-86.3263 39.5,-76.5817"/>
<polygon fill="#9a32cd" stroke="#9a32cd" points="36.0001,-114.4005 39.5,-124.4005 43.0001,-114.4006 36.0001,-114.4005"/>
<text text-anchor="middle" x="57" y="-98" font-family="Helvetica,sans-Serif" font-size="10.00" fill="#000000"> config_</text>
</g>
<!-- Node6 -->
<g id="node4" class="node">
<title>Node6</title>
<g id="a_node4"><a xlink:href="class_based_path.html" target="_top" xlink:title="BasedPath">
<polygon fill="#ffffff" stroke="#000000" points="7,-268.5 7,-287.5 72,-287.5 72,-268.5 7,-268.5"/>
<text text-anchor="middle" x="39.5" y="-275.5" font-family="Helvetica,sans-Serif" font-size="10.00" fill="#000000">BasedPath</text>
</a>
</g>
</g>
<!-- Node6&#45;&gt;Node5 -->
<g id="edge3" class="edge">
<title>Node6&#45;&gt;Node5</title>
<path fill="none" stroke="#9a32cd" stroke-dasharray="5,2" d="M39.5,-257.9129C39.5,-226.4665 39.5,-166.8094 39.5,-143.5877"/>
<polygon fill="#9a32cd" stroke="#9a32cd" points="36.0001,-258.1023 39.5,-268.1023 43.0001,-258.1023 36.0001,-258.1023"/>
<text text-anchor="middle" x="94" y="-242" font-family="Helvetica,sans-Serif" font-size="10.00" fill="#000000"> uptane_public_key_path</text>
<text text-anchor="middle" x="94" y="-231" font-family="Helvetica,sans-Serif" font-size="10.00" fill="#000000">tls_pkey_path</text>
<text text-anchor="middle" x="94" y="-220" font-family="Helvetica,sans-Serif" font-size="10.00" fill="#000000">uptane_metadata_path</text>
<text text-anchor="middle" x="94" y="-209" font-family="Helvetica,sans-Serif" font-size="10.00" fill="#000000">sqldb_path</text>
<text text-anchor="start" x="39.5" y="-198" font-family="Helvetica,sans-Serif" font-size="10.00" fill="#000000">uptane_private_key</text>
<text text-anchor="middle" x="94" y="-187" font-family="Helvetica,sans-Serif" font-size="10.00" fill="#000000">_path</text>
<text text-anchor="middle" x="94" y="-176" font-family="Helvetica,sans-Serif" font-size="10.00" fill="#000000">tls_cacert_path</text>
<text text-anchor="middle" x="94" y="-165" font-family="Helvetica,sans-Serif" font-size="10.00" fill="#000000">tls_clientcert_path</text>
</g>
</g>
</svg>
