<?xml version="1.0" encoding="UTF-8" standalone="no"?>
<!DOCTYPE svg PUBLIC "-//W3C//DTD SVG 1.1//EN"
 "http://www.w3.org/Graphics/SVG/1.1/DTD/svg11.dtd">
<!-- Generated by graphviz version 2.40.1 (20161225.0304)
 -->
<!-- Title: src/libaktualizr/primary/events.h Pages: 1 -->
<!--zoomable 240 -->
<svg id="main" version="1.1" xmlns="http://www.w3.org/2000/svg" xmlns:xlink="http://www.w3.org/1999/xlink" xml:space="preserve" onload="init(evt)">
<style type="text/css"><![CDATA[
.edge:hover path { stroke: red; }
.edge:hover polygon { stroke: red; fill: red; }
]]></style>
<script type="text/javascript"><![CDATA[
var edges = document.getElementsByTagName('g');
if (edges && edges.length) {
  for (var i=0;i<edges.length;i++) {
    if (edges[i].id.substr(0,4)=='edge') {
      edges[i].setAttribute('class','edge');
    }
  }
}
]]></script>
        <defs>
                <circle id="rim" cx="0" cy="0" r="7"/>
                <circle id="rim2" cx="0" cy="0" r="3.5"/>
                <g id="zoomPlus">
                        <use xlink:href="#rim" fill="#404040">
                                <set attributeName="fill" to="#808080" begin="zoomplus.mouseover" end="zoomplus.mouseout"/>
                        </use>
                        <path d="M-4,0h8M0,-4v8" fill="none" stroke="white" stroke-width="1.5" pointer-events="none"/>
                </g>
                <g id="zoomMin">
                        <use xlink:href="#rim" fill="#404040">
                                <set attributeName="fill" to="#808080" begin="zoomminus.mouseover" end="zoomminus.mouseout"/>
                        </use>
                        <path d="M-4,0h8" fill="none" stroke="white" stroke-width="1.5" pointer-events="none"/>
                </g>
                <g id="dirArrow">
                        <path fill="none" stroke="white" stroke-width="1.5" d="M0,-3.0v7 M-2.5,-0.5L0,-3.0L2.5,-0.5"/>
                </g>
               <g id="resetDef">
                       <use xlink:href="#rim2" fill="#404040">
                               <set attributeName="fill" to="#808080" begin="reset.mouseover" end="reset.mouseout"/>
                       </use>
               </g>
        </defs>

<script type="text/javascript">
var viewWidth = 1931;
var viewHeight = 240;
var sectionId = 'dynsection-1';
</script>
<script xlink:href="svgpan.js"/>
<svg id="graph" class="graph">
<g id="viewport">
<title>src/libaktualizr/primary/events.h</title>
<polygon fill="#ffffff" stroke="transparent" points="-4,4 -4,-236 1926.5769,-236 1926.5769,4 -4,4"/>
<!-- Node65 -->
<g id="node1" class="node">
<title>Node65</title>
<polygon fill="#bfbfbf" stroke="#000000" points="1629,-201.5 1629,-231.5 1744,-231.5 1744,-201.5 1629,-201.5"/>
<text text-anchor="start" x="1637" y="-219.5" font-family="Helvetica,sans-Serif" font-size="10.00" fill="#000000">src/libaktualizr/primary</text>
<text text-anchor="middle" x="1686.5" y="-208.5" font-family="Helvetica,sans-Serif" font-size="10.00" fill="#000000">/events.h</text>
</g>
<!-- Node66 -->
<g id="node2" class="node">
<title>Node66</title>
<g id="a_node2"><a xlink:href="aktualizr_8h_source.html" target="_top" xlink:title="src/libaktualizr/primary\l/aktualizr.h">
<polygon fill="#ffffff" stroke="#000000" points="129,-67.5 129,-97.5 244,-97.5 244,-67.5 129,-67.5"/>
<text text-anchor="start" x="137" y="-85.5" font-family="Helvetica,sans-Serif" font-size="10.00" fill="#000000">src/libaktualizr/primary</text>
<text text-anchor="middle" x="186.5" y="-74.5" font-family="Helvetica,sans-Serif" font-size="10.00" fill="#000000">/aktualizr.h</text>
</a>
</g>
</g>
<!-- Node65&#45;&gt;Node66 -->
<g id="edge1" class="edge">
<title>Node65&#45;&gt;Node66</title>
<path fill="none" stroke="#191970" d="M1618.6507,-214.6383C1412.2005,-208.1737 773.9021,-182.272 252.5,-98 249.8276,-97.5681 247.1026,-97.0886 244.3561,-96.5737"/>
<polygon fill="#191970" stroke="#191970" points="1618.6315,-218.1392 1628.7346,-214.9492 1618.8473,-211.1426 1618.6315,-218.1392"/>
</g>
<!-- Node70 -->
<g id="node6" class="node">
<title>Node70</title>
<g id="a_node6"><a xlink:href="aktualizr__test_8cc_source.html" target="_top" xlink:title="src/libaktualizr/primary\l/aktualizr_test.cc">
<polygon fill="#ffffff" stroke="#000000" points="1006,-.5 1006,-30.5 1121,-30.5 1121,-.5 1006,-.5"/>
<text text-anchor="start" x="1014" y="-18.5" font-family="Helvetica,sans-Serif" font-size="10.00" fill="#000000">src/libaktualizr/primary</text>
<text text-anchor="middle" x="1063.5" y="-7.5" font-family="Helvetica,sans-Serif" font-size="10.00" fill="#000000">/aktualizr_test.cc</text>
</a>
</g>
</g>
<!-- Node65&#45;&gt;Node70 -->
<g id="edge21" class="edge">
<title>Node65&#45;&gt;Node70</title>
<path fill="none" stroke="#191970" d="M1754.0193,-199.3877C1838.2081,-175.0362 1964.6273,-126.6522 1908.5,-67 1881.5114,-38.3165 1307.1734,-21.5583 1121.1149,-16.8669"/>
<polygon fill="#191970" stroke="#191970" points="1752.8957,-196.0683 1744.2318,-202.1664 1754.8075,-202.8022 1752.8957,-196.0683"/>
</g>
<!-- Node71 -->
<g id="node7" class="node">
<title>Node71</title>
<g id="a_node7"><a xlink:href="sotauptaneclient_8h_source.html" target="_top" xlink:title="src/libaktualizr/primary\l/sotauptaneclient.h">
<polygon fill="#ffffff" stroke="#000000" points="1006,-134.5 1006,-164.5 1121,-164.5 1121,-134.5 1006,-134.5"/>
<text text-anchor="start" x="1014" y="-152.5" font-family="Helvetica,sans-Serif" font-size="10.00" fill="#000000">src/libaktualizr/primary</text>
<text text-anchor="middle" x="1063.5" y="-141.5" font-family="Helvetica,sans-Serif" font-size="10.00" fill="#000000">/sotauptaneclient.h</text>
</a>
</g>
</g>
<!-- Node65&#45;&gt;Node71 -->
<g id="edge6" class="edge">
<title>Node65&#45;&gt;Node71</title>
<path fill="none" stroke="#191970" d="M1618.6575,-209.2039C1495.3702,-195.9451 1236.6714,-168.1236 1121.2423,-155.7098"/>
<polygon fill="#191970" stroke="#191970" points="1618.4111,-212.6975 1628.728,-210.287 1619.1596,-205.7377 1618.4111,-212.6975"/>
</g>
<!-- Node82 -->
<g id="node18" class="node">
<title>Node82</title>
<g id="a_node18"><a xlink:href="check_8cc_source.html" target="_top" xlink:title="src/load_tests/check.cc">
<polygon fill="#ffffff" stroke="#000000" points="1626,-73 1626,-92 1747,-92 1747,-73 1626,-73"/>
<text text-anchor="middle" x="1686.5" y="-80" font-family="Helvetica,sans-Serif" font-size="10.00" fill="#000000">src/load_tests/check.cc</text>
</a>
</g>
</g>
<!-- Node65&#45;&gt;Node82 -->
<g id="edge22" class="edge">
<title>Node65&#45;&gt;Node82</title>
<path fill="none" stroke="#191970" d="M1686.5,-191.2559C1686.5,-161.2327 1686.5,-112.6073 1686.5,-92.1042"/>
<polygon fill="#191970" stroke="#191970" points="1683.0001,-191.3889 1686.5,-201.389 1690.0001,-191.389 1683.0001,-191.3889"/>
</g>
<!-- Node83 -->
<g id="node19" class="node">
<title>Node83</title>
<g id="a_node19"><a xlink:href="provision_8cc_source.html" target="_top" xlink:title="src/load_tests/provision.cc">
<polygon fill="#ffffff" stroke="#000000" points="1765.5,-73 1765.5,-92 1899.5,-92 1899.5,-73 1765.5,-73"/>
<text text-anchor="middle" x="1832.5" y="-80" font-family="Helvetica,sans-Serif" font-size="10.00" fill="#000000">src/load_tests/provision.cc</text>
</a>
</g>
</g>
<!-- Node65&#45;&gt;Node83 -->
<g id="edge23" class="edge">
<title>Node65&#45;&gt;Node83</title>
<path fill="none" stroke="#191970" d="M1710.6384,-194.3456C1742.9611,-164.6796 1798.9127,-113.3267 1822.0358,-92.1042"/>
<polygon fill="#191970" stroke="#191970" points="1707.965,-192.0485 1702.9643,-201.389 1712.6983,-197.2057 1707.965,-192.0485"/>
</g>
<!-- Node67 -->
<g id="node3" class="node">
<title>Node67</title>
<g id="a_node3"><a xlink:href="aktualizr__primary_2main_8cc_source.html" target="_top" xlink:title="src/aktualizr_primary\l/main.cc">
<polygon fill="#ffffff" stroke="#000000" points="133,-.5 133,-30.5 240,-30.5 240,-.5 133,-.5"/>
<text text-anchor="start" x="141" y="-18.5" font-family="Helvetica,sans-Serif" font-size="10.00" fill="#000000">src/aktualizr_primary</text>
<text text-anchor="middle" x="186.5" y="-7.5" font-family="Helvetica,sans-Serif" font-size="10.00" fill="#000000">/main.cc</text>
</a>
</g>
</g>
<!-- Node66&#45;&gt;Node67 -->
<g id="edge2" class="edge">
<title>Node66&#45;&gt;Node67</title>
<path fill="none" stroke="#191970" d="M186.5,-57.0249C186.5,-48.128 186.5,-38.4287 186.5,-30.6432"/>
<polygon fill="#191970" stroke="#191970" points="183.0001,-57.2966 186.5,-67.2967 190.0001,-57.2967 183.0001,-57.2966"/>
</g>
<!-- Node68 -->
<g id="node4" class="node">
<title>Node68</title>
<g id="a_node4"><a xlink:href="hmi__stub_2main_8cc_source.html" target="_top" xlink:title="src/hmi_stub/main.cc">
<polygon fill="#ffffff" stroke="#000000" points="258.5,-6 258.5,-25 368.5,-25 368.5,-6 258.5,-6"/>
<text text-anchor="middle" x="313.5" y="-13" font-family="Helvetica,sans-Serif" font-size="10.00" fill="#000000">src/hmi_stub/main.cc</text>
</a>
</g>
</g>
<!-- Node66&#45;&gt;Node68 -->
<g id="edge3" class="edge">
<title>Node66&#45;&gt;Node68</title>
<path fill="none" stroke="#191970" d="M224.0205,-62.7057C247.5272,-50.3045 276.7734,-34.8754 295.2956,-25.1039"/>
<polygon fill="#191970" stroke="#191970" points="222.2128,-59.7021 215.0013,-67.4639 225.4791,-65.8934 222.2128,-59.7021"/>
</g>
<!-- Node69 -->
<g id="node5" class="node">
<title>Node69</title>
<g id="a_node5"><a xlink:href="aktualizr_8cc_source.html" target="_top" xlink:title="src/libaktualizr/primary\l/aktualizr.cc">
<polygon fill="#ffffff" stroke="#000000" points="0,-.5 0,-30.5 115,-30.5 115,-.5 0,-.5"/>
<text text-anchor="start" x="8" y="-18.5" font-family="Helvetica,sans-Serif" font-size="10.00" fill="#000000">src/libaktualizr/primary</text>
<text text-anchor="middle" x="57.5" y="-7.5" font-family="Helvetica,sans-Serif" font-size="10.00" fill="#000000">/aktualizr.cc</text>
</a>
</g>
</g>
<!-- Node66&#45;&gt;Node69 -->
<g id="edge4" class="edge">
<title>Node66&#45;&gt;Node69</title>
<path fill="none" stroke="#191970" d="M148.5207,-62.7743C128.8033,-52.5335 105.0821,-40.2132 86.7998,-30.7177"/>
<polygon fill="#191970" stroke="#191970" points="147.0622,-65.9607 157.5499,-67.4639 150.2887,-59.7486 147.0622,-65.9607"/>
</g>
<!-- Node66&#45;&gt;Node70 -->
<g id="edge5" class="edge">
<title>Node66&#45;&gt;Node70</title>
<path fill="none" stroke="#191970" d="M254.6637,-66.8642C417.3616,-44.5316 849.4975,-24.6199 1005.9897,-17.8983"/>
<polygon fill="#191970" stroke="#191970" points="253.747,-63.4595 244.3425,-68.3385 254.737,-70.3891 253.747,-63.4595"/>
</g>
<!-- Node71&#45;&gt;Node66 -->
<g id="edge9" class="edge">
<title>Node71&#45;&gt;Node66</title>
<path fill="none" stroke="#191970" d="M995.7922,-146.6618C827.8214,-139.3853 395.2636,-119.1449 252.5,-98 249.8221,-97.6034 247.0926,-97.1529 244.3425,-96.6615"/>
<polygon fill="#191970" stroke="#191970" points="995.8481,-150.1673 1005.9897,-147.1017 996.1498,-143.1738 995.8481,-150.1673"/>
</g>
<!-- Node71&#45;&gt;Node70 -->
<g id="edge10" class="edge">
<title>Node71&#45;&gt;Node70</title>
<path fill="none" stroke="#191970" d="M1063.5,-124.3415C1063.5,-96.8131 1063.5,-53.5714 1063.5,-30.7614"/>
<polygon fill="#191970" stroke="#191970" points="1060.0001,-124.3889 1063.5,-134.389 1067.0001,-124.389 1060.0001,-124.3889"/>
</g>
<!-- Node72 -->
<g id="node8" class="node">
<title>Node72</title>
<g id="a_node8"><a xlink:href="uptane__vector__tests_8cc_source.html" target="_top" xlink:title="tests/uptane_vector\l_tests.cc">
<polygon fill="#ffffff" stroke="#000000" points="262,-67.5 262,-97.5 365,-97.5 365,-67.5 262,-67.5"/>
<text text-anchor="start" x="270" y="-85.5" font-family="Helvetica,sans-Serif" font-size="10.00" fill="#000000">tests/uptane_vector</text>
<text text-anchor="middle" x="313.5" y="-74.5" font-family="Helvetica,sans-Serif" font-size="10.00" fill="#000000">_tests.cc</text>
</a>
</g>
</g>
<!-- Node71&#45;&gt;Node72 -->
<g id="edge7" class="edge">
<title>Node71&#45;&gt;Node72</title>
<path fill="none" stroke="#191970" d="M995.833,-148.3436C871.8373,-145.3613 600.1929,-134.8206 374.5,-98 371.4804,-97.5074 368.3916,-96.9371 365.2849,-96.312"/>
<polygon fill="#191970" stroke="#191970" points="995.8577,-151.845 1005.9361,-148.5776 996.0199,-144.8469 995.8577,-151.845"/>
</g>
<!-- Node73 -->
<g id="node9" class="node">
<title>Node73</title>
<g id="a_node9"><a xlink:href="aktualizr__secondary_2uptane__test_8cc_source.html" target="_top" xlink:title="src/aktualizr_secondary\l/uptane_test.cc">
<polygon fill="#ffffff" stroke="#000000" points="383.5,-67.5 383.5,-97.5 503.5,-97.5 503.5,-67.5 383.5,-67.5"/>
<text text-anchor="start" x="391.5" y="-85.5" font-family="Helvetica,sans-Serif" font-size="10.00" fill="#000000">src/aktualizr_secondary</text>
<text text-anchor="middle" x="443.5" y="-74.5" font-family="Helvetica,sans-Serif" font-size="10.00" fill="#000000">/uptane_test.cc</text>
</a>
</g>
</g>
<!-- Node71&#45;&gt;Node73 -->
<g id="edge8" class="edge">
<title>Node71&#45;&gt;Node73</title>
<path fill="none" stroke="#191970" d="M995.6049,-145.9536C891.2535,-139.8733 685.3806,-125.3821 512.5,-98 509.5896,-97.539 506.6185,-97.0283 503.6236,-96.4811"/>
<polygon fill="#191970" stroke="#191970" points="995.5024,-149.4534 1005.6868,-146.5332 995.9042,-142.4649 995.5024,-149.4534"/>
</g>
<!-- Node74 -->
<g id="node10" class="node">
<title>Node74</title>
<g id="a_node10"><a xlink:href="sotauptaneclient_8cc_source.html" target="_top" xlink:title="src/libaktualizr/primary\l/sotauptaneclient.cc">
<polygon fill="#ffffff" stroke="#000000" points="522,-67.5 522,-97.5 637,-97.5 637,-67.5 522,-67.5"/>
<text text-anchor="start" x="530" y="-85.5" font-family="Helvetica,sans-Serif" font-size="10.00" fill="#000000">src/libaktualizr/primary</text>
<text text-anchor="middle" x="579.5" y="-74.5" font-family="Helvetica,sans-Serif" font-size="10.00" fill="#000000">/sotauptaneclient.cc</text>
</a>
</g>
</g>
<!-- Node71&#45;&gt;Node74 -->
<g id="edge11" class="edge">
<title>Node71&#45;&gt;Node74</title>
<path fill="none" stroke="#191970" d="M995.8542,-143.3392C913.0971,-135.2981 768.8939,-119.6543 646.5,-98 643.4433,-97.4592 640.3164,-96.8684 637.165,-96.2432"/>
<polygon fill="#191970" stroke="#191970" points="995.593,-146.8301 1005.8826,-144.3055 996.2645,-139.8624 995.593,-146.8301"/>
</g>
<!-- Node75 -->
<g id="node11" class="node">
<title>Node75</title>
<g id="a_node11"><a xlink:href="uptane__ci__test_8cc_source.html" target="_top" xlink:title="src/libaktualizr/uptane\l/uptane_ci_test.cc">
<polygon fill="#ffffff" stroke="#000000" points="655.5,-67.5 655.5,-97.5 767.5,-97.5 767.5,-67.5 655.5,-67.5"/>
<text text-anchor="start" x="663.5" y="-85.5" font-family="Helvetica,sans-Serif" font-size="10.00" fill="#000000">src/libaktualizr/uptane</text>
<text text-anchor="middle" x="711.5" y="-74.5" font-family="Helvetica,sans-Serif" font-size="10.00" fill="#000000">/uptane_ci_test.cc</text>
</a>
</g>
</g>
<!-- Node71&#45;&gt;Node75 -->
<g id="edge12" class="edge">
<title>Node71&#45;&gt;Node75</title>
<path fill="none" stroke="#191970" d="M995.6792,-138.442C937.3913,-128.6729 851.1784,-113.5912 776.5,-98 773.6609,-97.4073 770.7565,-96.7825 767.8265,-96.1376"/>
<polygon fill="#191970" stroke="#191970" points="995.4279,-141.9484 1005.8678,-140.1431 996.5807,-135.044 995.4279,-141.9484"/>
</g>
<!-- Node76 -->
<g id="node12" class="node">
<title>Node76</title>
<g id="a_node12"><a xlink:href="uptane__implicit__test_8cc.html" target="_top" xlink:title="src/libaktualizr/uptane\l/uptane_implicit_test.cc">
<polygon fill="#ffffff" stroke="#000000" points="785.5,-67.5 785.5,-97.5 905.5,-97.5 905.5,-67.5 785.5,-67.5"/>
<text text-anchor="start" x="793.5" y="-85.5" font-family="Helvetica,sans-Serif" font-size="10.00" fill="#000000">src/libaktualizr/uptane</text>
<text text-anchor="middle" x="845.5" y="-74.5" font-family="Helvetica,sans-Serif" font-size="10.00" fill="#000000">/uptane_implicit_test.cc</text>
</a>
</g>
</g>
<!-- Node71&#45;&gt;Node76 -->
<g id="edge13" class="edge">
<title>Node71&#45;&gt;Node76</title>
<path fill="none" stroke="#191970" d="M1004.6475,-131.4123C970.2149,-120.8298 927.2451,-107.6235 894.6368,-97.6017"/>
<polygon fill="#191970" stroke="#191970" points="1003.9896,-134.8716 1014.5765,-134.4639 1006.046,-128.1805 1003.9896,-134.8716"/>
</g>
<!-- Node77 -->
<g id="node13" class="node">
<title>Node77</title>
<g id="a_node13"><a xlink:href="uptane__init__test_8cc_source.html" target="_top" xlink:title="src/libaktualizr/uptane\l/uptane_init_test.cc">
<polygon fill="#ffffff" stroke="#000000" points="923.5,-67.5 923.5,-97.5 1035.5,-97.5 1035.5,-67.5 923.5,-67.5"/>
<text text-anchor="start" x="931.5" y="-85.5" font-family="Helvetica,sans-Serif" font-size="10.00" fill="#000000">src/libaktualizr/uptane</text>
<text text-anchor="middle" x="979.5" y="-74.5" font-family="Helvetica,sans-Serif" font-size="10.00" fill="#000000">/uptane_init_test.cc</text>
</a>
</g>
</g>
<!-- Node71&#45;&gt;Node77 -->
<g id="edge14" class="edge">
<title>Node71&#45;&gt;Node77</title>
<path fill="none" stroke="#191970" d="M1036.27,-127.7808C1023.9301,-117.9383 1009.6409,-106.541 998.4855,-97.6432"/>
<polygon fill="#191970" stroke="#191970" points="1034.4388,-130.7973 1044.4391,-134.2967 1038.8038,-125.3248 1034.4388,-130.7973"/>
</g>
<!-- Node78 -->
<g id="node14" class="node">
<title>Node78</title>
<g id="a_node14"><a xlink:href="uptane__key__test_8cc_source.html" target="_top" xlink:title="src/libaktualizr/uptane\l/uptane_key_test.cc">
<polygon fill="#ffffff" stroke="#000000" points="1091.5,-67.5 1091.5,-97.5 1203.5,-97.5 1203.5,-67.5 1091.5,-67.5"/>
<text text-anchor="start" x="1099.5" y="-85.5" font-family="Helvetica,sans-Serif" font-size="10.00" fill="#000000">src/libaktualizr/uptane</text>
<text text-anchor="middle" x="1147.5" y="-74.5" font-family="Helvetica,sans-Serif" font-size="10.00" fill="#000000">/uptane_key_test.cc</text>
</a>
</g>
</g>
<!-- Node71&#45;&gt;Node78 -->
<g id="edge15" class="edge">
<title>Node71&#45;&gt;Node78</title>
<path fill="none" stroke="#191970" d="M1090.73,-127.7808C1103.0699,-117.9383 1117.3591,-106.541 1128.5145,-97.6432"/>
<polygon fill="#191970" stroke="#191970" points="1088.1962,-125.3248 1082.5609,-134.2967 1092.5612,-130.7973 1088.1962,-125.3248"/>
</g>
<!-- Node79 -->
<g id="node15" class="node">
<title>Node79</title>
<g id="a_node15"><a xlink:href="uptane__network__test_8cc.html" target="_top" xlink:title="Check that aktualizr can complete provisioning after encountering various network issues...">
<polygon fill="#ffffff" stroke="#000000" points="1221.5,-67.5 1221.5,-97.5 1345.5,-97.5 1345.5,-67.5 1221.5,-67.5"/>
<text text-anchor="start" x="1229.5" y="-85.5" font-family="Helvetica,sans-Serif" font-size="10.00" fill="#000000">src/libaktualizr/uptane</text>
<text text-anchor="middle" x="1283.5" y="-74.5" font-family="Helvetica,sans-Serif" font-size="10.00" fill="#000000">/uptane_network_test.cc</text>
</a>
</g>
</g>
<!-- Node71&#45;&gt;Node79 -->
<g id="edge16" class="edge">
<title>Node71&#45;&gt;Node79</title>
<path fill="none" stroke="#191970" d="M1122.4455,-131.5484C1157.2685,-120.9432 1200.8637,-107.6665 1233.9124,-97.6017"/>
<polygon fill="#191970" stroke="#191970" points="1121.4188,-128.2023 1112.8723,-134.4639 1123.4582,-134.8987 1121.4188,-128.2023"/>
</g>
<!-- Node80 -->
<g id="node16" class="node">
<title>Node80</title>
<g id="a_node16"><a xlink:href="uptane__serial__test_8cc_source.html" target="_top" xlink:title="src/libaktualizr/uptane\l/uptane_serial_test.cc">
<polygon fill="#ffffff" stroke="#000000" points="1364,-67.5 1364,-97.5 1477,-97.5 1477,-67.5 1364,-67.5"/>
<text text-anchor="start" x="1372" y="-85.5" font-family="Helvetica,sans-Serif" font-size="10.00" fill="#000000">src/libaktualizr/uptane</text>
<text text-anchor="middle" x="1420.5" y="-74.5" font-family="Helvetica,sans-Serif" font-size="10.00" fill="#000000">/uptane_serial_test.cc</text>
</a>
</g>
</g>
<!-- Node71&#45;&gt;Node80 -->
<g id="edge17" class="edge">
<title>Node71&#45;&gt;Node80</title>
<path fill="none" stroke="#191970" d="M1131.062,-138.6351C1190.1704,-128.8695 1278.2544,-113.6873 1354.5,-98 1357.4974,-97.3833 1360.5668,-96.732 1363.6626,-96.0594"/>
<polygon fill="#191970" stroke="#191970" points="1130.401,-135.1967 1121.1024,-140.2746 1131.5381,-142.1037 1130.401,-135.1967"/>
</g>
<!-- Node81 -->
<g id="node17" class="node">
<title>Node81</title>
<g id="a_node17"><a xlink:href="libaktualizr_2uptane_2uptane__test_8cc_source.html" target="_top" xlink:title="src/libaktualizr/uptane\l/uptane_test.cc">
<polygon fill="#ffffff" stroke="#000000" points="1495.5,-67.5 1495.5,-97.5 1607.5,-97.5 1607.5,-67.5 1495.5,-67.5"/>
<text text-anchor="start" x="1503.5" y="-85.5" font-family="Helvetica,sans-Serif" font-size="10.00" fill="#000000">src/libaktualizr/uptane</text>
<text text-anchor="middle" x="1551.5" y="-74.5" font-family="Helvetica,sans-Serif" font-size="10.00" fill="#000000">/uptane_test.cc</text>
</a>
</g>
</g>
<!-- Node71&#45;&gt;Node81 -->
<g id="edge18" class="edge">
<title>Node71&#45;&gt;Node81</title>
<path fill="none" stroke="#191970" d="M1131.2648,-143.5308C1214.9124,-135.6345 1361.3324,-120.0887 1485.5,-98 1488.7447,-97.4228 1492.0691,-96.7864 1495.4171,-96.1107"/>
<polygon fill="#191970" stroke="#191970" points="1130.7625,-140.0624 1121.132,-144.4789 1131.4146,-147.032 1130.7625,-140.0624"/>
</g>
<!-- Node71&#45;&gt;Node82 -->
<g id="edge19" class="edge">
<title>Node71&#45;&gt;Node82</title>
<path fill="none" stroke="#191970" d="M1131.2147,-145.9292C1235.7993,-139.7991 1442.7205,-125.2224 1616.5,-98 1626.5837,-96.4204 1637.3895,-94.2624 1647.4203,-92.0587"/>
<polygon fill="#191970" stroke="#191970" points="1130.8933,-142.4418 1121.1122,-146.5136 1131.2977,-149.4302 1130.8933,-142.4418"/>
</g>
<!-- Node71&#45;&gt;Node83 -->
<g id="edge20" class="edge">
<title>Node71&#45;&gt;Node83</title>
<path fill="none" stroke="#191970" d="M1131.2942,-147.2531C1255.56,-142.5139 1527.9683,-129.2442 1755.5,-98 1766.7128,-96.4603 1778.7489,-94.2896 1789.8958,-92.0591"/>
<polygon fill="#191970" stroke="#191970" points="1131.0312,-143.7604 1121.1695,-147.6328 1131.2936,-150.7555 1131.0312,-143.7604"/>
</g>
</g>
</svg>
        <g id="navigator" transform="translate(0 0)" fill="#404254">
                <rect fill="#f2f5e9" fill-opacity="0.5" stroke="#606060" stroke-width=".5" x="0" y="0" width="60" height="60"/>
                <use id="zoomplus" xlink:href="#zoomPlus" x="17" y="9" onmousedown="handleZoom(evt,'in')"/>
                <use id="zoomminus" xlink:href="#zoomMin" x="42" y="9" onmousedown="handleZoom(evt,'out')"/>
                <use id="reset" xlink:href="#resetDef" x="30" y="36" onmousedown="handleReset()"/>
                <g id="arrowUp" xlink:href="#dirArrow" transform="translate(30 24)" onmousedown="handlePan(0,-1)">
                  <use xlink:href="#rim" fill="#404040">
                        <set attributeName="fill" to="#808080" begin="arrowUp.mouseover" end="arrowUp.mouseout"/>
                  </use>
                  <path fill="none" stroke="white" stroke-width="1.5" d="M0,-3.0v7 M-2.5,-0.5L0,-3.0L2.5,-0.5"/>
                </g>
                <g id="arrowRight" xlink:href="#dirArrow" transform="rotate(90) translate(36 -43)" onmousedown="handlePan(1,0)">
                  <use xlink:href="#rim" fill="#404040">
                        <set attributeName="fill" to="#808080" begin="arrowRight.mouseover" end="arrowRight.mouseout"/>
                  </use>
                  <path fill="none" stroke="white" stroke-width="1.5" d="M0,-3.0v7 M-2.5,-0.5L0,-3.0L2.5,-0.5"/>
                </g>
                <g id="arrowDown" xlink:href="#dirArrow" transform="rotate(180) translate(-30 -48)" onmousedown="handlePan(0,1)">
                  <use xlink:href="#rim" fill="#404040">
                        <set attributeName="fill" to="#808080" begin="arrowDown.mouseover" end="arrowDown.mouseout"/>
                  </use>
                  <path fill="none" stroke="white" stroke-width="1.5" d="M0,-3.0v7 M-2.5,-0.5L0,-3.0L2.5,-0.5"/>
                </g>
                <g id="arrowLeft" xlink:href="#dirArrow" transform="rotate(270) translate(-36 17)" onmousedown="handlePan(-1,0)">
                  <use xlink:href="#rim" fill="#404040">
                        <set attributeName="fill" to="#808080" begin="arrowLeft.mouseover" end="arrowLeft.mouseout"/>
                  </use>
                  <path fill="none" stroke="white" stroke-width="1.5" d="M0,-3.0v7 M-2.5,-0.5L0,-3.0L2.5,-0.5"/>
                </g>
        </g>
        <svg viewBox="0 0 15 15" width="100%" height="30px" preserveAspectRatio="xMaxYMin meet">
         <g id="arrow_out" transform="scale(0.3 0.3)">
          <a xlink:href="events_8h__dep__incl_org.svg" target="_base">
           <rect id="button" ry="5" rx="5" y="6" x="6" height="38" width="38"
                fill="#f2f5e9" fill-opacity="0.5" stroke="#606060" stroke-width="1.0"/>
           <path id="arrow"
             d="M 11.500037,31.436501 C 11.940474,20.09759 22.043105,11.32322 32.158766,21.979434 L 37.068811,17.246167 C 37.068811,17.246167 37.088388,32 37.088388,32 L 22.160133,31.978069 C 22.160133,31.978069 26.997745,27.140456 26.997745,27.140456 C 18.528582,18.264221 13.291696,25.230495 11.500037,31.436501 z"
             style="fill:#404040;"/>
          </a>
         </g>
        </svg>
</svg>
