<?xml version="1.0" encoding="UTF-8" standalone="no"?>
<!DOCTYPE svg PUBLIC "-//W3C//DTD SVG 1.1//EN"
 "http://www.w3.org/Graphics/SVG/1.1/DTD/svg11.dtd">
<!-- Generated by graphviz version 2.40.1 (20161225.0304)
 -->
<!-- Title: Graphical Class Hierarchy Pages: 1 -->
<svg width="289pt" height="104pt"
 viewBox="0.00 0.00 289.00 104.00" xmlns="http://www.w3.org/2000/svg" xmlns:xlink="http://www.w3.org/1999/xlink">
<g id="graph0" class="graph" transform="scale(1 1) rotate(0) translate(4 100)">
<title>Graphical Class Hierarchy</title>
<polygon fill="#ffffff" stroke="transparent" points="-4,4 -4,-100 285,-100 285,4 -4,4"/>
<!-- Node0 -->
<g id="node1" class="node">
<title>Node0</title>
<g id="a_node1"><a xlink:href="class_package_manager_interface.html" target="_top" xlink:title="PackageManagerInterface">
<polygon fill="#ffffff" stroke="#000000" points="0,-38.5 0,-57.5 131,-57.5 131,-38.5 0,-38.5"/>
<text text-anchor="middle" x="65.5" y="-45.5" font-family="Helvetica,sans-Serif" font-size="10.00" fill="#000000">PackageManagerInterface</text>
</a>
</g>
</g>
<!-- Node1 -->
<g id="node2" class="node">
<title>Node1</title>
<g id="a_node2"><a xlink:href="class_debian_manager.html" target="_top" xlink:title="DebianManager">
<polygon fill="#ffffff" stroke="#000000" points="181.5,-76.5 181.5,-95.5 266.5,-95.5 266.5,-76.5 181.5,-76.5"/>
<text text-anchor="middle" x="224" y="-83.5" font-family="Helvetica,sans-Serif" font-size="10.00" fill="#000000">DebianManager</text>
</a>
</g>
</g>
<!-- Node0&#45;&gt;Node1 -->
<g id="edge1" class="edge">
<title>Node0&#45;&gt;Node1</title>
<path fill="none" stroke="#191970" d="M115.4191,-59.968C137.6304,-65.2931 163.4205,-71.4762 184.2914,-76.4799"/>
<polygon fill="#191970" stroke="#191970" points="116.0367,-56.5169 105.4962,-57.589 114.4047,-63.324 116.0367,-56.5169"/>
</g>
<!-- Node2 -->
<g id="node3" class="node">
<title>Node2</title>
<g id="a_node3"><a xlink:href="class_ostree_manager.html" target="_top" xlink:title="OstreeManager">
<polygon fill="#ffffff" stroke="#000000" points="182.5,-38.5 182.5,-57.5 265.5,-57.5 265.5,-38.5 182.5,-38.5"/>
<text text-anchor="middle" x="224" y="-45.5" font-family="Helvetica,sans-Serif" font-size="10.00" fill="#000000">OstreeManager</text>
</a>
</g>
</g>
<!-- Node0&#45;&gt;Node2 -->
<g id="edge2" class="edge">
<title>Node0&#45;&gt;Node2</title>
<path fill="none" stroke="#191970" d="M141.4823,-48C155.4767,-48 169.6072,-48 182.1243,-48"/>
<polygon fill="#191970" stroke="#191970" points="141.3413,-44.5001 131.3413,-48 141.3413,-51.5001 141.3413,-44.5001"/>
</g>
<!-- Node3 -->
<g id="node4" class="node">
<title>Node3</title>
<g id="a_node4"><a xlink:href="class_package_manager_fake.html" target="_top" xlink:title="PackageManagerFake">
<polygon fill="#ffffff" stroke="#000000" points="167,-.5 167,-19.5 281,-19.5 281,-.5 167,-.5"/>
<text text-anchor="middle" x="224" y="-7.5" font-family="Helvetica,sans-Serif" font-size="10.00" fill="#000000">PackageManagerFake</text>
</a>
</g>
</g>
<!-- Node0&#45;&gt;Node3 -->
<g id="edge3" class="edge">
<title>Node0&#45;&gt;Node3</title>
<path fill="none" stroke="#191970" d="M115.4191,-36.032C137.6304,-30.7069 163.4205,-24.5238 184.2914,-19.5201"/>
<polygon fill="#191970" stroke="#191970" points="114.4047,-32.676 105.4962,-38.411 116.0367,-39.4831 114.4047,-32.676"/>
</g>
</g>
</svg>
