<?xml version="1.0" encoding="UTF-8" standalone="no"?>
<!DOCTYPE svg PUBLIC "-//W3C//DTD SVG 1.1//EN"
 "http://www.w3.org/Graphics/SVG/1.1/DTD/svg11.dtd">
<!-- Generated by graphviz version 2.40.1 (20161225.0304)
 -->
<!-- Title: Graphical Class Hierarchy Pages: 1 -->
<svg width="340pt" height="294pt"
 viewBox="0.00 0.00 340.00 294.00" xmlns="http://www.w3.org/2000/svg" xmlns:xlink="http://www.w3.org/1999/xlink">
<g id="graph0" class="graph" transform="scale(1 1) rotate(0) translate(4 290)">
<title>Graphical Class Hierarchy</title>
<polygon fill="#ffffff" stroke="transparent" points="-4,4 -4,-290 336,-290 336,4 -4,4"/>
<!-- Node0 -->
<g id="node1" class="node">
<title>Node0</title>
<g id="a_node1"><a xlink:href="class_http_interface.html" target="_top" xlink:title="HttpInterface">
<polygon fill="#ffffff" stroke="#000000" points="0,-152.5 0,-171.5 74,-171.5 74,-152.5 0,-152.5"/>
<text text-anchor="middle" x="37" y="-159.5" font-family="Helvetica,sans-Serif" font-size="10.00" fill="#000000">HttpInterface</text>
</a>
</g>
</g>
<!-- Node1 -->
<g id="node2" class="node">
<title>Node1</title>
<g id="a_node2"><a xlink:href="class_http_client.html" target="_top" xlink:title="HttpClient">
<polygon fill="#ffffff" stroke="#000000" points="110,-171.5 110,-190.5 171,-190.5 171,-171.5 110,-171.5"/>
<text text-anchor="middle" x="140.5" y="-178.5" font-family="Helvetica,sans-Serif" font-size="10.00" fill="#000000">HttpClient</text>
</a>
</g>
</g>
<!-- Node0&#45;&gt;Node1 -->
<g id="edge1" class="edge">
<title>Node0&#45;&gt;Node1</title>
<path fill="none" stroke="#191970" d="M84.1595,-170.6573C92.8707,-172.2565 101.7567,-173.8877 109.8197,-175.3679"/>
<polygon fill="#191970" stroke="#191970" points="84.5412,-167.169 74.0735,-168.8058 83.2772,-174.0539 84.5412,-167.169"/>
</g>
<!-- Node2 -->
<g id="node3" class="node">
<title>Node2</title>
<g id="a_node3"><a xlink:href="class_http_fake.html" target="_top" xlink:title="HttpFake">
<polygon fill="#ffffff" stroke="#000000" points="112,-133.5 112,-152.5 169,-152.5 169,-133.5 112,-133.5"/>
<text text-anchor="middle" x="140.5" y="-140.5" font-family="Helvetica,sans-Serif" font-size="10.00" fill="#000000">HttpFake</text>
</a>
</g>
</g>
<!-- Node0&#45;&gt;Node2 -->
<g id="edge2" class="edge">
<title>Node0&#45;&gt;Node2</title>
<path fill="none" stroke="#191970" d="M84.1652,-153.3417C93.5945,-151.6107 103.2284,-149.8421 111.8016,-148.2683"/>
<polygon fill="#191970" stroke="#191970" points="83.2772,-149.9461 74.0735,-155.1942 84.5412,-156.831 83.2772,-149.9461"/>
</g>
<!-- Node3 -->
<g id="node4" class="node">
<title>Node3</title>
<g id="a_node4"><a xlink:href="class_http_fake_campaign.html" target="_top" xlink:title="HttpFakeCampaign">
<polygon fill="#ffffff" stroke="#000000" points="219,-266.5 219,-285.5 320,-285.5 320,-266.5 219,-266.5"/>
<text text-anchor="middle" x="269.5" y="-273.5" font-family="Helvetica,sans-Serif" font-size="10.00" fill="#000000">HttpFakeCampaign</text>
</a>
</g>
</g>
<!-- Node2&#45;&gt;Node3 -->
<g id="edge3" class="edge">
<title>Node2&#45;&gt;Node3</title>
<path fill="none" stroke="#191970" d="M167.9382,-158.7134C169.0305,-159.7596 170.0592,-160.8554 171,-162 199.6695,-196.8823 174.0195,-226.1616 207,-257 211.1419,-260.8729 216.0501,-263.9577 221.2672,-266.4146"/>
<polygon fill="#191970" stroke="#191970" points="170.0948,-155.9567 160.0667,-152.538 165.7741,-161.4642 170.0948,-155.9567"/>
</g>
<!-- Node4 -->
<g id="node5" class="node">
<title>Node4</title>
<g id="a_node5"><a xlink:href="class_http_fake_event_counter.html" target="_top" xlink:title="HttpFakeEventCounter">
<polygon fill="#ffffff" stroke="#000000" points="211,-228.5 211,-247.5 328,-247.5 328,-228.5 211,-228.5"/>
<text text-anchor="middle" x="269.5" y="-235.5" font-family="Helvetica,sans-Serif" font-size="10.00" fill="#000000">HttpFakeEventCounter</text>
</a>
</g>
</g>
<!-- Node2&#45;&gt;Node4 -->
<g id="edge4" class="edge">
<title>Node2&#45;&gt;Node4</title>
<path fill="none" stroke="#191970" d="M167.1114,-158.4989C168.4758,-159.6219 169.7831,-160.7907 171,-162 192.2525,-183.1213 183.1706,-200.8358 207,-219 212.0509,-222.8501 217.8827,-225.9249 223.9122,-228.3795"/>
<polygon fill="#191970" stroke="#191970" points="169.0701,-155.5966 158.9065,-152.6047 164.986,-161.2817 169.0701,-155.5966"/>
</g>
<!-- Node5 -->
<g id="node6" class="node">
<title>Node5</title>
<g id="a_node6"><a xlink:href="class_http_fake_no_correlation_id.html" target="_top" xlink:title="HttpFakeNoCorrelationId">
<polygon fill="#ffffff" stroke="#000000" points="207,-190.5 207,-209.5 332,-209.5 332,-190.5 207,-190.5"/>
<text text-anchor="middle" x="269.5" y="-197.5" font-family="Helvetica,sans-Serif" font-size="10.00" fill="#000000">HttpFakeNoCorrelationId</text>
</a>
</g>
</g>
<!-- Node2&#45;&gt;Node5 -->
<g id="edge5" class="edge">
<title>Node2&#45;&gt;Node5</title>
<path fill="none" stroke="#191970" d="M165.227,-157.8984C180.4982,-166.9476 198.7085,-177.4245 207,-181 215.227,-184.5477 224.3283,-187.7152 232.9809,-190.3993"/>
<polygon fill="#191970" stroke="#191970" points="166.5946,-154.6389 156.2132,-152.5229 163.0092,-160.6509 166.5946,-154.6389"/>
</g>
<!-- Node6 -->
<g id="node7" class="node">
<title>Node6</title>
<g id="a_node7"><a xlink:href="class_http_fake_prov.html" target="_top" xlink:title="Check that basic device info sent by aktualizr during provisioning matches our expectations. ">
<polygon fill="#ffffff" stroke="#000000" points="231,-152.5 231,-171.5 308,-171.5 308,-152.5 231,-152.5"/>
<text text-anchor="middle" x="269.5" y="-159.5" font-family="Helvetica,sans-Serif" font-size="10.00" fill="#000000">HttpFakeProv</text>
</a>
</g>
</g>
<!-- Node2&#45;&gt;Node6 -->
<g id="edge6" class="edge">
<title>Node2&#45;&gt;Node6</title>
<path fill="none" stroke="#191970" d="M179.374,-148.7256C195.6135,-151.1175 214.4412,-153.8906 230.6755,-156.2817"/>
<polygon fill="#191970" stroke="#191970" points="179.5326,-145.2113 169.1293,-147.2167 178.5125,-152.1366 179.5326,-145.2113"/>
</g>
<!-- Node7 -->
<g id="node8" class="node">
<title>Node7</title>
<g id="a_node8"><a xlink:href="class_http_fake_put_counter.html" target="_top" xlink:title="HttpFakePutCounter">
<polygon fill="#ffffff" stroke="#000000" points="216,-114.5 216,-133.5 323,-133.5 323,-114.5 216,-114.5"/>
<text text-anchor="middle" x="269.5" y="-121.5" font-family="Helvetica,sans-Serif" font-size="10.00" fill="#000000">HttpFakePutCounter</text>
</a>
</g>
</g>
<!-- Node2&#45;&gt;Node7 -->
<g id="edge7" class="edge">
<title>Node2&#45;&gt;Node7</title>
<path fill="none" stroke="#191970" d="M179.2561,-137.2917C190.7392,-135.6004 203.5245,-133.7173 215.7761,-131.9128"/>
<polygon fill="#191970" stroke="#191970" points="178.5125,-133.8634 169.1293,-138.7833 179.5326,-140.7887 178.5125,-133.8634"/>
</g>
<!-- Node8 -->
<g id="node9" class="node">
<title>Node8</title>
<g id="a_node9"><a xlink:href="class_http_fake_rq.html" target="_top" xlink:title="HttpFakeRq">
<polygon fill="#ffffff" stroke="#000000" points="234.5,-76.5 234.5,-95.5 304.5,-95.5 304.5,-76.5 234.5,-76.5"/>
<text text-anchor="middle" x="269.5" y="-83.5" font-family="Helvetica,sans-Serif" font-size="10.00" fill="#000000">HttpFakeRq</text>
</a>
</g>
</g>
<!-- Node2&#45;&gt;Node8 -->
<g id="edge8" class="edge">
<title>Node2&#45;&gt;Node8</title>
<path fill="none" stroke="#191970" d="M163.8658,-127.9305C176.3226,-120.3437 192.1131,-111.4197 207,-105 215.6436,-101.2726 225.2522,-97.965 234.2915,-95.1967"/>
<polygon fill="#191970" stroke="#191970" points="161.7027,-125.1541 155.0601,-133.408 165.4001,-131.0981 161.7027,-125.1541"/>
</g>
<!-- Node9 -->
<g id="node10" class="node">
<title>Node9</title>
<g id="a_node10"><a xlink:href="class_http_fake_unstable.html" target="_top" xlink:title="HttpFakeUnstable">
<polygon fill="#ffffff" stroke="#000000" points="221.5,-38.5 221.5,-57.5 317.5,-57.5 317.5,-38.5 221.5,-38.5"/>
<text text-anchor="middle" x="269.5" y="-45.5" font-family="Helvetica,sans-Serif" font-size="10.00" fill="#000000">HttpFakeUnstable</text>
</a>
</g>
</g>
<!-- Node2&#45;&gt;Node9 -->
<g id="edge9" class="edge">
<title>Node2&#45;&gt;Node9</title>
<path fill="none" stroke="#191970" d="M152.094,-124.6512C163.9089,-107.3877 183.7637,-82.0102 207,-67 213.0015,-63.1231 219.8343,-60.0037 226.7258,-57.5038"/>
<polygon fill="#191970" stroke="#191970" points="148.9788,-123.0169 146.3869,-133.2899 154.8194,-126.8755 148.9788,-123.0169"/>
</g>
<!-- Node10 -->
<g id="node11" class="node">
<title>Node10</title>
<g id="a_node11"><a xlink:href="class_http_put_manifest_fail.html" target="_top" xlink:title="HttpPutManifestFail">
<polygon fill="#ffffff" stroke="#000000" points="217.5,-.5 217.5,-19.5 321.5,-19.5 321.5,-.5 217.5,-.5"/>
<text text-anchor="middle" x="269.5" y="-7.5" font-family="Helvetica,sans-Serif" font-size="10.00" fill="#000000">HttpPutManifestFail</text>
</a>
</g>
</g>
<!-- Node2&#45;&gt;Node10 -->
<g id="edge10" class="edge">
<title>Node2&#45;&gt;Node10</title>
<path fill="none" stroke="#191970" d="M146.6747,-123.8321C155.8237,-98.4497 175.3866,-53.9905 207,-29 211.8933,-25.1318 217.5689,-22.0488 223.4647,-19.592"/>
<polygon fill="#191970" stroke="#191970" points="143.3166,-122.8353 143.3866,-133.4299 149.9388,-125.1041 143.3166,-122.8353"/>
</g>
</g>
</svg>
