<?xml version="1.0" encoding="UTF-8" standalone="no"?>
<!DOCTYPE svg PUBLIC "-//W3C//DTD SVG 1.1//EN"
 "http://www.w3.org/Graphics/SVG/1.1/DTD/svg11.dtd">
<!-- Generated by graphviz version 2.40.1 (20161225.0304)
 -->
<!-- Title: src/libaktualizr/primary/results.h Pages: 1 -->
<svg width="2448pt" height="498pt"
 viewBox="0.00 0.00 2447.50 498.00" xmlns="http://www.w3.org/2000/svg" xmlns:xlink="http://www.w3.org/1999/xlink">
<g id="graph0" class="graph" transform="scale(1 1) rotate(0) translate(4 494)">
<title>src/libaktualizr/primary/results.h</title>
<polygon fill="#ffffff" stroke="transparent" points="-4,4 -4,-494 2443.5,-494 2443.5,4 -4,4"/>
<!-- Node0 -->
<g id="node1" class="node">
<title>Node0</title>
<polygon fill="#bfbfbf" stroke="#000000" points="2192,-459.5 2192,-489.5 2307,-489.5 2307,-459.5 2192,-459.5"/>
<text text-anchor="start" x="2200" y="-477.5" font-family="Helvetica,sans-Serif" font-size="10.00" fill="#000000">src/libaktualizr/primary</text>
<text text-anchor="middle" x="2249.5" y="-466.5" font-family="Helvetica,sans-Serif" font-size="10.00" fill="#000000">/results.h</text>
</g>
<!-- Node1 -->
<g id="node2" class="node">
<title>Node1</title>
<polygon fill="#ffffff" stroke="#bfbfbf" points="1642,-.5 1642,-19.5 1683,-19.5 1683,-.5 1642,-.5"/>
<text text-anchor="middle" x="1662.5" y="-7.5" font-family="Helvetica,sans-Serif" font-size="10.00" fill="#000000">string</text>
</g>
<!-- Node0&#45;&gt;Node1 -->
<g id="edge1" class="edge">
<title>Node0&#45;&gt;Node1</title>
<path fill="none" stroke="#191970" d="M2260.5966,-459.4131C2275.327,-437.8534 2299.5,-396.4616 2299.5,-357 2299.5,-357 2299.5,-357 2299.5,-133 2299.5,-55.6807 2217.8735,-77.139 2143.5,-56 2058.1195,-31.7325 1785.2103,-16.1525 1693.1558,-11.48"/>
<polygon fill="#191970" stroke="#191970" points="1693.2573,-7.9808 1683.0948,-10.9765 1692.9073,-14.9721 1693.2573,-7.9808"/>
</g>
<!-- Node2 -->
<g id="node3" class="node">
<title>Node2</title>
<polygon fill="#ffffff" stroke="#bfbfbf" points="2227.5,-291.5 2227.5,-310.5 2271.5,-310.5 2271.5,-291.5 2227.5,-291.5"/>
<text text-anchor="middle" x="2249.5" y="-298.5" font-family="Helvetica,sans-Serif" font-size="10.00" fill="#000000">vector</text>
</g>
<!-- Node0&#45;&gt;Node2 -->
<g id="edge2" class="edge">
<title>Node0&#45;&gt;Node2</title>
<path fill="none" stroke="#191970" d="M2249.5,-459.4065C2249.5,-428.1485 2249.5,-356.3214 2249.5,-321.1492"/>
<polygon fill="#191970" stroke="#191970" points="2253.0001,-320.738 2249.5,-310.738 2246.0001,-320.738 2253.0001,-320.738"/>
</g>
<!-- Node3 -->
<g id="node4" class="node">
<title>Node3</title>
<polygon fill="#ffffff" stroke="#bfbfbf" points="2327.5,-403.5 2327.5,-422.5 2439.5,-422.5 2439.5,-403.5 2327.5,-403.5"/>
<text text-anchor="middle" x="2383.5" y="-410.5" font-family="Helvetica,sans-Serif" font-size="10.00" fill="#000000">campaign/campaign.h</text>
</g>
<!-- Node0&#45;&gt;Node3 -->
<g id="edge3" class="edge">
<title>Node0&#45;&gt;Node3</title>
<path fill="none" stroke="#191970" d="M2282.2801,-459.4554C2304.05,-449.464 2332.4086,-436.4487 2353.5686,-426.7372"/>
<polygon fill="#191970" stroke="#191970" points="2355.1062,-429.8826 2362.7348,-422.5303 2352.1863,-423.5206 2355.1062,-429.8826"/>
</g>
<!-- Node4 -->
<g id="node5" class="node">
<title>Node4</title>
<g id="a_node5"><a xlink:href="fetcher_8h_source.html" target="_top" xlink:title="uptane/fetcher.h">
<polygon fill="#ffffff" stroke="#000000" points="1578,-403.5 1578,-422.5 1665,-422.5 1665,-403.5 1578,-403.5"/>
<text text-anchor="middle" x="1621.5" y="-410.5" font-family="Helvetica,sans-Serif" font-size="10.00" fill="#000000">uptane/fetcher.h</text>
</a>
</g>
</g>
<!-- Node0&#45;&gt;Node4 -->
<g id="edge4" class="edge">
<title>Node0&#45;&gt;Node4</title>
<path fill="none" stroke="#191970" d="M2191.8249,-468.8519C2071,-457.0195 1792.7965,-429.7751 1675.364,-418.2749"/>
<polygon fill="#191970" stroke="#191970" points="1675.4729,-414.7689 1665.1794,-417.2775 1674.7906,-421.7356 1675.4729,-414.7689"/>
</g>
<!-- Node37 -->
<g id="node28" class="node">
<title>Node37</title>
<g id="a_node28"><a xlink:href="tuf_8h_source.html" target="_top" xlink:title="uptane/tuf.h">
<polygon fill="#ffffff" stroke="#000000" points="698.5,-179.5 698.5,-198.5 766.5,-198.5 766.5,-179.5 698.5,-179.5"/>
<text text-anchor="middle" x="732.5" y="-186.5" font-family="Helvetica,sans-Serif" font-size="10.00" fill="#000000">uptane/tuf.h</text>
</a>
</g>
</g>
<!-- Node0&#45;&gt;Node37 -->
<g id="edge99" class="edge">
<title>Node0&#45;&gt;Node37</title>
<path fill="none" stroke="#191970" d="M2191.7516,-472.6767C1929.6298,-464.0282 864.5,-424.7191 864.5,-357 864.5,-357 864.5,-357 864.5,-301 864.5,-251.2672 809.3473,-219.032 770.3425,-202.4533"/>
<polygon fill="#191970" stroke="#191970" points="771.3989,-199.1045 760.8173,-198.5746 768.7589,-205.5876 771.3989,-199.1045"/>
</g>
<!-- Node5 -->
<g id="node6" class="node">
<title>Node5</title>
<polygon fill="#ffffff" stroke="#bfbfbf" points="1679.5,-347.5 1679.5,-366.5 1725.5,-366.5 1725.5,-347.5 1679.5,-347.5"/>
<text text-anchor="middle" x="1702.5" y="-354.5" font-family="Helvetica,sans-Serif" font-size="10.00" fill="#000000">atomic</text>
</g>
<!-- Node4&#45;&gt;Node5 -->
<g id="edge5" class="edge">
<title>Node4&#45;&gt;Node5</title>
<path fill="none" stroke="#191970" d="M1635.6091,-403.2455C1647.9209,-394.7337 1665.9958,-382.2375 1680.2538,-372.3801"/>
<polygon fill="#191970" stroke="#191970" points="1682.3174,-375.2085 1688.5526,-366.6427 1678.3366,-369.4506 1682.3174,-375.2085"/>
</g>
<!-- Node6 -->
<g id="node7" class="node">
<title>Node6</title>
<polygon fill="#ffffff" stroke="#bfbfbf" points="1744,-347.5 1744,-366.5 1839,-366.5 1839,-347.5 1744,-347.5"/>
<text text-anchor="middle" x="1791.5" y="-354.5" font-family="Helvetica,sans-Serif" font-size="10.00" fill="#000000">condition_variable</text>
</g>
<!-- Node4&#45;&gt;Node6 -->
<g id="edge6" class="edge">
<title>Node4&#45;&gt;Node6</title>
<path fill="none" stroke="#191970" d="M1650.724,-403.3733C1678.9925,-394.0613 1721.9965,-379.8953 1753.0344,-369.671"/>
<polygon fill="#191970" stroke="#191970" points="1754.2544,-372.9542 1762.6573,-366.5011 1752.0643,-366.3056 1754.2544,-372.9542"/>
</g>
<!-- Node7 -->
<g id="node8" class="node">
<title>Node7</title>
<polygon fill="#ffffff" stroke="#bfbfbf" points="1045.5,-347.5 1045.5,-366.5 1089.5,-366.5 1089.5,-347.5 1045.5,-347.5"/>
<text text-anchor="middle" x="1067.5" y="-354.5" font-family="Helvetica,sans-Serif" font-size="10.00" fill="#000000">mutex</text>
</g>
<!-- Node4&#45;&gt;Node7 -->
<g id="edge7" class="edge">
<title>Node4&#45;&gt;Node7</title>
<path fill="none" stroke="#191970" d="M1577.8234,-411.8062C1488.2158,-408.769 1277.3841,-398.5983 1103.5,-367 1102.2435,-366.7717 1100.9674,-366.5193 1099.682,-366.248"/>
<polygon fill="#191970" stroke="#191970" points="1100.3628,-362.812 1089.822,-363.8802 1098.7282,-369.6185 1100.3628,-362.812"/>
</g>
<!-- Node8 -->
<g id="node9" class="node">
<title>Node8</title>
<g id="a_node9"><a xlink:href="config_8h_source.html" target="_top" xlink:title="config/config.h">
<polygon fill="#ffffff" stroke="#000000" points="1581.5,-347.5 1581.5,-366.5 1661.5,-366.5 1661.5,-347.5 1581.5,-347.5"/>
<text text-anchor="middle" x="1621.5" y="-354.5" font-family="Helvetica,sans-Serif" font-size="10.00" fill="#000000">config/config.h</text>
</a>
</g>
</g>
<!-- Node4&#45;&gt;Node8 -->
<g id="edge8" class="edge">
<title>Node4&#45;&gt;Node8</title>
<path fill="none" stroke="#191970" d="M1621.5,-403.2455C1621.5,-395.9382 1621.5,-385.6944 1621.5,-376.7046"/>
<polygon fill="#191970" stroke="#191970" points="1625.0001,-376.6426 1621.5,-366.6427 1618.0001,-376.6427 1625.0001,-376.6426"/>
</g>
<!-- Node22 -->
<g id="node18" class="node">
<title>Node22</title>
<g id="a_node18"><a xlink:href="invstorage_8h_source.html" target="_top" xlink:title="storage/invstorage.h">
<polygon fill="#ffffff" stroke="#000000" points="1025,-235.5 1025,-254.5 1130,-254.5 1130,-235.5 1025,-235.5"/>
<text text-anchor="middle" x="1077.5" y="-242.5" font-family="Helvetica,sans-Serif" font-size="10.00" fill="#000000">storage/invstorage.h</text>
</a>
</g>
</g>
<!-- Node4&#45;&gt;Node22 -->
<g id="edge98" class="edge">
<title>Node4&#45;&gt;Node22</title>
<path fill="none" stroke="#191970" d="M1577.7775,-408.5716C1518.0342,-402.0351 1407.7727,-388.2361 1315.5,-367 1234.2657,-348.3043 1206.5768,-356.1419 1136.5,-311 1117.0264,-298.4555 1100.0321,-277.8051 1089.3478,-262.9415"/>
<polygon fill="#191970" stroke="#191970" points="1092.1145,-260.7889 1083.5449,-254.5589 1086.359,-264.7732 1092.1145,-260.7889"/>
</g>
<!-- Node61 -->
<g id="node49" class="node">
<title>Node61</title>
<g id="a_node49"><a xlink:href="httpinterface_8h_source.html" target="_top" xlink:title="http/httpinterface.h">
<polygon fill="#ffffff" stroke="#000000" points="1276.5,-123.5 1276.5,-142.5 1374.5,-142.5 1374.5,-123.5 1276.5,-123.5"/>
<text text-anchor="middle" x="1325.5" y="-130.5" font-family="Helvetica,sans-Serif" font-size="10.00" fill="#000000">http/httpinterface.h</text>
</a>
</g>
</g>
<!-- Node4&#45;&gt;Node61 -->
<g id="edge90" class="edge">
<title>Node4&#45;&gt;Node61</title>
<path fill="none" stroke="#191970" d="M1577.6129,-404.2102C1526.5913,-391.8305 1442.9522,-364.522 1392.5,-311 1349.3775,-265.2536 1333.338,-189.0955 1327.9492,-153.0656"/>
<polygon fill="#191970" stroke="#191970" points="1331.3771,-152.2998 1326.5529,-142.867 1324.4417,-153.2493 1331.3771,-152.2998"/>
</g>
<!-- Node8&#45;&gt;Node1 -->
<g id="edge11" class="edge">
<title>Node8&#45;&gt;Node1</title>
<path fill="none" stroke="#191970" d="M1661.5382,-348.3846C1664.563,-347.87 1667.5752,-347.3999 1670.5,-347 1726.7839,-339.3039 2136.3452,-346.7416 2180.5,-311 2204.2258,-291.7948 2199.5,-275.5246 2199.5,-245 2199.5,-245 2199.5,-245 2199.5,-133 2199.5,-28.4161 1807.6018,-12.7554 1693.3858,-10.412"/>
<polygon fill="#191970" stroke="#191970" points="1693.285,-6.9096 1683.222,-10.2242 1693.1556,-13.9084 1693.285,-6.9096"/>
</g>
<!-- Node8&#45;&gt;Node2 -->
<g id="edge12" class="edge">
<title>Node8&#45;&gt;Node2</title>
<path fill="none" stroke="#191970" d="M1661.5363,-348.3705C1664.5616,-347.8592 1667.5744,-347.3937 1670.5,-347 1910.2027,-314.7449 1975.0653,-351.579 2213.5,-311 2214.759,-310.7857 2216.0372,-310.5453 2217.3243,-310.2839"/>
<polygon fill="#191970" stroke="#191970" points="2218.261,-313.6592 2227.192,-307.9594 2216.6558,-306.8457 2218.261,-313.6592"/>
</g>
<!-- Node9 -->
<g id="node10" class="node">
<title>Node9</title>
<polygon fill="#ffffff" stroke="#bfbfbf" points="1433.5,-291.5 1433.5,-310.5 1489.5,-310.5 1489.5,-291.5 1433.5,-291.5"/>
<text text-anchor="middle" x="1461.5" y="-298.5" font-family="Helvetica,sans-Serif" font-size="10.00" fill="#000000">algorithm</text>
</g>
<!-- Node8&#45;&gt;Node9 -->
<g id="edge9" class="edge">
<title>Node8&#45;&gt;Node9</title>
<path fill="none" stroke="#191970" d="M1593.995,-347.3733C1567.6198,-338.1419 1527.6149,-324.1402 1498.4642,-313.9375"/>
<polygon fill="#191970" stroke="#191970" points="1499.2409,-310.5012 1488.6461,-310.5011 1496.9284,-317.1082 1499.2409,-310.5012"/>
</g>
<!-- Node10 -->
<g id="node11" class="node">
<title>Node10</title>
<polygon fill="#ffffff" stroke="#bfbfbf" points="1621.5,-291.5 1621.5,-310.5 1675.5,-310.5 1675.5,-291.5 1621.5,-291.5"/>
<text text-anchor="middle" x="1648.5" y="-298.5" font-family="Helvetica,sans-Serif" font-size="10.00" fill="#000000">iostream</text>
</g>
<!-- Node8&#45;&gt;Node10 -->
<g id="edge10" class="edge">
<title>Node8&#45;&gt;Node10</title>
<path fill="none" stroke="#191970" d="M1626.203,-347.2455C1629.8424,-339.6973 1634.9924,-329.0158 1639.4262,-319.8197"/>
<polygon fill="#191970" stroke="#191970" points="1642.6605,-321.1704 1643.8509,-310.6427 1636.3551,-318.1303 1642.6605,-321.1704"/>
</g>
<!-- Node11 -->
<g id="node12" class="node">
<title>Node11</title>
<polygon fill="#ffffff" stroke="#bfbfbf" points="1430,-.5 1430,-19.5 1537,-19.5 1537,-.5 1430,-.5"/>
<text text-anchor="middle" x="1483.5" y="-7.5" font-family="Helvetica,sans-Serif" font-size="10.00" fill="#000000">boost/filesystem.hpp</text>
</g>
<!-- Node8&#45;&gt;Node11 -->
<g id="edge13" class="edge">
<title>Node8&#45;&gt;Node11</title>
<path fill="none" stroke="#191970" d="M1595.1823,-347.4276C1560.6355,-333.2585 1501.4606,-303.0761 1476.5,-255 1469.8348,-242.1623 1460.3266,-203.8843 1477.5,-179 1501.9701,-143.5428 1543.3474,-178.6742 1567.5,-143 1595.6096,-101.4812 1540.1977,-51.109 1506.604,-25.9361"/>
<polygon fill="#191970" stroke="#191970" points="1508.3406,-22.8711 1498.1959,-19.8156 1504.221,-28.5305 1508.3406,-22.8711"/>
</g>
<!-- Node12 -->
<g id="node13" class="node">
<title>Node12</title>
<polygon fill="#ffffff" stroke="#bfbfbf" points="1883.5,-291.5 1883.5,-310.5 2017.5,-310.5 2017.5,-291.5 1883.5,-291.5"/>
<text text-anchor="middle" x="1950.5" y="-298.5" font-family="Helvetica,sans-Serif" font-size="10.00" fill="#000000">boost/program_options.hpp</text>
</g>
<!-- Node8&#45;&gt;Node12 -->
<g id="edge14" class="edge">
<title>Node8&#45;&gt;Node12</title>
<path fill="none" stroke="#191970" d="M1661.5869,-348.6882C1664.6005,-348.1034 1667.5968,-347.5345 1670.5,-347 1740.9989,-334.0202 1821.8186,-320.934 1878.4486,-312.0559"/>
<polygon fill="#191970" stroke="#191970" points="1879.0406,-315.506 1888.3799,-310.5032 1877.9593,-308.59 1879.0406,-315.506"/>
</g>
<!-- Node13 -->
<g id="node14" class="node">
<title>Node13</title>
<polygon fill="#ffffff" stroke="#bfbfbf" points="1887,-56.5 1887,-86.5 1988,-86.5 1988,-56.5 1887,-56.5"/>
<text text-anchor="start" x="1895" y="-74.5" font-family="Helvetica,sans-Serif" font-size="10.00" fill="#000000">boost/property_tree</text>
<text text-anchor="middle" x="1937.5" y="-63.5" font-family="Helvetica,sans-Serif" font-size="10.00" fill="#000000">/ini_parser.hpp</text>
</g>
<!-- Node8&#45;&gt;Node13 -->
<g id="edge15" class="edge">
<title>Node8&#45;&gt;Node13</title>
<path fill="none" stroke="#191970" d="M1661.9064,-348.5473C1717.8356,-336.7732 1813.767,-316.2835 1829.5,-311 1833.0348,-309.8129 2071.4871,-202.1388 2073.5,-199 2102.5519,-153.6985 2036.4835,-113.4544 1986.6071,-90.8108"/>
<polygon fill="#191970" stroke="#191970" points="1987.757,-87.4926 1977.1953,-86.6554 1984.9297,-93.8962 1987.757,-87.4926"/>
</g>
<!-- Node14 -->
<g id="node15" class="node">
<title>Node14</title>
<g id="a_node15"><a xlink:href="asn1-cerstream_8h_source.html" target="_top" xlink:title="asn1/asn1&#45;cerstream.h">
<polygon fill="#ffffff" stroke="#ff0000" points="1148.5,-235.5 1148.5,-254.5 1264.5,-254.5 1264.5,-235.5 1148.5,-235.5"/>
<text text-anchor="middle" x="1206.5" y="-242.5" font-family="Helvetica,sans-Serif" font-size="10.00" fill="#000000">asn1/asn1&#45;cerstream.h</text>
</a>
</g>
</g>
<!-- Node8&#45;&gt;Node14 -->
<g id="edge16" class="edge">
<title>Node8&#45;&gt;Node14</title>
<path fill="none" stroke="#191970" d="M1581.2658,-353.2881C1528.1927,-347.6729 1432.2958,-335.0291 1353.5,-311 1309.7456,-297.6569 1261.9129,-274.4325 1233.0628,-259.3935"/>
<polygon fill="#191970" stroke="#191970" points="1234.5176,-256.2039 1224.0398,-254.6333 1231.2512,-262.3951 1234.5176,-256.2039"/>
</g>
<!-- Node19 -->
<g id="node17" class="node">
<title>Node19</title>
<g id="a_node17"><a xlink:href="bootloader_8h_source.html" target="_top" xlink:title="bootloader/bootloader.h">
<polygon fill="#ffffff" stroke="#ff0000" points="1145.5,-291.5 1145.5,-310.5 1263.5,-310.5 1263.5,-291.5 1145.5,-291.5"/>
<text text-anchor="middle" x="1204.5" y="-298.5" font-family="Helvetica,sans-Serif" font-size="10.00" fill="#000000">bootloader/bootloader.h</text>
</a>
</g>
</g>
<!-- Node8&#45;&gt;Node19 -->
<g id="edge18" class="edge">
<title>Node8&#45;&gt;Node19</title>
<path fill="none" stroke="#191970" d="M1581.2449,-351.6596C1517.0101,-343.1284 1387.3652,-325.8706 1277.5,-311 1276.3908,-310.8499 1275.2722,-310.6983 1274.146,-310.5456"/>
<polygon fill="#191970" stroke="#191970" points="1274.2403,-307.0263 1263.8601,-309.1477 1273.2976,-313.9626 1274.2403,-307.0263"/>
</g>
<!-- Node25 -->
<g id="node21" class="node">
<title>Node25</title>
<g id="a_node21"><a xlink:href="storage__config_8h_source.html" target="_top" xlink:title="storage_config.h">
<polygon fill="#ffffff" stroke="#ff0000" points="1486,-179.5 1486,-198.5 1575,-198.5 1575,-179.5 1486,-179.5"/>
<text text-anchor="middle" x="1530.5" y="-186.5" font-family="Helvetica,sans-Serif" font-size="10.00" fill="#000000">storage_config.h</text>
</a>
</g>
</g>
<!-- Node8&#45;&gt;Node25 -->
<g id="edge81" class="edge">
<title>Node8&#45;&gt;Node25</title>
<path fill="none" stroke="#191970" d="M1643.6066,-347.4742C1658.1331,-339.902 1675.9737,-327.7828 1684.5,-311 1688.5261,-303.0752 1687.6681,-299.3051 1684.5,-291 1666.5874,-244.0428 1612.8922,-216.3521 1573.9384,-201.9366"/>
<polygon fill="#191970" stroke="#191970" points="1574.978,-198.5919 1564.3832,-198.5541 1572.642,-205.1906 1574.978,-198.5919"/>
</g>
<!-- Node27 -->
<g id="node22" class="node">
<title>Node27</title>
<g id="a_node22"><a xlink:href="config__utils_8h_source.html" target="_top" xlink:title="utilities/config_utils.h">
<polygon fill="#ffffff" stroke="#ff0000" points="1804.5,-123.5 1804.5,-142.5 1912.5,-142.5 1912.5,-123.5 1804.5,-123.5"/>
<text text-anchor="middle" x="1858.5" y="-130.5" font-family="Helvetica,sans-Serif" font-size="10.00" fill="#000000">utilities/config_utils.h</text>
</a>
</g>
</g>
<!-- Node8&#45;&gt;Node27 -->
<g id="edge88" class="edge">
<title>Node8&#45;&gt;Node27</title>
<path fill="none" stroke="#191970" d="M1646.8699,-347.3741C1712.6346,-321.8427 1885.585,-250.8129 1915.5,-199 1926.7257,-179.557 1905.8208,-160.4935 1886.2423,-147.8937"/>
<polygon fill="#191970" stroke="#191970" points="1887.8282,-144.7625 1877.4603,-142.5813 1884.205,-150.7519 1887.8282,-144.7625"/>
</g>
<!-- Node31 -->
<g id="node23" class="node">
<title>Node31</title>
<g id="a_node23"><a xlink:href="types_8h.html" target="_top" xlink:title="types.h">
<polygon fill="#ffffff" stroke="#000000" points="1084,-62 1084,-81 1133,-81 1133,-62 1084,-62"/>
<text text-anchor="middle" x="1108.5" y="-69" font-family="Helvetica,sans-Serif" font-size="10.00" fill="#000000">types.h</text>
</a>
</g>
</g>
<!-- Node8&#45;&gt;Node31 -->
<g id="edge89" class="edge">
<title>Node8&#45;&gt;Node31</title>
<path fill="none" stroke="#191970" d="M1581.4384,-354.22C1534.4431,-349.7863 1455.0125,-338.5861 1392.5,-311 1334.7577,-285.5189 1208.6337,-187.1181 1163.5,-143 1146.8062,-126.6818 1130.9057,-105.1253 1120.5346,-89.9633"/>
<polygon fill="#191970" stroke="#191970" points="1123.3074,-87.8136 1114.8341,-81.4532 1117.4916,-91.7094 1123.3074,-87.8136"/>
</g>
<!-- Node54 -->
<g id="node43" class="node">
<title>Node54</title>
<g id="a_node43"><a xlink:href="keymanager__config_8h_source.html" target="_top" xlink:title="crypto/keymanager_config.h">
<polygon fill="#ffffff" stroke="#000000" points="1485.5,-235.5 1485.5,-254.5 1625.5,-254.5 1625.5,-235.5 1485.5,-235.5"/>
<text text-anchor="middle" x="1555.5" y="-242.5" font-family="Helvetica,sans-Serif" font-size="10.00" fill="#000000">crypto/keymanager_config.h</text>
</a>
</g>
</g>
<!-- Node8&#45;&gt;Node54 -->
<g id="edge66" class="edge">
<title>Node8&#45;&gt;Node54</title>
<path fill="none" stroke="#191970" d="M1610.5518,-347.3551C1601.2232,-338.6418 1588.0127,-325.0615 1579.5,-311 1570.7311,-296.5153 1564.4133,-278.3231 1560.4678,-264.7086"/>
<polygon fill="#191970" stroke="#191970" points="1563.8104,-263.662 1557.8106,-254.9296 1557.0553,-265.4975 1563.8104,-263.662"/>
</g>
<!-- Node55 -->
<g id="node44" class="node">
<title>Node55</title>
<g id="a_node44"><a xlink:href="p11__config_8h_source.html" target="_top" xlink:title="crypto/p11_config.h">
<polygon fill="#ffffff" stroke="#000000" points="1962.5,-179.5 1962.5,-198.5 2064.5,-198.5 2064.5,-179.5 1962.5,-179.5"/>
<text text-anchor="middle" x="2013.5" y="-186.5" font-family="Helvetica,sans-Serif" font-size="10.00" fill="#000000">crypto/p11_config.h</text>
</a>
</g>
</g>
<!-- Node8&#45;&gt;Node55 -->
<g id="edge73" class="edge">
<title>Node8&#45;&gt;Node55</title>
<path fill="none" stroke="#191970" d="M1661.5075,-347.5036C1704.4523,-337.0968 1769.711,-320.6073 1793.5,-311 1869.2314,-280.4154 1951.7177,-229.4121 1990.6776,-204.1426"/>
<polygon fill="#191970" stroke="#191970" points="1992.7259,-206.9852 1999.1825,-198.5851 1988.8967,-201.1254 1992.7259,-206.9852"/>
</g>
<!-- Node30 -->
<g id="node45" class="node">
<title>Node30</title>
<g id="a_node45"><a xlink:href="logging__config_8h_source.html" target="_top" xlink:title="logging_config.h">
<polygon fill="#ffffff" stroke="#000000" points="1593,-179.5 1593,-198.5 1680,-198.5 1680,-179.5 1593,-179.5"/>
<text text-anchor="middle" x="1636.5" y="-186.5" font-family="Helvetica,sans-Serif" font-size="10.00" fill="#000000">logging_config.h</text>
</a>
</g>
</g>
<!-- Node8&#45;&gt;Node30 -->
<g id="edge74" class="edge">
<title>Node8&#45;&gt;Node30</title>
<path fill="none" stroke="#191970" d="M1619.0135,-347.2105C1616.7986,-337.9529 1613.7245,-323.6354 1612.5,-311 1611.6426,-302.1526 1610.0925,-299.5566 1612.5,-291 1617.5787,-272.9498 1629.1485,-272.9713 1634.5,-255 1638.9986,-239.8931 1639.2417,-221.9742 1638.5028,-208.6222"/>
<polygon fill="#191970" stroke="#191970" points="1641.9915,-208.3395 1637.7231,-198.6425 1635.0128,-208.8848 1641.9915,-208.3395"/>
</g>
<!-- Node56 -->
<g id="node46" class="node">
<title>Node56</title>
<g id="a_node46"><a xlink:href="packagemanagerconfig_8h_source.html" target="_top" xlink:title="package_manager/packagemanagerconfig.h">
<polygon fill="#ffffff" stroke="#ff0000" points="1698.5,-179.5 1698.5,-198.5 1906.5,-198.5 1906.5,-179.5 1698.5,-179.5"/>
<text text-anchor="middle" x="1802.5" y="-186.5" font-family="Helvetica,sans-Serif" font-size="10.00" fill="#000000">package_manager/packagemanagerconfig.h</text>
</a>
</g>
</g>
<!-- Node8&#45;&gt;Node56 -->
<g id="edge77" class="edge">
<title>Node8&#45;&gt;Node56</title>
<path fill="none" stroke="#191970" d="M1641.9419,-347.3618C1658.4307,-339.0403 1681.7228,-326.0113 1699.5,-311 1709.615,-302.4587 1761.9925,-238.7254 1787.9231,-206.9303"/>
<polygon fill="#191970" stroke="#191970" points="1790.877,-208.8458 1794.4784,-198.8818 1785.4495,-204.4251 1790.877,-208.8458"/>
</g>
<!-- Node57 -->
<g id="node47" class="node">
<title>Node57</title>
<g id="a_node47"><a xlink:href="telemetryconfig_8h_source.html" target="_top" xlink:title="telemetry/telemetryconfig.h">
<polygon fill="#ffffff" stroke="#ff0000" points="2036,-291.5 2036,-310.5 2171,-310.5 2171,-291.5 2036,-291.5"/>
<text text-anchor="middle" x="2103.5" y="-298.5" font-family="Helvetica,sans-Serif" font-size="10.00" fill="#000000">telemetry/telemetryconfig.h</text>
</a>
</g>
</g>
<!-- Node8&#45;&gt;Node57 -->
<g id="edge82" class="edge">
<title>Node8&#45;&gt;Node57</title>
<path fill="none" stroke="#191970" d="M1661.5527,-348.4845C1664.5741,-347.9468 1667.5816,-347.4442 1670.5,-347 1824.4942,-323.5608 1866.7981,-329.0019 2025.7666,-311.0475"/>
<polygon fill="#191970" stroke="#191970" points="2026.3694,-314.5015 2035.9072,-309.8885 2025.5744,-307.5467 2026.3694,-314.5015"/>
</g>
<!-- Node58 -->
<g id="node48" class="node">
<title>Node58</title>
<g id="a_node48"><a xlink:href="secondaryconfig_8h_source.html" target="_top" xlink:title="uptane/secondaryconfig.h">
<polygon fill="#ffffff" stroke="#ff0000" points="1430.5,-123.5 1430.5,-142.5 1558.5,-142.5 1558.5,-123.5 1430.5,-123.5"/>
<text text-anchor="middle" x="1494.5" y="-130.5" font-family="Helvetica,sans-Serif" font-size="10.00" fill="#000000">uptane/secondaryconfig.h</text>
</a>
</g>
</g>
<!-- Node8&#45;&gt;Node58 -->
<g id="edge83" class="edge">
<title>Node8&#45;&gt;Node58</title>
<path fill="none" stroke="#191970" d="M1581.4369,-353.4244C1529.6194,-347.8747 1443.7097,-335.212 1424.5,-311 1405.6978,-287.3016 1363.5232,-324.5407 1443.5,-179 1450.0499,-167.0806 1460.8876,-156.6508 1470.892,-148.7494"/>
<polygon fill="#191970" stroke="#191970" points="1473.0511,-151.5055 1478.9872,-142.7298 1468.8741,-145.8883 1473.0511,-151.5055"/>
</g>
<!-- Node18 -->
<g id="node16" class="node">
<title>Node18</title>
<polygon fill="#ffffff" stroke="#bfbfbf" points="965.5,-62 965.5,-81 1005.5,-81 1005.5,-62 965.5,-62"/>
<text text-anchor="middle" x="985.5" y="-69" font-family="Helvetica,sans-Serif" font-size="10.00" fill="#000000">utility</text>
</g>
<!-- Node14&#45;&gt;Node18 -->
<g id="edge17" class="edge">
<title>Node14&#45;&gt;Node18</title>
<path fill="none" stroke="#191970" d="M1188.6455,-235.3209C1158.5606,-218.5895 1096.5455,-182.2605 1050.5,-143 1031.0784,-126.4402 1011.7838,-104.3102 999.3248,-89.0794"/>
<polygon fill="#191970" stroke="#191970" points="1001.8243,-86.6025 992.8298,-81.0033 996.3694,-90.9894 1001.8243,-86.6025"/>
</g>
<!-- Node19&#45;&gt;Node22 -->
<g id="edge19" class="edge">
<title>Node19&#45;&gt;Node22</title>
<path fill="none" stroke="#191970" d="M1182.6679,-291.3733C1162.1897,-282.3435 1131.3601,-268.7494 1108.3681,-258.6111"/>
<polygon fill="#191970" stroke="#191970" points="1109.6093,-255.3333 1099.0472,-254.5011 1106.785,-261.7383 1109.6093,-255.3333"/>
</g>
<!-- Node22&#45;&gt;Node1 -->
<g id="edge21" class="edge">
<title>Node22&#45;&gt;Node1</title>
<path fill="none" stroke="#191970" d="M1130.1254,-236.2763C1249.0144,-216.2513 1530.881,-166.8813 1567.5,-143 1611.2981,-114.4368 1641.266,-58.0818 1654.6207,-28.7448"/>
<polygon fill="#191970" stroke="#191970" points="1657.8272,-30.1477 1658.647,-19.5846 1651.4189,-27.3309 1657.8272,-30.1477"/>
</g>
<!-- Node22&#45;&gt;Node11 -->
<g id="edge23" class="edge">
<title>Node22&#45;&gt;Node11</title>
<path fill="none" stroke="#191970" d="M1098.5119,-235.3993C1129.228,-221.6168 1188.4059,-196.0138 1240.5,-179 1302.8001,-158.6529 1328.9089,-179.2646 1383.5,-143 1427.6271,-113.6866 1459.8476,-58.124 1474.577,-28.9594"/>
<polygon fill="#191970" stroke="#191970" points="1477.7927,-30.3509 1479.0483,-19.8307 1471.5063,-27.2717 1477.7927,-30.3509"/>
</g>
<!-- Node22&#45;&gt;Node18 -->
<g id="edge22" class="edge">
<title>Node22&#45;&gt;Node18</title>
<path fill="none" stroke="#191970" d="M1070.3284,-235.2704C1057.5152,-217.5807 1030.3627,-178.6747 1012.5,-143 1003.9788,-125.9818 996.5301,-105.5876 991.6273,-90.9433"/>
<polygon fill="#191970" stroke="#191970" points="994.8201,-89.4437 988.3987,-81.0166 988.1633,-91.6089 994.8201,-89.4437"/>
</g>
<!-- Node23 -->
<g id="node19" class="node">
<title>Node23</title>
<polygon fill="#ffffff" stroke="#bfbfbf" points="1029.5,-.5 1029.5,-19.5 1081.5,-19.5 1081.5,-.5 1029.5,-.5"/>
<text text-anchor="middle" x="1055.5" y="-7.5" font-family="Helvetica,sans-Serif" font-size="10.00" fill="#000000">memory</text>
</g>
<!-- Node22&#45;&gt;Node23 -->
<g id="edge20" class="edge">
<title>Node22&#45;&gt;Node23</title>
<path fill="none" stroke="#191970" d="M1024.8377,-242.7914C957.2819,-238.8014 845.4668,-227.9114 817.5,-199 800.0199,-180.9295 811.2823,-168.0783 809.5,-143 808.8699,-134.1335 804.7025,-130.4831 809.5,-123 812.6516,-118.0841 959.2511,-52.6619 1024.6111,-23.6693"/>
<polygon fill="#191970" stroke="#191970" points="1026.2806,-26.7577 1034.0042,-19.5054 1023.4437,-20.3583 1026.2806,-26.7577"/>
</g>
<!-- Node24 -->
<g id="node20" class="node">
<title>Node24</title>
<polygon fill="#ffffff" stroke="#bfbfbf" points="826.5,-179.5 826.5,-198.5 922.5,-198.5 922.5,-179.5 826.5,-179.5"/>
<text text-anchor="middle" x="874.5" y="-186.5" font-family="Helvetica,sans-Serif" font-size="10.00" fill="#000000">boost/optional.hpp</text>
</g>
<!-- Node22&#45;&gt;Node24 -->
<g id="edge24" class="edge">
<title>Node22&#45;&gt;Node24</title>
<path fill="none" stroke="#191970" d="M1042.6031,-235.3733C1008.4089,-225.9404 956.1585,-211.5265 918.9958,-201.2747"/>
<polygon fill="#191970" stroke="#191970" points="919.5123,-197.7865 908.9416,-198.5011 917.6507,-204.5345 919.5123,-197.7865"/>
</g>
<!-- Node22&#45;&gt;Node25 -->
<g id="edge25" class="edge">
<title>Node22&#45;&gt;Node25</title>
<path fill="none" stroke="#191970" d="M1130.2421,-236.3357C1133.3725,-235.8704 1136.4764,-235.4215 1139.5,-235 1259.1108,-218.3258 1399.8718,-202.7556 1475.609,-194.7085"/>
<polygon fill="#191970" stroke="#191970" points="1476.2795,-198.1571 1485.8553,-193.6236 1475.5424,-191.196 1476.2795,-198.1571"/>
</g>
<!-- Node22&#45;&gt;Node31 -->
<g id="edge65" class="edge">
<title>Node22&#45;&gt;Node31</title>
<path fill="none" stroke="#191970" d="M1079.2109,-235.4248C1084.1111,-207.999 1098.2741,-128.732 1104.945,-91.3964"/>
<polygon fill="#191970" stroke="#191970" points="1108.4427,-91.7193 1106.7562,-81.2595 1101.5518,-90.488 1108.4427,-91.7193"/>
</g>
<!-- Node22&#45;&gt;Node37 -->
<g id="edge42" class="edge">
<title>Node22&#45;&gt;Node37</title>
<path fill="none" stroke="#191970" d="M1024.7856,-237.676C965.3018,-229.2164 865.7222,-214.4663 780.5,-199 779.228,-198.7692 777.9379,-198.5305 776.6365,-198.2858"/>
<polygon fill="#191970" stroke="#191970" points="777.0308,-194.7968 766.5459,-196.3197 775.692,-201.6676 777.0308,-194.7968"/>
</g>
<!-- Node25&#45;&gt;Node1 -->
<g id="edge27" class="edge">
<title>Node25&#45;&gt;Node1</title>
<path fill="none" stroke="#191970" d="M1571.4745,-179.4357C1604.4725,-170.8249 1647.0284,-157.349 1657.5,-143 1682.031,-109.3858 1674.5218,-57.2445 1667.912,-29.2791"/>
<polygon fill="#191970" stroke="#191970" points="1671.2831,-28.3345 1665.4044,-19.5203 1664.5033,-30.0767 1671.2831,-28.3345"/>
</g>
<!-- Node25&#45;&gt;Node11 -->
<g id="edge28" class="edge">
<title>Node25&#45;&gt;Node11</title>
<path fill="none" stroke="#191970" d="M1563.0513,-179.497C1591.5474,-170.4418 1629.7344,-156.2611 1638.5,-143 1659.8217,-110.7433 1661.6272,-86.9878 1638.5,-56 1627.1723,-40.8222 1584.7199,-28.8642 1547.1027,-20.9487"/>
<polygon fill="#191970" stroke="#191970" points="1547.6569,-17.4898 1537.1596,-18.9242 1546.2601,-24.3491 1547.6569,-17.4898"/>
</g>
<!-- Node25&#45;&gt;Node23 -->
<g id="edge26" class="edge">
<title>Node25&#45;&gt;Node23</title>
<path fill="none" stroke="#191970" d="M1485.7464,-186.9321C1421.0059,-183.0234 1297.9734,-172.137 1197.5,-143 1139.811,-126.2704 1112.8608,-133.2206 1074.5,-87 1061.2108,-70.9879 1056.9903,-47.0469 1055.7626,-30.1183"/>
<polygon fill="#191970" stroke="#191970" points="1059.2413,-29.5435 1055.3162,-19.7026 1052.2477,-29.8433 1059.2413,-29.5435"/>
</g>
<!-- Node25&#45;&gt;Node27 -->
<g id="edge29" class="edge">
<title>Node25&#45;&gt;Node27</title>
<path fill="none" stroke="#191970" d="M1575.2786,-180.6479C1578.3983,-180.0844 1581.4954,-179.5304 1584.5,-179 1656.2716,-166.3308 1738.7713,-152.5923 1794.3331,-143.4602"/>
<polygon fill="#191970" stroke="#191970" points="1795.0846,-146.8838 1804.3855,-141.81 1793.9506,-139.9762 1795.0846,-146.8838"/>
</g>
<!-- Node27&#45;&gt;Node1 -->
<g id="edge30" class="edge">
<title>Node27&#45;&gt;Node1</title>
<path fill="none" stroke="#191970" d="M1852.3575,-123.3152C1841.6603,-107.1807 1818.0971,-74.7264 1790.5,-56 1760.3522,-35.5428 1720.0497,-23.0354 1692.7836,-16.3261"/>
<polygon fill="#191970" stroke="#191970" points="1693.5555,-12.9123 1683.0203,-14.0341 1691.9557,-19.727 1693.5555,-12.9123"/>
</g>
<!-- Node27&#45;&gt;Node13 -->
<g id="edge31" class="edge">
<title>Node27&#45;&gt;Node13</title>
<path fill="none" stroke="#191970" d="M1870.8438,-123.3906C1881.3374,-115.2215 1896.7872,-103.1941 1910.1709,-92.7752"/>
<polygon fill="#191970" stroke="#191970" points="1912.4336,-95.4493 1918.1744,-86.5446 1908.1336,-89.9257 1912.4336,-95.4493"/>
</g>
<!-- Node27&#45;&gt;Node31 -->
<g id="edge32" class="edge">
<title>Node27&#45;&gt;Node31</title>
<path fill="none" stroke="#191970" d="M1804.4468,-130.3629C1694.1046,-124.7044 1435.0632,-110.0135 1218.5,-87 1193.2841,-84.3204 1164.9529,-80.3045 1143.3584,-77.0318"/>
<polygon fill="#191970" stroke="#191970" points="1143.7572,-73.5521 1133.3418,-75.4941 1142.6949,-80.4711 1143.7572,-73.5521"/>
</g>
<!-- Node33 -->
<g id="node26" class="node">
<title>Node33</title>
<g id="a_node26"><a xlink:href="utils_8h_source.html" target="_top" xlink:title="utils.h">
<polygon fill="#ffffff" stroke="#ff0000" points="1287,-62 1287,-81 1330,-81 1330,-62 1287,-62"/>
<text text-anchor="middle" x="1308.5" y="-69" font-family="Helvetica,sans-Serif" font-size="10.00" fill="#000000">utils.h</text>
</a>
</g>
</g>
<!-- Node27&#45;&gt;Node33 -->
<g id="edge36" class="edge">
<title>Node27&#45;&gt;Node33</title>
<path fill="none" stroke="#191970" d="M1804.2587,-126.9348C1690.7143,-114.2385 1431.0302,-85.2011 1340.4089,-75.068"/>
<polygon fill="#191970" stroke="#191970" points="1340.5438,-71.5614 1330.2168,-73.9283 1339.7659,-78.518 1340.5438,-71.5614"/>
</g>
<!-- Node31&#45;&gt;Node11 -->
<g id="edge34" class="edge">
<title>Node31&#45;&gt;Node11</title>
<path fill="none" stroke="#191970" d="M1133.1048,-67.4648C1190.6476,-58.0278 1335.5071,-34.2708 1419.8572,-20.4374"/>
<polygon fill="#191970" stroke="#191970" points="1420.5322,-23.8736 1429.8339,-18.8012 1419.3993,-16.9658 1420.5322,-23.8736"/>
</g>
<!-- Node32 -->
<g id="node24" class="node">
<title>Node32</title>
<polygon fill="#ffffff" stroke="#bfbfbf" points="1129.5,-.5 1129.5,-19.5 1193.5,-19.5 1193.5,-.5 1129.5,-.5"/>
<text text-anchor="middle" x="1161.5" y="-7.5" font-family="Helvetica,sans-Serif" font-size="10.00" fill="#000000">json/json.h</text>
</g>
<!-- Node31&#45;&gt;Node32 -->
<g id="edge33" class="edge">
<title>Node31&#45;&gt;Node32</title>
<path fill="none" stroke="#191970" d="M1116.7813,-61.8906C1124.6693,-52.7376 1136.7314,-38.7409 1146.3412,-27.59"/>
<polygon fill="#191970" stroke="#191970" points="1149.2251,-29.6049 1153.102,-19.7449 1143.9225,-25.0352 1149.2251,-29.6049"/>
</g>
<!-- Node16 -->
<g id="node25" class="node">
<title>Node16</title>
<polygon fill="#ffffff" stroke="#bfbfbf" points="911,-.5 911,-19.5 970,-19.5 970,-.5 911,-.5"/>
<text text-anchor="middle" x="940.5" y="-7.5" font-family="Helvetica,sans-Serif" font-size="10.00" fill="#000000">stdexcept</text>
</g>
<!-- Node31&#45;&gt;Node16 -->
<g id="edge35" class="edge">
<title>Node31&#45;&gt;Node16</title>
<path fill="none" stroke="#191970" d="M1083.711,-62.4255C1055.2565,-52.0091 1008.3587,-34.8411 976.0266,-23.0053"/>
<polygon fill="#191970" stroke="#191970" points="977.0904,-19.6676 966.4967,-19.5166 974.6841,-26.241 977.0904,-19.6676"/>
</g>
<!-- Node33&#45;&gt;Node1 -->
<g id="edge39" class="edge">
<title>Node33&#45;&gt;Node1</title>
<path fill="none" stroke="#191970" d="M1330.1114,-67.7455C1390.5093,-57.2526 1561.2424,-27.5914 1631.6033,-15.3676"/>
<polygon fill="#191970" stroke="#191970" points="1632.3638,-18.788 1641.6172,-13.628 1631.1656,-11.8913 1632.3638,-18.788"/>
</g>
<!-- Node33&#45;&gt;Node11 -->
<g id="edge37" class="edge">
<title>Node33&#45;&gt;Node11</title>
<path fill="none" stroke="#191970" d="M1330.0774,-61.8484C1334.7989,-59.838 1339.7928,-57.7884 1344.5,-56 1376.9852,-43.6582 1414.4151,-31.3796 1442.2443,-22.6164"/>
<polygon fill="#191970" stroke="#191970" points="1443.5369,-25.8794 1452.0358,-19.5533 1441.4469,-19.1986 1443.5369,-25.8794"/>
</g>
<!-- Node33&#45;&gt;Node23 -->
<g id="edge38" class="edge">
<title>Node33&#45;&gt;Node23</title>
<path fill="none" stroke="#191970" d="M1292.0428,-61.9749C1287.7383,-59.7705 1283.0317,-57.6039 1278.5,-56 1244.5245,-43.9756 1145.8116,-25.7429 1091.8209,-16.2465"/>
<polygon fill="#191970" stroke="#191970" points="1092.105,-12.7431 1081.6515,-14.4681 1090.8991,-19.6385 1092.105,-12.7431"/>
</g>
<!-- Node33&#45;&gt;Node32 -->
<g id="edge41" class="edge">
<title>Node33&#45;&gt;Node32</title>
<path fill="none" stroke="#191970" d="M1290.5617,-61.8534C1286.6244,-59.8427 1282.4509,-57.7917 1278.5,-56 1251.8888,-43.9323 1221.1135,-31.9063 1197.8069,-23.1786"/>
<polygon fill="#191970" stroke="#191970" points="1198.9024,-19.8519 1188.3095,-19.6496 1196.4642,-26.4136 1198.9024,-19.8519"/>
</g>
<!-- Node35 -->
<g id="node27" class="node">
<title>Node35</title>
<polygon fill="#ffffff" stroke="#bfbfbf" points="1239,-.5 1239,-19.5 1298,-19.5 1298,-.5 1239,-.5"/>
<text text-anchor="middle" x="1268.5" y="-7.5" font-family="Helvetica,sans-Serif" font-size="10.00" fill="#000000">curl/curl.h</text>
</g>
<!-- Node33&#45;&gt;Node35 -->
<g id="edge40" class="edge">
<title>Node33&#45;&gt;Node35</title>
<path fill="none" stroke="#191970" d="M1302.25,-61.8906C1296.4135,-52.917 1287.5491,-39.2879 1280.3694,-28.2491"/>
<polygon fill="#191970" stroke="#191970" points="1283.2245,-26.2194 1274.8381,-19.7449 1277.3564,-30.0361 1283.2245,-26.2194"/>
</g>
<!-- Node37&#45;&gt;Node31 -->
<g id="edge64" class="edge">
<title>Node37&#45;&gt;Node31</title>
<path fill="none" stroke="#191970" d="M766.7378,-182.7827C806.7389,-175.1303 874.6869,-160.9197 931.5,-143 984.5141,-126.2786 1044.0419,-100.775 1078.7899,-85.1757"/>
<polygon fill="#191970" stroke="#191970" points="1080.2371,-88.3626 1087.9075,-81.054 1077.3536,-81.984 1080.2371,-88.3626"/>
</g>
<!-- Node38 -->
<g id="node29" class="node">
<title>Node38</title>
<polygon fill="#ffffff" stroke="#bfbfbf" points="703,-123.5 703,-142.5 762,-142.5 762,-123.5 703,-123.5"/>
<text text-anchor="middle" x="732.5" y="-130.5" font-family="Helvetica,sans-Serif" font-size="10.00" fill="#000000">functional</text>
</g>
<!-- Node37&#45;&gt;Node38 -->
<g id="edge43" class="edge">
<title>Node37&#45;&gt;Node38</title>
<path fill="none" stroke="#191970" d="M732.5,-179.2455C732.5,-171.9382 732.5,-161.6944 732.5,-152.7046"/>
<polygon fill="#191970" stroke="#191970" points="736.0001,-152.6426 732.5,-142.6427 729.0001,-152.6427 736.0001,-152.6426"/>
</g>
<!-- Node21 -->
<g id="node30" class="node">
<title>Node21</title>
<polygon fill="#ffffff" stroke="#bfbfbf" points="1206.5,-123.5 1206.5,-142.5 1258.5,-142.5 1258.5,-123.5 1206.5,-123.5"/>
<text text-anchor="middle" x="1232.5" y="-130.5" font-family="Helvetica,sans-Serif" font-size="10.00" fill="#000000">ostream</text>
</g>
<!-- Node37&#45;&gt;Node21 -->
<g id="edge44" class="edge">
<title>Node37&#45;&gt;Node21</title>
<path fill="none" stroke="#191970" d="M766.821,-184.9091C782.3019,-183.0775 800.8182,-180.9058 817.5,-179 957.2496,-163.0345 1123.5707,-144.8441 1195.895,-136.9739"/>
<polygon fill="#191970" stroke="#191970" points="1196.7109,-140.4059 1206.2738,-135.8452 1195.954,-133.4469 1196.7109,-140.4059"/>
</g>
<!-- Node39 -->
<g id="node31" class="node">
<title>Node39</title>
<polygon fill="#ffffff" stroke="#bfbfbf" points="554.5,-123.5 554.5,-142.5 584.5,-142.5 584.5,-123.5 554.5,-123.5"/>
<text text-anchor="middle" x="569.5" y="-130.5" font-family="Helvetica,sans-Serif" font-size="10.00" fill="#000000">set</text>
</g>
<!-- Node37&#45;&gt;Node39 -->
<g id="edge45" class="edge">
<title>Node37&#45;&gt;Node39</title>
<path fill="none" stroke="#191970" d="M701.3511,-179.4299C675.0176,-171.1773 636.1288,-158.6122 594.2226,-143.093"/>
<polygon fill="#191970" stroke="#191970" points="595.2594,-139.7441 584.6669,-139.5218 592.8088,-146.3011 595.2594,-139.7441"/>
</g>
<!-- Node40 -->
<g id="node32" class="node">
<title>Node40</title>
<g id="a_node32"><a xlink:href="uptane_2exceptions_8h_source.html" target="_top" xlink:title="uptane/exceptions.h">
<polygon fill="#ffffff" stroke="#000000" points="818.5,-123.5 818.5,-142.5 922.5,-142.5 922.5,-123.5 818.5,-123.5"/>
<text text-anchor="middle" x="870.5" y="-130.5" font-family="Helvetica,sans-Serif" font-size="10.00" fill="#000000">uptane/exceptions.h</text>
</a>
</g>
</g>
<!-- Node37&#45;&gt;Node40 -->
<g id="edge46" class="edge">
<title>Node37&#45;&gt;Node40</title>
<path fill="none" stroke="#191970" d="M756.223,-179.3733C778.6737,-170.2629 812.5739,-156.5062 837.6255,-146.3404"/>
<polygon fill="#191970" stroke="#191970" points="839.1365,-149.5045 847.0865,-142.5011 836.5043,-143.0182 839.1365,-149.5045"/>
</g>
<!-- Node41 -->
<g id="node33" class="node">
<title>Node41</title>
<g id="a_node33"><a xlink:href="crypto_8h_source.html" target="_top" xlink:title="crypto/crypto.h">
<polygon fill="#ffffff" stroke="#ff0000" points="602.5,-123.5 602.5,-142.5 684.5,-142.5 684.5,-123.5 602.5,-123.5"/>
<text text-anchor="middle" x="643.5" y="-130.5" font-family="Helvetica,sans-Serif" font-size="10.00" fill="#000000">crypto/crypto.h</text>
</a>
</g>
</g>
<!-- Node37&#45;&gt;Node41 -->
<g id="edge50" class="edge">
<title>Node37&#45;&gt;Node41</title>
<path fill="none" stroke="#191970" d="M716.9974,-179.2455C703.342,-170.6534 683.2343,-158.0014 667.5011,-148.1018"/>
<polygon fill="#191970" stroke="#191970" points="669.1529,-145.006 658.825,-142.6427 665.4249,-150.9307 669.1529,-145.006"/>
</g>
<!-- Node40&#45;&gt;Node1 -->
<g id="edge48" class="edge">
<title>Node40&#45;&gt;Node1</title>
<path fill="none" stroke="#191970" d="M922.5284,-130.632C1055.44,-124.3324 1400.3917,-106.3187 1448.5,-87 1468.7261,-78.8779 1467.0672,-65.8705 1486.5,-56 1534.1682,-31.788 1595.7564,-19.4823 1632.0091,-13.9239"/>
<polygon fill="#191970" stroke="#191970" points="1632.5771,-17.3782 1641.9665,-12.4702 1631.5658,-10.4516 1632.5771,-17.3782"/>
</g>
<!-- Node40&#45;&gt;Node18 -->
<g id="edge49" class="edge">
<title>Node40&#45;&gt;Node18</title>
<path fill="none" stroke="#191970" d="M888.4688,-123.3906C907.2884,-113.3262 937.0585,-97.4057 958.6641,-85.8514"/>
<polygon fill="#191970" stroke="#191970" points="960.4898,-88.8442 967.6574,-81.0419 957.1886,-82.6714 960.4898,-88.8442"/>
</g>
<!-- Node40&#45;&gt;Node16 -->
<g id="edge47" class="edge">
<title>Node40&#45;&gt;Node16</title>
<path fill="none" stroke="#191970" d="M875.9928,-123.3484C887.5959,-102.9601 914.7745,-55.2033 929.8885,-28.6459"/>
<polygon fill="#191970" stroke="#191970" points="933.1284,-30.0291 935.0327,-19.6068 927.0446,-26.5667 933.1284,-30.0291"/>
</g>
<!-- Node41&#45;&gt;Node1 -->
<g id="edge60" class="edge">
<title>Node41&#45;&gt;Node1</title>
<path fill="none" stroke="#191970" d="M684.6247,-124.2949C687.6204,-123.8084 690.602,-123.3687 693.5,-123 978.7577,-86.7117 1055.9143,-134.6229 1339.5,-87 1389.1701,-78.6588 1399.6313,-68.1876 1448.5,-56 1513.286,-39.8427 1589.9503,-24.1951 1631.6686,-15.9688"/>
<polygon fill="#191970" stroke="#191970" points="1632.5985,-19.3531 1641.7379,-13.9938 1631.2512,-12.484 1632.5985,-19.3531"/>
</g>
<!-- Node41&#45;&gt;Node18 -->
<g id="edge61" class="edge">
<title>Node41&#45;&gt;Node18</title>
<path fill="none" stroke="#191970" d="M684.6862,-124.6854C687.6675,-124.1073 690.6291,-123.5402 693.5,-123 788.8669,-105.0558 902.1193,-85.613 955.2033,-76.609"/>
<polygon fill="#191970" stroke="#191970" points="956.0172,-80.0211 965.2925,-74.9006 954.8485,-73.1193 956.0172,-80.0211"/>
</g>
<!-- Node41&#45;&gt;Node31 -->
<g id="edge62" class="edge">
<title>Node41&#45;&gt;Node31</title>
<path fill="none" stroke="#191970" d="M684.6508,-124.4793C687.6403,-123.9496 690.6135,-123.4497 693.5,-123 835.3502,-100.9024 872.2949,-106.685 1014.5,-87 1034.2217,-84.27 1056.1802,-80.6803 1073.9113,-77.643"/>
<polygon fill="#191970" stroke="#191970" points="1074.5572,-81.0833 1083.8138,-75.9291 1073.3634,-74.1858 1074.5572,-81.0833"/>
</g>
<!-- Node41&#45;&gt;Node33 -->
<g id="edge63" class="edge">
<title>Node41&#45;&gt;Node33</title>
<path fill="none" stroke="#191970" d="M684.6272,-124.314C687.6223,-123.8231 690.6031,-123.377 693.5,-123 951.813,-89.379 1027.3884,-156.2746 1278.5,-87 1280.1707,-86.5391 1281.8556,-85.978 1283.5291,-85.3459"/>
<polygon fill="#191970" stroke="#191970" points="1285.1386,-88.4594 1292.8118,-81.1538 1282.2575,-82.0798 1285.1386,-88.4594"/>
</g>
<!-- Node42 -->
<g id="node34" class="node">
<title>Node42</title>
<polygon fill="#ffffff" stroke="#bfbfbf" points="689.5,-62 689.5,-81 779.5,-81 779.5,-62 689.5,-62"/>
<text text-anchor="middle" x="734.5" y="-69" font-family="Helvetica,sans-Serif" font-size="10.00" fill="#000000">openssl/engine.h</text>
</g>
<!-- Node41&#45;&gt;Node42 -->
<g id="edge51" class="edge">
<title>Node41&#45;&gt;Node42</title>
<path fill="none" stroke="#191970" d="M657.7188,-123.3906C672.1434,-113.6421 694.6976,-98.3994 711.636,-86.9521"/>
<polygon fill="#191970" stroke="#191970" points="714.0556,-89.5412 720.3811,-81.0419 710.1359,-83.7415 714.0556,-89.5412"/>
</g>
<!-- Node43 -->
<g id="node35" class="node">
<title>Node43</title>
<polygon fill="#ffffff" stroke="#bfbfbf" points="798,-62 798,-81 871,-81 871,-62 798,-62"/>
<text text-anchor="middle" x="834.5" y="-69" font-family="Helvetica,sans-Serif" font-size="10.00" fill="#000000">openssl/err.h</text>
</g>
<!-- Node41&#45;&gt;Node43 -->
<g id="edge52" class="edge">
<title>Node41&#45;&gt;Node43</title>
<path fill="none" stroke="#191970" d="M674.1017,-123.4657C703.4828,-114.2706 749.0906,-99.8896 788.5,-87 791.2033,-86.1158 793.9933,-85.1954 796.8002,-84.2636"/>
<polygon fill="#191970" stroke="#191970" points="797.931,-87.5761 806.307,-81.0882 795.7133,-80.9367 797.931,-87.5761"/>
</g>
<!-- Node44 -->
<g id="node36" class="node">
<title>Node44</title>
<polygon fill="#ffffff" stroke="#bfbfbf" points="0,-62 0,-81 77,-81 77,-62 0,-62"/>
<text text-anchor="middle" x="38.5" y="-69" font-family="Helvetica,sans-Serif" font-size="10.00" fill="#000000">openssl/evp.h</text>
</g>
<!-- Node41&#45;&gt;Node44 -->
<g id="edge53" class="edge">
<title>Node41&#45;&gt;Node44</title>
<path fill="none" stroke="#191970" d="M602.3688,-124.3446C599.3746,-123.8465 596.3951,-123.3905 593.5,-123 369.1872,-92.7445 307.5695,-130.7806 85.5,-87 81.5354,-86.2184 77.4412,-85.2008 73.3988,-84.0604"/>
<polygon fill="#191970" stroke="#191970" points="74.1476,-80.629 63.5606,-81.0368 72.0911,-87.3201 74.1476,-80.629"/>
</g>
<!-- Node45 -->
<g id="node37" class="node">
<title>Node45</title>
<polygon fill="#ffffff" stroke="#bfbfbf" points="95,-62 95,-81 196,-81 196,-62 95,-62"/>
<text text-anchor="middle" x="145.5" y="-69" font-family="Helvetica,sans-Serif" font-size="10.00" fill="#000000">openssl/opensslv.h</text>
</g>
<!-- Node41&#45;&gt;Node45 -->
<g id="edge54" class="edge">
<title>Node41&#45;&gt;Node45</title>
<path fill="none" stroke="#191970" d="M602.3587,-124.4163C599.3669,-123.9013 596.3907,-123.422 593.5,-123 422.1312,-97.9834 376.11,-116.7542 205.5,-87 200.0019,-86.0411 194.2684,-84.8344 188.6206,-83.5197"/>
<polygon fill="#191970" stroke="#191970" points="189.1623,-80.0489 178.6164,-81.0667 187.4952,-86.8475 189.1623,-80.0489"/>
</g>
<!-- Node46 -->
<g id="node38" class="node">
<title>Node46</title>
<polygon fill="#ffffff" stroke="#bfbfbf" points="214.5,-62 214.5,-81 294.5,-81 294.5,-62 214.5,-62"/>
<text text-anchor="middle" x="254.5" y="-69" font-family="Helvetica,sans-Serif" font-size="10.00" fill="#000000">openssl/pem.h</text>
</g>
<!-- Node41&#45;&gt;Node46 -->
<g id="edge55" class="edge">
<title>Node41&#45;&gt;Node46</title>
<path fill="none" stroke="#191970" d="M602.343,-124.5181C599.3549,-123.9793 596.3838,-123.4667 593.5,-123 465.29,-102.2502 430.3897,-114.7011 303.5,-87 299.5433,-86.1362 295.4492,-85.0914 291.3908,-83.957"/>
<polygon fill="#191970" stroke="#191970" points="292.0581,-80.5039 281.4751,-81.0045 290.0604,-87.2128 292.0581,-80.5039"/>
</g>
<!-- Node47 -->
<g id="node39" class="node">
<title>Node47</title>
<polygon fill="#ffffff" stroke="#bfbfbf" points="313,-62 313,-81 406,-81 406,-62 313,-62"/>
<text text-anchor="middle" x="359.5" y="-69" font-family="Helvetica,sans-Serif" font-size="10.00" fill="#000000">openssl/pkcs12.h</text>
</g>
<!-- Node41&#45;&gt;Node47 -->
<g id="edge56" class="edge">
<title>Node41&#45;&gt;Node47</title>
<path fill="none" stroke="#191970" d="M602.4547,-124.7973C539.2961,-112.1642 424.5701,-89.1673 415.5,-87 411.1891,-85.9699 406.7083,-84.8368 402.243,-83.6664"/>
<polygon fill="#191970" stroke="#191970" points="403.1297,-80.2806 392.5643,-81.0701 401.316,-87.0416 403.1297,-80.2806"/>
</g>
<!-- Node48 -->
<g id="node40" class="node">
<title>Node48</title>
<polygon fill="#ffffff" stroke="#bfbfbf" points="424.5,-62 424.5,-81 504.5,-81 504.5,-62 424.5,-62"/>
<text text-anchor="middle" x="464.5" y="-69" font-family="Helvetica,sans-Serif" font-size="10.00" fill="#000000">openssl/rand.h</text>
</g>
<!-- Node41&#45;&gt;Node48 -->
<g id="edge57" class="edge">
<title>Node41&#45;&gt;Node48</title>
<path fill="none" stroke="#191970" d="M615.5313,-123.3906C584.9245,-112.8749 535.7101,-95.966 501.8259,-84.3243"/>
<polygon fill="#191970" stroke="#191970" points="502.867,-80.9812 492.2724,-81.0419 500.5924,-87.6014 502.867,-80.9812"/>
</g>
<!-- Node49 -->
<g id="node41" class="node">
<title>Node49</title>
<polygon fill="#ffffff" stroke="#bfbfbf" points="523,-62 523,-81 598,-81 598,-62 523,-62"/>
<text text-anchor="middle" x="560.5" y="-69" font-family="Helvetica,sans-Serif" font-size="10.00" fill="#000000">openssl/rsa.h</text>
</g>
<!-- Node41&#45;&gt;Node49 -->
<g id="edge58" class="edge">
<title>Node41&#45;&gt;Node49</title>
<path fill="none" stroke="#191970" d="M630.5313,-123.3906C617.4966,-113.7324 597.1836,-98.6812 581.7845,-87.271"/>
<polygon fill="#191970" stroke="#191970" points="583.4961,-84.1832 573.3777,-81.0419 579.3287,-89.8075 583.4961,-84.1832"/>
</g>
<!-- Node50 -->
<g id="node42" class="node">
<title>Node50</title>
<polygon fill="#ffffff" stroke="#bfbfbf" points="615.5,-62 615.5,-81 671.5,-81 671.5,-62 615.5,-62"/>
<text text-anchor="middle" x="643.5" y="-69" font-family="Helvetica,sans-Serif" font-size="10.00" fill="#000000">sodium.h</text>
</g>
<!-- Node41&#45;&gt;Node50 -->
<g id="edge59" class="edge">
<title>Node41&#45;&gt;Node50</title>
<path fill="none" stroke="#191970" d="M643.5,-123.3906C643.5,-114.8657 643.5,-102.1392 643.5,-91.4235"/>
<polygon fill="#191970" stroke="#191970" points="647.0001,-91.2448 643.5,-81.2449 640.0001,-91.2449 647.0001,-91.2448"/>
</g>
<!-- Node54&#45;&gt;Node31 -->
<g id="edge72" class="edge">
<title>Node54&#45;&gt;Node31</title>
<path fill="none" stroke="#191970" d="M1495.451,-235.4603C1422.0512,-222.1316 1295.5227,-193.6805 1197.5,-143 1169.6605,-128.6062 1142.257,-104.7149 1125.3723,-88.5504"/>
<polygon fill="#191970" stroke="#191970" points="1127.5684,-85.8025 1117.9726,-81.3113 1122.6732,-90.8063 1127.5684,-85.8025"/>
</g>
<!-- Node54&#45;&gt;Node55 -->
<g id="edge67" class="edge">
<title>Node54&#45;&gt;Node55</title>
<path fill="none" stroke="#191970" d="M1625.5589,-236.4338C1714.774,-225.5255 1867.4974,-206.8518 1952.2676,-196.4869"/>
<polygon fill="#191970" stroke="#191970" points="1952.7585,-199.9531 1962.2598,-195.2652 1951.9089,-193.0048 1952.7585,-199.9531"/>
</g>
<!-- Node55&#45;&gt;Node1 -->
<g id="edge68" class="edge">
<title>Node55&#45;&gt;Node1</title>
<path fill="none" stroke="#191970" d="M2019.2093,-179.1732C2032.4722,-154.9189 2061.9273,-91.6003 2030.5,-56 2008.2551,-30.8014 1777.4464,-16.105 1693.1253,-11.5437"/>
<polygon fill="#191970" stroke="#191970" points="1693.3091,-8.0487 1683.1378,-11.0141 1692.9384,-15.0388 1693.3091,-8.0487"/>
</g>
<!-- Node55&#45;&gt;Node11 -->
<g id="edge69" class="edge">
<title>Node55&#45;&gt;Node11</title>
<path fill="none" stroke="#191970" d="M2015.9226,-179.2199C2021.3953,-154.5124 2031.7219,-89.1948 1997.5,-56 1989.4989,-48.2391 1683.15,-24.7339 1547.2778,-14.6623"/>
<polygon fill="#191970" stroke="#191970" points="1547.245,-11.1504 1537.014,-13.903 1546.7285,-18.1313 1547.245,-11.1504"/>
</g>
<!-- Node55&#45;&gt;Node13 -->
<g id="edge70" class="edge">
<title>Node55&#45;&gt;Node13</title>
<path fill="none" stroke="#191970" d="M2007.2806,-179.3845C1995.4837,-161.1458 1969.5449,-121.0432 1952.83,-95.201"/>
<polygon fill="#191970" stroke="#191970" points="1955.7107,-93.2101 1947.3407,-86.7143 1949.833,-97.0119 1955.7107,-93.2101"/>
</g>
<!-- Node55&#45;&gt;Node27 -->
<g id="edge71" class="edge">
<title>Node55&#45;&gt;Node27</title>
<path fill="none" stroke="#191970" d="M1986.8546,-179.3733C1961.3036,-170.1419 1922.5488,-156.1402 1894.3091,-145.9375"/>
<polygon fill="#191970" stroke="#191970" points="1895.3921,-142.6074 1884.7978,-142.5011 1893.0135,-149.1909 1895.3921,-142.6074"/>
</g>
<!-- Node30&#45;&gt;Node13 -->
<g id="edge75" class="edge">
<title>Node30&#45;&gt;Node13</title>
<path fill="none" stroke="#191970" d="M1680.1524,-180.6472C1683.3137,-180.0781 1686.4546,-179.5234 1689.5,-179 1740.9186,-170.1622 1883.4077,-178.6504 1921.5,-143 1933.9508,-131.3474 1937.749,-112.291 1938.5424,-96.7808"/>
<polygon fill="#191970" stroke="#191970" points="1942.0425,-96.7916 1938.6811,-86.7442 1935.0432,-96.6949 1942.0425,-96.7916"/>
</g>
<!-- Node30&#45;&gt;Node21 -->
<g id="edge76" class="edge">
<title>Node30&#45;&gt;Node21</title>
<path fill="none" stroke="#191970" d="M1592.8494,-180.3532C1590.0278,-179.8724 1587.2264,-179.4163 1584.5,-179 1447.6156,-158.0971 1408.4136,-169.9817 1268.975,-143.016"/>
<polygon fill="#191970" stroke="#191970" points="1269.247,-139.5025 1258.7595,-141.0063 1267.8958,-146.3708 1269.247,-139.5025"/>
</g>
<!-- Node56&#45;&gt;Node1 -->
<g id="edge79" class="edge">
<title>Node56&#45;&gt;Node1</title>
<path fill="none" stroke="#191970" d="M1795.1195,-179.1032C1785.429,-166.1446 1767.8448,-142.7529 1752.5,-123 1726.0132,-88.9042 1694.4512,-49.5661 1676.6168,-27.4541"/>
<polygon fill="#191970" stroke="#191970" points="1679.2897,-25.1931 1670.2843,-19.6115 1673.8435,-29.5907 1679.2897,-25.1931"/>
</g>
<!-- Node56&#45;&gt;Node11 -->
<g id="edge78" class="edge">
<title>Node56&#45;&gt;Node11</title>
<path fill="none" stroke="#191970" d="M1791.7474,-179.1552C1781.6057,-169.8586 1765.9897,-155.5146 1752.5,-143 1711.0061,-104.5056 1709.066,-83.327 1659.5,-56 1624.8881,-36.9175 1582.0564,-25.4992 1547.313,-18.8119"/>
<polygon fill="#191970" stroke="#191970" points="1547.7443,-15.3326 1537.2763,-16.9671 1546.4787,-22.2173 1547.7443,-15.3326"/>
</g>
<!-- Node56&#45;&gt;Node27 -->
<g id="edge80" class="edge">
<title>Node56&#45;&gt;Node27</title>
<path fill="none" stroke="#191970" d="M1812.2545,-179.2455C1820.3648,-171.1352 1832.0925,-159.4075 1841.7081,-149.7919"/>
<polygon fill="#191970" stroke="#191970" points="1844.2611,-152.1887 1848.8573,-142.6427 1839.3113,-147.2389 1844.2611,-152.1887"/>
</g>
<!-- Node58&#45;&gt;Node1 -->
<g id="edge84" class="edge">
<title>Node58&#45;&gt;Node1</title>
<path fill="none" stroke="#191970" d="M1502.8047,-123.0198C1516.2419,-107.313 1544.1211,-76.5061 1572.5,-56 1591.1011,-42.5592 1614.1853,-30.846 1632.3176,-22.6032"/>
<polygon fill="#191970" stroke="#191970" points="1634.0969,-25.643 1641.8217,-18.3919 1631.2611,-19.2432 1634.0969,-25.643"/>
</g>
<!-- Node58&#45;&gt;Node11 -->
<g id="edge85" class="edge">
<title>Node58&#45;&gt;Node11</title>
<path fill="none" stroke="#191970" d="M1493.6368,-123.3484C1491.8376,-103.2295 1487.655,-56.4608 1485.2627,-29.7098"/>
<polygon fill="#191970" stroke="#191970" points="1488.7361,-29.2552 1484.3591,-19.6068 1481.7639,-29.8788 1488.7361,-29.2552"/>
</g>
<!-- Node58&#45;&gt;Node31 -->
<g id="edge86" class="edge">
<title>Node58&#45;&gt;Node31</title>
<path fill="none" stroke="#191970" d="M1434.611,-123.4581C1352.9704,-110.4506 1209.3719,-87.5716 1143.4157,-77.063"/>
<polygon fill="#191970" stroke="#191970" points="1143.5724,-73.5439 1133.1463,-75.4268 1142.471,-80.4567 1143.5724,-73.5439"/>
</g>
<!-- Node58&#45;&gt;Node33 -->
<g id="edge87" class="edge">
<title>Node58&#45;&gt;Node33</title>
<path fill="none" stroke="#191970" d="M1465.4375,-123.3906C1431.309,-112.1062 1374.9151,-93.4598 1339.8334,-81.8602"/>
<polygon fill="#191970" stroke="#191970" points="1340.7026,-78.4613 1330.1094,-78.645 1338.505,-85.1075 1340.7026,-78.4613"/>
</g>
<!-- Node61&#45;&gt;Node1 -->
<g id="edge92" class="edge">
<title>Node61&#45;&gt;Node1</title>
<path fill="none" stroke="#191970" d="M1372.9952,-123.4471C1405.7917,-115.8944 1449.915,-103.8091 1486.5,-87 1509.2383,-76.5528 1511.1089,-67.172 1533.5,-56 1565.8061,-39.881 1605.1722,-26.7002 1631.8574,-18.6429"/>
<polygon fill="#191970" stroke="#191970" points="1633.172,-21.904 1641.7678,-15.7102 1631.1857,-15.1917 1633.172,-21.904"/>
</g>
<!-- Node61&#45;&gt;Node18 -->
<g id="edge93" class="edge">
<title>Node61&#45;&gt;Node18</title>
<path fill="none" stroke="#191970" d="M1276.4242,-124.1231C1205.0971,-111.2212 1074.8852,-87.6682 1015.9354,-77.0052"/>
<polygon fill="#191970" stroke="#191970" points="1016.2511,-73.5056 1005.7877,-75.1697 1015.005,-80.3938 1016.2511,-73.5056"/>
</g>
<!-- Node61&#45;&gt;Node31 -->
<g id="edge96" class="edge">
<title>Node61&#45;&gt;Node31</title>
<path fill="none" stroke="#191970" d="M1282.2646,-123.4302C1245.9463,-115.0106 1192.8608,-101.8106 1147.5,-87 1145.2209,-86.2558 1142.8833,-85.4469 1140.5399,-84.6021"/>
<polygon fill="#191970" stroke="#191970" points="1141.6008,-81.2615 1131.0091,-81.0017 1139.127,-87.8098 1141.6008,-81.2615"/>
</g>
<!-- Node61&#45;&gt;Node32 -->
<g id="edge95" class="edge">
<title>Node61&#45;&gt;Node32</title>
<path fill="none" stroke="#191970" d="M1284.7132,-123.4246C1261.1127,-116.3374 1231.9361,-104.7745 1210.5,-87 1191.611,-71.3375 1177.6442,-46.4477 1169.5565,-29.2254"/>
<polygon fill="#191970" stroke="#191970" points="1172.555,-27.355 1165.2891,-19.6441 1166.1605,-30.203 1172.555,-27.355"/>
</g>
<!-- Node61&#45;&gt;Node33 -->
<g id="edge97" class="edge">
<title>Node61&#45;&gt;Node33</title>
<path fill="none" stroke="#191970" d="M1322.8438,-123.3906C1320.4625,-114.776 1316.8952,-101.8708 1313.914,-91.0858"/>
<polygon fill="#191970" stroke="#191970" points="1317.2316,-89.9509 1311.1937,-81.2449 1310.4846,-91.8159 1317.2316,-89.9509"/>
</g>
<!-- Node61&#45;&gt;Node35 -->
<g id="edge94" class="edge">
<title>Node61&#45;&gt;Node35</title>
<path fill="none" stroke="#191970" d="M1276.3515,-124.4341C1254.78,-117.9673 1231.4566,-106.6734 1218.5,-87 1210.9219,-75.4935 1212.9636,-68.6165 1218.5,-56 1223.8323,-43.8487 1234.1339,-33.4938 1244.0076,-25.7031"/>
<polygon fill="#191970" stroke="#191970" points="1246.09,-28.5162 1252.0823,-19.7788 1241.9491,-22.8723 1246.09,-28.5162"/>
</g>
<!-- Node62 -->
<g id="node50" class="node">
<title>Node62</title>
<polygon fill="#ffffff" stroke="#bfbfbf" points="1228,-62 1228,-81 1269,-81 1269,-62 1228,-62"/>
<text text-anchor="middle" x="1248.5" y="-69" font-family="Helvetica,sans-Serif" font-size="10.00" fill="#000000">future</text>
</g>
<!-- Node61&#45;&gt;Node62 -->
<g id="edge91" class="edge">
<title>Node61&#45;&gt;Node62</title>
<path fill="none" stroke="#191970" d="M1313.4688,-123.3906C1301.4893,-113.8227 1282.8834,-98.9621 1268.6475,-87.5919"/>
<polygon fill="#191970" stroke="#191970" points="1270.4447,-84.5479 1260.4468,-81.0419 1266.0761,-90.0175 1270.4447,-84.5479"/>
</g>
</g>
</svg>
