<?xml version="1.0" encoding="UTF-8" standalone="no"?>
<!DOCTYPE svg PUBLIC "-//W3C//DTD SVG 1.1//EN"
 "http://www.w3.org/Graphics/SVG/1.1/DTD/svg11.dtd">
<!-- Generated by graphviz version 2.40.1 (20161225.0304)
 -->
<!-- Title: src/libaktualizr/primary/results.h Pages: 1 -->
<svg width="1919pt" height="307pt"
 viewBox="0.00 0.00 1919.34 307.00" xmlns="http://www.w3.org/2000/svg" xmlns:xlink="http://www.w3.org/1999/xlink">
<g id="graph0" class="graph" transform="scale(1 1) rotate(0) translate(4 303)">
<title>src/libaktualizr/primary/results.h</title>
<polygon fill="#ffffff" stroke="transparent" points="-4,4 -4,-303 1915.3408,-303 1915.3408,4 -4,4"/>
<!-- Node63 -->
<g id="node1" class="node">
<title>Node63</title>
<polygon fill="#bfbfbf" stroke="#000000" points="1179,-268.5 1179,-298.5 1294,-298.5 1294,-268.5 1179,-268.5"/>
<text text-anchor="start" x="1187" y="-286.5" font-family="Helvetica,sans-Serif" font-size="10.00" fill="#000000">src/libaktualizr/primary</text>
<text text-anchor="middle" x="1236.5" y="-275.5" font-family="Helvetica,sans-Serif" font-size="10.00" fill="#000000">/results.h</text>
</g>
<!-- Node64 -->
<g id="node2" class="node">
<title>Node64</title>
<g id="a_node2"><a xlink:href="sotauptaneclient_8h_source.html" target="_top" xlink:title="src/libaktualizr/primary\l/sotauptaneclient.h">
<polygon fill="#ffffff" stroke="#000000" points="990,-134.5 990,-164.5 1105,-164.5 1105,-134.5 990,-134.5"/>
<text text-anchor="start" x="998" y="-152.5" font-family="Helvetica,sans-Serif" font-size="10.00" fill="#000000">src/libaktualizr/primary</text>
<text text-anchor="middle" x="1047.5" y="-141.5" font-family="Helvetica,sans-Serif" font-size="10.00" fill="#000000">/sotauptaneclient.h</text>
</a>
</g>
</g>
<!-- Node63&#45;&gt;Node64 -->
<g id="edge1" class="edge">
<title>Node63&#45;&gt;Node64</title>
<path fill="none" stroke="#191970" d="M1206.982,-262.5719C1168.61,-235.3664 1102.5222,-188.5105 1068.7354,-164.5558"/>
<polygon fill="#191970" stroke="#191970" points="1205.0046,-265.4604 1215.1867,-268.389 1209.0533,-259.75 1205.0046,-265.4604"/>
</g>
<!-- Node82 -->
<g id="node20" class="node">
<title>Node82</title>
<g id="a_node20"><a xlink:href="events_8h.html" target="_top" xlink:title="src/libaktualizr/primary\l/events.h">
<polygon fill="#ffffff" stroke="#000000" points="1295,-201.5 1295,-231.5 1410,-231.5 1410,-201.5 1295,-201.5"/>
<text text-anchor="start" x="1303" y="-219.5" font-family="Helvetica,sans-Serif" font-size="10.00" fill="#000000">src/libaktualizr/primary</text>
<text text-anchor="middle" x="1352.5" y="-208.5" font-family="Helvetica,sans-Serif" font-size="10.00" fill="#000000">/events.h</text>
</a>
</g>
</g>
<!-- Node63&#45;&gt;Node82 -->
<g id="edge20" class="edge">
<title>Node63&#45;&gt;Node82</title>
<path fill="none" stroke="#191970" d="M1271.376,-263.3561C1288.9605,-253.1995 1309.9362,-241.0843 1326.1529,-231.7177"/>
<polygon fill="#191970" stroke="#191970" points="1269.4415,-260.4315 1262.5327,-268.4639 1272.9426,-266.4931 1269.4415,-260.4315"/>
</g>
<!-- Node65 -->
<g id="node3" class="node">
<title>Node65</title>
<g id="a_node3"><a xlink:href="uptane__vector__tests_8cc_source.html" target="_top" xlink:title="tests/uptane_vector\l_tests.cc">
<polygon fill="#ffffff" stroke="#000000" points="256,-67.5 256,-97.5 359,-97.5 359,-67.5 256,-67.5"/>
<text text-anchor="start" x="264" y="-85.5" font-family="Helvetica,sans-Serif" font-size="10.00" fill="#000000">tests/uptane_vector</text>
<text text-anchor="middle" x="307.5" y="-74.5" font-family="Helvetica,sans-Serif" font-size="10.00" fill="#000000">_tests.cc</text>
</a>
</g>
</g>
<!-- Node64&#45;&gt;Node65 -->
<g id="edge2" class="edge">
<title>Node64&#45;&gt;Node65</title>
<path fill="none" stroke="#191970" d="M979.507,-148.23C856.7168,-145.0755 590.1256,-134.2815 368.5,-98 365.4807,-97.5057 362.3921,-96.9341 359.2855,-96.3081"/>
<polygon fill="#191970" stroke="#191970" points="979.7887,-151.738 989.8723,-148.4868 979.9621,-144.7401 979.7887,-151.738"/>
</g>
<!-- Node66 -->
<g id="node4" class="node">
<title>Node66</title>
<g id="a_node4"><a xlink:href="aktualizr__secondary_2uptane__test_8cc_source.html" target="_top" xlink:title="src/aktualizr_secondary\l/uptane_test.cc">
<polygon fill="#ffffff" stroke="#000000" points="377.5,-67.5 377.5,-97.5 497.5,-97.5 497.5,-67.5 377.5,-67.5"/>
<text text-anchor="start" x="385.5" y="-85.5" font-family="Helvetica,sans-Serif" font-size="10.00" fill="#000000">src/aktualizr_secondary</text>
<text text-anchor="middle" x="437.5" y="-74.5" font-family="Helvetica,sans-Serif" font-size="10.00" fill="#000000">/uptane_test.cc</text>
</a>
</g>
</g>
<!-- Node64&#45;&gt;Node66 -->
<g id="edge3" class="edge">
<title>Node64&#45;&gt;Node66</title>
<path fill="none" stroke="#191970" d="M979.5684,-145.3924C877.5287,-138.6768 678.8077,-123.4797 511.5,-98 506.9583,-97.3083 502.2752,-96.5161 497.5743,-95.6636"/>
<polygon fill="#191970" stroke="#191970" points="979.528,-148.8971 989.7343,-146.0544 979.9829,-141.9119 979.528,-148.8971"/>
</g>
<!-- Node67 -->
<g id="node5" class="node">
<title>Node67</title>
<g id="a_node5"><a xlink:href="aktualizr_8h_source.html" target="_top" xlink:title="src/libaktualizr/primary\l/aktualizr.h">
<polygon fill="#ffffff" stroke="#000000" points="123,-67.5 123,-97.5 238,-97.5 238,-67.5 123,-67.5"/>
<text text-anchor="start" x="131" y="-85.5" font-family="Helvetica,sans-Serif" font-size="10.00" fill="#000000">src/libaktualizr/primary</text>
<text text-anchor="middle" x="180.5" y="-74.5" font-family="Helvetica,sans-Serif" font-size="10.00" fill="#000000">/aktualizr.h</text>
</a>
</g>
</g>
<!-- Node64&#45;&gt;Node67 -->
<g id="edge4" class="edge">
<title>Node64&#45;&gt;Node67</title>
<path fill="none" stroke="#191970" d="M979.7309,-146.5975C813.1939,-139.2303 387.249,-118.9033 246.5,-98 243.8223,-97.6023 241.0929,-97.151 238.3429,-96.6588"/>
<polygon fill="#191970" stroke="#191970" points="979.7008,-150.0994 989.8452,-147.043 980.009,-143.1062 979.7008,-150.0994"/>
</g>
<!-- Node71 -->
<g id="node9" class="node">
<title>Node71</title>
<g id="a_node9"><a xlink:href="aktualizr__test_8cc_source.html" target="_top" xlink:title="src/libaktualizr/primary\l/aktualizr_test.cc">
<polygon fill="#ffffff" stroke="#000000" points="468,-.5 468,-30.5 583,-30.5 583,-.5 468,-.5"/>
<text text-anchor="start" x="476" y="-18.5" font-family="Helvetica,sans-Serif" font-size="10.00" fill="#000000">src/libaktualizr/primary</text>
<text text-anchor="middle" x="525.5" y="-7.5" font-family="Helvetica,sans-Serif" font-size="10.00" fill="#000000">/aktualizr_test.cc</text>
</a>
</g>
</g>
<!-- Node64&#45;&gt;Node71 -->
<g id="edge9" class="edge">
<title>Node64&#45;&gt;Node71</title>
<path fill="none" stroke="#191970" d="M979.3784,-146.8799C849.4961,-141.2606 576.4564,-126.2113 544.5,-98 525.438,-81.1719 523.4625,-49.4119 524.1854,-30.5865"/>
<polygon fill="#191970" stroke="#191970" points="979.468,-150.3868 989.608,-147.3158 979.7661,-143.3932 979.468,-150.3868"/>
</g>
<!-- Node72 -->
<g id="node10" class="node">
<title>Node72</title>
<g id="a_node10"><a xlink:href="sotauptaneclient_8cc_source.html" target="_top" xlink:title="src/libaktualizr/primary\l/sotauptaneclient.cc">
<polygon fill="#ffffff" stroke="#000000" points="554,-67.5 554,-97.5 669,-97.5 669,-67.5 554,-67.5"/>
<text text-anchor="start" x="562" y="-85.5" font-family="Helvetica,sans-Serif" font-size="10.00" fill="#000000">src/libaktualizr/primary</text>
<text text-anchor="middle" x="611.5" y="-74.5" font-family="Helvetica,sans-Serif" font-size="10.00" fill="#000000">/sotauptaneclient.cc</text>
</a>
</g>
</g>
<!-- Node64&#45;&gt;Node72 -->
<g id="edge10" class="edge">
<title>Node64&#45;&gt;Node72</title>
<path fill="none" stroke="#191970" d="M979.5696,-141.8507C905.3173,-133.0637 782.9833,-117.3376 678.5,-98 675.4477,-97.4351 672.3242,-96.825 669.1756,-96.1848"/>
<polygon fill="#191970" stroke="#191970" points="979.3806,-145.3525 989.7209,-143.0441 980.198,-138.4004 979.3806,-145.3525"/>
</g>
<!-- Node73 -->
<g id="node11" class="node">
<title>Node73</title>
<g id="a_node11"><a xlink:href="uptane__ci__test_8cc_source.html" target="_top" xlink:title="src/libaktualizr/uptane\l/uptane_ci_test.cc">
<polygon fill="#ffffff" stroke="#000000" points="687.5,-67.5 687.5,-97.5 799.5,-97.5 799.5,-67.5 687.5,-67.5"/>
<text text-anchor="start" x="695.5" y="-85.5" font-family="Helvetica,sans-Serif" font-size="10.00" fill="#000000">src/libaktualizr/uptane</text>
<text text-anchor="middle" x="743.5" y="-74.5" font-family="Helvetica,sans-Serif" font-size="10.00" fill="#000000">/uptane_ci_test.cc</text>
</a>
</g>
</g>
<!-- Node64&#45;&gt;Node73 -->
<g id="edge11" class="edge">
<title>Node64&#45;&gt;Node73</title>
<path fill="none" stroke="#191970" d="M980.0107,-135.3682C932.092,-125.2341 866.273,-111.1112 808.5,-98 805.5585,-97.3324 802.544,-96.6406 799.5017,-95.9363"/>
<polygon fill="#191970" stroke="#191970" points="979.4476,-138.8264 989.955,-137.4684 980.8941,-131.9775 979.4476,-138.8264"/>
</g>
<!-- Node74 -->
<g id="node12" class="node">
<title>Node74</title>
<g id="a_node12"><a xlink:href="uptane__implicit__test_8cc.html" target="_top" xlink:title="src/libaktualizr/uptane\l/uptane_implicit_test.cc">
<polygon fill="#ffffff" stroke="#000000" points="817.5,-67.5 817.5,-97.5 937.5,-97.5 937.5,-67.5 817.5,-67.5"/>
<text text-anchor="start" x="825.5" y="-85.5" font-family="Helvetica,sans-Serif" font-size="10.00" fill="#000000">src/libaktualizr/uptane</text>
<text text-anchor="middle" x="877.5" y="-74.5" font-family="Helvetica,sans-Serif" font-size="10.00" fill="#000000">/uptane_implicit_test.cc</text>
</a>
</g>
</g>
<!-- Node64&#45;&gt;Node74 -->
<g id="edge12" class="edge">
<title>Node64&#45;&gt;Node74</title>
<path fill="none" stroke="#191970" d="M999.8682,-130.7275C973.3204,-120.2645 940.7005,-107.4084 915.8177,-97.6017"/>
<polygon fill="#191970" stroke="#191970" points="998.7618,-134.0534 1009.3487,-134.4639 1001.3285,-127.5409 998.7618,-134.0534"/>
</g>
<!-- Node75 -->
<g id="node13" class="node">
<title>Node75</title>
<g id="a_node13"><a xlink:href="uptane__init__test_8cc_source.html" target="_top" xlink:title="src/libaktualizr/uptane\l/uptane_init_test.cc">
<polygon fill="#ffffff" stroke="#000000" points="955.5,-67.5 955.5,-97.5 1067.5,-97.5 1067.5,-67.5 955.5,-67.5"/>
<text text-anchor="start" x="963.5" y="-85.5" font-family="Helvetica,sans-Serif" font-size="10.00" fill="#000000">src/libaktualizr/uptane</text>
<text text-anchor="middle" x="1011.5" y="-74.5" font-family="Helvetica,sans-Serif" font-size="10.00" fill="#000000">/uptane_init_test.cc</text>
</a>
</g>
</g>
<!-- Node64&#45;&gt;Node75 -->
<g id="edge13" class="edge">
<title>Node64&#45;&gt;Node75</title>
<path fill="none" stroke="#191970" d="M1034.5957,-125.4837C1029.6073,-116.1996 1024.0498,-105.8565 1019.6366,-97.6432"/>
<polygon fill="#191970" stroke="#191970" points="1031.5147,-127.1443 1039.331,-134.2967 1037.681,-123.8311 1031.5147,-127.1443"/>
</g>
<!-- Node76 -->
<g id="node14" class="node">
<title>Node76</title>
<g id="a_node14"><a xlink:href="uptane__key__test_8cc_source.html" target="_top" xlink:title="src/libaktualizr/uptane\l/uptane_key_test.cc">
<polygon fill="#ffffff" stroke="#000000" points="1085.5,-67.5 1085.5,-97.5 1197.5,-97.5 1197.5,-67.5 1085.5,-67.5"/>
<text text-anchor="start" x="1093.5" y="-85.5" font-family="Helvetica,sans-Serif" font-size="10.00" fill="#000000">src/libaktualizr/uptane</text>
<text text-anchor="middle" x="1141.5" y="-74.5" font-family="Helvetica,sans-Serif" font-size="10.00" fill="#000000">/uptane_key_test.cc</text>
</a>
</g>
</g>
<!-- Node64&#45;&gt;Node76 -->
<g id="edge14" class="edge">
<title>Node64&#45;&gt;Node76</title>
<path fill="none" stroke="#191970" d="M1077.1775,-128.3469C1091.1643,-118.3776 1107.5308,-106.7121 1120.2544,-97.6432"/>
<polygon fill="#191970" stroke="#191970" points="1074.9418,-125.6423 1068.8301,-134.2967 1079.0047,-131.3426 1074.9418,-125.6423"/>
</g>
<!-- Node77 -->
<g id="node15" class="node">
<title>Node77</title>
<g id="a_node15"><a xlink:href="uptane__network__test_8cc.html" target="_top" xlink:title="Check that aktualizr can complete provisioning after encountering various network issues...">
<polygon fill="#ffffff" stroke="#000000" points="1215.5,-67.5 1215.5,-97.5 1339.5,-97.5 1339.5,-67.5 1215.5,-67.5"/>
<text text-anchor="start" x="1223.5" y="-85.5" font-family="Helvetica,sans-Serif" font-size="10.00" fill="#000000">src/libaktualizr/uptane</text>
<text text-anchor="middle" x="1277.5" y="-74.5" font-family="Helvetica,sans-Serif" font-size="10.00" fill="#000000">/uptane_network_test.cc</text>
</a>
</g>
</g>
<!-- Node64&#45;&gt;Node77 -->
<g id="edge15" class="edge">
<title>Node64&#45;&gt;Node77</title>
<path fill="none" stroke="#191970" d="M1109.1248,-131.5484C1145.5307,-120.9432 1191.1075,-107.6665 1225.6584,-97.6017"/>
<polygon fill="#191970" stroke="#191970" points="1107.7385,-128.3067 1099.1165,-134.4639 1109.6963,-135.0274 1107.7385,-128.3067"/>
</g>
<!-- Node78 -->
<g id="node16" class="node">
<title>Node78</title>
<g id="a_node16"><a xlink:href="uptane__serial__test_8cc_source.html" target="_top" xlink:title="src/libaktualizr/uptane\l/uptane_serial_test.cc">
<polygon fill="#ffffff" stroke="#000000" points="1358,-67.5 1358,-97.5 1471,-97.5 1471,-67.5 1358,-67.5"/>
<text text-anchor="start" x="1366" y="-85.5" font-family="Helvetica,sans-Serif" font-size="10.00" fill="#000000">src/libaktualizr/uptane</text>
<text text-anchor="middle" x="1414.5" y="-74.5" font-family="Helvetica,sans-Serif" font-size="10.00" fill="#000000">/uptane_serial_test.cc</text>
</a>
</g>
</g>
<!-- Node64&#45;&gt;Node78 -->
<g id="edge16" class="edge">
<title>Node64&#45;&gt;Node78</title>
<path fill="none" stroke="#191970" d="M1115.0317,-139.1576C1176.18,-129.5053 1268.6424,-114.1931 1348.5,-98 1351.4992,-97.3918 1354.5699,-96.7473 1357.6668,-96.0801"/>
<polygon fill="#191970" stroke="#191970" points="1114.4531,-135.7055 1105.118,-140.7162 1115.5403,-142.6206 1114.4531,-135.7055"/>
</g>
<!-- Node79 -->
<g id="node17" class="node">
<title>Node79</title>
<g id="a_node17"><a xlink:href="libaktualizr_2uptane_2uptane__test_8cc_source.html" target="_top" xlink:title="src/libaktualizr/uptane\l/uptane_test.cc">
<polygon fill="#ffffff" stroke="#000000" points="1489.5,-67.5 1489.5,-97.5 1601.5,-97.5 1601.5,-67.5 1489.5,-67.5"/>
<text text-anchor="start" x="1497.5" y="-85.5" font-family="Helvetica,sans-Serif" font-size="10.00" fill="#000000">src/libaktualizr/uptane</text>
<text text-anchor="middle" x="1545.5" y="-74.5" font-family="Helvetica,sans-Serif" font-size="10.00" fill="#000000">/uptane_test.cc</text>
</a>
</g>
</g>
<!-- Node64&#45;&gt;Node79 -->
<g id="edge17" class="edge">
<title>Node64&#45;&gt;Node79</title>
<path fill="none" stroke="#191970" d="M1115.1769,-143.7973C1200.516,-136.0646 1351.5573,-120.5766 1479.5,-98 1482.7455,-97.4273 1486.0706,-96.7945 1489.419,-96.1215"/>
<polygon fill="#191970" stroke="#191970" points="1114.7483,-140.3216 1105.1013,-144.7018 1115.3742,-147.2936 1114.7483,-140.3216"/>
</g>
<!-- Node80 -->
<g id="node18" class="node">
<title>Node80</title>
<g id="a_node18"><a xlink:href="check_8cc_source.html" target="_top" xlink:title="src/load_tests/check.cc">
<polygon fill="#ffffff" stroke="#000000" points="1620,-73 1620,-92 1741,-92 1741,-73 1620,-73"/>
<text text-anchor="middle" x="1680.5" y="-80" font-family="Helvetica,sans-Serif" font-size="10.00" fill="#000000">src/load_tests/check.cc</text>
</a>
</g>
</g>
<!-- Node64&#45;&gt;Node80 -->
<g id="edge18" class="edge">
<title>Node64&#45;&gt;Node80</title>
<path fill="none" stroke="#191970" d="M1115.5951,-146.0619C1221.7996,-140.0727 1433.1128,-125.6386 1610.5,-98 1620.585,-96.4287 1631.3913,-94.2737 1641.4221,-92.0701"/>
<polygon fill="#191970" stroke="#191970" points="1115.1303,-142.5823 1105.3401,-146.6323 1115.5191,-149.5714 1115.1303,-142.5823"/>
</g>
<!-- Node81 -->
<g id="node19" class="node">
<title>Node81</title>
<g id="a_node19"><a xlink:href="provision_8cc_source.html" target="_top" xlink:title="src/load_tests/provision.cc">
<polygon fill="#ffffff" stroke="#000000" points="1759.5,-73 1759.5,-92 1893.5,-92 1893.5,-73 1759.5,-73"/>
<text text-anchor="middle" x="1826.5" y="-80" font-family="Helvetica,sans-Serif" font-size="10.00" fill="#000000">src/load_tests/provision.cc</text>
</a>
</g>
</g>
<!-- Node64&#45;&gt;Node81 -->
<g id="edge19" class="edge">
<title>Node64&#45;&gt;Node81</title>
<path fill="none" stroke="#191970" d="M1115.4167,-147.4155C1241.222,-142.9139 1518.8037,-129.9797 1750.5,-98 1761.5719,-96.4718 1773.4533,-94.3052 1784.4554,-92.0749"/>
<polygon fill="#191970" stroke="#191970" points="1115.0418,-143.9265 1105.1709,-147.7754 1115.2876,-150.9221 1115.0418,-143.9265"/>
</g>
<!-- Node68 -->
<g id="node6" class="node">
<title>Node68</title>
<g id="a_node6"><a xlink:href="aktualizr__primary_2main_8cc_source.html" target="_top" xlink:title="src/aktualizr_primary\l/main.cc">
<polygon fill="#ffffff" stroke="#000000" points="0,-.5 0,-30.5 107,-30.5 107,-.5 0,-.5"/>
<text text-anchor="start" x="8" y="-18.5" font-family="Helvetica,sans-Serif" font-size="10.00" fill="#000000">src/aktualizr_primary</text>
<text text-anchor="middle" x="53.5" y="-7.5" font-family="Helvetica,sans-Serif" font-size="10.00" fill="#000000">/main.cc</text>
</a>
</g>
</g>
<!-- Node67&#45;&gt;Node68 -->
<g id="edge5" class="edge">
<title>Node67&#45;&gt;Node68</title>
<path fill="none" stroke="#191970" d="M143.1095,-62.7743C123.6978,-52.5335 100.3444,-40.2132 82.3456,-30.7177"/>
<polygon fill="#191970" stroke="#191970" points="141.5209,-65.8934 151.9987,-67.4639 144.7872,-59.7021 141.5209,-65.8934"/>
</g>
<!-- Node69 -->
<g id="node7" class="node">
<title>Node69</title>
<g id="a_node7"><a xlink:href="hmi__stub_2main_8cc_source.html" target="_top" xlink:title="src/hmi_stub/main.cc">
<polygon fill="#ffffff" stroke="#000000" points="125.5,-6 125.5,-25 235.5,-25 235.5,-6 125.5,-6"/>
<text text-anchor="middle" x="180.5" y="-13" font-family="Helvetica,sans-Serif" font-size="10.00" fill="#000000">src/hmi_stub/main.cc</text>
</a>
</g>
</g>
<!-- Node67&#45;&gt;Node69 -->
<g id="edge6" class="edge">
<title>Node67&#45;&gt;Node69</title>
<path fill="none" stroke="#191970" d="M180.5,-57.1199C180.5,-45.9072 180.5,-33.4031 180.5,-25.055"/>
<polygon fill="#191970" stroke="#191970" points="177.0001,-57.2966 180.5,-67.2967 184.0001,-57.2967 177.0001,-57.2966"/>
</g>
<!-- Node70 -->
<g id="node8" class="node">
<title>Node70</title>
<g id="a_node8"><a xlink:href="aktualizr_8cc_source.html" target="_top" xlink:title="src/libaktualizr/primary\l/aktualizr.cc">
<polygon fill="#ffffff" stroke="#000000" points="254,-.5 254,-30.5 369,-30.5 369,-.5 254,-.5"/>
<text text-anchor="start" x="262" y="-18.5" font-family="Helvetica,sans-Serif" font-size="10.00" fill="#000000">src/libaktualizr/primary</text>
<text text-anchor="middle" x="311.5" y="-7.5" font-family="Helvetica,sans-Serif" font-size="10.00" fill="#000000">/aktualizr.cc</text>
</a>
</g>
</g>
<!-- Node67&#45;&gt;Node70 -->
<g id="edge7" class="edge">
<title>Node67&#45;&gt;Node70</title>
<path fill="none" stroke="#191970" d="M219.0682,-62.7743C239.0913,-52.5335 263.1802,-40.2132 281.7459,-30.7177"/>
<polygon fill="#191970" stroke="#191970" points="217.2083,-59.7942 209.899,-67.4639 220.3958,-66.0264 217.2083,-59.7942"/>
</g>
<!-- Node67&#45;&gt;Node71 -->
<g id="edge8" class="edge">
<title>Node67&#45;&gt;Node71</title>
<path fill="none" stroke="#191970" d="M248.0017,-66.7338C329.6614,-49.7774 413.5817,-34.7264 467.8998,-25.298"/>
<polygon fill="#191970" stroke="#191970" points="247.1298,-63.3403 238.0566,-68.8109 248.5609,-70.1925 247.1298,-63.3403"/>
</g>
<!-- Node82&#45;&gt;Node64 -->
<g id="edge22" class="edge">
<title>Node82&#45;&gt;Node64</title>
<path fill="none" stroke="#191970" d="M1284.9628,-201.664C1231.0711,-189.8255 1156.3884,-173.4197 1105.2495,-162.186"/>
<polygon fill="#191970" stroke="#191970" points="1284.2552,-205.0919 1294.7733,-203.819 1285.7571,-198.2549 1284.2552,-205.0919"/>
</g>
<!-- Node82&#45;&gt;Node67 -->
<g id="edge21" class="edge">
<title>Node82&#45;&gt;Node67</title>
<path fill="none" stroke="#191970" d="M1284.8734,-212.1858C1111.4055,-200.4864 636.8384,-164.4828 246.5,-98 243.7153,-97.5257 240.8726,-97.0041 238.0074,-96.4483"/>
<polygon fill="#191970" stroke="#191970" points="1284.6669,-215.6798 1294.8785,-212.8561 1285.1348,-208.6954 1284.6669,-215.6798"/>
</g>
<!-- Node82&#45;&gt;Node71 -->
<g id="edge23" class="edge">
<title>Node82&#45;&gt;Node71</title>
<path fill="none" stroke="#191970" d="M1420.5605,-209.4388C1582.5492,-191.3503 1972.4448,-139.6097 1902.5,-67 1879.2513,-42.8655 841.2679,-21.5162 583.1462,-16.5739"/>
<polygon fill="#191970" stroke="#191970" points="1419.7822,-206.0034 1410.2275,-210.5814 1420.5516,-212.961 1419.7822,-206.0034"/>
</g>
<!-- Node82&#45;&gt;Node80 -->
<g id="edge24" class="edge">
<title>Node82&#45;&gt;Node80</title>
<path fill="none" stroke="#191970" d="M1399.0951,-197.4642C1470.1937,-168.4178 1603.1726,-114.0911 1656.9913,-92.1042"/>
<polygon fill="#191970" stroke="#191970" points="1397.4218,-194.3669 1389.4882,-201.389 1400.0692,-200.847 1397.4218,-194.3669"/>
</g>
<!-- Node82&#45;&gt;Node81 -->
<g id="edge25" class="edge">
<title>Node82&#45;&gt;Node81</title>
<path fill="none" stroke="#191970" d="M1415.7988,-198.6054C1517.5982,-169.8267 1714.2215,-114.2412 1792.8273,-92.0193"/>
<polygon fill="#191970" stroke="#191970" points="1414.6231,-195.3005 1405.9524,-201.389 1416.5275,-202.0365 1414.6231,-195.3005"/>
</g>
</g>
</svg>
