<?xml version="1.0" encoding="UTF-8" standalone="no"?>
<!DOCTYPE svg PUBLIC "-//W3C//DTD SVG 1.1//EN"
 "http://www.w3.org/Graphics/SVG/1.1/DTD/svg11.dtd">
<!-- Generated by graphviz version 2.40.1 (20161225.0304)
 -->
<!-- Title: opcuabridge::ServerModel Pages: 1 -->
<svg width="2125pt" height="904pt"
 viewBox="0.00 0.00 2125.00 904.00" xmlns="http://www.w3.org/2000/svg" xmlns:xlink="http://www.w3.org/1999/xlink">
<g id="graph0" class="graph" transform="scale(1 1) rotate(0) translate(4 900)">
<title>opcuabridge::ServerModel</title>
<polygon fill="#ffffff" stroke="transparent" points="-4,4 -4,-900 2121,-900 2121,4 -4,4"/>
<!-- Node1 -->
<g id="node1" class="node">
<title>Node1</title>
<polygon fill="#bfbfbf" stroke="#000000" points="1987,-451.5 1987,-470.5 2117,-470.5 2117,-451.5 1987,-451.5"/>
<text text-anchor="middle" x="2052" y="-458.5" font-family="Helvetica,sans-Serif" font-size="10.00" fill="#000000">opcuabridge::ServerModel</text>
</g>
<!-- Node2 -->
<g id="node2" class="node">
<title>Node2</title>
<g id="a_node2"><a xlink:href="classopcuabridge_1_1_metadata_file.html" target="_top" xlink:title="opcuabridge::MetadataFile">
<polygon fill="#ffffff" stroke="#000000" points="1730.5,-767.5 1730.5,-786.5 1861.5,-786.5 1861.5,-767.5 1730.5,-767.5"/>
<text text-anchor="middle" x="1796" y="-774.5" font-family="Helvetica,sans-Serif" font-size="10.00" fill="#000000">opcuabridge::MetadataFile</text>
</a>
</g>
</g>
<!-- Node2&#45;&gt;Node1 -->
<g id="edge1" class="edge">
<title>Node2&#45;&gt;Node1</title>
<path fill="none" stroke="#9a32cd" stroke-dasharray="5,2" d="M1819.6717,-761.8082C1855.7385,-737.7015 1924.9031,-687.5826 1969,-631 2011.1955,-576.8571 2039.8148,-497.8112 2048.9011,-470.6114"/>
<polygon fill="#9a32cd" stroke="#9a32cd" points="1817.6698,-758.9358 1811.2507,-767.3647 1821.5251,-764.7786 1817.6698,-758.9358"/>
<text text-anchor="middle" x="1928" y="-712" font-family="Helvetica,sans-Serif" font-size="10.00" fill="#000000"> metadatafile_</text>
</g>
<!-- Node3 -->
<g id="node3" class="node">
<title>Node3</title>
<g id="a_node3"><a xlink:href="structopcuabridge_1_1_message_on_before_read_callback.html" target="_top" xlink:title="opcuabridge::MessageOnBefore\lReadCallback\&lt; opcuabridge\l::MetadataFile \&gt;">
<polygon fill="#ffffff" stroke="#000000" points="1430.5,-854.5 1430.5,-895.5 1586.5,-895.5 1586.5,-854.5 1430.5,-854.5"/>
<text text-anchor="start" x="1438.5" y="-883.5" font-family="Helvetica,sans-Serif" font-size="10.00" fill="#000000">opcuabridge::MessageOnBefore</text>
<text text-anchor="start" x="1438.5" y="-872.5" font-family="Helvetica,sans-Serif" font-size="10.00" fill="#000000">ReadCallback&lt; opcuabridge</text>
<text text-anchor="middle" x="1508.5" y="-861.5" font-family="Helvetica,sans-Serif" font-size="10.00" fill="#000000">::MetadataFile &gt;</text>
</a>
</g>
</g>
<!-- Node3&#45;&gt;Node2 -->
<g id="edge2" class="edge">
<title>Node3&#45;&gt;Node2</title>
<path fill="none" stroke="#9a32cd" stroke-dasharray="5,2" d="M1596.8206,-867.4522C1631.4891,-862.4067 1671.0296,-853.9997 1705,-840 1737.1559,-826.7481 1769.3316,-800.7419 1785.4246,-786.6414"/>
<polygon fill="#9a32cd" stroke="#9a32cd" points="1596.1329,-864.0139 1586.7064,-868.8502 1597.0915,-870.948 1596.1329,-864.0139"/>
<text text-anchor="middle" x="1657.5" y="-868" font-family="Helvetica,sans-Serif" font-size="10.00" fill="#000000"> on_before_read_cb_</text>
</g>
<!-- Node4 -->
<g id="node4" class="node">
<title>Node4</title>
<g id="a_node4"><a xlink:href="structopcuabridge_1_1_message_on_after_write_callback.html" target="_top" xlink:title="opcuabridge::MessageOnAfter\lWriteCallback\&lt; opcuabridge\l::MetadataFile \&gt;">
<polygon fill="#ffffff" stroke="#000000" points="1434,-756.5 1434,-797.5 1583,-797.5 1583,-756.5 1434,-756.5"/>
<text text-anchor="start" x="1442" y="-785.5" font-family="Helvetica,sans-Serif" font-size="10.00" fill="#000000">opcuabridge::MessageOnAfter</text>
<text text-anchor="start" x="1442" y="-774.5" font-family="Helvetica,sans-Serif" font-size="10.00" fill="#000000">WriteCallback&lt; opcuabridge</text>
<text text-anchor="middle" x="1508.5" y="-763.5" font-family="Helvetica,sans-Serif" font-size="10.00" fill="#000000">::MetadataFile &gt;</text>
</a>
</g>
</g>
<!-- Node4&#45;&gt;Node2 -->
<g id="edge3" class="edge">
<title>Node4&#45;&gt;Node2</title>
<path fill="none" stroke="#9a32cd" stroke-dasharray="5,2" d="M1593.3501,-777C1637.1428,-777 1689.7537,-777 1730.3936,-777"/>
<polygon fill="#9a32cd" stroke="#9a32cd" points="1593.2868,-773.5001 1583.2867,-777 1593.2867,-780.5001 1593.2868,-773.5001"/>
<text text-anchor="middle" x="1657.5" y="-780" font-family="Helvetica,sans-Serif" font-size="10.00" fill="#000000"> on_after_write_cb_</text>
</g>
<!-- Node5 -->
<g id="node5" class="node">
<title>Node5</title>
<g id="a_node5"><a xlink:title="STL class. ">
<polygon fill="#ffffff" stroke="#bfbfbf" points="180,-704.5 180,-723.5 240,-723.5 240,-704.5 180,-704.5"/>
<text text-anchor="middle" x="210" y="-711.5" font-family="Helvetica,sans-Serif" font-size="10.00" fill="#000000">std::string</text>
</a>
</g>
</g>
<!-- Node5&#45;&gt;Node2 -->
<g id="edge4" class="edge">
<title>Node5&#45;&gt;Node2</title>
<path fill="none" stroke="#9a32cd" stroke-dasharray="5,2" d="M230.9681,-729.3548C275.0028,-760.0359 381.3254,-826 481.5,-826 481.5,-826 481.5,-826 1508.5,-826 1601.4115,-826 1708.8425,-800.8239 1762.2402,-786.564"/>
<polygon fill="#9a32cd" stroke="#9a32cd" points="232.9588,-726.4758 222.7763,-723.5491 228.9112,-732.1869 232.9588,-726.4758"/>
<text text-anchor="middle" x="885" y="-829" font-family="Helvetica,sans-Serif" font-size="10.00" fill="#000000"> filename_</text>
</g>
<!-- Node18 -->
<g id="node18" class="node">
<title>Node18</title>
<g id="a_node18"><a xlink:href="classopcuabridge_1_1_signature.html" target="_top" xlink:title="opcuabridge::Signature">
<polygon fill="#ffffff" stroke="#000000" points="634.5,-632.5 634.5,-651.5 750.5,-651.5 750.5,-632.5 634.5,-632.5"/>
<text text-anchor="middle" x="692.5" y="-639.5" font-family="Helvetica,sans-Serif" font-size="10.00" fill="#000000">opcuabridge::Signature</text>
</a>
</g>
</g>
<!-- Node5&#45;&gt;Node18 -->
<g id="edge20" class="edge">
<title>Node5&#45;&gt;Node18</title>
<path fill="none" stroke="#9a32cd" stroke-dasharray="5,2" d="M243.3149,-700.7487C283.3392,-685.5397 352.8736,-661.3633 415,-651 490.003,-638.4887 577.9418,-637.9792 634.3942,-639.4309"/>
<polygon fill="#9a32cd" stroke="#9a32cd" points="241.8751,-697.5524 233.7975,-704.4083 244.3875,-704.086 241.8751,-697.5524"/>
<text text-anchor="middle" x="481.5" y="-665" font-family="Helvetica,sans-Serif" font-size="10.00" fill="#000000"> keyid_</text>
<text text-anchor="middle" x="481.5" y="-654" font-family="Helvetica,sans-Serif" font-size="10.00" fill="#000000">value_</text>
</g>
<!-- Node19 -->
<g id="node19" class="node">
<title>Node19</title>
<g id="a_node19"><a xlink:href="classopcuabridge_1_1_hash.html" target="_top" xlink:title="opcuabridge::Hash">
<polygon fill="#ffffff" stroke="#000000" points="432.5,-682.5 432.5,-701.5 530.5,-701.5 530.5,-682.5 432.5,-682.5"/>
<text text-anchor="middle" x="481.5" y="-689.5" font-family="Helvetica,sans-Serif" font-size="10.00" fill="#000000">opcuabridge::Hash</text>
</a>
</g>
</g>
<!-- Node5&#45;&gt;Node19 -->
<g id="edge19" class="edge">
<title>Node5&#45;&gt;Node19</title>
<path fill="none" stroke="#9a32cd" stroke-dasharray="5,2" d="M250.4763,-710.0285C267.5995,-708.3943 287.7654,-706.53 306,-705 348.6233,-701.4237 397.1146,-697.8711 432.3083,-695.3858"/>
<polygon fill="#9a32cd" stroke="#9a32cd" points="249.8716,-706.5704 240.2524,-711.0112 250.5415,-713.5383 249.8716,-706.5704"/>
<text text-anchor="middle" x="351.5" y="-708" font-family="Helvetica,sans-Serif" font-size="10.00" fill="#000000"> digest_</text>
</g>
<!-- Node20 -->
<g id="node20" class="node">
<title>Node20</title>
<g id="a_node20"><a xlink:href="classopcuabridge_1_1_e_c_u_version_manifest_signed.html" target="_top" xlink:title="opcuabridge::ECUVersionManifest\lSigned">
<polygon fill="#ffffff" stroke="#000000" points="1097,-705 1097,-735 1264,-735 1264,-705 1097,-705"/>
<text text-anchor="start" x="1105" y="-723" font-family="Helvetica,sans-Serif" font-size="10.00" fill="#000000">opcuabridge::ECUVersionManifest</text>
<text text-anchor="middle" x="1180.5" y="-712" font-family="Helvetica,sans-Serif" font-size="10.00" fill="#000000">Signed</text>
</a>
</g>
</g>
<!-- Node5&#45;&gt;Node20 -->
<g id="edge22" class="edge">
<title>Node5&#45;&gt;Node20</title>
<path fill="none" stroke="#9a32cd" stroke-dasharray="5,2" d="M244.1699,-727.0067C295.0867,-745.1883 394.2455,-776 481.5,-776 481.5,-776 481.5,-776 885,-776 973.2437,-776 1073.7589,-751.5948 1131.8862,-735.007"/>
<polygon fill="#9a32cd" stroke="#9a32cd" points="245.2417,-723.6724 234.6476,-723.5516 242.8541,-730.2526 245.2417,-723.6724"/>
<text text-anchor="middle" x="692.5" y="-790" font-family="Helvetica,sans-Serif" font-size="10.00" fill="#000000"> ecuIdentifier_</text>
<text text-anchor="middle" x="692.5" y="-779" font-family="Helvetica,sans-Serif" font-size="10.00" fill="#000000">securityAttack_</text>
</g>
<!-- Node21 -->
<g id="node21" class="node">
<title>Node21</title>
<g id="a_node21"><a xlink:href="classopcuabridge_1_1_image.html" target="_top" xlink:title="opcuabridge::Image">
<polygon fill="#ffffff" stroke="#000000" points="834,-710.5 834,-729.5 936,-729.5 936,-710.5 834,-710.5"/>
<text text-anchor="middle" x="885" y="-717.5" font-family="Helvetica,sans-Serif" font-size="10.00" fill="#000000">opcuabridge::Image</text>
</a>
</g>
</g>
<!-- Node5&#45;&gt;Node21 -->
<g id="edge24" class="edge">
<title>Node5&#45;&gt;Node21</title>
<path fill="none" stroke="#9a32cd" stroke-dasharray="5,2" d="M250.4898,-714.9685C267.6151,-715.3457 287.779,-715.7473 306,-716 500.9963,-718.7046 732.9593,-719.6072 833.879,-719.8857"/>
<polygon fill="#9a32cd" stroke="#9a32cd" points="250.3403,-711.4643 240.264,-714.7383 250.1827,-718.4626 250.3403,-711.4643"/>
<text text-anchor="middle" x="589" y="-721" font-family="Helvetica,sans-Serif" font-size="10.00" fill="#000000"> filename_</text>
</g>
<!-- Node23 -->
<g id="node23" class="node">
<title>Node23</title>
<g id="a_node23"><a xlink:href="classopcuabridge_1_1_configuration.html" target="_top" xlink:title="opcuabridge::Configuration">
<polygon fill="#ffffff" stroke="#000000" points="415,-541.5 415,-560.5 548,-560.5 548,-541.5 415,-541.5"/>
<text text-anchor="middle" x="481.5" y="-548.5" font-family="Helvetica,sans-Serif" font-size="10.00" fill="#000000">opcuabridge::Configuration</text>
</a>
</g>
</g>
<!-- Node5&#45;&gt;Node23 -->
<g id="edge31" class="edge">
<title>Node5&#45;&gt;Node23</title>
<path fill="none" stroke="#9a32cd" stroke-dasharray="5,2" d="M220.9758,-695.5599C236.6621,-670.852 267.8559,-627.4078 306,-604 341.5552,-582.1809 357.078,-593.1029 397,-581 417.2609,-574.8577 439.8427,-566.7748 456.5613,-560.5467"/>
<polygon fill="#9a32cd" stroke="#9a32cd" points="217.8438,-693.9705 215.5689,-704.3182 223.8002,-697.6477 217.8438,-693.9705"/>
<text text-anchor="middle" x="351.5" y="-607" font-family="Helvetica,sans-Serif" font-size="10.00" fill="#000000"> public_key_</text>
</g>
<!-- Node6 -->
<g id="node6" class="node">
<title>Node6</title>
<g id="a_node6"><a xlink:title="STL class. ">
<polygon fill="#ffffff" stroke="#bfbfbf" points="0,-699 0,-729 95,-729 95,-699 0,-699"/>
<text text-anchor="start" x="8" y="-717" font-family="Helvetica,sans-Serif" font-size="10.00" fill="#000000">std::basic_string&lt;</text>
<text text-anchor="middle" x="47.5" y="-706" font-family="Helvetica,sans-Serif" font-size="10.00" fill="#000000"> char &gt;</text>
</a>
</g>
</g>
<!-- Node6&#45;&gt;Node5 -->
<g id="edge5" class="edge">
<title>Node6&#45;&gt;Node5</title>
<path fill="none" stroke="#191970" d="M105.5477,-714C130.6688,-714 159.0198,-714 179.8396,-714"/>
<polygon fill="#191970" stroke="#191970" points="105.3765,-710.5001 95.3765,-714 105.3764,-717.5001 105.3765,-710.5001"/>
</g>
<!-- Node7 -->
<g id="node7" class="node">
<title>Node7</title>
<g id="a_node7"><a xlink:title="STL class. ">
<polygon fill="#ffffff" stroke="#bfbfbf" points="1465,-398.5 1465,-417.5 1552,-417.5 1552,-398.5 1465,-398.5"/>
<text text-anchor="middle" x="1508.5" y="-405.5" font-family="Helvetica,sans-Serif" font-size="10.00" fill="#000000">std::vector&lt; T &gt;</text>
</a>
</g>
</g>
<!-- Node7&#45;&gt;Node2 -->
<g id="edge6" class="edge">
<title>Node7&#45;&gt;Node2</title>
<path fill="none" stroke="#9a32cd" stroke-dasharray="5,2" d="M1562.096,-409.9483C1573.4683,-412.9087 1584.3378,-418.12 1592,-427 1626.0712,-466.4861 1575.8069,-621.6194 1610,-661 1638.3501,-693.6512 1667.3083,-660.8065 1705,-682 1744.019,-703.9399 1776.6327,-747.9716 1789.777,-767.4062"/>
<polygon fill="#9a32cd" stroke="#9a32cd" points="1562.5394,-406.4665 1552.0407,-407.8904 1561.1359,-413.3244 1562.5394,-406.4665"/>
<text text-anchor="middle" x="1657.5" y="-685" font-family="Helvetica,sans-Serif" font-size="10.00" fill="#000000"> metadata_</text>
</g>
<!-- Node31 -->
<g id="node31" class="node">
<title>Node31</title>
<g id="a_node31"><a xlink:href="classopcuabridge_1_1_file_list.html" target="_top" xlink:title="opcuabridge::FileList">
<polygon fill="#ffffff" stroke="#000000" points="1742.5,-451.5 1742.5,-470.5 1849.5,-470.5 1849.5,-451.5 1742.5,-451.5"/>
<text text-anchor="middle" x="1796" y="-458.5" font-family="Helvetica,sans-Serif" font-size="10.00" fill="#000000">opcuabridge::FileList</text>
</a>
</g>
</g>
<!-- Node7&#45;&gt;Node31 -->
<g id="edge39" class="edge">
<title>Node7&#45;&gt;Node31</title>
<path fill="none" stroke="#9a32cd" stroke-dasharray="5,2" d="M1562.2039,-417.2819C1601.7299,-424.1824 1656.7546,-433.9327 1705,-443 1719.2448,-445.6772 1734.721,-448.6967 1748.8022,-451.487"/>
<polygon fill="#9a32cd" stroke="#9a32cd" points="1562.7012,-413.8159 1552.2488,-415.547 1561.4994,-420.712 1562.7012,-413.8159"/>
<text text-anchor="middle" x="1657.5" y="-446" font-family="Helvetica,sans-Serif" font-size="10.00" fill="#000000"> block_</text>
</g>
<!-- Node34 -->
<g id="node34" class="node">
<title>Node34</title>
<g id="a_node34"><a xlink:href="classopcuabridge_1_1_original_manifest.html" target="_top" xlink:title="opcuabridge::OriginalManifest">
<polygon fill="#ffffff" stroke="#000000" points="1723,-366.5 1723,-385.5 1869,-385.5 1869,-366.5 1723,-366.5"/>
<text text-anchor="middle" x="1796" y="-373.5" font-family="Helvetica,sans-Serif" font-size="10.00" fill="#000000">opcuabridge::OriginalManifest</text>
</a>
</g>
</g>
<!-- Node7&#45;&gt;Node34 -->
<g id="edge43" class="edge">
<title>Node7&#45;&gt;Node34</title>
<path fill="none" stroke="#9a32cd" stroke-dasharray="5,2" d="M1562.0814,-400.1952C1577.5304,-398.0572 1594.4204,-395.8275 1610,-394 1647.0548,-389.6533 1688.3525,-385.5795 1722.6036,-382.4106"/>
<polygon fill="#9a32cd" stroke="#9a32cd" points="1561.5844,-396.7305 1552.1655,-401.5817 1562.5539,-403.6631 1561.5844,-396.7305"/>
<text text-anchor="middle" x="1657.5" y="-397" font-family="Helvetica,sans-Serif" font-size="10.00" fill="#000000"> block_</text>
</g>
<!-- Node8 -->
<g id="node8" class="node">
<title>Node8</title>
<polygon fill="#ffffff" stroke="#bfbfbf" points="1166,-398.5 1166,-417.5 1195,-417.5 1195,-398.5 1166,-398.5"/>
<text text-anchor="middle" x="1180.5" y="-405.5" font-family="Helvetica,sans-Serif" font-size="10.00" fill="#000000">T</text>
</g>
<!-- Node8&#45;&gt;Node7 -->
<g id="edge7" class="edge">
<title>Node8&#45;&gt;Node7</title>
<path fill="none" stroke="#9a32cd" stroke-dasharray="5,2" d="M1205.2987,-408C1260.7209,-408 1395.2186,-408 1464.9521,-408"/>
<polygon fill="#9a32cd" stroke="#9a32cd" points="1205.017,-404.5001 1195.017,-408 1205.0169,-411.5001 1205.017,-404.5001"/>
<text text-anchor="middle" x="1344.5" y="-411" font-family="Helvetica,sans-Serif" font-size="10.00" fill="#000000"> elements</text>
</g>
<!-- Node9 -->
<g id="node9" class="node">
<title>Node9</title>
<g id="a_node9"><a xlink:href="classopcuabridge_1_1_file_data.html" target="_top" xlink:title="opcuabridge::FileData">
<polygon fill="#ffffff" stroke="#000000" points="1740,-199.5 1740,-218.5 1852,-218.5 1852,-199.5 1740,-199.5"/>
<text text-anchor="middle" x="1796" y="-206.5" font-family="Helvetica,sans-Serif" font-size="10.00" fill="#000000">opcuabridge::FileData</text>
</a>
</g>
</g>
<!-- Node9&#45;&gt;Node1 -->
<g id="edge8" class="edge">
<title>Node9&#45;&gt;Node1</title>
<path fill="none" stroke="#9a32cd" stroke-dasharray="5,2" d="M1813.0629,-225.7963C1862.3469,-274.3102 2003.8375,-413.5901 2042.2674,-451.4195"/>
<polygon fill="#9a32cd" stroke="#9a32cd" points="1815.3048,-223.0919 1805.7229,-218.571 1810.3941,-228.0805 1815.3048,-223.0919"/>
<text text-anchor="middle" x="1928" y="-375" font-family="Helvetica,sans-Serif" font-size="10.00" fill="#000000"> file_data_</text>
</g>
<!-- Node10 -->
<g id="node10" class="node">
<title>Node10</title>
<g id="a_node10"><a xlink:href="structopcuabridge_1_1_message_file_data.html" target="_top" xlink:title="opcuabridge::MessageFileData">
<polygon fill="#ffffff" stroke="#000000" points="1432.5,-120.5 1432.5,-139.5 1584.5,-139.5 1584.5,-120.5 1432.5,-120.5"/>
<text text-anchor="middle" x="1508.5" y="-127.5" font-family="Helvetica,sans-Serif" font-size="10.00" fill="#000000">opcuabridge::MessageFileData</text>
</a>
</g>
</g>
<!-- Node10&#45;&gt;Node9 -->
<g id="edge9" class="edge">
<title>Node10&#45;&gt;Node9</title>
<path fill="none" stroke="#191970" d="M1562.828,-141.8457C1572.5669,-144.1159 1582.6037,-146.5517 1592,-149 1654.1597,-165.1964 1726.064,-187.0943 1765.7501,-199.4609"/>
<polygon fill="#191970" stroke="#191970" points="1563.3562,-138.3759 1552.8262,-139.5462 1561.7877,-145.1979 1563.3562,-138.3759"/>
</g>
<!-- Node11 -->
<g id="node11" class="node">
<title>Node11</title>
<g id="a_node11"><a xlink:href="structopcuabridge_1_1_message_on_after_write_callback.html" target="_top" xlink:title="opcuabridge::MessageOnAfter\lWriteCallback\&lt; opcuabridge\l::FileData \&gt;">
<polygon fill="#ffffff" stroke="#000000" points="1434,-218.5 1434,-259.5 1583,-259.5 1583,-218.5 1434,-218.5"/>
<text text-anchor="start" x="1442" y="-247.5" font-family="Helvetica,sans-Serif" font-size="10.00" fill="#000000">opcuabridge::MessageOnAfter</text>
<text text-anchor="start" x="1442" y="-236.5" font-family="Helvetica,sans-Serif" font-size="10.00" fill="#000000">WriteCallback&lt; opcuabridge</text>
<text text-anchor="middle" x="1508.5" y="-225.5" font-family="Helvetica,sans-Serif" font-size="10.00" fill="#000000">::FileData &gt;</text>
</a>
</g>
</g>
<!-- Node11&#45;&gt;Node9 -->
<g id="edge10" class="edge">
<title>Node11&#45;&gt;Node9</title>
<path fill="none" stroke="#9a32cd" stroke-dasharray="5,2" d="M1593.5035,-230.1301C1640.7129,-225.2039 1698.1321,-219.2123 1739.7536,-214.8692"/>
<polygon fill="#9a32cd" stroke="#9a32cd" points="1592.8694,-226.6771 1583.2867,-231.1962 1593.596,-233.6393 1592.8694,-226.6771"/>
<text text-anchor="middle" x="1657.5" y="-230" font-family="Helvetica,sans-Serif" font-size="10.00" fill="#000000"> on_after_write_cb_</text>
</g>
<!-- Node12 -->
<g id="node12" class="node">
<title>Node12</title>
<g id="a_node12"><a xlink:href="structopcuabridge_1_1_message_on_before_read_callback.html" target="_top" xlink:title="opcuabridge::MessageOnBefore\lReadCallback\&lt; opcuabridge\l::FileData \&gt;">
<polygon fill="#ffffff" stroke="#000000" points="1430.5,-158.5 1430.5,-199.5 1586.5,-199.5 1586.5,-158.5 1430.5,-158.5"/>
<text text-anchor="start" x="1438.5" y="-187.5" font-family="Helvetica,sans-Serif" font-size="10.00" fill="#000000">opcuabridge::MessageOnBefore</text>
<text text-anchor="start" x="1438.5" y="-176.5" font-family="Helvetica,sans-Serif" font-size="10.00" fill="#000000">ReadCallback&lt; opcuabridge</text>
<text text-anchor="middle" x="1508.5" y="-165.5" font-family="Helvetica,sans-Serif" font-size="10.00" fill="#000000">::FileData &gt;</text>
</a>
</g>
</g>
<!-- Node12&#45;&gt;Node9 -->
<g id="edge11" class="edge">
<title>Node12&#45;&gt;Node9</title>
<path fill="none" stroke="#9a32cd" stroke-dasharray="5,2" d="M1596.7713,-188.2109C1643.3268,-193.0689 1699.0529,-198.8838 1739.7155,-203.1268"/>
<polygon fill="#9a32cd" stroke="#9a32cd" points="1596.9902,-184.7148 1586.6809,-187.158 1596.2636,-191.677 1596.9902,-184.7148"/>
<text text-anchor="middle" x="1657.5" y="-202" font-family="Helvetica,sans-Serif" font-size="10.00" fill="#000000"> on_before_read_cb_</text>
</g>
<!-- Node13 -->
<g id="node13" class="node">
<title>Node13</title>
<g id="a_node13"><a xlink:href="classopcuabridge_1_1_version_report.html" target="_top" xlink:title="opcuabridge::VersionReport">
<polygon fill="#ffffff" stroke="#000000" points="1727.5,-622.5 1727.5,-641.5 1864.5,-641.5 1864.5,-622.5 1727.5,-622.5"/>
<text text-anchor="middle" x="1796" y="-629.5" font-family="Helvetica,sans-Serif" font-size="10.00" fill="#000000">opcuabridge::VersionReport</text>
</a>
</g>
</g>
<!-- Node13&#45;&gt;Node1 -->
<g id="edge12" class="edge">
<title>Node13&#45;&gt;Node1</title>
<path fill="none" stroke="#9a32cd" stroke-dasharray="5,2" d="M1874.0731,-620.1284C1905.7229,-612.4989 1941.2684,-600.0871 1969,-580 2010.2066,-550.1524 2038.0615,-493.3163 2047.9793,-470.6666"/>
<polygon fill="#9a32cd" stroke="#9a32cd" points="1872.9183,-616.802 1863.949,-622.4412 1874.4773,-623.6262 1872.9183,-616.802"/>
<text text-anchor="middle" x="1928" y="-619" font-family="Helvetica,sans-Serif" font-size="10.00" fill="#000000"> version_report_</text>
</g>
<!-- Node14 -->
<g id="node14" class="node">
<title>Node14</title>
<g id="a_node14"><a xlink:href="structopcuabridge_1_1_message_on_before_read_callback.html" target="_top" xlink:title="opcuabridge::MessageOnBefore\lReadCallback\&lt; opcuabridge\l::VersionReport \&gt;">
<polygon fill="#ffffff" stroke="#000000" points="1430.5,-594.5 1430.5,-635.5 1586.5,-635.5 1586.5,-594.5 1430.5,-594.5"/>
<text text-anchor="start" x="1438.5" y="-623.5" font-family="Helvetica,sans-Serif" font-size="10.00" fill="#000000">opcuabridge::MessageOnBefore</text>
<text text-anchor="start" x="1438.5" y="-612.5" font-family="Helvetica,sans-Serif" font-size="10.00" fill="#000000">ReadCallback&lt; opcuabridge</text>
<text text-anchor="middle" x="1508.5" y="-601.5" font-family="Helvetica,sans-Serif" font-size="10.00" fill="#000000">::VersionReport &gt;</text>
</a>
</g>
</g>
<!-- Node14&#45;&gt;Node13 -->
<g id="edge13" class="edge">
<title>Node14&#45;&gt;Node13</title>
<path fill="none" stroke="#9a32cd" stroke-dasharray="5,2" d="M1596.915,-612.2811C1630.7827,-612.0698 1669.7422,-612.8336 1705,-616 1719.8583,-617.3344 1735.9307,-619.8108 1750.3741,-622.4234"/>
<polygon fill="#9a32cd" stroke="#9a32cd" points="1596.5448,-608.7843 1586.5775,-612.3764 1596.6094,-615.784 1596.5448,-608.7843"/>
<text text-anchor="middle" x="1657.5" y="-619" font-family="Helvetica,sans-Serif" font-size="10.00" fill="#000000"> on_before_read_cb_</text>
</g>
<!-- Node15 -->
<g id="node15" class="node">
<title>Node15</title>
<g id="a_node15"><a xlink:href="structopcuabridge_1_1_message_on_after_write_callback.html" target="_top" xlink:title="opcuabridge::MessageOnAfter\lWriteCallback\&lt; opcuabridge\l::VersionReport \&gt;">
<polygon fill="#ffffff" stroke="#000000" points="1434,-696.5 1434,-737.5 1583,-737.5 1583,-696.5 1434,-696.5"/>
<text text-anchor="start" x="1442" y="-725.5" font-family="Helvetica,sans-Serif" font-size="10.00" fill="#000000">opcuabridge::MessageOnAfter</text>
<text text-anchor="start" x="1442" y="-714.5" font-family="Helvetica,sans-Serif" font-size="10.00" fill="#000000">WriteCallback&lt; opcuabridge</text>
<text text-anchor="middle" x="1508.5" y="-703.5" font-family="Helvetica,sans-Serif" font-size="10.00" fill="#000000">::VersionReport &gt;</text>
</a>
</g>
</g>
<!-- Node15&#45;&gt;Node13 -->
<g id="edge14" class="edge">
<title>Node15&#45;&gt;Node13</title>
<path fill="none" stroke="#9a32cd" stroke-dasharray="5,2" d="M1593.5936,-716.571C1628.9736,-714.0903 1669.8915,-708.1556 1705,-695 1737.7481,-682.7288 1769.9268,-656.0635 1785.7938,-641.673"/>
<polygon fill="#9a32cd" stroke="#9a32cd" points="1593.0539,-713.0975 1583.289,-717.2082 1593.486,-720.0842 1593.0539,-713.0975"/>
<text text-anchor="middle" x="1657.5" y="-718" font-family="Helvetica,sans-Serif" font-size="10.00" fill="#000000"> on_after_write_cb_</text>
</g>
<!-- Node16 -->
<g id="node16" class="node">
<title>Node16</title>
<g id="a_node16"><a xlink:href="classopcuabridge_1_1_e_c_u_version_manifest.html" target="_top" xlink:title="opcuabridge::ECUVersionManifest">
<polygon fill="#ffffff" stroke="#000000" points="1425,-654.5 1425,-673.5 1592,-673.5 1592,-654.5 1425,-654.5"/>
<text text-anchor="middle" x="1508.5" y="-661.5" font-family="Helvetica,sans-Serif" font-size="10.00" fill="#000000">opcuabridge::ECUVersionManifest</text>
</a>
</g>
</g>
<!-- Node16&#45;&gt;Node13 -->
<g id="edge15" class="edge">
<title>Node16&#45;&gt;Node13</title>
<path fill="none" stroke="#9a32cd" stroke-dasharray="5,2" d="M1584.544,-653.1698C1593.1244,-652.0493 1601.7461,-650.9682 1610,-650 1648.827,-645.4455 1692.3125,-641.1905 1727.4683,-637.9622"/>
<polygon fill="#9a32cd" stroke="#9a32cd" points="1583.9683,-649.7154 1574.5149,-654.4989 1584.888,-656.6547 1583.9683,-649.7154"/>
<text text-anchor="middle" x="1657.5" y="-653" font-family="Helvetica,sans-Serif" font-size="10.00" fill="#000000"> ecuVersionManifest_</text>
</g>
<!-- Node17 -->
<g id="node17" class="node">
<title>Node17</title>
<polygon fill="#ffffff" stroke="#bfbfbf" points="954,-640 954,-670 1079,-670 1079,-640 954,-640"/>
<text text-anchor="start" x="962" y="-658" font-family="Helvetica,sans-Serif" font-size="10.00" fill="#000000">std::vector&lt; opcuabridge</text>
<text text-anchor="middle" x="1016.5" y="-647" font-family="Helvetica,sans-Serif" font-size="10.00" fill="#000000">::Signature &gt;</text>
</g>
<!-- Node17&#45;&gt;Node16 -->
<g id="edge16" class="edge">
<title>Node17&#45;&gt;Node16</title>
<path fill="none" stroke="#9a32cd" stroke-dasharray="5,2" d="M1089.1205,-656.3284C1178.5767,-657.9648 1330.251,-660.7393 1424.5973,-662.4652"/>
<polygon fill="#9a32cd" stroke="#9a32cd" points="1089.1242,-652.828 1079.0618,-656.1444 1088.9961,-659.8268 1089.1242,-652.828"/>
<text text-anchor="middle" x="1180.5" y="-662" font-family="Helvetica,sans-Serif" font-size="10.00" fill="#000000"> signatures_</text>
</g>
<!-- Node18&#45;&gt;Node17 -->
<g id="edge17" class="edge">
<title>Node18&#45;&gt;Node17</title>
<path fill="none" stroke="#9a32cd" stroke-dasharray="5,2" d="M760.812,-644.7409C817.8801,-647.0307 898.5822,-650.2687 953.9722,-652.4912"/>
<polygon fill="#9a32cd" stroke="#9a32cd" points="760.9312,-641.243 750.7989,-644.3392 760.6505,-648.2373 760.9312,-641.243"/>
<text text-anchor="middle" x="794.5" y="-649" font-family="Helvetica,sans-Serif" font-size="10.00" fill="#000000"> elements</text>
</g>
<!-- Node19&#45;&gt;Node18 -->
<g id="edge18" class="edge">
<title>Node19&#45;&gt;Node18</title>
<path fill="none" stroke="#9a32cd" stroke-dasharray="5,2" d="M531.7105,-680.1018C568.5163,-671.38 617.8362,-659.6929 652.1067,-651.5719"/>
<polygon fill="#9a32cd" stroke="#9a32cd" points="530.6076,-676.7661 521.6841,-682.4777 532.2217,-683.5775 530.6076,-676.7661"/>
<text text-anchor="middle" x="589" y="-674" font-family="Helvetica,sans-Serif" font-size="10.00" fill="#000000"> hash_</text>
</g>
<!-- Node22 -->
<g id="node22" class="node">
<title>Node22</title>
<polygon fill="#ffffff" stroke="#bfbfbf" points="630,-671 630,-701 755,-701 755,-671 630,-671"/>
<text text-anchor="start" x="638" y="-689" font-family="Helvetica,sans-Serif" font-size="10.00" fill="#000000">std::vector&lt; opcuabridge</text>
<text text-anchor="middle" x="692.5" y="-678" font-family="Helvetica,sans-Serif" font-size="10.00" fill="#000000">::Hash &gt;</text>
</g>
<!-- Node19&#45;&gt;Node22 -->
<g id="edge26" class="edge">
<title>Node19&#45;&gt;Node22</title>
<path fill="none" stroke="#9a32cd" stroke-dasharray="5,2" d="M541.0608,-690.3063C568.8127,-689.5172 601.8349,-688.5782 629.9498,-687.7787"/>
<polygon fill="#9a32cd" stroke="#9a32cd" points="540.6003,-686.8179 530.7038,-690.6008 540.7993,-693.8151 540.6003,-686.8179"/>
<text text-anchor="middle" x="589" y="-692" font-family="Helvetica,sans-Serif" font-size="10.00" fill="#000000"> elements</text>
</g>
<!-- Node20&#45;&gt;Node16 -->
<g id="edge21" class="edge">
<title>Node20&#45;&gt;Node16</title>
<path fill="none" stroke="#9a32cd" stroke-dasharray="5,2" d="M1274.3167,-703.9825C1331.8402,-694.1614 1403.5618,-681.9163 1452.3726,-673.5827"/>
<polygon fill="#9a32cd" stroke="#9a32cd" points="1273.3852,-700.5908 1264.1169,-705.7239 1274.5634,-707.491 1273.3852,-700.5908"/>
<text text-anchor="middle" x="1344.5" y="-704" font-family="Helvetica,sans-Serif" font-size="10.00" fill="#000000"> ecuVersionManifestSigned_</text>
</g>
<!-- Node21&#45;&gt;Node20 -->
<g id="edge23" class="edge">
<title>Node21&#45;&gt;Node20</title>
<path fill="none" stroke="#9a32cd" stroke-dasharray="5,2" d="M946.299,-720C989.8575,-720 1048.8804,-720 1096.775,-720"/>
<polygon fill="#9a32cd" stroke="#9a32cd" points="946.1349,-716.5001 936.1348,-720 946.1348,-723.5001 946.1349,-716.5001"/>
<text text-anchor="middle" x="1016.5" y="-723" font-family="Helvetica,sans-Serif" font-size="10.00" fill="#000000"> installedImage_</text>
</g>
<!-- Node22&#45;&gt;Node21 -->
<g id="edge25" class="edge">
<title>Node22&#45;&gt;Node21</title>
<path fill="none" stroke="#9a32cd" stroke-dasharray="5,2" d="M765.3733,-696.4508C782.0427,-699.0524 799.6612,-701.9702 816,-705 824.799,-706.6317 834.1905,-708.5525 843.1211,-710.4649"/>
<polygon fill="#9a32cd" stroke="#9a32cd" points="765.5531,-692.9373 755.1368,-694.8737 764.4872,-699.8557 765.5531,-692.9373"/>
<text text-anchor="middle" x="794.5" y="-708" font-family="Helvetica,sans-Serif" font-size="10.00" fill="#000000"> hashes_</text>
</g>
<!-- Node23&#45;&gt;Node1 -->
<g id="edge27" class="edge">
<title>Node23&#45;&gt;Node1</title>
<path fill="none" stroke="#9a32cd" stroke-dasharray="5,2" d="M558.6034,-559.1173C598.5199,-562.6506 648.0746,-566 692.5,-566 692.5,-566 692.5,-566 1796,-566 1896.1584,-566 2002.9816,-496.3499 2039.1748,-470.5032"/>
<polygon fill="#9a32cd" stroke="#9a32cd" points="558.6835,-555.6103 548.4082,-558.1925 558.0511,-562.5816 558.6835,-555.6103"/>
<text text-anchor="middle" x="1180.5" y="-569" font-family="Helvetica,sans-Serif" font-size="10.00" fill="#000000"> configuration_</text>
</g>
<!-- Node24 -->
<g id="node24" class="node">
<title>Node24</title>
<g id="a_node24"><a xlink:href="structopcuabridge_1_1_message_on_after_write_callback.html" target="_top" xlink:title="opcuabridge::MessageOnAfter\lWriteCallback\&lt; opcuabridge\l::Configuration \&gt;">
<polygon fill="#ffffff" stroke="#000000" points="135.5,-563.5 135.5,-604.5 284.5,-604.5 284.5,-563.5 135.5,-563.5"/>
<text text-anchor="start" x="143.5" y="-592.5" font-family="Helvetica,sans-Serif" font-size="10.00" fill="#000000">opcuabridge::MessageOnAfter</text>
<text text-anchor="start" x="143.5" y="-581.5" font-family="Helvetica,sans-Serif" font-size="10.00" fill="#000000">WriteCallback&lt; opcuabridge</text>
<text text-anchor="middle" x="210" y="-570.5" font-family="Helvetica,sans-Serif" font-size="10.00" fill="#000000">::Configuration &gt;</text>
</a>
</g>
</g>
<!-- Node24&#45;&gt;Node23 -->
<g id="edge28" class="edge">
<title>Node24&#45;&gt;Node23</title>
<path fill="none" stroke="#9a32cd" stroke-dasharray="5,2" d="M294.7569,-571.4658C298.555,-570.959 302.3162,-570.4679 306,-570 341.875,-565.4437 381.9651,-561.051 414.7623,-557.639"/>
<polygon fill="#9a32cd" stroke="#9a32cd" points="294.0829,-568.0252 284.6449,-572.8393 295.025,-574.9615 294.0829,-568.0252"/>
<text text-anchor="middle" x="351.5" y="-573" font-family="Helvetica,sans-Serif" font-size="10.00" fill="#000000"> on_after_write_cb_</text>
</g>
<!-- Node25 -->
<g id="node25" class="node">
<title>Node25</title>
<g id="a_node25"><a xlink:href="class_uptane_1_1_hardware_identifier.html" target="_top" xlink:title="Uptane::HardwareIdentifier">
<polygon fill="#ffffff" stroke="#000000" points="143,-525.5 143,-544.5 277,-544.5 277,-525.5 143,-525.5"/>
<text text-anchor="middle" x="210" y="-532.5" font-family="Helvetica,sans-Serif" font-size="10.00" fill="#000000">Uptane::HardwareIdentifier</text>
</a>
</g>
</g>
<!-- Node25&#45;&gt;Node23 -->
<g id="edge29" class="edge">
<title>Node25&#45;&gt;Node23</title>
<path fill="none" stroke="#9a32cd" stroke-dasharray="5,2" d="M287.4615,-532.464C321.1761,-532.1217 361.1055,-532.7421 397,-536 409.7611,-537.1583 423.4845,-539.2311 436.0835,-541.4734"/>
<polygon fill="#9a32cd" stroke="#9a32cd" points="287.1621,-528.9676 277.2092,-532.5993 287.2545,-535.967 287.1621,-528.9676"/>
<text text-anchor="middle" x="351.5" y="-539" font-family="Helvetica,sans-Serif" font-size="10.00" fill="#000000"> hwid_</text>
</g>
<!-- Node26 -->
<g id="node26" class="node">
<title>Node26</title>
<g id="a_node26"><a xlink:href="class_uptane_1_1_ecu_serial.html" target="_top" xlink:title="Uptane::EcuSerial">
<polygon fill="#ffffff" stroke="#000000" points="162,-487.5 162,-506.5 258,-506.5 258,-487.5 162,-487.5"/>
<text text-anchor="middle" x="210" y="-494.5" font-family="Helvetica,sans-Serif" font-size="10.00" fill="#000000">Uptane::EcuSerial</text>
</a>
</g>
</g>
<!-- Node26&#45;&gt;Node23 -->
<g id="edge30" class="edge">
<title>Node26&#45;&gt;Node23</title>
<path fill="none" stroke="#9a32cd" stroke-dasharray="5,2" d="M268.4652,-499.1089C305.7063,-501.4646 354.7234,-506.4503 397,-517 420.1674,-522.7812 445.4034,-533.5715 462.2074,-541.4504"/>
<polygon fill="#9a32cd" stroke="#9a32cd" points="268.4769,-495.6036 258.289,-498.5117 268.0668,-502.5916 268.4769,-495.6036"/>
<text text-anchor="middle" x="351.5" y="-520" font-family="Helvetica,sans-Serif" font-size="10.00" fill="#000000"> serial_</text>
</g>
<!-- Node27 -->
<g id="node27" class="node">
<title>Node27</title>
<g id="a_node27"><a xlink:href="structopcuabridge_1_1_message_on_before_read_callback.html" target="_top" xlink:title="opcuabridge::MessageOnBefore\lReadCallback\&lt; opcuabridge\l::Configuration \&gt;">
<polygon fill="#ffffff" stroke="#000000" points="132,-427.5 132,-468.5 288,-468.5 288,-427.5 132,-427.5"/>
<text text-anchor="start" x="140" y="-456.5" font-family="Helvetica,sans-Serif" font-size="10.00" fill="#000000">opcuabridge::MessageOnBefore</text>
<text text-anchor="start" x="140" y="-445.5" font-family="Helvetica,sans-Serif" font-size="10.00" fill="#000000">ReadCallback&lt; opcuabridge</text>
<text text-anchor="middle" x="210" y="-434.5" font-family="Helvetica,sans-Serif" font-size="10.00" fill="#000000">::Configuration &gt;</text>
</a>
</g>
</g>
<!-- Node27&#45;&gt;Node23 -->
<g id="edge32" class="edge">
<title>Node27&#45;&gt;Node23</title>
<path fill="none" stroke="#9a32cd" stroke-dasharray="5,2" d="M298.6281,-458.237C330.6104,-464.0433 366.3558,-473.0602 397,-487 427.1523,-500.716 456.6784,-526.7845 471.5521,-541.0538"/>
<polygon fill="#9a32cd" stroke="#9a32cd" points="298.8385,-454.7213 288.3877,-456.4624 297.6432,-461.6185 298.8385,-454.7213"/>
<text text-anchor="middle" x="351.5" y="-490" font-family="Helvetica,sans-Serif" font-size="10.00" fill="#000000"> on_before_read_cb_</text>
</g>
<!-- Node28 -->
<g id="node28" class="node">
<title>Node28</title>
<g id="a_node28"><a xlink:href="classopcuabridge_1_1_metadata_files.html" target="_top" xlink:title="opcuabridge::MetadataFiles">
<polygon fill="#ffffff" stroke="#000000" points="1727.5,-71.5 1727.5,-90.5 1864.5,-90.5 1864.5,-71.5 1727.5,-71.5"/>
<text text-anchor="middle" x="1796" y="-78.5" font-family="Helvetica,sans-Serif" font-size="10.00" fill="#000000">opcuabridge::MetadataFiles</text>
</a>
</g>
</g>
<!-- Node28&#45;&gt;Node1 -->
<g id="edge33" class="edge">
<title>Node28&#45;&gt;Node1</title>
<path fill="none" stroke="#9a32cd" stroke-dasharray="5,2" d="M1812.6173,-98.0959C1845.3873,-132.4079 1919.4557,-212.9856 1969,-290 2006.136,-347.7262 2037.719,-424.5341 2048.257,-451.3076"/>
<polygon fill="#9a32cd" stroke="#9a32cd" points="1815.0198,-95.5446 1805.5662,-90.7613 1809.9735,-100.396 1815.0198,-95.5446"/>
<text text-anchor="middle" x="1928" y="-293" font-family="Helvetica,sans-Serif" font-size="10.00" fill="#000000"> metadatafiles_</text>
</g>
<!-- Node29 -->
<g id="node29" class="node">
<title>Node29</title>
<g id="a_node29"><a xlink:href="structopcuabridge_1_1_message_on_before_read_callback.html" target="_top" xlink:title="opcuabridge::MessageOnBefore\lReadCallback\&lt; opcuabridge\l::MetadataFiles \&gt;">
<polygon fill="#ffffff" stroke="#000000" points="1430.5,-60.5 1430.5,-101.5 1586.5,-101.5 1586.5,-60.5 1430.5,-60.5"/>
<text text-anchor="start" x="1438.5" y="-89.5" font-family="Helvetica,sans-Serif" font-size="10.00" fill="#000000">opcuabridge::MessageOnBefore</text>
<text text-anchor="start" x="1438.5" y="-78.5" font-family="Helvetica,sans-Serif" font-size="10.00" fill="#000000">ReadCallback&lt; opcuabridge</text>
<text text-anchor="middle" x="1508.5" y="-67.5" font-family="Helvetica,sans-Serif" font-size="10.00" fill="#000000">::MetadataFiles &gt;</text>
</a>
</g>
</g>
<!-- Node29&#45;&gt;Node28 -->
<g id="edge34" class="edge">
<title>Node29&#45;&gt;Node28</title>
<path fill="none" stroke="#9a32cd" stroke-dasharray="5,2" d="M1596.883,-81C1638.7779,-81 1688.0789,-81 1727.1423,-81"/>
<polygon fill="#9a32cd" stroke="#9a32cd" points="1596.6809,-77.5001 1586.6809,-81 1596.6808,-84.5001 1596.6809,-77.5001"/>
<text text-anchor="middle" x="1657.5" y="-84" font-family="Helvetica,sans-Serif" font-size="10.00" fill="#000000"> on_before_read_cb_</text>
</g>
<!-- Node30 -->
<g id="node30" class="node">
<title>Node30</title>
<g id="a_node30"><a xlink:href="structopcuabridge_1_1_message_on_after_write_callback.html" target="_top" xlink:title="opcuabridge::MessageOnAfter\lWriteCallback\&lt; opcuabridge\l::MetadataFiles \&gt;">
<polygon fill="#ffffff" stroke="#000000" points="1434,-.5 1434,-41.5 1583,-41.5 1583,-.5 1434,-.5"/>
<text text-anchor="start" x="1442" y="-29.5" font-family="Helvetica,sans-Serif" font-size="10.00" fill="#000000">opcuabridge::MessageOnAfter</text>
<text text-anchor="start" x="1442" y="-18.5" font-family="Helvetica,sans-Serif" font-size="10.00" fill="#000000">WriteCallback&lt; opcuabridge</text>
<text text-anchor="middle" x="1508.5" y="-7.5" font-family="Helvetica,sans-Serif" font-size="10.00" fill="#000000">::MetadataFiles &gt;</text>
</a>
</g>
</g>
<!-- Node30&#45;&gt;Node28 -->
<g id="edge35" class="edge">
<title>Node30&#45;&gt;Node28</title>
<path fill="none" stroke="#9a32cd" stroke-dasharray="5,2" d="M1593.3884,-38.7158C1644.7546,-49.4358 1708.2415,-62.6852 1750.3132,-71.4654"/>
<polygon fill="#9a32cd" stroke="#9a32cd" points="1593.7909,-35.2245 1583.2867,-36.6077 1592.3608,-42.0769 1593.7909,-35.2245"/>
<text text-anchor="middle" x="1657.5" y="-64" font-family="Helvetica,sans-Serif" font-size="10.00" fill="#000000"> on_after_write_cb_</text>
</g>
<!-- Node31&#45;&gt;Node1 -->
<g id="edge36" class="edge">
<title>Node31&#45;&gt;Node1</title>
<path fill="none" stroke="#9a32cd" stroke-dasharray="5,2" d="M1859.7626,-461C1898.4233,-461 1947.6382,-461 1986.5928,-461"/>
<polygon fill="#9a32cd" stroke="#9a32cd" points="1859.666,-457.5001 1849.666,-461 1859.666,-464.5001 1859.666,-457.5001"/>
<text text-anchor="middle" x="1928" y="-464" font-family="Helvetica,sans-Serif" font-size="10.00" fill="#000000"> file_list_</text>
</g>
<!-- Node32 -->
<g id="node32" class="node">
<title>Node32</title>
<g id="a_node32"><a xlink:href="structopcuabridge_1_1_message_on_before_read_callback.html" target="_top" xlink:title="opcuabridge::MessageOnBefore\lReadCallback\&lt; opcuabridge\l::FileList \&gt;">
<polygon fill="#ffffff" stroke="#000000" points="1430.5,-496.5 1430.5,-537.5 1586.5,-537.5 1586.5,-496.5 1430.5,-496.5"/>
<text text-anchor="start" x="1438.5" y="-525.5" font-family="Helvetica,sans-Serif" font-size="10.00" fill="#000000">opcuabridge::MessageOnBefore</text>
<text text-anchor="start" x="1438.5" y="-514.5" font-family="Helvetica,sans-Serif" font-size="10.00" fill="#000000">ReadCallback&lt; opcuabridge</text>
<text text-anchor="middle" x="1508.5" y="-503.5" font-family="Helvetica,sans-Serif" font-size="10.00" fill="#000000">::FileList &gt;</text>
</a>
</g>
</g>
<!-- Node32&#45;&gt;Node31 -->
<g id="edge37" class="edge">
<title>Node32&#45;&gt;Node31</title>
<path fill="none" stroke="#9a32cd" stroke-dasharray="5,2" d="M1596.7501,-499.8104C1646.229,-490.1728 1706.0718,-478.5164 1747.1812,-470.509"/>
<polygon fill="#9a32cd" stroke="#9a32cd" points="1595.8272,-496.4243 1586.6809,-501.7717 1597.1656,-503.2952 1595.8272,-496.4243"/>
<text text-anchor="middle" x="1657.5" y="-498" font-family="Helvetica,sans-Serif" font-size="10.00" fill="#000000"> on_before_read_cb_</text>
</g>
<!-- Node33 -->
<g id="node33" class="node">
<title>Node33</title>
<g id="a_node33"><a xlink:href="structopcuabridge_1_1_message_on_after_write_callback.html" target="_top" xlink:title="opcuabridge::MessageOnAfter\lWriteCallback\&lt; opcuabridge\l::FileList \&gt;">
<polygon fill="#ffffff" stroke="#000000" points="1434,-436.5 1434,-477.5 1583,-477.5 1583,-436.5 1434,-436.5"/>
<text text-anchor="start" x="1442" y="-465.5" font-family="Helvetica,sans-Serif" font-size="10.00" fill="#000000">opcuabridge::MessageOnAfter</text>
<text text-anchor="start" x="1442" y="-454.5" font-family="Helvetica,sans-Serif" font-size="10.00" fill="#000000">WriteCallback&lt; opcuabridge</text>
<text text-anchor="middle" x="1508.5" y="-443.5" font-family="Helvetica,sans-Serif" font-size="10.00" fill="#000000">::FileList &gt;</text>
</a>
</g>
</g>
<!-- Node33&#45;&gt;Node31 -->
<g id="edge38" class="edge">
<title>Node33&#45;&gt;Node31</title>
<path fill="none" stroke="#9a32cd" stroke-dasharray="5,2" d="M1593.4127,-458.1814C1641.673,-458.8528 1700.6263,-459.6731 1742.4659,-460.2552"/>
<polygon fill="#9a32cd" stroke="#9a32cd" points="1593.3345,-454.6801 1583.2867,-458.0405 1593.237,-461.6794 1593.3345,-454.6801"/>
<text text-anchor="middle" x="1657.5" y="-462" font-family="Helvetica,sans-Serif" font-size="10.00" fill="#000000"> on_after_write_cb_</text>
</g>
<!-- Node34&#45;&gt;Node1 -->
<g id="edge40" class="edge">
<title>Node34&#45;&gt;Node1</title>
<path fill="none" stroke="#9a32cd" stroke-dasharray="5,2" d="M1834.6798,-388.8429C1886.4493,-406.032 1977.0879,-436.1269 2023.2367,-451.4497"/>
<polygon fill="#9a32cd" stroke="#9a32cd" points="1835.4623,-385.4149 1824.8688,-385.5854 1833.2564,-392.0583 1835.4623,-385.4149"/>
<text text-anchor="middle" x="1928" y="-434" font-family="Helvetica,sans-Serif" font-size="10.00" fill="#000000"> original_manifest_</text>
</g>
<!-- Node35 -->
<g id="node35" class="node">
<title>Node35</title>
<g id="a_node35"><a xlink:href="structopcuabridge_1_1_message_on_before_read_callback.html" target="_top" xlink:title="opcuabridge::MessageOnBefore\lReadCallback\&lt; opcuabridge\l::OriginalManifest \&gt;">
<polygon fill="#ffffff" stroke="#000000" points="1430.5,-338.5 1430.5,-379.5 1586.5,-379.5 1586.5,-338.5 1430.5,-338.5"/>
<text text-anchor="start" x="1438.5" y="-367.5" font-family="Helvetica,sans-Serif" font-size="10.00" fill="#000000">opcuabridge::MessageOnBefore</text>
<text text-anchor="start" x="1438.5" y="-356.5" font-family="Helvetica,sans-Serif" font-size="10.00" fill="#000000">ReadCallback&lt; opcuabridge</text>
<text text-anchor="middle" x="1508.5" y="-345.5" font-family="Helvetica,sans-Serif" font-size="10.00" fill="#000000">::OriginalManifest &gt;</text>
</a>
</g>
</g>
<!-- Node35&#45;&gt;Node34 -->
<g id="edge41" class="edge">
<title>Node35&#45;&gt;Node34</title>
<path fill="none" stroke="#9a32cd" stroke-dasharray="5,2" d="M1596.915,-356.2811C1630.7827,-356.0698 1669.7422,-356.8336 1705,-360 1719.8583,-361.3344 1735.9307,-363.8108 1750.3741,-366.4234"/>
<polygon fill="#9a32cd" stroke="#9a32cd" points="1596.5448,-352.7843 1586.5775,-356.3764 1596.6094,-359.784 1596.5448,-352.7843"/>
<text text-anchor="middle" x="1657.5" y="-363" font-family="Helvetica,sans-Serif" font-size="10.00" fill="#000000"> on_before_read_cb_</text>
</g>
<!-- Node36 -->
<g id="node36" class="node">
<title>Node36</title>
<g id="a_node36"><a xlink:href="structopcuabridge_1_1_message_on_after_write_callback.html" target="_top" xlink:title="opcuabridge::MessageOnAfter\lWriteCallback\&lt; opcuabridge\l::OriginalManifest \&gt;">
<polygon fill="#ffffff" stroke="#000000" points="1434,-278.5 1434,-319.5 1583,-319.5 1583,-278.5 1434,-278.5"/>
<text text-anchor="start" x="1442" y="-307.5" font-family="Helvetica,sans-Serif" font-size="10.00" fill="#000000">opcuabridge::MessageOnAfter</text>
<text text-anchor="start" x="1442" y="-296.5" font-family="Helvetica,sans-Serif" font-size="10.00" fill="#000000">WriteCallback&lt; opcuabridge</text>
<text text-anchor="middle" x="1508.5" y="-285.5" font-family="Helvetica,sans-Serif" font-size="10.00" fill="#000000">::OriginalManifest &gt;</text>
</a>
</g>
</g>
<!-- Node36&#45;&gt;Node34 -->
<g id="edge42" class="edge">
<title>Node36&#45;&gt;Node34</title>
<path fill="none" stroke="#9a32cd" stroke-dasharray="5,2" d="M1593.5201,-314.1486C1628.3796,-321.1399 1668.9341,-330.2817 1705,-341 1729.0137,-348.1365 1755.6764,-358.7195 1773.8991,-366.3786"/>
<polygon fill="#9a32cd" stroke="#9a32cd" points="1593.8623,-310.6486 1583.3732,-312.1417 1592.504,-317.5156 1593.8623,-310.6486"/>
<text text-anchor="middle" x="1657.5" y="-344" font-family="Helvetica,sans-Serif" font-size="10.00" fill="#000000"> on_after_write_cb_</text>
</g>
</g>
</svg>
