<?xml version="1.0" encoding="UTF-8" standalone="no"?>
<!DOCTYPE svg PUBLIC "-//W3C//DTD SVG 1.1//EN"
 "http://www.w3.org/Graphics/SVG/1.1/DTD/svg11.dtd">
<!-- Generated by graphviz version 2.40.1 (20161225.0304)
 -->
<!-- Title: UptaneConfig Pages: 1 -->
<svg width="197pt" height="363pt"
 viewBox="0.00 0.00 197.00 363.00" xmlns="http://www.w3.org/2000/svg" xmlns:xlink="http://www.w3.org/1999/xlink">
<g id="graph0" class="graph" transform="scale(1 1) rotate(0) translate(4 359)">
<title>UptaneConfig</title>
<polygon fill="#ffffff" stroke="transparent" points="-4,4 -4,-359 193,-359 193,4 -4,4"/>
<!-- Node1 -->
<g id="node1" class="node">
<title>Node1</title>
<polygon fill="#bfbfbf" stroke="#000000" points="9,-.5 9,-19.5 86,-19.5 86,-.5 9,-.5"/>
<text text-anchor="middle" x="47.5" y="-7.5" font-family="Helvetica,sans-Serif" font-size="10.00" fill="#000000">UptaneConfig</text>
</g>
<!-- Node2 -->
<g id="node2" class="node">
<title>Node2</title>
<g id="a_node2"><a xlink:title="STL class. ">
<polygon fill="#ffffff" stroke="#bfbfbf" points="17.5,-267.5 17.5,-286.5 77.5,-286.5 77.5,-267.5 17.5,-267.5"/>
<text text-anchor="middle" x="47.5" y="-274.5" font-family="Helvetica,sans-Serif" font-size="10.00" fill="#000000">std::string</text>
</a>
</g>
</g>
<!-- Node2&#45;&gt;Node1 -->
<g id="edge1" class="edge">
<title>Node2&#45;&gt;Node1</title>
<path fill="none" stroke="#9a32cd" stroke-dasharray="5,2" d="M47.5,-257.3519C47.5,-204.1302 47.5,-58.571 47.5,-19.6678"/>
<polygon fill="#9a32cd" stroke="#9a32cd" points="44.0001,-257.4973 47.5,-267.4973 51.0001,-257.4974 44.0001,-257.4973"/>
<text text-anchor="middle" x="80" y="-130" font-family="Helvetica,sans-Serif" font-size="10.00" fill="#000000"> repo_server</text>
<text text-anchor="middle" x="80" y="-119" font-family="Helvetica,sans-Serif" font-size="10.00" fill="#000000">director_server</text>
</g>
<!-- Node5 -->
<g id="node5" class="node">
<title>Node5</title>
<g id="a_node5"><a xlink:href="class_uptane_1_1_secondary_config.html" target="_top" xlink:title="Uptane::SecondaryConfig">
<polygon fill="#ffffff" stroke="#000000" points="60,-156.5 60,-175.5 189,-175.5 189,-156.5 60,-156.5"/>
<text text-anchor="middle" x="124.5" y="-163.5" font-family="Helvetica,sans-Serif" font-size="10.00" fill="#000000">Uptane::SecondaryConfig</text>
</a>
</g>
</g>
<!-- Node2&#45;&gt;Node5 -->
<g id="edge5" class="edge">
<title>Node2&#45;&gt;Node5</title>
<path fill="none" stroke="#9a32cd" stroke-dasharray="5,2" d="M60.2284,-258.6513C76.7439,-234.8431 104.9592,-194.1692 117.792,-175.6699"/>
<polygon fill="#9a32cd" stroke="#9a32cd" points="57.1573,-256.9379 54.3332,-267.1495 62.9089,-260.9278 57.1573,-256.9379"/>
<text text-anchor="middle" x="141" y="-241" font-family="Helvetica,sans-Serif" font-size="10.00" fill="#000000"> ecu_private_key</text>
<text text-anchor="middle" x="141" y="-230" font-family="Helvetica,sans-Serif" font-size="10.00" fill="#000000">ecu_hardware_id</text>
<text text-anchor="middle" x="141" y="-219" font-family="Helvetica,sans-Serif" font-size="10.00" fill="#000000">ecu_serial</text>
<text text-anchor="middle" x="141" y="-208" font-family="Helvetica,sans-Serif" font-size="10.00" fill="#000000">opcua_lds_url</text>
<text text-anchor="middle" x="141" y="-197" font-family="Helvetica,sans-Serif" font-size="10.00" fill="#000000">ecu_public_key</text>
</g>
<!-- Node3 -->
<g id="node3" class="node">
<title>Node3</title>
<g id="a_node3"><a xlink:title="STL class. ">
<polygon fill="#ffffff" stroke="#bfbfbf" points="0,-324.5 0,-354.5 95,-354.5 95,-324.5 0,-324.5"/>
<text text-anchor="start" x="8" y="-342.5" font-family="Helvetica,sans-Serif" font-size="10.00" fill="#000000">std::basic_string&lt;</text>
<text text-anchor="middle" x="47.5" y="-331.5" font-family="Helvetica,sans-Serif" font-size="10.00" fill="#000000"> char &gt;</text>
</a>
</g>
</g>
<!-- Node3&#45;&gt;Node2 -->
<g id="edge2" class="edge">
<title>Node3&#45;&gt;Node2</title>
<path fill="none" stroke="#191970" d="M47.5,-314.3498C47.5,-304.6481 47.5,-294.1303 47.5,-286.7356"/>
<polygon fill="#191970" stroke="#191970" points="44.0001,-314.3705 47.5,-324.3705 51.0001,-314.3705 44.0001,-314.3705"/>
</g>
<!-- Node4 -->
<g id="node4" class="node">
<title>Node4</title>
<polygon fill="#ffffff" stroke="#bfbfbf" points="63,-67.5 63,-97.5 170,-97.5 170,-67.5 63,-67.5"/>
<text text-anchor="start" x="71" y="-85.5" font-family="Helvetica,sans-Serif" font-size="10.00" fill="#000000">std::vector&lt; Uptane</text>
<text text-anchor="middle" x="116.5" y="-74.5" font-family="Helvetica,sans-Serif" font-size="10.00" fill="#000000">::SecondaryConfig &gt;</text>
</g>
<!-- Node4&#45;&gt;Node1 -->
<g id="edge3" class="edge">
<title>Node4&#45;&gt;Node1</title>
<path fill="none" stroke="#9a32cd" stroke-dasharray="5,2" d="M95.0645,-59.9772C82.2778,-46.5419 66.6818,-30.1548 56.9179,-19.8957"/>
<polygon fill="#9a32cd" stroke="#9a32cd" points="92.7737,-62.6471 102.2032,-67.478 97.8444,-57.8212 92.7737,-62.6471"/>
<text text-anchor="middle" x="126" y="-41" font-family="Helvetica,sans-Serif" font-size="10.00" fill="#000000"> secondary_configs</text>
</g>
<!-- Node5&#45;&gt;Node4 -->
<g id="edge4" class="edge">
<title>Node5&#45;&gt;Node4</title>
<path fill="none" stroke="#9a32cd" stroke-dasharray="5,2" d="M122.6071,-146.2427C121.1798,-131.345 119.2515,-111.2186 117.9464,-97.597"/>
<polygon fill="#9a32cd" stroke="#9a32cd" points="119.1444,-146.8009 123.5823,-156.4215 126.1125,-146.1332 119.1444,-146.8009"/>
<text text-anchor="middle" x="143" y="-124.5" font-family="Helvetica,sans-Serif" font-size="10.00" fill="#000000"> elements</text>
</g>
</g>
</svg>
