<?xml version="1.0" encoding="UTF-8" standalone="no"?>
<!DOCTYPE svg PUBLIC "-//W3C//DTD SVG 1.1//EN"
 "http://www.w3.org/Graphics/SVG/1.1/DTD/svg11.dtd">
<!-- Generated by graphviz version 2.40.1 (20161225.0304)
 -->
<!-- Title: Uptane::MetaPack Pages: 1 -->
<svg width="453pt" height="251pt"
 viewBox="0.00 0.00 452.50 251.00" xmlns="http://www.w3.org/2000/svg" xmlns:xlink="http://www.w3.org/1999/xlink">
<g id="graph0" class="graph" transform="scale(1 1) rotate(0) translate(4 247)">
<title>Uptane::MetaPack</title>
<polygon fill="#ffffff" stroke="transparent" points="-4,4 -4,-247 448.5,-247 448.5,4 -4,4"/>
<!-- Node1 -->
<g id="node1" class="node">
<title>Node1</title>
<polygon fill="#bfbfbf" stroke="#000000" points="181.5,-.5 181.5,-19.5 279.5,-19.5 279.5,-.5 181.5,-.5"/>
<text text-anchor="middle" x="230.5" y="-7.5" font-family="Helvetica,sans-Serif" font-size="10.00" fill="#000000">Uptane::MetaPack</text>
</g>
<!-- Node2 -->
<g id="node2" class="node">
<title>Node2</title>
<g id="a_node2"><a xlink:href="class_uptane_1_1_targets.html" target="_top" xlink:title="Uptane::Targets">
<polygon fill="#ffffff" stroke="#000000" points="349,-78.5 349,-97.5 436,-97.5 436,-78.5 349,-78.5"/>
<text text-anchor="middle" x="392.5" y="-85.5" font-family="Helvetica,sans-Serif" font-size="10.00" fill="#000000">Uptane::Targets</text>
</a>
</g>
</g>
<!-- Node2&#45;&gt;Node1 -->
<g id="edge1" class="edge">
<title>Node2&#45;&gt;Node1</title>
<path fill="none" stroke="#9a32cd" stroke-dasharray="5,2" d="M378.694,-70.33C369.3124,-59.4763 356.0056,-46.1386 341.5,-38 322.6073,-27.4 299.6798,-20.7505 279.5784,-16.609"/>
<polygon fill="#9a32cd" stroke="#9a32cd" points="376.2567,-72.8751 385.3243,-78.3551 381.6532,-68.4166 376.2567,-72.8751"/>
<text text-anchor="middle" x="405" y="-52" font-family="Helvetica,sans-Serif" font-size="10.00" fill="#000000"> director_targets</text>
<text text-anchor="middle" x="405" y="-41" font-family="Helvetica,sans-Serif" font-size="10.00" fill="#000000">image_targets</text>
</g>
<!-- Node3 -->
<g id="node3" class="node">
<title>Node3</title>
<g id="a_node3"><a xlink:href="class_uptane_1_1_base_meta.html" target="_top" xlink:title="Uptane::BaseMeta">
<polygon fill="#ffffff" stroke="#000000" points="175.5,-151 175.5,-170 273.5,-170 273.5,-151 175.5,-151"/>
<text text-anchor="middle" x="224.5" y="-158" font-family="Helvetica,sans-Serif" font-size="10.00" fill="#000000">Uptane::BaseMeta</text>
</a>
</g>
</g>
<!-- Node3&#45;&gt;Node2 -->
<g id="edge2" class="edge">
<title>Node3&#45;&gt;Node2</title>
<path fill="none" stroke="#191970" d="M256.1082,-146.8596C289.4517,-132.4702 341.1289,-110.1691 370.3662,-97.5518"/>
<polygon fill="#191970" stroke="#191970" points="254.6038,-143.6967 246.8091,-150.8726 257.3775,-150.1238 254.6038,-143.6967"/>
</g>
<!-- Node7 -->
<g id="node7" class="node">
<title>Node7</title>
<g id="a_node7"><a xlink:href="class_uptane_1_1_snapshot.html" target="_top" xlink:title="Uptane::Snapshot">
<polygon fill="#ffffff" stroke="#000000" points="0,-78.5 0,-97.5 95,-97.5 95,-78.5 0,-78.5"/>
<text text-anchor="middle" x="47.5" y="-85.5" font-family="Helvetica,sans-Serif" font-size="10.00" fill="#000000">Uptane::Snapshot</text>
</a>
</g>
</g>
<!-- Node3&#45;&gt;Node7 -->
<g id="edge7" class="edge">
<title>Node3&#45;&gt;Node7</title>
<path fill="none" stroke="#191970" d="M191.6497,-147.0444C156.5365,-132.6619 101.7553,-110.2232 70.8195,-97.5518"/>
<polygon fill="#191970" stroke="#191970" points="190.4153,-150.3209 200.9958,-150.8726 193.0686,-143.8433 190.4153,-150.3209"/>
</g>
<!-- Node8 -->
<g id="node8" class="node">
<title>Node8</title>
<g id="a_node8"><a xlink:href="class_uptane_1_1_timestamp_meta.html" target="_top" xlink:title="Uptane::TimestampMeta">
<polygon fill="#ffffff" stroke="#000000" points="113,-78.5 113,-97.5 238,-97.5 238,-78.5 113,-78.5"/>
<text text-anchor="middle" x="175.5" y="-85.5" font-family="Helvetica,sans-Serif" font-size="10.00" fill="#000000">Uptane::TimestampMeta</text>
</a>
</g>
</g>
<!-- Node3&#45;&gt;Node8 -->
<g id="edge9" class="edge">
<title>Node3&#45;&gt;Node8</title>
<path fill="none" stroke="#191970" d="M212.1632,-142.2466C202.5802,-128.0677 189.6707,-108.9668 182.0037,-97.6228"/>
<polygon fill="#191970" stroke="#191970" points="209.3921,-144.397 217.8916,-150.7223 215.1918,-140.4773 209.3921,-144.397"/>
</g>
<!-- Node9 -->
<g id="node9" class="node">
<title>Node9</title>
<g id="a_node9"><a xlink:href="class_uptane_1_1_root.html" target="_top" xlink:title="Uptane::Root">
<polygon fill="#ffffff" stroke="#000000" points="256,-78.5 256,-97.5 331,-97.5 331,-78.5 256,-78.5"/>
<text text-anchor="middle" x="293.5" y="-85.5" font-family="Helvetica,sans-Serif" font-size="10.00" fill="#000000">Uptane::Root</text>
</a>
</g>
</g>
<!-- Node3&#45;&gt;Node9 -->
<g id="edge11" class="edge">
<title>Node3&#45;&gt;Node9</title>
<path fill="none" stroke="#191970" d="M240.7273,-143.4495C254.3218,-129.1655 273.2369,-109.2909 284.3418,-97.6228"/>
<polygon fill="#191970" stroke="#191970" points="238.1644,-141.0656 233.8056,-150.7223 243.2351,-145.8915 238.1644,-141.0656"/>
</g>
<!-- Node4 -->
<g id="node4" class="node">
<title>Node4</title>
<g id="a_node4"><a xlink:href="class_time_stamp.html" target="_top" xlink:title="TimeStamp">
<polygon fill="#ffffff" stroke="#000000" points="191,-223.5 191,-242.5 258,-242.5 258,-223.5 191,-223.5"/>
<text text-anchor="middle" x="224.5" y="-230.5" font-family="Helvetica,sans-Serif" font-size="10.00" fill="#000000">TimeStamp</text>
</a>
</g>
</g>
<!-- Node4&#45;&gt;Node3 -->
<g id="edge3" class="edge">
<title>Node4&#45;&gt;Node3</title>
<path fill="none" stroke="#9a32cd" stroke-dasharray="5,2" d="M224.5,-213.1054C224.5,-199.1237 224.5,-181.0346 224.5,-170.1228"/>
<polygon fill="#9a32cd" stroke="#9a32cd" points="221.0001,-213.2223 224.5,-223.2223 228.0001,-213.2224 221.0001,-213.2223"/>
<text text-anchor="middle" x="242" y="-197" font-family="Helvetica,sans-Serif" font-size="10.00" fill="#000000"> expiry_</text>
</g>
<!-- Node5 -->
<g id="node5" class="node">
<title>Node5</title>
<polygon fill="#ffffff" stroke="#bfbfbf" points="340.5,-145.5 340.5,-175.5 444.5,-175.5 444.5,-145.5 340.5,-145.5"/>
<text text-anchor="start" x="348.5" y="-163.5" font-family="Helvetica,sans-Serif" font-size="10.00" fill="#000000">std::vector&lt; Uptane</text>
<text text-anchor="middle" x="392.5" y="-152.5" font-family="Helvetica,sans-Serif" font-size="10.00" fill="#000000">::Target &gt;</text>
</g>
<!-- Node5&#45;&gt;Node2 -->
<g id="edge4" class="edge">
<title>Node5&#45;&gt;Node2</title>
<path fill="none" stroke="#9a32cd" stroke-dasharray="5,2" d="M392.5,-135.305C392.5,-122.424 392.5,-107.4836 392.5,-97.8957"/>
<polygon fill="#9a32cd" stroke="#9a32cd" points="389.0001,-135.4779 392.5,-145.478 396.0001,-135.478 389.0001,-135.4779"/>
<text text-anchor="middle" x="409.5" y="-119" font-family="Helvetica,sans-Serif" font-size="10.00" fill="#000000"> targets</text>
</g>
<!-- Node6 -->
<g id="node6" class="node">
<title>Node6</title>
<g id="a_node6"><a xlink:href="class_uptane_1_1_target.html" target="_top" xlink:title="Uptane::Target">
<polygon fill="#ffffff" stroke="#000000" points="351.5,-223.5 351.5,-242.5 433.5,-242.5 433.5,-223.5 351.5,-223.5"/>
<text text-anchor="middle" x="392.5" y="-230.5" font-family="Helvetica,sans-Serif" font-size="10.00" fill="#000000">Uptane::Target</text>
</a>
</g>
</g>
<!-- Node6&#45;&gt;Node5 -->
<g id="edge5" class="edge">
<title>Node6&#45;&gt;Node5</title>
<path fill="none" stroke="#9a32cd" stroke-dasharray="5,2" d="M392.5,-213.0177C392.5,-201.2164 392.5,-186.513 392.5,-175.668"/>
<polygon fill="#9a32cd" stroke="#9a32cd" points="389.0001,-213.2223 392.5,-223.2223 396.0001,-213.2224 389.0001,-213.2223"/>
<text text-anchor="middle" x="414" y="-197" font-family="Helvetica,sans-Serif" font-size="10.00" fill="#000000"> elements</text>
</g>
<!-- Node7&#45;&gt;Node1 -->
<g id="edge6" class="edge">
<title>Node7&#45;&gt;Node1</title>
<path fill="none" stroke="#9a32cd" stroke-dasharray="5,2" d="M61.2619,-70.4776C70.8286,-59.4945 84.5157,-45.9575 99.5,-38 124.6616,-24.6378 155.7388,-17.6523 181.3087,-14.0004"/>
<polygon fill="#9a32cd" stroke="#9a32cd" points="58.5046,-68.3193 54.7961,-78.2439 63.8842,-72.7981 58.5046,-68.3193"/>
<text text-anchor="middle" x="137" y="-46.5" font-family="Helvetica,sans-Serif" font-size="10.00" fill="#000000"> image_snapshot</text>
</g>
<!-- Node8&#45;&gt;Node1 -->
<g id="edge8" class="edge">
<title>Node8&#45;&gt;Node1</title>
<path fill="none" stroke="#9a32cd" stroke-dasharray="5,2" d="M176.3205,-68.2085C177.5598,-58.3901 180.3562,-46.7847 186.5,-38 191.8969,-30.2833 200.1705,-24.2154 208.0928,-19.7301"/>
<polygon fill="#9a32cd" stroke="#9a32cd" points="172.823,-68.0345 175.4873,-78.2889 179.7992,-68.6112 172.823,-68.0345"/>
<text text-anchor="middle" x="227" y="-46.5" font-family="Helvetica,sans-Serif" font-size="10.00" fill="#000000"> image_timestamp</text>
</g>
<!-- Node9&#45;&gt;Node1 -->
<g id="edge10" class="edge">
<title>Node9&#45;&gt;Node1</title>
<path fill="none" stroke="#9a32cd" stroke-dasharray="5,2" d="M286.0478,-69.0301C281.5905,-59.1357 275.2771,-47.2099 267.5,-38 261.4711,-30.8605 253.309,-24.4421 246.1847,-19.5573"/>
<polygon fill="#9a32cd" stroke="#9a32cd" points="282.8919,-70.5542 290.0043,-78.4069 289.3413,-67.8328 282.8919,-70.5542"/>
<text text-anchor="middle" x="310" y="-52" font-family="Helvetica,sans-Serif" font-size="10.00" fill="#000000"> image_root</text>
<text text-anchor="middle" x="310" y="-41" font-family="Helvetica,sans-Serif" font-size="10.00" fill="#000000">director_root</text>
</g>
</g>
</svg>
