<?xml version="1.0" encoding="UTF-8" standalone="no"?>
<!DOCTYPE svg PUBLIC "-//W3C//DTD SVG 1.1//EN"
 "http://www.w3.org/Graphics/SVG/1.1/DTD/svg11.dtd">
<!-- Generated by graphviz version 2.40.1 (20161225.0304)
 -->
<!-- Title: OSTreeRepo Pages: 1 -->
<svg width="132pt" height="173pt"
 viewBox="0.00 0.00 132.00 173.00" xmlns="http://www.w3.org/2000/svg" xmlns:xlink="http://www.w3.org/1999/xlink">
<g id="graph0" class="graph" transform="scale(1 1) rotate(0) translate(4 169)">
<title>OSTreeRepo</title>
<polygon fill="#ffffff" stroke="transparent" points="-4,4 -4,-169 128,-169 128,4 -4,4"/>
<!-- Node3 -->
<g id="node1" class="node">
<title>Node3</title>
<polygon fill="#bfbfbf" stroke="#000000" points="25,-.5 25,-19.5 99,-19.5 99,-.5 25,-.5"/>
<text text-anchor="middle" x="62" y="-7.5" font-family="Helvetica,sans-Serif" font-size="10.00" fill="#000000">OSTreeRepo</text>
</g>
<!-- Node4 -->
<g id="node2" class="node">
<title>Node4</title>
<polygon fill="#ffffff" stroke="#bfbfbf" points="0,-67.5 0,-97.5 124,-97.5 124,-67.5 0,-67.5"/>
<text text-anchor="start" x="8" y="-85.5" font-family="Helvetica,sans-Serif" font-size="10.00" fill="#000000">std::map&lt; OSTreeHash,</text>
<text text-anchor="middle" x="62" y="-74.5" font-family="Helvetica,sans-Serif" font-size="10.00" fill="#000000"> OSTreeObject::ptr &gt;</text>
</g>
<!-- Node4&#45;&gt;Node3 -->
<g id="edge1" class="edge">
<title>Node4&#45;&gt;Node3</title>
<path fill="none" stroke="#9a32cd" stroke-dasharray="5,2" d="M62,-57.305C62,-44.424 62,-29.4836 62,-19.8957"/>
<polygon fill="#9a32cd" stroke="#9a32cd" points="58.5001,-57.4779 62,-67.478 65.5001,-57.478 58.5001,-57.4779"/>
<text text-anchor="middle" x="90" y="-41" font-family="Helvetica,sans-Serif" font-size="10.00" fill="#000000"> ObjectTable</text>
</g>
<!-- Node5 -->
<g id="node3" class="node">
<title>Node5</title>
<g id="a_node3"><a xlink:href="class_o_s_tree_hash.html" target="_top" xlink:title="OSTreeHash">
<polygon fill="#ffffff" stroke="#000000" points="25,-145.5 25,-164.5 99,-164.5 99,-145.5 25,-145.5"/>
<text text-anchor="middle" x="62" y="-152.5" font-family="Helvetica,sans-Serif" font-size="10.00" fill="#000000">OSTreeHash</text>
</a>
</g>
</g>
<!-- Node5&#45;&gt;Node4 -->
<g id="edge2" class="edge">
<title>Node5&#45;&gt;Node4</title>
<path fill="none" stroke="#9a32cd" stroke-dasharray="5,2" d="M62,-135.0177C62,-123.2164 62,-108.513 62,-97.668"/>
<polygon fill="#9a32cd" stroke="#9a32cd" points="58.5001,-135.2223 62,-145.2223 65.5001,-135.2224 58.5001,-135.2223"/>
<text text-anchor="middle" x="74.5" y="-119" font-family="Helvetica,sans-Serif" font-size="10.00" fill="#000000"> keys</text>
</g>
</g>
</svg>
