<?xml version="1.0" encoding="UTF-8" standalone="no"?>
<!DOCTYPE svg PUBLIC "-//W3C//DTD SVG 1.1//EN"
 "http://www.w3.org/Graphics/SVG/1.1/DTD/svg11.dtd">
<!-- Generated by graphviz version 2.40.1 (20161225.0304)
 -->
<!-- Title: HttpInterface Pages: 1 -->
<svg width="340pt" height="560pt"
 viewBox="0.00 0.00 340.00 560.00" xmlns="http://www.w3.org/2000/svg" xmlns:xlink="http://www.w3.org/1999/xlink">
<g id="graph0" class="graph" transform="scale(1 1) rotate(0) translate(4 556)">
<title>HttpInterface</title>
<polygon fill="#ffffff" stroke="transparent" points="-4,4 -4,-556 336,-556 336,4 -4,4"/>
<!-- Node0 -->
<g id="node1" class="node">
<title>Node0</title>
<polygon fill="#bfbfbf" stroke="#000000" points="0,-266.5 0,-285.5 74,-285.5 74,-266.5 0,-266.5"/>
<text text-anchor="middle" x="37" y="-273.5" font-family="Helvetica,sans-Serif" font-size="10.00" fill="#000000">HttpInterface</text>
</g>
<!-- Node1 -->
<g id="node2" class="node">
<title>Node1</title>
<g id="a_node2"><a xlink:href="class_http_client.html" target="_top" xlink:title="HttpClient">
<polygon fill="#ffffff" stroke="#000000" points="110,-285.5 110,-304.5 171,-304.5 171,-285.5 110,-285.5"/>
<text text-anchor="middle" x="140.5" y="-292.5" font-family="Helvetica,sans-Serif" font-size="10.00" fill="#000000">HttpClient</text>
</a>
</g>
</g>
<!-- Node0&#45;&gt;Node1 -->
<g id="edge1" class="edge">
<title>Node0&#45;&gt;Node1</title>
<path fill="none" stroke="#191970" d="M84.1595,-284.6573C92.8707,-286.2565 101.7567,-287.8877 109.8197,-289.3679"/>
<polygon fill="#191970" stroke="#191970" points="84.5412,-281.169 74.0735,-282.8058 83.2772,-288.0539 84.5412,-281.169"/>
</g>
<!-- Node2 -->
<g id="node3" class="node">
<title>Node2</title>
<g id="a_node3"><a xlink:href="class_http_fake.html" target="_top" xlink:title="HttpFake">
<polygon fill="#ffffff" stroke="#000000" points="112,-247.5 112,-266.5 169,-266.5 169,-247.5 112,-247.5"/>
<text text-anchor="middle" x="140.5" y="-254.5" font-family="Helvetica,sans-Serif" font-size="10.00" fill="#000000">HttpFake</text>
</a>
</g>
</g>
<!-- Node0&#45;&gt;Node2 -->
<g id="edge2" class="edge">
<title>Node0&#45;&gt;Node2</title>
<path fill="none" stroke="#191970" d="M84.1652,-267.3417C93.5945,-265.6107 103.2284,-263.8421 111.8016,-262.2683"/>
<polygon fill="#191970" stroke="#191970" points="83.2772,-263.9461 74.0735,-269.1942 84.5412,-270.831 83.2772,-263.9461"/>
</g>
<!-- Node3 -->
<g id="node4" class="node">
<title>Node3</title>
<g id="a_node4"><a xlink:href="class_http_custom_uri.html" target="_top" xlink:title="HttpCustomUri">
<polygon fill="#ffffff" stroke="#000000" points="228,-532.5 228,-551.5 311,-551.5 311,-532.5 228,-532.5"/>
<text text-anchor="middle" x="269.5" y="-539.5" font-family="Helvetica,sans-Serif" font-size="10.00" fill="#000000">HttpCustomUri</text>
</a>
</g>
</g>
<!-- Node2&#45;&gt;Node3 -->
<g id="edge3" class="edge">
<title>Node2&#45;&gt;Node3</title>
<path fill="none" stroke="#191970" d="M168.9751,-273.2946C169.7064,-274.1587 170.3854,-275.0602 171,-276 231.7223,-368.8437 134.6701,-438.8837 207,-523 212.4717,-529.3633 220.0024,-533.6354 227.9445,-536.4936"/>
<polygon fill="#191970" stroke="#191970" points="171.1173,-270.5166 161.309,-266.5107 166.4784,-275.7588 171.1173,-270.5166"/>
</g>
<!-- Node4 -->
<g id="node5" class="node">
<title>Node4</title>
<g id="a_node5"><a xlink:href="class_http_default_uri.html" target="_top" xlink:title="HttpDefaultUri">
<polygon fill="#ffffff" stroke="#000000" points="229.5,-494.5 229.5,-513.5 309.5,-513.5 309.5,-494.5 229.5,-494.5"/>
<text text-anchor="middle" x="269.5" y="-501.5" font-family="Helvetica,sans-Serif" font-size="10.00" fill="#000000">HttpDefaultUri</text>
</a>
</g>
</g>
<!-- Node2&#45;&gt;Node4 -->
<g id="edge4" class="edge">
<title>Node2&#45;&gt;Node4</title>
<path fill="none" stroke="#191970" d="M168.9437,-273.3154C169.6839,-274.1736 170.3733,-275.0682 171,-276 223.607,-354.2103 144.6274,-414.3317 207,-485 212.8537,-491.6322 220.9424,-495.9868 229.3608,-498.8359"/>
<polygon fill="#191970" stroke="#191970" points="171.062,-270.5179 161.234,-266.5604 166.4489,-275.7829 171.062,-270.5179"/>
</g>
<!-- Node5 -->
<g id="node6" class="node">
<title>Node5</title>
<g id="a_node6"><a xlink:href="class_http_download_failure.html" target="_top" xlink:title="HttpDownloadFailure">
<polygon fill="#ffffff" stroke="#000000" points="215.5,-456.5 215.5,-475.5 323.5,-475.5 323.5,-456.5 215.5,-456.5"/>
<text text-anchor="middle" x="269.5" y="-463.5" font-family="Helvetica,sans-Serif" font-size="10.00" fill="#000000">HttpDownloadFailure</text>
</a>
</g>
</g>
<!-- Node2&#45;&gt;Node5 -->
<g id="edge5" class="edge">
<title>Node2&#45;&gt;Node5</title>
<path fill="none" stroke="#191970" d="M168.8994,-273.3458C169.6521,-274.1954 170.3562,-275.08 171,-276 215.5295,-339.6327 154.5399,-389.7292 207,-447 210.5238,-450.8469 214.7992,-453.9248 219.4423,-456.3858"/>
<polygon fill="#191970" stroke="#191970" points="170.9837,-270.5212 161.128,-266.6331 166.4079,-275.8186 170.9837,-270.5212"/>
</g>
<!-- Node6 -->
<g id="node7" class="node">
<title>Node6</title>
<g id="a_node7"><a xlink:href="class_http_fake_campaign.html" target="_top" xlink:title="HttpFakeCampaign">
<polygon fill="#ffffff" stroke="#000000" points="219,-418.5 219,-437.5 320,-437.5 320,-418.5 219,-418.5"/>
<text text-anchor="middle" x="269.5" y="-425.5" font-family="Helvetica,sans-Serif" font-size="10.00" fill="#000000">HttpFakeCampaign</text>
</a>
</g>
</g>
<!-- Node2&#45;&gt;Node6 -->
<g id="edge6" class="edge">
<title>Node2&#45;&gt;Node6</title>
<path fill="none" stroke="#191970" d="M168.4673,-273.0048C169.3756,-273.9595 170.2256,-274.9578 171,-276 207.5224,-325.1552 164.3695,-365.0368 207,-409 210.7896,-412.908 215.3553,-416.0185 220.2729,-418.4932"/>
<polygon fill="#191970" stroke="#191970" points="170.5881,-270.2168 160.6531,-266.5362 166.1244,-275.609 170.5881,-270.2168"/>
</g>
<!-- Node7 -->
<g id="node8" class="node">
<title>Node7</title>
<g id="a_node8"><a xlink:href="class_http_fake_delegation.html" target="_top" xlink:title="HttpFakeDelegation">
<polygon fill="#ffffff" stroke="#000000" points="217.5,-380.5 217.5,-399.5 321.5,-399.5 321.5,-380.5 217.5,-380.5"/>
<text text-anchor="middle" x="269.5" y="-387.5" font-family="Helvetica,sans-Serif" font-size="10.00" fill="#000000">HttpFakeDelegation</text>
</a>
</g>
</g>
<!-- Node2&#45;&gt;Node7 -->
<g id="edge7" class="edge">
<title>Node2&#45;&gt;Node7</title>
<path fill="none" stroke="#191970" d="M167.9382,-272.7134C169.0305,-273.7596 170.0592,-274.8554 171,-276 199.6695,-310.8823 174.0195,-340.1616 207,-371 211.1419,-374.8729 216.0501,-377.9577 221.2672,-380.4146"/>
<polygon fill="#191970" stroke="#191970" points="170.0948,-269.9567 160.0667,-266.538 165.7741,-275.4642 170.0948,-269.9567"/>
</g>
<!-- Node8 -->
<g id="node9" class="node">
<title>Node8</title>
<g id="a_node9"><a xlink:href="class_http_fake_event_counter.html" target="_top" xlink:title="HttpFakeEventCounter">
<polygon fill="#ffffff" stroke="#000000" points="211,-342.5 211,-361.5 328,-361.5 328,-342.5 211,-342.5"/>
<text text-anchor="middle" x="269.5" y="-349.5" font-family="Helvetica,sans-Serif" font-size="10.00" fill="#000000">HttpFakeEventCounter</text>
</a>
</g>
</g>
<!-- Node2&#45;&gt;Node8 -->
<g id="edge8" class="edge">
<title>Node2&#45;&gt;Node8</title>
<path fill="none" stroke="#191970" d="M167.1114,-272.4989C168.4758,-273.6219 169.7831,-274.7907 171,-276 192.2525,-297.1213 183.1706,-314.8358 207,-333 212.0509,-336.8501 217.8827,-339.9249 223.9122,-342.3795"/>
<polygon fill="#191970" stroke="#191970" points="169.0701,-269.5966 158.9065,-266.6047 164.986,-275.2817 169.0701,-269.5966"/>
</g>
<!-- Node9 -->
<g id="node10" class="node">
<title>Node9</title>
<g id="a_node10"><a xlink:href="class_http_fake_events.html" target="_top" xlink:title="HttpFakeEvents">
<polygon fill="#ffffff" stroke="#000000" points="225.5,-304.5 225.5,-323.5 313.5,-323.5 313.5,-304.5 225.5,-304.5"/>
<text text-anchor="middle" x="269.5" y="-311.5" font-family="Helvetica,sans-Serif" font-size="10.00" fill="#000000">HttpFakeEvents</text>
</a>
</g>
</g>
<!-- Node2&#45;&gt;Node9 -->
<g id="edge9" class="edge">
<title>Node2&#45;&gt;Node9</title>
<path fill="none" stroke="#191970" d="M165.227,-271.8984C180.4982,-280.9476 198.7085,-291.4245 207,-295 215.227,-298.5477 224.3283,-301.7152 232.9809,-304.3993"/>
<polygon fill="#191970" stroke="#191970" points="166.5946,-268.6389 156.2132,-266.5229 163.0092,-274.6509 166.5946,-268.6389"/>
</g>
<!-- Node10 -->
<g id="node11" class="node">
<title>Node10</title>
<g id="a_node11"><a xlink:href="class_http_fake_no_correlation_id.html" target="_top" xlink:title="HttpFakeNoCorrelationId">
<polygon fill="#ffffff" stroke="#000000" points="207,-266.5 207,-285.5 332,-285.5 332,-266.5 207,-266.5"/>
<text text-anchor="middle" x="269.5" y="-273.5" font-family="Helvetica,sans-Serif" font-size="10.00" fill="#000000">HttpFakeNoCorrelationId</text>
</a>
</g>
</g>
<!-- Node2&#45;&gt;Node10 -->
<g id="edge10" class="edge">
<title>Node2&#45;&gt;Node10</title>
<path fill="none" stroke="#191970" d="M179.0397,-262.6764C187.8259,-263.9705 197.3835,-265.3782 206.8865,-266.7779"/>
<polygon fill="#191970" stroke="#191970" points="179.5326,-259.2113 169.1293,-261.2167 178.5125,-266.1366 179.5326,-259.2113"/>
</g>
<!-- Node11 -->
<g id="node12" class="node">
<title>Node11</title>
<g id="a_node12"><a xlink:href="class_http_fake_pause_counter.html" target="_top" xlink:title="HttpFakePauseCounter">
<polygon fill="#ffffff" stroke="#000000" points="210,-228.5 210,-247.5 329,-247.5 329,-228.5 210,-228.5"/>
<text text-anchor="middle" x="269.5" y="-235.5" font-family="Helvetica,sans-Serif" font-size="10.00" fill="#000000">HttpFakePauseCounter</text>
</a>
</g>
</g>
<!-- Node2&#45;&gt;Node11 -->
<g id="edge11" class="edge">
<title>Node2&#45;&gt;Node11</title>
<path fill="none" stroke="#191970" d="M179.1763,-251.3035C188.8163,-249.8837 199.378,-248.3281 209.7734,-246.7969"/>
<polygon fill="#191970" stroke="#191970" points="178.5125,-247.8634 169.1293,-252.7833 179.5326,-254.7887 178.5125,-247.8634"/>
</g>
<!-- Node12 -->
<g id="node13" class="node">
<title>Node12</title>
<g id="a_node13"><a xlink:href="class_http_fake_prov.html" target="_top" xlink:title="Check that basic device info sent by aktualizr during provisioning matches our expectations. ">
<polygon fill="#ffffff" stroke="#000000" points="231,-190.5 231,-209.5 308,-209.5 308,-190.5 231,-190.5"/>
<text text-anchor="middle" x="269.5" y="-197.5" font-family="Helvetica,sans-Serif" font-size="10.00" fill="#000000">HttpFakeProv</text>
</a>
</g>
</g>
<!-- Node2&#45;&gt;Node12 -->
<g id="edge12" class="edge">
<title>Node2&#45;&gt;Node12</title>
<path fill="none" stroke="#191970" d="M163.8658,-241.9305C176.3226,-234.3437 192.1131,-225.4197 207,-219 215.227,-215.4523 224.3283,-212.2848 232.9809,-209.6007"/>
<polygon fill="#191970" stroke="#191970" points="161.7027,-239.1541 155.0601,-247.408 165.4001,-245.0981 161.7027,-239.1541"/>
</g>
<!-- Node13 -->
<g id="node14" class="node">
<title>Node13</title>
<g id="a_node14"><a xlink:href="class_http_fake_put_counter.html" target="_top" xlink:title="HttpFakePutCounter">
<polygon fill="#ffffff" stroke="#000000" points="216,-152.5 216,-171.5 323,-171.5 323,-152.5 216,-152.5"/>
<text text-anchor="middle" x="269.5" y="-159.5" font-family="Helvetica,sans-Serif" font-size="10.00" fill="#000000">HttpFakePutCounter</text>
</a>
</g>
</g>
<!-- Node2&#45;&gt;Node13 -->
<g id="edge13" class="edge">
<title>Node2&#45;&gt;Node13</title>
<path fill="none" stroke="#191970" d="M152.094,-238.6512C163.9089,-221.3877 183.7637,-196.0102 207,-181 213.0015,-177.1231 219.8343,-174.0037 226.7258,-171.5038"/>
<polygon fill="#191970" stroke="#191970" points="148.9788,-237.0169 146.3869,-247.2899 154.8194,-240.8755 148.9788,-237.0169"/>
</g>
<!-- Node14 -->
<g id="node15" class="node">
<title>Node14</title>
<g id="a_node15"><a xlink:href="class_http_fake_rq.html" target="_top" xlink:title="HttpFakeRq">
<polygon fill="#ffffff" stroke="#000000" points="234.5,-114.5 234.5,-133.5 304.5,-133.5 304.5,-114.5 234.5,-114.5"/>
<text text-anchor="middle" x="269.5" y="-121.5" font-family="Helvetica,sans-Serif" font-size="10.00" fill="#000000">HttpFakeRq</text>
</a>
</g>
</g>
<!-- Node2&#45;&gt;Node14 -->
<g id="edge14" class="edge">
<title>Node2&#45;&gt;Node14</title>
<path fill="none" stroke="#191970" d="M146.6747,-237.8321C155.8237,-212.4497 175.3866,-167.9905 207,-143 214.8293,-136.8109 224.6612,-132.6317 234.1938,-129.812"/>
<polygon fill="#191970" stroke="#191970" points="143.3166,-236.8353 143.3866,-247.4299 149.9388,-239.1041 143.3166,-236.8353"/>
</g>
<!-- Node15 -->
<g id="node16" class="node">
<title>Node15</title>
<g id="a_node16"><a xlink:href="class_http_fake_unstable.html" target="_top" xlink:title="HttpFakeUnstable">
<polygon fill="#ffffff" stroke="#000000" points="221.5,-76.5 221.5,-95.5 317.5,-95.5 317.5,-76.5 221.5,-76.5"/>
<text text-anchor="middle" x="269.5" y="-83.5" font-family="Helvetica,sans-Serif" font-size="10.00" fill="#000000">HttpFakeUnstable</text>
</a>
</g>
</g>
<!-- Node2&#45;&gt;Node15 -->
<g id="edge15" class="edge">
<title>Node2&#45;&gt;Node15</title>
<path fill="none" stroke="#191970" d="M143.71,-237.1383C149.9876,-204.7504 166.9479,-140.6099 207,-105 211.4073,-101.0815 216.6028,-97.971 222.0846,-95.5019"/>
<polygon fill="#191970" stroke="#191970" points="140.2309,-236.711 141.9147,-247.1712 147.1214,-237.9441 140.2309,-236.711"/>
</g>
<!-- Node16 -->
<g id="node17" class="node">
<title>Node16</title>
<g id="a_node17"><a xlink:href="class_http_put_manifest_fail.html" target="_top" xlink:title="HttpPutManifestFail">
<polygon fill="#ffffff" stroke="#000000" points="217.5,-38.5 217.5,-57.5 321.5,-57.5 321.5,-38.5 217.5,-38.5"/>
<text text-anchor="middle" x="269.5" y="-45.5" font-family="Helvetica,sans-Serif" font-size="10.00" fill="#000000">HttpPutManifestFail</text>
</a>
</g>
</g>
<!-- Node2&#45;&gt;Node16 -->
<g id="edge16" class="edge">
<title>Node2&#45;&gt;Node16</title>
<path fill="none" stroke="#191970" d="M141.3457,-236.8957C144.1538,-196.5373 156.1622,-106.7681 207,-58 210.11,-55.0166 213.6738,-52.5003 217.4882,-50.4075"/>
<polygon fill="#191970" stroke="#191970" points="137.8386,-236.9222 140.7637,-247.1052 144.8272,-237.3206 137.8386,-236.9222"/>
</g>
<!-- Node2&#45;&gt;Node16 -->
<g id="edge17" class="edge">
<title>Node2&#45;&gt;Node16</title>
<path fill="none" stroke="#191970" d="M142.25,-237.1188C146.4102,-199.9435 160.3743,-120.7275 207,-76 217.8031,-65.6367 234.0823,-60.9091 247.3182,-57.5268"/>
<polygon fill="#191970" stroke="#191970" points="138.7521,-236.925 141.2483,-247.2215 145.718,-237.6157 138.7521,-236.925"/>
</g>
<!-- Node17 -->
<g id="node18" class="node">
<title>Node17</title>
<g id="a_node18"><a xlink:href="class_http_reject_empty_corr_id.html" target="_top" xlink:title="HttpRejectEmptyCorrId">
<polygon fill="#ffffff" stroke="#000000" points="210,-.5 210,-19.5 329,-19.5 329,-.5 210,-.5"/>
<text text-anchor="middle" x="269.5" y="-7.5" font-family="Helvetica,sans-Serif" font-size="10.00" fill="#000000">HttpRejectEmptyCorrId</text>
</a>
</g>
</g>
<!-- Node2&#45;&gt;Node17 -->
<g id="edge18" class="edge">
<title>Node2&#45;&gt;Node17</title>
<path fill="none" stroke="#191970" d="M143.7658,-237.3955C152.3981,-187.7966 177.2135,-59.1259 207,-29 210.8274,-25.129 215.4168,-22.0416 220.3479,-19.5802"/>
<polygon fill="#191970" stroke="#191970" points="140.2799,-237.0165 142.0484,-247.4627 147.1803,-238.1937 140.2799,-237.0165"/>
</g>
</g>
</svg>
