<?xml version="1.0" encoding="UTF-8" standalone="no"?>
<!DOCTYPE svg PUBLIC "-//W3C//DTD SVG 1.1//EN"
 "http://www.w3.org/Graphics/SVG/1.1/DTD/svg11.dtd">
<!-- Generated by graphviz version 2.40.1 (20161225.0304)
 -->
<!-- Title: SQLStorageBase Pages: 1 -->
<svg width="179pt" height="163pt"
 viewBox="0.00 0.00 178.50 163.00" xmlns="http://www.w3.org/2000/svg" xmlns:xlink="http://www.w3.org/1999/xlink">
<g id="graph0" class="graph" transform="scale(1 1) rotate(0) translate(4 159)">
<title>SQLStorageBase</title>
<polygon fill="#ffffff" stroke="transparent" points="-4,4 -4,-159 174.5,-159 174.5,4 -4,4"/>
<!-- Node3 -->
<g id="node1" class="node">
<title>Node3</title>
<polygon fill="#bfbfbf" stroke="#000000" points="11.5,-.5 11.5,-19.5 103.5,-19.5 103.5,-.5 11.5,-.5"/>
<text text-anchor="middle" x="57.5" y="-7.5" font-family="Helvetica,sans-Serif" font-size="10.00" fill="#000000">SQLStorageBase</text>
</g>
<!-- Node4 -->
<g id="node2" class="node">
<title>Node4</title>
<g id="a_node2"><a xlink:href="class_storage_lock.html" target="_top" xlink:title="StorageLock">
<polygon fill="#ffffff" stroke="#000000" points="0,-67.5 0,-86.5 71,-86.5 71,-67.5 0,-67.5"/>
<text text-anchor="middle" x="35.5" y="-74.5" font-family="Helvetica,sans-Serif" font-size="10.00" fill="#000000">StorageLock</text>
</a>
</g>
</g>
<!-- Node4&#45;&gt;Node3 -->
<g id="edge1" class="edge">
<title>Node4&#45;&gt;Node3</title>
<path fill="none" stroke="#9a32cd" stroke-dasharray="5,2" d="M41.7838,-57.8628C45.8944,-45.3444 51.0887,-29.5252 54.3538,-19.5817"/>
<polygon fill="#9a32cd" stroke="#9a32cd" points="38.4465,-56.8077 38.6521,-67.4005 45.0972,-58.9915 38.4465,-56.8077"/>
<text text-anchor="middle" x="59.5" y="-41" font-family="Helvetica,sans-Serif" font-size="10.00" fill="#000000"> lock</text>
</g>
<!-- Node5 -->
<g id="node3" class="node">
<title>Node5</title>
<g id="a_node3"><a xlink:title="STL class. ">
<polygon fill="#ffffff" stroke="#bfbfbf" points="89.5,-67.5 89.5,-86.5 149.5,-86.5 149.5,-67.5 89.5,-67.5"/>
<text text-anchor="middle" x="119.5" y="-74.5" font-family="Helvetica,sans-Serif" font-size="10.00" fill="#000000">std::string</text>
</a>
</g>
</g>
<!-- Node5&#45;&gt;Node3 -->
<g id="edge2" class="edge">
<title>Node5&#45;&gt;Node3</title>
<path fill="none" stroke="#9a32cd" stroke-dasharray="5,2" d="M103.5047,-59.7147C91.6842,-46.941 76.0282,-30.0224 66.3666,-19.5817"/>
<polygon fill="#9a32cd" stroke="#9a32cd" points="101.2561,-62.4381 110.6169,-67.4005 106.3939,-57.6837 101.2561,-62.4381"/>
<text text-anchor="middle" x="131" y="-41" font-family="Helvetica,sans-Serif" font-size="10.00" fill="#000000"> current_schema_</text>
</g>
<!-- Node6 -->
<g id="node4" class="node">
<title>Node6</title>
<g id="a_node4"><a xlink:title="STL class. ">
<polygon fill="#ffffff" stroke="#bfbfbf" points="72,-124.5 72,-154.5 167,-154.5 167,-124.5 72,-124.5"/>
<text text-anchor="start" x="80" y="-142.5" font-family="Helvetica,sans-Serif" font-size="10.00" fill="#000000">std::basic_string&lt;</text>
<text text-anchor="middle" x="119.5" y="-131.5" font-family="Helvetica,sans-Serif" font-size="10.00" fill="#000000"> char &gt;</text>
</a>
</g>
</g>
<!-- Node6&#45;&gt;Node5 -->
<g id="edge3" class="edge">
<title>Node6&#45;&gt;Node5</title>
<path fill="none" stroke="#191970" d="M119.5,-114.3498C119.5,-104.6481 119.5,-94.1303 119.5,-86.7356"/>
<polygon fill="#191970" stroke="#191970" points="116.0001,-114.3705 119.5,-124.3705 123.0001,-114.3705 116.0001,-114.3705"/>
</g>
</g>
</svg>
