<?xml version="1.0" encoding="UTF-8" standalone="no"?>
<!DOCTYPE svg PUBLIC "-//W3C//DTD SVG 1.1//EN"
 "http://www.w3.org/Graphics/SVG/1.1/DTD/svg11.dtd">
<!-- Generated by graphviz version 2.40.1 (20161225.0304)
 -->
<!-- Title: Uptane::SecondaryInterface Pages: 1 -->
<svg width="153pt" height="274pt"
 viewBox="0.00 0.00 152.50 274.00" xmlns="http://www.w3.org/2000/svg" xmlns:xlink="http://www.w3.org/1999/xlink">
<g id="graph0" class="graph" transform="scale(1 1) rotate(0) translate(4 270)">
<title>Uptane::SecondaryInterface</title>
<polygon fill="#ffffff" stroke="transparent" points="-4,4 -4,-270 148.5,-270 148.5,4 -4,4"/>
<!-- Node8 -->
<g id="node1" class="node">
<title>Node8</title>
<polygon fill="#bfbfbf" stroke="#000000" points="0,-.5 0,-19.5 139,-19.5 139,-.5 0,-.5"/>
<text text-anchor="middle" x="69.5" y="-7.5" font-family="Helvetica,sans-Serif" font-size="10.00" fill="#000000">Uptane::SecondaryInterface</text>
</g>
<!-- Node9 -->
<g id="node2" class="node">
<title>Node9</title>
<g id="a_node2"><a xlink:href="class_uptane_1_1_secondary_config.html" target="_top" xlink:title="Uptane::SecondaryConfig">
<polygon fill="#ffffff" stroke="#000000" points="5,-67.5 5,-86.5 134,-86.5 134,-67.5 5,-67.5"/>
<text text-anchor="middle" x="69.5" y="-74.5" font-family="Helvetica,sans-Serif" font-size="10.00" fill="#000000">Uptane::SecondaryConfig</text>
</a>
</g>
</g>
<!-- Node9&#45;&gt;Node8 -->
<g id="edge1" class="edge">
<title>Node9&#45;&gt;Node8</title>
<path fill="none" stroke="#9a32cd" stroke-dasharray="5,2" d="M69.5,-57.1079C69.5,-44.714 69.5,-29.3263 69.5,-19.5817"/>
<polygon fill="#9a32cd" stroke="#9a32cd" points="66.0001,-57.4005 69.5,-67.4005 73.0001,-57.4006 66.0001,-57.4005"/>
<text text-anchor="middle" x="87" y="-41" font-family="Helvetica,sans-Serif" font-size="10.00" fill="#000000"> sconfig</text>
</g>
<!-- Node10 -->
<g id="node3" class="node">
<title>Node10</title>
<g id="a_node3"><a xlink:title="STL class. ">
<polygon fill="#ffffff" stroke="#bfbfbf" points="39.5,-178.5 39.5,-197.5 99.5,-197.5 99.5,-178.5 39.5,-178.5"/>
<text text-anchor="middle" x="69.5" y="-185.5" font-family="Helvetica,sans-Serif" font-size="10.00" fill="#000000">std::string</text>
</a>
</g>
</g>
<!-- Node10&#45;&gt;Node9 -->
<g id="edge2" class="edge">
<title>Node10&#45;&gt;Node9</title>
<path fill="none" stroke="#9a32cd" stroke-dasharray="5,2" d="M69.5,-168.0467C69.5,-144.0543 69.5,-104.7599 69.5,-86.6699"/>
<polygon fill="#9a32cd" stroke="#9a32cd" points="66.0001,-168.1495 69.5,-178.1495 73.0001,-168.1495 66.0001,-168.1495"/>
<text text-anchor="middle" x="107" y="-152" font-family="Helvetica,sans-Serif" font-size="10.00" fill="#000000"> ecu_private_key</text>
<text text-anchor="middle" x="107" y="-141" font-family="Helvetica,sans-Serif" font-size="10.00" fill="#000000">can_iface</text>
<text text-anchor="middle" x="107" y="-130" font-family="Helvetica,sans-Serif" font-size="10.00" fill="#000000">ecu_hardware_id</text>
<text text-anchor="middle" x="107" y="-119" font-family="Helvetica,sans-Serif" font-size="10.00" fill="#000000">ecu_serial</text>
<text text-anchor="middle" x="107" y="-108" font-family="Helvetica,sans-Serif" font-size="10.00" fill="#000000">ecu_public_key</text>
</g>
<!-- Node11 -->
<g id="node4" class="node">
<title>Node11</title>
<g id="a_node4"><a xlink:title="STL class. ">
<polygon fill="#ffffff" stroke="#bfbfbf" points="22,-235.5 22,-265.5 117,-265.5 117,-235.5 22,-235.5"/>
<text text-anchor="start" x="30" y="-253.5" font-family="Helvetica,sans-Serif" font-size="10.00" fill="#000000">std::basic_string&lt;</text>
<text text-anchor="middle" x="69.5" y="-242.5" font-family="Helvetica,sans-Serif" font-size="10.00" fill="#000000"> char &gt;</text>
</a>
</g>
</g>
<!-- Node11&#45;&gt;Node10 -->
<g id="edge3" class="edge">
<title>Node11&#45;&gt;Node10</title>
<path fill="none" stroke="#191970" d="M69.5,-225.3498C69.5,-215.6481 69.5,-205.1303 69.5,-197.7356"/>
<polygon fill="#191970" stroke="#191970" points="66.0001,-225.3705 69.5,-235.3705 73.0001,-225.3705 66.0001,-225.3705"/>
</g>
</g>
</svg>
