<?xml version="1.0" encoding="UTF-8" standalone="no"?>
<!DOCTYPE svg PUBLIC "-//W3C//DTD SVG 1.1//EN"
 "http://www.w3.org/Graphics/SVG/1.1/DTD/svg11.dtd">
<!-- Generated by graphviz version 2.40.1 (20161225.0304)
 -->
<!-- Title: Config Pages: 1 -->
<!--zoomable 561 -->
<svg id="main" version="1.1" xmlns="http://www.w3.org/2000/svg" xmlns:xlink="http://www.w3.org/1999/xlink" xml:space="preserve" onload="init(evt)">
<style type="text/css"><![CDATA[
.edge:hover path { stroke: red; }
.edge:hover polygon { stroke: red; fill: red; }
]]></style>
<script type="text/javascript"><![CDATA[
var edges = document.getElementsByTagName('g');
if (edges && edges.length) {
  for (var i=0;i<edges.length;i++) {
    if (edges[i].id.substr(0,4)=='edge') {
      edges[i].setAttribute('class','edge');
    }
  }
}
]]></script>
        <defs>
                <circle id="rim" cx="0" cy="0" r="7"/>
                <circle id="rim2" cx="0" cy="0" r="3.5"/>
                <g id="zoomPlus">
                        <use xlink:href="#rim" fill="#404040">
                                <set attributeName="fill" to="#808080" begin="zoomplus.mouseover" end="zoomplus.mouseout"/>
                        </use>
                        <path d="M-4,0h8M0,-4v8" fill="none" stroke="white" stroke-width="1.5" pointer-events="none"/>
                </g>
                <g id="zoomMin">
                        <use xlink:href="#rim" fill="#404040">
                                <set attributeName="fill" to="#808080" begin="zoomminus.mouseover" end="zoomminus.mouseout"/>
                        </use>
                        <path d="M-4,0h8" fill="none" stroke="white" stroke-width="1.5" pointer-events="none"/>
                </g>
                <g id="dirArrow">
                        <path fill="none" stroke="white" stroke-width="1.5" d="M0,-3.0v7 M-2.5,-0.5L0,-3.0L2.5,-0.5"/>
                </g>
               <g id="resetDef">
                       <use xlink:href="#rim2" fill="#404040">
                               <set attributeName="fill" to="#808080" begin="reset.mouseover" end="reset.mouseout"/>
                       </use>
               </g>
        </defs>

<script type="text/javascript">
var viewWidth = 1060;
var viewHeight = 561;
var sectionId = 'dynsection-1';
</script>
<script xlink:href="svgpan.js"/>
<svg id="graph" class="graph">
<g id="viewport">
<title>Config</title>
<polygon fill="#ffffff" stroke="transparent" points="-4,4 -4,-556.6416 1056,-556.6416 1056,4 -4,4"/>
<!-- Node2 -->
<g id="node1" class="node">
<title>Node2</title>
<polygon fill="#bfbfbf" stroke="#000000" points="1007,-208.6416 1007,-227.6416 1052,-227.6416 1052,-208.6416 1007,-208.6416"/>
<text text-anchor="middle" x="1029.5" y="-215.6416" font-family="Helvetica,sans-Serif" font-size="10.00" fill="#000000">Config</text>
</g>
<!-- Node3 -->
<g id="node2" class="node">
<title>Node3</title>
<g id="a_node2"><a xlink:href="class_base_config.html" target="_top" xlink:title="BaseConfig">
<polygon fill="#ffffff" stroke="#000000" points="842,-478.6416 842,-497.6416 910,-497.6416 910,-478.6416 842,-478.6416"/>
<text text-anchor="middle" x="876" y="-485.6416" font-family="Helvetica,sans-Serif" font-size="10.00" fill="#000000">BaseConfig</text>
</a>
</g>
</g>
<!-- Node3&#45;&gt;Node2 -->
<g id="edge1" class="edge">
<title>Node3&#45;&gt;Node2</title>
<path fill="none" stroke="#191970" d="M903.9282,-473.3301C930.0196,-458.0129 968.0067,-431.6439 989,-398.1416 1007.3689,-368.8276 1023.5728,-260.8365 1028.1881,-227.8049"/>
<polygon fill="#191970" stroke="#191970" points="901.8659,-470.4767 894.9073,-478.4659 905.3293,-476.5599 901.8659,-470.4767"/>
</g>
<!-- Node4 -->
<g id="node3" class="node">
<title>Node4</title>
<polygon fill="#ffffff" stroke="#bfbfbf" points="581,-522.1416 581,-552.1416 682,-552.1416 682,-522.1416 581,-522.1416"/>
<text text-anchor="start" x="589" y="-540.1416" font-family="Helvetica,sans-Serif" font-size="10.00" fill="#000000">std::vector&lt; boost</text>
<text text-anchor="middle" x="631.5" y="-529.1416" font-family="Helvetica,sans-Serif" font-size="10.00" fill="#000000">::filesystem::path &gt;</text>
</g>
<!-- Node4&#45;&gt;Node3 -->
<g id="edge2" class="edge">
<title>Node4&#45;&gt;Node3</title>
<path fill="none" stroke="#9a32cd" stroke-dasharray="5,2" d="M691.9742,-525.022C739.2223,-515.5531 803.1701,-502.7374 841.9028,-494.975"/>
<polygon fill="#9a32cd" stroke="#9a32cd" points="691.2778,-521.5919 682.1606,-526.9888 692.6534,-528.4555 691.2778,-521.5919"/>
<text text-anchor="middle" x="757.5" y="-525.1416" font-family="Helvetica,sans-Serif" font-size="10.00" fill="#000000"> config_dirs_</text>
</g>
<!-- Node5 -->
<g id="node4" class="node">
<title>Node5</title>
<g id="a_node4"><a xlink:href="struct_storage_config.html" target="_top" xlink:title="StorageConfig">
<polygon fill="#ffffff" stroke="#000000" points="836.5,-392.6416 836.5,-411.6416 915.5,-411.6416 915.5,-392.6416 836.5,-392.6416"/>
<text text-anchor="middle" x="876" y="-399.6416" font-family="Helvetica,sans-Serif" font-size="10.00" fill="#000000">StorageConfig</text>
</a>
</g>
</g>
<!-- Node5&#45;&gt;Node2 -->
<g id="edge3" class="edge">
<title>Node5&#45;&gt;Node2</title>
<path fill="none" stroke="#9a32cd" stroke-dasharray="5,2" d="M925.2193,-390.5068C947.4621,-382.9513 972.4157,-370.9037 989,-352.1416 1005.9004,-333.0219 1022.3265,-255.1002 1027.684,-227.7144"/>
<polygon fill="#9a32cd" stroke="#9a32cd" points="924.0312,-387.2117 915.5587,-393.5731 926.149,-393.8837 924.0312,-387.2117"/>
<text text-anchor="middle" x="964.5" y="-386.1416" font-family="Helvetica,sans-Serif" font-size="10.00" fill="#000000"> storage</text>
</g>
<!-- Node6 -->
<g id="node5" class="node">
<title>Node6</title>
<g id="a_node5"><a xlink:href="class_based_path.html" target="_top" xlink:title="BasedPath">
<polygon fill="#ffffff" stroke="#000000" points="599,-373.6416 599,-392.6416 664,-392.6416 664,-373.6416 599,-373.6416"/>
<text text-anchor="middle" x="631.5" y="-380.6416" font-family="Helvetica,sans-Serif" font-size="10.00" fill="#000000">BasedPath</text>
</a>
</g>
</g>
<!-- Node6&#45;&gt;Node5 -->
<g id="edge4" class="edge">
<title>Node6&#45;&gt;Node5</title>
<path fill="none" stroke="#9a32cd" stroke-dasharray="5,2" d="M666.849,-395.6929C678.2381,-399.1482 691.0156,-402.4181 703,-404.1416 748.3395,-410.6622 801.0524,-408.7044 836.2647,-406.0555"/>
<polygon fill="#9a32cd" stroke="#9a32cd" points="667.843,-392.3364 657.2526,-392.643 665.7227,-399.0076 667.843,-392.3364"/>
<text text-anchor="middle" x="757.5" y="-488.1416" font-family="Helvetica,sans-Serif" font-size="10.00" fill="#000000"> uptane_public_key_path</text>
<text text-anchor="middle" x="757.5" y="-477.1416" font-family="Helvetica,sans-Serif" font-size="10.00" fill="#000000">tls_pkey_path</text>
<text text-anchor="middle" x="757.5" y="-466.1416" font-family="Helvetica,sans-Serif" font-size="10.00" fill="#000000">uptane_metadata_path</text>
<text text-anchor="middle" x="757.5" y="-455.1416" font-family="Helvetica,sans-Serif" font-size="10.00" fill="#000000">sqldb_path</text>
<text text-anchor="start" x="703" y="-444.1416" font-family="Helvetica,sans-Serif" font-size="10.00" fill="#000000">uptane_private_key</text>
<text text-anchor="middle" x="757.5" y="-433.1416" font-family="Helvetica,sans-Serif" font-size="10.00" fill="#000000">_path</text>
<text text-anchor="middle" x="757.5" y="-422.1416" font-family="Helvetica,sans-Serif" font-size="10.00" fill="#000000">tls_cacert_path</text>
<text text-anchor="middle" x="757.5" y="-411.1416" font-family="Helvetica,sans-Serif" font-size="10.00" fill="#000000">tls_clientcert_path</text>
</g>
<!-- Node18 -->
<g id="node17" class="node">
<title>Node18</title>
<g id="a_node17"><a xlink:href="struct_import_config.html" target="_top" xlink:title="ImportConfig">
<polygon fill="#ffffff" stroke="#000000" points="839.5,-331.6416 839.5,-350.6416 912.5,-350.6416 912.5,-331.6416 839.5,-331.6416"/>
<text text-anchor="middle" x="876" y="-338.6416" font-family="Helvetica,sans-Serif" font-size="10.00" fill="#000000">ImportConfig</text>
</a>
</g>
</g>
<!-- Node6&#45;&gt;Node18 -->
<g id="edge22" class="edge">
<title>Node6&#45;&gt;Node18</title>
<path fill="none" stroke="#9a32cd" stroke-dasharray="5,2" d="M649.1398,-366.5135C662.6999,-354.9381 682.5253,-340.4842 703,-334.1416 748.3668,-320.0881 803.6332,-326.0483 839.2982,-332.6711"/>
<polygon fill="#9a32cd" stroke="#9a32cd" points="646.7078,-363.9924 641.5566,-373.2507 651.357,-369.2255 646.7078,-363.9924"/>
<text text-anchor="middle" x="757.5" y="-392.1416" font-family="Helvetica,sans-Serif" font-size="10.00" fill="#000000"> uptane_public_key_path</text>
<text text-anchor="middle" x="757.5" y="-381.1416" font-family="Helvetica,sans-Serif" font-size="10.00" fill="#000000">tls_pkey_path</text>
<text text-anchor="start" x="703" y="-370.1416" font-family="Helvetica,sans-Serif" font-size="10.00" fill="#000000">uptane_private_key</text>
<text text-anchor="middle" x="757.5" y="-359.1416" font-family="Helvetica,sans-Serif" font-size="10.00" fill="#000000">_path</text>
<text text-anchor="middle" x="757.5" y="-348.1416" font-family="Helvetica,sans-Serif" font-size="10.00" fill="#000000">tls_cacert_path</text>
<text text-anchor="middle" x="757.5" y="-337.1416" font-family="Helvetica,sans-Serif" font-size="10.00" fill="#000000">tls_clientcert_path</text>
</g>
<!-- Node7 -->
<g id="node6" class="node">
<title>Node7</title>
<g id="a_node6"><a xlink:href="struct_tls_config.html" target="_top" xlink:title="TlsConfig">
<polygon fill="#ffffff" stroke="#000000" points="487.5,-299.6416 487.5,-318.6416 546.5,-318.6416 546.5,-299.6416 487.5,-299.6416"/>
<text text-anchor="middle" x="517" y="-306.6416" font-family="Helvetica,sans-Serif" font-size="10.00" fill="#000000">TlsConfig</text>
</a>
</g>
</g>
<!-- Node7&#45;&gt;Node2 -->
<g id="edge5" class="edge">
<title>Node7&#45;&gt;Node2</title>
<path fill="none" stroke="#9a32cd" stroke-dasharray="5,2" d="M556.7221,-308.782C629.8171,-307.4226 790.2207,-301.1836 922,-273.1416 952.794,-266.5888 961.3659,-265.2269 989,-250.1416 1000.169,-244.0445 1011.4084,-234.8657 1019.2036,-227.8999"/>
<polygon fill="#9a32cd" stroke="#9a32cd" points="556.5259,-305.2847 546.585,-308.9492 556.6413,-312.2837 556.5259,-305.2847"/>
<text text-anchor="middle" x="757.5" y="-304.1416" font-family="Helvetica,sans-Serif" font-size="10.00" fill="#000000"> tls</text>
</g>
<!-- Node8 -->
<g id="node7" class="node">
<title>Node8</title>
<g id="a_node7"><a xlink:title="STL class. ">
<polygon fill="#ffffff" stroke="#bfbfbf" points="132,-141.6416 132,-160.6416 192,-160.6416 192,-141.6416 132,-141.6416"/>
<text text-anchor="middle" x="162" y="-148.6416" font-family="Helvetica,sans-Serif" font-size="10.00" fill="#000000">std::string</text>
</a>
</g>
</g>
<!-- Node8&#45;&gt;Node7 -->
<g id="edge6" class="edge">
<title>Node8&#45;&gt;Node7</title>
<path fill="none" stroke="#9a32cd" stroke-dasharray="5,2" d="M165.847,-170.8886C173.1692,-206.2516 190.1615,-278.1089 210,-293.1416 292.9487,-355.9968 427.6564,-332.3795 487.1434,-317.5556"/>
<polygon fill="#9a32cd" stroke="#9a32cd" points="169.2224,-169.9205 163.8181,-160.8077 162.36,-171.3017 169.2224,-169.9205"/>
<text text-anchor="middle" x="259.5" y="-333.1416" font-family="Helvetica,sans-Serif" font-size="10.00" fill="#000000"> server</text>
</g>
<!-- Node11 -->
<g id="node10" class="node">
<title>Node11</title>
<g id="a_node10"><a xlink:href="struct_package_config.html" target="_top" xlink:title="PackageConfig">
<polygon fill="#ffffff" stroke="#000000" points="716,-255.6416 716,-274.6416 799,-274.6416 799,-255.6416 716,-255.6416"/>
<text text-anchor="middle" x="757.5" y="-262.6416" font-family="Helvetica,sans-Serif" font-size="10.00" fill="#000000">PackageConfig</text>
</a>
</g>
</g>
<!-- Node8&#45;&gt;Node11 -->
<g id="edge10" class="edge">
<title>Node8&#45;&gt;Node11</title>
<path fill="none" stroke="#9a32cd" stroke-dasharray="5,2" d="M163.6348,-171.2181C167.0595,-198.515 177.6107,-246.4205 210,-268.1416 251.5446,-296.0026 594.9439,-276.017 715.6993,-268.0326"/>
<polygon fill="#9a32cd" stroke="#9a32cd" points="167.079,-170.5006 162.5605,-160.9177 160.1168,-171.2268 167.079,-170.5006"/>
<text text-anchor="middle" x="391.5" y="-296.1416" font-family="Helvetica,sans-Serif" font-size="10.00" fill="#000000"> os</text>
<text text-anchor="middle" x="391.5" y="-285.1416" font-family="Helvetica,sans-Serif" font-size="10.00" fill="#000000">ostree_server</text>
</g>
<!-- Node12 -->
<g id="node11" class="node">
<title>Node12</title>
<g id="a_node11"><a xlink:href="struct_provision_config.html" target="_top" xlink:title="ProvisionConfig">
<polygon fill="#ffffff" stroke="#000000" points="474,-208.6416 474,-227.6416 560,-227.6416 560,-208.6416 474,-208.6416"/>
<text text-anchor="middle" x="517" y="-215.6416" font-family="Helvetica,sans-Serif" font-size="10.00" fill="#000000">ProvisionConfig</text>
</a>
</g>
</g>
<!-- Node8&#45;&gt;Node12 -->
<g id="edge12" class="edge">
<title>Node8&#45;&gt;Node12</title>
<path fill="none" stroke="#9a32cd" stroke-dasharray="5,2" d="M202.2064,-147.6672C233.4261,-146.859 276.6942,-150.0257 309,-169.1416 320.7832,-176.114 315.2301,-187.1469 327,-194.1416 371.8735,-220.8096 433.1685,-223.7944 473.8654,-222.1147"/>
<polygon fill="#9a32cd" stroke="#9a32cd" points="201.9639,-144.174 192.1139,-148.0763 202.2475,-151.1683 201.9639,-144.174"/>
<text text-anchor="middle" x="259.5" y="-260.1416" font-family="Helvetica,sans-Serif" font-size="10.00" fill="#000000"> server</text>
<text text-anchor="middle" x="259.5" y="-249.1416" font-family="Helvetica,sans-Serif" font-size="10.00" fill="#000000">p12_password</text>
<text text-anchor="start" x="210" y="-238.1416" font-family="Helvetica,sans-Serif" font-size="10.00" fill="#000000">primary_ecu_hardware</text>
<text text-anchor="middle" x="259.5" y="-227.1416" font-family="Helvetica,sans-Serif" font-size="10.00" fill="#000000">_id</text>
<text text-anchor="middle" x="259.5" y="-216.1416" font-family="Helvetica,sans-Serif" font-size="10.00" fill="#000000">expiry_days</text>
<text text-anchor="middle" x="259.5" y="-205.1416" font-family="Helvetica,sans-Serif" font-size="10.00" fill="#000000">device_id</text>
<text text-anchor="start" x="210" y="-194.1416" font-family="Helvetica,sans-Serif" font-size="10.00" fill="#000000">ecu_registration</text>
<text text-anchor="middle" x="259.5" y="-183.1416" font-family="Helvetica,sans-Serif" font-size="10.00" fill="#000000">_endpoint</text>
<text text-anchor="middle" x="259.5" y="-172.1416" font-family="Helvetica,sans-Serif" font-size="10.00" fill="#000000">primary_ecu_serial</text>
</g>
<!-- Node13 -->
<g id="node12" class="node">
<title>Node13</title>
<g id="a_node12"><a xlink:href="struct_p11_config.html" target="_top" xlink:title="P11Config">
<polygon fill="#ffffff" stroke="#000000" points="726.5,-147.6416 726.5,-166.6416 788.5,-166.6416 788.5,-147.6416 726.5,-147.6416"/>
<text text-anchor="middle" x="757.5" y="-154.6416" font-family="Helvetica,sans-Serif" font-size="10.00" fill="#000000">P11Config</text>
</a>
</g>
</g>
<!-- Node8&#45;&gt;Node13 -->
<g id="edge14" class="edge">
<title>Node8&#45;&gt;Node13</title>
<path fill="none" stroke="#9a32cd" stroke-dasharray="5,2" d="M202.3111,-146.1344C235.6695,-142.2553 284.3298,-137.2056 327,-135.1416 476.6863,-127.9011 655.6091,-145.4494 726.4394,-153.4358"/>
<polygon fill="#9a32cd" stroke="#9a32cd" points="201.5653,-142.698 192.0452,-147.3474 202.3868,-149.6497 201.5653,-142.698"/>
<text text-anchor="middle" x="391.5" y="-182.1416" font-family="Helvetica,sans-Serif" font-size="10.00" fill="#000000"> tls_pkey_id</text>
<text text-anchor="middle" x="391.5" y="-171.1416" font-family="Helvetica,sans-Serif" font-size="10.00" fill="#000000">tls_clientcert_id</text>
<text text-anchor="middle" x="391.5" y="-160.1416" font-family="Helvetica,sans-Serif" font-size="10.00" fill="#000000">pass</text>
<text text-anchor="middle" x="391.5" y="-149.1416" font-family="Helvetica,sans-Serif" font-size="10.00" fill="#000000">uptane_key_id</text>
<text text-anchor="middle" x="391.5" y="-138.1416" font-family="Helvetica,sans-Serif" font-size="10.00" fill="#000000">tls_cacert_id</text>
</g>
<!-- Node14 -->
<g id="node13" class="node">
<title>Node14</title>
<g id="a_node13"><a xlink:href="struct_uptane_config.html" target="_top" xlink:title="UptaneConfig">
<polygon fill="#ffffff" stroke="#000000" points="837.5,-123.6416 837.5,-142.6416 914.5,-142.6416 914.5,-123.6416 837.5,-123.6416"/>
<text text-anchor="middle" x="876" y="-130.6416" font-family="Helvetica,sans-Serif" font-size="10.00" fill="#000000">UptaneConfig</text>
</a>
</g>
</g>
<!-- Node8&#45;&gt;Node14 -->
<g id="edge16" class="edge">
<title>Node8&#45;&gt;Node14</title>
<path fill="none" stroke="#9a32cd" stroke-dasharray="5,2" d="M192.0712,-137.7264C197.9226,-135.5503 204.0795,-133.5515 210,-132.1416 442.5519,-76.762 733.8735,-111.4857 837.357,-126.8958"/>
<polygon fill="#9a32cd" stroke="#9a32cd" points="190.6108,-134.5404 182.6079,-141.4833 193.1937,-141.0464 190.6108,-134.5404"/>
<text text-anchor="middle" x="517" y="-117.1416" font-family="Helvetica,sans-Serif" font-size="10.00" fill="#000000"> repo_server</text>
<text text-anchor="middle" x="517" y="-106.1416" font-family="Helvetica,sans-Serif" font-size="10.00" fill="#000000">director_server</text>
</g>
<!-- Node16 -->
<g id="node15" class="node">
<title>Node16</title>
<g id="a_node15"><a xlink:href="class_uptane_1_1_secondary_config.html" target="_top" xlink:title="Uptane::SecondaryConfig">
<polygon fill="#ffffff" stroke="#000000" points="327,-13.6416 327,-32.6416 456,-32.6416 456,-13.6416 327,-13.6416"/>
<text text-anchor="middle" x="391.5" y="-20.6416" font-family="Helvetica,sans-Serif" font-size="10.00" fill="#000000">Uptane::SecondaryConfig</text>
</a>
</g>
</g>
<!-- Node8&#45;&gt;Node16 -->
<g id="edge19" class="edge">
<title>Node8&#45;&gt;Node16</title>
<path fill="none" stroke="#9a32cd" stroke-dasharray="5,2" d="M166.327,-131.4397C174.0751,-98.1799 191.2685,-33.2275 210,-20.1416 256.1151,12.0746 326.1628,-2.0943 364.3481,-13.6256"/>
<polygon fill="#9a32cd" stroke="#9a32cd" points="162.8704,-130.8571 164.073,-141.3835 169.6972,-132.4047 162.8704,-130.8571"/>
<text text-anchor="middle" x="259.5" y="-67.1416" font-family="Helvetica,sans-Serif" font-size="10.00" fill="#000000"> ecu_private_key</text>
<text text-anchor="middle" x="259.5" y="-56.1416" font-family="Helvetica,sans-Serif" font-size="10.00" fill="#000000">can_iface</text>
<text text-anchor="middle" x="259.5" y="-45.1416" font-family="Helvetica,sans-Serif" font-size="10.00" fill="#000000">ecu_hardware_id</text>
<text text-anchor="middle" x="259.5" y="-34.1416" font-family="Helvetica,sans-Serif" font-size="10.00" fill="#000000">ecu_serial</text>
<text text-anchor="middle" x="259.5" y="-23.1416" font-family="Helvetica,sans-Serif" font-size="10.00" fill="#000000">ecu_public_key</text>
</g>
<!-- Node9 -->
<g id="node8" class="node">
<title>Node9</title>
<g id="a_node8"><a xlink:title="STL class. ">
<polygon fill="#ffffff" stroke="#bfbfbf" points="0,-136.1416 0,-166.1416 95,-166.1416 95,-136.1416 0,-136.1416"/>
<text text-anchor="start" x="8" y="-154.1416" font-family="Helvetica,sans-Serif" font-size="10.00" fill="#000000">std::basic_string&lt;</text>
<text text-anchor="middle" x="47.5" y="-143.1416" font-family="Helvetica,sans-Serif" font-size="10.00" fill="#000000"> char &gt;</text>
</a>
</g>
</g>
<!-- Node9&#45;&gt;Node8 -->
<g id="edge7" class="edge">
<title>Node9&#45;&gt;Node8</title>
<path fill="none" stroke="#191970" d="M105.3356,-151.1416C114.4701,-151.1416 123.5847,-151.1416 131.7491,-151.1416"/>
<polygon fill="#191970" stroke="#191970" points="105.0636,-147.6417 95.0636,-151.1416 105.0636,-154.6417 105.0636,-147.6417"/>
</g>
<!-- Node10 -->
<g id="node9" class="node">
<title>Node10</title>
<g id="a_node9"><a xlink:href="struct_logger_config.html" target="_top" xlink:title="LoggerConfig">
<polygon fill="#ffffff" stroke="#000000" points="839,-85.6416 839,-104.6416 913,-104.6416 913,-85.6416 839,-85.6416"/>
<text text-anchor="middle" x="876" y="-92.6416" font-family="Helvetica,sans-Serif" font-size="10.00" fill="#000000">LoggerConfig</text>
</a>
</g>
</g>
<!-- Node10&#45;&gt;Node2 -->
<g id="edge8" class="edge">
<title>Node10&#45;&gt;Node2</title>
<path fill="none" stroke="#9a32cd" stroke-dasharray="5,2" d="M923.37,-96.3217C945.4857,-99.1237 970.8677,-105.8469 989,-121.1416 1016.3408,-144.2038 1025.5563,-188.8116 1028.3743,-208.4547"/>
<polygon fill="#9a32cd" stroke="#9a32cd" points="923.4566,-92.8122 913.1501,-95.267 922.7379,-99.7752 923.4566,-92.8122"/>
<text text-anchor="middle" x="964.5" y="-124.1416" font-family="Helvetica,sans-Serif" font-size="10.00" fill="#000000"> logger</text>
</g>
<!-- Node11&#45;&gt;Node2 -->
<g id="edge9" class="edge">
<title>Node11&#45;&gt;Node2</title>
<path fill="none" stroke="#9a32cd" stroke-dasharray="5,2" d="M809.3541,-260.6142C856.6269,-255.8125 928.1573,-246.8509 989,-232.1416 994.7849,-230.7431 1000.9094,-228.8514 1006.5962,-226.9114"/>
<polygon fill="#9a32cd" stroke="#9a32cd" points="808.96,-257.136 799.3537,-261.6046 809.65,-264.1019 808.96,-257.136"/>
<text text-anchor="middle" x="876" y="-261.1416" font-family="Helvetica,sans-Serif" font-size="10.00" fill="#000000"> pacman</text>
</g>
<!-- Node12&#45;&gt;Node2 -->
<g id="edge11" class="edge">
<title>Node12&#45;&gt;Node2</title>
<path fill="none" stroke="#9a32cd" stroke-dasharray="5,2" d="M570.5049,-218.1416C681.0263,-218.1416 930.5729,-218.1416 1006.8958,-218.1416"/>
<polygon fill="#9a32cd" stroke="#9a32cd" points="570.2538,-214.6417 560.2538,-218.1416 570.2537,-221.6417 570.2538,-214.6417"/>
<text text-anchor="middle" x="757.5" y="-221.1416" font-family="Helvetica,sans-Serif" font-size="10.00" fill="#000000"> provision</text>
</g>
<!-- Node13&#45;&gt;Node2 -->
<g id="edge13" class="edge">
<title>Node13&#45;&gt;Node2</title>
<path fill="none" stroke="#9a32cd" stroke-dasharray="5,2" d="M798.52,-163.7757C845.0956,-171.6985 923.1624,-186.1641 989,-204.1416 994.8849,-205.7486 1001.1551,-207.7625 1006.96,-209.7577"/>
<polygon fill="#9a32cd" stroke="#9a32cd" points="798.9539,-160.2996 788.5118,-162.0917 797.7924,-167.2025 798.9539,-160.2996"/>
<text text-anchor="middle" x="876" y="-190.1416" font-family="Helvetica,sans-Serif" font-size="10.00" fill="#000000"> p11</text>
</g>
<!-- Node14&#45;&gt;Node2 -->
<g id="edge15" class="edge">
<title>Node14&#45;&gt;Node2</title>
<path fill="none" stroke="#9a32cd" stroke-dasharray="5,2" d="M924.6624,-133.619C945.9367,-135.884 970.2568,-141.4511 989,-154.1416 1008.8162,-167.5586 1020.9263,-194.246 1026.2716,-208.5535"/>
<polygon fill="#9a32cd" stroke="#9a32cd" points="924.7616,-130.1149 914.5011,-132.7557 924.1689,-137.0898 924.7616,-130.1149"/>
<text text-anchor="middle" x="964.5" y="-157.1416" font-family="Helvetica,sans-Serif" font-size="10.00" fill="#000000"> uptane</text>
</g>
<!-- Node15 -->
<g id="node14" class="node">
<title>Node15</title>
<polygon fill="#ffffff" stroke="#bfbfbf" points="578,-27.1416 578,-57.1416 685,-57.1416 685,-27.1416 578,-27.1416"/>
<text text-anchor="start" x="586" y="-45.1416" font-family="Helvetica,sans-Serif" font-size="10.00" fill="#000000">std::vector&lt; Uptane</text>
<text text-anchor="middle" x="631.5" y="-34.1416" font-family="Helvetica,sans-Serif" font-size="10.00" fill="#000000">::SecondaryConfig &gt;</text>
</g>
<!-- Node15&#45;&gt;Node14 -->
<g id="edge17" class="edge">
<title>Node15&#45;&gt;Node14</title>
<path fill="none" stroke="#9a32cd" stroke-dasharray="5,2" d="M695.7026,-34.3038C733.3669,-33.2215 779.7404,-38.412 812,-64.1416 830.4646,-78.8686 813.689,-97.0601 830,-114.1416 833.6997,-118.0161 838.3054,-121.1283 843.1614,-123.6202"/>
<polygon fill="#9a32cd" stroke="#9a32cd" points="695.1644,-30.8241 685.3292,-34.7635 695.4744,-37.8172 695.1644,-30.8241"/>
<text text-anchor="middle" x="757.5" y="-67.1416" font-family="Helvetica,sans-Serif" font-size="10.00" fill="#000000"> secondary_configs</text>
</g>
<!-- Node16&#45;&gt;Node15 -->
<g id="edge18" class="edge">
<title>Node16&#45;&gt;Node15</title>
<path fill="none" stroke="#9a32cd" stroke-dasharray="5,2" d="M466.1361,-29.0503C502.2597,-31.9101 544.8146,-35.279 577.7082,-37.8831"/>
<polygon fill="#9a32cd" stroke="#9a32cd" points="466.3764,-25.5585 456.1313,-28.2583 465.8239,-32.5366 466.3764,-25.5585"/>
<text text-anchor="middle" x="517" y="-39.1416" font-family="Helvetica,sans-Serif" font-size="10.00" fill="#000000"> elements</text>
</g>
<!-- Node17 -->
<g id="node16" class="node">
<title>Node17</title>
<g id="a_node16"><a xlink:href="struct_telemetry_config.html" target="_top" xlink:title="TelemetryConfig">
<polygon fill="#ffffff" stroke="#000000" points="831.5,-47.6416 831.5,-66.6416 920.5,-66.6416 920.5,-47.6416 831.5,-47.6416"/>
<text text-anchor="middle" x="876" y="-54.6416" font-family="Helvetica,sans-Serif" font-size="10.00" fill="#000000">TelemetryConfig</text>
</a>
</g>
</g>
<!-- Node17&#45;&gt;Node2 -->
<g id="edge20" class="edge">
<title>Node17&#45;&gt;Node2</title>
<path fill="none" stroke="#9a32cd" stroke-dasharray="5,2" d="M930.5881,-59.4729C951.1779,-62.9845 973.3746,-70.3187 989,-85.1416 1007.3868,-102.5842 1022.8607,-180.9074 1027.828,-208.4917"/>
<polygon fill="#9a32cd" stroke="#9a32cd" points="931.0423,-56.0023 920.6453,-58.0401 930.0438,-62.9307 931.0423,-56.0023"/>
<text text-anchor="middle" x="964.5" y="-88.1416" font-family="Helvetica,sans-Serif" font-size="10.00" fill="#000000"> telemetry</text>
</g>
<!-- Node18&#45;&gt;Node2 -->
<g id="edge21" class="edge">
<title>Node18&#45;&gt;Node2</title>
<path fill="none" stroke="#9a32cd" stroke-dasharray="5,2" d="M922.5811,-340.5483C944.8791,-338.0229 970.6501,-331.5449 989,-316.1416 1016.7776,-292.8246 1025.787,-247.3604 1028.4643,-227.6428"/>
<polygon fill="#9a32cd" stroke="#9a32cd" points="922.2641,-337.0626 912.6196,-341.4484 922.894,-344.0342 922.2641,-337.0626"/>
<text text-anchor="middle" x="964.5" y="-340.1416" font-family="Helvetica,sans-Serif" font-size="10.00" fill="#000000"> import</text>
</g>
<!-- Node19 -->
<g id="node18" class="node">
<title>Node19</title>
<g id="a_node18"><a xlink:href="struct_bootloader_config.html" target="_top" xlink:title="BootloaderConfig">
<polygon fill="#ffffff" stroke="#000000" points="830,-9.6416 830,-28.6416 922,-28.6416 922,-9.6416 830,-9.6416"/>
<text text-anchor="middle" x="876" y="-16.6416" font-family="Helvetica,sans-Serif" font-size="10.00" fill="#000000">BootloaderConfig</text>
</a>
</g>
</g>
<!-- Node19&#45;&gt;Node2 -->
<g id="edge23" class="edge">
<title>Node19&#45;&gt;Node2</title>
<path fill="none" stroke="#9a32cd" stroke-dasharray="5,2" d="M932.3521,-21.1949C952.6406,-24.7271 974.1616,-32.149 989,-47.1416 1012.1781,-70.5606 1025.0757,-176.1973 1028.5403,-208.6371"/>
<polygon fill="#9a32cd" stroke="#9a32cd" points="932.6123,-17.696 922.2125,-19.7199 931.6045,-24.6231 932.6123,-17.696"/>
<text text-anchor="middle" x="964.5" y="-50.1416" font-family="Helvetica,sans-Serif" font-size="10.00" fill="#000000"> bootloader</text>
</g>
</g>
</svg>
        <g id="navigator" transform="translate(0 0)" fill="#404254">
                <rect fill="#f2f5e9" fill-opacity="0.5" stroke="#606060" stroke-width=".5" x="0" y="0" width="60" height="60"/>
                <use id="zoomplus" xlink:href="#zoomPlus" x="17" y="9" onmousedown="handleZoom(evt,'in')"/>
                <use id="zoomminus" xlink:href="#zoomMin" x="42" y="9" onmousedown="handleZoom(evt,'out')"/>
                <use id="reset" xlink:href="#resetDef" x="30" y="36" onmousedown="handleReset()"/>
                <g id="arrowUp" xlink:href="#dirArrow" transform="translate(30 24)" onmousedown="handlePan(0,-1)">
                  <use xlink:href="#rim" fill="#404040">
                        <set attributeName="fill" to="#808080" begin="arrowUp.mouseover" end="arrowUp.mouseout"/>
                  </use>
                  <path fill="none" stroke="white" stroke-width="1.5" d="M0,-3.0v7 M-2.5,-0.5L0,-3.0L2.5,-0.5"/>
                </g>
                <g id="arrowRight" xlink:href="#dirArrow" transform="rotate(90) translate(36 -43)" onmousedown="handlePan(1,0)">
                  <use xlink:href="#rim" fill="#404040">
                        <set attributeName="fill" to="#808080" begin="arrowRight.mouseover" end="arrowRight.mouseout"/>
                  </use>
                  <path fill="none" stroke="white" stroke-width="1.5" d="M0,-3.0v7 M-2.5,-0.5L0,-3.0L2.5,-0.5"/>
                </g>
                <g id="arrowDown" xlink:href="#dirArrow" transform="rotate(180) translate(-30 -48)" onmousedown="handlePan(0,1)">
                  <use xlink:href="#rim" fill="#404040">
                        <set attributeName="fill" to="#808080" begin="arrowDown.mouseover" end="arrowDown.mouseout"/>
                  </use>
                  <path fill="none" stroke="white" stroke-width="1.5" d="M0,-3.0v7 M-2.5,-0.5L0,-3.0L2.5,-0.5"/>
                </g>
                <g id="arrowLeft" xlink:href="#dirArrow" transform="rotate(270) translate(-36 17)" onmousedown="handlePan(-1,0)">
                  <use xlink:href="#rim" fill="#404040">
                        <set attributeName="fill" to="#808080" begin="arrowLeft.mouseover" end="arrowLeft.mouseout"/>
                  </use>
                  <path fill="none" stroke="white" stroke-width="1.5" d="M0,-3.0v7 M-2.5,-0.5L0,-3.0L2.5,-0.5"/>
                </g>
        </g>
        <svg viewBox="0 0 15 15" width="100%" height="30px" preserveAspectRatio="xMaxYMin meet">
         <g id="arrow_out" transform="scale(0.3 0.3)">
          <a xlink:href="class_config__coll__graph_org.svg" target="_base">
           <rect id="button" ry="5" rx="5" y="6" x="6" height="38" width="38"
                fill="#f2f5e9" fill-opacity="0.5" stroke="#606060" stroke-width="1.0"/>
           <path id="arrow"
             d="M 11.500037,31.436501 C 11.940474,20.09759 22.043105,11.32322 32.158766,21.979434 L 37.068811,17.246167 C 37.068811,17.246167 37.088388,32 37.088388,32 L 22.160133,31.978069 C 22.160133,31.978069 26.997745,27.140456 26.997745,27.140456 C 18.528582,18.264221 13.291696,25.230495 11.500037,31.436501 z"
             style="fill:#404040;"/>
          </a>
         </g>
        </svg>
</svg>
