<?xml version="1.0" encoding="UTF-8" standalone="no"?>
<!DOCTYPE svg PUBLIC "-//W3C//DTD SVG 1.1//EN"
 "http://www.w3.org/Graphics/SVG/1.1/DTD/svg11.dtd">
<!-- Generated by graphviz version 2.40.1 (20161225.0304)
 -->
<!-- Title: Graphical Class Hierarchy Pages: 1 -->
<svg width="255pt" height="66pt"
 viewBox="0.00 0.00 255.00 66.00" xmlns="http://www.w3.org/2000/svg" xmlns:xlink="http://www.w3.org/1999/xlink">
<g id="graph0" class="graph" transform="scale(1 1) rotate(0) translate(4 62)">
<title>Graphical Class Hierarchy</title>
<polygon fill="#ffffff" stroke="transparent" points="-4,4 -4,-62 251,-62 251,4 -4,4"/>
<!-- Node0 -->
<g id="node1" class="node">
<title>Node0</title>
<g id="a_node1"><a xlink:href="class_multi_part_hasher.html" target="_top" xlink:title="MultiPartHasher">
<polygon fill="#ffffff" stroke="#000000" points="0,-19.5 0,-38.5 87,-38.5 87,-19.5 0,-19.5"/>
<text text-anchor="middle" x="43.5" y="-26.5" font-family="Helvetica,sans-Serif" font-size="10.00" fill="#000000">MultiPartHasher</text>
</a>
</g>
</g>
<!-- Node1 -->
<g id="node2" class="node">
<title>Node1</title>
<g id="a_node2"><a xlink:href="class_multi_part_s_h_a256_hasher.html" target="_top" xlink:title="MultiPartSHA256Hasher">
<polygon fill="#ffffff" stroke="#000000" points="123,-38.5 123,-57.5 247,-57.5 247,-38.5 123,-38.5"/>
<text text-anchor="middle" x="185" y="-45.5" font-family="Helvetica,sans-Serif" font-size="10.00" fill="#000000">MultiPartSHA256Hasher</text>
</a>
</g>
</g>
<!-- Node0&#45;&gt;Node1 -->
<g id="edge1" class="edge">
<title>Node0&#45;&gt;Node1</title>
<path fill="none" stroke="#191970" d="M97.1354,-36.2019C105.5219,-37.328 114.2498,-38.5 122.8082,-39.6492"/>
<polygon fill="#191970" stroke="#191970" points="97.4861,-32.7177 87.1093,-34.8557 96.5545,-39.6554 97.4861,-32.7177"/>
</g>
<!-- Node2 -->
<g id="node3" class="node">
<title>Node2</title>
<g id="a_node3"><a xlink:href="class_multi_part_s_h_a512_hasher.html" target="_top" xlink:title="MultiPartSHA512Hasher">
<polygon fill="#ffffff" stroke="#000000" points="123,-.5 123,-19.5 247,-19.5 247,-.5 123,-.5"/>
<text text-anchor="middle" x="185" y="-7.5" font-family="Helvetica,sans-Serif" font-size="10.00" fill="#000000">MultiPartSHA512Hasher</text>
</a>
</g>
</g>
<!-- Node0&#45;&gt;Node2 -->
<g id="edge2" class="edge">
<title>Node0&#45;&gt;Node2</title>
<path fill="none" stroke="#191970" d="M97.1354,-21.7981C105.5219,-20.672 114.2498,-19.5 122.8082,-18.3508"/>
<polygon fill="#191970" stroke="#191970" points="96.5545,-18.3446 87.1093,-23.1443 97.4861,-25.2823 96.5545,-18.3446"/>
</g>
</g>
</svg>
