<?xml version="1.0" encoding="UTF-8" standalone="no"?>
<!DOCTYPE svg PUBLIC "-//W3C//DTD SVG 1.1//EN"
 "http://www.w3.org/Graphics/SVG/1.1/DTD/svg11.dtd">
<!-- Generated by graphviz version 2.43.0 (0)
 -->
<!-- Title: AktualizrSecondary Pages: 1 -->
<svg width="298pt" height="196pt"
 viewBox="0.00 0.00 297.50 196.00" xmlns="http://www.w3.org/2000/svg" xmlns:xlink="http://www.w3.org/1999/xlink">
<g id="graph0" class="graph" transform="scale(1 1) rotate(0) translate(4 192)">
<title>AktualizrSecondary</title>
<polygon fill="white" stroke="transparent" points="-4,4 -4,-192 293.5,-192 293.5,4 -4,4"/>
<!-- Node1 -->
<g id="node1" class="node">
<title>Node1</title>
<g id="a_node1"><a xlink:title=" ">
<polygon fill="#bfbfbf" stroke="black" points="85.5,-56.5 85.5,-75.5 196.5,-75.5 196.5,-56.5 85.5,-56.5"/>
<text text-anchor="middle" x="141" y="-63.5" font-family="Helvetica,sans-Serif" font-size="10.00">AktualizrSecondary</text>
</a>
</g>
</g>
<!-- Node4 -->
<g id="node4" class="node">
<title>Node4</title>
<g id="a_node4"><a xlink:href="class_aktualizr_secondary_file.html" target="_top" xlink:title=" ">
<polygon fill="white" stroke="black" points="0,-0.5 0,-19.5 128,-19.5 128,-0.5 0,-0.5"/>
<text text-anchor="middle" x="64" y="-7.5" font-family="Helvetica,sans-Serif" font-size="10.00">AktualizrSecondaryFile</text>
</a>
</g>
</g>
<!-- Node1&#45;&gt;Node4 -->
<g id="edge3" class="edge">
<title>Node1&#45;&gt;Node4</title>
<path fill="none" stroke="midnightblue" d="M120.1,-50.34C106.09,-40.52 88.12,-27.91 76.34,-19.65"/>
<polygon fill="midnightblue" stroke="midnightblue" points="118.43,-53.45 128.63,-56.32 122.45,-47.72 118.43,-53.45"/>
</g>
<!-- Node5 -->
<g id="node5" class="node">
<title>Node5</title>
<g id="a_node5"><a xlink:href="class_aktualizr_secondary_ostree.html" target="_top" xlink:title=" ">
<polygon fill="white" stroke="black" points="146.5,-0.5 146.5,-19.5 289.5,-19.5 289.5,-0.5 146.5,-0.5"/>
<text text-anchor="middle" x="218" y="-7.5" font-family="Helvetica,sans-Serif" font-size="10.00">AktualizrSecondaryOstree</text>
</a>
</g>
</g>
<!-- Node1&#45;&gt;Node5 -->
<g id="edge4" class="edge">
<title>Node1&#45;&gt;Node5</title>
<path fill="none" stroke="midnightblue" d="M161.9,-50.34C175.91,-40.52 193.88,-27.91 205.66,-19.65"/>
<polygon fill="midnightblue" stroke="midnightblue" points="159.55,-47.72 153.37,-56.32 163.57,-53.45 159.55,-47.72"/>
</g>
<!-- Node2 -->
<g id="node2" class="node">
<title>Node2</title>
<g id="a_node2"><a xlink:href="class_msg_dispatcher.html" target="_top" xlink:title=" ">
<polygon fill="white" stroke="black" points="96.5,-112.5 96.5,-131.5 185.5,-131.5 185.5,-112.5 96.5,-112.5"/>
<text text-anchor="middle" x="141" y="-119.5" font-family="Helvetica,sans-Serif" font-size="10.00">MsgDispatcher</text>
</a>
</g>
</g>
<!-- Node2&#45;&gt;Node1 -->
<g id="edge1" class="edge">
<title>Node2&#45;&gt;Node1</title>
<path fill="none" stroke="midnightblue" d="M141,-101.8C141,-92.91 141,-82.78 141,-75.75"/>
<polygon fill="midnightblue" stroke="midnightblue" points="137.5,-102.08 141,-112.08 144.5,-102.08 137.5,-102.08"/>
</g>
<!-- Node3 -->
<g id="node3" class="node">
<title>Node3</title>
<g id="a_node3"><a xlink:href="class_msg_handler.html" target="_top" xlink:title=" ">
<polygon fill="white" stroke="black" points="103.5,-168.5 103.5,-187.5 178.5,-187.5 178.5,-168.5 103.5,-168.5"/>
<text text-anchor="middle" x="141" y="-175.5" font-family="Helvetica,sans-Serif" font-size="10.00">MsgHandler</text>
</a>
</g>
</g>
<!-- Node3&#45;&gt;Node2 -->
<g id="edge2" class="edge">
<title>Node3&#45;&gt;Node2</title>
<path fill="none" stroke="midnightblue" d="M141,-157.8C141,-148.91 141,-138.78 141,-131.75"/>
<polygon fill="midnightblue" stroke="midnightblue" points="137.5,-158.08 141,-168.08 144.5,-158.08 137.5,-158.08"/>
</g>
</g>
</svg>
