<?xml version="1.0" encoding="UTF-8" standalone="no"?>
<!DOCTYPE svg PUBLIC "-//W3C//DTD SVG 1.1//EN"
 "http://www.w3.org/Graphics/SVG/1.1/DTD/svg11.dtd">
<!-- Generated by graphviz version 2.43.0 (0)
 -->
<!-- Title: src/virtual_secondary Pages: 1 -->
<svg width="144pt" height="151pt"
 viewBox="0.00 0.00 144.00 151.00" xmlns="http://www.w3.org/2000/svg" xmlns:xlink="http://www.w3.org/1999/xlink">
<g id="graph0" class="graph" transform="scale(1 1) rotate(0) translate(4 147)">
<title>src/virtual_secondary</title>
<polygon fill="white" stroke="transparent" points="-4,4 -4,-147 140,-147 140,4 -4,4"/>
<g id="clust1" class="cluster">
<title>clusterdir_68267d1309a1af8e8297ef4c3efbcdba</title>
<g id="a_clust1"><a xlink:href="dir_68267d1309a1af8e8297ef4c3efbcdba.html" target="_top" xlink:title="src">
<polygon fill="#ddddee" stroke="black" points="8,-64 8,-135 128,-135 128,-64 8,-64"/>
<text text-anchor="middle" x="68" y="-123" font-family="Helvetica,sans-Serif" font-size="10.00">src</text>
</a>
</g>
</g>
<!-- dir_e1d95de2daaa60f98711a754eb3af91a -->
<g id="node1" class="node">
<title>dir_e1d95de2daaa60f98711a754eb3af91a</title>
<g id="a_node1"><a xlink:href="dir_e1d95de2daaa60f98711a754eb3af91a.html" target="_top" xlink:title="virtual_secondary">
<polygon fill="#eeeeff" stroke="black" points="120,-108 16,-108 16,-72 120,-72 120,-108"/>
<text text-anchor="middle" x="68" y="-87.5" font-family="Helvetica,sans-Serif" font-size="10.00">virtual_secondary</text>
</a>
</g>
</g>
<!-- dir_d44c64559bbebec7f509842c48db8b23 -->
<g id="node2" class="node">
<title>dir_d44c64559bbebec7f509842c48db8b23</title>
<g id="a_node2"><a xlink:href="dir_d44c64559bbebec7f509842c48db8b23.html" target="_top" xlink:title="include">
<polygon fill="white" stroke="red" points="95,-36 41,-36 41,0 95,0 95,-36"/>
<text text-anchor="middle" x="68" y="-15.5" font-family="Helvetica,sans-Serif" font-size="10.00">include</text>
</a>
</g>
</g>
<!-- dir_e1d95de2daaa60f98711a754eb3af91a&#45;&gt;dir_d44c64559bbebec7f509842c48db8b23 -->
<g id="edge1" class="edge">
<title>dir_e1d95de2daaa60f98711a754eb3af91a&#45;&gt;dir_d44c64559bbebec7f509842c48db8b23</title>
<path fill="none" stroke="black" d="M68,-71.7C68,-63.98 68,-54.71 68,-46.11"/>
<polygon fill="black" stroke="black" points="71.5,-46.1 68,-36.1 64.5,-46.1 71.5,-46.1"/>
<g id="a_edge1&#45;headlabel"><a xlink:href="dir_000030_000002.html" target="_top" xlink:title="2">
<text text-anchor="middle" x="74.34" y="-47.2" font-family="Helvetica,sans-Serif" font-size="10.00">2</text>
</a>
</g>
</g>
</g>
</svg>
