<?xml version="1.0" encoding="UTF-8" standalone="no"?>
<!DOCTYPE svg PUBLIC "-//W3C//DTD SVG 1.1//EN"
 "http://www.w3.org/Graphics/SVG/1.1/DTD/svg11.dtd">
<!-- Generated by graphviz version 2.43.0 (0)
 -->
<!-- Title: PackageManagerInterface Pages: 1 -->
<svg width="491pt" height="408pt"
 viewBox="0.00 0.00 491.00 408.00" xmlns="http://www.w3.org/2000/svg" xmlns:xlink="http://www.w3.org/1999/xlink">
<g id="graph0" class="graph" transform="scale(1 1) rotate(0) translate(4 404)">
<title>PackageManagerInterface</title>
<polygon fill="white" stroke="transparent" points="-4,4 -4,-404 487,-404 487,4 -4,4"/>
<!-- Node1 -->
<g id="node1" class="node">
<title>Node1</title>
<g id="a_node1"><a xlink:title=" ">
<polygon fill="#bfbfbf" stroke="black" points="167.5,-0.5 167.5,-19.5 310.5,-19.5 310.5,-0.5 167.5,-0.5"/>
<text text-anchor="middle" x="239" y="-7.5" font-family="Helvetica,sans-Serif" font-size="10.00">PackageManagerInterface</text>
</a>
</g>
</g>
<!-- Node2 -->
<g id="node2" class="node">
<title>Node2</title>
<g id="a_node2"><a xlink:title=" ">
<polygon fill="white" stroke="#bfbfbf" points="0,-67.5 0,-86.5 166,-86.5 166,-67.5 0,-67.5"/>
<text text-anchor="middle" x="83" y="-74.5" font-family="Helvetica,sans-Serif" font-size="10.00">std::shared_ptr&lt; INvStorage &gt;</text>
</a>
</g>
</g>
<!-- Node2&#45;&gt;Node1 -->
<g id="edge1" class="edge">
<title>Node2&#45;&gt;Node1</title>
<path fill="none" stroke="#9a32cd" stroke-dasharray="5,2" d="M113.12,-63.45C144.01,-50.58 191.23,-30.9 218.2,-19.67"/>
<polygon fill="#9a32cd" stroke="#9a32cd" points="111.6,-60.29 103.72,-67.37 114.29,-66.75 111.6,-60.29"/>
<text text-anchor="middle" x="194" y="-41" font-family="Helvetica,sans-Serif" font-size="10.00"> storage_</text>
</g>
<!-- Node3 -->
<g id="node3" class="node">
<title>Node3</title>
<g id="a_node3"><a xlink:href="class_i_nv_storage.html" target="_top" xlink:title=" ">
<polygon fill="white" stroke="black" points="24.5,-141 24.5,-160 95.5,-160 95.5,-141 24.5,-141"/>
<text text-anchor="middle" x="60" y="-148" font-family="Helvetica,sans-Serif" font-size="10.00">INvStorage</text>
</a>
</g>
</g>
<!-- Node3&#45;&gt;Node2 -->
<g id="edge2" class="edge">
<title>Node3&#45;&gt;Node2</title>
<path fill="none" stroke="#9a32cd" stroke-dasharray="5,2" d="M65.95,-131.01C70.52,-116.8 76.63,-97.81 80.16,-86.84"/>
<polygon fill="#9a32cd" stroke="#9a32cd" points="62.55,-130.14 62.82,-140.73 69.21,-132.28 62.55,-130.14"/>
<text text-anchor="middle" x="83.5" y="-108" font-family="Helvetica,sans-Serif" font-size="10.00"> ptr</text>
</g>
<!-- Node4 -->
<g id="node4" class="node">
<title>Node4</title>
<g id="a_node4"><a xlink:href="struct_storage_config.html" target="_top" xlink:title=" ">
<polygon fill="white" stroke="black" points="17.5,-225.5 17.5,-244.5 102.5,-244.5 102.5,-225.5 17.5,-225.5"/>
<text text-anchor="middle" x="60" y="-232.5" font-family="Helvetica,sans-Serif" font-size="10.00">StorageConfig</text>
</a>
</g>
</g>
<!-- Node4&#45;&gt;Node3 -->
<g id="edge3" class="edge">
<title>Node4&#45;&gt;Node3</title>
<path fill="none" stroke="#9a32cd" stroke-dasharray="5,2" d="M60,-215.43C60,-198.13 60,-173.11 60,-160.1"/>
<polygon fill="#9a32cd" stroke="#9a32cd" points="56.5,-215.48 60,-225.48 63.5,-215.48 56.5,-215.48"/>
<text text-anchor="middle" x="79" y="-193.5" font-family="Helvetica,sans-Serif" font-size="10.00"> config_</text>
</g>
<!-- Node5 -->
<g id="node5" class="node">
<title>Node5</title>
<g id="a_node5"><a xlink:href="class_based_path.html" target="_top" xlink:title=" ">
<polygon fill="white" stroke="black" points="26,-375 26,-394 94,-394 94,-375 26,-375"/>
<text text-anchor="middle" x="60" y="-382" font-family="Helvetica,sans-Serif" font-size="10.00">BasedPath</text>
</a>
</g>
</g>
<!-- Node5&#45;&gt;Node4 -->
<g id="edge4" class="edge">
<title>Node5&#45;&gt;Node4</title>
<path fill="none" stroke="#9a32cd" stroke-dasharray="5,2" d="M60,-364.37C60,-332 60,-267.7 60,-244.55"/>
<polygon fill="#9a32cd" stroke="#9a32cd" points="56.5,-364.71 60,-374.71 63.5,-364.71 56.5,-364.71"/>
<text text-anchor="middle" x="121" y="-343" font-family="Helvetica,sans-Serif" font-size="10.00"> uptane_public_key_path</text>
<text text-anchor="middle" x="121" y="-332" font-family="Helvetica,sans-Serif" font-size="10.00">tls_pkey_path</text>
<text text-anchor="middle" x="121" y="-321" font-family="Helvetica,sans-Serif" font-size="10.00">uptane_metadata_path</text>
<text text-anchor="middle" x="121" y="-310" font-family="Helvetica,sans-Serif" font-size="10.00">sqldb_path</text>
<text text-anchor="start" x="60" y="-299" font-family="Helvetica,sans-Serif" font-size="10.00">uptane_private_key</text>
<text text-anchor="middle" x="121" y="-288" font-family="Helvetica,sans-Serif" font-size="10.00">_path</text>
<text text-anchor="middle" x="121" y="-277" font-family="Helvetica,sans-Serif" font-size="10.00">tls_cacert_path</text>
<text text-anchor="middle" x="121" y="-266" font-family="Helvetica,sans-Serif" font-size="10.00">tls_clientcert_path</text>
</g>
<!-- Node6 -->
<g id="node6" class="node">
<title>Node6</title>
<g id="a_node6"><a xlink:href="struct_package_config.html" target="_top" xlink:title=" ">
<polygon fill="white" stroke="black" points="195,-67.5 195,-86.5 283,-86.5 283,-67.5 195,-67.5"/>
<text text-anchor="middle" x="239" y="-74.5" font-family="Helvetica,sans-Serif" font-size="10.00">PackageConfig</text>
</a>
</g>
</g>
<!-- Node6&#45;&gt;Node1 -->
<g id="edge5" class="edge">
<title>Node6&#45;&gt;Node1</title>
<path fill="none" stroke="#9a32cd" stroke-dasharray="5,2" d="M239,-57.04C239,-44.67 239,-29.12 239,-19.63"/>
<polygon fill="#9a32cd" stroke="#9a32cd" points="235.5,-57.23 239,-67.23 242.5,-57.23 235.5,-57.23"/>
<text text-anchor="middle" x="255.5" y="-41" font-family="Helvetica,sans-Serif" font-size="10.00"> config</text>
</g>
<!-- Node7 -->
<g id="node7" class="node">
<title>Node7</title>
<g id="a_node7"><a xlink:title=" ">
<polygon fill="white" stroke="#bfbfbf" points="217,-135.5 217,-165.5 339,-165.5 339,-135.5 217,-135.5"/>
<text text-anchor="start" x="225" y="-153.5" font-family="Helvetica,sans-Serif" font-size="10.00">std::map&lt; std::string,</text>
<text text-anchor="middle" x="278" y="-142.5" font-family="Helvetica,sans-Serif" font-size="10.00"> std::string &gt;</text>
</a>
</g>
</g>
<!-- Node7&#45;&gt;Node6 -->
<g id="edge6" class="edge">
<title>Node7&#45;&gt;Node6</title>
<path fill="none" stroke="#9a32cd" stroke-dasharray="5,2" d="M265.48,-126.54C258.07,-112.96 249.11,-96.54 243.74,-86.7"/>
<polygon fill="#9a32cd" stroke="#9a32cd" points="262.43,-128.27 270.29,-135.37 268.58,-124.92 262.43,-128.27"/>
<text text-anchor="middle" x="274.5" y="-108" font-family="Helvetica,sans-Serif" font-size="10.00"> extra</text>
</g>
<!-- Node8 -->
<g id="node8" class="node">
<title>Node8</title>
<g id="a_node8"><a xlink:title="STL class.">
<polygon fill="white" stroke="#bfbfbf" points="204.5,-225.5 204.5,-244.5 269.5,-244.5 269.5,-225.5 204.5,-225.5"/>
<text text-anchor="middle" x="237" y="-232.5" font-family="Helvetica,sans-Serif" font-size="10.00">std::string</text>
</a>
</g>
</g>
<!-- Node8&#45;&gt;Node6 -->
<g id="edge9" class="edge">
<title>Node8&#45;&gt;Node6</title>
<path fill="none" stroke="#9a32cd" stroke-dasharray="5,2" d="M207.37,-220.98C171.96,-203.45 119.97,-170.25 141,-134 155.26,-109.42 184.81,-94.72 207.75,-86.59"/>
<polygon fill="#9a32cd" stroke="#9a32cd" points="206.31,-224.35 216.84,-225.5 209.32,-218.03 206.31,-224.35"/>
<text text-anchor="middle" x="174.5" y="-159" font-family="Helvetica,sans-Serif" font-size="10.00"> os</text>
<text text-anchor="middle" x="174.5" y="-148" font-family="Helvetica,sans-Serif" font-size="10.00">ostree_server</text>
<text text-anchor="middle" x="174.5" y="-137" font-family="Helvetica,sans-Serif" font-size="10.00">type</text>
</g>
<!-- Node8&#45;&gt;Node7 -->
<g id="edge7" class="edge">
<title>Node8&#45;&gt;Node7</title>
<path fill="none" stroke="#9a32cd" stroke-dasharray="5,2" d="M245.86,-216.17C253.39,-201.02 264.05,-179.57 271,-165.59"/>
<polygon fill="#9a32cd" stroke="#9a32cd" points="242.55,-214.97 241.23,-225.48 248.82,-218.08 242.55,-214.97"/>
<text text-anchor="middle" x="285" y="-199" font-family="Helvetica,sans-Serif" font-size="10.00"> keys</text>
<text text-anchor="middle" x="285" y="-188" font-family="Helvetica,sans-Serif" font-size="10.00">elements</text>
</g>
<!-- Node9 -->
<g id="node9" class="node">
<title>Node9</title>
<g id="a_node9"><a xlink:title="STL class.">
<polygon fill="white" stroke="#bfbfbf" points="185,-369.5 185,-399.5 289,-399.5 289,-369.5 185,-369.5"/>
<text text-anchor="start" x="193" y="-387.5" font-family="Helvetica,sans-Serif" font-size="10.00">std::basic_string&lt;</text>
<text text-anchor="middle" x="237" y="-376.5" font-family="Helvetica,sans-Serif" font-size="10.00"> char &gt;</text>
</a>
</g>
</g>
<!-- Node9&#45;&gt;Node8 -->
<g id="edge8" class="edge">
<title>Node9&#45;&gt;Node8</title>
<path fill="none" stroke="midnightblue" d="M237,-359.04C237,-325.5 237,-266.9 237,-244.79"/>
<polygon fill="midnightblue" stroke="midnightblue" points="233.5,-359.36 237,-369.36 240.5,-359.36 233.5,-359.36"/>
</g>
<!-- Node10 -->
<g id="node10" class="node">
<title>Node10</title>
<g id="a_node10"><a xlink:title=" ">
<polygon fill="white" stroke="#bfbfbf" points="307,-67.5 307,-86.5 483,-86.5 483,-67.5 307,-67.5"/>
<text text-anchor="middle" x="395" y="-74.5" font-family="Helvetica,sans-Serif" font-size="10.00">std::shared_ptr&lt; HttpInterface &gt;</text>
</a>
</g>
</g>
<!-- Node10&#45;&gt;Node1 -->
<g id="edge10" class="edge">
<title>Node10&#45;&gt;Node1</title>
<path fill="none" stroke="#9a32cd" stroke-dasharray="5,2" d="M364.88,-63.45C333.99,-50.58 286.77,-30.9 259.8,-19.67"/>
<polygon fill="#9a32cd" stroke="#9a32cd" points="363.71,-66.75 374.28,-67.37 366.4,-60.29 363.71,-66.75"/>
<text text-anchor="middle" x="341" y="-41" font-family="Helvetica,sans-Serif" font-size="10.00"> http_</text>
</g>
<!-- Node11 -->
<g id="node11" class="node">
<title>Node11</title>
<g id="a_node11"><a xlink:href="class_http_interface.html" target="_top" xlink:title=" ">
<polygon fill="white" stroke="black" points="357.5,-141 357.5,-160 438.5,-160 438.5,-141 357.5,-141"/>
<text text-anchor="middle" x="398" y="-148" font-family="Helvetica,sans-Serif" font-size="10.00">HttpInterface</text>
</a>
</g>
</g>
<!-- Node11&#45;&gt;Node10 -->
<g id="edge11" class="edge">
<title>Node11&#45;&gt;Node10</title>
<path fill="none" stroke="#9a32cd" stroke-dasharray="5,2" d="M397.21,-130.59C396.61,-116.43 395.83,-97.7 395.37,-86.84"/>
<polygon fill="#9a32cd" stroke="#9a32cd" points="393.72,-130.89 397.63,-140.73 400.71,-130.59 393.72,-130.89"/>
<text text-anchor="middle" x="405.5" y="-108" font-family="Helvetica,sans-Serif" font-size="10.00"> ptr</text>
</g>
</g>
</svg>
